<?xml version="1.0" encoding="utf-8"?>
<!-- Generator: Adobe Illustrator 16.0.0, SVG Export Plug-In . SVG Version: 6.00 Build 0)  -->
<!DOCTYPE svg PUBLIC "-//W3C//DTD SVG 1.1//EN" "http://www.w3.org/Graphics/SVG/1.1/DTD/svg11.dtd">
<svg version="1.1" id="레이어_1" xmlns="http://www.w3.org/2000/svg" xmlns:xlink="http://www.w3.org/1999/xlink" x="0px"
	 y="0px" width="204.675px" height="331.478px" viewBox="0 0 204.675 331.478" enable-background="new 0 0 204.675 331.478"
	 xml:space="preserve">
<g>
	<g>
		<path fill="#E6E6E5" d="M102.337,331.476L102.337,331.476C45.818,331.476,0,285.658,0,229.146V102.338
			C0,45.817,45.818,0,102.337,0s102.337,45.817,102.337,102.338v126.809C204.674,285.658,158.857,331.476,102.337,331.476"/>
	</g>
	<path fill="#FFFFFF" d="M102.337,329.099c-55.119,0-99.96-44.842-99.96-99.953V102.338c0-55.119,44.841-99.961,99.96-99.961
		c55.118,0,99.96,44.842,99.96,99.961v126.809C202.297,284.257,157.456,329.099,102.337,329.099"/>
	<path fill="#E27375" d="M100.195,289.402c18.096,0,32.766-14.67,32.766-32.767c0-18.096-14.67-32.76-32.766-32.76
		s-32.766,14.664-32.766,32.76C67.429,274.732,82.099,289.402,100.195,289.402"/>
	<circle fill="none" stroke="#FFFFFF" stroke-width="6.035" cx="97.31" cy="253.707" r="14.648"/>
	<line fill="none" stroke="#FFFFFF" stroke-width="6.035" x1="106.542" y1="264.736" x2="118.612" y2="276.806"/>
	<path fill="#E27375" d="M133.038,145.105c-0.531,0-0.652-0.074-0.652-0.604v-0.846h10.768v1.449H133.038z M131.155,131.225
		c0-1.207,0.845-1.811,2.052-1.811s2.052,0.604,2.052,1.811v1.232c0,1.23-0.845,1.809-2.052,1.809s-2.052-0.578-2.052-1.809V131.225
		z M147.982,148.314v-7.361c0-1.617-1.038-2.316-2.391-2.316c-1.256,0-2.27,0.578-2.414,1.932h-10.815
		c-0.169-1.328-1.134-1.932-2.365-1.932c-1.352,0-2.438,0.676-2.438,2.316v3.838c0,2.584,0.724,3.523,3.428,3.523H147.982z
		 M126.448,132.215c0,3.91,2.679,5.48,6.759,5.48c3.404,0,5.867-1.135,6.494-3.912h3.355v4.104h4.805v-9.896
		c0-1.521-1.184-2.342-2.414-2.342c-1.255,0-2.391,0.797-2.391,2.342v2.027h-3.331c-0.579-2.848-3.041-4.031-6.519-4.031
		c-4.007,0-6.759,1.568-6.759,5.48V132.215z M118.24,148.314h4.78v-10.016h0.796c1.448,0,1.906-1.111,1.906-2.102
		c0-0.965-0.434-2.1-1.906-2.1h-0.796v-6.107c0-1.521-1.159-2.342-2.391-2.342c-1.256,0-2.39,0.797-2.39,2.342V148.314z
		 M101.872,143.463c-1.11,0.771-1.014,2.148-0.362,2.896c0.652,0.846,2.101,0.941,3.331,0.291c2.535-1.377,4.322-3.887,5.36-7.508
		c1.641,1.377,2.245,3.934,1.714,7.797h4.683c0.508-7.266-1.496-10.717-5.575-12.334c0.12-1.256,0.192-2.607,0.192-4.031v-1.859
		c0-1.473-1.159-2.342-2.39-2.342c-1.256,0-2.39,0.797-2.39,2.342v1.883C106.435,137.236,105.397,141.051,101.872,143.463
		 M94.533,132.795c0,1.279-0.99,2.221-2.583,2.221h-6.035c-1.594,0-2.583-0.941-2.583-2.221v-0.387c0-1.279,0.989-2.221,2.583-2.221
		h6.035c1.593,0,2.583,0.941,2.583,2.221V132.795z M79.662,143.971c-1.472,0-2.028,0.965-2.028,1.93c0,0.99,0.58,1.932,2.028,1.932
		h18.541c1.448,0,2.027-0.941,2.027-1.932c0-0.965-0.556-1.93-2.027-1.93h-2.342v-2.197c0-1.543-1.135-2.051-2.391-2.051
		c-1.279,0-2.39,0.482-2.39,2.051v2.197h-4.297v-2.197c0-1.543-1.135-2.051-2.39-2.051c-1.28,0-2.391,0.482-2.391,2.051v2.197
		H79.662z M78.31,132.746c0,3.307,2.221,6.18,6.276,6.18h8.691c4.055,0,6.275-2.873,6.275-6.18v-0.289
		c0-3.309-2.221-6.205-6.275-6.205h-8.691c-4.056,0-6.276,2.896-6.276,6.205V132.746z M74.061,143.27
		c1.448,0,2.027-0.965,2.027-1.955c0-0.965-0.555-1.979-2.027-1.979h-18.54c-1.474,0-2.028,1.014-2.028,1.979
		c0,0.99,0.579,1.955,2.028,1.955h6.808v5.166h4.925v-5.166H74.061z M73.144,130.139c1.447,0,2.027-0.99,2.027-1.98
		c0-0.965-0.555-1.979-2.027-1.979H56.438c-1.473,0-2.028,1.014-2.028,1.979c0,0.99,0.58,1.98,2.028,1.98h5.77
		c-0.482,2.607-3.259,3.982-6.591,4.369c-1.182,0.145-1.786,1.135-1.641,2.197c0.145,1.135,1.23,1.859,2.559,1.762
		c2.945-0.191,6.228-1.375,8.377-3.572c0.193-0.023,0.362-0.049,0.507-0.049c2.729-0.072,4.949,1.158,5.383,3.621h4.756
		c-0.289-4.998-4.345-7.219-8.328-7.145h-0.241c0.097-0.363,0.169-0.773,0.217-1.184H73.144z"/>
</g>
<g>
	<g>
		<path fill="#E6E6E5" d="M376.72,331.476L376.72,331.476c-56.52,0-102.337-45.818-102.337-102.33V102.338
			C274.383,45.817,320.201,0,376.72,0c56.519,0,102.336,45.817,102.336,102.338v126.809
			C479.056,285.658,433.239,331.476,376.72,331.476"/>
	</g>
	<path fill="#FFFFFF" d="M376.72,329.099c-55.118,0-99.96-44.842-99.96-99.953V102.338c0-55.119,44.842-99.961,99.96-99.961
		s99.959,44.842,99.959,99.961v126.809C476.679,284.257,431.838,329.099,376.72,329.099"/>
	<path fill="#F4A000" d="M377.695,289.402c18.096,0,32.767-14.67,32.767-32.767c0-18.096-14.671-32.76-32.767-32.76
		c-18.097,0-32.767,14.664-32.767,32.76C344.928,274.732,359.598,289.402,377.695,289.402"/>
	<path fill="#FFFFFF" d="M377.695,276.318c0,0,12.807-9.959,12.807-26.556c0-7.072-5.734-12.807-12.807-12.807
		c-7.073,0-12.808,5.734-12.808,12.807C364.887,266.359,377.695,276.318,377.695,276.318"/>
	<path fill="#F4A000" d="M377.694,257.646c4.323,0,7.828-3.504,7.828-7.828c0-4.322-3.505-7.828-7.828-7.828
		c-4.322,0-7.827,3.506-7.827,7.828C369.867,254.143,373.372,257.646,377.694,257.646"/>
	<path fill="#F4A000" d="M447.046,164.158v-20.279c0-1.568-1.133-2.391-2.414-2.391c-1.279,0-2.414,0.822-2.414,2.391v20.279
		H447.046z M430.053,149.021c0,5.383-1.4,8.354-4.467,10.26c-0.967,0.604-1.184,1.738-0.725,2.631
		c0.482,0.941,1.955,1.279,2.994,0.846c2.51-1.063,4.49-3.162,5.672-6.229c1.498,1.037,2.197,3.041,1.883,6.277h4.538
		c0.266-6.639-1.883-9.344-5.382-10.551c0.121-0.965,0.193-2.002,0.193-3.113v-2.607h3.233c1.449,0,2.004-1.063,2.004-2.053
		c0-0.965-0.531-2.076-2.004-2.076h-11.177c-1.473,0-2.051,1.111-2.051,2.076c0,0.99,0.604,2.053,2.051,2.053h3.236V149.021z
		 M408.084,160.971c-0.531,0-0.652-0.072-0.652-0.604v-0.748H418.2v1.352H408.084z M418.03,154.236h4.877v-10.357
		c0-1.545-1.184-2.391-2.438-2.391c-1.281,0-2.439,0.822-2.439,2.391V154.236z M415.448,154.188c1.135,0,1.568-0.844,1.568-1.641
		s-0.482-1.666-1.568-1.666h-8.402c-0.434,0-0.604-0.242-0.604-0.557v-0.096c0-0.313,0.17-0.58,0.604-0.58h7.871v-4.586
		c0-1.762-0.967-2.969-3.381-2.969h-8.352c-1.088,0-1.57,0.844-1.57,1.666c0,0.771,0.459,1.641,1.57,1.641h6.396
		c0.436,0,0.531,0.145,0.531,0.459v0.773h-4.973c-2.414,0-3.646,1.375-3.646,3.354v0.436c0,1.955,1.256,3.766,3.646,3.766H415.448z
		 M423.028,164.158v-7.002c0-1.615-1.039-2.293-2.391-2.293c-1.184,0-2.148,0.508-2.389,1.691H407.36
		c-0.217-1.184-1.16-1.691-2.316-1.691c-1.354,0-2.439,0.652-2.439,2.293v3.477c0,2.584,0.725,3.525,3.428,3.525H423.028z
		 M383.025,145.883c0.652,0,0.748,0.121,0.748,0.75v13.012h-1.352c-0.651,0-0.748-0.121-0.748-0.75v-12.262
		c0-0.629,0.097-0.75,0.748-0.75H383.025z M394.854,164.158h4.297v-20.666c0-1.326-1.037-2.004-2.147-2.004
		c-1.136,0-2.149,0.652-2.149,2.004v6.736h-1.207v-6.76c0-1.328-1.015-1.98-2.101-1.98c-1.11,0-2.101,0.629-2.101,1.98v20.689h4.201
		v-9.971h1.207V164.158z M388.046,163.24V146.1c0-3.09-0.508-3.814-3.718-3.814h-3.235c-3.21,0-3.741,0.725-3.741,3.814v13.326
		c0,3.09,0.531,3.814,3.741,3.814H388.046z M369.82,159.523h4.805v-15.691c0-1.521-1.184-2.344-2.414-2.344
		c-1.257,0-2.391,0.797-2.391,2.344v10.863h-3.67c-1.399,0-1.931,0.82-1.931,1.738c0,0.916,0.555,1.713,1.931,1.713h3.67V159.523z
		 M362.77,157.736v-4.248h4.225c1.449,0,2.028-0.82,2.028-1.836c0-0.965-0.555-1.811-1.979-1.834c0.29-0.797,0.58-1.955,0.58-3.453
		v-1.615c0-1.691-0.846-2.633-3.091-2.633h-8.859c-1.521,0-2.149,0.869-2.149,1.859c0,1.086,0.652,1.906,2.149,1.906h6.784
		c0.409,0,0.555,0.098,0.555,0.482v0.459c0,1.063-0.193,2.197-0.483,2.994h-7.846c-1.472,0-2.052,0.844-2.052,1.834
		c0,1.016,0.604,1.836,2.052,1.836h3.404v2.92c-0.314-0.121-0.677-0.191-1.063-0.191c-1.352,0-2.463,0.771-2.463,2.414v2.002
		c0,2.584,0.725,3.525,3.429,3.525h15.233c1.448,0,2.027-0.869,2.027-1.811c0-0.918-0.556-1.787-2.027-1.787h-13.133
		c-0.531,0-0.652-0.096-0.652-0.627v-1.303c0-0.338-0.048-0.629-0.145-0.895H362.77z M333.704,142.262
		c-2.896,0-3.886,1.039-3.886,3.814v5.238c0,2.801,0.99,3.814,3.886,3.814h3.671v4.635h-6.809c-1.472,0-2.027,0.99-2.027,1.957
		c0,0.99,0.579,1.955,2.027,1.955h18.541c1.448,0,2.027-0.965,2.027-1.955c0-0.967-0.556-1.957-2.027-1.957h-6.808v-4.635h5.721
		c1.328,0,1.883-1.086,1.883-2.002c0-0.895-0.53-2.004-1.883-2.004h-12.602c-0.507,0-0.676-0.17-0.676-0.678v-3.5
		c0-0.508,0.169-0.65,0.676-0.65h12.216c1.352,0,1.858-1.088,1.858-2.004c0-0.918-0.482-2.029-1.858-2.029H333.704z
		 M324.965,159.113c1.449,0,2.027-0.967,2.027-1.957c0-0.965-0.555-1.979-2.027-1.979h-18.54c-1.474,0-2.028,1.014-2.028,1.979
		c0,0.99,0.579,1.957,2.028,1.957h6.808v5.166h4.925v-5.166H324.965z M318.061,144.145c0.048-1.52-0.845-2.438-2.245-2.559
		c-1.352-0.098-2.487,0.652-2.704,2.174c-0.507,3.475-3.38,5.744-6.542,6.301c-1.23,0.217-1.883,1.158-1.787,2.316
		c0.098,1.184,1.063,1.883,2.245,1.883c3.309,0,6.93-1.883,9.103-4.803c2.823-0.072,5.021,1.736,5.504,4.73h4.876
		c-0.41-5.891-4.514-8.545-8.643-8.594C317.964,145.111,318.037,144.652,318.061,144.145"/>
	<path fill="#F4A000" d="M421.821,119.945c-1.473,0-2.027,1.039-2.027,2.004c0,0.988,0.578,1.979,2.027,1.979h18.54
		c1.447,0,2.027-0.99,2.027-1.979c0-0.965-0.555-2.004-2.027-2.004H421.821z M439.466,118.496c1.449,0,2.029-0.893,2.029-1.885
		c0-0.965-0.557-1.857-2.029-1.857H426.36c-0.531,0-0.652-0.072-0.652-0.604v-1.787c0-1.617-1.086-2.342-2.439-2.342
		c-1.352,0-2.486,0.701-2.486,2.342v2.631c0,2.609,0.725,3.502,3.453,3.502H439.466z M424.452,132.475h15.161
		c1.447,0,2.025-0.893,2.025-1.883c0-0.967-0.555-1.859-2.025-1.859H426.6c-0.531,0-0.65-0.072-0.65-0.604v-0.869
		c0-1.617-1.088-2.342-2.439-2.342s-2.51,0.701-2.51,2.342v1.713C421,131.582,421.723,132.475,424.452,132.475 M402.555,119.969
		c-0.58,0-0.748-0.242-0.748-0.725v-2.148h10.26v2.873H402.555z M397.678,128.08c-1.472,0-2.028,0.99-2.028,1.957
		c0,0.988,0.58,1.955,2.028,1.955h18.541c1.449,0,2.029-0.967,2.029-1.955c0-0.967-0.557-1.957-2.029-1.957h-6.807v-4.225h7.58
		v-11.469c0-1.545-1.232-2.148-2.463-2.148c-1.279,0-2.463,0.58-2.463,2.148v0.967h-10.26v-0.918c0-1.521-1.256-2.197-2.463-2.197
		c-1.279,0-2.485,0.58-2.485,2.148v7.752c0,2.799,0.578,3.717,3.501,3.717h4.127v4.225H397.678z M370.592,128.178
		c-0.482,0-1.014-0.266-1.014-1.352v-11.422c0-1.061,0.531-1.352,1.014-1.352c0.483,0,1.014,0.291,1.014,1.352v11.422
		C371.606,127.912,371.076,128.178,370.592,128.178 M382.807,132.475h4.272v-20.619c0-1.326-1.062-2.051-2.147-2.051
		c-1.11,0-2.125,0.699-2.125,2.051V132.475z M377.52,132.475h4.153v-20.619c0-1.326-0.99-2.051-2.076-2.051
		c-1.11,0-2.077,0.699-2.077,2.051v6.955h-1.688v-2.584c0-3.863-1.812-5.867-5.239-5.867s-5.335,2.004-5.335,5.867v9.777
		c0,3.863,1.907,5.867,5.335,5.867s5.239-2.004,5.239-5.867v-3.307h1.688V132.475z M345.268,132.475h15.161
		c1.448,0,2.027-0.893,2.027-1.883c0-0.967-0.555-1.859-2.027-1.859h-13.013c-0.531,0-0.651-0.072-0.651-0.604v-0.99
		c0-1.617-1.087-2.342-2.438-2.342c-1.353,0-2.51,0.701-2.51,2.342v1.834C341.817,131.582,342.541,132.475,345.268,132.475
		 M360.285,118.496c1.447,0,2.027-0.893,2.027-1.885c0-0.965-0.556-1.857-2.027-1.857h-13.109c-0.531,0-0.652-0.072-0.652-0.604
		v-1.787c0-1.617-1.086-2.342-2.438-2.342s-2.487,0.701-2.487,2.342v2.631c0,2.609,0.726,3.502,3.453,3.502H360.285z
		 M349.686,127.404h4.853v-3.621h6.639c1.448,0,2.028-0.965,2.028-1.955c0-0.965-0.557-1.98-2.028-1.98h-18.541
		c-1.472,0-2.026,1.016-2.026,1.98c0,0.99,0.578,1.955,2.026,1.955h7.05V127.404z M317.072,120.67c-0.99,0-1.98-0.652-1.98-1.836
		v-1.666c0-1.184,0.99-1.836,1.98-1.836c0.989,0,1.979,0.652,1.979,1.836v1.666C319.051,120.018,318.061,120.67,317.072,120.67
		 M326.269,126.873H331v-6.832h0.749c1.448,0,1.907-1.109,1.907-2.1c0-0.967-0.436-2.102-1.907-2.102H331v-3.646
		c0-1.545-1.11-2.389-2.365-2.389c-1.28,0-2.366,0.82-2.366,2.389V126.873z M329.793,132.475c1.449,0,2.028-0.893,2.028-1.883
		c0-0.967-0.556-1.859-2.028-1.859h-12.65c-0.53,0-0.65-0.072-0.65-0.604v-0.965c0-1.619-1.063-2.391-2.415-2.391
		s-2.486,0.748-2.486,2.391v1.785c0,2.584,0.724,3.525,3.428,3.525H329.793z M317.072,124.121c3.403,0,6.373-1.643,6.373-5.166
		v-1.762c0-0.629-0.193-1.184-0.531-1.691h0.097c1.207,0,1.738-0.846,1.738-1.715c0-0.867-0.555-1.811-1.762-1.811h-3.478v-0.047
		c0-1.4-0.99-2.246-2.438-2.246c-1.448,0-2.414,0.82-2.414,2.246v0.047h-3.501c-1.184,0-1.786,0.943-1.786,1.811
		c0,0.869,0.628,1.715,1.811,1.715h0.024c-0.314,0.508-0.507,1.063-0.507,1.691v1.762
		C310.699,122.479,313.667,124.121,317.072,124.121"/>
</g>
<g>
	<g>
		<path fill="#E6E6E5" d="M651.013,331.476L651.013,331.476c-56.523,0-102.34-45.818-102.34-102.33V102.338
			C548.673,45.817,594.489,0,651.013,0l0,0c56.52,0,102.338,45.817,102.338,102.338v126.809
			C753.351,285.658,707.532,331.476,651.013,331.476"/>
	</g>
	<path fill="#FFFFFF" d="M651.013,329.099c-55.121,0-99.963-44.842-99.963-99.953V102.338c0-55.119,44.842-99.961,99.963-99.961
		c55.119,0,99.961,44.842,99.961,99.961v126.809C750.974,284.257,706.132,329.099,651.013,329.099"/>
	<path fill="#21B8E4" d="M651.081,289.402c18.096,0,32.766-14.67,32.766-32.767c0-18.096-14.67-32.76-32.766-32.76
		c-18.1,0-32.77,14.664-32.77,32.76C618.312,274.732,632.981,289.402,651.081,289.402"/>
	<polygon fill="#FFFFFF" points="669.665,256.637 642.526,240.969 642.526,272.304 	"/>
	<path fill="#21B8E4" d="M722.903,164.158v-20.279c0-1.568-1.135-2.391-2.414-2.391s-2.414,0.822-2.414,2.391v20.279H722.903z
		 M705.909,149.021c0,5.383-1.4,8.354-4.467,10.26c-0.967,0.604-1.184,1.738-0.725,2.631c0.482,0.941,1.955,1.279,2.994,0.846
		c2.51-1.063,4.49-3.162,5.672-6.229c1.498,1.037,2.197,3.041,1.883,6.277h4.539c0.266-6.639-1.883-9.344-5.383-10.551
		c0.121-0.965,0.193-2.002,0.193-3.113v-2.607h3.234c1.449,0,2.004-1.063,2.004-2.053c0-0.965-0.531-2.076-2.004-2.076h-11.178
		c-1.473,0-2.051,1.111-2.051,2.076c0,0.99,0.604,2.053,2.051,2.053h3.236V149.021z M683.94,160.971
		c-0.531,0-0.652-0.072-0.652-0.604v-0.748h10.768v1.352H683.94z M693.886,154.236h4.877v-10.357c0-1.545-1.184-2.391-2.438-2.391
		c-1.281,0-2.439,0.822-2.439,2.391V154.236z M691.304,154.188c1.133,0,1.568-0.844,1.568-1.641s-0.482-1.666-1.568-1.666h-8.402
		c-0.434,0-0.604-0.242-0.604-0.557v-0.096c0-0.313,0.17-0.58,0.604-0.58h7.869v-4.586c0-1.762-0.965-2.969-3.379-2.969h-8.352
		c-1.088,0-1.57,0.844-1.57,1.666c0,0.771,0.459,1.641,1.57,1.641h6.396c0.436,0,0.531,0.145,0.531,0.459v0.773h-4.973
		c-2.414,0-3.646,1.375-3.646,3.354v0.436c0,1.955,1.256,3.766,3.646,3.766H691.304z M698.884,164.158v-7.002
		c0-1.615-1.039-2.293-2.391-2.293c-1.184,0-2.148,0.508-2.391,1.691h-10.887c-0.217-1.184-1.16-1.691-2.318-1.691
		c-1.352,0-2.438,0.652-2.438,2.293v3.477c0,2.584,0.725,3.525,3.428,3.525H698.884z M658.882,145.883
		c0.652,0,0.748,0.121,0.748,0.75v13.012h-1.352c-0.652,0-0.748-0.121-0.748-0.75v-12.262c0-0.629,0.096-0.75,0.748-0.75H658.882z
		 M670.71,164.158h4.297v-20.666c0-1.326-1.037-2.004-2.146-2.004c-1.137,0-2.15,0.652-2.15,2.004v6.736h-1.207v-6.76
		c0-1.328-1.014-1.98-2.1-1.98c-1.111,0-2.102,0.629-2.102,1.98v20.689h4.201v-9.971h1.207V164.158z M663.903,163.24V146.1
		c0-3.09-0.508-3.814-3.719-3.814h-3.234c-3.211,0-3.742,0.725-3.742,3.814v13.326c0,3.09,0.531,3.814,3.742,3.814H663.903z
		 M645.677,159.523h4.803v-15.691c0-1.521-1.182-2.344-2.412-2.344c-1.258,0-2.391,0.797-2.391,2.344v10.863h-3.67
		c-1.404,0-1.936,0.82-1.936,1.738c0,0.916,0.555,1.713,1.936,1.713h3.67V159.523z M638.622,157.736v-4.248h4.229
		c1.449,0,2.029-0.82,2.029-1.836c0-0.965-0.555-1.811-1.98-1.834c0.289-0.797,0.58-1.955,0.58-3.453v-1.615
		c0-1.691-0.846-2.633-3.094-2.633h-8.859c-1.521,0-2.15,0.869-2.15,1.859c0,1.086,0.652,1.906,2.15,1.906h6.783
		c0.41,0,0.555,0.098,0.555,0.482v0.459c0,1.063-0.193,2.197-0.482,2.994h-7.846c-1.473,0-2.053,0.844-2.053,1.834
		c0,1.016,0.604,1.836,2.053,1.836h3.404v2.92c-0.314-0.121-0.676-0.191-1.063-0.191c-1.352,0-2.463,0.771-2.463,2.414v2.002
		c0,2.584,0.725,3.525,3.428,3.525h15.238c1.447,0,2.025-0.869,2.025-1.811c0-0.918-0.555-1.787-2.025-1.787h-13.137
		c-0.531,0-0.652-0.096-0.652-0.627v-1.303c0-0.338-0.049-0.629-0.145-0.895H638.622z M609.558,142.262
		c-2.896,0-3.887,1.039-3.887,3.814v5.238c0,2.801,0.99,3.814,3.887,3.814h3.67v4.635h-6.809c-1.473,0-2.027,0.99-2.027,1.957
		c0,0.99,0.578,1.955,2.027,1.955h18.541c1.447,0,2.027-0.965,2.027-1.955c0-0.967-0.555-1.957-2.027-1.957h-6.809v-4.635h5.721
		c1.328,0,1.883-1.086,1.883-2.002c0-0.895-0.529-2.004-1.883-2.004h-12.602c-0.506,0-0.676-0.17-0.676-0.678v-3.5
		c0-0.508,0.17-0.65,0.676-0.65h12.217c1.352,0,1.857-1.088,1.857-2.004c0-0.918-0.482-2.029-1.857-2.029H609.558z M600.817,159.113
		c1.449,0,2.027-0.967,2.027-1.957c0-0.965-0.555-1.979-2.027-1.979h-18.539c-1.473,0-2.029,1.014-2.029,1.979
		c0,0.99,0.58,1.957,2.029,1.957h6.807v5.166h4.926v-5.166H600.817z M593.913,144.145c0.049-1.52-0.844-2.438-2.244-2.559
		c-1.352-0.098-2.486,0.652-2.705,2.174c-0.506,3.475-3.379,5.744-6.541,6.301c-1.23,0.217-1.883,1.158-1.787,2.316
		c0.098,1.184,1.063,1.883,2.244,1.883c3.309,0,6.93-1.883,9.104-4.803c2.824-0.072,5.02,1.736,5.504,4.73h4.875
		c-0.41-5.891-4.514-8.545-8.643-8.594C593.817,145.111,593.89,144.652,593.913,144.145"/>
	<path fill="#21B8E4" d="M706.366,119.945c-1.473,0-2.027,1.039-2.027,2.004c0,0.988,0.58,1.979,2.027,1.979h18.541
		c1.449,0,2.027-0.99,2.027-1.979c0-0.965-0.555-2.004-2.027-2.004H706.366z M724.015,118.496c1.449,0,2.027-0.893,2.027-1.885
		c0-0.965-0.555-1.857-2.027-1.857h-13.109c-0.531,0-0.65-0.072-0.65-0.604v-1.787c0-1.617-1.088-2.342-2.439-2.342
		s-2.486,0.701-2.486,2.342v2.631c0,2.609,0.725,3.502,3.451,3.502H724.015z M708.997,132.475h15.162
		c1.449,0,2.027-0.893,2.027-1.883c0-0.967-0.555-1.859-2.027-1.859h-13.012c-0.531,0-0.652-0.072-0.652-0.604v-0.869
		c0-1.617-1.086-2.342-2.438-2.342c-1.354,0-2.512,0.701-2.512,2.342v1.713C705.546,131.582,706.271,132.475,708.997,132.475
		 M687.103,119.969c-0.58,0-0.748-0.242-0.748-0.725v-2.148h10.26v2.873H687.103z M682.226,128.08c-1.473,0-2.027,0.99-2.027,1.957
		c0,0.988,0.578,1.955,2.027,1.955h18.541c1.449,0,2.027-0.967,2.027-1.955c0-0.967-0.555-1.957-2.027-1.957h-6.809v-4.225h7.58
		v-11.469c0-1.545-1.23-2.148-2.463-2.148c-1.277,0-2.461,0.58-2.461,2.148v0.967h-10.26v-0.918c0-1.521-1.256-2.197-2.463-2.197
		c-1.279,0-2.486,0.58-2.486,2.148v7.752c0,2.799,0.578,3.717,3.5,3.717h4.129v4.225H682.226z M651.325,128.08
		c-1.473,0-2.027,0.99-2.027,1.957c0,0.988,0.578,1.955,2.027,1.955h18.541c1.447,0,2.027-0.967,2.027-1.955
		c0-0.967-0.555-1.957-2.027-1.957h-6.809v-3.404h6.18c1.328,0,1.859-0.939,1.859-1.857c0-0.895-0.506-1.885-1.859-1.885h-13.084
		c-0.555,0-0.82-0.217-0.82-0.676v-0.119c0-0.459,0.266-0.676,0.82-0.676h14.389v-5.119c0-2.295-0.941-3.814-4.273-3.814H652.29
		c-1.158,0-1.857,0.965-1.857,1.932c0,0.988,0.699,1.93,1.857,1.93h12.627c0.555,0,0.652,0.363,0.652,0.676v0.725h-10.598
		c-3.188,0-4.807,1.643-4.807,4.227v0.459c0,2.582,1.619,4.199,4.807,4.199h3.162v3.404H651.325z M627.228,127.936
		c-1.496,0-2.076,1.037-2.076,2.027c0,1.014,0.605,2.029,2.076,2.029h18.449c1.473,0,2.074-1.016,2.074-2.029
		c0-0.99-0.578-2.027-2.074-2.027H627.228z M642.03,117.459c0,1.375-1.162,2.414-2.805,2.414h-5.576
		c-1.641,0-2.775-1.039-2.775-2.414v-0.701c0-1.377,1.135-2.414,2.775-2.414h5.576c1.643,0,2.805,1.037,2.805,2.414V117.459z
		 M625.853,117.41c0,3.355,2.463,6.396,6.543,6.396h8.086c4.084,0,6.57-3.041,6.57-6.396v-0.605c0-3.355-2.486-6.396-6.57-6.396
		h-8.086c-4.08,0-6.543,3.041-6.543,6.396V117.41z M607.384,127.814c0-0.604,0.314-1.352,1.377-1.352h7.652
		c1.063,0,1.377,0.748,1.377,1.352s-0.314,1.354-1.377,1.354h-7.652C607.698,129.168,607.384,128.418,607.384,127.814
		 M617.524,122.504h4.779v-4.176h0.748c1.449,0,1.908-1.086,1.908-2.078c0-0.967-0.436-2.076-1.908-2.076h-0.748v-1.98
		c0-1.545-1.135-2.389-2.389-2.389c-1.281,0-2.391,0.82-2.391,2.389V122.504z M602.218,118.52c-0.965,0.268-1.447,1.354-1.135,2.439
		c0.193,0.844,1.184,1.545,2.439,1.424c2.27-0.242,4.465-1.641,5.842-4.104c1.447,0.314,2.123,1.594,1.979,3.67h4.66
		c0.17-4.684-2.051-6.93-5.432-7.365c0.121-0.676,0.168-1.377,0.168-2.148v-0.145c0-1.449-1.061-2.221-2.316-2.244
		c-1.279-0.025-2.486,0.699-2.486,2.244v0.145C605.937,115.912,604.706,117.82,602.218,118.52 M602.483,127.814
		c0,2.607,1.643,4.732,4.998,4.732h10.211c3.309,0,4.998-2.076,4.998-4.732c0-2.654-1.689-4.73-4.998-4.73h-10.211
		C604.126,123.084,602.483,125.207,602.483,127.814 M590.653,116.709v-1.377h3.381v1.789h-3.404
		C590.653,116.998,590.653,116.854,590.653,116.709 M584.089,118.811c-1.207,0-2.004-0.555-2.004-1.836v-1.57
		c0-1.254,0.797-1.834,2.004-1.834s2.004,0.58,2.004,1.834v1.57C586.093,118.256,585.296,118.811,584.089,118.811 M583.243,127.814
		c0-0.604,0.314-1.352,1.377-1.352h8.158c1.063,0,1.377,0.748,1.377,1.352s-0.314,1.354-1.377,1.354h-8.158
		C583.558,129.168,583.243,128.418,583.243,127.814 M578.343,127.814c0,2.607,1.641,4.732,4.998,4.732h10.717
		c3.309,0,4.998-2.076,4.998-4.732c0-2.654-1.689-4.73-4.998-4.73h-10.717C579.983,123.084,578.343,125.207,578.343,127.814
		 M584.089,122.238c2.316,0,4.176-0.531,5.311-1.762h4.635v2.148h4.779v-10.479c0-1.521-1.182-2.342-2.414-2.342
		c-1.207,0-2.293,0.748-2.365,2.172h-4.588c-1.133-1.254-3.016-1.834-5.357-1.834c-3.984,0-6.688,1.594-6.688,5.529v1.037
		C577.401,120.645,580.104,122.238,584.089,122.238"/>
</g>
<g>
	<path fill="#E6E6E5" d="M925.396,331.476L925.396,331.476c-56.52,0-102.336-45.818-102.336-102.33V102.338
		C823.06,45.817,868.876,0,925.396,0s102.338,45.817,102.338,102.338v126.809C1027.733,285.658,981.915,331.476,925.396,331.476"/>
	<path fill="#FFFFFF" d="M925.396,329.099c-55.117,0-99.961-44.842-99.961-99.953V102.338c0-55.119,44.844-99.961,99.961-99.961
		c55.119,0,99.961,44.842,99.961,99.961v126.809C1025.356,284.257,980.515,329.099,925.396,329.099"/>
	<g>
		<path fill="#86BC42" d="M926.966,289.402c18.096,0,32.766-14.67,32.766-32.767c0-18.096-14.67-32.76-32.766-32.76
			s-32.766,14.664-32.766,32.76C894.2,274.732,908.87,289.402,926.966,289.402"/>
	</g>
	<rect x="904.251" y="256.646" fill="#FFFFFF" width="9.219" height="15.064"/>
	<rect x="916.319" y="241.559" fill="#FFFFFF" width="9.221" height="30.152"/>
	<rect x="928.392" y="250.611" fill="#FFFFFF" width="9.219" height="21.099"/>
	<rect x="940.462" y="265.699" fill="#FFFFFF" width="9.219" height="6.012"/>
	<g>
		<path fill="#86BC42" d="M997.142,164.158v-20.279c0-1.568-1.135-2.391-2.414-2.391s-2.414,0.822-2.414,2.391v20.279H997.142z
			 M980.146,149.021c0,5.383-1.398,8.354-4.465,10.26c-0.967,0.604-1.184,1.738-0.725,2.631c0.482,0.941,1.955,1.279,2.992,0.846
			c2.512-1.063,4.49-3.162,5.674-6.229c1.498,1.037,2.197,3.041,1.883,6.277h4.539c0.266-6.639-1.883-9.344-5.385-10.551
			c0.121-0.965,0.195-2.002,0.195-3.113v-2.607h3.234c1.449,0,2.004-1.063,2.004-2.053c0-0.965-0.531-2.076-2.004-2.076h-11.178
			c-1.473,0-2.053,1.111-2.053,2.076c0,0.99,0.605,2.053,2.053,2.053h3.234V149.021z M958.179,160.971
			c-0.533,0-0.652-0.072-0.652-0.604v-0.748h10.768v1.352H958.179z M968.124,154.236h4.877v-10.357c0-1.545-1.184-2.391-2.439-2.391
			c-1.279,0-2.438,0.822-2.438,2.391V154.236z M965.542,154.188c1.133,0,1.568-0.844,1.568-1.641s-0.482-1.666-1.568-1.666h-8.402
			c-0.434,0-0.604-0.242-0.604-0.557v-0.096c0-0.313,0.17-0.58,0.604-0.58h7.869v-4.586c0-1.762-0.965-2.969-3.379-2.969h-8.354
			c-1.086,0-1.568,0.844-1.568,1.666c0,0.771,0.459,1.641,1.568,1.641h6.398c0.434,0,0.531,0.145,0.531,0.459v0.773h-4.975
			c-2.414,0-3.645,1.375-3.645,3.354v0.436c0,1.955,1.256,3.766,3.645,3.766H965.542z M973.122,164.158v-7.002
			c0-1.615-1.039-2.293-2.391-2.293c-1.184,0-2.148,0.508-2.391,1.691h-10.887c-0.219-1.184-1.158-1.691-2.318-1.691
			c-1.352,0-2.439,0.652-2.439,2.293v3.477c0,2.584,0.727,3.525,3.43,3.525H973.122z M933.12,145.883c0.65,0,0.746,0.121,0.746,0.75
			v13.012h-1.352c-0.65,0-0.748-0.121-0.748-0.75v-12.262c0-0.629,0.098-0.75,0.748-0.75H933.12z M944.948,164.158h4.297v-20.666
			c0-1.326-1.037-2.004-2.148-2.004c-1.135,0-2.148,0.652-2.148,2.004v6.736h-1.207v-6.76c0-1.328-1.014-1.98-2.1-1.98
			c-1.111,0-2.102,0.629-2.102,1.98v20.689h4.201v-9.971h1.207V164.158z M938.14,163.24V146.1c0-3.09-0.506-3.814-3.717-3.814
			h-3.234c-3.211,0-3.742,0.725-3.742,3.814v13.326c0,3.09,0.531,3.814,3.742,3.814H938.14z M919.915,159.523h4.803v-15.691
			c0-1.521-1.184-2.344-2.414-2.344c-1.256,0-2.389,0.797-2.389,2.344v10.863h-3.67c-1.4,0-1.932,0.82-1.932,1.738
			c0,0.916,0.555,1.713,1.932,1.713h3.67V159.523z M912.864,157.736v-4.248h4.225c1.449,0,2.027-0.82,2.027-1.836
			c0-0.965-0.555-1.811-1.979-1.834c0.289-0.797,0.58-1.955,0.58-3.453v-1.615c0-1.691-0.846-2.633-3.09-2.633h-8.861
			c-1.52,0-2.146,0.869-2.146,1.859c0,1.086,0.65,1.906,2.146,1.906h6.785c0.41,0,0.555,0.098,0.555,0.482v0.459
			c0,1.063-0.193,2.197-0.482,2.994h-7.848c-1.471,0-2.051,0.844-2.051,1.834c0,1.016,0.604,1.836,2.051,1.836h3.404v2.92
			c-0.314-0.121-0.676-0.191-1.061-0.191c-1.354,0-2.463,0.771-2.463,2.414v2.002c0,2.584,0.725,3.525,3.428,3.525h15.232
			c1.449,0,2.029-0.869,2.029-1.811c0-0.918-0.557-1.787-2.029-1.787h-13.133c-0.531,0-0.652-0.096-0.652-0.627v-1.303
			c0-0.338-0.047-0.629-0.145-0.895H912.864z M883.8,142.262c-2.898,0-3.887,1.039-3.887,3.814v5.238
			c0,2.801,0.988,3.814,3.887,3.814h3.668v4.635h-6.809c-1.471,0-2.027,0.99-2.027,1.957c0,0.99,0.58,1.955,2.027,1.955H899.2
			c1.449,0,2.027-0.965,2.027-1.955c0-0.967-0.555-1.957-2.027-1.957h-6.807v-4.635h5.721c1.328,0,1.883-1.086,1.883-2.002
			c0-0.895-0.531-2.004-1.883-2.004h-12.602c-0.506,0-0.676-0.17-0.676-0.678v-3.5c0-0.508,0.17-0.65,0.676-0.65h12.215
			c1.354,0,1.859-1.088,1.859-2.004c0-0.918-0.482-2.029-1.859-2.029H883.8z M875.06,159.113c1.449,0,2.027-0.967,2.027-1.957
			c0-0.965-0.555-1.979-2.027-1.979h-18.541c-1.473,0-2.027,1.014-2.027,1.979c0,0.99,0.58,1.957,2.027,1.957h6.809v5.166h4.926
			v-5.166H875.06z M868.155,144.145c0.049-1.52-0.846-2.438-2.246-2.559c-1.352-0.098-2.486,0.652-2.703,2.174
			c-0.508,3.475-3.381,5.744-6.541,6.301c-1.232,0.217-1.885,1.158-1.787,2.316c0.096,1.184,1.063,1.883,2.246,1.883
			c3.307,0,6.928-1.883,9.1-4.803c2.824-0.072,5.021,1.736,5.504,4.73h4.877c-0.41-5.891-4.514-8.545-8.643-8.594
			C868.058,145.111,868.132,144.652,868.155,144.145"/>
		<path fill="#86BC42" d="M968.534,119.945c-1.473,0-2.027,1.037-2.027,2.004c0,0.99,0.578,1.979,2.027,1.979h18.541
			c1.449,0,2.027-0.988,2.027-1.979c0-0.967-0.555-2.004-2.027-2.004H968.534z M986.181,118.496c1.449,0,2.029-0.893,2.029-1.885
			c0-0.965-0.555-1.857-2.029-1.857h-13.107c-0.531,0-0.652-0.072-0.652-0.605v-1.785c0-1.617-1.086-2.342-2.438-2.342
			c-1.354,0-2.486,0.699-2.486,2.342v2.631c0,2.609,0.723,3.502,3.451,3.502H986.181z M971.165,132.475h15.162
			c1.447,0,2.027-0.895,2.027-1.883c0-0.967-0.557-1.859-2.027-1.859h-13.012c-0.531,0-0.652-0.072-0.652-0.604v-0.869
			c0-1.617-1.086-2.342-2.439-2.342c-1.352,0-2.51,0.699-2.51,2.342v1.713C967.714,131.58,968.438,132.475,971.165,132.475
			 M949.269,119.969c-0.578,0-0.746-0.24-0.746-0.725v-2.148h10.26v2.873H949.269z M944.394,128.08c-1.473,0-2.027,0.99-2.027,1.955
			c0,0.99,0.578,1.957,2.027,1.957h18.539c1.449,0,2.029-0.967,2.029-1.957c0-0.965-0.555-1.955-2.029-1.955h-6.807v-4.225h7.58
			v-11.469c0-1.545-1.232-2.148-2.463-2.148c-1.279,0-2.461,0.58-2.461,2.148v0.967h-10.26v-0.918c0-1.52-1.258-2.197-2.465-2.197
			c-1.277,0-2.484,0.58-2.484,2.148v7.75c0,2.803,0.578,3.719,3.5,3.719h4.127v4.225H944.394z M913.493,128.08
			c-1.475,0-2.029,0.99-2.029,1.955c0,0.99,0.58,1.957,2.029,1.957h18.539c1.449,0,2.027-0.967,2.027-1.957
			c0-0.965-0.555-1.955-2.027-1.955h-6.809v-3.404h6.182c1.328,0,1.859-0.941,1.859-1.857c0-0.895-0.508-1.885-1.859-1.885h-13.084
			c-0.557,0-0.822-0.217-0.822-0.676v-0.121c0-0.457,0.266-0.676,0.822-0.676h14.387v-5.117c0-2.295-0.941-3.816-4.273-3.816
			h-13.977c-1.158,0-1.859,0.967-1.859,1.934c0,0.988,0.701,1.93,1.859,1.93h12.625c0.557,0,0.652,0.363,0.652,0.676v0.725h-10.598
			c-3.186,0-4.805,1.643-4.805,4.227v0.457c0,2.584,1.619,4.201,4.805,4.201h3.162v3.404H913.493z M903.788,132.475h4.779v-10.02
			h0.797c1.449,0,1.908-1.111,1.908-2.1c0-0.967-0.436-2.102-1.908-2.102h-0.797v-6.107c0-1.521-1.158-2.342-2.391-2.342
			c-1.254,0-2.389,0.797-2.389,2.342V132.475z M892.103,117.338c0,5.359-1.279,8.377-4.297,10.26
			c-0.965,0.604-1.207,1.738-0.725,2.631c0.484,0.941,1.957,1.279,2.994,0.846c2.488-1.039,4.395-3.162,5.527-6.205
			c1.449,1.063,2.102,3.043,1.813,6.254h4.514c0.266-6.615-1.859-9.344-5.336-10.551c0.121-0.965,0.193-2.004,0.193-3.113v-2.609
			h3.139c1.449,0,1.98-1.063,1.98-2.051c0-0.967-0.508-2.078-1.98-2.078h-10.912c-1.473,0-2.027,1.111-2.027,2.078
			c0,0.988,0.58,2.051,2.027,2.051h3.09V117.338z M865.065,119.125c-1.375,0-1.883,0.869-1.883,1.762
			c0,0.916,0.531,1.762,1.883,1.762h6.977v2.027h4.877v-2.027h6.977c1.352,0,1.883-0.846,1.883-1.762
			c0-0.893-0.506-1.762-1.883-1.762H865.065z M880.444,132.475h4.924c-0.918-4.49-4.707-5.746-8.521-5.576
			c-0.049-1.137-0.967-1.691-2.197-1.738c-1.375-0.049-2.244,0.385-2.801,1.834c-0.508,1.328-3.211,2.125-5.986,1.787
			c-1.135-0.146-2.102,0.506-2.197,1.592c-0.121,1.256,0.725,2.029,2.027,2.221c2.945,0.412,7.17-0.264,9.488-2.268
			C877.546,129.916,879.599,130.688,880.444,132.475 M876.749,112.025c0.098-1.568-0.748-2.27-2.027-2.414
			c-1.305-0.145-2.512,0.434-2.896,1.906c-0.508,1.932-3.453,3.164-5.795,3.115c-1.447-0.025-2.197,0.965-2.221,1.955
			c-0.023,0.967,0.676,1.836,2.102,1.934c3.137,0.24,6.564-0.799,8.715-2.633c2.51-0.484,4.852,0.434,5.623,2.584h4.902
			c-0.869-4.709-4.66-6.375-8.426-6.207C876.726,112.193,876.749,112.123,876.749,112.025"/>
	</g>
</g>
<g>
	<g>
		<path fill="#E6E6E5" d="M1200.255,331.476L1200.255,331.476c-56.521,0-102.338-45.818-102.338-102.33V102.338
			C1097.917,45.817,1143.733,0,1200.255,0c56.518,0,102.338,45.817,102.338,102.338v126.809
			C1302.593,285.658,1256.772,331.476,1200.255,331.476"/>
	</g>
	<path fill="#FFFFFF" d="M1200.255,329.099c-55.119,0-99.961-44.842-99.961-99.953V102.338c0-55.119,44.842-99.961,99.961-99.961
		c55.117,0,99.959,44.842,99.959,99.961v126.809C1300.214,284.257,1255.372,329.099,1200.255,329.099"/>
	<g>
		<path fill="#079A92" d="M1272.187,164.158v-20.279c0-1.568-1.133-2.391-2.414-2.391c-1.279,0-2.414,0.822-2.414,2.391v20.279
			H1272.187z M1255.192,149.021c0,5.383-1.4,8.354-4.467,10.26c-0.965,0.604-1.184,1.738-0.725,2.631
			c0.484,0.941,1.955,1.279,2.994,0.846c2.51-1.063,4.49-3.162,5.672-6.229c1.498,1.037,2.197,3.041,1.885,6.277h4.537
			c0.266-6.639-1.883-9.344-5.383-10.551c0.121-0.965,0.193-2.002,0.193-3.113v-2.607h3.234c1.449,0,2.004-1.063,2.004-2.053
			c0-0.965-0.531-2.076-2.004-2.076h-11.178c-1.471,0-2.051,1.111-2.051,2.076c0,0.99,0.604,2.053,2.051,2.053h3.236V149.021z
			 M1233.224,160.971c-0.531,0-0.652-0.072-0.652-0.604v-0.748h10.768v1.352H1233.224z M1243.169,154.236h4.877v-10.357
			c0-1.545-1.184-2.391-2.438-2.391c-1.279,0-2.439,0.822-2.439,2.391V154.236z M1240.587,154.188c1.135,0,1.568-0.844,1.568-1.641
			s-0.482-1.666-1.568-1.666h-8.402c-0.434,0-0.604-0.242-0.604-0.557v-0.096c0-0.313,0.17-0.58,0.604-0.58h7.871v-4.586
			c0-1.762-0.967-2.969-3.379-2.969h-8.354c-1.086,0-1.57,0.844-1.57,1.666c0,0.771,0.459,1.641,1.57,1.641h6.396
			c0.436,0,0.531,0.145,0.531,0.459v0.773h-4.973c-2.414,0-3.646,1.375-3.646,3.354v0.436c0,1.955,1.256,3.766,3.646,3.766H1240.587
			z M1248.167,164.158v-7.002c0-1.615-1.039-2.293-2.391-2.293c-1.182,0-2.148,0.508-2.389,1.691h-10.889
			c-0.217-1.184-1.158-1.691-2.316-1.691c-1.354,0-2.439,0.652-2.439,2.293v3.477c0,2.584,0.725,3.525,3.428,3.525H1248.167z
			 M1208.165,145.883c0.652,0,0.748,0.121,0.748,0.75v13.012h-1.352c-0.652,0-0.748-0.121-0.748-0.75v-12.262
			c0-0.629,0.096-0.75,0.748-0.75H1208.165z M1219.993,164.158h4.297v-20.666c0-1.326-1.037-2.004-2.146-2.004
			c-1.137,0-2.15,0.652-2.15,2.004v6.736h-1.207v-6.76c0-1.328-1.014-1.98-2.1-1.98c-1.111,0-2.102,0.629-2.102,1.98v20.689h4.201
			v-9.971h1.207V164.158z M1213.187,163.24V146.1c0-3.09-0.508-3.814-3.717-3.814h-3.236c-3.211,0-3.742,0.725-3.742,3.814v13.326
			c0,3.09,0.531,3.814,3.742,3.814H1213.187z M1194.96,159.523h4.805v-15.691c0-1.521-1.184-2.344-2.414-2.344
			c-1.256,0-2.391,0.797-2.391,2.344v10.863h-3.67c-1.4,0-1.932,0.82-1.932,1.738c0,0.916,0.555,1.713,1.932,1.713h3.67V159.523z
			 M1187.911,157.736v-4.248h4.225c1.447,0,2.027-0.82,2.027-1.836c0-0.965-0.555-1.811-1.979-1.834
			c0.289-0.797,0.578-1.955,0.578-3.453v-1.615c0-1.691-0.846-2.633-3.09-2.633h-8.859c-1.521,0-2.148,0.869-2.148,1.859
			c0,1.086,0.65,1.906,2.148,1.906h6.783c0.41,0,0.555,0.098,0.555,0.482v0.459c0,1.063-0.193,2.197-0.482,2.994h-7.846
			c-1.473,0-2.053,0.844-2.053,1.834c0,1.016,0.604,1.836,2.053,1.836h3.404v2.92c-0.314-0.121-0.676-0.191-1.063-0.191
			c-1.352,0-2.463,0.771-2.463,2.414v2.002c0,2.584,0.725,3.525,3.428,3.525h15.234c1.447,0,2.027-0.869,2.027-1.811
			c0-0.918-0.557-1.787-2.027-1.787h-13.133c-0.531,0-0.652-0.096-0.652-0.627v-1.303c0-0.338-0.049-0.629-0.145-0.895H1187.911z
			 M1158.845,142.262c-2.896,0-3.887,1.039-3.887,3.814v5.238c0,2.801,0.99,3.814,3.887,3.814h3.67v4.635h-6.809
			c-1.473,0-2.027,0.99-2.027,1.957c0,0.99,0.578,1.955,2.027,1.955h18.541c1.447,0,2.027-0.965,2.027-1.955
			c0-0.967-0.555-1.957-2.027-1.957h-6.809v-4.635h5.721c1.328,0,1.883-1.086,1.883-2.002c0-0.895-0.529-2.004-1.883-2.004h-12.6
			c-0.508,0-0.678-0.17-0.678-0.678v-3.5c0-0.508,0.17-0.65,0.678-0.65h12.215c1.352,0,1.857-1.088,1.857-2.004
			c0-0.918-0.482-2.029-1.857-2.029H1158.845z M1150.104,159.113c1.449,0,2.027-0.967,2.027-1.957c0-0.965-0.555-1.979-2.027-1.979
			h-18.539c-1.473,0-2.029,1.014-2.029,1.979c0,0.99,0.58,1.957,2.029,1.957h6.807v5.166h4.926v-5.166H1150.104z M1143.2,144.145
			c0.049-1.52-0.844-2.438-2.244-2.559c-1.352-0.098-2.486,0.652-2.705,2.174c-0.506,3.475-3.379,5.744-6.541,6.301
			c-1.23,0.217-1.883,1.158-1.787,2.316c0.098,1.184,1.063,1.883,2.246,1.883c3.307,0,6.928-1.883,9.102-4.803
			c2.824-0.072,5.02,1.736,5.504,4.73h4.875c-0.41-5.891-4.514-8.545-8.643-8.594C1143.104,145.111,1143.177,144.652,1143.2,144.145
			"/>
		<path fill="#079A92" d="M1267.722,119.945c-1.473,0-2.029,1.037-2.029,2.002c0,0.99,0.58,1.98,2.029,1.98h18.539
			c1.449,0,2.029-0.99,2.029-1.98c0-0.965-0.557-2.002-2.029-2.002H1267.722z M1285.368,118.496c1.449,0,2.027-0.893,2.027-1.885
			c0-0.965-0.555-1.859-2.027-1.859h-13.109c-0.531,0-0.65-0.07-0.65-0.602v-1.787c0-1.617-1.088-2.342-2.439-2.342
			s-2.486,0.701-2.486,2.342v2.631c0,2.609,0.725,3.502,3.453,3.502H1285.368z M1270.353,132.475h15.16
			c1.449,0,2.029-0.893,2.029-1.883c0-0.967-0.557-1.859-2.029-1.859h-13.012c-0.531,0-0.652-0.072-0.652-0.604v-0.869
			c0-1.617-1.086-2.342-2.438-2.342s-2.512,0.701-2.512,2.342v1.715C1266.899,131.582,1267.624,132.475,1270.353,132.475
			 M1248.456,119.969c-0.578,0-0.748-0.242-0.748-0.723v-2.15h10.26v2.873H1248.456z M1243.581,128.08
			c-1.475,0-2.029,0.99-2.029,1.957c0,0.988,0.58,1.953,2.029,1.953h18.539c1.449,0,2.027-0.965,2.027-1.953
			c0-0.967-0.555-1.957-2.027-1.957h-6.809v-4.225h7.582v-11.467c0-1.547-1.232-2.15-2.463-2.15c-1.279,0-2.463,0.58-2.463,2.15
			v0.965h-10.26v-0.918c0-1.521-1.254-2.197-2.463-2.197c-1.279,0-2.486,0.58-2.486,2.15v7.75c0,2.799,0.58,3.717,3.5,3.717h4.129
			v4.225H1243.581z M1222.771,116.564c0-1.619,0.82-2.414,1.98-2.414c1.156,0,1.979,0.795,1.979,2.414v9.078
			c0,1.643-0.822,2.414-1.979,2.414c-1.16,0-1.98-0.771-1.98-2.414V116.564z M1233.876,132.475h4.779v-10.02h0.797
			c1.447,0,1.906-1.109,1.906-2.1c0-0.965-0.434-2.1-1.906-2.1h-0.797v-6.109c0-1.521-1.158-2.342-2.391-2.342
			c-1.254,0-2.389,0.797-2.389,2.342V132.475z M1218.038,125.521c0,4.273,2.752,6.494,6.713,6.494c3.959,0,6.686-2.221,6.686-6.494
			v-8.836c0-4.273-2.727-6.494-6.686-6.494c-3.961,0-6.713,2.221-6.713,6.494V125.521z M1198.556,115.211
			c0-1.182,0.773-1.736,2.029-1.736s2.027,0.555,2.027,1.736v0.99c0,1.209-0.771,1.74-2.027,1.74s-2.029-0.531-2.029-1.74V115.211z
			 M1209.782,121.441h4.779v-3.645h0.748c1.449,0,1.908-1.064,1.908-2.055c0-0.965-0.436-2.051-1.908-2.051h-0.748v-1.498
			c0-1.545-1.135-2.389-2.389-2.389c-1.279,0-2.391,0.82-2.391,2.389V121.441z M1193.802,116.033c0,3.84,2.727,5.313,6.783,5.313
			c4.055,0,6.783-1.473,6.783-5.313v-0.652c0-3.838-2.729-5.311-6.783-5.311c-4.057,0-6.783,1.473-6.783,5.311V116.033z
			 M1213.983,132.475c0.988,0,1.375-0.725,1.375-1.4c0-0.725-0.41-1.473-1.375-1.473h-13.615c-0.363,0-0.531-0.217-0.531-0.459
			v-0.072c0-0.24,0.168-0.459,0.531-0.459h14.363v-3.861c0-1.908-0.797-2.535-2.945-2.535h-15.451c-0.916,0-1.326,0.723-1.326,1.398
			c0,0.725,0.385,1.426,1.326,1.426h13.109c0.314,0,0.387,0.096,0.387,0.387v0.627h-11.66c-2.197,0-3.428,1.111-3.428,2.848v0.291
			c0,1.738,1.23,3.283,3.428,3.283H1213.983z M1164.397,128.08c-1.473,0-2.027,0.99-2.027,1.957c0,0.988,0.578,1.953,2.027,1.953
			h18.539c1.449,0,2.029-0.965,2.029-1.953c0-0.967-0.555-1.957-2.029-1.957h-6.807v-3.404h6.18c1.328,0,1.859-0.941,1.859-1.857
			c0-0.895-0.508-1.885-1.859-1.885h-13.084c-0.555,0-0.822-0.217-0.822-0.674v-0.121c0-0.459,0.268-0.676,0.822-0.676h14.387
			v-5.119c0-2.295-0.939-3.814-4.271-3.814h-13.979c-1.158,0-1.859,0.965-1.859,1.93c0,0.99,0.701,1.932,1.859,1.932h12.625
			c0.557,0,0.652,0.361,0.652,0.676v0.725h-10.598c-3.188,0-4.805,1.643-4.805,4.227v0.459c0,2.582,1.617,4.199,4.805,4.199h3.164
			v3.404H1164.397z M1140.304,127.912c-1.496,0-2.076,1.063-2.076,2.051c0,1.014,0.604,2.027,2.076,2.027h18.445
			c1.471,0,2.074-1.014,2.074-2.027c0-0.988-0.578-2.051-2.074-2.051H1140.304z M1157.88,114.633c1.447,0,2.025-1.037,2.025-2.027
			c0-0.967-0.555-2.053-2.025-2.053h-16.707c-1.473,0-2.027,1.086-2.027,2.053c0,0.99,0.578,2.027,2.027,2.027h5.818
			c-0.266,2.947-3.381,5.168-6.662,5.674c-1.184,0.193-1.787,1.207-1.619,2.27c0.17,1.135,1.256,1.859,2.584,1.738
			c2.824-0.217,6.18-1.762,8.352-4.225c0.195-0.025,0.363-0.049,0.508-0.049c2.801,0,4.949,1.545,5.385,4.25h4.756
			c-0.291-5.359-4.273-7.896-8.33-7.896h-0.24c0.145-0.555,0.24-1.135,0.264-1.762H1157.88z M1136.03,132.475v-20.281
			c0-1.568-1.135-2.389-2.412-2.389c-1.281,0-2.414,0.82-2.414,2.389v20.281H1136.03z M1117.272,128.877
			c-1.109,0.121-1.713,0.771-1.689,1.955c0.023,1.158,1.16,1.859,2.486,1.836c3.549-0.049,6.953-2.125,6.953-6.277v-0.869h3.355
			c1.449,0,2.027-0.99,2.027-2.004c0-0.99-0.555-2.027-2.027-2.027h-0.072c0.434-1.037,0.725-2.535,0.725-4.467v-3.768
			c0-1.738-0.869-2.703-3.211-2.703h-8.813c-1.592,0-2.219,0.893-2.219,1.932c0,1.111,0.65,1.979,2.219,1.979h6.809
			c0.436,0,0.604,0.17,0.604,0.531v1.016h-7.531c-1.57,0-2.197,0.844-2.197,1.883c0,1.086,0.652,1.932,2.197,1.932h7.338
			c-0.121,0.629-0.289,1.184-0.506,1.666h-7.582c-1.471,0-2.051,1.037-2.051,2.027c0,1.014,0.604,2.004,2.051,2.004h3.961v0.869
			C1120.099,127.936,1118.771,128.709,1117.272,128.877"/>
		<path fill="#079A92" d="M1200.495,289.402c18.096,0,32.766-14.67,32.766-32.767c0-18.096-14.67-32.76-32.766-32.76
			s-32.766,14.664-32.766,32.76C1167.729,274.732,1182.399,289.402,1200.495,289.402"/>
	</g>
	<g>
		<path fill="#FFFFFF" d="M1204.421,258.262c-1.373-1.055-2.961-1.787-4.805-1.787c-2.531,0-4.076,1.1-5.063,2.199
			c-0.131-0.777-0.172-1.604-0.172-2.521c0-5.363,2.359-9.307,4.934-9.26c3.174,0,5.191,4.309,5.191,9.582
			C1204.507,257.115,1204.464,257.711,1204.421,258.262 M1199.616,265.505c-1.031,0-2.018-0.504-2.875-1.512
			c0.602-1.833,1.459-3.347,2.875-3.347c1.457,0,1.973,1.559,2.273,3.851C1201.202,265.14,1200.431,265.505,1199.616,265.505
			 M1213.216,267.523v1.33c0,0.779-0.086,2.063-0.859,2.063c-1.072,0-1.543-1.559-1.887-2.979c2.359-2.752,3.561-6.648,3.561-11.462
			c0-9.768-4.547-16.277-14.672-16.277c-8.623,0-14.414,6.602-14.414,15.955c0,10.822,6.004,16.232,14.672,16.232
			c1.158,0,2.316-0.092,3.346-0.275c0.943,2.705,3.133,5.09,6.65,5.09c4.289,0,6.434-3.256,6.434-7.338v-2.338H1213.216z"/>
	</g>
</g>
</svg>
