<?xml version="1.0" encoding="utf-8"?>
<!-- Generator: Adobe Illustrator 16.0.0, SVG Export Plug-In . SVG Version: 6.00 Build 0)  -->
<!DOCTYPE svg PUBLIC "-//W3C//DTD SVG 1.1//EN" "http://www.w3.org/Graphics/SVG/1.1/DTD/svg11.dtd">
<svg version="1.1" id="레이어_1" xmlns="http://www.w3.org/2000/svg" xmlns:xlink="http://www.w3.org/1999/xlink" x="0px"
	 y="0px" width="179.131px" height="166.994px" viewBox="0 0 179.131 166.994" enable-background="new 0 0 179.131 166.994"
	 xml:space="preserve">
<g>
	<defs>
		<rect id="SVGID_1_" width="179.131" height="166.994"/>
	</defs>
	<clipPath id="SVGID_2_">
		<use xlink:href="#SVGID_1_"  overflow="visible"/>
	</clipPath>
	<path clip-path="url(#SVGID_2_)" fill="#9EBE01" d="M88.731,47.273c0,0-10.448,0.497-17.413,7.462
		c-6.965,6.964-4.905,11.952-1.741,13.93c5.97,3.732,7.96-4.727,13.433-2.487L88.731,47.273z"/>
	<path clip-path="url(#SVGID_2_)" fill="#ABCD03" d="M99.195,142.806c0,0-24.242-5.023-38.079-18.168
		c-17.404-16.533-17.225-39.322-40.958-37.9c-6.751,0.406-1.916-5.153,9.158-6.483c11.074-1.333,29.155,4.061,40.437,17.754
		c11.283,13.689,30.375,5.424,30.375,5.424"/>
	<path clip-path="url(#SVGID_2_)" fill="#00A29A" d="M52.307,102.58c4.534-6.518,10.248-8.129,13.872-8.424
		c1.25,1.203,2.448,2.484,3.575,3.852c0.663,0.807,1.356,1.529,2.067,2.189c-3.605,1.736-9.032,5.146-11.504,10.723
		c-1.774,4.002-2.462,7.473-2.693,10.068c-3.424-3.92-6.098-8.045-8.503-12.027C49.725,107.039,50.713,104.871,52.307,102.58"/>
	<path clip-path="url(#SVGID_2_)" fill="#00A29A" d="M38.666,87.578c2.029-3.289,4.579-4.812,6.71-5.505
		c3.882,1.178,7.862,2.89,11.677,5.156c-3.256,0.152-8.278,1.34-12.108,6.557c-1.152,1.57-1.915,3.078-2.416,4.463
		c-1.719-2.484-3.547-4.701-5.672-6.518C37.185,90.486,37.737,89.083,38.666,87.578"/>
	<path clip-path="url(#SVGID_2_)" fill="#00A29A" d="M29.317,80.254c1.527-0.186,3.191-0.234,4.95-0.158
		c-1.456,1.162-2.888,2.888-3.901,5.453c-0.3,0.762-0.524,1.486-0.691,2.176c-2.695-0.84-5.814-1.207-9.516-0.986
		C13.408,87.144,18.243,81.585,29.317,80.254"/>
	<path clip-path="url(#SVGID_2_)" fill="#ABCD03" d="M104.717,142.707c0,0-11.723,2.992-19.364,10.107c0,0-0.326,7.963-7.242,7.561
		c-6.916-0.4-7.023-10.014-4.455-16.033c2.569-6.018,14.666-18.498,14.666-18.498"/>
	<path clip-path="url(#SVGID_2_)" fill="#53B332" d="M88.321,125.843c0,0-3.473,4.016-7.659,9.018
		c-2.105,2.492-3.919,4.816-5.166,6.551c-0.652,0.852-1.016,1.637-1.353,2.135c-0.312,0.51-0.488,0.795-0.488,0.795
		s0.144-0.301,0.4-0.84c0.283-0.525,0.586-1.361,1.175-2.26c1.124-1.838,2.831-4.281,4.946-6.785
		C84.387,129.425,88.321,125.843,88.321,125.843"/>
	<path clip-path="url(#SVGID_2_)" fill="#00A29A" d="M99.084,21.926c0,0-5.391-11.613-4.617-16.059
		c0.944-5.43,5.854-4.354,6.642-1.683c0.787,2.674-0.453,4.754-0.453,4.754s2.222,4.849,3.692,10.66L99.084,21.926z"/>
	<path clip-path="url(#SVGID_2_)" fill="#00A29A" d="M113.806,15.593c0,0-4.343-13.301-0.288-15.18
		c3.475-1.609,5.102,1.73,4.704,5.729s1.175,9.647,1.175,9.647L113.806,15.593z"/>
	<path clip-path="url(#SVGID_2_)" fill="#ABCD03" d="M97.084,9.648c0,0,0.111,0.012,0.296,0.031c0.187,0.03,0.462,0.032,0.797,0.032
		c0.334-0.024,0.733-0.054,1.147-0.184c0.414-0.114,0.867-0.313,1.178-0.665c0.509-0.779,0.605-1.797,0.744-2.438
		c0.099-0.63,0.172-1.089,0.172-1.089s0.023,0.423-0.012,1.106c-0.018,0.342-0.051,0.75-0.129,1.201
		c-0.088,0.444-0.177,0.957-0.531,1.431c-0.387,0.434-0.903,0.623-1.354,0.718c-0.456,0.107-0.875,0.098-1.22,0.081
		c-0.345-0.042-0.619-0.083-0.802-0.145C97.191,9.678,97.084,9.648,97.084,9.648"/>
	<path clip-path="url(#SVGID_2_)" fill="#ABCD03" d="M130.308,142.419c-14.608,2.256-27.015,1.906-34.536-0.393
		c-11.329-3.463-18.771-13.041-20.112-26.08c-1.116-10.852-0.698-23.525,0.792-35.252c3.637-28.634-1.203-63.456,37.023-66.107
		c9.818-0.681,22.074-0.667,27.382,18.502s12.056,39.922,15.712,53.018C160.605,100.56,174.698,135.562,130.308,142.419"/>
	<path clip-path="url(#SVGID_2_)" fill="#53B332" d="M95.771,142.027c0,0,0.479,0.104,1.338,0.287
		c0.43,0.094,0.954,0.209,1.563,0.344c0.613,0.111,1.321,0.188,2.096,0.305c1.546,0.273,3.419,0.348,5.48,0.531
		c2.074,0.053,4.35,0.168,6.744,0.1c2.395,0.031,4.67-0.17,6.746-0.223c2.066-0.16,3.932-0.305,5.503-0.426
		c3.117-0.322,5.065-0.525,5.065-0.525s-1.935,0.322-5.028,0.84c-1.562,0.211-3.427,0.414-5.501,0.643
		c-2.081,0.111-4.367,0.354-6.777,0.324c-2.41,0.068-4.705-0.086-6.787-0.199c-2.076-0.242-3.951-0.4-5.496-0.752
		c-0.773-0.156-1.479-0.273-2.086-0.424c-0.603-0.172-1.121-0.32-1.547-0.441C96.24,142.164,95.771,142.027,95.771,142.027"/>
	<path clip-path="url(#SVGID_2_)" fill="#F5F2E9" d="M94.452,43.542c12.251,0.974,18.905,14.095,34.162,11.275
		c9.306-1.719,13.487-7.015,15.336-10.887c-0.325-1.108-0.647-2.219-0.967-3.327c-1.291,3.706-4.884,9.385-14.867,11.229
		c-15.256,2.82-21.911-10.303-34.161-11.277c-6.175-0.49-10.324,0.267-13.064,1.302c-0.28,1.153-0.534,2.327-0.762,3.521
		C82.794,44.094,87.247,42.968,94.452,43.542"/>
	<path clip-path="url(#SVGID_2_)" fill="#C30D23" d="M116.674,123.474c25.98-2.176,40.105-9.486,45.201-12.711
		c-0.338-9.436-3.658-18.758-5.307-24.66c-2.974-10.648-7.992-26.364-12.619-42.171c-1.848,3.872-6.029,9.167-15.335,10.886
		c-15.257,2.82-21.911-10.302-34.161-11.275c-7.207-0.573-11.659,0.552-14.324,1.837c-0.897,4.684-1.43,9.643-1.857,14.683
		c3.467-8.828,8.571-12.254,12.532-13.203c8.291-1.991,14.593,1.325,20.066,11.94c5.471,10.613,3.647,37.146-14.263,38.638
		c-11.712,0.977-18.316-3.863-20.698-11.967c-1.032,10.328-1.217,21.084-0.251,30.477c0.233,2.262,0.653,4.416,1.242,6.455
		C84.648,123.804,97.676,125.064,116.674,123.474"/>
	<path clip-path="url(#SVGID_2_)" fill="#FFFFFF" d="M115.366,71.206c0,0,3.991,25.163,5.206,33.668c0,0,22.214-1.217,34.709-7.117
		c0,0-4.165-21.867-7.463-31.065L115.366,71.206z"/>
	<path clip-path="url(#SVGID_2_)" fill="#F5F2E9" d="M96.608,97.437c17.91-1.492,19.734-28.025,14.261-38.639
		c-5.473-10.614-11.773-13.93-20.065-11.939c-3.96,0.949-9.064,4.375-12.531,13.203c-0.583,6.889-0.97,13.931-1.822,20.633
		c-0.2,1.576-0.378,3.171-0.54,4.776C78.292,93.574,84.896,98.414,96.608,97.437"/>
	<path clip-path="url(#SVGID_2_)" fill="#00AFCC" d="M114.567,24.954c0.071,0.585,0.587,1.005,1.151,0.937
		c0.564-0.069,0.965-0.6,0.895-1.186c-0.072-0.584-0.587-1.003-1.152-0.936C114.896,23.838,114.496,24.368,114.567,24.954"/>
	<path clip-path="url(#SVGID_2_)" fill="#003F85" d="M119.021,23.558c0.131,0.993,0.729,1.747,1.336,1.684
		c0.606-0.063,0.991-0.92,0.86-1.91c-0.132-0.994-0.729-1.747-1.337-1.686C119.273,21.71,118.889,22.565,119.021,23.558"/>
	<path clip-path="url(#SVGID_2_)" fill="#003F85" d="M105.938,25.54c0.131,0.993,0.729,1.746,1.337,1.684
		c0.606-0.063,0.991-0.92,0.86-1.911c-0.133-0.993-0.73-1.747-1.336-1.685C106.191,23.692,105.807,24.546,105.938,25.54"/>
	<path clip-path="url(#SVGID_2_)" fill="#003F85" d="M67.625,65.091c0.568-0.736,0.663-2.308-0.14-2.464
		c-0.991-0.195-1.753,1.341-1.457,2.557c0.104,0.43,0.396,0.754,0.825,0.873c0.32,0.089,0.677,0.135,1.068-0.092
		c0.129-0.076,0.26-0.259,0.317-0.395c0.13-0.312-0.084-0.653-0.42-0.925"/>
	<path clip-path="url(#SVGID_2_)" fill="#53B332" d="M66.028,65.184c0.022-0.001-0.116-0.338-0.061-0.904
		c0.037-0.279,0.118-0.609,0.29-0.944c0.187-0.318,0.482-0.674,0.933-0.75c0.111,0.004,0.225-0.015,0.33,0.01
		c0.096,0.054,0.216,0.077,0.284,0.159c0.156,0.154,0.217,0.349,0.267,0.532c0.05,0.375,0.02,0.718-0.06,0.988
		c-0.145,0.549-0.386,0.816-0.386,0.816s0.222-0.282,0.343-0.827c0.068-0.27,0.084-0.604,0.028-0.962
		c-0.056-0.353-0.357-0.73-0.794-0.628c-0.826,0.202-1.112,1.105-1.19,1.611C65.935,64.84,66.05,65.183,66.028,65.184"/>
	<path clip-path="url(#SVGID_2_)" fill="#003F85" d="M68.67,66.023c0.568-0.737,0.664-2.308-0.14-2.466
		c-0.991-0.193-1.752,1.343-1.457,2.559c0.104,0.43,0.396,0.753,0.825,0.873c0.32,0.089,0.677,0.135,1.068-0.092
		c0.13-0.076,0.26-0.259,0.318-0.396c0.13-0.311-0.085-0.651-0.421-0.923"/>
	<path clip-path="url(#SVGID_2_)" fill="#53B332" d="M67.073,66.116c0.022-0.001-0.116-0.338-0.061-0.904
		c0.037-0.279,0.118-0.609,0.29-0.946c0.186-0.316,0.481-0.672,0.932-0.748c0.112,0.004,0.226-0.015,0.331,0.01
		c0.096,0.052,0.216,0.077,0.283,0.157c0.157,0.156,0.218,0.351,0.267,0.534c0.052,0.375,0.021,0.716-0.06,0.986
		c-0.145,0.551-0.385,0.818-0.385,0.818s0.221-0.282,0.342-0.827c0.069-0.27,0.086-0.606,0.029-0.962
		c-0.056-0.353-0.358-0.73-0.794-0.628c-0.827,0.2-1.113,1.105-1.19,1.611C66.98,65.772,67.095,66.115,67.073,66.116"/>
	<path clip-path="url(#SVGID_2_)" fill="#003F85" d="M69.519,67.116c0.666-0.651,0.982-2.192,0.208-2.461
		c-0.953-0.331-1.924,1.083-1.802,2.328c0.043,0.438,0.286,0.802,0.693,0.979c0.305,0.134,0.652,0.231,1.071,0.061
		c0.138-0.056,0.293-0.22,0.37-0.348c0.172-0.288,0.008-0.657-0.287-0.974"/>
	<path clip-path="url(#SVGID_2_)" fill="#53B332" d="M67.924,66.982c0.022,0.003-0.067-0.352,0.067-0.902
		c0.076-0.272,0.203-0.587,0.421-0.896c0.228-0.288,0.57-0.597,1.028-0.61c0.11,0.02,0.225,0.017,0.326,0.056
		c0.087,0.066,0.203,0.107,0.258,0.197c0.133,0.177,0.167,0.377,0.189,0.566c-0.002,0.378-0.08,0.711-0.198,0.968
		c-0.222,0.524-0.497,0.756-0.497,0.756s0.259-0.248,0.456-0.771c0.105-0.257,0.169-0.588,0.164-0.949
		c-0.007-0.354-0.252-0.773-0.698-0.731c-0.847,0.082-1.258,0.938-1.405,1.427C67.88,66.629,67.945,66.985,67.924,66.982"/>
	<path clip-path="url(#SVGID_2_)" fill="#003F85" d="M70.334,67.925c0.666-0.648,0.982-2.19,0.208-2.459
		c-0.953-0.332-1.924,1.082-1.802,2.326c0.043,0.441,0.286,0.803,0.693,0.98c0.305,0.133,0.652,0.229,1.071,0.06
		c0.138-0.056,0.293-0.219,0.37-0.348c0.172-0.288,0.008-0.657-0.286-0.973"/>
	<path clip-path="url(#SVGID_2_)" fill="#53B332" d="M68.74,67.792c0.022,0.003-0.067-0.351,0.067-0.902
		c0.076-0.271,0.203-0.588,0.421-0.896c0.228-0.288,0.571-0.598,1.028-0.61c0.11,0.02,0.226,0.017,0.326,0.056
		c0.087,0.066,0.203,0.107,0.259,0.197c0.132,0.176,0.166,0.376,0.188,0.564c-0.002,0.379-0.08,0.713-0.198,0.97
		c-0.221,0.524-0.497,0.755-0.497,0.755s0.259-0.248,0.455-0.772c0.106-0.256,0.17-0.586,0.165-0.947
		c-0.007-0.355-0.252-0.773-0.698-0.731c-0.847,0.082-1.258,0.937-1.405,1.427C68.696,67.438,68.761,67.795,68.74,67.792"/>
	<path clip-path="url(#SVGID_2_)" fill="#003F85" d="M71.407,68.562c-0.056-1.115-1.6-1.472-1.799-0.277
		c-0.199,1.194,1.145,1.775,1.914,1.166c0.532-0.422,0.666-1.017,0.485-1.528c-0.19-0.538-0.991-0.648-1.223-0.172"/>
	<path clip-path="url(#SVGID_2_)" fill="#53B332" d="M71.522,69.45c-0.006-0.028-0.244,0.254-0.774,0.255
		c-0.262,0.011-0.567-0.108-0.835-0.328c-0.243-0.248-0.408-0.63-0.352-1.035c0.055-0.393,0.306-0.768,0.681-0.826
		c0.356-0.03,0.659,0.111,0.841,0.299c0.363,0.392,0.291,0.764,0.324,0.747c-0.031,0.017,0.01-0.358-0.354-0.715
		c-0.182-0.172-0.475-0.292-0.798-0.256c-0.336,0.062-0.549,0.396-0.604,0.762c-0.053,0.381,0.094,0.729,0.314,0.97
		c0.246,0.211,0.532,0.339,0.785,0.338C71.26,69.684,71.518,69.423,71.522,69.45"/>
	<path clip-path="url(#SVGID_2_)" fill="#ABCD03" d="M130.842,141.931c0,0,10.736-1.973,21.02-3.307
		c8.426-1.094,18.815-2.953,23.115-5.813c7.775-5.166,3.025-18.982-1.232-21.953c-4.836-3.375-12.141,0.834-10.898,9.344
		c0,0-2.023,1.738-9.898-0.887"/>
	<path clip-path="url(#SVGID_2_)" fill="#FFF9B1" d="M169.407,121.814c0.868,4.338,3.376,7.494,5.603,7.049
		c2.228-0.443,3.329-4.322,2.463-8.66c-0.869-4.338-3.377-7.494-5.604-7.049C169.643,113.601,168.54,117.478,169.407,121.814"/>
	<path clip-path="url(#SVGID_2_)" fill="#53B332" d="M165.309,126.832c0,0-0.359-0.621-0.901-1.66
		c-0.583-1.016-1.175-2.543-1.57-4.299c-0.373-1.771-0.292-3.449-0.008-4.598c0.31-1.154,0.754-1.744,0.754-1.744
		s-0.301,0.67-0.442,1.803c-0.119,1.139-0.041,2.711,0.316,4.414c0.382,1.691,0.807,3.23,1.241,4.301
		C165.089,126.138,165.309,126.832,165.309,126.832"/>
	<path clip-path="url(#SVGID_2_)" fill="#53B332" d="M163.056,120.654c-0.401,0.018-0.877,0.146-1.295,0.256
		c-0.422,0.158-0.839,0.318-1.248,0.473c-0.38,0.225-0.754,0.445-1.12,0.662l-0.546,0.318c-0.182,0.104-0.286,0.268-0.433,0.395
		c-1.092,1.145-1.639,2.578-2.191,3.711c-0.521,1.174-1.128,2.016-1.541,2.588c-0.424,0.57-0.689,0.859-0.689,0.859
		s0.232-0.316,0.602-0.918c0.357-0.605,0.885-1.486,1.313-2.658c0.478-1.15,0.924-2.658,2.102-3.992
		c0.161-0.152,0.303-0.355,0.488-0.471l0.563-0.355c0.382-0.236,0.771-0.48,1.169-0.727c0.438-0.174,0.883-0.352,1.336-0.531
		c0.482-0.127,0.937-0.268,1.498-0.291"/>
	<path clip-path="url(#SVGID_2_)" fill="#003F85" d="M110.936,28.258c0,0,4.115,1.869,8.679,0.074c0,0,1.048,5.162-4.339,5.461
		C109.889,34.093,110.936,28.258,110.936,28.258"/>
	<path clip-path="url(#SVGID_2_)" fill="#003F85" d="M111.162,28.642c-0.072,0.749-0.124,2.571,0.869,3.758
		c0.691,0.823,1.756,1.207,3.229,1.121c1.526-0.084,2.652-0.582,3.346-1.479c0.891-1.149,0.853-2.679,0.785-3.335
		c-1.252,0.448-2.58,0.678-3.951,0.678C113.407,29.385,111.826,28.89,111.162,28.642 M114.883,34.078
		c-1.432,0-2.533-0.448-3.271-1.331c-1.433-1.713-0.966-4.424-0.945-4.537c0.015-0.083,0.067-0.155,0.142-0.194
		c0.074-0.038,0.164-0.042,0.239-0.006c0.019,0.007,1.862,0.829,4.392,0.829c1.422,0,2.793-0.257,4.074-0.761
		c0.075-0.029,0.16-0.024,0.23,0.015c0.07,0.038,0.121,0.105,0.137,0.186c0.02,0.097,0.469,2.398-0.841,4.095
		c-0.795,1.028-2.058,1.599-3.75,1.692C115.15,34.072,115.014,34.078,114.883,34.078"/>
	<path clip-path="url(#SVGID_2_)" fill="#ABCD03" d="M91.27,49.7c-4.515,1.111-10.753,6.029-13.191,20.732
		c-2.438,14.704,2.724,25.438,18.209,24.116c15.485-1.324,17.063-24.85,12.331-34.261C103.887,50.877,98.438,47.937,91.27,49.7"/>
	<path clip-path="url(#SVGID_2_)" fill="#003F85" d="M149.438,58.729c0,0,1.252-3.437,0.479-4.743
		c-0.426-0.718-1.131-0.91-1.67-0.695c-0.443,0.176-0.775,0.628-0.748,1.293c0.06,1.474-0.607,3.185-0.607,3.185L149.438,58.729z"/>
	<path clip-path="url(#SVGID_2_)" fill="#008590" d="M149.916,53.986c0,0,0.17,0.226,0.258,0.67c0.09,0.439,0.08,1.066-0.031,1.735
		c-0.234,1.34-0.705,2.339-0.705,2.339s0.303-1.054,0.532-2.369c0.11-0.656,0.161-1.259,0.116-1.693
		C150.047,54.234,149.916,53.986,149.916,53.986"/>
	<path clip-path="url(#SVGID_2_)" fill="#003F85" d="M148.094,57.001c0,0,1.253-3.437,0.479-4.743
		c-0.426-0.717-1.13-0.912-1.67-0.695c-0.443,0.176-0.775,0.628-0.748,1.293c0.061,1.474-0.607,3.185-0.607,3.185L148.094,57.001z"
		/>
	<path clip-path="url(#SVGID_2_)" fill="#008590" d="M148.572,52.258c0,0,0.17,0.226,0.257,0.67c0.091,0.439,0.082,1.066-0.03,1.735
		c-0.234,1.34-0.705,2.339-0.705,2.339s0.303-1.054,0.531-2.369c0.111-0.656,0.162-1.259,0.117-1.693
		C148.703,52.506,148.572,52.258,148.572,52.258"/>
	<path clip-path="url(#SVGID_2_)" fill="#003F85" d="M146.465,56.254c0,0,1.252-3.438,0.478-4.744
		c-0.425-0.717-1.13-0.911-1.669-0.696c-0.443,0.176-0.775,0.63-0.749,1.294c0.06,1.475-0.606,3.185-0.606,3.185L146.465,56.254z"/>
	<path clip-path="url(#SVGID_2_)" fill="#008590" d="M146.943,51.509c0,0,0.17,0.227,0.257,0.671c0.09,0.44,0.082,1.066-0.031,1.734
		c-0.233,1.342-0.705,2.34-0.705,2.34s0.304-1.054,0.532-2.37c0.109-0.655,0.161-1.259,0.117-1.69
		C147.073,51.758,146.943,51.509,146.943,51.509"/>
	<path clip-path="url(#SVGID_2_)" fill="#003F85" d="M144.77,56.09c0,0,1.253-3.438,0.479-4.744
		c-0.426-0.718-1.131-0.911-1.67-0.695c-0.443,0.175-0.775,0.628-0.748,1.293c0.06,1.473-0.607,3.184-0.607,3.184L144.77,56.09z"/>
	<path clip-path="url(#SVGID_2_)" fill="#003F85" d="M139.429,55.425c0,0,0.602-3.564,1.926-4.326
		c0.728-0.418,1.44-0.249,1.808,0.192c0.301,0.362,0.368,0.913,0.016,1.475c-0.781,1.243-1.043,3.041-1.043,3.041L139.429,55.425z"
		/>
	<path clip-path="url(#SVGID_2_)" fill="#008590" d="M142.135,55.807c0,0,0.063-1.095,0.597-2.335
		c0.278-0.622,0.649-1.099,0.637-1.53c-0.021-0.426-0.229-0.643-0.206-0.65c-0.025,0.01,0.223,0.187,0.295,0.646
		c0.058,0.474-0.311,1.029-0.565,1.607C142.373,54.746,142.135,55.807,142.135,55.807"/>
	<path clip-path="url(#SVGID_2_)" fill="#008590" d="M145.248,51.346c0,0,0.17,0.226,0.256,0.669
		c0.092,0.441,0.082,1.067-0.029,1.736c-0.234,1.34-0.705,2.339-0.705,2.339s0.303-1.054,0.531-2.369
		c0.111-0.656,0.162-1.259,0.117-1.692C145.379,51.595,145.248,51.346,145.248,51.346"/>
	<path clip-path="url(#SVGID_2_)" fill="#ABCD03" d="M85.313,77.805c0,0,11.812,13.306,31.313,13.269
		c19.717-0.037,33.475-11.452,35.377-23.845c1.651-10.752-5.092-16.187-11.521-14.617c-6.43,1.57-7.551,11.587-15.774,13.456
		c-8.223,1.869-14.054-5.083-16.371-7.7c-2.317-2.615-6.877-6.055-13.83-3.737"/>
	<path clip-path="url(#SVGID_2_)" fill="#53B332" d="M94.508,54.629c0,0,0.465-0.134,1.299-0.375
		c0.425-0.091,0.925-0.327,1.547-0.37c0.617-0.048,1.326-0.163,2.113-0.171c1.563,0.087,3.482,0.369,5.342,1.397
		c0.459,0.253,0.9,0.566,1.365,0.859c0.457,0.307,0.865,0.695,1.312,1.054c0.845,0.784,1.604,1.673,2.394,2.535
		c1.594,1.724,3.256,3.231,4.963,4.318c1.695,1.104,3.408,1.792,4.906,2.105c3.027,0.666,4.973-0.015,4.963,0.085
		c0.006-0.104-1.877,0.764-5.026,0.261c-1.558-0.233-3.369-0.863-5.156-1.948c-1.799-1.064-3.545-2.589-5.165-4.344
		c-0.811-0.888-1.552-1.767-2.335-2.519c-0.42-0.347-0.803-0.73-1.231-1.033c-0.437-0.288-0.849-0.601-1.279-0.856
		c-1.738-1.035-3.551-1.391-5.066-1.563c-0.761-0.037-1.458,0.034-2.07,0.039c-0.615,0-1.121,0.198-1.549,0.258
		C94.981,54.534,94.508,54.629,94.508,54.629"/>
	<path clip-path="url(#SVGID_2_)" fill="#53B332" d="M116.627,91.074c0,0-0.49,0-1.373,0c-0.883-0.014-2.17,0.041-3.746-0.158
		c-3.153-0.25-7.527-1.102-11.989-3.043c-2.252-0.92-4.256-2.096-6.048-3.188c-1.752-1.161-3.288-2.266-4.486-3.308
		c-2.438-2.038-3.671-3.572-3.671-3.572s1.363,1.415,3.89,3.297c1.243,0.966,2.815,1.987,4.58,3.078
		c1.803,1.023,3.797,2.143,6.012,3.045c4.389,1.912,8.643,2.92,11.756,3.342c1.552,0.285,2.828,0.32,3.707,0.398
		C116.138,91.035,116.627,91.074,116.627,91.074"/>
	<path clip-path="url(#SVGID_2_)" fill="#FFFFFF" d="M94.789,27.673c-0.231,0.636,0.096,1.339,0.73,1.571
		c0.636,0.231,1.339-0.097,1.57-0.733c0.232-0.634-0.377-2.539-0.377-2.539S95.021,27.037,94.789,27.673"/>
	<path clip-path="url(#SVGID_2_)" fill="#FFFFFF" d="M88.541,31.838c-0.232,0.636,0.096,1.339,0.731,1.571
		c0.636,0.231,1.339-0.097,1.571-0.733c0.232-0.634-0.378-2.539-0.378-2.539S88.773,31.202,88.541,31.838"/>
	<path clip-path="url(#SVGID_2_)" fill="#FFFFFF" d="M97.392,36.003c-0.231,0.636,0.097,1.339,0.731,1.571
		c0.636,0.231,1.339-0.097,1.57-0.731c0.231-0.636-0.377-2.541-0.377-2.541S97.624,35.367,97.392,36.003"/>
	<path clip-path="url(#SVGID_2_)" fill="#53B332" d="M78.046,125.724c0,0,0.428,0.789,1.084,1.998
		c0.706,1.207,1.712,2.85,2.996,4.533c1.3,1.674,2.598,3.092,3.603,4.068c1.008,0.934,1.665,1.545,1.665,1.545
		s-0.185-0.125-0.509-0.338c-0.32-0.229-0.817-0.523-1.364-0.971c-1.118-0.861-2.566-2.203-3.897-3.918
		c-1.317-1.73-2.207-3.49-2.777-4.779C78.312,126.552,78.046,125.724,78.046,125.724"/>
	<path clip-path="url(#SVGID_2_)" fill="#B1C4C7" d="M46.858,118.277c0,0,1.309-0.301,1.205-1.324
		c-0.088-0.875-2.42-1.396-4.839-0.014c-2.42,1.385,1.487,1.555,1.487,1.555L46.858,118.277z"/>
	<path clip-path="url(#SVGID_2_)" fill="#B1C4C7" d="M58.041,132.408c0,0,0.826,0.625,2.043,0c1.421-0.73,2.9-5.27,0.246-7.375
		c-2.653-2.107-6.118,2.855-6.118,2.855L58.041,132.408z"/>
	<path clip-path="url(#SVGID_2_)" fill="#00A0E9" d="M62.833,126.503c-1.183,7.367-11.16,9.301-11.16,9.301l-1.182-9.625"/>
	<path clip-path="url(#SVGID_2_)" fill="#CDE2E5" d="M52.932,136.203c3.607-0.498,7.152-3.795,7.152-3.795s-2.052,0.248-4.416-2.113
		c-2.363-2.363-2.115-5.287-2.115-5.287l-1.678,0.467"/>
	<path clip-path="url(#SVGID_2_)" fill="#0086D1" d="M53.755,125.025c-0.045,1.549,0.451,2.967,0.957,3.861
		c0.225,0.477,0.51,0.795,0.682,1.035c0.173,0.236,0.274,0.373,0.274,0.373s-0.118-0.121-0.322-0.33
		c-0.202-0.217-0.531-0.508-0.807-0.973c-0.606-0.875-1.238-2.301-1.187-4"/>
	<path clip-path="url(#SVGID_2_)" fill="#0094DD" d="M34.32,159.47c0,0-4.885,3.674-8.184,4.684c0,0,0.281,2.078-2.15,2.768
		c-2.433,0.691-4.231-3.824-3.223-5.682c1.008-1.857,4.155-2.346,5.104-5.854"/>
	<path clip-path="url(#SVGID_2_)" fill="#003F85" d="M12.305,136.324c0,0,0.357,1.869-0.065,2.494
		c-0.421,0.625-1.156,0.285-1.043-0.475c0.113-0.76-0.084-1.695-0.084-1.695"/>
	<path clip-path="url(#SVGID_2_)" fill="#00A0E9" d="M35.052,158.65c0,0-5.319,1.529-14.456-0.182
		c-8.632-1.617-11.505-5.613-13.733-10.004c-1.593-3.139-2.828-7.611-6.143-8.535c-0.865-0.24-0.89-0.414-0.395-0.594
		c0.6-0.217,2.044-0.338,4.713,0.721c4.25,1.686,3.867,5.926,10.849,7.525c5.825,1.336,8.88-1.203,8.88-1.203L35.052,158.65z"/>
	<path clip-path="url(#SVGID_2_)" fill="#007BC7" d="M13.06,151.16c0.303-1.811,1.258-2.982,2.223-3.727
		c0.195,0.051,0.395,0.102,0.604,0.148c5.825,1.336,8.88-1.203,8.88-1.203l10.285,12.271c0,0-5.32,1.529-14.456-0.182
		c-2.289-0.428-4.17-1.025-5.745-1.752C13.616,155.396,12.673,153.472,13.06,151.16"/>
	<path clip-path="url(#SVGID_2_)" fill="#007BC7" d="M7.42,143.441c0.412-0.266,0.82-0.43,1.212-0.525
		c0.77,0.902,1.55,1.855,2.702,2.701c-0.643,0.273-1.292,0.721-1.866,1.43c-1.043,1.293-1.265,2.775-1.085,4.086
		c-0.565-0.861-1.057-1.756-1.52-2.668c-0.408-0.803-0.793-1.695-1.195-2.592C5.916,144.964,6.448,144.07,7.42,143.441"/>
	<path clip-path="url(#SVGID_2_)" fill="#007BC7" d="M0.325,139.337c0.599-0.219,2.044-0.34,4.713,0.719
		c0.159,0.063,0.312,0.133,0.459,0.203c-0.361,0.184-0.719,0.455-1.041,0.852c-0.325,0.402-0.524,0.832-0.639,1.266
		c-0.809-1.168-1.791-2.082-3.098-2.447C-0.145,139.689-0.171,139.515,0.325,139.337"/>
</g>
<polyline fill="#003F85" points="30.532,118.152 28.293,111.427 28.824,111.056 32.207,117.166 "/>
<g>
	<defs>
		<rect id="SVGID_3_" width="179.131" height="166.994"/>
	</defs>
	<clipPath id="SVGID_4_">
		<use xlink:href="#SVGID_3_"  overflow="visible"/>
	</clipPath>
	<path clip-path="url(#SVGID_4_)" fill="#003F85" d="M27.203,111.291c-0.156-0.639,0.236-1.283,0.874-1.438
		c0.638-0.158,1.283,0.234,1.439,0.873c0.156,0.639-0.235,1.281-0.874,1.439C28.004,112.32,27.359,111.929,27.203,111.291"/>
</g>
<polyline fill="#003F85" points="42.776,116.808 44.229,109.869 44.875,109.818 44.72,116.798 "/>
<g>
	<defs>
		<rect id="SVGID_5_" width="179.131" height="166.994"/>
	</defs>
	<clipPath id="SVGID_6_">
		<use xlink:href="#SVGID_5_"  overflow="visible"/>
	</clipPath>
	<path clip-path="url(#SVGID_6_)" fill="#003F85" d="M43.356,109.203c0.187-0.629,0.849-0.988,1.479-0.803
		c0.63,0.189,0.99,0.85,0.803,1.48s-0.849,0.988-1.479,0.803C43.53,110.496,43.169,109.835,43.356,109.203"/>
	<path clip-path="url(#SVGID_6_)" fill="#00A0E9" d="M38.796,115.113c-6.406-0.43-13.57,1.613-16.499,10.148
		c-2.928,8.535-5.19,22.273-0.671,29.855c4.52,7.582,23.788,6.938,29.956,0.977c6.168-5.959,2.291-17.102,1.67-27.605
		C52.631,117.986,47.556,115.699,38.796,115.113"/>
	<path clip-path="url(#SVGID_6_)" fill="#CDE2E5" d="M40.121,150.628c7.925-0.209,12.628-2.066,14.87-3.268
		c0.278-5.613-1.354-12.365-1.738-18.871c-0.021-0.352-0.048-0.693-0.079-1.027c-2.193,1.047-6.238,2.195-13.302,2.023
		c-10.526-0.26-16.077-3.111-17.632-4.053c-2.023,5.961-3.704,14.381-3.013,21.486C21.71,148.113,28.817,150.925,40.121,150.628"/>
	<path clip-path="url(#SVGID_6_)" fill="#CDE2E5" d="M54.632,140.361c-0.446-3.84-1.145-7.9-1.38-11.871"/>
	<path clip-path="url(#SVGID_6_)" fill="#B1C4C7" d="M53.252,128.49c0,0,0.369,2.654,0.703,5.932
		c0.426,3.275,0.677,5.939,0.677,5.939s-0.444-2.641-0.87-5.914C53.427,131.158,53.252,128.49,53.252,128.49"/>
	<path clip-path="url(#SVGID_6_)" fill="#003F85" d="M7.611,134.289c0,0-1.253,1.432-1.205,2.186
		c0.048,0.752,0.853,0.828,1.14,0.115s0.93-1.42,0.93-1.42"/>
	<path clip-path="url(#SVGID_6_)" fill="#003F85" d="M8.413,135.13c0,0-1.253,1.432-1.205,2.184c0.048,0.752,0.853,0.83,1.14,0.115
		c0.287-0.713,0.93-1.418,0.93-1.418"/>
	<path clip-path="url(#SVGID_6_)" fill="#00A0E9" d="M8.348,137.429c-0.018-0.02-0.048,0.271-0.405,0.463
		c-0.172,0.086-0.466,0.064-0.626-0.164c-0.176-0.219-0.164-0.543-0.074-0.824c0.202-0.564,0.535-0.992,0.766-1.299
		c0.24-0.301,0.404-0.475,0.404-0.475s-0.17,0.225-0.375,0.496c-0.214,0.316-0.531,0.756-0.725,1.301
		c-0.086,0.268-0.1,0.563,0.053,0.764c0.138,0.207,0.397,0.24,0.564,0.168C8.275,137.695,8.332,137.41,8.348,137.429"/>
	<path clip-path="url(#SVGID_6_)" fill="#003F85" d="M9.383,135.765c0,0-1.254,1.432-1.205,2.184c0.047,0.754,0.853,0.83,1.14,0.117
		s0.929-1.42,0.929-1.42"/>
	<path clip-path="url(#SVGID_6_)" fill="#00A0E9" d="M9.318,138.066c-0.018-0.021-0.048,0.27-0.405,0.463
		c-0.172,0.086-0.467,0.063-0.626-0.166c-0.176-0.219-0.164-0.541-0.074-0.822c0.202-0.564,0.536-0.994,0.766-1.299
		c0.241-0.305,0.404-0.477,0.404-0.477s-0.17,0.227-0.375,0.498c-0.214,0.314-0.531,0.754-0.725,1.299
		c-0.086,0.268-0.099,0.564,0.053,0.764c0.138,0.207,0.397,0.24,0.564,0.168C9.245,138.332,9.303,138.044,9.318,138.066"/>
	<path clip-path="url(#SVGID_6_)" fill="#003F85" d="M10.628,136.212c0,0-1.402,1.285-1.437,2.039
		c-0.034,0.754,0.758,0.918,1.122,0.24c0.363-0.678,1.078-1.309,1.078-1.309"/>
	<path clip-path="url(#SVGID_6_)" fill="#00A0E9" d="M10.313,138.492c-0.016-0.021-0.077,0.264-0.452,0.414
		c-0.181,0.068-0.471,0.014-0.606-0.232c-0.15-0.236-0.103-0.557,0.017-0.824c0.262-0.541,0.641-0.93,0.903-1.209
		c0.272-0.275,0.453-0.428,0.453-0.428s-0.193,0.205-0.426,0.453c-0.248,0.289-0.61,0.691-0.862,1.213
		c-0.115,0.256-0.161,0.551-0.031,0.764c0.114,0.223,0.367,0.283,0.541,0.23C10.212,138.748,10.3,138.47,10.313,138.492"/>
	<path clip-path="url(#SVGID_6_)" fill="#7ECEF4" d="M43.028,121.917c0.007,0.34-0.253,0.621-0.58,0.627
		c-0.328,0.008-0.599-0.262-0.606-0.602s0.253-0.619,0.58-0.627C42.75,121.308,43.021,121.578,43.028,121.917"/>
	<path clip-path="url(#SVGID_6_)" fill="#003F85" d="M44.649,121.13c0.005,0.514-0.249,0.941-0.569,0.955
		c-0.319,0.012-0.583-0.398-0.588-0.914c-0.005-0.514,0.249-0.939,0.569-0.953C44.38,120.207,44.644,120.615,44.649,121.13"/>
	<path clip-path="url(#SVGID_6_)" fill="#003F85" d="M39.422,121.083c0.005,0.516-0.249,0.941-0.569,0.955
		c-0.319,0.01-0.582-0.396-0.588-0.91c-0.005-0.516,0.249-0.943,0.569-0.955C39.154,120.162,39.417,120.57,39.422,121.083"/>
	<path clip-path="url(#SVGID_6_)" fill="#00A0E9" d="M29.715,160.039c0,0,15.692,3.182,20.393,2.633
		c3.181-0.373,3.856-3.404,3.3-6.338c-0.167-0.881-0.669-1.445-1.282-1.73c-1.432-0.666-3.469,0.188-3.256,2.074
		c0,0-4.3-0.963-11.451-4.014L29.715,160.039z"/>
	<path clip-path="url(#SVGID_6_)" fill="#0086D1" d="M39.828,153.658c0,0,1.329,0.43,3.432,1.109
		c1.061,0.334,2.305,0.799,3.712,1.209c0.355,0.094,0.717,0.189,1.088,0.287l0.561,0.15c0.114,0.02,0.052,0.039,0.065-0.029
		c-0.037-0.883,0.62-1.764,1.5-2.041c0.862-0.309,1.86-0.156,2.533,0.41c0.688,0.57,0.895,1.473,0.957,2.186
		c0.173,1.482-0.011,2.891-0.584,3.889c-0.56,1.021-1.439,1.488-2.032,1.656c-0.6,0.188-0.955,0.164-0.951,0.188
		c-0.006-0.021,0.351-0.027,0.931-0.248c0.574-0.201,1.389-0.701,1.873-1.689c0.5-0.973,0.628-2.322,0.423-3.752
		c-0.085-0.727-0.284-1.453-0.863-1.928c-0.564-0.465-1.421-0.592-2.153-0.33c-0.745,0.248-1.262,0.93-1.246,1.666
		c-0.012,0.119-0.002,0.396-0.035,0.533l-0.504-0.141l-0.565-0.162c-0.372-0.107-0.737-0.213-1.093-0.314
		c-1.408-0.453-2.636-0.963-3.684-1.348C41.13,154.162,39.828,153.658,39.828,153.658"/>
	<path clip-path="url(#SVGID_6_)" fill="#00A0E9" d="M24.979,129.382c0,0-4.974-3.064-10.188-2.51
		c-5.215,0.555-8.297,6.35-7.766,7.852c0.53,1.498,3.105,3.83,4.919,2.92c1.815-0.91,2.666-2.471,4.495-2.211
		s4.752,3.867,4.752,3.867"/>
	<path clip-path="url(#SVGID_6_)" fill="#0086D1" d="M7.025,134.724c0,0-0.128-0.309-0.035-0.885
		c0.083-0.57,0.354-1.373,0.864-2.271c0.51-0.896,1.257-1.895,2.296-2.799c1.031-0.893,2.384-1.703,3.969-1.986
		c3.179-0.506,6.023,0.34,7.905,1.102c1.905,0.777,2.955,1.498,2.955,1.498s-1.104-0.635-3.027-1.309
		c-1.899-0.664-4.72-1.379-7.757-0.895c-1.5,0.268-2.802,1.014-3.825,1.852c-1.029,0.844-1.799,1.789-2.342,2.641
		c-0.543,0.855-0.858,1.625-0.976,2.18C6.924,134.408,7.025,134.724,7.025,134.724"/>
	<path clip-path="url(#SVGID_6_)" fill="#00A0E9" d="M62.833,126.503c1.005-6.256-3.422-8.625-7.799-8.646
		c-4.375-0.025-6.512,0.855-6.237,3.943c0.201,2.268,1.438,4.926,6.931,4.992"/>
	<path clip-path="url(#SVGID_6_)" fill="#0086D1" d="M55.728,126.792c0,0-0.257-0.008-0.714-0.021
		c-0.459-0.027-1.135,0.012-1.944-0.199c-0.411-0.072-0.86-0.158-1.307-0.379c-0.226-0.098-0.469-0.184-0.704-0.303
		c-0.217-0.154-0.441-0.313-0.669-0.475c-0.885-0.693-1.548-1.85-1.726-3.133c-0.244-1.232-0.021-2.68,0.936-3.42
		c0.918-0.723,1.957-0.863,2.766-0.961c0.825-0.09,1.494-0.076,1.954-0.072c0.456,0.018,0.714,0.027,0.714,0.027
		s-0.257,0.012-0.713,0.037c-0.458,0.033-1.123,0.07-1.927,0.209c-0.788,0.139-1.787,0.348-2.571,1.02
		c-0.803,0.668-0.985,1.908-0.758,3.1c0.171,1.207,0.748,2.254,1.544,2.932c0.208,0.16,0.411,0.316,0.609,0.469
		c0.217,0.119,0.444,0.213,0.656,0.316c0.416,0.234,0.847,0.34,1.243,0.438c0.778,0.254,1.447,0.266,1.901,0.332
		C55.472,126.763,55.728,126.792,55.728,126.792"/>
	<path clip-path="url(#SVGID_6_)" fill="#003F85" d="M49.59,119.953c0.712-0.277,1.447-1.34,0.949-1.791
		c-0.612-0.557-1.799,0.197-2.109,1.176c-0.109,0.346-0.042,0.697,0.208,0.963c0.187,0.199,0.417,0.383,0.788,0.391
		c0.122,0,0.292-0.07,0.391-0.143c0.223-0.162,0.218-0.494,0.098-0.828"/>
	<path clip-path="url(#SVGID_6_)" fill="#00A0E9" d="M48.43,119.337c0.016,0.01,0.062-0.287,0.342-0.66
		c0.261-0.332,0.838-0.895,1.578-0.668c0.388,0.121,0.449,0.594,0.319,0.865c-0.123,0.285-0.29,0.512-0.462,0.666
		c-0.335,0.326-0.617,0.41-0.617,0.41s0.275-0.102,0.592-0.434c0.162-0.16,0.317-0.389,0.429-0.664
		c0.109-0.271,0.059-0.664-0.29-0.777c-0.666-0.211-1.251,0.305-1.52,0.625C48.511,119.056,48.446,119.347,48.43,119.337"/>
	<path clip-path="url(#SVGID_6_)" fill="#003F85" d="M49.926,121.05c0.712-0.275,1.446-1.338,0.95-1.789
		c-0.613-0.557-1.8,0.195-2.11,1.174c-0.11,0.346-0.042,0.697,0.207,0.963c0.188,0.199,0.418,0.383,0.789,0.391
		c0.122,0.002,0.292-0.07,0.391-0.143c0.223-0.162,0.218-0.492,0.098-0.828"/>
	<path clip-path="url(#SVGID_6_)" fill="#00A0E9" d="M48.766,120.435c0.017,0.01,0.062-0.285,0.342-0.658
		c0.262-0.332,0.838-0.896,1.578-0.67c0.389,0.121,0.449,0.596,0.32,0.865c-0.124,0.285-0.291,0.512-0.462,0.668
		c-0.336,0.324-0.618,0.41-0.618,0.41s0.276-0.105,0.592-0.436c0.163-0.16,0.317-0.387,0.429-0.662
		c0.11-0.271,0.06-0.664-0.289-0.779c-0.666-0.211-1.252,0.305-1.522,0.625C48.847,120.154,48.782,120.445,48.766,120.435"/>
	<path clip-path="url(#SVGID_6_)" fill="#003F85" d="M50.057,122.177c0.743-0.172,1.621-1.121,1.192-1.639
		c-0.528-0.637-1.81-0.057-2.253,0.867c-0.158,0.328-0.141,0.684,0.069,0.982c0.158,0.225,0.36,0.438,0.726,0.498
		c0.121,0.02,0.299-0.029,0.407-0.088c0.243-0.129,0.286-0.457,0.214-0.805"/>
	<path clip-path="url(#SVGID_6_)" fill="#00A0E9" d="M48.996,121.406c0.015,0.012,0.102-0.275,0.431-0.605
		c0.306-0.291,0.956-0.768,1.656-0.441c0.368,0.176,0.362,0.654,0.195,0.904c-0.162,0.264-0.359,0.465-0.551,0.596
		c-0.378,0.273-0.67,0.318-0.67,0.318s0.288-0.064,0.648-0.348c0.183-0.135,0.369-0.34,0.518-0.596
		c0.147-0.252,0.153-0.65-0.177-0.811c-0.63-0.303-1.282,0.125-1.593,0.404C49.116,121.138,49.01,121.417,48.996,121.406"/>
	<path clip-path="url(#SVGID_6_)" fill="#003F85" d="M50.285,123.093c0.744-0.174,1.621-1.121,1.192-1.639
		c-0.528-0.637-1.81-0.059-2.253,0.865c-0.157,0.326-0.141,0.686,0.069,0.984c0.158,0.221,0.36,0.438,0.726,0.496
		c0.121,0.02,0.299-0.027,0.408-0.086c0.242-0.129,0.285-0.457,0.213-0.805"/>
	<path clip-path="url(#SVGID_6_)" fill="#00A0E9" d="M49.224,122.32c0.015,0.012,0.102-0.273,0.432-0.604
		c0.305-0.293,0.955-0.768,1.656-0.441c0.367,0.176,0.361,0.652,0.194,0.902c-0.162,0.264-0.359,0.467-0.551,0.596
		c-0.378,0.275-0.67,0.318-0.67,0.318s0.288-0.063,0.648-0.346c0.183-0.135,0.369-0.34,0.519-0.598
		c0.146-0.252,0.152-0.648-0.179-0.809c-0.629-0.303-1.281,0.123-1.593,0.404C49.343,122.054,49.237,122.332,49.224,122.32"/>
	<path clip-path="url(#SVGID_6_)" fill="#003F85" d="M50.768,123.994c0.434-0.805-0.497-1.713-1.145-0.959
		c-0.647,0.752,0.049,1.732,0.848,1.631c0.552-0.068,0.899-0.43,0.99-0.865c0.095-0.459-0.42-0.875-0.785-0.641"/>
	<path clip-path="url(#SVGID_6_)" fill="#00A0E9" d="M50.471,124.666c0.008-0.021-0.279,0.076-0.652-0.148
		c-0.188-0.104-0.351-0.316-0.447-0.586c-0.064-0.277-0.017-0.615,0.195-0.875c0.205-0.254,0.54-0.408,0.828-0.291
		c0.263,0.131,0.415,0.359,0.464,0.568c0.088,0.426-0.121,0.658-0.091,0.66c-0.029,0,0.159-0.246,0.055-0.65
		c-0.055-0.197-0.209-0.406-0.451-0.52c-0.262-0.1-0.553,0.045-0.747,0.277c-0.199,0.244-0.245,0.553-0.193,0.814
		c0.084,0.252,0.23,0.463,0.408,0.57C50.187,124.718,50.478,124.646,50.471,124.666"/>
	<path clip-path="url(#SVGID_6_)" fill="#00A0E9" d="M39.194,122.244c0,0-0.786-0.678-1.328-0.637"/>
	<path clip-path="url(#SVGID_6_)" fill="#003577" d="M39.195,122.365c-0.028,0-0.057-0.01-0.08-0.029
		c-0.201-0.174-0.798-0.609-1.201-0.609c-0.016,0-0.031,0-0.048,0.002c-0.063,0-0.117-0.049-0.122-0.113
		c-0.005-0.068,0.046-0.125,0.113-0.131c0.6-0.039,1.384,0.637,1.418,0.666c0.051,0.045,0.057,0.121,0.013,0.172
		C39.263,122.351,39.229,122.365,39.195,122.365"/>
	<path clip-path="url(#SVGID_6_)" fill="#00A0E9" d="M39.623,119.814c0,0-0.302-1.012-1.367-0.723"/>
	<path clip-path="url(#SVGID_6_)" fill="#003577" d="M39.623,119.937c-0.052,0-0.101-0.035-0.117-0.088
		c-0.012-0.037-0.291-0.898-1.218-0.641c-0.067,0.014-0.132-0.021-0.151-0.086c-0.017-0.064,0.022-0.131,0.087-0.15
		c1.171-0.309,1.513,0.797,1.516,0.807c0.02,0.064-0.017,0.133-0.082,0.152C39.647,119.935,39.635,119.937,39.623,119.937"/>
	<path clip-path="url(#SVGID_6_)" fill="#00A0E9" d="M44.843,119.093c0,0-0.57,0.584-1.5,0.566"/>
	<path clip-path="url(#SVGID_6_)" fill="#003577" d="M43.387,119.783c-0.084,0.002-0.167-0.043-0.166-0.125
		c0.002-0.068,0.056-0.119,0.123-0.119c0.014,0.01,0.028-0.002,0.042,0c0.844,0,1.364-0.525,1.369-0.531
		c0.049-0.047,0.125-0.049,0.174-0.002c0.048,0.047,0.049,0.125,0.002,0.174C44.907,119.203,44.333,119.783,43.387,119.783"/>
	<path clip-path="url(#SVGID_6_)" fill="#FFFFFF" d="M30.019,119.08c-0.136,0.373,0.056,0.785,0.429,0.92
		c0.373,0.137,0.786-0.055,0.922-0.428c0.136-0.373-0.222-1.49-0.222-1.49S30.155,118.707,30.019,119.08"/>
	<path clip-path="url(#SVGID_6_)" fill="#FFFFFF" d="M25.665,122.089c-0.14,0.385,0.057,0.809,0.441,0.949
		c0.385,0.141,0.81-0.057,0.95-0.443c0.14-0.383-0.229-1.533-0.229-1.533S25.804,121.707,25.665,122.089"/>
	<path clip-path="url(#SVGID_6_)" fill="#FFFFFF" d="M31.245,125.388c-0.11,0.389,0.116,0.791,0.505,0.902
		c0.387,0.109,0.791-0.117,0.9-0.506s-0.338-1.492-0.338-1.492S31.354,125.001,31.245,125.388"/>
	<path clip-path="url(#SVGID_6_)" fill="#0086D1" d="M49.032,156.507c0.023,0.787,0.19,1.518,0.233,2.055
		c0.045,0.494,0.079,0.875,0.079,0.875s-0.12-0.361-0.277-0.834c-0.143-0.525-0.414-1.234-0.44-2.102"/>
	<path clip-path="url(#SVGID_6_)" fill="#0094DD" d="M50.851,158.636c0.103,1.26,0.648,2.137,1.309,1.932s1.041-1.369,0.938-2.629
		c-0.102-1.26-0.647-2.137-1.309-1.932C51.128,156.212,50.749,157.376,50.851,158.636"/>
	<path clip-path="url(#SVGID_6_)" fill="#CDE2E5" d="M24.636,127.371c0,0-2.177-1.492-6.343-1.68c0,0-2.84,0.928-3.198,6.66
		c-0.173,2.764,1.019,4.346,1.021,4.35c0.117,0.127,1.052-0.115,2.939,1.377c1.192,0.943,2.097,3.125,3.968,2.396
		c1.174-0.457,1.845-0.979,2.453-2.082c0.627-1.139,1.05-2.377,1.401-3.623c0.2-0.717,0.325-1.445,0.435-2.174
		c0.114-0.762,0.36-1.574,0.309-2.363"/>
	<path clip-path="url(#SVGID_6_)" fill="#00A0E9" d="M40.121,123.173c0,0-0.273,1.168,0.84,1.307
		c0.995,0.125,1.306-0.686,1.306-0.686"/>
	<path clip-path="url(#SVGID_6_)" fill="#003577" d="M41.163,124.615c-0.069,0-0.141-0.006-0.217-0.016
		c-0.352-0.041-0.614-0.186-0.781-0.424c-0.298-0.43-0.168-1.006-0.162-1.031c0.014-0.064,0.08-0.102,0.146-0.09
		c0.066,0.016,0.107,0.082,0.092,0.146c-0.002,0.006-0.111,0.496,0.126,0.834c0.125,0.18,0.33,0.289,0.609,0.324
		c0.892,0.102,1.174-0.602,1.177-0.607c0.024-0.063,0.094-0.092,0.158-0.072c0.063,0.025,0.095,0.096,0.07,0.16
		C42.377,123.847,42.07,124.615,41.163,124.615"/>
	<path clip-path="url(#SVGID_6_)" fill="#FFFFFF" d="M49.263,133.031c0,0-9.203,0.746-15.485-0.063c0,0-1.244,8.27-1.306,13.246
		c0,0,9.329,1.74,17.786-0.746C50.257,145.468,49.822,136.511,49.263,133.031"/>
	<path clip-path="url(#SVGID_6_)" fill="#CDE2E5" d="M31.703,115.783c0,0-0.322-3.541,3.299-4.75
		c3.622-1.205,9.014-0.563,10.22,5.152C45.222,116.185,39.67,118.035,31.703,115.783"/>
	<path clip-path="url(#SVGID_6_)" fill="#B1C4C7" d="M45.223,116.183c0,0-0.054-0.18-0.149-0.492
		c-0.076-0.322-0.251-0.768-0.494-1.305c-0.487-1.059-1.559-2.406-3.212-3.113c-1.64-0.73-3.332-0.738-4.49-0.611
		c-1.174,0.135-1.875,0.371-1.875,0.371s0.178-0.057,0.49-0.158c0.317-0.096,0.782-0.227,1.372-0.309
		c1.161-0.178,2.89-0.223,4.582,0.529c1.707,0.73,2.776,2.162,3.221,3.25c0.225,0.555,0.376,1.01,0.435,1.338
		C45.18,116.001,45.223,116.183,45.223,116.183"/>
	<path clip-path="url(#SVGID_6_)" fill="#CDE2E5" d="M36.368,116.662c0,0,1.944,1.264,4.244,1.326
		c2.301,0.066,3.564-1.359,5.346-1.65c1.782-0.291,2.106,0.615,2.106,0.615s0.065-0.746-1.263-1.006
		c-1.329-0.258-1.912-0.775-1.912-0.775S40.353,113.972,36.368,116.662"/>
	<path clip-path="url(#SVGID_6_)" fill="#B1C4C7" d="M39.657,115.222c0,0,0.448-0.086,1.058-0.205
		c0.33-0.045,0.72-0.164,1.162-0.172c0.459,0,0.94,0,1.441-0.002c0.508,0.068,0.994,0.107,1.428,0.213l0.172,0.041l0.139,0.105
		l0.25,0.158c0.163,0.1,0.334,0.164,0.48,0.238c0.296,0.146,0.565,0.191,0.738,0.26c0.172,0.057,0.275,0.088,0.275,0.088
		s-0.106-0.021-0.282-0.059c-0.179-0.051-0.455-0.072-0.767-0.199c-0.154-0.066-0.333-0.119-0.509-0.213l-0.27-0.15
		c-0.101-0.084-0.132-0.092-0.263-0.109c-0.424-0.086-0.908-0.113-1.405-0.18c-0.494-0.01-0.967-0.02-1.42-0.027
		c-0.437-0.008-0.824,0.084-1.155,0.105C40.111,115.177,39.657,115.222,39.657,115.222"/>
	<path clip-path="url(#SVGID_6_)" fill="#EAE4D1" d="M36.368,116.662c0,0,1.944,1.264,4.244,1.326
		c2.301,0.066,3.564-1.359,5.346-1.65c1.782-0.291,2.106,0.615,2.106,0.615s0.152-1.115-1.879-0.971
		c-2.278,0.162-3.006,1.742-5.576,1.762C38.349,117.763,36.368,116.662,36.368,116.662"/>
	<path clip-path="url(#SVGID_6_)" fill="#CDE2E5" d="M38.917,110.548c0,0.295-0.329,0.387-0.735,0.387
		c-0.407,0-0.736-0.092-0.736-0.387c0-0.293,0.329-0.385,0.736-0.385C38.588,110.164,38.917,110.255,38.917,110.548"/>
	<path clip-path="url(#SVGID_6_)" fill="#B1C4C7" d="M38.182,110.935c0,0,0.128-0.033,0.264-0.066
		c0.151-0.043,0.385-0.133,0.375-0.32c0.01-0.188-0.224-0.275-0.375-0.32c-0.136-0.033-0.264-0.064-0.264-0.064
		s0.102-0.029,0.276-0.031c0.088,0.002,0.195,0.008,0.313,0.059c0.118,0.039,0.251,0.189,0.244,0.359
		c0.007,0.168-0.126,0.316-0.244,0.355c-0.118,0.053-0.225,0.059-0.313,0.059C38.284,110.962,38.182,110.935,38.182,110.935"/>
</g>
</svg>
