<?xml version="1.0" encoding="utf-8"?>
<!-- Generator: Adobe Illustrator 16.0.0, SVG Export Plug-In . SVG Version: 6.00 Build 0)  -->
<!DOCTYPE svg PUBLIC "-//W3C//DTD SVG 1.1//EN" "http://www.w3.org/Graphics/SVG/1.1/DTD/svg11.dtd">
<svg version="1.1" id="레이어_1" xmlns="http://www.w3.org/2000/svg" xmlns:xlink="http://www.w3.org/1999/xlink" x="0px"
	 y="0px" width="125.9px" height="144.906px" viewBox="0 0 125.9 144.906" enable-background="new 0 0 125.9 144.906"
	 xml:space="preserve">
<g>
	<defs>
		<rect id="SVGID_1_" width="125.9" height="144.906"/>
	</defs>
	<clipPath id="SVGID_2_">
		<use xlink:href="#SVGID_1_"  overflow="visible"/>
	</clipPath>
	<path clip-path="url(#SVGID_2_)" fill="#129A92" d="M65.838,16.766c0,0-1.932-10.745-0.331-14.245
		c1.956-4.272,5.772-2.32,5.843,0.054s-1.402,3.82-1.402,3.82s0.781,4.481,0.736,9.594"/>
	<path clip-path="url(#SVGID_2_)" fill="#129A92" d="M79.353,14.732c0,0-0.7-11.912,3.05-12.582
		c3.215-0.576,3.833,2.533,2.641,5.744c-1.195,3.21-1.121,8.212-1.121,8.212"/>
	<path clip-path="url(#SVGID_2_)" fill="#A4C31E" d="M66.848,6.208c0,0,0.271,0.25,0.826,0.5c0.282,0.108,0.631,0.229,1.047,0.255
		c0.406,0.034,0.902,0.003,1.361-0.303c0.451-0.356,0.619-0.776,0.781-1.138c0.15-0.367,0.249-0.706,0.32-0.993
		c0.139-0.575,0.173-0.939,0.173-0.939s-0.197,0.358-0.452,0.832c-0.277,0.474-0.654,1.293-1.157,1.743
		c-0.604,0.385-1.454,0.317-1.989,0.253C67.2,6.327,66.848,6.208,66.848,6.208"/>
	<path clip-path="url(#SVGID_2_)" fill="#A4C31E" d="M37.195,94.05c-2.898,4.123-9.9,6.088-14.275,7.816
		c-5.888,2.326-11.46,5.621-15.968,10.104c-13.125,13.037-5.491,23.5,4.996,26.049c11.285,2.746,26.299,4.557,31.453,6.604
		c5.154,2.045,1.52-7.484-14.155-12.092c-15.676-4.605-8.978-10.658,5.9-9.314"/>
	<path clip-path="url(#SVGID_2_)" fill="#A4C31E" d="M77.995,121.648c0,0,8.769,0.215,18.499,1.658
		c7.971,1.182,17.932,2.174,22.594,0.678c8.43-2.703,7.672-16.539,4.553-20.352c-3.539-4.33-11.291-2.381-12.358,5.707
		c0,0-2.297,1.061-8.804-3.369"/>
	<path clip-path="url(#SVGID_2_)" fill="#54AA37" d="M77.986,121.97c4.455,0.172,8.813,0.498,12.995,0.963
		c2.089,0.258,4.142,0.512,6.153,0.76c2.014,0.287,3.988,0.525,5.919,0.734c3.86,0.406,7.559,0.633,11.022,0.482
		c1.733-0.07,3.404-0.295,4.979-0.721c1.541-0.545,2.895-1.42,3.873-2.555c1.923-2.316,2.591-5.041,2.859-7.34
		c0.246-2.33,0.058-4.361-0.261-5.971c-0.333-1.607-0.759-2.824-1.179-3.582c-0.168-0.4-0.406-0.643-0.516-0.834
		c-0.125-0.182-0.191-0.275-0.191-0.275s0.063,0.096,0.186,0.279c0.105,0.195,0.338,0.439,0.496,0.844
		c0.405,0.764,0.805,1.982,1.105,3.588c0.287,1.605,0.437,3.625,0.156,5.928c-0.301,2.271-1.013,4.943-2.899,7.148
		c-0.962,1.084-2.265,1.896-3.744,2.4c-1.526,0.395-3.168,0.598-4.881,0.648c-3.429,0.109-7.104-0.15-10.947-0.586
		c-1.922-0.223-3.889-0.475-5.892-0.773c-2.018-0.258-4.075-0.521-6.172-0.791c-4.198-0.486-8.56-0.822-13.045-0.994"/>
	<path clip-path="url(#SVGID_2_)" fill="#FAF2AF" d="M116.852,112.507c-0.331,4.182,1.141,7.711,3.288,7.881
		c2.147,0.168,4.156-3.084,4.487-7.266c0.332-4.182-1.141-7.709-3.29-7.879C119.191,105.074,117.183,108.326,116.852,112.507"/>
	<path clip-path="url(#SVGID_2_)" fill="#A4C31E" d="M81.51,12.809c8.357,0.755,18.678,2.425,20.553,19.282
		c1.877,16.859,2.242,35.463,4.875,46.756c1.395,5.98,4.199,15.031,4.017,23.234c-0.08,3.578-0.729,6.996-2.308,9.928
		c-0.737,1.369-1.683,2.635-2.864,3.762c-1.44,1.369-3.235,2.531-5.455,3.43c-5.771,2.334-14.328,3.406-23.117,3.512
		c-12.604,0.152-25.687-1.684-31.71-4.637c-9.07-4.449-11.36-13.883-10.726-25.045c0.528-9.287,3.08-19.771,5.434-29.575
		C44.763,44.485,48.963,9.873,81.51,12.809"/>
	<path clip-path="url(#SVGID_2_)" fill="#A4C31E" d="M104.271,58.227c0.642,7.908,1.386,15.128,2.666,20.621
		c1.395,5.98,4.199,15.031,4.017,23.234c-0.058,2.557-0.406,5.033-1.175,7.309"/>
	<path clip-path="url(#SVGID_2_)" fill="#54AA37" d="M104.271,58.227c0,0,0.049,0.81,0.133,2.227
		c0.101,1.417,0.171,3.442,0.419,5.867c0.122,1.211,0.208,2.527,0.388,3.913c0.178,1.385,0.35,2.848,0.574,4.356
		c0.29,1.5,0.59,3.051,0.895,4.625c0.377,1.551,0.76,3.129,1.144,4.705c0.394,1.57,0.792,3.139,1.137,4.693
		c0.369,1.549,0.651,3.088,0.925,4.576c0.23,1.494,0.488,2.938,0.604,4.318c0.189,1.377,0.199,2.686,0.248,3.895
		c0.039,0.605,0.002,1.176-0.012,1.736c-0.004,0.557-0.031,1.078-0.088,1.564c-0.063,0.979-0.217,1.824-0.337,2.523
		c-0.106,0.699-0.296,1.227-0.375,1.6c-0.095,0.367-0.146,0.564-0.146,0.564s0.061-0.193,0.176-0.557
		c0.1-0.365,0.318-0.887,0.463-1.582c0.16-0.693,0.361-1.535,0.48-2.525c0.082-0.492,0.139-1.018,0.174-1.57
		c0.041-0.547,0.09-1.141,0.07-1.752c-0.009-1.223,0.021-2.551-0.127-3.945c-0.076-1.4-0.281-2.861-0.51-4.371
		c-0.261-1.504-0.531-3.061-0.884-4.621c-0.333-1.566-0.714-3.146-1.097-4.723c-0.397-1.572-0.797-3.143-1.189-4.688
		c-0.318-1.557-0.629-3.088-0.932-4.568c-0.233-1.5-0.459-2.949-0.67-4.321c-0.223-1.374-0.346-2.685-0.506-3.89
		c-0.313-2.409-0.541-4.426-0.703-5.835C104.363,59.032,104.271,58.227,104.271,58.227"/>
	<path clip-path="url(#SVGID_2_)" fill="#54AA37" d="M34.773,93.031c0,0-0.033,0.408-0.093,1.141
		c-0.069,0.732-0.112,1.797-0.144,3.115c0.003,2.619,0.122,6.338,1.449,10.195c0.66,1.92,1.55,3.664,2.595,5.088
		c1.074,1.396,2.181,2.547,3.258,3.326c0.502,0.432,1.03,0.725,1.467,1.012c0.435,0.295,0.839,0.498,1.172,0.658
		c0.657,0.326,1.022,0.51,1.022,0.51s-0.348-0.213-0.976-0.592c-0.317-0.182-0.702-0.412-1.112-0.734
		c-0.414-0.314-0.915-0.633-1.383-1.086c-1.014-0.822-2.036-2-3.035-3.387c-0.969-1.414-1.796-3.119-2.442-4.988
		c-1.292-3.754-1.564-7.404-1.715-10.008c-0.043-1.309-0.076-2.373-0.06-3.107C34.774,93.441,34.773,93.031,34.773,93.031"/>
	<path clip-path="url(#SVGID_2_)" fill="#54AA37" d="M77.21,122.712c0,0,0.944,0.031,2.394,0.078
		c1.483,0.061,3.529-0.02,5.785-0.182c2.248-0.25,4.28-0.512,5.721-0.875c1.414-0.334,2.334-0.551,2.334-0.551
		s-0.939,0.1-2.381,0.254c-1.459,0.215-3.496,0.326-5.729,0.574c-2.211,0.186-4.232,0.354-5.74,0.479
		C78.148,122.625,77.21,122.712,77.21,122.712"/>
	<path clip-path="url(#SVGID_2_)" fill="#1BA4C0" d="M81.178,22.212c-0.023,0.602,0.428,1.11,1.012,1.133
		c0.58,0.023,1.072-0.449,1.094-1.052c0.023-0.604-0.428-1.11-1.01-1.133C81.689,21.138,81.199,21.607,81.178,22.212"/>
	<path clip-path="url(#SVGID_2_)" fill="#003249" d="M85.902,21.524c-0.027,1.023,0.453,1.882,1.078,1.917
		c0.623,0.035,1.151-0.768,1.178-1.792c0.029-1.024-0.453-1.883-1.075-1.917C86.459,19.697,85.931,20.5,85.902,21.524"/>
	<path clip-path="url(#SVGID_2_)" fill="#003249" d="M73.434,21.309c-0.028,1.024,0.456,1.883,1.078,1.918
		c0.623,0.035,1.15-0.767,1.18-1.792c0.028-1.023-0.455-1.883-1.077-1.918C73.99,19.481,73.463,20.285,73.434,21.309"/>
	<path clip-path="url(#SVGID_2_)" fill="#A4C31E" d="M47.134,114.291c-0.585-8.797-6.452-12.254-9.372-12.367
		c-1.736-0.066-3.141,0.344-4.26,1.146c-2.452,1.754-4.303,5.35-4.48,9.906c-0.266,6.916,0.407,13.406,9.32,13.75
		c4.081,0.156,8.284-1.234,12.882-2.736c7.171-2.338,14.854-2.043,14.854-2.043"/>
	<path clip-path="url(#SVGID_2_)" fill="#FAF2AF" d="M31.323,114.449c0.045,4.33,1.728,7.752,5.267,7.693
		c3.538-0.061,4.977-3.66,4.931-7.99c-0.045-4.328-1.728-7.752-5.267-7.691C32.714,106.519,31.276,110.121,31.323,114.449"/>
	<path clip-path="url(#SVGID_2_)" fill="#54AA37" d="M111.813,116.025c0,0-0.037-0.721-0.095-1.787
		c-0.12-1.088-0.108-2.602-0.021-4.242c0.115-1.648,0.451-3.104,0.854-4.111c0.421-0.998,0.869-1.527,0.869-1.527
		s-0.56,0.42-1.138,1.395c-0.557,0.973-1.064,2.484-1.184,4.195c-0.093,1.707,0.053,3.252,0.32,4.33
		C111.646,115.365,111.813,116.025,111.813,116.025"/>
	<path clip-path="url(#SVGID_2_)" fill="#54AA37" d="M33.501,103.07c0,0,0.268-0.139,0.744-0.385
		c0.483-0.221,1.227-0.455,2.166-0.551c0.468-0.023,0.997-0.031,1.538,0.014c0.538,0.049,1.102,0.244,1.673,0.465
		c1.137,0.486,2.284,1.262,3.3,2.27c2.049,2.033,3.086,4.537,3.607,6.361c0.228,0.926,0.407,1.686,0.469,2.219
		c0.087,0.531,0.135,0.828,0.135,0.828s-0.015-0.301-0.042-0.838c-0.006-0.543-0.112-1.318-0.271-2.279
		c-0.379-1.883-1.312-4.566-3.474-6.715c-1.072-1.064-2.309-1.855-3.539-2.318c-0.621-0.209-1.227-0.381-1.826-0.4
		c-0.586-0.014-1.122,0.033-1.606,0.098c-0.972,0.174-1.708,0.49-2.174,0.766C33.754,102.9,33.501,103.07,33.501,103.07"/>
	<path clip-path="url(#SVGID_2_)" fill="#129A92" d="M37.206,138.968c0.851-0.945,1.838-1.387,2.755-1.564
		c6.331,4.305,7.095,8.668,3.441,7.217c-1.613-0.641-4.195-1.258-7.326-1.887C35.962,141.541,36.151,140.144,37.206,138.968"/>
	<path clip-path="url(#SVGID_2_)" fill="#129A92" d="M17.219,115.781c-3.983-2.371-8.775-2.457-12.517-1.365
		c0.67-0.803,1.419-1.619,2.25-2.447c2.791-2.771,5.991-5.092,9.419-7.008c2.482,0.436,5.077,1.73,7.007,4.77
		c3.987,6.283,3.667,11.57,3.341,13.572c-1.946,0.268-3.511,0.719-4.613,1.297C21.903,122.132,20.979,118.021,17.219,115.781"/>
	<path clip-path="url(#SVGID_2_)" fill="#129A92" d="M0.27,127.773c2.019-2.045,5.851-5,11.253-5.154
		c5.237-0.152,7.773,1.916,8.931,3.465c-0.406,0.826-0.155,1.762,0.874,2.732c-2.362-0.23-5.617-0.066-8.467,1.797
		c-2.51,1.641-3.346,4.281-3.543,6.576C4.829,135.425,1.25,132.121,0.27,127.773"/>
	<path clip-path="url(#SVGID_2_)" fill="#129A92" d="M19.248,134.113c1.574-2.035,4.081-2.73,6.113-2.932
		c1.101,0.457,2.391,0.91,3.886,1.35c1.59,0.469,3.053,0.986,4.4,1.537c-1.12,0.27-2.484,0.846-3.93,2.016
		c-1.744,1.416-1.79,3.463-1.369,5.205c-3.304-0.594-6.795-1.221-10.183-1.902C17.762,137.66,17.957,135.781,19.248,134.113"/>
	<path clip-path="url(#SVGID_2_)" fill="#54AA37" d="M111.54,109.185c-1.991-0.383-3.726,0.154-5.228,0.859
		c-1.42,0.914-2.218,2.174-2.949,3.098c-0.693,0.959-1.403,1.627-1.887,2.086c-0.492,0.453-0.785,0.682-0.785,0.682
		s0.316-0.195,0.852-0.604c0.523-0.416,1.294-1.027,2.072-1.963c0.8-0.893,1.668-2.059,2.963-2.822
		c0.294-0.207,0.68-0.303,1.076-0.396c0.39-0.102,0.787-0.205,1.193-0.314c0.413-0.035,0.834-0.07,1.26-0.107
		c0.41,0.01,0.879,0.016,1.248,0.104"/>
	<path clip-path="url(#SVGID_2_)" fill="#54AA37" d="M66.078,121.949c0,0-2.666-0.195-6.965,0.213
		c-2.136,0.266-4.699,0.602-7.444,1.441c-2.733,0.805-5.681,1.846-8.879,2.451c-3.168,0.578-6.384,0.57-8.926-0.553
		c-1.262-0.555-2.281-1.438-2.97-2.461c-0.699-1.018-1.059-2.143-1.322-3.168c-0.482-2.076-0.51-3.834-0.541-5.029
		c-0.005-1.201-0.009-1.867-0.009-1.867s-0.051,0.662-0.086,1.867c-0.023,1.199-0.074,2.959,0.344,5.096
		c0.232,1.055,0.565,2.229,1.271,3.328c0.694,1.098,1.769,2.078,3.099,2.693c2.679,1.242,6.004,1.273,9.25,0.686
		c3.261-0.619,6.22-1.707,8.918-2.561c2.687-0.881,5.217-1.287,7.33-1.627C63.406,121.904,66.078,121.949,66.078,121.949"/>
	<path clip-path="url(#SVGID_2_)" fill="#003249" d="M66.104,116.341c0,0,0.388,3.859-0.582,5.053
		c-0.967,1.191-2.396,0.367-2.03-1.154c0.367-1.525,0.134-3.455,0.134-3.455"/>
	<path clip-path="url(#SVGID_2_)" fill="#003249" d="M63.779,116.791c0,0,0.388,3.859-0.579,5.051
		c-0.969,1.193-2.399,0.369-2.033-1.154c0.368-1.523,0.135-3.455,0.135-3.455"/>
	<path clip-path="url(#SVGID_2_)" fill="#118089" d="M61.167,120.687c0.055-0.014-0.238,0.506,0.126,1.246
		c0.185,0.348,0.702,0.656,1.238,0.465c0.27-0.082,0.482-0.268,0.689-0.479c0.147-0.244,0.338-0.504,0.403-0.799
		c0.333-1.178,0.283-2.281,0.263-3.063c-0.041-0.787-0.107-1.268-0.107-1.268s0.029,0.484,0.033,1.27
		c-0.016,0.775-0.008,1.879-0.332,3.014c-0.063,0.289-0.237,0.52-0.368,0.752c-0.192,0.197-0.382,0.375-0.622,0.453
		c-0.473,0.182-0.941-0.068-1.133-0.387C60.977,121.212,61.218,120.671,61.167,120.687"/>
	<path clip-path="url(#SVGID_2_)" fill="#003249" d="M61.417,116.699c0,0,0.391,3.859-0.579,5.053
		c-0.969,1.193-2.397,0.369-2.031-1.156c0.366-1.523,0.133-3.455,0.133-3.455"/>
	<path clip-path="url(#SVGID_2_)" fill="#118089" d="M58.808,120.595c0.055-0.01-0.24,0.506,0.125,1.246
		c0.183,0.348,0.702,0.656,1.237,0.467c0.27-0.084,0.481-0.27,0.689-0.479c0.148-0.244,0.338-0.504,0.403-0.801
		c0.333-1.176,0.286-2.281,0.266-3.063c-0.043-0.785-0.11-1.268-0.11-1.268s0.03,0.484,0.035,1.27
		c-0.018,0.777-0.01,1.879-0.333,3.014c-0.063,0.289-0.238,0.521-0.369,0.752c-0.19,0.197-0.381,0.375-0.621,0.453
		c-0.473,0.184-0.941-0.066-1.134-0.385C58.615,121.123,58.858,120.582,58.808,120.595"/>
	<path clip-path="url(#SVGID_2_)" fill="#003249" d="M58.823,115.968c0,0,0.808,3.795-0.025,5.086
		c-0.834,1.291-2.344,0.627-2.145-0.926c0.198-1.555-0.244-3.449-0.244-3.449"/>
	<path clip-path="url(#SVGID_2_)" fill="#118089" d="M56.652,120.126c0.055-0.018-0.182,0.527,0.262,1.227
		c0.22,0.324,0.767,0.576,1.281,0.328c0.258-0.113,0.448-0.32,0.633-0.553c0.118-0.258,0.281-0.537,0.313-0.838
		c0.203-1.207,0.033-2.299-0.072-3.074c-0.128-0.777-0.246-1.248-0.246-1.248s0.083,0.48,0.173,1.258
		c0.068,0.775,0.195,1.871-0.002,3.033c-0.032,0.295-0.181,0.543-0.285,0.789c-0.169,0.215-0.339,0.412-0.567,0.516
		c-0.451,0.234-0.944,0.037-1.169-0.258C56.519,120.669,56.702,120.107,56.652,120.126"/>
	<path clip-path="url(#SVGID_2_)" fill="#003249" d="M88.057,114.757c0,0-0.864,3.781-0.05,5.084
		c0.813,1.305,2.333,0.662,2.159-0.893c-0.176-1.559,0.295-3.445,0.295-3.445"/>
	<path clip-path="url(#SVGID_2_)" fill="#003249" d="M90.307,115.49c0,0-0.863,3.781-0.051,5.084
		c0.814,1.305,2.334,0.664,2.158-0.893c-0.176-1.559,0.295-3.445,0.295-3.445"/>
	<path clip-path="url(#SVGID_2_)" fill="#118089" d="M92.414,119.681c-0.048-0.021,0.125,0.545-0.336,1.172
		c-0.23,0.291-0.727,0.482-1.173,0.242c-0.226-0.107-0.394-0.307-0.56-0.525c-0.102-0.248-0.246-0.498-0.272-0.791
		c-0.181-1.168-0.038-2.26,0.042-3.033c0.104-0.777,0.191-1.256,0.191-1.256s-0.127,0.469-0.265,1.244
		c-0.116,0.773-0.303,1.863-0.116,3.072c0.026,0.301,0.184,0.584,0.299,0.844c0.182,0.232,0.369,0.445,0.627,0.561
		c0.508,0.254,1.06,0.014,1.285-0.311C92.589,120.21,92.361,119.662,92.414,119.681"/>
	<path clip-path="url(#SVGID_2_)" fill="#003249" d="M92.66,115.691c0,0-0.865,3.781-0.051,5.086
		c0.814,1.303,2.334,0.662,2.159-0.895c-0.177-1.557,0.295-3.445,0.295-3.445"/>
	<path clip-path="url(#SVGID_2_)" fill="#118089" d="M94.768,119.882c-0.047-0.021,0.125,0.545-0.336,1.172
		c-0.229,0.291-0.727,0.482-1.172,0.242c-0.229-0.107-0.396-0.307-0.561-0.523c-0.102-0.248-0.246-0.498-0.273-0.793
		c-0.18-1.166-0.037-2.26,0.043-3.033c0.104-0.777,0.192-1.254,0.192-1.254s-0.127,0.469-0.265,1.242
		c-0.117,0.773-0.303,1.863-0.117,3.072c0.027,0.301,0.186,0.584,0.3,0.844c0.181,0.234,0.368,0.445,0.626,0.561
		c0.508,0.254,1.061,0.014,1.285-0.309C94.943,120.412,94.715,119.863,94.768,119.882"/>
	<path clip-path="url(#SVGID_2_)" fill="#003249" d="M95.326,115.289c0,0-1.271,3.664-0.605,5.049
		c0.667,1.385,2.249,0.914,2.244-0.654c-0.006-1.564,0.669-3.391,0.669-3.391"/>
	<path clip-path="url(#SVGID_2_)" fill="#118089" d="M96.965,119.685c-0.045-0.027,0.064,0.555-0.463,1.127
		c-0.26,0.266-0.774,0.4-1.193,0.113c-0.212-0.131-0.357-0.348-0.498-0.582c-0.075-0.258-0.189-0.523-0.186-0.818
		c-0.053-1.178,0.211-2.248,0.373-3.01c0.188-0.762,0.328-1.227,0.328-1.227s-0.176,0.453-0.398,1.207
		c-0.201,0.756-0.506,1.82-0.452,3.041c-0.005,0.303,0.12,0.604,0.208,0.871c0.152,0.254,0.316,0.484,0.561,0.625
		c0.476,0.311,1.051,0.131,1.31-0.166C97.08,120.23,96.914,119.66,96.965,119.685"/>
</g>
<polyline fill="#A4C31E" points="44.711,74.349 44.423,75.232 44.156,76.126 43.866,77.019 43.809,77.957 43.515,78.853 
	43.429,79.785 43.393,80.722 43.232,81.65 43.366,82.591 43.306,83.525 43.217,84.46 43.287,85.394 43.377,86.328 43.5,87.257 
	43.665,88.183 43.886,89.097 44.056,90.019 44.184,90.951 44.398,91.867 44.671,92.771 45.042,93.636 45.372,94.519 45.73,95.392 
	46.108,96.232 46.432,97.093 46.877,97.9 47.262,98.734 47.662,99.56 48.007,100.414 48.56,101.16 48.948,101.99 49.243,102.867 
	49.67,103.673 50.139,104.462 50.465,105.32 50.932,106.111 51.384,106.912 51.776,107.74 52.022,108.638 52.389,109.462 
	52.7,110.306 53.003,111.158 53.282,112.019 53.431,112.919 53.827,113.744 54.059,114.619 54.417,115.449 54.806,116.267 
	55.37,116.968 55.934,117.679 56.763,118.046 57.622,118.253 58.53,118.492 59.468,118.515 60.398,118.597 61.33,118.634 
	62.264,118.736 63.201,118.695 64.131,118.57 65.055,118.419 65.888,118 66.588,117.429 66.893,116.529 67.078,115.582 
	67.007,114.617 66.997,113.662 67.023,112.71 67.001,111.748 67.09,110.781 67.05,109.824 66.917,108.869 66.783,107.929 
	66.691,107.033 66.717,106.121 66.488,105.24 66.374,104.347 66.234,103.455 66.234,102.544 66.12,101.648 65.945,100.761 
	65.809,99.869 65.523,99.005 65.501,98.089 65.227,97.224 64.986,96.353 64.869,95.455 64.628,94.585 64.523,93.683 64.234,92.824 
	"/>
<g>
	<defs>
		<rect id="SVGID_3_" width="125.9" height="144.906"/>
	</defs>
	<clipPath id="SVGID_4_">
		<use xlink:href="#SVGID_3_"  overflow="visible"/>
	</clipPath>
	<path clip-path="url(#SVGID_4_)" fill="#54AA37" d="M64.252,92.82c0,0,0.233,1.396,0.601,3.604c0.2,1.113,0.442,2.43,0.707,3.885
		c0.187,1.48,0.388,3.1,0.601,4.799c1.061,6.77,0.809,12.41,0.44,12.33c0.366,0.121,1.226-5.564,0.153-12.404
		c-0.23-1.707-0.461-3.336-0.696-4.811c-0.343-1.445-0.65-2.756-0.913-3.863C64.599,94.191,64.252,92.82,64.252,92.82"/>
	<path clip-path="url(#SVGID_4_)" fill="#54AA37" d="M57.608,118.337c0.025-0.039-0.721-0.039-1.67-0.795
		c-0.937-0.783-1.681-2.412-2.244-4.494c-0.3-1.037-0.586-2.193-0.997-3.414c-0.399-1.236-1.057-2.43-1.648-3.74
		c-1.23-2.594-2.579-5.439-3.997-8.428c-3.113-5.859-3.784-11.961-3.549-16.248c0.107-2.156,0.406-3.889,0.669-5.07
		c0.263-1.184,0.488-1.818,0.488-1.818s-0.26,0.621-0.581,1.795c-0.315,1.172-0.692,2.9-0.874,5.074
		c-0.182,2.168-0.165,4.789,0.317,7.641c0.48,2.84,1.428,5.949,2.984,8.873c1.43,3.002,2.813,5.834,4.085,8.395
		c0.611,1.289,1.302,2.48,1.719,3.666c0.437,1.186,0.76,2.33,1.098,3.363c0.636,2.072,1.472,3.723,2.47,4.479
		C56.887,118.343,57.631,118.294,57.608,118.337"/>
</g>
<polyline fill="#A4C31E" points="92.059,84.789 91.692,85.64 91.359,86.505 91.065,87.382 90.685,88.23 90.463,89.134 
	90.217,90.031 89.969,90.927 89.722,91.824 89.438,92.714 89.146,93.603 89.053,94.537 88.941,95.46 88.721,96.367 88.629,97.298 
	88.391,98.203 88.266,99.132 88.182,100.066 88.142,100.988 88.062,101.902 87.914,102.808 87.742,103.714 87.637,104.628 
	87.655,105.552 87.535,106.466 87.449,107.38 87.48,108.302 87.303,109.212 87.42,110.134 87.342,111.052 87.422,111.968 
	87.367,112.89 87.528,113.798 87.758,114.697 88.235,115.494 88.9,116.128 89.734,116.503 90.565,116.792 91.416,117.037 
	92.252,117.316 93.076,117.632 93.926,117.857 94.805,117.89 95.666,117.917 96.57,117.816 97.349,117.333 97.979,116.664 
	98.363,115.822 98.701,114.953 98.94,114.041 99.422,113.23 99.707,112.332 100.068,111.474 100.564,110.677 100.965,109.835 
	101.41,109.019 101.74,108.14 102.139,107.292 102.686,106.519 103.03,105.64 103.541,104.845 103.845,103.947 104.332,103.138 
	104.703,102.275 105.097,101.425 105.472,100.562 105.732,99.658 106.06,98.783 106.41,97.902 106.65,96.986 106.887,96.072 
	107.037,95.138 107.262,94.216 107.477,93.287 107.563,92.339 107.566,91.384 107.642,90.439 107.656,89.49 107.631,88.541 
	107.73,87.587 107.646,86.638 107.565,85.689 107.592,84.732 107.5,83.789 107.222,82.865 107.199,81.906 106.935,80.988 
	106.791,80.048 106.627,79.111 106.377,78.193 106.031,77.306 105.629,76.447 105.386,75.517 104.983,74.66 104.508,73.837 
	103.912,73.099 103.42,72.295 "/>
<g>
	<defs>
		<rect id="SVGID_5_" width="125.9" height="144.906"/>
	</defs>
	<clipPath id="SVGID_6_">
		<use xlink:href="#SVGID_5_"  overflow="visible"/>
	</clipPath>
	<path clip-path="url(#SVGID_6_)" fill="#54AA37" d="M89.734,116.501c0.02-0.025-0.479-0.123-1.082-0.693
		c-0.613-0.576-1.031-1.756-1.097-3.244c-0.173-2.979,0.388-7.113,0.838-11.672c0.274-2.273,0.665-4.41,0.931-6.375
		c0.375-1.941,0.863-3.662,1.186-5.129c0.416-1.439,0.803-2.594,1.041-3.398c0.287-0.789,0.445-1.229,0.445-1.229
		s-0.19,0.426-0.533,1.193c-0.291,0.789-0.75,1.92-1.24,3.348c-0.395,1.453-0.959,3.166-1.393,5.113
		c-0.326,1.967-0.759,4.133-1.033,6.414c-0.449,4.564-0.866,8.729-0.539,11.764c0.139,1.51,0.654,2.73,1.33,3.281
		C89.252,116.423,89.752,116.474,89.734,116.501"/>
	<path clip-path="url(#SVGID_6_)" fill="#54AA37" d="M106.101,98.798c0,0-0.55,1.146-1.411,2.955
		c-0.402,0.922-0.958,1.988-1.587,3.168c-0.608,1.197-1.272,2.502-1.972,3.875c-1.435,2.729-2.396,5.408-3.112,7.271
		c-0.33,0.938-0.999,1.467-1.507,1.676c-0.26,0.096-0.471,0.16-0.618,0.18c-0.146,0.027-0.224,0.041-0.224,0.041
		s0.08-0.004,0.228-0.016c0.149-0.004,0.368-0.045,0.646-0.117c0.541-0.156,1.326-0.672,1.748-1.643
		c0.877-1.854,1.939-4.387,3.379-7.127c0.684-1.377,1.32-2.707,1.888-3.92c0.579-1.207,1.069-2.309,1.405-3.27
		C105.66,99.994,106.101,98.798,106.101,98.798"/>
	<path clip-path="url(#SVGID_6_)" fill="#003249" d="M75.239,25.346c0,0,1.044,1.362,4.328,1.977c3.284,0.613,4.8-0.378,4.8-0.378
		s-0.581,6.301-5.727,5.425C72.141,31.264,75.239,25.346,75.239,25.346"/>
</g>
</svg>
