<?xml version="1.0" encoding="utf-8"?>
<!-- Generator: Adobe Illustrator 16.0.0, SVG Export Plug-In . SVG Version: 6.00 Build 0)  -->
<!DOCTYPE svg PUBLIC "-//W3C//DTD SVG 1.1//EN" "http://www.w3.org/Graphics/SVG/1.1/DTD/svg11.dtd">
<svg version="1.1" id="레이어_1" xmlns="http://www.w3.org/2000/svg" xmlns:xlink="http://www.w3.org/1999/xlink" x="0px"
	 y="0px" width="150.689px" height="151.728px" viewBox="0 0 150.689 151.728" enable-background="new 0 0 150.689 151.728"
	 xml:space="preserve">
<g>
	<defs>
		<rect id="SVGID_1_" width="150.689" height="151.728"/>
	</defs>
	<clipPath id="SVGID_2_">
		<use xlink:href="#SVGID_1_"  overflow="visible"/>
	</clipPath>
	<path clip-path="url(#SVGID_2_)" fill="#A4C31E" d="M105.834,57.619c0,0,15.148-3.288,21.945-11.621s1.637-11.105,6.438-15.936
		c4.803-4.829,16.431-1.793,16.299,15.006c-0.132,16.798-25.897,30.008-41.065,31.434"/>
	<path clip-path="url(#SVGID_2_)" fill="#54AA37" d="M133.199,31.251c0,0,0.215-0.255,0.617-0.734
		c0.193-0.243,0.445-0.544,0.807-0.819c0.174-0.146,0.359-0.304,0.559-0.472c0.226-0.129,0.467-0.268,0.722-0.414
		c1.028-0.532,2.44-1.015,4.092-0.876c1.636,0.103,3.465,0.738,5.052,1.997c1.596,1.244,2.924,3.059,3.863,5.168
		c0.936,2.125,1.389,4.539,1.672,7.035c0.014,1.257,0.182,2.53,0.07,3.828c-0.049,1.288-0.321,2.608-0.661,3.882
		c-0.757,2.546-2.038,4.954-3.615,7.129c-3.235,4.313-7.487,7.714-11.708,10.396c-4.244,2.68-8.513,4.648-12.264,6.052
		c-3.76,1.399-7.021,2.173-9.318,2.584c-1.148,0.209-2.06,0.334-2.681,0.396c-0.622,0.065-0.954,0.101-0.954,0.101
		s0.33-0.043,0.952-0.121c0.62-0.073,1.526-0.217,2.668-0.449c2.289-0.445,5.511-1.329,9.246-2.739
		c3.728-1.425,7.966-3.418,12.165-6.112c4.18-2.693,8.371-6.106,11.529-10.373c1.566-2.131,2.84-4.486,3.598-6.975
		c0.344-1.258,0.615-2.501,0.674-3.788c0.121-1.27-0.038-2.539-0.043-3.78c-0.262-2.467-0.691-4.854-1.598-6.948
		c-0.908-2.079-2.196-3.864-3.748-5.09c-1.545-1.233-3.309-1.892-4.91-2.026c-1.616-0.172-3.02,0.277-4.043,0.779
		c-0.256,0.138-0.496,0.268-0.723,0.392c-0.203,0.164-0.391,0.318-0.566,0.461c-0.371,0.268-0.619,0.556-0.82,0.798
		C133.42,31.001,133.199,31.251,133.199,31.251"/>
	<path clip-path="url(#SVGID_2_)" fill="#A4C31E" d="M75.798,129.74c0,0-18.969,3.303-32.736-2.244
		c-17.318-6.977-23.707-23.512-40.464-15.691c-4.766,2.225-2.859-3.178,4.769-7.311c7.627-4.131,22.246-5.402,34.322,1.271
		C53.766,112.439,65.208,101,65.208,101"/>
	<path clip-path="url(#SVGID_2_)" fill="#129A92" d="M30.38,114.064c1.413-6.012,5.086-8.811,7.621-10.063
		c1.248,0.514,2.481,1.098,3.687,1.764c0.711,0.393,1.418,0.717,2.122,0.99c-2.111,2.289-5.061,6.309-5.253,11.049
		c-0.136,3.4,0.358,6.107,0.933,8.051c-3.597-1.855-6.71-4.076-9.588-6.266C29.788,118.025,29.882,116.175,30.38,114.064"/>
	<path clip-path="url(#SVGID_2_)" fill="#129A92" d="M16.222,107.117c0.526-2.959,1.934-4.793,3.277-5.9
		c3.144-0.26,6.512-0.16,9.921,0.387c-2.312,1.043-5.604,3.338-6.88,8.205c-0.385,1.465-0.506,2.773-0.471,3.918
		c-1.955-1.303-3.911-2.383-5.966-3.09C15.982,109.642,15.982,108.47,16.222,107.117"/>
	<path clip-path="url(#SVGID_2_)" fill="#129A92" d="M7.367,104.494c1.051-0.57,2.241-1.082,3.533-1.529
		c-0.718,1.256-1.262,2.914-1.26,5.057c0.001,0.639,0.046,1.227,0.124,1.773c-2.192,0.162-4.552,0.789-7.165,2.008
		C-2.168,114.029-0.261,108.626,7.367,104.494"/>
	<path clip-path="url(#SVGID_2_)" fill="#98B51E" d="M109.451,122.332c0,0-4.064,11.293-3.938,17.021c0,0,3.524,1.309,2.608,5.992
		c-0.915,4.684-11.445,4.057-15.663,1.223c-0.634-0.426-1.271-1.115-1.656-2.943c-1.449-6.869-1.162-21.885-0.617-26.102"/>
	<path clip-path="url(#SVGID_2_)" fill="#A4C31E" d="M79.82,125.279c0,0-4.063,11.295-3.938,17.02c0,0,3.523,1.313,2.607,5.996
		c-0.914,4.682-11.445,4.053-15.663,1.221c-0.635-0.426-1.272-1.113-1.657-2.943c-1.449-6.869-1.163-21.885-0.618-26.1"/>
	<path clip-path="url(#SVGID_2_)" fill="#E68913" d="M137.578,27.35c0.234,1.109-0.477,2.199-1.585,2.433
		c-1.111,0.234-2.201-0.475-2.435-1.584l-5.18-25.646c-0.234-1.11,0.475-2.198,1.583-2.433c1.111-0.234,2.199,0.475,2.435,1.585
		L137.578,27.35z"/>
	<path clip-path="url(#SVGID_2_)" fill="#F4E829" d="M128.506,1.305c0.031,0.038,0.13-0.598,1-1.082
		c0.427-0.208,1.055-0.336,1.718-0.085c0.642,0.236,1.271,0.908,1.386,1.76c0.721,3.159,1.605,7.387,2.482,11.616
		c0.835,4.237,1.663,8.477,2.223,11.667c0.137,0.802,0.264,1.538,0.375,2.189c0.104,0.659-0.137,1.296-0.438,1.652
		c-0.296,0.392-0.655,0.553-0.882,0.654c-0.248,0.07-0.377,0.106-0.377,0.106s0.127-0.045,0.365-0.13
		c0.217-0.116,0.558-0.298,0.813-0.69c0.26-0.388,0.443-0.92,0.303-1.569c-0.146-0.639-0.313-1.358-0.492-2.145
		c-0.725-3.158-1.606-7.386-2.482-11.615c-0.834-4.238-1.663-8.477-2.223-11.669c-0.088-0.783-0.57-1.354-1.136-1.626
		c-0.567-0.267-1.167-0.195-1.591-0.024C128.689,0.713,128.529,1.345,128.506,1.305"/>
	<path clip-path="url(#SVGID_2_)" fill="#2194D3" d="M137.659,27.484c-1.073-1.8-4.28-0.524-4.187,1.129
		c0.133,2.394,3.18,15.109,3.92,17.765c0.741,2.655,5.1,1.592,4.836-1.272C141.963,42.242,137.659,27.484,137.659,27.484"/>
	<path clip-path="url(#SVGID_2_)" fill="#1372AA" d="M141.949,45.696c0.244,0.583-0.375,1.396-1.381,1.817
		c-1.009,0.422-2.022,0.292-2.266-0.29c-0.245-0.582,0.375-1.396,1.383-1.818S141.705,45.114,141.949,45.696"/>
	<path clip-path="url(#SVGID_2_)" fill="#003E7E" d="M142.516,29.445c-0.593-0.713-2.447-1.753-4.261-1.595
		c-1.813,0.156-3.497,1.386-3.2,2.81c0.317,1.52,1.428,1.44,2.693,1.313c0.57-0.058,1.248-0.146,1.809,0.021
		c0.777,0.232,1.276,0.863,2.172,0.683C142.91,32.442,143.643,30.799,142.516,29.445"/>
	<path clip-path="url(#SVGID_2_)" fill="#54AA37" d="M135.055,30.66c0,0-0.019-0.194-0.049-0.531
		c0.064-0.328,0.189-0.859,0.668-1.285c0.852-0.892,2.721-1.556,4.574-0.93c0.909,0.282,1.717,0.736,2.305,1.353
		c0.559,0.645,0.731,1.477,0.549,2.088c-0.172,0.616-0.569,0.991-0.873,1.147c-0.312,0.146-0.504,0.166-0.5,0.177
		c-0.006-0.01,0.187-0.057,0.472-0.225c0.276-0.181,0.612-0.568,0.728-1.141c0.12-0.567-0.076-1.287-0.6-1.843
		c-0.543-0.523-1.33-0.951-2.186-1.216c-1.73-0.584-3.469-0.059-4.347,0.72c-0.481,0.368-0.637,0.847-0.735,1.162
		C135.057,30.468,135.055,30.66,135.055,30.66"/>
	<path clip-path="url(#SVGID_2_)" fill="#003E7E" d="M143.338,32.887c-0.594-0.714-2.449-1.753-4.264-1.596
		c-1.813,0.158-3.496,1.386-3.201,2.81c0.318,1.521,1.432,1.44,2.697,1.313c0.568-0.057,1.246-0.146,1.807,0.021
		c0.777,0.231,1.275,0.862,2.171,0.685C143.732,35.883,144.465,34.241,143.338,32.887"/>
	<path clip-path="url(#SVGID_2_)" fill="#54AA37" d="M135.874,34.102c0,0-0.019-0.195-0.048-0.531
		c0.064-0.329,0.191-0.86,0.668-1.286c0.852-0.891,2.723-1.555,4.574-0.929c0.908,0.282,1.717,0.736,2.305,1.354
		c0.561,0.645,0.73,1.477,0.55,2.087c-0.174,0.616-0.571,0.99-0.875,1.147c-0.311,0.145-0.505,0.167-0.5,0.177
		c-0.005-0.009,0.187-0.056,0.472-0.225c0.276-0.182,0.613-0.569,0.729-1.14c0.122-0.568-0.077-1.288-0.598-1.844
		c-0.543-0.524-1.332-0.952-2.188-1.215c-1.73-0.585-3.468-0.06-4.347,0.718c-0.479,0.369-0.638,0.847-0.736,1.162
		C135.877,33.908,135.874,34.102,135.874,34.102"/>
	<path clip-path="url(#SVGID_2_)" fill="#003E7E" d="M143.939,36.323c-0.592-0.713-2.448-1.753-4.26-1.596
		c-1.813,0.157-3.498,1.387-3.201,2.811c0.315,1.52,1.429,1.439,2.693,1.313c0.571-0.058,1.248-0.146,1.807,0.021
		c0.777,0.231,1.278,0.863,2.172,0.684C144.334,39.319,145.066,37.677,143.939,36.323"/>
	<path clip-path="url(#SVGID_2_)" fill="#54AA37" d="M136.479,37.538c0,0-0.02-0.195-0.049-0.531
		c0.063-0.328,0.189-0.858,0.668-1.285c0.853-0.893,2.722-1.556,4.572-0.931c0.911,0.284,1.717,0.737,2.307,1.354
		c0.562,0.645,0.731,1.477,0.549,2.087c-0.174,0.616-0.571,0.989-0.873,1.147c-0.311,0.145-0.506,0.166-0.502,0.176
		c-0.006-0.01,0.188-0.056,0.472-0.224c0.278-0.181,0.614-0.569,0.728-1.14c0.123-0.568-0.076-1.288-0.598-1.844
		c-0.543-0.524-1.33-0.952-2.188-1.215c-1.729-0.585-3.467-0.059-4.346,0.72c-0.479,0.367-0.638,0.846-0.734,1.16
		C136.48,37.345,136.479,37.538,136.479,37.538"/>
	<path clip-path="url(#SVGID_2_)" fill="#003E7E" d="M143.939,38.939c-0.592-0.712-2.448-1.752-4.26-1.595
		c-1.813,0.157-3.498,1.387-3.201,2.811c0.315,1.519,1.429,1.439,2.693,1.313c0.571-0.058,1.248-0.146,1.807,0.021
		c0.777,0.232,1.278,0.863,2.172,0.684C144.334,41.936,145.066,40.294,143.939,38.939"/>
	<path clip-path="url(#SVGID_2_)" fill="#54AA37" d="M136.479,40.155c0,0-0.02-0.196-0.049-0.531
		c0.063-0.329,0.189-0.86,0.668-1.286c0.853-0.891,2.722-1.556,4.572-0.93c0.911,0.283,1.717,0.737,2.307,1.353
		c0.562,0.646,0.731,1.478,0.549,2.089c-0.174,0.615-0.571,0.989-0.873,1.147c-0.311,0.145-0.506,0.165-0.502,0.175
		c-0.006-0.008,0.188-0.056,0.472-0.223c0.278-0.181,0.614-0.569,0.728-1.141c0.123-0.567-0.076-1.287-0.598-1.844
		c-0.543-0.523-1.33-0.952-2.188-1.215c-1.729-0.585-3.467-0.059-4.346,0.719c-0.479,0.368-0.638,0.848-0.734,1.161
		C136.48,39.962,136.479,40.155,136.479,40.155"/>
	<path clip-path="url(#SVGID_2_)" fill="#A4C31E" d="M92.712,131.437c-12.024,0.947-24.621,0.686-30.619-1.592
		c-9.037-3.428-12.06-12.211-12.451-22.898c-0.324-8.895,1.171-19.109,2.54-28.658c2.648-18.476-9.934-45.033,19.698-50.52
		c7.896-1.462,18.062-1.562,28.968,14.832c1.899,2.854,3.577,6.126,5.057,9.435c0.834,1.863,1.595,3.659,2.318,5.59
		c4.075,10.861,7.096,18.038,8.897,29.375C119.536,102.22,124.195,128.958,92.712,131.437"/>
	<path clip-path="url(#SVGID_2_)" fill="#EBEBEB" d="M78.352,27.095c-0.749,0-1.563,0.029-2.447,0.096
		c-0.691,0.051-1.39,0.141-2.092,0.263c1.27-0.176,2.589-0.293,3.954-0.293c2.481,0,5.114,0.383,7.862,1.481
		C84.598,27.98,82.451,27.095,78.352,27.095 M57.759,34.218c-0.248,0.158-0.381,0.247-0.381,0.247s0.054-0.01,0.159-0.026
		C57.61,34.364,57.685,34.291,57.759,34.218"/>
	<path clip-path="url(#SVGID_2_)" fill="#96B320" d="M77.767,27.16c-1.365,0-2.685,0.116-3.954,0.292
		c-7.041,1.224-14.329,5.667-16.053,6.767c-0.075,0.072-0.148,0.146-0.222,0.22c0.544-0.088,2.452-0.356,5.295-0.356
		c0.511,0,1.052,0.009,1.621,0.028c0.531,0.019,1.082,0.03,1.65,0.03c4.075,0,9.061-0.545,14.636-2.568c0,0,1.414-0.647,3.045-1.568
		c1.021-0.577,1.876-0.673,2.331-0.673c0.225,0,0.35,0.023,0.35,0.023s-0.219-0.316-0.836-0.713
		C82.881,27.543,80.248,27.16,77.767,27.16"/>
	<path clip-path="url(#SVGID_2_)" fill="#F2CD21" d="M57.175,35.348c0,0-2.413,0.181-2.409-0.96c0-1.102,3.607-2.357,3.607-2.357
		s11.779-4.931,19.259-5.274c5.855-0.268,11.488,0.512,11.32,2.108c-0.046,0.444-0.943,0.594-1.599,0.409
		c0,0-0.968-0.592-3.843-1.172c-3.768-0.76-5.371-0.783-8.58-0.11C71.721,28.666,60.961,34.798,57.175,35.348"/>
	<path clip-path="url(#SVGID_2_)" fill="#F2CD21" d="M75.5,27.332c5.404-0.818,9.73,0.256,10.389,0.369
		c0.62,0.106,1.027,0.071,1.07,0.066c-0.229-1.501-0.598-2.849-1.146-4.155c-3.386-8.053-12.326-11.717-22.219-7.714
		c-9.6,3.884-6.806,15.668-6.342,17.382l1.515-0.157C61.688,32.651,70.096,28.151,75.5,27.332"/>
	<path clip-path="url(#SVGID_2_)" fill="#F2CD21" d="M68.223,14.557c-1.507,0.262-3.056,0.705-4.63,1.342
		c-9.6,3.885-6.805,15.667-6.341,17.381l1.514-0.155c1.699-0.275,5.255-1.912,8.994-3.396"/>
	<path clip-path="url(#SVGID_2_)" fill="#F4E829" d="M68.223,14.557l-1.527,0.38c-0.514,0.108-1.014,0.265-1.501,0.461l-1.471,0.536
		c-0.469,0.204-0.938,0.46-1.407,0.688c-0.493,0.203-0.865,0.574-1.302,0.853c-0.445,0.271-0.783,0.675-1.162,1.028
		c-0.397,0.341-0.673,0.786-0.991,1.196c-0.339,0.396-0.539,0.883-0.798,1.331c-0.275,0.442-0.399,0.956-0.606,1.433
		c-0.184,0.482-0.276,0.999-0.419,1.497c-0.209,1.019-0.323,2.053-0.356,3.094c-0.064,2.08,0.168,4.176,0.677,6.197l-0.119-0.083
		l1.387-0.135c0.202-0.014,0.442-0.107,0.661-0.157l0.672-0.181c0.457-0.101,0.876-0.298,1.312-0.447l1.3-0.486l5.187-2.033
		l-5.128,2.185l-1.305,0.504c-0.439,0.157-0.865,0.36-1.319,0.467l-0.67,0.187c-0.232,0.056-0.429,0.145-0.689,0.172l-1.386,0.15
		l-0.096,0.01l-0.023-0.093c-0.539-2.041-0.798-4.151-0.757-6.265c0.016-1.058,0.165-2.109,0.381-3.145
		c0.153-0.508,0.253-1.03,0.449-1.523c0.214-0.483,0.346-1.005,0.632-1.455c0.27-0.456,0.48-0.949,0.833-1.353
		c0.328-0.416,0.615-0.865,1.024-1.209c0.391-0.357,0.739-0.763,1.2-1.038c0.449-0.278,0.847-0.657,1.335-0.853
		c0.476-0.225,0.933-0.468,1.425-0.677l1.502-0.494c0.495-0.181,0.998-0.32,1.517-0.411L68.223,14.557z"/>
	<path clip-path="url(#SVGID_2_)" fill="#F4E829" d="M66.227,15.005c0.974-0.278,1.947-0.521,2.929-0.659
		c0.979-0.136,1.958-0.213,2.918-0.186c0.96,0.019,1.909,0.105,2.815,0.298c0.459,0.073,0.9,0.189,1.335,0.325
		c0.44,0.116,0.866,0.255,1.272,0.432c0.832,0.308,1.602,0.713,2.318,1.146c0.723,0.43,1.362,0.937,1.971,1.436
		c0.572,0.541,1.125,1.064,1.578,1.638c0.491,0.54,0.856,1.144,1.233,1.692c0.326,0.58,0.669,1.116,0.897,1.675
		c0.125,0.272,0.246,0.538,0.363,0.794c0.082,0.271,0.163,0.531,0.241,0.784c0.276,1.017,0.666,1.857,0.724,2.602
		c0.153,1.474,0.239,2.292,0.239,2.292s-0.094-0.816-0.261-2.289c-0.066-0.739-0.475-1.575-0.773-2.58
		c-0.084-0.249-0.172-0.506-0.261-0.772c-0.123-0.253-0.25-0.512-0.382-0.778c-0.24-0.547-0.594-1.069-0.93-1.637
		c-0.387-0.532-0.762-1.118-1.258-1.639c-0.461-0.555-1.015-1.058-1.586-1.579c-0.608-0.478-1.24-0.967-1.953-1.379
		c-0.707-0.417-1.463-0.809-2.277-1.108c-0.398-0.173-0.814-0.309-1.244-0.424c-0.426-0.135-0.859-0.251-1.31-0.328
		c-0.887-0.197-1.815-0.3-2.761-0.34c-0.945-0.052-1.913-0.005-2.891,0.086C68.198,14.604,67.219,14.794,66.227,15.005"/>
	<path clip-path="url(#SVGID_2_)" fill="#F2CD21" d="M59.799,17.801c0,0,5.973-5.855,16.264-3.293c0,0,1.421,1.074,1.229,5.927"/>
	<path clip-path="url(#SVGID_2_)" fill="#F4E829" d="M59.799,17.801c1.044-0.989,2.265-1.796,3.571-2.414
		c0.65-0.318,1.326-0.583,2.011-0.817c0.686-0.235,1.392-0.4,2.103-0.547c0.352-0.084,0.715-0.109,1.074-0.168
		c0.359-0.054,0.718-0.102,1.081-0.111c0.723-0.061,1.449-0.078,2.172-0.026c0.727-0.002,1.442,0.141,2.162,0.214
		c0.715,0.11,1.419,0.288,2.128,0.427l0.035,0.009l0.021,0.02c0.427,0.424,0.603,0.918,0.772,1.418
		c0.166,0.501,0.244,1.016,0.328,1.531c0.055,0.515,0.072,1.036,0.09,1.552l-0.055,1.548l-0.049-1.545
		c-0.046-0.511-0.111-1.021-0.18-1.527c-0.1-0.501-0.195-1.003-0.375-1.477c-0.163-0.463-0.398-0.957-0.719-1.254l0.056,0.025
		c-0.7-0.131-1.397-0.3-2.102-0.398c-0.709-0.064-1.415-0.198-2.127-0.188c-0.712-0.035-1.424-0.032-2.134,0.02
		c-0.358,0.006-0.711,0.048-1.064,0.099c-0.351,0.053-0.709,0.073-1.055,0.153c-0.699,0.132-1.392,0.3-2.074,0.506
		c-0.68,0.207-1.356,0.446-2.006,0.74c-0.656,0.281-1.286,0.621-1.91,0.972C60.943,16.933,60.343,17.33,59.799,17.801"/>
	<path clip-path="url(#SVGID_2_)" fill="#F4E829" d="M59.396,18.78c0,0-0.122-0.866,0.404-0.979
		c1.514-0.324,5.647,6.038,5.647,6.038S61.769,18.668,59.396,18.78"/>
</g>
<rect x="68.884" y="20.709" transform="matrix(0.2645 0.9644 -0.9644 0.2645 73.7886 -53.2065)" fill="#5CAC35" width="5.781" height="2.121"/>
<rect x="68.885" y="20.71" transform="matrix(-0.9708 0.2399 -0.2399 -0.9708 146.6775 25.687)" fill="#5CAC35" width="5.781" height="2.121"/>
<g>
	<defs>
		<rect id="SVGID_3_" width="150.689" height="151.728"/>
	</defs>
	<clipPath id="SVGID_4_">
		<use xlink:href="#SVGID_3_"  overflow="visible"/>
	</clipPath>
	<path clip-path="url(#SVGID_4_)" fill="#F4E829" d="M54.766,34.49c0,0-0.008,0.16,0.167,0.354c0.172,0.199,0.554,0.308,1.031,0.321
		c0.973,0.039,2.337-0.395,3.921-0.956c0.781-0.299,1.652-0.622,2.489-1.078c0.846-0.436,1.721-0.977,2.645-1.507
		c1.837-1.081,3.846-2.234,6.019-3.086c2.161-0.868,4.491-1.378,6.688-1.456c2.187-0.101,4.231,0.224,5.907,0.677
		c1.689,0.432,2.974,1.117,3.908,1.378c0.465,0.13,0.853,0.138,1.084,0.014c0.233-0.113,0.322-0.239,0.327-0.231
		c-0.006-0.008-0.066,0.131-0.291,0.294c-0.223,0.177-0.666,0.255-1.171,0.172c-1.015-0.167-2.37-0.607-4.019-0.923
		c-1.649-0.317-3.607-0.419-5.688-0.274c-1.032,0.096-2.098,0.218-3.155,0.482c-1.064,0.232-2.114,0.594-3.154,0.988
		c-2.078,0.801-4.056,1.884-5.944,2.887c-0.938,0.515-1.874,0.966-2.794,1.374c-0.915,0.418-1.809,0.679-2.645,0.931
		c-1.662,0.466-3.121,0.688-4.149,0.546c-0.511-0.063-0.909-0.27-1.06-0.512C54.728,34.646,54.766,34.49,54.766,34.49"/>
	<path clip-path="url(#SVGID_4_)" fill="#54AA37" d="M52.182,78.289c0,0-0.381,3.158-0.993,8.229
		c-0.229,2.547-0.698,5.566-0.873,8.941c-0.1,1.686-0.296,3.451-0.338,5.287c-0.015,1.836-0.029,3.736-0.043,5.684
		c0.082,3.883,0.537,7.586,1.471,10.811c0.892,3.242,2.391,5.938,4.021,7.875c1.672,1.916,3.403,3.111,4.667,3.768
		c0.608,0.375,1.142,0.549,1.476,0.723c0.342,0.158,0.523,0.24,0.523,0.24s-0.184-0.074-0.532-0.217
		c-0.342-0.16-0.884-0.314-1.51-0.666c-1.294-0.613-3.082-1.754-4.838-3.656c-1.715-1.924-3.314-4.646-4.271-7.928
		c-1.003-3.264-1.497-7.016-1.581-10.934c0.024-1.959,0.046-3.873,0.068-5.721c0.061-1.846,0.278-3.615,0.404-5.307
		c0.23-3.387,0.771-6.395,1.071-8.939C51.692,81.433,52.182,78.289,52.182,78.289"/>
	<path clip-path="url(#SVGID_4_)" fill="#54AA37" d="M109.859,61.959c0,0,0.596,1.415,1.672,3.969
		c0.938,2.606,2.279,6.397,3.512,11.207c0.639,2.395,1.27,5.039,1.883,7.891c0.621,2.861,1.048,5.945,1.507,9.197
		c0.423,3.254,0.75,6.699,0.698,10.285c-0.034,3.578-0.457,7.322-1.659,10.955c-0.616,1.811-1.421,3.533-2.412,5.117
		c-0.998,1.576-2.224,2.969-3.544,4.197c-2.697,2.416-5.855,4.043-8.999,5.033c-6.325,2.051-12.351,1.912-17.271,2.176
		c-4.959,0.129-8.977-0.012-11.742-0.201c-2.759-0.254-4.288-0.396-4.288-0.396s1.531,0.111,4.293,0.307
		c2.767,0.137,6.778,0.205,11.725,0.004c4.917-0.334,10.926-0.275,17.13-2.35c3.089-0.998,6.166-2.615,8.781-4.977
		c1.28-1.203,2.467-2.559,3.437-4.098c0.959-1.545,1.744-3.225,2.346-4.996c1.176-3.555,1.605-7.238,1.654-10.779
		c0.066-3.549-0.236-6.973-0.629-10.217c-0.43-3.24-0.828-6.336-1.412-9.178c-0.578-2.852-1.174-5.5-1.776-7.9
		c-1.16-4.817-2.429-8.622-3.317-11.246C110.426,63.384,109.859,61.959,109.859,61.959"/>
	<path clip-path="url(#SVGID_4_)" fill="#003E7E" d="M79.043,32.855c0.184,0.815,0.738,1.398,1.238,1.302
		c0.499-0.097,0.757-0.837,0.574-1.653c-0.184-0.815-0.738-1.398-1.238-1.301C79.118,31.3,78.86,32.04,79.043,32.855"/>
	<path clip-path="url(#SVGID_4_)" fill="#003E7E" d="M69.649,34.555c0.184,0.814,0.737,1.397,1.236,1.301
		c0.501-0.098,0.759-0.837,0.576-1.653c-0.185-0.815-0.738-1.397-1.238-1.301C69.724,32.998,69.466,33.738,69.649,34.555"/>
	<path clip-path="url(#SVGID_4_)" fill="#1AA4B4" d="M75.441,34.345c0.104,0.482,0.564,0.792,1.029,0.694
		c0.463-0.099,0.758-0.569,0.654-1.051c-0.102-0.481-0.563-0.792-1.027-0.694C75.634,33.394,75.34,33.863,75.441,34.345"/>
	<path clip-path="url(#SVGID_4_)" fill="#003E7E" d="M70.992,39.918c0,0,5.018,2.281,10.583,0.092c0,0,1.279,6.296-5.291,6.659
		C69.716,47.035,70.992,39.918,70.992,39.918"/>
	<path clip-path="url(#SVGID_4_)" fill="#003E7E" d="M71.27,40.388c-0.087,0.912-0.153,3.136,1.06,4.582
		c0.842,1.007,2.158,1.468,3.936,1.367c1.862-0.103,3.234-0.71,4.081-1.804c1.084-1.4,1.038-3.266,0.957-4.065
		c-1.528,0.548-3.146,0.824-4.817,0.824C74.008,41.292,72.079,40.69,71.27,40.388 M75.806,47.017c-1.745,0-3.088-0.546-3.988-1.623
		c-1.746-2.087-1.177-5.395-1.152-5.534l0.173-0.235l0.291-0.009c0.022,0.01,2.271,1.012,5.356,1.012
		c1.733,0,3.404-0.313,4.967-0.927l0.281,0.018l0.166,0.226c0.024,0.12,0.571,2.926-1.024,4.993
		c-0.97,1.256-2.509,1.951-4.572,2.065C76.132,47.012,75.966,47.017,75.806,47.017"/>
	<path clip-path="url(#SVGID_4_)" fill="#003E7E" d="M56.662,110.101c0,0-3.209-1.078-3.718-2.416
		c-0.279-0.734-0.02-1.369,0.442-1.643c0.38-0.227,0.898-0.207,1.367,0.201c1.037,0.906,2.658,1.412,2.658,1.412L56.662,110.101z"/>
	<path clip-path="url(#SVGID_4_)" fill="#A4C31E" d="M55.456,105.746c-2.276,5.611,7.569,11.705,13.761,4.205
		c8.911-10.791-11.838-21.879-11.838-21.879"/>
	<path clip-path="url(#SVGID_4_)" fill="#54AA37" d="M55.828,105.873c0,0-0.062,0.178-0.178,0.514
		c-0.06,0.297-0.191,0.758-0.137,1.373c0.04,1.205,0.9,2.975,2.758,4.164c0.92,0.588,2.052,1.025,3.303,1.176
		c1.247,0.141,2.605-0.02,3.878-0.557c1.274-0.533,2.442-1.42,3.409-2.523c0.961-1.119,1.754-2.4,2.137-3.84
		c0.395-1.432,0.336-2.971-0.09-4.379c-0.412-1.416-1.116-2.715-1.92-3.873c-1.629-2.32-3.602-4.139-5.356-5.574
		c-1.764-1.438-3.343-2.496-4.463-3.207c-1.122-0.711-1.79-1.072-1.79-1.072s0.673,0.35,1.807,1.043
		c1.132,0.695,2.728,1.732,4.519,3.145c1.783,1.414,3.79,3.207,5.477,5.529c0.833,1.162,1.572,2.471,2.02,3.924
		c0.459,1.443,0.55,3.051,0.159,4.559c-0.374,1.512-1.199,2.885-2.165,4.037c-0.981,1.164-2.192,2.123-3.539,2.713
		c-1.347,0.596-2.801,0.795-4.147,0.668c-1.349-0.139-2.578-0.592-3.589-1.213c-2.041-1.248-3.08-3.217-3.16-4.656
		c-0.074-0.721,0.064-1.289,0.152-1.684c0.109-0.34,0.168-0.52,0.168-0.52L55.828,105.873z"/>
	<path clip-path="url(#SVGID_4_)" fill="#A4C31E" d="M53.71,64.721c0,0-11.83,12.375-14.106,23.658
		c-1.503,7.467,2.276,18.428,20.096,19.264"/>
	<path clip-path="url(#SVGID_4_)" fill="#54AA37" d="M53.71,64.721c0,0-2.524,2.788-5.752,7.376
		c-1.616,2.287-3.372,5.053-4.967,8.157c-0.764,1.564-1.532,3.199-2.094,4.934c-0.317,0.855-0.549,1.742-0.752,2.637
		c-0.243,0.877-0.363,1.809-0.425,2.705c-0.251,3.654,0.941,7.365,3.154,9.998c2.169,2.689,5.113,4.311,7.71,5.258
		c1.308,0.477,2.543,0.83,3.654,1.072c1.107,0.254,2.091,0.412,2.902,0.516c0.81,0.117,1.453,0.172,1.89,0.209
		c0.438,0.041,0.67,0.061,0.67,0.061s-0.233-0.01-0.672-0.027c-0.439-0.016-1.084-0.039-1.903-0.117
		c-0.818-0.064-1.811-0.174-2.941-0.377c-1.13-0.189-2.402-0.469-3.743-0.93c-2.661-0.898-5.763-2.451-8.089-5.234
		c-2.344-2.74-3.636-6.633-3.407-10.475c0.057-0.971,0.176-1.912,0.443-2.832c0.221-0.924,0.469-1.832,0.803-2.707
		c0.594-1.771,1.391-3.426,2.185-5.006c0.822-1.568,1.696-3.037,2.588-4.387c0.895-1.348,1.777-2.595,2.624-3.722
		c1.685-2.263,3.255-4.013,4.351-5.233C53.044,65.38,53.71,64.721,53.71,64.721"/>
</g>
</svg>
