<?xml version="1.0" encoding="utf-8"?>
<!-- Generator: Adobe Illustrator 16.0.0, SVG Export Plug-In . SVG Version: 6.00 Build 0)  -->
<!DOCTYPE svg PUBLIC "-//W3C//DTD SVG 1.1//EN" "http://www.w3.org/Graphics/SVG/1.1/DTD/svg11.dtd">
<svg version="1.1" id="레이어_1" xmlns="http://www.w3.org/2000/svg" xmlns:xlink="http://www.w3.org/1999/xlink" x="0px"
	 y="0px" width="174.025px" height="136.765px" viewBox="0 0 174.025 136.765" enable-background="new 0 0 174.025 136.765"
	 xml:space="preserve">
<g>
	<defs>
		<rect id="SVGID_1_" width="174.025" height="136.765"/>
	</defs>
	<clipPath id="SVGID_2_">
		<use xlink:href="#SVGID_1_"  overflow="visible"/>
	</clipPath>
	<path clip-path="url(#SVGID_2_)" fill="#A4C31E" d="M56.269,80.894c-8.847,15.531-7.179,35.752-31.701,41.246
		c-14.563,3.266-25.287,4.377-24.53,7.311c0.996,3.854,24.918,5.531,38.819,4.215c13.899-1.318,32.15-5.936,39.458-26.063
		C85.622,87.478,67.526,61.13,56.269,80.894"/>
	<path clip-path="url(#SVGID_2_)" fill="#129A92" d="M25.742,134.087c-2.294-2.23-4.2-5.754-2.874-11.57
		c0.56-0.123,1.126-0.246,1.7-0.375c2.315-0.52,4.395-1.17,6.274-1.934c0.029,3.916,1.326,9.996,7.682,13.486
		C34.754,134.037,30.282,134.162,25.742,134.087"/>
	<path clip-path="url(#SVGID_2_)" fill="#129A92" d="M53.482,130.841c-5.314-1.609-12.769-5.75-12.248-17.832
		c2.738-3.064,4.662-6.605,6.26-10.367c0.412,6.277,3.245,16.775,20.221,20.543C63.418,126.837,58.49,129.242,53.482,130.841"/>
	<path clip-path="url(#SVGID_2_)" fill="#129A92" d="M0.038,129.451c-0.549-2.127,4.94-3.297,13.548-5.021
		c-0.581,1.838-1.092,5.373,1.563,9.115C7.054,132.822,0.548,131.421,0.038,129.451"/>
	<path clip-path="url(#SVGID_2_)" fill="#98B51E" d="M125.188,63.776c-3.723,16.569-1.486,23.211,8.17,29.567
		c9.654,6.357,0.021,15.246-8.965,14.23c-7.179-0.816-23.473-10.66-17.58-29.277C112.701,59.68,129.645,43.937,125.188,63.776"/>
	<path clip-path="url(#SVGID_2_)" fill="#98B51E" d="M100.602,109.615c5.25,3.061,9.666,7.949,10.494,11.393
		c0.763,3.18-1.721,5.592-3.334,7.311c3.416,1.051,4.301,4.084,2.332,5.689c-2.969,2.422-13.861,2.391-15.469-0.457
		c-2.217-3.939,2.309-7.445,1.629-9.445c-0.531-1.563-3.226-2.395-7.972-4.238C76.693,115.369,86.122,101.175,100.602,109.615"/>
	<path clip-path="url(#SVGID_2_)" fill="#129A92" d="M119.158,16.802c0,0,8.177-9.423,10.943-7.261
		c2.485,1.94,1.053,4.455-1.821,6.089c-2.876,1.635-5.925,5.38-5.925,5.38"/>
	<path clip-path="url(#SVGID_2_)" fill="#129A92" d="M127.682,9.554c0,0,2.922-1.268,5.524,0.108
		c2.601,1.375,2.681,3.981,1.716,5.107c-0.693,0.809-2.652,2.261-6.228-0.363"/>
	<path clip-path="url(#SVGID_2_)" fill="#A4C31E" d="M127.682,9.554c0,0,0.273-0.112,0.772-0.224
		c0.245-0.067,0.554-0.108,0.905-0.16c0.35-0.028,0.75-0.07,1.182-0.049c0.217,0.013,0.441,0.027,0.676,0.042
		c0.227,0.05,0.461,0.102,0.701,0.153c0.246,0.035,0.475,0.148,0.712,0.249c0.242,0.121,0.478,0.162,0.699,0.34
		c0.226,0.155,0.467,0.302,0.687,0.47l0.565,0.587l0.437,0.712c0.078,0.268,0.211,0.521,0.248,0.799
		c0.094,0.545,0.084,1.126-0.127,1.629c-0.191,0.491-0.6,0.913-1.031,1.193c-0.454,0.258-0.943,0.439-1.428,0.471
		c-0.242-0.003-0.482,0.038-0.711,0.003c-0.228-0.044-0.449-0.086-0.66-0.126c-0.422-0.084-0.775-0.285-1.111-0.396
		c-0.338-0.111-0.582-0.316-0.809-0.432c-0.442-0.26-0.694-0.409-0.694-0.409s0.241,0.165,0.667,0.454
		c0.22,0.129,0.451,0.354,0.787,0.488c0.332,0.135,0.681,0.363,1.117,0.463c0.217,0.05,0.443,0.102,0.681,0.155
		c0.237,0.044,0.491,0.015,0.751,0.023c0.517-0.014,1.058-0.185,1.555-0.469c0.491-0.313,0.905-0.731,1.156-1.308
		c0.24-0.566,0.261-1.199,0.161-1.801c-0.046-0.302-0.188-0.58-0.279-0.866c-0.153-0.263-0.317-0.517-0.481-0.767
		c-0.213-0.213-0.424-0.424-0.635-0.634c-0.229-0.171-0.467-0.313-0.697-0.465c-0.211-0.169-0.518-0.251-0.752-0.352
		c-0.254-0.098-0.496-0.207-0.754-0.233c-0.252-0.044-0.496-0.089-0.732-0.131c-0.24-0.008-0.473-0.014-0.694-0.02
		c-0.444-0.01-0.85,0.061-1.202,0.112c-0.352,0.076-0.658,0.137-0.902,0.221C127.946,9.424,127.682,9.554,127.682,9.554"/>
	<path clip-path="url(#SVGID_2_)" fill="#129A92" d="M106.912,15.172c0.043-4.367,3.025-12.195,6.33-14.301
		c2.447-1.561,6.388-0.838,7.582,1.961c0.963,2.26-0.395,5.59-2.881,5.724c-0.801,0.044-1.457-0.099-2-0.335
		c-2.219,2.412-3.386,7.266-3.386,7.266L106.912,15.172z"/>
	<path clip-path="url(#SVGID_2_)" fill="#A4C31E" d="M113.95,0.499c0,0,0.082-0.027,0.235-0.079c0.15-0.06,0.38-0.119,0.671-0.185
		c0.585-0.127,1.455-0.173,2.455,0.028c0.981,0.213,2.134,0.729,2.894,1.747c0.373,0.493,0.655,1.124,0.741,1.757
		c0.093,0.65,0.028,1.331-0.157,1.97c-0.179,0.641-0.49,1.249-0.929,1.734c-0.431,0.492-1.017,0.825-1.624,0.929
		c-0.609,0.09-1.251,0.057-1.796-0.105c-0.552-0.163-1.05-0.421-1.47-0.707c-0.854-0.561-1.39-1.27-1.563-1.843
		c-0.183-0.572-0.116-0.931-0.136-0.927c0.02-0.004-0.064,0.35,0.089,0.941c0.149,0.588,0.647,1.369,1.517,1.963
		c0.428,0.302,0.928,0.574,1.508,0.759c0.59,0.182,1.223,0.231,1.89,0.146c0.665-0.1,1.312-0.453,1.784-0.973
		c0.479-0.513,0.824-1.153,1.027-1.833c0.194-0.683,0.241-1.405,0.131-2.097c-0.115-0.711-0.414-1.327-0.824-1.859
		c-0.827-1.062-2.035-1.567-3.049-1.767c-1.035-0.197-1.916-0.065-2.5,0.085c-0.293,0.082-0.517,0.155-0.664,0.221
		C114.029,0.467,113.95,0.499,113.95,0.499"/>
	<path clip-path="url(#SVGID_2_)" fill="#A4C31E" d="M52.186,95.529c-5.292-28.713,8.613-57.408,31.555-74.252
		c11.681-8.575,27.501-11.033,40.664-3.058c17.295,10.477,8.838,30.968,2.928,43.38c-2.137,4.485-5.725,13.01-4.84,29.336
		c0.984,18.182-7.367,26.514-15.061,28.523C87.303,124.71,57.196,122.718,52.186,95.529"/>
	<path clip-path="url(#SVGID_2_)" fill="#54AA37" d="M76.745,27.049c0,0-0.768,0.735-2.156,2.066
		c-0.345,0.333-0.732,0.704-1.153,1.109c-0.4,0.428-0.833,0.892-1.299,1.392c-0.921,1.009-2.015,2.12-3.078,3.477
		c-0.547,0.665-1.118,1.361-1.715,2.088c-0.581,0.737-1.136,1.543-1.738,2.355c-1.235,1.608-2.356,3.461-3.593,5.374
		c-2.328,3.914-4.603,8.395-6.461,13.319c-1.826,4.937-2.993,9.832-3.725,14.327c-0.148,1.127-0.291,2.229-0.432,3.299
		c-0.154,1.068-0.154,2.121-0.237,3.131c-0.176,2.02-0.127,3.906-0.106,5.627c-0.037,1.725,0.19,3.271,0.275,4.635
		c0.079,1.365,0.268,2.527,0.426,3.477c0.301,1.898,0.467,2.949,0.467,2.949s-0.142-1.055-0.399-2.957
		c-0.138-0.953-0.302-2.115-0.355-3.48c-0.06-1.363-0.26-2.908-0.196-4.625c0.007-1.717-0.016-3.598,0.187-5.605
		c0.094-1.006,0.106-2.051,0.273-3.113c0.149-1.063,0.303-2.158,0.462-3.279c0.769-4.465,1.954-9.323,3.77-14.231
		c1.847-4.897,4.086-9.364,6.367-13.281c1.215-1.915,2.31-3.773,3.521-5.389c0.588-0.819,1.131-1.631,1.701-2.373
		c0.584-0.734,1.143-1.437,1.677-2.108c1.038-1.369,2.109-2.495,3.011-3.521c0.455-0.509,0.879-0.979,1.269-1.415
		c0.413-0.414,0.79-0.792,1.131-1.132C75.994,27.802,76.745,27.049,76.745,27.049"/>
	<path clip-path="url(#SVGID_2_)" fill="#54AA37" d="M68.359,116.173c0,0,0.278,0.152,0.809,0.445
		c0.532,0.285,1.297,0.75,2.357,1.205c2.076,0.98,5.217,2.176,9.267,2.959c2.016,0.43,4.264,0.674,6.679,0.869
		c2.42,0.131,5.013,0.148,7.733-0.014c2.72-0.189,5.564-0.547,8.476-1.117c1.457-0.285,2.926-0.609,4.407-1.043
		c1.49-0.426,2.919-1.115,4.258-1.963c2.686-1.705,4.822-4.059,6.329-6.633c1.526-2.566,2.5-5.307,3.116-7.965
		c0.547-2.676,0.865-5.262,0.887-7.688c0.061-2.424-0.098-4.682-0.148-6.729c-0.187-4.105,0.039-7.428,0.199-9.719
		c0.264-2.283,0.408-3.545,0.408-3.545s-0.17,1.258-0.477,3.537c-0.201,2.289-0.482,5.617-0.351,9.732
		c0.026,2.061,0.155,4.309,0.069,6.713c-0.047,2.41-0.389,4.973-0.949,7.613c-0.628,2.625-1.605,5.32-3.115,7.832
		c-1.488,2.521-3.584,4.818-6.204,6.48c-2.588,1.758-5.635,2.361-8.512,2.965c-2.892,0.578-5.716,0.949-8.417,1.158
		c-2.706,0.184-5.284,0.189-7.692,0.082c-2.403-0.168-4.644-0.381-6.656-0.783c-4.041-0.727-7.191-1.863-9.281-2.807
		c-1.064-0.436-1.837-0.885-2.376-1.158C68.642,116.322,68.359,116.173,68.359,116.173"/>
	<path clip-path="url(#SVGID_2_)" fill="#003E7E" d="M114.141,23.775c0.461,0.523,0.878,1.053,1.217,1.617
		c0.333,0.566,0.6,1.151,0.727,1.766l0.664-0.243c-0.115-0.203-0.232-0.339-0.361-0.491c-0.127-0.145-0.26-0.286-0.405-0.41
		c-0.295-0.244-0.601-0.475-0.942-0.639c-0.673-0.339-1.402-0.542-2.136-0.547c0.665,0.3,1.291,0.619,1.847,1.021
		c0.266,0.215,0.535,0.417,0.764,0.663c0.121,0.115,0.232,0.237,0.337,0.364c0.101,0.123,0.204,0.271,0.268,0.379l0.013,0.021
		c0.1,0.168,0.318,0.225,0.487,0.124c0.138-0.081,0.2-0.24,0.165-0.388c-0.169-0.727-0.507-1.4-0.984-1.938
		C115.334,24.528,114.781,24.068,114.141,23.775"/>
	<path clip-path="url(#SVGID_2_)" fill="#003E7E" d="M125.77,30.217c-0.377,0.922-0.232,1.869,0.322,2.115
		c0.555,0.245,1.311-0.304,1.688-1.226s0.233-1.868-0.322-2.115C126.902,28.747,126.147,29.296,125.77,30.217"/>
	<path clip-path="url(#SVGID_2_)" fill="#1BA4C0" d="M121.074,29.92c-0.227,0.541,0.01,1.157,0.531,1.377
		c0.521,0.222,1.128-0.04,1.357-0.581c0.228-0.54-0.01-1.155-0.531-1.378C121.911,29.119,121.303,29.379,121.074,29.92"/>
	<path clip-path="url(#SVGID_2_)" fill="#003E7E" d="M115.595,36.965c-0.769,1.089-0.905,2.314-0.308,2.736
		c0.599,0.423,1.707-0.116,2.476-1.204s0.906-2.312,0.306-2.736C117.472,35.338,116.363,35.877,115.595,36.965"/>
	<path clip-path="url(#SVGID_2_)" fill="#54AA37" d="M113.639,39.146c0,0-0.047,0.184-0.094,0.509
		c-0.039,0.312,0.043,0.836,0.457,1.203c0.426,0.372,0.957,0.352,1.264,0.271c0.326-0.066,0.468-0.242,0.473-0.221
		c-0.006-0.02-0.193,0.064-0.492,0.03c-0.287-0.02-0.697-0.102-0.994-0.374C113.639,40.028,113.691,39.115,113.639,39.146"/>
	<path clip-path="url(#SVGID_2_)" fill="#A4C31E" d="M73.649,100.744c14.048,7.688,17.058,18.293,7.949,26.195
		c5.347,0.496,6.098,5.598,3.946,7.805c-2.82,2.895-15.892,2.453-18.658-1.742c-2.687-4.072,1.196-9.227,1.245-10.596
		c0.063-1.75-1.996-3.279-5.765-5.936C48.208,106.496,58.191,92.287,73.649,100.744"/>
	<path clip-path="url(#SVGID_2_)" fill="#54AA37" d="M81.598,126.939c0,0,0.248-0.209,0.691-0.584
		c0.455-0.371,1.067-0.957,1.768-1.738c0.696-0.787,1.446-1.807,2.07-3.07c0.595-1.27,1.016-2.805,1.012-4.441
		c-0.01-3.314-1.526-5.998-2.687-7.697c-0.602-0.859-1.123-1.525-1.516-1.959c-0.38-0.441-0.59-0.688-0.59-0.688
		s0.185,0.268,0.518,0.744c0.349,0.465,0.806,1.172,1.34,2.059c1.031,1.764,2.345,4.424,2.347,7.539
		c0.003,1.545-0.355,2.998-0.875,4.24c-0.549,1.232-1.219,2.268-1.846,3.086c-0.634,0.814-1.19,1.449-1.604,1.857
		C81.822,126.707,81.598,126.939,81.598,126.939"/>
	<path clip-path="url(#SVGID_2_)" fill="#54AA37" d="M54.927,106.925c0,0,0.069,0.176,0.203,0.51
		c0.146,0.326,0.303,0.838,0.617,1.447c0.565,1.24,1.563,2.979,3.193,4.822c0.84,0.895,1.802,1.85,2.973,2.701
		c1.149,0.873,2.421,1.723,3.663,2.732c0.622,0.498,1.233,1.043,1.72,1.674c0.464,0.609,0.787,1.463,0.354,2.131
		c-0.732,1.572-1.525,3.277-1.858,5.162c-0.322,1.857-0.101,3.945,1.135,5.377c1.24,1.428,2.95,2.039,4.5,2.49
		c3.163,0.844,6.131,0.906,8.571,0.682c2.433-0.215,4.421-0.838,5.457-1.781c0.46-0.508,0.752-0.967,0.848-1.316
		c0.129-0.334,0.197-0.512,0.197-0.512s-0.077,0.174-0.22,0.504c-0.11,0.34-0.42,0.783-0.889,1.258
		c-1.037,0.873-3.008,1.416-5.418,1.555c-2.41,0.15-5.345,0.008-8.408-0.865c-1.499-0.455-3.133-1.104-4.2-2.365
		c-1.089-1.279-1.297-3.166-0.994-4.926c0.319-1.795,1.063-3.43,1.795-5.037c0.537-0.914,0.088-2.008-0.441-2.672
		c-0.552-0.697-1.197-1.248-1.84-1.744c-1.281-1.006-2.58-1.834-3.733-2.67c-1.173-0.811-2.141-1.721-2.996-2.576
		c-1.661-1.766-2.714-3.453-3.328-4.666c-0.335-0.594-0.513-1.094-0.674-1.414C55.004,107.097,54.927,106.925,54.927,106.925"/>
	<path clip-path="url(#SVGID_2_)" fill="#54AA37" d="M86.438,130.322c0,0-0.055-0.135-0.152-0.373
		c-0.084-0.25-0.276-0.578-0.548-0.967c-0.562-0.754-1.701-1.584-3.126-1.881c-1.413-0.332-2.726-0.246-3.645-0.143
		c-0.926,0.115-1.482,0.258-1.482,0.258s0.575-0.035,1.494-0.041c0.918,0.006,2.194,0.033,3.533,0.35
		c1.351,0.283,2.436,0.947,3.062,1.598c0.297,0.338,0.533,0.629,0.653,0.857C86.363,130.197,86.438,130.322,86.438,130.322"/>
	<path clip-path="url(#SVGID_2_)" fill="#E37D15" d="M126.973,110.076c1.76,1.443,4.107-0.82,5.812-4.436
		c1.703-3.619,6.687-8.613,7.683-8.486c0.502,0.104,0.916,0.051,1.129-0.211c0.478-0.58-0.189-1.914-1.486-2.977
		c-1.295-1.064-2.733-1.455-3.209-0.875c-0.215,0.262-0.188,0.678,0.013,1.148c0.241,0.766-2.396,5.908-6.763,9.137
		C127.299,105.486,125.042,108.494,126.973,110.076"/>
	<path clip-path="url(#SVGID_2_)" fill="#F4E829" d="M138.625,96.201c0,0,0.138,0.1,0.384,0.281
		c0.127,0.086,0.274,0.209,0.463,0.322c0.204,0.086,0.435,0.188,0.688,0.297c0.248,0.119,0.555,0.209,0.9,0.176
		c0.342,0.002,0.756-0.281,0.78-0.707c0.053-0.826-0.503-1.525-1.058-2.148c-0.594-0.615-1.271-1.084-1.951-1.385
		c-0.654-0.279-1.428-0.471-1.912-0.041c-0.239,0.227-0.176,0.535-0.156,0.74c0.031,0.221,0.1,0.4,0.159,0.545
		c0.133,0.281,0.255,0.404,0.255,0.404s-0.109-0.137-0.218-0.42c-0.048-0.145-0.099-0.324-0.114-0.539
		c-0.011-0.197-0.033-0.492,0.162-0.637c0.4-0.332,1.117-0.152,1.736,0.145c0.639,0.307,1.285,0.775,1.854,1.365
		c0.535,0.584,1.063,1.279,1.029,1.943c-0.016,0.33-0.282,0.535-0.584,0.561c-0.301,0.045-0.598-0.02-0.846-0.123
		c-0.254-0.092-0.484-0.176-0.689-0.248c-0.189-0.098-0.343-0.207-0.477-0.283C138.771,96.291,138.625,96.201,138.625,96.201"/>
	<path clip-path="url(#SVGID_2_)" fill="#F4E829" d="M140.467,97.154c-0.145-0.395-4.227,2.465-7.314,7.518
		c-0.713,1.307-1.248,2.57-2.023,3.58c-0.727,1.016-1.575,1.84-2.477,2.121c-0.924,0.299-1.678-0.25-1.985-0.641
		c-0.336-0.418-0.358-0.742-0.374-0.732c0.016-0.01,0.02,0.314,0.342,0.756c0.292,0.41,1.053,1.021,2.053,0.74
		c0.961-0.266,1.856-1.098,2.615-2.117c0.803-1,1.383-2.316,2.071-3.578C136.417,99.816,140.306,96.769,140.467,97.154"/>
	<path clip-path="url(#SVGID_2_)" fill="#E9923E" d="M139.902,94.121c0.973,0.797,1.553,1.695,1.297,2.006
		c-0.256,0.313-1.252-0.08-2.223-0.875c-0.973-0.797-1.553-1.695-1.296-2.008C137.936,92.931,138.931,93.326,139.902,94.121"/>
	<path clip-path="url(#SVGID_2_)" fill="#D1D1D4" d="M139.297,95.011c0.539,0.43,1.035,0.705,1.463,0.164l8.875-11.166
		c0.429-0.541,0.338-1.326-0.201-1.754c-0.54-0.43-1.327-0.34-1.755,0.199l-8.875,11.168
		C138.375,94.164,138.756,94.583,139.297,95.011"/>
	<path clip-path="url(#SVGID_2_)" fill="#C4E2EC" d="M150.861,69.296c-7.129,9.525-9.517,19.789-5.332,22.92
		c4.184,3.131,13.355-2.053,20.486-11.58c7.129-9.525,9.518-19.786,5.334-22.917C167.164,54.586,157.992,59.771,150.861,69.296"/>
	<path clip-path="url(#SVGID_2_)" fill="#D1D1D4" d="M162.688,78.146c6.154-8.223,8.771-16.992,6.681-21.251
		c0.739,0.129,1.407,0.396,1.981,0.824c4.185,3.132,1.795,13.392-5.334,22.919c-7.131,9.525-16.303,14.709-20.486,11.578
		c-0.572-0.428-1.016-0.994-1.348-1.668C148.857,91.351,156.531,86.371,162.688,78.146"/>
	<path clip-path="url(#SVGID_2_)" fill="#D1D1D4" d="M141.315,89.816c-4.187-3.131-1.63-13.617,5.706-23.418
		c7.336-9.802,16.676-15.209,20.859-12.077l3.853,2.885c-4.185-3.133-13.523,2.275-20.859,12.076
		c-7.337,9.803-9.891,20.287-5.707,23.418L141.315,89.816z"/>
	<path clip-path="url(#SVGID_2_)" fill="#DCDBDB" d="M158.037,55.867l3.854,2.884c-1.397,0.862-2.842,1.939-4.289,3.203
		l-3.853-2.884C155.196,57.807,156.639,56.729,158.037,55.867"/>
	<path clip-path="url(#SVGID_2_)" fill="#EDEDF0" d="M151.346,69.66c-6.801,9.086-9.3,19.195-5.455,22.072
		c3.846,2.879,12.839-2.367,19.641-11.455c6.803-9.088,9.299-19.198,5.455-22.076C167.142,55.324,158.147,60.572,151.346,69.66
		 M150.379,68.935c7.441-9.944,16.813-15.083,21.33-11.701c4.521,3.383,2.232,13.822-5.209,23.765
		c-7.443,9.943-16.813,15.082-21.332,11.701C140.647,89.318,142.937,78.878,150.379,68.935"/>
	<path clip-path="url(#SVGID_2_)" fill="#FFFFFF" d="M165.168,65.307c-0.621,1.231-0.705,2.443-0.188,2.704
		c0.52,0.262,1.441-0.526,2.063-1.758c0.623-1.231,0.707-2.442,0.189-2.704S165.791,64.074,165.168,65.307"/>
	<path clip-path="url(#SVGID_2_)" fill="#003E7E" d="M134.057,105.679c-0.212,0.23-0.482,0.369-0.768,0.393
		c-0.248,0.021-0.53,0.018-0.765-0.037c-0.508-0.115-1.126-0.365-1.415-0.924c-0.54-1.045,0.344-2.35,1.244-1.855
		c0.462,0.252,0.956,0.273,1.452,0.393c0.539,0.127,0.846,0.938,0.511,1.633C134.246,105.429,134.162,105.564,134.057,105.679"/>
	<path clip-path="url(#SVGID_2_)" fill="#003E7E" d="M135.402,104.445c-0.258,0.236-0.572,0.363-0.891,0.363
		c-0.278,0-0.592-0.029-0.846-0.111c-0.554-0.176-1.217-0.514-1.484-1.162c-0.502-1.211,0.604-2.578,1.558-1.945
		c0.49,0.326,1.037,0.398,1.575,0.576c0.588,0.193,0.852,1.123,0.415,1.863C135.637,104.187,135.529,104.328,135.402,104.445"/>
	<path clip-path="url(#SVGID_2_)" fill="#118089" d="M133.739,101.591c-0.007,0.043-0.235-0.242-0.739-0.166
		c-0.49,0.098-1.007,0.715-1.008,1.471c-0.02,0.783,0.559,1.316,0.962,1.52c0.417,0.236,0.718,0.264,0.712,0.281
		c0.01-0.018-0.287-0.086-0.67-0.348c-0.381-0.24-0.865-0.746-0.847-1.451c0.001-0.686,0.432-1.27,0.871-1.398
		C133.471,101.39,133.734,101.63,133.739,101.591"/>
	<path clip-path="url(#SVGID_2_)" fill="#003E7E" d="M136.832,103.05c-0.258,0.238-0.572,0.365-0.891,0.365
		c-0.278,0-0.592-0.031-0.846-0.113c-0.553-0.176-1.217-0.51-1.484-1.162c-0.502-1.211,0.604-2.576,1.558-1.943
		c0.49,0.326,1.037,0.396,1.575,0.574c0.588,0.193,0.854,1.123,0.416,1.863C137.066,102.792,136.959,102.935,136.832,103.05"/>
	<path clip-path="url(#SVGID_2_)" fill="#118089" d="M135.169,100.197c-0.007,0.045-0.235-0.242-0.739-0.166
		c-0.49,0.1-1.007,0.715-1.008,1.473c-0.018,0.781,0.559,1.314,0.963,1.52c0.416,0.236,0.719,0.262,0.711,0.279
		c0.01-0.018-0.285-0.084-0.67-0.346c-0.379-0.24-0.863-0.746-0.847-1.451c0.001-0.688,0.433-1.27,0.872-1.398
		C134.9,99.996,135.164,100.238,135.169,100.197"/>
	<path clip-path="url(#SVGID_2_)" fill="#003E7E" d="M137.9,101.523c-0.235,0.215-0.521,0.33-0.811,0.33
		c-0.253,0-0.537-0.029-0.77-0.102c-0.504-0.16-1.107-0.467-1.352-1.057c-0.455-1.104,0.549-2.346,1.418-1.77
		c0.446,0.295,0.81,0.24,1.228,0.252c0.563,0.016,0.981,1.291,0.585,1.965C138.115,101.287,138.016,101.416,137.9,101.523"/>
	<path clip-path="url(#SVGID_2_)" fill="#118089" d="M136.387,98.923c0,0.045-0.268-0.268-0.78-0.102
		c-0.487,0.162-0.981,0.9-0.758,1.691c0.217,0.807,0.978,1.137,1.434,1.262c0.503,0.064,0.808,0.078,0.808,0.078
		s-0.346-0.063-0.785-0.146c-0.446-0.158-1.133-0.508-1.317-1.23c-0.206-0.711,0.21-1.404,0.646-1.588
		C136.09,98.697,136.389,98.964,136.387,98.923"/>
	<path clip-path="url(#SVGID_2_)" fill="#003E7E" d="M133.646,98.351c0.967,0.033,2.25,1.174,0.951,2.852
		c-0.935,1.203-2.179,0.154-1.996-0.793C132.146,99.974,132.61,98.316,133.646,98.351"/>
	<path clip-path="url(#SVGID_2_)" fill="#118089" d="M133.127,99.271c0,0-0.064,0.09-0.173,0.248
		c-0.124,0.154-0.265,0.404-0.365,0.744c-0.093,0.344-0.028,0.824,0.306,1.182c0.172,0.16,0.354,0.352,0.642,0.398
		c0.28,0.043,0.552-0.086,0.769-0.252c0.428-0.359,0.686-0.818,0.844-1.268c0.133-0.469,0.008-0.918-0.185-1.213
		c-0.413-0.602-0.905-0.676-0.884-0.689c-0.02,0.012,0.458,0.133,0.82,0.729c0.168,0.293,0.262,0.709,0.127,1.137
		c-0.158,0.41-0.424,0.857-0.815,1.186c-0.198,0.152-0.433,0.26-0.657,0.229c-0.218-0.025-0.406-0.197-0.568-0.344
		c-0.313-0.318-0.393-0.744-0.323-1.078C132.822,99.611,133.162,99.285,133.127,99.271"/>
	<path clip-path="url(#SVGID_2_)" fill="#003E7E" d="M73.163,115.107c0.585,0,1.094-0.432,1.175-1.027
		c0.218-1.621-0.582-3.477-1.175-4.33c-0.374-0.537-1.114-0.672-1.652-0.297c-0.538,0.373-0.672,1.113-0.298,1.65
		c0.32,0.461,0.896,1.754,0.772,2.66c-0.086,0.648,0.368,1.246,1.018,1.334C73.057,115.103,73.11,115.107,73.163,115.107"/>
	<path clip-path="url(#SVGID_2_)" fill="#003E7E" d="M76.437,115.449c0.02,0,0.039,0,0.059,0c0.655-0.033,1.158-0.59,1.126-1.244
		c-0.123-2.539-1.218-4.273-1.859-5.08c-0.408-0.514-1.153-0.6-1.667-0.193c-0.513,0.408-0.6,1.156-0.193,1.668
		c0.375,0.471,1.255,1.775,1.349,3.723C75.284,114.955,75.807,115.449,76.437,115.449"/>
	<path clip-path="url(#SVGID_2_)" fill="#003E7E" d="M79.178,114.806c0.052,0,0.106-0.004,0.161-0.012
		c0.649-0.088,1.103-0.684,1.016-1.334c-0.411-3.041-2.318-4.938-2.398-5.016c-0.468-0.461-1.22-0.453-1.678,0.016
		c-0.457,0.467-0.451,1.215,0.012,1.674c0.026,0.025,1.414,1.445,1.712,3.645C78.083,114.375,78.593,114.806,79.178,114.806"/>
	<path clip-path="url(#SVGID_2_)" fill="#003E7E" d="M80.792,113.828c0.074,0,0.148-0.006,0.222-0.021
		c0.645-0.121,1.067-0.742,0.946-1.385c-0.585-3.094-3.687-4.293-3.819-4.344c-0.612-0.229-1.297,0.08-1.528,0.693
		c-0.23,0.611,0.077,1.293,0.687,1.525c0.03,0.012,1.996,0.801,2.328,2.564C79.735,113.431,80.234,113.828,80.792,113.828"/>
	<path clip-path="url(#SVGID_2_)" fill="#A4C31E" d="M91.598,67.894c-9.222,15.362-10.901,26.192-10.309,36.049
		c0.459,7.609-6.181,9.51-11.085,7.539c-19.2-7.715-8.657-43.164-0.368-52.683C72.474,54.866,95.862,63.913,91.598,67.894"/>
	<path clip-path="url(#SVGID_2_)" fill="#54AA37" d="M91.598,67.894c0,0-0.648,1.448-1.821,4.067
		c-0.597,1.307-1.302,2.914-2.092,4.793c-0.397,0.938-0.825,1.941-1.277,3.006c-0.419,1.078-0.865,2.217-1.333,3.412
		c-1.767,4.789-3.868,10.672-4.077,17.533c-0.016,1.703,0.118,3.482-0.039,5.18c-0.188,1.707-0.939,3.414-2.346,4.508
		c-1.374,1.115-3.25,1.602-5.087,1.506c-1.869-0.02-3.648-0.799-5.319-1.734c-3.372-1.902-5.673-5.146-6.916-8.549
		c-1.247-3.43-1.658-6.998-1.653-10.361c0.017-6.762,1.409-12.777,2.924-17.652c1.541-4.886,3.328-8.656,4.76-11.136
		c0.715-1.241,1.353-2.154,1.8-2.764c0.468-0.591,0.715-0.902,0.715-0.902s-0.253,0.306-0.735,0.888
		c-0.46,0.599-1.117,1.502-1.858,2.733c-1.483,2.457-3.341,6.206-4.958,11.091c-1.59,4.873-3.066,10.904-3.139,17.74
		c-0.032,3.402,0.358,7.031,1.623,10.557c1.255,3.492,3.642,6.883,7.145,8.855c1.716,0.965,3.6,1.791,5.586,1.811
		c1.949,0.094,3.962-0.424,5.46-1.646c1.536-1.205,2.336-3.078,2.522-4.879c0.152-1.834,0.002-3.547,0.004-5.232
		c0.151-6.766,2.163-12.639,3.862-17.443c0.448-1.201,0.876-2.346,1.279-3.426c0.435-1.07,0.845-2.078,1.227-3.023
		c0.759-1.891,1.435-3.51,2.004-4.828C90.979,69.355,91.598,67.894,91.598,67.894"/>
</g>
</svg>
