<?xml version="1.0" encoding="utf-8"?>
<!-- Generator: Adobe Illustrator 16.0.0, SVG Export Plug-In . SVG Version: 6.00 Build 0)  -->
<!DOCTYPE svg PUBLIC "-//W3C//DTD SVG 1.1//EN" "http://www.w3.org/Graphics/SVG/1.1/DTD/svg11.dtd">
<svg version="1.1" id="레이어_1" xmlns="http://www.w3.org/2000/svg" xmlns:xlink="http://www.w3.org/1999/xlink" x="0px"
	 y="0px" width="620.458px" height="187.753px" viewBox="0 0 620.458 187.753" enable-background="new 0 0 620.458 187.753"
	 xml:space="preserve">
<text transform="matrix(1 0 0 1 282.3394 140.3374)" fill="#FFFFFF" font-family="'SDGothicNeoa-hExBd-KSCpc-EUC-H'" font-size="16">퀴즈로 알아보는 </text>
<text transform="matrix(1 0 0 1 291.9395 161.3296)" fill="#FFFFFF" font-family="'SDGothicNeoa-hExBd-KSCpc-EUC-H'" font-size="16">수도권매립지</text>
<rect y="141.679" fill="#7D6448" width="620.458" height="46.072"/>
<polygon fill="#727072" points="275.35,76.481 179.974,77.342 191.706,42.85 262.274,42.776 "/>
<g>
	<defs>
		<rect id="SVGID_1_" width="620.458" height="187.753"/>
	</defs>
	<clipPath id="SVGID_2_">
		<use xlink:href="#SVGID_1_"  overflow="visible"/>
	</clipPath>
	
		<line clip-path="url(#SVGID_2_)" fill="none" stroke="#000000" stroke-width="1.17" x1="620.458" y1="141.683" x2="543.256" y2="141.683"/>
	<path clip-path="url(#SVGID_2_)" fill="#41A1BE" d="M87.558,142.072c0-3.662,3.104-6.633,6.935-6.633
		c3.828,0,6.933,2.971,6.933,6.633c0,3.664-3.105,6.633-6.933,6.633C90.662,148.705,87.558,145.736,87.558,142.072"/>
</g>
<polygon fill="#A8C34C" points="585.141,141.486 542.596,141.486 554.787,107.742 574.098,107.742 "/>
<polygon fill="#A8C34C" points="127.011,137.585 85.462,137.585 95.995,107.742 115.306,107.742 "/>
<polyline fill="#DAE121" points="115.054,107.742 130.658,159.236 538.734,159.236 554.339,107.742 "/>
<polyline fill="none" stroke="#1F2774" stroke-width="1.17" points="115.054,107.742 130.658,159.236 538.734,159.236 
	554.339,107.742 "/>
<polygon fill="#A8C34C" points="203.515,75.449 161.967,75.811 172.219,42.689 191.53,42.689 "/>
<rect x="149.541" y="75.164" fill="#00AC7C" width="368.379" height="31.308"/>
<rect x="149.541" y="80.604" fill="#7D6448" width="368.379" height="31.309"/>
<polygon fill="#A8C34C" points="165.925,107.449 124.377,107.449 134.912,75.165 154.221,75.165 "/>
<polygon fill="#A8C34C" points="544.546,107.449 502.998,107.449 513.531,75.165 532.842,75.165 "/>
<polygon fill="#A8C34C" points="504.168,75.01 462.618,75.01 473.152,42.726 492.463,42.726 "/>
<rect x="583.931" y="133.666" fill="#41A1BE" width="5.464" height="54.088"/>
<rect x="596.085" y="133.666" fill="#41A1BE" width="5.461" height="31.035"/>
<polyline fill="#CAB272" points="117.315,107.742 136.453,139.423 535.864,139.423 552.229,107.742 "/>
<rect x="214.792" y="27.18" fill="#41A1BE" width="5.462" height="91.875"/>
<rect x="179.68" y="27.18" fill="#41A1BE" width="5.462" height="109.625"/>
<g>
	<defs>
		<rect id="SVGID_3_" width="620.458" height="187.753"/>
	</defs>
	<clipPath id="SVGID_4_">
		<use xlink:href="#SVGID_3_"  overflow="visible"/>
	</clipPath>
	<path clip-path="url(#SVGID_4_)" fill="#0075C2" d="M116.856,108.24c0,2.377,1.927,4.303,4.302,4.303c2.376,0,4.3-1.926,4.3-4.303
		c0-2.375-1.924-4.301-4.3-4.301C118.784,103.939,116.856,105.865,116.856,108.24"/>
	
		<line clip-path="url(#SVGID_4_)" fill="none" stroke="#0075C2" stroke-width="2.049" stroke-dasharray="5.302,3.172" x1="540.771" y1="108.324" x2="127.151" y2="108.324"/>
	
		<line clip-path="url(#SVGID_4_)" fill="none" stroke="#0075C2" stroke-width="2.049" stroke-dasharray="5.34,3.21" x1="117.035" y1="108.324" x2="92.991" y2="108.324"/>
	<path clip-path="url(#SVGID_4_)" fill="none" stroke="#0075C2" stroke-width="2.049" stroke-dasharray="4.34,2.21" d="
		M84.467,107.462c-1.385-0.684-2.741-1.896-3.423-4.035"/>
	<path clip-path="url(#SVGID_4_)" fill="none" stroke="#0075C2" stroke-width="2.049" stroke-dasharray="5.637,3.507" d="
		M80.769,93.875c0.341-8.063,1.021-19.409,0.687-25.659"/>
	<path clip-path="url(#SVGID_4_)" fill="none" stroke="#0075C2" stroke-width="2.049" stroke-dasharray="5.546,3.416" d="
		M79.375,57.785c-0.942-1.826-2.588-3.585-5.451-4.48"/>
	
		<line clip-path="url(#SVGID_4_)" fill="none" stroke="#0075C2" stroke-width="2.049" stroke-dasharray="5.522,3.392" x1="63.35" y1="52.695" x2="20.474" y2="52.695"/>
	<path clip-path="url(#SVGID_4_)" fill="none" stroke="#0075C2" stroke-width="2.049" d="M18.778,52.695h-2.761 M72.264,52.912
		c-0.834-0.141-1.752-0.217-2.761-0.217h-2.761 M81.321,66.468c-0.15-1.39-0.385-2.341-0.732-2.687c0,0,0.111-1.176-0.159-2.762
		 M80.777,102.357c-0.121-0.648-0.188-1.365-0.188-2.16c0-0.807,0.018-1.756,0.05-2.816 M91.387,108.324h-2.67
		c0,0-0.929,0.074-2.158-0.166 M125.565,108.324h-2.65h-2.67 M546.595,108.324h-2.651"/>
	<path clip-path="url(#SVGID_4_)" fill="#0075C2" d="M542.585,108.24c0,2.377,1.925,4.303,4.303,4.303c2.375,0,4.3-1.926,4.3-4.303
		c0-2.375-1.925-4.301-4.3-4.301C544.51,103.939,542.585,105.865,542.585,108.24"/>
</g>
<polygon fill="#00AC7C" points="204.06,138.873 190.504,138.873 193.942,128.339 200.241,128.339 "/>
<polygon fill="#00AC7C" points="241.858,138.873 228.302,138.873 231.738,128.339 238.039,128.339 "/>
<polygon fill="#00AC7C" points="283.598,138.873 270.042,138.873 273.479,128.339 279.779,128.339 "/>
<polygon fill="#00AC7C" points="332.169,138.873 318.613,138.873 322.049,128.339 328.351,128.339 "/>
<polygon fill="#00AC7C" points="429.311,138.873 415.756,138.873 419.19,128.339 425.493,128.339 "/>
<polygon fill="#00AC7C" points="481.394,138.873 467.838,138.873 471.273,128.339 477.575,128.339 "/>
<rect x="443.017" y="50.587" fill="#41A1BE" width="5.462" height="87.78"/>
<g>
	<defs>
		<rect id="SVGID_5_" width="620.458" height="187.753"/>
	</defs>
	<clipPath id="SVGID_6_">
		<use xlink:href="#SVGID_5_"  overflow="visible"/>
	</clipPath>
	
		<line clip-path="url(#SVGID_6_)" fill="none" stroke="#38B489" stroke-width="8.792" x1="0" y1="140.978" x2="538.39" y2="140.978"/>
</g>
<rect x="543.296" y="150.158" fill="#7C6347" width="36.343" height="13.314"/>
<rect x="553.767" y="93.891" fill="#B28247" width="2.755" height="13.863"/>
<g>
	<defs>
		<path id="SVGID_7_" d="M548.716,94.447c0,5.58,2.946,6.736,6.581,6.736s6.582-1.156,6.582-6.736c0-5.58-2.947-10.104-6.582-10.104
			S548.716,88.867,548.716,94.447"/>
	</defs>
	<clipPath id="SVGID_8_">
		<use xlink:href="#SVGID_7_"  overflow="visible"/>
	</clipPath>
	
		<radialGradient id="SVGID_9_" cx="12.2676" cy="529.8374" r="1" gradientTransform="matrix(17.7484 0 0 -21.8442 337.3472 11657.877)" gradientUnits="userSpaceOnUse">
		<stop  offset="0" style="stop-color:#76BA2A"/>
		<stop  offset="1" style="stop-color:#1EA739"/>
	</radialGradient>
	<rect x="548.716" y="84.344" clip-path="url(#SVGID_8_)" fill="url(#SVGID_9_)" width="13.163" height="16.839"/>
</g>
<path fill="#007173" d="M51.418,140.572h23.475V95.589H51.418V140.572z M62.411,134.958h-7.839v-7.838h7.839V134.958z
	 M62.411,125.275h-7.839v-7.84h7.839V125.275z M62.411,115.689h-7.839v-7.838h7.839V115.689z M62.411,106.105h-7.839v-7.838h7.839
	V106.105z M71.74,134.958H63.9v-7.838h7.84V134.958z M71.74,125.275H63.9v-7.84h7.84V125.275z M71.74,115.689H63.9v-7.838h7.84
	V115.689z M71.74,106.105H63.9v-7.838h7.84V106.105z"/>
<path fill="#007173" d="M38.178,108.068l-12.173,5.58v26.924h24.347v-26.924v-5.58l-12.174,5.58V108.068z M40.344,117.433h7.839
	v7.842h-7.839V117.433z M36.009,125.275H28.17v-7.84h7.839V125.275z"/>
<polyline fill="none" stroke="#FFFFFF" stroke-width="1.099" points="81.81,140.802 445.605,140.802 445.605,136.582 "/>
<polygon fill="#5CC1EF" points="293.666,25.299 287.715,25.299 289.815,28.069 289.815,28.915 291.566,28.915 291.566,28.069 "/>
<g>
	<defs>
		<rect id="SVGID_10_" width="620.458" height="187.753"/>
	</defs>
	<clipPath id="SVGID_11_">
		<use xlink:href="#SVGID_10_"  overflow="visible"/>
	</clipPath>
	<path clip-path="url(#SVGID_11_)" fill="#5CC1EF" d="M294.353,38.466c0,0.53,0.43,0.962,0.962,0.962
		c0.53,0,0.961-0.432,0.961-0.962c0-0.531-0.431-0.962-0.961-0.962C294.783,37.504,294.353,37.935,294.353,38.466"/>
	<path clip-path="url(#SVGID_11_)" fill="#5CC1EF" d="M293.322,36.389c0,0.454,0.369,0.823,0.824,0.823s0.824-0.369,0.824-0.823
		c0-0.455-0.369-0.824-0.824-0.824S293.322,35.934,293.322,36.389"/>
	<path clip-path="url(#SVGID_11_)" fill="#5CC1EF" d="M292.292,34.312c0,0.379,0.308,0.688,0.687,0.688s0.687-0.309,0.687-0.688
		c0-0.38-0.308-0.687-0.687-0.687S292.292,33.932,292.292,34.312"/>
	<path clip-path="url(#SVGID_11_)" fill="#5CC1EF" d="M292.361,32.233c0-0.303-0.246-0.549-0.549-0.549
		c-0.303,0-0.55,0.246-0.55,0.549c0,0.305,0.247,0.549,0.55,0.549C292.115,32.782,292.361,32.538,292.361,32.233"/>
	<path clip-path="url(#SVGID_11_)" fill="#5CC1EF" d="M293.517,32.233c0-0.303-0.246-0.549-0.549-0.549
		c-0.303,0-0.55,0.246-0.55,0.549c0,0.305,0.247,0.549,0.55,0.549C293.271,32.782,293.517,32.538,293.517,32.233"/>
	<path clip-path="url(#SVGID_11_)" fill="#5CC1EF" d="M294.604,34.312c0,0.379,0.308,0.688,0.687,0.688s0.687-0.309,0.687-0.688
		c0-0.38-0.308-0.687-0.687-0.687S294.604,33.932,294.604,34.312"/>
	<path clip-path="url(#SVGID_11_)" fill="#5CC1EF" d="M296.79,36.389c0,0.454,0.369,0.823,0.824,0.823
		c0.456,0,0.824-0.369,0.824-0.823c0-0.455-0.368-0.824-0.824-0.824C297.159,35.564,296.79,35.934,296.79,36.389"/>
	<path clip-path="url(#SVGID_11_)" fill="#5CC1EF" d="M298.977,38.466c0,0.53,0.43,0.962,0.962,0.962c0.53,0,0.96-0.432,0.96-0.962
		c0-0.531-0.43-0.962-0.96-0.962C299.406,37.504,298.977,37.935,298.977,38.466"/>
	<path clip-path="url(#SVGID_11_)" fill="#5CC1EF" d="M285.104,38.466c0,0.53,0.432,0.962,0.962,0.962
		c0.531,0,0.961-0.432,0.961-0.962c0-0.531-0.43-0.962-0.961-0.962C285.537,37.504,285.104,37.935,285.104,38.466"/>
	<path clip-path="url(#SVGID_11_)" fill="#5CC1EF" d="M286.41,36.389c0,0.454,0.369,0.823,0.824,0.823
		c0.455,0,0.824-0.369,0.824-0.823c0-0.455-0.369-0.824-0.824-0.824C286.779,35.564,286.41,35.934,286.41,36.389"/>
	<path clip-path="url(#SVGID_11_)" fill="#5CC1EF" d="M287.715,34.312c0,0.379,0.307,0.688,0.687,0.688
		c0.379,0,0.687-0.309,0.687-0.688c0-0.38-0.308-0.687-0.687-0.687C288.021,33.625,287.715,33.932,287.715,34.312"/>
	<path clip-path="url(#SVGID_11_)" fill="#5CC1EF" d="M288.962,32.233c0-0.303-0.246-0.549-0.549-0.549
		c-0.303,0-0.55,0.246-0.55,0.549c0,0.305,0.247,0.549,0.55,0.549C288.716,32.782,288.962,32.538,288.962,32.233"/>
	<path clip-path="url(#SVGID_11_)" fill="#5CC1EF" d="M285.403,34.312c0,0.379,0.307,0.688,0.687,0.688
		c0.379,0,0.687-0.309,0.687-0.688c0-0.38-0.308-0.687-0.687-0.687C285.71,33.625,285.403,33.932,285.403,34.312"/>
	<path clip-path="url(#SVGID_11_)" fill="#5CC1EF" d="M282.942,36.389c0,0.454,0.369,0.823,0.824,0.823s0.824-0.369,0.824-0.823
		c0-0.455-0.369-0.824-0.824-0.824S282.942,35.934,282.942,36.389"/>
	<path clip-path="url(#SVGID_11_)" fill="#5CC1EF" d="M280.481,38.466c0,0.53,0.431,0.962,0.962,0.962
		c0.531,0,0.96-0.432,0.96-0.962c0-0.531-0.429-0.962-0.96-0.962C280.912,37.504,280.481,37.935,280.481,38.466"/>
	<path clip-path="url(#SVGID_11_)" fill="#5CC1EF" d="M291.057,30.157c0-0.229-0.185-0.412-0.412-0.412
		c-0.228,0-0.412,0.184-0.412,0.412c0,0.227,0.184,0.412,0.412,0.412C290.872,30.569,291.057,30.384,291.057,30.157"/>
	<path clip-path="url(#SVGID_11_)" fill="#5CC1EF" d="M290.655,32.783c0.304,0,0.549-0.246,0.549-0.549
		c0-0.304-0.245-0.55-0.549-0.55c-0.283,0-0.515,0.217-0.544,0.492c-0.028-0.275-0.259-0.492-0.542-0.492
		c-0.304,0-0.55,0.246-0.55,0.55c0,0.303,0.246,0.549,0.55,0.549c0.283,0,0.514-0.216,0.542-0.492
		C290.141,32.567,290.373,32.783,290.655,32.783"/>
	<path clip-path="url(#SVGID_11_)" fill="#5CC1EF" d="M289.98,34.312c0,0.379,0.308,0.688,0.687,0.688s0.687-0.309,0.687-0.688
		c0-0.38-0.308-0.687-0.687-0.687S289.98,33.932,289.98,34.312"/>
	<path clip-path="url(#SVGID_11_)" fill="#5CC1EF" d="M289.855,36.389c0,0.454,0.369,0.823,0.824,0.823s0.824-0.369,0.824-0.823
		c0-0.455-0.369-0.824-0.824-0.824S289.855,35.934,289.855,36.389"/>
	<path clip-path="url(#SVGID_11_)" fill="#5CC1EF" d="M289.729,38.466c0,0.53,0.43,0.962,0.962,0.962
		c0.53,0,0.961-0.432,0.961-0.962c0-0.531-0.431-0.962-0.961-0.962C290.159,37.504,289.729,37.935,289.729,38.466"/>
	<path clip-path="url(#SVGID_11_)" fill="#5CC1EF" d="M306.863,30.388c1.184-0.283,1.979-1.291,1.979-2.508V10.242
		c0-0.759-0.615-1.371-1.374-1.371c-0.758,0-1.374,0.612-1.374,1.371v16.933c-1.233-2.439-2.817-5.634-3.943-8.141
		c-0.354-0.789-0.652-1.517-0.945-2.221c-1.339-3.245-2.493-6.047-6.342-5.742c-3.71,0.294-5.592,2.938-5.592,7.86v0.666h-0.905
		c-0.36,0-0.651,0.29-0.651,0.65v4.338h5.951v-4.338c0-0.36-0.292-0.65-0.651-0.65h-0.996v-0.666c0-4.288,1.47-4.997,3.061-5.121
		c1.707-0.135,2.139,0.541,3.588,4.05c0.283,0.689,0.605,1.472,0.978,2.299c1.249,2.779,3.039,6.368,4.32,8.891
		C304.518,30.133,305.681,30.671,306.863,30.388"/>
</g>
<polygon fill="#0073BB" points="26.005,48.295 13.854,52.671 26.005,56.548 "/>
<polygon fill="#FFFFFF" points="82.258,145.298 76.68,140.781 82.258,136.267 "/>
<g>
	<defs>
		<rect id="SVGID_12_" width="620.458" height="187.753"/>
	</defs>
	<clipPath id="SVGID_13_">
		<use xlink:href="#SVGID_12_"  overflow="visible"/>
	</clipPath>
	<path clip-path="url(#SVGID_13_)" fill="#5CB532" d="M260.621,58.518c1.565,0,2.832-1.27,2.832-2.832
		c0-1.565-1.267-2.834-2.832-2.834c-1.566,0-2.833,1.269-2.833,2.834C257.788,57.248,259.055,58.518,260.621,58.518"/>
	<path clip-path="url(#SVGID_13_)" fill="#55B6B2" d="M329.732,64.265c0.146,0.87,0.97,1.459,1.841,1.312
		c0.87-0.146,1.458-0.97,1.311-1.841l-1.593-9.486c-0.146-0.872-0.972-1.46-1.842-1.313c-0.871,0.146-1.457,0.97-1.311,1.841
		L329.732,64.265z"/>
	<path clip-path="url(#SVGID_13_)" fill="#256372" d="M326.431,73.561c0,1.222,0.989,2.211,2.21,2.211h16.983
		c1.22,0,2.21-0.989,2.21-2.211c0-1.22-0.99-2.21-2.21-2.21h-16.983C327.42,71.351,326.431,72.341,326.431,73.561"/>
	<path clip-path="url(#SVGID_13_)" fill="#C7A812" d="M345.624,75.149c0.875,0,1.587-0.713,1.587-1.588s-0.712-1.588-1.587-1.588
		h-16.983c-0.876,0-1.588,0.713-1.588,1.588s0.712,1.588,1.588,1.588H345.624z"/>
	<path clip-path="url(#SVGID_13_)" fill="#256372" d="M341.79,73.561c0,0.53,0.43,0.96,0.962,0.96c0.335,0,0.626-0.168,0.797-0.427
		h1.159c0.171,0.259,0.464,0.427,0.797,0.427c0.53,0,0.959-0.43,0.959-0.96c0-0.528-0.429-0.958-0.959-0.958
		c-0.333,0-0.626,0.167-0.797,0.427h-1.159c-0.171-0.26-0.462-0.427-0.797-0.427C342.22,72.603,341.79,73.032,341.79,73.561"/>
	<path clip-path="url(#SVGID_13_)" fill="#256372" d="M327.798,73.561c0,0.53,0.43,0.96,0.962,0.96c0.333,0,0.625-0.168,0.798-0.427
		h1.157c0.172,0.259,0.464,0.427,0.797,0.427c0.53,0,0.961-0.43,0.961-0.96c0-0.528-0.431-0.958-0.961-0.958
		c-0.333,0-0.625,0.167-0.797,0.427h-1.157c-0.173-0.26-0.465-0.427-0.798-0.427C328.228,72.603,327.798,73.032,327.798,73.561"/>
	<path clip-path="url(#SVGID_13_)" fill="#C7A812" d="M336.469,70.729c0,0.343,0.279,0.624,0.623,0.624h9.029
		c0.344,0,0.623-0.281,0.623-0.624v-5.476c0-0.343-0.279-0.621-0.623-0.621h-9.029c-0.344,0-0.623,0.278-0.623,0.621V70.729z"/>
</g>
<polygon fill="#C7A812" points="336.127,60.564 336.127,70.197 328.208,70.197 328.208,63.116 330.333,60.564 "/>
<polygon fill="#FFFFFF" points="330.956,61.283 333.209,61.283 333.209,65.018 329.571,65.018 329.571,63 "/>
<rect x="329.968" y="70.197" fill="#C7A812" width="4.619" height="1.153"/>
<g>
	<defs>
		<rect id="SVGID_14_" width="620.458" height="187.753"/>
	</defs>
	<clipPath id="SVGID_15_">
		<use xlink:href="#SVGID_14_"  overflow="visible"/>
	</clipPath>
	<path clip-path="url(#SVGID_15_)" fill="#C7A812" d="M322.508,62.868c-0.383,0.519-0.521,0.934-0.003,1.316
		c0.52,0.385,0.905,0.071,1.288-0.447l6.861-8.596c0.384-0.52,0.274-1.25-0.243-1.634c-0.519-0.384-1.249-0.274-1.634,0.244
		L322.508,62.868z"/>
	<path clip-path="url(#SVGID_15_)" fill="#55B6B2" d="M322.106,68.747c0.417,0.043,3.865,0.403,3.624-0.124
		c-0.106-0.234-0.5-0.167-0.642-0.252c-0.273-0.219-0.438-0.724-0.569-1.028c-0.468-1.096-0.809-2.089-1.227-3.248
		c0.131-0.132,0.192-0.324,0.151-0.52c-0.064-0.31-0.37-0.506-0.681-0.441c-0.143,0.03-0.266,0.113-0.345,0.222l-0.021,0.027
		c-0.228,0.293-0.499,0.667-0.744,0.968c-0.352,0.429-0.614,0.692-0.892,1.117C320.48,65.902,321.539,68.688,322.106,68.747"/>
	<path clip-path="url(#SVGID_15_)" fill="#F3F2F1" d="M322.551,63.767c0.039,0.182,0.219,0.299,0.4,0.261
		c0.183-0.039,0.299-0.217,0.261-0.398c-0.039-0.184-0.218-0.3-0.398-0.263C322.63,63.404,322.512,63.585,322.551,63.767"/>
	<path clip-path="url(#SVGID_15_)" fill="#F3F2F1" d="M329.057,54.409c0,0.38,0.309,0.688,0.688,0.688
		c0.379,0,0.687-0.308,0.687-0.688s-0.308-0.688-0.687-0.688C329.365,53.721,329.057,54.029,329.057,54.409"/>
	<path clip-path="url(#SVGID_15_)" fill="#A08A23" d="M342.56,68.309h3.056c0.14,0,0.252,0.113,0.252,0.253
		s-0.112,0.253-0.252,0.253h-3.056c-0.14,0-0.253-0.113-0.253-0.253S342.42,68.309,342.56,68.309"/>
	<path clip-path="url(#SVGID_15_)" fill="#A08A23" d="M342.56,69.126h3.056c0.14,0,0.252,0.113,0.252,0.253
		c0,0.141-0.112,0.253-0.252,0.253h-3.056c-0.14,0-0.253-0.112-0.253-0.253C342.307,69.239,342.42,69.126,342.56,69.126"/>
	<path clip-path="url(#SVGID_15_)" fill="#A08A23" d="M342.56,69.944h3.056c0.14,0,0.252,0.113,0.252,0.252
		c0,0.14-0.112,0.255-0.252,0.255h-3.056c-0.14,0-0.253-0.115-0.253-0.255C342.307,70.058,342.42,69.944,342.56,69.944"/>
	<path clip-path="url(#SVGID_15_)" fill="#727171" d="M303.097,70.169c1.62,0,2.94,1.32,2.94,2.941c0,1.619-1.32,2.94-2.94,2.94
		c-1.621,0-2.941-1.321-2.941-2.94C300.155,71.489,301.476,70.169,303.097,70.169 M303.097,74.744c0.898,0,1.634-0.734,1.634-1.634
		c0-0.9-0.735-1.635-1.634-1.635c-0.9,0-1.636,0.734-1.636,1.635C301.461,74.01,302.196,74.744,303.097,74.744"/>
	<path clip-path="url(#SVGID_15_)" fill="#727171" d="M300.155,60.039c0-0.18,0.146-0.326,0.327-0.326h6.821
		c0.192,0,0.363,0.128,0.417,0.313l1.391,4.891c0.123,0.432,0.193,0.885,0.193,1.331v6.862c0,0.181-0.146,0.327-0.326,0.327h-2.288
		v-0.327c0-1.979-1.615-3.593-3.594-3.593c-1.979,0-3.596,1.613-3.596,3.593v0.327h-0.652v-3.269h1.307V60.039z M302.771,68.207
		h0.653v-1.306h-0.653V68.207z M302.771,65.595h5.881l-1.307-4.575h-4.574V65.595z"/>
	<path clip-path="url(#SVGID_15_)" fill="#00AA7B" d="M274.258,62.963l-1.488-4.327c-0.118-0.339,0.064-0.713,0.404-0.83
		l19.775-6.809c0.339-0.117,0.712,0.065,0.83,0.406l3.617,10.503c0.117,0.342-0.065,0.715-0.404,0.832L276.6,69.759l-2.685,0.233
		L274.258,62.963z M292.859,62.779l0.617-0.214l-3.192-9.27l-0.617,0.213L292.859,62.779z M288.532,64.269l0.619-0.214l-3.192-9.268
		l-0.618,0.212L288.532,64.269z M284.207,65.758l0.617-0.213l-3.191-9.27l-0.618,0.214L284.207,65.758z M279.881,67.247l0.618-0.214
		l-3.192-9.269l-0.617,0.214L279.881,67.247z"/>
	<path clip-path="url(#SVGID_15_)" fill="#727171" d="M280.55,73.11c0,0.109,0.005,0.218,0.015,0.326h-1.322v-3.269h2.839
		C281.157,70.82,280.55,71.896,280.55,73.11"/>
	<path clip-path="url(#SVGID_15_)" fill="#727171" d="M286.207,70.168h4.145v3.269h-2.629c0.01-0.108,0.015-0.217,0.015-0.326
		C287.738,71.896,287.132,70.819,286.207,70.168"/>
	<path clip-path="url(#SVGID_15_)" fill="#727171" d="M284.144,70.169c1.619,0,2.941,1.32,2.941,2.941
		c0,1.619-1.322,2.94-2.941,2.94c-1.621,0-2.942-1.321-2.942-2.94C281.202,71.489,282.523,70.169,284.144,70.169 M284.144,74.744
		c0.899,0,1.633-0.734,1.633-1.634c0-0.9-0.734-1.635-1.633-1.635c-0.9,0-1.635,0.734-1.635,1.635
		C282.509,74.01,283.244,74.744,284.144,74.744"/>
	<path clip-path="url(#SVGID_15_)" fill="#727171" d="M291.659,70.168h5.882c0.36,0,0.654,0.295,0.654,0.655v2.613
		c0,0.359-0.294,0.654-0.654,0.654h-5.882c-0.358,0-0.654-0.295-0.654-0.654v-2.613C291.005,70.464,291.301,70.168,291.659,70.168"
		/>
</g>
<polygon fill="#FEEE29" points="47.493,21.045 53.702,21.045 53.56,18.405 47.635,18.405 "/>
<polygon fill="#0073BB" points="48.708,0 48.567,2.641 48.438,5.054 48.3,7.635 48.171,10.046 48.032,12.627 47.902,15.04 
	47.764,17.62 53.431,17.62 53.293,15.04 53.163,12.627 53.024,10.046 52.896,7.635 52.757,5.054 52.627,2.641 52.486,0 "/>
<polygon fill="#FBC728" points="47.635,18.405 53.56,18.405 53.43,15.992 47.764,15.992 "/>
<rect x="42.228" y="17.806" fill="#00538D" width="10.663" height="12.013"/>
<rect x="40.475" y="15.876" fill="#00538D" width="15.251" height="2.159"/>
<rect x="43.848" y="19.157" fill="#FFFFFF" width="2.699" height="2.698"/>
<rect x="48.843" y="19.157" fill="#FFFFFF" width="2.698" height="2.698"/>
<polygon fill="#00538D" points="59.37,13.623 59.37,29.817 50.732,29.817 50.732,19.154 "/>
<rect x="52.815" y="19.83" fill="#FFFFFF" width="1.097" height="7.558"/>
<rect x="56.055" y="19.83" fill="#FFFFFF" width="1.096" height="7.558"/>
<polygon fill="#00538D" points="67.603,13.623 67.603,29.817 58.964,29.817 58.964,19.154 "/>
<rect x="61.048" y="19.83" fill="#FFFFFF" width="1.097" height="7.558"/>
<rect x="64.287" y="19.83" fill="#FFFFFF" width="1.097" height="7.558"/>
<g>
	<defs>
		<rect id="SVGID_16_" width="620.458" height="187.753"/>
	</defs>
	<clipPath id="SVGID_17_">
		<use xlink:href="#SVGID_16_"  overflow="visible"/>
	</clipPath>
	<path clip-path="url(#SVGID_17_)" fill="#55B6B2" d="M196.542,33.418c0.125,0.749,0.836,1.256,1.585,1.129
		c0.75-0.126,1.257-0.836,1.13-1.585l-1.372-8.175c-0.127-0.749-0.836-1.255-1.587-1.129c-0.749,0.126-1.255,0.836-1.129,1.585
		L196.542,33.418z"/>
	<path clip-path="url(#SVGID_17_)" fill="#256372" d="M193.698,41.425c0,1.052,0.852,1.904,1.904,1.904h14.628
		c1.051,0,1.904-0.853,1.904-1.904s-0.853-1.904-1.904-1.904h-14.628C194.55,39.521,193.698,40.373,193.698,41.425"/>
	<path clip-path="url(#SVGID_17_)" fill="#C7A812" d="M210.23,42.792c0.753,0,1.367-0.612,1.367-1.366
		c0-0.755-0.614-1.369-1.367-1.369h-14.629c-0.754,0-1.367,0.614-1.367,1.369c0,0.754,0.613,1.366,1.367,1.366H210.23z"/>
	<path clip-path="url(#SVGID_17_)" fill="#256372" d="M206.928,41.425c0,0.456,0.371,0.826,0.829,0.826
		c0.287,0,0.538-0.145,0.687-0.368h0.997c0.149,0.224,0.4,0.368,0.686,0.368c0.456,0,0.827-0.37,0.827-0.826
		s-0.371-0.826-0.827-0.826c-0.286,0-0.537,0.146-0.686,0.368h-0.997c-0.149-0.223-0.4-0.368-0.687-0.368
		C207.299,40.599,206.928,40.969,206.928,41.425"/>
	<path clip-path="url(#SVGID_17_)" fill="#256372" d="M194.875,41.425c0,0.456,0.371,0.826,0.829,0.826
		c0.287,0,0.538-0.145,0.687-0.368h0.998c0.147,0.224,0.399,0.368,0.685,0.368c0.456,0,0.827-0.37,0.827-0.826
		s-0.371-0.826-0.827-0.826c-0.286,0-0.538,0.146-0.685,0.368h-0.998c-0.149-0.223-0.4-0.368-0.687-0.368
		C195.247,40.599,194.875,40.969,194.875,41.425"/>
	<path clip-path="url(#SVGID_17_)" fill="#C7A812" d="M202.344,38.984c0,0.297,0.24,0.537,0.536,0.537h7.778
		c0.297,0,0.536-0.24,0.536-0.537v-4.716c0-0.296-0.239-0.535-0.536-0.535h-7.778c-0.296,0-0.536,0.239-0.536,0.535V38.984z"/>
</g>
<polygon fill="#C7A812" points="202.05,30.229 202.05,38.525 195.23,38.525 195.23,32.428 197.06,30.229 "/>
<polygon fill="#FFFFFF" points="197.596,30.85 199.537,30.85 199.537,34.064 196.404,34.064 196.404,32.328 "/>
<rect x="196.745" y="38.528" fill="#C7A812" width="3.977" height="0.992"/>
<g>
	<defs>
		<rect id="SVGID_18_" width="620.458" height="187.753"/>
	</defs>
	<clipPath id="SVGID_19_">
		<use xlink:href="#SVGID_18_"  overflow="visible"/>
	</clipPath>
	<path clip-path="url(#SVGID_19_)" fill="#C7A812" d="M190.32,32.215c-0.33,0.444-0.449,0.803-0.002,1.133
		c0.446,0.332,0.778,0.062,1.11-0.385l5.91-7.404c0.329-0.448,0.236-1.077-0.21-1.407c-0.448-0.331-1.077-0.238-1.409,0.21
		L190.32,32.215z"/>
	<path clip-path="url(#SVGID_19_)" fill="#55B6B2" d="M189.974,37.278c0.359,0.038,3.328,0.347,3.123-0.106
		c-0.094-0.203-0.432-0.143-0.555-0.217c-0.234-0.189-0.377-0.626-0.489-0.885c-0.404-0.944-0.696-1.802-1.057-2.8
		c0.112-0.113,0.166-0.277,0.131-0.446c-0.057-0.269-0.319-0.438-0.587-0.381c-0.124,0.025-0.229,0.098-0.298,0.19l-0.017,0.023
		c-0.195,0.253-0.43,0.576-0.641,0.832c-0.303,0.373-0.53,0.599-0.767,0.964C188.573,34.828,189.486,37.228,189.974,37.278"/>
	<path clip-path="url(#SVGID_19_)" fill="#F3F2F1" d="M190.357,32.988c0.033,0.157,0.187,0.258,0.343,0.224
		c0.158-0.032,0.259-0.187,0.226-0.344c-0.034-0.157-0.188-0.257-0.344-0.225C190.425,32.677,190.324,32.831,190.357,32.988"/>
	<path clip-path="url(#SVGID_19_)" fill="#F3F2F1" d="M195.961,24.928c0,0.327,0.265,0.593,0.592,0.593s0.593-0.266,0.593-0.593
		c0-0.326-0.266-0.593-0.593-0.593S195.961,24.602,195.961,24.928"/>
	<path clip-path="url(#SVGID_19_)" fill="#A08A23" d="M207.591,36.9h2.632c0.12,0,0.217,0.098,0.217,0.218s-0.097,0.219-0.217,0.219
		h-2.632c-0.12,0-0.218-0.099-0.218-0.219S207.471,36.9,207.591,36.9"/>
	<path clip-path="url(#SVGID_19_)" fill="#A08A23" d="M207.591,37.604h2.632c0.12,0,0.217,0.098,0.217,0.218
		c0,0.121-0.097,0.218-0.217,0.218h-2.632c-0.12,0-0.218-0.097-0.218-0.218C207.374,37.702,207.471,37.604,207.591,37.604"/>
	<path clip-path="url(#SVGID_19_)" fill="#A08A23" d="M207.591,38.31h2.632c0.12,0,0.217,0.098,0.217,0.217
		c0,0.121-0.097,0.219-0.217,0.219h-2.632c-0.12,0-0.218-0.098-0.218-0.219C207.374,38.407,207.471,38.31,207.591,38.31"/>
	<path clip-path="url(#SVGID_19_)" fill="#727171" d="M418.216,70.035c1.657,0,3.008,1.352,3.008,3.008
		c0,1.657-1.351,3.008-3.008,3.008s-3.007-1.351-3.007-3.008C415.209,71.387,416.559,70.035,418.216,70.035 M418.216,74.714
		c0.921,0,1.672-0.75,1.672-1.671c0-0.92-0.751-1.672-1.672-1.672c-0.92,0-1.671,0.752-1.671,1.672
		C416.545,73.964,417.296,74.714,418.216,74.714"/>
	<path clip-path="url(#SVGID_19_)" fill="#727171" d="M415.208,59.673c0-0.184,0.15-0.334,0.334-0.334h6.977
		c0.198,0,0.372,0.132,0.426,0.321l1.425,5.002c0.124,0.44,0.197,0.903,0.197,1.362v7.019c0,0.184-0.149,0.333-0.334,0.333h-2.34
		v-0.333c0-2.026-1.652-3.676-3.677-3.676c-2.023,0-3.676,1.649-3.676,3.676v0.333h-0.669v-3.342h1.337V59.673z M417.882,68.029
		h0.669v-1.337h-0.669V68.029z M417.882,65.355h6.017l-1.338-4.68h-4.679V65.355z"/>
	<path clip-path="url(#SVGID_19_)" fill="#00AA7B" d="M391.143,62.013v-4.679c0-0.367,0.303-0.669,0.67-0.669h21.391
		c0.367,0,0.668,0.302,0.668,0.669v11.363c0,0.367-0.301,0.67-0.668,0.67h-22.061l-2.673-0.67L391.143,62.013z M409.191,68.03h0.669
		V58.003h-0.669V68.03z M404.513,68.03h0.669V58.003h-0.669V68.03z M399.833,68.03h0.669V58.003h-0.669V68.03z M395.154,68.03h0.668
		V58.003h-0.668V68.03z"/>
	<path clip-path="url(#SVGID_19_)" fill="#727171" d="M395.154,73.043c0,0.111,0.005,0.224,0.016,0.334h-1.353v-3.343h2.903
		C395.774,70.7,395.154,71.802,395.154,73.043"/>
	<path clip-path="url(#SVGID_19_)" fill="#727171" d="M400.94,70.034h4.24v3.342h-2.688c0.01-0.108,0.015-0.222,0.015-0.334
		C402.508,71.803,401.887,70.701,400.94,70.034"/>
	<path clip-path="url(#SVGID_19_)" fill="#727171" d="M398.831,70.035c1.657,0,3.008,1.352,3.008,3.008
		c0,1.657-1.351,3.008-3.008,3.008s-3.008-1.351-3.008-3.008C395.823,71.387,397.174,70.035,398.831,70.035 M398.831,74.714
		c0.921,0,1.671-0.75,1.671-1.671c0-0.92-0.75-1.672-1.671-1.672c-0.92,0-1.672,0.752-1.672,1.672
		C397.159,73.964,397.911,74.714,398.831,74.714"/>
	<path clip-path="url(#SVGID_19_)" fill="#727171" d="M406.519,70.034h6.016c0.368,0,0.668,0.301,0.668,0.669v2.673
		c0,0.368-0.3,0.669-0.668,0.669h-6.016c-0.367,0-0.669-0.301-0.669-0.669v-2.673C405.85,70.336,406.151,70.034,406.519,70.034"/>
</g>
</svg>
