<?xml version="1.0" encoding="utf-8"?>
<!-- Generator: Adobe Illustrator 16.0.0, SVG Export Plug-In . SVG Version: 6.00 Build 0)  -->
<!DOCTYPE svg PUBLIC "-//W3C//DTD SVG 1.1//EN" "http://www.w3.org/Graphics/SVG/1.1/DTD/svg11.dtd">
<svg version="1.1" id="레이어_1" xmlns="http://www.w3.org/2000/svg" xmlns:xlink="http://www.w3.org/1999/xlink" x="0px"
	 y="0px" width="516.922px" height="162.304px" viewBox="0 0 516.922 162.304" enable-background="new 0 0 516.922 162.304"
	 xml:space="preserve">
<rect x="51.328" y="120.236" fill="#7D6448" width="465.344" height="34.555"/>
<polygon fill="#727072" points="257.84,71.337 186.309,71.982 195.107,46.113 248.034,46.058 "/>
<g>
	<defs>
		<rect id="SVGID_1_" width="516.922" height="162.304"/>
	</defs>
	<clipPath id="SVGID_2_">
		<use xlink:href="#SVGID_1_"  overflow="visible"/>
	</clipPath>
	
		<line clip-path="url(#SVGID_2_)" fill="none" stroke="#000000" stroke-width="0.878" x1="516.672" y1="120.238" x2="458.771" y2="120.238"/>
	<path clip-path="url(#SVGID_2_)" fill="#41A1BE" d="M116.997,120.531c0-2.748,2.328-4.975,5.201-4.975c2.872,0,5.2,2.227,5.2,4.975
		c0,2.746-2.328,4.973-5.2,4.973C119.325,125.503,116.997,123.277,116.997,120.531"/>
</g>
<polygon fill="#A8C34C" points="490.184,120.091 458.275,120.091 467.418,94.783 481.901,94.783 "/>
<polygon fill="#A8C34C" points="146.586,117.166 115.424,117.166 123.324,94.781 137.807,94.781 "/>
<polyline fill="#DAE121" points="137.618,94.783 149.321,133.404 455.378,133.404 467.081,94.783 "/>
<polyline fill="none" stroke="#1F2774" stroke-width="0.878" points="137.618,94.783 149.321,133.404 455.378,133.404 
	467.081,94.783 "/>
<polygon fill="#A8C34C" points="203.964,70.563 172.803,70.834 180.492,45.993 194.975,45.993 "/>
<rect x="163.484" y="70.349" fill="#00AC7C" width="276.284" height="23.481"/>
<rect x="163.484" y="74.43" fill="#7D6448" width="276.284" height="23.482"/>
<polygon fill="#A8C34C" points="175.772,94.562 144.611,94.562 152.511,70.35 166.994,70.35 "/>
<polygon fill="#A8C34C" points="459.737,94.562 428.576,94.562 436.477,70.35 450.959,70.35 "/>
<polygon fill="#A8C34C" points="429.454,70.233 398.292,70.233 406.192,46.021 420.676,46.021 "/>
<rect x="489.276" y="96.246" fill="#41A1BE" width="4.097" height="58.545"/>
<rect x="498.392" y="96.246" fill="#41A1BE" width="4.096" height="41.256"/>
<polyline fill="#CAB272" points="139.314,94.783 153.668,118.542 453.227,118.542 465.5,94.783 "/>
<rect x="212.422" y="34.36" fill="#41A1BE" width="4.096" height="68.907"/>
<rect x="186.088" y="34.36" fill="#41A1BE" width="4.096" height="68.907"/>
<g>
	<defs>
		<rect id="SVGID_3_" width="516.922" height="162.304"/>
	</defs>
	<clipPath id="SVGID_4_">
		<use xlink:href="#SVGID_3_"  overflow="visible"/>
	</clipPath>
	<path clip-path="url(#SVGID_4_)" fill="#0075C2" d="M138.971,95.156c0,1.783,1.445,3.227,3.226,3.227
		c1.782,0,3.226-1.443,3.226-3.227c0-1.781-1.444-3.225-3.226-3.225C140.416,91.931,138.971,93.375,138.971,95.156"/>
	
		<line clip-path="url(#SVGID_4_)" fill="none" stroke="#0075C2" stroke-width="1.536" stroke-dasharray="5.359,3.229" x1="455.365" y1="95.22" x2="147.808" y2="95.22"/>
	
		<line clip-path="url(#SVGID_4_)" fill="none" stroke="#0075C2" stroke-width="1.536" stroke-dasharray="5.34,3.21" x1="137.634" y1="95.22" x2="122.14" y2="95.22"/>
	<path clip-path="url(#SVGID_4_)" fill="none" stroke="#0075C2" stroke-width="1.536" stroke-dasharray="5.637,3.507" d="
		M111.974,82.802c0.245-5.384,0.608-12.129,0.491-16.522"/>
	<path clip-path="url(#SVGID_4_)" fill="none" stroke="#0075C2" stroke-width="1.536" stroke-dasharray="4.425,2.295" d="
		M110.92,57.434c-0.696-1.411-1.939-2.788-4.148-3.479"/>
	
		<line clip-path="url(#SVGID_4_)" fill="none" stroke="#0075C2" stroke-width="1.536" stroke-dasharray="5.076,2.946" x1="97.971" y1="53.497" x2="67.353" y2="53.497"/>
	<path clip-path="url(#SVGID_4_)" fill="none" stroke="#0075C2" stroke-width="1.536" d="M65.879,53.497h-2.538 M105.657,53.684
		c-0.66-0.12-1.392-0.187-2.202-0.187h-2.538 M112.381,64.528c-0.105-1.422-0.297-2.402-0.611-2.716c0,0,0.089-0.948-0.143-2.203
		 M112.296,92.046c-0.327-0.773-0.526-1.732-0.526-2.922c0-0.779,0.022-1.736,0.06-2.818 M120.535,95.22h-2.67
		c0,0-1.438,0.113-2.918-0.523 M146.193,95.22h-2.679h-2.67 M461.274,95.22h-2.681"/>
	<path clip-path="url(#SVGID_4_)" fill="#0075C2" d="M458.267,95.156c0,1.783,1.444,3.227,3.228,3.227
		c1.78,0,3.225-1.443,3.225-3.227c0-1.781-1.444-3.225-3.225-3.225C459.711,91.931,458.267,93.375,458.267,95.156"/>
</g>
<polygon fill="#00AC7C" points="204.373,118.13 194.206,118.13 196.784,110.23 201.509,110.23 "/>
<polygon fill="#00AC7C" points="232.722,118.13 222.555,118.13 225.132,110.23 229.858,110.23 "/>
<polygon fill="#00AC7C" points="264.026,118.13 253.859,118.13 256.438,110.23 261.162,110.23 "/>
<polygon fill="#00AC7C" points="300.454,118.13 290.289,118.13 292.864,110.23 297.592,110.23 "/>
<polygon fill="#00AC7C" points="337.322,118.13 327.156,118.13 329.731,110.23 334.459,110.23 "/>
<polygon fill="#00AC7C" points="373.312,118.13 363.146,118.13 365.721,110.23 370.448,110.23 "/>
<polygon fill="#00AC7C" points="412.373,118.13 402.207,118.13 404.783,110.23 409.51,110.23 "/>
<rect x="383.591" y="51.916" fill="#41A1BE" width="4.097" height="65.833"/>
<line fill="none" stroke="#38B489" stroke-width="6.594" x1="51.329" y1="119.708" x2="455.12" y2="119.708"/>
<rect x="458.8" y="126.595" fill="#7C6347" width="27.257" height="9.984"/>
<rect x="466.654" y="84.394" fill="#B28247" width="2.065" height="10.396"/>
<g>
	<defs>
		<path id="SVGID_5_" d="M462.865,84.812c0,4.184,2.21,5.051,4.936,5.051c2.727,0,4.937-0.867,4.937-5.051
			c0-4.185-2.21-7.579-4.937-7.579C465.075,77.233,462.865,80.627,462.865,84.812"/>
	</defs>
	<clipPath id="SVGID_6_">
		<use xlink:href="#SVGID_5_"  overflow="visible"/>
	</clipPath>
	
		<radialGradient id="SVGID_7_" cx="-35.145" cy="522.1128" r="1" gradientTransform="matrix(13.3113 0 0 -16.3831 935.4691 8630.8164)" gradientUnits="userSpaceOnUse">
		<stop  offset="0" style="stop-color:#76BA2A"/>
		<stop  offset="1" style="stop-color:#1EA739"/>
	</radialGradient>
	<rect x="462.865" y="77.233" clip-path="url(#SVGID_6_)" fill="url(#SVGID_7_)" width="9.872" height="12.629"/>
</g>
<path fill="#007173" d="M89.891,119.404h17.606V85.669H89.891V119.404z M98.136,115.195h-5.879v-5.879h5.879V115.195z
	 M98.136,107.931h-5.879v-5.879h5.879V107.931z M98.136,100.744h-5.879v-5.879h5.879V100.744z M98.136,93.556h-5.879v-5.879h5.879
	V93.556z M105.133,115.195h-5.88v-5.879h5.88V115.195z M105.133,107.931h-5.88v-5.879h5.88V107.931z M105.133,100.744h-5.88v-5.879
	h5.88V100.744z M105.133,93.556h-5.88v-5.879h5.88V93.556z"/>
<path fill="#007173" d="M79.962,95.025l-9.13,4.188v20.191h18.26V99.212v-4.188l-9.13,4.188V95.025z M81.586,102.052h5.879v5.879
	h-5.879V102.052z M78.335,107.933h-5.879v-5.881h5.879V107.933z"/>
<polyline fill="none" stroke="#FFFFFF" stroke-width="0.824" points="112.686,119.578 385.531,119.578 385.531,116.412 "/>
<polygon fill="#5CC1EF" points="271.578,32.95 267.114,32.95 268.689,35.027 268.689,35.663 270.002,35.663 270.002,35.027 "/>
<g>
	<defs>
		<rect id="SVGID_8_" width="516.922" height="162.304"/>
	</defs>
	<clipPath id="SVGID_9_">
		<use xlink:href="#SVGID_8_"  overflow="visible"/>
	</clipPath>
	<path clip-path="url(#SVGID_9_)" fill="#5CC1EF" d="M272.093,42.825c0,0.398,0.323,0.722,0.721,0.722s0.722-0.323,0.722-0.722
		c0-0.397-0.324-0.721-0.722-0.721S272.093,42.428,272.093,42.825"/>
	<path clip-path="url(#SVGID_9_)" fill="#5CC1EF" d="M271.32,41.268c0,0.341,0.276,0.617,0.617,0.617
		c0.342,0,0.618-0.276,0.618-0.617c0-0.342-0.276-0.618-0.618-0.618C271.597,40.649,271.32,40.926,271.32,41.268"/>
	<path clip-path="url(#SVGID_9_)" fill="#5CC1EF" d="M270.547,39.71c0,0.283,0.231,0.515,0.516,0.515
		c0.283,0,0.515-0.231,0.515-0.515c0-0.285-0.231-0.516-0.515-0.516C270.778,39.194,270.547,39.425,270.547,39.71"/>
	<path clip-path="url(#SVGID_9_)" fill="#5CC1EF" d="M270.599,38.151c0-0.228-0.185-0.412-0.412-0.412s-0.412,0.185-0.412,0.412
		s0.185,0.412,0.412,0.412S270.599,38.379,270.599,38.151"/>
	<path clip-path="url(#SVGID_9_)" fill="#5CC1EF" d="M271.466,38.151c0-0.228-0.185-0.412-0.412-0.412s-0.412,0.185-0.412,0.412
		s0.185,0.412,0.412,0.412S271.466,38.379,271.466,38.151"/>
	<path clip-path="url(#SVGID_9_)" fill="#5CC1EF" d="M272.281,39.71c0,0.283,0.23,0.515,0.515,0.515s0.515-0.231,0.515-0.515
		c0-0.285-0.23-0.516-0.515-0.516S272.281,39.425,272.281,39.71"/>
	<path clip-path="url(#SVGID_9_)" fill="#5CC1EF" d="M273.92,41.268c0,0.341,0.277,0.617,0.619,0.617s0.617-0.276,0.617-0.617
		c0-0.342-0.275-0.618-0.617-0.618S273.92,40.926,273.92,41.268"/>
	<path clip-path="url(#SVGID_9_)" fill="#5CC1EF" d="M275.561,42.825c0,0.398,0.322,0.722,0.721,0.722s0.721-0.323,0.721-0.722
		c0-0.397-0.322-0.721-0.721-0.721S275.561,42.428,275.561,42.825"/>
	<path clip-path="url(#SVGID_9_)" fill="#5CC1EF" d="M265.156,42.825c0,0.398,0.324,0.722,0.721,0.722
		c0.399,0,0.722-0.323,0.722-0.722c0-0.397-0.322-0.721-0.722-0.721C265.48,42.104,265.156,42.428,265.156,42.825"/>
	<path clip-path="url(#SVGID_9_)" fill="#5CC1EF" d="M266.135,41.268c0,0.341,0.277,0.617,0.619,0.617s0.617-0.276,0.617-0.617
		c0-0.342-0.275-0.618-0.617-0.618S266.135,40.926,266.135,41.268"/>
	<path clip-path="url(#SVGID_9_)" fill="#5CC1EF" d="M267.114,39.71c0,0.283,0.229,0.515,0.515,0.515
		c0.284,0,0.516-0.231,0.516-0.515c0-0.285-0.231-0.516-0.516-0.516C267.344,39.194,267.114,39.425,267.114,39.71"/>
	<path clip-path="url(#SVGID_9_)" fill="#5CC1EF" d="M268.049,38.151c0-0.228-0.184-0.412-0.412-0.412
		c-0.227,0-0.411,0.185-0.411,0.412s0.185,0.412,0.411,0.412C267.865,38.563,268.049,38.379,268.049,38.151"/>
	<path clip-path="url(#SVGID_9_)" fill="#5CC1EF" d="M265.381,39.71c0,0.283,0.229,0.515,0.514,0.515
		c0.285,0,0.516-0.231,0.516-0.515c0-0.285-0.23-0.516-0.516-0.516C265.61,39.194,265.381,39.425,265.381,39.71"/>
	<path clip-path="url(#SVGID_9_)" fill="#5CC1EF" d="M263.535,41.268c0,0.341,0.276,0.617,0.617,0.617
		c0.342,0,0.618-0.276,0.618-0.617c0-0.342-0.276-0.618-0.618-0.618C263.812,40.649,263.535,40.926,263.535,41.268"/>
	<path clip-path="url(#SVGID_9_)" fill="#5CC1EF" d="M261.689,42.825c0,0.398,0.323,0.722,0.721,0.722
		c0.398,0,0.721-0.323,0.721-0.722c0-0.397-0.322-0.721-0.721-0.721C262.013,42.104,261.689,42.428,261.689,42.825"/>
	<path clip-path="url(#SVGID_9_)" fill="#5CC1EF" d="M269.621,36.594c0-0.171-0.139-0.309-0.31-0.309s-0.31,0.138-0.31,0.309
		s0.139,0.309,0.31,0.309S269.621,36.765,269.621,36.594"/>
	<path clip-path="url(#SVGID_9_)" fill="#5CC1EF" d="M269.32,38.563c0.228,0,0.411-0.185,0.411-0.412s-0.184-0.412-0.411-0.412
		c-0.214,0-0.387,0.162-0.408,0.369c-0.021-0.207-0.194-0.369-0.408-0.369c-0.227,0-0.411,0.185-0.411,0.412
		s0.185,0.412,0.411,0.412c0.214,0,0.387-0.162,0.408-0.369C268.934,38.401,269.106,38.563,269.32,38.563"/>
	<path clip-path="url(#SVGID_9_)" fill="#5CC1EF" d="M268.813,39.71c0,0.283,0.231,0.515,0.515,0.515
		c0.284,0,0.516-0.231,0.516-0.515c0-0.285-0.231-0.516-0.516-0.516C269.045,39.194,268.813,39.425,268.813,39.71"/>
	<path clip-path="url(#SVGID_9_)" fill="#5CC1EF" d="M268.719,41.268c0,0.341,0.277,0.617,0.618,0.617
		c0.343,0,0.618-0.276,0.618-0.617c0-0.342-0.275-0.618-0.618-0.618C268.996,40.649,268.719,40.926,268.719,41.268"/>
	<path clip-path="url(#SVGID_9_)" fill="#5CC1EF" d="M268.625,42.825c0,0.398,0.322,0.722,0.721,0.722s0.721-0.323,0.721-0.722
		c0-0.397-0.322-0.721-0.721-0.721S268.625,42.428,268.625,42.825"/>
	<path clip-path="url(#SVGID_9_)" fill="#5CC1EF" d="M281.476,36.767c0.888-0.213,1.483-0.968,1.483-1.881V21.657
		c0-0.568-0.461-1.028-1.03-1.028c-0.567,0-1.03,0.46-1.03,1.028v12.699c-0.925-1.829-2.113-4.225-2.957-6.104
		c-0.266-0.592-0.49-1.139-0.709-1.666c-1.004-2.434-1.871-4.535-4.758-4.307c-2.781,0.221-4.193,2.204-4.193,5.896v0.499h-0.68
		c-0.27,0-0.488,0.218-0.488,0.488v3.254h4.465v-3.254c0-0.271-0.219-0.488-0.489-0.488h-0.747v-0.499
		c0-3.216,1.104-3.748,2.296-3.841c1.28-0.102,1.604,0.405,2.69,3.038c0.214,0.517,0.455,1.103,0.734,1.724
		c0.937,2.084,2.279,4.776,3.24,6.667C279.716,36.575,280.589,36.979,281.476,36.767"/>
</g>
<polygon fill="#0073BB" points="70.832,50.197 61.718,53.479 70.832,56.387 "/>
<polygon fill="#FFFFFF" points="113.021,122.949 108.838,119.562 113.021,116.175 "/>
<g>
	<defs>
		<rect id="SVGID_10_" width="516.922" height="162.304"/>
	</defs>
	<clipPath id="SVGID_11_">
		<use xlink:href="#SVGID_10_"  overflow="visible"/>
	</clipPath>
	<path clip-path="url(#SVGID_11_)" fill="#5CB532" d="M246.793,57.864c1.174,0,2.124-0.951,2.124-2.124
		c0-1.174-0.95-2.125-2.124-2.125c-1.174,0-2.125,0.951-2.125,2.125C244.668,56.913,245.62,57.864,246.793,57.864"/>
	<path clip-path="url(#SVGID_11_)" fill="#55B6B2" d="M204.604,39.039c-0.094,0.563-0.627,0.942-1.189,0.847
		c-0.563-0.094-0.942-0.627-0.847-1.188l1.029-6.13c0.095-0.563,0.627-0.941,1.19-0.848c0.562,0.095,0.942,0.627,0.847,1.189
		L204.604,39.039z"/>
	<path clip-path="url(#SVGID_11_)" fill="#256372" d="M206.738,45.045c0,0.789-0.639,1.428-1.428,1.428h-10.971
		c-0.788,0-1.428-0.639-1.428-1.428s0.64-1.429,1.428-1.429h10.971C206.099,43.616,206.738,44.256,206.738,45.045"/>
	<path clip-path="url(#SVGID_11_)" fill="#C7A812" d="M194.339,46.07c-0.565,0-1.026-0.46-1.026-1.026
		c0-0.564,0.461-1.025,1.026-1.025h10.972c0.565,0,1.025,0.461,1.025,1.025c0,0.566-0.46,1.026-1.025,1.026H194.339z"/>
	<path clip-path="url(#SVGID_11_)" fill="#256372" d="M196.815,45.045c0,0.342-0.278,0.62-0.622,0.62
		c-0.215,0-0.403-0.109-0.515-0.276h-0.748c-0.111,0.167-0.3,0.276-0.514,0.276c-0.343,0-0.62-0.278-0.62-0.62
		c0-0.343,0.277-0.62,0.62-0.62c0.214,0,0.403,0.108,0.514,0.275h0.748c0.112-0.167,0.3-0.275,0.515-0.275
		C196.538,44.425,196.815,44.702,196.815,45.045"/>
	<path clip-path="url(#SVGID_11_)" fill="#256372" d="M205.854,45.045c0,0.342-0.278,0.62-0.622,0.62
		c-0.215,0-0.403-0.109-0.515-0.276h-0.748c-0.111,0.167-0.3,0.276-0.514,0.276c-0.343,0-0.62-0.278-0.62-0.62
		c0-0.343,0.277-0.62,0.62-0.62c0.214,0,0.403,0.108,0.514,0.275h0.748c0.112-0.167,0.3-0.275,0.515-0.275
		C205.577,44.425,205.854,44.702,205.854,45.045"/>
	<path clip-path="url(#SVGID_11_)" fill="#C7A812" d="M200.253,43.214c0,0.224-0.18,0.402-0.402,0.402h-5.834
		c-0.222,0-0.401-0.179-0.401-0.402v-3.537c0-0.222,0.179-0.401,0.401-0.401h5.834c0.222,0,0.402,0.18,0.402,0.401V43.214z"/>
</g>
<polygon fill="#C7A812" points="200.474,36.647 200.474,42.871 205.589,42.871 205.589,38.297 204.217,36.647 "/>
<polygon fill="#FFFFFF" points="203.814,37.113 202.359,37.113 202.359,39.524 204.708,39.524 204.708,38.222 "/>
<rect x="201.469" y="42.872" fill="#C7A812" width="2.984" height="0.745"/>
<g>
	<defs>
		<rect id="SVGID_12_" width="516.922" height="162.304"/>
	</defs>
	<clipPath id="SVGID_13_">
		<use xlink:href="#SVGID_12_"  overflow="visible"/>
	</clipPath>
	<path clip-path="url(#SVGID_13_)" fill="#C7A812" d="M209.272,38.137c0.248,0.334,0.336,0.603,0.002,0.851
		c-0.335,0.248-0.584,0.047-0.833-0.289l-4.433-5.554c-0.247-0.336-0.177-0.808,0.158-1.056c0.336-0.247,0.808-0.177,1.056,0.158
		L209.272,38.137z"/>
	<path clip-path="url(#SVGID_13_)" fill="#55B6B2" d="M209.531,41.935c-0.269,0.028-2.496,0.26-2.342-0.08
		c0.07-0.152,0.324-0.107,0.416-0.162c0.175-0.142,0.283-0.47,0.367-0.664c0.303-0.708,0.521-1.351,0.793-2.1
		c-0.085-0.085-0.125-0.208-0.099-0.335c0.043-0.201,0.24-0.328,0.441-0.285c0.092,0.019,0.171,0.073,0.223,0.143l0.013,0.018
		c0.146,0.189,0.322,0.432,0.48,0.625c0.228,0.278,0.398,0.448,0.576,0.722C210.581,40.097,209.897,41.896,209.531,41.935"/>
	<path clip-path="url(#SVGID_13_)" fill="#F3F2F1" d="M209.244,38.717c-0.025,0.117-0.14,0.193-0.258,0.168
		c-0.118-0.024-0.194-0.14-0.169-0.258s0.141-0.192,0.258-0.168C209.192,38.484,209.269,38.599,209.244,38.717"/>
	<path clip-path="url(#SVGID_13_)" fill="#F3F2F1" d="M205.041,32.672c0,0.245-0.199,0.444-0.444,0.444
		c-0.245,0-0.445-0.199-0.445-0.444c0-0.246,0.2-0.444,0.445-0.444C204.842,32.228,205.041,32.426,205.041,32.672"/>
	<path clip-path="url(#SVGID_13_)" fill="#A08A23" d="M196.318,41.651h-1.974c-0.09,0-0.163,0.072-0.163,0.163
		s0.073,0.165,0.163,0.165h1.974c0.09,0,0.163-0.074,0.163-0.165S196.408,41.651,196.318,41.651"/>
	<path clip-path="url(#SVGID_13_)" fill="#A08A23" d="M196.318,42.179h-1.974c-0.09,0-0.163,0.073-0.163,0.163
		c0,0.092,0.073,0.164,0.163,0.164h1.974c0.09,0,0.163-0.072,0.163-0.164C196.481,42.252,196.408,42.179,196.318,42.179"/>
	<path clip-path="url(#SVGID_13_)" fill="#A08A23" d="M196.318,42.708h-1.974c-0.09,0-0.163,0.073-0.163,0.163
		c0,0.091,0.073,0.164,0.163,0.164h1.974c0.09,0,0.163-0.073,0.163-0.164C196.481,42.781,196.408,42.708,196.318,42.708"/>
	<path clip-path="url(#SVGID_13_)" fill="#55B6B2" d="M298.627,62.175c0.109,0.652,0.729,1.094,1.38,0.983
		c0.653-0.109,1.095-0.727,0.984-1.381l-1.194-7.115c-0.11-0.653-0.729-1.094-1.383-0.984c-0.652,0.109-1.092,0.728-0.982,1.381
		L298.627,62.175z"/>
	<path clip-path="url(#SVGID_13_)" fill="#256372" d="M296.15,69.146c0,0.916,0.742,1.658,1.658,1.658h12.737
		c0.915,0,1.657-0.742,1.657-1.658c0-0.915-0.742-1.657-1.657-1.657h-12.737C296.893,67.489,296.15,68.231,296.15,69.146"/>
	<path clip-path="url(#SVGID_13_)" fill="#C7A812" d="M310.546,70.338c0.656,0,1.19-0.534,1.19-1.191c0-0.655-0.534-1.19-1.19-1.19
		h-12.737c-0.656,0-1.191,0.535-1.191,1.19c0,0.657,0.535,1.191,1.191,1.191H310.546z"/>
	<path clip-path="url(#SVGID_13_)" fill="#256372" d="M307.671,69.146c0,0.398,0.322,0.721,0.721,0.721
		c0.251,0,0.47-0.127,0.598-0.32h0.87c0.128,0.193,0.347,0.32,0.597,0.32c0.397,0,0.721-0.322,0.721-0.721
		c0-0.396-0.323-0.719-0.721-0.719c-0.25,0-0.469,0.126-0.597,0.32h-0.87c-0.128-0.194-0.347-0.32-0.598-0.32
		C307.993,68.428,307.671,68.75,307.671,69.146"/>
	<path clip-path="url(#SVGID_13_)" fill="#256372" d="M297.177,69.146c0,0.398,0.321,0.721,0.721,0.721
		c0.251,0,0.469-0.127,0.599-0.32h0.868c0.13,0.193,0.349,0.32,0.599,0.32c0.396,0,0.719-0.322,0.719-0.721
		c0-0.396-0.322-0.719-0.719-0.719c-0.25,0-0.469,0.126-0.599,0.32h-0.868c-0.13-0.194-0.348-0.32-0.599-0.32
		C297.498,68.428,297.177,68.75,297.177,69.146"/>
	<path clip-path="url(#SVGID_13_)" fill="#C7A812" d="M303.68,67.022c0,0.258,0.209,0.468,0.467,0.468h6.772
		c0.258,0,0.467-0.21,0.467-0.468v-4.107c0-0.257-0.209-0.466-0.467-0.466h-6.772c-0.258,0-0.467,0.209-0.467,0.466V67.022z"/>
</g>
<polygon fill="#C7A812" points="303.423,59.399 303.423,66.624 297.484,66.624 297.484,61.313 299.078,59.399 "/>
<polygon fill="#FFFFFF" points="299.545,59.938 301.234,59.938 301.234,62.738 298.507,62.738 298.507,61.227 "/>
<rect x="298.805" y="66.624" fill="#C7A812" width="3.464" height="0.865"/>
<g>
	<defs>
		<rect id="SVGID_14_" width="516.922" height="162.304"/>
	</defs>
	<clipPath id="SVGID_15_">
		<use xlink:href="#SVGID_14_"  overflow="visible"/>
	</clipPath>
	<path clip-path="url(#SVGID_15_)" fill="#C7A812" d="M293.209,61.127c-0.287,0.39-0.39,0.7-0.002,0.987
		c0.389,0.289,0.678,0.054,0.967-0.335l5.145-6.447c0.289-0.389,0.206-0.937-0.182-1.226c-0.389-0.287-0.937-0.206-1.226,0.184
		L293.209,61.127z"/>
	<path clip-path="url(#SVGID_15_)" fill="#55B6B2" d="M292.908,65.536c0.313,0.032,2.898,0.303,2.718-0.093
		c-0.08-0.177-0.375-0.125-0.481-0.188c-0.205-0.164-0.328-0.543-0.426-0.772c-0.352-0.821-0.607-1.567-0.922-2.436
		c0.1-0.1,0.145-0.242,0.115-0.39c-0.049-0.232-0.279-0.38-0.512-0.332c-0.106,0.024-0.199,0.086-0.258,0.167l-0.016,0.021
		c-0.171,0.22-0.374,0.501-0.559,0.726c-0.264,0.322-0.461,0.521-0.668,0.838C291.689,63.402,292.482,65.492,292.908,65.536"/>
	<path clip-path="url(#SVGID_15_)" fill="#F3F2F1" d="M293.241,61.801c0.029,0.137,0.163,0.226,0.3,0.196s0.225-0.163,0.196-0.3
		c-0.028-0.138-0.164-0.225-0.3-0.196C293.301,61.53,293.213,61.664,293.241,61.801"/>
	<path clip-path="url(#SVGID_15_)" fill="#F3F2F1" d="M298.121,54.782c0,0.285,0.23,0.517,0.516,0.517
		c0.284,0,0.515-0.231,0.515-0.517c0-0.284-0.23-0.516-0.515-0.516C298.352,54.267,298.121,54.498,298.121,54.782"/>
	<path clip-path="url(#SVGID_15_)" fill="#A08A23" d="M308.248,65.207h2.292c0.104,0,0.188,0.085,0.188,0.19
		c0,0.104-0.085,0.188-0.188,0.188h-2.292c-0.105,0-0.19-0.084-0.19-0.188C308.058,65.292,308.143,65.207,308.248,65.207"/>
	<path clip-path="url(#SVGID_15_)" fill="#A08A23" d="M308.248,65.82h2.292c0.104,0,0.188,0.085,0.188,0.189
		c0,0.105-0.085,0.19-0.188,0.19h-2.292c-0.105,0-0.19-0.085-0.19-0.19C308.058,65.905,308.143,65.82,308.248,65.82"/>
	<path clip-path="url(#SVGID_15_)" fill="#A08A23" d="M308.248,66.435h2.292c0.104,0,0.188,0.085,0.188,0.188
		c0,0.105-0.085,0.191-0.188,0.191h-2.292c-0.105,0-0.19-0.086-0.19-0.191C308.058,66.52,308.143,66.435,308.248,66.435"/>
	<path clip-path="url(#SVGID_15_)" fill="#727171" d="M278.65,66.603c1.215,0,2.206,0.99,2.206,2.206
		c0,1.215-0.991,2.205-2.206,2.205s-2.206-0.99-2.206-2.205C276.444,67.593,277.436,66.603,278.65,66.603 M278.65,70.034
		c0.674,0,1.225-0.552,1.225-1.226c0-0.675-0.551-1.226-1.225-1.226c-0.675,0-1.227,0.551-1.227,1.226
		C277.424,69.482,277.976,70.034,278.65,70.034"/>
	<path clip-path="url(#SVGID_15_)" fill="#727171" d="M276.445,59.006c0-0.136,0.109-0.245,0.244-0.245h5.116
		c0.146,0,0.272,0.096,0.312,0.234l1.043,3.668c0.094,0.323,0.146,0.664,0.146,0.998v5.146c0,0.136-0.108,0.246-0.244,0.246h-1.716
		v-0.246c0-1.484-1.211-2.695-2.695-2.695s-2.697,1.211-2.697,2.695v0.246h-0.488v-2.451h0.98V59.006z M278.406,65.132h0.489v-0.98
		h-0.489V65.132z M278.406,63.172h4.41l-0.979-3.432h-3.431V63.172z"/>
	<path clip-path="url(#SVGID_15_)" fill="#00AA7B" d="M257.022,61.198l-1.116-3.245c-0.089-0.254,0.048-0.535,0.303-0.623
		l14.831-5.105c0.254-0.088,0.534,0.049,0.623,0.304l2.712,7.878c0.088,0.256-0.049,0.536-0.303,0.623l-15.294,5.266l-2.014,0.176
		L257.022,61.198z M270.972,61.061l0.464-0.16l-2.395-6.952l-0.463,0.16L270.972,61.061z M267.729,62.178l0.463-0.16l-2.395-6.951
		l-0.463,0.159L267.729,62.178z M264.484,63.295l0.461-0.16l-2.393-6.952l-0.463,0.16L264.484,63.295z M261.238,64.411l0.465-0.16
		l-2.394-6.952l-0.463,0.161L261.238,64.411z"/>
	<path clip-path="url(#SVGID_15_)" fill="#727171" d="M261.74,68.809c0,0.082,0.004,0.163,0.012,0.245h-0.992v-2.451h2.129
		C262.196,67.091,261.74,67.898,261.74,68.809"/>
	<path clip-path="url(#SVGID_15_)" fill="#727171" d="M265.983,66.603h3.108v2.451h-1.972c0.008-0.081,0.013-0.163,0.013-0.245
		C267.133,67.898,266.678,67.092,265.983,66.603"/>
	<path clip-path="url(#SVGID_15_)" fill="#727171" d="M264.436,66.603c1.215,0,2.207,0.99,2.207,2.206
		c0,1.215-0.992,2.205-2.207,2.205s-2.205-0.99-2.205-2.205C262.23,67.593,263.221,66.603,264.436,66.603 M264.436,70.034
		c0.676,0,1.226-0.552,1.226-1.226c0-0.675-0.55-1.226-1.226-1.226c-0.674,0-1.226,0.551-1.226,1.226
		C263.21,69.482,263.762,70.034,264.436,70.034"/>
	<path clip-path="url(#SVGID_15_)" fill="#727171" d="M270.072,66.603h4.412c0.27,0,0.49,0.221,0.49,0.491v1.96
		c0,0.269-0.221,0.489-0.49,0.489h-4.412c-0.27,0-0.49-0.221-0.49-0.489v-1.96C269.582,66.823,269.803,66.603,270.072,66.603"/>
	<path clip-path="url(#SVGID_15_)" fill="#727171" d="M345.389,66.501c1.243,0,2.256,1.016,2.256,2.257
		c0,1.243-1.013,2.257-2.256,2.257s-2.255-1.014-2.255-2.257C343.134,67.517,344.146,66.501,345.389,66.501 M345.389,70.011
		c0.691,0,1.254-0.563,1.254-1.253c0-0.689-0.563-1.254-1.254-1.254c-0.689,0-1.253,0.564-1.253,1.254
		C344.136,69.448,344.699,70.011,345.389,70.011"/>
	<path clip-path="url(#SVGID_15_)" fill="#727171" d="M343.134,58.731c0-0.14,0.112-0.251,0.25-0.251h5.232
		c0.148,0,0.279,0.099,0.319,0.241l1.068,3.751c0.093,0.33,0.147,0.678,0.147,1.021v5.265c0,0.139-0.111,0.25-0.25,0.25h-1.755
		v-0.25c0-1.519-1.24-2.757-2.758-2.757s-2.757,1.238-2.757,2.757v0.25h-0.501v-2.507h1.003V58.731z M345.139,64.998h0.501v-1.003
		h-0.501V64.998z M345.139,62.992h4.512l-1.003-3.509h-3.509V62.992z"/>
	<path clip-path="url(#SVGID_15_)" fill="#00AA7B" d="M325.084,60.485v-3.51c0-0.274,0.227-0.501,0.502-0.501h16.043
		c0.275,0,0.502,0.227,0.502,0.501v8.523c0,0.275-0.227,0.502-0.502,0.502h-16.545l-2.005-0.502L325.084,60.485z M338.62,64.998
		h0.501v-7.521h-0.501V64.998z M335.112,64.998h0.501v-7.521h-0.501V64.998z M331.602,64.998h0.501v-7.521h-0.501V64.998z
		 M328.093,64.998h0.501v-7.521h-0.501V64.998z"/>
	<path clip-path="url(#SVGID_15_)" fill="#727171" d="M328.093,68.758c0,0.084,0.004,0.168,0.012,0.25h-1.014v-2.506h2.177
		C328.559,67.002,328.093,67.828,328.093,68.758"/>
	<path clip-path="url(#SVGID_15_)" fill="#727171" d="M332.433,66.502h3.18v2.507h-2.016c0.007-0.083,0.011-0.167,0.011-0.251
		C333.607,67.827,333.142,67.002,332.433,66.502"/>
	<path clip-path="url(#SVGID_15_)" fill="#727171" d="M330.851,66.501c1.242,0,2.256,1.016,2.256,2.257
		c0,1.243-1.014,2.257-2.256,2.257c-1.243,0-2.257-1.014-2.257-2.257C328.594,67.517,329.607,66.501,330.851,66.501 M330.851,70.011
		c0.69,0,1.253-0.563,1.253-1.253c0-0.689-0.563-1.254-1.253-1.254s-1.255,0.564-1.255,1.254
		C329.596,69.448,330.16,70.011,330.851,70.011"/>
	<path clip-path="url(#SVGID_15_)" fill="#727171" d="M336.616,66.502h4.512c0.276,0,0.501,0.225,0.501,0.502v2.005
		c0,0.275-0.225,0.501-0.501,0.501h-4.512c-0.275,0-0.501-0.226-0.501-0.501v-2.005C336.115,66.728,336.341,66.502,336.616,66.502"
		/>
</g>
<polygon fill="#FEEE29" points="86.948,29.76 91.604,29.76 91.498,27.78 87.054,27.78 "/>
<polygon fill="#0073BB" points="91.298,25.256 91.201,23.446 91.097,21.511 91,19.701 90.896,17.766 90.799,15.956 90.693,13.977 
	87.859,13.977 87.753,15.956 87.657,17.766 87.553,19.701 87.456,21.511 87.352,23.446 87.255,25.256 87.151,27.191 91.402,27.191 
	"/>
<polygon fill="#FBC728" points="87.054,27.779 91.498,27.779 91.401,25.97 87.151,25.97 "/>
<rect x="83" y="27.331" fill="#00538D" width="7.997" height="9.009"/>
<rect x="81.684" y="25.882" fill="#00538D" width="11.438" height="1.62"/>
<rect x="84.215" y="28.344" fill="#FFFFFF" width="2.024" height="2.024"/>
<rect x="87.96" y="28.344" fill="#FFFFFF" width="2.024" height="2.024"/>
<polygon fill="#00538D" points="95.855,24.193 95.855,36.339 89.377,36.339 89.377,28.342 "/>
<rect x="90.94" y="28.85" fill="#FFFFFF" width="0.823" height="5.668"/>
<rect x="93.37" y="28.85" fill="#FFFFFF" width="0.822" height="5.668"/>
<polygon fill="#00538D" points="102.03,24.193 102.03,36.339 95.552,36.339 95.552,28.342 "/>
<rect x="97.115" y="28.85" fill="#FFFFFF" width="0.823" height="5.668"/>
<rect x="99.544" y="28.85" fill="#FFFFFF" width="0.823" height="5.668"/>
<g>
	<defs>
		<rect id="SVGID_16_" width="516.922" height="162.304"/>
	</defs>
	<clipPath id="SVGID_17_">
		<use xlink:href="#SVGID_16_"  overflow="visible"/>
	</clipPath>
	
		<rect x="51.328" y="0.25" clip-path="url(#SVGID_17_)" fill="none" stroke="#000000" stroke-width="0.5" width="465.344" height="154.291"/>
</g>
<text transform="matrix(1 0 0 1 7.0034 148.8003)" fill="#808081" font-family="'SDGdGulim-KSCpc-EUC-H'" font-size="18">원본</text>
</svg>
