<?xml version="1.0" encoding="utf-8"?>
<!-- Generator: Adobe Illustrator 16.0.0, SVG Export Plug-In . SVG Version: 6.00 Build 0)  -->
<!DOCTYPE svg PUBLIC "-//W3C//DTD SVG 1.1//EN" "http://www.w3.org/Graphics/SVG/1.1/DTD/svg11.dtd">
<svg version="1.1" id="레이어_1" xmlns="http://www.w3.org/2000/svg" xmlns:xlink="http://www.w3.org/1999/xlink" x="0px"
	 y="0px" width="1009.974px" height="333.857px" viewBox="0 0 1009.974 333.857" enable-background="new 0 0 1009.974 333.857"
	 xml:space="preserve">
<g>
	<rect x="225.857" y="256.792" fill="#54AEA0" width="17.578" height="17.579"/>
	<rect x="225.857" y="287.184" fill="#91BA52" width="17.578" height="17.576"/>
	<rect x="225.857" y="316.278" fill="#C6A711" width="17.578" height="17.579"/>
	<g>
		<path fill="#231815" d="M262.446,269.767c-0.67-0.43-1.752-1.163-2.663-2.291c-0.928-1.163-1.46-2.345-1.667-3.024
			c-0.155,0.662-0.67,1.844-1.667,3.168c-0.773,1.021-1.838,1.951-2.646,2.487l-1.031-0.895c1.134-0.698,2.457-1.915,3.333-3.293
			c0.911-1.45,1.34-3.348,1.34-5.084v-2.738h1.323v2.738c0,1.736,0.378,3.49,1.443,5.065c0.894,1.36,2.216,2.381,3.127,2.899
			L262.446,269.767z M265.212,272.917v-9.128h-3.763v-1.128h3.763v-5.495h1.289v15.751H265.212z"/>
		<path fill="#231815" d="M275.833,265.024v1.611h4.793v3.544h-9.639v1.485h10v1.074h-11.374v-3.598h9.622v-1.45h-9.622v-1.056
			h4.879v-1.611h-6.941v-1.073h15.12v1.073H275.833z M280.816,259.887c0,1.593-2.01,2.792-5.705,2.792
			c-3.677,0-5.704-1.199-5.704-2.792s2.027-2.81,5.704-2.81C278.806,257.078,280.816,258.384,280.816,259.887z M270.765,259.887
			c0,1.021,1.77,1.808,4.347,1.808c2.543,0,4.347-0.787,4.347-1.808c0-1.056-1.787-1.808-4.347-1.808
			C272.517,258.08,270.765,258.813,270.765,259.887z"/>
		<path fill="#231815" d="M288.927,271.271v-9.486h-2.474v-0.967c0.67,0,1.254-0.179,1.89-0.626
			c0.464-0.358,0.825-0.984,0.859-1.647h0.876v12.727H288.927z"/>
		<path fill="#231815" d="M296.128,271.647c0,0.411-0.121,0.858-0.43,1.288c-0.292,0.412-0.705,0.573-1.031,0.716l-0.447-0.572
			c0.601-0.071,1.031-0.573,1.031-0.948h-1.065v-1.719h1.942V271.647z"/>
		<path fill="#231815" d="M301.798,271.271v-9.486h-2.474v-0.967c0.67,0,1.254-0.179,1.89-0.626
			c0.464-0.358,0.825-0.984,0.859-1.647h0.876v12.727H301.798z"/>
		<path fill="#231815" d="M315.063,261.426c0.533,1.629,0.567,5.029-0.189,7.017c-0.705,1.986-1.993,3.132-3.917,3.168
			c-2.182,0.071-3.677-1.79-3.866-3.508h1.134c0.207,1.234,1.168,2.434,2.784,2.434c1.512,0,2.165-0.948,2.68-2.237
			c0.464-1.163,0.516-2.452,0.43-3.149c-0.67,1.056-1.873,1.861-3.437,1.735c-2.216-0.161-3.729-2.111-3.66-4.438
			c0.069-2.47,1.77-4.224,4.038-4.224C313.07,258.223,314.462,259.547,315.063,261.426z M313.947,262.518
			c0-1.879-1.151-3.222-2.852-3.222c-1.684,0-2.835,1.325-2.835,3.222c0,1.915,1.151,3.275,2.835,3.275
			C312.795,265.793,313.947,264.416,313.947,262.518z"/>
		<path fill="#231815" d="M324.257,267.297c-0.086,2.774-2.027,4.313-4.038,4.313c-2.354,0-3.849-1.736-4.089-3.526h1.134
			c0.103,1.038,1.168,2.435,2.869,2.435c1.77,0,2.835-1.414,2.904-3.168c0.086-1.969-1.134-3.383-2.715-3.437
			c-1.512-0.054-2.371,0.752-2.8,1.396h-1.031l0.876-6.604h6.409v1.038l-5.446,0.019l-0.516,3.955
			c0.808-0.662,1.924-0.966,2.835-0.895C322.418,263.001,324.36,264.541,324.257,267.297z"/>
		<path fill="#231815" d="M327.316,271.647c0,0.411-0.121,0.858-0.43,1.288c-0.292,0.412-0.705,0.573-1.031,0.716l-0.447-0.572
			c0.601-0.071,1.031-0.573,1.031-0.948h-1.065v-1.719h1.942V271.647z"/>
		<path fill="#231815" d="M337.986,264.899c0,3.884-1.546,6.641-4.381,6.641c-2.834,0-4.347-2.757-4.347-6.641
			c0-3.849,1.512-6.604,4.347-6.604C336.44,258.294,337.986,261.05,337.986,264.899z M336.664,264.899
			c0-3.132-1.048-5.495-3.059-5.495c-1.976,0-3.041,2.363-3.041,5.495c0,3.168,1.065,5.53,3.041,5.53
			C335.615,270.429,336.664,268.067,336.664,264.899z"/>
		<path fill="#231815" d="M347.644,264.899c0,3.884-1.546,6.641-4.381,6.641c-2.834,0-4.347-2.757-4.347-6.641
			c0-3.849,1.512-6.604,4.347-6.604C346.097,258.294,347.644,261.05,347.644,264.899z M346.321,264.899
			c0-3.132-1.048-5.495-3.059-5.495c-1.976,0-3.041,2.363-3.041,5.495c0,3.168,1.065,5.53,3.041,5.53
			C345.272,270.429,346.321,268.067,346.321,264.899z"/>
		<path fill="#231815" d="M357.301,264.899c0,3.884-1.546,6.641-4.381,6.641c-2.835,0-4.347-2.757-4.347-6.641
			c0-3.849,1.512-6.604,4.347-6.604C355.755,258.294,357.301,261.05,357.301,264.899z M355.979,264.899
			c0-3.132-1.048-5.495-3.058-5.495c-1.976,0-3.042,2.363-3.042,5.495c0,3.168,1.065,5.53,3.042,5.53
			C354.93,270.429,355.979,268.067,355.979,264.899z"/>
		<path fill="#231815" d="M358.11,267.387v-1.11h6.873v-1.969h-4.811v-6.658h11.031v1.109h-9.725v1.665h9.69v1.074h-9.69v1.682
			h9.862v1.128h-5v1.969h6.89v1.11H358.11z M360.172,272.559v-4.188h1.289v3.078h10.188v1.109H360.172z"/>
	</g>
	<g>
		<path fill="#231815" d="M261.69,291.212c0,2.201-1.735,3.991-4.141,3.991c-2.423,0-4.141-1.79-4.141-3.991
			c0-2.202,1.718-3.992,4.141-3.992C259.955,287.22,261.69,289.01,261.69,291.212z M254.766,291.212
			c0,1.557,1.014,2.792,2.784,2.792c1.804,0,2.783-1.235,2.783-2.792c0-1.558-0.979-2.811-2.783-2.811
			C255.78,288.402,254.766,289.655,254.766,291.212z M255.883,302.058v-4.904h1.289v3.813h9.673v1.092H255.883z M265.178,298.103
			v-11.438h1.271v11.438H265.178z"/>
		<path fill="#231815" d="M277.19,296.062c-0.481-0.143-1.563-0.697-2.543-1.557c-0.739-0.645-1.426-1.558-1.598-2.022
			c-0.138,0.411-0.791,1.449-1.649,2.22c-0.979,0.858-2.113,1.503-2.629,1.735l-0.894-1.002c0.705-0.305,1.701-0.787,2.835-1.772
			c0.911-0.823,1.632-2.184,1.667-3.132v-0.161h-3.522v-1.092h8.384v1.092h-3.522v0.161c0.017,0.931,0.653,2.13,1.563,2.918
			c0.997,0.895,2.044,1.413,2.577,1.557L277.19,296.062z M270.662,287.847v-1.092h4.776v1.092H270.662z M270.919,302.058v-4.886
			h1.306v3.776h9.776v1.109H270.919z M280.317,298.121v-5.423h-3.282v-1.128h3.282v-4.904h1.271v11.455H280.317z"/>
		<path fill="#231815" d="M305.664,296.868c-0.068,2.452-1.787,4.242-4.038,4.242c-2.044,0-3.402-1.396-3.986-3.293
			c-0.516-1.611-0.516-4.958,0.206-6.945c0.722-1.969,2.01-3.132,3.917-3.149c2.199-0.036,3.643,1.789,3.849,3.49h-1.134
			c-0.206-1.182-1.134-2.417-2.731-2.417c-1.546,0-2.217,1.003-2.698,2.237c-0.464,1.164-0.515,2.506-0.447,3.187
			c0.636-1.128,1.873-1.897,3.437-1.772C304.238,292.608,305.75,294.542,305.664,296.868z M304.478,296.796
			c0-1.897-1.185-3.258-2.886-3.258s-2.818,1.36-2.818,3.258c0,1.879,1.117,3.258,2.818,3.258S304.478,298.675,304.478,296.796z"/>
		<path fill="#231815" d="M313.998,298.335v2.435h-1.134v-2.435h-5.894v-1.342l5.876-8.968h1.151v9.289h1.855v1.021H313.998z
			 M312.864,289.959l-4.777,7.355h4.777V289.959z"/>
		<path fill="#231815" d="M324.601,290.925c0.533,1.629,0.567,5.029-0.189,7.017c-0.705,1.986-1.993,3.132-3.917,3.168
			c-2.182,0.071-3.677-1.79-3.866-3.508h1.134c0.207,1.234,1.168,2.434,2.784,2.434c1.512,0,2.165-0.948,2.68-2.237
			c0.464-1.163,0.516-2.452,0.43-3.149c-0.67,1.056-1.873,1.861-3.437,1.735c-2.216-0.161-3.729-2.111-3.66-4.438
			c0.069-2.47,1.77-4.224,4.038-4.224C322.607,287.722,323.999,289.046,324.601,290.925z M323.484,292.017
			c0-1.879-1.151-3.222-2.852-3.222c-1.684,0-2.835,1.325-2.835,3.222c0,1.915,1.151,3.275,2.835,3.275
			C322.333,295.292,323.484,293.915,323.484,292.017z"/>
		<path fill="#231815" d="M328.21,301.146c0,0.411-0.121,0.858-0.43,1.288c-0.292,0.412-0.705,0.573-1.031,0.716l-0.447-0.572
			c0.601-0.071,1.031-0.573,1.031-0.949h-1.065v-1.718h1.942V301.146z"/>
		<path fill="#231815" d="M338.536,294.398c0,3.884-1.546,6.641-4.381,6.641c-2.834,0-4.347-2.757-4.347-6.641
			c0-3.849,1.512-6.604,4.347-6.604C336.99,287.793,338.536,290.549,338.536,294.398z M337.213,294.398
			c0-3.132-1.048-5.495-3.059-5.495c-1.976,0-3.041,2.363-3.041,5.495c0,3.168,1.065,5.53,3.041,5.53
			C336.165,299.928,337.213,297.566,337.213,294.398z"/>
		<path fill="#231815" d="M348.193,294.398c0,3.884-1.546,6.641-4.381,6.641c-2.834,0-4.347-2.757-4.347-6.641
			c0-3.849,1.512-6.604,4.347-6.604C346.647,287.793,348.193,290.549,348.193,294.398z M346.871,294.398
			c0-3.132-1.048-5.495-3.059-5.495c-1.976,0-3.041,2.363-3.041,5.495c0,3.168,1.065,5.53,3.041,5.53
			C345.822,299.928,346.871,297.566,346.871,294.398z"/>
		<path fill="#231815" d="M357.851,294.398c0,3.884-1.546,6.641-4.381,6.641c-2.835,0-4.347-2.757-4.347-6.641
			c0-3.849,1.512-6.604,4.347-6.604C356.305,287.793,357.851,290.549,357.851,294.398z M356.528,294.398
			c0-3.132-1.048-5.495-3.058-5.495c-1.976,0-3.042,2.363-3.042,5.495c0,3.168,1.065,5.53,3.042,5.53
			C355.48,299.928,356.528,297.566,356.528,294.398z"/>
		<path fill="#231815" d="M358.66,296.886v-1.11h6.873v-1.969h-4.811v-6.658h11.031v1.109h-9.725v1.665h9.69v1.074h-9.69v1.682
			h9.862v1.128h-5v1.969h6.89v1.11H358.66z M360.722,302.058v-4.188h1.289v3.078h10.188v1.109H360.722z"/>
	</g>
	<g>
		<path fill="#231815" d="M258.907,322.734c-1.873,1.664-3.471,2.291-4.863,2.72l-0.739-0.912c1.186-0.358,2.784-0.913,4.398-2.256
			c1.701-1.432,2.217-3.042,2.32-3.865h-5.756v-1.092h7.302C261.381,319.351,260.471,321.337,258.907,322.734z M261.175,332.22
			c-3.625,0-5.566-1.307-5.566-3.133c0-1.825,1.941-3.168,5.566-3.168c3.643,0,5.567,1.343,5.567,3.168
			C266.742,330.914,264.817,332.22,261.175,332.22z M261.192,327.029c-2.491,0-4.227,0.77-4.227,2.076
			c0,1.253,1.735,2.041,4.227,2.041c2.457,0,4.209-0.788,4.209-2.041C265.401,327.798,263.649,327.029,261.192,327.029z
			 M265.178,325.722v-2.541h-3.299v-1.11h3.299v-2.184h-3.041v-1.109h3.041v-2.613h1.271v9.558H265.178z"/>
		<path fill="#231815" d="M274.063,324.899c-1.478,2.041-3.024,3.275-4.742,4.206l-0.979-0.805c1.512-0.788,3.316-2.095,4.519-3.777
			c1.357-1.915,1.924-4.045,2.079-5.387h-5.687v-1.092h7.147C276.263,320.048,275.575,322.841,274.063,324.899z M280.111,331.916
			v-15.751h1.289v15.751H280.111z"/>
		<path fill="#231815" d="M290.13,330.269v-9.486h-2.474v-0.967c0.67,0,1.254-0.179,1.89-0.626c0.464-0.358,0.825-0.984,0.859-1.647
			h0.876v12.727H290.13z"/>
		<path fill="#231815" d="M297.142,330.645c0,0.411-0.121,0.858-0.43,1.288c-0.292,0.412-0.705,0.573-1.031,0.716l-0.447-0.572
			c0.601-0.071,1.031-0.573,1.031-0.948h-1.065v-1.719h1.941V330.645z"/>
		<path fill="#231815" d="M302.468,330.269v-9.486h-2.474v-0.967c0.67,0,1.254-0.179,1.89-0.626
			c0.464-0.358,0.825-0.984,0.859-1.647h0.876v12.727H302.468z"/>
		<path fill="#231815" d="M315.407,326.295c-0.086,2.774-2.027,4.313-4.038,4.313c-2.354,0-3.849-1.736-4.089-3.526h1.134
			c0.103,1.038,1.168,2.435,2.869,2.435c1.77,0,2.835-1.414,2.904-3.168c0.086-1.969-1.134-3.383-2.715-3.437
			c-1.512-0.054-2.371,0.752-2.8,1.396h-1.031l0.876-6.604h6.409v1.038l-5.446,0.019l-0.516,3.955
			c0.808-0.662,1.924-0.966,2.835-0.895C313.568,322,315.51,323.539,315.407,326.295z"/>
		<path fill="#231815" d="M320.064,330.269v-9.486h-2.474v-0.967c0.67,0,1.254-0.179,1.89-0.626
			c0.464-0.358,0.825-0.984,0.859-1.647h0.876v12.727H320.064z"/>
		<path fill="#231815" d="M327.076,330.645c0,0.411-0.121,0.858-0.43,1.288c-0.292,0.412-0.705,0.573-1.031,0.716l-0.447-0.572
			c0.601-0.071,1.031-0.573,1.031-0.948h-1.065v-1.719h1.942V330.645z"/>
		<path fill="#231815" d="M337.917,323.897c0,3.884-1.546,6.641-4.381,6.641c-2.835,0-4.347-2.757-4.347-6.641
			c0-3.849,1.512-6.604,4.347-6.604C336.371,317.292,337.917,320.048,337.917,323.897z M336.595,323.897
			c0-3.132-1.048-5.495-3.058-5.495c-1.976,0-3.042,2.363-3.042,5.495c0,3.168,1.065,5.53,3.042,5.53
			C335.546,329.427,336.595,327.065,336.595,323.897z"/>
		<path fill="#231815" d="M347.575,323.897c0,3.884-1.546,6.641-4.381,6.641c-2.834,0-4.347-2.757-4.347-6.641
			c0-3.849,1.512-6.604,4.347-6.604C346.029,317.292,347.575,320.048,347.575,323.897z M346.252,323.897
			c0-3.132-1.048-5.495-3.059-5.495c-1.976,0-3.041,2.363-3.041,5.495c0,3.168,1.065,5.53,3.041,5.53
			C345.204,329.427,346.252,327.065,346.252,323.897z"/>
		<path fill="#231815" d="M357.232,323.897c0,3.884-1.546,6.641-4.381,6.641c-2.834,0-4.347-2.757-4.347-6.641
			c0-3.849,1.512-6.604,4.347-6.604C355.686,317.292,357.232,320.048,357.232,323.897z M355.91,323.897
			c0-3.132-1.048-5.495-3.059-5.495c-1.976,0-3.041,2.363-3.041,5.495c0,3.168,1.065,5.53,3.041,5.53
			C354.861,329.427,355.91,327.065,355.91,323.897z"/>
		<path fill="#231815" d="M358.196,326.385v-1.11h6.873v-1.969h-4.811v-6.658h11.031v1.109h-9.725v1.665h9.69v1.074h-9.69v1.682
			h9.862v1.128h-5v1.969h6.89v1.11H358.196z M360.258,331.557v-4.188h1.289v3.078h10.188v1.109H360.258z"/>
	</g>
	<g>
		<path fill="#FFFFFF" d="M137.601,275.203c75.995,0,137.601-61.605,137.601-137.601C275.202,61.606,213.596,0,137.601,0
			C61.606,0,0,61.606,0,137.602C0,213.597,61.606,275.203,137.601,275.203"/>
		<path fill="#C6A512" d="M137.072,137.413l-85.537,99.109C-3.201,188.94-9.31,105.995,38.272,51.259
			c25.552-29.393,59.8-45.166,98.8-45.166V137.413z"/>
		<path fill="none" stroke="#FFFFFF" stroke-miterlimit="10" d="M137.072,137.413l-85.537,99.109
			C-3.201,188.94-9.31,105.995,38.272,51.259c25.552-29.393,59.8-45.166,98.8-45.166V137.413z"/>
		<path fill="#90B952" d="M138.306,137.413l79.031,104.877c-50.16,37.799-117.783,35.438-165.184-5.768L138.306,137.413z"/>
		<path fill="none" stroke="#FFFFFF" stroke-miterlimit="10" d="M138.306,137.413l79.031,104.877
			c-50.16,37.799-117.783,35.438-165.184-5.768L138.306,137.413z"/>
		<path fill="#54ACA0" d="M137.072,137.413V6.093c72,0,131.938,58.792,131.938,131.32c0,43.154-18.134,78.906-52.598,104.877
			L137.072,137.413z"/>
		<path fill="none" stroke="#FFFFFF" stroke-miterlimit="10" d="M137.072,137.413V6.093c72,0,131.938,58.792,131.938,131.32
			c0,43.154-18.134,78.906-52.598,104.877L137.072,137.413z"/>
		<path fill="#FFFFFF" d="M199.697,137.602c0,33.906-27.485,61.393-61.392,61.393c-33.906,0-61.392-27.486-61.392-61.393
			s27.486-61.393,61.392-61.393C172.212,76.209,199.697,103.696,199.697,137.602"/>
	</g>
	<g>
		<path fill="#FFFFFF" d="M221.978,118.441c-0.748-0.456-1.659-1.045-2.571-2.09c-0.711-0.816-1.167-1.52-1.55-2.317
			c-0.401,0.931-0.948,1.69-1.805,2.697c-0.711,0.836-1.44,1.387-2.334,2.014l-1.604-1.425c1.44-0.931,2.607-2.014,3.41-3.419
			c0.93-1.615,1.204-3.382,1.204-5.281v-2.755h2.206v2.755c0,1.443,0.274,3.913,1.386,5.471c0.984,1.368,2.024,2.185,3.027,2.773
			L221.978,118.441z M224.987,121.651v-9.347h-3.228v-2.07h3.228v-5.3h2.115v16.717H224.987z"/>
		<path fill="#FFFFFF" d="M237.299,113.369v1.159h4.833v4.236h-9.719v0.949h10.102v1.748h-12.417v-4.236h9.701v-0.95h-9.701v-1.747
			h4.905v-1.159h-6.911v-1.805h16.046v1.805H237.299z M236.114,110.69c-3.847,0-6.272-1.063-6.272-2.926
			c0-1.747,2.425-2.944,6.272-2.944c3.829,0,6.272,1.254,6.272,2.944C242.387,109.645,239.943,110.69,236.114,110.69z
			 M236.114,106.397c-2.188,0-3.92,0.589-3.92,1.367c0,0.665,1.459,1.368,3.92,1.368c2.407,0,3.92-0.646,3.92-1.33
			C240.035,107.024,238.266,106.397,236.114,106.397z"/>
	</g>
	<g>
		<path fill="#595757" d="M119.616,108.371c-2.261,0-4.358-1.576-4.358-3.933c0-2.336,2.061-3.913,4.358-3.913
			c2.279,0,4.358,1.577,4.358,3.913C123.974,106.775,121.896,108.371,119.616,108.371z M119.616,102.462
			c-1.148,0-2.188,0.874-2.188,1.938c0,1.103,1.04,1.995,2.188,1.995c1.149,0,2.188-0.893,2.188-1.995
			C121.804,103.318,120.765,102.462,119.616,102.462z M117.629,116.578v-4.445h9.299v-1.026h-9.299v-1.767h11.67v4.427h-9.318v1.025
			h9.719v1.786H117.629z M127.202,108.75v-8.7h2.115v8.7H127.202z"/>
		<path fill="#595757" d="M140.736,105.445h2.371v-1.311h-2.371v-1.748h2.371v-2.336h2.115v10.183h-2.115v-3.04h-2.079v1.71
			c-1.313,0.151-2.681,0.228-4.048,0.285c-2.042,0.095-6.017,0.075-6.236,0.075v-1.956h2.061l-0.255-3.856h2.115l0.2,3.856
			c1.058-0.02,1.094-0.02,1.86-0.038l0.164-3.818h2.097l-0.182,3.704c0.894-0.038,1.203-0.076,1.933-0.171V105.445z M131.2,102.786
			v-1.938h9.245v1.938H131.2z M139.059,116.996c-4.066,0-6.364-1.349-6.364-3.249c0-1.918,2.297-3.343,6.364-3.343
			c4.084,0,6.382,1.405,6.382,3.324S143.144,116.996,139.059,116.996z M139.077,112.208c-2.407,0-3.884,0.569-3.884,1.5
			c0,0.894,1.477,1.539,3.884,1.539c2.371,0,3.847-0.607,3.847-1.501C142.924,112.816,141.448,112.208,139.077,112.208z"/>
		<path fill="#595757" d="M158.465,108.75v4.047h-2.151v-4.047h-2.243v4.047h-2.169v-4.047h-5.762v-1.919h11.287
			c0.164-0.854,0.492-2.906,0.638-4.273h-10.157v-1.919h12.6c0,0.551-0.292,2.679-0.474,3.761c-0.183,1.064-0.383,1.938-0.474,2.432
			h2.625v1.919H158.465z M148.345,116.387v-5.243h2.115v3.382h10.266v1.861H148.345z"/>
	</g>
	<g>
		<path fill="#595757" d="M115.258,132.767v-9.1h2.115v2.679h3.993v-2.679h2.115v9.1H115.258z M117.082,139.397v-5.205h2.152v3.287
			h9.682v1.918H117.082z M121.367,128.303h-3.993v2.526h3.993V128.303z M128.387,129.595v5.565h-2.115V123.06h2.115v4.54h2.206
			v1.995H128.387z"/>
		<path fill="#595757" d="M135.485,131.38c-2.261,0-4.358-1.576-4.358-3.933c0-2.336,2.061-3.913,4.358-3.913
			c2.279,0,4.358,1.577,4.358,3.913C139.843,129.785,137.764,131.38,135.485,131.38z M135.485,125.472
			c-1.148,0-2.188,0.874-2.188,1.938c0,1.103,1.04,1.995,2.188,1.995c1.149,0,2.188-0.893,2.188-1.995
			C137.673,126.328,136.634,125.472,135.485,125.472z M133.516,139.587v-6.991h2.188v1.729h7.312v-1.729h2.152v6.991H133.516z
			 M143.016,136.187h-7.312v1.539h7.312V136.187z M143.07,131.855v-8.795h2.115v8.795H143.07z"/>
		<path fill="#595757" d="M150.515,132.71l-3.72,0.019v-5.376h5.981v-1.614h-5.981v-1.881h8.096v5.338h-5.981v1.672l2.48-0.02
			c1.55-0.019,4.012-0.228,5.179-0.38v1.824C155.347,132.463,152.703,132.691,150.515,132.71z M154.107,140.005
			c-4.03,0-6.2-1.33-6.2-3.249c0-1.899,2.17-3.248,6.2-3.248c4.048,0,6.2,1.349,6.2,3.248
			C160.307,138.675,158.155,140.005,154.107,140.005z M154.125,135.294c-2.352,0-3.92,0.513-3.92,1.481
			c0,0.95,1.568,1.463,3.92,1.463c2.316,0,3.848-0.513,3.848-1.463C157.973,135.807,156.441,135.294,154.125,135.294z
			 M159.924,130.735v2.526h-2.115V123.06h2.115v1.899h2.225v1.881h-2.225v2.014h2.225v1.881H159.924z"/>
	</g>
	<g>
		<path fill="#595757" d="M94.719,157.373c-2.607,0-4.467-1.786-4.467-4.142s1.86-4.16,4.467-4.16c2.608,0,4.486,1.805,4.486,4.16
			S97.327,157.373,94.719,157.373z M101.739,165.275v-4.122h-9.665v-1.957h11.78v6.079H101.739z M94.737,151.008
			c-1.44,0-2.279,1.045-2.279,2.261s0.839,2.242,2.279,2.242c1.458,0,2.279-1.026,2.279-2.242S96.196,151.008,94.737,151.008z
			 M103.818,156.137v2.299h-2.115v-9.878h2.115v2.09h2.279v1.861h-2.279v1.748h2.279v1.88H103.818z"/>
	</g>
	<g>
		<path fill="#595757" d="M107.399,150.602c1.419-0.672,2.773-1.512,4.04-2.521h2.817v16.754h-3.297v-13.033
			c-0.633,0.528-1.899,1.393-3.559,2.137V150.602z"/>
		<path fill="#595757" d="M117.599,161.451l3.952-3.96c0.699-0.696,1.485-1.464,2.293-2.544c0.852-1.128,1.048-1.656,1.048-2.425
			c0-1.271-0.677-2.136-1.813-2.136c-1.747,0-1.899,1.968-1.921,2.448h-3.341c0-0.672,0-1.92,0.896-3.145
			c0.873-1.2,2.489-1.824,4.345-1.824c3.319,0,5.153,1.969,5.153,4.561c0,1.729-0.611,3.96-7.206,9.793
			c2.206-0.048,2.467-0.072,4.192-0.096c2.336-0.048,2.599-0.048,3.101-0.072v2.784h-10.699V161.451z"/>
		<path fill="#595757" d="M134.24,161.643l-2.599,5.904h-2.249l1.616-5.904H134.24z"/>
		<path fill="#595757" d="M140.552,147.842c2.14,0,3.406,1.271,3.974,2.208c0.786,1.272,1.375,2.904,1.375,6.049
			c0,3.888-0.808,9-5.393,9c-3.909,0-5.263-4.128-5.263-8.593C135.246,154.275,135.661,147.842,140.552,147.842z M142.233,152.571
			c-0.087-0.456-0.458-1.944-1.659-1.944c-0.939,0-1.354,0.936-1.507,1.439c-0.502,1.704-0.502,4.272-0.502,4.681
			c0,2.856,0.393,5.521,2.03,5.521c1.747,0,2.031-3.264,2.031-5.568C142.626,155.643,142.517,153.674,142.233,152.571z"/>
		<path fill="#595757" d="M152.695,147.842c2.14,0,3.406,1.271,3.974,2.208c0.786,1.272,1.375,2.904,1.375,6.049
			c0,3.888-0.808,9-5.393,9c-3.909,0-5.263-4.128-5.263-8.593C147.389,154.275,147.804,147.842,152.695,147.842z M154.376,152.571
			c-0.087-0.456-0.458-1.944-1.659-1.944c-0.939,0-1.354,0.936-1.507,1.439c-0.502,1.704-0.502,4.272-0.502,4.681
			c0,2.856,0.393,5.521,2.03,5.521c1.747,0,2.031-3.264,2.031-5.568C154.769,155.643,154.66,153.674,154.376,152.571z"/>
		<path fill="#595757" d="M164.838,147.842c2.14,0,3.406,1.271,3.974,2.208c0.786,1.272,1.375,2.904,1.375,6.049
			c0,3.888-0.808,9-5.393,9c-3.909,0-5.263-4.128-5.263-8.593C159.532,154.275,159.947,147.842,164.838,147.842z M166.519,152.571
			c-0.087-0.456-0.458-1.944-1.659-1.944c-0.939,0-1.354,0.936-1.507,1.439c-0.502,1.704-0.502,4.272-0.502,4.681
			c0,2.856,0.393,5.521,2.03,5.521c1.747,0,2.031-3.264,2.031-5.568C166.912,155.643,166.803,153.674,166.519,152.571z"/>
	</g>
	<g>
		<path fill="#595757" d="M170.729,159.689v-1.919h6.874v-1.349h-4.868v-7.58h12.053v1.806h-9.847v1.158h9.792v1.653h-9.792v1.158
			h10.065v1.805h-5.087v1.349h6.856v1.919H170.729z M172.698,164.894v-4.312h2.297v2.394h10.303v1.918H172.698z"/>
	</g>
	<g>
		<path fill="#FFFFFF" d="M131.218,211.731c0,2.356-1.878,4.274-4.486,4.274s-4.467-1.918-4.467-4.274
			c0-2.355,1.86-4.293,4.467-4.293S131.218,209.375,131.218,211.731z M124.435,211.731c0,1.273,0.82,2.356,2.297,2.356
			c1.495,0,2.316-1.083,2.316-2.356c0-1.291-0.821-2.374-2.316-2.374C125.255,209.357,124.435,210.44,124.435,211.731z
			 M124.617,223.262v-5.356h2.207v3.438h9.919v1.918H124.617z M134.263,219.007v-12.082h2.115v12.082H134.263z"/>
		<path fill="#FFFFFF" d="M147.288,217.126c-0.511-0.152-1.532-0.551-2.553-1.311c-0.693-0.513-1.386-1.235-1.659-1.634
			c-0.182,0.36-0.875,1.254-1.769,1.938c-0.985,0.76-1.842,1.216-2.443,1.463l-1.404-1.653c0.766-0.228,1.732-0.76,2.735-1.538
			c1.003-0.779,1.677-1.843,1.787-2.831h-3.319v-1.843h8.825v1.843h-3.337c0.109,0.912,0.693,1.729,1.568,2.47
			c0.912,0.76,2.042,1.254,2.644,1.425L147.288,217.126z M140.431,208.73v-1.786h5.361v1.786H140.431z M140.759,223.262v-5.281
			h2.115v3.363h9.919v1.918H140.759z M150.314,219.064v-5.053h-2.881v-1.919h2.881v-5.167h2.115v12.139H150.314z"/>
	</g>
	<g>
		<path fill="#FFFFFF" d="M36.718,86.483c-1.678,1.558-3.428,2.337-5.051,2.812l-1.276-1.463c1.44-0.437,2.753-0.987,4.194-2.108
			c1.458-1.14,2.06-2.299,2.243-3.344h-5.47v-1.918h8.041C39.398,82.228,38.468,84.849,36.718,86.483z M38.687,96.362
			c-4.03,0-6.2-1.463-6.2-3.495c0-2.033,2.17-3.534,6.2-3.534c4.048,0,6.2,1.501,6.2,3.534
			C44.887,94.899,42.735,96.362,38.687,96.362z M38.705,91.137c-2.352,0-3.938,0.685-3.938,1.729c0,1.044,1.586,1.767,3.938,1.767
			c2.316,0,3.957-0.723,3.957-1.748C42.662,91.822,41.021,91.137,38.705,91.137z M42.625,89.181v-1.824h-3.173v-1.861h3.173v-1.748
			h-2.899v-1.881h2.899v-2.45h2.115v9.765H42.625z"/>
		<path fill="#FFFFFF" d="M52.969,88.725c-1.604,2.203-3.3,3.647-5.069,4.578l-1.604-1.292c1.604-0.893,3.355-2.185,4.577-3.875
			c1.349-1.862,1.896-3.4,1.987-4.825h-5.562v-1.9h8.06C55.358,83.311,54.647,86.445,52.969,88.725z M58.439,96.133V79.417h2.115
			v16.717H58.439z"/>
	</g>
	<g>
		<path fill="#FFFFFF" d="M207.073,141.151c0.022,0.528,0.153,2.232,1.965,2.232c1.223,0,1.965-0.984,1.965-2.28
			c0-2.473-2.162-2.473-3.755-2.473v-2.808c1.528-0.048,3.777-0.097,3.777-2.496c0-1.32-0.895-1.992-1.878-1.992
			c-0.939,0-1.856,0.695-1.856,2.088h-3.341c0.065-0.744,0.131-1.8,0.896-2.832c1.004-1.345,2.62-1.849,4.236-1.849
			c3.887,0,5.131,2.736,5.131,4.561c0,2.809-2.249,3.576-2.926,3.792c0.48,0.169,1.113,0.385,1.812,1.032
			c1.07,0.984,1.245,2.209,1.245,3.001c0,2.832-2.358,4.944-5.524,4.944c-1.092,0-2.686-0.265-3.668-1.129
			c-1.354-1.224-1.397-3.12-1.397-3.792H207.073z"/>
		<path fill="#FFFFFF" d="M219.019,141.631c0.087,1.008,0.677,1.632,1.594,1.632c2.271,0,2.445-2.592,2.38-4.896
			c-1.092,1.08-2.074,1.152-2.751,1.152c-3.733,0-4.694-3.265-4.694-5.257c0-3.12,2.031-5.496,5.394-5.496
			c5.24,0,5.371,5.473,5.371,8.16c0,7.081-2.184,9.098-5.874,9.098c-0.852,0-4.716,0-4.716-4.393H219.019z M222.928,134.022
			c0-1.464-0.699-2.544-2.031-2.544c-1.55,0-2.118,1.368-2.118,2.641c0,0.576,0.153,2.64,2.053,2.64
			C222.447,136.758,222.928,135.199,222.928,134.022z"/>
		<path fill="#FFFFFF" d="M228.345,142.519h2.773v3.192h-2.773V142.519z"/>
		<path fill="#FFFFFF" d="M236.382,141.631c0.087,1.008,0.677,1.632,1.594,1.632c2.271,0,2.445-2.592,2.38-4.896
			c-1.092,1.08-2.074,1.152-2.751,1.152c-3.734,0-4.695-3.265-4.695-5.257c0-3.12,2.031-5.496,5.393-5.496
			c5.241,0,5.372,5.473,5.372,8.16c0,7.081-2.184,9.098-5.874,9.098c-0.852,0-4.716,0-4.716-4.393H236.382z M240.291,134.022
			c0-1.464-0.699-2.544-2.031-2.544c-1.55,0-2.118,1.368-2.118,2.641c0,0.576,0.153,2.64,2.053,2.64
			C239.81,136.758,240.291,135.199,240.291,134.022z"/>
		<path fill="#FFFFFF" d="M248.831,127.421c3.035,0,3.559,2.137,3.559,4.393c0,1.2,0,4.801-3.712,4.801
			c-2.577,0-3.494-1.969-3.494-4.561C245.184,130.806,245.206,127.421,248.831,127.421z M248.743,134.646
			c0.743,0,1.267-0.527,1.267-2.808c0-0.984-0.065-2.544-1.179-2.544c-1.288,0-1.288,1.943-1.288,2.664
			C247.542,133.806,247.826,134.646,248.743,134.646z M258.678,127.253L250.381,146h-1.638l8.297-18.746H258.678z M258.875,136.735
			c3.013,0,3.559,2.136,3.559,4.368c0,1.224,0,4.824-3.734,4.824c-2.577,0-3.472-1.992-3.472-4.584
			C255.229,140.119,255.229,136.735,258.875,136.735z M258.788,143.959c0.742,0,1.266-0.528,1.266-2.809
			c0-0.984-0.087-2.544-1.201-2.544c-1.289,0-1.289,1.92-1.289,2.664C257.564,143.095,257.849,143.959,258.788,143.959z"/>
	</g>
	<g>
		<path fill="#FFFFFF" d="M109.514,246.319l3.952-3.96c0.699-0.696,1.485-1.464,2.293-2.544c0.852-1.128,1.048-1.656,1.048-2.425
			c0-1.271-0.677-2.136-1.813-2.136c-1.747,0-1.899,1.968-1.921,2.448h-3.341c0-0.672,0-1.92,0.896-3.145
			c0.873-1.2,2.489-1.824,4.345-1.824c3.319,0,5.153,1.969,5.153,4.561c0,1.729-0.611,3.961-7.206,9.793
			c2.206-0.048,2.467-0.072,4.192-0.096c2.336-0.048,2.599-0.048,3.101-0.072v2.784h-10.699V246.319z"/>
		<path fill="#FFFFFF" d="M122.771,235.47c1.419-0.672,2.773-1.512,4.04-2.521h2.817v16.754h-3.297V236.67
			c-0.633,0.528-1.899,1.393-3.559,2.137V235.47z"/>
		<path fill="#FFFFFF" d="M132.926,246.511h2.773v3.192h-2.773V246.511z"/>
		<path fill="#FFFFFF" d="M137.775,232.974h10.328v2.977l-5.241,13.753h-3.646l5.568-13.945h-7.009V232.974z"/>
		<path fill="#FFFFFF" d="M153.434,231.414c3.035,0,3.559,2.137,3.559,4.393c0,1.2,0,4.801-3.712,4.801
			c-2.577,0-3.494-1.969-3.494-4.561C149.787,234.798,149.809,231.414,153.434,231.414z M153.346,238.638
			c0.743,0,1.267-0.527,1.267-2.808c0-0.984-0.065-2.544-1.179-2.544c-1.288,0-1.288,1.943-1.288,2.664
			C152.146,237.798,152.429,238.638,153.346,238.638z M163.281,231.246l-8.297,18.746h-1.638l8.297-18.746H163.281z
			 M163.478,240.727c3.013,0,3.559,2.136,3.559,4.368c0,1.224,0,4.824-3.734,4.824c-2.577,0-3.472-1.992-3.472-4.584
			C159.832,244.111,159.832,240.727,163.478,240.727z M163.391,247.952c0.742,0,1.266-0.528,1.266-2.809
			c0-0.984-0.087-2.544-1.201-2.544c-1.289,0-1.289,1.92-1.289,2.664C162.167,247.087,162.452,247.952,163.391,247.952z"/>
	</g>
	<g>
		<path fill="#FFFFFF" d="M20.581,117.655c0.022,0.528,0.153,2.232,1.965,2.232c1.223,0,1.965-0.984,1.965-2.28
			c0-2.473-2.162-2.473-3.755-2.473v-2.808c1.528-0.048,3.777-0.097,3.777-2.496c0-1.32-0.895-1.992-1.878-1.992
			c-0.939,0-1.856,0.695-1.856,2.088h-3.341c0.065-0.744,0.131-1.8,0.896-2.832c1.004-1.345,2.62-1.849,4.236-1.849
			c3.887,0,5.131,2.736,5.131,4.561c0,2.809-2.249,3.576-2.926,3.792c0.48,0.169,1.113,0.385,1.812,1.032
			c1.07,0.984,1.245,2.209,1.245,3.001c0,2.832-2.358,4.944-5.524,4.944c-1.092,0-2.686-0.265-3.668-1.129
			c-1.354-1.224-1.397-3.12-1.397-3.792H20.581z"/>
		<path fill="#FFFFFF" d="M29.405,109.854c0-2.04,1.55-4.68,5.262-4.68c3.057,0,5.175,1.92,5.175,4.536
			c0,2.016-1.441,3.408-2.992,3.672c0.611,0.192,1.638,0.48,2.446,1.729c0.524,0.816,0.699,1.68,0.699,2.496
			c0,3.072-2.599,4.872-5.59,4.872c-3.101,0-5.241-2.184-5.241-4.872c0-1.296,0.458-2.232,1.114-2.929
			c0.742-0.792,1.441-1.031,2.009-1.248C31.523,113.167,29.405,112.447,29.405,109.854z M36.785,117.367
			c0-1.512-1.026-2.424-2.184-2.424c-1.266,0-2.184,1.056-2.184,2.472c0,1.704,1.157,2.497,2.206,2.497
			C35.541,119.912,36.785,119.239,36.785,117.367z M36.676,109.902c0-1.368-1.005-2.088-2.031-2.088
			c-1.092,0-1.987,0.816-1.987,2.088c0,1.177,0.764,2.16,1.965,2.16C35.737,112.062,36.676,111.247,36.676,109.902z"/>
		<path fill="#FFFFFF" d="M41.81,119.023h2.773v3.192H41.81V119.023z"/>
		<path fill="#FFFFFF" d="M46.2,118.567v-3.24l6.114-9.865h3.253l-0.022,10.346h2.074v2.76h-2.074v3.648h-3.231v-3.648H46.2z
			 M48.646,115.878h3.843v-4.416c0-0.216,0.021-1.416,0.043-1.849L48.646,115.878z"/>
		<path fill="#FFFFFF" d="M62.317,103.925c3.035,0,3.559,2.137,3.559,4.393c0,1.2,0,4.801-3.712,4.801
			c-2.577,0-3.494-1.969-3.494-4.561C58.67,107.31,58.692,103.925,62.317,103.925z M62.229,111.15c0.743,0,1.267-0.527,1.267-2.808
			c0-0.984-0.065-2.544-1.179-2.544c-1.288,0-1.288,1.943-1.288,2.664C61.029,110.31,61.313,111.15,62.229,111.15z M72.165,103.757
			l-8.297,18.746h-1.638l8.297-18.746H72.165z M72.361,113.239c3.013,0,3.559,2.136,3.559,4.368c0,1.224,0,4.824-3.734,4.824
			c-2.577,0-3.472-1.992-3.472-4.584C68.715,116.623,68.715,113.239,72.361,113.239z M72.274,120.463
			c0.742,0,1.266-0.528,1.266-2.809c0-0.984-0.087-2.544-1.201-2.544c-1.289,0-1.289,1.92-1.289,2.664
			C71.051,119.599,71.335,120.463,72.274,120.463z"/>
	</g>
	<rect x="766.683" y="256.792" fill="#D8DF21" width="17.576" height="17.579"/>
	<rect x="766.683" y="287.184" fill="#91BA52" width="17.576" height="17.576"/>
	<rect x="766.683" y="316.278" fill="#C6A711" width="17.576" height="17.579"/>
	<g>
		<path fill="#231815" d="M803.082,236.858c-0.412-0.215-1.357-0.877-2.131-1.736c-0.687-0.77-1.236-1.754-1.34-2.112
			c-0.068,0.341-0.532,1.343-1.306,2.327c-0.79,0.984-1.701,1.7-2.233,2.005l-0.945-0.842c0.498-0.286,1.804-1.271,2.543-2.38
			c0.688-1.021,1.271-2.435,1.271-4.027v-1.36h1.323v1.36c0,1.593,0.498,2.828,1.186,3.723c0.824,1.074,1.906,1.861,2.456,2.076
			L803.082,236.858z M803.7,244.304c-3.729,0-5.756-1.289-5.756-3.097s2.027-3.133,5.756-3.133c3.746,0,5.756,1.325,5.756,3.133
			S807.446,244.304,803.7,244.304z M803.717,239.149c-2.611,0-4.416,0.787-4.416,2.059c0,1.253,1.805,2.04,4.416,2.04
			c2.56,0,4.381-0.787,4.381-2.022C808.098,239.936,806.277,239.149,803.717,239.149z M808.03,237.878v-4.601h-2.182v4.117h-1.255
			v-8.878h1.255v3.615h2.182v-3.884h1.254v9.63H808.03z"/>
		<path fill="#231815" d="M815.609,237.395l-5.052,0.018v-1.038h4.76v-1.002c-1.907-0.144-3.162-0.859-3.162-1.808
			c0-1.057,1.581-1.826,3.918-1.826c2.319,0,3.9,0.752,3.9,1.844c0,0.967-1.289,1.683-3.265,1.808v0.967
			c1.048,0,3.625-0.232,4.948-0.43v1.056C820.54,237.126,817.688,237.359,815.609,237.395z M811.399,231.184v-1.002h9.175v1.002
			H811.399z M813.272,243.821v-3.114h8.935v-1.146h-8.935v-1.003h10.309v3.097h-8.951v1.163h9.313v1.003H813.272z M816.073,232.688
			c-1.563,0-2.526,0.304-2.526,0.877c0,0.555,0.963,0.895,2.526,0.895c1.58,0,2.508-0.34,2.508-0.895
			C818.581,232.992,817.653,232.688,816.073,232.688z M813.684,229.251v-1.003h4.69v1.003H813.684z M823.581,233.851v3.974h-1.288
			v-9.576h1.288v4.511h2.233v1.092H823.581z"/>
		<path fill="#231815" d="M831.71,240.366c-1.649,0.072-5.498,0.054-5.704,0.054v-1.127h1.787l-0.292-7.429h1.288l0.24,7.429
			c0.929,0,1.357,0,2.045-0.036l0.24-7.393h1.289l-0.292,7.356c1.014-0.054,1.392-0.125,2.079-0.196v1.127
			C833.549,240.258,832.878,240.312,831.71,240.366z M826.333,231.417v-1.127h7.457v1.127H826.333z M835.387,234.12h-1.993v-1.253
			h1.993v-4.26h1.254v14.677h-1.254v-5.835h-1.993v-1.253h1.993V234.12z M838.428,244v-15.751h1.255V244H838.428z"/>
		<path fill="#231815" d="M847.434,236.983c-1.478,2.041-3.024,3.275-4.742,4.206l-0.979-0.805c1.512-0.788,3.316-2.095,4.519-3.777
			c1.357-1.915,1.925-4.045,2.079-5.387h-5.687v-1.092h7.147C849.633,232.132,848.946,234.925,847.434,236.983z M853.482,244
			v-15.751h1.288V244H853.482z"/>
		<path fill="#231815" d="M864.446,235.981v1.629h4.862v3.598h-9.639v1.539h9.999v1.074h-11.374v-3.651h9.622v-1.486h-9.622v-1.073
			h4.846v-1.629h-6.907v-1.092h15.119v1.092H864.446z M858.294,233.458v-4.601h10.996v4.601H858.294z M868.019,229.949h-8.453v2.417
			h8.453V229.949z"/>
		<path fill="#231815" d="M885.427,230.879c-0.584,0.734-2.096,3.275-3.007,5.388c-0.979,2.273-1.615,4.726-1.615,6.14h-1.443
			c0.086-1.128,0.516-3.49,1.667-5.979c0.962-2.094,2.577-4.707,3.145-5.584h-6.735v-1.057h7.989V230.879z"/>
		<path fill="#231815" d="M894.895,238.451c-0.069,2.452-1.787,4.242-4.038,4.242c-2.044,0-3.401-1.396-3.986-3.293
			c-0.515-1.611-0.515-4.958,0.207-6.945c0.721-1.969,2.01-3.132,3.917-3.149c2.199-0.036,3.643,1.789,3.849,3.49h-1.134
			c-0.206-1.182-1.134-2.417-2.732-2.417c-1.546,0-2.216,1.003-2.697,2.237c-0.464,1.164-0.516,2.506-0.446,3.187
			c0.636-1.128,1.872-1.897,3.436-1.772C893.468,234.191,894.981,236.125,894.895,238.451z M893.709,238.379
			c0-1.897-1.186-3.258-2.887-3.258s-2.817,1.36-2.817,3.258c0,1.879,1.116,3.258,2.817,3.258S893.709,240.258,893.709,238.379z"/>
		<path fill="#231815" d="M899.724,242.353v-9.486h-2.474V231.9c0.67,0,1.254-0.179,1.89-0.626c0.464-0.358,0.824-0.984,0.859-1.647
			h0.876v12.727H899.724z"/>
		<path fill="#231815" d="M907.096,242.729c0,0.411-0.12,0.858-0.429,1.288c-0.293,0.412-0.705,0.573-1.031,0.716l-0.447-0.572
			c0.602-0.071,1.031-0.573,1.031-0.948h-1.065v-1.719h1.941V242.729z"/>
		<path fill="#231815" d="M917.269,235.981c0,3.884-1.547,6.641-4.382,6.641s-4.347-2.757-4.347-6.641
			c0-3.849,1.512-6.604,4.347-6.604S917.269,232.132,917.269,235.981z M915.946,235.981c0-3.132-1.048-5.495-3.059-5.495
			c-1.976,0-3.041,2.363-3.041,5.495c0,3.168,1.065,5.53,3.041,5.53C914.898,241.511,915.946,239.149,915.946,235.981z"/>
		<path fill="#231815" d="M926.427,235.981c0,3.884-1.547,6.641-4.382,6.641s-4.347-2.757-4.347-6.641
			c0-3.849,1.512-6.604,4.347-6.604S926.427,232.132,926.427,235.981z M925.104,235.981c0-3.132-1.048-5.495-3.059-5.495
			c-1.976,0-3.041,2.363-3.041,5.495c0,3.168,1.065,5.53,3.041,5.53C924.056,241.511,925.104,239.149,925.104,235.981z"/>
		<path fill="#231815" d="M935.586,235.981c0,3.884-1.547,6.641-4.382,6.641s-4.347-2.757-4.347-6.641
			c0-3.849,1.512-6.604,4.347-6.604S935.586,232.132,935.586,235.981z M934.263,235.981c0-3.132-1.048-5.495-3.059-5.495
			c-1.976,0-3.041,2.363-3.041,5.495c0,3.168,1.065,5.53,3.041,5.53C933.215,241.511,934.263,239.149,934.263,235.981z"/>
		<path fill="#231815" d="M935.897,238.469v-1.11h6.872v-1.969h-4.811v-6.658h11.03v1.109h-9.725v1.665h9.69v1.074h-9.69v1.682
			h9.862v1.128h-5v1.969h6.89v1.11H935.897z M937.958,243.641v-4.188h1.289v3.078h10.188v1.109H937.958z"/>
	</g>
	<g>
		<path fill="#231815" d="M804.456,270.349c-0.67-0.43-1.752-1.163-2.663-2.291c-0.928-1.163-1.46-2.345-1.666-3.024
			c-0.155,0.662-0.67,1.844-1.667,3.168c-0.772,1.021-1.838,1.951-2.646,2.487l-1.031-0.895c1.134-0.698,2.457-1.915,3.333-3.293
			c0.911-1.45,1.341-3.348,1.341-5.084v-2.738h1.322v2.738c0,1.736,0.378,3.49,1.443,5.065c0.894,1.36,2.217,2.381,3.127,2.899
			L804.456,270.349z M808.098,264.138h2.457v1.164h-2.457v8.197h-1.288v-15.751h1.288V264.138z"/>
		<path fill="#231815" d="M822.705,266.197v-3.901h-3.625c-0.224,1.879-1.891,3.239-3.986,3.239c-2.233,0-4.021-1.539-4.021-3.634
			c0-2.111,1.753-3.651,4.021-3.651c1.976,0,3.591,1.218,3.951,2.954h3.66v-3.455h1.271v8.448H822.705z M815.093,259.449
			c-1.598,0-2.681,1.092-2.681,2.435s1.083,2.452,2.681,2.452s2.663-1.109,2.663-2.452
			C817.756,260.523,816.691,259.449,815.093,259.449z M813.426,273.321v-6.283h1.271v1.934h8.007v-1.934h1.271v6.283H813.426z
			 M822.705,270.045h-8.007v2.184h8.007V270.045z"/>
		<path fill="#231815" d="M835.078,266.233c-0.412-0.144-1.649-0.627-2.577-1.504c-0.79-0.752-1.186-1.271-1.546-2.005
			c-0.292,0.717-0.842,1.45-1.667,2.237c-0.894,0.878-2.01,1.486-2.508,1.701l-0.894-0.931c0.824-0.376,2.096-1.074,3.058-2.131
			c0.688-0.733,1.289-1.915,1.341-3.275v-0.411h-3.402v-1.092h8.179v1.092h-3.437v0.394c0.052,1.343,0.584,2.416,1.34,3.204
			c0.894,0.913,2.303,1.539,2.87,1.718L835.078,266.233z M833.875,273.804c-3.625,0-5.602-1.271-5.602-3.043
			c0-1.772,1.977-3.061,5.602-3.061s5.584,1.288,5.584,3.061C839.459,272.533,837.5,273.804,833.875,273.804z M833.875,268.792
			c-2.491,0-4.227,0.751-4.227,1.986c0,1.199,1.735,1.951,4.227,1.951c2.457,0,4.209-0.752,4.209-1.951
			C838.084,269.543,836.333,268.792,833.875,268.792z M838.978,261.561h2.303v1.146h-2.303v4.653h-1.271v-9.611h1.271V261.561z"/>
		<path fill="#231815" d="M848.998,266.358c-0.412-0.215-1.357-0.877-2.131-1.736c-0.687-0.77-1.236-1.754-1.34-2.112
			c-0.068,0.341-0.532,1.343-1.306,2.327c-0.79,0.984-1.701,1.7-2.233,2.005L841.042,266c0.498-0.286,1.804-1.271,2.543-2.38
			c0.688-1.021,1.271-2.435,1.271-4.027v-1.36h1.323v1.36c0,1.593,0.498,2.828,1.186,3.723c0.824,1.074,1.906,1.861,2.456,2.076
			L848.998,266.358z M849.616,273.804c-3.729,0-5.756-1.289-5.756-3.097s2.027-3.133,5.756-3.133c3.746,0,5.756,1.325,5.756,3.133
			S853.362,273.804,849.616,273.804z M849.633,268.649c-2.611,0-4.416,0.787-4.416,2.059c0,1.253,1.805,2.04,4.416,2.04
			c2.56,0,4.381-0.787,4.381-2.022C854.014,269.436,852.193,268.649,849.633,268.649z M853.946,267.378v-4.601h-2.182v4.117h-1.255
			v-8.878h1.255v3.615h2.182v-3.884h1.254v9.63H853.946z"/>
		<path fill="#231815" d="M861.525,266.895l-5.052,0.018v-1.038h4.76v-1.002c-1.907-0.144-3.162-0.859-3.162-1.808
			c0-1.057,1.581-1.826,3.918-1.826c2.319,0,3.9,0.752,3.9,1.844c0,0.967-1.289,1.683-3.265,1.808v0.967
			c1.048,0,3.625-0.232,4.948-0.43v1.056C866.456,266.626,863.604,266.859,861.525,266.895z M857.315,260.684v-1.002h9.175v1.002
			H857.315z M859.188,273.321v-3.114h8.935v-1.146h-8.935v-1.003h10.309v3.097h-8.951v1.163h9.313v1.003H859.188z M861.989,262.188
			c-1.563,0-2.526,0.304-2.526,0.877c0,0.555,0.963,0.895,2.526,0.895c1.58,0,2.508-0.34,2.508-0.895
			C864.497,262.492,863.569,262.188,861.989,262.188z M859.6,258.751v-1.003h4.69v1.003H859.6z M869.497,263.351v3.974h-1.288
			v-9.576h1.288v4.511h2.233v1.092H869.497z"/>
		<path fill="#231815" d="M877.076,266.537c-1.186,1.844-2.439,3.114-3.935,4.135l-1.014-0.787c1.117-0.716,2.767-2.059,3.883-3.92
			c1.1-1.808,1.427-3.688,1.547-5.029h-4.484v-1.11h5.91C878.845,261.937,878.365,264.55,877.076,266.537z M881.216,272.784v-5.513
			h-2.474v-1.11h2.474v-3.329h-2.182v-1.092h2.182v-3.615h1.254v14.659H881.216z M884.343,273.5v-15.751h1.255V273.5H884.343z"/>
		<path fill="#231815" d="M892.937,271.746c0.052-1.593,0.258-3.222,2.646-4.94l2.062-1.485c0.962-0.698,1.787-1.504,1.821-2.774
			c0.034-1.521-0.979-2.631-2.697-2.631c-1.787,0-2.663,1.307-2.681,2.756h-1.082c-0.034-1.879,1.271-3.865,3.831-3.865
			c2.491,0,3.935,1.735,3.849,3.74c-0.086,2.022-1.34,3.007-2.543,3.866l-2.01,1.432c-1.014,0.698-1.649,1.808-1.873,2.899h6.615
			v1.003H892.937z"/>
		<path fill="#231815" d="M910.447,268.398c0,2.095-1.907,3.849-4.433,3.849c-2.561,0-4.433-1.754-4.433-3.849
			c0-1.396,0.979-2.648,2.199-3.311c-0.979-0.608-1.77-1.646-1.77-2.864c0-1.879,1.632-3.454,4.003-3.454
			c2.302,0,3.986,1.575,3.986,3.454c0,1.218-0.808,2.256-1.787,2.846C909.433,265.75,910.447,267.002,910.447,268.398z
			 M909.193,268.398c0-1.503-1.203-2.685-3.179-2.685c-2.027,0-3.213,1.182-3.213,2.685c0,1.504,1.186,2.721,3.213,2.721
			C907.99,271.119,909.193,269.902,909.193,268.398z M908.78,262.206c0-1.271-0.979-2.327-2.766-2.327
			c-1.925,0-2.767,1.057-2.767,2.327c0,1.235,0.842,2.273,2.767,2.273C907.801,264.479,908.78,263.441,908.78,262.206z"/>
		<path fill="#231815" d="M913.249,272.229c0,0.411-0.12,0.858-0.429,1.288c-0.293,0.412-0.705,0.573-1.031,0.716l-0.447-0.572
			c0.602-0.071,1.031-0.573,1.031-0.948h-1.065v-1.719h1.941V272.229z"/>
		<path fill="#231815" d="M923.42,265.481c0,3.884-1.547,6.641-4.382,6.641s-4.347-2.757-4.347-6.641
			c0-3.849,1.512-6.604,4.347-6.604S923.42,261.632,923.42,265.481z M922.097,265.481c0-3.132-1.048-5.495-3.059-5.495
			c-1.976,0-3.041,2.363-3.041,5.495c0,3.168,1.065,5.53,3.041,5.53C921.049,271.011,922.097,268.649,922.097,265.481z"/>
		<path fill="#231815" d="M932.58,265.481c0,3.884-1.547,6.641-4.382,6.641s-4.347-2.757-4.347-6.641
			c0-3.849,1.512-6.604,4.347-6.604S932.58,261.632,932.58,265.481z M931.256,265.481c0-3.132-1.048-5.495-3.059-5.495
			c-1.976,0-3.041,2.363-3.041,5.495c0,3.168,1.065,5.53,3.041,5.53C930.208,271.011,931.256,268.649,931.256,265.481z"/>
		<path fill="#231815" d="M941.739,265.481c0,3.884-1.547,6.641-4.382,6.641s-4.347-2.757-4.347-6.641
			c0-3.849,1.512-6.604,4.347-6.604S941.739,261.632,941.739,265.481z M940.416,265.481c0-3.132-1.048-5.495-3.059-5.495
			c-1.976,0-3.041,2.363-3.041,5.495c0,3.168,1.065,5.53,3.041,5.53C939.368,271.011,940.416,268.649,940.416,265.481z"/>
		<path fill="#231815" d="M942.049,267.969v-1.11h6.872v-1.969h-4.811v-6.658h11.03v1.109h-9.725v1.665h9.69v1.074h-9.69v1.682
			h9.862v1.128h-5v1.969h6.89v1.11H942.049z M944.111,273.141v-4.188h1.289v3.078h10.188v1.109H944.111z"/>
	</g>
	<g>
		<path fill="#231815" d="M804.456,299.848c-0.67-0.43-1.752-1.163-2.663-2.291c-0.928-1.163-1.46-2.345-1.666-3.024
			c-0.155,0.662-0.67,1.844-1.667,3.168c-0.772,1.021-1.838,1.951-2.646,2.487l-1.031-0.895c1.134-0.698,2.457-1.915,3.333-3.293
			c0.911-1.45,1.341-3.348,1.341-5.084v-2.738h1.322v2.738c0,1.736,0.378,3.49,1.443,5.065c0.894,1.36,2.217,2.381,3.127,2.899
			L804.456,299.848z M808.098,293.637h2.457v1.164h-2.457v8.197h-1.288v-15.751h1.288V293.637z"/>
		<path fill="#231815" d="M822.705,295.696v-3.901h-3.625c-0.224,1.879-1.891,3.239-3.986,3.239c-2.233,0-4.021-1.539-4.021-3.634
			c0-2.111,1.753-3.651,4.021-3.651c1.976,0,3.591,1.218,3.951,2.954h3.66v-3.455h1.271v8.448H822.705z M815.093,288.948
			c-1.598,0-2.681,1.092-2.681,2.435s1.083,2.452,2.681,2.452s2.663-1.109,2.663-2.452
			C817.756,290.022,816.691,288.948,815.093,288.948z M813.426,302.82v-6.283h1.271v1.934h8.007v-1.934h1.271v6.283H813.426z
			 M822.705,299.544h-8.007v2.184h8.007V299.544z"/>
		<path fill="#231815" d="M835.078,295.732c-0.412-0.144-1.649-0.627-2.577-1.504c-0.79-0.752-1.186-1.271-1.546-2.005
			c-0.292,0.717-0.842,1.45-1.667,2.237c-0.894,0.877-2.01,1.486-2.508,1.701l-0.894-0.931c0.824-0.376,2.096-1.074,3.058-2.131
			c0.688-0.733,1.289-1.915,1.341-3.275v-0.411h-3.402v-1.092h8.179v1.092h-3.437v0.394c0.052,1.343,0.584,2.416,1.34,3.204
			c0.894,0.913,2.303,1.539,2.87,1.718L835.078,295.732z M833.875,303.303c-3.625,0-5.602-1.271-5.602-3.043
			c0-1.772,1.977-3.061,5.602-3.061s5.584,1.288,5.584,3.061C839.459,302.032,837.5,303.303,833.875,303.303z M833.875,298.292
			c-2.491,0-4.227,0.751-4.227,1.986c0,1.199,1.735,1.951,4.227,1.951c2.457,0,4.209-0.752,4.209-1.951
			C838.084,299.042,836.333,298.292,833.875,298.292z M838.978,291.06h2.303v1.146h-2.303v4.653h-1.271v-9.611h1.271V291.06z"/>
		<path fill="#231815" d="M842.21,299.598v-10.65h1.271v3.849h3.402v-3.849h1.271v10.65H842.21z M846.884,293.906h-3.402v4.582
			h3.402V293.906z M853.5,302.999v-8.287h-2.183v7.571h-1.254v-14.677h1.254v5.889h2.183v-6.247h1.254v15.751H853.5z"/>
		<path fill="#231815" d="M864.48,295.606v1.414h4.828v3.401h-9.622v1.324h10.017v1.074h-11.425v-3.419h9.621v-1.307h-9.621v-1.074
			h4.827v-1.414h-6.872v-1.073h15.119v1.073H864.48z M869.531,293.745c-0.55-0.071-1.649-0.215-3.213-0.823
			c-1.254-0.483-2.302-1.253-2.542-1.593c-0.224,0.34-1.271,1.109-2.526,1.593c-1.563,0.608-2.663,0.752-3.213,0.823l-0.756-0.966
			c0.55-0.054,1.787-0.233,3.419-0.806c1.014-0.376,2.097-1.182,2.199-1.539h-4.828v-1.021h11.443v1.021h-4.828
			c0.086,0.357,1.168,1.163,2.182,1.539c1.633,0.572,2.87,0.752,3.42,0.806L869.531,293.745z M860.769,288.161v-1.038h6.03v1.038
			H860.769z"/>
		<path fill="#231815" d="M881.286,299.848c-0.671-0.43-1.753-1.163-2.663-2.291c-0.929-1.163-1.461-2.345-1.667-3.024
			c-0.154,0.662-0.67,1.844-1.667,3.168c-0.772,1.021-1.838,1.951-2.646,2.487l-1.031-0.895c1.134-0.698,2.457-1.915,3.333-3.293
			c0.911-1.45,1.341-3.348,1.341-5.084v-2.738h1.322v2.738c0,1.736,0.379,3.49,1.443,5.065c0.894,1.36,2.217,2.381,3.127,2.899
			L881.286,299.848z M884.223,302.999v-15.751h1.289v15.751H884.223z"/>
		<path fill="#231815" d="M896.597,295.159c-0.602-0.232-1.719-0.859-2.664-1.683c-0.721-0.644-1.306-1.324-1.648-2.058
			c-0.293,0.787-0.859,1.557-1.685,2.362c-0.894,0.859-2.062,1.557-2.577,1.808l-0.894-0.931c0.757-0.305,1.925-1.038,2.818-1.933
			c0.824-0.823,1.684-2.166,1.684-3.688v-1.343h1.323v1.343c0,1.432,0.687,2.488,1.494,3.258c0.997,0.966,2.217,1.629,2.904,1.879
			L896.597,295.159z M890.326,302.82v-3.741h9.055v-1.7h-9.055v-1.021h10.377v3.741h-9.054v1.7h9.483v1.021H890.326z
			 M899.483,295.588v-4.26h-3.539v-1.092h3.539v-2.989h1.271v8.341H899.483z"/>
		<path fill="#231815" d="M907.68,296.036c-1.186,1.844-2.439,3.114-3.935,4.135l-1.014-0.787c1.117-0.716,2.767-2.059,3.883-3.92
			c1.1-1.808,1.427-3.688,1.547-5.029h-4.484v-1.11h5.91C909.45,291.436,908.969,294.049,907.68,296.036z M911.821,302.283v-5.513
			h-2.474v-1.11h2.474v-3.329h-2.182v-1.092h2.182v-3.615h1.255v14.659H911.821z M914.948,302.999v-15.751h1.255v15.751H914.948z"/>
		<path fill="#231815" d="M927.322,301.352v-9.486h-2.474v-0.967c0.67,0,1.254-0.179,1.89-0.626
			c0.464-0.358,0.824-0.984,0.859-1.647h0.876v12.727H927.322z"/>
		<path fill="#231815" d="M934.694,301.728c0,0.411-0.12,0.858-0.429,1.288c-0.293,0.412-0.705,0.573-1.031,0.716l-0.447-0.572
			c0.602-0.071,1.031-0.573,1.031-0.949h-1.065v-1.718h1.941V301.728z"/>
		<path fill="#231815" d="M944.695,297.45c-0.069,2.452-1.787,4.242-4.038,4.242c-2.044,0-3.401-1.396-3.986-3.293
			c-0.515-1.611-0.515-4.958,0.207-6.945c0.722-1.969,2.01-3.132,3.917-3.149c2.199-0.036,3.643,1.789,3.849,3.49h-1.134
			c-0.206-1.182-1.134-2.417-2.732-2.417c-1.546,0-2.216,1.003-2.697,2.237c-0.464,1.164-0.516,2.506-0.446,3.187
			c0.636-1.128,1.872-1.897,3.436-1.772C943.268,293.19,944.781,295.124,944.695,297.45z M943.509,297.378
			c0-1.897-1.186-3.258-2.887-3.258s-2.817,1.36-2.817,3.258c0,1.879,1.116,3.258,2.817,3.258S943.509,299.257,943.509,297.378z"/>
		<path fill="#231815" d="M954.093,297.897c0,2.095-1.907,3.849-4.433,3.849c-2.561,0-4.433-1.754-4.433-3.849
			c0-1.396,0.979-2.648,2.199-3.311c-0.979-0.608-1.77-1.646-1.77-2.864c0-1.879,1.632-3.454,4.003-3.454
			c2.302,0,3.986,1.575,3.986,3.454c0,1.218-0.808,2.256-1.787,2.846C953.08,295.249,954.093,296.501,954.093,297.897z
			 M952.839,297.897c0-1.503-1.203-2.685-3.179-2.685c-2.027,0-3.213,1.182-3.213,2.685c0,1.504,1.186,2.721,3.213,2.721
			C951.636,300.618,952.839,299.401,952.839,297.897z M952.426,291.705c0-1.271-0.979-2.327-2.766-2.327
			c-1.925,0-2.767,1.057-2.767,2.327c0,1.235,0.842,2.273,2.767,2.273C951.448,293.978,952.426,292.94,952.426,291.705z"/>
		<path fill="#231815" d="M958.682,301.352v-9.486h-2.474v-0.967c0.67,0,1.254-0.179,1.89-0.626
			c0.464-0.358,0.824-0.984,0.859-1.647h0.876v12.727H958.682z"/>
		<path fill="#231815" d="M966.054,301.728c0,0.411-0.12,0.858-0.43,1.288c-0.292,0.412-0.704,0.573-1.03,0.716l-0.447-0.572
			c0.602-0.071,1.031-0.573,1.031-0.949h-1.065v-1.718h1.941V301.728z"/>
		<path fill="#231815" d="M976.227,294.98c0,3.884-1.547,6.641-4.382,6.641s-4.347-2.757-4.347-6.641
			c0-3.849,1.512-6.604,4.347-6.604S976.227,291.131,976.227,294.98z M974.904,294.98c0-3.132-1.048-5.495-3.059-5.495
			c-1.976,0-3.041,2.363-3.041,5.495c0,3.168,1.065,5.53,3.041,5.53C973.856,300.51,974.904,298.148,974.904,294.98z"/>
		<path fill="#231815" d="M985.385,294.98c0,3.884-1.547,6.641-4.382,6.641s-4.347-2.757-4.347-6.641
			c0-3.849,1.512-6.604,4.347-6.604S985.385,291.131,985.385,294.98z M984.062,294.98c0-3.132-1.048-5.495-3.059-5.495
			c-1.976,0-3.041,2.363-3.041,5.495c0,3.168,1.065,5.53,3.041,5.53C983.014,300.51,984.062,298.148,984.062,294.98z"/>
		<path fill="#231815" d="M994.544,294.98c0,3.884-1.547,6.641-4.382,6.641s-4.347-2.757-4.347-6.641
			c0-3.849,1.512-6.604,4.347-6.604S994.544,291.131,994.544,294.98z M993.221,294.98c0-3.132-1.048-5.495-3.059-5.495
			c-1.976,0-3.041,2.363-3.041,5.495c0,3.168,1.065,5.53,3.041,5.53C992.173,300.51,993.221,298.148,993.221,294.98z"/>
		<path fill="#231815" d="M994.855,297.468v-1.11h6.872v-1.969h-4.811v-6.658h11.03v1.109h-9.725v1.665h9.69v1.074h-9.69v1.682
			h9.862v1.128h-5v1.969h6.89v1.11H994.855z M996.917,302.64v-4.188h1.289v3.078h10.188v1.109H996.917z"/>
	</g>
	<g>
		<path fill="#231815" d="M801.02,323.817c-1.873,1.664-3.351,2.345-4.656,2.846l-0.876-0.877c1.254-0.43,2.869-1.217,4.398-2.506
			c1.666-1.396,2.25-3.061,2.456-4.277h-5.807v-1.092h7.319C803.7,320.004,802.618,322.349,801.02,323.817z M798.202,332.139v-4.868
			h1.289v3.759h9.759v1.109H798.202z M807.462,328.184v-5.37h-3.299v-1.109h3.299v-4.958h1.271v11.438H807.462z"/>
		<path fill="#231815" d="M820.059,324.658c-0.602-0.232-1.719-0.859-2.663-1.683c-0.722-0.644-1.307-1.324-1.65-2.058
			c-0.292,0.787-0.858,1.557-1.684,2.362c-0.894,0.859-2.062,1.558-2.577,1.808l-0.894-0.931c0.756-0.305,1.925-1.038,2.818-1.933
			c0.824-0.824,1.684-2.166,1.684-3.688v-1.343h1.323v1.343c0,1.432,0.687,2.488,1.494,3.258c0.997,0.966,2.217,1.629,2.904,1.879
			L820.059,324.658z M813.788,332.319v-3.741h9.055v-1.7h-9.055v-1.021h10.377v3.741h-9.054v1.7h9.483v1.021H813.788z
			 M822.945,325.087v-4.26h-3.539v-1.092h3.539v-2.989h1.271v8.341H822.945z"/>
		<path fill="#231815" d="M831.71,328.864c-1.649,0.072-5.498,0.054-5.704,0.054v-1.127h1.787l-0.292-7.429h1.288l0.24,7.429
			c0.929,0,1.357,0,2.045-0.036l0.24-7.393h1.289l-0.292,7.356c1.014-0.054,1.392-0.125,2.079-0.196v1.127
			C833.549,328.756,832.878,328.81,831.71,328.864z M826.333,319.915v-1.127h7.457v1.127H826.333z M835.387,322.618h-1.993v-1.253
			h1.993v-4.26h1.254v14.677h-1.254v-5.835h-1.993v-1.253h1.993V322.618z M838.428,332.498v-15.751h1.255v15.751H838.428z"/>
		<path fill="#231815" d="M847.434,325.481c-1.478,2.041-3.024,3.275-4.742,4.206l-0.979-0.805c1.512-0.788,3.316-2.095,4.519-3.777
			c1.357-1.915,1.925-4.045,2.079-5.387h-5.687v-1.092h7.147C849.633,320.63,848.946,323.423,847.434,325.481z M853.482,332.498
			v-15.751h1.288v15.751H853.482z"/>
		<path fill="#231815" d="M864.446,324.479v1.629h4.862v3.598h-9.639v1.539h9.999v1.074h-11.374v-3.651h9.622v-1.486h-9.622v-1.073
			h4.846v-1.629h-6.907v-1.092h15.119v1.092H864.446z M858.294,321.956v-4.601h10.996v4.601H858.294z M868.019,318.447h-8.453v2.417
			h8.453V318.447z"/>
		<path fill="#231815" d="M885.547,326.877c-0.086,2.774-2.027,4.313-4.037,4.313c-2.354,0-3.849-1.736-4.09-3.526h1.135
			c0.103,1.038,1.168,2.435,2.869,2.435c1.77,0,2.835-1.414,2.903-3.168c0.086-1.969-1.134-3.383-2.715-3.437
			c-1.512-0.054-2.371,0.752-2.801,1.396h-1.03l0.876-6.604h6.409v1.038l-5.447,0.019l-0.515,3.955
			c0.807-0.662,1.924-0.966,2.834-0.895C883.709,322.582,885.651,324.121,885.547,326.877z"/>
		<path fill="#231815" d="M886.785,330.744c0.052-1.593,0.258-3.222,2.646-4.94l2.062-1.485c0.962-0.698,1.787-1.504,1.821-2.774
			c0.034-1.521-0.979-2.631-2.697-2.631c-1.787,0-2.663,1.307-2.681,2.756h-1.082c-0.034-1.879,1.271-3.865,3.831-3.865
			c2.491,0,3.935,1.735,3.849,3.74c-0.086,2.022-1.34,3.007-2.543,3.866l-2.01,1.432c-1.014,0.698-1.649,1.808-1.873,2.899h6.615
			v1.003H886.785z"/>
		<path fill="#231815" d="M903.865,326.877c-0.086,2.774-2.027,4.313-4.037,4.313c-2.354,0-3.849-1.736-4.09-3.526h1.135
			c0.103,1.038,1.168,2.435,2.869,2.435c1.77,0,2.835-1.414,2.903-3.168c0.086-1.969-1.134-3.383-2.715-3.437
			c-1.512-0.054-2.371,0.752-2.801,1.396h-1.03l0.876-6.604h6.409v1.038l-5.447,0.019l-0.515,3.955
			c0.807-0.662,1.924-0.966,2.835-0.895C902.027,322.582,903.968,324.121,903.865,326.877z"/>
		<path fill="#231815" d="M907.096,331.227c0,0.411-0.12,0.858-0.429,1.288c-0.293,0.412-0.705,0.573-1.031,0.716l-0.447-0.572
			c0.602-0.071,1.031-0.573,1.031-0.948h-1.065v-1.719h1.941V331.227z"/>
		<path fill="#231815" d="M917.269,324.479c0,3.884-1.547,6.641-4.382,6.641s-4.347-2.757-4.347-6.641
			c0-3.849,1.512-6.604,4.347-6.604S917.269,320.63,917.269,324.479z M915.946,324.479c0-3.132-1.048-5.495-3.059-5.495
			c-1.976,0-3.041,2.363-3.041,5.495c0,3.168,1.065,5.53,3.041,5.53C914.898,330.009,915.946,327.647,915.946,324.479z"/>
		<path fill="#231815" d="M926.427,324.479c0,3.884-1.547,6.641-4.382,6.641s-4.347-2.757-4.347-6.641
			c0-3.849,1.512-6.604,4.347-6.604S926.427,320.63,926.427,324.479z M925.104,324.479c0-3.132-1.048-5.495-3.059-5.495
			c-1.976,0-3.041,2.363-3.041,5.495c0,3.168,1.065,5.53,3.041,5.53C924.056,330.009,925.104,327.647,925.104,324.479z"/>
		<path fill="#231815" d="M935.586,324.479c0,3.884-1.547,6.641-4.382,6.641s-4.347-2.757-4.347-6.641
			c0-3.849,1.512-6.604,4.347-6.604S935.586,320.63,935.586,324.479z M934.263,324.479c0-3.132-1.048-5.495-3.059-5.495
			c-1.976,0-3.041,2.363-3.041,5.495c0,3.168,1.065,5.53,3.041,5.53C933.215,330.009,934.263,327.647,934.263,324.479z"/>
		<path fill="#231815" d="M935.897,326.967v-1.11h6.872v-1.969h-4.811v-6.658h11.03v1.109h-9.725v1.665h9.69v1.074h-9.69v1.682
			h9.862v1.128h-5v1.969h6.89v1.11H935.897z M937.958,332.139v-4.188h1.289v3.078h10.188v1.109H937.958z"/>
	</g>
	<rect x="766.683" y="227.174" fill="#54AEA0" width="17.576" height="17.579"/>
	<g>
		<path fill="#FFFFFF" d="M637.732,275.203c75.995,0,137.601-61.605,137.601-137.601C775.333,61.606,713.727,0,637.732,0
			S500.13,61.606,500.13,137.602C500.13,213.597,561.737,275.203,637.732,275.203"/>
		<path fill="#C6A512" d="M636.674,137.599L518.645,80.033c22.286-45.697,67.029-73.755,118.029-73.755V137.599z"/>
		<path fill="none" stroke="#FFFFFF" stroke-miterlimit="10" d="M636.674,137.599L518.645,80.033
			c22.286-45.697,67.029-73.755,118.029-73.755V137.599z"/>
		<path fill="#90B952" d="M637.74,137.599l131.001,9.161c-5.06,72.35-67.812,126.898-140.16,121.84
			c-72.351-5.06-126.901-67.813-121.841-140.161c1.239-17.726,5.181-32.437,12.971-48.406L637.74,137.599z"/>
		<path fill="none" stroke="#FFFFFF" stroke-miterlimit="10" d="M637.74,137.599l131.001,9.161
			c-5.06,72.35-67.812,126.898-140.16,121.84c-72.351-5.06-126.901-67.813-121.841-140.161c1.239-17.726,5.181-32.437,12.971-48.406
			L637.74,137.599z"/>
		<path fill="#D8DF21" d="M637.74,137.599l131.301,2.292c-0.046,2.683-0.112,4.19-0.3,6.869L637.74,137.599z"/>
		<path fill="none" stroke="#FFFFFF" stroke-miterlimit="10" d="M637.74,137.599l131.301,2.292c-0.046,2.683-0.112,4.19-0.3,6.869
			L637.74,137.599z"/>
		<path fill="#54ACA0" d="M636.674,137.599V6.278c72,0,131.854,58.796,131.854,131.321c0,1.161-0.266,1.132-0.287,2.292
			L636.674,137.599z"/>
		<path fill="none" stroke="#FFFFFF" stroke-miterlimit="10" d="M636.674,137.599V6.278c72,0,131.854,58.796,131.854,131.321
			c0,1.161-0.266,1.132-0.287,2.292L636.674,137.599z"/>
		<path fill="#FFFFFF" d="M699.299,137.713c0,33.906-27.485,61.393-61.393,61.393c-33.905,0-61.392-27.486-61.392-61.393
			s27.486-61.394,61.392-61.394C671.814,76.32,699.299,103.807,699.299,137.713"/>
	</g>
	<g>
		<path fill="#FFFFFF" d="M586.342,222.441c-0.747-0.456-1.659-1.045-2.571-2.09c-0.711-0.816-1.167-1.52-1.55-2.317
			c-0.401,0.931-0.948,1.69-1.805,2.697c-0.711,0.836-1.44,1.387-2.334,2.014l-1.604-1.425c1.44-0.931,2.607-2.014,3.409-3.419
			c0.931-1.615,1.204-3.382,1.204-5.281v-2.755h2.206v2.755c0,1.443,0.273,3.913,1.386,5.471c0.984,1.368,2.024,2.185,3.026,2.773
			L586.342,222.441z M591.065,217.501v8.149h-2.115v-16.717h2.115v6.535h2.315v2.032H591.065z"/>
		<path fill="#FFFFFF" d="M605.475,212.202v-3.268h2.115v8.795h-2.115v-3.571h-3.264c-0.438,1.881-2.279,3.097-4.267,3.097
			c-2.261,0-4.358-1.576-4.358-3.933c0-2.336,2.061-3.913,4.358-3.913c1.896,0,3.646,1.083,4.193,2.793H605.475z M597.945,211.346
			c-1.148,0-2.188,0.874-2.188,1.938c0,1.103,1.04,1.995,2.188,1.995s2.188-0.893,2.188-1.995
			C600.132,212.202,599.093,211.346,597.945,211.346z M595.92,225.461v-6.991h2.098v1.729h7.421v-1.729h2.115v6.991H595.92z
			 M605.439,222.061h-7.421v1.538h7.421V222.061z"/>
		<path fill="#FFFFFF" d="M618.116,217.938c-0.583-0.228-1.222-0.531-2.188-1.234c-0.729-0.532-1.259-1.14-1.532-1.577
			c-0.291,0.57-0.856,1.141-1.567,1.748c-0.803,0.703-1.86,1.292-2.626,1.577l-1.44-1.71c0.894-0.304,2.443-1.063,3.337-2.033
			c0.839-0.893,1.13-1.956,1.13-2.545v-0.323h-3.081v-1.957h8.424v1.957h-3.081v0.323c0,0.569,0.364,1.576,1.094,2.317
			c0.984,0.988,1.951,1.443,2.698,1.672L618.116,217.938z M617.423,225.879c-4.03,0-6.236-1.387-6.236-3.382
			c0-1.956,2.206-3.419,6.236-3.419c4.048,0,6.236,1.443,6.236,3.419S621.471,225.879,617.423,225.879z M617.442,224.151
			c2.315,0,3.901-0.665,3.901-1.634c0-1.007-1.586-1.653-3.901-1.653c-2.353,0-3.902,0.627-3.902,1.634
			C613.54,223.466,615.089,224.151,617.442,224.151z M623.222,214.747v3.989h-2.115v-9.802h2.115v3.818h2.206v1.994H623.222z"/>
		<path fill="#FFFFFF" d="M625.652,222.137v-11.569h2.115v3.951h2.389v-3.951h2.115v11.569H625.652z M630.156,216.495h-2.389v3.686
			h2.389V216.495z M637.468,225.651v-8.473h-1.604v7.713h-2.043v-15.577h2.043v5.642h1.604v-6.021h2.042v16.717H637.468z"/>
		<path fill="#FFFFFF" d="M647.392,218.052h-6.875v-1.672h16.047v1.672h-6.856v1.064h4.851v3.894h-9.609v0.836h10.011v1.615h-12.437
			v-3.895h9.664v-0.836h-9.664v-1.614h4.869V218.052z M652.443,213.665c1.094,0.36,2.315,0.664,3.118,0.74l-1.167,1.482
			c-0.639-0.076-1.732-0.229-3.173-0.723c-1.222-0.418-2.298-1.045-2.645-1.349c-0.383,0.304-1.458,0.931-2.68,1.349
			c-1.44,0.494-2.535,0.646-3.173,0.723l-1.167-1.482c0.802-0.076,2.023-0.38,3.118-0.74c0.583-0.19,1.604-0.627,2.133-0.988h-4.504
			v-1.615h12.473v1.615h-4.468C650.838,213.038,651.859,213.474,652.443,213.665z M645.185,210.226v-1.615h6.692v1.615H645.185z"/>
		<path fill="#FFFFFF" d="M666.233,222.441c-0.747-0.456-1.659-1.045-2.57-2.09c-0.712-0.816-1.167-1.52-1.551-2.317
			c-0.4,0.931-0.948,1.69-1.805,2.697c-0.711,0.836-1.44,1.387-2.334,2.014l-1.604-1.425c1.44-0.931,2.607-2.014,3.409-3.419
			c0.931-1.615,1.204-3.382,1.204-5.281v-2.755h2.206v2.755c0,1.443,0.273,3.913,1.386,5.471c0.984,1.368,2.024,2.185,3.027,2.773
			L666.233,222.441z M669.168,225.651v-16.717h2.115v16.717H669.168z"/>
		<path fill="#FFFFFF" d="M681.829,217.14c-0.675-0.246-1.459-0.627-2.353-1.291c-0.674-0.514-1.203-1.026-1.677-1.634
			c-0.328,0.684-0.931,1.329-1.696,1.956c-0.856,0.703-1.714,1.178-2.315,1.482l-1.495-1.558c0.911-0.418,1.969-1.026,2.972-2.052
			c0.821-0.836,1.404-2.014,1.404-3.382v-1.311h2.243v1.311c0,1.349,0.583,2.47,1.477,3.248c0.93,0.798,1.787,1.273,2.681,1.577
			L681.829,217.14z M675.501,225.461v-4.389h9.391v-1.007h-9.391v-1.747h11.634v4.369h-9.409v1.007h9.81v1.767H675.501z
			 M685.056,217.654v-4.065h-3.209v-1.995h3.209v-2.659h2.115v8.72H685.056z"/>
		<path fill="#FFFFFF" d="M694.506,217.672c-1.204,2.546-2.954,4.389-4.23,5.319l-1.604-1.178c1.039-0.722,2.607-2.413,3.519-4.065
			c1.021-1.843,1.313-3.78,1.423-4.978h-4.066v-1.881h6.309C695.855,212.524,695.491,215.583,694.506,217.672z M697.861,214.917
			h-2.006v-1.994h2.006v-3.591h2.042v15.559h-2.042v-5.509h-2.37v-1.995h2.37V214.917z M701.252,225.651v-16.717h2.042v16.717
			H701.252z"/>
	</g>
	<g>
		<path fill="#FFFFFF" d="M660.761,65.027c-0.438-0.209-1.112-0.703-1.842-1.425c-0.564-0.57-1.075-1.312-1.276-1.71
			c-0.164,0.398-0.692,1.272-1.313,1.956c-0.729,0.798-1.222,1.197-1.732,1.521l-1.678-1.425c0.748-0.476,1.715-1.273,2.48-2.394
			c0.729-1.083,1.112-2.318,1.112-4.047v-1.406h2.242v1.406c0,1.729,0.401,3.097,1.149,4.065c0.802,1.026,1.695,1.729,2.188,1.938
			L660.761,65.027z M662.111,72.587c-4.157,0-6.346-1.387-6.346-3.362s2.188-3.382,6.346-3.382c4.176,0,6.346,1.406,6.346,3.382
			S666.287,72.587,662.111,72.587z M658.082,69.206c0,0.988,1.677,1.577,4.048,1.577c2.334,0,3.975-0.551,3.975-1.539
			c0-1.007-1.623-1.539-3.975-1.539C659.741,67.705,658.082,68.218,658.082,69.206z M666.323,65.672v-4.274h-1.604v3.704h-2.042
			v-9.175h2.042v3.496h1.604v-3.781h2.043v10.031H666.323z"/>
		<path fill="#FFFFFF" d="M674.26,65.445h-5.324v-1.577h4.431v-0.854c-1.896-0.19-3.154-0.855-3.154-1.824
			c0-1.14,1.842-1.862,4.412-1.862c2.553,0,4.377,0.703,4.377,1.88c0,0.97-1.276,1.634-3.228,1.824v0.816
			c0.839,0,3.173-0.228,4.521-0.398v1.634C679.202,65.198,677.105,65.445,674.26,65.445z M669.72,58.89v-1.481h9.664v1.481H669.72z
			 M671.47,72.169v-3.629h9.117v-0.778h-9.117v-1.539h11.487v3.629h-9.116v0.798h9.664v1.52H671.47z M672.181,56.801v-1.463h4.741
			v1.463H672.181z M674.625,60.581c-0.966,0-2.133,0.152-2.133,0.608c0,0.475,1.203,0.589,2.133,0.589
			c0.894,0,2.098-0.189,2.098-0.589C676.722,60.733,675.537,60.581,674.625,60.581z M682.976,61.778v3.856h-2.115v-9.993h2.115
			v4.293h2.188v1.843H682.976z"/>
		<path fill="#FFFFFF" d="M690.42,68.845c-1.915,0.075-5.252,0.057-5.434,0.057v-1.995h1.44l-0.273-6.667h2.097l0.2,6.667
			c0.857-0.019,0.693-0.019,1.331-0.038L690,60.239h2.079l-0.237,6.535c0.511-0.019,0.784-0.057,1.459-0.151v1.994
			C692.225,68.731,691.587,68.807,690.42,68.845z M685.296,59.517v-2.014h7.622v2.014H685.296z M694.468,71.581v-5.775h-1.678
			v-1.899h1.678V62.12h-1.678V60.22h1.678v-4.198h1.987v15.559H694.468z M697.787,72.359V55.642h2.042v16.717H697.787z"/>
		<path fill="#FFFFFF" d="M707.803,64.951c-1.605,2.203-3.301,3.647-5.069,4.578l-1.604-1.292c1.604-0.893,3.354-2.185,4.576-3.875
			c1.35-1.862,1.896-3.401,1.987-4.826h-5.561v-1.899h8.06C710.192,59.536,709.48,62.67,707.803,64.951z M713.273,72.359V55.642
			h2.115v16.717H713.273z"/>
		<path fill="#FFFFFF" d="M723.306,64.133h-6.911v-1.805h16.047v1.805h-6.911v1.103h4.905v4.236h-9.756v0.949h10.139v1.748h-12.418
			v-4.236h9.737v-0.95h-9.737v-1.747h4.905V64.133z M718.401,61.284v-5.167h12.035v5.167H718.401z M728.321,57.902h-7.805v1.596
			h7.805V57.902z"/>
	</g>
	<g>
		<path fill="#FFFFFF" d="M557.925,47.356c-1.823,1.786-3.629,2.641-4.905,3.059l-1.386-1.425c1.259-0.399,2.936-1.235,4.285-2.451
			c1.404-1.272,2.006-2.545,2.188-3.742h-5.488v-1.919h8.041C560.661,42.664,559.676,45.646,557.925,47.356z M554.388,56.171v-5.224
			h2.133v3.305h9.847v1.919H554.388z M563.87,51.916v-5.243h-3.045v-1.957h3.045v-4.882h2.115v12.083H563.87z"/>
		<path fill="#FFFFFF" d="M576.566,48.04c-0.675-0.247-1.459-0.627-2.352-1.292c-0.675-0.513-1.204-1.026-1.678-1.634
			c-0.328,0.684-0.931,1.33-1.696,1.957c-0.856,0.703-1.714,1.178-2.315,1.481l-1.495-1.558c0.911-0.418,1.969-1.026,2.972-2.052
			c0.821-0.836,1.404-2.014,1.404-3.381v-1.311h2.243v1.311c0,1.349,0.583,2.47,1.477,3.249c0.93,0.798,1.787,1.273,2.681,1.577
			L576.566,48.04z M570.239,56.361v-4.389h9.391v-1.007h-9.391v-1.748h11.634v4.37h-9.409v1.007h9.81v1.767H570.239z
			 M579.793,48.553v-4.065h-3.209v-1.995h3.209v-2.66h2.115v8.72H579.793z"/>
		<path fill="#FFFFFF" d="M588.624,53.036c-1.915,0.076-5.252,0.057-5.434,0.057v-1.995h1.44l-0.273-6.668h2.097l0.2,6.668
			c0.857-0.019,0.693-0.019,1.331-0.038l0.219-6.63h2.079l-0.237,6.535c0.511-0.019,0.784-0.057,1.459-0.152v1.995
			C590.428,52.922,589.791,52.998,588.624,53.036z M583.5,43.708v-2.014h7.622v2.014H583.5z M592.671,55.772v-5.775h-1.678v-1.899
			h1.678v-1.786h-1.678v-1.899h1.678v-4.198h1.987v15.559H592.671z M595.99,56.551V39.833h2.042v16.718H595.99z"/>
		<path fill="#FFFFFF" d="M606.006,49.142c-1.605,2.204-3.301,3.647-5.069,4.579l-1.604-1.292c1.604-0.893,3.354-2.185,4.576-3.875
			c1.35-1.861,1.896-3.4,1.987-4.825h-5.561v-1.899h8.06C608.395,43.728,607.683,46.862,606.006,49.142z M611.476,56.551V39.833
			h2.115v16.718H611.476z"/>
		<path fill="#FFFFFF" d="M621.509,48.325h-6.911V46.52h16.047v1.805h-6.911v1.102h4.905v4.236h-9.756v0.95h10.139v1.748h-12.418
			v-4.236h9.737v-0.95h-9.737v-1.748h4.905V48.325z M616.604,45.476v-5.167h12.035v5.167H616.604z M626.524,42.094h-7.805v1.596
			h7.805V42.094z"/>
	</g>
	<g>
		<path fill="#595757" d="M788.806,132.039c-0.747-0.456-1.659-1.045-2.571-2.09c-0.711-0.816-1.167-1.52-1.55-2.317
			c-0.401,0.931-0.948,1.69-1.805,2.697c-0.711,0.836-1.44,1.387-2.334,2.014l-1.604-1.425c1.44-0.931,2.607-2.014,3.409-3.419
			c0.931-1.615,1.204-3.382,1.204-5.281v-2.755h2.206v2.755c0,1.443,0.273,3.913,1.386,5.471c0.984,1.368,2.024,2.185,3.026,2.773
			L788.806,132.039z M793.529,127.099v8.149h-2.115v-16.717h2.115v6.535h2.315v2.032H793.529z"/>
		<path fill="#595757" d="M807.939,121.799v-3.268h2.115v8.795h-2.115v-3.571h-3.264c-0.438,1.881-2.279,3.097-4.267,3.097
			c-2.261,0-4.358-1.576-4.358-3.933c0-2.336,2.061-3.913,4.358-3.913c1.896,0,3.646,1.083,4.193,2.793H807.939z M800.409,120.944
			c-1.148,0-2.188,0.874-2.188,1.938c0,1.103,1.04,1.995,2.188,1.995s2.188-0.893,2.188-1.995
			C802.597,121.799,801.557,120.944,800.409,120.944z M798.384,135.059v-6.991h2.098v1.729h7.421v-1.729h2.115v6.991H798.384z
			 M807.903,131.659h-7.421v1.538h7.421V131.659z"/>
		<path fill="#595757" d="M820.58,127.536c-0.583-0.228-1.222-0.531-2.188-1.234c-0.729-0.532-1.259-1.14-1.532-1.577
			c-0.291,0.57-0.856,1.141-1.567,1.748c-0.803,0.703-1.86,1.292-2.626,1.577l-1.44-1.71c0.894-0.304,2.443-1.063,3.337-2.033
			c0.839-0.893,1.13-1.956,1.13-2.545v-0.323h-3.081v-1.957h8.424v1.957h-3.081v0.323c0,0.569,0.364,1.576,1.094,2.317
			c0.984,0.988,1.951,1.443,2.698,1.672L820.58,127.536z M819.887,135.477c-4.03,0-6.236-1.387-6.236-3.382
			c0-1.956,2.206-3.419,6.236-3.419c4.048,0,6.236,1.443,6.236,3.419S823.935,135.477,819.887,135.477z M819.906,133.749
			c2.315,0,3.901-0.665,3.901-1.634c0-1.007-1.586-1.653-3.901-1.653c-2.353,0-3.902,0.627-3.902,1.634
			C816.003,133.064,817.553,133.749,819.906,133.749z M825.686,124.344v3.989h-2.115v-9.802h2.115v3.818h2.206v1.994H825.686z"/>
		<path fill="#595757" d="M834.954,127.917c-0.438-0.209-1.112-0.703-1.842-1.425c-0.564-0.57-1.075-1.312-1.276-1.71
			c-0.164,0.398-0.692,1.272-1.313,1.956c-0.729,0.798-1.222,1.197-1.732,1.521l-1.678-1.425c0.748-0.476,1.715-1.273,2.48-2.394
			c0.729-1.083,1.112-2.318,1.112-4.047v-1.405h2.242v1.405c0,1.729,0.401,3.097,1.149,4.065c0.802,1.026,1.695,1.729,2.188,1.938
			L834.954,127.917z M836.303,135.477c-4.157,0-6.346-1.387-6.346-3.362s2.188-3.382,6.346-3.382c4.176,0,6.346,1.406,6.346,3.382
			S840.479,135.477,836.303,135.477z M832.274,132.095c0,0.988,1.677,1.577,4.048,1.577c2.334,0,3.975-0.551,3.975-1.539
			c0-1.007-1.623-1.539-3.975-1.539C833.933,130.594,832.274,131.108,832.274,132.095z M840.515,128.562v-4.274h-1.604v3.704h-2.042
			v-9.176h2.042v3.496h1.604v-3.78h2.043v10.03H840.515z"/>
		<path fill="#595757" d="M848.452,128.333h-5.324v-1.576h4.431v-0.855c-1.896-0.189-3.154-0.854-3.154-1.823
			c0-1.14,1.842-1.861,4.412-1.861c2.553,0,4.377,0.702,4.377,1.88c0,0.97-1.276,1.634-3.228,1.824v0.816
			c0.839,0,3.173-0.228,4.521-0.398v1.634C853.393,128.087,851.296,128.333,848.452,128.333z M843.912,121.78v-1.481h9.664v1.481
			H843.912z M845.662,135.059v-3.629h9.117v-0.778h-9.117v-1.539h11.487v3.629h-9.116v0.798h9.664v1.52H845.662z M846.373,119.69
			v-1.463h4.741v1.463H846.373z M848.816,123.47c-0.966,0-2.133,0.152-2.133,0.608c0,0.475,1.203,0.589,2.133,0.589
			c0.894,0,2.098-0.189,2.098-0.589C850.914,123.623,849.728,123.47,848.816,123.47z M857.167,124.667v3.856h-2.115v-9.992h2.115
			v4.293h2.188v1.843H857.167z"/>
		<path fill="#595757" d="M865.233,127.27c-1.204,2.546-2.954,4.389-4.23,5.319l-1.604-1.178c1.039-0.722,2.607-2.413,3.519-4.065
			c1.021-1.843,1.313-3.78,1.423-4.978h-4.066v-1.881h6.309C866.582,122.122,866.217,125.18,865.233,127.27z M868.587,124.515
			h-2.006v-1.994h2.006v-3.591h2.042v15.559h-2.042v-5.509h-2.37v-1.995h2.37V124.515z M871.979,135.249v-16.717h2.042v16.717
			H871.979z"/>
	</g>
	<g>
		<path fill="#FFFFFF" d="M612.219,246.183c-0.021,0.384,0.263,1.872,1.791,1.872c1.179,0,2.249-0.937,2.249-3.145
			c0-1.608-0.568-3-2.031-3s-1.834,1.296-1.943,1.68l-3.166-0.096l0.35-9.913h9.236v2.736h-6.354l-0.196,4.152
			c0.48-0.456,1.201-1.2,2.883-1.2c2.445,0,4.498,1.968,4.498,5.328c0,2.856-1.528,6.073-5.438,6.073
			c-1.594,0-3.21-0.456-4.258-1.824c-0.764-1.009-0.83-2.04-0.852-2.664H612.219z"/>
		<path fill="#FFFFFF" d="M628.14,237.709c-0.065-1.199-0.786-1.655-1.594-1.655c-2.184,0-2.249,2.976-2.293,4.704
			c0.546-0.552,1.397-1.344,2.992-1.344c2.117,0,4.366,1.655,4.366,5.304c0,1.849-0.458,3.192-1.615,4.369
			c-1.005,1.031-2.184,1.56-3.887,1.56c-5.263,0-5.263-5.616-5.263-7.608c0-3.36,0.394-6.841,2.468-8.521
			c1.332-1.104,2.926-1.177,3.516-1.177c2.292,0,4.476,1.296,4.542,4.368H628.14z M628.403,244.958c0-1.848-0.874-2.88-1.966-2.88
			c-0.546,0-2.205,0.359-2.205,2.952c0,2.064,1.005,2.928,2.074,2.928C627.246,247.958,628.403,247.239,628.403,244.958z"/>
		<path fill="#FFFFFF" d="M633.362,247.119h2.772v3.192h-2.772V247.119z"/>
		<path fill="#FFFFFF" d="M639.455,236.078c1.42-0.672,2.773-1.512,4.04-2.521h2.816v16.754h-3.297v-13.033
			c-0.634,0.528-1.9,1.393-3.56,2.137V236.078z"/>
		<path fill="#FFFFFF" d="M653.846,232.021c3.035,0,3.56,2.137,3.56,4.393c0,1.2,0,4.801-3.713,4.801
			c-2.576,0-3.493-1.969-3.493-4.561C650.2,235.406,650.221,232.021,653.846,232.021z M653.759,239.246
			c0.742,0,1.266-0.527,1.266-2.808c0-0.984-0.065-2.544-1.179-2.544c-1.288,0-1.288,1.943-1.288,2.664
			C652.558,238.406,652.841,239.246,653.759,239.246z M663.694,231.853l-8.298,18.746h-1.637l8.297-18.746H663.694z M663.89,241.334
			c3.014,0,3.56,2.136,3.56,4.368c0,1.224,0,4.824-3.734,4.824c-2.576,0-3.472-1.992-3.472-4.584
			C660.244,244.718,660.244,241.334,663.89,241.334z M663.803,248.559c0.742,0,1.267-0.528,1.267-2.809
			c0-0.984-0.088-2.544-1.201-2.544c-1.288,0-1.288,1.92-1.288,2.664C662.581,247.695,662.864,248.559,663.803,248.559z"/>
	</g>
	<g>
		<path fill="#FFFFFF" d="M690.124,93.831l3.952-3.96c0.699-0.696,1.484-1.464,2.293-2.544c0.852-1.128,1.048-1.656,1.048-2.425
			c0-1.271-0.677-2.136-1.813-2.136c-1.747,0-1.899,1.968-1.921,2.448h-3.341c0-0.672,0-1.92,0.895-3.145
			c0.874-1.2,2.489-1.824,4.346-1.824c3.318,0,5.153,1.969,5.153,4.561c0,1.729-0.611,3.961-7.206,9.793
			c2.205-0.048,2.468-0.072,4.192-0.096c2.336-0.048,2.599-0.048,3.101-0.072v2.784h-10.699V93.831z"/>
		<path fill="#FFFFFF" d="M705.214,93.087c-0.021,0.384,0.263,1.872,1.791,1.872c1.179,0,2.249-0.937,2.249-3.145
			c0-1.608-0.568-3-2.031-3s-1.834,1.296-1.943,1.68l-3.166-0.096l0.35-9.913h9.236v2.736h-6.354l-0.196,4.152
			c0.48-0.456,1.201-1.2,2.883-1.2c2.445,0,4.498,1.968,4.498,5.328c0,2.856-1.528,6.073-5.438,6.073
			c-1.594,0-3.21-0.456-4.258-1.824c-0.764-1.009-0.829-2.04-0.852-2.664H705.214z"/>
		<path fill="#FFFFFF" d="M714.628,94.023h2.772v3.192h-2.772V94.023z"/>
		<path fill="#FFFFFF" d="M718.997,93.567v-3.24l6.113-9.865h3.254l-0.021,10.346h2.074v2.76h-2.074v3.648h-3.232v-3.648H718.997z
			 M721.442,90.878h3.843v-4.416c0-0.216,0.022-1.416,0.044-1.849L721.442,90.878z"/>
		<path fill="#FFFFFF" d="M735.113,78.925c3.035,0,3.56,2.137,3.56,4.393c0,1.2,0,4.801-3.713,4.801
			c-2.576,0-3.493-1.969-3.493-4.561C731.466,82.31,731.488,78.925,735.113,78.925z M735.026,86.15c0.742,0,1.266-0.527,1.266-2.808
			c0-0.984-0.065-2.544-1.179-2.544c-1.288,0-1.288,1.943-1.288,2.664C733.825,85.31,734.108,86.15,735.026,86.15z M744.96,78.757
			l-8.297,18.746h-1.638l8.297-18.746H744.96z M745.157,88.239c3.014,0,3.56,2.136,3.56,4.368c0,1.224,0,4.824-3.734,4.824
			c-2.576,0-3.472-1.992-3.472-4.584C741.51,91.623,741.51,88.239,745.157,88.239z M745.07,95.463c0.742,0,1.267-0.528,1.267-2.809
			c0-0.984-0.088-2.544-1.201-2.544c-1.288,0-1.288,1.92-1.288,2.664C743.847,94.599,744.13,95.463,745.07,95.463z"/>
	</g>
	<g>
		<path fill="#FFFFFF" d="M559.629,65.39c1.419-0.672,2.773-1.512,4.04-2.521h2.816v16.754h-3.297V66.59
			c-0.634,0.528-1.9,1.393-3.56,2.137V65.39z"/>
		<path fill="#FFFFFF" d="M569.436,62.894h10.328v2.977l-5.24,13.753h-3.646l5.568-13.945h-7.01V62.894z"/>
		<path fill="#FFFFFF" d="M578.259,76.431h2.772v3.192h-2.772V76.431z"/>
		<path fill="#FFFFFF" d="M586.186,75.496c-0.021,0.384,0.263,1.872,1.791,1.872c1.179,0,2.249-0.937,2.249-3.145
			c0-1.608-0.568-3-2.031-3s-1.834,1.296-1.943,1.68l-3.166-0.096l0.35-9.913h9.236v2.736h-6.354l-0.196,4.152
			c0.48-0.456,1.201-1.2,2.883-1.2c2.445,0,4.498,1.968,4.498,5.328c0,2.856-1.528,6.073-5.438,6.073
			c-1.594,0-3.21-0.456-4.258-1.824c-0.764-1.009-0.83-2.04-0.852-2.664H586.186z"/>
		<path fill="#FFFFFF" d="M598.745,61.333c3.035,0,3.56,2.137,3.56,4.393c0,1.2,0,4.801-3.713,4.801
			c-2.576,0-3.493-1.969-3.493-4.561C595.098,64.718,595.12,61.333,598.745,61.333z M598.658,68.558
			c0.742,0,1.266-0.527,1.266-2.808c0-0.984-0.065-2.544-1.179-2.544c-1.288,0-1.288,1.943-1.288,2.664
			C597.457,67.718,597.74,68.558,598.658,68.558z M608.592,61.166l-8.298,18.746h-1.637l8.297-18.746H608.592z M608.789,70.647
			c3.014,0,3.56,2.136,3.56,4.368c0,1.224,0,4.824-3.734,4.824c-2.576,0-3.472-1.992-3.472-4.584
			C605.142,74.031,605.142,70.647,608.789,70.647z M608.702,77.872c0.742,0,1.267-0.528,1.267-2.809
			c0-0.984-0.088-2.544-1.201-2.544c-1.288,0-1.288,1.92-1.288,2.664C607.479,77.007,607.762,77.872,608.702,77.872z"/>
	</g>
	<g>
		<path fill="#595757" d="M806.857,144.854c2.14,0,3.406,1.271,3.974,2.208c0.786,1.272,1.376,2.904,1.376,6.049
			c0,3.888-0.808,9-5.394,9c-3.908,0-5.262-4.128-5.262-8.593C801.551,151.287,801.965,144.854,806.857,144.854z M808.539,149.583
			c-0.088-0.456-0.459-1.944-1.66-1.944c-0.938,0-1.354,0.936-1.506,1.439c-0.503,1.704-0.503,4.272-0.503,4.681
			c0,2.856,0.394,5.521,2.031,5.521c1.746,0,2.03-3.264,2.03-5.568C808.931,152.655,808.822,150.686,808.539,149.583z"/>
		<path fill="#595757" d="M814.066,158.655h2.772v3.192h-2.772V158.655z"/>
		<path fill="#595757" d="M822.101,157.767c0.088,1.008,0.677,1.632,1.594,1.632c2.271,0,2.446-2.592,2.381-4.896
			c-1.092,1.08-2.075,1.152-2.752,1.152c-3.733,0-4.694-3.265-4.694-5.257c0-3.12,2.03-5.496,5.394-5.496
			c5.24,0,5.371,5.473,5.371,8.16c0,7.081-2.184,9.098-5.874,9.098c-0.852,0-4.716,0-4.716-4.393H822.101z M826.009,150.158
			c0-1.464-0.698-2.544-2.03-2.544c-1.55,0-2.118,1.368-2.118,2.641c0,0.576,0.153,2.64,2.053,2.64
			C825.53,152.894,826.009,151.334,826.009,150.158z"/>
		<path fill="#595757" d="M834.529,143.557c3.035,0,3.56,2.137,3.56,4.393c0,1.2,0,4.801-3.713,4.801
			c-2.576,0-3.493-1.969-3.493-4.561C830.882,146.942,830.904,143.557,834.529,143.557z M834.442,150.782
			c0.742,0,1.266-0.527,1.266-2.808c0-0.984-0.065-2.544-1.179-2.544c-1.288,0-1.288,1.943-1.288,2.664
			C833.241,149.942,833.524,150.782,834.442,150.782z M844.376,143.389l-8.297,18.746h-1.638l8.297-18.746H844.376z
			 M844.573,152.871c3.014,0,3.56,2.136,3.56,4.368c0,1.224,0,4.824-3.734,4.824c-2.576,0-3.472-1.992-3.472-4.584
			C840.926,156.254,840.926,152.871,844.573,152.871z M844.486,160.095c0.742,0,1.267-0.528,1.267-2.809
			c0-0.984-0.088-2.544-1.201-2.544c-1.288,0-1.288,1.92-1.288,2.664C843.263,159.231,843.546,160.095,844.486,160.095z"/>
	</g>
	<g>
		<path fill="#595757" d="M619.052,108.377c-2.262,0-4.358-1.576-4.358-3.933c0-2.336,2.061-3.913,4.358-3.913
			c2.279,0,4.357,1.577,4.357,3.913C623.41,106.782,621.332,108.377,619.052,108.377z M619.052,102.469
			c-1.149,0-2.188,0.874-2.188,1.938c0,1.103,1.039,1.995,2.188,1.995c1.148,0,2.188-0.893,2.188-1.995
			C621.24,103.325,620.201,102.469,619.052,102.469z M617.064,116.584v-4.445h9.3v-1.026h-9.3v-1.767h11.67v4.427h-9.317v1.025
			h9.719v1.786H617.064z M626.637,108.757v-8.7h2.115v8.7H626.637z"/>
		<path fill="#595757" d="M640.172,105.452h2.37v-1.311h-2.37v-1.748h2.37v-2.336h2.115v10.183h-2.115v-3.04h-2.078v1.71
			c-1.313,0.151-2.681,0.228-4.048,0.285c-2.043,0.095-6.018,0.075-6.236,0.075v-1.956h2.061l-0.256-3.856h2.115l0.201,3.856
			c1.058-0.02,1.094-0.02,1.859-0.038l0.164-3.818h2.098l-0.183,3.704c0.894-0.038,1.203-0.076,1.933-0.171V105.452z
			 M630.636,102.792v-1.938h9.244v1.938H630.636z M638.495,117.002c-4.066,0-6.363-1.349-6.363-3.249
			c0-1.918,2.297-3.343,6.363-3.343c4.085,0,6.382,1.405,6.382,3.324S642.58,117.002,638.495,117.002z M638.513,112.215
			c-2.407,0-3.884,0.569-3.884,1.5c0,0.894,1.477,1.539,3.884,1.539c2.37,0,3.848-0.607,3.848-1.501
			C642.361,112.823,640.883,112.215,638.513,112.215z"/>
		<path fill="#595757" d="M657.901,108.757v4.047h-2.152v-4.047h-2.242v4.047h-2.17v-4.047h-5.763v-1.919h11.287
			c0.164-0.854,0.492-2.906,0.639-4.274h-10.156v-1.918h12.6c0,0.551-0.292,2.679-0.475,3.761c-0.182,1.064-0.383,1.938-0.474,2.432
			h2.626v1.919H657.901z M647.781,116.394v-5.243h2.115v3.382h10.266v1.861H647.781z"/>
	</g>
	<g>
		<path fill="#595757" d="M614.694,132.774v-9.1h2.115v2.679h3.993v-2.679h2.115v9.1H614.694z M616.517,139.404v-5.205h2.151v3.287
			h9.683v1.918H616.517z M620.802,128.31h-3.993v2.526h3.993V128.31z M627.823,129.602v5.565h-2.115v-12.101h2.115v4.54h2.206v1.995
			H627.823z"/>
		<path fill="#595757" d="M634.921,131.387c-2.262,0-4.358-1.576-4.358-3.933c0-2.336,2.061-3.913,4.358-3.913
			c2.279,0,4.357,1.577,4.357,3.913C639.279,129.792,637.201,131.387,634.921,131.387z M634.921,125.479
			c-1.149,0-2.188,0.874-2.188,1.938c0,1.103,1.039,1.995,2.188,1.995c1.148,0,2.188-0.893,2.188-1.995
			C637.109,126.334,636.07,125.479,634.921,125.479z M632.952,139.594v-6.991h2.188v1.729h7.312v-1.729h2.151v6.991H632.952z
			 M642.452,136.194h-7.312v1.538h7.312V136.194z M642.506,131.862v-8.795h2.115v8.795H642.506z"/>
		<path fill="#595757" d="M649.951,132.717l-3.72,0.019v-5.376h5.98v-1.614h-5.98v-1.881h8.096v5.338h-5.98v1.672l2.479-0.02
			c1.55-0.019,4.012-0.228,5.179-0.38v1.824C654.783,132.47,652.138,132.698,649.951,132.717z M653.542,140.012
			c-4.029,0-6.199-1.33-6.199-3.249c0-1.899,2.17-3.248,6.199-3.248c4.048,0,6.199,1.349,6.199,3.248
			C659.742,138.682,657.59,140.012,653.542,140.012z M653.561,135.3c-2.353,0-3.921,0.514-3.921,1.482
			c0,0.949,1.568,1.463,3.921,1.463c2.315,0,3.847-0.514,3.847-1.463C657.408,135.814,655.876,135.3,653.561,135.3z
			 M659.359,130.742v2.526h-2.115v-10.201h2.115v1.899h2.225v1.881h-2.225v2.014h2.225v1.881H659.359z"/>
	</g>
	<g>
		<path fill="#595757" d="M594.155,157.379c-2.607,0-4.467-1.786-4.467-4.142s1.859-4.16,4.467-4.16s4.485,1.805,4.485,4.16
			S596.762,157.379,594.155,157.379z M601.175,165.282v-4.122h-9.664v-1.957h11.779v6.079H601.175z M594.173,151.015
			c-1.44,0-2.279,1.045-2.279,2.261s0.839,2.242,2.279,2.242c1.459,0,2.279-1.026,2.279-2.242S595.632,151.015,594.173,151.015z
			 M603.253,156.144v2.299h-2.115v-9.878h2.115v2.09h2.279v1.861h-2.279v1.748h2.279v1.88H603.253z"/>
	</g>
	<g>
		<path fill="#595757" d="M606.831,150.602c1.419-0.672,2.773-1.512,4.04-2.521h2.816v16.754h-3.297v-13.033
			c-0.634,0.528-1.9,1.393-3.56,2.137V150.602z"/>
		<path fill="#595757" d="M617.031,161.451l3.952-3.96c0.699-0.696,1.484-1.464,2.293-2.544c0.852-1.128,1.048-1.656,1.048-2.425
			c0-1.271-0.677-2.136-1.813-2.136c-1.747,0-1.899,1.968-1.921,2.448h-3.341c0-0.672,0-1.92,0.895-3.145
			c0.874-1.2,2.489-1.824,4.346-1.824c3.318,0,5.153,1.969,5.153,4.561c0,1.729-0.611,3.96-7.206,9.793
			c2.205-0.048,2.468-0.072,4.192-0.096c2.337-0.048,2.599-0.048,3.101-0.072v2.784h-10.699V161.451z"/>
		<path fill="#595757" d="M633.65,161.643l-2.599,5.904h-2.249l1.616-5.904H633.65z"/>
		<path fill="#595757" d="M639.961,147.842c2.14,0,3.406,1.271,3.974,2.208c0.786,1.272,1.376,2.904,1.376,6.049
			c0,3.888-0.808,9-5.394,9c-3.908,0-5.262-4.128-5.262-8.593C634.656,154.275,635.07,147.842,639.961,147.842z M641.643,152.571
			c-0.088-0.456-0.459-1.944-1.66-1.944c-0.938,0-1.354,0.936-1.506,1.439c-0.503,1.704-0.503,4.272-0.503,4.681
			c0,2.856,0.394,5.521,2.031,5.521c1.746,0,2.03-3.264,2.03-5.568C642.036,155.643,641.926,153.674,641.643,152.571z"/>
		<path fill="#595757" d="M652.104,147.842c2.14,0,3.406,1.271,3.974,2.208c0.786,1.272,1.376,2.904,1.376,6.049
			c0,3.888-0.808,9-5.394,9c-3.908,0-5.262-4.128-5.262-8.593C646.798,154.275,647.212,147.842,652.104,147.842z M653.786,152.571
			c-0.088-0.456-0.459-1.944-1.66-1.944c-0.938,0-1.354,0.936-1.506,1.439c-0.503,1.704-0.503,4.272-0.503,4.681
			c0,2.856,0.394,5.521,2.031,5.521c1.746,0,2.03-3.264,2.03-5.568C654.178,155.643,654.069,153.674,653.786,152.571z"/>
		<path fill="#595757" d="M664.248,147.842c2.14,0,3.406,1.271,3.974,2.208c0.786,1.272,1.376,2.904,1.376,6.049
			c0,3.888-0.808,9-5.394,9c-3.908,0-5.262-4.128-5.262-8.593C658.942,154.275,659.356,147.842,664.248,147.842z M665.929,152.571
			c-0.088-0.456-0.459-1.944-1.66-1.944c-0.938,0-1.354,0.936-1.506,1.439c-0.503,1.704-0.503,4.272-0.503,4.681
			c0,2.856,0.394,5.521,2.031,5.521c1.746,0,2.03-3.264,2.03-5.568C666.322,155.643,666.212,153.674,665.929,152.571z"/>
	</g>
	<g>
		<path fill="#595757" d="M670.16,159.689v-1.919h6.875v-1.349h-4.869v-7.58h12.053v1.806h-9.846v1.158h9.791v1.653h-9.791v1.158
			h10.065v1.805h-5.088v1.349h6.856v1.919H670.16z M672.129,164.894v-4.312h2.298v2.394h10.302v1.918H672.129z"/>
	</g>
	<line fill="none" stroke="#595757" stroke-width="0.283" x1="761.858" y1="141.915" x2="787.363" y2="141.915"/>
</g>
</svg>
