<?xml version="1.0" encoding="utf-8"?>
<!-- Generator: Adobe Illustrator 16.0.0, SVG Export Plug-In . SVG Version: 6.00 Build 0)  -->
<!DOCTYPE svg PUBLIC "-//W3C//DTD SVG 1.0//EN" "http://www.w3.org/TR/2001/REC-SVG-20010904/DTD/svg10.dtd">
<svg version="1.0" id="레이어_1" xmlns="http://www.w3.org/2000/svg" xmlns:xlink="http://www.w3.org/1999/xlink" x="0px"
	 y="0px" width="197.018px" height="107.232px" viewBox="0 0 197.018 107.232" enable-background="new 0 0 197.018 107.232"
	 xml:space="preserve">
<g>
	<defs>
		<rect id="SVGID_1_" width="197.018" height="107.232"/>
	</defs>
	<clipPath id="SVGID_2_">
		<use xlink:href="#SVGID_1_"  overflow="visible"/>
	</clipPath>
	
		<path clip-path="url(#SVGID_2_)" fill="none" stroke="#231815" stroke-width="8" stroke-linejoin="round" stroke-miterlimit="9.176" d="
		M30.326,79.634c0,1.045-0.204,2.04-0.61,2.984c-0.406,0.945-0.918,1.787-1.536,2.527s-1.309,1.361-2.072,1.862
		c-0.764,0.5-1.487,0.842-2.168,1.024c-0.683,0.184-1.407,0.229-2.169,0.138c-0.764-0.092-1.455-0.343-2.072-0.752
		c-0.618-0.408-1.13-0.977-1.536-1.704c-0.407-0.727-0.609-1.613-0.609-2.658V70.987c0-1.148,0.188-2.191,0.561-3.129
		c0.373-0.935,0.869-1.765,1.487-2.487c0.617-0.722,1.299-1.314,2.047-1.776c0.747-0.462,1.511-0.797,2.292-1.006
		c0.779-0.209,1.542-0.283,2.291-0.222c0.747,0.061,1.43,0.287,2.047,0.679s1.113,0.956,1.486,1.691
		c0.374,0.736,0.562,1.679,0.562,2.828V79.634z M7.609,85.408c0,2.996,0.512,5.374,1.536,7.139c1.024,1.763,2.331,3.051,3.924,3.858
		c1.592,0.811,3.355,1.227,5.29,1.248c1.933,0.022,3.794-0.206,5.582-0.686c1.787-0.479,3.647-1.247,5.581-2.306
		c1.933-1.058,3.697-2.418,5.29-4.082c1.592-1.662,2.9-3.65,3.923-5.962c1.024-2.313,1.536-4.966,1.536-7.962V65.214
		c0-2.996-0.512-5.376-1.536-7.139c-1.023-1.764-2.332-3.05-3.923-3.86c-1.593-0.81-3.357-1.225-5.29-1.248
		c-1.934-0.021-3.794,0.207-5.581,0.687c-1.821,0.487-3.698,1.261-5.63,2.318c-1.935,1.059-3.698,2.419-5.29,4.082
		c-1.593,1.664-2.893,3.648-3.9,5.956s-1.511,4.959-1.511,7.955V85.408z"/>
	
		<path clip-path="url(#SVGID_2_)" fill="none" stroke="#231815" stroke-width="8" stroke-linejoin="round" stroke-miterlimit="9.176" d="
		M87.945,78.824l-12.966-16.85l8.97-16.666c0.454-0.854,0.722-1.675,0.803-2.462c0.082-0.788,0.017-1.503-0.194-2.144
		c-0.212-0.64-0.562-1.156-1.049-1.547c-0.487-0.393-1.056-0.605-1.706-0.641c-1.333-0.061-2.559,0.294-3.68,1.064
		c-1.122,0.771-2.138,2.028-3.046,3.769l-5.704,11.298l-6.24-8.15c-0.91-1.219-1.975-1.908-3.192-2.07
		c-1.219-0.161-2.495,0.181-3.827,1.025c-0.651,0.419-1.219,0.963-1.707,1.634c-0.487,0.671-0.845,1.375-1.072,2.115
		c-0.228,0.74-0.309,1.485-0.244,2.233c0.065,0.75,0.308,1.398,0.731,1.947l9.262,11.624L50.361,88.895l11.114-2.979l7.215-13.846
		l7.897,9.797L87.945,78.824z"/>
	
		<path clip-path="url(#SVGID_2_)" fill="none" stroke="#231815" stroke-width="8" stroke-linejoin="round" stroke-miterlimit="9.176" d="
		M141.86,68.036V24.147c0-1.706-0.488-2.864-1.463-3.474c-0.976-0.609-2.113-0.74-3.412-0.393c-1.3,0.349-2.438,1.089-3.413,2.221
		c-0.975,1.132-1.462,2.552-1.462,4.258v43.889L141.86,68.036z M100.571,75.545c0.031,1.245,0.536,2.094,1.511,2.547
		c0.976,0.453,2.145,0.479,3.51,0.079c1.787-0.514,3.525-1.285,5.216-2.313c1.689-1.027,3.185-2.282,4.485-3.762
		c1.299-1.479,2.347-3.162,3.144-5.048c0.796-1.886,1.195-3.96,1.195-6.225v-1.881l6.775-1.815c0.714-0.191,1.332-0.479,1.852-0.862
		c0.52-0.382,0.952-0.821,1.293-1.313s0.584-1.019,0.731-1.58c0.146-0.563,0.219-1.121,0.219-1.68c0-0.521-0.073-1.024-0.219-1.508
		c-0.147-0.482-0.383-0.891-0.707-1.221c-0.326-0.331-0.748-0.558-1.268-0.68c-0.521-0.122-1.154-0.083-1.901,0.117l-0.146,0.039
		c0.455-1.235,0.813-2.699,1.073-4.389c0.259-1.688,0.389-3.579,0.389-5.668v-8.151c0-1.881-0.486-3.195-1.462-3.944
		c-0.975-0.748-2.648-0.807-5.021-0.171l-17.793,4.768c-1.626,0.436-2.779,1.163-3.462,2.183c-0.682,1.019-1.023,2.085-1.023,3.2
		c0,1.219,0.349,2.145,1.048,2.775c0.698,0.631,1.844,0.733,3.437,0.307l13.746-3.684c0.813-0.218,1.219,0.058,1.219,0.822v2.195
		l-15.209,4.075c-1.593,0.427-2.729,1.132-3.412,2.116c-0.683,0.984-1.024,2.033-1.024,3.148c0,1.185,0.349,2.084,1.048,2.696
		c0.698,0.615,1.827,0.713,3.388,0.294l14.819-3.971c-0.26,1.429-0.602,2.722-1.024,3.88l-15.306,4.101
		c-0.749,0.201-1.382,0.501-1.901,0.902c-0.521,0.4-0.952,0.855-1.292,1.364s-0.584,1.045-0.731,1.606
		c-0.146,0.562-0.219,1.104-0.219,1.626c0,1.116,0.325,2.029,0.975,2.743c0.65,0.714,1.707,0.875,3.169,0.483l7.994-2.142v1.881
		c0,0.835-0.154,1.608-0.463,2.318c-0.31,0.71-0.724,1.361-1.243,1.952c-0.521,0.594-1.129,1.104-1.827,1.535
		c-0.7,0.432-1.423,0.799-2.17,1.104C101.675,71.297,100.538,73.012,100.571,75.545z"/>
	
		<path clip-path="url(#SVGID_2_)" fill="none" stroke="#231815" stroke-width="8" stroke-linejoin="round" stroke-miterlimit="9.176" d="
		M150.489,55.848c-0.749,0.2-1.391,0.503-1.927,0.908s-0.975,0.862-1.315,1.371c-0.342,0.51-0.585,1.054-0.731,1.634
		c-0.146,0.579-0.219,1.129-0.219,1.651c0,0.558,0.08,1.076,0.243,1.554c0.162,0.479,0.414,0.882,0.756,1.209
		c0.341,0.327,0.771,0.542,1.292,0.646c0.519,0.104,1.152,0.057,1.901-0.144l37.243-9.979c0.746-0.2,1.38-0.492,1.9-0.875
		c0.52-0.383,0.95-0.829,1.292-1.339s0.593-1.047,0.756-1.613c0.162-0.565,0.243-1.128,0.243-1.685c0-0.522-0.073-1.033-0.219-1.534
		c-0.146-0.502-0.391-0.916-0.731-1.241c-0.341-0.327-0.78-0.549-1.316-0.666c-0.536-0.118-1.179-0.077-1.925,0.123L150.489,55.848z
		 M185.977,17.603c0.715-0.191,1.332-0.487,1.853-0.888c0.521-0.401,0.951-0.856,1.292-1.366c0.341-0.508,0.585-1.045,0.731-1.605
		c0.146-0.563,0.219-1.104,0.219-1.626c0-0.523-0.072-1.026-0.219-1.509c-0.146-0.484-0.383-0.898-0.707-1.248
		c-0.325-0.348-0.748-0.583-1.268-0.705s-1.153-0.083-1.901,0.117l-33.732,9.039c-0.749,0.2-1.383,0.501-1.902,0.902
		c-0.52,0.399-0.942,0.862-1.268,1.384c-0.324,0.522-0.56,1.064-0.707,1.626c-0.146,0.562-0.219,1.104-0.219,1.627
		c0,0.521,0.073,1.024,0.219,1.508c0.147,0.482,0.391,0.889,0.731,1.215c0.342,0.326,0.765,0.553,1.269,0.68
		c0.503,0.126,1.128,0.089,1.877-0.111l11.747-3.148c-0.13,1.638-0.593,3.251-1.389,4.84c-0.797,1.589-1.813,3.081-3.047,4.474
		c-1.235,1.394-2.633,2.656-4.191,3.788c-1.561,1.133-3.17,2.06-4.827,2.782c-1.202,0.531-2.088,1.353-2.656,2.463
		c-0.569,1.109-0.772,2.217-0.609,3.323c0.162,1.177,0.738,1.989,1.73,2.437c0.99,0.449,2.152,0.424,3.485-0.072
		c1.43-0.488,2.908-1.171,4.436-2.05c1.528-0.88,3.03-1.91,4.51-3.09c1.478-1.18,2.892-2.49,4.24-3.932s2.575-2.971,3.682-4.591
		c0.195-0.087,0.373-0.161,0.536-0.223c0.162-0.062,0.324-0.113,0.486-0.156c2.86-0.767,5.273-0.621,7.24,0.438
		c1.965,1.058,3.176,3.007,3.632,5.845l9.603-2.573c-0.163-2.847-0.739-5.209-1.73-7.086c-0.992-1.877-2.268-3.312-3.827-4.304
		c-1.559-0.993-3.314-1.576-5.265-1.751c-1.95-0.173-3.948,0.014-5.996,0.563l-0.486,0.13c0.162-0.636,0.283-1.278,0.364-1.926
		c0.081-0.649,0.139-1.326,0.171-2.031L185.977,17.603z"/>
	<g clip-path="url(#SVGID_2_)">
		<path fill="#FFFFFF" d="M7.608,73.965c0-2.995,0.503-5.647,1.512-7.955c1.007-2.308,2.307-4.293,3.9-5.956
			c1.591-1.663,3.355-3.024,5.289-4.082c1.933-1.059,3.81-1.83,5.63-2.318c1.787-0.479,3.647-0.708,5.582-0.686
			c1.933,0.021,3.696,0.438,5.289,1.247s2.901,2.097,3.924,3.86c1.023,1.763,1.536,4.143,1.536,7.138v11.442
			c0,2.996-0.512,5.649-1.536,7.961c-1.023,2.313-2.332,4.301-3.924,5.963c-1.592,1.663-3.356,3.024-5.289,4.082
			c-1.934,1.058-3.795,1.827-5.582,2.306c-1.788,0.479-3.649,0.707-5.582,0.685c-1.935-0.021-3.698-0.437-5.29-1.246
			s-2.899-2.098-3.924-3.859c-1.023-1.765-1.536-4.143-1.536-7.139V73.965z M30.325,67.565c0-1.149-0.188-2.093-0.561-2.828
			c-0.374-0.736-0.87-1.3-1.487-1.692c-0.618-0.391-1.3-0.618-2.047-0.679c-0.748-0.062-1.511,0.014-2.291,0.223
			c-0.78,0.209-1.544,0.544-2.292,1.005c-0.748,0.462-1.431,1.055-2.048,1.777c-0.617,0.723-1.113,1.552-1.486,2.487
			c-0.374,0.937-0.561,1.979-0.561,3.129v12.069c0,1.045,0.203,1.932,0.609,2.658c0.406,0.727,0.918,1.295,1.536,1.703
			c0.617,0.41,1.308,0.661,2.071,0.752c0.763,0.092,1.487,0.046,2.17-0.137c0.682-0.183,1.405-0.525,2.169-1.025
			c0.763-0.501,1.454-1.121,2.071-1.862c0.617-0.739,1.129-1.581,1.536-2.526c0.406-0.945,0.609-1.939,0.609-2.984V67.565z"/>
		<path fill="#FFFFFF" d="M76.586,81.867l-7.897-9.796l-7.214,13.846L50.36,88.894l12.723-23.891l-9.262-11.624
			c-0.423-0.548-0.667-1.197-0.731-1.947c-0.066-0.747,0.016-1.492,0.243-2.233c0.228-0.739,0.585-1.444,1.073-2.115
			c0.487-0.67,1.055-1.214,1.706-1.633c1.332-0.844,2.608-1.186,3.827-1.025c1.219,0.162,2.283,0.852,3.193,2.07l6.239,8.15
			l5.704-11.299c0.91-1.74,1.925-2.997,3.047-3.768c1.121-0.771,2.347-1.126,3.68-1.064c0.65,0.034,1.219,0.248,1.707,0.64
			s0.837,0.908,1.048,1.548c0.211,0.641,0.276,1.354,0.195,2.142c-0.081,0.788-0.35,1.609-0.805,2.463l-8.97,16.667l12.968,16.85
			L76.586,81.867z"/>
		<path fill="#FFFFFF" d="M103.981,70.399c0.747-0.305,1.471-0.673,2.17-1.104c0.697-0.43,1.307-0.941,1.828-1.534
			c0.52-0.592,0.934-1.242,1.243-1.952c0.309-0.71,0.463-1.482,0.463-2.318v-1.881l-7.995,2.143
			c-1.462,0.392-2.519,0.23-3.169-0.484c-0.65-0.714-0.974-1.628-0.974-2.743c0-0.522,0.073-1.064,0.219-1.626
			s0.391-1.098,0.731-1.607c0.342-0.509,0.771-0.963,1.292-1.364c0.52-0.399,1.153-0.7,1.901-0.901l15.307-4.101
			c0.423-1.158,0.764-2.452,1.024-3.88l-14.82,3.971c-1.559,0.418-2.689,0.321-3.387-0.294c-0.699-0.613-1.048-1.513-1.048-2.697
			c0-1.114,0.34-2.163,1.023-3.147c0.682-0.983,1.82-1.689,3.412-2.116l15.21-4.075v-2.194c0-0.766-0.407-1.041-1.219-0.823
			l-13.747,3.684c-1.593,0.427-2.738,0.324-3.437-0.307c-0.699-0.631-1.048-1.557-1.048-2.775c0-1.115,0.341-2.182,1.024-3.201
			c0.682-1.019,1.835-1.745,3.46-2.181l17.793-4.768c2.372-0.636,4.046-0.579,5.021,0.169c0.976,0.75,1.463,2.064,1.463,3.945v8.15
			c0,2.09-0.13,3.979-0.39,5.669c-0.261,1.69-0.618,3.153-1.073,4.389l0.146-0.039c0.748-0.2,1.381-0.239,1.901-0.118
			c0.521,0.123,0.942,0.349,1.269,0.68c0.324,0.33,0.56,0.738,0.706,1.222s0.219,0.986,0.219,1.509c0,0.558-0.072,1.117-0.219,1.679
			s-0.391,1.089-0.731,1.579c-0.341,0.493-0.772,0.931-1.292,1.313c-0.52,0.384-1.138,0.671-1.853,0.862l-6.775,1.815v1.881
			c0,2.265-0.398,4.339-1.194,6.224c-0.797,1.886-1.845,3.569-3.145,5.049c-1.301,1.48-2.796,2.734-4.485,3.762
			s-3.429,1.798-5.215,2.312c-1.365,0.4-2.536,0.374-3.51-0.078c-0.976-0.453-1.479-1.302-1.512-2.547
			C100.536,73.012,101.674,71.296,103.981,70.399z M132.109,70.647V26.759c0-1.706,0.487-3.126,1.462-4.258
			c0.976-1.132,2.112-1.873,3.413-2.221c1.299-0.349,2.438-0.217,3.412,0.392c0.975,0.61,1.463,1.769,1.463,3.475v43.888
			L132.109,70.647z"/>
		<path fill="#FFFFFF" d="M187.73,45.869c0.748-0.201,1.39-0.242,1.926-0.124c0.536,0.117,0.975,0.34,1.316,0.666
			c0.341,0.327,0.585,0.741,0.73,1.241c0.146,0.502,0.22,1.012,0.22,1.534c0,0.558-0.082,1.119-0.244,1.687
			c-0.162,0.565-0.414,1.103-0.756,1.612c-0.34,0.509-0.771,0.956-1.291,1.339c-0.521,0.383-1.153,0.674-1.901,0.875l-37.243,9.979
			c-0.748,0.201-1.382,0.249-1.9,0.145c-0.521-0.104-0.951-0.32-1.293-0.646c-0.341-0.327-0.593-0.729-0.755-1.208
			c-0.163-0.479-0.243-0.997-0.243-1.555c0-0.522,0.072-1.072,0.219-1.652c0.146-0.579,0.39-1.124,0.73-1.633
			c0.342-0.509,0.78-0.967,1.317-1.371c0.535-0.405,1.177-0.708,1.925-0.909L187.73,45.869z M174.081,20.79
			c-0.032,0.706-0.09,1.384-0.17,2.032c-0.082,0.648-0.204,1.291-0.366,1.926l0.488-0.131c2.047-0.549,4.045-0.735,5.995-0.562
			c1.95,0.175,3.705,0.757,5.266,1.75c1.559,0.993,2.834,2.429,3.826,4.304c0.991,1.877,1.567,4.24,1.73,7.087l-9.604,2.573
			c-0.456-2.838-1.666-4.786-3.632-5.846c-1.967-1.057-4.38-1.203-7.238-0.438c-0.163,0.044-0.326,0.096-0.488,0.157
			c-0.163,0.062-0.341,0.136-0.535,0.222c-1.105,1.621-2.333,3.15-3.681,4.591c-1.35,1.441-2.764,2.752-4.241,3.933
			c-1.479,1.18-2.982,2.209-4.509,3.089c-1.528,0.879-3.007,1.563-4.437,2.051c-1.333,0.497-2.495,0.521-3.485,0.071
			c-0.991-0.447-1.569-1.26-1.731-2.437c-0.163-1.105,0.041-2.213,0.609-3.323c0.569-1.11,1.455-1.932,2.657-2.463
			c1.657-0.723,3.266-1.649,4.826-2.781s2.957-2.395,4.192-3.788c1.234-1.394,2.25-2.885,3.047-4.474
			c0.796-1.59,1.259-3.203,1.389-4.84l-11.748,3.147c-0.747,0.2-1.373,0.238-1.877,0.111c-0.504-0.126-0.926-0.353-1.268-0.679
			c-0.341-0.326-0.585-0.732-0.73-1.216c-0.146-0.483-0.22-0.985-0.22-1.508s0.073-1.065,0.22-1.627
			c0.146-0.562,0.382-1.103,0.706-1.626c0.324-0.521,0.748-0.984,1.268-1.384c0.521-0.401,1.154-0.701,1.901-0.901l33.733-9.039
			c0.747-0.2,1.381-0.24,1.901-0.117c0.52,0.121,0.941,0.356,1.268,0.705c0.324,0.349,0.56,0.764,0.706,1.247
			c0.147,0.483,0.22,0.986,0.22,1.509s-0.072,1.064-0.22,1.626c-0.146,0.562-0.39,1.098-0.73,1.606
			c-0.341,0.51-0.772,0.965-1.292,1.365c-0.521,0.401-1.139,0.696-1.853,0.888L174.081,20.79z"/>
	</g>
	
		<path clip-path="url(#SVGID_2_)" fill="none" stroke="#2C7EE9" stroke-width="8" stroke-linejoin="round" stroke-miterlimit="9.176" d="
		M28.298,76.898c0,1.045-0.204,2.04-0.609,2.984c-0.407,0.945-0.918,1.788-1.536,2.527c-0.617,0.74-1.309,1.361-2.072,1.862
		c-0.764,0.5-1.486,0.842-2.168,1.024c-0.683,0.184-1.406,0.229-2.169,0.138c-0.764-0.092-1.455-0.343-2.072-0.752
		c-0.618-0.408-1.13-0.977-1.536-1.704c-0.407-0.727-0.61-1.613-0.61-2.658V68.25c0-1.148,0.188-2.191,0.562-3.128
		c0.373-0.936,0.868-1.766,1.486-2.488c0.617-0.722,1.299-1.314,2.048-1.776c0.747-0.462,1.511-0.797,2.291-1.006
		c0.78-0.209,1.543-0.283,2.292-0.222c0.747,0.061,1.429,0.288,2.046,0.68c0.618,0.392,1.113,0.955,1.487,1.69
		c0.374,0.736,0.561,1.679,0.561,2.828V76.898z M5.582,82.671c0,2.996,0.512,5.374,1.536,7.139c1.024,1.763,2.331,3.051,3.924,3.858
		c1.592,0.811,3.355,1.227,5.289,1.248c1.933,0.022,3.794-0.206,5.582-0.686c1.787-0.479,3.647-1.247,5.581-2.306
		c1.933-1.058,3.697-2.418,5.29-4.082c1.592-1.662,2.901-3.65,3.924-5.962c1.024-2.313,1.536-4.966,1.536-7.962V62.478
		c0-2.996-0.512-5.376-1.536-7.139c-1.023-1.764-2.332-3.05-3.924-3.86c-1.593-0.81-3.356-1.225-5.29-1.247
		c-1.934-0.021-3.794,0.207-5.581,0.686c-1.821,0.487-3.697,1.261-5.63,2.318c-1.935,1.059-3.697,2.419-5.289,4.082
		c-1.593,1.664-2.893,3.648-3.9,5.956c-1.008,2.308-1.511,4.959-1.511,7.955V82.671z"/>
	
		<path clip-path="url(#SVGID_2_)" fill="none" stroke="#2C7EE9" stroke-width="8" stroke-linejoin="round" stroke-miterlimit="9.176" d="
		M85.918,76.088L72.951,59.238l8.97-16.666c0.454-0.854,0.723-1.675,0.804-2.462c0.081-0.788,0.016-1.503-0.194-2.144
		c-0.212-0.64-0.561-1.155-1.049-1.547c-0.487-0.393-1.056-0.605-1.706-0.641c-1.333-0.061-2.559,0.294-3.68,1.064
		c-1.121,0.771-2.137,2.028-3.046,3.769L67.345,51.91l-6.24-8.15c-0.91-1.219-1.974-1.908-3.192-2.07
		c-1.219-0.161-2.495,0.181-3.827,1.025c-0.651,0.419-1.219,0.963-1.707,1.634c-0.487,0.671-0.845,1.375-1.072,2.115
		c-0.228,0.74-0.309,1.485-0.243,2.233c0.064,0.75,0.308,1.398,0.731,1.947l9.262,11.625l-12.723,23.89l11.114-2.979l7.214-13.846
		l7.897,9.797L85.918,76.088z"/>
	
		<path clip-path="url(#SVGID_2_)" fill="none" stroke="#2C7EE9" stroke-width="8" stroke-linejoin="round" stroke-miterlimit="9.176" d="
		M139.833,65.299V21.411c0-1.706-0.488-2.864-1.463-3.474c-0.976-0.609-2.113-0.74-3.412-0.393
		c-1.301,0.349-2.438,1.089-3.413,2.221c-0.975,1.132-1.462,2.552-1.462,4.258v43.889L139.833,65.299z M98.543,72.809
		c0.032,1.245,0.536,2.094,1.51,2.547c0.976,0.453,2.146,0.479,3.511,0.079c1.787-0.514,3.525-1.285,5.216-2.313
		c1.689-1.027,3.185-2.282,4.484-3.762c1.3-1.479,2.348-3.162,3.145-5.048c0.796-1.886,1.194-3.96,1.194-6.225v-1.881l6.776-1.815
		c0.714-0.191,1.332-0.479,1.852-0.862c0.52-0.382,0.951-0.82,1.293-1.313c0.341-0.491,0.584-1.019,0.73-1.58
		c0.146-0.563,0.22-1.121,0.22-1.68c0-0.521-0.073-1.024-0.22-1.508c-0.146-0.482-0.382-0.891-0.707-1.221
		c-0.325-0.331-0.747-0.558-1.267-0.68c-0.521-0.122-1.154-0.083-1.901,0.117l-0.146,0.039c0.455-1.235,0.812-2.699,1.073-4.389
		c0.259-1.688,0.389-3.579,0.389-5.668v-8.151c0-1.881-0.486-3.195-1.462-3.944c-0.975-0.748-2.648-0.806-5.021-0.171L101.42,28.15
		c-1.626,0.436-2.779,1.163-3.462,2.183c-0.682,1.019-1.023,2.085-1.023,3.2c0,1.219,0.349,2.145,1.048,2.775
		c0.699,0.631,1.844,0.733,3.437,0.307l13.746-3.684c0.813-0.218,1.219,0.058,1.219,0.822v2.195l-15.209,4.075
		c-1.593,0.427-2.73,1.132-3.412,2.116c-0.683,0.984-1.024,2.033-1.024,3.148c0,1.185,0.349,2.084,1.048,2.696
		c0.698,0.615,1.827,0.713,3.388,0.295l14.819-3.972c-0.261,1.429-0.603,2.722-1.024,3.88l-15.306,4.101
		c-0.749,0.201-1.382,0.501-1.901,0.902c-0.521,0.4-0.951,0.855-1.292,1.365c-0.341,0.508-0.584,1.044-0.731,1.605
		c-0.146,0.562-0.219,1.104-0.219,1.626c0,1.116,0.325,2.029,0.975,2.743c0.65,0.715,1.707,0.875,3.169,0.483l7.995-2.142v1.881
		c0,0.835-0.155,1.608-0.463,2.318c-0.31,0.71-0.724,1.361-1.243,1.953c-0.521,0.593-1.129,1.104-1.828,1.534
		c-0.699,0.432-1.423,0.799-2.169,1.104C99.647,68.561,98.51,70.276,98.543,72.809z"/>
	
		<path clip-path="url(#SVGID_2_)" fill="none" stroke="#2C7EE9" stroke-width="8" stroke-linejoin="round" stroke-miterlimit="9.176" d="
		M148.461,53.112c-0.748,0.201-1.39,0.503-1.926,0.908s-0.975,0.862-1.315,1.372c-0.342,0.509-0.586,1.053-0.731,1.632
		c-0.146,0.58-0.219,1.13-0.219,1.652c0,0.558,0.08,1.076,0.243,1.555c0.162,0.479,0.414,0.882,0.755,1.208
		c0.341,0.327,0.772,0.542,1.293,0.646c0.519,0.104,1.152,0.057,1.9-0.144l37.243-9.979c0.747-0.2,1.381-0.492,1.901-0.875
		c0.52-0.383,0.95-0.829,1.291-1.339c0.342-0.51,0.594-1.047,0.757-1.613c0.162-0.565,0.243-1.128,0.243-1.685
		c0-0.522-0.073-1.033-0.219-1.535c-0.146-0.501-0.391-0.914-0.731-1.24c-0.341-0.327-0.78-0.549-1.316-0.666
		c-0.536-0.118-1.179-0.076-1.926,0.123L148.461,53.112z M183.949,14.867c0.715-0.191,1.332-0.487,1.853-0.889
		c0.52-0.4,0.95-0.855,1.292-1.365c0.341-0.508,0.585-1.045,0.73-1.605c0.147-0.563,0.22-1.104,0.22-1.626
		c0-0.523-0.072-1.026-0.22-1.509c-0.146-0.483-0.382-0.899-0.707-1.248c-0.324-0.348-0.747-0.583-1.267-0.705
		c-0.52-0.123-1.153-0.083-1.901,0.117l-33.733,9.039c-0.748,0.2-1.382,0.501-1.901,0.902c-0.52,0.399-0.942,0.862-1.268,1.384
		c-0.324,0.522-0.56,1.064-0.707,1.626c-0.146,0.562-0.219,1.104-0.219,1.627c0,0.521,0.073,1.024,0.219,1.509
		c0.147,0.482,0.391,0.888,0.731,1.214c0.342,0.326,0.764,0.553,1.269,0.679c0.503,0.127,1.128,0.09,1.876-0.11l11.748-3.148
		c-0.131,1.638-0.593,3.251-1.389,4.84c-0.797,1.59-1.813,3.081-3.047,4.474c-1.235,1.394-2.633,2.656-4.192,3.788
		s-3.169,2.06-4.826,2.782c-1.203,0.531-2.089,1.352-2.656,2.462c-0.569,1.11-0.773,2.218-0.609,3.324
		c0.162,1.177,0.738,1.988,1.73,2.437c0.99,0.449,2.152,0.425,3.485-0.072c1.43-0.488,2.908-1.171,4.436-2.05
		c1.527-0.881,3.03-1.909,4.51-3.09c1.478-1.18,2.892-2.49,4.24-3.932s2.575-2.971,3.682-4.591c0.194-0.088,0.372-0.161,0.535-0.223
		c0.163-0.061,0.325-0.112,0.487-0.156c2.86-0.767,5.273-0.621,7.239,0.438c1.966,1.058,3.177,3.007,3.632,5.845l9.604-2.573
		c-0.163-2.847-0.74-5.209-1.73-7.086c-0.992-1.877-2.268-3.312-3.827-4.304c-1.56-0.993-3.314-1.576-5.265-1.751
		c-1.95-0.173-3.948,0.014-5.996,0.563l-0.487,0.13c0.162-0.636,0.284-1.277,0.365-1.926c0.081-0.649,0.139-1.326,0.171-2.031
		L183.949,14.867z"/>
	<g clip-path="url(#SVGID_2_)">
		<path fill="#FFFFFF" d="M5.58,71.229c0-2.995,0.504-5.647,1.512-7.954c1.006-2.309,2.306-4.293,3.899-5.957
			c1.591-1.662,3.355-3.023,5.289-4.082c1.933-1.058,3.81-1.83,5.63-2.318c1.787-0.479,3.648-0.707,5.582-0.686
			c1.933,0.021,3.697,0.438,5.289,1.248c1.592,0.81,2.9,2.096,3.924,3.859c1.023,1.763,1.536,4.144,1.536,7.139V73.92
			c0,2.996-0.512,5.648-1.536,7.961c-1.023,2.312-2.332,4.3-3.924,5.963s-3.356,3.024-5.289,4.081
			c-1.934,1.059-3.795,1.827-5.582,2.306c-1.788,0.479-3.648,0.708-5.582,0.686c-1.935-0.021-3.697-0.438-5.29-1.247
			s-2.9-2.097-3.924-3.859c-1.023-1.764-1.536-4.143-1.536-7.139V71.229z M28.297,64.829c0-1.149-0.188-2.092-0.562-2.828
			c-0.374-0.735-0.87-1.299-1.486-1.691c-0.618-0.392-1.3-0.618-2.047-0.679c-0.748-0.062-1.511,0.013-2.292,0.222
			c-0.78,0.21-1.544,0.544-2.291,1.006c-0.748,0.461-1.431,1.055-2.048,1.776c-0.617,0.723-1.113,1.552-1.487,2.488
			c-0.374,0.936-0.56,1.979-0.56,3.129V80.32c0,1.045,0.203,1.932,0.609,2.658c0.405,0.728,0.917,1.295,1.536,1.704
			c0.617,0.41,1.307,0.66,2.071,0.752c0.763,0.091,1.487,0.046,2.169-0.138c0.682-0.183,1.406-0.524,2.17-1.025
			c0.763-0.5,1.454-1.121,2.071-1.861c0.617-0.74,1.129-1.582,1.536-2.527c0.406-0.944,0.609-1.939,0.609-2.984V64.829z"/>
		<path fill="#FFFFFF" d="M74.559,79.131l-7.897-9.796L59.447,83.18l-11.115,2.979l12.723-23.891l-9.262-11.625
			c-0.422-0.548-0.667-1.197-0.731-1.946c-0.066-0.748,0.016-1.492,0.244-2.233c0.227-0.739,0.584-1.444,1.072-2.115
			s1.056-1.215,1.707-1.634c1.332-0.844,2.608-1.186,3.827-1.025c1.219,0.162,2.283,0.852,3.193,2.07l6.239,8.15l5.704-11.299
			c0.909-1.74,1.925-2.997,3.047-3.768c1.121-0.771,2.347-1.125,3.68-1.064c0.65,0.035,1.219,0.248,1.707,0.641
			c0.487,0.392,0.836,0.907,1.048,1.547c0.211,0.641,0.276,1.354,0.195,2.143s-0.35,1.609-0.805,2.462l-8.97,16.667l12.967,16.85
			L74.559,79.131z"/>
		<path fill="#FFFFFF" d="M101.953,67.663c0.747-0.305,1.471-0.672,2.17-1.104c0.698-0.431,1.308-0.942,1.828-1.534
			c0.52-0.592,0.934-1.243,1.243-1.953c0.309-0.709,0.463-1.482,0.463-2.318v-1.881l-7.995,2.143
			c-1.462,0.392-2.519,0.23-3.168-0.484c-0.65-0.713-0.975-1.627-0.975-2.742c0-0.522,0.073-1.064,0.219-1.626
			c0.146-0.562,0.39-1.099,0.731-1.607c0.341-0.51,0.771-0.964,1.292-1.364c0.52-0.4,1.153-0.701,1.901-0.901l15.307-4.102
			c0.423-1.158,0.765-2.452,1.024-3.88l-14.82,3.971c-1.559,0.418-2.689,0.321-3.387-0.293c-0.699-0.613-1.048-1.514-1.048-2.698
			c0-1.114,0.341-2.162,1.023-3.147c0.682-0.983,1.82-1.689,3.412-2.116l15.21-4.075v-2.194c0-0.766-0.406-1.04-1.219-0.823
			l-13.746,3.684c-1.594,0.428-2.739,0.325-3.438-0.307c-0.699-0.631-1.048-1.556-1.048-2.775c0-1.114,0.342-2.182,1.024-3.2
			c0.682-1.019,1.836-1.746,3.461-2.182l17.792-4.767c2.372-0.637,4.047-0.58,5.021,0.169s1.463,2.063,1.463,3.944v8.15
			c0,2.09-0.131,3.979-0.391,5.67c-0.261,1.689-0.618,3.152-1.072,4.389l0.146-0.039c0.748-0.201,1.381-0.239,1.902-0.118
			c0.52,0.122,0.942,0.348,1.268,0.679c0.324,0.331,0.561,0.738,0.706,1.222c0.146,0.483,0.219,0.986,0.219,1.509
			c0,0.558-0.072,1.117-0.219,1.679c-0.146,0.562-0.391,1.089-0.73,1.58c-0.342,0.493-0.772,0.931-1.293,1.313
			c-0.52,0.384-1.138,0.671-1.853,0.863l-6.775,1.815v1.881c0,2.265-0.398,4.338-1.194,6.223c-0.797,1.886-1.845,3.57-3.144,5.049
			c-1.301,1.48-2.796,2.734-4.485,3.763c-1.69,1.026-3.429,1.798-5.216,2.312c-1.365,0.399-2.535,0.373-3.51-0.078
			c-0.976-0.453-1.479-1.303-1.511-2.547C98.508,70.277,99.646,68.56,101.953,67.663z M130.081,67.912V24.023
			c0-1.705,0.488-3.125,1.462-4.258c0.976-1.131,2.112-1.872,3.413-2.221c1.299-0.348,2.438-0.217,3.412,0.393
			c0.976,0.609,1.463,1.768,1.463,3.475v43.887L130.081,67.912z"/>
		<path fill="#FFFFFF" d="M185.702,43.132c0.748-0.2,1.39-0.241,1.926-0.123c0.536,0.117,0.975,0.34,1.316,0.666
			s0.585,0.74,0.731,1.24c0.146,0.502,0.22,1.013,0.22,1.535c0,0.558-0.082,1.118-0.245,1.686c-0.162,0.566-0.414,1.104-0.755,1.612
			s-0.771,0.956-1.292,1.339s-1.153,0.675-1.901,0.875l-37.243,9.979c-0.748,0.2-1.382,0.248-1.9,0.144
			c-0.521-0.104-0.951-0.32-1.292-0.646c-0.342-0.326-0.594-0.729-0.756-1.207c-0.163-0.48-0.243-0.998-0.243-1.556
			c0-0.522,0.072-1.072,0.219-1.652c0.146-0.578,0.391-1.123,0.73-1.632c0.342-0.51,0.78-0.967,1.317-1.372
			c0.536-0.405,1.177-0.708,1.925-0.908L185.702,43.132z M172.053,18.054c-0.032,0.705-0.09,1.383-0.17,2.031
			c-0.082,0.648-0.203,1.291-0.366,1.926l0.488-0.131c2.047-0.548,4.046-0.734,5.995-0.561c1.95,0.174,3.705,0.757,5.266,1.75
			c1.56,0.993,2.835,2.428,3.826,4.304c0.991,1.877,1.567,4.239,1.73,7.086l-9.604,2.573c-0.455-2.838-1.666-4.786-3.632-5.846
			c-1.967-1.057-4.379-1.203-7.238-0.437c-0.163,0.044-0.325,0.096-0.487,0.157c-0.164,0.061-0.342,0.135-0.536,0.221
			c-1.105,1.621-2.333,3.151-3.681,4.592c-1.349,1.441-2.763,2.752-4.241,3.932c-1.479,1.18-2.981,2.209-4.509,3.089
			c-1.528,0.88-3.007,1.563-4.437,2.052c-1.333,0.496-2.495,0.52-3.485,0.071c-0.991-0.448-1.568-1.261-1.73-2.437
			c-0.164-1.105,0.04-2.213,0.609-3.324c0.568-1.109,1.454-1.932,2.657-2.463c1.657-0.722,3.266-1.648,4.825-2.781
			c1.561-1.132,2.957-2.395,4.192-3.788c1.234-1.394,2.251-2.884,3.047-4.474c0.796-1.589,1.259-3.202,1.39-4.84l-11.749,3.148
			c-0.747,0.199-1.372,0.237-1.876,0.11c-0.505-0.125-0.927-0.353-1.268-0.679c-0.342-0.326-0.585-0.731-0.731-1.215
			s-0.22-0.986-0.22-1.509s0.073-1.064,0.22-1.626s0.382-1.104,0.706-1.626c0.325-0.522,0.748-0.984,1.269-1.385
			c0.52-0.401,1.153-0.7,1.9-0.901l33.733-9.038c0.747-0.2,1.382-0.24,1.902-0.118c0.519,0.122,0.941,0.357,1.267,0.705
			c0.324,0.349,0.561,0.764,0.706,1.248c0.147,0.482,0.22,0.985,0.22,1.508s-0.072,1.064-0.22,1.627
			c-0.146,0.561-0.39,1.097-0.73,1.606c-0.341,0.509-0.771,0.965-1.292,1.364c-0.521,0.401-1.138,0.697-1.853,0.889L172.053,18.054z
			"/>
	</g>
</g>
<g>
</g>
<g>
</g>
<g>
</g>
<g>
</g>
<g>
</g>
</svg>
