<?xml version="1.0" encoding="utf-8"?>
<!-- Generator: Adobe Illustrator 16.0.0, SVG Export Plug-In . SVG Version: 6.00 Build 0)  -->
<!DOCTYPE svg PUBLIC "-//W3C//DTD SVG 1.1//EN" "http://www.w3.org/Graphics/SVG/1.1/DTD/svg11.dtd">
<svg version="1.1" id="레이어_1" xmlns="http://www.w3.org/2000/svg" xmlns:xlink="http://www.w3.org/1999/xlink" x="0px"
	 y="0px" width="171.956px" height="145.689px" viewBox="0 0 171.956 145.689" enable-background="new 0 0 171.956 145.689"
	 xml:space="preserve">
<g>
	<g>
		<path fill="#FFFFFF" d="M52.29,100.579c26.67,0,48.291-21.62,48.291-48.29C100.581,25.62,78.96,4,52.29,4S4,25.62,4,52.289
			C4,78.959,25.62,100.579,52.29,100.579"/>
		<circle fill="none" stroke="#E5E5E6" stroke-width="8" cx="52.29" cy="52.29" r="48.29"/>
		<path fill="#EEEEEF" d="M141.12,140.379c0,2.933-11.639,5.311-25.996,5.311s-25.995-2.378-25.995-5.311s11.638-5.309,25.995-5.309
			S141.12,137.446,141.12,140.379"/>
		<path fill="#AACC03" d="M103.321,127.017c0,0,15.162,7.634,28.191,6.471c16.393-1.462,26.008-13.777,38.148-2.9
			c3.453,3.095,3.224-1.951-2.155-7.384c-5.38-5.435-17.39-10.242-29.283-7.698c-11.894,2.546-18.624-10.03-18.624-10.03"/>
		<path fill="#00A199" d="M145.645,125.396c0.34-5.432-2.041-8.732-3.86-10.437c-1.183,0.113-2.373,0.292-3.562,0.546
			c-0.701,0.149-1.38,0.243-2.043,0.294c1.194,2.47,2.657,6.614,1.609,10.661c-0.754,2.907-1.862,5.063-2.844,6.556
			c3.507-0.646,6.703-1.723,9.69-2.837C145.131,128.89,145.524,127.305,145.645,125.396"/>
		<path fill="#00A199" d="M159.363,123.152c0.312-2.632-0.408-4.537-1.257-5.816c-2.588-1.021-5.453-1.799-8.469-2.207
			c1.684,1.47,3.875,4.248,3.709,8.68c-0.049,1.335-0.283,2.471-0.605,3.427c1.982-0.601,3.909-1.014,5.824-1.083
			C158.92,125.344,159.219,124.355,159.363,123.152"/>
		<path fill="#00A199" d="M167.505,123.202c-0.743-0.75-1.615-1.486-2.591-2.194c0.285,1.244,0.32,2.781-0.229,4.591
			c-0.164,0.537-0.353,1.021-0.557,1.463c1.807,0.697,3.639,1.829,5.531,3.525C173.114,133.682,172.884,128.637,167.505,123.202"/>
		<path fill="#003F84" d="M59.146,80.905c0,0-2.651-1.518-2.971-2.685c-0.176-0.641,0.101-1.092,0.519-1.214
			c0.346-0.102,0.786,0.021,1.15,0.441c0.809,0.934,2.153,1.668,2.153,1.668"/>
		<path fill="#003F84" d="M58.096,81.88c0,0-2.651-1.519-2.971-2.685c-0.176-0.642,0.1-1.093,0.519-1.215
			c0.345-0.101,0.785,0.021,1.151,0.442c0.807,0.933,2.153,1.668,2.153,1.668"/>
		<path fill="#00848F" d="M55.645,77.981c0,0,0.062-0.012,0.17-0.033c0.055-0.013,0.12-0.024,0.199-0.007
			c0.075,0.015,0.177,0.006,0.261,0.054c0.086,0.045,0.186,0.085,0.28,0.146c0.084,0.073,0.173,0.15,0.264,0.23
			c0.174,0.159,0.359,0.329,0.543,0.498c0.17,0.191,0.378,0.325,0.556,0.476c0.182,0.148,0.356,0.28,0.516,0.383
			c0.304,0.221,0.513,0.363,0.513,0.363s-0.232-0.102-0.556-0.299c-0.166-0.094-0.348-0.219-0.541-0.36
			c-0.189-0.146-0.415-0.277-0.589-0.458c-0.179-0.181-0.356-0.36-0.523-0.529c-0.082-0.079-0.162-0.156-0.238-0.229
			c-0.084-0.059-0.175-0.1-0.253-0.146c-0.081-0.048-0.165-0.048-0.235-0.075c-0.07-0.028-0.138-0.027-0.193-0.02
			C55.707,77.979,55.645,77.981,55.645,77.981"/>
		<path fill="#003F84" d="M57.605,83.338c0,0-2.651-1.519-2.972-2.686c-0.176-0.641,0.102-1.092,0.52-1.214
			c0.345-0.101,0.786,0.021,1.151,0.441c0.808,0.933,2.152,1.668,2.152,1.668"/>
		<path fill="#00848F" d="M55.153,79.438c0,0,0.063-0.011,0.171-0.033c0.055-0.013,0.119-0.023,0.199-0.007
			c0.075,0.015,0.176,0.006,0.261,0.055c0.086,0.045,0.187,0.085,0.28,0.146c0.084,0.073,0.172,0.15,0.264,0.23
			c0.174,0.159,0.359,0.328,0.543,0.497c0.169,0.191,0.377,0.326,0.556,0.477c0.182,0.147,0.355,0.279,0.514,0.382
			c0.305,0.222,0.515,0.363,0.515,0.363s-0.232-0.102-0.557-0.299c-0.164-0.093-0.348-0.218-0.539-0.36
			c-0.191-0.145-0.415-0.276-0.591-0.458c-0.179-0.18-0.355-0.359-0.523-0.528c-0.082-0.08-0.162-0.156-0.238-0.229
			c-0.084-0.061-0.175-0.102-0.253-0.148c-0.079-0.047-0.164-0.047-0.233-0.075c-0.072-0.027-0.14-0.026-0.195-0.02
			C55.217,79.436,55.153,79.438,55.153,79.438"/>
		<path fill="#003F84" d="M57.775,84.979c0,0-2.651-1.519-2.971-2.687c-0.175-0.64,0.1-1.091,0.52-1.213
			c0.345-0.101,0.784,0.021,1.15,0.441c0.808,0.933,2.153,1.669,2.153,1.669"/>
		<path fill="#00848F" d="M55.323,81.081c0,0,0.062-0.012,0.17-0.033c0.056-0.014,0.12-0.024,0.199-0.007
			c0.075,0.015,0.177,0.006,0.262,0.054c0.085,0.045,0.186,0.084,0.28,0.146c0.083,0.073,0.172,0.15,0.264,0.23
			c0.174,0.159,0.359,0.329,0.543,0.498c0.17,0.191,0.377,0.325,0.555,0.477c0.182,0.146,0.356,0.279,0.515,0.382
			c0.305,0.221,0.515,0.363,0.515,0.363s-0.232-0.103-0.557-0.299c-0.164-0.094-0.348-0.218-0.539-0.361s-0.416-0.276-0.591-0.457
			c-0.179-0.182-0.355-0.36-0.523-0.529c-0.082-0.079-0.162-0.156-0.237-0.229c-0.084-0.06-0.176-0.1-0.254-0.146
			c-0.08-0.048-0.164-0.048-0.234-0.076c-0.071-0.027-0.139-0.026-0.194-0.019C55.387,81.078,55.323,81.081,55.323,81.081"/>
		<path fill="#003F84" d="M62.603,78.98c0,0-2.223-2.097-3.433-2.064c-1.209,0.032-1.381,1.32-0.254,1.822
			c1.126,0.503,2.221,1.576,2.221,1.576"/>
		<path fill="#00848F" d="M59.169,76.917c0,0-0.083,0.018-0.23,0.05c-0.071,0.021-0.17,0.021-0.252,0.087
			c-0.079,0.063-0.201,0.087-0.267,0.196c-0.039,0.047-0.081,0.096-0.122,0.146c-0.021,0.063-0.041,0.127-0.062,0.194
			c-0.033,0.063-0.014,0.137-0.011,0.209c0.005,0.071-0.001,0.147,0.044,0.215c0.032,0.068,0.06,0.141,0.096,0.209l0.164,0.173
			c0.102,0.126,0.272,0.176,0.404,0.269c0.305,0.181,0.6,0.342,0.875,0.517c0.258,0.197,0.505,0.377,0.706,0.539
			c0.388,0.343,0.623,0.595,0.623,0.595s-0.267-0.219-0.672-0.533c-0.205-0.154-0.452-0.32-0.712-0.505
			c-0.273-0.161-0.589-0.317-0.88-0.479c-0.145-0.107-0.323-0.169-0.434-0.312l-0.172-0.2c-0.039-0.077-0.069-0.159-0.102-0.237
			c-0.044-0.076-0.038-0.163-0.041-0.245c-0.001-0.082-0.017-0.164,0.022-0.236c0.026-0.073,0.052-0.145,0.077-0.214
			c0.049-0.054,0.096-0.108,0.141-0.157c0.076-0.119,0.217-0.139,0.308-0.192c0.095-0.058,0.188-0.049,0.262-0.062
			C59.084,76.926,59.169,76.917,59.169,76.917"/>
		<path fill="#AACC03" d="M92.635,63.926c0,0-9.563,17.064-17.591,16.53c-9.871-0.656-10.733-5.238-15.362-1.464
			c-4.03,3.287-3.27,8.653,2.916,12.385c9.622,5.805,24.915,6.508,31.395-3.898"/>
		<path fill="#53B232" d="M59.682,78.992c0,0-0.143,0.137-0.407,0.391c-0.273,0.247-0.635,0.651-1.008,1.22
			c-0.396,0.554-0.717,1.337-0.879,2.256c-0.151,0.924-0.052,2.006,0.367,3.078c0.416,1.072,1.144,2.117,2.085,3.048
			c0.948,0.925,2.111,1.734,3.37,2.441c1.288,0.729,2.633,1.37,4.07,1.896c0.719,0.265,1.441,0.536,2.193,0.727l1.118,0.316
			c0.375,0.098,0.759,0.162,1.139,0.245l1.14,0.244l1.15,0.161c0.384,0.051,0.766,0.114,1.147,0.151l1.149,0.07
			c0.764,0.07,1.522,0.053,2.271,0.03c0.75,0.011,1.485-0.083,2.208-0.165c0.728-0.048,1.424-0.221,2.111-0.354
			c0.695-0.106,1.344-0.325,1.982-0.522c0.316-0.104,0.637-0.181,0.937-0.304c0.297-0.128,0.589-0.257,0.877-0.382
			c0.289-0.126,0.57-0.249,0.85-0.368c0.271-0.137,0.52-0.3,0.772-0.444c1.035-0.546,1.86-1.228,2.618-1.803
			c0.703-0.633,1.277-1.237,1.751-1.729c0.827-1.093,1.3-1.718,1.3-1.718s-0.443,0.647-1.225,1.78
			c-0.452,0.515-1.002,1.151-1.687,1.824c-0.37,0.31-0.763,0.638-1.177,0.984c-0.201,0.184-0.43,0.342-0.676,0.483
			c-0.24,0.149-0.487,0.305-0.738,0.462c-0.255,0.151-0.506,0.326-0.777,0.471c-0.281,0.13-0.566,0.264-0.857,0.399
			c-0.291,0.135-0.586,0.272-0.886,0.413c-0.303,0.133-0.629,0.22-0.949,0.335c-0.646,0.218-1.305,0.457-2.011,0.586
			c-0.698,0.158-1.412,0.328-2.152,0.388c-0.738,0.089-1.489,0.191-2.254,0.188c-0.764,0.029-1.538,0.054-2.316-0.012
			c-0.389-0.02-0.78-0.041-1.171-0.061c-0.392-0.036-0.78-0.098-1.172-0.146l-1.175-0.153l-1.162-0.241
			c-0.387-0.087-0.777-0.157-1.159-0.259l-1.137-0.333c-0.763-0.199-1.496-0.483-2.225-0.759c-1.457-0.547-2.859-1.231-4.122-1.962
			c-1.302-0.733-2.466-1.602-3.427-2.586c-0.95-0.988-1.684-2.096-2.091-3.23c-0.418-1.133-0.469-2.279-0.266-3.229
			c0.211-0.947,0.578-1.729,1.005-2.274c0.405-0.559,0.789-0.95,1.071-1.183C59.534,79.122,59.682,78.992,59.682,78.992"/>
		<path fill="#AACC03" d="M85.071,116.142c0,0,4.773,12.278,4.975,18.424c0,0-3.379,1.609-1.955,5.125
			c1.422,3.515,8.028,4.596,12.814,1.188c2.811-1.999,3.145-8.058,3.038-17.234"/>
		<path fill="#AACC03" d="M124.408,116.142c0,0-4.776,12.278-4.978,18.424c0,0,3.381,1.609,1.957,5.125
			c-1.422,3.515-8.029,4.596-12.814,1.188c-2.811-1.999-3.146-8.058-3.039-17.234"/>
		<path fill="#00A199" d="M119.298,49.18c0,0,2.168-8.505,1.088-11.402c-1.321-3.54-4.493-2.196-4.688-0.296
			c-0.192,1.898,0.904,3.145,0.904,3.145s-0.886,3.548-1.145,7.649"/>
		<path fill="#00A199" d="M103.069,45.662c0,0-0.441-9.582,2.58-10.083c2.59-0.43,3.057,2.075,2.064,4.644
			c-0.994,2.569-0.985,6.59-0.985,6.59"/>
		<path fill="#AACC03" d="M119.098,40.654c0,0-0.068,0.034-0.182,0.092c-0.116,0.063-0.297,0.127-0.523,0.197
			c-0.23,0.056-0.511,0.114-0.832,0.1c-0.314-0.007-0.688-0.069-1.002-0.313c-0.298-0.273-0.423-0.607-0.538-0.896
			c-0.11-0.294-0.184-0.565-0.239-0.793c-0.109-0.456-0.146-0.745-0.146-0.745s0.105,0.3,0.253,0.713
			c0.174,0.414,0.368,1.087,0.81,1.548c0.252,0.199,0.584,0.275,0.877,0.301c0.295,0.035,0.567,0.005,0.795-0.021
			c0.228-0.041,0.41-0.077,0.533-0.122C119.026,40.677,119.098,40.654,119.098,40.654"/>
		<path fill="#AACC03" d="M98.946,130.283c-26.105-4.664-22.877-22.624-18.984-36.141c2.58-8.957,4.532-23.835,9.152-36.663
			c4.625-12.834,14.711-12.985,21.449-12.643c26.235,1.333,24.146,28.899,24.246,44.582
			C134.885,101.162,140.938,137.788,98.946,130.283"/>
		<path fill="#AACC03" d="M134.809,89.419c0.054,8.225,3.039,28.651-9.601,37.579"/>
		<path fill="#53B232" d="M134.809,89.419c0,0,0.037,0.633,0.1,1.739c0.063,1.107,0.201,2.684,0.303,4.583
			c0.1,1.897,0.213,4.119,0.174,6.501c-0.037,2.382-0.188,4.927-0.558,7.45c-0.185,1.262-0.456,2.51-0.75,3.73
			c-0.329,1.212-0.669,2.403-1.112,3.519c-0.417,1.123-0.921,2.17-1.455,3.13c-0.541,0.954-1.098,1.835-1.687,2.589
			c-0.286,0.385-0.569,0.746-0.867,1.064c-0.289,0.327-0.563,0.637-0.849,0.9c-0.543,0.557-1.064,0.987-1.492,1.342
			c-0.421,0.363-0.801,0.587-1.036,0.769c-0.241,0.171-0.371,0.263-0.371,0.263s0.123-0.101,0.353-0.289
			c0.224-0.196,0.578-0.449,0.98-0.828c0.407-0.376,0.9-0.828,1.409-1.405c0.269-0.275,0.524-0.595,0.791-0.932
			c0.276-0.329,0.55-0.688,0.817-1.078c0.556-0.76,1.074-1.642,1.578-2.596c0.492-0.959,0.948-2.003,1.355-3.107
			c0.422-1.099,0.746-2.273,1.057-3.471c0.278-1.206,0.529-2.438,0.703-3.687c0.389-2.486,0.566-5.007,0.628-7.373
			s0.056-4.58,0.005-6.479c-0.037-1.899-0.068-3.483-0.091-4.592C134.787,90.053,134.809,89.419,134.809,89.419"/>
		<path fill="#AACC03" d="M115.037,130.877c-4.369,0.67-9.668,0.554-16.09-0.593c-26.106-4.665-22.879-22.624-18.985-36.142
			l1.472-5.474"/>
		<path fill="#53B232" d="M115.036,130.877c0,0-1.094,0.129-3.008,0.355c-0.958,0.105-2.133,0.075-3.479,0.128
			c-0.677,0.04-1.391-0.014-2.144-0.058c-0.753-0.048-1.546-0.098-2.372-0.149c-1.65-0.157-3.419-0.437-5.309-0.698
			c-1.851-0.352-3.838-0.733-5.813-1.384c-1.98-0.629-3.994-1.414-5.913-2.479c-1.914-1.063-3.729-2.417-5.233-4.08
			c-1.498-1.664-2.669-3.622-3.423-5.689c-0.741-2.075-1.1-4.229-1.207-6.309c-0.116-2.084,0.051-4.096,0.305-5.98
			c0.259-1.885,0.622-3.646,1.005-5.257c0.381-1.612,0.802-3.069,1.186-4.357c0.39-1.282,0.697-2.413,0.967-3.338
			c0.531-1.854,0.834-2.912,0.834-2.912s-0.269,1.068-0.739,2.937c-0.24,0.935-0.509,2.072-0.859,3.37
			c-0.34,1.299-0.712,2.766-1.07,4.374c-0.696,3.213-1.34,7.043-1.124,11.139c0.117,2.039,0.482,4.138,1.213,6.146
			c0.744,2.002,1.888,3.883,3.345,5.486c1.443,1.618,3.2,2.945,5.066,3.998c1.871,1.053,3.849,1.839,5.799,2.47
			c1.949,0.646,3.886,1.065,5.744,1.451c1.854,0.291,3.623,0.603,5.257,0.788c0.821,0.068,1.608,0.134,2.356,0.197
			c0.748,0.068,1.459,0.144,2.127,0.126c1.336-0.01,2.508,0.059,3.467-0.017C113.938,130.971,115.036,130.877,115.036,130.877"/>
		<path fill="#AACC03" d="M110.563,44.837c-6.738-0.344-16.826-0.191-21.449,12.643c-2.562,7.112-4.062,14.937-5.462,21.979"/>
		<path fill="#53B232" d="M110.563,44.837c0,0-0.194-0.005-0.561-0.012c-0.365-0.01-0.9-0.019-1.582-0.012
			c-0.68,0-1.508,0.024-2.449,0.097c-0.473,0.041-0.976,0.07-1.498,0.155c-0.527,0.067-1.078,0.134-1.645,0.26
			c-1.145,0.195-2.348,0.57-3.58,1.043c-1.207,0.534-2.454,1.173-3.582,2.068c-1.172,0.836-2.173,1.953-3.118,3.125
			c-0.438,0.613-0.851,1.258-1.263,1.9c-0.348,0.684-0.725,1.354-1.049,2.051c-0.293,0.709-0.586,1.419-0.879,2.126
			c-0.237,0.737-0.477,1.473-0.711,2.203c-0.449,1.464-0.996,2.881-1.321,4.298c-0.375,1.407-0.737,2.767-1.081,4.056
			c-0.327,1.295-0.594,2.532-0.863,3.668c-0.265,1.138-0.506,2.182-0.721,3.105c-0.208,0.927-0.39,1.733-0.539,2.399
			c-0.3,1.33-0.469,2.09-0.469,2.09s0.135-0.768,0.372-2.109c0.248-1.341,0.548-3.268,1.037-5.554c0.24-1.146,0.475-2.39,0.77-3.698
			c0.32-1.305,0.66-2.681,1.01-4.104c0.319-1.435,0.849-2.847,1.286-4.318c0.23-0.731,0.463-1.469,0.695-2.209
			c0.294-0.73,0.59-1.462,0.886-2.196c0.337-0.71,0.729-1.397,1.093-2.093c0.428-0.658,0.857-1.317,1.316-1.943
			c0.982-1.203,2.027-2.346,3.246-3.201c1.168-0.923,2.479-1.542,3.729-2.057c1.276-0.455,2.512-0.804,3.678-0.972
			c1.158-0.213,2.237-0.271,3.188-0.303c0.952-0.029,1.783-0.017,2.464,0.015c0.682,0.023,1.217,0.058,1.581,0.084
			C110.369,44.823,110.563,44.837,110.563,44.837"/>
		<path fill="#00AECB" d="M110.985,52.094c-0.041,0.403-0.389,0.697-0.777,0.657s-0.669-0.398-0.627-0.801s0.389-0.696,0.777-0.656
			S111.028,51.691,110.985,52.094"/>
		<path fill="#003F84" d="M106.157,52.133c-0.032,0-0.064-0.001-0.098-0.005c-0.261-0.021-0.477-0.129-0.623-0.307
			c-0.176-0.214-0.242-0.52-0.197-0.908c0.012-0.101,0.088-0.177,0.207-0.165c0.102,0.014,0.176,0.105,0.164,0.208
			c-0.033,0.279,0.008,0.497,0.116,0.628c0.081,0.101,0.204,0.158,0.366,0.173c0.378,0.028,0.598-0.207,0.654-0.715
			c0.012-0.102,0.092-0.18,0.207-0.165c0.104,0.014,0.176,0.105,0.164,0.208C107.042,51.747,106.685,52.133,106.157,52.133"/>
		<path fill="#003F84" d="M115.014,53.259c-0.031,0-0.064-0.001-0.098-0.004c-0.26-0.021-0.475-0.128-0.621-0.305
			c-0.176-0.216-0.242-0.521-0.199-0.909c0.014-0.102,0.089-0.177,0.208-0.165c0.103,0.014,0.176,0.105,0.165,0.208
			c-0.033,0.279,0.007,0.496,0.115,0.628c0.082,0.1,0.205,0.157,0.363,0.171c0.379,0.024,0.601-0.207,0.657-0.714
			c0.013-0.102,0.093-0.179,0.207-0.165c0.103,0.014,0.177,0.105,0.165,0.208C115.901,52.874,115.544,53.259,115.014,53.259"/>
		<path fill="#003F84" d="M112.573,56.428c-0.712,0-1.542-0.069-2.493-0.248c-3.948-0.746-5.227-2.371-5.278-2.439
			c-0.063-0.082-0.047-0.198,0.033-0.263c0.084-0.06,0.199-0.047,0.264,0.035c0.012,0.015,1.261,1.584,5.051,2.3
			c3.787,0.712,5.579-0.405,5.597-0.417c0.087-0.057,0.202-0.03,0.259,0.056s0.032,0.201-0.055,0.258
			C115.891,55.747,114.816,56.428,112.573,56.428"/>
		<path fill="#003F84" d="M110.194,96.664c0,0-2.224-2.096-3.433-2.063c-1.21,0.032-1.381,1.319-0.255,1.823
			c1.128,0.503,2.221,1.574,2.221,1.574"/>
		<path fill="#003F84" d="M108.463,103.573c0,0-3.2-0.674-3.824-1.676c-0.343-0.55-0.154-1.051,0.264-1.284
			c0.345-0.19,0.846-0.203,1.336,0.088c1.09,0.646,2.703,0.954,2.703,0.954"/>
		<path fill="#00848F" d="M108.463,103.573c0,0-0.355-0.051-0.878-0.179c-0.521-0.136-1.213-0.334-1.875-0.628
			c-0.325-0.156-0.642-0.345-0.894-0.583c-0.254-0.239-0.391-0.558-0.392-0.841c-0.004-0.288,0.158-0.49,0.274-0.588
			c0.119-0.105,0.207-0.138,0.203-0.142c0.004,0.004-0.08,0.045-0.186,0.158c-0.109,0.107-0.225,0.312-0.212,0.571
			c0.006,0.129,0.034,0.26,0.104,0.395c0.068,0.144,0.158,0.256,0.281,0.366c0.244,0.215,0.559,0.389,0.881,0.531
			c0.639,0.31,1.32,0.532,1.834,0.685C108.122,103.472,108.463,103.573,108.463,103.573"/>
		<path fill="#003F84" d="M107.479,102.302c0,0-3.201-0.673-3.824-1.675c-0.342-0.552-0.155-1.052,0.264-1.284
			c0.346-0.192,0.846-0.203,1.337,0.088c1.089,0.645,2.703,0.955,2.703,0.955"/>
		<path fill="#00848F" d="M107.479,102.302c0,0-0.355-0.05-0.879-0.18c-0.52-0.135-1.211-0.334-1.873-0.628
			c-0.326-0.154-0.643-0.345-0.895-0.582c-0.254-0.239-0.391-0.557-0.393-0.841c-0.004-0.288,0.16-0.491,0.274-0.589
			c0.12-0.104,0.208-0.136,0.204-0.14c0.004,0.003-0.081,0.044-0.186,0.157c-0.108,0.106-0.224,0.313-0.213,0.57
			c0.008,0.13,0.035,0.262,0.106,0.396c0.069,0.143,0.157,0.256,0.282,0.366c0.242,0.215,0.556,0.389,0.88,0.53
			c0.638,0.311,1.319,0.532,1.834,0.685C107.135,102.199,107.479,102.302,107.479,102.302"/>
		<path fill="#003F84" d="M106.84,101.017c0,0-3.201-0.673-3.823-1.675c-0.343-0.55-0.156-1.052,0.263-1.284
			c0.346-0.191,0.846-0.202,1.336,0.089c1.09,0.645,2.703,0.953,2.703,0.953"/>
		<path fill="#00848F" d="M106.84,101.017c0,0-0.355-0.05-0.879-0.179c-0.521-0.135-1.213-0.334-1.875-0.628
			c-0.324-0.156-0.641-0.344-0.893-0.582c-0.254-0.24-0.391-0.558-0.393-0.841c-0.004-0.289,0.16-0.491,0.275-0.589
			c0.12-0.104,0.207-0.136,0.203-0.141c0.004,0.005-0.08,0.045-0.186,0.157c-0.108,0.107-0.223,0.313-0.213,0.571
			c0.008,0.13,0.035,0.26,0.105,0.396c0.068,0.144,0.158,0.257,0.282,0.366c0.243,0.214,0.557,0.389,0.881,0.531
			c0.638,0.309,1.319,0.532,1.832,0.684C106.499,100.915,106.84,101.017,106.84,101.017"/>
		<path fill="#003F84" d="M106.787,99.635c0,0-3.2-0.673-3.824-1.676c-0.343-0.55-0.155-1.051,0.265-1.283
			c0.344-0.191,0.846-0.203,1.336,0.089c1.09,0.645,2.703,0.953,2.703,0.953"/>
		<path fill="#00848F" d="M106.787,99.635c0,0-0.356-0.05-0.878-0.178c-0.52-0.136-1.214-0.335-1.874-0.629
			c-0.327-0.156-0.644-0.344-0.894-0.582c-0.254-0.24-0.391-0.558-0.392-0.841c-0.005-0.289,0.157-0.491,0.272-0.589
			c0.121-0.105,0.209-0.136,0.205-0.141c0.004,0.005-0.082,0.045-0.187,0.157c-0.108,0.107-0.224,0.313-0.212,0.571
			c0.006,0.13,0.034,0.26,0.104,0.396c0.071,0.144,0.16,0.257,0.283,0.366c0.244,0.214,0.557,0.389,0.881,0.531
			c0.639,0.31,1.319,0.532,1.834,0.684C106.444,99.533,106.787,99.635,106.787,99.635"/>
		<path fill="#AACC03" d="M134.415,82.391c0,0,3.445,10.152-0.646,20.125c-4.092,9.972-18.736,4.717-22.845,3.22
			c-7.163-2.611-6.208-10.053-0.473-10.695c5.733-0.642,8.489,0.322,10.749-3.542c2.26-3.863,5.629-6.432,5.629-6.432"/>
		<path fill="#53B232" d="M110.45,95.04c0,0,1.266-0.244,3.188-0.412c0.958-0.083,2.082-0.167,3.239-0.367
			c0.574-0.107,1.164-0.251,1.695-0.525c0.529-0.271,1.029-0.623,1.428-1.088c0.213-0.219,0.397-0.468,0.582-0.713
			c0.175-0.264,0.349-0.525,0.519-0.786c0.362-0.522,0.658-1.061,1.052-1.537c0.369-0.488,0.734-0.955,1.119-1.355
			c0.37-0.416,0.731-0.796,1.083-1.129c0.683-0.688,1.323-1.184,1.759-1.538c0.444-0.347,0.713-0.522,0.713-0.522
			s-0.963,0.855-2.233,2.288c-0.653,0.697-1.336,1.59-2.024,2.543c-0.365,0.458-0.664,1.021-1.01,1.545
			c-0.169,0.27-0.34,0.543-0.512,0.815c-0.195,0.268-0.389,0.541-0.619,0.785c-0.45,0.502-1.025,0.895-1.622,1.181
			c-0.601,0.294-1.237,0.434-1.844,0.536c-0.608,0.108-1.196,0.124-1.75,0.151c-0.552,0.016-1.074,0.031-1.556,0.044
			c-0.963,0.026-1.763,0.027-2.324,0.054C110.771,95.029,110.45,95.04,110.45,95.04"/>
		<path fill="#53B232" d="M134.415,82.391c0,0,0.298,0.825,0.648,2.315c0.18,0.745,0.356,1.659,0.522,2.715
			c0.146,1.059,0.302,2.258,0.329,3.575c0.064,1.317,0.005,2.746-0.117,4.254c-0.184,1.499-0.396,3.093-0.883,4.676
			c-0.193,0.806-0.514,1.588-0.795,2.391c-0.139,0.432-0.344,0.782-0.514,1.18c-0.228,0.376-0.42,0.79-0.694,1.137
			c-1.006,1.46-2.508,2.613-4.188,3.244c-1.681,0.65-3.482,0.854-5.223,0.85c-1.742-0.009-3.445-0.229-5.064-0.552
			c-1.621-0.313-3.155-0.751-4.59-1.217c-0.718-0.232-1.41-0.474-2.074-0.719c-0.338-0.127-0.648-0.234-0.988-0.375
			c-0.309-0.144-0.612-0.285-0.91-0.422c-0.3-0.13-0.59-0.271-0.85-0.468c-0.268-0.182-0.526-0.358-0.78-0.53
			c-0.243-0.182-0.435-0.414-0.646-0.609c-0.201-0.205-0.42-0.382-0.558-0.619c-0.312-0.444-0.612-0.853-0.762-1.302
			c-0.085-0.218-0.198-0.414-0.247-0.623c-0.042-0.209-0.082-0.408-0.12-0.598c-0.108-0.375-0.06-0.724-0.065-1.022
			c0.006-0.148-0.002-0.287,0.014-0.411c0.029-0.123,0.056-0.235,0.078-0.336c0.095-0.398,0.145-0.612,0.145-0.612
			s-0.042,0.215-0.119,0.617c-0.019,0.1-0.041,0.212-0.064,0.335c-0.01,0.124,0.004,0.262,0.005,0.41
			c0.017,0.294-0.019,0.637,0.104,1.002c0.045,0.184,0.092,0.377,0.141,0.579c0.056,0.2,0.176,0.391,0.266,0.598
			c0.161,0.43,0.473,0.814,0.79,1.23c0.14,0.225,0.362,0.388,0.563,0.578c0.211,0.181,0.405,0.396,0.646,0.561
			c0.51,0.29,0.962,0.699,1.596,0.922c0.299,0.132,0.605,0.265,0.918,0.4c0.293,0.113,0.642,0.228,0.967,0.343
			c0.668,0.228,1.361,0.451,2.078,0.666c1.434,0.429,2.963,0.819,4.56,1.126c1.597,0.306,3.271,0.508,4.968,0.504
			c1.694-0.008,3.428-0.223,5.012-0.849c1.594-0.586,2.998-1.649,3.957-3.015c0.264-0.328,0.436-0.699,0.653-1.048
			c0.167-0.384,0.392-0.774,0.51-1.148c0.282-0.785,0.601-1.547,0.796-2.337c0.481-1.552,0.734-3.106,0.948-4.583
			c0.155-1.481,0.246-2.894,0.212-4.198c-0.008-1.306-0.109-2.5-0.21-3.557c-0.123-1.055-0.262-1.972-0.411-2.721
			C134.678,83.227,134.415,82.391,134.415,82.391"/>
		<path fill="#003F84" d="M111.209,72.154c-0.06-1.112-1.271-1.606-1.793-0.929"/>
		<path fill="#E9606C" d="M108.272,71.359c0,0-2.006-2.661-4.035-2.345c-2.027,0.317-0.377,3.501-0.377,3.501
			s-1.969,1.981-0.909,3.375s3.597,0.915,4.979-1.312L108.272,71.359z"/>
		<path fill="#EC7980" d="M106.787,71.396c0.435,0,0.815-0.221,1.042-0.553c-0.436-0.469-1.15-1.14-1.979-1.534
			c-0.197,0.223-0.319,0.511-0.319,0.829C105.531,70.833,106.094,71.396,106.787,71.396"/>
		<path fill="#EC7980" d="M104.786,72.154c0-0.693-0.563-1.257-1.256-1.257c-0.08,0-0.158,0.01-0.232,0.023
			c0.164,0.822,0.563,1.595,0.563,1.595s-0.342,0.345-0.663,0.846c0.106,0.029,0.217,0.05,0.332,0.05
			C104.223,73.411,104.786,72.849,104.786,72.154"/>
		<path fill="#EC7980" d="M104.016,75.419c-0.42,0-0.789,0.208-1.018,0.524c0.523,0.64,1.372,0.855,2.268,0.659
			C105.225,75.943,104.684,75.419,104.016,75.419"/>
		<path fill="#EC7980" d="M106.787,72.576c-0.692,0-1.256,0.563-1.256,1.257s0.563,1.257,1.256,1.257
			c0.544,0,1.004-0.348,1.179-0.832l0.063-0.588C107.948,73.054,107.424,72.576,106.787,72.576"/>
		<path fill="#FACD78" d="M102.95,75.892c0,0-0.054-0.073-0.146-0.2c-0.057-0.06-0.083-0.156-0.137-0.258
			c-0.055-0.104-0.065-0.232-0.098-0.371c-0.021-0.28,0.006-0.615,0.121-0.946c0.113-0.331,0.29-0.659,0.493-0.966
			c0.108-0.15,0.222-0.295,0.338-0.433c0.113-0.13,0.245-0.282,0.378-0.381c0.26-0.218,0.516-0.403,0.727-0.571
			c0.207-0.176,0.426-0.271,0.556-0.358c0.136-0.081,0.214-0.127,0.214-0.127s-0.281,0.226-0.674,0.592
			c-0.197,0.185-0.42,0.407-0.674,0.63c-0.137,0.108-0.225,0.229-0.342,0.368c-0.109,0.135-0.213,0.279-0.312,0.425
			c-0.204,0.286-0.381,0.593-0.496,0.898c-0.116,0.303-0.185,0.6-0.187,0.859c0.021,0.126,0.01,0.252,0.044,0.351
			c0.03,0.1,0.038,0.198,0.084,0.265C102.911,75.811,102.95,75.892,102.95,75.892"/>
		<path fill="#E9606C" d="M110.061,71.588c0,0,2.609-2.074,4.494-1.26c1.883,0.813-0.513,3.482-0.513,3.482s1.412,2.412,0.037,3.497
			c-1.377,1.083-3.713-0.015-4.495-2.519L110.061,71.588z"/>
		<path fill="#EC7980" d="M112.903,71.585c0.694,0,1.256-0.563,1.256-1.257c0-0.045-0.008-0.086-0.012-0.128
			c-0.816-0.18-1.717,0.076-2.465,0.416C111.815,71.171,112.309,71.585,112.903,71.585"/>
		<path fill="#EC7980" d="M110.989,75.09c0.694,0,1.258-0.563,1.258-1.256c0-0.695-0.563-1.259-1.258-1.259
			c-0.592,0-1.084,0.411-1.217,0.961l-0.029,0.188c-0.002,0.036-0.01,0.072-0.01,0.109C109.733,74.527,110.295,75.09,110.989,75.09"
			/>
		<path fill="#EC7980" d="M113.688,75.892c-0.694,0-1.258,0.562-1.258,1.257c0,0.2,0.053,0.387,0.137,0.556
			c0.545,0.069,1.078-0.055,1.513-0.396c0.332-0.263,0.498-0.603,0.565-0.967C114.414,76.068,114.073,75.892,113.688,75.892"/>
		<path fill="#EC7980" d="M114.932,72.521c-0.192-0.119-0.418-0.192-0.662-0.192c-0.693,0-1.256,0.563-1.256,1.257
			c0,0.695,0.563,1.257,1.256,1.257c0.072,0,0.142-0.01,0.211-0.021c-0.188-0.579-0.438-1.011-0.438-1.011
			S114.567,73.226,114.932,72.521"/>
		<path fill="#FACD78" d="M114.555,70.328c0,0,0.084,0.04,0.237,0.11c0.08,0.025,0.154,0.101,0.25,0.179
			c0.106,0.068,0.163,0.203,0.237,0.334c0.048,0.145,0.088,0.306,0.083,0.48c-0.002,0.171-0.021,0.356-0.081,0.53
			c-0.104,0.357-0.277,0.708-0.479,1.04c-0.211,0.324-0.451,0.628-0.69,0.896c-0.119,0.133-0.233,0.261-0.343,0.382
			c-0.123,0.115-0.189,0.245-0.276,0.356c-0.333,0.448-0.519,0.788-0.519,0.788s0.031-0.09,0.098-0.243
			c0.068-0.151,0.148-0.379,0.305-0.627c0.27-0.53,0.836-1.041,1.208-1.689c0.402-0.617,0.706-1.343,0.558-1.867
			c-0.055-0.113-0.086-0.245-0.168-0.318c-0.071-0.081-0.127-0.166-0.205-0.205C114.633,70.381,114.555,70.328,114.555,70.328"/>
		<path fill="#E74564" d="M109.417,71.226c0,0-0.724-0.865-1.713-0.086c-0.99,0.778-0.91,3.709-0.195,4.18
			c0.713,0.47,1.441-0.197,1.441-0.197s0.334,0.468,1.217,0.403c0.885-0.063,1.099-2.34,1.043-3.371
			C111.15,71.041,109.938,70.547,109.417,71.226"/>
		<path fill="#FACD78" d="M106.971,73.706c0,0-0.008-0.073-0.023-0.2c-0.018-0.126-0.035-0.31-0.033-0.532
			c0.01-0.222,0.021-0.482,0.082-0.758c0.07-0.27,0.153-0.565,0.326-0.828c0.082-0.14,0.191-0.236,0.329-0.356
			c0.124-0.072,0.245-0.143,0.366-0.212c0.146-0.038,0.293-0.097,0.428-0.088c0.137,0.006,0.265,0.006,0.374,0.055
			c0.228,0.061,0.366,0.205,0.464,0.286c0.09,0.092,0.132,0.153,0.132,0.153s-0.223-0.226-0.632-0.301
			c-0.1-0.031-0.21-0.016-0.324-0.009c-0.113,0.007-0.214,0.074-0.33,0.096c-0.115,0.071-0.232,0.147-0.354,0.224
			c-0.066,0.078-0.182,0.174-0.24,0.293c-0.158,0.218-0.248,0.49-0.325,0.742c-0.065,0.257-0.122,0.501-0.153,0.715
			C106.99,73.408,106.971,73.706,106.971,73.706"/>
		<path fill="#FACD78" d="M111.209,72.154c0,0-0.023-0.079-0.063-0.22c-0.025-0.067-0.033-0.161-0.098-0.239
			c-0.061-0.077-0.094-0.18-0.18-0.262c-0.089-0.078-0.158-0.188-0.285-0.241c-0.107-0.08-0.239-0.114-0.373-0.15
			c-0.131-0.011-0.285-0.034-0.402,0.037c-0.137,0.026-0.227,0.162-0.307,0.252c-0.181,0.295-0.254,0.568-0.338,0.874
			c-0.076,0.295-0.148,0.574-0.197,0.817c-0.104,0.486-0.174,0.811-0.174,0.811s-0.008-0.333,0.033-0.832
			c0.026-0.249,0.051-0.54,0.123-0.849c0.063-0.296,0.168-0.669,0.33-0.944c0.124-0.154,0.254-0.309,0.444-0.353
			c0.174-0.085,0.366-0.054,0.532-0.029c0.168,0.043,0.318,0.11,0.435,0.214c0.136,0.078,0.207,0.209,0.293,0.306
			c0.087,0.099,0.11,0.231,0.154,0.323c0.048,0.097,0.038,0.186,0.05,0.258C111.204,72.071,111.209,72.154,111.209,72.154"/>
	</g>
	<g>
		<path fill="#D2D2D3" d="M20.943,49.818c1.497-0.605,2.673-1.766,2.707-3.582h-2.253c-0.656,0-1.177-0.487-1.177-1.177
			c0-0.723,0.521-1.211,1.177-1.211h7.533c0.723,0,1.21,0.488,1.21,1.211c0,0.689-0.487,1.177-1.21,1.177h-2.253
			c0.034,1.749,1.194,2.809,2.707,3.414c0.454,0.185,0.808,0.605,0.808,1.277c0,0.757-0.555,1.346-1.346,1.346
			c-0.218,0-0.454-0.051-0.656-0.135c-1.16-0.471-2.27-1.177-3.01-2.371c-0.723,1.278-1.866,2.052-3.043,2.539
			c-0.202,0.084-0.437,0.135-0.656,0.135c-0.791,0-1.345-0.588-1.345-1.345C20.136,50.424,20.489,50.003,20.943,49.818z
			 M20.842,56.175c0-1.782,1.446-3.061,3.212-3.061h7.954c1.782,0,3.229,1.278,3.229,3.061c0,1.766-1.446,3.043-3.229,3.043h-7.954
			C22.289,59.218,20.842,57.94,20.842,56.175z M24.727,56.932h6.608c0.504,0,0.908-0.253,0.908-0.757
			c0-0.505-0.404-0.773-0.908-0.773h-6.608c-0.504,0-0.891,0.269-0.891,0.773C23.835,56.679,24.222,56.932,24.727,56.932z
			 M32.042,49.078h-1.934c-0.656,0-1.177-0.521-1.177-1.177c0-0.655,0.521-1.177,1.177-1.177h1.934v-1.782
			c0-0.858,0.672-1.514,1.513-1.514s1.513,0.655,1.513,1.514v6.39c0,0.874-0.672,1.513-1.513,1.513s-1.513-0.639-1.513-1.513V49.078
			z"/>
		<path fill="#D2D2D3" d="M37.125,45.009c0-0.639,0.521-1.16,1.16-1.16h6.844c0.639,0,1.16,0.521,1.16,1.16
			c0,0.64-0.521,1.161-1.16,1.161h-5.011v3.026c2.253,0,4.372-0.185,6.222-0.639c0.067-0.018,0.202-0.034,0.303-0.034
			c0.639,0,1.16,0.521,1.16,1.16c0,0.538-0.387,0.992-0.875,1.11c-2.371,0.571-4.775,0.723-7.802,0.723h-0.841
			c-0.639,0-1.16-0.521-1.16-1.16V45.009z M51.25,58.058c0,0.64-0.521,1.16-1.16,1.16H38.992c-0.639,0-1.16-0.521-1.16-1.16v-4.372
			c0-0.841,0.672-1.328,1.497-1.328c0.824,0,1.497,0.487,1.497,1.328v0.102h7.432v-0.102c0-0.841,0.672-1.328,1.497-1.328
			c0.824,0,1.497,0.487,1.497,1.328V58.058z M48.257,56.932v-0.908h-7.432v0.908H48.257z M48.223,44.942
			c0-0.858,0.673-1.514,1.513-1.514c0.841,0,1.514,0.655,1.514,1.514v1.513h0.908c0.656,0,1.177,0.521,1.177,1.178
			c0,0.655-0.521,1.177-1.177,1.177H51.25v1.698c0,0.874-0.673,1.514-1.514,1.514c-0.84,0-1.513-0.64-1.513-1.514V44.942z"/>
		<path fill="#D2D2D3" d="M54.888,56.275h4.943V54.98c0-0.857,0.656-1.261,1.514-1.261c0.857,0,1.513,0.403,1.513,1.261v1.295h4.927
			c0.723,0,1.295,0.571,1.295,1.261c0,0.673-0.572,1.262-1.295,1.262H54.888c-0.689,0-1.278-0.589-1.278-1.262
			C53.61,56.847,54.199,56.275,54.888,56.275z M68.492,52.139c0,0.64-0.521,1.16-1.16,1.16H55.359c-0.639,0-1.16-0.521-1.16-1.16
			v-7.045c0-0.841,0.672-1.413,1.497-1.413c0.824,0,1.497,0.572,1.497,1.413v1.379h8.307v-1.379c0-0.841,0.672-1.413,1.497-1.413
			c0.824,0,1.497,0.572,1.497,1.413V52.139z M65.499,50.844V48.86h-8.307v1.983H65.499z"/>
		<path fill="#D2D2D3" d="M71.205,55.872c4.204-2.085,6.037-5.313,6.037-9.249h-5.314c-0.689,0-1.244-0.555-1.244-1.244
			c0-0.723,0.555-1.277,1.244-1.277h7.164c0.656,0,1.177,0.521,1.177,1.177v0.925c0,4.456-1.631,9.366-7.735,12.191
			c-0.219,0.101-0.487,0.151-0.74,0.151c-0.773,0-1.362-0.64-1.362-1.396C70.431,56.595,70.733,56.107,71.205,55.872z
			 M82.336,44.942c0-0.858,0.673-1.514,1.514-1.514c0.84,0,1.513,0.655,1.513,1.514v12.931c0,0.874-0.673,1.514-1.513,1.514
			c-0.841,0-1.514-0.64-1.514-1.514V44.942z"/>
	</g>
</g>
</svg>
