<?xml version="1.0" encoding="utf-8"?>
<!-- Generator: Adobe Illustrator 16.0.0, SVG Export Plug-In . SVG Version: 6.00 Build 0)  -->
<!DOCTYPE svg PUBLIC "-//W3C//DTD SVG 1.1//EN" "http://www.w3.org/Graphics/SVG/1.1/DTD/svg11.dtd">
<svg version="1.1" id="레이어_1" xmlns="http://www.w3.org/2000/svg" xmlns:xlink="http://www.w3.org/1999/xlink" x="0px"
	 y="0px" width="458px" height="187.721px" viewBox="0 0 458 187.721" enable-background="new 0 0 458 187.721"
	 xml:space="preserve">
<rect x="226.059" y="37.821" fill="#FFFFFF" width="231.941" height="149.286"/>
<rect x="0.002" y="37.821" fill="#FFFFFF" width="192.756" height="149.897"/>
<rect x="390.957" y="165.139" fill="#E3007F" width="45.354" height="22.678"/>
<rect x="318.673" y="158.355" fill="#E3007F" width="45.354" height="29.477"/>
<rect x="246.041" y="118.148" fill="#E3007F" width="45.354" height="69.07"/>
<g>
	<path fill="#231815" d="M250.068,68.674v2.447h4.205v4.248h-1.482v-2.988h-8.096v-1.26h3.875v-2.447h-5.359v-1.262h9.048
		c0.128-0.57,0.474-2.238,0.589-3.453h-8.182v-1.263h9.838c-0.043,0.767-0.373,3.498-0.791,4.716h2.174v1.262H250.068z"/>
	<path fill="#231815" d="M265.938,75.368v-6.832h-1.627v6.233h-1.396V62.456h1.396v4.745h1.627v-5.045h1.398v13.212H265.938z
		 M259.066,72.262l-2.274,0.028v-8.843h1.425v7.479l1.383-0.031c0.692-0.014,2.002-0.195,2.521-0.299v1.35
		C261.646,72.036,260.162,72.232,259.066,72.262"/>
</g>
<path fill="#231815" d="M269.637,62.441h9.422v1.201h-7.98v1.021h7.936v1.201h-7.936v1.037h8.08v1.199h-9.521V62.441z
	 M277.588,75.368v-2.537h-8.109v-1.229h9.564v3.767H277.588z M267.996,69.212h12.676v1.246h-12.676V69.212z"/>
<g>
	<path fill="#231815" d="M290.619,75.368v-6.214h-2.348v-1.428h2.348v-5.57h1.441v13.212H290.619z M284.713,68.719
		c-1.281,0-2.016,0.84-2.016,1.784c0,0.933,0.734,1.774,2.016,1.774c1.24,0,1.988-0.842,1.988-1.774
		C286.701,69.542,285.953,68.719,284.713,68.719 M282.582,62.803h4.179v1.262h-4.179V62.803z M284.699,73.568
		c-2.074,0-3.516-1.473-3.516-3.078c0-1.622,1.428-3.034,3.529-3.034c2.031,0,3.457,1.397,3.457,3.034
		C288.17,72.051,286.744,73.568,284.699,73.568 M280.709,65.234h7.908v1.291h-7.908V65.234z"/>
	<path fill="#231815" d="M323.295,144.816v2.446h4.205v4.248h-1.482v-2.987h-8.096v-1.261h3.875v-2.446h-5.359v-1.263h9.047
		c0.129-0.569,0.475-2.237,0.59-3.452h-8.182v-1.263h9.838c-0.043,0.767-0.372,3.498-0.79,4.715h2.173v1.263H323.295z"/>
	<path fill="#231815" d="M339.15,138.298h1.44v13.214h-1.44V138.298z M333.82,140.281c-1.396,0-2.174,0.887-2.174,1.951
		c0,1.065,0.791,1.953,2.189,1.953c1.396,0,2.174-0.888,2.174-1.953C336.01,141.168,335.219,140.281,333.82,140.281
		 M333.676,149.275h-4.35v-1.277h3.789V145.4c-1.744-0.271-2.924-1.59-2.924-3.168c0-1.772,1.498-3.228,3.629-3.228
		c2.133,0,3.631,1.666,3.631,3.243c0,1.546-1.152,2.854-2.867,3.152v2.539c0.807,0,2.881-0.137,3.99-0.285v1.32
		C337.682,149.08,335.305,149.275,333.676,149.275"/>
</g>
<path fill="#231815" d="M342.863,138.583h9.422v1.202h-7.98v1.021h7.936v1.201h-7.936v1.034h8.08v1.203h-9.521V138.583z
	 M350.814,151.512v-2.537h-8.109v-1.231h9.564v3.769H350.814z M341.223,145.355h12.676v1.246h-12.676V145.355z"/>
<g>
	<path fill="#231815" d="M363.846,151.512v-6.216h-2.348v-1.428h2.348v-5.569h1.441v13.213H363.846z M357.939,144.861
		c-1.281,0-2.015,0.84-2.015,1.787c0,0.93,0.733,1.771,2.015,1.771c1.24,0,1.988-0.841,1.988-1.771
		C359.928,145.688,359.18,144.861,357.939,144.861 M355.809,138.945h4.178v1.262h-4.178V138.945z M357.926,149.71
		c-2.074,0-3.516-1.472-3.516-3.077c0-1.621,1.428-3.033,3.529-3.033c2.031,0,3.457,1.396,3.457,3.033
		C361.396,148.193,359.971,149.71,357.926,149.71 M353.936,141.377h7.908v1.291h-7.908V141.377z"/>
	<path fill="#231815" d="M410.955,100.943h1.441v13.213h-1.441V100.943z M402.283,111.859l-1.08-0.887
		c3.789-1.771,5.156-5.27,5.316-7.281h-4.553v-1.262h6.209C408.16,105.553,406.289,109.938,402.283,111.859"/>
	<path fill="#231815" d="M423.857,100.943v5.121h1.871v1.32h-1.871v6.771h-1.44v-13.213H423.857z M418.354,111.35
		c-1.613,0.09-4.205,0.074-4.334,0.074v-9.129h6.25v1.262h-4.811v2.508h4.609v1.306h-4.609v2.747c0.072,0,1.57,0.016,2.939-0.059
		c1.064-0.047,2.348-0.166,3.109-0.272v1.278C420.717,111.167,419.449,111.288,418.354,111.35"/>
	<path fill="#231815" d="M397.963,129.789c-0.736-1.164-1.943-3.105-1.943-5.721c0-2.604,1.207-4.557,1.943-5.721h0.576
		c-1.174,2.098-1.656,3.945-1.656,5.721s0.482,3.635,1.656,5.721H397.963z"/>
	<path fill="#231815" d="M406.951,118.778h0.852v7.652h-0.852V118.778z M400.809,129.094v-3.262h0.852v2.528h6.373v0.733H400.809z
		 M404.836,124.969c-0.346-0.168-1.256-0.793-1.83-1.44c-0.473-0.503-0.84-1.067-1.012-1.571c-0.162,0.516-0.449,1.08-0.967,1.703
		c-0.6,0.706-1.335,1.247-1.875,1.512l-0.611-0.588c0.611-0.287,1.484-0.912,2.084-1.715c0.574-0.779,0.932-1.837,0.932-2.796v-0.97
		h0.896v0.97c0,0.985,0.381,2.052,0.932,2.688c0.6,0.695,1.564,1.402,2.037,1.582L404.836,124.969z"/>
	<path fill="#231815" d="M416.826,118.778h0.863v10.556h-0.863V118.778z M412.775,124.633c-0.988,1.367-2.023,2.192-3.174,2.817
		l-0.656-0.54c1.012-0.527,2.221-1.402,3.025-2.529c0.908-1.283,1.289-2.711,1.393-3.611h-3.809v-0.73h4.785
		C414.248,121.381,413.789,123.252,412.775,124.633"/>
	<path fill="#231815" d="M427.262,122.581c-0.484-0.097-1.543-0.407-2.404-0.948c-0.783-0.479-1.369-1.078-1.473-1.451
		c-0.115,0.373-0.702,0.973-1.473,1.451c-0.863,0.541-1.934,0.852-2.416,0.948l-0.508-0.625c0.393-0.058,1.658-0.431,2.566-1.007
		c0.816-0.504,1.369-1.188,1.369-1.788v-0.358h0.92v0.358c0,0.601,0.541,1.284,1.357,1.788c0.91,0.576,2.188,0.949,2.578,1.007
		L427.262,122.581z M423.832,123.973v1.162h3.246v2.362h-6.455v0.996h6.695v0.72h-7.615v-2.41h6.441v-0.984h-6.441v-0.684h3.232
		v-1.162h-4.613v-0.721h10.125v0.721H423.832z"/>
	<path fill="#231815" d="M429.955,128.482c0,0.274-0.082,0.574-0.289,0.863c-0.195,0.275-0.471,0.383-0.689,0.479l-0.299-0.383
		c0.402-0.049,0.689-0.385,0.689-0.637h-0.713v-1.15h1.301V128.482z"/>
</g>
<path fill="#231815" d="M401.193,144.535v-2.424h-6.639v-0.742h7.502v3.166H401.193z M393.313,140.037v-0.744h4.625v-1.738h-3.256
	v-3.491h0.873v2.747h6.627v0.744h-3.369v1.738h4.625v0.744H393.313z"/>
<g>
	<path fill="#231815" d="M411.951,140.312v-2.817h-1.46v2.817h-0.841v-6.151h0.841v2.555h1.46v-2.735h0.84v6.332H411.951z
		 M411.893,144.535v-2.783h-6.523v-0.733h7.387v3.517H411.893z M408.637,139.869c-0.275-0.133-0.908-0.576-1.426-1.152
		c-0.461-0.516-0.828-1.174-0.898-1.414c-0.045,0.229-0.355,0.898-0.873,1.559c-0.529,0.648-1.105,1.104-1.448,1.307l-0.657-0.563
		c0.346-0.19,1.186-0.827,1.68-1.558c0.459-0.684,0.853-1.633,0.853-2.699v-1.043h0.884v1.043c0,1.066,0.334,1.895,0.795,2.494
		c0.553,0.72,1.277,1.248,1.645,1.392L408.637,139.869z"/>
	<path fill="#231815" d="M421.561,133.979h0.863v10.556h-0.863V133.979z M417.51,139.834c-0.988,1.367-2.023,2.193-3.174,2.818
		l-0.656-0.541c1.012-0.527,2.221-1.402,3.025-2.529c0.908-1.283,1.289-2.711,1.393-3.611h-3.809v-0.73h4.786
		C418.982,136.582,418.523,138.453,417.51,139.834"/>
	<path fill="#231815" d="M432.008,137.782c-0.484-0.097-1.543-0.407-2.404-0.948c-0.783-0.479-1.369-1.078-1.473-1.451
		c-0.114,0.373-0.703,0.973-1.473,1.451c-0.863,0.541-1.933,0.852-2.416,0.948l-0.508-0.625c0.393-0.06,1.658-0.431,2.566-1.007
		c0.816-0.504,1.369-1.188,1.369-1.788v-0.358h0.92v0.358c0,0.601,0.541,1.284,1.357,1.788c0.91,0.576,2.188,0.947,2.578,1.007
		L432.008,137.782z M428.578,139.174v1.162h3.246v2.362h-6.455v0.996h6.695v0.72h-7.615v-2.41h6.442v-0.984h-6.442v-0.684h3.233
		v-1.162h-4.614v-0.721h10.125v0.721H428.578z"/>
</g>
<path fill="#231815" d="M393.184,150.355h7.754v0.742h-7.754V150.355z M392.953,155.549v-0.732h1.736l-0.252-3.311h0.862
	l0.253,3.311h3.014l0.254-3.311h0.853l-0.255,3.311h1.75v0.732H392.953z M391.998,157.455h10.125v0.744h-10.125V157.455z"/>
<polygon fill="#231815" points="401.916,158.414 401.916,157.672 406.494,157.672 406.494,155.752 403.354,155.752 403.354,152.537 
	409.602,152.537 409.602,150.811 403.318,150.811 403.318,150.065 410.453,150.065 410.453,153.269 404.205,153.269 
	404.205,155.008 410.855,155.008 410.855,155.752 407.381,155.752 407.381,157.672 412.041,157.672 412.041,158.414 "/>
<g>
	<path fill="#231815" d="M411.836,158.055v-0.744h7.086c0.162-0.937,0.703-4.305,0.748-5.863h-6.639v-0.745h7.582
		c-0.045,1.079-0.148,2.063-0.322,3.312c-0.172,1.317-0.414,2.793-0.506,3.297h2.176v0.744H411.836z"/>
	<path fill="#231815" d="M430.199,155.499v-2.829h-1.463v2.829h-0.84v-6.14h0.84v2.531h1.463v-2.711h0.84v6.319H430.199z
		 M430.117,156.844h-5.477v2.039h5.477V156.844z M423.779,156.122h7.201v3.49h-7.201V156.122z M424.676,154.936l-2.221,0.025v-2.975
		h3.037v-1.451h-3.037v-0.756h3.9v2.938h-3.037v1.487l1.541-0.011c0.771-0.026,1.969-0.133,2.463-0.217v0.744
		C426.816,154.792,425.459,154.9,424.676,154.936"/>
	<path fill="#231815" d="M434.273,154.469c0,2.615-1.209,4.557-1.945,5.721h-0.574c1.174-2.086,1.656-3.945,1.656-5.721
		s-0.482-3.623-1.656-5.721h0.574C433.064,149.912,434.273,151.864,434.273,154.469"/>
	<path fill="#9E9E9F" d="M231.729,0c0,0-5.67,0-5.67,5.67v46.488H458V5.67c0,0,0-5.67-5.67-5.67H231.729z"/>
	<path fill="#FFFFFF" d="M256.82,14.986v2.605h4.482v4.525h-1.58v-3.183h-8.627v-1.343h4.129v-2.605h-5.711v-1.345h9.641
		c0.139-0.606,0.506-2.382,0.629-3.677h-8.719V8.621h10.485c-0.048,0.815-0.399,3.726-0.845,5.021h2.316v1.345H256.82z"/>
	<path fill="#FFFFFF" d="M273.576,22.117v-7.275h-1.734v6.637h-1.488V8.365h1.488v5.053h1.734V8.045h1.491v14.072H273.576z
		 M266.254,18.807l-2.424,0.033V9.42h1.52v7.965l1.473-0.033c0.736-0.016,2.135-0.207,2.688-0.318v1.439
		C269.002,18.568,267.422,18.775,266.254,18.807"/>
</g>
<rect x="281.535" y="14.2" fill="#FFFFFF" width="1.689" height="1.76"/>
<g>
	<path fill="#FFFFFF" d="M299.672,8.044h1.535v14.072h-1.535V8.044z M293.994,10.156c-1.49,0-2.318,0.943-2.318,2.078
		c0,1.137,0.844,2.08,2.332,2.08c1.49,0,2.318-0.943,2.318-2.08C296.326,11.1,295.483,10.156,293.994,10.156 M293.84,19.734h-4.637
		v-1.359h4.037v-2.766c-1.857-0.287-3.115-1.695-3.115-3.375c0-1.887,1.596-3.438,3.869-3.438c2.271,0,3.867,1.776,3.867,3.456
		c0,1.646-1.229,3.037-3.055,3.357v2.703c0.859,0,3.07-0.145,4.252-0.306v1.409C298.108,19.527,295.574,19.734,293.84,19.734"/>
	<path fill="#FFFFFF" d="M317.213,8.044h1.535v14.072h-1.535V8.044z M314.496,19.318c-1.182-0.815-2.932-2.494-3.348-3.949
		c-0.582,1.886-2.193,3.438-3.576,4.381l-1.258-1.086c3.1-1.825,3.99-4.366,3.99-6.686v-1.056h-3.055v-1.39h7.828v1.39h-3.068v1.056
		c0,2.271,0.951,4.605,3.545,6.108L314.496,19.318z"/>
	<path fill="#FFFFFF" d="M329.992,8.045h1.535v8.492h-1.535V8.045z M329.963,22.116V18.52h-8.412v-1.344h9.932v4.94H329.963z
		 M327.445,15.754c-1.459-0.609-3.039-2.047-3.607-3.185c-0.584,1.375-2.227,2.911-3.561,3.599l-1.121-1.056
		c3.377-1.582,3.867-4.013,3.867-5.356V8.43h1.613v1.326c0,1.264,0.538,3.551,3.715,4.781L327.445,15.754z"/>
	<path fill="#FFFFFF" d="M343.602,22.117v-7.084h-1.582v6.445h-1.488V8.365h1.488v5.101h1.582V8.044h1.488v14.073H343.602z
		 M333.01,11.068V9.709h6.309v1.359h-2.334v0.494c0,2.367,0.629,4.99,2.994,6.86l-1.09,1.009c-0.938-0.688-2.365-2.574-2.717-3.888
		c-0.369,1.425-1.658,3.2-2.84,4.254l-1.244-0.959c2.748-2.19,3.285-4.86,3.285-7.276v-0.494H333.01z"/>
	<path fill="#FFFFFF" d="M357.211,8.045v4.077h1.918v1.345h-1.918v4.766h-1.535V8.045H357.211z M347.908,21.797v-4.382h1.535v3.039
		h8.227v1.343H347.908z M353.326,16.266c-1.336-0.609-3.039-2.207-3.576-3.521c-0.508,1.536-1.92,2.959-3.576,3.838l-1.076-1.038
		c2.918-1.535,3.854-3.453,3.854-5.966V8.43h1.611v1.149c0,2.257,1.152,4.351,3.746,5.55L353.326,16.266z"/>
	<path fill="#FFFFFF" d="M369.33,18.504v-1.646h-3.193v-1.344h3.193V8.045h1.535v10.459H369.33z M361.025,21.797v-3.98h1.551v2.638
		h8.58v1.343H361.025z M363.666,14.346v2.895h-1.535v-2.879h-3.346V13.02h6.125c0.121-0.625,0.336-2.047,0.398-2.912h-5.465V8.766
		h7.168c-0.092,1.887-0.398,3.342-0.598,4.156c0.859-0.048,1.902-0.143,2.426-0.238v1.31
		C367.596,14.186,365.078,14.346,363.666,14.346"/>
	<path fill="#FFFFFF" d="M386.67,8.045h1.535v14.071h-1.535V8.045z M379.041,8.094h4.191v1.278h-4.191V8.094z M384.568,14.922
		c-0.998-0.064-2.703-1.089-3.393-2.016c-0.508,0.816-2.104,2-3.455,2.207l-0.951-1.168c2.18-0.383,3.316-1.773,3.547-2.303h-2.871
		v-1.312h7.445v1.312h-2.84c0.26,0.512,1.182,1.615,3.285,2.047L384.568,14.922z M382.326,17.432
		c-0.461,0.033-0.475,0.049-0.891,0.049v4.316h-1.52v-4.302h-3.73v-1.358l4.359-0.017c1.49-0.03,4.791-0.207,5.635-0.366v1.359
		C385.35,17.24,383.6,17.385,382.326,17.432"/>
</g>
<path fill="#FFFFFF" d="M390.455,13.387V8.51h10.039v1.342h-8.504v2.19h8.658v1.345H390.455z M398.959,22.117v-3.166h-8.656v-1.344
	h10.191v4.51H398.959z M388.721,14.857h13.508v1.344h-13.508V14.857z"/>
<g>
	<path fill="#FFFFFF" d="M416.99,18.408v-2.943h-2.363v-1.359h2.363v-1.567h-2.057v-1.343h2.057V8.044h1.521v10.364H416.99z
		 M410.637,13.434c-1.336,0-1.873,0.528-1.873,1.248c0,0.703,0.521,1.215,1.873,1.215c1.334,0,1.857-0.494,1.857-1.215
		C412.494,13.962,411.971,13.434,410.637,13.434 M408.673,21.796v-3.885h1.563v2.56h8.551v1.325H408.673z M408.518,7.98h4.191v1.264
		h-4.191V7.98z M407.074,14.697c0-1.36,1.32-2.398,3.547-2.398c2.332,0,3.531,1.038,3.531,2.398c0,1.295-1.213,2.431-3.547,2.431
		C408.379,17.128,407.074,15.977,407.074,14.697 M406.492,10.251h8.242v1.279h-8.242V10.251z"/>
	<path fill="#FFFFFF" d="M431.029,13.944v3.823h-1.533V8.045h1.533v4.494h1.904v1.405H431.029z M426.104,21.157
		c2.041,0,3.33-0.351,3.361-1.054c0.016-0.721-1.32-1.057-3.361-1.057c-2.072,0-3.377,0.289-3.377,1.039
		C422.727,20.854,424.031,21.157,426.104,21.157 M422.004,13.338c0,0.496,0.83,0.721,2.041,0.721c1.213,0,2.043-0.24,2.043-0.721
		c0-0.512-0.83-0.783-2.043-0.783C422.834,12.555,422.004,12.795,422.004,13.338 M421.912,7.934h4.205v1.168h-4.205V7.934z
		 M431.246,20.104c0,1.326-1.797,2.302-5.143,2.302c-3.332,0-5.143-0.976-5.143-2.319c0-1.326,1.795-2.285,5.127-2.285
		C429.434,17.801,431.246,18.775,431.246,20.104 M419.824,9.789h8.352v1.184h-8.352V9.789z M424.139,17.176h-4.867v-1.279h3.961
		v-0.799c-1.689-0.145-2.84-0.817-2.84-1.76c0-1.104,1.52-1.887,3.652-1.887c2.15,0,3.639,0.768,3.639,1.904
		c0,0.91-1.09,1.582-2.748,1.727v0.862c0.982,0,3.07-0.175,4.053-0.319v1.215C428.053,16.969,426.271,17.176,424.139,17.176"/>
	<path fill="#FFFFFF" d="M311.23,43.838c-1.091-1.711-2.687-4.224-2.687-7.74c0-3.535,1.596-6.045,2.687-7.756h1.104
		c-1.626,2.879-2.24,5.342-2.24,7.756c0,2.398,0.614,4.861,2.24,7.74H311.23z"/>
	<path fill="#FFFFFF" d="M316.068,28.838h5.541v1.246h-5.541V28.838z M318.846,42.143c2.164,0,3.592-0.447,3.592-1.232
		c0-0.863-1.442-1.279-3.608-1.279c-2.179,0-3.621,0.369-3.621,1.248C315.208,41.646,316.65,42.143,318.846,42.143 M318.846,43.373
		c-3.438,0-5.388-1.055-5.388-2.479c0-1.421,1.949-2.478,5.388-2.478c3.455,0,5.373,1.057,5.373,2.478
		C324.219,42.318,322.301,43.373,318.846,43.373 M313.689,32.291v-1.246h10.313v1.246h-4.112c0.366,0.465,1.703,1.695,4.881,2.031
		l-0.892,1.184c-1.642-0.145-4.159-1.119-5.004-2.207c-0.521,0.879-3.254,2.176-5.034,2.207l-0.892-1.184
		c3.332-0.287,4.514-1.566,4.868-2.031H313.689z M312.092,37.744v-1.326h5.94V34.85h1.627v1.568h5.94v1.326H312.092z"/>
	<path fill="#FFFFFF" d="M366.738,39.232v-4.559h-2.809v-1.342h2.809v-4.287h1.535v10.188H366.738z M358.635,42.797v-4.381h1.536
		v3.039h8.472v1.342H358.635z M357.236,37.969l-0.95-1.072c3.086-0.734,5.556-3.213,5.711-5.564h-4.853v-1.345h6.694
		C363.775,33.619,361.229,36.785,357.236,37.969"/>
	<path fill="#FFFFFF" d="M371.262,36.098c0-2.414-0.631-4.877-2.258-7.756h1.121c1.09,1.711,2.687,4.221,2.687,7.756
		c0,3.518-1.597,6.029-2.687,7.74h-1.121C370.631,40.958,371.262,38.495,371.262,36.098"/>
</g>
<rect x="76.473" y="121.01" fill="#5FA4C0" width="34.016" height="66.209"/>
<rect x="19.98" y="110.153" fill="#5FA4C0" width="34.016" height="77.065"/>
<g>
	<path fill="#5FA4C0" d="M35.668,96.34H29.57c-0.478,0-0.865-0.355-0.865-0.799c0-0.439,0.387-0.795,0.865-0.795h6.098
		c0.475,0,0.861,0.355,0.861,0.795C36.529,95.984,36.143,96.34,35.668,96.34"/>
	<path fill="#5FA4C0" d="M19.438,104.756c-0.557,0-1.006-0.418-1.006-0.93c0-0.514,0.449-0.93,1.006-0.93h4.742
		c0.553,0,1.006,0.416,1.006,0.93c0,0.512-0.453,0.93-1.006,0.93H19.438z"/>
	<path fill="#5FA4C0" d="M19.438,100.654c-0.557,0-1.006-0.418-1.006-0.931s0.449-0.929,1.006-0.929h4.742
		c0.553,0,1.006,0.416,1.006,0.929s-0.453,0.931-1.006,0.931H19.438z"/>
	<path fill="#5FA4C0" d="M19.438,96.553c-0.557,0-1.006-0.418-1.006-0.933c0-0.511,0.449-0.929,1.006-0.929h4.742
		c0.553,0,1.006,0.418,1.006,0.929c0,0.515-0.453,0.933-1.006,0.933H19.438z"/>
	<path fill="#5FA4C0" d="M19.438,92.449c-0.557,0-1.006-0.418-1.006-0.93s0.449-0.93,1.006-0.93h4.742
		c0.553,0,1.006,0.418,1.006,0.93s-0.453,0.93-1.006,0.93H19.438z"/>
	<path fill="#5FA4C0" d="M19.438,88.348c-0.557,0-1.006-0.418-1.006-0.93c0-0.514,0.449-0.93,1.006-0.93h4.742
		c0.553,0,1.006,0.416,1.006,0.93c0,0.512-0.453,0.93-1.006,0.93H19.438z"/>
</g>
<rect x="21.025" y="88.881" fill="#5FA4C0" width="1.726" height="1.178"/>
<rect x="21.025" y="97.081" fill="#5FA4C0" width="1.726" height="1.183"/>
<rect x="21.025" y="92.98" fill="#5FA4C0" width="1.726" height="1.18"/>
<rect x="21.025" y="101.186" fill="#5FA4C0" width="1.726" height="1.18"/>
<g>
	<path fill="#5FA4C0" d="M43.633,96.75c0.559,0.113,0.685,0.514,0.279,0.887l-4.662,4.309c-0.406,0.375-0.838,0.256-0.959-0.26
		l-1.283-5.389c-0.123-0.518,0.232-0.846,0.793-0.733L43.633,96.75z"/>
	<path fill="#5FA4C0" d="M49.742,112.801l0.894,0.824c1.627,1.506,4.27,1.506,5.901,0c1.629-1.504,1.629-3.947,0-5.453l-0.893-0.824
		L49.742,112.801z"/>
</g>
<polygon fill="#5FA4C0" points="41.109,100.813 51.593,110.498 53.13,109.078 42.648,99.393 "/>
<polygon fill="#5FA4C0" points="38.939,102.818 49.421,112.505 51.083,110.973 40.598,101.285 "/>
<polygon fill="#5FA4C0" points="44.84,97.365 43.16,98.918 53.645,108.605 55.324,107.052 "/>
<g>
	<path fill="#5FA4C0" d="M52.953,85.164c0-3.349-2.947-6.07-6.57-6.07H27.596c-3.621,0-6.571,2.722-6.571,6.07v0.791h1.727v-0.791
		c0-2.469,2.172-4.478,4.844-4.478h18.787c2.672,0,4.845,2.009,4.845,4.478v16.6l1.725,1.595V85.164z"/>
	<path fill="#5FA4C0" d="M27.596,110.719c-2.672,0-4.844-2.008-4.844-4.478v-0.952h-1.726v0.952c0,3.349,2.947,6.071,6.57,6.071
		h18.789c0.375,0,0.744-0.036,1.104-0.092l-1.627-1.502H27.596z"/>
	<path fill="#5FA4C0" d="M46.072,88.629H29.281c-0.477,0-0.863-0.355-0.863-0.797c0-0.439,0.386-0.797,0.863-0.797h16.791
		c0.475,0,0.861,0.357,0.861,0.797C46.933,88.273,46.547,88.629,46.072,88.629"/>
	<path fill="#5FA4C0" d="M46.072,92.316H29.281c-0.477,0-0.863-0.356-0.863-0.797c0-0.441,0.386-0.797,0.863-0.797h16.791
		c0.475,0,0.861,0.355,0.861,0.797C46.933,91.96,46.547,92.316,46.072,92.316"/>
</g>
<rect x="135.4" y="166.036" fill="#5FA4C0" width="34.016" height="21.183"/>
<g>
	<path fill="#9E9E9F" d="M5.672,0C5.672,0,0,0,0,5.67v46.488h192.758V5.67c0,0,0-5.67-5.668-5.67H5.672z"/>
	<path fill="#FFFFFF" d="M65.336,12.811v-1.535h-2.84c0.063,0.271,0.094,0.545,0.094,0.832c0,0.24-0.031,0.479-0.063,0.703H65.336z
		 M57.186,21.797v-4.621h1.519v3.278h8.504v1.343H57.186z M58.844,9.9c-1.367,0-2.149,0.992-2.149,2.207
		c0,1.199,0.782,2.191,2.149,2.191c1.396,0,2.164-0.992,2.164-2.191C61.008,10.893,60.24,9.9,58.844,9.9 M65.336,9.932V8.045h1.535
		v10.188h-1.535v-4.078h-3.391c-0.646,0.927-1.75,1.535-3.101,1.535c-2.18,0-3.731-1.6-3.731-3.582c0-1.983,1.551-3.598,3.731-3.598
		c1.289,0,2.348,0.559,3.008,1.422H65.336z"/>
	<path fill="#FFFFFF" d="M74.725,16.105v6.012h-1.566v-6.012H67.51v-1.344h9.517c0.276-0.928,0.692-3.135,0.784-4.591h-8.826V8.828
		h10.576c0,0.576-0.508,4.429-0.922,5.934h2.379v1.344H74.725z"/>
	<path fill="#FFFFFF" d="M92.309,8.044v5.646h2.041v1.408h-2.041v7.02h-1.536V8.044H92.309z M88.578,19.398
		c-1.197-0.543-2.902-2.494-3.623-4.221c-0.43,1.566-2.303,3.727-3.623,4.51l-1.229-1.008c2.84-1.632,4.038-4.175,4.038-7.63V8.828
		h1.613v2.222c0,3.505,1.32,5.63,3.851,7.198L88.578,19.398z"/>
	<path fill="#FFFFFF" d="M104.367,19.016h-6.602v1.615h6.602V19.016z M96.246,21.956v-5.739h1.52v1.504h6.601v-1.504h1.535v5.739
		H96.246z M97.857,9.885c-1.089,0-2.056,0.814-2.056,1.821c0,1.039,0.967,1.871,2.056,1.871c1.09,0,2.059-0.832,2.059-1.871
		C99.916,10.684,98.947,9.885,97.857,9.885 M104.383,10.973V8.045h1.535v7.484h-1.535v-3.215h-2.934
		c-0.306,1.631-1.886,2.703-3.592,2.703c-1.886,0-3.636-1.312-3.636-3.277c0-1.952,1.719-3.264,3.636-3.264
		c1.643,0,3.163,0.976,3.547,2.496H104.383z"/>
	<path fill="#FFFFFF" d="M121.875,18.408v-2.943h-2.364v-1.359h2.364v-1.567h-2.057v-1.343h2.057V8.044h1.521v10.364H121.875z
		 M115.521,13.434c-1.336,0-1.873,0.528-1.873,1.248c0,0.703,0.521,1.215,1.873,1.215c1.334,0,1.857-0.494,1.857-1.215
		C117.378,13.962,116.855,13.434,115.521,13.434 M113.557,21.796v-3.885h1.565v2.56h8.55v1.325H113.557z M113.403,7.98h4.191v1.264
		h-4.191V7.98z M111.959,14.697c0-1.36,1.32-2.398,3.546-2.398c2.332,0,3.529,1.038,3.529,2.398c0,1.295-1.21,2.431-3.544,2.431
		C113.264,17.128,111.959,15.977,111.959,14.697 M111.376,10.251h8.242v1.279h-8.242V10.251z"/>
	<path fill="#FFFFFF" d="M135.915,13.944v3.823h-1.534V8.045h1.534v4.494h1.904v1.405H135.915z M130.988,21.157
		c2.041,0,3.33-0.351,3.361-1.054c0.016-0.721-1.32-1.057-3.361-1.057c-2.072,0-3.377,0.289-3.377,1.039
		C127.611,20.854,128.917,21.157,130.988,21.157 M126.888,13.338c0,0.496,0.83,0.721,2.041,0.721c1.213,0,2.043-0.24,2.043-0.721
		c0-0.512-0.83-0.783-2.043-0.783C127.718,12.555,126.888,12.795,126.888,13.338 M126.796,7.934h4.205v1.168h-4.205V7.934z
		 M136.13,20.104c0,1.326-1.796,2.302-5.142,2.302c-3.332,0-5.143-0.976-5.143-2.319c0-1.326,1.795-2.285,5.127-2.285
		C134.318,17.801,136.13,18.775,136.13,20.104 M124.709,9.789h8.351v1.184h-8.351V9.789z M129.023,17.176h-4.867v-1.279h3.961
		v-0.799c-1.69-0.145-2.84-0.817-2.84-1.76c0-1.104,1.519-1.887,3.652-1.887c2.151,0,3.639,0.768,3.639,1.904
		c0,0.91-1.09,1.582-2.748,1.727v0.862c0.982,0,3.07-0.175,4.053-0.319v1.215C132.938,16.969,131.156,17.176,129.023,17.176"/>
	<path fill="#FFFFFF" d="M65.811,43.838c-1.09-1.711-2.685-4.224-2.685-7.74c0-3.535,1.595-6.045,2.685-7.756h1.106
		c-1.627,2.879-2.241,5.342-2.241,7.756c0,2.398,0.614,4.861,2.241,7.74H65.811z"/>
	<path fill="#FFFFFF" d="M70.649,28.838h5.541v1.246h-5.541V28.838z M73.426,42.143c2.164,0,3.592-0.447,3.592-1.232
		c0-0.863-1.442-1.279-3.608-1.279c-2.179,0-3.621,0.369-3.621,1.248C69.789,41.646,71.231,42.143,73.426,42.143 M73.426,43.373
		c-3.438,0-5.387-1.055-5.387-2.479c0-1.421,1.949-2.478,5.387-2.478c3.455,0,5.373,1.057,5.373,2.478
		C78.799,42.318,76.881,43.373,73.426,43.373 M68.27,32.291v-1.246h10.314v1.246h-4.113c0.367,0.465,1.703,1.695,4.881,2.031
		l-0.891,1.184c-1.643-0.145-4.16-1.119-5.004-2.207c-0.521,0.879-3.254,2.176-5.035,2.207l-0.891-1.184
		c3.332-0.287,4.514-1.566,4.868-2.031H68.27z M66.672,37.744v-1.326h5.941V34.85h1.627v1.568h5.94v1.326H66.672z"/>
	<path fill="#FFFFFF" d="M122.713,39.232v-4.559h-2.809v-1.342h2.809v-4.287h1.535v10.188H122.713z M114.61,42.797v-4.381h1.535
		v3.039h8.472v1.342H114.61z M113.211,37.969l-0.951-1.072c3.086-0.734,5.557-3.213,5.711-5.564h-4.852v-1.345h6.694
		C119.75,33.619,117.203,36.785,113.211,37.969"/>
	<path fill="#FFFFFF" d="M127.236,36.098c0-2.414-0.631-4.877-2.258-7.756h1.121c1.09,1.711,2.686,4.221,2.686,7.756
		c0,3.518-1.596,6.029-2.686,7.74h-1.121C126.605,40.958,127.236,38.495,127.236,36.098"/>
	<path fill="#E3007F" d="M264.881,98.248c0.129-0.328,0.408-0.582,0.748-0.678c0.762-0.218,1.279-0.893,1.279-1.677
		c0-0.767-0.5-1.435-1.242-1.664c-0.322-0.097-0.582-0.33-0.717-0.638c-0.133-0.309-0.121-0.656,0.025-0.959
		c0.33-0.666,0.211-1.465-0.299-1.994c-0.537-0.553-1.494-0.678-2.154-0.282c-0.303,0.179-0.686,0.209-1.008,0.082
		c-0.328-0.132-0.582-0.411-0.678-0.75c-0.219-0.761-0.891-1.274-1.672-1.274c-0.77,0-1.439,0.5-1.664,1.242
		c-0.098,0.318-0.334,0.58-0.639,0.711c-0.311,0.131-0.668,0.121-0.959-0.021c-0.637-0.316-1.49-0.188-1.996,0.298
		c-0.584,0.565-0.701,1.454-0.283,2.157c0.184,0.302,0.211,0.679,0.08,1.004c-0.129,0.328-0.412,0.58-0.746,0.679
		c-0.766,0.218-1.277,0.89-1.277,1.675c0,0.768,0.502,1.436,1.242,1.664c0.322,0.098,0.582,0.332,0.713,0.637
		c0.133,0.309,0.125,0.66-0.023,0.959c-0.332,0.666-0.209,1.469,0.301,1.996c0.533,0.551,1.486,0.68,2.154,0.281
		c0.303-0.18,0.68-0.212,1.006-0.08c0.33,0.131,0.582,0.407,0.678,0.748c0.217,0.764,0.891,1.277,1.676,1.277
		c0.769,0,1.434-0.502,1.664-1.245c0.096-0.317,0.33-0.58,0.637-0.71c0.305-0.131,0.666-0.124,0.959,0.023
		c0.238,0.119,0.509,0.18,0.779,0.18c0.457,0,0.9-0.176,1.215-0.48c0.584-0.566,0.703-1.453,0.281-2.152
		C264.779,98.947,264.75,98.58,264.881,98.248"/>
	<path fill="#E3007F" d="M263.004,104.35c-0.184-0.066-0.383-0.01-0.51,0.135c-0.761,0.916-1.883,1.439-3.068,1.439
		c-1.232,0-2.422-0.588-3.186-1.576l-0.561-0.158c-0.227,0.027-0.396,0.224-0.396,0.453v10.244c0,0.182,0.105,0.346,0.271,0.416
		l0.186,0.041l0.307-0.117l2.604-2.369c0.43-0.393,1.139-0.381,1.559,0.017l2.322,2.218l0.496,0.092
		c0.17-0.074,0.275-0.238,0.275-0.422v-9.982C263.303,104.588,263.184,104.415,263.004,104.35"/>
	<path fill="#E3007F" d="M289.197,80.584h-40.959c-0.796,0-1.447,0.65-1.447,1.447v27.711c0,0.799,0.651,1.449,1.447,1.449h4.305
		c0.25,0,0.457-0.205,0.457-0.457v-6.906l-0.191-0.373c-0.221-0.161-0.393-0.303-0.539-0.455c-0.826-0.857-1.229-2.034-1.102-3.227
		l-0.18-0.412c-1.014-0.762-1.592-1.93-1.592-3.203c0-1.229,0.587-2.42,1.57-3.184l0.174-0.434
		c-0.211-1.299,0.229-2.622,1.178-3.539c0.863-0.833,2.035-1.238,3.225-1.102l0.416-0.182c0.764-1.01,1.932-1.591,3.205-1.591
		c1.23,0,2.42,0.588,3.182,1.577l0.436,0.172c1.303-0.211,2.639,0.244,3.537,1.173c0.826,0.858,1.229,2.034,1.104,3.229l0.178,0.414
		c1.01,0.762,1.593,1.93,1.593,3.201c0,1.229-0.591,2.418-1.575,3.184l-0.17,0.434c0.209,1.297-0.23,2.618-1.178,3.536l-0.488,0.388
		l-0.193,0.373v6.926c0,0.252,0.203,0.457,0.457,0.457h23.152c0.801,0,1.447-0.65,1.447-1.449V82.031
		C290.645,81.234,289.998,80.584,289.197,80.584 M273.742,101.369h10.51c0.627,0,1.139,0.509,1.139,1.143
		c0,0.627-0.512,1.141-1.139,1.141h-10.51c-0.629,0-1.139-0.514-1.139-1.141C272.604,101.878,273.113,101.369,273.742,101.369
		 M284.252,97.712h-10.51c-0.629,0-1.139-0.511-1.139-1.14c0-0.631,0.51-1.143,1.139-1.143h10.51c0.627,0,1.139,0.512,1.139,1.143
		C285.391,97.201,284.879,97.712,284.252,97.712 M284.252,91.775h-10.51c-0.629,0-1.139-0.512-1.139-1.144
		c0-0.63,0.51-1.14,1.139-1.14h10.51c0.627,0,1.139,0.51,1.139,1.14C285.391,91.264,284.879,91.775,284.252,91.775"/>
	<path fill="#FFFFFF" d="M405.896,172.416c1.104-0.478,2.158-1.07,3.145-1.785h2.193v11.865h-2.568v-9.23
		c-0.492,0.375-1.479,0.986-2.77,1.514V172.416z"/>
	<path fill="#FFFFFF" d="M413.869,180.1l3.076-2.805c0.543-0.494,1.156-1.037,1.785-1.803c0.662-0.799,0.814-1.172,0.814-1.717
		c0-0.901-0.525-1.512-1.41-1.512c-1.359,0-1.479,1.393-1.496,1.731h-2.6c0-0.474,0-1.358,0.695-2.226
		c0.682-0.85,1.939-1.291,3.383-1.291c2.584,0,4.012,1.394,4.012,3.228c0,1.226-0.475,2.806-5.609,6.937
		c1.717-0.033,1.922-0.051,3.264-0.066c1.818-0.036,2.024-0.036,2.414-0.053v1.972h-8.328V180.1z"/>
	<line fill="none" stroke="#9E9E9F" x1="0.002" y1="187.721" x2="458" y2="187.721"/>
</g>
<g>
	<path fill="#FFFFFF" d="M258.541,128.698h8.184v2.146l-4.152,9.915h-2.89l4.413-10.054h-5.555V128.698z"/>
	<path fill="#FFFFFF" d="M267.9,131.848c0-1.471,1.229-3.374,4.17-3.374c2.422,0,4.101,1.384,4.101,3.271
		c0,1.453-1.142,2.457-2.37,2.646c0.484,0.139,1.297,0.347,1.938,1.246c0.416,0.589,0.555,1.212,0.555,1.8
		c0,2.215-2.06,3.513-4.43,3.513c-2.458,0-4.153-1.574-4.153-3.513c0-0.935,0.363-1.609,0.882-2.111
		c0.589-0.57,1.143-0.744,1.592-0.899C269.578,134.235,267.9,133.716,267.9,131.848z M273.748,137.264
		c0-1.09-0.813-1.748-1.729-1.748c-1.004,0-1.73,0.762-1.73,1.782c0,1.229,0.917,1.8,1.747,1.8
		C272.762,139.098,273.748,138.613,273.748,137.264z M273.662,131.882c0-0.986-0.796-1.505-1.609-1.505
		c-0.865,0-1.574,0.588-1.574,1.505c0,0.849,0.605,1.558,1.557,1.558C272.918,133.439,273.662,132.852,273.662,131.882z"/>
</g>
<g>
	<path fill="#FFFFFF" d="M334.246,166.604c1.124-0.484,2.197-1.09,3.2-1.817h2.232v12.078h-2.612v-9.396
		c-0.502,0.381-1.506,1.003-2.82,1.54V166.604z"/>
	<path fill="#FFFFFF" d="M342.255,167.953c0-1.471,1.229-3.374,4.171-3.374c2.422,0,4.101,1.384,4.101,3.271
		c0,1.453-1.142,2.457-2.37,2.646c0.484,0.139,1.297,0.347,1.938,1.246c0.415,0.589,0.554,1.212,0.554,1.8
		c0,2.215-2.06,3.513-4.43,3.513c-2.458,0-4.153-1.574-4.153-3.513c0-0.935,0.363-1.609,0.883-2.111
		c0.588-0.57,1.143-0.744,1.592-0.899C343.934,170.341,342.255,169.821,342.255,167.953z M348.104,173.369
		c0-1.09-0.813-1.748-1.73-1.748c-1.004,0-1.73,0.762-1.73,1.782c0,1.229,0.918,1.8,1.748,1.8
		C347.117,175.203,348.104,174.719,348.104,173.369z M348.018,167.987c0-0.986-0.797-1.505-1.609-1.505
		c-0.865,0-1.574,0.588-1.574,1.505c0,0.849,0.605,1.558,1.557,1.558C347.273,169.545,348.018,168.957,348.018,167.987z"/>
</g>
<g>
	<path fill="#FFFFFF" d="M328.658,31.363c1.135-0.505,2.217-1.135,3.229-1.891h2.252V42.04h-2.636v-9.777
		c-0.506,0.396-1.52,1.045-2.846,1.603V31.363z"/>
	<path fill="#FFFFFF" d="M340.217,29.292c1.71,0,2.723,0.954,3.176,1.657c0.629,0.954,1.101,2.178,1.101,4.537
		c0,2.917-0.646,6.752-4.312,6.752c-3.125,0-4.207-3.097-4.207-6.446C335.975,34.117,336.307,29.292,340.217,29.292z
		 M341.561,32.839c-0.07-0.342-0.367-1.458-1.327-1.458c-0.751,0-1.082,0.702-1.204,1.08c-0.401,1.278-0.401,3.205-0.401,3.512
		c0,2.143,0.313,4.141,1.623,4.141c1.396,0,1.624-2.448,1.624-4.177C341.875,35.144,341.787,33.668,341.561,32.839z"/>
	<path fill="#FFFFFF" d="M345.42,32.768c0-1.531,1.24-3.512,4.207-3.512c2.443,0,4.137,1.44,4.137,3.403
		c0,1.513-1.151,2.557-2.391,2.755c0.488,0.145,1.309,0.36,1.955,1.297c0.418,0.611,0.559,1.26,0.559,1.872
		c0,2.305-2.078,3.655-4.469,3.655c-2.479,0-4.189-1.639-4.189-3.655c0-0.973,0.366-1.675,0.89-2.196
		c0.594-0.595,1.152-0.774,1.606-0.937C347.113,35.252,345.42,34.712,345.42,32.768z M351.32,38.403c0-1.135-0.82-1.819-1.746-1.819
		c-1.012,0-1.745,0.793-1.745,1.855c0,1.278,0.925,1.872,1.763,1.872C350.325,40.312,351.32,39.808,351.32,38.403z M351.232,32.804
		c0-1.026-0.803-1.567-1.623-1.567c-0.873,0-1.588,0.612-1.588,1.567c0,0.882,0.61,1.62,1.57,1.62
		C350.482,34.424,351.232,33.812,351.232,32.804z"/>
</g>
<g>
	<path fill="#FFFFFF" d="M82.839,39.501l3.16-2.971c0.559-0.522,1.187-1.099,1.833-1.908c0.681-0.847,0.838-1.242,0.838-1.818
		c0-0.955-0.541-1.603-1.449-1.603c-1.396,0-1.519,1.477-1.536,1.836h-2.671c0-0.504,0-1.44,0.716-2.358
		c0.698-0.9,1.99-1.368,3.474-1.368c2.653,0,4.12,1.477,4.12,3.421c0,1.296-0.489,2.971-5.76,7.346
		c1.763-0.036,1.973-0.054,3.352-0.071c1.868-0.036,2.077-0.036,2.479-0.055v2.089h-8.553V39.501z"/>
	<path fill="#FFFFFF" d="M94.991,38.979c0.07,0.756,0.541,1.224,1.274,1.224c1.815,0,1.955-1.944,1.903-3.673
		c-0.873,0.811-1.659,0.864-2.2,0.864c-2.985,0-3.753-2.448-3.753-3.943c0-2.341,1.624-4.123,4.312-4.123
		c4.189,0,4.294,4.105,4.294,6.122c0,5.312-1.746,6.824-4.696,6.824c-0.681,0-3.771,0-3.771-3.295H94.991z M98.115,33.271
		c0-1.099-0.559-1.908-1.623-1.908c-1.24,0-1.693,1.025-1.693,1.98c0,0.432,0.122,1.98,1.641,1.98
		C97.731,35.324,98.115,34.153,98.115,33.271z"/>
	<path fill="#FFFFFF" d="M104.262,38.943c-0.018,0.288,0.209,1.404,1.432,1.404c0.942,0,1.798-0.702,1.798-2.358
		c0-1.207-0.454-2.251-1.624-2.251s-1.466,0.973-1.553,1.26l-2.531-0.071l0.279-7.437h7.384v2.053h-5.08l-0.157,3.115
		c0.384-0.343,0.96-0.9,2.304-0.9c1.955,0,3.596,1.477,3.596,3.997c0,2.143-1.222,4.556-4.346,4.556
		c-1.274,0-2.566-0.343-3.404-1.369c-0.611-0.756-0.664-1.53-0.681-1.998H104.262z"/>
</g>
<g>
	<path fill="#FFFFFF" d="M23.944,120.009c1.125-0.484,2.197-1.091,3.201-1.817h2.232v12.078h-2.613v-9.396
		c-0.502,0.381-1.505,1.003-2.82,1.54V120.009z"/>
	<path fill="#FFFFFF" d="M34.584,126.981c0.018,0.381,0.121,1.609,1.558,1.609c0.969,0,1.557-0.709,1.557-1.644
		c0-1.782-1.713-1.782-2.976-1.782v-2.024c1.211-0.035,2.993-0.069,2.993-1.8c0-0.951-0.709-1.437-1.488-1.437
		c-0.744,0-1.471,0.502-1.471,1.506H32.11c0.052-0.536,0.104-1.298,0.709-2.042c0.796-0.969,2.076-1.332,3.356-1.332
		c3.08,0,4.066,1.973,4.066,3.287c0,2.024-1.782,2.579-2.318,2.734c0.38,0.121,0.882,0.276,1.436,0.744
		c0.848,0.709,0.986,1.592,0.986,2.163c0,2.042-1.869,3.564-4.378,3.564c-0.865,0-2.128-0.19-2.907-0.813
		c-1.073-0.883-1.107-2.249-1.107-2.734H34.584z"/>
	<path fill="#FFFFFF" d="M47.283,121.186c-0.052-0.865-0.623-1.194-1.263-1.194c-1.73,0-1.782,2.146-1.817,3.392
		c0.433-0.398,1.107-0.969,2.371-0.969c1.679,0,3.461,1.193,3.461,3.824c0,1.332-0.363,2.301-1.28,3.148
		c-0.796,0.744-1.73,1.125-3.08,1.125c-4.17,0-4.17-4.049-4.17-5.485c0-2.422,0.312-4.932,1.956-6.143
		c1.055-0.796,2.318-0.848,2.786-0.848c1.817,0,3.547,0.935,3.599,3.149H47.283z M47.491,126.411c0-1.333-0.692-2.077-1.558-2.077
		c-0.433,0-1.748,0.26-1.748,2.129c0,1.488,0.796,2.111,1.644,2.111C46.573,128.574,47.491,128.055,47.491,126.411z"/>
</g>
<g>
	<path fill="#FFFFFF" d="M80.342,131.306c1.125-0.484,2.197-1.091,3.201-1.817h2.232v12.078h-2.613v-9.396
		c-0.502,0.381-1.505,1.003-2.82,1.54V131.306z"/>
	<path fill="#FFFFFF" d="M88.404,139.127l3.132-2.855c0.554-0.502,1.177-1.056,1.817-1.834c0.675-0.813,0.831-1.194,0.831-1.748
		c0-0.917-0.537-1.54-1.436-1.54c-1.384,0-1.505,1.419-1.523,1.766h-2.647c0-0.485,0-1.385,0.709-2.268
		c0.692-0.864,1.973-1.314,3.443-1.314c2.63,0,4.084,1.419,4.084,3.287c0,1.246-0.485,2.855-5.71,7.061
		c1.748-0.035,1.956-0.052,3.322-0.069c1.852-0.035,2.059-0.035,2.457-0.052v2.007h-8.479V139.127z"/>
	<path fill="#FFFFFF" d="M97.521,138.937v-2.336l4.845-7.112h2.579l-0.018,7.458h1.644v1.99h-1.644v2.63h-2.561v-2.63H97.521z
		 M99.458,136.998h3.045v-3.184c0-0.155,0.017-1.021,0.035-1.332L99.458,136.998z"/>
</g>
<g>
	<path fill="#FFFFFF" d="M145.875,179.867c0.018,0.381,0.121,1.609,1.557,1.609c0.969,0,1.558-0.709,1.558-1.644
		c0-1.782-1.713-1.782-2.976-1.782v-2.024c1.211-0.035,2.993-0.069,2.993-1.8c0-0.951-0.709-1.437-1.488-1.437
		c-0.744,0-1.471,0.502-1.471,1.506H143.4c0.052-0.536,0.104-1.298,0.709-2.042c0.796-0.969,2.077-1.332,3.357-1.332
		c3.08,0,4.066,1.973,4.066,3.287c0,2.025-1.782,2.578-2.318,2.734c0.38,0.121,0.882,0.276,1.436,0.744
		c0.848,0.709,0.986,1.592,0.986,2.163c0,2.042-1.869,3.564-4.378,3.564c-0.865,0-2.128-0.19-2.907-0.813
		c-1.073-0.883-1.107-2.249-1.107-2.734H145.875z"/>
	<path fill="#FFFFFF" d="M155.251,180.179c-0.017,0.277,0.208,1.35,1.419,1.35c0.935,0,1.782-0.675,1.782-2.267
		c0-1.159-0.45-2.163-1.609-2.163c-1.16,0-1.454,0.935-1.54,1.212l-2.509-0.069l0.277-7.146h7.319v1.973h-5.035l-0.156,2.993
		c0.381-0.328,0.952-0.865,2.284-0.865c1.938,0,3.564,1.419,3.564,3.842c0,2.059-1.211,4.378-4.309,4.378
		c-1.263,0-2.543-0.329-3.374-1.315c-0.606-0.727-0.658-1.471-0.675-1.921H155.251z"/>
</g>
<g>
	<path fill="#231815" d="M80.78,93.95v-1.227h3.295v-1.65c-1.262-0.438-1.907-1.183-1.907-2.059c0-1.416,1.654-2.468,4.782-2.468
		c3.141,0,4.795,1.066,4.795,2.482c0,0.876-0.645,1.606-1.893,2.044v1.65h3.268v1.227H80.78z M86.951,99.704
		c-3.141,0-4.922-1.022-4.922-2.438c0-1.432,1.781-2.425,4.922-2.425c3.155,0,4.908,0.993,4.908,2.425
		C91.858,98.682,90.105,99.704,86.951,99.704z M83.627,97.251c0,0.788,1.333,1.299,3.324,1.299c1.963,0,3.309-0.496,3.309-1.284
		c0-0.804-1.346-1.314-3.309-1.314C84.959,95.951,83.627,96.433,83.627,97.251z M86.951,87.599c-2.034,0-3.282,0.613-3.282,1.387
		c0,0.76,1.276,1.388,3.282,1.388c1.963,0,3.309-0.584,3.309-1.344C90.26,88.255,88.942,87.599,86.951,87.599z M88.437,91.365
		c-0.435,0.073-0.939,0.103-1.486,0.103c-0.533,0-1.024-0.029-1.458-0.103v1.358h2.945V91.365z"/>
	<path fill="#231815" d="M103.337,88.24v-1.62h1.402v7.521h-1.402v-2.045h-3.169c-0.603,0.745-1.585,1.241-2.749,1.241
		c-1.991,0-3.422-1.416-3.422-3.154c0-1.737,1.431-3.14,3.422-3.14c1.15,0,2.103,0.468,2.706,1.197H103.337z M97.419,88.284
		c-1.262,0-1.978,0.862-1.978,1.898c0,1.052,0.715,1.913,1.978,1.913c1.262,0,1.963-0.861,1.963-1.913
		C99.382,89.146,98.681,88.284,97.419,88.284z M103.337,99.47v-3.358H95.61v-1.227h9.115v4.585H103.337z M103.337,90.869v-1.401
		h-2.594c0.056,0.233,0.084,0.467,0.084,0.715c0,0.233-0.028,0.468-0.07,0.687H103.337z"/>
</g>
<g>
	<path fill="#231815" d="M90.723,106.141v-1.723h1.402v9.302h-1.402v-3.724h-3.099c-0.589,0.847-1.599,1.401-2.833,1.401
		c-1.991,0-3.408-1.46-3.408-3.271s1.417-3.286,3.408-3.286c1.178,0,2.146,0.512,2.749,1.3H90.723z M84.791,106.111
		c-1.248,0-1.963,0.905-1.963,2.016c0,1.095,0.715,2,1.963,2c1.276,0,1.977-0.905,1.977-2
		C86.768,107.017,86.067,106.111,84.791,106.111z M83.276,116.976v-4.22h1.388v2.993h7.769v1.227H83.276z M90.723,108.77v-1.402
		h-2.594c0.056,0.248,0.084,0.497,0.084,0.76c0,0.219-0.028,0.438-0.056,0.643H90.723z"/>
	<path fill="#231815" d="M99.985,111.777v5.49h-1.43v-5.49h-5.161v-1.227h8.694c0.252-0.847,0.631-2.862,0.715-4.191h-8.063v-1.227
		h9.662c0,0.526-0.463,4.045-0.842,5.418h2.174v1.227H99.985z"/>
</g>
<g>
	<path fill="#231815" d="M14.096,71.847c-1.051-0.745-2.678-2.308-3.057-3.607C10.59,69.7,9.034,71.423,7.771,72.24l-1.15-0.992
		c3.268-1.972,3.646-4.863,3.646-6.104V64.18H7.477v-1.271h7.152v1.271h-2.805v0.964c0,1.212,0.393,3.914,3.239,5.578L14.096,71.847
		z M17.602,61.552v5.066h1.837v1.329h-1.837v6.454h-1.402v-12.85H17.602z"/>
	<path fill="#231815" d="M25.364,72.036c-0.715-0.307-2.061-1.708-2.342-2.716c-0.266,1.153-1.781,2.497-2.636,2.979l-1.065-0.993
		c1.725-0.935,2.931-2.482,2.931-4.541v-0.628h-2.229v-1.256h5.959v1.256h-2.202v0.628c0,0.993,0.309,2.936,2.426,4.22
		L25.364,72.036z M21.27,63.625v-1.212h3.463v1.212H21.27z M27.103,73.817v-5.446h-1.921v-1.256h1.921v-5.271h1.36v11.974H27.103z
		 M29.711,74.401v-12.85h1.36v12.85H29.711z"/>
	<path fill="#231815" d="M31.948,68.487v-1.212h4.614v-2.453h1.43v2.453h6.296v1.212H31.948z M38.119,74.606
		c-3.141,0-4.908-1.081-4.908-2.6c0-1.504,1.767-2.585,4.894-2.585c3.155,0,4.922,1.081,4.922,2.585
		C43.026,73.525,41.273,74.606,38.119,74.606z M42.143,66.502h-1.43c0.028-0.103,0.504-2.001,0.631-3.198h-7.979v-1.227h9.578
		C42.928,63.172,42.521,65.319,42.143,66.502z M34.739,71.992c0,0.964,1.375,1.46,3.38,1.46c1.977,0,3.379-0.496,3.379-1.46
		c0-0.891-1.402-1.401-3.379-1.401C36.113,70.591,34.739,71.102,34.739,71.992z"/>
	<path fill="#231815" d="M44.563,68.823v-1.212h5.427v-1.431h-3.856v-4.206h9.143v1.212H47.55v1.782h7.867v1.212h-3.969v1.431h5.455
		v1.212H44.563z M50.733,74.636c-3.141,0-4.922-1.066-4.922-2.482c0-1.432,1.781-2.468,4.922-2.468c3.155,0,4.908,1.036,4.908,2.468
		C55.641,73.569,53.888,74.636,50.733,74.636z M47.41,72.139c0,0.788,1.333,1.343,3.324,1.343c1.963,0,3.309-0.54,3.309-1.328
		c0-0.804-1.346-1.358-3.309-1.358C48.742,70.795,47.41,71.32,47.41,72.139z"/>
	<path fill="#231815" d="M67.12,63.274v-1.723h1.402v9.302H67.12V67.13h-3.099c-0.589,0.847-1.599,1.401-2.833,1.401
		c-1.991,0-3.408-1.46-3.408-3.271s1.417-3.286,3.408-3.286c1.178,0,2.146,0.512,2.749,1.3H67.12z M61.188,63.245
		c-1.248,0-1.963,0.905-1.963,2.016c0,1.095,0.715,2,1.963,2c1.276,0,1.977-0.905,1.977-2C63.165,64.15,62.464,63.245,61.188,63.245
		z M59.673,74.109v-4.22h1.388v2.993h7.769v1.227H59.673z M67.12,65.903v-1.402h-2.594c0.056,0.248,0.084,0.497,0.084,0.76
		c0,0.219-0.028,0.438-0.056,0.643H67.12z"/>
	<path fill="#231815" d="M76.382,68.911v5.49h-1.43v-5.49h-5.161v-1.227h8.694c0.252-0.847,0.631-2.862,0.715-4.191h-8.063v-1.227
		H80.8c0,0.526-0.463,4.045-0.842,5.418h2.174v1.227H76.382z"/>
</g>
<g>
	<path fill="#231815" d="M146.687,137.999v4.818h-1.458v-4.818h-5.441v-1.227h12.34v1.227H146.687z M141.358,135.546l-0.855-1.008
		c3.898-0.76,4.712-2.993,4.712-3.913v-0.657h1.486v0.657c0,0.92,0.659,2.993,4.711,3.913l-0.855,1.008
		c-1.5-0.19-3.898-1.504-4.613-3.066C145.313,133.998,143.209,135.093,141.358,135.546z"/>
	<path fill="#231815" d="M157.338,137.182c-1.57,0.058-3.954,0.043-4.081,0.043v-6.527h6.268v1.212h-4.866v1.432h4.726v1.227h-4.726
		v1.431l2.58-0.015c1.276-0.043,2.847-0.146,3.59-0.277v1.212C160.073,137.035,158.544,137.138,157.338,137.182z M161.727,142.817
		v-3.022h-7.46v-1.227h8.862v4.249H161.727z M163.129,129.968v3.3h1.767v1.227h-1.767v3.373h-1.402v-7.899H163.129z"/>
</g>
<g>
	<path fill="#231815" d="M149.73,149.487v-1.723h1.402v9.302h-1.402v-3.724h-3.099c-0.589,0.847-1.599,1.401-2.833,1.401
		c-1.991,0-3.408-1.46-3.408-3.271s1.417-3.286,3.408-3.286c1.178,0,2.146,0.512,2.749,1.3H149.73z M143.798,149.458
		c-1.248,0-1.963,0.905-1.963,2.016c0,1.095,0.715,2,1.963,2c1.276,0,1.977-0.905,1.977-2
		C145.775,150.363,145.074,149.458,143.798,149.458z M142.284,160.322v-4.22h1.388v2.993h7.769v1.227H142.284z M149.73,152.116
		v-1.402h-2.594c0.056,0.248,0.084,0.497,0.084,0.76c0,0.219-0.028,0.438-0.056,0.643H149.73z"/>
	<path fill="#231815" d="M158.993,155.124v5.49h-1.43v-5.49h-5.161v-1.227h8.694c0.252-0.847,0.631-2.862,0.715-4.191h-8.063v-1.227
		h9.662c0,0.526-0.463,4.045-0.842,5.418h2.174v1.227H158.993z"/>
</g>
</svg>
