<?xml version="1.0" encoding="utf-8"?>
<!-- Generator: Adobe Illustrator 16.0.0, SVG Export Plug-In . SVG Version: 6.00 Build 0)  -->
<!DOCTYPE svg PUBLIC "-//W3C//DTD SVG 1.1//EN" "http://www.w3.org/Graphics/SVG/1.1/DTD/svg11.dtd">
<svg version="1.1" id="레이어_1" xmlns="http://www.w3.org/2000/svg" xmlns:xlink="http://www.w3.org/1999/xlink" x="0px"
	 y="0px" width="463.971px" height="326.647px" viewBox="0 0 463.971 326.647" enable-background="new 0 0 463.971 326.647"
	 xml:space="preserve">
<g>
	<rect y="42.098" fill="#FFFFFF" width="463.055" height="284.55"/>
	<g>
		<path fill="#9E9E9F" d="M5.86,23.27c0,0-5.858,0-5.858,6.514v27.274h463.053V29.784c0,0,0-6.514-5.86-6.514H5.86z"/>
		<path fill="#231815" d="M408.936,6.538c0-2.991,1.414-5.313,2.188-6.538h0.373c-1.308,2.338-1.894,4.493-1.894,6.538
			c0,2.033,0.586,4.188,1.894,6.526h-0.373C410.35,11.84,408.936,9.516,408.936,6.538"/>
		<path fill="#231815" d="M422.235,0.417V3.77h1.853v0.557h-1.853v4.995h-0.667V0.417H422.235z M415.166,8.486v3.34h7.469v0.557
			H414.5V8.486H415.166z M415.232,6.831h-2.08V1.405h5.869v0.557h-5.201v4.312h1.453c1.947,0,4.721-0.236,5.521-0.39V6.44
			C419.994,6.567,416.993,6.831,415.232,6.831"/>
		<path fill="#231815" d="M435.184,12.66h-0.666V0.417h0.666V12.66z M429.089,1.349c-1.562,0-2.442,1.03-2.442,2.047
			c0,1.014,0.881,2.044,2.442,2.044c1.574,0,2.454-1.03,2.454-2.044C431.543,2.378,430.663,1.349,429.089,1.349 M429.089,6.051
			c-1.827,0-3.094-1.279-3.094-2.656c0-1.378,1.267-2.658,3.094-2.658c1.826,0,3.095,1.28,3.095,2.658
			C432.184,4.772,430.915,6.051,429.089,6.051 M429.262,8.068v4.314h-0.667V8.083h-3.547V7.527h4.001c1.68,0,4.348-0.25,4.936-0.377
			v0.544C433.063,7.86,430.928,8.068,429.262,8.068"/>
	</g>
	<path fill="#231815" d="M442.094,3.229h1.092v1.098h-1.092V3.229z M442.081,9.292h1.094v1.1h-1.094V9.292z"/>
	<g>
		<path fill="#231815" d="M458.879,0.417h0.668v8.904h-0.668V4.953h-2.802V4.382h2.802V0.417z M452.211,8.625v3.201h7.801v0.557
			h-8.468V8.625H452.211z M450.209,1.391h5.59c-0.201,3.214-2.548,5.439-5.935,6.693l-0.44-0.503
			c3.039-0.931,5.549-3.199,5.586-5.633h-4.801V1.391z"/>
		<path fill="#231815" d="M463.971,6.538c0,2.978-1.412,5.302-2.199,6.526h-0.373c1.32-2.338,1.894-4.493,1.894-6.526
			c0-2.045-0.573-4.2-1.894-6.538h0.373C462.559,1.225,463.971,3.547,463.971,6.538"/>
	</g>
	<rect x="24.276" y="225.346" fill="#88C3CE" width="24.778" height="77.008"/>
	<rect x="62.909" y="254.682" fill="#88C3CE" width="24.779" height="47.672"/>
	<rect x="101.542" y="232.68" fill="#88C3CE" width="24.778" height="69.674"/>
	<rect x="140.175" y="210.678" fill="#88C3CE" width="24.778" height="91.676"/>
	<rect x="178.808" y="207.011" fill="#88C3CE" width="24.778" height="95.343"/>
	<rect x="217.441" y="199.677" fill="#88C3CE" width="24.778" height="102.677"/>
	<rect x="294.706" y="155.672" fill="#88C3CE" width="24.778" height="146.682"/>
	<rect x="333.339" y="111.667" fill="#88C3CE" width="24.778" height="190.687"/>
	<rect x="371.973" y="108" fill="#88C3CE" width="24.777" height="194.354"/>
	<rect x="410.605" y="108" fill="#88C3CE" width="24.777" height="194.354"/>
	<rect x="256.073" y="174.007" fill="#88C3CE" width="24.778" height="128.347"/>
	<g>
		<path fill="#FFFFFF" d="M167.283,33.177h1.525v13.977h-1.525V33.177z M158.104,44.725l-1.145-0.937
			c4.01-1.876,5.459-5.575,5.628-7.703h-4.819V34.75h6.571C164.324,38.054,162.344,42.692,158.104,44.725"/>
		<path fill="#FFFFFF" d="M171.148,38.165l-0.885-1.112c4.072-0.603,5.064-2.684,5.064-3.447v-0.46h1.6v0.46
			c0,0.763,0.762,2.559,5.061,3.447l-0.884,1.112c-1.921-0.254-4.208-1.509-4.986-2.811
			C175.479,36.704,172.978,38.054,171.148,38.165 M176.958,40.197v1.224h4.146v3.399h-8.293v0.968h8.628v1.207h-10.275v-3.384h8.31
			v-0.983h-8.31v-1.207h4.147v-1.224h-5.886v-1.255h13.417v1.255H176.958z"/>
		<path fill="#FFFFFF" d="M193.477,33.177h1.525v13.977h-1.525V33.177z M190.779,44.374c-1.174-0.809-2.912-2.477-3.325-3.923
			c-0.578,1.874-2.178,3.415-3.552,4.354l-1.249-1.081c3.078-1.812,3.963-4.336,3.963-6.64v-1.048h-3.034v-1.381h7.775v1.381h-3.047
			v1.048c0,2.256,0.944,4.574,3.521,6.068L190.779,44.374z"/>
		<path fill="#FFFFFF" d="M206.323,43.914v-1.525h-3.157v-1.27h3.157v-7.942h1.525v10.737H206.323z M198.441,35.577
			c0,0.508,0.64,1.27,2.103,1.27c1.495,0,2.104-0.762,2.104-1.27c0-0.542-0.609-1.335-2.118-1.335
			C199.035,34.242,198.441,35.035,198.441,35.577 M198.075,46.838v-3.527h1.525v2.192h8.584v1.335H198.075z M204.099,35.577
			c0,1.396-1.236,2.541-3.568,2.541c-2.333,0-3.569-1.16-3.569-2.541c0-1.351,1.251-2.542,3.569-2.542
			C202.909,33.035,204.099,34.209,204.099,35.577 M200.697,40.277v2.431h-1.525v-2.415h-3.308v-1.302h4.253
			c1.845,0,5.048-0.303,5.719-0.444v1.317C204.723,40.054,202.267,40.277,200.697,40.277"/>
		<path fill="#FFFFFF" d="M223.439,43.471v-2.924h-2.347v-1.35h2.347v-1.556h-2.043v-1.335h2.043v-3.129h1.511v10.294H223.439z
			 M217.129,38.529c-1.327,0-1.861,0.525-1.861,1.239c0,0.699,0.518,1.207,1.861,1.207c1.325,0,1.845-0.493,1.845-1.207
			S218.454,38.529,217.129,38.529 M215.177,46.838v-3.86h1.554v2.541h8.493v1.319H215.177z M215.024,33.114h4.163v1.253h-4.163
			V33.114z M213.59,39.785c0-1.35,1.312-2.382,3.523-2.382c2.316,0,3.506,1.032,3.506,2.382c0,1.286-1.203,2.415-3.521,2.415
			C214.886,42.199,213.59,41.056,213.59,39.785 M213.012,35.37h8.187v1.271h-8.187V35.37z"/>
		<path fill="#FFFFFF" d="M237.398,39.037v3.797h-1.522v-9.657h1.522v4.464h1.893v1.396H237.398z M232.507,46.201
			c2.026,0,3.308-0.349,3.338-1.047c0.017-0.716-1.312-1.05-3.338-1.05c-2.059,0-3.355,0.288-3.355,1.033
			C229.152,45.899,230.448,46.201,232.507,46.201 M228.435,38.434c0,0.493,0.824,0.716,2.027,0.716c1.205,0,2.029-0.239,2.029-0.716
			c0-0.508-0.824-0.778-2.029-0.778C229.259,37.656,228.435,37.895,228.435,38.434 M228.344,33.066h4.177v1.16h-4.177V33.066z
			 M237.613,45.154c0,1.317-1.783,2.287-5.106,2.287c-3.31,0-5.108-0.97-5.108-2.304c0-1.318,1.782-2.27,5.092-2.27
			C235.814,42.867,237.613,43.835,237.613,45.154 M226.27,34.909h8.294v1.176h-8.294V34.909z M230.555,42.246h-4.834v-1.271h3.934
			v-0.793c-1.678-0.144-2.821-0.811-2.821-1.748c0-1.096,1.51-1.874,3.628-1.874c2.136,0,3.614,0.763,3.614,1.889
			c0,0.906-1.083,1.574-2.729,1.717v0.858c0.975,0,3.05-0.175,4.025-0.318v1.206C234.443,42.04,232.673,42.246,230.555,42.246"/>
		<path fill="#FFFFFF" d="M243.034,47.87c-1.083-1.699-2.667-4.194-2.667-7.688c0-3.509,1.584-6.004,2.667-7.703h1.099
			c-1.616,2.859-2.226,5.305-2.226,7.703c0,2.382,0.609,4.829,2.226,7.688H243.034z"/>
		<path fill="#FFFFFF" d="M247.84,32.972h5.504v1.238h-5.504V32.972z M250.598,46.187c2.15,0,3.568-0.445,3.568-1.224
			c0-0.858-1.432-1.271-3.583-1.271c-2.165,0-3.597,0.367-3.597,1.239C246.986,45.693,248.418,46.187,250.598,46.187
			 M250.598,47.408c-3.414,0-5.35-1.048-5.35-2.462c0-1.414,1.936-2.462,5.35-2.462c3.432,0,5.338,1.048,5.338,2.462
			C255.936,46.36,254.029,47.408,250.598,47.408 M245.477,36.401v-1.238h10.245v1.238h-4.086c0.365,0.461,1.692,1.683,4.849,2.017
			l-0.885,1.176c-1.632-0.144-4.133-1.112-4.97-2.192c-0.519,0.873-3.231,2.161-5.002,2.192l-0.884-1.176
			c3.309-0.285,4.482-1.556,4.834-2.017H245.477z M243.89,41.817V40.5h5.901v-1.558h1.615V40.5h5.9v1.317H243.89z"/>
		<path fill="#FFFFFF" d="M300.025,43.295v-4.528h-2.789v-1.334h2.789v-4.257h1.525v10.119H300.025z M291.977,46.838v-4.354h1.525
			v3.019h8.415v1.334H291.977z M290.588,42.041l-0.945-1.065c3.065-0.73,5.52-3.191,5.674-5.527h-4.819v-1.335h6.647
			C297.083,37.721,294.553,40.865,290.588,42.041"/>
		<path fill="#FFFFFF" d="M304.534,40.182c0-2.398-0.627-4.844-2.243-7.703h1.114c1.082,1.699,2.667,4.194,2.667,7.703
			c0,3.494-1.585,5.989-2.667,7.688h-1.114C303.907,45.011,304.534,42.564,304.534,40.182"/>
		<path fill="#88C3CE" d="M402.674,79.421c2.459,0,4.455-2,4.455-4.468c0-2.467-1.996-4.465-4.455-4.465
			c-2.463,0-4.459,1.998-4.459,4.465C398.215,77.421,400.211,79.421,402.674,79.421"/>
		<path fill="#88C3CE" d="M424.6,83.378l-0.41-0.514l-7.16,5.151c-0.326-0.219-0.716-0.345-1.137-0.345h-4.062v-3.535l-0.038-0.404
			c-0.173-2.19-1.992-3.909-4.218-3.909h-9.78c-2.34,0-4.236,1.899-4.236,4.243l0.005,0.118v9.382c0,1.115,0.901,2.017,2.016,2.017
			c1.111,0,2.013-0.901,2.013-2.017v-8.31h0.496v11.201l0.002,0.023v12.139c0,0.981,0.959,1.771,2.144,1.771
			c1.188,0,2.146-0.79,2.146-1.771V97.986l0.34,0.007l0.336-0.007v10.633c0,0.981,0.959,1.771,2.145,1.771s2.143-0.79,2.143-1.771
			V96.537l0.015-0.08v-4.683v-4.087v-2.432h0.448v2.415v4.123h4.026h4.062c1.137,0,2.056-0.926,2.056-2.063
			c0-0.3-0.063-0.582-0.181-0.838L424.6,83.378z M402.895,90.325l-0.051,0.048l-0.047-0.048l-1.367-1.37l1.095-7.881l-0.004-0.138
			h0.021h0.605h0.023l-0.004,0.138l1.094,7.881L402.895,90.325z"/>
	</g>
	<polygon fill="#88C3CE" points="420.18,76.771 420.18,84.203 421.277,83.301 421.277,77.648 434.284,72.148 434.284,98.05 
		421.277,93.404 421.277,87.549 420.18,88.56 420.18,94.329 422.883,95.293 422.883,107.666 424.141,107.666 424.141,95.743 
		430.43,97.99 430.43,110.522 431.689,110.522 431.689,98.438 435.383,99.757 435.383,70.344 	"/>
	<g>
		<path fill="#231815" d="M453.106,308.99h-3.868v-0.557h3.868v-1.585h0.665v8.904h-0.665v-4.605h-3.868v-0.557h3.868V308.99z
			 M446.438,315.057v3.201h7.736v0.556h-8.404v-3.757H446.438z M446.158,313.818h-1.789v-6.373h0.668v5.816h1.348
			c1.824,0,4.134-0.293,5.135-0.487v0.558C450.678,313.525,448.851,313.818,446.158,313.818"/>
		<line fill="none" stroke="#9E9E9F" stroke-width="0.993" x1="0" y1="302.361" x2="463.057" y2="302.361"/>
	</g>
	<g>
		<path fill="#231815" d="M30.294,250.218v-1.62l3.205-6.23c0.288-0.54,0.522-1.351,0.522-2.286c0-0.738-0.396-1.116-0.918-1.116
			c-0.522,0-0.955,0.359-0.955,1.098v0.828H30.24v-0.756c0-1.026,0.288-1.639,0.792-2.125c0.504-0.485,1.296-0.756,2.071-0.756
			c0.774,0,1.458,0.198,1.98,0.685c0.504,0.468,0.846,1.188,0.846,2.214c0,0.937-0.288,2.017-0.702,2.81l-2.899,5.545h3.601v1.711
			H30.294z"/>
		<path fill="#231815" d="M39.853,250.218v-10.587l-1.927,1.477v-2.161l1.927-1.549h1.909v12.82H39.853z"/>
	</g>
	<g>
		<path fill="#231815" d="M71.263,279.504v-10.587l-1.927,1.477v-2.161l1.927-1.548h1.909v12.819H71.263z"/>
		<path fill="#231815" d="M80.947,278.91c-0.504,0.485-1.261,0.737-2.053,0.737s-1.566-0.27-2.071-0.756
			c-0.504-0.486-0.792-1.099-0.792-2.125v-0.756h1.909v0.828c0,0.738,0.432,1.099,0.954,1.099c0.306,0,0.54-0.145,0.684-0.324
			c0.27-0.342,0.306-1.099,0.306-1.891c0-0.864-0.018-1.513-0.288-1.872c-0.162-0.217-0.396-0.324-0.72-0.324h-0.63v-1.603h0.63
			c0.27,0,0.468-0.09,0.612-0.252c0.288-0.324,0.288-0.954,0.288-1.621c0-0.647-0.018-1.206-0.252-1.512
			c-0.144-0.181-0.342-0.288-0.63-0.288c-0.486,0-0.864,0.342-0.864,1.025v0.9h-1.909v-0.773c0-0.99,0.288-1.639,0.792-2.125
			c0.504-0.486,1.188-0.738,1.98-0.738c0.846,0,1.513,0.271,1.962,0.721c0.576,0.576,0.829,1.404,0.829,2.664
			c0,0.864-0.036,1.477-0.324,2.035c-0.162,0.306-0.396,0.558-0.702,0.756c0.306,0.216,0.576,0.468,0.738,0.774
			c0.342,0.612,0.396,1.261,0.396,2.358C81.793,277.217,81.757,278.117,80.947,278.91z"/>
	</g>
	<g>
		<path fill="#231815" d="M109.891,257.327V246.74l-1.927,1.477v-2.161l1.927-1.549h1.909v12.82H109.891z"/>
		<path fill="#231815" d="M119.899,251.421l-2.251,5.906h-1.98l2.106-5.186c-0.216,0.162-0.504,0.216-0.774,0.216
			c-0.685,0-1.296-0.252-1.71-0.792c-0.468-0.594-0.648-1.278-0.648-3.169c0-1.711,0.216-2.413,0.63-3.007
			c0.504-0.721,1.332-1.026,2.269-1.026c1.026,0,1.8,0.378,2.25,1.026c0.504,0.72,0.63,1.458,0.63,3.007
			C120.421,249.549,120.205,250.593,119.899,251.421z M118.225,246.397c-0.162-0.216-0.414-0.323-0.684-0.323
			c-0.288,0-0.54,0.107-0.702,0.323c-0.306,0.396-0.288,1.243-0.288,2.017c0,0.774-0.018,1.657,0.288,2.053
			c0.162,0.217,0.432,0.324,0.702,0.324s0.522-0.107,0.684-0.324c0.306-0.396,0.288-1.278,0.288-2.053
			C118.513,247.641,118.531,246.812,118.225,246.397z"/>
	</g>
	<g>
		<path fill="#231815" d="M146.178,235.332v-1.62l3.205-6.23c0.288-0.54,0.522-1.351,0.522-2.286c0-0.738-0.396-1.116-0.918-1.116
			c-0.522,0-0.955,0.359-0.955,1.098v0.828h-1.908v-0.756c0-1.026,0.288-1.639,0.792-2.125c0.504-0.485,1.296-0.756,2.071-0.756
			c0.774,0,1.458,0.198,1.98,0.685c0.504,0.468,0.846,1.188,0.846,2.214c0,0.937-0.288,2.017-0.702,2.81l-2.899,5.545h3.601v1.711
			H146.178z"/>
		<path fill="#231815" d="M158.203,234.684c-0.504,0.505-1.243,0.792-2.035,0.792c-0.792,0-1.548-0.252-2.053-0.737
			c-0.504-0.486-0.81-1.117-0.81-2.144v-0.63h1.908v0.883c0,0.773,0.415,1.116,0.955,1.116c0.306,0,0.522-0.09,0.702-0.343
			c0.288-0.378,0.288-1.368,0.288-2.431c0-1.062,0-1.872-0.252-2.269c-0.162-0.27-0.432-0.396-0.738-0.396
			c-0.54,0-0.955,0.396-0.955,1.098v0.271h-1.818v-7.382h5.528v1.71h-3.781v3.439c0.18-0.234,0.414-0.469,0.666-0.612
			c0.27-0.145,0.594-0.234,0.918-0.234c0.792,0,1.314,0.252,1.729,0.774c0.54,0.666,0.612,1.854,0.612,3.421
			C159.067,232.703,159.049,233.838,158.203,234.684z"/>
	</g>
	<g>
		<path fill="#231815" d="M184.806,231.659v-1.62l3.205-6.23c0.288-0.54,0.522-1.351,0.522-2.286c0-0.738-0.396-1.116-0.918-1.116
			c-0.522,0-0.955,0.359-0.955,1.098v0.828h-1.908v-0.756c0-1.026,0.288-1.639,0.792-2.125c0.504-0.485,1.296-0.756,2.071-0.756
			c0.774,0,1.458,0.198,1.98,0.685c0.504,0.468,0.846,1.188,0.846,2.214c0,0.937-0.288,2.017-0.702,2.81l-2.899,5.545h3.601v1.711
			H184.806z"/>
		<path fill="#231815" d="M197.065,230.777c-0.504,0.72-1.35,1.026-2.287,1.026c-1.026,0-1.783-0.379-2.232-1.026
			c-0.504-0.721-0.648-1.459-0.648-3.007c0-1.152,0.216-2.197,0.522-3.025l2.251-5.906h1.98l-2.106,5.186
			c0.216-0.161,0.522-0.216,0.792-0.216c0.684,0,1.278,0.252,1.692,0.792c0.468,0.595,0.648,1.279,0.648,3.17
			C197.677,229.48,197.479,230.183,197.065,230.777z M195.48,225.699c-0.162-0.216-0.414-0.324-0.684-0.324s-0.54,0.108-0.702,0.324
			c-0.306,0.396-0.288,1.278-0.288,2.053s-0.018,1.603,0.288,2.017c0.162,0.216,0.432,0.324,0.702,0.324
			c0.288,0,0.522-0.108,0.684-0.324c0.306-0.396,0.288-1.242,0.288-2.017S195.787,226.096,195.48,225.699z"/>
	</g>
	<g>
		<path fill="#231815" d="M223.434,224.334v-1.62l3.205-6.23c0.288-0.54,0.522-1.351,0.522-2.286c0-0.738-0.396-1.116-0.918-1.116
			c-0.522,0-0.955,0.359-0.955,1.098v0.828h-1.909v-0.756c0-1.026,0.288-1.639,0.792-2.125c0.504-0.485,1.296-0.756,2.071-0.756
			c0.774,0,1.458,0.198,1.98,0.685c0.504,0.468,0.846,1.188,0.846,2.214c0,0.937-0.288,2.017-0.702,2.81l-2.899,5.545h3.601v1.711
			H223.434z"/>
		<path fill="#231815" d="M235.459,223.722c-0.504,0.504-1.26,0.756-2.034,0.756s-1.548-0.252-2.053-0.756
			c-0.756-0.756-0.846-1.603-0.846-3.007c0-1.08,0.072-1.71,0.378-2.269c0.162-0.324,0.432-0.576,0.756-0.811
			c-0.306-0.216-0.54-0.486-0.702-0.792c-0.288-0.559-0.342-1.116-0.342-1.999c0-1.242,0.18-2.088,0.829-2.736
			c0.504-0.504,1.188-0.738,1.962-0.738c0.775,0,1.477,0.234,1.98,0.738c0.648,0.648,0.829,1.494,0.829,2.736
			c0,0.883-0.054,1.44-0.343,1.999c-0.162,0.306-0.396,0.576-0.701,0.792c0.323,0.234,0.576,0.486,0.756,0.811
			c0.306,0.559,0.378,1.188,0.378,2.269C236.306,222.119,236.216,222.966,235.459,223.722z M234.109,218.734
			c-0.162-0.198-0.414-0.306-0.685-0.306s-0.54,0.107-0.702,0.306c-0.306,0.378-0.288,1.08-0.288,1.891c0,0.738,0,1.458,0.288,1.837
			c0.162,0.197,0.432,0.306,0.702,0.306s0.522-0.108,0.685-0.306c0.287-0.36,0.287-1.099,0.287-1.837
			C234.396,219.814,234.415,219.112,234.109,218.734z M234.037,213.333c-0.145-0.181-0.36-0.252-0.612-0.252
			s-0.486,0.071-0.63,0.252c-0.27,0.324-0.27,0.99-0.27,1.603c0,0.63-0.018,1.35,0.324,1.674c0.144,0.145,0.342,0.217,0.576,0.217
			c0.233,0,0.433-0.072,0.576-0.217c0.342-0.324,0.306-1.044,0.306-1.674C234.307,214.323,234.307,213.657,234.037,213.333z"/>
	</g>
	<g>
		<path fill="#231815" d="M266.869,198.072c-0.504,0.485-1.26,0.737-2.053,0.737c-0.792,0-1.566-0.27-2.07-0.756
			s-0.792-1.099-0.792-2.125v-0.756h1.909v0.828c0,0.738,0.432,1.099,0.953,1.099c0.307,0,0.541-0.145,0.685-0.324
			c0.271-0.342,0.306-1.099,0.306-1.891c0-0.864-0.018-1.513-0.287-1.872c-0.162-0.217-0.396-0.324-0.721-0.324h-0.63v-1.603h0.63
			c0.27,0,0.469-0.09,0.612-0.252c0.288-0.324,0.288-0.954,0.288-1.621c0-0.647-0.018-1.206-0.252-1.512
			c-0.145-0.181-0.342-0.288-0.631-0.288c-0.486,0-0.863,0.342-0.863,1.025v0.9h-1.909v-0.773c0-0.99,0.288-1.639,0.792-2.125
			s1.188-0.738,1.98-0.738c0.847,0,1.513,0.271,1.963,0.721c0.576,0.576,0.828,1.404,0.828,2.664c0,0.864-0.035,1.477-0.324,2.035
			c-0.162,0.306-0.396,0.558-0.701,0.756c0.306,0.216,0.576,0.468,0.738,0.774c0.342,0.612,0.396,1.261,0.396,2.358
			C267.716,196.379,267.68,197.279,266.869,198.072z"/>
		<path fill="#231815" d="M274.088,198.018c-0.505,0.505-1.243,0.792-2.035,0.792c-0.793,0-1.549-0.252-2.053-0.737
			c-0.504-0.486-0.811-1.117-0.811-2.144v-0.63h1.909v0.883c0,0.773,0.414,1.116,0.954,1.116c0.307,0,0.521-0.09,0.702-0.343
			c0.288-0.378,0.288-1.368,0.288-2.431c0-1.062,0-1.872-0.252-2.269c-0.162-0.27-0.432-0.396-0.738-0.396
			c-0.54,0-0.954,0.396-0.954,1.098v0.271h-1.819v-7.382h5.528v1.71h-3.781v3.439c0.181-0.234,0.414-0.469,0.666-0.612
			c0.271-0.145,0.595-0.234,0.919-0.234c0.792,0,1.314,0.252,1.729,0.774c0.539,0.666,0.611,1.854,0.611,3.421
			C274.951,196.037,274.934,197.172,274.088,198.018z"/>
	</g>
	<g>
		<path fill="#231815" d="M305.75,178.324v1.999h-1.909v-1.999h-3.565v-1.71l3.295-9.111h1.855l-3.188,9.111h1.603v-2.287h1.909
			v2.287h0.882v1.71H305.75z"/>
		<path fill="#231815" d="M312.715,179.711c-0.504,0.486-1.242,0.757-2.034,0.757s-1.548-0.271-2.053-0.757
			c-0.504-0.486-0.81-1.099-0.81-2.124v-7.347c0-1.026,0.306-1.639,0.81-2.125c0.505-0.485,1.261-0.756,2.053-0.756
			s1.53,0.271,2.034,0.756c0.504,0.486,0.811,1.099,0.811,2.125v7.347C313.525,178.612,313.219,179.225,312.715,179.711z
			 M311.617,170.168c0-0.738-0.414-1.098-0.937-1.098s-0.954,0.359-0.954,1.098v7.49c0,0.738,0.432,1.099,0.954,1.099
			s0.937-0.36,0.937-1.099V170.168z"/>
	</g>
	<g>
		<path fill="#231815" d="M344.125,135.665c-0.504,0.504-1.242,0.793-2.034,0.793s-1.548-0.253-2.053-0.738
			c-0.504-0.486-0.81-1.117-0.81-2.143v-0.631h1.908v0.883c0,0.773,0.414,1.116,0.954,1.116c0.306,0,0.522-0.09,0.702-0.343
			c0.288-0.378,0.288-1.368,0.288-2.431c0-1.062,0-1.872-0.252-2.269c-0.162-0.27-0.433-0.396-0.738-0.396
			c-0.54,0-0.954,0.396-0.954,1.098v0.271h-1.818v-7.383h5.527v1.711h-3.781v3.439c0.18-0.234,0.414-0.469,0.666-0.612
			c0.271-0.145,0.594-0.234,0.918-0.234c0.793,0,1.314,0.252,1.729,0.774c0.541,0.666,0.613,1.854,0.613,3.421
			C344.99,133.685,344.972,134.819,344.125,135.665z"/>
		<path fill="#231815" d="M346.535,136.313v-1.62l3.205-6.23c0.289-0.54,0.522-1.351,0.522-2.286c0-0.738-0.396-1.116-0.918-1.116
			s-0.954,0.359-0.954,1.098v0.828h-1.909v-0.756c0-1.026,0.288-1.639,0.792-2.125c0.505-0.485,1.297-0.756,2.071-0.756
			s1.458,0.198,1.98,0.685c0.504,0.468,0.847,1.188,0.847,2.214c0,0.937-0.289,2.017-0.703,2.81l-2.898,5.545h3.602v1.711H346.535z"
			/>
	</g>
	<g>
		<path fill="#231815" d="M382.754,131.993c-0.505,0.504-1.243,0.793-2.035,0.793c-0.793,0-1.549-0.253-2.053-0.738
			c-0.504-0.486-0.811-1.117-0.811-2.143v-0.631h1.909v0.883c0,0.773,0.414,1.116,0.954,1.116c0.307,0,0.521-0.09,0.702-0.343
			c0.288-0.378,0.288-1.368,0.288-2.431c0-1.062,0-1.872-0.252-2.269c-0.162-0.27-0.432-0.396-0.738-0.396
			c-0.54,0-0.954,0.396-0.954,1.098v0.271h-1.819v-7.383h5.528v1.711h-3.781v3.439c0.181-0.234,0.414-0.469,0.666-0.612
			c0.271-0.145,0.595-0.234,0.919-0.234c0.792,0,1.314,0.252,1.729,0.774c0.539,0.666,0.611,1.854,0.611,3.421
			C383.617,130.013,383.6,131.147,382.754,131.993z"/>
		<path fill="#231815" d="M389.971,132.048c-0.504,0.485-1.26,0.738-2.053,0.738c-0.792,0-1.566-0.271-2.07-0.757
			s-0.792-1.099-0.792-2.124v-0.757h1.909v0.828c0,0.738,0.432,1.099,0.953,1.099c0.307,0,0.541-0.145,0.685-0.324
			c0.271-0.342,0.306-1.099,0.306-1.891c0-0.864-0.018-1.513-0.287-1.872c-0.162-0.217-0.396-0.324-0.721-0.324h-0.63v-1.603h0.63
			c0.27,0,0.469-0.09,0.612-0.252c0.288-0.324,0.288-0.955,0.288-1.621c0-0.647-0.018-1.206-0.252-1.512
			c-0.145-0.181-0.342-0.288-0.631-0.288c-0.486,0-0.863,0.342-0.863,1.026v0.899h-1.909v-0.773c0-0.991,0.288-1.639,0.792-2.125
			s1.188-0.738,1.98-0.738c0.847,0,1.513,0.271,1.963,0.72c0.576,0.576,0.828,1.405,0.828,2.665c0,0.864-0.035,1.477-0.324,2.035
			c-0.162,0.306-0.396,0.558-0.701,0.756c0.306,0.216,0.576,0.468,0.738,0.774c0.342,0.612,0.396,1.26,0.396,2.358
			C390.817,130.354,390.781,131.255,389.971,132.048z"/>
	</g>
	<g>
		<path fill="#231815" d="M421.381,131.993c-0.504,0.504-1.242,0.793-2.034,0.793s-1.548-0.253-2.053-0.738
			c-0.504-0.486-0.81-1.117-0.81-2.143v-0.631h1.908v0.883c0,0.773,0.414,1.116,0.954,1.116c0.306,0,0.522-0.09,0.702-0.343
			c0.288-0.378,0.288-1.368,0.288-2.431c0-1.062,0-1.872-0.252-2.269c-0.162-0.27-0.433-0.396-0.738-0.396
			c-0.54,0-0.954,0.396-0.954,1.098v0.271h-1.818v-7.383h5.527v1.711h-3.781v3.439c0.18-0.234,0.414-0.469,0.666-0.612
			c0.271-0.145,0.594-0.234,0.918-0.234c0.793,0,1.314,0.252,1.729,0.774c0.541,0.666,0.613,1.854,0.613,3.421
			C422.246,130.013,422.228,131.147,421.381,131.993z"/>
		<path fill="#231815" d="M428.6,132.048c-0.505,0.485-1.261,0.738-2.053,0.738c-0.793,0-1.566-0.271-2.071-0.757
			c-0.504-0.486-0.792-1.099-0.792-2.124v-0.757h1.908v0.828c0,0.738,0.433,1.099,0.955,1.099c0.306,0,0.539-0.145,0.684-0.324
			c0.27-0.342,0.307-1.099,0.307-1.891c0-0.864-0.019-1.513-0.289-1.872c-0.162-0.217-0.396-0.324-0.72-0.324h-0.63v-1.603h0.63
			c0.271,0,0.468-0.09,0.612-0.252c0.288-0.324,0.288-0.955,0.288-1.621c0-0.647-0.019-1.206-0.252-1.512
			c-0.144-0.181-0.343-0.288-0.63-0.288c-0.486,0-0.865,0.342-0.865,1.026v0.899h-1.908v-0.773c0-0.991,0.288-1.639,0.793-2.125
			c0.504-0.486,1.188-0.738,1.98-0.738c0.846,0,1.512,0.271,1.962,0.72c0.576,0.576,0.829,1.405,0.829,2.665
			c0,0.864-0.037,1.477-0.324,2.035c-0.162,0.306-0.396,0.558-0.703,0.756c0.307,0.216,0.576,0.468,0.738,0.774
			c0.342,0.612,0.396,1.26,0.396,2.358C429.445,130.354,429.409,131.255,428.6,132.048z"/>
	</g>
	<g>
		<path fill="#231815" d="M65.026,317.272v-0.768l3.37-4.281c0.324-0.42,0.48-0.792,0.48-1.26c0-0.924-0.552-1.535-1.487-1.535
			c-0.792,0-1.487,0.443-1.487,1.547h-0.863c0-1.343,0.923-2.314,2.351-2.314c1.403,0,2.351,0.899,2.351,2.303
			c0,0.684-0.216,1.127-0.684,1.728l-2.986,3.813h3.67v0.768H65.026z"/>
		<path fill="#231815" d="M72.657,317.345c-1.332,0-2.339-0.936-2.339-2.351v-3.982c0-1.415,1.007-2.351,2.339-2.351
			c1.331,0,2.338,0.936,2.338,2.351v3.982C74.995,316.409,73.988,317.345,72.657,317.345z M74.132,311.06
			c0-0.936-0.528-1.631-1.475-1.631c-0.948,0-1.475,0.695-1.475,1.631v3.886c0,0.936,0.527,1.632,1.475,1.632
			c0.947,0,1.475-0.696,1.475-1.632V311.06z"/>
		<path fill="#231815" d="M77.937,317.272v-7.58l-1.595,1.403v-0.983l1.595-1.379H78.8v8.539H77.937z"/>
		<path fill="#231815" d="M83.252,317.272v-7.58l-1.595,1.403v-0.983l1.595-1.379h0.864v8.539H83.252z"/>
	</g>
	<g>
		<path fill="#231815" d="M103.654,317.272v-0.768l3.37-4.281c0.324-0.42,0.48-0.792,0.48-1.26c0-0.924-0.552-1.535-1.487-1.535
			c-0.792,0-1.487,0.443-1.487,1.547h-0.863c0-1.343,0.923-2.314,2.351-2.314c1.403,0,2.351,0.899,2.351,2.303
			c0,0.684-0.216,1.127-0.684,1.728l-2.986,3.813h3.67v0.768H103.654z"/>
		<path fill="#231815" d="M111.285,317.345c-1.332,0-2.339-0.936-2.339-2.351v-3.982c0-1.415,1.007-2.351,2.339-2.351
			c1.331,0,2.338,0.936,2.338,2.351v3.982C113.623,316.409,112.616,317.345,111.285,317.345z M112.76,311.06
			c0-0.936-0.528-1.631-1.475-1.631c-0.948,0-1.475,0.695-1.475,1.631v3.886c0,0.936,0.527,1.632,1.475,1.632
			c0.947,0,1.475-0.696,1.475-1.632V311.06z"/>
		<path fill="#231815" d="M116.564,317.272v-7.58l-1.595,1.403v-0.983l1.595-1.379h0.864v8.539H116.564z"/>
		<path fill="#231815" d="M119.602,317.272v-0.768l3.37-4.281c0.324-0.42,0.48-0.792,0.48-1.26c0-0.924-0.552-1.535-1.487-1.535
			c-0.792,0-1.487,0.443-1.487,1.547h-0.863c0-1.343,0.923-2.314,2.351-2.314c1.403,0,2.351,0.899,2.351,2.303
			c0,0.684-0.216,1.127-0.684,1.728l-2.986,3.813h3.67v0.768H119.602z"/>
	</g>
	<g>
		<path fill="#231815" d="M142.282,317.272v-0.768l3.37-4.281c0.324-0.42,0.48-0.792,0.48-1.26c0-0.924-0.552-1.535-1.487-1.535
			c-0.792,0-1.487,0.443-1.487,1.547h-0.863c0-1.343,0.923-2.314,2.351-2.314c1.403,0,2.351,0.899,2.351,2.303
			c0,0.684-0.216,1.127-0.684,1.728l-2.986,3.813h3.67v0.768H142.282z"/>
		<path fill="#231815" d="M149.913,317.345c-1.332,0-2.339-0.936-2.339-2.351v-3.982c0-1.415,1.007-2.351,2.339-2.351
			c1.331,0,2.338,0.936,2.338,2.351v3.982C152.251,316.409,151.244,317.345,149.913,317.345z M151.388,311.06
			c0-0.936-0.528-1.631-1.475-1.631c-0.948,0-1.475,0.695-1.475,1.631v3.886c0,0.936,0.527,1.632,1.475,1.632
			c0.947,0,1.475-0.696,1.475-1.632V311.06z"/>
		<path fill="#231815" d="M155.192,317.272v-7.58l-1.595,1.403v-0.983l1.595-1.379h0.864v8.539H155.192z"/>
		<path fill="#231815" d="M160.424,317.356c-1.343,0-2.435-0.708-2.506-2.255h0.863c0.072,1.067,0.828,1.487,1.643,1.487
			c0.923,0,1.643-0.611,1.643-1.655c0-1.031-0.516-1.655-1.679-1.655h-0.18v-0.755h0.18c1.043,0,1.523-0.588,1.523-1.548
			c0-1.02-0.66-1.559-1.487-1.559c-0.899,0-1.451,0.552-1.535,1.427h-0.863c0.096-1.379,1.103-2.194,2.398-2.194
			c1.391,0,2.351,0.923,2.351,2.314c0,0.899-0.384,1.547-1.151,1.895c0.864,0.324,1.308,1.02,1.308,2.087
			C162.931,316.517,161.815,317.356,160.424,317.356z"/>
	</g>
	<g>
		<path fill="#231815" d="M180.91,317.272v-0.768l3.37-4.281c0.324-0.42,0.48-0.792,0.48-1.26c0-0.924-0.552-1.535-1.487-1.535
			c-0.792,0-1.487,0.443-1.487,1.547h-0.863c0-1.343,0.923-2.314,2.351-2.314c1.403,0,2.351,0.899,2.351,2.303
			c0,0.684-0.216,1.127-0.684,1.728l-2.986,3.813h3.67v0.768H180.91z"/>
		<path fill="#231815" d="M188.541,317.345c-1.332,0-2.339-0.936-2.339-2.351v-3.982c0-1.415,1.007-2.351,2.339-2.351
			c1.331,0,2.339,0.936,2.339,2.351v3.982C190.88,316.409,189.872,317.345,188.541,317.345z M190.016,311.06
			c0-0.936-0.528-1.631-1.475-1.631c-0.948,0-1.475,0.695-1.475,1.631v3.886c0,0.936,0.527,1.632,1.475,1.632
			c0.947,0,1.475-0.696,1.475-1.632V311.06z"/>
		<path fill="#231815" d="M193.821,317.272v-7.58l-1.595,1.403v-0.983l1.595-1.379h0.864v8.539H193.821z"/>
		<path fill="#231815" d="M200.78,315.917v1.355h-0.852v-1.355h-3.406v-0.779l3.082-6.404h0.923l-3.082,6.404h2.482v-2.423h0.852
			v2.423h1.043v0.779H200.78z"/>
	</g>
	<g>
		<path fill="#231815" d="M219.538,317.272v-0.768l3.37-4.281c0.324-0.42,0.48-0.792,0.48-1.26c0-0.924-0.552-1.535-1.487-1.535
			c-0.792,0-1.487,0.443-1.487,1.547h-0.863c0-1.343,0.923-2.314,2.351-2.314c1.403,0,2.351,0.899,2.351,2.303
			c0,0.684-0.216,1.127-0.684,1.728l-2.986,3.813h3.67v0.768H219.538z"/>
		<path fill="#231815" d="M227.169,317.345c-1.332,0-2.339-0.936-2.339-2.351v-3.982c0-1.415,1.007-2.351,2.339-2.351
			c1.331,0,2.339,0.936,2.339,2.351v3.982C229.508,316.409,228.5,317.345,227.169,317.345z M228.644,311.06
			c0-0.936-0.528-1.631-1.475-1.631c-0.948,0-1.475,0.695-1.475,1.631v3.886c0,0.936,0.527,1.632,1.475,1.632
			c0.947,0,1.475-0.696,1.475-1.632V311.06z"/>
		<path fill="#231815" d="M232.449,317.272v-7.58l-1.595,1.403v-0.983l1.595-1.379h0.864v8.539H232.449z"/>
		<path fill="#231815" d="M239.527,316.721c-0.396,0.396-0.947,0.636-1.703,0.636c-0.743,0-1.343-0.24-1.715-0.611
			c-0.371-0.384-0.551-0.876-0.6-1.487h0.863c0.108,0.852,0.553,1.331,1.451,1.331c0.42,0,0.805-0.144,1.056-0.396
			c0.444-0.444,0.468-1.128,0.468-1.739c0-1.044-0.203-2.075-1.439-2.075c-0.743,0-1.247,0.336-1.415,0.84h-0.779v-4.485h4.317
			v0.768h-3.538v2.71c0.336-0.371,0.864-0.587,1.535-0.587c0.636,0,1.14,0.203,1.476,0.539c0.623,0.624,0.707,1.487,0.707,2.291
			C240.211,315.306,240.14,316.109,239.527,316.721z"/>
	</g>
	<g>
		<path fill="#231815" d="M258.166,317.272v-0.768l3.37-4.281c0.324-0.42,0.479-0.792,0.479-1.26c0-0.924-0.551-1.535-1.486-1.535
			c-0.792,0-1.488,0.443-1.488,1.547h-0.863c0-1.343,0.924-2.314,2.352-2.314c1.402,0,2.35,0.899,2.35,2.303
			c0,0.684-0.215,1.127-0.684,1.728l-2.986,3.813h3.67v0.768H258.166z"/>
		<path fill="#231815" d="M265.797,317.345c-1.332,0-2.339-0.936-2.339-2.351v-3.982c0-1.415,1.007-2.351,2.339-2.351
			c1.331,0,2.339,0.936,2.339,2.351v3.982C268.136,316.409,267.128,317.345,265.797,317.345z M267.271,311.06
			c0-0.936-0.527-1.631-1.475-1.631s-1.475,0.695-1.475,1.631v3.886c0,0.936,0.527,1.632,1.475,1.632s1.475-0.696,1.475-1.632
			V311.06z"/>
		<path fill="#231815" d="M271.076,317.272v-7.58l-1.595,1.403v-0.983l1.595-1.379h0.864v8.539H271.076z"/>
		<path fill="#231815" d="M276.453,317.345c-1.451,0-2.375-0.983-2.375-2.459c0-0.611,0.18-1.199,0.539-1.919l2.1-4.233h0.887
			l-1.906,3.838c0.264-0.12,0.563-0.18,0.899-0.18c1.331,0,2.219,1.019,2.219,2.422
			C278.815,316.265,277.904,317.345,276.453,317.345z M276.44,313.123c-0.911,0-1.499,0.671-1.499,1.727
			c0,1.044,0.588,1.728,1.499,1.728s1.511-0.684,1.511-1.728C277.951,313.902,277.424,313.123,276.44,313.123z"/>
	</g>
	<g>
		<path fill="#231815" d="M296.794,317.272v-0.768l3.37-4.281c0.324-0.42,0.48-0.792,0.48-1.26c0-0.924-0.553-1.535-1.488-1.535
			c-0.791,0-1.486,0.443-1.486,1.547h-0.863c0-1.343,0.923-2.314,2.35-2.314c1.404,0,2.352,0.899,2.352,2.303
			c0,0.684-0.217,1.127-0.684,1.728l-2.986,3.813h3.67v0.768H296.794z"/>
		<path fill="#231815" d="M304.425,317.345c-1.331,0-2.339-0.936-2.339-2.351v-3.982c0-1.415,1.008-2.351,2.339-2.351
			s2.339,0.936,2.339,2.351v3.982C306.764,316.409,305.756,317.345,304.425,317.345z M305.9,311.06c0-0.936-0.528-1.631-1.476-1.631
			c-0.948,0-1.476,0.695-1.476,1.631v3.886c0,0.936,0.527,1.632,1.476,1.632c0.947,0,1.476-0.696,1.476-1.632V311.06z"/>
		<path fill="#231815" d="M309.705,317.272v-7.58l-1.596,1.403v-0.983l1.596-1.379h0.863v8.539H309.705z"/>
		<path fill="#231815" d="M314.613,317.272h-0.912l2.963-7.771h-2.975v1.343h-0.852v-2.11h4.737v0.768L314.613,317.272z"/>
	</g>
	<g>
		<path fill="#231815" d="M335.422,317.272v-0.768l3.37-4.281c0.324-0.42,0.479-0.792,0.479-1.26c0-0.924-0.551-1.535-1.486-1.535
			c-0.792,0-1.488,0.443-1.488,1.547h-0.863c0-1.343,0.924-2.314,2.352-2.314c1.402,0,2.35,0.899,2.35,2.303
			c0,0.684-0.215,1.127-0.684,1.728l-2.986,3.813h3.67v0.768H335.422z"/>
		<path fill="#231815" d="M343.053,317.345c-1.332,0-2.339-0.936-2.339-2.351v-3.982c0-1.415,1.007-2.351,2.339-2.351
			c1.331,0,2.339,0.936,2.339,2.351v3.982C345.392,316.409,344.384,317.345,343.053,317.345z M344.527,311.06
			c0-0.936-0.527-1.631-1.475-1.631s-1.475,0.695-1.475,1.631v3.886c0,0.936,0.527,1.632,1.475,1.632s1.475-0.696,1.475-1.632
			V311.06z"/>
		<path fill="#231815" d="M348.332,317.272v-7.58l-1.595,1.403v-0.983l1.595-1.379h0.864v8.539H348.332z"/>
		<path fill="#231815" d="M353.685,317.345c-1.415,0-2.519-0.983-2.519-2.423c0-0.995,0.563-1.667,1.283-2.075
			c-0.672-0.384-1.115-1.007-1.115-1.895c0-1.331,0.995-2.291,2.351-2.291c1.354,0,2.351,0.96,2.351,2.291
			c0,0.888-0.432,1.511-1.104,1.895c0.72,0.408,1.271,1.08,1.271,2.075C356.203,316.361,355.1,317.345,353.685,317.345z
			 M353.685,313.243c-0.936,0-1.655,0.719-1.655,1.667c0,0.947,0.72,1.667,1.655,1.667s1.655-0.72,1.655-1.667
			C355.34,313.962,354.62,313.243,353.685,313.243z M353.685,309.429c-0.876,0-1.487,0.647-1.487,1.535
			c0,0.899,0.611,1.523,1.487,1.523s1.487-0.624,1.487-1.523C355.172,310.076,354.561,309.429,353.685,309.429z"/>
	</g>
	<g>
		<path fill="#231815" d="M374.05,317.272v-0.768l3.37-4.281c0.324-0.42,0.48-0.792,0.48-1.26c0-0.924-0.553-1.535-1.488-1.535
			c-0.791,0-1.486,0.443-1.486,1.547h-0.863c0-1.343,0.923-2.314,2.35-2.314c1.404,0,2.352,0.899,2.352,2.303
			c0,0.684-0.217,1.127-0.684,1.728l-2.986,3.813h3.67v0.768H374.05z"/>
		<path fill="#231815" d="M381.681,317.345c-1.331,0-2.339-0.936-2.339-2.351v-3.982c0-1.415,1.008-2.351,2.339-2.351
			s2.339,0.936,2.339,2.351v3.982C384.02,316.409,383.012,317.345,381.681,317.345z M383.156,311.06
			c0-0.936-0.528-1.631-1.476-1.631c-0.948,0-1.476,0.695-1.476,1.631v3.886c0,0.936,0.527,1.632,1.476,1.632
			c0.947,0,1.476-0.696,1.476-1.632V311.06z"/>
		<path fill="#231815" d="M386.961,317.272v-7.58l-1.596,1.403v-0.983l1.596-1.379h0.863v8.539H386.961z"/>
		<path fill="#231815" d="M394.123,313.039l-2.099,4.233h-0.899l1.919-3.838c-0.264,0.12-0.575,0.18-0.911,0.18
			c-1.332,0-2.207-1.02-2.207-2.423c0-1.451,0.912-2.53,2.363-2.53s2.374,0.983,2.374,2.459
			C394.663,311.731,394.483,312.319,394.123,313.039z M392.289,309.429c-0.912,0-1.5,0.684-1.5,1.728c0,0.947,0.516,1.727,1.5,1.727
			c0.91,0,1.511-0.672,1.511-1.727C393.8,310.112,393.199,309.429,392.289,309.429z"/>
	</g>
	<g>
		<path fill="#231815" d="M413.277,317.272v-0.768l3.371-4.281c0.323-0.42,0.479-0.792,0.479-1.26c0-0.924-0.552-1.535-1.487-1.535
			c-0.791,0-1.487,0.443-1.487,1.547h-0.863c0-1.343,0.923-2.314,2.351-2.314c1.403,0,2.351,0.899,2.351,2.303
			c0,0.684-0.216,1.127-0.684,1.728l-2.986,3.813h3.67v0.768H413.277z"/>
		<path fill="#231815" d="M420.908,317.345c-1.331,0-2.338-0.936-2.338-2.351v-3.982c0-1.415,1.007-2.351,2.338-2.351
			c1.332,0,2.339,0.936,2.339,2.351v3.982C423.247,316.409,422.24,317.345,420.908,317.345z M422.384,311.06
			c0-0.936-0.528-1.631-1.476-1.631s-1.475,0.695-1.475,1.631v3.886c0,0.936,0.527,1.632,1.475,1.632s1.476-0.696,1.476-1.632
			V311.06z"/>
		<path fill="#231815" d="M423.91,317.272v-0.768l3.369-4.281c0.324-0.42,0.48-0.792,0.48-1.26c0-0.924-0.552-1.535-1.487-1.535
			c-0.792,0-1.487,0.443-1.487,1.547h-0.863c0-1.343,0.924-2.314,2.351-2.314c1.403,0,2.351,0.899,2.351,2.303
			c0,0.684-0.216,1.127-0.684,1.728l-2.986,3.813h3.67v0.768H423.91z"/>
		<path fill="#231815" d="M431.541,317.345c-1.332,0-2.34-0.936-2.34-2.351v-3.982c0-1.415,1.008-2.351,2.34-2.351
			c1.33,0,2.338,0.936,2.338,2.351v3.982C433.879,316.409,432.871,317.345,431.541,317.345z M433.016,311.06
			c0-0.936-0.527-1.631-1.475-1.631c-0.948,0-1.476,0.695-1.476,1.631v3.886c0,0.936,0.527,1.632,1.476,1.632
			c0.947,0,1.475-0.696,1.475-1.632V311.06z"/>
	</g>
	<g>
		<path fill="#231815" d="M10.774,317.272v-0.768l3.37-4.281c0.324-0.42,0.48-0.792,0.48-1.26c0-0.924-0.552-1.535-1.487-1.535
			c-0.792,0-1.487,0.443-1.487,1.547h-0.863c0-1.343,0.923-2.314,2.351-2.314c1.403,0,2.351,0.899,2.351,2.303
			c0,0.684-0.216,1.127-0.684,1.728l-2.986,3.813h3.67v0.768H10.774z"/>
		<path fill="#231815" d="M18.405,317.345c-1.332,0-2.339-0.936-2.339-2.351v-3.982c0-1.415,1.007-2.351,2.339-2.351
			c1.331,0,2.338,0.936,2.338,2.351v3.982C20.743,316.409,19.736,317.345,18.405,317.345z M19.88,311.06
			c0-0.936-0.528-1.631-1.475-1.631c-0.948,0-1.475,0.695-1.475,1.631v3.886c0,0.936,0.527,1.632,1.475,1.632
			c0.947,0,1.475-0.696,1.475-1.632V311.06z"/>
		<path fill="#231815" d="M23.721,317.345c-1.332,0-2.339-0.936-2.339-2.351v-3.982c0-1.415,1.007-2.351,2.339-2.351
			c1.331,0,2.339,0.936,2.339,2.351v3.982C26.06,316.409,25.052,317.345,23.721,317.345z M25.196,311.06
			c0-0.936-0.528-1.631-1.475-1.631c-0.948,0-1.475,0.695-1.475,1.631v3.886c0,0.936,0.527,1.632,1.475,1.632
			c0.947,0,1.475-0.696,1.475-1.632V311.06z"/>
		<path fill="#231815" d="M30.764,316.721c-0.396,0.396-0.948,0.636-1.703,0.636c-0.744,0-1.343-0.24-1.715-0.611
			c-0.372-0.384-0.552-0.876-0.6-1.487h0.864c0.108,0.852,0.552,1.331,1.451,1.331c0.42,0,0.804-0.144,1.055-0.396
			c0.444-0.444,0.468-1.128,0.468-1.739c0-1.044-0.204-2.075-1.439-2.075c-0.744,0-1.248,0.336-1.415,0.84h-0.78v-4.485h4.317v0.768
			h-3.538v2.71c0.335-0.371,0.863-0.587,1.535-0.587c0.635,0,1.139,0.203,1.475,0.539c0.624,0.624,0.708,1.487,0.708,2.291
			C31.447,315.306,31.375,316.109,30.764,316.721z"/>
		<path fill="#231815" d="M35.551,314.754c-0.42,0-0.815-0.168-1.271-0.372c-0.335-0.155-0.611-0.288-0.935-0.288
			c-0.336,0-0.54,0.072-1.008,0.54l-0.527-0.54c0.671-0.671,1.007-0.815,1.547-0.815c0.42,0,0.804,0.168,1.259,0.372
			c0.336,0.156,0.612,0.288,0.936,0.288c0.336,0,0.54-0.072,1.007-0.54l0.54,0.54C36.427,314.61,36.091,314.754,35.551,314.754z"/>
		<path fill="#231815" d="M37.557,317.272v-0.768l3.37-4.281c0.324-0.42,0.48-0.792,0.48-1.26c0-0.924-0.552-1.535-1.487-1.535
			c-0.792,0-1.487,0.443-1.487,1.547h-0.863c0-1.343,0.923-2.314,2.351-2.314c1.403,0,2.351,0.899,2.351,2.303
			c0,0.684-0.216,1.127-0.684,1.728l-2.986,3.813h3.67v0.768H37.557z"/>
		<path fill="#231815" d="M45.188,317.345c-1.332,0-2.339-0.936-2.339-2.351v-3.982c0-1.415,1.007-2.351,2.339-2.351
			c1.331,0,2.338,0.936,2.338,2.351v3.982C47.526,316.409,46.519,317.345,45.188,317.345z M46.663,311.06
			c0-0.936-0.528-1.631-1.475-1.631c-0.948,0-1.475,0.695-1.475,1.631v3.886c0,0.936,0.527,1.632,1.475,1.632
			c0.947,0,1.475-0.696,1.475-1.632V311.06z"/>
		<path fill="#231815" d="M50.468,317.272v-7.58l-1.595,1.403v-0.983l1.595-1.379h0.864v8.539H50.468z"/>
		<path fill="#231815" d="M55.82,317.345c-1.332,0-2.339-0.936-2.339-2.351v-3.982c0-1.415,1.007-2.351,2.339-2.351
			c1.331,0,2.338,0.936,2.338,2.351v3.982C58.158,316.409,57.151,317.345,55.82,317.345z M57.295,311.06
			c0-0.936-0.528-1.631-1.475-1.631c-0.948,0-1.475,0.695-1.475,1.631v3.886c0,0.936,0.527,1.632,1.475,1.632
			c0.947,0,1.475-0.696,1.475-1.632V311.06z"/>
	</g>
	<g>
		<path fill="#FFFFFF" d="M269.32,42.691c0,2.193-1.938,3.995-4.521,3.995c-2.533,0-4.641-1.768-4.471-4.301h2.313
			c-0.086,1.275,0.815,2.091,2.141,2.091c1.258,0,2.04-0.782,2.125-1.785c0.068-0.782-0.459-1.462-1.309-1.768
			c-0.611-0.153-1.207-0.153-1.768-0.153v-2.108c0.748,0,1.343-0.085,1.869-0.357c0.459-0.255,0.799-0.663,0.834-1.326
			c0.051-0.748-0.477-1.666-1.752-1.666c-1.258,0-1.903,0.85-1.836,1.853h-2.277c-0.136-2.21,1.684-3.927,4.08-3.927
			c2.481,0,4.147,1.717,4.147,3.621c0,1.479-0.782,2.397-1.581,2.822C268.437,40.226,269.32,41.416,269.32,42.691z"/>
		<path fill="#FFFFFF" d="M278.993,42.232c0,2.516-1.836,4.402-4.386,4.402c-2.363,0-3.842-1.513-4.488-3.484
			c-0.594-1.785-0.543-4.845,0.188-6.646c0.766-1.972,2.261-3.247,4.386-3.247c2.329,0,4.046,1.836,4.232,3.808l-2.142,0.017
			c-0.152-0.816-0.799-1.734-2.107-1.734c-1.275,0-1.785,0.799-2.143,1.666c-0.271,0.697-0.356,1.224-0.356,1.818
			c0.612-0.493,1.479-1.003,2.788-1.003C277.293,37.829,278.993,39.784,278.993,42.232z M276.613,42.232
			c0-1.326-0.867-2.193-2.107-2.193c-1.207,0-2.074,0.867-2.074,2.193c0,1.343,0.867,2.176,2.074,2.176
			C275.746,44.408,276.613,43.575,276.613,42.232z"/>
		<path fill="#FFFFFF" d="M288.411,41.994c0,2.805-2.362,4.538-4.521,4.538c-2.601,0-4.267-2.159-4.437-3.96h2.312
			c0.153,0.969,0.97,1.751,2.125,1.751c1.139,0,2.006-0.935,2.108-2.278c0.084-1.428-0.8-2.397-2.058-2.397
			c-0.731,0-1.36,0.238-1.733,0.714l-2.482-0.017l1.021-6.714h7.037v2.193h-5.065l-0.391,2.329c0.832-0.408,2.209-0.595,3.145-0.289
			C286.813,38.305,288.411,39.376,288.411,41.994z"/>
	</g>
</g>
</svg>
