<?xml version="1.0" encoding="utf-8"?>
<!-- Generator: Adobe Illustrator 16.0.0, SVG Export Plug-In . SVG Version: 6.00 Build 0)  -->
<!DOCTYPE svg PUBLIC "-//W3C//DTD SVG 1.1//EN" "http://www.w3.org/Graphics/SVG/1.1/DTD/svg11.dtd">
<svg version="1.1" id="레이어_1" xmlns="http://www.w3.org/2000/svg" xmlns:xlink="http://www.w3.org/1999/xlink" x="0px"
	 y="0px" width="253.412px" height="35.558px" viewBox="0 0 253.412 35.558" enable-background="new 0 0 253.412 35.558"
	 xml:space="preserve">
<g>
	<path fill="#CBC8C6" d="M243.672,1.882c0,0-1.234-1.882-3.484-1.882H1.381c0,0-2.25,0-1.006,1.875l9.311,14.03
		c0,0,1.244,1.874,0,3.749l-9.311,14.03c0,0-1.244,1.873,1.006,1.873h238.807c0,0,2.25,0,3.484-1.881l9.191-14.016
		c0,0,1.232-1.882,0-3.763L243.672,1.882z"/>
	<path fill="#FFFFFF" d="M184.778,29.681v-18.9c0-0.734-0.225-1.29-0.675-1.665s-0.976-0.562-1.575-0.562s-1.125,0.187-1.575,0.562
		s-0.675,0.931-0.675,1.665v18.9H184.778z M169.456,21.671c0-0.391,0.075-0.649,0.225-0.776c0.15-0.128,0.42-0.191,0.811-0.191
		h6.885v-7.875c0-0.645-0.06-1.185-0.18-1.619c-0.12-0.436-0.33-0.788-0.63-1.059c-0.3-0.27-0.701-0.465-1.204-0.585
		s-1.145-0.18-1.924-0.18h-6.367c-0.346,0-0.639,0.056-0.878,0.169c-0.24,0.112-0.438,0.259-0.597,0.438
		c-0.156,0.181-0.27,0.383-0.336,0.607c-0.068,0.225-0.103,0.45-0.103,0.675c0,0.226,0.038,0.45,0.113,0.675
		c0.075,0.226,0.187,0.429,0.337,0.608s0.345,0.322,0.585,0.427c0.239,0.105,0.532,0.158,0.878,0.158h5.175
		c0.255,0,0.421,0.067,0.495,0.202c0.075,0.135,0.112,0.278,0.112,0.427v3.263h-4.027c-0.705,0-1.305,0.064-1.8,0.191
		c-0.495,0.128-0.896,0.342-1.204,0.641c-0.308,0.302-0.532,0.691-0.675,1.172c-0.143,0.479-0.215,1.071-0.215,1.776v4.095
		c0,0.705,0.072,1.302,0.215,1.789s0.367,0.882,0.675,1.182s0.709,0.518,1.204,0.652c0.495,0.136,1.095,0.202,1.8,0.202h8.302
		c0.676,0,1.164-0.19,1.463-0.574c0.301-0.382,0.451-0.806,0.451-1.271c0-0.225-0.035-0.446-0.102-0.664
		c-0.068-0.217-0.18-0.416-0.338-0.596c-0.157-0.181-0.356-0.322-0.596-0.428c-0.24-0.104-0.533-0.157-0.879-0.157h-6.637
		c-0.391,0-0.66-0.064-0.811-0.191c-0.149-0.128-0.225-0.386-0.225-0.776V21.671z M157.868,29.681h4.479V10.735
		c0-0.359-0.064-0.675-0.191-0.944c-0.128-0.271-0.297-0.495-0.507-0.676c-0.21-0.18-0.45-0.318-0.72-0.416
		c-0.271-0.098-0.547-0.146-0.832-0.146c-0.586,0-1.104,0.183-1.553,0.551c-0.451,0.367-0.676,0.911-0.676,1.631v5.468H155.1
		c-0.344,0-0.637,0.061-0.877,0.18c-0.24,0.121-0.436,0.271-0.586,0.451c-0.149,0.18-0.258,0.386-0.325,0.617
		c-0.067,0.233-0.101,0.461-0.101,0.688c0,0.225,0.033,0.453,0.101,0.686s0.18,0.442,0.338,0.631
		c0.157,0.187,0.353,0.337,0.585,0.449s0.521,0.169,0.865,0.169h2.768V29.681z M146.855,9.036c-0.384,0.384-0.574,0.935-0.574,1.654
		v0.271h-2.835c-0.346,0-0.639,0.056-0.878,0.169c-0.24,0.111-0.435,0.262-0.585,0.45c-0.15,0.187-0.258,0.394-0.326,0.618
		c-0.066,0.226-0.102,0.449-0.102,0.676c0,0.225,0.035,0.449,0.102,0.675c0.068,0.224,0.18,0.427,0.338,0.606
		c0.157,0.181,0.352,0.326,0.585,0.439c0.232,0.112,0.521,0.169,0.866,0.169h3.016v1.259c0,1.246-0.088,2.348-0.26,3.309
		c-0.172,0.96-0.436,1.804-0.787,2.53c-0.353,0.729-0.792,1.362-1.316,1.902c-0.525,0.54-1.133,1.012-1.822,1.417
		c-0.45,0.27-0.729,0.638-0.833,1.103c-0.104,0.466-0.052,0.9,0.157,1.306c0.121,0.225,0.285,0.412,0.496,0.562
		c0.209,0.15,0.441,0.259,0.697,0.326c0.254,0.068,0.518,0.098,0.787,0.09c0.27-0.007,0.525-0.063,0.766-0.168
		c1.125-0.465,2.125-1.14,3.004-2.024c0.877-0.886,1.601-1.988,2.171-3.309c0.72,0.436,1.233,1.076,1.541,1.924
		c0.307,0.848,0.379,1.991,0.214,3.432h4.162c0.09-1.455,0.033-2.7-0.168-3.735c-0.203-1.035-0.518-1.909-0.945-2.621
		c-0.428-0.713-0.96-1.29-1.598-1.732c-0.639-0.442-1.361-0.791-2.172-1.047c0.076-0.479,0.132-0.981,0.17-1.507
		c0.037-0.524,0.056-1.072,0.056-1.643v-1.372h2.88c0.33,0,0.615-0.057,0.855-0.169c0.24-0.113,0.431-0.259,0.574-0.439
		c0.142-0.18,0.246-0.383,0.314-0.606c0.066-0.226,0.102-0.45,0.102-0.675c0-0.227-0.031-0.45-0.09-0.676
		c-0.061-0.225-0.166-0.432-0.316-0.618c-0.149-0.188-0.34-0.339-0.573-0.45c-0.233-0.113-0.521-0.169-0.866-0.169h-2.79V10.69
		c0-0.72-0.19-1.271-0.573-1.654c-0.383-0.382-0.957-0.572-1.722-0.572S147.237,8.654,146.855,9.036 M132.196,24.979
		c0.675,0,1.159-0.188,1.451-0.563c0.293-0.375,0.439-0.796,0.439-1.261c0-0.225-0.035-0.445-0.102-0.664
		c-0.068-0.217-0.178-0.416-0.327-0.596s-0.345-0.322-0.585-0.427c-0.24-0.105-0.531-0.158-0.877-0.158h-17.28
		c-0.345,0-0.638,0.053-0.878,0.158c-0.24,0.104-0.435,0.247-0.585,0.427c-0.15,0.18-0.258,0.379-0.326,0.596
		c-0.067,0.219-0.101,0.439-0.101,0.664c0,0.465,0.146,0.886,0.439,1.261c0.292,0.375,0.776,0.563,1.451,0.563h6.345v4.815h4.59
		v-4.815H132.196z M125.232,9.341c-0.382-0.405-0.904-0.638-1.564-0.697c-0.63-0.045-1.181,0.101-1.653,0.438
		c-0.473,0.338-0.762,0.866-0.867,1.587c-0.12,0.81-0.367,1.548-0.742,2.216c-0.375,0.667-0.836,1.248-1.384,1.744
		c-0.548,0.495-1.162,0.902-1.845,1.226c-0.682,0.322-1.391,0.551-2.126,0.687c-0.57,0.104-1.001,0.355-1.294,0.754
		c-0.292,0.396-0.416,0.865-0.371,1.405c0.045,0.556,0.266,0.986,0.664,1.294c0.397,0.308,0.873,0.462,1.428,0.462
		c0.765,0,1.545-0.105,2.34-0.315s1.564-0.51,2.307-0.9c0.742-0.39,1.44-0.861,2.092-1.417c0.653-0.555,1.234-1.17,1.744-1.845
		c0.66-0.015,1.275,0.075,1.845,0.271c0.57,0.194,1.08,0.482,1.531,0.865c0.449,0.383,0.824,0.852,1.125,1.406
		c0.299,0.555,0.51,1.178,0.629,1.868h4.545c-0.09-1.365-0.383-2.55-0.877-3.555c-0.494-1.006-1.113-1.834-1.856-2.487
		c-0.742-0.652-1.575-1.14-2.497-1.462c-0.923-0.323-1.864-0.491-2.824-0.506c0.045-0.226,0.082-0.447,0.112-0.664
		c0.03-0.218,0.053-0.446,0.068-0.687C125.791,10.309,125.615,9.745,125.232,9.341 M93.136,9.791c-0.63,0-1.073,0.139-1.328,0.416
		c-0.255,0.277-0.382,0.618-0.382,1.023c0,0.42,0.131,0.77,0.394,1.046c0.262,0.278,0.701,0.417,1.316,0.417h5.692
		c-0.21,0.285-0.498,0.532-0.866,0.742c-0.367,0.21-0.802,0.375-1.305,0.495c-0.502,0.12-1.057,0.195-1.665,0.225
		c-0.607,0.03-1.249,0.009-1.924-0.066c-0.495-0.045-0.933,0.011-1.316,0.168c-0.382,0.158-0.626,0.469-0.731,0.934
		c-0.12,0.525-0.038,0.96,0.247,1.305c0.285,0.346,0.698,0.556,1.238,0.631c0.615,0.074,1.249,0.112,1.901,0.112
		c0.653,0,1.305-0.038,1.958-0.112c0.652-0.075,1.293-0.191,1.923-0.35c0.63-0.157,1.215-0.362,1.755-0.618
		c0.72-0.165,1.437-0.273,2.149-0.326c0.713-0.053,1.373-0.037,1.98,0.045c0.608,0.083,1.148,0.232,1.62,0.449
		c0.473,0.219,0.829,0.515,1.069,0.89h4.567c-0.255-0.855-0.63-1.554-1.125-2.092c-0.495-0.54-1.102-0.953-1.822-1.238
		c-0.72-0.285-1.545-0.454-2.475-0.506c-0.93-0.054-1.958-0.012-3.083,0.124c0.12-0.271,0.203-0.54,0.248-0.811h5.805
		c0.615,0,1.054-0.139,1.316-0.417c0.263-0.276,0.394-0.626,0.394-1.046c0-0.405-0.128-0.746-0.383-1.023s-0.697-0.416-1.327-0.416
		h-5.58c-0.09-0.525-0.338-0.919-0.743-1.182c-0.405-0.263-0.922-0.394-1.552-0.394c-0.63,0-1.151,0.131-1.564,0.394
		c-0.412,0.263-0.664,0.656-0.754,1.182H93.136z M110.146,29.681c0.435,0,0.735-0.135,0.9-0.405c0.165-0.27,0.247-0.533,0.247-0.787
		c0-0.301-0.086-0.582-0.258-0.844c-0.173-0.263-0.469-0.394-0.889-0.394h-13.77c-0.27,0-0.405-0.12-0.405-0.36
		c0-0.09,0.03-0.176,0.09-0.259c0.06-0.082,0.165-0.124,0.315-0.124h14.287v-3.172c0-0.66-0.172-1.155-0.517-1.485
		c-0.345-0.33-0.983-0.495-1.913-0.495h-4.905v-0.765h6.66c0.57,0,0.979-0.135,1.227-0.405c0.247-0.27,0.371-0.607,0.371-1.012
		c0-0.375-0.12-0.705-0.36-0.99c-0.24-0.285-0.653-0.428-1.238-0.428H92.101c-0.57,0-0.975,0.143-1.215,0.428
		c-0.24,0.285-0.36,0.615-0.36,0.99c0,0.404,0.12,0.742,0.36,1.012c0.24,0.271,0.645,0.405,1.215,0.405h6.682v0.765h-6.21
		c-0.435,0-0.742,0.128-0.922,0.383c-0.18,0.255-0.27,0.525-0.27,0.811s0.101,0.551,0.304,0.798
		c0.202,0.248,0.498,0.372,0.888,0.372h13.05c0.165,0,0.274,0.021,0.327,0.066c0.052,0.046,0.078,0.136,0.078,0.271v0.405H93.946
		c-0.945,0-1.646,0.214-2.104,0.641c-0.457,0.428-0.686,1.024-0.686,1.789v0.135c0,0.75,0.232,1.38,0.697,1.891
		c0.465,0.51,1.163,0.765,2.093,0.765H110.146z M73.966,25.36c0-0.21,0.034-0.375,0.101-0.495c0.068-0.12,0.214-0.18,0.439-0.18
		h9.09c0.225,0,0.375,0.06,0.45,0.18c0.075,0.12,0.112,0.285,0.112,0.495v1.238h-9.652c-0.225,0-0.371-0.06-0.439-0.18
		c-0.067-0.12-0.101-0.293-0.101-0.519V25.36z M83.933,20.929h4.545V10.78c0-0.359-0.063-0.679-0.191-0.956
		c-0.127-0.277-0.296-0.51-0.506-0.697s-0.454-0.33-0.731-0.428c-0.278-0.098-0.559-0.146-0.844-0.146
		c-0.6,0-1.129,0.187-1.586,0.562c-0.458,0.375-0.687,0.931-0.687,1.665V20.929z M80.356,13.953c0.27,0,0.506-0.053,0.709-0.157
		c0.202-0.105,0.371-0.24,0.506-0.405c0.135-0.165,0.24-0.349,0.315-0.551c0.075-0.203,0.112-0.409,0.112-0.619
		c0-0.195-0.03-0.401-0.09-0.619c-0.06-0.217-0.157-0.408-0.292-0.573c-0.135-0.165-0.308-0.304-0.518-0.417
		c-0.21-0.111-0.457-0.168-0.742-0.168h-3.06v-0.067c0-0.676-0.191-1.17-0.574-1.485c-0.382-0.315-0.926-0.472-1.631-0.472
		s-1.245,0.156-1.62,0.472s-0.563,0.81-0.563,1.485v0.067h-2.97c-0.285,0-0.532,0.057-0.742,0.168
		c-0.21,0.113-0.383,0.252-0.518,0.417c-0.135,0.165-0.232,0.356-0.292,0.573c-0.06,0.218-0.09,0.424-0.09,0.619
		c0,0.21,0.037,0.416,0.112,0.619c0.075,0.202,0.18,0.386,0.315,0.551c0.135,0.165,0.304,0.3,0.507,0.405
		c0.202,0.104,0.438,0.157,0.708,0.157h3.038v0.136c0,0.93-0.293,1.702-0.878,2.316c-0.585,0.615-1.402,0.983-2.452,1.103
		c-0.45,0.046-0.806,0.214-1.069,0.507c-0.262,0.292-0.394,0.701-0.394,1.226c0,0.511,0.192,0.911,0.574,1.204
		c0.383,0.292,0.851,0.439,1.406,0.439c1.08,0,2.138-0.226,3.173-0.675c1.035-0.451,1.89-1.125,2.565-2.025
		c0.675-0.075,1.211,0.105,1.609,0.54c0.397,0.435,0.558,1.08,0.483,1.935h4.208c0.03-1.949-0.379-3.363-1.226-4.241
		c-0.848-0.877-2.134-1.309-3.859-1.293c0.045-0.315,0.067-0.66,0.067-1.035v-0.136H80.356z M88.591,29.681v-4.635
		c0-0.646-0.041-1.189-0.124-1.631c-0.082-0.443-0.24-0.796-0.472-1.059c-0.233-0.262-0.559-0.45-0.979-0.562
		c-0.42-0.113-0.968-0.169-1.643-0.169H72.751c-0.675,0-1.223,0.056-1.643,0.169c-0.42,0.111-0.746,0.3-0.978,0.562
		c-0.233,0.263-0.39,0.615-0.473,1.059c-0.082,0.441-0.124,0.985-0.124,1.631v1.215c0,0.66,0.042,1.208,0.124,1.643
		c0.083,0.435,0.24,0.783,0.473,1.046c0.232,0.263,0.558,0.45,0.978,0.563c0.42,0.113,0.968,0.169,1.643,0.169H88.591z"/>
</g>
</svg>
