<?xml version="1.0" encoding="utf-8"?>
<!-- Generator: Adobe Illustrator 16.0.0, SVG Export Plug-In . SVG Version: 6.00 Build 0)  -->
<!DOCTYPE svg PUBLIC "-//W3C//DTD SVG 1.1//EN" "http://www.w3.org/Graphics/SVG/1.1/DTD/svg11.dtd">
<svg version="1.1" id="레이어_1" xmlns="http://www.w3.org/2000/svg" xmlns:xlink="http://www.w3.org/1999/xlink" x="0px"
	 y="0px" width="253.411px" height="35.558px" viewBox="0 0 253.411 35.558" enable-background="new 0 0 253.411 35.558"
	 xml:space="preserve">
<g>
	<defs>
		<rect id="SVGID_1_" width="253.411" height="35.558"/>
	</defs>
	<clipPath id="SVGID_2_">
		<use xlink:href="#SVGID_1_"  overflow="visible"/>
	</clipPath>
	<path clip-path="url(#SVGID_2_)" fill="#CCC8C7" d="M243.672,1.881c0,0-1.234-1.882-3.484-1.882H1.381c0,0-2.25,0-1.006,1.875
		l9.311,14.03c0,0,1.244,1.874,0,3.75L0.375,33.683c0,0-1.244,1.873,1.006,1.873h238.807c0,0,2.25,0,3.484-1.881l9.191-14.016
		c0,0,1.232-1.881,0-3.762L243.672,1.881z"/>
	<path clip-path="url(#SVGID_2_)" fill="#FFFFFF" d="M54.686,14.623c0,0.391-0.022,0.75-0.067,1.08
		c1.726,0.03,3.008,0.507,3.849,1.43s1.253,2.39,1.238,4.4h-4.208c0.06-0.916-0.109-1.605-0.506-2.07
		c-0.398-0.465-0.919-0.684-1.564-0.652c-0.345,0.465-0.735,0.873-1.17,1.227c-0.435,0.352-0.904,0.648-1.407,0.889
		c-0.502,0.24-1.024,0.424-1.564,0.551s-1.081,0.199-1.621,0.215c-0.555,0.014-1.024-0.133-1.407-0.439
		c-0.382-0.309-0.574-0.717-0.574-1.227c0-0.525,0.131-0.93,0.394-1.215c0.262-0.286,0.619-0.465,1.069-0.541
		c1.035-0.165,1.849-0.566,2.442-1.204s0.889-1.452,0.889-2.442v-0.315h-3.039c-0.27,0-0.506-0.056-0.709-0.168
		c-0.203-0.113-0.371-0.252-0.506-0.417c-0.135-0.165-0.24-0.353-0.315-0.563s-0.113-0.42-0.113-0.63c0-0.195,0.03-0.401,0.09-0.619
		s0.157-0.416,0.292-0.597c0.135-0.18,0.308-0.326,0.518-0.438s0.458-0.169,0.743-0.169h2.971v-0.202
		c0-0.676,0.188-1.175,0.563-1.497s0.915-0.484,1.621-0.484c0.705,0,1.249,0.162,1.632,0.484c0.382,0.322,0.574,0.821,0.574,1.497
		v0.202h3.061c0.285,0,0.533,0.057,0.743,0.169s0.382,0.259,0.518,0.438c0.135,0.181,0.232,0.379,0.292,0.597s0.09,0.424,0.09,0.619
		c0,0.21-0.037,0.42-0.112,0.63s-0.18,0.397-0.315,0.563c-0.135,0.165-0.304,0.304-0.506,0.417
		c-0.203,0.112-0.439,0.168-0.709,0.168h-3.174V14.623z M48.913,29.5c-0.413-0.119-0.739-0.307-0.979-0.563
		c-0.24-0.254-0.409-0.592-0.506-1.012s-0.146-0.932-0.146-1.531v-1.666c0-0.764,0.229-1.313,0.686-1.643
		c0.458-0.33,1.002-0.494,1.632-0.494c0.63,0,1.163,0.164,1.598,0.494s0.653,0.879,0.653,1.643v0.9c0,0.256,0.037,0.414,0.112,0.473
		c0.075,0.061,0.24,0.09,0.495,0.09h12.221c0.69,0,1.178,0.178,1.463,0.529c0.285,0.354,0.428,0.754,0.428,1.205
		c0,0.465-0.146,0.873-0.439,1.227c-0.292,0.352-0.776,0.527-1.452,0.527H50.477C49.847,29.679,49.325,29.621,48.913,29.5z
		 M62.124,9.109c0.458-0.376,0.987-0.563,1.587-0.563c0.285,0,0.566,0.049,0.844,0.146c0.277,0.098,0.521,0.24,0.731,0.428
		c0.21,0.188,0.378,0.42,0.506,0.698c0.127,0.277,0.191,0.596,0.191,0.956v13.797h-4.546V10.774
		C61.438,10.039,61.667,9.484,62.124,9.109z M73.089,17.932c-0.705-0.015-1.316-0.116-1.834-0.304s-0.949-0.45-1.294-0.788
		c-0.345-0.337-0.604-0.735-0.776-1.192c-0.172-0.458-0.259-0.957-0.259-1.497c0-0.33,0.067-0.668,0.203-1.013
		c-0.375-0.105-0.66-0.289-0.855-0.552c-0.195-0.263-0.292-0.589-0.292-0.979c0-0.495,0.154-0.893,0.461-1.193
		c0.308-0.3,0.747-0.45,1.316-0.45h3.196c0.075-0.569,0.308-0.99,0.698-1.26c0.39-0.271,0.9-0.405,1.53-0.405
		s1.137,0.135,1.519,0.405c0.383,0.27,0.612,0.69,0.687,1.26h3.196c0.57,0,1.009,0.15,1.316,0.45
		c0.308,0.301,0.461,0.698,0.461,1.193c0,0.39-0.101,0.713-0.304,0.968s-0.477,0.435-0.822,0.54c0.135,0.345,0.203,0.69,0.203,1.035
		c0,0.54-0.086,1.039-0.259,1.497c-0.172,0.457-0.431,0.854-0.776,1.192s-0.776,0.601-1.294,0.788
		c-0.518,0.188-1.129,0.289-1.834,0.304v1.216h3.556c0.69,0,1.178,0.164,1.463,0.494s0.427,0.729,0.427,1.193
		c0,0.48-0.146,0.885-0.438,1.215c-0.293,0.33-0.777,0.496-1.452,0.496H69.894c-0.675,0-1.163-0.166-1.463-0.496
		s-0.45-0.734-0.45-1.215c0-0.465,0.146-0.863,0.439-1.193s0.784-0.494,1.474-0.494h3.196V17.932z M71.413,29.5
		c-0.413-0.119-0.739-0.307-0.979-0.563c-0.24-0.254-0.409-0.592-0.506-1.012s-0.146-0.932-0.146-1.531v-0.967
		c0-0.766,0.229-1.303,0.686-1.609c0.458-0.309,1.002-0.463,1.632-0.463c0.63,0,1.163,0.158,1.598,0.473
		c0.435,0.316,0.653,0.848,0.653,1.6v0.246c0,0.256,0.037,0.414,0.112,0.473c0.075,0.061,0.24,0.09,0.495,0.09h11.793
		c0.69,0,1.178,0.174,1.463,0.518c0.285,0.346,0.428,0.744,0.428,1.193c0,0.465-0.146,0.871-0.439,1.215
		c-0.292,0.346-0.776,0.518-1.452,0.518H72.977C72.347,29.679,71.825,29.621,71.413,29.5z M77.22,14.814
		c0.188-0.218,0.281-0.461,0.281-0.731s-0.094-0.507-0.281-0.709c-0.188-0.202-0.461-0.304-0.822-0.304h-2.431
		c-0.36,0-0.634,0.102-0.821,0.304c-0.188,0.202-0.282,0.438-0.282,0.709s0.094,0.514,0.282,0.731
		c0.188,0.218,0.461,0.326,0.821,0.326h2.431C76.758,15.141,77.032,15.032,77.22,14.814z M84.118,9.109
		c0.435-0.376,0.953-0.563,1.553-0.563c0.585,0,1.099,0.191,1.542,0.574c0.443,0.383,0.664,0.935,0.664,1.654v3.398h0.698
		c0.345,0,0.63,0.061,0.855,0.181c0.225,0.119,0.405,0.273,0.541,0.461c0.135,0.188,0.232,0.397,0.292,0.63s0.09,0.462,0.09,0.687
		c0,0.226-0.03,0.454-0.09,0.687s-0.158,0.442-0.292,0.63c-0.135,0.188-0.319,0.342-0.552,0.462c-0.232,0.12-0.514,0.18-0.844,0.18
		h-0.698v6.37h-4.411V10.774C83.465,10.039,83.683,9.484,84.118,9.109z M95.387,16.593c0.721-0.098,1.339-0.271,1.857-0.518
		c0.518-0.248,0.927-0.586,1.227-1.014c0.3-0.427,0.45-0.948,0.45-1.563v-0.293c0-0.33-0.172-0.495-0.518-0.495h-5.086
		c-0.33,0-0.611-0.049-0.844-0.146c-0.232-0.098-0.424-0.229-0.574-0.394s-0.259-0.353-0.326-0.563
		c-0.068-0.21-0.102-0.428-0.102-0.653c0-0.225,0.034-0.442,0.102-0.652c0.067-0.21,0.176-0.397,0.326-0.563
		s0.341-0.297,0.574-0.394c0.233-0.098,0.514-0.146,0.844-0.146h6.752c0.9,0,1.583,0.135,2.048,0.405
		c0.465,0.27,0.78,0.675,0.945,1.215c0.06-0.015,0.15-0.022,0.271-0.022h3.196v-0.067c0-0.721,0.221-1.264,0.664-1.632
		c0.442-0.367,0.957-0.552,1.542-0.552c0.285,0,0.563,0.049,0.833,0.146c0.27,0.098,0.51,0.236,0.72,0.417
		c0.21,0.18,0.378,0.404,0.506,0.675c0.127,0.271,0.191,0.585,0.191,0.945v9.768h-4.456v-1.869h-3.196
		c-0.84,0-1.358-0.322-1.553-0.968c-0.93,1.081-2.187,1.831-3.77,2.25s-3.312,0.541-5.188,0.361
		c-0.51-0.045-0.938-0.252-1.283-0.619c-0.345-0.367-0.495-0.852-0.45-1.452c0.045-0.525,0.251-0.92,0.619-1.182
		c0.368-0.263,0.822-0.379,1.362-0.35C93.894,16.716,94.667,16.69,95.387,16.593z M94.476,29.365
		c-0.578-0.209-1.058-0.502-1.44-0.877c-0.383-0.375-0.668-0.818-0.855-1.328s-0.281-1.072-0.281-1.688
		c0-0.602,0.094-1.16,0.281-1.678s0.473-0.967,0.855-1.35c0.382-0.383,0.863-0.684,1.44-0.9c0.578-0.219,1.256-0.326,2.037-0.326
		h10.083c0.765,0,1.437,0.104,2.015,0.314s1.058,0.506,1.44,0.889c0.382,0.383,0.671,0.834,0.866,1.352
		c0.195,0.518,0.292,1.084,0.292,1.699s-0.097,1.182-0.292,1.699c-0.195,0.518-0.484,0.963-0.866,1.338
		c-0.383,0.375-0.863,0.664-1.44,0.867s-1.25,0.303-2.015,0.303H96.512C95.732,29.679,95.053,29.576,94.476,29.365z M106.393,26.191
		c0.165-0.225,0.248-0.465,0.248-0.719c0-0.256-0.083-0.488-0.248-0.699c-0.165-0.209-0.495-0.314-0.99-0.314h-7.697
		c-0.495,0-0.825,0.105-0.99,0.314c-0.165,0.211-0.248,0.443-0.248,0.699c0,0.254,0.083,0.494,0.248,0.719
		c0.165,0.227,0.495,0.338,0.99,0.338h7.697C105.897,26.529,106.228,26.417,106.393,26.191z M102.927,15.523
		c0.075,0,0.143-0.004,0.203-0.012c0.06-0.007,0.127-0.011,0.203-0.011h3.196v-1.575h-3.309
		C103.174,14.525,103.077,15.059,102.927,15.523z M123.298,26.101c0.323-0.105,0.604-0.254,0.844-0.449
		c0.24-0.195,0.431-0.428,0.574-0.697c0.143-0.271,0.214-0.586,0.214-0.945v-0.811h-3.691c-0.675,0-1.163-0.191-1.463-0.574
		c-0.3-0.383-0.45-0.814-0.45-1.295c0-0.225,0.034-0.449,0.101-0.674c0.067-0.227,0.18-0.428,0.337-0.609
		c0.158-0.18,0.356-0.326,0.597-0.438c0.24-0.113,0.533-0.17,0.878-0.17h11.411c0.345,0,0.638,0.057,0.878,0.17
		c0.24,0.111,0.436,0.258,0.585,0.438c0.149,0.182,0.259,0.383,0.327,0.609c0.066,0.225,0.101,0.449,0.101,0.674
		c0,0.24-0.034,0.473-0.101,0.699c-0.068,0.225-0.181,0.424-0.338,0.596c-0.158,0.172-0.357,0.311-0.597,0.416
		c-0.24,0.105-0.525,0.158-0.855,0.158h-3.128v0.811c0,0.975-0.184,1.822-0.552,2.543c-0.368,0.719-0.852,1.324-1.452,1.811
		c-0.6,0.488-1.291,0.855-2.071,1.104s-1.583,0.379-2.408,0.395c-0.63,0.014-1.17-0.133-1.621-0.439
		c-0.45-0.309-0.683-0.732-0.698-1.271c-0.015-1.096,0.51-1.703,1.576-1.824C122.642,26.281,122.975,26.207,123.298,26.101z
		 M122.071,17.763c-0.555-0.232-1.017-0.544-1.384-0.934c-0.368-0.391-0.645-0.852-0.833-1.385
		c-0.188-0.532-0.281-1.106-0.281-1.722v-0.067c0-0.601,0.094-1.17,0.281-1.71c0.188-0.541,0.465-1.006,0.833-1.396
		c0.368-0.391,0.829-0.702,1.384-0.935s1.2-0.349,1.936-0.349h5.312c0.735,0,1.377,0.116,1.924,0.349
		c0.549,0.232,1.01,0.544,1.385,0.935c0.375,0.39,0.656,0.854,0.844,1.396c0.188,0.54,0.281,1.109,0.281,1.71v0.067
		c0,0.615-0.094,1.189-0.281,1.722c-0.188,0.533-0.469,0.994-0.844,1.385c-0.375,0.39-0.836,0.701-1.385,0.934
		c-0.547,0.232-1.188,0.349-1.924,0.349h-5.312C123.271,18.111,122.626,17.995,122.071,17.763z M124.39,14.511
		c0.21,0.21,0.578,0.315,1.103,0.315h2.363c0.525,0,0.889-0.105,1.092-0.315s0.304-0.465,0.304-0.766v-0.112
		c0-0.3-0.101-0.559-0.304-0.776s-0.566-0.326-1.092-0.326h-2.363c-0.525,0-0.893,0.108-1.103,0.326
		c-0.21,0.218-0.315,0.477-0.315,0.776v0.112C124.074,14.046,124.179,14.301,124.39,14.511z M135.283,10.774
		c0-0.735,0.225-1.29,0.675-1.665c0.45-0.376,0.976-0.563,1.575-0.563c0.601,0,1.125,0.188,1.576,0.563
		c0.449,0.375,0.675,0.93,0.675,1.665v18.905h-4.501V10.774z M144.729,15.321c0.405-0.855,0.607-2.056,0.607-3.602v-0.675
		c0-0.721,0.199-1.249,0.598-1.587c0.396-0.338,0.881-0.507,1.451-0.507s1.068,0.169,1.496,0.507s0.643,0.866,0.643,1.587v0.675
		c0,0.315-0.008,0.619-0.023,0.911c-0.015,0.293-0.037,0.574-0.067,0.845c1.351,0.27,2.359,0.945,3.027,2.025
		c0.667,1.08,0.919,2.641,0.754,4.682h-4.028c0.135-0.721,0.146-1.355,0.033-1.903c-0.112-0.548-0.342-0.972-0.686-1.271
		c-0.48,1.035-1.107,1.85-1.88,2.442c-0.772,0.594-1.647,0.957-2.622,1.092c-0.57,0.074-1.062-0.016-1.475-0.27
		c-0.412-0.256-0.656-0.623-0.73-1.104c-0.181-1.05,0.194-1.755,1.125-2.116C143.73,16.754,144.324,16.176,144.729,15.321z
		 M145.663,29.421c-0.578-0.217-1.058-0.514-1.44-0.889s-0.668-0.822-0.855-1.34s-0.281-1.084-0.281-1.699
		c0-0.6,0.094-1.162,0.281-1.688s0.473-0.979,0.855-1.361s0.862-0.688,1.44-0.912c0.577-0.225,1.257-0.338,2.036-0.338h10.443
		c0.766,0,1.438,0.109,2.015,0.326c0.577,0.219,1.058,0.518,1.44,0.9s0.672,0.836,0.867,1.361c0.194,0.525,0.292,1.096,0.292,1.711
		s-0.098,1.186-0.292,1.711c-0.195,0.525-0.484,0.975-0.867,1.35s-0.863,0.668-1.44,0.879c-0.577,0.209-1.249,0.314-2.015,0.314
		h-10.443C146.92,29.748,146.24,29.638,145.663,29.421z M157.94,26.236c0.165-0.24,0.247-0.486,0.247-0.742
		c0-0.254-0.082-0.494-0.247-0.721c-0.165-0.225-0.495-0.336-0.99-0.336h-8.058c-0.495,0-0.825,0.111-0.99,0.336
		c-0.165,0.227-0.248,0.467-0.248,0.721c0,0.256,0.083,0.502,0.248,0.742s0.495,0.361,0.99,0.361h8.058
		C157.445,26.597,157.775,26.476,157.94,26.236z M157.67,16.559v3.849h-3.894v-9.949c0-0.63,0.191-1.106,0.574-1.429
		c0.382-0.322,0.837-0.484,1.361-0.484c0.511,0,0.964,0.162,1.362,0.484c0.396,0.322,0.596,0.799,0.596,1.429v2.724h1.014v-2.724
		c0-0.63,0.198-1.106,0.596-1.429c0.398-0.322,0.859-0.484,1.385-0.484c0.51,0,0.967,0.162,1.373,0.484
		c0.404,0.322,0.607,0.799,0.607,1.429v9.949h-3.961v-3.849H157.67z M166.498,28.679c-0.459-0.098-0.811-0.281-1.059-0.553
		c-0.248-0.27-0.412-0.633-0.495-1.092c-0.083-0.457-0.124-1.045-0.124-1.766V12.845c0-0.72,0.041-1.309,0.124-1.767
		c0.083-0.457,0.247-0.821,0.495-1.092c0.248-0.27,0.6-0.453,1.059-0.551c0.457-0.098,1.061-0.146,1.811-0.146h3.017
		c0.75,0,1.351,0.049,1.8,0.146c0.451,0.098,0.8,0.281,1.047,0.551c0.248,0.271,0.413,0.635,0.496,1.092
		c0.082,0.458,0.123,1.047,0.123,1.767v15.981h-6.482C167.559,28.826,166.955,28.777,166.498,28.679z M168.973,12.767
		c-0.082,0.082-0.123,0.273-0.123,0.573v11.433c0,0.301,0.041,0.492,0.123,0.574c0.083,0.082,0.274,0.125,0.574,0.125h1.261V13.34
		c0-0.3-0.042-0.491-0.124-0.573c-0.082-0.083-0.273-0.124-0.574-0.124h-0.563C169.247,12.643,169.056,12.684,168.973,12.767z
		 M180.013,20.384v9.295h-3.916V10.392c0-0.63,0.194-1.095,0.585-1.396c0.391-0.3,0.848-0.45,1.373-0.45
		c0.51,0,0.964,0.15,1.361,0.45c0.398,0.301,0.597,0.766,0.597,1.396v6.302h1.126v-6.279c0-0.63,0.201-1.099,0.607-1.406
		c0.404-0.308,0.869-0.462,1.395-0.462c0.256,0,0.503,0.038,0.743,0.113c0.24,0.074,0.454,0.191,0.642,0.349s0.338,0.353,0.45,0.585
		s0.169,0.507,0.169,0.821v19.265h-4.006v-9.295H180.013z M189.245,20.091c-0.428-0.193-0.784-0.453-1.069-0.775
		s-0.499-0.698-0.641-1.125c-0.143-0.428-0.215-0.866-0.215-1.316v-0.405c0-0.931,0.285-1.685,0.855-2.262
		c0.57-0.578,1.418-0.867,2.543-0.867h4.637v-0.72c0-0.15-0.029-0.259-0.09-0.326s-0.195-0.102-0.405-0.102h-5.964
		c-0.525,0-0.9-0.165-1.125-0.495c-0.226-0.33-0.338-0.675-0.338-1.035c0-0.391,0.115-0.747,0.349-1.069
		c0.232-0.322,0.604-0.483,1.114-0.483h7.787c1.125,0,1.932,0.255,2.42,0.765c0.486,0.511,0.73,1.178,0.73,2.003v4.276h-7.337
		c-0.21,0-0.356,0.053-0.438,0.158c-0.083,0.104-0.124,0.232-0.124,0.382v0.091c0,0.149,0.041,0.273,0.124,0.371
		c0.082,0.098,0.229,0.146,0.438,0.146h7.833c0.51,0,0.881,0.165,1.113,0.495s0.35,0.683,0.35,1.058
		c0,0.375-0.113,0.723-0.338,1.047c-0.225,0.322-0.601,0.482-1.125,0.482h-9.611C190.164,20.384,189.672,20.287,189.245,20.091z
		 M189.988,29.5c-0.413-0.119-0.74-0.307-0.979-0.563c-0.24-0.254-0.409-0.592-0.507-1.012s-0.146-0.932-0.146-1.531v-3.24
		c0-0.766,0.222-1.314,0.664-1.645c0.443-0.33,0.979-0.494,1.609-0.494c0.541,0,1.01,0.123,1.406,0.371
		c0.398,0.248,0.649,0.648,0.754,1.205h10.151c0.12-0.557,0.382-0.957,0.788-1.205c0.404-0.248,0.885-0.371,1.439-0.371
		c0.631,0,1.16,0.164,1.588,0.494c0.427,0.33,0.641,0.879,0.641,1.645v6.525h-15.845C190.922,29.679,190.4,29.621,189.988,29.5z
		 M202.896,25.449h-10.038v0.697c0,0.256,0.037,0.414,0.112,0.473c0.075,0.061,0.24,0.09,0.495,0.09h9.431V25.449z M203.424,9.109
		c0.458-0.376,0.986-0.563,1.587-0.563c0.285,0,0.566,0.049,0.845,0.146c0.277,0.098,0.521,0.24,0.73,0.428
		c0.211,0.188,0.379,0.42,0.507,0.698c0.128,0.277,0.191,0.596,0.191,0.956v9.655h-4.546v-9.655
		C202.738,10.039,202.967,9.484,203.424,9.109z"/>
</g>
</svg>
