<?xml version="1.0" encoding="utf-8"?>
<!-- Generator: Adobe Illustrator 16.0.0, SVG Export Plug-In . SVG Version: 6.00 Build 0)  -->
<!DOCTYPE svg PUBLIC "-//W3C//DTD SVG 1.1//EN" "http://www.w3.org/Graphics/SVG/1.1/DTD/svg11.dtd">
<svg version="1.1" id="레이어_1" xmlns="http://www.w3.org/2000/svg" xmlns:xlink="http://www.w3.org/1999/xlink" x="0px"
	 y="0px" width="253.411px" height="35.558px" viewBox="0 0 253.411 35.558" enable-background="new 0 0 253.411 35.558"
	 xml:space="preserve">
<g>
	<defs>
		<rect id="SVGID_1_" y="0" width="253.411" height="35.558"/>
	</defs>
	<clipPath id="SVGID_2_">
		<use xlink:href="#SVGID_1_"  overflow="visible"/>
	</clipPath>
	<path clip-path="url(#SVGID_2_)" fill="#E47476" d="M243.672,1.881c0,0-1.234-1.882-3.484-1.882H1.381c0,0-2.25,0-1.006,1.875
		l9.311,14.03c0,0,1.244,1.874,0,3.749l-9.311,14.03c0,0-1.244,1.873,1.006,1.873h238.807c0,0,2.25,0,3.484-1.881l9.191-14.016
		c0,0,1.232-1.882,0-3.763L243.672,1.881z"/>
	<path clip-path="url(#SVGID_2_)" fill="#FFFFFF" d="M50.904,20.689c-0.405-0.112-0.724-0.296-0.957-0.551
		c-0.233-0.256-0.394-0.589-0.484-1.002c-0.09-0.413-0.135-0.911-0.135-1.497V11.27c0-0.75,0.21-1.294,0.63-1.632
		c0.42-0.338,0.938-0.506,1.553-0.506c0.63,0,1.125,0.168,1.485,0.506c0.36,0.338,0.541,0.882,0.541,1.632v0.45h4.119v-0.45
		c0-0.765,0.188-1.313,0.563-1.643s0.878-0.495,1.508-0.495c0.63,0,1.145,0.168,1.542,0.506s0.596,0.882,0.596,1.632v9.588h-9.43
		C51.819,20.858,51.309,20.801,50.904,20.689z M52.063,29.5c-0.413-0.12-0.739-0.308-0.979-0.563
		c-0.24-0.255-0.409-0.593-0.506-1.013c-0.097-0.42-0.146-0.931-0.146-1.53v-2.116c0-0.765,0.229-1.328,0.687-1.688
		c0.458-0.36,1.001-0.54,1.631-0.54c0.63,0,1.163,0.18,1.598,0.54C54.782,22.951,55,23.514,55,24.279v1.351
		c0,0.255,0.038,0.413,0.112,0.473c0.075,0.06,0.24,0.09,0.495,0.09h11.793c0.69,0,1.178,0.177,1.463,0.529
		c0.285,0.353,0.427,0.754,0.427,1.204c0,0.465-0.146,0.874-0.438,1.227c-0.293,0.353-0.777,0.528-1.452,0.528H53.627
		C52.997,29.68,52.476,29.621,52.063,29.5z M57.656,14.849h-4.119v2.093c0,0.255,0.038,0.412,0.112,0.473
		c0.075,0.06,0.24,0.09,0.495,0.09h3.511V14.849z M64.768,9.11c0.436-0.376,0.953-0.563,1.553-0.563
		c0.585,0,1.099,0.191,1.542,0.574c0.443,0.383,0.664,0.935,0.664,1.654v3.398h0.698c0.345,0,0.63,0.061,0.855,0.181
		c0.225,0.119,0.405,0.273,0.54,0.461c0.135,0.188,0.232,0.397,0.292,0.63s0.09,0.462,0.09,0.687c0,0.226-0.03,0.454-0.09,0.687
		s-0.158,0.442-0.292,0.63c-0.135,0.188-0.319,0.342-0.551,0.462c-0.233,0.12-0.514,0.18-0.844,0.18h-0.698v6.37h-4.411V10.775
		C64.115,10.04,64.333,9.485,64.768,9.11z M72.143,11.63c0.315-0.646,0.754-1.174,1.317-1.587c0.563-0.412,1.238-0.713,2.025-0.9
		c0.788-0.188,1.662-0.281,2.622-0.281c0.96,0,1.834,0.094,2.622,0.281c0.788,0.188,1.463,0.488,2.026,0.9
		c0.563,0.413,1.001,0.941,1.316,1.587s0.473,1.425,0.473,2.341v0.697c0,0.915-0.158,1.695-0.473,2.341s-0.754,1.174-1.316,1.587
		c-0.563,0.412-1.238,0.713-2.026,0.9c-0.788,0.188-1.662,0.281-2.622,0.281c-0.96,0-1.834-0.094-2.622-0.281
		c-0.788-0.188-1.463-0.488-2.025-0.9c-0.563-0.413-1.001-0.941-1.317-1.587c-0.315-0.646-0.472-1.426-0.472-2.341v-0.697
		C71.671,13.055,71.828,12.276,72.143,11.63z M74.338,29.5c-0.413-0.12-0.739-0.308-0.979-0.563
		c-0.24-0.255-0.409-0.593-0.507-1.013c-0.097-0.42-0.146-0.931-0.146-1.53v-3.579c0-0.765,0.221-1.316,0.664-1.654
		c0.442-0.338,0.979-0.506,1.609-0.506c0.57,0,1.062,0.143,1.474,0.428c0.413,0.284,0.657,0.742,0.731,1.372h10.083
		c0.075-0.63,0.323-1.088,0.743-1.372c0.42-0.285,0.922-0.428,1.508-0.428c0.63,0,1.159,0.168,1.586,0.506
		c0.428,0.338,0.642,0.89,0.642,1.654v6.864H75.902C75.272,29.68,74.75,29.621,74.338,29.5z M76.645,16.143
		c0.375,0.277,0.863,0.416,1.463,0.416s1.088-0.139,1.463-0.416c0.375-0.277,0.563-0.702,0.563-1.271v-1.104
		c0-0.57-0.188-0.994-0.563-1.271c-0.375-0.277-0.863-0.416-1.463-0.416s-1.088,0.139-1.463,0.416s-0.563,0.701-0.563,1.271v1.104
		C76.082,15.441,76.27,15.866,76.645,16.143z M87.245,25.336H77.208v0.788c0,0.255,0.037,0.413,0.112,0.473s0.24,0.09,0.495,0.09
		h9.43V25.336z M87.774,9.11c0.458-0.376,0.986-0.563,1.586-0.563c0.285,0,0.566,0.049,0.844,0.146
		c0.277,0.098,0.521,0.24,0.731,0.428s0.379,0.42,0.506,0.698c0.127,0.277,0.191,0.596,0.191,0.956v9.183h-4.546v-9.183
		C87.088,10.04,87.316,9.485,87.774,9.11z M96.669,16.086c0-0.735,0.188-1.249,0.563-1.542c0.375-0.292,0.871-0.438,1.485-0.438
		c0.601,0,1.088,0.15,1.463,0.45c0.375,0.3,0.563,0.811,0.563,1.53v2.318h5.739c0.69,0,1.178,0.169,1.463,0.507
		c0.285,0.337,0.428,0.738,0.428,1.204c0,0.479-0.146,0.889-0.439,1.227c-0.292,0.337-0.776,0.506-1.452,0.506H95.543
		c-0.675,0-1.163-0.169-1.463-0.506c-0.3-0.338-0.45-0.747-0.45-1.227c0-0.466,0.146-0.867,0.439-1.204
		c0.292-0.338,0.784-0.507,1.474-0.507h1.125V16.086z M94.711,12.148c-0.315-0.345-0.473-0.772-0.473-1.283
		c0-0.465,0.154-0.87,0.461-1.215c0.308-0.346,0.821-0.518,1.542-0.518h8.192c1.05,0,1.793,0.21,2.229,0.63
		c0.435,0.42,0.652,1.027,0.652,1.823v1.958c0,0.825-0.052,1.59-0.157,2.296c-0.105,0.705-0.248,1.275-0.428,1.71h-4.164
		c0.18-0.435,0.312-0.986,0.394-1.654c0.083-0.667,0.124-1.309,0.124-1.924v-0.855c0-0.18-0.038-0.3-0.113-0.36
		c-0.075-0.06-0.21-0.09-0.405-0.09h-6.324C95.536,12.666,95.026,12.493,94.711,12.148z M97.063,29.5
		c-0.413-0.12-0.739-0.308-0.979-0.563c-0.24-0.255-0.409-0.593-0.506-1.013c-0.097-0.42-0.146-0.931-0.146-1.53v-1.418
		c0-0.766,0.229-1.32,0.687-1.666c0.458-0.345,1.001-0.518,1.631-0.518c0.63,0,1.163,0.173,1.598,0.518
		c0.435,0.346,0.653,0.9,0.653,1.666v0.697c0,0.255,0.038,0.413,0.112,0.473c0.075,0.061,0.24,0.09,0.495,0.09h11.793
		c0.69,0,1.178,0.173,1.463,0.518c0.285,0.346,0.427,0.743,0.427,1.193c0,0.465-0.146,0.87-0.438,1.215
		c-0.293,0.346-0.777,0.518-1.452,0.518H98.627C97.997,29.68,97.476,29.621,97.063,29.5z M109.768,9.11
		c0.436-0.376,0.953-0.563,1.553-0.563c0.585,0,1.099,0.191,1.542,0.574c0.443,0.383,0.664,0.935,0.664,1.654v3.398h0.698
		c0.345,0,0.63,0.061,0.855,0.181c0.225,0.119,0.405,0.273,0.54,0.461c0.135,0.188,0.232,0.397,0.292,0.63s0.09,0.462,0.09,0.687
		c0,0.226-0.03,0.454-0.09,0.687s-0.158,0.442-0.292,0.63c-0.135,0.188-0.319,0.342-0.551,0.462c-0.233,0.12-0.514,0.18-0.844,0.18
		h-0.698v6.37h-4.411V10.775C109.115,10.04,109.333,9.485,109.768,9.11z M121.532,24.853c0.15,0.127,0.42,0.191,0.81,0.191h6.64
		c0.345,0,0.637,0.053,0.877,0.157c0.24,0.105,0.439,0.248,0.597,0.428s0.271,0.379,0.337,0.597
		c0.068,0.218,0.102,0.438,0.102,0.664c0,0.465-0.149,0.889-0.449,1.271c-0.301,0.383-0.788,0.573-1.463,0.573h-8.306
		c-0.705,0-1.305-0.067-1.8-0.202s-0.896-0.353-1.204-0.652c-0.308-0.301-0.533-0.694-0.675-1.182
		c-0.143-0.488-0.214-1.084-0.214-1.789v-4.097c0-0.705,0.071-1.298,0.214-1.778c0.143-0.479,0.368-0.87,0.675-1.17
		s0.709-0.514,1.204-0.642s1.095-0.191,1.8-0.191h4.029v-3.264c0-0.149-0.038-0.292-0.112-0.428
		c-0.075-0.135-0.24-0.202-0.496-0.202h-5.176c-0.345,0-0.638-0.053-0.878-0.157c-0.24-0.105-0.435-0.248-0.585-0.428
		c-0.15-0.181-0.263-0.383-0.338-0.607c-0.075-0.226-0.112-0.45-0.112-0.676c0-0.225,0.034-0.45,0.101-0.675
		c0.068-0.226,0.18-0.428,0.338-0.608c0.157-0.18,0.356-0.326,0.596-0.438c0.24-0.112,0.533-0.169,0.878-0.169h6.369
		c0.78,0,1.422,0.061,1.924,0.181c0.503,0.119,0.904,0.314,1.204,0.585c0.3,0.27,0.511,0.622,0.63,1.058
		c0.121,0.436,0.181,0.976,0.181,1.62v7.878h-6.887c-0.39,0-0.66,0.063-0.81,0.191c-0.15,0.127-0.225,0.386-0.225,0.776v2.408
		C121.307,24.466,121.382,24.725,121.532,24.853z M132.133,10.775c0-0.735,0.225-1.29,0.676-1.665
		c0.449-0.376,0.975-0.563,1.574-0.563c0.601,0,1.126,0.188,1.576,0.563c0.45,0.375,0.676,0.93,0.676,1.665V29.68h-4.502V10.775z
		 M140.859,23.199c0.569-0.735,1.027-1.583,1.372-2.543c0.345-0.961,0.593-2.056,0.743-3.286s0.225-2.634,0.225-4.209v-1.756
		c0-0.359,0.064-0.675,0.191-0.945c0.127-0.27,0.297-0.498,0.506-0.687c0.211-0.188,0.451-0.326,0.721-0.416
		s0.555-0.135,0.855-0.135c0.285,0,0.563,0.049,0.832,0.146c0.271,0.098,0.511,0.239,0.721,0.428
		c0.21,0.188,0.379,0.416,0.506,0.686c0.129,0.271,0.191,0.578,0.191,0.923v1.733c0,1.32-0.066,2.565-0.202,3.736
		c0.96,0.36,1.804,0.844,2.532,1.451c0.728,0.608,1.32,1.373,1.777,2.296c0.458,0.923,0.777,2.021,0.957,3.297
		s0.218,2.769,0.113,4.479h-4.39c0.24-1.86,0.202-3.398-0.112-4.614c-0.314-1.215-0.878-2.138-1.688-2.769
		c-0.511,1.726-1.205,3.174-2.082,4.344c-0.878,1.171-1.91,2.094-3.096,2.769c-0.284,0.165-0.577,0.281-0.877,0.349
		c-0.301,0.068-0.593,0.087-0.878,0.057s-0.544-0.102-0.776-0.214s-0.424-0.267-0.574-0.461c-0.15-0.181-0.266-0.387-0.349-0.619
		s-0.116-0.477-0.101-0.731c0.014-0.255,0.086-0.499,0.213-0.731c0.128-0.232,0.318-0.439,0.574-0.619
		C139.591,24.586,140.289,23.934,140.859,23.199z M154.633,10.775c0-0.735,0.225-1.29,0.676-1.665
		c0.449-0.376,0.975-0.563,1.574-0.563c0.601,0,1.126,0.188,1.576,0.563c0.45,0.375,0.676,0.93,0.676,1.665V29.68h-4.502V10.775z
		 M181.195,25.595c0.248,0.113,0.45,0.259,0.607,0.439c0.158,0.18,0.271,0.386,0.338,0.619c0.067,0.232,0.102,0.461,0.102,0.687
		c0,0.239-0.038,0.473-0.113,0.697c-0.074,0.225-0.191,0.428-0.349,0.607c-0.157,0.181-0.356,0.323-0.597,0.428
		c-0.24,0.105-0.532,0.158-0.877,0.158h-17.195c-0.346,0-0.638-0.053-0.878-0.158c-0.24-0.104-0.438-0.247-0.597-0.428
		c-0.157-0.18-0.273-0.383-0.349-0.607s-0.112-0.458-0.112-0.697c0-0.226,0.033-0.454,0.102-0.687
		c0.066-0.233,0.18-0.439,0.337-0.619c0.157-0.181,0.36-0.326,0.608-0.439c0.247-0.112,0.543-0.168,0.889-0.168h17.195
		C180.651,25.427,180.947,25.483,181.195,25.595z M173.666,13.318c0.945,0.03,1.884,0.218,2.814,0.563
		c0.93,0.345,1.77,0.862,2.521,1.553c0.75,0.69,1.376,1.561,1.88,2.61c0.502,1.051,0.806,2.296,0.91,3.736h-4.568
		c-0.105-0.766-0.314-1.452-0.63-2.06s-0.709-1.117-1.182-1.53s-1.009-0.724-1.609-0.934c-0.601-0.211-1.237-0.308-1.913-0.293
		c-0.51,0.705-1.088,1.351-1.732,1.936c-0.646,0.585-1.324,1.088-2.037,1.508s-1.448,0.75-2.206,0.99s-1.504,0.368-2.239,0.383
		c-0.555,0.015-1.035-0.131-1.44-0.438s-0.638-0.739-0.698-1.295c-0.06-0.54,0.053-1.013,0.338-1.418
		c0.285-0.404,0.713-0.667,1.283-0.787c0.734-0.165,1.451-0.442,2.149-0.833c0.698-0.39,1.324-0.882,1.879-1.475
		c0.556-0.592,1.021-1.278,1.396-2.059s0.623-1.644,0.742-2.589c0.091-0.72,0.379-1.249,0.867-1.587
		c0.488-0.337,1.047-0.483,1.677-0.438c0.66,0.061,1.186,0.293,1.575,0.698c0.391,0.404,0.57,0.968,0.541,1.688
		C173.967,11.922,173.861,12.613,173.666,13.318z M185.679,20.419c-0.375-0.098-0.671-0.259-0.89-0.484
		c-0.217-0.225-0.367-0.525-0.449-0.9c-0.083-0.375-0.124-0.848-0.124-1.418v-5.536c0-0.556,0.041-1.021,0.124-1.396
		c0.082-0.375,0.232-0.676,0.449-0.9c0.219-0.225,0.515-0.387,0.89-0.483c0.375-0.098,0.854-0.146,1.44-0.146h5.784
		c0.524,0,0.911,0.157,1.159,0.473c0.248,0.314,0.371,0.683,0.371,1.103c0,0.436-0.123,0.799-0.371,1.092
		c-0.248,0.292-0.635,0.438-1.159,0.438h-3.916c-0.255,0-0.421,0.038-0.495,0.112c-0.075,0.075-0.113,0.24-0.113,0.495v0.541h3.512
		c0.255,0,0.469,0.045,0.641,0.135c0.174,0.09,0.316,0.206,0.428,0.349c0.113,0.143,0.195,0.304,0.248,0.484
		c0.053,0.18,0.078,0.353,0.078,0.518c0,0.33-0.107,0.652-0.326,0.968c-0.217,0.314-0.573,0.473-1.068,0.473h-3.512v0.563
		c0,0.255,0.038,0.42,0.113,0.495c0.074,0.075,0.24,0.112,0.495,0.112h4.569c0.524,0,0.907,0.146,1.146,0.438
		c0.24,0.293,0.361,0.649,0.361,1.069c0,0.436-0.121,0.803-0.361,1.104c-0.239,0.3-0.622,0.449-1.146,0.449h-6.438
		C186.533,20.565,186.054,20.517,185.679,20.419z M186.646,29.512c-0.42-0.113-0.746-0.301-0.979-0.563
		c-0.233-0.262-0.391-0.611-0.473-1.046c-0.083-0.436-0.125-0.983-0.125-1.644v-1.305c0-0.646,0.042-1.189,0.125-1.632
		c0.082-0.443,0.239-0.796,0.473-1.059c0.232-0.262,0.559-0.449,0.979-0.563c0.42-0.112,0.968-0.169,1.643-0.169h12.986
		c0.676,0,1.223,0.057,1.644,0.169c0.42,0.113,0.746,0.301,0.979,0.563c0.232,0.263,0.39,0.615,0.473,1.059
		c0.082,0.442,0.123,0.986,0.123,1.632v4.726h-16.205C187.614,29.68,187.066,29.625,186.646,29.512z M189.595,26.428
		c0.06,0.053,0.188,0.079,0.383,0.079h10.083v-1.306c0-0.21-0.033-0.349-0.102-0.416c-0.067-0.067-0.199-0.102-0.394-0.102h-9.588
		c-0.195,0-0.323,0.034-0.383,0.102s-0.09,0.206-0.09,0.416v0.788C189.505,26.23,189.535,26.375,189.595,26.428z M195.267,16.334
		c-0.556,0-0.968-0.173-1.237-0.518c-0.271-0.346-0.406-0.758-0.406-1.238s0.124-0.893,0.371-1.238
		c0.248-0.345,0.672-0.518,1.272-0.518h0.607v-2.386c0-0.63,0.188-1.103,0.563-1.418c0.375-0.314,0.824-0.473,1.35-0.473
		c0.51,0,0.953,0.158,1.328,0.473c0.375,0.315,0.563,0.788,0.563,1.418v10.264h-3.804v-4.366H195.267z M201.174,9.019
		c0.383-0.314,0.837-0.473,1.362-0.473c0.511,0,0.964,0.158,1.362,0.473c0.396,0.315,0.596,0.788,0.596,1.418v10.264h-3.894V10.437
		C200.601,9.807,200.792,9.334,201.174,9.019z"/>
</g>
</svg>
