<?xml version="1.0" encoding="utf-8"?>
<!-- Generator: Adobe Illustrator 16.0.0, SVG Export Plug-In . SVG Version: 6.00 Build 0)  -->
<!DOCTYPE svg PUBLIC "-//W3C//DTD SVG 1.1//EN" "http://www.w3.org/Graphics/SVG/1.1/DTD/svg11.dtd">
<svg version="1.1" id="레이어_1" xmlns="http://www.w3.org/2000/svg" xmlns:xlink="http://www.w3.org/1999/xlink" x="0px"
	 y="0px" width="1000px" height="108.252px" viewBox="0 0 1000 108.252" enable-background="new 0 0 1000 108.252"
	 xml:space="preserve">
<g>
	<path fill="#FFFFFF" d="M20,0.25C19.802,0.25,0.25,0.485,0.25,20v68.252c0,0.197,0.236,19.75,19.75,19.75h960
		c0.197,0,19.75-0.236,19.75-19.75V20c0-0.198-0.236-19.75-19.75-19.75H20z"/>
</g>
<path fill="#EE787A" d="M411.624,21.074h-10.601v0.722h10.904v2.09h-5.528v0.854h6.516v2.242h-15.844V24.74h6.459v-0.854h-5.395
	v-7.77h13.697v2.146h-10.809v0.722h10.601V21.074z M397.851,30.801c0-1.083,0.627-1.805,1.653-2.299
	c1.292-0.608,3.192-0.836,5.509-0.836c2.299,0,4.236,0.228,5.49,0.836c1.045,0.494,1.672,1.216,1.672,2.299
	s-0.627,1.823-1.672,2.317c-1.254,0.608-3.191,0.817-5.49,0.817c-2.317,0-4.217-0.209-5.509-0.817
	C398.478,32.624,397.851,31.884,397.851,30.801z M400.719,30.801c0,0.247,0.171,0.418,0.475,0.551
	c0.646,0.304,1.995,0.38,3.818,0.38c1.805,0,3.153-0.076,3.799-0.38c0.304-0.133,0.475-0.304,0.475-0.551
	c0-0.229-0.171-0.399-0.475-0.551c-0.646-0.285-1.995-0.361-3.799-0.361c-1.824,0-3.172,0.076-3.818,0.361
	C400.89,30.401,400.719,30.572,400.719,30.801z M424.83,16.933v2.241h-10.125v-2.241h3.667v-1.52h2.907v1.52H424.83z
	 M415.198,22.765c0-0.987,0.418-1.767,1.197-2.317c0.817-0.57,1.995-0.874,3.381-0.874c1.406,0,2.583,0.304,3.4,0.874
	c0.779,0.551,1.197,1.33,1.197,2.317c0,1.007-0.418,1.767-1.197,2.317c-0.817,0.57-1.995,0.874-3.4,0.874
	c-1.387,0-2.564-0.304-3.381-0.874C415.616,24.531,415.198,23.771,415.198,22.765z M419.073,27.97h7.39v-1.387h2.869v7.067h-13.146
	v-7.067h2.887V27.97z M417.934,22.765c0,0.266,0.114,0.513,0.361,0.684c0.323,0.229,0.855,0.361,1.482,0.361
	c0.646,0,1.159-0.133,1.501-0.361c0.228-0.171,0.361-0.418,0.361-0.684s-0.133-0.494-0.361-0.665
	c-0.342-0.247-0.855-0.36-1.501-0.36c-0.627,0-1.159,0.113-1.482,0.36C418.048,22.271,417.934,22.499,417.934,22.765z
	 M426.463,31.39v-1.121h-7.39v1.121H426.463z M426.444,15.926h2.888v3.971h2.413v2.488h-2.413v3.571h-2.888V15.926z M441.114,16.116
	v2.963h3.344v-2.963h2.792v10.163h-8.91V16.116H441.114z M439.252,27.514h2.907v3.629h10.524v2.412h-13.431V27.514z M441.114,23.904
	h3.344v-2.45h-3.344V23.904z M449.511,15.926h2.887v4.521h2.413v2.488h-2.413v5.357h-2.887V15.926z M456.162,20.466
	c0-1.634,0.608-2.906,1.596-3.666c0.817-0.665,1.88-0.988,3.115-0.988c1.254,0,2.318,0.323,3.135,0.988
	c0.988,0.76,1.577,2.032,1.577,3.666c0,1.653-0.589,2.907-1.577,3.686c-0.817,0.646-1.881,0.969-3.135,0.969
	c-1.235,0-2.298-0.322-3.115-0.969C456.771,23.373,456.162,22.119,456.162,20.466z M460.285,27.609h7.561V25.88h2.869v7.771h-13.317
	V25.88h2.888V27.609z M458.955,20.466c0,0.798,0.228,1.406,0.665,1.805c0.323,0.305,0.741,0.456,1.253,0.456
	c0.513,0,0.95-0.151,1.273-0.456c0.437-0.398,0.665-1.007,0.665-1.805c0-0.778-0.228-1.387-0.665-1.785
	c-0.323-0.305-0.76-0.476-1.273-0.476c-0.513,0-0.931,0.171-1.253,0.476C459.183,19.079,458.955,19.688,458.955,20.466z
	 M467.846,31.313v-1.33h-7.561v1.33H467.846z M470.714,15.926v9.327h-2.888v-9.327H470.714z M481.735,26.716h-8.036v-2.412h2.356
	v-3.838h2.849v3.838h3.439c1.443,0,2.298-0.171,2.887-0.589v-7.789h2.888v4.901h2.432v2.432h-2.432v5.319h-2.888v-2.584
	C484.623,26.507,483.597,26.716,481.735,26.716z M480.69,20.162v-1.614h-6.326v-2.432h9.176v3.913c0,0.987-0.095,2.032-0.266,2.982
	h-2.831C480.596,22.062,480.69,21.036,480.69,20.162z M488.403,31.275v2.375h-13.431v-5.775h2.906v3.4H488.403z M500.108,32.32
	h-7.884v-9.347h5.718v-4.313h-5.718v-2.432h8.567v9.176h-5.699v4.502h5.472c1.425,0,2.394-0.209,2.964-0.722v-13.26h2.887V33.46
	h-2.887v-1.976C502.939,32.073,501.761,32.32,500.108,32.32z M514.473,28.844c-0.893,1.653-2.944,3.021-5.072,3.515v-2.546
	c2.033-0.912,3.629-2.432,3.629-7.352v-6.345h2.888v6.345c0,4.92,1.577,6.421,3.647,7.352v2.546
	C517.418,31.864,515.404,30.478,514.473,28.844z M521.388,15.926h2.888V33.46h-2.888V15.926z M543.048,32.738h-15.654v-2.47h15.654
	V32.738z M535.202,22.67c-1.312,1.785-4.027,3.515-7.504,4.065v-2.489c3.875-0.873,6.06-3.077,6.06-6.914v-1.216h2.888v1.216
	c0,3.818,2.128,6.021,6.061,6.914v2.489C539.268,26.185,536.493,24.455,535.202,22.67z M550.459,25.994h-4.863v-9.878h6.668v2.241
	h-3.989v1.577h3.591v2.223h-3.591v1.614h2.299c0.95,0,1.71-0.019,2.47-0.209v2.128C552.264,25.938,551.409,25.994,550.459,25.994z
	 M560.262,33.65h-13.469v-6.517h13.469V33.65z M557.374,31.332v-1.805h-7.693v1.805H557.374z M553.955,22.271h-1.577v-2.47h1.577
	v-3.78h2.603v10.373h-2.603V22.271z M560.262,26.488h-2.697V15.926h2.697V26.488z M574.95,26.868h-6.725v-2.413h15.844v2.413h-6.251
	v2.982h-2.868V26.868z M569.004,19.649c0-1.102,0.438-1.9,1.159-2.47c1.292-0.969,3.477-1.254,6.003-1.254s4.692,0.285,5.984,1.254
	c0.74,0.569,1.178,1.368,1.178,2.47c0,1.063-0.438,1.861-1.178,2.432c-1.292,0.969-3.458,1.272-5.984,1.272
	s-4.711-0.304-6.003-1.272C569.441,21.511,569.004,20.713,569.004,19.649z M569.289,28.217h2.906v2.926h11.095v2.412h-14.001V28.217
	z M571.873,19.649c0,0.322,0.151,0.589,0.456,0.778c0.626,0.456,1.918,0.589,3.837,0.589c1.899,0,3.211-0.133,3.838-0.589
	c0.284-0.189,0.437-0.456,0.437-0.778c0-0.361-0.152-0.627-0.437-0.817c-0.627-0.456-1.938-0.589-3.838-0.589
	c-1.919,0-3.211,0.133-3.837,0.589C572.024,19.022,571.873,19.288,571.873,19.649z M586.39,20.58c0-1.634,0.569-2.906,1.52-3.742
	c0.798-0.665,1.861-1.026,3.153-1.026c1.273,0,2.337,0.361,3.135,1.026c0.209,0.189,0.398,0.38,0.57,0.607h3.286v-1.52h2.888v10.163
	h-2.888v-2.317h-3.324c-0.152,0.209-0.343,0.38-0.532,0.551c-0.798,0.665-1.861,1.026-3.135,1.026c-1.292,0-2.355-0.361-3.153-1.026
	C586.959,23.506,586.39,22.214,586.39,20.58z M587.415,30.003c0-1.216,0.608-2.09,1.558-2.698c1.33-0.873,3.363-1.178,5.414-1.178
	c2.033,0,4.085,0.305,5.415,1.178c0.931,0.608,1.538,1.482,1.538,2.698s-0.607,2.09-1.538,2.717
	c-1.33,0.873-3.382,1.158-5.415,1.158c-2.051,0-4.084-0.285-5.414-1.158C588.023,32.093,587.415,31.219,587.415,30.003z
	 M589.163,20.58c0,0.836,0.228,1.481,0.646,1.881c0.305,0.323,0.723,0.494,1.254,0.494c0.513,0,0.931-0.171,1.235-0.494
	c0.418-0.399,0.627-1.045,0.627-1.881s-0.209-1.463-0.627-1.881c-0.305-0.323-0.723-0.475-1.235-0.475
	c-0.531,0-0.949,0.151-1.254,0.475C589.391,19.117,589.163,19.744,589.163,20.58z M590.303,30.003c0,0.398,0.209,0.646,0.57,0.874
	c0.74,0.455,2.07,0.589,3.514,0.589c1.426,0,2.774-0.134,3.496-0.589c0.38-0.229,0.57-0.476,0.57-0.874
	c0-0.38-0.19-0.646-0.57-0.874c-0.722-0.438-2.07-0.589-3.496-0.589c-1.443,0-2.773,0.151-3.514,0.589
	C590.512,29.356,590.303,29.623,590.303,30.003z M595.679,19.801c0.02,0.247,0.038,0.514,0.038,0.779
	c0,0.285-0.019,0.57-0.057,0.836h2.394v-1.615H595.679z"/>
<g>
	<circle fill="none" stroke="#EF787A" stroke-width="3.6" cx="39.245" cy="74.469" r="6.357"/>
</g>
<path fill="#231815" d="M58.336,78.988h-4.92V66.749h4.92V78.988z M57.167,77.968V67.783h-2.595v10.185H57.167z M64.336,79.934
	h-1.17v-6.84h-1.965v6.689h-1.17V66.584h1.17v5.459h1.965v-5.534h1.17V79.934z M74.042,73.528h-6.27v-3.96h5.174v-1.89h-5.174
	v-1.021h6.375v3.915h-5.175v1.965h5.34c1.35,0,2.385-0.21,3.075-0.75v-5.279h1.2v7.5h-1.2v-1.261
	C76.711,73.304,75.602,73.528,74.042,73.528z M77.386,76.438v-1.545h1.2v5.189h-9.975v-5.189h1.215v1.545H77.386z M77.386,77.458
	h-7.56v1.605h7.56V77.458z M81.992,66.658h6.825v1.051h-2.82v0.96c0,2.265,1.44,3.449,3.06,3.824v1.08
	c-1.62-0.345-3-1.305-3.63-2.564c-0.615,1.29-1.995,2.43-3.66,2.744v-1.079c1.665-0.375,3.03-1.71,3.03-4.005v-0.96h-2.805V66.658z
	 M82.592,77.488c0-0.78,0.375-1.395,1.005-1.83c0.93-0.66,2.415-0.975,4.185-0.975s3.255,0.314,4.17,0.975
	c0.63,0.436,1.005,1.05,1.005,1.83s-0.375,1.395-1.005,1.845c-0.915,0.646-2.4,0.93-4.17,0.93s-3.255-0.284-4.185-0.93
	C82.967,78.883,82.592,78.269,82.592,77.488z M83.807,77.488c0,0.42,0.225,0.795,0.645,1.08c0.645,0.45,1.815,0.66,3.33,0.66
	c1.5,0,2.67-0.21,3.345-0.66c0.405-0.285,0.615-0.66,0.615-1.08c0-0.435-0.21-0.81-0.615-1.08c-0.675-0.45-1.845-0.675-3.345-0.675
	c-1.515,0-2.685,0.225-3.33,0.675C84.032,76.679,83.807,77.054,83.807,77.488z M92.611,66.509v3.12h2.055v1.064h-2.055v3.45h-1.2
	v-7.635H92.611z M100.937,66.658h6.81v1.051h-2.805v1.635c0,2.279,1.425,3.449,3.045,3.84v1.064c-1.62-0.33-3-1.29-3.615-2.55
	c-0.615,1.275-1.995,2.415-3.66,2.73v-1.065c1.665-0.375,3.03-1.71,3.03-4.02v-1.635h-2.805V66.658z M112.006,79.993h-10.229v-4.395
	h1.215v3.359h9.015V79.993z M111.751,75.854h-1.2v-5.055h-3.015v-1.035h3.015v-3.255h1.2V75.854z M119.657,66.749h7.214v1.05h-3.015
	v4.229c0,3.435,1.545,5.1,3.12,5.865v1.109c-1.71-0.675-3.15-2.145-3.735-3.765c-0.555,1.62-2.055,3.12-3.735,3.765v-1.109
	c1.53-0.735,3.135-2.431,3.135-5.865v-4.229h-2.985V66.749z M130.472,66.509v13.409h-1.215V66.509H130.472z M133.922,70.063
	c0-1.2,0.375-2.16,1.05-2.79c0.6-0.555,1.425-0.854,2.415-0.854c0.99,0,1.815,0.3,2.4,0.854c0.225,0.21,0.42,0.465,0.585,0.75h3.345
	v-1.515h1.2v7.694h-1.2v-2.175h-3.3c-0.165,0.315-0.375,0.601-0.63,0.825c-0.585,0.555-1.41,0.854-2.4,0.854
	c-0.99,0-1.815-0.3-2.415-0.854C134.297,72.238,133.922,71.264,133.922,70.063z M143.717,80.158v-3.75h-8.939v-1.05h10.139v4.8
	H143.717z M135.092,70.063c0,0.87,0.24,1.56,0.705,2.01c0.39,0.375,0.915,0.601,1.59,0.601c0.66,0,1.2-0.226,1.59-0.601
	c0.45-0.45,0.69-1.14,0.69-2.01c0-0.885-0.24-1.575-0.69-2.024c-0.39-0.36-0.93-0.57-1.59-0.57c-0.675,0-1.2,0.21-1.59,0.57
	C135.332,68.488,135.092,69.179,135.092,70.063z M140.747,69.059c0.075,0.315,0.105,0.645,0.105,1.005c0,0.33-0.03,0.646-0.09,0.93
	h2.955v-1.935H140.747z M154.532,69.974v1.38h9.149v0.96h-4.635v1.395h5.46v0.99h-12.089v-0.99h5.415v-1.395h-4.5v-5.655h10.26v0.99
	h-9.06v1.365h8.895v0.96H154.532z M153.063,78.133c0-0.689,0.405-1.17,1.095-1.515c0.93-0.479,2.445-0.689,4.32-0.689
	s3.39,0.21,4.32,0.689c0.69,0.345,1.095,0.825,1.095,1.515c0,0.69-0.405,1.2-1.095,1.53c-0.93,0.48-2.445,0.675-4.32,0.675
	s-3.39-0.194-4.32-0.675C153.467,79.333,153.063,78.823,153.063,78.133z M154.277,78.133c0,0.301,0.18,0.525,0.495,0.69
	c0.675,0.375,1.98,0.54,3.705,0.54c1.74,0,3.015-0.165,3.69-0.54c0.345-0.165,0.51-0.39,0.51-0.69c0-0.27-0.165-0.51-0.51-0.689
	c-0.675-0.36-1.95-0.525-3.69-0.525c-1.725,0-3.03,0.165-3.705,0.525C154.457,77.623,154.277,77.863,154.277,78.133z
	 M166.607,68.504v-0.99h3.24v-1.425h1.185v1.425h3.195v0.99H166.607z M167.027,71.698c0-0.66,0.285-1.17,0.75-1.545
	c0.63-0.51,1.575-0.779,2.64-0.779c1.08,0,2.025,0.27,2.655,0.779c0.465,0.375,0.75,0.885,0.75,1.545s-0.285,1.17-0.75,1.561
	c-0.63,0.494-1.575,0.765-2.655,0.765c-1.065,0-2.01-0.271-2.64-0.765C167.313,72.868,167.027,72.358,167.027,71.698z
	 M176.507,76.453v-1.53h1.2v5.16h-9.84v-5.16h1.2v1.53H176.507z M168.197,71.698c0,0.33,0.12,0.615,0.36,0.825
	c0.405,0.345,1.095,0.54,1.86,0.54c0.78,0,1.47-0.195,1.86-0.54c0.255-0.21,0.375-0.495,0.375-0.825c0-0.314-0.12-0.6-0.375-0.81
	c-0.39-0.36-1.08-0.555-1.86-0.555c-0.765,0-1.455,0.194-1.86,0.555C168.317,71.099,168.197,71.384,168.197,71.698z M176.507,77.458
	h-7.439v1.605h7.439V77.458z M177.707,66.509v3.345h2.055v1.065h-2.055v3.104h-1.2v-7.515H177.707z M192.107,66.509v4.08h2.07v1.05
	h-2.07v4.455h-1.2v-2.415c-0.645,0.479-1.665,0.705-3.195,0.705h-6.54v-1.065h2.37v-3.285h1.2v3.285h3.255
	c1.29,0,2.355-0.27,2.91-0.645v-6.165H192.107z M187.262,69.313v-1.59h-5.475v-1.065h6.675v2.61c0,0.854-0.075,1.725-0.225,2.445
	h-1.2C187.187,70.993,187.262,70.123,187.262,69.313z M192.362,80.083h-10.094v-4.035h1.2v2.985h8.895V80.083z M202.157,78.988
	h-5.97v-6.705h4.92v-4.484h-4.92v-1.05h6.105v6.584h-4.92v4.62h4.995c1.365,0,2.565-0.36,3.255-1.005V66.509h1.215v13.409h-1.215
	v-1.965C204.962,78.628,203.657,78.988,202.157,78.988z"/>
<g>
	<circle fill="none" stroke="#EF787A" stroke-width="4" cx="235.382" cy="73.563" r="7.063"/>
</g>
<path fill="#231815" d="M255.38,78.988h-4.92V66.749h4.92V78.988z M254.209,77.968V67.783h-2.595v10.185H254.209z M261.379,79.934
	h-1.17v-6.84h-1.965v6.689h-1.17V66.584h1.17v5.459h1.965v-5.534h1.17V79.934z M271.085,73.528h-6.27v-3.96h5.175v-1.89h-5.175
	v-1.021h6.375v3.915h-5.175v1.965h5.34c1.35,0,2.385-0.21,3.075-0.75v-5.279h1.2v7.5h-1.2v-1.261
	C273.754,73.304,272.645,73.528,271.085,73.528z M274.43,76.438v-1.545h1.2v5.189h-9.975v-5.189h1.215v1.545H274.43z M274.43,77.458
	h-7.56v1.605h7.56V77.458z M279.035,66.658h6.825v1.051h-2.82v0.96c0,2.265,1.44,3.449,3.06,3.824v1.08
	c-1.62-0.345-3-1.305-3.63-2.564c-0.615,1.29-1.995,2.43-3.66,2.744v-1.079c1.665-0.375,3.03-1.71,3.03-4.005v-0.96h-2.805V66.658z
	 M279.635,77.488c0-0.78,0.375-1.395,1.005-1.83c0.93-0.66,2.415-0.975,4.185-0.975s3.255,0.314,4.17,0.975
	c0.63,0.436,1.005,1.05,1.005,1.83s-0.375,1.395-1.005,1.845c-0.915,0.646-2.4,0.93-4.17,0.93s-3.255-0.284-4.185-0.93
	C280.01,78.883,279.635,78.269,279.635,77.488z M280.85,77.488c0,0.42,0.225,0.795,0.645,1.08c0.645,0.45,1.815,0.66,3.33,0.66
	c1.5,0,2.67-0.21,3.345-0.66c0.405-0.285,0.615-0.66,0.615-1.08c0-0.435-0.21-0.81-0.615-1.08c-0.675-0.45-1.845-0.675-3.345-0.675
	c-1.515,0-2.685,0.225-3.33,0.675C281.075,76.679,280.85,77.054,280.85,77.488z M289.655,66.509v3.12h2.055v1.064h-2.055v3.45h-1.2
	v-7.635H289.655z M297.98,66.658h6.81v1.051h-2.805v1.635c0,2.279,1.425,3.449,3.045,3.84v1.064c-1.62-0.33-3-1.29-3.615-2.55
	c-0.615,1.275-1.995,2.415-3.66,2.73v-1.065c1.665-0.375,3.03-1.71,3.03-4.02v-1.635h-2.805V66.658z M309.05,79.993H298.82v-4.395
	h1.215v3.359h9.015V79.993z M308.795,75.854h-1.2v-5.055h-3.015v-1.035h3.015v-3.255h1.2V75.854z M312.425,68.233h2.1v-2.145h1.17
	v2.145h2.085v1.05h-2.085v3.735c0,2.984,0.96,4.245,2.25,4.875v1.109c-1.44-0.54-2.43-1.694-2.85-2.925
	c-0.39,1.245-1.395,2.37-2.82,2.91v-1.095c1.26-0.66,2.25-1.875,2.25-4.875v-3.735h-2.1V68.233z M317.105,73.438v-1.05h2.205v-5.805
	h1.17v13.199h-1.17v-6.345H317.105z M323.345,79.918h-1.17V66.509h1.17V79.918z M330.771,76.408v-1.064h11.939v1.064h-5.385v3.75
	h-1.215v-3.75H330.771z M341.975,73.019H331.49v-6.36h10.485V73.019z M340.775,71.953v-4.229h-8.084v4.229H340.775z M349.43,66.584
	v2.385c0,2.31,1.47,3.63,3.18,4.17v1.08c-1.74-0.466-3.165-1.545-3.795-2.79c-0.525,1.274-1.965,2.46-3.795,2.955v-1.096
	c1.77-0.555,3.195-2.055,3.195-4.319v-2.385H349.43z M356.615,79.993h-10.23v-4.395h1.215v3.359h9.015V79.993z M356.36,75.854h-1.2
	v-5.64h-3.165v-1.051h3.165v-2.654h1.2V75.854z M364.146,66.749h7.2v1.05h-3.015v4.229c0,3.435,1.575,5.1,3.15,5.865v1.109
	c-1.74-0.675-3.165-2.145-3.735-3.765c-0.57,1.62-2.055,3.12-3.75,3.765v-1.109c1.545-0.735,3.135-2.431,3.135-5.865v-4.229h-2.985
	V66.749z M374.75,66.509v5.64h2.19v1.05h-2.19v6.735h-1.2V66.509H374.75z M383.931,69.584v-1.785h-5.22v-1.05h6.42v2.715
	c0,5.13-2.04,8.444-6.51,9.629v-1.125C382.206,76.918,383.931,74.023,383.931,69.584z M389.15,66.509v5.64h2.19v1.05h-2.19v6.735
	h-1.2V66.509H389.15z M408.005,79.123l3.255-11.76h-1.35l-2.73,9.945l-2.85-9.945h-1.29l-2.85,9.945l-2.729-9.945h-1.35l3.24,11.76
	h1.56l2.775-9.614l2.76,9.614H408.005z M413.841,68.999v-1.636h-1.245v1.636H413.841z M413.841,79.123v-8.399h-1.245v8.399H413.841z
	 M415.731,74.203h4.95v-1.109h-4.95V74.203z M422.646,79.123h1.305v-5.279h4.875v-1.141h-4.875v-4.199h5.4v-1.141h-6.705V79.123z
	 M432.171,68.999v-1.636h-1.245v1.636H432.171z M432.171,79.123v-8.399h-1.245v8.399H432.171z M434.661,73.153v-6.495h6.435v6.495
	H434.661z M435.261,77.488c0-0.78,0.375-1.395,1.005-1.83c0.93-0.66,2.415-0.975,4.185-0.975c1.77,0,3.255,0.314,4.169,0.975
	c0.63,0.436,1.005,1.05,1.005,1.83s-0.375,1.395-1.005,1.845c-0.915,0.646-2.4,0.93-4.169,0.93c-1.77,0-3.255-0.284-4.185-0.93
	C435.636,78.883,435.261,78.269,435.261,77.488z M439.911,67.709h-4.065v4.409h4.065V67.709z M436.476,77.488
	c0,0.42,0.225,0.795,0.645,1.08c0.645,0.45,1.815,0.66,3.33,0.66c1.5,0,2.669-0.21,3.345-0.66c0.405-0.285,0.615-0.66,0.615-1.08
	c0-0.435-0.21-0.81-0.615-1.08c-0.675-0.45-1.845-0.675-3.345-0.675c-1.515,0-2.685,0.225-3.33,0.675
	C436.701,76.679,436.476,77.054,436.476,77.488z M445.28,66.509v3.12h2.055v1.064h-2.055v3.45h-1.2v-7.635H445.28z M453.231,75.733
	v-1.065h11.939v1.065h-5.385v4.425h-1.215v-4.425H453.231z M463.235,69.748v-2.024h-9.359v-1.065h10.56v2.971
	c0,1.305-0.12,2.685-0.33,3.63h-1.2C463.13,72.283,463.235,70.934,463.235,69.748z M467.556,74.474v-1.035h12.089v1.035h-5.444
	v1.965h4.529v3.72h-1.2v-2.7h-9.165v-1.02h4.62v-1.965H467.556z M468.471,68.443v-1.005h4.5v-1.439h1.215v1.439h4.545v1.005h-4.529
	c0.18,1.455,2.685,2.58,4.694,2.715v1.021c-2.145-0.12-4.365-1.155-5.31-2.385c-0.96,1.274-3.195,2.279-5.325,2.385v-1.021
	c1.995-0.12,4.515-1.26,4.695-2.715H468.471z"/>
<g>
	<circle fill="none" stroke="#EF787A" stroke-width="4" cx="507.319" cy="73.563" r="7.063"/>
</g>
<path fill="#231815" d="M522.352,67.754h2.806v-1.665h1.199v1.665h2.806v1.05h-2.806v0.18c0,2.235,1.426,3.465,3.045,3.825v1.095
	c-1.619-0.36-2.999-1.32-3.614-2.564c-0.615,1.274-1.995,2.414-3.66,2.744v-1.095c1.665-0.375,3.03-1.74,3.03-4.005v-0.18h-2.806
	V67.754z M523.192,80.083v-4.859h9.975v4.859H523.192z M531.967,76.258h-7.56v2.79h7.56V76.258z M533.167,74.188h-1.2v-3.105h-2.925
	v-1.05h2.925v-3.524h1.2V74.188z M542.662,73.783h-6.09v-7.125h6.435v1.065h-5.234v5.024h5.175c1.335,0,2.354-0.21,3.045-0.734
	v-5.505h1.199v3.795h2.056v1.064h-2.056v4.485h-1.199v-2.835C545.316,73.559,544.207,73.783,542.662,73.783z M538.552,75.599v3.359
	h8.895v1.035h-10.094v-4.395H538.552z M556.372,67.363h-1.305v11.76h1.305V67.363z M557.782,68.504h3.435v10.619h1.306V68.504h3.435
	v-1.141h-8.175V68.504z M577.402,69.584v-1.785h-5.101v-1.05h6.3v2.715c0,5.085-1.979,8.459-6.39,9.629v-1.125
	C575.707,76.918,577.402,73.993,577.402,69.584z M582.951,66.509v13.409h-1.215V66.509H582.951z M587.587,69.358h4.065v-2.7h1.185
	v7.485h-6.435v-7.485h1.185V69.358z M588.382,75.778v3.18h8.895v1.035h-10.094v-4.215H588.382z M591.652,73.108v-2.715h-4.065v2.715
	H591.652z M597.021,66.509v3.825h2.056v1.064h-2.056v4.545h-1.199v-9.435H597.021z M611.752,79.934h-1.215v-1.65
	c-0.75,0.66-2.146,0.87-3.855,0.87h-6.029v-1.05h6.465c1.32,0,2.609-0.181,3.42-0.855V66.509h1.215V79.934z M601.133,70.724
	c0-1.44,0.42-2.58,1.244-3.3c0.585-0.54,1.44-0.84,2.4-0.84s1.8,0.3,2.399,0.84c0.825,0.72,1.245,1.859,1.245,3.3
	c0,1.425-0.42,2.564-1.245,3.3c-0.6,0.54-1.439,0.825-2.399,0.825s-1.815-0.285-2.4-0.825
	C601.553,73.288,601.133,72.148,601.133,70.724z M602.348,70.724c0,1.08,0.255,1.979,0.81,2.505c0.405,0.375,0.945,0.57,1.62,0.57
	c0.66,0,1.215-0.195,1.604-0.57c0.57-0.525,0.84-1.425,0.84-2.505s-0.27-1.98-0.84-2.505c-0.39-0.391-0.944-0.57-1.604-0.57
	c-0.675,0-1.215,0.18-1.62,0.57C602.603,68.743,602.348,69.644,602.348,70.724z M621.412,69.974v1.38h9.149v0.96h-4.635v1.395h5.46
	v0.99h-12.089v-0.99h5.414v-1.395h-4.499v-5.655h10.259v0.99h-9.06v1.365h8.895v0.96H621.412z M619.942,78.133
	c0-0.689,0.405-1.17,1.095-1.515c0.93-0.479,2.445-0.689,4.32-0.689s3.39,0.21,4.319,0.689c0.69,0.345,1.095,0.825,1.095,1.515
	c0,0.69-0.404,1.2-1.095,1.53c-0.93,0.48-2.444,0.675-4.319,0.675s-3.391-0.194-4.32-0.675
	C620.348,79.333,619.942,78.823,619.942,78.133z M621.157,78.133c0,0.301,0.18,0.525,0.495,0.69c0.675,0.375,1.979,0.54,3.705,0.54
	c1.739,0,3.015-0.165,3.689-0.54c0.345-0.165,0.51-0.39,0.51-0.69c0-0.27-0.165-0.51-0.51-0.689c-0.675-0.36-1.95-0.525-3.689-0.525
	c-1.726,0-3.03,0.165-3.705,0.525C621.337,77.623,621.157,77.863,621.157,78.133z M633.487,68.504v-0.99h3.24v-1.425h1.185v1.425
	h3.195v0.99H633.487z M633.907,71.698c0-0.66,0.285-1.17,0.75-1.545c0.63-0.51,1.575-0.779,2.641-0.779
	c1.079,0,2.024,0.27,2.654,0.779c0.465,0.375,0.75,0.885,0.75,1.545s-0.285,1.17-0.75,1.561c-0.63,0.494-1.575,0.765-2.654,0.765
	c-1.065,0-2.011-0.271-2.641-0.765C634.192,72.868,633.907,72.358,633.907,71.698z M643.387,76.453v-1.53h1.2v5.16h-9.84v-5.16h1.2
	v1.53H643.387z M635.077,71.698c0,0.33,0.12,0.615,0.36,0.825c0.405,0.345,1.095,0.54,1.86,0.54c0.779,0,1.47-0.195,1.859-0.54
	c0.255-0.21,0.375-0.495,0.375-0.825c0-0.314-0.12-0.6-0.375-0.81c-0.39-0.36-1.08-0.555-1.859-0.555
	c-0.766,0-1.455,0.194-1.86,0.555C635.197,71.099,635.077,71.384,635.077,71.698z M643.387,77.458h-7.439v1.605h7.439V77.458z
	 M644.587,66.509v3.345h2.055v1.065h-2.055v3.104h-1.2v-7.515H644.587z M652.162,70.769v-2.97h-3.569v-1.05h4.77v3.045h2.07v-3.21
	h1.17v13.199h-1.17v-4.32h-2.355v-1.05h2.355v-3.555h-2.07c-0.03,4.335-1.604,7.229-4.95,8.234v-1.17
	C650.768,77.113,652.162,74.684,652.162,70.769z M659.512,79.918h-1.17V66.509h1.17V79.918z M668.857,73.873h-6.09v-4.14h5.145
	v-2.055h-5.145v-1.021h6.359v4.08h-5.159v2.115h5.175c1.335,0,2.354-0.21,3.045-0.735v-5.609h1.2v1.83h1.979v1.05h-1.979v1.995
	h1.979v1.064h-1.979v2.235h-1.2v-1.605C671.513,73.648,670.402,73.873,668.857,73.873z M663.367,77.788
	c0-0.72,0.375-1.274,1.021-1.665c0.899-0.569,2.34-0.825,4.17-0.825c1.814,0,3.27,0.256,4.17,0.825
	c0.645,0.391,1.005,0.945,1.005,1.665s-0.36,1.275-1.005,1.68c-0.9,0.556-2.355,0.795-4.17,0.795c-1.83,0-3.271-0.239-4.17-0.795
	C663.742,79.063,663.367,78.508,663.367,77.788z M664.583,77.788c0,0.33,0.165,0.646,0.524,0.87c0.646,0.39,1.845,0.585,3.45,0.585
	c1.604,0,2.79-0.195,3.435-0.585c0.36-0.225,0.525-0.54,0.525-0.87c0-0.345-0.165-0.63-0.525-0.854
	c-0.645-0.405-1.83-0.585-3.435-0.585c-1.605,0-2.805,0.18-3.45,0.585C664.748,77.158,664.583,77.443,664.583,77.788z
	 M681.022,78.988h-3.63V66.749h4.695v1.05h-3.525v10.154h2.67c1.215,0,2.16-0.27,2.775-0.81v-10.56h1.17v5.459h1.965v-5.534h1.17
	v13.425h-1.17v-6.84h-1.965v6.689h-1.17v-1.65C683.407,78.718,682.388,78.988,681.022,78.988z M695.663,74.533v-1.05h12.089v1.05
	h-5.294v2.655h-1.2v-2.655H695.663z M696.308,69.193c0-0.779,0.33-1.38,0.945-1.785c0.93-0.659,2.52-0.899,4.47-0.899
	c1.965,0,3.525,0.24,4.47,0.899c0.615,0.405,0.945,1.006,0.945,1.785c0,0.78-0.33,1.365-0.945,1.8c-0.944,0.66-2.505,0.9-4.47,0.9
	c-1.95,0-3.54-0.24-4.47-0.9C696.638,70.559,696.308,69.974,696.308,69.193z M697.777,76.198v2.76h9.33v1.035h-10.529v-3.795
	H697.777z M697.522,69.193c0,0.436,0.195,0.795,0.601,1.065c0.645,0.435,1.875,0.614,3.6,0.614s2.939-0.18,3.6-0.614
	c0.405-0.271,0.601-0.63,0.601-1.065c0-0.45-0.195-0.795-0.601-1.05c-0.66-0.435-1.875-0.63-3.6-0.63s-2.955,0.195-3.6,0.63
	C697.718,68.398,697.522,68.743,697.522,69.193z M710.333,69.898c0-1.155,0.375-2.07,1.05-2.655
	c0.601-0.524,1.425-0.824,2.415-0.824c0.975,0,1.815,0.3,2.399,0.824c0.211,0.181,0.405,0.405,0.556,0.66h3.375v-1.395h1.199v7.71
	h-1.199v-2.311h-3.375c-0.165,0.24-0.345,0.465-0.556,0.66c-0.584,0.525-1.425,0.825-2.399,0.825c-0.99,0-1.814-0.3-2.415-0.825
	C710.708,71.953,710.333,71.068,710.333,69.898z M716.378,80.263c-1.635,0-3.15-0.225-4.125-0.869
	c-0.69-0.436-1.11-1.065-1.11-1.905s0.42-1.47,1.11-1.92c0.975-0.63,2.49-0.885,4.125-0.885s3.165,0.255,4.14,0.885
	c0.675,0.45,1.11,1.08,1.11,1.92s-0.436,1.47-1.11,1.905C719.543,80.038,718.013,80.263,716.378,80.263z M711.503,69.898
	c0,0.795,0.24,1.425,0.675,1.86c0.405,0.375,0.945,0.585,1.62,0.585c0.66,0,1.215-0.21,1.604-0.585
	c0.436-0.436,0.676-1.065,0.676-1.86s-0.24-1.425-0.676-1.845c-0.39-0.375-0.944-0.585-1.604-0.585c-0.675,0-1.215,0.21-1.62,0.585
	C711.743,68.474,711.503,69.104,711.503,69.898z M716.378,75.733c-1.396,0-2.655,0.21-3.39,0.675
	c-0.391,0.271-0.631,0.63-0.631,1.08c0,0.435,0.24,0.795,0.631,1.064c0.734,0.466,1.994,0.676,3.39,0.676
	c1.395,0,2.67-0.21,3.39-0.676c0.42-0.27,0.66-0.63,0.66-1.064c0-0.45-0.24-0.81-0.66-1.08
	C719.048,75.943,717.772,75.733,716.378,75.733z M717.158,68.924c0.074,0.3,0.104,0.63,0.104,0.975c0,0.36-0.03,0.69-0.104,0.99
	h2.97v-1.965H717.158z"/>
<g>
	<circle fill="none" stroke="#EF787A" stroke-width="4" cx="749.826" cy="73.563" r="7.063"/>
</g>
<path fill="#231815" d="M775.689,74.158h-4.605v4.125h5.34v1.05h-11.939v-1.05h5.385v-4.125h-4.665v-7.409h10.485V74.158z
	 M774.489,73.094v-5.295h-8.085v5.295H774.489z M780.46,71.684h4.02v-4.935h1.2v12.239h-6.42V66.749h1.2V71.684z M784.479,77.953
	v-5.22h-4.02v5.22H784.479z M789.699,66.509v5.64h2.189v1.05h-2.189v6.735h-1.2V66.509H789.699z M793.479,69.584
	c0-1.065,0.436-1.875,1.125-2.431c0.601-0.479,1.425-0.734,2.355-0.734c0.93,0,1.755,0.255,2.354,0.734
	c0.69,0.556,1.125,1.365,1.125,2.431c0,1.05-0.435,1.874-1.125,2.43c-0.6,0.479-1.425,0.734-2.354,0.734
	c-0.931,0-1.755-0.255-2.355-0.734C793.915,71.458,793.479,70.634,793.479,69.584z M795.715,77.533v1.575h8.939v0.975H794.5v-3.54
	h8.774v-1.56H794.5v-0.99h9.975v3.54H795.715z M794.649,69.584c0,0.689,0.255,1.229,0.69,1.604c0.404,0.36,0.96,0.54,1.62,0.54
	c0.645,0,1.215-0.18,1.619-0.54c0.421-0.375,0.676-0.915,0.676-1.604c0-0.69-0.255-1.23-0.676-1.605
	c-0.404-0.345-0.975-0.54-1.619-0.54c-0.66,0-1.216,0.195-1.62,0.54C794.904,68.354,794.649,68.894,794.649,69.584z M804.475,72.913
	h-1.2v-6.404h1.2V72.913z M817.645,69.584v-1.785h-5.1v-1.05h6.3v2.715c0,5.085-1.98,8.459-6.39,9.629v-1.125
	C815.949,76.918,817.645,73.993,817.645,69.584z M823.194,66.509v13.409h-1.215V66.509H823.194z M827.83,69.358h4.064v-2.7h1.186
	v7.485h-6.436v-7.485h1.186V69.358z M828.625,75.778v3.18h8.895v1.035h-10.095v-4.215H828.625z M831.895,73.108v-2.715h-4.064v2.715
	H831.895z M837.265,66.509v3.825h2.055v1.064h-2.055v4.545h-1.2v-9.435H837.265z M851.994,79.934h-1.215v-1.65
	c-0.75,0.66-2.145,0.87-3.854,0.87h-6.029v-1.05h6.464c1.32,0,2.61-0.181,3.42-0.855V66.509h1.215V79.934z M841.375,70.724
	c0-1.44,0.42-2.58,1.245-3.3c0.585-0.54,1.439-0.84,2.399-0.84s1.801,0.3,2.4,0.84c0.825,0.72,1.245,1.859,1.245,3.3
	c0,1.425-0.42,2.564-1.245,3.3c-0.6,0.54-1.44,0.825-2.4,0.825s-1.814-0.285-2.399-0.825
	C841.795,73.288,841.375,72.148,841.375,70.724z M842.59,70.724c0,1.08,0.255,1.979,0.811,2.505c0.404,0.375,0.944,0.57,1.619,0.57
	c0.66,0,1.215-0.195,1.605-0.57c0.57-0.525,0.84-1.425,0.84-2.505s-0.27-1.98-0.84-2.505c-0.391-0.391-0.945-0.57-1.605-0.57
	c-0.675,0-1.215,0.18-1.619,0.57C842.845,68.743,842.59,69.644,842.59,70.724z M860.905,77.983V67.769h-1.035v-1.02h5.97v1.02h-0.96
	v6.24c0,1.439-0.06,2.954-0.255,3.975c0.615-0.03,1.26-0.12,1.74-0.315v0.976c-0.525,0.255-1.335,0.345-2.07,0.345h-4.604v-1.005
	H860.905z M863.74,74.594v-6.825h-1.695v10.215h1.485C863.68,77.054,863.74,75.778,863.74,74.594z M868.21,79.783h-1.125v-4.62
	H865.6v-1.05h1.485v-2.865H865.6v-1.05h1.485v-3.614h1.125V79.783z M870.955,79.918H869.8V66.509h1.155V79.918z M879.61,69.584
	v-1.785h-5.101v-1.05h6.3v2.715c0,5.085-1.979,8.459-6.39,9.629v-1.125C877.915,76.918,879.61,73.993,879.61,69.584z M885.16,66.509
	v13.409h-1.215V66.509H885.16z M888.341,72.913v-1.034h12.089v1.034h-5.46v1.516h4.545v3.329h-9.06v1.351h9.39v0.975h-10.589v-3.314
	h9.059v-1.365h-9.059v-0.975h4.515v-1.516H888.341z M899.515,70.559h-10.259v-3.9h10.259V70.559z M898.314,69.568v-1.904h-7.859
	v1.904H898.314z M910.21,66.089h1.2v2.069h3.27v1.051h-7.709v-1.051h3.239V66.089z M907.556,74.908c0-1.694,0.45-2.939,1.245-3.645
	c0.524-0.465,1.229-0.705,2.055-0.705s1.529,0.24,2.055,0.705c0.795,0.705,1.245,1.95,1.245,3.645c0,1.71-0.45,2.94-1.245,3.645
	c-0.525,0.466-1.229,0.69-2.055,0.69s-1.53-0.225-2.055-0.69C908.006,77.849,907.556,76.618,907.556,74.908z M908.756,74.908
	c0,1.32,0.255,2.28,0.795,2.82c0.345,0.314,0.779,0.495,1.305,0.495c0.524,0,0.96-0.181,1.305-0.495c0.54-0.54,0.795-1.5,0.795-2.82
	c0-1.305-0.255-2.279-0.795-2.805c-0.345-0.315-0.78-0.495-1.305-0.495c-0.525,0-0.96,0.18-1.305,0.495
	C909.011,72.629,908.756,73.604,908.756,74.908z M917.995,66.509v5.64h2.189v1.05h-2.189v6.735h-1.2V66.509H917.995z
	 M921.775,70.063c0-1.2,0.375-2.16,1.05-2.79c0.601-0.555,1.425-0.854,2.415-0.854s1.815,0.3,2.4,0.854
	c0.225,0.21,0.42,0.465,0.585,0.75h3.345v-1.515h1.2v7.694h-1.2v-2.175h-3.3c-0.165,0.315-0.375,0.601-0.63,0.825
	c-0.585,0.555-1.41,0.854-2.4,0.854s-1.814-0.3-2.415-0.854C922.15,72.238,921.775,71.264,921.775,70.063z M931.57,80.158v-3.75
	h-8.939v-1.05h10.14v4.8H931.57z M922.945,70.063c0,0.87,0.24,1.56,0.705,2.01c0.39,0.375,0.915,0.601,1.59,0.601
	c0.66,0,1.2-0.226,1.59-0.601c0.45-0.45,0.69-1.14,0.69-2.01c0-0.885-0.24-1.575-0.69-2.024c-0.39-0.36-0.93-0.57-1.59-0.57
	c-0.675,0-1.2,0.21-1.59,0.57C923.186,68.488,922.945,69.179,922.945,70.063z M928.601,69.059c0.074,0.315,0.104,0.645,0.104,1.005
	c0,0.33-0.03,0.646-0.09,0.93h2.955v-1.935H928.601z M951.16,66.509v4.08h2.07v1.05h-2.07v4.455h-1.2v-2.415
	c-0.645,0.479-1.665,0.705-3.194,0.705h-6.54v-1.065h2.37v-3.285h1.2v3.285h3.255c1.289,0,2.354-0.27,2.909-0.645v-6.165H951.16z
	 M946.315,69.313v-1.59h-5.475v-1.065h6.675v2.61c0,0.854-0.075,1.725-0.226,2.445h-1.199
	C946.24,70.993,946.315,70.123,946.315,69.313z M951.415,80.083H941.32v-4.035h1.2v2.985h8.895V80.083z M961.211,78.988h-5.971
	v-6.705h4.92v-4.484h-4.92v-1.05h6.105v6.584h-4.92v4.62h4.995c1.364,0,2.564-0.36,3.255-1.005V66.509h1.215v13.409h-1.215v-1.965
	C964.016,78.628,962.711,78.988,961.211,78.988z"/>
<g>
	<path fill="none" stroke="#EE787A" stroke-width="0.5" d="M20,0.25C19.802,0.25,0.25,0.485,0.25,20v68.252
		c0,0.197,0.236,19.75,19.75,19.75h960c0.197,0,19.75-0.236,19.75-19.75V20c0-0.198-0.236-19.75-19.75-19.75H20z"/>
</g>
<line fill="none" stroke="#EE787A" stroke-width="0.5" x1="0" y1="45.083" x2="1000" y2="45.083"/>
</svg>
