<?xml version="1.0" encoding="utf-8"?>
<!-- Generator: Adobe Illustrator 16.0.0, SVG Export Plug-In . SVG Version: 6.00 Build 0)  -->
<!DOCTYPE svg PUBLIC "-//W3C//DTD SVG 1.1//EN" "http://www.w3.org/Graphics/SVG/1.1/DTD/svg11.dtd">
<svg version="1.1" id="레이어_1" xmlns="http://www.w3.org/2000/svg" xmlns:xlink="http://www.w3.org/1999/xlink" x="0px"
	 y="0px" width="366px" height="44.56px" viewBox="0 0 366 44.56" enable-background="new 0 0 366 44.56" xml:space="preserve">
<g>
	<defs>
		<rect id="SVGID_1_" x="-66.333" y="-9.582" width="517.513" height="72.471"/>
	</defs>
	<clipPath id="SVGID_2_">
		<use xlink:href="#SVGID_1_"  overflow="visible"/>
	</clipPath>
	<path clip-path="url(#SVGID_2_)" fill="#E37476" d="M3.98,10.413c-0.706,0-1.296-0.115-1.771-0.345
		C1.733,9.837,1.335,9.539,1.013,9.17c-0.322-0.368-0.552-0.789-0.69-1.265S0.116,6.962,0.116,6.502s0.069-0.928,0.207-1.403
		s0.36-0.897,0.667-1.265C1.296,3.466,1.695,3.16,2.186,2.914C2.677,2.668,3.275,2.546,3.98,2.546h20.794
		c0.706,0,1.296,0.122,1.771,0.367c0.475,0.246,0.866,0.553,1.173,0.921c0.307,0.367,0.521,0.789,0.644,1.265
		c0.123,0.476,0.184,0.943,0.184,1.403S28.478,7.43,28.34,7.906c-0.138,0.476-0.353,0.896-0.644,1.265
		c-0.291,0.368-0.682,0.667-1.173,0.897c-0.491,0.229-1.074,0.345-1.749,0.345h-5.98v4.969c0,1.073-0.031,2.101-0.092,3.082
		c-0.062,0.981-0.154,1.933-0.276,2.853c1.656,0.583,3.144,1.365,4.462,2.347s2.423,2.262,3.313,3.84
		c0.89,1.58,1.542,3.506,1.955,5.775c0.414,2.27,0.56,4.982,0.438,8.143H19.99c0.276-3.068,0.115-5.566-0.483-7.5
		c-0.598-1.932-1.587-3.404-2.967-4.416c-1.073,2.914-2.5,5.367-4.278,7.361s-3.865,3.48-6.257,4.463
		c-0.491,0.215-1.02,0.328-1.587,0.344s-1.12-0.045-1.656-0.184c-0.537-0.139-1.028-0.354-1.472-0.645
		c-0.445-0.291-0.774-0.666-0.989-1.127c-0.46-0.857-0.575-1.764-0.345-2.715c0.23-0.949,0.805-1.717,1.726-2.299
		c1.441-0.891,2.676-1.934,3.703-3.129s1.878-2.584,2.553-4.164c0.675-1.579,1.166-3.38,1.472-5.405s0.46-4.31,0.46-6.855v-4.738
		H3.98z M33.516,1.925c0.92-0.752,1.978-1.128,3.174-1.128c0.583,0,1.15,0.1,1.702,0.3c0.552,0.199,1.035,0.482,1.449,0.851
		s0.751,0.828,1.012,1.38c0.261,0.553,0.391,1.196,0.391,1.933V16.9h1.518c0.706,0,1.288,0.122,1.748,0.368
		c0.46,0.245,0.828,0.56,1.104,0.942c0.276,0.384,0.476,0.813,0.598,1.288c0.123,0.476,0.184,0.943,0.184,1.403
		s-0.061,0.928-0.184,1.403c-0.123,0.476-0.322,0.904-0.598,1.288c-0.276,0.384-0.651,0.698-1.127,0.943
		c-0.475,0.245-1.05,0.368-1.725,0.368h-1.518v19.092h-9.109V5.26C32.135,3.788,32.596,2.676,33.516,1.925z M59.641,34.841v1.105
		c0,0.521,0.077,0.85,0.23,0.988c0.153,0.139,0.491,0.207,1.012,0.207H85.91c1.411,0,2.408,0.346,2.991,1.035
		c0.583,0.689,0.874,1.48,0.874,2.369c0,0.891-0.299,1.688-0.897,2.393c-0.598,0.705-1.587,1.059-2.967,1.059H56.881
		c-1.288,0-2.354-0.123-3.197-0.369c-0.843-0.244-1.51-0.629-2.001-1.15c-0.491-0.52-0.836-1.211-1.035-2.068
		c-0.2-0.859-0.299-1.902-0.299-3.129v-2.439c0-1.563,0.46-2.705,1.38-3.426c0.92-0.721,2.024-1.082,3.313-1.082
		c0.705,0,1.38,0.123,2.024,0.367v-4.738h-6.257c-1.38,0-2.361-0.337-2.944-1.012c-0.583-0.675-0.874-1.473-0.874-2.393
		s0.292-1.732,0.874-2.438c0.583-0.705,1.564-1.058,2.944-1.058h23.279c1.38,0,2.362,0.353,2.944,1.058
		c0.583,0.706,0.874,1.519,0.874,2.438s-0.291,1.718-0.874,2.393c-0.583,0.675-1.564,1.012-2.944,1.012H65.99v7.177h-6.625
		C59.549,33.661,59.641,34.228,59.641,34.841z M52.855,16.417c-1.089-0.384-1.978-0.905-2.668-1.564
		c-0.69-0.659-1.204-1.457-1.541-2.392c-0.337-0.936-0.506-1.956-0.506-3.06c0-1.104,0.168-2.124,0.506-3.06s0.851-1.74,1.541-2.415
		c0.69-0.675,1.58-1.204,2.668-1.587c1.089-0.384,2.369-0.575,3.841-0.575H67.37c1.472,0,2.745,0.191,3.818,0.575
		c1.074,0.383,1.956,0.912,2.646,1.587s1.204,1.479,1.541,2.415s0.506,1.955,0.506,3.06c0,2.208-0.683,4.025-2.047,5.451
		c-1.365,1.427-3.52,2.14-6.464,2.14H56.697C55.225,16.992,53.944,16.8,52.855,16.417z M57.203,8.32
		c-0.276,0.229-0.414,0.59-0.414,1.081c0,0.46,0.138,0.82,0.414,1.081s0.767,0.391,1.472,0.391h6.671
		c0.705,0,1.196-0.13,1.472-0.391c0.276-0.261,0.414-0.621,0.414-1.081c0-0.491-0.138-0.852-0.414-1.081
		c-0.276-0.23-0.767-0.346-1.472-0.346h-6.671C57.97,7.974,57.479,8.089,57.203,8.32z M72.431,33.784
		c-1.319,0-2.262-0.299-2.829-0.898c-0.567-0.598-0.851-1.342-0.851-2.23s0.276-1.641,0.828-2.254
		c0.552-0.613,1.502-0.92,2.852-0.92h6.993V5.26c0-1.473,0.46-2.584,1.38-3.335c0.92-0.752,1.978-1.128,3.174-1.128
		c0.583,0,1.15,0.1,1.702,0.3c0.552,0.199,1.043,0.482,1.472,0.851c0.43,0.368,0.774,0.828,1.035,1.38
		c0.261,0.553,0.391,1.196,0.391,1.933v29.903h-9.155v-1.379H72.431z M96.348,28.218c-0.644,0-1.196-0.107-1.656-0.322
		c-0.46-0.215-0.828-0.492-1.104-0.829c-0.276-0.338-0.483-0.721-0.621-1.15c-0.138-0.43-0.207-0.858-0.207-1.288
		s0.062-0.858,0.184-1.288s0.33-0.82,0.621-1.173c0.292-0.354,0.667-0.637,1.127-0.852c0.46-0.215,1.012-0.322,1.656-0.322h35.884
		c0.644,0,1.196,0.107,1.656,0.322s0.835,0.498,1.127,0.852c0.292,0.353,0.499,0.743,0.621,1.173s0.184,0.858,0.184,1.288
		s-0.069,0.858-0.207,1.288s-0.345,0.813-0.621,1.15c-0.276,0.336-0.644,0.614-1.104,0.829s-1.012,0.322-1.656,0.322h-12.928v6.209
		h-9.247v-6.209H96.348z M123.813,7.169c1.748,0.476,3.351,1.242,4.808,2.3c1.457,1.059,2.714,2.416,3.772,4.072
		s1.802,3.649,2.231,5.98h-9.339c-0.43-1.073-0.997-2.024-1.702-2.853c-0.706-0.828-1.526-1.503-2.461-2.024
		s-1.955-0.882-3.06-1.081c-1.104-0.199-2.239-0.207-3.404-0.022c-1.073,1.042-2.277,1.963-3.611,2.76
		c-1.334,0.798-2.737,1.457-4.209,1.979s-2.967,0.897-4.485,1.127c-1.518,0.23-2.983,0.299-4.394,0.207
		c-1.38-0.092-2.4-0.506-3.06-1.242c-0.659-0.736-0.974-1.564-0.943-2.484c0.031-0.95,0.398-1.802,1.104-2.553
		c0.706-0.752,1.748-1.158,3.128-1.22c1.073-0.03,2.201-0.237,3.381-0.621c1.181-0.383,2.3-0.904,3.358-1.563
		c1.058-0.66,1.978-1.449,2.76-2.37c0.782-0.92,1.296-1.963,1.541-3.128c0.307-1.411,0.989-2.454,2.047-3.128
		c1.058-0.675,2.216-0.936,3.474-0.782c1.227,0.153,2.201,0.629,2.921,1.426c0.721,0.798,1.035,1.947,0.943,3.45l-0.138,1.15
		C120.286,6.487,122.065,6.694,123.813,7.169z M98.418,43.651c-0.859-0.23-1.534-0.605-2.024-1.127s-0.835-1.203-1.035-2.047
		c-0.2-0.844-0.299-1.895-0.299-3.152v-2.943c0-1.564,0.476-2.699,1.426-3.404s2.07-1.059,3.358-1.059s2.385,0.354,3.289,1.059
		c0.905,0.705,1.357,1.84,1.357,3.404v1.564c0,0.521,0.077,0.805,0.23,0.85c0.153,0.047,0.491,0.07,1.012,0.07h24.797
		c1.411,0,2.408,0.359,2.99,1.08s0.874,1.541,0.874,2.463c0,0.949-0.299,1.785-0.897,2.506s-1.587,1.082-2.967,1.082h-28.892
		C100.351,43.997,99.277,43.882,98.418,43.651z M149.111,19.982c-1.441-0.03-2.691-0.237-3.749-0.621s-1.94-0.92-2.646-1.61
		c-0.706-0.689-1.234-1.503-1.587-2.438c-0.353-0.936-0.529-1.955-0.529-3.059c0-0.675,0.138-1.365,0.414-2.07
		c-0.767-0.215-1.35-0.591-1.748-1.128c-0.399-0.536-0.598-1.203-0.598-2.001c0-1.012,0.314-1.824,0.943-2.438
		c0.629-0.613,1.526-0.92,2.691-0.92h6.533c0.153-1.165,0.629-2.024,1.426-2.576s1.84-0.828,3.128-0.828s2.323,0.276,3.105,0.828
		c0.782,0.552,1.25,1.411,1.403,2.576h6.533c1.166,0,2.063,0.307,2.691,0.92c0.629,0.614,0.943,1.427,0.943,2.438
		c0,0.798-0.207,1.457-0.621,1.979s-0.974,0.89-1.679,1.104c0.276,0.705,0.414,1.41,0.414,2.116c0,1.104-0.177,2.123-0.529,3.059
		s-0.882,1.749-1.587,2.438c-0.705,0.69-1.587,1.227-2.645,1.61s-2.308,0.591-3.75,0.621v2.484h7.269
		c1.411,0,2.407,0.337,2.99,1.012c0.583,0.675,0.874,1.487,0.874,2.438c0,0.981-0.299,1.809-0.897,2.485
		c-0.598,0.674-1.587,1.012-2.967,1.012h-22.359c-1.38,0-2.377-0.338-2.99-1.012c-0.613-0.676-0.92-1.503-0.92-2.485
		c0-0.951,0.299-1.764,0.897-2.438s1.603-1.012,3.013-1.012h6.533V19.982z M145.684,43.628c-0.843-0.244-1.51-0.629-2.001-1.15
		c-0.491-0.52-0.836-1.211-1.035-2.068c-0.2-0.859-0.299-1.902-0.299-3.129v-1.979c0-1.564,0.468-2.66,1.403-3.289
		s2.047-0.943,3.335-0.943s2.377,0.322,3.266,0.967c0.89,0.643,1.334,1.732,1.334,3.266v0.506c0,0.521,0.077,0.844,0.23,0.967
		s0.491,0.184,1.012,0.184h24.106c1.411,0,2.408,0.352,2.99,1.059c0.583,0.705,0.875,1.518,0.875,2.438
		c0,0.951-0.299,1.779-0.897,2.484s-1.587,1.059-2.967,1.059h-28.155C147.593,43.997,146.527,43.874,145.684,43.628z M157.553,13.61
		c0.383-0.444,0.575-0.942,0.575-1.495c0-0.552-0.191-1.035-0.575-1.449c-0.384-0.414-0.943-0.621-1.679-0.621h-4.969
		c-0.736,0-1.296,0.207-1.679,0.621s-0.575,0.897-0.575,1.449c0,0.553,0.192,1.051,0.575,1.495c0.383,0.445,0.943,0.667,1.679,0.667
		h4.969C156.61,14.277,157.169,14.055,157.553,13.61z M171.654,1.948c0.889-0.767,1.947-1.15,3.174-1.15
		c1.196,0,2.247,0.392,3.151,1.174s1.357,1.909,1.357,3.381v6.947h1.426c0.706,0,1.288,0.122,1.748,0.368
		c0.46,0.245,0.828,0.56,1.104,0.942c0.276,0.384,0.476,0.813,0.598,1.288c0.123,0.476,0.184,0.943,0.184,1.403
		s-0.061,0.928-0.184,1.403c-0.123,0.476-0.322,0.905-0.598,1.288c-0.276,0.384-0.651,0.698-1.127,0.943
		c-0.475,0.245-1.05,0.368-1.725,0.368h-1.426v13.019h-9.017V5.352C170.319,3.849,170.764,2.714,171.654,1.948z M194.214,33.392
		c1.579-0.566,2.921-1.434,4.025-2.598c1.104-1.166,1.956-2.699,2.554-4.601c0.598-1.901,0.896-4.264,0.896-7.085v-7.453
		c0-0.337-0.1-0.613-0.299-0.828s-0.482-0.322-0.852-0.322H190.05c-0.705,0-1.311-0.114-1.817-0.345
		c-0.506-0.229-0.928-0.529-1.265-0.897c-0.337-0.367-0.59-0.789-0.759-1.265c-0.168-0.476-0.253-0.958-0.253-1.449
		c0-0.46,0.084-0.928,0.253-1.403c0.169-0.476,0.422-0.904,0.759-1.288c0.337-0.383,0.759-0.697,1.265-0.943
		c0.506-0.245,1.112-0.367,1.817-0.367h13.618c2.607,0,4.463,0.582,5.566,1.748c1.104,1.165,1.656,2.821,1.656,4.968v9.892
		c0,4.109-0.544,7.606-1.633,10.49c-1.089,2.883-2.584,5.244-4.486,7.084c-1.9,1.84-4.133,3.189-6.693,4.049
		s-5.313,1.318-8.258,1.381c-0.552,0-1.104-0.078-1.656-0.23c-0.552-0.154-1.035-0.391-1.449-0.713
		c-0.414-0.322-0.744-0.729-0.989-1.219c-0.246-0.492-0.353-1.09-0.322-1.795c0.062-0.982,0.376-1.811,0.943-2.484
		c0.567-0.676,1.434-1.074,2.599-1.195C190.878,34.335,192.634,33.96,194.214,33.392z M217.377,5.352
		c0-1.503,0.461-2.638,1.381-3.404s1.994-1.15,3.221-1.15s2.3,0.384,3.22,1.15c0.921,0.767,1.38,1.901,1.38,3.404v38.645h-9.201
		V5.352z M235.269,43.513c-0.736-0.32-1.342-0.75-1.817-1.287s-0.828-1.158-1.058-1.863c-0.23-0.705-0.346-1.457-0.346-2.254V37.97
		c0-1.625,0.46-2.943,1.38-3.957c0.921-1.012,2.393-1.518,4.417-1.518h24.612v-0.828c0-0.49-0.321-0.736-0.966-0.736H235.13
		c-0.858,0-1.51-0.268-1.955-0.805c-0.444-0.537-0.667-1.111-0.667-1.725s0.207-1.197,0.621-1.749s1.081-0.828,2.001-0.828h12.514
		V23.8h-13.571c-1.196,0-2.047-0.291-2.553-0.874c-0.507-0.583-0.76-1.288-0.76-2.116c0-0.798,0.246-1.511,0.736-2.14
		c0.49-0.628,1.35-0.942,2.576-0.942h36.437c1.227,0,2.085,0.314,2.576,0.942c0.49,0.629,0.735,1.342,0.735,2.14
		c0,0.828-0.253,1.533-0.759,2.116s-1.357,0.874-2.553,0.874h-13.572v2.024h9.846c1.963,0,3.313,0.36,4.048,1.081
		c0.736,0.72,1.104,1.787,1.104,3.197v7.131h-29.121c-0.338,0-0.567,0.07-0.69,0.207c-0.122,0.139-0.184,0.33-0.184,0.576
		c0,0.244,0.062,0.443,0.184,0.598c0.123,0.152,0.353,0.23,0.69,0.23h27.925c0.89,0,1.526,0.268,1.909,0.805
		c0.384,0.537,0.575,1.127,0.575,1.771c0,0.551-0.184,1.119-0.552,1.701c-0.368,0.584-1.013,0.875-1.933,0.875h-32.894
		C236.863,43.997,236.005,43.835,235.269,43.513z M256.729,5.237c-0.015,0.077-0.022,0.146-0.022,0.207
		c1.901-0.122,3.727-0.007,5.475,0.346s3.327,0.966,4.738,1.84s2.607,2.04,3.589,3.496c0.981,1.457,1.687,3.213,2.116,5.268h-9.018
		c-0.368-0.981-0.89-1.824-1.564-2.53c-0.674-0.705-1.472-1.265-2.392-1.679s-1.94-0.675-3.06-0.782s-2.308-0.054-3.565,0.161
		c-1.043,0.89-2.231,1.664-3.565,2.323s-2.753,1.204-4.256,1.633c-1.502,0.43-3.052,0.729-4.646,0.897s-3.158,0.191-4.692,0.069
		c-1.38-0.093-2.385-0.46-3.013-1.104c-0.629-0.645-0.928-1.426-0.897-2.347c0.03-0.981,0.376-1.794,1.035-2.438
		c0.659-0.645,1.694-0.936,3.105-0.874c1.135,0.061,2.315-0.031,3.542-0.276s2.377-0.613,3.45-1.104
		c1.074-0.49,1.994-1.096,2.761-1.817c0.767-0.721,1.272-1.541,1.519-2.461c0.337-1.411,1.027-2.399,2.07-2.967
		c1.042-0.567,2.192-0.79,3.45-0.668c1.227,0.154,2.208,0.583,2.944,1.289c0.735,0.705,1.043,1.81,0.92,3.312
		C256.753,5.091,256.745,5.161,256.729,5.237z M300.406,22.65c-1.073,1.288-2.484,2.231-4.232,2.83
		c-1.748,0.598-3.772,0.896-6.072,0.896c-1.901,0-3.635-0.207-5.199-0.621c-1.563-0.414-2.897-1.05-4.002-1.909
		c-1.104-0.858-1.955-1.963-2.554-3.313c-0.598-1.35-0.896-2.959-0.896-4.83v-3.727c0-1.871,0.299-3.481,0.896-4.831
		c0.599-1.349,1.449-2.453,2.554-3.312c1.104-0.859,2.438-1.495,4.002-1.909c1.564-0.414,3.298-0.621,5.199-0.621
		c2.453,0,4.577,0.337,6.371,1.012c1.795,0.675,3.213,1.732,4.256,3.175h8.741V5.26c0-1.473,0.452-2.584,1.357-3.335
		c0.904-0.752,1.955-1.128,3.151-1.128c0.582,0,1.149,0.1,1.702,0.3c0.552,0.199,1.042,0.482,1.472,0.851s0.774,0.828,1.035,1.38
		c0.261,0.553,0.392,1.196,0.392,1.933v28.063h-9.109V22.65H300.406z M283.684,43.628c-0.844-0.244-1.511-0.629-2.001-1.15
		c-0.491-0.52-0.836-1.211-1.035-2.068c-0.199-0.859-0.299-1.902-0.299-3.129v-4.693c0-1.564,0.468-2.715,1.402-3.449
		c0.936-0.736,2.048-1.105,3.336-1.105s2.377,0.369,3.267,1.105c0.889,0.734,1.334,1.885,1.334,3.449v3.129
		c0,0.521,0.076,0.844,0.229,0.967c0.153,0.121,0.491,0.184,1.013,0.184h24.98c1.411,0,2.408,0.359,2.99,1.08
		c0.583,0.721,0.874,1.541,0.874,2.463c0,0.949-0.299,1.785-0.896,2.506c-0.599,0.721-1.588,1.082-2.968,1.082h-29.029
		C285.593,43.997,284.527,43.874,283.684,43.628z M287.479,18.441c0.613,0.629,1.487,0.943,2.622,0.943s2.009-0.314,2.622-0.943
		s0.92-1.541,0.92-2.737v-3.727c0-1.166-0.307-2.07-0.92-2.715c-0.613-0.644-1.487-0.966-2.622-0.966s-2.009,0.322-2.622,0.966
		c-0.614,0.645-0.921,1.549-0.921,2.715v3.727C286.559,16.9,286.865,17.812,287.479,18.441z M309.47,12.115h-6.947v3.911h6.947
		V12.115z M348.982,44.228h-9.385V31.622h-12.974c-0.705,0-1.296-0.107-1.771-0.322c-0.476-0.215-0.874-0.506-1.196-0.875
		c-0.322-0.367-0.553-0.781-0.69-1.242c-0.138-0.459-0.207-0.92-0.207-1.379c0-0.461,0.069-0.921,0.207-1.381
		s0.36-0.874,0.667-1.242s0.705-0.667,1.196-0.896c0.491-0.23,1.089-0.346,1.794-0.346h25.671c0.706-1.41,1.25-3.066,1.634-4.968
		c0.383-1.902,0.575-4.218,0.575-6.947v-1.104c0-0.337-0.101-0.613-0.3-0.828c-0.199-0.214-0.482-0.321-0.851-0.321h-25.027
		c-0.705,0-1.311-0.115-1.817-0.346c-0.506-0.229-0.92-0.536-1.241-0.92c-0.322-0.383-0.567-0.813-0.736-1.288
		s-0.253-0.943-0.253-1.403s0.076-0.92,0.229-1.38s0.399-0.882,0.736-1.266c0.337-0.383,0.759-0.689,1.265-0.92
		c0.507-0.229,1.112-0.345,1.817-0.345h28.109c1.35,0,2.477,0.13,3.382,0.391c0.904,0.261,1.633,0.66,2.185,1.196
		c0.553,0.537,0.943,1.22,1.174,2.048c0.229,0.828,0.345,1.81,0.345,2.944v3.588c0,2.393-0.169,4.57-0.506,6.533
		c-0.338,1.963-0.813,3.741-1.427,5.336h0.368c0.706,0,1.304,0.115,1.795,0.346c0.49,0.229,0.889,0.528,1.195,0.896
		s0.529,0.782,0.668,1.242c0.138,0.46,0.206,0.92,0.206,1.381c0,0.459-0.068,0.92-0.206,1.379c-0.139,0.461-0.368,0.875-0.69,1.242
		c-0.322,0.369-0.729,0.66-1.22,0.875c-0.49,0.215-1.073,0.322-1.748,0.322h-12.974V44.228z"/>
</g>
</svg>
