<?xml version="1.0" encoding="utf-8"?>
<!-- Generator: Adobe Illustrator 16.0.0, SVG Export Plug-In . SVG Version: 6.00 Build 0)  -->
<!DOCTYPE svg PUBLIC "-//W3C//DTD SVG 1.1//EN" "http://www.w3.org/Graphics/SVG/1.1/DTD/svg11.dtd">
<svg version="1.1" id="레이어_1" xmlns="http://www.w3.org/2000/svg" xmlns:xlink="http://www.w3.org/1999/xlink" x="0px"
	 y="0px" width="180.579px" height="44.56px" viewBox="0 0 180.579 44.56" enable-background="new 0 0 180.579 44.56"
	 xml:space="preserve">
<g>
	<defs>
		<rect id="SVGID_1_" x="-158" y="-9.582" width="499.241" height="72.471"/>
	</defs>
	<clipPath id="SVGID_2_">
		<use xlink:href="#SVGID_1_"  overflow="visible"/>
	</clipPath>
	<path clip-path="url(#SVGID_2_)" fill="#E37476" d="M11.444,19.982c-1.441-0.03-2.691-0.237-3.749-0.621
		c-1.058-0.383-1.94-0.92-2.646-1.61c-0.706-0.689-1.234-1.503-1.587-2.438c-0.353-0.935-0.529-1.955-0.529-3.059
		c0-0.675,0.138-1.365,0.414-2.07c-0.767-0.215-1.35-0.591-1.748-1.127C1.2,8.519,1.001,7.852,1.001,7.054
		c0-1.012,0.314-1.824,0.943-2.438C2.573,4.002,3.47,3.696,4.635,3.696h6.533c0.153-1.165,0.629-2.023,1.426-2.576
		c0.797-0.552,1.84-0.828,3.128-0.828s2.323,0.276,3.105,0.828c0.782,0.553,1.25,1.411,1.403,2.576h6.533
		c1.166,0,2.063,0.307,2.691,0.921c0.629,0.613,0.943,1.426,0.943,2.438c0,0.798-0.207,1.457-0.621,1.979s-0.974,0.89-1.679,1.104
		c0.276,0.705,0.414,1.41,0.414,2.116c0,1.104-0.177,2.124-0.529,3.059c-0.353,0.936-0.882,1.749-1.587,2.438
		c-0.705,0.69-1.587,1.228-2.645,1.61c-1.058,0.384-2.308,0.591-3.75,0.621v2.484h7.269c1.411,0,2.407,0.337,2.99,1.012
		c0.583,0.675,0.874,1.488,0.874,2.438c0,0.981-0.299,1.809-0.897,2.485c-0.598,0.674-1.587,1.012-2.967,1.012H4.911
		c-1.38,0-2.377-0.338-2.99-1.012c-0.613-0.676-0.92-1.503-0.92-2.485c0-0.95,0.299-1.764,0.897-2.438s1.603-1.012,3.013-1.012
		h6.533V19.982z M8.017,43.628c-0.843-0.244-1.51-0.629-2.001-1.148c-0.491-0.521-0.836-1.213-1.035-2.07
		c-0.2-0.859-0.299-1.902-0.299-3.129v-1.979c0-1.564,0.468-2.66,1.403-3.289s2.047-0.943,3.335-0.943s2.377,0.322,3.266,0.967
		c0.89,0.643,1.334,1.732,1.334,3.266v0.506c0,0.521,0.077,0.844,0.23,0.967s0.491,0.184,1.012,0.184h24.106
		c1.411,0,2.408,0.354,2.99,1.059c0.583,0.705,0.875,1.518,0.875,2.438c0,0.951-0.299,1.779-0.897,2.484s-1.587,1.059-2.967,1.059
		H11.214C9.926,43.997,8.86,43.874,8.017,43.628z M19.886,13.61c0.383-0.444,0.575-0.942,0.575-1.495
		c0-0.552-0.191-1.035-0.575-1.449c-0.384-0.414-0.943-0.621-1.679-0.621h-4.969c-0.736,0-1.296,0.207-1.679,0.621
		s-0.575,0.897-0.575,1.449c0,0.553,0.192,1.051,0.575,1.495c0.383,0.445,0.943,0.667,1.679,0.667h4.969
		C18.943,14.277,19.502,14.055,19.886,13.61z M33.987,1.948c0.889-0.767,1.947-1.15,3.174-1.15c1.196,0,2.247,0.392,3.151,1.174
		s1.357,1.909,1.357,3.381v6.947h1.426c0.706,0,1.288,0.122,1.748,0.368c0.46,0.245,0.828,0.56,1.104,0.942
		c0.276,0.384,0.476,0.813,0.598,1.288c0.123,0.476,0.184,0.943,0.184,1.403s-0.061,0.928-0.184,1.403
		c-0.123,0.476-0.322,0.905-0.598,1.288c-0.276,0.384-0.651,0.698-1.127,0.943c-0.475,0.245-1.05,0.368-1.725,0.368h-1.426v13.019
		h-9.017V5.352C32.652,3.849,33.097,2.714,33.987,1.948z M57.03,17.245c1.472-0.199,2.737-0.552,3.795-1.058
		c1.059-0.507,1.894-1.196,2.507-2.07c0.614-0.874,0.92-1.94,0.92-3.197v-0.599c0-0.675-0.353-1.012-1.058-1.012H52.797
		c-0.675,0-1.25-0.1-1.725-0.3c-0.475-0.199-0.866-0.467-1.173-0.805c-0.307-0.337-0.529-0.721-0.667-1.15
		c-0.138-0.429-0.207-0.874-0.207-1.334s0.069-0.904,0.207-1.334c0.138-0.43,0.36-0.813,0.667-1.15
		c0.307-0.337,0.698-0.605,1.173-0.805c0.476-0.199,1.05-0.299,1.725-0.299h13.802c1.84,0,3.236,0.275,4.187,0.828
		c0.951,0.552,1.595,1.38,1.932,2.484c0.123-0.031,0.307-0.047,0.552-0.047h6.533V5.26c0-1.472,0.452-2.584,1.357-3.335
		c0.905-0.752,1.955-1.128,3.151-1.128c0.583,0,1.15,0.101,1.702,0.3c0.552,0.199,1.043,0.482,1.472,0.851
		c0.43,0.368,0.774,0.828,1.035,1.38c0.261,0.553,0.391,1.196,0.391,1.933v19.967h-9.109v-3.819H73.27
		c-1.718,0-2.776-0.659-3.174-1.978c-1.902,2.208-4.47,3.741-7.706,4.601c-3.236,0.858-6.771,1.104-10.604,0.735
		c-1.042-0.092-1.917-0.514-2.622-1.265c-0.706-0.752-1.012-1.74-0.92-2.968c0.092-1.073,0.514-1.878,1.265-2.415
		c0.751-0.536,1.679-0.774,2.783-0.713C53.979,17.498,55.558,17.444,57.03,17.245z M55.167,43.353
		c-1.181-0.43-2.163-1.027-2.944-1.795c-0.782-0.766-1.365-1.67-1.749-2.713s-0.575-2.193-0.575-3.451
		c0-1.227,0.191-2.369,0.575-3.428c0.383-1.057,0.966-1.979,1.749-2.76c0.782-0.781,1.763-1.396,2.944-1.84
		c1.181-0.445,2.568-0.667,4.163-0.667h20.61c1.564,0,2.937,0.215,4.118,0.644c1.181,0.43,2.162,1.035,2.944,1.816
		c0.782,0.783,1.373,1.703,1.771,2.762c0.399,1.057,0.598,2.215,0.598,3.473s-0.199,2.416-0.598,3.473
		c-0.398,1.059-0.989,1.971-1.771,2.738s-1.764,1.357-2.944,1.771s-2.553,0.621-4.118,0.621H59.33
		C57.735,43.997,56.348,43.782,55.167,43.353z M79.526,36.866c0.337-0.461,0.506-0.951,0.506-1.473s-0.169-0.996-0.506-1.426
		s-1.012-0.645-2.024-0.645H61.769c-1.012,0-1.687,0.215-2.024,0.645s-0.506,0.904-0.506,1.426s0.168,1.012,0.506,1.473
		c0.337,0.459,1.012,0.689,2.024,0.689h15.734C78.515,37.556,79.189,37.325,79.526,36.866z M72.442,15.059
		c0.153,0,0.291-0.007,0.414-0.022c0.123-0.016,0.261-0.023,0.414-0.023h6.533v-3.22H73.04
		C72.948,13.02,72.749,14.109,72.442,15.059z M99.211,16.209c0-1.503,0.383-2.553,1.15-3.151c0.767-0.598,1.779-0.897,3.036-0.897
		c1.228,0,2.224,0.308,2.99,0.921s1.15,1.656,1.15,3.128v4.738h11.731c1.41,0,2.407,0.346,2.99,1.035
		c0.582,0.69,0.874,1.511,0.874,2.462c0,0.981-0.299,1.816-0.897,2.507c-0.598,0.69-1.587,1.036-2.967,1.036H96.911
		c-1.379,0-2.377-0.346-2.99-1.036c-0.613-0.69-0.92-1.525-0.92-2.507c0-0.951,0.299-1.771,0.897-2.462
		c0.599-0.689,1.603-1.035,3.013-1.035h2.301V16.209z M95.209,8.159c-0.645-0.705-0.967-1.579-0.967-2.622
		c0-0.951,0.314-1.779,0.943-2.484c0.629-0.706,1.68-1.059,3.151-1.059h16.746c2.147,0,3.665,0.43,4.554,1.288
		c0.891,0.859,1.335,2.102,1.335,3.727v4.003c0,1.687-0.107,3.251-0.322,4.692c-0.214,1.441-0.506,2.606-0.874,3.496h-8.511
		c0.368-0.89,0.636-2.017,0.805-3.381c0.169-1.365,0.253-2.677,0.253-3.934v-1.748c0-0.368-0.076-0.613-0.23-0.736
		c-0.152-0.123-0.429-0.185-0.827-0.185H98.337C96.896,9.216,95.853,8.864,95.209,8.159z M100.016,43.628
		c-0.843-0.244-1.51-0.629-2-1.148c-0.491-0.521-0.836-1.213-1.035-2.07c-0.2-0.859-0.3-1.902-0.3-3.129v-2.898
		c0-1.564,0.468-2.699,1.403-3.404s2.047-1.059,3.336-1.059c1.287,0,2.377,0.354,3.266,1.059c0.89,0.705,1.334,1.84,1.334,3.404
		v1.426c0,0.521,0.077,0.844,0.23,0.967s0.49,0.184,1.012,0.184h24.107c1.41,0,2.407,0.354,2.99,1.059
		c0.582,0.705,0.874,1.518,0.874,2.438c0,0.951-0.3,1.779-0.897,2.484s-1.587,1.059-2.967,1.059h-28.156
		C101.926,43.997,100.86,43.874,100.016,43.628z M125.987,1.948c0.889-0.767,1.947-1.15,3.174-1.15c1.196,0,2.247,0.392,3.152,1.174
		c0.904,0.782,1.356,1.909,1.356,3.381v6.947h1.427c0.705,0,1.287,0.122,1.748,0.368c0.459,0.245,0.828,0.56,1.104,0.942
		c0.276,0.384,0.476,0.813,0.598,1.288c0.123,0.476,0.185,0.943,0.185,1.403s-0.062,0.928-0.185,1.403
		c-0.122,0.476-0.321,0.905-0.598,1.288c-0.275,0.384-0.651,0.698-1.127,0.943c-0.475,0.245-1.051,0.368-1.725,0.368h-1.427v13.019
		h-9.017V5.352C124.653,3.849,125.097,2.714,125.987,1.948z M150.042,34.128c0.307,0.262,0.859,0.393,1.656,0.393h13.572
		c0.705,0,1.303,0.107,1.795,0.32c0.49,0.215,0.896,0.508,1.219,0.875s0.551,0.773,0.689,1.219s0.207,0.898,0.207,1.357
		c0,0.951-0.307,1.816-0.92,2.6c-0.613,0.781-1.609,1.174-2.99,1.174h-16.977c-1.441,0-2.668-0.139-3.68-0.414
		c-1.012-0.277-1.832-0.721-2.461-1.336c-0.629-0.613-1.09-1.418-1.381-2.414c-0.291-0.998-0.438-2.217-0.438-3.658v-8.373
		c0-1.441,0.146-2.653,0.438-3.635s0.752-1.778,1.381-2.392s1.449-1.051,2.461-1.312s2.238-0.391,3.68-0.391h8.236v-6.671
		c0-0.307-0.078-0.599-0.23-0.874c-0.154-0.276-0.49-0.414-1.012-0.414h-10.582c-0.705,0-1.303-0.107-1.795-0.322
		c-0.49-0.215-0.889-0.506-1.195-0.874s-0.537-0.782-0.689-1.242c-0.154-0.46-0.23-0.92-0.23-1.38s0.068-0.92,0.207-1.381
		c0.137-0.46,0.367-0.874,0.689-1.242c0.322-0.367,0.729-0.667,1.219-0.896c0.492-0.23,1.09-0.346,1.795-0.346h13.02
		c1.596,0,2.906,0.123,3.934,0.368c1.027,0.246,1.848,0.645,2.461,1.196c0.613,0.553,1.043,1.273,1.289,2.162
		c0.244,0.89,0.367,1.994,0.367,3.313v16.103h-14.078c-0.797,0-1.35,0.13-1.656,0.391s-0.459,0.79-0.459,1.586v4.924
		C149.583,33.339,149.735,33.868,150.042,34.128z M171.711,5.352c0-1.503,0.459-2.638,1.379-3.404s1.994-1.15,3.221-1.15
		s2.301,0.384,3.221,1.15s1.381,1.901,1.381,3.404v38.645h-9.201V5.352z"/>
</g>
</svg>
