<?xml version="1.0" encoding="utf-8"?>
<!-- Generator: Adobe Illustrator 16.0.0, SVG Export Plug-In . SVG Version: 6.00 Build 0)  -->
<!DOCTYPE svg PUBLIC "-//W3C//DTD SVG 1.1//EN" "http://www.w3.org/Graphics/SVG/1.1/DTD/svg11.dtd">
<svg version="1.1" id="레이어_1" xmlns="http://www.w3.org/2000/svg" xmlns:xlink="http://www.w3.org/1999/xlink" x="0px"
	 y="0px" width="239.304px" height="43.996px" viewBox="0 0 239.304 43.996" enable-background="new 0 0 239.304 43.996"
	 xml:space="preserve">
<g>
	<defs>
		<rect id="SVGID_1_" x="-42.667" y="-9.582" width="368.342" height="72.472"/>
	</defs>
	<clipPath id="SVGID_2_">
		<use xlink:href="#SVGID_1_"  overflow="visible"/>
	</clipPath>
	<path clip-path="url(#SVGID_2_)" fill="#E37476" d="M2.399,41.834c-0.429-0.215-0.79-0.49-1.081-0.828
		c-0.291-0.336-0.506-0.721-0.644-1.15c-0.138-0.428-0.207-0.873-0.207-1.334c0-0.797,0.215-1.533,0.644-2.207
		c0.43-0.676,1.135-1.09,2.116-1.242V14.921c0-1.258,0.33-2.186,0.989-2.783c0.659-0.599,1.572-0.897,2.737-0.897
		s2.078,0.307,2.737,0.92c0.659,0.614,0.989,1.534,0.989,2.761v20.104h1.886V14.921c0-1.258,0.33-2.186,0.989-2.783
		c0.66-0.599,1.572-0.897,2.737-0.897c1.166,0,2.078,0.307,2.737,0.92c0.66,0.614,0.989,1.534,0.989,2.761v20.104
		c1.166,0.063,2.001,0.438,2.507,1.127c0.506,0.691,0.759,1.48,0.759,2.369c0,0.461-0.069,0.906-0.207,1.334
		c-0.138,0.43-0.353,0.814-0.644,1.15c-0.292,0.338-0.652,0.613-1.081,0.828c-0.43,0.215-0.92,0.322-1.473,0.322H3.871
		C3.319,42.156,2.829,42.049,2.399,41.834z M2.951,9.447c-0.429-0.215-0.79-0.49-1.081-0.828c-0.292-0.337-0.514-0.721-0.667-1.15
		C1.05,7.04,0.973,6.594,0.973,6.134S1.042,5.222,1.18,4.777c0.138-0.444,0.345-0.843,0.621-1.195
		C2.077,3.228,2.43,2.945,2.859,2.73C3.289,2.515,3.81,2.408,4.423,2.408h14.722c0.613,0,1.135,0.107,1.564,0.322
		c0.43,0.215,0.782,0.498,1.058,0.852c0.276,0.353,0.483,0.751,0.621,1.195c0.138,0.445,0.207,0.897,0.207,1.357
		s-0.077,0.905-0.23,1.334c-0.153,0.43-0.375,0.813-0.667,1.15c-0.292,0.338-0.652,0.613-1.081,0.828s-0.92,0.322-1.472,0.322H4.423
		C3.871,9.769,3.38,9.662,2.951,9.447z M24.666,32.588c-0.705,0-1.28-0.107-1.725-0.322s-0.797-0.506-1.058-0.875
		c-0.261-0.367-0.445-0.797-0.552-1.287c-0.107-0.49-0.161-1.012-0.161-1.564c0-0.521,0.054-1.027,0.161-1.518
		c0.107-0.492,0.292-0.92,0.552-1.289s0.613-0.667,1.058-0.897c0.445-0.229,1.02-0.345,1.725-0.345h0.506v-3.818h-0.506
		c-0.705,0-1.28-0.107-1.725-0.322s-0.797-0.506-1.058-0.874s-0.445-0.798-0.552-1.288c-0.107-0.491-0.161-1.013-0.161-1.564
		c0-0.521,0.054-1.027,0.161-1.519c0.107-0.49,0.292-0.92,0.552-1.288c0.261-0.367,0.613-0.667,1.058-0.896
		c0.445-0.23,1.02-0.346,1.725-0.346h0.506V4.708c0-1.288,0.368-2.262,1.104-2.922c0.736-0.659,1.641-0.989,2.714-0.989
		c1.042,0,1.955,0.33,2.737,0.989C32.51,2.447,32.9,3.42,32.9,4.708v39.288h-7.729V32.588H24.666z M36.121,1.787
		c0.797-0.659,1.733-0.989,2.806-0.989c1.043,0,1.971,0.33,2.783,0.989c0.813,0.66,1.219,1.634,1.219,2.922v39.288h-8.005V4.708
		C34.925,3.42,35.324,2.447,36.121,1.787z M55.829,33.393c1.58-0.568,2.921-1.434,4.025-2.6s1.955-2.699,2.553-4.6
		c0.598-1.901,0.897-4.264,0.897-7.085v-7.453c0-0.337-0.1-0.613-0.299-0.828s-0.483-0.321-0.851-0.321H51.666
		c-0.706,0-1.311-0.115-1.817-0.346C49.342,9.93,48.92,9.63,48.583,9.263c-0.337-0.368-0.59-0.79-0.759-1.266
		c-0.169-0.476-0.253-0.958-0.253-1.449c0-0.46,0.084-0.928,0.253-1.403c0.168-0.476,0.421-0.904,0.759-1.288
		c0.337-0.383,0.759-0.697,1.265-0.943c0.506-0.245,1.112-0.367,1.817-0.367h13.618c2.607,0,4.462,0.582,5.566,1.748
		c1.104,1.165,1.656,2.821,1.656,4.969v9.891c0,4.11-0.544,7.606-1.633,10.489c-1.089,2.883-2.584,5.246-4.485,7.086
		s-4.133,3.189-6.694,4.049c-2.561,0.857-5.313,1.318-8.258,1.379c-0.552,0-1.104-0.076-1.656-0.23
		c-0.552-0.152-1.035-0.391-1.449-0.713s-0.744-0.729-0.989-1.219c-0.245-0.49-0.353-1.088-0.322-1.795
		c0.061-0.98,0.375-1.809,0.943-2.484c0.567-0.674,1.434-1.072,2.6-1.195C52.494,34.336,54.25,33.959,55.829,33.393z M78.993,5.352
		c0-1.503,0.46-2.638,1.38-3.404c0.92-0.767,1.994-1.15,3.221-1.15c1.227,0,2.3,0.384,3.22,1.15s1.38,1.901,1.38,3.404v38.644
		h-9.201V5.352z M96.883,43.514c-0.736-0.322-1.342-0.752-1.817-1.289c-0.476-0.535-0.828-1.156-1.058-1.861
		c-0.23-0.707-0.345-1.457-0.345-2.256v-0.137c0-1.627,0.46-2.945,1.38-3.957c0.92-1.012,2.393-1.518,4.417-1.518h24.613v-0.828
		c0-0.492-0.322-0.736-0.966-0.736H96.746c-0.859,0-1.511-0.27-1.956-0.805c-0.445-0.537-0.667-1.113-0.667-1.727
		s0.207-1.195,0.621-1.748c0.414-0.552,1.081-0.828,2.001-0.828h12.513V23.8H95.688c-1.196,0-2.047-0.291-2.554-0.874
		c-0.506-0.583-0.759-1.288-0.759-2.116c0-0.798,0.245-1.511,0.736-2.14c0.491-0.628,1.35-0.942,2.577-0.942h36.436
		c1.227,0,2.085,0.314,2.576,0.942c0.491,0.629,0.736,1.342,0.736,2.14c0,0.828-0.253,1.533-0.759,2.116s-1.357,0.874-2.553,0.874
		h-13.572v2.024h9.845c1.963,0,3.313,0.36,4.048,1.081c0.736,0.721,1.104,1.786,1.104,3.198v7.131h-29.122
		c-0.337,0-0.567,0.068-0.69,0.207c-0.123,0.137-0.184,0.33-0.184,0.574c0,0.246,0.062,0.445,0.184,0.598
		c0.123,0.154,0.353,0.23,0.69,0.23h27.925c0.889,0,1.526,0.27,1.909,0.805c0.383,0.537,0.575,1.129,0.575,1.771
		c0,0.553-0.184,1.119-0.552,1.703c-0.368,0.582-1.012,0.873-1.932,0.873H99.459C98.478,43.996,97.62,43.836,96.883,43.514z
		 M97.183,15.588c-0.782-0.199-1.388-0.544-1.817-1.035c-0.429-0.49-0.721-1.143-0.874-1.955s-0.23-1.833-0.23-3.06V7.791
		c0-1.227,0.077-2.246,0.23-3.06c0.153-0.813,0.445-1.464,0.874-1.955c0.429-0.49,1.035-0.836,1.817-1.035
		c0.782-0.199,1.802-0.299,3.059-0.299h27.327c1.257,0,2.277,0.1,3.06,0.299c0.782,0.199,1.388,0.545,1.817,1.035
		c0.43,0.491,0.721,1.143,0.874,1.955c0.153,0.813,0.23,1.833,0.23,3.06v8.097h-33.308C98.984,15.887,97.964,15.788,97.183,15.588z
		 M103.531,9.769c0.077,0.153,0.33,0.229,0.759,0.229h20.104v-1.61c0-0.367-0.038-0.636-0.115-0.805
		c-0.077-0.169-0.33-0.253-0.759-0.253h-19.23c-0.429,0-0.682,0.084-0.759,0.253s-0.115,0.438-0.115,0.805v0.507
		C103.416,9.324,103.455,9.616,103.531,9.769z M155.81,25.618c-0.828-0.23-1.48-0.605-1.955-1.127
		c-0.476-0.521-0.806-1.204-0.989-2.048c-0.185-0.843-0.276-1.863-0.276-3.059V6.365c0-1.534,0.43-2.646,1.288-3.336
		c0.858-0.689,1.917-1.035,3.175-1.035c1.288,0,2.3,0.346,3.036,1.035c0.735,0.69,1.104,1.802,1.104,3.336v0.92h8.418v-0.92
		c0-1.564,0.384-2.684,1.15-3.358c0.768-0.675,1.795-1.013,3.082-1.013c1.289,0,2.34,0.346,3.152,1.035
		c0.813,0.69,1.219,1.802,1.219,3.336v19.598h-19.276C157.681,25.962,156.638,25.847,155.81,25.618z M158.179,43.629
		c-0.844-0.246-1.511-0.629-2.002-1.15c-0.49-0.521-0.835-1.211-1.035-2.07c-0.199-0.859-0.299-1.902-0.299-3.129v-4.324
		c0-1.564,0.469-2.715,1.404-3.449c0.935-0.736,2.047-1.105,3.334-1.105c1.289,0,2.377,0.369,3.268,1.105
		c0.889,0.734,1.334,1.885,1.334,3.449v2.76c0,0.521,0.076,0.844,0.229,0.967s0.491,0.184,1.013,0.184h24.106
		c1.411,0,2.407,0.361,2.99,1.082s0.874,1.541,0.874,2.461c0,0.951-0.299,1.787-0.896,2.508c-0.599,0.721-1.588,1.08-2.968,1.08
		h-28.155C160.088,43.996,159.022,43.875,158.179,43.629z M169.61,13.679h-8.418v4.278c0,0.521,0.076,0.844,0.229,0.967
		c0.153,0.122,0.491,0.184,1.013,0.184h7.176V13.679z M184.148,1.948c0.89-0.767,1.948-1.15,3.175-1.15
		c1.195,0,2.246,0.392,3.15,1.174c0.905,0.782,1.357,1.909,1.357,3.381v6.947h1.427c0.705,0,1.288,0.122,1.748,0.368
		c0.46,0.245,0.828,0.56,1.104,0.942c0.275,0.384,0.475,0.813,0.598,1.288c0.123,0.476,0.184,0.943,0.184,1.403
		s-0.061,0.928-0.184,1.403s-0.322,0.905-0.598,1.288c-0.276,0.384-0.652,0.698-1.127,0.943c-0.477,0.245-1.051,0.368-1.726,0.368
		h-1.427v13.02h-9.017V5.352C182.814,3.849,183.259,2.714,184.148,1.948z M199.233,7.1c0.644-1.318,1.541-2.399,2.691-3.243
		c1.15-0.843,2.529-1.457,4.141-1.84c1.609-0.384,3.396-0.575,5.359-0.575s3.749,0.191,5.359,0.575
		c1.609,0.383,2.99,0.997,4.141,1.84c1.15,0.844,2.047,1.925,2.691,3.243c0.644,1.319,0.966,2.914,0.966,4.785v1.426
		c0,1.871-0.322,3.466-0.966,4.785c-0.645,1.318-1.541,2.399-2.691,3.243c-1.15,0.843-2.531,1.457-4.141,1.84
		c-1.61,0.384-3.396,0.575-5.359,0.575s-3.75-0.191-5.359-0.575c-1.611-0.383-2.99-0.997-4.141-1.84
		c-1.15-0.844-2.048-1.925-2.691-3.243c-0.645-1.319-0.967-2.914-0.967-4.785v-1.426C198.267,10.014,198.589,8.419,199.233,7.1z
		 M203.719,43.629c-0.844-0.246-1.511-0.629-2.001-1.15c-0.491-0.521-0.836-1.211-1.035-2.07s-0.299-1.902-0.299-3.129v-7.314
		c0-1.564,0.451-2.691,1.356-3.381c0.905-0.689,2.001-1.035,3.29-1.035c1.165,0,2.17,0.292,3.013,0.874
		c0.844,0.583,1.342,1.519,1.495,2.806h20.61c0.153-1.287,0.659-2.223,1.519-2.806c0.858-0.582,1.886-0.874,3.082-0.874
		c1.288,0,2.369,0.346,3.244,1.035c0.873,0.69,1.311,1.817,1.311,3.381v14.031h-32.388
		C205.628,43.996,204.562,43.875,203.719,43.629z M208.435,16.325c0.766,0.567,1.764,0.851,2.99,0.851s2.223-0.283,2.99-0.851
		c0.767-0.567,1.15-1.434,1.15-2.6v-2.254c0-1.166-0.384-2.032-1.15-2.6c-0.768-0.567-1.764-0.851-2.99-0.851
		s-2.225,0.283-2.99,0.851c-0.768,0.567-1.15,1.434-1.15,2.6v2.254C207.284,14.891,207.667,15.757,208.435,16.325z M230.103,35.117
		h-20.519v1.611c0,0.521,0.077,0.844,0.23,0.965c0.153,0.123,0.491,0.186,1.012,0.186h19.276V35.117z M231.184,1.948
		c0.936-0.767,2.017-1.15,3.243-1.15c0.583,0,1.158,0.101,1.726,0.3s1.065,0.49,1.495,0.874c0.43,0.383,0.774,0.858,1.035,1.426
		s0.391,1.22,0.391,1.955v18.771h-9.293V5.352C229.78,3.849,230.248,2.714,231.184,1.948z"/>
</g>
</svg>
