<?xml version="1.0" encoding="utf-8"?>
<!-- Generator: Adobe Illustrator 16.0.0, SVG Export Plug-In . SVG Version: 6.00 Build 0)  -->
<!DOCTYPE svg PUBLIC "-//W3C//DTD SVG 1.1//EN" "http://www.w3.org/Graphics/SVG/1.1/DTD/svg11.dtd">
<svg version="1.1" id="레이어_1" xmlns="http://www.w3.org/2000/svg" xmlns:xlink="http://www.w3.org/1999/xlink" x="0px"
	 y="0px" width="334.333px" height="44.56px" viewBox="0 0 334.333 44.56" enable-background="new 0 0 334.333 44.56"
	 xml:space="preserve">
<g>
	<defs>
		<rect id="SVGID_1_" x="-83.333" y="-9.582" width="500.954" height="72.471"/>
	</defs>
	<clipPath id="SVGID_2_">
		<use xlink:href="#SVGID_1_"  overflow="visible"/>
	</clipPath>
	<path clip-path="url(#SVGID_2_)" fill="#E37476" d="M41.241,35.647c0.506,0.229,0.92,0.527,1.242,0.896
		c0.322,0.367,0.552,0.789,0.69,1.266c0.138,0.475,0.207,0.943,0.207,1.402c0,0.49-0.077,0.967-0.23,1.426
		c-0.153,0.461-0.391,0.875-0.713,1.242c-0.322,0.369-0.729,0.66-1.219,0.875s-1.089,0.322-1.794,0.322H4.276
		c-0.706,0-1.303-0.107-1.794-0.322s-0.897-0.506-1.219-0.875c-0.322-0.367-0.56-0.781-0.713-1.242
		c-0.153-0.459-0.23-0.936-0.23-1.426c0-0.459,0.069-0.928,0.207-1.402c0.138-0.477,0.368-0.898,0.69-1.266
		c0.322-0.369,0.736-0.668,1.242-0.896c0.506-0.23,1.112-0.346,1.817-0.346h35.148C40.129,35.302,40.735,35.417,41.241,35.647z
		 M38.366,2.638c0.46,0.245,0.828,0.552,1.104,0.92c0.276,0.368,0.476,0.782,0.598,1.242c0.123,0.46,0.184,0.904,0.184,1.334
		s-0.061,0.874-0.184,1.334c-0.123,0.46-0.33,0.874-0.621,1.242c-0.291,0.368-0.659,0.667-1.104,0.897
		c-0.445,0.229-0.989,0.345-1.633,0.345H13.431c-0.491,0-0.828,0.084-1.012,0.253s-0.276,0.499-0.276,0.989v7.085
		c0,0.49,0.092,0.828,0.276,1.012c0.184,0.185,0.521,0.276,1.012,0.276h24.015c0.644,0,1.196,0.123,1.656,0.368
		s0.828,0.552,1.104,0.92s0.483,0.774,0.621,1.219c0.138,0.445,0.207,0.882,0.207,1.312s-0.069,0.874-0.207,1.334
		s-0.353,0.874-0.644,1.242s-0.66,0.675-1.104,0.92c-0.445,0.246-0.989,0.368-1.633,0.368H10.165c-1.38,0-2.545-0.13-3.497-0.391
		c-0.951-0.261-1.709-0.683-2.277-1.266C3.824,25.012,3.41,24.26,3.149,23.34s-0.391-2.055-0.391-3.404V9.539
		c0-1.318,0.13-2.438,0.391-3.358s0.675-1.671,1.242-2.254s1.326-1.005,2.277-1.266C7.619,2.4,8.785,2.27,10.165,2.27h26.545
		C37.354,2.27,37.906,2.392,38.366,2.638z M51.38,25.042c-0.889-0.398-1.633-0.936-2.231-1.61s-1.051-1.457-1.357-2.346
		c-0.307-0.89-0.46-1.81-0.46-2.761v-0.874c0-1.963,0.598-3.558,1.794-4.784c1.196-1.228,2.975-1.841,5.336-1.841h9.293V9.262
		c0-0.582-0.383-0.874-1.15-0.874H50.644c-1.074,0-1.855-0.345-2.346-1.035c-0.491-0.689-0.736-1.402-0.736-2.139
		c0-0.798,0.246-1.541,0.736-2.231s1.272-1.035,2.346-1.035h15.688c2.331,0,4.01,0.537,5.038,1.61
		c1.028,1.073,1.542,2.469,1.542,4.187v9.063H57.959c-0.43,0-0.736,0.107-0.92,0.322s-0.276,0.476-0.276,0.782v0.23
		c0,0.307,0.092,0.56,0.276,0.759s0.491,0.299,0.92,0.299h15.917c0.521,0,0.974,0.1,1.357,0.299s0.698,0.453,0.943,0.76
		c0.246,0.307,0.43,0.651,0.552,1.035c0.123,0.383,0.184,0.774,0.184,1.173c0,0.767-0.23,1.487-0.69,2.162
		c-0.46,0.675-1.242,1.012-2.346,1.012H54.462C53.297,25.64,52.27,25.441,51.38,25.042z M52.622,43.651
		c-0.859-0.23-1.526-0.613-2.001-1.15c-0.476-0.537-0.797-1.25-0.966-2.139c-0.168-0.889-0.253-2.01-0.253-3.359v-2.482
		c0-1.32,0.084-2.432,0.253-3.336c0.169-0.904,0.491-1.625,0.966-2.162c0.475-0.537,1.142-0.92,2.001-1.15s1.979-0.346,3.358-0.346
		H81.79c1.38,0,2.5,0.115,3.358,0.346s1.526,0.613,2.001,1.15c0.476,0.537,0.798,1.258,0.966,2.162s0.253,2.016,0.253,3.336v9.477
		H55.98C54.601,43.997,53.481,43.882,52.622,43.651z M58.672,37.325c0.138,0.246,0.437,0.369,0.897,0.369h19.736v-2.531
		c0-0.43-0.077-0.766-0.23-1.012s-0.46-0.367-0.92-0.367H59.569c-0.46,0-0.759,0.121-0.897,0.367s-0.207,0.582-0.207,1.012v1.105
		C58.465,36.728,58.534,37.081,58.672,37.325z M80.249,1.948c0.935-0.767,2.017-1.15,3.243-1.15c0.583,0,1.158,0.1,1.725,0.3
		c0.567,0.199,1.066,0.49,1.495,0.874c0.43,0.383,0.774,0.858,1.035,1.426s0.391,1.219,0.391,1.955v20.749h-9.293V5.352
		C78.845,3.849,79.313,2.714,80.249,1.948z M93.953,41.835c-0.445-0.215-0.813-0.498-1.104-0.852s-0.514-0.744-0.667-1.174
		s-0.23-0.873-0.23-1.334c0-0.889,0.276-1.701,0.828-2.438c0.552-0.736,1.442-1.104,2.668-1.104h0.966V15.75
		c0-1.38,0.398-2.4,1.196-3.06c0.798-0.659,1.871-0.989,3.221-0.989c1.319,0,2.377,0.338,3.174,1.013s1.196,1.687,1.196,3.036
		v19.185h3.404V15.75c0-1.38,0.391-2.4,1.173-3.06c0.782-0.659,1.848-0.989,3.198-0.989c1.318,0,2.384,0.338,3.197,1.013
		c0.813,0.675,1.219,1.687,1.219,3.036v19.185h1.289c1.227,0,2.116,0.367,2.668,1.104c0.552,0.736,0.828,1.549,0.828,2.438
		c0,0.461-0.077,0.904-0.23,1.334s-0.375,0.82-0.667,1.174s-0.659,0.637-1.104,0.852s-0.943,0.322-1.495,0.322H95.448
		C94.896,42.157,94.397,42.05,93.953,41.835z M94.505,9.63c-0.445-0.214-0.821-0.498-1.127-0.851s-0.537-0.752-0.69-1.196
		s-0.23-0.897-0.23-1.357s0.069-0.912,0.207-1.356c0.138-0.445,0.353-0.852,0.644-1.22s0.659-0.667,1.104-0.897
		C94.857,2.523,95.387,2.408,96,2.408h21.484c0.613,0,1.143,0.115,1.587,0.345c0.445,0.23,0.813,0.529,1.104,0.897
		c0.291,0.368,0.506,0.774,0.644,1.22c0.138,0.444,0.207,0.896,0.207,1.356s-0.077,0.913-0.23,1.357s-0.383,0.844-0.69,1.196
		c-0.307,0.353-0.682,0.637-1.127,0.851c-0.445,0.215-0.943,0.322-1.495,0.322H96C95.448,9.953,94.949,9.845,94.505,9.63z
		 M125.075,1.925c0.92-0.752,1.978-1.128,3.174-1.128c0.583,0,1.15,0.1,1.702,0.3c0.552,0.199,1.035,0.482,1.449,0.851
		s0.751,0.828,1.012,1.38c0.261,0.553,0.391,1.196,0.391,1.933V16.9h1.518c0.706,0,1.288,0.122,1.748,0.368
		c0.46,0.245,0.828,0.56,1.104,0.942c0.276,0.384,0.475,0.813,0.598,1.288c0.123,0.476,0.184,0.943,0.184,1.403
		s-0.061,0.928-0.184,1.403c-0.123,0.476-0.322,0.904-0.598,1.288c-0.276,0.384-0.652,0.698-1.127,0.943
		c-0.475,0.245-1.05,0.368-1.725,0.368h-1.518v19.092h-9.109V5.26C123.695,3.788,124.155,2.676,125.075,1.925z M179.241,35.692
		c0.506,0.23,0.92,0.529,1.242,0.896c0.322,0.369,0.552,0.783,0.689,1.242c0.139,0.461,0.207,0.922,0.207,1.381
		c0,0.49-0.076,0.967-0.229,1.426c-0.153,0.461-0.392,0.875-0.713,1.242c-0.322,0.369-0.729,0.66-1.22,0.875
		c-0.49,0.215-1.088,0.322-1.794,0.322h-35.148c-0.706,0-1.303-0.107-1.794-0.322s-0.897-0.506-1.219-0.875
		c-0.322-0.367-0.56-0.781-0.713-1.242c-0.153-0.459-0.23-0.936-0.23-1.426c0-0.459,0.069-0.92,0.207-1.381
		c0.138-0.459,0.368-0.873,0.69-1.242c0.322-0.367,0.736-0.666,1.242-0.896c0.506-0.23,1.112-0.346,1.817-0.346h35.148
		C178.13,35.347,178.735,35.462,179.241,35.692z M169.465,24.031h-25.579c-0.706,0-1.304-0.115-1.794-0.346
		c-0.491-0.229-0.905-0.528-1.242-0.896s-0.583-0.782-0.736-1.242s-0.23-0.921-0.23-1.381s0.077-0.92,0.23-1.38
		s0.391-0.874,0.713-1.242c0.322-0.368,0.736-0.667,1.242-0.896c0.506-0.23,1.112-0.346,1.817-0.346h26.177v-4.922
		c0-0.338-0.1-0.614-0.299-0.828c-0.199-0.215-0.484-0.322-0.852-0.322h-24.521c-0.706,0-1.311-0.115-1.817-0.346
		c-0.506-0.229-0.92-0.528-1.242-0.896c-0.322-0.368-0.567-0.79-0.736-1.266c-0.168-0.475-0.253-0.942-0.253-1.403
		c0-0.46,0.077-0.92,0.23-1.38s0.399-0.882,0.736-1.265c0.337-0.384,0.759-0.69,1.265-0.921c0.506-0.229,1.111-0.345,1.817-0.345
		h27.557c2.606,0,4.462,0.583,5.567,1.748c1.104,1.166,1.656,2.822,1.656,4.969v5.015c0,4.232-0.238,7.852-0.714,10.857
		c-0.476,3.006-1.403,5.444-2.783,7.315c-0.276,0.367-0.651,0.689-1.127,0.967c-0.476,0.275-0.997,0.475-1.564,0.598
		s-1.173,0.145-1.817,0.068s-1.258-0.283-1.84-0.621c-1.012-0.582-1.58-1.387-1.702-2.416c-0.123-1.027,0.077-2,0.598-2.92
		C168.774,26.975,169.188,25.656,169.465,24.031z M223.284,21.592v2.484h-18.172c-1.381,0-2.5-0.115-3.358-0.346
		c-0.858-0.229-1.526-0.613-2.001-1.149c-0.476-0.537-0.798-1.25-0.967-2.14c-0.168-0.89-0.252-2.009-0.252-3.358V9.033
		c0-1.319,0.084-2.431,0.252-3.336c0.169-0.904,0.491-1.625,0.967-2.162c0.475-0.536,1.143-0.92,2.001-1.149
		c0.858-0.23,1.978-0.346,3.358-0.346h11.594c2.055,0,3.549,0.269,4.484,0.806c0.936,0.536,1.541,1.464,1.818,2.783h6.9V5.26
		c0-1.473,0.453-2.584,1.357-3.335c0.904-0.752,1.955-1.128,3.15-1.128c0.584,0,1.15,0.1,1.703,0.3
		c0.553,0.199,1.043,0.482,1.473,0.851c0.428,0.368,0.773,0.828,1.035,1.38c0.26,0.553,0.391,1.196,0.391,1.933v19.966h-9.109
		v-3.634H223.284z M205.273,43.353c-1.181-0.43-2.163-1.027-2.944-1.795c-0.782-0.766-1.365-1.67-1.748-2.713
		c-0.384-1.043-0.575-2.193-0.575-3.451c0-1.227,0.191-2.369,0.575-3.428c0.383-1.059,0.966-1.979,1.748-2.76
		c0.781-0.781,1.764-1.396,2.944-1.84c1.181-0.445,2.568-0.667,4.163-0.667h20.611c1.564,0,2.936,0.215,4.117,0.644
		c1.18,0.43,2.162,1.035,2.943,1.816c0.783,0.783,1.373,1.703,1.771,2.762c0.398,1.057,0.598,2.215,0.598,3.473
		s-0.199,2.416-0.598,3.473c-0.398,1.059-0.988,1.971-1.771,2.738c-0.781,0.768-1.764,1.357-2.943,1.771
		c-1.182,0.414-2.553,0.621-4.117,0.621h-20.611C207.842,43.997,206.454,43.782,205.273,43.353z M207.298,17.175
		c0.138,0.153,0.438,0.23,0.896,0.23h6.717V9.861c0-0.43-0.076-0.729-0.23-0.897c-0.152-0.168-0.459-0.253-0.92-0.253h-5.566
		c-0.459,0-0.759,0.085-0.896,0.253c-0.139,0.169-0.207,0.468-0.207,0.897v6.349C207.091,16.7,207.159,17.022,207.298,17.175z
		 M229.634,36.866c0.336-0.461,0.506-0.951,0.506-1.473s-0.17-0.996-0.506-1.426c-0.338-0.43-1.014-0.645-2.025-0.645h-15.733
		c-1.013,0-1.687,0.215-2.024,0.645c-0.337,0.43-0.506,0.904-0.506,1.426s0.169,1.012,0.506,1.473
		c0.338,0.459,1.012,0.689,2.024,0.689h15.733C228.62,37.556,229.296,37.325,229.634,36.866z M229.909,15.198v-3.175h-6.625v3.175
		H229.909z M260.038,29.413c0-0.736,0.129-1.373,0.391-1.91c0.26-0.536,0.605-0.981,1.035-1.333s0.928-0.605,1.494-0.759
		c0.568-0.153,1.158-0.23,1.771-0.23c0.584,0,1.158,0.085,1.725,0.253c0.568,0.169,1.074,0.422,1.52,0.76
		c0.443,0.337,0.797,0.774,1.059,1.31c0.26,0.537,0.391,1.174,0.391,1.91v6.211h12.973c0.705,0,1.305,0.107,1.795,0.322
		s0.889,0.498,1.195,0.85c0.307,0.354,0.529,0.752,0.668,1.197c0.137,0.445,0.207,0.896,0.207,1.357
		c0,0.951-0.299,1.809-0.898,2.576c-0.598,0.766-1.586,1.15-2.967,1.15h-35.332c-1.379,0-2.369-0.385-2.967-1.15
		c-0.598-0.768-0.896-1.625-0.896-2.576c0-0.461,0.068-0.912,0.207-1.357c0.137-0.445,0.359-0.844,0.666-1.197
		c0.307-0.352,0.705-0.635,1.197-0.85c0.49-0.215,1.088-0.322,1.793-0.322h12.975V29.413z M268.778,10.321
		c1.932,0.062,3.842,0.444,5.729,1.15c1.885,0.705,3.596,1.764,5.129,3.174c1.533,1.411,2.814,3.175,3.842,5.291
		s1.648,4.615,1.863,7.499h-9.34c-0.246-1.502-0.689-2.86-1.334-4.072c-0.645-1.211-1.441-2.23-2.393-3.059
		s-2.031-1.465-3.242-1.909c-1.213-0.445-2.508-0.652-3.889-0.621c-1.043,1.41-2.223,2.698-3.543,3.864
		c-1.318,1.165-2.713,2.17-4.186,3.014c-1.473,0.843-2.982,1.502-4.531,1.978s-3.074,0.729-4.578,0.76
		c-1.135,0.029-2.115-0.269-2.943-0.898s-1.305-1.511-1.428-2.646c-0.121-1.104,0.107-2.07,0.691-2.898
		c0.582-0.828,1.457-1.364,2.621-1.61c1.535-0.307,3.006-0.835,4.418-1.587c1.41-0.751,2.684-1.702,3.818-2.853
		c1.135-1.149,2.086-2.499,2.852-4.048c0.768-1.549,1.273-3.305,1.518-5.268c0.186-1.473,0.768-2.562,1.748-3.267
		c0.982-0.705,2.117-0.997,3.406-0.874c1.348,0.092,2.43,0.56,3.242,1.403c0.813,0.843,1.189,2.001,1.127,3.473
		C269.315,7.76,269.116,9.094,268.778,10.321z M307.187,1.695c0.828,0.813,1.258,1.955,1.289,3.428h6.67
		c1.135,0,2.01,0.321,2.623,0.966c0.613,0.644,0.92,1.457,0.92,2.438c0,0.92-0.283,1.71-0.852,2.369
		c-0.566,0.659-1.342,1.035-2.322,1.127c0.49,1.227,0.736,2.592,0.736,4.095v1.932c0,3.159-0.721,5.582-2.162,7.27
		c-1.441,1.687-3.404,2.805-5.889,3.358v6.303h6.854c1.412,0,2.408,0.375,2.99,1.127c0.584,0.752,0.875,1.604,0.875,2.553
		c0,0.982-0.299,1.85-0.896,2.6c-0.6,0.752-1.588,1.127-2.969,1.127h-21.898c-1.379,0-2.377-0.375-2.99-1.127
		c-0.613-0.75-0.92-1.617-0.92-2.6c0-0.949,0.299-1.801,0.896-2.553c0.6-0.752,1.604-1.127,3.014-1.127h6.119v-6.303
		c-2.484-0.553-4.447-1.671-5.889-3.358c-1.441-1.688-2.162-4.11-2.162-7.27v-1.932c0-1.564,0.23-2.93,0.689-4.095
		c-0.98-0.092-1.756-0.468-2.322-1.127c-0.568-0.659-0.852-1.449-0.852-2.369c0-0.981,0.307-1.795,0.92-2.438
		c0.613-0.645,1.488-0.966,2.623-0.966h6.717c0.029-1.473,0.459-2.615,1.287-3.428s1.979-1.219,3.451-1.219
		S306.36,0.882,307.187,1.695z M306.521,21.339c0.781-0.599,1.174-1.618,1.174-3.06v-2.622c0-1.441-0.393-2.462-1.174-3.06
		c-0.781-0.599-1.711-0.897-2.783-0.897c-1.074,0-2.002,0.299-2.783,0.897c-0.783,0.598-1.174,1.618-1.174,3.06v2.622
		c0,1.441,0.391,2.461,1.174,3.06c0.781,0.598,1.709,0.896,2.783,0.896C304.81,22.236,305.739,21.937,306.521,21.339z
		 M321.956,1.925c0.92-0.752,1.977-1.128,3.174-1.128c0.582,0,1.15,0.1,1.701,0.3c0.553,0.199,1.035,0.482,1.449,0.851
		s0.752,0.828,1.014,1.38c0.26,0.553,0.391,1.196,0.391,1.933V16.9h1.518c0.705,0,1.289,0.122,1.748,0.368
		c0.461,0.245,0.828,0.56,1.104,0.942c0.277,0.384,0.477,0.813,0.6,1.288c0.121,0.476,0.184,0.943,0.184,1.403
		s-0.063,0.928-0.184,1.403c-0.123,0.476-0.322,0.904-0.6,1.288c-0.275,0.384-0.65,0.698-1.127,0.943
		c-0.475,0.245-1.049,0.368-1.725,0.368h-1.518v19.092h-9.109V5.26C320.575,3.788,321.034,2.676,321.956,1.925z"/>
</g>
</svg>
