<?xml version="1.0" encoding="utf-8"?>
<!-- Generator: Adobe Illustrator 16.0.0, SVG Export Plug-In . SVG Version: 6.00 Build 0)  -->
<!DOCTYPE svg PUBLIC "-//W3C//DTD SVG 1.1//EN" "http://www.w3.org/Graphics/SVG/1.1/DTD/svg11.dtd">
<svg version="1.1" id="레이어_1" xmlns="http://www.w3.org/2000/svg" xmlns:xlink="http://www.w3.org/1999/xlink" x="0px"
	 y="0px" width="238.73px" height="44.56px" viewBox="0 0 238.73 44.56" enable-background="new 0 0 238.73 44.56"
	 xml:space="preserve">
<g>
	<defs>
		<rect id="SVGID_1_" x="-101" y="-9.582" width="442" height="72.471"/>
	</defs>
	<clipPath id="SVGID_2_">
		<use xlink:href="#SVGID_1_"  overflow="visible"/>
	</clipPath>
	<path clip-path="url(#SVGID_2_)" fill="#E37476" d="M18.756,12.115c0,0.768-0.046,1.473-0.138,2.116
		c3.527-0.03,6.157,0.852,7.89,2.646s2.568,4.685,2.507,8.672h-8.603c0.153-1.748-0.176-3.066-0.989-3.956
		c-0.813-0.89-1.909-1.258-3.29-1.104c-1.38,1.841-3.128,3.221-5.244,4.141c-2.117,0.92-4.279,1.38-6.487,1.38
		c-1.135,0-2.093-0.299-2.875-0.896c-0.782-0.599-1.173-1.419-1.173-2.462c0-1.073,0.269-1.909,0.805-2.507s1.265-0.943,2.186-1.035
		c2.146-0.245,3.818-0.997,5.014-2.254c1.196-1.258,1.794-2.837,1.794-4.739v-0.275H3.942c-0.552,0-1.035-0.107-1.449-0.322
		s-0.759-0.491-1.035-0.828c-0.276-0.338-0.491-0.713-0.644-1.127s-0.23-0.836-0.23-1.266c0-0.398,0.062-0.82,0.184-1.265
		C0.891,6.586,1.09,6.196,1.366,5.858c0.276-0.337,0.629-0.62,1.058-0.851c0.43-0.23,0.936-0.345,1.518-0.345h6.073V4.524
		c0-1.38,0.383-2.392,1.15-3.036c0.767-0.644,1.871-0.966,3.313-0.966c1.441,0,2.553,0.322,3.335,0.966
		c0.782,0.645,1.173,1.656,1.173,3.036v0.139h6.257c0.583,0,1.089,0.114,1.518,0.345s0.782,0.514,1.058,0.851
		c0.276,0.338,0.476,0.729,0.598,1.174c0.123,0.444,0.184,0.866,0.184,1.265c0,0.43-0.077,0.852-0.23,1.266
		s-0.368,0.789-0.644,1.127c-0.276,0.337-0.621,0.613-1.035,0.828s-0.897,0.322-1.449,0.322h-6.487V12.115z M6.335,43.651
		c-0.859-0.23-1.526-0.613-2.001-1.15c-0.475-0.537-0.797-1.25-0.966-2.139c-0.169-0.889-0.253-2.01-0.253-3.357v-2.484
		c0-1.32,0.084-2.432,0.253-3.336c0.168-0.904,0.491-1.625,0.966-2.162c0.476-0.537,1.143-0.92,2.001-1.15s1.978-0.346,3.358-0.346
		h25.809c1.38,0,2.5,0.115,3.358,0.346c0.859,0.23,1.526,0.613,2.001,1.15s0.797,1.258,0.966,2.162
		c0.168,0.904,0.253,2.016,0.253,3.336v9.477H9.693C8.313,43.997,7.194,43.882,6.335,43.651z M12.385,37.325
		c0.138,0.246,0.437,0.369,0.897,0.369h19.736v-2.531c0-0.43-0.077-0.766-0.23-1.012c-0.153-0.244-0.46-0.367-0.92-0.367H13.282
		c-0.46,0-0.759,0.123-0.897,0.367c-0.138,0.246-0.207,0.582-0.207,1.012v1.105C12.178,36.728,12.247,37.081,12.385,37.325z
		 M33.961,1.948c0.936-0.767,2.017-1.15,3.244-1.15c0.583,0,1.158,0.101,1.725,0.3s1.066,0.49,1.495,0.874
		c0.429,0.383,0.774,0.858,1.035,1.426s0.391,1.22,0.391,1.955v20.749h-9.293V5.352C32.558,3.849,33.025,2.714,33.961,1.948z
		 M48.747,42.433c-0.951-1.043-1.426-2.33-1.426-3.865v-0.275c0-1.564,0.468-2.783,1.403-3.658c0.935-0.873,2.369-1.311,4.301-1.311
		H77.73v-0.828c0-0.275-0.054-0.459-0.161-0.551c-0.107-0.094-0.33-0.139-0.667-0.139H50.219c-0.797,0-1.403-0.254-1.817-0.76
		s-0.621-1.051-0.621-1.633s0.184-1.135,0.552-1.656c0.368-0.521,0.997-0.782,1.886-0.782h12.697v-1.564H49.252
		c-1.166,0-1.994-0.276-2.484-0.828s-0.736-1.242-0.736-2.07c0-0.767,0.245-1.441,0.736-2.024c0.491-0.582,1.319-0.874,2.484-0.874
		h36.574c1.196,0,2.04,0.292,2.53,0.874c0.491,0.583,0.736,1.258,0.736,2.024c0,0.828-0.253,1.519-0.759,2.07
		s-1.342,0.828-2.507,0.828H72.209v1.564h10.029c1.901,0,3.205,0.337,3.911,1.012c0.705,0.674,1.058,1.686,1.058,3.035v6.488H57.994
		c-0.307,0-0.521,0.084-0.644,0.252c-0.123,0.17-0.184,0.346-0.184,0.529c0,0.49,0.276,0.736,0.828,0.736h28.155
		c0.858,0,1.464,0.268,1.817,0.805c0.353,0.537,0.529,1.111,0.529,1.725c0,0.521-0.169,1.059-0.506,1.611s-0.951,0.828-1.84,0.828
		H53.025C51.124,43.997,49.697,43.476,48.747,42.433z M64.457,0.913c0.844-0.536,1.91-0.805,3.198-0.805s2.346,0.269,3.174,0.805
		c0.828,0.537,1.334,1.342,1.518,2.415h11.409c1.288,0,2.193,0.284,2.714,0.852s0.782,1.266,0.782,2.093
		c0,0.859-0.269,1.572-0.805,2.14s-1.434,0.852-2.691,0.852H71.887c-0.092,0.552-0.261,1.104-0.506,1.656
		c2.3-0.276,4.401-0.361,6.303-0.254c1.902,0.107,3.588,0.453,5.061,1.035c1.472,0.583,2.714,1.427,3.727,2.53
		c1.012,1.104,1.779,2.53,2.3,4.279h-9.339c-0.491-0.768-1.219-1.373-2.186-1.817c-0.966-0.445-2.07-0.752-3.312-0.92
		c-1.242-0.169-2.592-0.2-4.049-0.093c-1.457,0.107-2.921,0.33-4.394,0.667c-1.104,0.521-2.3,0.943-3.588,1.266
		s-2.599,0.56-3.933,0.713c-1.334,0.153-2.668,0.23-4.002,0.23c-1.334,0-2.63-0.077-3.888-0.23c-1.104-0.153-1.947-0.583-2.53-1.288
		c-0.583-0.705-0.751-1.595-0.506-2.668c0.214-0.951,0.713-1.588,1.495-1.909c0.782-0.322,1.679-0.438,2.691-0.346
		c1.38,0.153,2.691,0.199,3.933,0.139c1.242-0.062,2.377-0.215,3.404-0.46c1.028-0.246,1.917-0.583,2.668-1.013
		s1.342-0.936,1.771-1.518h-11.64c-1.257,0-2.154-0.284-2.691-0.852c-0.537-0.567-0.805-1.28-0.805-2.14
		c0-0.827,0.261-1.525,0.782-2.093c0.521-0.567,1.426-0.852,2.714-0.852h11.547C63.1,2.254,63.614,1.45,64.457,0.913z
		 M118.255,44.228h-9.385v-9.846H95.896c-1.38,0-2.369-0.383-2.967-1.15s-0.897-1.625-0.897-2.576c0-0.461,0.069-0.912,0.207-1.357
		c0.138-0.445,0.36-0.852,0.667-1.219c0.307-0.369,0.706-0.66,1.196-0.875c0.491-0.215,1.089-0.322,1.794-0.322h35.332
		c0.705,0,1.304,0.107,1.795,0.322c0.49,0.214,0.889,0.505,1.195,0.875c0.307,0.367,0.529,0.773,0.668,1.219
		c0.137,0.445,0.207,0.896,0.207,1.357c0,0.951-0.3,1.809-0.898,2.576c-0.598,0.768-1.586,1.15-2.967,1.15h-12.973V44.228z
		 M117.933,7.261c-0.062,0.445-0.138,0.897-0.23,1.357c1.963,0.03,3.887,0.376,5.773,1.035s3.588,1.656,5.107,2.99
		c1.518,1.334,2.783,3.028,3.795,5.084c1.012,2.055,1.609,4.478,1.794,7.269h-9.293c-0.245-1.411-0.675-2.684-1.288-3.818
		s-1.381-2.094-2.301-2.875c-0.919-0.782-1.962-1.373-3.128-1.771s-2.423-0.583-3.772-0.552c-1.042,1.38-2.231,2.637-3.565,3.772
		c-1.334,1.135-2.76,2.101-4.278,2.897c-1.518,0.798-3.09,1.411-4.716,1.841c-1.625,0.429-3.22,0.644-4.784,0.644
		c-1.135,0-2.109-0.314-2.921-0.942c-0.813-0.629-1.265-1.511-1.357-2.646c-0.092-1.104,0.161-2.063,0.759-2.876
		c0.598-0.813,1.48-1.326,2.646-1.541c1.502-0.275,2.952-0.743,4.347-1.403c1.396-0.659,2.653-1.495,3.772-2.507
		c1.12-1.012,2.063-2.2,2.83-3.565c0.767-1.365,1.272-2.875,1.518-4.531c0.215-1.473,0.805-2.554,1.771-3.243
		c0.966-0.69,2.093-0.989,3.381-0.897c1.35,0.123,2.416,0.598,3.198,1.426c0.782,0.828,1.142,1.979,1.081,3.45
		C118.041,6.349,117.995,6.817,117.933,7.261z M168.232,1.787c0.783,0.782,1.174,1.909,1.174,3.382V5.72h5.705
		c0.705,0,1.295,0.115,1.771,0.345c0.476,0.23,0.866,0.537,1.173,0.921c0.307,0.383,0.521,0.805,0.645,1.265s0.184,0.92,0.184,1.38
		c0,0.461-0.068,0.921-0.207,1.381c-0.138,0.46-0.352,0.874-0.644,1.242s-0.683,0.667-1.173,0.896
		c-0.491,0.23-1.074,0.346-1.748,0.346h-5.889v2.806c0,1.166-0.039,2.285-0.115,3.358c-0.077,1.074-0.191,2.102-0.346,3.083
		c1.656,0.521,3.137,1.234,4.439,2.139c1.304,0.905,2.393,2.086,3.267,3.543c0.874,1.455,1.519,3.242,1.933,5.359
		c0.414,2.115,0.529,4.662,0.345,7.637h-8.511c0.338-2.945,0.191-5.283-0.438-7.016c-0.629-1.734-1.679-3.045-3.15-3.934
		c-1.166,2.699-2.646,4.953-4.439,6.762c-1.795,1.811-3.842,3.189-6.143,4.141c-0.49,0.215-1.012,0.33-1.564,0.346
		c-0.552,0.016-1.088-0.047-1.609-0.184c-0.521-0.139-0.997-0.361-1.426-0.668c-0.43-0.307-0.768-0.689-1.013-1.15
		c-0.43-0.828-0.536-1.717-0.322-2.668c0.215-0.951,0.782-1.701,1.702-2.254c1.411-0.828,2.653-1.795,3.727-2.898
		s1.971-2.4,2.691-3.887c0.721-1.489,1.258-3.213,1.61-5.176s0.528-4.218,0.528-6.763v-2.576h-6.164
		c-0.705,0-1.296-0.115-1.771-0.346c-0.475-0.229-0.874-0.528-1.195-0.896c-0.322-0.368-0.553-0.782-0.691-1.242
		c-0.137-0.46-0.207-0.92-0.207-1.381c0-0.46,0.07-0.92,0.207-1.38c0.139-0.46,0.361-0.882,0.668-1.265
		c0.307-0.384,0.705-0.69,1.195-0.921c0.491-0.229,1.09-0.345,1.795-0.345h5.797V5.168c0-1.473,0.391-2.6,1.173-3.382
		s1.955-1.173,3.52-1.173C166.277,0.614,167.451,1.004,168.232,1.787z M178.055,24.352c-0.705,0-1.295-0.114-1.771-0.345
		c-0.476-0.229-0.874-0.536-1.196-0.92s-0.553-0.813-0.689-1.288c-0.139-0.476-0.207-0.943-0.207-1.403s0.068-0.928,0.207-1.403
		c0.137-0.476,0.359-0.896,0.666-1.265s0.706-0.675,1.196-0.92c0.491-0.246,1.089-0.368,1.794-0.368h5.659V5.26
		c0-1.472,0.46-2.584,1.38-3.335c0.92-0.752,1.979-1.128,3.175-1.128c0.583,0,1.149,0.101,1.702,0.3
		c0.552,0.199,1.043,0.482,1.473,0.851c0.429,0.368,0.773,0.828,1.035,1.38c0.26,0.553,0.391,1.196,0.391,1.933v38.737h-9.155
		V24.352H178.055z M207.861,34.128c0.307,0.262,0.858,0.393,1.656,0.393h13.571c0.706,0,1.304,0.107,1.794,0.32
		c0.491,0.215,0.897,0.508,1.22,0.875s0.552,0.773,0.69,1.219c0.138,0.445,0.207,0.898,0.207,1.357c0,0.951-0.308,1.816-0.921,2.6
		c-0.613,0.781-1.61,1.174-2.99,1.174h-16.976c-1.441,0-2.668-0.139-3.681-0.414c-1.012-0.277-1.832-0.721-2.461-1.336
		c-0.629-0.613-1.089-1.418-1.38-2.414c-0.292-0.998-0.438-2.217-0.438-3.658v-8.373c0-1.441,0.146-2.653,0.438-3.635
		c0.291-0.981,0.751-1.778,1.38-2.392s1.449-1.051,2.461-1.312c1.013-0.261,2.239-0.391,3.681-0.391h8.234v-6.671
		c0-0.307-0.076-0.599-0.229-0.874c-0.153-0.276-0.491-0.414-1.013-0.414h-10.581c-0.705,0-1.303-0.107-1.794-0.322
		c-0.49-0.215-0.89-0.506-1.196-0.874s-0.536-0.782-0.689-1.242s-0.23-0.92-0.23-1.38s0.069-0.92,0.207-1.381
		c0.138-0.46,0.368-0.874,0.69-1.242c0.321-0.367,0.729-0.667,1.219-0.896c0.491-0.23,1.089-0.346,1.794-0.346h13.02
		c1.595,0,2.906,0.123,3.934,0.368c1.027,0.246,1.848,0.645,2.462,1.196c0.613,0.553,1.042,1.273,1.288,2.162
		c0.245,0.89,0.367,1.994,0.367,3.313v16.103h-14.077c-0.798,0-1.35,0.13-1.656,0.391s-0.46,0.79-0.46,1.586v4.924
		C207.401,33.339,207.555,33.868,207.861,34.128z M229.53,5.352c0-1.503,0.46-2.638,1.38-3.404s1.993-1.15,3.221-1.15
		c1.227,0,2.3,0.384,3.22,1.15s1.38,1.901,1.38,3.404v38.645h-9.2V5.352z"/>
</g>
</svg>
