<?xml version="1.0" encoding="utf-8"?>
<!-- Generator: Adobe Illustrator 16.0.0, SVG Export Plug-In . SVG Version: 6.00 Build 0)  -->
<!DOCTYPE svg PUBLIC "-//W3C//DTD SVG 1.1//EN" "http://www.w3.org/Graphics/SVG/1.1/DTD/svg11.dtd">
<svg version="1.1" id="레이어_1" xmlns="http://www.w3.org/2000/svg" xmlns:xlink="http://www.w3.org/1999/xlink" x="0px"
	 y="0px" width="180.579px" height="44.56px" viewBox="0 0 180.579 44.56" enable-background="new 0 0 180.579 44.56"
	 xml:space="preserve">
<g>
	<defs>
		<rect id="SVGID_1_" x="-158.333" y="-9.582" width="499.241" height="72.471"/>
	</defs>
	<clipPath id="SVGID_2_">
		<use xlink:href="#SVGID_1_"  overflow="visible"/>
	</clipPath>
	<path clip-path="url(#SVGID_2_)" fill="#E37476" d="M8.028,42.524c-1.227-0.43-2.292-1.088-3.197-1.979
		c-0.905-0.889-1.618-2.016-2.14-3.381C2.17,35.8,1.91,34.183,1.91,32.312V16.624c0-1.503,0.199-2.807,0.598-3.91
		c-0.797-0.185-1.388-0.591-1.771-1.22c-0.383-0.628-0.575-1.356-0.575-2.185c0-0.981,0.253-1.802,0.759-2.462
		c0.506-0.659,1.327-0.989,2.461-0.989h4.324V5.26c0-1.38,0.36-2.461,1.081-3.243s1.787-1.173,3.198-1.173
		c1.441,0,2.53,0.391,3.266,1.173c0.736,0.782,1.104,1.863,1.104,3.243v0.598h4.232c1.135,0,1.956,0.33,2.461,0.989
		c0.506,0.66,0.759,1.48,0.759,2.462c0,0.828-0.192,1.557-0.575,2.185c-0.383,0.629-0.974,1.035-1.771,1.22
		c0.184,0.583,0.33,1.196,0.437,1.84c0.107,0.645,0.161,1.334,0.161,2.07v15.688c0,1.871-0.26,3.488-0.782,4.854
		s-1.234,2.492-2.139,3.381c-0.905,0.891-1.971,1.549-3.198,1.979c-1.227,0.43-2.545,0.645-3.956,0.645
		C10.574,43.169,9.255,42.954,8.028,42.524z M13.296,35.763c0.445-0.338,0.667-0.951,0.667-1.842V14.875
		c0-0.858-0.222-1.465-0.667-1.817s-0.882-0.529-1.311-0.529c-0.43,0-0.867,0.177-1.312,0.529c-0.444,0.353-0.667,0.959-0.667,1.817
		v19.045c0,0.891,0.223,1.504,0.667,1.842c0.445,0.336,0.882,0.506,1.312,0.506C12.414,36.269,12.851,36.099,13.296,35.763z
		 M32.963,24.997v19h-7.959V4.708c0-1.288,0.391-2.262,1.173-2.922c0.782-0.659,1.71-0.989,2.783-0.989
		c1.043,0,1.971,0.33,2.783,0.989c0.813,0.66,1.219,1.634,1.219,2.922v12.743h2.208V4.708c0-1.288,0.406-2.262,1.219-2.922
		c0.813-0.659,1.756-0.989,2.829-0.989c0.521,0,1.027,0.085,1.518,0.254c0.491,0.168,0.928,0.421,1.312,0.759
		c0.383,0.337,0.69,0.743,0.92,1.219s0.345,1.035,0.345,1.68v39.289h-8.143v-19H32.963z M49.313,7.745
		c0.69-1.441,1.641-2.63,2.853-3.565s2.63-1.626,4.255-2.07s3.389-0.667,5.291-0.667c1.871,0,3.627,0.223,5.268,0.667
		c1.641,0.444,3.06,1.135,4.256,2.07c1.196,0.936,2.139,2.124,2.829,3.565s1.035,3.175,1.035,5.198v3.727
		c0,1.595-0.222,3.014-0.667,4.256s-1.058,2.315-1.84,3.22c-0.782,0.905-1.718,1.656-2.806,2.255
		c-1.089,0.598-2.293,1.035-3.612,1.31v7.27h7.683c1.411,0,2.408,0.375,2.99,1.127c0.583,0.752,0.874,1.604,0.874,2.553
		c0,0.982-0.299,1.85-0.897,2.6c-0.598,0.752-1.587,1.127-2.967,1.127H50.716c-1.38,0-2.377-0.375-2.99-1.127
		c-0.613-0.75-0.92-1.617-0.92-2.6c0-0.949,0.299-1.801,0.897-2.553s1.603-1.127,3.013-1.127h6.533v-7.27
		c-1.319-0.275-2.53-0.712-3.634-1.31c-1.104-0.599-2.047-1.35-2.83-2.255c-0.782-0.904-1.396-1.978-1.84-3.22
		c-0.445-1.242-0.667-2.661-0.667-4.256v-3.727C48.277,10.919,48.623,9.186,49.313,7.745z M57.663,18.901
		c0.246,0.506,0.575,0.912,0.989,1.219s0.889,0.521,1.426,0.645c0.537,0.123,1.082,0.184,1.633,0.184
		c0.552,0,1.089-0.061,1.61-0.184s0.989-0.338,1.403-0.645s0.751-0.713,1.012-1.219c0.261-0.506,0.391-1.143,0.391-1.909v-4.37
		c0-0.736-0.13-1.357-0.391-1.863c-0.26-0.507-0.598-0.913-1.012-1.22s-0.882-0.529-1.403-0.667s-1.058-0.207-1.61-0.207
		c-0.552,0-1.096,0.069-1.633,0.207c-0.537,0.138-1.012,0.36-1.426,0.667s-0.744,0.713-0.989,1.22
		c-0.245,0.506-0.368,1.127-0.368,1.863v4.37C57.294,17.758,57.417,18.395,57.663,18.901z M79.377,5.352
		c0-1.503,0.46-2.638,1.38-3.404c0.92-0.767,1.994-1.15,3.22-1.15c1.227,0,2.3,0.384,3.22,1.15c0.92,0.767,1.38,1.901,1.38,3.404
		v38.645h-9.201V5.352z M97.129,30.771c1.104-1.518,1.994-3.273,2.669-5.268c0.675-1.993,1.149-4.248,1.426-6.763
		s0.414-5.352,0.414-8.511V6.64c0-1.472,0.46-2.584,1.38-3.335c0.92-0.752,1.979-1.127,3.175-1.127c0.583,0,1.15,0.1,1.702,0.299
		c0.553,0.199,1.035,0.49,1.449,0.874s0.752,0.852,1.012,1.403c0.262,0.552,0.392,1.181,0.392,1.886v3.543
		c0,1.38-0.03,2.706-0.093,3.979c-0.061,1.272-0.152,2.507-0.275,3.703c1.932,0.767,3.619,1.771,5.061,3.014s2.615,2.806,3.52,4.692
		c0.904,1.886,1.533,4.125,1.887,6.716c0.352,2.592,0.406,5.621,0.16,9.086h-8.925c0.521-3.711,0.499-6.785-0.069-9.223
		c-0.566-2.439-1.633-4.318-3.197-5.636c-1.993,6.931-5.397,11.701-10.213,14.308c-0.583,0.307-1.181,0.527-1.795,0.666
		c-0.613,0.139-1.211,0.184-1.793,0.139c-0.584-0.047-1.112-0.184-1.588-0.414c-0.475-0.23-0.866-0.545-1.173-0.943
		c-0.307-0.369-0.544-0.789-0.713-1.266c-0.168-0.475-0.237-0.967-0.207-1.473c0.031-0.506,0.177-1.004,0.437-1.494
		c0.261-0.49,0.652-0.92,1.174-1.289C94.63,33.614,96.026,32.288,97.129,30.771z M125.515,1.925c0.92-0.752,1.978-1.128,3.175-1.128
		c0.582,0,1.149,0.101,1.701,0.3c0.553,0.199,1.035,0.482,1.449,0.851s0.752,0.828,1.013,1.38c0.261,0.553,0.392,1.196,0.392,1.933
		V16.9h1.518c0.705,0,1.288,0.122,1.748,0.368c0.46,0.245,0.828,0.56,1.104,0.942c0.276,0.384,0.476,0.813,0.598,1.288
		c0.123,0.476,0.185,0.943,0.185,1.403s-0.062,0.928-0.185,1.403c-0.122,0.476-0.321,0.905-0.598,1.288
		c-0.276,0.384-0.651,0.698-1.128,0.943c-0.475,0.245-1.05,0.368-1.725,0.368h-1.518v19.092h-9.109V5.26
		C124.135,3.789,124.595,2.676,125.515,1.925z M140.714,7.1c0.629-1.318,1.511-2.399,2.646-3.243
		c1.135-0.843,2.492-1.457,4.071-1.84c1.58-0.384,3.32-0.575,5.222-0.575c3.313,0,6.073,0.605,8.281,1.817
		c2.208,1.211,3.588,3.166,4.141,5.865h6.349V5.26c0-1.472,0.46-2.584,1.38-3.335c0.92-0.752,1.979-1.128,3.175-1.128
		c0.582,0,1.149,0.101,1.702,0.3c0.552,0.199,1.042,0.482,1.472,0.851s0.774,0.828,1.035,1.38c0.261,0.553,0.392,1.196,0.392,1.933
		v18.862h-9.155v-7.821h-6.395c-0.614,2.638-2.017,4.539-4.21,5.705c-2.193,1.165-4.915,1.748-8.166,1.748
		c-1.932,0-3.695-0.191-5.29-0.575c-1.596-0.383-2.952-0.997-4.072-1.84c-1.119-0.844-1.985-1.925-2.599-3.243
		c-0.613-1.319-0.92-2.914-0.92-4.785v-1.426C139.772,10.014,140.085,8.419,140.714,7.1z M145.223,43.628
		c-0.844-0.244-1.511-0.629-2.001-1.148c-0.491-0.521-0.836-1.213-1.035-2.07c-0.199-0.859-0.299-1.902-0.299-3.129v-7.314
		c0-1.564,0.452-2.692,1.356-3.382c0.905-0.689,2.002-1.035,3.29-1.035c1.165,0,2.17,0.292,3.013,0.874
		c0.844,0.583,1.342,1.518,1.495,2.807h20.61c0.153-1.289,0.66-2.224,1.519-2.807c0.858-0.582,1.886-0.874,3.082-0.874
		c1.288,0,2.369,0.346,3.243,1.035c0.875,0.69,1.312,1.818,1.312,3.382v14.031H148.42C147.132,43.997,146.067,43.874,145.223,43.628
		z M149.824,16.371c0.721,0.567,1.664,0.852,2.829,0.852c1.166,0,2.108-0.284,2.829-0.852s1.081-1.434,1.081-2.6v-2.346
		c0-1.166-0.36-2.032-1.081-2.6s-1.663-0.851-2.829-0.851c-1.165,0-2.108,0.283-2.829,0.851s-1.081,1.434-1.081,2.6v2.346
		C148.743,14.937,149.103,15.803,149.824,16.371z M171.607,35.118h-20.519v1.609c0,0.521,0.077,0.844,0.23,0.967
		s0.49,0.184,1.012,0.184h19.276V35.118z"/>
</g>
</svg>
