<?xml version="1.0" encoding="utf-8"?>
<!-- Generator: Adobe Illustrator 16.0.0, SVG Export Plug-In . SVG Version: 6.00 Build 0)  -->
<!DOCTYPE svg PUBLIC "-//W3C//DTD SVG 1.1//EN" "http://www.w3.org/Graphics/SVG/1.1/DTD/svg11.dtd">
<svg version="1.1" id="레이어_1" xmlns="http://www.w3.org/2000/svg" xmlns:xlink="http://www.w3.org/1999/xlink" x="0px"
	 y="0px" width="239.74px" height="44.56px" viewBox="0 0 239.74 44.56" enable-background="new 0 0 239.74 44.56"
	 xml:space="preserve">
<g>
	<defs>
		<rect id="SVGID_1_" x="-42" y="-9.582" width="368.342" height="72.472"/>
	</defs>
	<clipPath id="SVGID_2_">
		<use xlink:href="#SVGID_1_"  overflow="visible"/>
	</clipPath>
	<path clip-path="url(#SVGID_2_)" fill="#E37476" d="M3.066,41.835c-0.429-0.215-0.79-0.491-1.081-0.828
		c-0.291-0.338-0.506-0.721-0.644-1.15c-0.138-0.43-0.207-0.875-0.207-1.334c0-0.798,0.215-1.533,0.644-2.209
		c0.43-0.674,1.135-1.088,2.116-1.242v-20.15c0-1.257,0.33-2.185,0.989-2.783s1.572-0.897,2.737-0.897s2.078,0.307,2.737,0.92
		s0.989,1.534,0.989,2.76v20.105h1.886V14.921c0-1.257,0.33-2.185,0.989-2.783c0.66-0.598,1.572-0.897,2.737-0.897
		c1.166,0,2.078,0.307,2.737,0.92c0.66,0.613,0.989,1.534,0.989,2.76v20.105c1.166,0.061,2.001,0.437,2.507,1.127
		c0.506,0.689,0.759,1.479,0.759,2.369c0,0.459-0.069,0.904-0.207,1.334c-0.138,0.43-0.353,0.813-0.644,1.15
		c-0.292,0.337-0.652,0.613-1.081,0.828c-0.43,0.215-0.92,0.322-1.473,0.322H4.538C3.986,42.157,3.496,42.05,3.066,41.835z
		 M3.618,9.447c-0.429-0.215-0.79-0.491-1.081-0.828S2.023,7.898,1.87,7.469c-0.153-0.43-0.23-0.875-0.23-1.334
		s0.069-0.912,0.207-1.357c0.138-0.445,0.345-0.843,0.621-1.196C2.744,3.229,3.097,2.945,3.526,2.73
		C3.956,2.515,4.477,2.408,5.09,2.408h14.722c0.613,0,1.135,0.107,1.564,0.322c0.43,0.215,0.782,0.499,1.058,0.851
		c0.276,0.353,0.483,0.751,0.621,1.196c0.138,0.445,0.207,0.897,0.207,1.357s-0.077,0.905-0.23,1.334
		c-0.153,0.429-0.375,0.813-0.667,1.15s-0.652,0.613-1.081,0.828s-0.92,0.322-1.472,0.322H5.09C4.538,9.769,4.047,9.662,3.618,9.447
		z M25.333,32.587c-0.705,0-1.28-0.107-1.725-0.321c-0.445-0.215-0.797-0.507-1.058-0.874c-0.261-0.368-0.445-0.798-0.552-1.289
		c-0.107-0.49-0.161-1.012-0.161-1.563c0-0.521,0.054-1.027,0.161-1.518c0.107-0.491,0.292-0.92,0.552-1.289
		c0.261-0.368,0.613-0.667,1.058-0.897s1.02-0.345,1.725-0.345h0.506v-3.819h-0.506c-0.705,0-1.28-0.107-1.725-0.322
		s-0.797-0.506-1.058-0.874c-0.261-0.368-0.445-0.797-0.552-1.288c-0.107-0.491-0.161-1.012-0.161-1.564
		c0-0.521,0.054-1.027,0.161-1.518c0.107-0.491,0.292-0.92,0.552-1.288s0.613-0.667,1.058-0.897c0.445-0.23,1.02-0.345,1.725-0.345
		h0.506V4.708c0-1.289,0.368-2.262,1.104-2.921c0.736-0.66,1.641-0.989,2.714-0.989c1.042,0,1.955,0.33,2.737,0.989
		c0.782,0.659,1.173,1.633,1.173,2.921v39.289h-7.729v-11.41H25.333z M36.788,1.787c0.797-0.66,1.733-0.989,2.806-0.989
		c1.043,0,1.971,0.33,2.783,0.989c0.813,0.659,1.219,1.633,1.219,2.921v39.289h-8.005V4.708C35.592,3.42,35.991,2.446,36.788,1.787z
		 M56.496,33.393c1.58-0.567,2.921-1.435,4.025-2.599c1.104-1.166,1.955-2.699,2.553-4.601s0.897-4.263,0.897-7.085v-7.453
		c0-0.337-0.1-0.614-0.299-0.828c-0.199-0.215-0.483-0.322-0.851-0.322H52.333c-0.706,0-1.311-0.115-1.817-0.345
		c-0.506-0.23-0.928-0.529-1.265-0.897s-0.59-0.79-0.759-1.265c-0.169-0.475-0.253-0.958-0.253-1.449
		c0-0.46,0.084-0.928,0.253-1.403c0.168-0.476,0.421-0.905,0.759-1.289c0.337-0.383,0.759-0.698,1.265-0.943
		c0.506-0.246,1.112-0.368,1.817-0.368H65.95c2.607,0,4.462,0.583,5.566,1.749c1.104,1.165,1.656,2.821,1.656,4.968v9.891
		c0,4.11-0.544,7.606-1.633,10.49c-1.089,2.883-2.584,5.244-4.485,7.084c-1.901,1.841-4.133,3.189-6.694,4.049
		s-5.313,1.318-8.258,1.381c-0.552,0-1.104-0.077-1.656-0.23c-0.552-0.154-1.035-0.391-1.449-0.713s-0.744-0.729-0.989-1.22
		c-0.245-0.491-0.353-1.089-0.322-1.794c0.061-0.981,0.375-1.81,0.943-2.484s1.434-1.073,2.6-1.196
		C53.161,34.335,54.917,33.96,56.496,33.393z M79.66,5.353c0-1.503,0.46-2.638,1.38-3.405c0.92-0.767,1.994-1.15,3.221-1.15
		c1.227,0,2.3,0.383,3.22,1.15c0.92,0.767,1.38,1.902,1.38,3.405v38.645H79.66V5.353z M97.55,43.514
		c-0.736-0.321-1.342-0.751-1.817-1.288c-0.476-0.537-0.828-1.158-1.058-1.863c-0.23-0.705-0.345-1.457-0.345-2.254V37.97
		c0-1.625,0.46-2.943,1.38-3.956c0.92-1.013,2.393-1.519,4.417-1.519h24.613v-0.828c0-0.49-0.321-0.736-0.966-0.736H97.413
		c-0.859,0-1.511-0.268-1.956-0.805s-0.667-1.111-0.667-1.725s0.207-1.197,0.621-1.749c0.414-0.552,1.081-0.828,2.001-0.828h12.513
		V23.8H96.354c-1.196,0-2.047-0.291-2.554-0.874c-0.506-0.583-0.759-1.288-0.759-2.116c0-0.797,0.245-1.51,0.736-2.139
		s1.35-0.943,2.577-0.943h36.437c1.227,0,2.085,0.314,2.576,0.943c0.49,0.629,0.735,1.342,0.735,2.139
		c0,0.828-0.253,1.534-0.759,2.116c-0.506,0.583-1.357,0.874-2.553,0.874h-13.572v2.024h9.846c1.963,0,3.313,0.36,4.048,1.081
		c0.736,0.72,1.104,1.787,1.104,3.197v7.131h-29.122c-0.337,0-0.567,0.069-0.69,0.207c-0.123,0.139-0.184,0.33-0.184,0.576
		c0,0.244,0.062,0.444,0.184,0.598s0.353,0.23,0.69,0.23h27.925c0.89,0,1.526,0.268,1.909,0.805s0.575,1.127,0.575,1.771
		c0,0.552-0.185,1.119-0.552,1.701c-0.369,0.584-1.013,0.875-1.933,0.875h-32.894C99.145,43.997,98.287,43.836,97.55,43.514z
		 M97.85,15.588c-0.782-0.199-1.388-0.544-1.817-1.035s-0.721-1.142-0.874-1.955s-0.23-1.833-0.23-3.06V7.791
		c0-1.227,0.077-2.247,0.23-3.059c0.153-0.813,0.445-1.465,0.874-1.956s1.035-0.835,1.817-1.035
		c0.782-0.199,1.802-0.299,3.059-0.299h27.328c1.257,0,2.277,0.1,3.059,0.299c0.782,0.2,1.389,0.544,1.817,1.035
		c0.43,0.491,0.721,1.143,0.874,1.956c0.153,0.813,0.23,1.833,0.23,3.059v8.097h-33.308C99.651,15.888,98.631,15.788,97.85,15.588z
		 M104.198,9.769c0.077,0.153,0.33,0.23,0.759,0.23h20.104v-1.61c0-0.368-0.038-0.636-0.115-0.805
		c-0.077-0.168-0.329-0.253-0.759-0.253h-19.23c-0.429,0-0.682,0.084-0.759,0.253c-0.077,0.169-0.115,0.437-0.115,0.805v0.506
		C104.083,9.324,104.122,9.616,104.198,9.769z M156.361,41.95c-0.936-0.2-1.656-0.576-2.162-1.128s-0.844-1.296-1.012-2.231
		c-0.17-0.936-0.254-2.139-0.254-3.611V9.585c0-1.472,0.084-2.676,0.254-3.612c0.168-0.935,0.506-1.679,1.012-2.231
		s1.227-0.928,2.162-1.127c0.936-0.2,2.17-0.299,3.703-0.299h6.165c1.534,0,2.761,0.1,3.681,0.299
		c0.92,0.199,1.633,0.575,2.139,1.127s0.844,1.296,1.012,2.231c0.17,0.936,0.254,2.14,0.254,3.612v32.664h-13.25
		C158.531,42.249,157.297,42.149,156.361,41.95z M161.422,9.424c-0.168,0.168-0.253,0.56-0.253,1.173v23.371
		c0,0.613,0.085,1.004,0.253,1.173c0.169,0.169,0.56,0.253,1.174,0.253h2.576V10.597c0-0.614-0.085-1.005-0.254-1.173
		c-0.168-0.169-0.56-0.253-1.173-0.253h-1.149C161.981,9.171,161.591,9.255,161.422,9.424z M183.987,24.997v19h-8.005V4.57
		c0-1.288,0.398-2.239,1.196-2.853c0.798-0.613,1.733-0.92,2.806-0.92c1.043,0,1.971,0.307,2.784,0.92
		c0.813,0.614,1.219,1.564,1.219,2.853v12.881h2.3V4.616c0-1.288,0.414-2.247,1.242-2.875c0.828-0.628,1.779-0.943,2.854-0.943
		c0.521,0,1.027,0.077,1.518,0.23s0.928,0.391,1.311,0.713c0.384,0.322,0.69,0.721,0.921,1.196c0.229,0.476,0.345,1.035,0.345,1.679
		v39.381h-8.189v-19H183.987z M202.867,24.398c-0.874-0.398-1.603-0.928-2.186-1.587c-0.582-0.66-1.02-1.426-1.311-2.3
		c-0.291-0.875-0.438-1.771-0.438-2.691v-0.828c0-1.901,0.583-3.443,1.748-4.624c1.166-1.181,2.898-1.771,5.199-1.771h9.477V9.125
		c0-0.307-0.061-0.529-0.184-0.667c-0.123-0.138-0.398-0.207-0.828-0.207h-12.191c-1.073,0-1.84-0.337-2.301-1.012
		c-0.459-0.675-0.689-1.38-0.689-2.117c0-0.797,0.238-1.525,0.713-2.185c0.476-0.659,1.234-0.989,2.277-0.989h15.918
		c2.301,0,3.949,0.521,4.945,1.564c0.997,1.042,1.495,2.408,1.495,4.094v8.741h-14.997c-0.43,0-0.729,0.107-0.897,0.322
		c-0.169,0.215-0.253,0.476-0.253,0.782v0.184c0,0.307,0.084,0.56,0.253,0.759c0.169,0.199,0.468,0.299,0.897,0.299h16.01
		c1.043,0,1.801,0.337,2.277,1.012c0.475,0.675,0.713,1.396,0.713,2.162s-0.23,1.48-0.69,2.139c-0.46,0.66-1.227,0.989-2.3,0.989
		h-19.645C204.746,24.997,203.742,24.797,202.867,24.398z M204.386,43.629c-0.844-0.245-1.511-0.629-2.001-1.15
		c-0.491-0.521-0.836-1.212-1.035-2.07s-0.299-1.901-0.299-3.128v-6.625c0-1.564,0.451-2.684,1.356-3.358s2.001-1.012,3.29-1.012
		c1.104,0,2.063,0.253,2.875,0.759c0.813,0.506,1.326,1.326,1.541,2.461h20.748c0.246-1.135,0.782-1.955,1.61-2.461
		c0.828-0.506,1.81-0.759,2.944-0.759c1.288,0,2.369,0.337,3.244,1.012c0.873,0.675,1.311,1.794,1.311,3.358v13.342h-32.388
		C206.295,43.997,205.229,43.874,204.386,43.629z M230.77,35.348h-20.519v1.427c0,0.521,0.077,0.843,0.23,0.966
		c0.153,0.122,0.491,0.184,1.012,0.184h19.276V35.348z M231.851,1.948c0.936-0.767,2.017-1.15,3.243-1.15
		c0.583,0,1.158,0.1,1.726,0.299c0.567,0.2,1.065,0.491,1.495,0.874c0.43,0.384,0.774,0.859,1.035,1.426s0.391,1.219,0.391,1.956
		v19.736h-9.293V5.353C230.447,3.85,230.915,2.715,231.851,1.948z"/>
</g>
</svg>
