<?xml version="1.0" encoding="utf-8"?>
<!-- Generator: Adobe Illustrator 16.0.0, SVG Export Plug-In . SVG Version: 6.00 Build 0)  -->
<!DOCTYPE svg PUBLIC "-//W3C//DTD SVG 1.1//EN" "http://www.w3.org/Graphics/SVG/1.1/DTD/svg11.dtd">
<svg version="1.1" id="레이어_1" xmlns="http://www.w3.org/2000/svg" xmlns:xlink="http://www.w3.org/1999/xlink" x="0px"
	 y="0px" width="288.503px" height="44.56px" viewBox="0 0 288.503 44.56" enable-background="new 0 0 288.503 44.56"
	 xml:space="preserve">
<g>
	<defs>
		<rect id="SVGID_1_" x="-106.667" y="-9.582" width="499.241" height="72.471"/>
	</defs>
	<clipPath id="SVGID_2_">
		<use xlink:href="#SVGID_1_"  overflow="visible"/>
	</clipPath>
	<path clip-path="url(#SVGID_2_)" fill="#E37476" d="M2.01,41.835c-0.429-0.215-0.79-0.492-1.081-0.828
		c-0.292-0.338-0.506-0.721-0.644-1.15c-0.138-0.43-0.207-0.875-0.207-1.334c0-0.799,0.214-1.533,0.644-2.209
		c0.429-0.674,1.135-1.088,2.116-1.242v-20.15c0-1.258,0.33-2.186,0.989-2.783c0.659-0.599,1.572-0.897,2.737-0.897
		c1.165,0,2.078,0.307,2.737,0.92c0.659,0.613,0.989,1.534,0.989,2.761v20.105h1.886V14.921c0-1.258,0.33-2.186,0.989-2.783
		c0.659-0.599,1.572-0.897,2.737-0.897s2.078,0.307,2.737,0.92s0.989,1.534,0.989,2.761v20.105c1.166,0.061,2.001,0.436,2.507,1.127
		c0.506,0.689,0.759,1.479,0.759,2.369c0,0.459-0.069,0.904-0.207,1.334c-0.138,0.43-0.353,0.813-0.644,1.15
		c-0.292,0.336-0.652,0.613-1.081,0.828s-0.92,0.322-1.472,0.322H3.482C2.93,42.157,2.439,42.05,2.01,41.835z M2.563,9.447
		c-0.43-0.215-0.79-0.491-1.082-0.828C1.19,8.281,0.967,7.898,0.814,7.468c-0.153-0.429-0.23-0.874-0.23-1.334
		s0.069-0.912,0.207-1.357c0.138-0.444,0.345-0.843,0.621-1.196C1.688,3.228,2.041,2.945,2.47,2.73s0.951-0.322,1.564-0.322h14.722
		c0.613,0,1.135,0.107,1.564,0.322s0.782,0.498,1.058,0.851C21.654,3.934,21.861,4.333,22,4.777
		c0.138,0.445,0.207,0.897,0.207,1.357s-0.077,0.905-0.23,1.334c-0.153,0.43-0.376,0.813-0.667,1.15
		c-0.292,0.337-0.652,0.613-1.081,0.828c-0.43,0.215-0.92,0.322-1.472,0.322H4.035C3.482,9.769,2.992,9.662,2.563,9.447z
		 M24.277,32.587c-0.706,0-1.281-0.107-1.725-0.322c-0.445-0.215-0.798-0.506-1.058-0.873c-0.261-0.369-0.445-0.797-0.552-1.289
		c-0.107-0.49-0.161-1.012-0.161-1.564c0-0.521,0.054-1.027,0.161-1.517c0.107-0.491,0.292-0.92,0.552-1.288
		c0.26-0.368,0.613-0.667,1.058-0.897c0.444-0.23,1.02-0.345,1.725-0.345h0.506v-3.818h-0.506c-0.706,0-1.281-0.107-1.725-0.322
		c-0.445-0.215-0.798-0.506-1.058-0.874c-0.261-0.368-0.445-0.798-0.552-1.288c-0.107-0.491-0.161-1.013-0.161-1.564
		c0-0.521,0.054-1.027,0.161-1.519c0.107-0.49,0.292-0.92,0.552-1.288c0.26-0.368,0.613-0.667,1.058-0.896
		c0.444-0.23,1.02-0.346,1.725-0.346h0.506V4.708c0-1.288,0.368-2.263,1.104-2.922c0.736-0.659,1.641-0.989,2.714-0.989
		c1.043,0,1.956,0.33,2.737,0.989c0.782,0.659,1.173,1.634,1.173,2.922v39.289h-7.729v-11.41H24.277z M35.732,1.787
		c0.797-0.659,1.733-0.989,2.807-0.989c1.042,0,1.97,0.33,2.783,0.989c0.813,0.659,1.219,1.634,1.219,2.922v39.289h-8.005V4.708
		C34.536,3.42,34.935,2.446,35.732,1.787z M55.44,33.392c1.58-0.566,2.921-1.434,4.025-2.598c1.104-1.166,1.956-2.699,2.554-4.601
		c0.598-1.901,0.897-4.264,0.897-7.085v-7.453c0-0.337-0.1-0.613-0.299-0.828c-0.199-0.215-0.483-0.322-0.851-0.322H51.276
		c-0.705,0-1.311-0.114-1.817-0.345c-0.506-0.229-0.928-0.529-1.265-0.897c-0.337-0.367-0.59-0.789-0.759-1.265
		c-0.168-0.476-0.253-0.958-0.253-1.449c0-0.46,0.084-0.928,0.253-1.403c0.169-0.476,0.422-0.904,0.759-1.288
		c0.337-0.383,0.759-0.697,1.265-0.943c0.506-0.245,1.112-0.367,1.817-0.367h13.618c2.607,0,4.462,0.582,5.567,1.748
		c1.104,1.165,1.656,2.821,1.656,4.968v9.892c0,4.109-0.544,7.606-1.633,10.49c-1.089,2.883-2.584,5.244-4.486,7.084
		c-1.901,1.84-4.133,3.189-6.693,4.049c-2.561,0.859-5.314,1.318-8.258,1.381c-0.552,0-1.104-0.078-1.656-0.23
		c-0.552-0.154-1.035-0.391-1.449-0.713s-0.744-0.729-0.989-1.219c-0.246-0.492-0.353-1.09-0.322-1.795
		c0.062-0.982,0.376-1.811,0.943-2.484c0.567-0.676,1.434-1.074,2.599-1.195C52.104,34.335,53.86,33.96,55.44,33.392z M78.604,5.352
		c0-1.503,0.46-2.638,1.38-3.404s1.994-1.15,3.22-1.15c1.227,0,2.3,0.384,3.221,1.15c0.92,0.767,1.38,1.901,1.38,3.404v38.645
		h-9.201V5.352z M96.495,43.513c-0.736-0.32-1.342-0.75-1.817-1.287c-0.475-0.537-0.828-1.158-1.058-1.863s-0.345-1.457-0.345-2.254
		V37.97c0-1.625,0.46-2.943,1.38-3.957c0.92-1.012,2.392-1.518,4.417-1.518h24.613v-0.828c0-0.49-0.322-0.736-0.966-0.736H96.356
		c-0.859,0-1.51-0.268-1.955-0.805s-0.667-1.111-0.667-1.725s0.207-1.197,0.621-1.749s1.081-0.828,2.001-0.828h12.514V23.8H95.298
		c-1.196,0-2.047-0.291-2.553-0.874s-0.759-1.288-0.759-2.116c0-0.798,0.246-1.511,0.736-2.14c0.491-0.628,1.35-0.942,2.576-0.942
		h36.436c1.227,0,2.086,0.314,2.577,0.942c0.491,0.629,0.736,1.342,0.736,2.14c0,0.828-0.253,1.533-0.759,2.116
		c-0.506,0.583-1.357,0.874-2.553,0.874h-13.571v2.024h9.845c1.963,0,3.312,0.36,4.048,1.081c0.736,0.72,1.104,1.787,1.104,3.197
		v7.131H104.04c-0.337,0-0.567,0.07-0.69,0.207c-0.123,0.139-0.184,0.33-0.184,0.576c0,0.244,0.062,0.443,0.184,0.598
		c0.123,0.152,0.353,0.23,0.69,0.23h27.925c0.89,0,1.526,0.268,1.909,0.805c0.384,0.537,0.575,1.127,0.575,1.771
		c0,0.551-0.184,1.119-0.552,1.701c-0.368,0.584-1.012,0.875-1.933,0.875H99.071C98.089,43.997,97.23,43.835,96.495,43.513z
		 M96.793,15.588c-0.782-0.199-1.388-0.544-1.817-1.035c-0.43-0.49-0.721-1.143-0.875-1.955s-0.23-1.833-0.23-3.06V7.791
		c0-1.227,0.077-2.247,0.23-3.06s0.445-1.464,0.875-1.955c0.429-0.49,1.035-0.836,1.817-1.035s1.802-0.299,3.06-0.299h27.327
		c1.257,0,2.277,0.1,3.059,0.299s1.388,0.545,1.817,1.035c0.429,0.491,0.721,1.143,0.874,1.955s0.23,1.833,0.23,3.06v8.097H99.853
		C98.595,15.887,97.576,15.788,96.793,15.588z M103.142,9.769c0.077,0.153,0.33,0.229,0.759,0.229h20.104v-1.61
		c0-0.367-0.039-0.636-0.115-0.805s-0.33-0.253-0.759-0.253h-19.23c-0.429,0-0.683,0.084-0.759,0.253s-0.115,0.438-0.115,0.805
		v0.507C103.027,9.324,103.065,9.616,103.142,9.769z M154.087,10.413c-0.706,0-1.297-0.115-1.771-0.345
		c-0.476-0.23-0.875-0.529-1.196-0.897c-0.322-0.368-0.552-0.789-0.69-1.265c-0.138-0.476-0.207-0.943-0.207-1.403
		s0.069-0.928,0.207-1.403c0.139-0.476,0.36-0.897,0.667-1.265c0.308-0.368,0.706-0.675,1.196-0.921
		c0.49-0.245,1.089-0.367,1.795-0.367h20.794c0.705,0,1.296,0.122,1.771,0.367c0.477,0.246,0.867,0.553,1.174,0.921
		c0.307,0.367,0.521,0.789,0.645,1.265c0.122,0.476,0.184,0.943,0.184,1.403s-0.069,0.928-0.207,1.403
		c-0.139,0.476-0.354,0.896-0.645,1.265s-0.682,0.667-1.173,0.897c-0.491,0.229-1.073,0.345-1.748,0.345h-5.981v4.969
		c0,1.073-0.03,2.101-0.092,3.082c-0.061,0.981-0.152,1.933-0.275,2.853c1.656,0.583,3.144,1.365,4.463,2.347
		c1.318,0.981,2.422,2.262,3.312,3.84c0.89,1.58,1.542,3.506,1.956,5.775s0.559,4.982,0.437,8.143h-8.603
		c0.275-3.068,0.114-5.566-0.483-7.5c-0.599-1.932-1.587-3.404-2.968-4.416c-1.073,2.914-2.5,5.367-4.278,7.361
		s-3.864,3.48-6.257,4.463c-0.49,0.215-1.02,0.328-1.587,0.344s-1.12-0.045-1.656-0.184s-1.027-0.354-1.472-0.645
		c-0.445-0.291-0.775-0.666-0.99-1.127c-0.459-0.857-0.574-1.764-0.344-2.715c0.229-0.949,0.805-1.717,1.725-2.299
		c1.441-0.891,2.676-1.934,3.703-3.129s1.879-2.584,2.554-4.164c0.675-1.579,1.165-3.38,1.472-5.405s0.461-4.31,0.461-6.855v-4.738
		H154.087z M183.622,1.925c0.92-0.752,1.978-1.128,3.174-1.128c0.583,0,1.15,0.1,1.702,0.3c0.552,0.199,1.035,0.482,1.449,0.851
		s0.751,0.828,1.013,1.38c0.26,0.553,0.391,1.196,0.391,1.933V16.9h1.519c0.705,0,1.288,0.122,1.748,0.368
		c0.46,0.245,0.828,0.56,1.104,0.942c0.276,0.384,0.476,0.813,0.599,1.288c0.122,0.476,0.184,0.943,0.184,1.403
		s-0.062,0.928-0.184,1.403c-0.123,0.476-0.322,0.904-0.599,1.288c-0.275,0.384-0.651,0.698-1.127,0.943s-1.05,0.368-1.725,0.368
		h-1.519v19.092h-9.109V5.26C182.241,3.788,182.702,2.676,183.622,1.925z M209.747,34.841v1.105c0,0.521,0.077,0.85,0.23,0.988
		s0.49,0.207,1.012,0.207h25.027c1.41,0,2.407,0.346,2.99,1.035s0.874,1.48,0.874,2.369c0,0.891-0.299,1.688-0.897,2.393
		c-0.598,0.705-1.587,1.059-2.967,1.059h-29.029c-1.288,0-2.354-0.123-3.197-0.369c-0.844-0.244-1.511-0.629-2.002-1.15
		c-0.49-0.52-0.835-1.211-1.035-2.068c-0.199-0.859-0.299-1.902-0.299-3.129v-2.439c0-1.563,0.46-2.705,1.381-3.426
		c0.92-0.721,2.023-1.082,3.312-1.082c0.706,0,1.381,0.123,2.024,0.367v-4.738h-6.257c-1.38,0-2.361-0.337-2.944-1.012
		c-0.582-0.675-0.874-1.473-0.874-2.393s0.292-1.732,0.874-2.438c0.583-0.705,1.564-1.058,2.944-1.058h23.279
		c1.38,0,2.361,0.353,2.944,1.058c0.582,0.706,0.874,1.519,0.874,2.438s-0.292,1.718-0.874,2.393
		c-0.583,0.675-1.564,1.012-2.944,1.012h-8.098v7.177h-6.624C209.655,33.661,209.747,34.228,209.747,34.841z M202.962,16.417
		c-1.089-0.384-1.979-0.905-2.669-1.564c-0.689-0.659-1.203-1.457-1.541-2.392c-0.337-0.936-0.506-1.956-0.506-3.06
		c0-1.104,0.169-2.124,0.506-3.06c0.338-0.936,0.852-1.74,1.541-2.415c0.69-0.675,1.58-1.204,2.669-1.587
		c1.089-0.384,2.369-0.575,3.841-0.575h10.674c1.472,0,2.745,0.191,3.818,0.575c1.073,0.383,1.955,0.912,2.646,1.587
		c0.689,0.675,1.203,1.479,1.541,2.415c0.337,0.936,0.506,1.955,0.506,3.06c0,2.208-0.683,4.025-2.047,5.451
		c-1.365,1.427-3.52,2.14-6.464,2.14h-10.674C205.331,16.992,204.051,16.8,202.962,16.417z M207.31,8.32
		c-0.276,0.229-0.414,0.59-0.414,1.081c0,0.46,0.138,0.82,0.414,1.081c0.275,0.261,0.767,0.391,1.472,0.391h6.671
		c0.705,0,1.196-0.13,1.472-0.391c0.276-0.261,0.414-0.621,0.414-1.081c0-0.491-0.138-0.852-0.414-1.081
		c-0.275-0.23-0.767-0.346-1.472-0.346h-6.671C208.076,7.974,207.585,8.089,207.31,8.32z M222.537,33.784
		c-1.319,0-2.263-0.299-2.829-0.898c-0.568-0.598-0.852-1.342-0.852-2.23s0.276-1.641,0.828-2.254s1.503-0.92,2.853-0.92h6.992V5.26
		c0-1.473,0.46-2.584,1.381-3.335c0.92-0.752,1.978-1.128,3.174-1.128c0.583,0,1.15,0.1,1.702,0.3
		c0.553,0.199,1.043,0.482,1.473,0.851c0.429,0.368,0.774,0.828,1.035,1.38c0.261,0.553,0.391,1.196,0.391,1.933v29.903h-9.155
		v-1.379H222.537z M260.854,1.695c0.828,0.813,1.258,1.955,1.288,3.428h6.671c1.135,0,2.009,0.321,2.623,0.966
		c0.613,0.644,0.92,1.457,0.92,2.438c0,0.92-0.284,1.71-0.852,2.369s-1.342,1.035-2.323,1.127c0.491,1.227,0.736,2.592,0.736,4.095
		v1.932c0,3.159-0.721,5.582-2.162,7.27c-1.441,1.687-3.404,2.805-5.889,3.358v6.303h6.854c1.411,0,2.408,0.375,2.99,1.127
		c0.583,0.752,0.874,1.604,0.874,2.553c0,0.982-0.299,1.85-0.896,2.6c-0.599,0.752-1.588,1.127-2.968,1.127h-21.898
		c-1.38,0-2.377-0.375-2.99-1.127c-0.613-0.75-0.92-1.617-0.92-2.6c0-0.949,0.299-1.801,0.896-2.553
		c0.599-0.752,1.603-1.127,3.014-1.127h6.119v-6.303c-2.484-0.553-4.447-1.671-5.889-3.358c-1.441-1.688-2.163-4.11-2.163-7.27
		v-1.932c0-1.564,0.23-2.93,0.69-4.095c-0.981-0.092-1.756-0.468-2.323-1.127s-0.851-1.449-0.851-2.369
		c0-0.981,0.307-1.795,0.92-2.438c0.613-0.645,1.487-0.966,2.622-0.966h6.717c0.03-1.473,0.46-2.615,1.288-3.428
		s1.979-1.219,3.45-1.219C258.876,0.476,260.026,0.882,260.854,1.695z M260.187,21.339c0.782-0.599,1.174-1.618,1.174-3.06v-2.622
		c0-1.441-0.392-2.462-1.174-3.06c-0.781-0.599-1.71-0.897-2.783-0.897s-2.001,0.299-2.783,0.897
		c-0.782,0.598-1.173,1.618-1.173,3.06v2.622c0,1.441,0.391,2.461,1.173,3.06c0.782,0.598,1.71,0.896,2.783,0.896
		S259.405,21.937,260.187,21.339z M275.622,1.925c0.92-0.752,1.978-1.128,3.174-1.128c0.583,0,1.15,0.1,1.702,0.3
		c0.552,0.199,1.035,0.482,1.449,0.851s0.752,0.828,1.013,1.38c0.26,0.553,0.391,1.196,0.391,1.933V16.9h1.519
		c0.705,0,1.288,0.122,1.748,0.368c0.46,0.245,0.828,0.56,1.104,0.942c0.276,0.384,0.476,0.813,0.599,1.288
		c0.122,0.476,0.184,0.943,0.184,1.403s-0.062,0.928-0.184,1.403c-0.123,0.476-0.322,0.904-0.599,1.288
		c-0.275,0.384-0.651,0.698-1.127,0.943s-1.05,0.368-1.725,0.368h-1.519v19.092h-9.109V5.26
		C274.241,3.788,274.701,2.676,275.622,1.925z"/>
</g>
</svg>
