<?xml version="1.0" encoding="utf-8"?>
<!-- Generator: Adobe Illustrator 16.0.0, SVG Export Plug-In . SVG Version: 6.00 Build 0)  -->
<!DOCTYPE svg PUBLIC "-//W3C//DTD SVG 1.1//EN" "http://www.w3.org/Graphics/SVG/1.1/DTD/svg11.dtd">
<svg version="1.1" id="레이어_1" xmlns="http://www.w3.org/2000/svg" xmlns:xlink="http://www.w3.org/1999/xlink" x="0px"
	 y="0px" width="1000px" height="58.772px" viewBox="0 0 1000 58.772" enable-background="new 0 0 1000 58.772"
	 xml:space="preserve">
<g>
	<defs>
		<rect id="SVGID_1_" width="1000" height="58.772"/>
	</defs>
	<clipPath id="SVGID_2_">
		<use xlink:href="#SVGID_1_"  overflow="visible"/>
	</clipPath>
	<path clip-path="url(#SVGID_2_)" fill="#E37476" d="M416.741,43.413c-1.227-0.43-2.293-1.088-3.197-1.979
		c-0.905-0.889-1.618-2.016-2.14-3.381s-0.782-2.982-0.782-4.854V17.512c0-1.502,0.199-2.806,0.599-3.91
		c-0.798-0.184-1.389-0.59-1.771-1.219c-0.384-0.629-0.575-1.357-0.575-2.186c0-0.981,0.253-1.802,0.759-2.461
		c0.507-0.66,1.327-0.989,2.462-0.989h4.324V6.148c0-1.38,0.36-2.461,1.081-3.243s1.787-1.173,3.197-1.173
		c1.441,0,2.53,0.391,3.267,1.173s1.104,1.863,1.104,3.243v0.599h4.232c1.135,0,1.955,0.329,2.461,0.989
		c0.506,0.659,0.759,1.479,0.759,2.461c0,0.828-0.191,1.557-0.575,2.186c-0.383,0.629-0.974,1.035-1.771,1.219
		c0.184,0.583,0.329,1.196,0.437,1.841c0.107,0.644,0.161,1.334,0.161,2.069V33.2c0,1.871-0.261,3.488-0.782,4.854
		s-1.234,2.492-2.139,3.381c-0.905,0.891-1.971,1.549-3.197,1.979c-1.228,0.43-2.546,0.645-3.957,0.645
		C419.287,44.057,417.968,43.842,416.741,43.413z M422.009,36.651c0.444-0.338,0.667-0.951,0.667-1.84V15.764
		c0-0.858-0.223-1.464-0.667-1.817c-0.445-0.353-0.882-0.528-1.312-0.528s-0.866,0.176-1.311,0.528
		c-0.445,0.354-0.668,0.959-0.668,1.817v19.047c0,0.889,0.223,1.502,0.668,1.84c0.444,0.336,0.881,0.506,1.311,0.506
		S421.563,36.987,422.009,36.651z M441.676,25.885v19h-7.959V5.597c0-1.288,0.392-2.262,1.173-2.921
		c0.782-0.66,1.71-0.989,2.784-0.989c1.042,0,1.97,0.329,2.783,0.989c0.813,0.659,1.219,1.633,1.219,2.921V18.34h2.208V5.597
		c0-1.288,0.406-2.262,1.22-2.921c0.813-0.66,1.756-0.989,2.829-0.989c0.521,0,1.027,0.084,1.519,0.253
		c0.49,0.169,0.928,0.422,1.311,0.759c0.384,0.338,0.69,0.744,0.92,1.22c0.23,0.475,0.346,1.035,0.346,1.679v39.289h-8.144v-19
		H441.676z M458.025,8.633c0.69-1.441,1.641-2.63,2.853-3.565c1.211-0.936,2.63-1.625,4.255-2.07
		c1.626-0.444,3.39-0.667,5.291-0.667c1.871,0,3.627,0.223,5.268,0.667c1.641,0.445,3.06,1.135,4.256,2.07s2.139,2.124,2.829,3.565
		s1.035,3.175,1.035,5.199v3.727c0,1.595-0.223,3.013-0.667,4.255c-0.445,1.242-1.059,2.315-1.841,3.221
		c-0.781,0.904-1.717,1.656-2.806,2.254c-1.089,0.599-2.293,1.035-3.611,1.312v7.268h7.683c1.411,0,2.407,0.377,2.99,1.127
		c0.583,0.752,0.874,1.604,0.874,2.555c0,0.98-0.299,1.848-0.896,2.6c-0.599,0.75-1.588,1.127-2.968,1.127h-23.141
		c-1.38,0-2.377-0.377-2.99-1.127c-0.613-0.752-0.92-1.619-0.92-2.6c0-0.951,0.299-1.803,0.896-2.555
		c0.599-0.75,1.603-1.127,3.014-1.127h6.532V28.6c-1.318-0.276-2.53-0.713-3.634-1.312c-1.104-0.598-2.048-1.35-2.829-2.254
		c-0.782-0.905-1.396-1.979-1.841-3.221c-0.444-1.242-0.667-2.66-0.667-4.255v-3.727C456.99,11.808,457.335,10.074,458.025,8.633z
		 M466.375,19.789c0.246,0.507,0.575,0.913,0.989,1.22s0.89,0.521,1.427,0.644c0.536,0.123,1.081,0.185,1.633,0.185
		s1.089-0.062,1.61-0.185c0.521-0.122,0.989-0.337,1.403-0.644s0.751-0.713,1.012-1.22c0.261-0.506,0.392-1.143,0.392-1.909v-4.37
		c0-0.736-0.131-1.357-0.392-1.863s-0.598-0.912-1.012-1.219s-0.882-0.529-1.403-0.667c-0.521-0.139-1.059-0.207-1.61-0.207
		s-1.097,0.068-1.633,0.207c-0.537,0.138-1.013,0.36-1.427,0.667s-0.743,0.713-0.989,1.219c-0.245,0.506-0.367,1.127-0.367,1.863
		v4.37C466.008,18.646,466.13,19.283,466.375,19.789z M488.09,6.241c0-1.503,0.46-2.638,1.38-3.404
		c0.921-0.768,1.994-1.15,3.221-1.15s2.3,0.383,3.221,1.15c0.92,0.767,1.38,1.901,1.38,3.404v38.644h-9.201V6.241z M505.843,31.659
		c1.104-1.518,1.993-3.274,2.668-5.267c0.675-1.994,1.15-4.248,1.427-6.764c0.275-2.515,0.414-5.352,0.414-8.511V7.529
		c0-1.473,0.46-2.584,1.38-3.336c0.92-0.751,1.979-1.127,3.174-1.127c0.583,0,1.15,0.1,1.702,0.299
		c0.553,0.199,1.035,0.491,1.449,0.874c0.414,0.384,0.752,0.852,1.013,1.403c0.261,0.553,0.391,1.181,0.391,1.887v3.542
		c0,1.38-0.03,2.707-0.092,3.979s-0.153,2.508-0.276,3.703c1.933,0.768,3.619,1.771,5.061,3.014s2.615,2.807,3.52,4.692
		c0.905,1.887,1.534,4.125,1.887,6.716s0.406,5.621,0.161,9.086h-8.926c0.521-3.711,0.499-6.785-0.068-9.223
		c-0.567-2.439-1.634-4.318-3.197-5.636c-1.994,6.931-5.398,11.701-10.214,14.308c-0.582,0.307-1.181,0.529-1.794,0.666
		c-0.613,0.139-1.211,0.186-1.794,0.139s-1.112-0.184-1.587-0.414c-0.476-0.23-0.867-0.545-1.174-0.943
		c-0.307-0.367-0.544-0.789-0.713-1.266c-0.169-0.475-0.237-0.965-0.207-1.471c0.03-0.508,0.177-1.006,0.438-1.496
		s0.651-0.92,1.173-1.287C503.343,34.504,504.738,33.176,505.843,31.659z M534.228,2.813c0.921-0.751,1.979-1.127,3.175-1.127
		c0.583,0,1.15,0.1,1.702,0.299s1.035,0.483,1.449,0.852c0.414,0.367,0.751,0.828,1.012,1.38s0.392,1.196,0.392,1.932v11.64h1.518
		c0.706,0,1.288,0.123,1.748,0.368c0.461,0.245,0.828,0.56,1.104,0.943c0.276,0.383,0.476,0.813,0.599,1.288
		c0.122,0.476,0.184,0.943,0.184,1.403s-0.062,0.928-0.184,1.402c-0.123,0.476-0.322,0.905-0.599,1.289
		c-0.276,0.383-0.651,0.697-1.127,0.942c-0.476,0.246-1.051,0.368-1.726,0.368h-1.518v19.092h-9.109V6.148
		C532.848,4.677,533.308,3.564,534.228,2.813z M549.428,7.989c0.629-1.319,1.51-2.4,2.645-3.243
		c1.135-0.844,2.492-1.457,4.072-1.841c1.579-0.383,3.319-0.575,5.221-0.575c3.313,0,6.073,0.606,8.281,1.817
		c2.209,1.212,3.589,3.167,4.141,5.866h6.349V6.148c0-1.472,0.46-2.584,1.38-3.335c0.921-0.751,1.979-1.127,3.175-1.127
		c0.583,0,1.15,0.1,1.702,0.299s1.043,0.483,1.473,0.852c0.429,0.367,0.773,0.828,1.035,1.38c0.26,0.552,0.391,1.196,0.391,1.932
		v18.862h-9.155v-7.82h-6.395c-0.613,2.638-2.017,4.539-4.21,5.704c-2.192,1.166-4.914,1.748-8.166,1.748
		c-1.932,0-3.695-0.191-5.29-0.574c-1.595-0.384-2.952-0.997-4.071-1.841c-1.12-0.843-1.986-1.925-2.6-3.243
		c-0.613-1.319-0.92-2.914-0.92-4.784v-1.427C548.484,10.902,548.799,9.308,549.428,7.989z M553.936,44.518
		c-0.843-0.246-1.51-0.629-2.001-1.15c-0.49-0.521-0.836-1.213-1.035-2.07c-0.199-0.859-0.299-1.902-0.299-3.129v-7.314
		c0-1.565,0.452-2.692,1.357-3.381c0.904-0.69,2.001-1.035,3.289-1.035c1.165,0,2.17,0.291,3.014,0.874
		c0.843,0.582,1.342,1.518,1.495,2.806h20.61c0.153-1.289,0.659-2.224,1.518-2.806c0.859-0.583,1.887-0.874,3.083-0.874
		c1.288,0,2.369,0.345,3.243,1.035c0.874,0.689,1.312,1.816,1.312,3.381v14.031h-32.389
		C555.845,44.885,554.779,44.762,553.936,44.518z M558.536,17.259c0.721,0.567,1.664,0.852,2.829,0.852
		c1.166,0,2.109-0.284,2.83-0.852s1.081-1.434,1.081-2.599v-2.347c0-1.165-0.36-2.032-1.081-2.6s-1.664-0.851-2.83-0.851
		c-1.165,0-2.108,0.283-2.829,0.851s-1.081,1.435-1.081,2.6v2.347C557.455,15.825,557.815,16.691,558.536,17.259z M580.32,36.006
		h-20.519v1.609c0,0.521,0.076,0.844,0.229,0.967s0.491,0.184,1.013,0.184h19.276V36.006z"/>
	
		<line clip-path="url(#SVGID_2_)" fill="none" stroke="#E37476" stroke-width="5" stroke-linecap="round" x1="2.5" y1="24.263" x2="367.6" y2="24.263"/>
	
		<line clip-path="url(#SVGID_2_)" fill="none" stroke="#E37476" stroke-width="5" stroke-linecap="round" x1="632.4" y1="24.263" x2="997.5" y2="24.263"/>
</g>
</svg>
