<?xml version="1.0" encoding="utf-8"?>
<!-- Generator: Adobe Illustrator 16.0.0, SVG Export Plug-In . SVG Version: 6.00 Build 0)  -->
<!DOCTYPE svg PUBLIC "-//W3C//DTD SVG 1.1//EN" "http://www.w3.org/Graphics/SVG/1.1/DTD/svg11.dtd">
<svg version="1.1" id="레이어_1" xmlns="http://www.w3.org/2000/svg" xmlns:xlink="http://www.w3.org/1999/xlink" x="0px"
	 y="0px" width="470.019px" height="44.56px" viewBox="0 0 470.019 44.56" enable-background="new 0 0 470.019 44.56"
	 xml:space="preserve">
<g>
	<defs>
		<rect id="SVGID_1_" x="-13.333" y="-9.582" width="569.953" height="72.471"/>
	</defs>
	<clipPath id="SVGID_2_">
		<use xlink:href="#SVGID_1_"  overflow="visible"/>
	</clipPath>
	<path clip-path="url(#SVGID_2_)" fill="#E37476" d="M10.705,25.411c-1.472-0.368-2.76-0.936-3.864-1.702
		c-1.104-0.767-1.986-1.756-2.646-2.968c-0.66-1.211-0.989-2.646-0.989-4.301v-2.53c0-0.521,0.077-1.035,0.23-1.542
		c0.153-0.506,0.353-0.974,0.598-1.402c-1.104,0-1.94-0.322-2.507-0.967c-0.567-0.644-0.851-1.38-0.851-2.208s0.284-1.595,0.851-2.3
		C2.094,4.785,2.945,4.432,4.08,4.432h6.671c0.031-1.288,0.46-2.293,1.288-3.014s1.932-1.081,3.313-1.081
		c1.35,0,2.446,0.36,3.29,1.081c0.843,0.721,1.295,1.726,1.357,3.014h6.625c1.165,0,2.017,0.353,2.553,1.059
		c0.537,0.705,0.805,1.472,0.805,2.3s-0.261,1.564-0.782,2.208c-0.521,0.645-1.365,0.967-2.53,0.967h-0.046
		c0.583,0.92,0.874,1.901,0.874,2.944v2.53c0,1.655-0.33,3.09-0.989,4.301c-0.659,1.212-1.541,2.201-2.646,2.968
		c-1.104,0.767-2.392,1.334-3.864,1.702s-3.021,0.552-4.646,0.552S12.177,25.779,10.705,25.411z M7.623,43.651
		c-0.859-0.23-1.526-0.613-2.001-1.15c-0.476-0.537-0.797-1.25-0.966-2.139c-0.168-0.889-0.253-2.01-0.253-3.359v-2.482
		c0-1.32,0.084-2.432,0.253-3.336c0.169-0.904,0.491-1.625,0.966-2.162c0.475-0.537,1.142-0.92,2.001-1.15s1.979-0.346,3.358-0.346
		h24.613c1.38,0,2.5,0.115,3.358,0.346s1.526,0.613,2.001,1.15c0.475,0.537,0.797,1.258,0.966,2.162
		c0.169,0.904,0.253,2.016,0.253,3.336v9.477H10.981C9.601,43.997,8.481,43.882,7.623,43.651z M17.951,18.648
		c0.782-0.553,1.173-1.38,1.173-2.484V13.91c0-1.104-0.391-1.933-1.173-2.484c-0.782-0.553-1.648-0.828-2.599-0.828
		s-1.817,0.275-2.599,0.828c-0.782,0.552-1.173,1.38-1.173,2.484v2.254c0,1.104,0.391,1.932,1.173,2.484
		c0.782,0.552,1.648,0.828,2.599,0.828S17.169,19.2,17.951,18.648z M13.672,37.325c0.138,0.246,0.437,0.369,0.897,0.369h18.54
		v-2.531c0-0.43-0.077-0.766-0.23-1.012s-0.46-0.367-0.92-0.367h-17.39c-0.46,0-0.759,0.121-0.897,0.367s-0.207,0.582-0.207,1.012
		v1.105C13.465,36.728,13.534,37.081,13.672,37.325z M34.145,1.948c0.905-0.767,1.971-1.15,3.198-1.15
		c1.196,0,2.254,0.392,3.174,1.174c0.92,0.782,1.38,1.909,1.38,3.381v3.91h1.426c0.706,0,1.288,0.123,1.748,0.368
		c0.46,0.246,0.828,0.553,1.104,0.921c0.276,0.367,0.475,0.789,0.598,1.265c0.123,0.476,0.184,0.943,0.184,1.403
		s-0.061,0.928-0.184,1.403c-0.123,0.476-0.322,0.904-0.598,1.288c-0.276,0.383-0.652,0.689-1.127,0.92
		c-0.475,0.23-1.05,0.345-1.725,0.345h-1.426v8.741h-9.109V5.352C32.788,3.849,33.24,2.714,34.145,1.948z M60.753,35.255
		c0.43-0.398,0.79-0.912,1.081-1.541c0.292-0.629,0.506-1.395,0.644-2.299c0.138-0.906,0.207-2.033,0.207-3.383V10.137
		c0-0.215-0.023-0.346-0.069-0.392s-0.1-0.069-0.161-0.069h-3.174v17.068c0,2.485-0.292,4.547-0.874,6.188s-1.319,2.975-2.208,4.002
		c-0.89,1.027-1.856,1.779-2.898,2.254c-1.043,0.477-2.009,0.775-2.898,0.898c-0.981,0.152-1.787-0.047-2.416-0.6
		c-0.628-0.551-1.004-1.195-1.127-1.932c-0.062-0.459-0.092-0.889-0.092-1.287c0-0.4,0.077-0.775,0.23-1.129
		c0.153-0.352,0.391-0.689,0.713-1.012c0.322-0.322,0.774-0.621,1.357-0.896c0.368-0.184,0.728-0.422,1.081-0.713
		c0.353-0.291,0.667-0.697,0.943-1.219c0.276-0.521,0.499-1.166,0.667-1.934c0.169-0.766,0.253-1.732,0.253-2.898V10.229
		c0-0.215-0.023-0.346-0.069-0.392s-0.1-0.068-0.161-0.068h-1.012c-0.614,0-1.127-0.1-1.542-0.3
		c-0.414-0.199-0.751-0.467-1.012-0.805c-0.261-0.337-0.453-0.721-0.575-1.15C47.52,7.085,47.458,6.64,47.458,6.18
		s0.054-0.904,0.161-1.334s0.291-0.813,0.552-1.15c0.261-0.337,0.606-0.613,1.035-0.828c0.43-0.215,0.951-0.321,1.564-0.321h13.617
		c1.227,0,2.208,0.084,2.944,0.253c0.736,0.168,1.304,0.444,1.703,0.828c0.398,0.383,0.667,0.912,0.805,1.587
		c0.138,0.675,0.207,1.518,0.207,2.53V17.82h2.254V4.616c0-1.288,0.383-2.246,1.15-2.875c0.767-0.629,1.671-0.943,2.714-0.943
		c1.012,0,1.917,0.322,2.714,0.967c0.797,0.644,1.196,1.595,1.196,2.852v39.381h-7.775V25.273h-2.254v3.037
		c0,2.514-0.207,4.646-0.621,6.395s-0.989,3.197-1.725,4.348c-0.736,1.15-1.603,2.039-2.599,2.668
		c-0.997,0.629-2.078,1.066-3.244,1.311c-0.981,0.215-1.894,0.139-2.737-0.23c-0.843-0.367-1.388-0.949-1.633-1.748
		c-0.307-0.951-0.322-1.863-0.046-2.736c0.276-0.875,0.875-1.541,1.794-2.002C59.818,36.007,60.324,35.655,60.753,35.255z
		 M83.25,1.741c0.797-0.629,1.718-0.943,2.76-0.943c1.012,0,1.932,0.322,2.76,0.967c0.828,0.644,1.242,1.595,1.242,2.852v39.381
		h-7.959V4.616C82.054,3.328,82.453,2.37,83.25,1.741z M110.733,1.878c0.843,0.813,1.265,1.956,1.265,3.428V5.72h6.441
		c1.135,0,1.994,0.353,2.576,1.059c0.583,0.705,0.874,1.549,0.874,2.53s-0.299,1.824-0.897,2.53
		c-0.598,0.705-1.449,1.058-2.553,1.058h-0.092c0.246,0.613,0.445,1.25,0.598,1.909s0.23,1.388,0.23,2.186V31.3
		c0,2.023-0.307,3.779-0.92,5.268c-0.613,1.486-1.449,2.713-2.507,3.68s-2.315,1.688-3.772,2.162
		c-1.457,0.477-3.029,0.713-4.715,0.713c-1.687,0-3.251-0.236-4.693-0.713c-1.441-0.475-2.691-1.195-3.75-2.162
		s-1.894-2.193-2.507-3.68c-0.614-1.488-0.92-3.244-0.92-5.268V16.992c0-1.503,0.261-2.868,0.782-4.095
		c-1.104,0-1.955-0.353-2.553-1.058c-0.598-0.706-0.897-1.549-0.897-2.53s0.284-1.825,0.852-2.53
		c0.567-0.706,1.418-1.059,2.553-1.059h6.395V5.306c0-1.472,0.422-2.614,1.265-3.428c0.843-0.813,2.001-1.219,3.474-1.219
		S109.89,1.066,110.733,1.878z M109.606,34.634c0.675-0.689,1.012-1.77,1.012-3.242V16.624c0-1.503-0.33-2.561-0.989-3.175
		c-0.66-0.613-1.449-0.92-2.369-0.92c-0.89,0-1.664,0.307-2.323,0.92c-0.66,0.614-0.989,1.672-0.989,3.175v14.768
		c0,1.473,0.33,2.553,0.989,3.242c0.659,0.691,1.434,1.035,2.323,1.035C108.149,35.669,108.931,35.325,109.606,34.634z
		 M126.076,1.925c0.92-0.752,1.978-1.128,3.174-1.128c0.583,0,1.15,0.1,1.702,0.3c0.552,0.199,1.035,0.482,1.449,0.851
		s0.751,0.828,1.012,1.38c0.261,0.553,0.391,1.196,0.391,1.933V16.9h1.518c0.706,0,1.288,0.122,1.748,0.368
		c0.46,0.245,0.828,0.56,1.104,0.942c0.276,0.384,0.475,0.813,0.598,1.288c0.123,0.476,0.184,0.943,0.184,1.403
		s-0.061,0.928-0.184,1.403c-0.123,0.476-0.322,0.904-0.598,1.288c-0.276,0.384-0.652,0.698-1.127,0.943
		c-0.475,0.245-1.05,0.368-1.725,0.368h-1.518v19.092h-9.109V5.26C124.695,3.788,125.156,2.676,126.076,1.925z M180.311,20.465
		c0.491,0.229,0.89,0.521,1.196,0.874s0.529,0.759,0.667,1.219s0.207,0.92,0.207,1.38c0,0.951-0.299,1.817-0.897,2.6
		s-1.587,1.172-2.967,1.172h-35.332c-1.38,0-2.37-0.39-2.967-1.172c-0.598-0.782-0.897-1.648-0.897-2.6
		c0-0.46,0.069-0.92,0.207-1.38c0.138-0.46,0.36-0.866,0.667-1.219c0.307-0.353,0.706-0.645,1.196-0.874
		c0.491-0.23,1.089-0.346,1.794-0.346h35.332C179.222,20.12,179.82,20.235,180.311,20.465z M144.564,17.014
		c-0.859-0.229-1.533-0.605-2.024-1.127s-0.836-1.203-1.035-2.047c-0.2-0.844-0.299-1.894-0.299-3.151V5.674
		c0-1.564,0.468-2.699,1.403-3.404s2.047-1.059,3.335-1.059s2.384,0.354,3.289,1.059s1.357,1.84,1.357,3.404v3.404
		c0,0.521,0.077,0.844,0.23,0.966c0.153,0.123,0.491,0.185,1.012,0.185h24.981c1.411,0,2.407,0.36,2.99,1.081
		c0.583,0.721,0.874,1.541,0.874,2.461c0,0.951-0.299,1.787-0.897,2.508s-1.587,1.081-2.967,1.081h-29.029
		C146.497,17.36,145.423,17.245,144.564,17.014z M144.979,43.651c-0.859-0.23-1.533-0.605-2.024-1.127s-0.836-1.203-1.035-2.047
		c-0.2-0.844-0.299-1.895-0.299-3.152V34.06c0-1.564,0.476-2.699,1.426-3.404s2.07-1.059,3.358-1.059s2.385,0.354,3.29,1.059
		s1.357,1.84,1.357,3.404v1.656c0,0.521,0.077,0.844,0.23,0.967c0.153,0.121,0.491,0.184,1.012,0.184h24.797
		c1.411,0,2.408,0.359,2.99,1.08c0.583,0.721,0.874,1.541,0.874,2.463c0,0.949-0.299,1.785-0.897,2.506s-1.587,1.082-2.967,1.082
		h-28.891C146.911,43.997,145.837,43.882,144.979,43.651z M224.423,44.228h-9.385v-9.846h-12.973c-1.38,0-2.369-0.383-2.967-1.15
		s-0.897-1.625-0.897-2.576c0-0.461,0.069-0.912,0.207-1.357c0.138-0.445,0.36-0.852,0.667-1.219
		c0.307-0.369,0.705-0.66,1.196-0.875c0.491-0.215,1.089-0.322,1.794-0.322h35.332c0.705,0,1.303,0.107,1.794,0.322
		c0.491,0.214,0.89,0.505,1.196,0.875c0.307,0.367,0.529,0.773,0.667,1.219c0.138,0.445,0.207,0.896,0.207,1.357
		c0,0.951-0.299,1.809-0.897,2.576s-1.587,1.15-2.967,1.15h-12.974V44.228z M224.101,7.261c-0.062,0.445-0.138,0.897-0.23,1.357
		c1.963,0.03,3.888,0.376,5.774,1.035s3.588,1.656,5.106,2.99s2.783,3.028,3.795,5.084c1.012,2.055,1.61,4.478,1.794,7.269h-9.293
		c-0.246-1.411-0.675-2.684-1.289-3.818c-0.613-1.135-1.38-2.094-2.3-2.876c-0.92-0.781-1.963-1.372-3.128-1.771
		c-1.166-0.399-2.423-0.583-3.772-0.553c-1.043,1.381-2.231,2.638-3.565,3.772c-1.334,1.135-2.76,2.102-4.279,2.898
		c-1.518,0.798-3.09,1.411-4.715,1.841c-1.625,0.429-3.22,0.644-4.785,0.644c-1.135,0-2.108-0.314-2.921-0.943
		c-0.813-0.628-1.265-1.51-1.357-2.645c-0.092-1.104,0.161-2.063,0.759-2.876c0.598-0.813,1.479-1.326,2.645-1.541
		c1.503-0.275,2.952-0.743,4.348-1.403c1.396-0.659,2.653-1.495,3.772-2.507c1.119-1.013,2.063-2.201,2.829-3.565
		c0.767-1.365,1.273-2.875,1.518-4.531c0.215-1.473,0.805-2.554,1.771-3.244c0.966-0.689,2.093-0.988,3.381-0.896
		c1.35,0.122,2.415,0.598,3.197,1.426s1.143,1.979,1.081,3.45C224.208,6.349,224.162,6.817,224.101,7.261z M282.246,2.638
		c0.46,0.245,0.828,0.552,1.104,0.92s0.476,0.782,0.598,1.242c0.123,0.46,0.185,0.904,0.185,1.334s-0.062,0.874-0.185,1.334
		c-0.122,0.46-0.329,0.874-0.621,1.242c-0.291,0.368-0.659,0.667-1.104,0.897c-0.444,0.229-0.988,0.345-1.633,0.345h-23.278
		c-0.491,0-0.828,0.084-1.012,0.253s-0.276,0.499-0.276,0.989v6.671c0,0.49,0.092,0.828,0.276,1.012
		c0.184,0.185,0.521,0.276,1.012,0.276h24.015c0.645,0,1.196,0.123,1.656,0.368s0.828,0.552,1.104,0.92
		c0.276,0.368,0.483,0.774,0.622,1.219c0.138,0.445,0.207,0.882,0.207,1.312s-0.069,0.874-0.207,1.334
		c-0.139,0.46-0.353,0.874-0.645,1.242s-0.659,0.667-1.104,0.897c-0.444,0.229-0.988,0.345-1.633,0.345h-10.903v8.833h12.974
		c0.705,0,1.304,0.107,1.794,0.322c0.491,0.215,0.89,0.498,1.196,0.85c0.307,0.354,0.529,0.752,0.667,1.197s0.207,0.896,0.207,1.357
		c0,0.951-0.299,1.809-0.897,2.576c-0.598,0.766-1.587,1.15-2.967,1.15h-35.332c-1.38,0-2.369-0.385-2.967-1.15
		c-0.598-0.768-0.897-1.625-0.897-2.576c0-0.461,0.069-0.912,0.207-1.357c0.138-0.445,0.36-0.844,0.667-1.197
		c0.307-0.352,0.705-0.635,1.196-0.85s1.089-0.322,1.794-0.322h12.973v-8.833h-6.993c-1.38,0-2.545-0.13-3.496-0.391
		c-0.951-0.261-1.71-0.675-2.277-1.242s-0.981-1.312-1.242-2.231s-0.391-2.055-0.391-3.404V9.539c0-1.318,0.13-2.438,0.391-3.358
		s0.675-1.671,1.242-2.254s1.326-1.005,2.277-1.266c0.951-0.261,2.116-0.391,3.496-0.391h26.545
		C281.234,2.27,281.786,2.392,282.246,2.638z M303.081,33.462v2.484c0,0.521,0.077,0.85,0.23,0.988s0.49,0.207,1.012,0.207h25.027
		c1.41,0,2.407,0.346,2.99,1.035s0.874,1.48,0.874,2.369c0,0.891-0.299,1.688-0.897,2.393c-0.598,0.705-1.587,1.059-2.967,1.059
		h-29.029c-1.288,0-2.354-0.123-3.197-0.369c-0.844-0.244-1.511-0.629-2.002-1.15c-0.49-0.52-0.835-1.211-1.035-2.068
		c-0.199-0.859-0.299-1.902-0.299-3.129v-3.818c0-1.564,0.46-2.723,1.381-3.475c0.92-0.75,2.023-1.127,3.312-1.127
		c0.706,0,1.381,0.123,2.024,0.369v-5.567h-6.486c-1.381,0-2.377-0.338-2.99-1.013s-0.921-1.503-0.921-2.484
		c0-0.95,0.3-1.771,0.897-2.461c0.599-0.69,1.603-1.035,3.014-1.035h14.951c0.276-0.767,0.499-1.656,0.667-2.668
		c0.169-1.013,0.253-2.024,0.253-3.036V10.09c0-0.367-0.076-0.613-0.229-0.735c-0.153-0.123-0.43-0.185-0.828-0.185h-12.928
		c-1.441,0-2.484-0.345-3.128-1.035c-0.645-0.689-0.967-1.557-0.967-2.599c0-0.951,0.314-1.779,0.943-2.484
		c0.629-0.706,1.68-1.059,3.151-1.059h16.884c2.147,0,3.665,0.43,4.555,1.288c0.89,0.859,1.334,2.102,1.334,3.727v3.082
		c0,1.442-0.114,2.707-0.345,3.796c-0.229,1.089-0.483,2.017-0.759,2.783c1.38,0.03,2.354,0.392,2.921,1.081
		c0.567,0.69,0.852,1.495,0.852,2.415c0,0.981-0.299,1.81-0.897,2.484c-0.598,0.675-1.587,1.013-2.967,1.013h-8.052v8.096h-6.624
		C302.989,32.28,303.081,32.849,303.081,33.462z M315.871,32.542c-1.319,0-2.263-0.322-2.829-0.967
		c-0.568-0.645-0.852-1.41-0.852-2.301c0-0.889,0.276-1.664,0.828-2.323c0.552-0.659,1.503-0.989,2.853-0.989h6.992V5.26
		c0-1.473,0.46-2.584,1.381-3.335c0.92-0.752,1.978-1.128,3.174-1.128c0.583,0,1.15,0.1,1.702,0.3
		c0.553,0.199,1.043,0.482,1.473,0.851c0.429,0.368,0.774,0.828,1.035,1.38c0.261,0.553,0.391,1.196,0.391,1.933v29.903h-9.155
		v-2.621H315.871z M340.64,41.95c-0.936-0.199-1.656-0.576-2.162-1.127c-0.507-0.553-0.844-1.297-1.013-2.232
		s-0.253-2.139-0.253-3.611V9.584c0-1.472,0.084-2.676,0.253-3.611s0.506-1.679,1.013-2.231c0.506-0.552,1.227-0.928,2.162-1.127
		s2.17-0.299,3.703-0.299h6.165c1.533,0,2.76,0.1,3.68,0.299c0.921,0.199,1.634,0.575,2.14,1.127
		c0.506,0.553,0.844,1.296,1.012,2.231c0.169,0.936,0.254,2.14,0.254,3.611v32.665h-13.25
		C342.81,42.249,341.575,42.149,340.64,41.95z M345.7,9.423c-0.169,0.169-0.253,0.561-0.253,1.174v23.371
		c0,0.613,0.084,1.004,0.253,1.172c0.168,0.17,0.56,0.254,1.173,0.254h2.576V10.597c0-0.613-0.084-1.005-0.253-1.174
		c-0.169-0.168-0.56-0.253-1.173-0.253h-1.15C346.26,9.17,345.868,9.255,345.7,9.423z M368.266,24.997v19h-8.005V4.57
		c0-1.288,0.398-2.238,1.196-2.852c0.797-0.614,1.732-0.921,2.806-0.921c1.043,0,1.971,0.307,2.784,0.921
		c0.813,0.613,1.219,1.563,1.219,2.852v12.882h2.3V4.616c0-1.288,0.414-2.246,1.242-2.875s1.779-0.943,2.853-0.943
		c0.521,0,1.027,0.077,1.519,0.23c0.49,0.153,0.928,0.391,1.311,0.713c0.384,0.322,0.69,0.721,0.921,1.196
		c0.229,0.476,0.345,1.035,0.345,1.679v39.381h-8.189v-19H368.266z M387.146,24.398c-0.874-0.398-1.603-0.928-2.186-1.587
		c-0.582-0.659-1.02-1.426-1.311-2.3c-0.292-0.874-0.438-1.771-0.438-2.691v-0.828c0-1.901,0.583-3.443,1.748-4.624
		c1.166-1.181,2.898-1.771,5.199-1.771h9.477V9.125c0-0.307-0.062-0.529-0.184-0.667c-0.123-0.138-0.399-0.207-0.828-0.207h-12.191
		c-1.073,0-1.841-0.337-2.301-1.012s-0.689-1.381-0.689-2.116c0-0.798,0.237-1.526,0.713-2.186s1.234-0.989,2.277-0.989h15.918
		c2.3,0,3.948,0.521,4.945,1.564s1.495,2.407,1.495,4.095v8.74h-14.998c-0.429,0-0.729,0.107-0.896,0.322
		c-0.169,0.215-0.253,0.476-0.253,0.782v0.184c0,0.307,0.084,0.561,0.253,0.76c0.168,0.199,0.468,0.299,0.896,0.299h16.01
		c1.043,0,1.802,0.337,2.277,1.012s0.713,1.396,0.713,2.162c0,0.768-0.229,1.48-0.689,2.14s-1.227,0.989-2.301,0.989h-19.644
		C389.024,24.997,388.02,24.797,387.146,24.398z M388.664,43.628c-0.844-0.244-1.511-0.629-2.002-1.15
		c-0.49-0.52-0.836-1.211-1.035-2.068c-0.199-0.859-0.299-1.902-0.299-3.129v-6.625c0-1.564,0.452-2.684,1.357-3.359
		c0.904-0.675,2.001-1.012,3.289-1.012c1.104,0,2.063,0.253,2.876,0.759c0.813,0.506,1.326,1.327,1.541,2.461h20.748
		c0.245-1.135,0.782-1.955,1.61-2.461c0.828-0.506,1.81-0.759,2.944-0.759c1.288,0,2.369,0.337,3.243,1.012
		c0.874,0.675,1.312,1.794,1.312,3.359v13.342h-32.388C390.573,43.997,389.507,43.874,388.664,43.628z M415.048,35.347h-20.519
		v1.428c0,0.521,0.077,0.844,0.23,0.965c0.153,0.123,0.49,0.186,1.012,0.186h19.276V35.347z M416.129,1.948
		c0.936-0.767,2.017-1.15,3.243-1.15c0.583,0,1.158,0.1,1.726,0.3c0.567,0.199,1.065,0.49,1.495,0.874
		c0.429,0.383,0.774,0.858,1.035,1.426s0.391,1.219,0.391,1.955v19.736h-9.293V5.352C414.726,3.849,415.193,2.714,416.129,1.948z
		 M431.466,10.413c-0.705,0-1.303-0.115-1.794-0.345c-0.49-0.23-0.89-0.529-1.196-0.897s-0.536-0.789-0.689-1.265
		s-0.23-0.943-0.23-1.403s0.069-0.928,0.207-1.403c0.139-0.476,0.368-0.897,0.69-1.265c0.322-0.368,0.729-0.675,1.219-0.921
		c0.491-0.245,1.089-0.367,1.794-0.367h21.301c0.705,0,1.304,0.122,1.794,0.367c0.491,0.246,0.882,0.553,1.174,0.921
		c0.291,0.367,0.506,0.789,0.644,1.265c0.139,0.476,0.207,0.943,0.207,1.403s-0.068,0.928-0.207,1.403
		c-0.138,0.476-0.36,0.896-0.667,1.265s-0.705,0.667-1.196,0.897c-0.49,0.229-1.073,0.345-1.748,0.345h-6.165v4.969
		c0,1.073-0.03,2.101-0.092,3.082s-0.153,1.933-0.275,2.853c1.655,0.583,3.151,1.365,4.485,2.347s2.445,2.262,3.335,3.84
		c0.89,1.58,1.549,3.506,1.979,5.775s0.583,4.982,0.46,8.143h-8.649c0.307-3.098,0.146-5.621-0.482-7.568s-1.664-3.412-3.105-4.395
		c-1.135,2.945-2.622,5.406-4.463,7.385c-1.84,1.979-3.956,3.473-6.349,4.486c-0.49,0.215-1.02,0.328-1.587,0.344
		s-1.119-0.045-1.656-0.184s-1.027-0.354-1.473-0.645c-0.444-0.291-0.774-0.666-0.988-1.127c-0.43-0.857-0.537-1.764-0.322-2.715
		c0.215-0.949,0.782-1.717,1.702-2.299c1.472-0.92,2.737-1.971,3.795-3.152c1.059-1.18,1.94-2.561,2.646-4.141
		c0.706-1.579,1.227-3.374,1.564-5.382c0.337-2.009,0.506-4.301,0.506-6.878v-4.738H431.466z M460.817,5.352
		c0-1.503,0.46-2.638,1.381-3.404c0.92-0.767,1.993-1.15,3.22-1.15s2.301,0.384,3.221,1.15s1.38,1.901,1.38,3.404v38.645h-9.201
		V5.352z"/>
</g>
</svg>
