<?xml version="1.0" encoding="utf-8"?>
<!-- Generator: Adobe Illustrator 16.0.0, SVG Export Plug-In . SVG Version: 6.00 Build 0)  -->
<!DOCTYPE svg PUBLIC "-//W3C//DTD SVG 1.1//EN" "http://www.w3.org/Graphics/SVG/1.1/DTD/svg11.dtd">
<svg version="1.1" id="레이어_1" xmlns="http://www.w3.org/2000/svg" xmlns:xlink="http://www.w3.org/1999/xlink" x="0px"
	 y="0px" width="682.545px" height="317.848px" viewBox="0 0 682.545 317.848" enable-background="new 0 0 682.545 317.848"
	 xml:space="preserve">
<g>
	<g>
		<path fill="#737070" d="M270.235,182.02c2.57,0,4.663-2.572,4.663-5.808c0-3.141-4.663-9.231-4.663-9.231
			s-4.662,5.996-4.662,9.231S267.666,182.02,270.235,182.02"/>
		<path fill="#737070" d="M239.684,204.389h-3.998c-0.571,0-0.951,0.383-0.951,0.954v15.417c0,0.571,0.38,0.952,0.951,0.952h3.998
			c0.57,0,0.952-0.381,0.952-0.952v-15.417C240.636,204.865,240.254,204.389,239.684,204.389"/>
		<path fill="#737070" d="M291.079,200.106c-0.76-1.429-2.474-1.903-3.807-1.143l-7.044,3.807l-8.66,4.667
			c-1.904,1.521-4.188,2.376-6.662,2.376h-9.422c-0.382,0-0.762-0.283-0.762-0.759c0-0.382,0.285-0.763,0.762-0.763h11.134
			c1.239,0,2.477-0.854,2.665-2.095c0.191-1.046-0.286-2.092-3.14-2.378h-12.278c-2.284,0-4.568,0.475-6.662,1.332l-5.141,2.093
			v11.707h20.273c0.763,0,1.426-0.189,2.095-0.569l7.138-4.093l8.564-4.855l9.805-5.614c0.951-0.477,1.522-1.523,1.522-2.478
			C291.459,200.964,291.364,200.487,291.079,200.106"/>
		<path fill="#737070" d="M270.235,189.829c-0.38,0-0.761,0.283-0.761,0.76v7.711c-3.999,0.189-7.233,1.71-8.661,4.282h5.234
			c2.284,0,4.188,1.617,4.474,3.805l8.85-4.757c-1.808-1.998-4.947-3.235-8.469-3.33v-7.711
			C270.997,190.112,270.615,189.829,270.235,189.829"/>
		<path fill="#737070" d="M282.608,177.645c0,0-7.614,0.952-9.804,3.142c-2.285,2.286-2.569,5.616-0.762,7.425
			c1.811,1.807,5.141,1.523,7.423-0.763C281.656,185.259,282.608,177.645,282.608,177.645"/>
		<path fill="#737070" d="M269.094,188.211c1.808-1.809,1.521-5.142-0.762-7.425c-2.285-2.284-9.804-3.139-9.804-3.139
			s0.952,7.613,3.141,9.801C263.954,189.734,267.188,190.112,269.094,188.211"/>
		<path fill="#737070" d="M205.564,279.537h-2.722v0.771h2.722V279.537z M206.911,280.762h-5.424v0.801h5.424V280.762z
			 M207.779,279.609v7.013h0.997v-2.971h1.226v-0.905h-1.226v-3.137H207.779z M207.439,285.585v-0.834
			c-0.747,0.104-1.993,0.195-2.643,0.195V284.4c1.076-0.122,1.795-0.616,1.795-1.214c0-0.72-0.996-1.254-2.373-1.254
			c-1.386,0-2.372,0.545-2.372,1.246c0,0.616,0.728,1.121,1.834,1.222v0.567h-2.552v0.832h2.89
			C205.495,285.8,206.8,285.666,207.439,285.585 M209.093,288.453v-0.834h-5.453v-1.355h-1.057v2.189H209.093z M205.495,283.179
			c0,0.339-0.488,0.563-1.285,0.563c-0.779,0-1.268-0.224-1.268-0.563c0-0.329,0.488-0.557,1.276-0.557
			S205.495,282.85,205.495,283.179 M218.002,285.018v-5.408h-0.996v1.399h-1.625v0.861h1.625v1.042h-1.786v0.861h1.786v1.244
			H218.002z M218.142,286.942c0-1.081-1.216-1.871-3.39-1.871c-2.162,0-3.391,0.79-3.391,1.871c0,1.089,1.229,1.86,3.391,1.86
			C216.926,288.803,218.142,288.031,218.142,286.942 M217.094,286.951c0,0.627-1.007,1.04-2.332,1.04
			c-1.345,0-2.333-0.413-2.333-1.04c0-0.639,0.988-1.038,2.333-1.038C216.087,285.913,217.094,286.313,217.094,286.951
			 M215.121,280.216h-4.307v0.863h3.102c-0.102,1.255-1.914,2.922-3.619,3.229l0.527,0.679
			C213.735,284.235,215.042,282.169,215.121,280.216 M226.086,280.762h-3.5v0.874h2.402c-0.06,0.831-0.378,3.311-2.931,4.821
			l0.738,0.589C225.288,285.462,226.086,282.828,226.086,280.762 M230.005,288.661v-9.052h-0.969v3.444h-1.026v-3.237h-0.967v8.433
			h0.967v-4.239h1.026v4.651H230.005z M238.803,286.16v-6.551h-0.987v1.975h-1.865v0.904h1.865v3.672H238.803z M239.033,288.453
			v-0.864h-5.474v-1.953h-0.997v2.817H239.033z M236.709,284.164c-2.143-0.945-2.432-2.756-2.432-3.568v-0.739h-1.047v0.739
			c0,0.813-0.09,2.653-2.503,3.837l0.697,0.666c1.077-0.563,1.995-1.478,2.322-2.468c0.351,0.844,1.457,1.873,2.324,2.264
			L236.709,284.164z M240.054,287.046v1.203h0.77c0,0.226-0.628,0.657-0.77,0.666l0.31,0.371c0.119-0.03,0.52-0.206,0.739-0.524
			c0.189-0.266,0.299-0.494,0.299-0.854v-0.861H240.054z M250.329,282.22c0-1.271-1.019-2.313-2.434-2.313s-2.422,1.042-2.422,2.313
			c0,1.276,1.007,2.306,2.422,2.306S250.329,283.496,250.329,282.22 M251.854,279.609v6.551h0.997v-3.352h1.245v-0.917h-1.245
			v-2.282H251.854z M253.13,288.453v-0.864h-5.404v-2.004h-0.996v2.868H253.13z M249.301,282.22c0,0.773-0.499,1.41-1.406,1.41
			c-0.887,0-1.396-0.637-1.396-1.41c0-0.779,0.509-1.418,1.396-1.418C248.802,280.802,249.301,281.44,249.301,282.22
			 M262.237,286.16v-6.551h-0.996v2.098h-1.763v0.915h1.763v3.538H262.237z M262.447,288.453v-0.864h-5.604v-2.023h-0.995v2.888
			H262.447z M259.975,283.979c-1.944-0.761-2.254-2.159-2.254-2.694v-0.255h1.845v-0.864h-4.775v0.864h1.854v0.255
			c0,0.598-0.23,2.078-2.492,3.023l0.746,0.773c0.957-0.435,2.045-1.35,2.274-2.11c0.519,0.761,1.347,1.502,2.214,1.82
			L259.975,283.979z M271.507,280.112h-4.914v0.864h3.838c-0.059,1.01-0.339,2.283-0.359,2.354h0.987
			C271.319,282.551,271.488,280.751,271.507,280.112 M274.877,283.383v-0.873h-1.226v-2.9h-0.997v6.685h0.997v-2.911H274.877z
			 M272.316,284.824v-0.845c-0.838,0.134-2.9,0.269-3.6,0.269v-1.977h-0.997v1.977h-1.715v0.864h1.157
			C269.354,285.112,271.07,284.979,272.316,284.824 M273.951,288.453v-0.864h-5.454v-1.798h-0.986v2.662H273.951z M282.709,279.609
			h-0.995v9.052h0.995V279.609z M281.143,286.601v-0.853c-0.566,0.103-1.823,0.217-2.7,0.238l-1.835,0.009v-1.932h3.291v-3.579
			h-4.288v0.872h3.302v1.841h-3.302v3.672l2.522-0.021C279.239,286.828,280.546,286.695,281.143,286.601 M284.161,287.046v1.203
			h0.769c0,0.226-0.628,0.657-0.769,0.666l0.31,0.371c0.119-0.03,0.519-0.206,0.736-0.524c0.19-0.266,0.301-0.494,0.301-0.854
			v-0.861H284.161z M298.272,282.695v-0.886h-1.226v-2.2h-0.997v5.421h0.997v-2.335H298.272z M295.151,283.722
			c-1.585-0.605-2.412-1.654-2.412-3.074v-0.791h-1.048v0.791c0,1.461-0.816,2.696-2.513,3.444l0.729,0.681
			c0.867-0.442,1.935-1.429,2.314-2.313c0.368,0.728,1.394,1.654,2.342,2.045L295.151,283.722z M297.315,286.994
			c0-1.06-1.146-1.831-3.319-1.831c-2.175,0-3.33,0.78-3.33,1.831c0,1.059,1.155,1.809,3.33,1.809
			C296.168,288.803,297.315,288.053,297.315,286.994 M296.239,287.003c0,0.597-0.908,0.999-2.233,0.999
			c-1.357,0-2.243-0.413-2.243-1.008c0-0.619,0.886-0.999,2.243-0.999C295.331,285.995,296.239,286.386,296.239,287.003
			 M306.454,285.163v-5.554h-0.969v2.17h-1.036v-2.015h-0.967v5.038h0.967v-2.107h1.036v2.468H306.454z M306.494,286.983
			c0-1.06-1.166-1.831-3.41-1.831c-2.233,0-3.408,0.771-3.408,1.831c0,1.059,1.175,1.819,3.408,1.819
			C305.328,288.803,306.494,288.042,306.494,286.983 M305.426,286.994c0,0.605-0.947,0.986-2.332,0.986
			c-1.416,0-2.363-0.392-2.363-0.997c0-0.617,0.947-0.988,2.363-0.988C304.479,285.995,305.426,286.375,305.426,286.994
			 M303.183,283.847c-1.625-0.814-1.954-2.306-1.954-3.158v-0.802h-1.046v0.802c0,0.853-0.28,2.408-2.095,3.506l0.787,0.649
			c0.827-0.555,1.654-1.472,1.835-2.13c0.389,0.73,1.206,1.575,1.845,1.863L303.183,283.847z M314.983,284.792v-5.183h-0.986v1.82
			h-1.355v0.842h1.355v0.813h-1.556v0.844h1.556v0.864H314.983z M314.954,288.558v-3.323h-1.017v0.834h-4.328v-0.834h-1.016v3.323
			H314.954z M313.937,287.763h-4.328v-0.894h4.328V287.763z M311.214,279.569h-2.72v0.771h2.72V279.569z M312.531,280.927h-5.355
			v0.791h5.355V280.927z M309.849,284.813c1.515,0,2.313-0.598,2.313-1.358c0-0.76-0.776-1.347-2.294-1.347
			c-1.465,0-2.322,0.576-2.322,1.347C307.545,284.207,308.413,284.813,309.849,284.813 M311.095,283.444
			c0,0.402-0.35,0.628-1.228,0.628c-0.877,0-1.246-0.236-1.246-0.617c0-0.412,0.369-0.638,1.246-0.638
			C310.746,282.817,311.095,283.084,311.095,283.444 M323.742,285.346v-5.736h-0.997v1.317h-1.535v0.82h1.535v0.855h-1.535v0.823
			h1.535v1.92H323.742z M323.713,288.661v-2.8h-6.462v0.864h5.466v1.936H323.713z M321.638,284.803v-0.823
			c-0.617,0.084-1.895,0.185-2.762,0.206l-1.436,0.009v-1.192h3.21v-2.909h-4.206v0.855h3.211v1.231h-3.211v2.859l2.063-0.009
			C319.635,285.009,320.992,284.895,321.638,284.803 M332.781,279.609h-0.996v9.052h0.996V279.609z M331.425,286.622v-0.885
			c-0.858,0.095-2.442,0.187-3.978,0.206l-2.474,0.011v0.866l2.393-0.014C328.724,286.788,330.796,286.685,331.425,286.622
			 M327.924,280.145c-1.443,0-2.481,1.038-2.481,2.263c0,1.233,1.038,2.272,2.481,2.272c1.447,0,2.493-1.039,2.493-2.272
			C330.417,281.183,329.372,280.145,327.924,280.145 M329.392,282.407c0,0.761-0.538,1.398-1.468,1.398
			c-0.916,0-1.455-0.638-1.455-1.398c0-0.741,0.539-1.391,1.455-1.391C328.854,281.017,329.392,281.666,329.392,282.407
			 M341.062,279.537h-2.72v0.771h2.72V279.537z M342.41,280.762h-5.424v0.801h5.424V280.762z M343.278,279.609v7.013h0.996v-2.971
			h1.228v-0.905h-1.228v-3.137H343.278z M342.939,285.585v-0.834c-0.748,0.104-1.995,0.195-2.643,0.195V284.4
			c1.075-0.122,1.794-0.616,1.794-1.214c0-0.72-0.997-1.254-2.373-1.254c-1.385,0-2.372,0.545-2.372,1.246
			c0,0.616,0.728,1.121,1.834,1.222v0.567h-2.553v0.832h2.893C340.994,285.8,342.3,285.666,342.939,285.585 M344.593,288.453v-0.834
			h-5.455v-1.355h-1.056v2.189H344.593z M340.994,283.179c0,0.339-0.489,0.563-1.285,0.563c-0.778,0-1.268-0.224-1.268-0.563
			c0-0.329,0.489-0.557,1.276-0.557S340.994,282.85,340.994,283.179 M353.502,285.018v-5.408h-0.996v1.399h-1.627v0.861h1.627v1.042
			h-1.786v0.861h1.786v1.244H353.502z M353.641,286.942c0-1.081-1.216-1.871-3.389-1.871c-2.164,0-3.391,0.79-3.391,1.871
			c0,1.089,1.227,1.86,3.391,1.86C352.425,288.803,353.641,288.031,353.641,286.942 M352.595,286.951c0,0.627-1.007,1.04-2.333,1.04
			c-1.347,0-2.333-0.413-2.333-1.04c0-0.639,0.986-1.038,2.333-1.038C351.588,285.913,352.595,286.313,352.595,286.951
			 M350.621,280.216h-4.307v0.863h3.101c-0.1,1.255-1.914,2.922-3.618,3.229l0.526,0.679
			C349.235,284.235,350.542,282.169,350.621,280.216 M358.054,284.699h1.097v-1.13h-1.097V284.699z"/>
		<path fill="#737070" d="M206.222,296.743c0-1.275-1.017-2.313-2.432-2.313c-1.417,0-2.424,1.038-2.424,2.313
			c0,1.276,1.007,2.304,2.424,2.304C205.206,299.047,206.222,298.02,206.222,296.743 M207.748,294.131v6.551h0.997v-3.354h1.247
			v-0.913h-1.247v-2.284H207.748z M209.024,302.974v-0.861h-5.404v-2.007h-0.997v2.868H209.024z M205.195,296.743
			c0,0.771-0.498,1.41-1.404,1.41c-0.888,0-1.396-0.639-1.396-1.41c0-0.781,0.508-1.418,1.396-1.418
			C204.697,295.325,205.195,295.962,205.195,296.743 M218.132,300.682v-6.551h-0.998v2.1h-1.766v0.915h1.766v3.536H218.132z
			 M218.342,302.974v-0.861h-5.604v-2.025h-0.997v2.887H218.342z M215.868,298.503c-1.942-0.763-2.252-2.159-2.252-2.694v-0.258
			h1.846v-0.863h-4.776v0.863h1.853v0.258c0,0.596-0.228,2.076-2.491,3.023l0.748,0.771c0.957-0.433,2.044-1.348,2.272-2.11
			c0.521,0.763,1.345,1.502,2.214,1.822L215.868,298.503z M227.403,294.636h-4.916v0.864h3.838
			c-0.059,1.007-0.338,2.283-0.358,2.354h0.987C227.211,297.074,227.382,295.274,227.403,294.636 M230.772,297.906v-0.875h-1.227
			v-2.9h-0.998v6.687h0.998v-2.911H230.772z M228.209,299.346v-0.843c-0.837,0.134-2.9,0.267-3.599,0.267v-1.975h-0.997v1.975
			h-1.715v0.863h1.155C225.248,299.633,226.963,299.5,228.209,299.346 M229.845,302.974v-0.861h-5.456v-1.8h-0.985v2.661H229.845z
			 M238.604,294.131h-0.996v9.05h0.996V294.131z M237.039,301.126v-0.854c-0.568,0.103-1.825,0.217-2.702,0.236l-1.834,0.011v-1.936
			h3.29v-3.575h-4.286v0.872h3.299v1.839h-3.299v3.674l2.521-0.021C235.133,301.352,236.44,301.217,237.039,301.126 M246.007,302.77
			v-8.433h-0.967v3.713h-1.367v0.885h1.367v3.835H246.007z M247.862,294.131h-0.967v9.05h0.967V294.131z M243.355,294.739h-2.463
			v0.853h2.463V294.739z M244.402,300.776c-1.505-0.907-1.725-2.273-1.725-2.974v-0.442h1.566v-0.886h-4.237v0.886h1.583v0.442
			c0,1.45-0.858,2.542-2.081,3.199l0.756,0.698c0.609-0.34,1.687-1.285,1.873-2.097c0.201,0.709,1.158,1.694,1.666,1.912
			L244.402,300.776z M254.746,302.77v-8.422h-0.966v1.996h-1.076v0.861h1.076v1.584h-1.286v0.863h1.286v3.117H254.746z
			 M256.591,294.131h-0.967v9.05h0.967V294.131z M252.652,295.282h-3.5v0.877h2.403c0.01,1.5-0.936,3.71-2.931,4.821l0.738,0.586
			C251.776,300.076,252.652,297.341,252.652,295.282 M265.95,298.338h-8.774v0.779h8.774V298.338z M258.312,297.691h6.602v-0.752
			h-5.536v-0.587h5.345v-2.016h-6.41v0.752h5.324v0.576h-5.324V297.691z M264.914,303.077v-0.75h-5.536v-0.584h5.335v-2.018h-6.4
			v0.752h5.334v0.576h-5.334v2.023H264.914z M273.534,300.127c-2.264,0-3.53,0.658-3.53,1.584s1.296,1.615,3.53,1.615
			c2.243,0,3.529-0.659,3.529-1.583C277.063,300.817,275.777,300.127,273.534,300.127 M275.937,301.722
			c0,0.503-0.998,0.812-2.403,0.812c-1.426,0-2.403-0.339-2.403-0.833c0-0.514,0.987-0.761,2.413-0.761
			C274.939,300.939,275.937,301.208,275.937,301.722 M277.92,299.665v-0.833h-3.839v-0.782h2.803v-0.831h-5.594v-0.628h5.493v-0.804
			h-5.493v-0.636h5.513v-0.825h-6.521v3.724h2.692v0.782h-3.827v0.833H277.92z M281.634,294.842h-2.452v0.811h2.452V294.842z
			 M282.71,296.456h-4.584v0.822h4.584V296.456z M286.231,303.181v-9.05h-0.967v3.663h-0.978v-3.457h-0.966v8.433h0.966v-3.989
			h0.978v4.4H286.231z M282.462,299.797c0-1.131-0.877-1.891-2.034-1.891c-1.106,0-2.032,0.752-2.032,1.891
			c0,1.184,0.926,1.914,2.032,1.914C281.594,301.711,282.462,300.97,282.462,299.797 M279.353,299.818
			c0-0.669,0.428-1.101,1.075-1.101c0.658,0,1.066,0.432,1.066,1.092c0,0.668-0.418,1.078-1.066,1.078
			C279.79,300.888,279.353,300.478,279.353,299.818 M292.529,302.359l0.011-7.468h-0.679c-0.029,0.401-0.26,0.793-0.517,0.988
			c-0.359,0.258-0.768,0.383-1.228,0.391v0.739h1.535v5.35H292.529z M296.061,294.677c-1.574,0-2.271,1.141-2.292,2.333h0.845
			c0.041-0.739,0.36-1.502,1.428-1.502c0.887,0,1.326,0.537,1.326,1.412c0,0.646-0.398,1.141-0.938,1.54l-1.185,0.877
			c-1.356,0.986-1.677,1.972-1.687,2.96h4.786v-0.801h-3.699c0.17-0.617,0.719-1.151,1.099-1.431l1.175-0.834
			c0.62-0.442,1.457-1.141,1.457-2.322C298.375,295.706,297.626,294.677,296.061,294.677 M306.363,300.682v-6.551h-0.998v0.978
			h-2.521v0.823h2.521v0.812h-2.521v0.832h2.521v3.106H306.363z M306.564,302.974v-0.861h-5.486v-1.871h-0.996v2.732H306.564z
			 M304.439,299.027v-0.845c-0.677,0.146-1.955,0.299-3.14,0.32l-1.188,0.02v-4.009h-0.998v4.872l2.175-0.019
			C302.614,299.346,303.861,299.16,304.439,299.027 M314.657,296.743c0,0.771-0.499,1.41-1.406,1.41
			c-0.888,0-1.396-0.639-1.396-1.41c0-0.781,0.509-1.418,1.396-1.418C314.158,295.325,314.657,295.962,314.657,296.743
			 M315.205,295.345c-0.429-0.557-1.117-0.915-1.954-0.915c-1.415,0-2.422,1.038-2.422,2.313c0,1.276,1.007,2.304,2.422,2.304
			c0.878,0,1.594-0.389,2.015-0.986h2.204v2.621h0.996v-6.551h-0.996v1.214H315.205z M315.643,297.197
			c0.021-0.145,0.04-0.299,0.04-0.454c0-0.185-0.02-0.358-0.061-0.532h1.847v0.986H315.643z M318.684,302.974v-0.861h-5.522v-2.109
			h-0.988v2.971H318.684z M323.615,295.747c0.51,0.996,2.035,1.882,3.262,2.036l0.606-0.722c-2.621-0.503-3.34-1.942-3.34-2.559
			v-0.392h-1.057v0.392c0,0.616-0.578,1.964-3.34,2.559l0.608,0.722C321.691,297.586,323.186,296.641,323.615,295.747 M328,299.53
			v-0.864h-3.876V297.3h-1.018v1.366h-3.879v0.864H328z M326.885,303.181v-2.746h-6.659v0.863h5.673v1.883H326.885z M337.94,301.629
			c0,0.555-0.957,0.904-2.353,0.904c-1.416,0-2.363-0.36-2.363-0.915c0-0.575,0.947-0.915,2.363-0.915
			C336.983,300.703,337.94,301.062,337.94,301.629 M335.047,299.932c-1.894,0.114-2.96,0.771-2.96,1.697
			c0,0.997,1.267,1.717,3.5,1.717c2.242,0,3.49-0.72,3.49-1.717c0-0.926-1.059-1.594-2.961-1.697v-0.854h3.856v-0.854H331.2v0.854
			h3.848V299.932z M336.135,295.282h2.8v-0.842h-6.699v0.842h2.803c-0.198,0.69-1.338,1.461-3.262,1.771l0.61,0.75
			c1.276-0.174,2.701-0.853,3.21-1.554c0.538,0.576,1.803,1.399,3.209,1.554l0.609-0.75
			C336.943,296.621,336.265,295.706,336.135,295.282 M344.535,301.023v-0.886c-0.317,0.05-0.996,0.114-1.615,0.123l-1.137,0.011
			v-4.145h2.145v-0.885h-3.129v5.944l1.753-0.021C343.648,301.146,344.237,301.072,344.535,301.023 M348.115,303.181v-9.05h-0.967
			v3.416h-1.127v-3.21h-0.967v8.433h0.967v-4.288h1.127v4.699H348.115z M357.241,303.181v-9.05h-0.965v3.487h-1.026v-3.281h-0.968
			v8.433h0.968v-4.144h1.026v4.555H357.241z M350.931,296.075v0.318c0,1.553-0.349,3.271-2.134,4.679l0.809,0.617
			c0.768-0.679,1.604-1.82,1.844-2.735c0.231,0.843,1.157,2.057,1.767,2.501l0.708-0.651c-1.536-1.2-1.945-2.887-1.945-4.41v-0.318
			h1.515v-0.874h-4.097v0.874H350.931z M361.347,294.842h-2.454v0.811h2.454V294.842z M362.424,296.456h-4.587v0.822h4.587V296.456z
			 M365.942,303.181v-9.05h-0.967v3.663h-0.978v-3.457h-0.967v8.433h0.967v-3.989h0.978v4.4H365.942z M362.174,299.797
			c0-1.131-0.878-1.891-2.034-1.891c-1.107,0-2.033,0.752-2.033,1.891c0,1.184,0.926,1.914,2.033,1.914
			C361.306,301.711,362.174,300.97,362.174,299.797 M359.064,299.818c0-0.669,0.428-1.101,1.076-1.101
			c0.656,0,1.067,0.432,1.067,1.092c0,0.668-0.419,1.078-1.067,1.078C359.501,300.888,359.064,300.478,359.064,299.818
			 M377.256,294.533h-6.411v3.56h6.411V294.533z M378.433,300.016v-0.866h-8.774v0.866h3.869v3.165h1.026v-3.165H378.433z
			 M376.25,297.227h-4.407v-1.832h4.407V297.227z M386.873,303.181v-9.05h-0.967v3.487h-1.027v-3.281h-0.968v8.433h0.968v-4.144
			h1.027v4.555H386.873z M380.561,296.075v0.318c0,1.553-0.349,3.271-2.133,4.679l0.808,0.617c0.768-0.679,1.605-1.82,1.845-2.735
			c0.229,0.843,1.157,2.057,1.765,2.501l0.707-0.651c-1.535-1.2-1.943-2.887-1.943-4.41v-0.318h1.516v-0.874h-4.099v0.874H380.561z
			 M390.976,294.842h-2.452v0.811h2.452V294.842z M392.052,296.456h-4.586v0.822h4.586V296.456z M395.573,303.181v-9.05h-0.968
			v3.663h-0.976v-3.457h-0.968v8.433h0.968v-3.989h0.976v4.4H395.573z M391.803,299.797c0-1.131-0.877-1.891-2.033-1.891
			c-1.105,0-2.035,0.752-2.035,1.891c0,1.184,0.93,1.914,2.035,1.914C390.936,301.711,391.803,300.97,391.803,299.797
			 M388.692,299.818c0-0.669,0.43-1.101,1.078-1.101c0.658,0,1.067,0.432,1.067,1.092c0,0.668-0.42,1.078-1.067,1.078
			C389.131,300.888,388.692,300.478,388.692,299.818"/>
		<path fill="#737070" d="M206.93,315.216c-1.645-1.008-2.503-2.376-2.503-4.63v-1.427h-1.045v1.427c0,2.222-0.779,3.86-2.623,4.905
			l0.797,0.648c0.857-0.503,2.075-1.891,2.353-2.898c0.469,1.111,1.574,2.365,2.354,2.716L206.93,315.216z M207.687,308.656v9.048
			h0.997v-4.515h1.327v-0.904h-1.327v-3.629H207.687z M213.975,311.009c0,0.669-0.629,1.203-1.336,1.203
			c-0.709,0-1.336-0.534-1.336-1.203c0-0.646,0.627-1.173,1.336-1.173C213.346,309.836,213.975,310.35,213.975,311.009
			 M216.866,316.748h-4.287v-1.038h4.287V316.748z M217.863,317.601v-3.691h-0.997v0.967h-4.287v-0.967h-0.986v3.691H217.863z
			 M214.942,310.536c-0.25-0.978-1.236-1.604-2.303-1.604c-1.248,0-2.363,0.845-2.363,2.099c0,1.264,1.136,2.108,2.363,2.108
			c1.106,0,2.132-0.69,2.332-1.738h1.906v2.066h0.996v-4.811h-0.996v1.88H214.942z M227.848,311.604v-0.935h-1.287v-2.014h-0.995
			v5.479h0.995v-2.53H227.848z M224.678,312.747c-1.665-0.524-2.333-1.42-2.333-2.675h1.853v-0.861h-4.784v0.861h1.854
			c0,1.255-0.537,2.232-2.463,2.982l0.697,0.72c0.738-0.286,1.985-1.171,2.294-1.975c0.629,0.845,1.605,1.545,2.303,1.728
			L224.678,312.747z M226.803,316.099c0-1.016-1.139-1.768-3.312-1.768c-2.165,0-3.311,0.752-3.311,1.768
			c0,1.021,1.146,1.749,3.311,1.749C225.665,317.848,226.803,317.119,226.803,316.099 M225.724,316.111
			c0,0.555-0.906,0.935-2.232,0.935c-1.346,0-2.243-0.38-2.243-0.935c0-0.577,0.897-0.956,2.243-0.956
			C224.818,315.155,225.724,315.534,225.724,316.111 M239.522,311.409v-0.873h-1.246v-1.88h-0.998v4.678h0.998v-1.925H239.522z
			 M236.611,312.655v-0.845c-0.579,0.104-1.875,0.206-2.703,0.228l-1.635,0.009v-1.975h3.439v-0.861h-4.438v3.699l2.265-0.008
			C234.714,312.87,236.022,312.747,236.611,312.655 M238.454,317.601v-0.793h-5.163v-0.739h4.985v-2.322h-6.082v0.804h4.975v0.748
			h-4.975v2.303H238.454z"/>
		<path fill="#737070" d="M247.642,314.043v-5.389h-0.986v1.788h-1.865v0.906h1.865v2.694H247.642z M245.509,312.758
			c-2.064-0.793-2.412-2.265-2.412-3.076v-0.78h-1.047v0.78c0,0.863-0.32,2.428-2.515,3.446l0.729,0.679
			c0.866-0.442,1.935-1.429,2.313-2.314c0.369,0.73,1.396,1.657,2.345,2.048L245.509,312.758z M247.793,316.039
			c0-1.062-1.148-1.831-3.32-1.831c-2.175,0-3.33,0.78-3.33,1.831c0,1.057,1.155,1.809,3.33,1.809
			C246.645,317.848,247.793,317.096,247.793,316.039 M246.716,316.047c0,0.598-0.908,0.999-2.233,0.999
			c-1.357,0-2.244-0.412-2.244-1.007c0-0.619,0.887-0.999,2.244-0.999C245.808,315.04,246.716,315.431,246.716,316.047"/>
		<path fill="#99AAE6" d="M208.786,267.261c0,0.546-0.965,0.859-2.524,0.859c-1.587,0-2.527-0.34-2.527-0.87
			c0-0.557,0.94-0.849,2.527-0.849C207.821,266.401,208.786,266.704,208.786,267.261 M205.499,265.29
			c-2.197,0.145-3.419,0.943-3.419,1.971c0,1.173,1.504,2.009,4.182,2.009c2.688,0,4.179-0.849,4.179-2.009
			c0-1.027-1.208-1.826-3.427-1.971v-0.896h4.413v-1.221h-10.334v1.221h4.406V265.29z M207.083,259.967h3.135v-1.194h-7.915v1.194
			h3.124c-0.199,0.376-0.693,0.715-1.292,1.005c-0.846,0.411-1.879,0.643-2.431,0.763l0.776,0.967
			c0.516-0.109,1.313-0.242,2.136-0.616c0.788-0.363,1.385-0.677,1.632-1.017c0.271,0.34,0.869,0.653,1.655,1.017
			c0.823,0.374,1.62,0.507,2.137,0.616l0.777-0.967c-0.553-0.12-1.585-0.352-2.432-0.763
			C207.785,260.682,207.294,260.343,207.083,259.967 M216.682,266.631v-1.28c-0.34,0.047-1.197,0.133-1.938,0.144h-1.033v-4.485
			h2.323v-1.319h-3.687v7.124l1.832-0.013C215.614,266.79,216.352,266.679,216.682,266.631 M221.05,269.098v-10.642h-1.316v3.869
			h-1.149v-3.626h-1.315v9.915h1.315v-4.943h1.149v5.427H221.05z M224.193,260.923v0.256c0,1.076-0.07,1.873-0.564,2.999
			c-0.411,0.93-1.162,1.896-1.772,2.404l1.139,0.799c0.469-0.434,0.799-0.799,1.187-1.377c0.411-0.617,0.586-0.969,0.729-1.405
			c0.198,0.46,0.363,0.799,0.681,1.223c0.399,0.532,0.821,0.906,1.15,1.186l0.938-0.992c-0.491-0.385-0.774-0.628-1.314-1.487
			c-0.588-0.906-0.728-2.238-0.728-3.349v-0.256h1.631v-1.291h-4.695v1.291H224.193z M231.791,269.098v-10.642h-1.327v3.942h-1.022
			v-3.699h-1.326v9.915h1.326v-4.813h1.022v5.296H231.791z M236.518,259.256h-2.948v1.16h2.948V259.256z M237.761,261.118h-5.401
			v1.196h5.401V261.118z M242.048,269.098v-10.642h-1.314v4.186h-0.999v-3.942h-1.314v9.915h1.314v-4.544h0.999v5.027H242.048z
			 M237.586,265.145c0-1.354-1.115-2.31-2.513-2.31c-1.316,0-2.525,0.933-2.525,2.31c0,1.438,1.209,2.31,2.525,2.31
			C236.482,267.454,237.586,266.558,237.586,265.145 M235.074,264.042c0.681,0,1.162,0.426,1.162,1.115
			c0,0.713-0.506,1.076-1.162,1.076c-0.646,0-1.177-0.363-1.177-1.065C233.897,264.468,234.415,264.042,235.074,264.042"/>
		<path fill="#99AAE6" d="M202.457,235.133c0,4.537,0,15.508,16.268,15.508c2.459,0,7.282-0.095,11.063-3.498
			c3.877-3.5,4.539-8.323,4.539-11.729v-33.853c0-3.88,0-15.512-16.076-15.512c-4.917,0-10.213,1.42-13.335,5.863
			c-2.27,3.216-2.459,6.526-2.459,10.688V235.133z M213.333,200.897c0-2.649,0-6.619,5.2-6.619c4.918,0,4.918,3.781,4.918,7.094
			v34.139c0,2.365,0,6.619-5.201,6.619c-4.917,0-4.917-4.351-4.917-5.862V200.897z"/>
		<path fill="#99AAE6" d="M248.745,230.522h-8.998v1.327h7.139c-0.253,1.482-0.971,3.507-3.02,5.204
			c-1.88,1.568-3.867,2.526-5.407,3.046l1.077,1.066c1.605-0.608,3.422-1.434,5.725-3.459
			C247.224,235.921,248.554,233.07,248.745,230.522 M254.744,243.018v-13.909h-1.563v6.028h-4.056v1.35h4.056v6.531H254.744z
			 M255.377,247.828v-1.35h-11.999v-4.571h-1.584v5.921H255.377z"/>
	</g>
	<g>
		<g>
			<path fill="#737070" d="M491.834,302.454v-3.208h-6.371v0.861h5.364v2.347H491.834z M489.292,295.914
				c0-1.225-1.007-2.213-2.423-2.213s-2.434,0.988-2.434,2.213c0,1.223,1.018,2.222,2.434,2.222S489.292,297.137,489.292,295.914
				 M493.081,296.324v-0.883h-1.257v-2.039h-0.996v5.317h0.996v-2.396H493.081z M488.264,295.914c0,0.739-0.498,1.347-1.395,1.347
				c-0.897,0-1.406-0.607-1.406-1.347c0-0.73,0.509-1.337,1.406-1.337C487.766,294.577,488.264,295.184,488.264,295.914
				 M501.061,293.402h-0.997v9.049h0.997V293.402z M499.746,299.235v-0.874c-0.547,0.101-2.692,0.215-3.659,0.236l-2.83,0.011v0.874
				h2.422v2.765h0.987v-2.775c0.269,0,0.278-0.011,0.578-0.032C498.072,299.407,499.208,299.317,499.746,299.235 M497.833,293.435
				h-2.722v0.823h2.722V293.435z M499.199,297.033c-1.366-0.277-1.966-0.986-2.136-1.314h1.846v-0.845h-4.836v0.845h1.864
				c-0.149,0.339-0.887,1.232-2.303,1.479l0.618,0.75c0.877-0.133,1.915-0.894,2.243-1.42c0.448,0.598,1.556,1.257,2.204,1.296
				L499.199,297.033z M510.333,293.907h-4.916v0.863h3.839c-0.061,1.008-0.341,2.284-0.359,2.355h0.988
				C510.143,296.346,510.311,294.545,510.333,293.907 M513.703,297.18v-0.875h-1.228v-2.902h-0.996v6.686h0.996v-2.908H513.703z
				 M511.138,298.619v-0.845c-0.837,0.133-2.9,0.267-3.599,0.267v-1.973h-0.998v1.973h-1.713v0.865h1.156
				C508.179,298.906,509.893,298.771,511.138,298.619 M512.775,302.247v-0.863h-5.454v-1.801h-0.986v2.664H512.775z
				 M521.484,293.402h-0.997v9.049h0.997V293.402z M519.919,300.396v-0.851c-0.568,0.103-1.825,0.213-2.702,0.234l-1.835,0.011
				v-1.934h3.291v-3.58h-4.287v0.875h3.299v1.841h-3.299v3.672l2.521-0.021C518.014,300.623,519.321,300.49,519.919,300.396
				 M530.472,293.402h-0.997v9.049h0.997V293.402z M528.539,299.985c-1.645-1.008-2.503-2.376-2.503-4.628v-1.429h-1.046v1.429
				c0,2.222-0.778,3.856-2.623,4.905l0.798,0.648c0.858-0.505,2.073-1.893,2.354-2.9c0.469,1.11,1.575,2.365,2.353,2.716
				L528.539,299.985z M539.9,300.254h-8.773v0.863h8.773V300.254z M535.513,296.242c0.438,0.997,1.884,2.323,3.229,2.725l0.698-0.75
				c-2.89-1.01-3.399-2.829-3.399-3.683v-0.627h-1.058v0.627c0,0.854-0.397,2.632-3.398,3.683l0.698,0.75
				C533.588,298.565,535.124,297.352,535.513,296.242 M547.962,299.132h-6.46v3.219h6.46V299.132z M546.966,301.487H542.5v-1.491
				h4.467V301.487z M547.992,293.402h-0.967v5.287h0.967V293.402z M546.109,298.689v-5.133h-0.957v1.926h-1.128v0.842h1.128v2.365
				H546.109z M544.342,298.154v-0.812c-0.39,0.052-1.245,0.111-1.884,0.122l-0.968,0.011v-0.915h2.125v-0.813h-2.125v-0.937h2.224
				v-0.842h-3.22v4.359c0.06,0,1.156,0.021,1.934-0.02C543.125,298.29,543.953,298.206,544.342,298.154 M559.496,294.432h-6.77
				v0.874h5.673c-0.061,1.369-0.528,3.856-0.56,3.992h0.998C559.206,297.856,559.464,295.184,559.496,294.432 M560.551,301.251
				v-0.864h-4.694v-3.126h-1.02v3.126h-3.061v0.864H560.551z M569.321,301.302v-0.863h-3.849v-1.966h2.822v-0.863h-5.564v-2.51
				h5.484v-0.872h-6.471v4.245h2.703v1.966h-3.89v0.863H569.321z M573.882,293.682h-2.791v0.831h2.791V293.682z M575.129,295.132
				h-5.266v0.842h5.266V295.132z M576.046,293.402v9.052h0.998v-4.329h1.266v-0.918h-1.266v-3.805H576.046z M575.688,300.9v-0.874
				c-0.709,0.103-1.596,0.185-2.594,0.185v-0.935c1.008-0.145,1.676-0.711,1.676-1.398c0-0.823-0.937-1.472-2.243-1.472
				c-1.297,0-2.224,0.638-2.224,1.461c0,0.73,0.689,1.284,1.735,1.431v0.924h-2.593v0.874l2.683-0.011
				C573.705,301.065,574.9,300.993,575.688,300.9 M573.784,297.878c0,0.399-0.497,0.688-1.247,0.688
				c-0.728,0-1.235-0.288-1.235-0.698c0-0.402,0.508-0.72,1.226-0.72C573.275,297.147,573.784,297.465,573.784,297.878
				 M586.889,301.403v-0.864h-3.869v-1.407h2.804v-0.863h-5.494v-1.225h5.245v-2.972h-6.262v0.864h5.274v1.244h-5.254v2.951h2.64
				v1.407h-3.858v0.864H586.889z M592.502,293.948c-1.577,0-2.274,1.143-2.295,2.335h0.848c0.041-0.741,0.358-1.502,1.426-1.502
				c0.886,0,1.325,0.535,1.325,1.41c0,0.646-0.399,1.141-0.937,1.542l-1.187,0.875c-1.355,0.985-1.675,1.974-1.686,2.96h4.786
				v-0.804h-3.697c0.168-0.614,0.716-1.149,1.096-1.429l1.175-0.831c0.62-0.442,1.456-1.143,1.456-2.324
				C594.813,294.978,594.066,293.948,592.502,293.948 M602.753,299.955v-6.553h-0.997v0.978h-2.522v0.823h2.522v0.813h-2.522v0.832
				h2.522v3.106H602.753z M602.952,302.247v-0.863h-5.482v-1.871h-0.997v2.734H602.952z M600.828,298.297v-0.843
				c-0.677,0.145-1.953,0.299-3.139,0.32l-1.188,0.02v-4.012h-0.997v4.877l2.174-0.021
				C599.003,298.619,600.25,298.432,600.828,298.297 M610.948,296.017c0,0.771-0.499,1.407-1.406,1.407
				c-0.888,0-1.396-0.636-1.396-1.407c0-0.781,0.509-1.42,1.396-1.42C610.449,294.597,610.948,295.235,610.948,296.017
				 M611.495,294.616c-0.429-0.555-1.116-0.915-1.953-0.915c-1.416,0-2.423,1.04-2.423,2.315c0,1.272,1.007,2.302,2.423,2.302
				c0.876,0,1.594-0.392,2.013-0.986h2.203v2.623h0.997v-6.553h-0.997v1.214H611.495z M611.933,296.468
				c0.021-0.144,0.04-0.298,0.04-0.451c0-0.185-0.02-0.36-0.059-0.534h1.843v0.985H611.933z M614.975,302.247v-0.863h-5.524v-2.107
				h-0.987v2.971H614.975z M619.856,295.018c0.508,0.999,2.033,1.883,3.26,2.037l0.608-0.72c-2.622-0.503-3.341-1.944-3.341-2.561
				v-0.392h-1.056v0.392c0,0.616-0.579,1.963-3.34,2.561l0.607,0.72C617.931,296.859,619.426,295.914,619.856,295.018
				 M624.242,298.802v-0.864h-3.878v-1.366h-1.017v1.366h-3.88v0.864H624.242z M623.125,302.454v-2.746h-6.659v0.863h5.675v1.883
				H623.125z M635.038,302.454v-3.208h-6.371v0.861h5.363v2.347H635.038z M632.496,295.914c0-1.225-1.007-2.213-2.425-2.213
				c-1.416,0-2.433,0.988-2.433,2.213c0,1.223,1.017,2.222,2.433,2.222C631.489,298.136,632.496,297.137,632.496,295.914
				 M636.284,296.324v-0.883h-1.256v-2.039h-0.998v5.317h0.998v-2.396H636.284z M631.467,295.914c0,0.739-0.499,1.347-1.396,1.347
				c-0.896,0-1.404-0.607-1.404-1.347c0-0.73,0.508-1.337,1.404-1.337C630.968,294.577,631.467,295.184,631.467,295.914
				 M644.264,293.402h-0.997v9.049h0.997V293.402z M642.95,299.235v-0.874c-0.549,0.101-2.693,0.215-3.66,0.236l-2.83,0.011v0.874
				h2.422v2.765h0.987v-2.775c0.27,0,0.279-0.011,0.577-0.032C641.274,299.407,642.413,299.317,642.95,299.235 M641.036,293.435
				h-2.722v0.823h2.722V293.435z M642.401,297.033c-1.365-0.277-1.965-0.986-2.134-1.314h1.845v-0.845h-4.835v0.845h1.864
				c-0.151,0.339-0.887,1.232-2.303,1.479l0.617,0.75c0.877-0.133,1.915-0.894,2.243-1.42c0.449,0.598,1.556,1.257,2.202,1.296
				L642.401,297.033z M655.978,293.402h-0.997v6.553h0.997V293.402z M656.187,302.247v-0.863h-5.464v-2.026h-1.026v2.89H656.187z
				 M653.047,294.011h-4.367v4.367h4.367V294.011z M652.06,297.517h-2.384v-2.643h2.384V297.517z M664.937,300.356v-6.954h-0.998
				v5.142h-2.063v0.824h2.063v0.988H664.937z M663.62,297.733v-0.854c-0.438,0.094-2.531,0.287-3.737,0.287h-2.781v0.845h2.164
				v1.562h0.996V298C661.288,298,662.892,297.856,663.62,297.733 M665.156,302.247v-0.863h-5.614v-1.418h-0.995v2.281H665.156z
				 M660.151,294.092c0.987,0,1.386,0.516,1.386,0.866c0,0.328-0.398,0.82-1.376,0.82c-0.957,0-1.376-0.492-1.376-0.82
				C658.785,294.607,659.174,294.092,660.151,294.092 M660.151,293.31c-1.515,0-2.333,0.773-2.333,1.648
				c0,0.894,0.808,1.644,2.333,1.644c1.526,0,2.332-0.741,2.332-1.644C662.483,294.072,661.706,293.31,660.151,293.31
				 M671.425,294.062c-1.705,0-2.592,1.554-2.592,3.824c0,2.284,0.887,3.859,2.592,3.859c1.704,0,2.622-1.575,2.622-3.859
				C674.047,295.615,673.129,294.062,671.425,294.062 M671.425,300.89c-1.027,0-1.575-1.307-1.575-3.004
				c0-1.705,0.548-2.979,1.575-2.979c1.057,0,1.574,1.274,1.574,2.979C673,299.583,672.482,300.89,671.425,300.89 M679.425,294.011
				h-4.348v0.863h3.151c-0.1,1.513-1.706,3.106-3.709,3.579l0.618,0.689C677.731,298.38,679.386,296.346,679.425,294.011
				 M682.307,299.955v-6.553h-0.998v2.759h-1.824v0.863h1.824v2.931H682.307z M682.545,302.247v-0.863h-5.505v-1.955h-0.996v2.818
				H682.545z"/>
			<path fill="#737070" d="M486.769,317.437c-1.058-1.85-1.456-3.433-1.456-4.976c0-1.551,0.398-3.137,1.456-4.988h-0.718
				c-0.708,1.102-1.746,2.716-1.746,4.988c0,2.263,1.038,3.878,1.746,4.976H486.769z M494.598,312.173v-4.052h-0.997v1.101h-4.507
				v-1.101h-0.998v4.052H494.598z M495.734,314.015v-0.866h-8.773v0.866h3.887v2.96h0.997v-2.96H495.734z M493.601,311.31h-4.507
				v-1.223h4.507V311.31z M504.035,307.926h-0.997v9.049h0.997V307.926z M501.959,314.384c-1.683-0.967-2.301-2.466-2.301-3.927
				v-0.68h1.993v-0.896h-5.085v0.896h1.984v0.68c0,1.49-0.578,3.126-2.592,4.297l0.816,0.7c0.897-0.608,1.943-1.605,2.323-2.819
				c0.271,0.938,1.405,2.016,2.174,2.542L501.959,314.384z M512.734,313.336v-5.41h-0.997v1.398h-1.624v0.864h1.624v1.039h-1.784
				v0.862h1.784v1.246H512.734z M512.874,315.259c0-1.081-1.216-1.874-3.39-1.874c-2.164,0-3.391,0.793-3.391,1.874
				c0,1.089,1.227,1.86,3.391,1.86C511.658,317.119,512.874,316.348,512.874,315.259 M511.826,315.27
				c0,0.627-1.006,1.037-2.332,1.037c-1.347,0-2.332-0.41-2.332-1.037c0-0.639,0.985-1.04,2.332-1.04
				C510.82,314.229,511.826,314.631,511.826,315.27 M509.852,308.534h-4.306v0.863h3.099c-0.099,1.255-1.914,2.92-3.618,3.229
				l0.529,0.677C508.467,312.554,509.773,310.486,509.852,308.534 M519.847,316.564v-8.422h-0.967v1.994h-1.076v0.865h1.076v1.582
				h-1.285v0.863h1.285v3.117H519.847z M521.693,307.926h-0.966v9.049h0.966V307.926z M517.754,309.077h-3.498v0.877h2.4
				c0.012,1.499-0.936,3.71-2.931,4.821l0.738,0.584C516.877,313.87,517.754,311.134,517.754,309.077 M534.192,313.54v-0.864h-3.858
				v-0.956h2.723v-3.65h-0.986v0.986h-4.517v-0.986h-0.996v3.65h2.729v0.956h-3.867v0.864H534.192z M533.056,316.975v-2.672h-6.61
				v0.863h5.624v1.809H533.056z M532.07,310.858h-4.519v-0.967h4.519V310.858z M538.785,307.885h-2.921v0.77h2.921V307.885z
				 M540.1,309.243h-5.554v0.79h5.554V309.243z M543.192,311.021v-0.863h-1.237v-2.232h-0.986v5.133h0.986v-2.037H543.192z
				 M537.32,313.132c1.515,0,2.412-0.6,2.412-1.36s-0.876-1.347-2.395-1.347c-1.465,0-2.422,0.577-2.422,1.347
				C534.916,312.523,535.882,313.132,537.32,313.132 M541.955,316.872v-3.332h-0.986v0.874h-4.157v-0.874h-0.998v3.332H541.955z
				 M538.665,311.761c0,0.401-0.448,0.627-1.327,0.627c-0.876,0-1.344-0.236-1.344-0.616c0-0.41,0.468-0.638,1.344-0.638
				C538.216,311.134,538.665,311.402,538.665,311.761 M540.968,316.092h-4.157v-0.894h4.157V316.092z M550.775,316.975v-3.207
				h-6.371v0.863h5.363v2.344H550.775z M548.232,310.436c0-1.225-1.006-2.211-2.422-2.211c-1.418,0-2.435,0.986-2.435,2.211
				c0,1.222,1.017,2.221,2.435,2.221C547.226,312.656,548.232,311.657,548.232,310.436 M552.021,310.846v-0.883h-1.257v-2.037
				h-0.997v5.315h0.997v-2.396H552.021z M547.205,310.436c0,0.738-0.499,1.347-1.395,1.347c-0.898,0-1.406-0.608-1.406-1.347
				c0-0.73,0.508-1.339,1.406-1.339C546.706,309.097,547.205,309.705,547.205,310.436 M560.052,307.926h-0.998v9.049h0.998V307.926z
				 M558.736,313.757v-0.875c-0.548,0.104-2.692,0.215-3.658,0.236l-2.832,0.014v0.872h2.423v2.767h0.988v-2.777
				c0.267,0,0.276-0.011,0.577-0.03C557.062,313.933,558.198,313.838,558.736,313.757 M556.822,307.956h-2.721v0.825h2.721V307.956z
				 M558.188,311.555c-1.366-0.277-1.965-0.986-2.136-1.315h1.846v-0.842h-4.835v0.842h1.865c-0.149,0.34-0.889,1.233-2.305,1.48
				l0.619,0.752c0.878-0.135,1.914-0.896,2.243-1.42c0.447,0.598,1.555,1.255,2.204,1.298L558.188,311.555z M569.044,308.946h-4.299
				v0.861h3.149c-0.108,1.377-1.056,3.775-3.677,4.989l0.746,0.605C567.737,314.088,569.034,311.082,569.044,308.946
				 M571.964,307.926h-0.997v9.049h0.997V307.926z M577.652,309.077h2.792v-0.844h-6.7v0.844h2.803
				c-0.11,0.492-1.019,1.667-3.271,2.129l0.617,0.75c1.386-0.307,2.703-1.067,3.201-1.893c0.708,1.029,2.133,1.719,3.201,1.893
				l0.617-0.75C578.799,310.815,577.753,309.569,577.652,309.077 M581.481,313.314v-0.864h-8.773v0.864h4.028v1.852h1.018v-1.852
				H581.481z M580.614,316.771v-0.863h-5.754v-1.626h-1.025v2.489H580.614z M589.652,307.926h-0.998v9.049h0.998V307.926z
				 M586.162,308.368h-2.82v0.864h2.82V308.368z M587.578,314.571c-1.974-1.206-2.281-2.379-2.281-3.21v-0.351h1.954v-0.894h-4.995
				v0.894h1.963v0.351c0,0.646-0.22,2.354-2.453,3.443l0.759,0.741c0.767-0.339,1.934-1.441,2.242-2.365
				c0.34,0.813,1.616,1.914,2.155,2.179L587.578,314.571z M596.309,311.217c-0.477-0.032-1.035,0.061-1.515,0.381l0.299-1.964h3.052
				v-0.853h-3.819l-0.579,3.895l0.858,0.011c0.27-0.369,0.688-0.638,1.386-0.638c0.897,0,1.426,0.782,1.426,1.749
				c0,0.999-0.599,1.719-1.446,1.719c-0.887,0-1.445-0.619-1.525-1.257h-0.877c0.16,1.05,0.988,2.088,2.442,2.088
				c1.178,0,2.413-0.924,2.413-2.571C598.423,311.956,597.126,311.29,596.309,311.217 M601.357,308.583
				c-1.704,0-2.591,1.554-2.591,3.826c0,2.284,0.887,3.856,2.591,3.856c1.706,0,2.622-1.572,2.622-3.856
				C603.979,310.137,603.063,308.583,601.357,308.583 M601.357,315.413c-1.026,0-1.574-1.309-1.574-3.004
				c0-1.708,0.548-2.981,1.574-2.981c1.058,0,1.577,1.273,1.577,2.981C602.934,314.104,602.415,315.413,601.357,315.413
				 M605.958,308.542c-0.967,0-1.756,0.823-1.756,1.822c0,0.997,0.789,1.819,1.756,1.819c0.966,0,1.763-0.822,1.763-1.819
				C607.721,309.365,606.924,308.542,605.958,308.542 M610.254,308.542h-0.887l-3.71,7.621l0.918-0.009L610.254,308.542z
				 M609.995,312.513c-0.967,0-1.763,0.823-1.763,1.812c0,0.985,0.796,1.83,1.763,1.83c0.947,0,1.766-0.845,1.766-1.83
				C611.76,313.336,610.942,312.513,609.995,312.513 M605.958,311.318c-0.529,0-0.917-0.408-0.917-0.954
				c0-0.557,0.388-0.958,0.917-0.958c0.537,0,0.926,0.401,0.926,0.958C606.884,310.91,606.496,311.318,605.958,311.318
				 M609.995,315.27c-0.527,0-0.908-0.402-0.908-0.945c0-0.537,0.381-0.929,0.908-0.929c0.519,0,0.907,0.392,0.907,0.929
				C610.902,314.867,610.513,315.27,609.995,315.27 M620.242,311.947c0-2.036-0.916-3.343-2.372-3.343
				c-1.447,0-2.395,1.296-2.395,3.343c0,2.026,0.947,3.341,2.395,3.341C619.326,315.288,620.242,313.963,620.242,311.947
				 M622.983,307.926h-0.997v9.049h0.997V307.926z M619.264,311.937c0,1.315-0.5,2.437-1.386,2.437
				c-0.887,0-1.415-1.121-1.415-2.437c0-1.284,0.528-2.428,1.415-2.428C618.764,309.509,619.264,310.642,619.264,311.937
				 M628.164,308.368h-2.893v0.864h2.893V308.368z M629.45,310.035h-5.475v0.884h5.475V310.035z M630.416,307.926v9.049h0.998
				v-4.442h1.325v-0.935h-1.325v-3.672H630.416z M629.139,313.634c0-1.121-0.985-2.079-2.391-2.079
				c-1.456,0-2.444,0.969-2.444,2.079c0,1.101,0.998,2.108,2.435,2.108C628.154,315.742,629.139,314.702,629.139,313.634
				 M628.124,313.643c0,0.639-0.519,1.214-1.375,1.214c-0.889,0-1.396-0.575-1.396-1.214c0-0.648,0.508-1.223,1.396-1.223
				C627.605,312.42,628.124,312.985,628.124,313.643 M643.525,309.981c0-1.151-1.236-2.004-3.42-2.004
				c-2.174,0-3.419,0.853-3.419,2.004c0,1.165,1.256,2.005,3.429,2.005C642.298,311.986,643.525,311.146,643.525,309.981
				 M644.493,313.933v-0.865h-8.773v0.865h2.272v2.939h0.996v-2.939h2.304v3.042h0.986v-3.042H644.493z M640.105,308.8
				c1.376,0,2.343,0.494,2.343,1.203c0,0.69-0.986,1.163-2.343,1.163c-1.375,0-2.363-0.486-2.363-1.185
				C637.742,309.272,638.709,308.8,640.105,308.8 M652.793,307.926h-0.997v9.049h0.997V307.926z M650.719,314.384
				c-1.686-0.967-2.304-2.466-2.304-3.927v-0.68h1.993v-0.896h-5.083v0.896h1.983v0.68c0,1.49-0.578,3.126-2.593,4.297l0.817,0.7
				c0.898-0.608,1.944-1.605,2.323-2.819c0.27,0.938,1.405,2.016,2.174,2.542L650.719,314.384z M653.446,317.437h0.729
				c0.708-1.098,1.744-2.713,1.744-4.976c0-2.272-1.036-3.887-1.744-4.988h-0.729c1.057,1.852,1.465,3.438,1.465,4.988
				C654.911,314.004,654.502,315.587,653.446,317.437"/>
			<path fill="#737070" d="M629.931,276.039c-1.349,0-1.944,0.975-1.962,1.995h0.726c0.034-0.634,0.307-1.284,1.219-1.284
				c0.76,0,1.135,0.46,1.135,1.203c0,0.554-0.341,0.978-0.802,1.319l-1.015,0.747c-1.16,0.843-1.433,1.687-1.441,2.533h4.094v-0.688
				h-3.165c0.146-0.526,0.615-0.986,0.938-1.223l1.007-0.711c0.529-0.378,1.246-0.976,1.246-1.987
				C631.91,276.917,631.271,276.039,629.931,276.039 M634.672,276.136c-1.459,0-2.217,1.327-2.217,3.27
				c0,1.951,0.758,3.294,2.217,3.294c1.458,0,2.242-1.343,2.242-3.294C636.915,277.463,636.13,276.136,634.672,276.136
				 M634.672,281.971c-0.88,0-1.347-1.117-1.347-2.565c0-1.461,0.467-2.548,1.347-2.548c0.904,0,1.348,1.087,1.348,2.548
				C636.02,280.854,635.577,281.971,634.672,281.971 M639.662,282.604l0.008-6.381h-0.581c-0.024,0.342-0.22,0.677-0.443,0.844
				c-0.305,0.218-0.655,0.325-1.05,0.333v0.634h1.314v4.57H639.662z M644.352,279.192c0.529-0.35,0.826-0.904,0.826-1.388
				c0-0.958-0.946-1.766-2.056-1.766c-1.15,0-2.063,0.808-2.063,1.766c0,0.483,0.289,1.038,0.825,1.396
				c-0.664,0.412-1.04,1.021-1.04,1.626c0,1.047,1.023,1.951,2.277,1.951c1.229,0,2.276-0.904,2.276-1.951
				C645.399,280.222,645.006,279.613,644.352,279.192 M643.123,278.814c-0.87,0-1.237-0.458-1.237-1.019
				c0-0.58,0.367-1.046,1.237-1.046c0.794,0,1.229,0.466,1.229,1.046C644.352,278.356,643.917,278.814,643.123,278.814
				 M643.123,282.084c-0.912,0-1.45-0.563-1.45-1.257c0-0.704,0.538-1.22,1.45-1.22c0.88,0,1.451,0.516,1.451,1.22
				C644.574,281.521,644.002,282.084,643.123,282.084 M646.687,279.957c0.076-0.79,0.478-1.45,1.34-1.379
				c0.869,0.077,1.511,1.669,2.73,1.783c1.337,0.114,2.046-1.027,2.242-2.091h-0.776c-0.138,0.694-0.57,1.434-1.476,1.352
				c-0.912-0.077-1.339-1.633-2.687-1.766c-1.212-0.114-2.057,0.986-2.148,2.101H646.687z M655.753,276.039
				c-1.349,0-1.947,0.975-1.963,1.995h0.725c0.035-0.634,0.307-1.284,1.221-1.284c0.759,0,1.134,0.46,1.134,1.203
				c0,0.554-0.342,0.978-0.802,1.319l-1.016,0.747c-1.16,0.843-1.434,1.687-1.441,2.533h4.094v-0.688h-3.164
				c0.146-0.526,0.614-0.986,0.938-1.223l1.008-0.711c0.528-0.378,1.245-0.976,1.245-1.987
				C657.731,276.917,657.092,276.039,655.753,276.039 M660.494,276.136c-1.459,0-2.219,1.327-2.219,3.27
				c0,1.951,0.76,3.294,2.219,3.294c1.458,0,2.243-1.343,2.243-3.294C662.737,277.463,661.952,276.136,660.494,276.136
				 M660.494,281.971c-0.88,0-1.349-1.117-1.349-2.565c0-1.461,0.469-2.548,1.349-2.548c0.902,0,1.347,1.087,1.347,2.548
				C661.84,280.854,661.396,281.971,660.494,281.971 M665.482,282.604l0.009-6.381h-0.58c-0.024,0.342-0.223,0.677-0.444,0.844
				c-0.308,0.218-0.657,0.325-1.049,0.333v0.634h1.315v4.57H665.482z M668.765,276.056c-1.178,0-2.048,0.941-2.048,2.136
				c0,1.16,0.77,2.145,1.92,2.215c0.647,0.034,1.15-0.315,1.544-0.713c0,0.369,0.007,0.872-0.181,1.373
				c-0.186,0.5-0.476,0.992-1.202,0.992c-0.741,0-1.221-0.614-1.27-1.072h-0.769c0.094,0.896,0.93,1.783,2.005,1.783
				c1.015,0,1.664-0.589,2.013-1.59c0.333-0.924,0.341-2.645,0.052-3.491C670.514,276.761,669.866,276.056,668.765,276.056
				 M668.798,279.659c-0.741,0-1.253-0.606-1.253-1.468c0-0.853,0.512-1.441,1.253-1.441c0.743,0,1.246,0.597,1.246,1.441
				C670.044,279.044,669.542,279.659,668.798,279.659 M678.232,281.171v-5.599h-0.853v0.836h-2.158v0.705h2.158v0.691h-2.158v0.711
				h2.158v2.655H678.232z M678.402,283.131v-0.739h-4.691v-1.599h-0.853v2.338H678.402z M676.585,279.756v-0.72
				c-0.579,0.122-1.672,0.253-2.688,0.271l-1.015,0.02v-3.427h-0.853v4.163l1.86-0.017
				C675.025,280.028,676.091,279.869,676.585,279.756"/>
		</g>
		<rect x="487.653" y="198.263" fill="#99AAE6" width="17.863" height="71.851"/>
		<g>
			<path fill="#737070" d="M486.182,276.039c-1.348,0-1.944,0.975-1.961,1.995h0.726c0.032-0.634,0.308-1.284,1.22-1.284
				c0.758,0,1.133,0.46,1.133,1.203c0,0.554-0.339,0.978-0.801,1.319l-1.016,0.747c-1.16,0.843-1.432,1.687-1.441,2.533h4.093
				v-0.688h-3.163c0.146-0.526,0.615-0.986,0.938-1.223l1.006-0.711c0.53-0.378,1.246-0.976,1.246-1.987
				C488.161,276.917,487.523,276.039,486.182,276.039 M490.922,276.136c-1.457,0-2.216,1.327-2.216,3.27
				c0,1.951,0.759,3.294,2.216,3.294c1.46,0,2.243-1.343,2.243-3.294C493.166,277.463,492.382,276.136,490.922,276.136
				 M490.922,281.971c-0.878,0-1.347-1.117-1.347-2.565c0-1.461,0.469-2.548,1.347-2.548c0.906,0,1.35,1.087,1.35,2.548
				C492.272,280.854,491.829,281.971,490.922,281.971 M495.913,282.604l0.008-6.381h-0.58c-0.025,0.342-0.221,0.677-0.443,0.844
				c-0.306,0.218-0.656,0.325-1.049,0.333v0.634h1.313v4.57H495.913z M499.273,276.039c-1.349,0-1.945,0.975-1.962,1.995h0.725
				c0.034-0.634,0.306-1.284,1.221-1.284c0.759,0,1.134,0.46,1.134,1.203c0,0.554-0.342,0.978-0.802,1.319l-1.015,0.747
				c-1.16,0.843-1.433,1.687-1.443,2.533h4.094v-0.688h-3.164c0.147-0.526,0.614-0.986,0.938-1.223l1.007-0.711
				c0.529-0.378,1.245-0.976,1.245-1.987C501.25,276.917,500.611,276.039,499.273,276.039 M508.423,281.171v-5.599h-0.854v0.836
				h-2.157v0.705h2.157v0.691h-2.157v0.711h2.157v2.655H508.423z M508.593,283.131v-0.739h-4.69v-1.599h-0.854v2.338H508.593z
				 M506.776,279.756v-0.72c-0.579,0.122-1.67,0.253-2.686,0.271l-1.015,0.02v-3.427h-0.854v4.163l1.859-0.017
				C505.216,280.028,506.282,279.869,506.776,279.756"/>
			<path fill="#737070" d="M489.296,187.439c0-0.365,0.052-0.832,0.729-0.832c0.599,0,0.636,0.494,0.636,0.755v0.988
				c0,0.648-0.077,0.726-1.377,2.013c-0.846,0.831-1.587,1.572-1.587,3.848h4.563v-1.3h-2.887c0.053-0.675,0.184-0.806,1.534-2.17
				c1.027-1.026,1.248-1.352,1.248-2.275v-0.885c0-0.363-0.091-0.845-0.104-0.896c-0.234-0.909-1.132-1.235-2.067-1.235
				c-0.312,0-1.014,0.027-1.534,0.455c-0.558,0.481-0.571,1.132-0.571,1.508v1.066h1.417V187.439z M493.745,188.154
				c0.845-0.144,1.144-0.403,1.299-0.545v6.602h1.521v-8.646h-1.015c-0.246,0.353-0.39,0.574-0.726,0.834
				c-0.548,0.43-0.91,0.52-1.08,0.559V188.154z"/>
			<path fill="#737070" d="M502.885,186.646h-3.72v0.737h2.695c-0.084,1.291-1.458,2.655-3.172,3.059l0.528,0.589
				C501.435,190.383,502.851,188.641,502.885,186.646 M505.349,191.726v-5.599h-0.853v2.354h-1.561v0.741h1.561v2.503H505.349z
				 M505.556,193.685v-0.736h-4.71v-1.67h-0.853v2.406H505.556z"/>
		</g>
		<rect x="530.482" y="230.589" fill="#99AAE6" width="17.864" height="39.524"/>
		<g>
			<path fill="#737070" d="M528.931,276.039c-1.349,0-1.945,0.975-1.962,1.995h0.724c0.035-0.634,0.308-1.284,1.22-1.284
				c0.76,0,1.135,0.46,1.135,1.203c0,0.554-0.34,0.978-0.801,1.319l-1.015,0.747c-1.16,0.843-1.435,1.687-1.441,2.533h4.093v-0.688
				h-3.164c0.145-0.526,0.614-0.986,0.938-1.223l1.007-0.711c0.528-0.378,1.244-0.976,1.244-1.987
				C530.909,276.917,530.269,276.039,528.931,276.039 M533.671,276.136c-1.458,0-2.216,1.327-2.216,3.27
				c0,1.951,0.758,3.294,2.216,3.294c1.46,0,2.244-1.343,2.244-3.294C535.916,277.463,535.131,276.136,533.671,276.136
				 M533.671,281.971c-0.878,0-1.347-1.117-1.347-2.565c0-1.461,0.469-2.548,1.347-2.548c0.905,0,1.348,1.087,1.348,2.548
				C535.019,280.854,534.577,281.971,533.671,281.971 M538.66,282.604l0.009-6.381h-0.579c-0.025,0.342-0.222,0.677-0.444,0.844
				c-0.308,0.218-0.656,0.325-1.049,0.333v0.634h1.314v4.57H538.66z M543.037,279.246c0.417-0.21,0.869-0.659,0.869-1.441
				c0-0.904-0.912-1.749-1.929-1.749c-1.048,0-1.961,0.66-1.937,1.854h0.728c0-0.571,0.331-1.149,1.185-1.149
				c0.682,0,1.108,0.481,1.108,1.044c0,0.492-0.222,0.845-0.675,1.063c-0.22,0.097-0.553,0.105-0.827,0.105v0.677
				c0.274,0,0.546,0.017,0.827,0.097c0.438,0.105,0.846,0.5,0.846,1.055c0,0.694-0.486,1.257-1.255,1.257
				c-0.896,0-1.363-0.696-1.363-1.311h-0.735c0,1.1,0.89,2.021,2.099,2.021c1.255,0,2.115-0.825,2.115-1.95
				C544.092,280.204,543.717,279.613,543.037,279.246 M551.333,281.171v-5.599h-0.853v0.836h-2.158v0.705h2.158v0.691h-2.158v0.711
				h2.158v2.655H551.333z M551.503,283.131v-0.739h-4.691v-1.599h-0.853v2.338H551.503z M549.686,279.756v-0.72
				c-0.579,0.122-1.671,0.253-2.686,0.271l-1.016,0.02v-3.427h-0.853v4.163l1.859-0.017
				C548.126,280.028,549.193,279.869,549.686,279.756"/>
			<path fill="#737070" d="M531.106,220.309c0.846-0.143,1.145-0.402,1.3-0.546v6.604h1.521v-8.644h-1.015
				c-0.247,0.351-0.389,0.571-0.727,0.831c-0.547,0.428-0.91,0.521-1.08,0.562V220.309z M536.437,219.595
				c0-0.365,0.053-0.829,0.729-0.829c0.598,0,0.638,0.49,0.638,0.754v0.984c0,0.65-0.08,0.73-1.38,2.015
				c-0.843,0.834-1.584,1.573-1.584,3.849h4.562v-1.3h-2.885c0.052-0.677,0.182-0.806,1.534-2.168
				c1.027-1.031,1.247-1.354,1.247-2.277v-0.886c0-0.362-0.091-0.844-0.104-0.896c-0.233-0.911-1.13-1.233-2.068-1.233
				c-0.312,0-1.013,0.023-1.531,0.453c-0.56,0.481-0.572,1.131-0.572,1.511v1.063h1.416V219.595z"/>
			<path fill="#737070" d="M544.331,218.802h-3.72v0.737h2.696c-0.085,1.293-1.458,2.655-3.173,3.06l0.529,0.589
				C542.881,222.538,544.296,220.796,544.331,218.802 M546.796,223.881v-5.599h-0.854v2.354h-1.563v0.739h1.563v2.505H546.796z
				 M547.001,225.841v-0.737h-4.71v-1.669h-0.854v2.406H547.001z"/>
		</g>
		<rect x="581.2" y="267.773" fill="#99AAE6" width="17.864" height="2.34"/>
		<g>
			<path fill="#737070" d="M568.985,276.039c-1.347,0-1.945,0.975-1.961,1.995h0.725c0.033-0.634,0.308-1.284,1.22-1.284
				c0.758,0,1.134,0.46,1.134,1.203c0,0.554-0.34,0.978-0.801,1.319l-1.017,0.747c-1.16,0.843-1.432,1.687-1.441,2.533h4.095v-0.688
				h-3.164c0.145-0.526,0.615-0.986,0.937-1.223l1.008-0.711c0.528-0.378,1.244-0.976,1.244-1.987
				C570.962,276.917,570.325,276.039,568.985,276.039 M573.726,276.136c-1.459,0-2.218,1.327-2.218,3.27
				c0,1.951,0.759,3.294,2.218,3.294c1.458,0,2.242-1.343,2.242-3.294C575.968,277.463,575.184,276.136,573.726,276.136
				 M573.726,281.971c-0.878,0-1.348-1.117-1.348-2.565c0-1.461,0.47-2.548,1.348-2.548c0.904,0,1.348,1.087,1.348,2.548
				C575.074,280.854,574.63,281.971,573.726,281.971 M578.714,282.604l0.01-6.381h-0.58c-0.024,0.342-0.222,0.677-0.444,0.844
				c-0.307,0.218-0.655,0.325-1.05,0.333v0.634h1.314v4.57H578.714z M584.386,281.399v-0.669h-0.931v-4.533l-0.785,0.009
				l-2.831,4.297v0.896h2.849v1.205h0.768v-1.205H584.386z M582.688,280.73h-2.115l2.073-3.207l0.042,0.017V280.73z
				 M585.604,279.957c0.078-0.79,0.479-1.45,1.339-1.379c0.87,0.077,1.511,1.669,2.729,1.783c1.341,0.114,2.049-1.027,2.244-2.091
				h-0.775c-0.137,0.694-0.572,1.434-1.475,1.352c-0.913-0.077-1.341-1.633-2.689-1.766c-1.21-0.114-2.056,0.986-2.149,2.101
				H585.604z M594.668,276.039c-1.347,0-1.943,0.975-1.961,1.995h0.726c0.032-0.634,0.308-1.284,1.22-1.284
				c0.758,0,1.134,0.46,1.134,1.203c0,0.554-0.341,0.978-0.801,1.319l-1.017,0.747c-1.16,0.843-1.432,1.687-1.441,2.533h4.096
				v-0.688h-3.164c0.144-0.526,0.612-0.986,0.937-1.223l1.007-0.711c0.528-0.378,1.246-0.976,1.246-1.987
				C596.649,276.917,596.009,276.039,594.668,276.039 M599.41,276.136c-1.458,0-2.217,1.327-2.217,3.27
				c0,1.951,0.759,3.294,2.217,3.294c1.461,0,2.243-1.343,2.243-3.294C601.653,277.463,600.871,276.136,599.41,276.136
				 M599.41,281.971c-0.878,0-1.346-1.117-1.346-2.565c0-1.461,0.468-2.548,1.346-2.548c0.905,0,1.35,1.087,1.35,2.548
				C600.759,280.854,600.315,281.971,599.41,281.971 M604.399,282.604l0.009-6.381h-0.58c-0.024,0.342-0.221,0.677-0.442,0.844
				c-0.308,0.218-0.658,0.325-1.05,0.333v0.634h1.313v4.57H604.399z M609.499,276.303h-4.034v0.711h3.174
				c-0.325,0.458-1.017,1.636-1.52,2.716c-0.546,1.16-0.758,2.277-0.791,2.875h0.902c-0.007-0.722,0.342-1.996,0.879-3.147
				c0.521-1.133,1.076-2.005,1.39-2.383V276.303z M616.527,281.171v-5.599h-0.853v0.836h-2.158v0.705h2.158v0.691h-2.158v0.711
				h2.158v2.655H616.527z M616.697,283.131v-0.739h-4.691v-1.599h-0.853v2.338H616.697z M614.88,279.756v-0.72
				c-0.579,0.122-1.672,0.253-2.687,0.271l-1.016,0.02v-3.427h-0.853v4.163l1.86-0.017
				C613.321,280.028,614.386,279.869,614.88,279.756"/>
			<path fill="#737070" d="M584.449,259.833c0.846-0.144,1.143-0.404,1.299-0.546v6.603h1.521v-8.644h-1.014
				c-0.247,0.351-0.39,0.571-0.728,0.832c-0.547,0.43-0.909,0.52-1.079,0.559V259.833z"/>
			<path fill="#737070" d="M593.589,258.325h-3.721v0.736h2.696c-0.084,1.294-1.457,2.655-3.172,3.06l0.527,0.589
				C592.14,262.061,593.556,260.318,593.589,258.325 M596.053,263.403v-5.599h-0.853v2.357h-1.56v0.738h1.56v2.503H596.053z
				 M596.259,265.363v-0.737h-4.709v-1.669h-0.853v2.406H596.259z"/>
			<path fill="#737070" d="M646.283,267.655c0,0.623,0,2.132,2.235,2.132c0.339,0,1.002-0.011,1.521-0.481
				c0.532-0.481,0.624-1.144,0.624-1.613v-4.651c0-0.533,0-2.132-2.209-2.132c-0.677,0-1.403,0.195-1.833,0.806
				c-0.313,0.442-0.339,0.896-0.339,1.47V267.655z M647.778,262.948c0-0.363,0-0.909,0.715-0.909c0.676,0,0.676,0.521,0.676,0.976
				v4.694c0,0.322,0,0.909-0.714,0.909c-0.677,0-0.677-0.6-0.677-0.806V262.948z"/>
			<path fill="#737070" d="M655.671,262.104h-3.72v0.739h2.696c-0.086,1.291-1.458,2.653-3.173,3.058l0.529,0.589
				C654.221,265.84,655.637,264.1,655.671,262.104 M658.135,267.183v-5.597h-0.853v2.354h-1.561v0.737h1.561v2.505H658.135z
				 M658.341,269.145v-0.739h-4.709v-1.669h-0.853v2.408H658.341z"/>
		</g>
	</g>
	<g>
		<path fill="#99AAE6" d="M10.971,13.239c0-1.042,0-4.635,4.917-4.635c4.73,0,4.73,3.217,4.73,5.485v4.729
			c0,6.714-2.648,7.659-10.026,7.659v7.378c7.565,0,10.403,0.378,10.403,7.849v9.362c0,3.593-1.702,5.107-4.729,5.107
			c-5.391,0-5.391-3.595-5.391-5.485v-6.714H0v7.659c0,7.187,5.58,12.955,16.077,12.955c7.471,0,15.889-3.214,15.889-14.373v-9.552
			c0-8.513-2.082-9.646-9.457-10.878c6.808-1.037,9.078-3.214,9.078-9.738v-7.376C31.587,10.685,31.019,0,16.267,0
			C13.146,0,8.512,0.567,5.391,2.647c-3.119,1.987-4.823,5.579-4.823,9.269v7.753h10.403V13.239z M40.666,34.611h8.606
			c0.662-3.878,2.458-6.43,6.146-6.43c5.012,0,4.917,4.351,4.917,7.092v15.037c0,5.296-3.12,5.672-5.105,5.672
			c-4.918,0-4.918-4.065-4.918-5.391v-6.431H39.53v6.527c0,2.363,0.474,7.564,4.635,10.781c3.595,2.741,8.985,3.119,11.538,3.119
			c14.94,0,15.793-10.119,15.793-15.51V33.478c0-3.405-0.191-7.378-3.783-10.5c-1.607-1.512-4.256-3.024-8.513-3.024
			c-4.537,0-7.091,1.796-9.266,3.309l0.188-12.955h20.426V0.852H41.328L40.666,34.611z M85.965,14.468
			c0-2.646,0.379-6.052,5.296-6.052c4.351,0,4.634,3.594,4.634,5.484v7.187c0,4.729-0.567,5.296-10.024,14.659
			c-6.146,6.052-11.536,11.442-11.536,27.992h33.193V54.28H86.533c0.378-4.917,1.324-5.862,11.159-15.793
			c7.472-7.47,9.079-9.835,9.079-16.549v-6.431c0-2.646-0.662-6.146-0.758-6.524C104.313,2.363,97.786,0,90.979,0
			c-2.271,0-7.377,0.189-11.16,3.309c-4.065,3.5-4.16,8.227-4.16,10.971v7.753h10.307V14.468z"/>
		<path fill="#99AAE6" d="M124.713,59.95v-7.367h-1.016v2.855h-2.812c-0.275-1.386-1.537-2.432-3.238-2.432
			c-1.919,0-3.307,1.357-3.307,3.027c0,1.669,1.388,3.026,3.307,3.026c1.812,0,3.114-1.188,3.28-2.718h2.77v3.607H124.713z
			 M124.726,65.027v-4.229h-8.724v0.864h7.709v3.364H124.726z M119.87,56.034c0,1.16-0.782,2.107-2.223,2.107
			c-1.427,0-2.222-0.947-2.222-2.107s0.795-2.095,2.222-2.095C119.088,53.939,119.87,54.874,119.87,56.034 M136.644,52.513
			c-1.977,0-3.197,1.059-3.197,2.262c0,1.217,1.207,2.263,3.197,2.263c1.989,0,3.195-1.033,3.195-2.263
			C139.839,53.571,138.646,52.513,136.644,52.513 M143.036,62.313v-9.73h-1.028v7.226h-3.237v0.849h3.237v1.656H143.036z
			 M141.527,58.451v-0.862c-0.617,0.114-2.895,0.34-4.472,0.368l-4.693,0.027v0.851h3.143v2.347h1.015v-2.363
			C138.55,58.818,140.554,58.62,141.527,58.451 M143.352,64.746v-0.877h-7.806V61.69h-1.016v3.056H143.352z M136.644,53.346
			c1.495,0,2.194,0.766,2.194,1.429c0,0.651-0.699,1.401-2.181,1.401c-1.468,0-2.196-0.75-2.196-1.401
			C134.461,54.111,135.161,53.346,136.644,53.346"/>
	</g>
	<g>
		<path fill="#99AAE6" d="M199.771,70.943h-3.052v1.066h3.052V70.943z M201.357,72.42h-6.223v1.076h6.223V72.42z M205.114,75.804
			v-1.268h-1.443v-3.472h-1.362v8.067h1.362v-3.328H205.114z M201.943,78.103v-1.101c-0.868,0.097-2.548,0.279-2.9,0.279v-0.569
			c1.234-0.169,2.067-0.726,2.067-1.426c0-0.847-1.186-1.477-2.83-1.477c-1.655,0-2.841,0.641-2.841,1.477
			c0,0.713,0.844,1.28,2.112,1.426v0.604h-2.946v1.112h2.314C198.68,78.429,201.028,78.212,201.943,78.103 M204.023,81.465v-1.233
			h-6.343v-1.27h-1.454v2.503H204.023z M199.665,75.286c0,0.35-0.717,0.53-1.396,0.53c-0.705,0-1.374-0.181-1.374-0.53
			c0-0.351,0.692-0.533,1.385-0.533C198.996,74.753,199.665,74.936,199.665,75.286 M214.528,77.281v-6.217h-1.361v1.56h-1.868v1.196
			h1.868v1.115h-2.044v1.184h2.044v1.162H214.528z M214.621,79.628c0-1.296-1.387-2.25-3.992-2.25c-2.596,0-3.992,0.954-3.992,2.25
			c0,1.293,1.396,2.224,3.992,2.224C213.234,81.852,214.621,80.921,214.621,79.628 M213.189,79.639c0,0.653-1.057,1.112-2.549,1.112
			c-1.515,0-2.536-0.459-2.536-1.123c0-0.666,1.021-1.103,2.536-1.103C212.133,78.525,213.189,78.962,213.189,79.639
			 M211.087,71.728h-5.179v1.225h3.521c-0.116,0.664-0.504,1.403-1.443,2.127c-0.928,0.714-1.772,1.063-2.7,1.343l0.821,0.931
			c1.046-0.301,2.172-0.797,3.254-1.787C210.488,74.523,211.087,72.855,211.087,71.728 M223.95,72.311h-4.146v1.198h2.689
			c-0.07,0.761-0.259,1.994-0.917,3.167c-0.586,1.053-1.667,2.129-2.335,2.589l1.033,0.75c0.82-0.593,2.019-1.767,2.794-3.386
			C223.704,75.297,223.95,73.353,223.95,72.311 M228.658,81.707V71.064h-1.314v4.015h-1.033v-3.772h-1.315v9.917h1.315v-4.788h1.033
			v5.271H228.658z M239.022,78.756v-7.691h-1.363v1.984h-2.076v1.307h2.076v4.4H239.022z M239.258,81.465v-1.223h-6.389v-2.104
			h-1.385v3.326H239.258z M236.426,76.143c-0.586-0.217-1.337-0.688-1.937-1.354c-0.588-0.652-0.809-1.499-0.809-2.358v-1.074
			h-1.445v1.074c0,0.885-0.177,1.706-0.846,2.516c-0.599,0.727-1.364,1.246-2.043,1.597l0.963,0.992
			c0.423-0.219,1.033-0.604,1.574-1.126c0.503-0.483,0.844-0.917,1.08-1.354c0.293,0.447,0.61,0.784,0.997,1.124
			c0.553,0.483,1.27,0.883,1.668,1.029L236.426,76.143z M252.637,76.495v-1.173h-6.424v-0.823h6.307v-1.136h-6.307V72.54h6.365
			v-1.173h-7.773v5.128H252.637z M253.811,78.538v-1.222h-10.332v1.222h4.438v3.169h1.362v-3.169H253.811z M256.718,73.376v0.444
			c0,0.606-0.199,1.923-0.774,2.929c-0.517,0.896-1.315,1.631-2.242,2.224l1.127,0.919c0.575-0.399,1.034-0.747,1.504-1.28
			c0.551-0.632,0.891-1.16,1.126-1.766c0.247,0.507,0.553,1.016,1.01,1.534c0.587,0.668,1.257,1.065,1.469,1.188l0.881-1.053
			c-0.33-0.195-1.139-0.75-1.774-1.622c-0.717-0.992-0.879-2.477-0.879-3.072v-0.444h2.266v-1.223h-5.964v1.223H256.718z
			 M264.504,76.506v-1.33h-1.455v-4.111h-1.363v10.643h1.363v-5.201H264.504z M273.587,71.064h-1.361v10.643h1.361V71.064z
			 M270.382,79.628v-7.657h-1.363v2.419h-2.64v-2.419h-1.364v7.657H270.382z M269.019,78.393h-2.643V75.61h2.643V78.393z
			 M282.331,79.809c0,0.58-0.964,0.93-2.524,0.93c-1.586,0-2.524-0.363-2.524-0.943c0-0.604,0.938-0.919,2.524-0.919
			C281.367,78.876,282.331,79.215,282.331,79.809 M283.987,79.809c0-1.197-1.491-2.057-4.181-2.057
			c-2.678,0-4.182,0.859-4.182,2.057c0,1.184,1.504,2.068,4.182,2.068C282.496,81.877,283.987,80.992,283.987,79.809
			 M282.343,73.049c0,0.567-1.01,0.918-2.536,0.918c-1.551,0-2.524-0.387-2.524-0.967c0-0.569,0.95-0.933,2.524-0.933
			C281.356,72.067,282.343,72.467,282.343,73.049 M282.295,74.729c1.021-0.34,1.551-0.92,1.551-1.693c0-1.271-1.385-2.02-4.039-2.02
			c-2.397,0-4.041,0.786-4.041,1.996c0,0.771,0.588,1.343,1.563,1.693v1.243h-2.688v1.235h10.331v-1.235h-2.677V74.729z
			 M278.702,74.982c0.342,0.037,0.716,0.061,1.104,0.061c0.399,0,0.775-0.011,1.115-0.047v0.953h-2.22V74.982z M291.569,72.164
			h-5.956v1.223h4.485c-0.022,1.257-0.409,3.676-0.436,3.809h1.353c0.012-0.047,0.176-0.942,0.329-2.199
			C291.451,74.184,291.544,73.049,291.569,72.164 M295.606,76.76v-1.244h-1.479v-4.451h-1.362v10.643h1.362V76.76H295.606z
			 M292.341,79.519v-1.21c-0.387,0.084-3.038,0.267-3.956,0.267v-3.169h-1.362v3.205h-1.937v1.233h1.126
			C289.466,79.845,291.873,79.591,292.341,79.519 M308.717,71.064h-1.364v7.693h1.364V71.064z M308.952,81.465v-1.223h-6.39v-2.188
			h-1.42v3.41H308.952z M302.506,71.391c-1.681,0-2.878,1.233-2.878,2.732c0,1.502,1.197,2.723,2.878,2.723
			c1.678,0,2.889-1.221,2.889-2.723C305.395,72.624,304.184,71.391,302.506,71.391 M302.506,72.613c0.962,0,1.489,0.689,1.489,1.51
			c0,0.813-0.527,1.502-1.489,1.502c-0.952,0-1.48-0.689-1.48-1.502C301.025,73.303,301.554,72.613,302.506,72.613 M319.162,79.095
			v-8.03h-1.36v6.011h-2.409v1.16h2.409v0.859H319.162z M317.449,76.3v-1.221c-0.506,0.11-2.927,0.316-4.064,0.316h-3.523v1.244
			h2.409v1.789h1.42v-1.8C314.407,76.629,316.579,76.472,317.449,76.3 M319.396,81.465v-1.223h-6.389v-1.39h-1.432v2.612H319.396z
			 M313.479,71.947c1.021,0,1.432,0.557,1.432,0.919c0,0.34-0.41,0.87-1.42,0.87c-0.986,0-1.42-0.53-1.42-0.87
			C312.07,72.504,312.469,71.947,313.479,71.947 M313.479,70.884c-1.808,0-2.771,0.943-2.771,1.982c0,1.063,0.952,1.983,2.771,1.983
			c1.821,0,2.771-0.906,2.771-1.983C316.25,71.813,315.335,70.884,313.479,70.884"/>
		<path fill="#99AAE6" d="M194.265,19.669c6.147-1.04,8.323-2.931,9.458-3.973v48.042h11.065V0.851h-7.376
			c-1.799,2.553-2.839,4.16-5.297,6.053c-3.973,3.119-6.62,3.781-7.851,4.064V19.669z M221.219,49.079c0,4.54,0,15.51,16.267,15.51
			c2.458,0,7.281-0.095,11.064-3.5c3.876-3.498,4.537-8.321,4.537-11.724V15.508c0-3.878,0-15.508-16.074-15.508
			c-4.919,0-10.215,1.418-13.336,5.861c-2.27,3.216-2.458,6.524-2.458,10.688V49.079z M232.094,14.846c0-2.646,0-6.619,5.202-6.619
			c4.918,0,4.918,3.781,4.918,7.092v34.141c0,2.363,0,6.62-5.201,6.62c-4.919,0-4.919-4.351-4.919-5.863V14.846z"/>
		<path fill="#99AAE6" d="M266.933,56.106v-7.65h-1.015v1.923h-3.129V49.36h-5.733v5.416h5.733v-1.229h3.129v2.559H266.933z
			 M267.084,58.695c0-1.431-1.578-2.462-4.5-2.462c-2.923,0-4.513,1.031-4.513,2.462c0,1.427,1.59,2.445,4.513,2.445
			C265.506,61.141,267.084,60.122,267.084,58.695 M265.918,52.699h-3.129v-1.474h3.129V52.699z M261.774,53.902h-3.703v-3.663h3.703
			V53.902z M266.014,58.695c0,0.988-1.427,1.584-3.43,1.584c-2.043,0-3.444-0.608-3.444-1.584c0-1.021,1.401-1.585,3.444-1.585
			C264.587,57.11,266.014,57.69,266.014,58.695"/>
		<path fill="#737070" d="M326.506,46.486l2.74-0.02c0.584,0.025,1.178-0.048,1.609,0.264l4.524,3.829
			c0.361,0.277,0.55,0.696,0.551,1.119l0.005,8.682c0,1.867-2.839,1.867-2.839,0v-7.99l-0.733-0.569v27.951
			c0,2.488-3.785,2.488-3.785,0V66.238l-0.926,0.007v13.507c0,2.488-3.786,2.488-3.786,0c0-9.006-0.072-17.995-0.072-26.997
			c-0.756,0.725-1.55,1.452-2.368,2.188c-0.269,0.238-0.607,0.358-0.942,0.358l-8.454,0.007c-1.864,0-1.864-2.838,0-2.838h7.918
			c1.963-1.777,3.141-3.638,4.925-5.593c0.465-0.417,0.764-0.383,1.632-0.391H326.506z M328.159,38.631
			c2.015,0,3.648,1.638,3.648,3.65c0,2.014-1.634,3.65-3.648,3.65c-2.014,0-3.649-1.635-3.649-3.65
			C324.51,40.269,326.146,38.631,328.159,38.631"/>
		<rect x="301.024" y="42.324" fill="#737070" width="2.495" height="21.766"/>
		<g>
			<path fill="#737070" d="M315.338,16.494l-11.322-6.551c-1.07-0.619-2.388-0.621-3.459-0.005l-11.334,6.534
				c-1.072,0.616-1.73,1.755-1.73,2.992l-0.012,13.082c-0.003,1.233,0.656,2.376,1.726,2.995l11.324,6.551
				c0.161,0.092,0.326,0.165,0.494,0.231v-4.159l-7.111-4.075c-0.6-0.344-0.806-1.106-0.463-1.706
				c0.343-0.598,1.108-0.802,1.703-0.462l5.871,3.364v-8.499c0-0.688,0.559-1.248,1.249-1.248c0.688,0,1.246,0.561,1.246,1.248
				v2.516l2.545-1.457c0.599-0.341,1.361-0.137,1.705,0.462c0.343,0.598,0.136,1.36-0.465,1.704l-3.783,2.17v10.134
				c0.159-0.06,0.316-0.133,0.468-0.219l11.333-6.531c1.072-0.616,1.731-1.758,1.733-2.993l0.01-13.081
				C317.065,18.253,316.408,17.112,315.338,16.494"/>
			<path fill="#737070" d="M278.063,59.825c-1.143,0-2.228-0.133-3.053-0.376c-0.387-0.113-0.711-0.249-0.969-0.405v2.176
				c0,0.651,1.801,1.18,4.021,1.18s4.021-0.528,4.021-1.18v-2.176c-0.258,0.156-0.58,0.292-0.97,0.405
				C280.291,59.692,279.206,59.825,278.063,59.825"/>
			<path fill="#737070" d="M278.063,56.506c-1.143,0-2.228-0.131-3.053-0.371c-0.387-0.116-0.711-0.252-0.969-0.408v2.179
				c0,0.648,1.801,1.177,4.021,1.177s4.021-0.528,4.021-1.177v-2.179c-0.258,0.156-0.58,0.292-0.97,0.408
				C280.291,56.375,279.206,56.506,278.063,56.506"/>
			<path fill="#737070" d="M278.063,53.191c-1.143,0-2.228-0.134-3.053-0.374c-0.39-0.116-0.712-0.249-0.969-0.408v2.181
				c0,0.648,1.801,1.175,4.021,1.175s4.021-0.526,4.021-1.175v-2.181c-0.258,0.159-0.58,0.292-0.97,0.408
				C280.291,53.058,279.206,53.191,278.063,53.191"/>
			<path fill="#737070" d="M278.063,49.874c-1.143,0-2.228-0.133-3.053-0.374c-0.387-0.113-0.711-0.251-0.969-0.406v2.177
				c0,0.648,1.801,1.178,4.021,1.178s4.021-0.529,4.021-1.178v-2.179l-0.244,0.134C281.01,49.634,279.599,49.874,278.063,49.874"/>
			<path fill="#737070" d="M278.063,43.461c2.221,0,4.021,0.528,4.021,1.178c0,0.648-1.801,1.177-4.021,1.177
				c-2.22,0-4.021-0.528-4.021-1.177C274.042,43.989,275.844,43.461,278.063,43.461"/>
			<path fill="#737070" d="M278.063,46.557c-1.143,0-2.228-0.131-3.053-0.371c-0.387-0.114-0.711-0.252-0.969-0.408v2.178
				c0,0.649,1.801,1.176,4.021,1.176c1.466,0,2.749-0.228,3.452-0.571c0.36-0.177,0.569-0.383,0.569-0.604v-2.178
				c-0.258,0.156-0.58,0.294-0.97,0.408C280.291,46.426,279.206,46.557,278.063,46.557"/>
			<path fill="#737070" d="M286.106,59.823c-1.142,0-2.227-0.133-3.052-0.374l-0.228-0.072v1.843c0,0.222-0.058,0.421-0.172,0.604
				c0.703,0.344,1.986,0.574,3.451,0.574c2.222,0,4.021-0.526,4.021-1.178v-2.176c-0.258,0.154-0.58,0.292-0.97,0.405
				C288.333,59.69,287.248,59.823,286.106,59.823"/>
			<path fill="#737070" d="M286.106,56.506c-1.142,0-2.227-0.131-3.052-0.373l-0.228-0.073v1.848c0,0.217-0.058,0.419-0.172,0.604
				c0.703,0.342,1.986,0.571,3.451,0.571c2.222,0,4.021-0.528,4.021-1.175v-2.181c-0.258,0.156-0.58,0.292-0.97,0.406
				C288.333,56.375,287.248,56.506,286.106,56.506"/>
			<path fill="#737070" d="M286.106,53.191c-1.142,0-2.227-0.134-3.052-0.376l-0.228-0.071v1.844c0,0.219-0.058,0.421-0.172,0.604
				c0.703,0.344,1.986,0.573,3.451,0.573c2.222,0,4.021-0.526,4.021-1.177v-2.179c-0.091,0.056-0.193,0.109-0.306,0.163
				C288.987,52.959,287.599,53.191,286.106,53.191"/>
			<path fill="#737070" d="M286.106,46.778c-1.354,0-2.549,0.195-3.279,0.494v0.683c0,0.175-0.041,0.385-0.176,0.602
				c0.704,0.344,1.987,0.574,3.455,0.574c2.222,0,4.021-0.526,4.021-1.176C290.128,47.305,288.326,46.778,286.106,46.778"/>
			<path fill="#737070" d="M286.106,49.874c-1.142,0-2.227-0.133-3.052-0.376l-0.228-0.071v1.844c0,0.219-0.058,0.421-0.172,0.604
				c0.703,0.344,1.986,0.574,3.451,0.574c1.433,0,2.691-0.22,3.403-0.551c0.39-0.18,0.618-0.397,0.618-0.627v-2.179
				c-0.258,0.157-0.58,0.292-0.97,0.406C288.333,49.741,287.248,49.874,286.106,49.874"/>
			<path fill="#737070" d="M294.149,59.931c-1.145,0-2.229-0.133-3.053-0.376l-0.225-0.07v1.737c0,0.25-0.078,0.479-0.229,0.684
				c0.69,0.356,2.002,0.6,3.507,0.6c2.219,0,4.02-0.528,4.02-1.178v-2.176c-0.256,0.154-0.579,0.292-0.969,0.403
				C296.375,59.798,295.291,59.931,294.149,59.931"/>
			<path fill="#737070" d="M294.149,56.613c-1.145,0-2.226-0.133-3.052-0.376l-0.226-0.07v1.735c0,0.234-0.068,0.447-0.197,0.641
				l0.075,0.097c0.714,0.329,1.97,0.548,3.399,0.548c2.219,0,4.02-0.528,4.02-1.178v-2.178c-0.256,0.158-0.579,0.294-0.969,0.405
				C296.375,56.48,295.291,56.613,294.149,56.613"/>
			<path fill="#737070" d="M294.149,53.299c-1.145,0-2.226-0.136-3.052-0.376l-0.226-0.071v1.736c0,0.231-0.068,0.444-0.197,0.638
				l0.075,0.099c0.714,0.329,1.97,0.546,3.399,0.546c2.219,0,4.02-0.526,4.02-1.175v-2.179c-0.256,0.157-0.579,0.292-0.969,0.406
				C296.375,53.163,295.291,53.299,294.149,53.299"/>
			<path fill="#737070" d="M294.149,52.556c2.219,0,4.02-0.529,4.02-1.178s-1.801-1.175-4.02-1.175
				c-1.354,0-2.551,0.193-3.277,0.494v0.575c0,0.185-0.048,0.408-0.199,0.634l0.08,0.102
				C291.466,52.336,292.72,52.556,294.149,52.556"/>
			<path fill="#737070" d="M202.702,98.07v-0.864h-8.775v0.864h3.869v3.395h1.038V98.07H202.702z M198.304,94.184
				c0.509,1.1,2.213,2.025,3.28,2.159l0.608-0.709c-2.882-0.649-3.35-2.11-3.35-2.757v-0.462h-1.057v0.462
				c0,0.646-0.579,2.222-3.352,2.757l0.61,0.709C196.361,96.024,197.855,95.251,198.304,94.184 M211.47,100.313v-0.863h-3.848
				v-1.964h2.822V96.62h-5.563v-2.508h5.482v-0.876h-6.47v4.249h2.7v1.964h-3.888v0.863H211.47z M218.335,96.239v-0.844
				c-0.338,0.062-1.016,0.124-1.574,0.154c0.13-0.524,0.329-1.459,0.389-2.673h-4.656v0.864h3.55
				c-0.04,0.554-0.18,1.472-0.259,1.873h-3.979v0.863h2.174v1.851h0.997v-1.863C215.893,96.465,217.529,96.362,218.335,96.239
				 M219.651,99.14v-6.725h-0.996v4.802h-2.073v0.864h2.073v1.059H219.651z M219.84,101.258v-0.863h-5.571v-1.697h-1.007v2.561
				H219.84z M224.481,93.534h-3.527v5.935h3.527V93.534z M228.352,101.465v-9.05h-0.967v3.466h-1.028v-3.262h-0.967v8.433h0.967
				v-4.163h1.028v4.576H228.352z M223.497,98.575h-1.556V94.42h1.556V98.575z M237.012,92.415h-0.998v5.008h0.998V92.415z
				 M236.991,101.361v-3.477h-0.987v0.935h-4.286v-0.935h-0.998v3.477H236.991z M236.004,100.52h-4.286v-0.886h4.286V100.52z
				 M235.327,96.991v-0.814c-0.619,0.095-1.904,0.198-2.772,0.218l-1.825,0.011v-0.927h3.46v-2.634h-4.456v0.823h3.458v1.029h-3.458
				v2.53l2.442-0.021C233.302,97.187,234.677,97.084,235.327,96.991 M246.068,92.415h-0.997v9.05h0.997V92.415z M243.996,98.871
				c-1.686-0.965-2.305-2.466-2.305-3.927v-0.68h1.994v-0.894h-5.083v0.894h1.984v0.68c0,1.49-0.578,3.126-2.594,4.299l0.817,0.698
				c0.898-0.606,1.944-1.603,2.322-2.819c0.271,0.939,1.406,2.018,2.175,2.542L243.996,98.871z M254.751,92.938h-4.367v3.611h4.367
				V92.938z M257.683,92.415h-0.997v5.212h0.997V92.415z M255.946,97.176h-3.28v0.771h3.28V97.176z M258.03,100.713
				c-1.403-0.134-2.671-0.791-3.031-1.429h2.673v-0.791h-6.57v0.791h2.703c-0.129,0.269-0.957,1.173-3.031,1.429l0.627,0.763
				c1.207-0.229,2.573-0.752,3.012-1.421c0.809,0.855,2.113,1.348,2.99,1.421L258.03,100.713z M253.764,95.715h-2.381v-1.934h2.381
				V95.715z M266.484,93.627h2.822v-0.861h-6.7v0.861h2.819c-0.129,0.557-0.985,1.841-3.318,2.356l0.668,0.729
				c1.504-0.358,2.641-1.173,3.18-1.982c0.539,0.853,1.964,1.694,3.181,1.982l0.67-0.729
				C267.432,95.406,266.613,94.184,266.484,93.627 M270.343,98.317v-0.854h-8.773v0.854h3.888v3.147h0.997v-3.147H270.343z
				 M274.356,96.815h-2.282v-1.613h2.282V96.815z M275.342,93.967v-1.152h-0.985v1.523h-2.282v-1.523h-0.998v4.864h4.266v-1.037
				h2.016v2.344h0.996v-6.57h-0.996v1.552H275.342z M275.342,94.8h2.014v1.008h-2.014V94.8z M278.542,101.258v-0.863h-5.473v-2.016
				h-0.995v2.879H278.542z M286.727,92.342h-2.722v0.771h2.722V92.342z M288.073,93.564h-5.424v0.804h5.424V93.564z M288.94,92.415
				v7.013h0.998v-2.972h1.225V95.55h-1.225v-3.135H288.94z M288.6,98.39v-0.833c-0.747,0.103-1.993,0.195-2.642,0.195v-0.546
				c1.078-0.122,1.796-0.616,1.796-1.214c0-0.72-0.997-1.255-2.374-1.255c-1.384,0-2.372,0.546-2.372,1.246
				c0,0.617,0.727,1.12,1.834,1.223v0.565h-2.552v0.833h2.891C286.657,98.604,287.962,98.47,288.6,98.39 M290.256,101.258v-0.833
				h-5.453v-1.358h-1.057v2.191H290.256z M286.657,95.983c0,0.34-0.488,0.565-1.286,0.565c-0.779,0-1.267-0.226-1.267-0.565
				c0-0.33,0.487-0.556,1.275-0.556C286.169,95.428,286.657,95.653,286.657,95.983 M299.114,97.823v-5.408h-0.996v1.396h-1.625
				v0.864h1.625v1.039h-1.785v0.864h1.785v1.244H299.114z M299.254,99.746c0-1.079-1.215-1.872-3.39-1.872
				c-2.162,0-3.39,0.793-3.39,1.872c0,1.091,1.228,1.862,3.39,1.862C298.039,101.608,299.254,100.837,299.254,99.746
				 M298.206,99.757c0,0.627-1.006,1.037-2.332,1.037c-1.347,0-2.332-0.41-2.332-1.037c0-0.639,0.985-1.04,2.332-1.04
				C297.2,98.717,298.206,99.118,298.206,99.757 M296.233,93.021h-4.307v0.863h3.099c-0.099,1.255-1.914,2.922-3.617,3.229
				l0.528,0.679C294.848,97.043,296.154,94.977,296.233,93.021 M307.099,93.564h-3.498v0.875h2.401
				c-0.06,0.833-0.379,3.313-2.932,4.825l0.739,0.584C306.301,98.266,307.099,95.634,307.099,93.564 M311.016,101.465v-9.05h-0.966
				v3.444h-1.027v-3.24h-0.967v8.433h0.967v-4.236h1.027v4.649H311.016z M319.766,98.964v-6.549h-0.986v1.973h-1.864v0.906h1.864
				v3.67H319.766z M319.996,101.258v-0.863h-5.475v-1.953h-0.995v2.816H319.996z M317.674,96.97
				c-2.146-0.945-2.435-2.756-2.435-3.568V92.66h-1.047v0.741c0,0.813-0.089,2.653-2.501,3.837l0.698,0.668
				c1.077-0.564,1.993-1.482,2.322-2.468c0.349,0.842,1.455,1.871,2.322,2.262L317.674,96.97z M331.229,96.991v-0.876h-5.515v-0.821
				h5.415v-0.865h-5.415v-0.843h5.455v-0.874h-6.471v4.279H331.229z M332.297,98.646v-0.863h-8.773v0.863h3.848v2.819h0.997v-2.819
				H332.297z M338.234,98.871c-2.023-1.171-2.303-3.074-2.303-3.927v-0.68h1.993v-0.894h-5.084v0.894h1.983v0.68
				c0,0.874-0.271,2.911-2.591,4.299l0.815,0.698c0.898-0.576,2.005-1.788,2.324-2.819c0.27,0.918,1.425,2.018,2.174,2.542
				L338.234,98.871z M339.042,92.415v9.05h0.998v-4.547h1.306v-0.935h-1.306v-3.568H339.042z M348.967,92.415h-0.996v9.05h0.996
				V92.415z M346.186,99.571v-6.344h-0.998v2.148h-2.422v-2.148h-0.997v6.344H346.186z M345.188,98.697h-2.422V96.27h2.422V98.697z
				 M358.635,97.576v-0.864h-2.322V95.55c0.887-0.308,1.346-0.82,1.346-1.438c0-0.999-1.178-1.749-3.412-1.749
				c-2.223,0-3.398,0.739-3.398,1.738c0,0.617,0.459,1.141,1.355,1.448v1.162h-2.342v0.864H358.635z M356.6,94.112
				c0,0.533-0.957,0.945-2.354,0.945c-1.424,0-2.332-0.442-2.332-0.978c0-0.546,0.887-0.978,2.332-0.978
				C355.663,93.103,356.6,93.564,356.6,94.112 M355.303,96.712h-2.094v-0.956c0.313,0.052,0.66,0.073,1.037,0.073
				c0.391,0,0.748-0.021,1.057-0.073V96.712z M357.737,99.911c0-1.008-1.246-1.706-3.49-1.706c-2.232,0-3.498,0.698-3.498,1.706
				c0,0.999,1.266,1.719,3.498,1.719C356.491,101.63,357.737,100.91,357.737,99.911 M354.247,98.985c1.396,0,2.354,0.36,2.354,0.926
				c0,0.555-0.957,0.904-2.354,0.904c-1.414,0-2.363-0.358-2.363-0.913C351.883,99.324,352.833,98.985,354.247,98.985
				 M366.25,92.342h-2.732v0.761h2.732V92.342z M367.586,93.556h-5.424v0.771h5.424V93.556z M370.676,96.198v-0.904h-1.225v-2.879
				h-0.998v6.293h0.998v-2.51H370.676z M368.114,98.225v-0.834c-0.748,0.082-1.992,0.207-2.633,0.207v-0.565
				c1.076-0.104,1.785-0.535,1.785-1.143c0-0.741-0.967-1.244-2.363-1.244c-1.385,0-2.373,0.514-2.373,1.235
				c0,0.625,0.748,1.059,1.846,1.162v0.573h-2.572v0.836c0.139,0,2.711,0.018,3.928-0.032
				C366.698,98.379,367.506,98.307,368.114,98.225 M369.452,101.465v-2.377h-6.441v0.802h5.422v1.575H369.452z M364.903,95.367
				c0.787,0,1.326,0.183,1.326,0.514c0,0.317-0.539,0.473-1.326,0.473s-1.324-0.145-1.324-0.473
				C363.579,95.53,364.116,95.367,364.903,95.367 M375.018,99.306V98.42c-0.318,0.05-0.998,0.114-1.615,0.125l-1.135,0.009v-4.145
				h2.143v-0.886h-3.131v5.945l1.756-0.02C374.131,99.428,374.719,99.354,375.018,99.306 M378.598,101.465v-9.05h-0.967v3.414
				h-1.127v-3.21h-0.967v8.433h0.967v-4.288h1.127v4.701H378.598z M388.067,96.62h-8.773v0.781h8.773V96.62z M380.428,95.973h6.6
				v-0.749h-5.531v-0.589h5.342v-2.016h-6.41v0.752h5.324v0.576h-5.324V95.973z M387.028,101.361v-0.75h-5.531v-0.586h5.332v-2.018
				h-6.4v0.752h5.334v0.575h-5.334v2.026H387.028z"/>
			<path fill="#737070" d="M198.313,112.931c-2.262,0-3.528,0.659-3.528,1.586c0,0.926,1.295,1.613,3.528,1.613
				c2.244,0,3.53-0.657,3.53-1.584C201.844,113.62,200.558,112.931,198.313,112.931 M200.717,114.524
				c0,0.505-0.997,0.814-2.403,0.814c-1.425,0-2.402-0.342-2.402-0.836c0-0.513,0.987-0.76,2.413-0.76
				C199.72,113.743,200.717,114.012,200.717,114.524 M202.7,112.471v-0.833h-3.839v-0.782h2.803v-0.834h-5.593v-0.627h5.493v-0.804
				h-5.493v-0.636h5.513v-0.825h-6.52v3.726h2.69v0.782h-3.828v0.833H202.7z M206.365,107.646h-2.454v0.813h2.454V107.646z
				 M207.442,109.261h-4.587v0.823h4.587V109.261z M210.962,115.985v-9.049h-0.967v3.661h-0.977v-3.457h-0.967v8.435h0.967v-3.989
				h0.977v4.399H210.962z M207.192,112.602c0-1.13-0.877-1.893-2.032-1.893c-1.106,0-2.035,0.754-2.035,1.893
				c0,1.182,0.929,1.915,2.035,1.915C206.325,114.517,207.192,113.775,207.192,112.602 M204.082,112.623c0-0.668,0.43-1.1,1.078-1.1
				c0.657,0,1.065,0.432,1.065,1.089c0,0.669-0.418,1.081-1.065,1.081C204.521,113.693,204.082,113.281,204.082,112.623
				 M222.565,106.937h-0.997v6.551h0.997V106.937z M222.774,115.779v-0.861h-5.463v-2.028h-1.028v2.89H222.774z M219.633,107.542
				h-4.367v4.37h4.367V107.542z M218.646,111.051h-2.382v-2.645h2.382V111.051z M231.524,113.887v-6.95h-0.997v5.142h-2.065v0.824
				h2.065v0.984H231.524z M230.207,111.266v-0.853c-0.438,0.092-2.532,0.287-3.739,0.287h-2.781v0.845h2.164v1.562h0.997v-1.572
				C227.874,111.534,229.48,111.391,230.207,111.266 M231.742,115.779v-0.861h-5.612v-1.422h-0.998v2.283H231.742z M226.738,107.624
				c0.986,0,1.385,0.516,1.385,0.866c0,0.328-0.398,0.82-1.375,0.82c-0.957,0-1.375-0.492-1.375-0.82
				C225.373,108.14,225.76,107.624,226.738,107.624 M226.738,106.847c-1.517,0-2.333,0.769-2.333,1.644
				c0,0.894,0.807,1.646,2.333,1.646c1.524,0,2.334-0.741,2.334-1.646C229.072,107.606,228.293,106.847,226.738,106.847
				 M244.223,110.145v-0.864h-1.246v-2.344h-0.997v5.081h0.997v-1.873H244.223z M240.395,107.542h-4.456v0.864h3.26
				c-0.09,0.854-0.849,2.571-3.759,3.231l0.568,0.677C239.198,111.676,240.385,109.188,240.395,107.542 M242.977,112.531h-6.092
				v3.354h6.092V112.531z M241.97,115.019h-4.088v-1.626h4.088V115.019z M248.396,109.652c0.438,0.997,1.886,2.322,3.229,2.724
				l0.699-0.749c-2.892-1.01-3.399-2.83-3.399-3.683v-0.72h-1.058v0.72c0,0.853-0.398,2.634-3.399,3.683l0.698,0.749
				C246.472,111.975,248.007,110.763,248.396,109.652 M252.783,114.866v-0.865h-3.907v-1.953h-0.979v1.953h-3.888v0.865H252.783z
				 M253.327,114.372v1.203h0.768c0,0.226-0.627,0.657-0.768,0.668l0.31,0.37c0.12-0.03,0.518-0.206,0.738-0.524
				c0.189-0.267,0.298-0.492,0.298-0.853v-0.864H253.327z M266.551,112.522v-5.586h-0.997v2.582h-1.753v0.834h1.753v2.17H266.551z
				 M263.232,112.645c-2.175,0-3.319,0.72-3.319,1.736c0,1.019,1.154,1.749,3.338,1.749s3.312-0.73,3.312-1.749
				C266.563,113.364,265.424,112.645,263.232,112.645 M265.404,114.392c0,0.565-0.827,0.937-2.162,0.937
				c-1.366,0-2.175-0.371-2.175-0.947c0-0.573,0.809-0.945,2.175-0.945C264.577,113.436,265.404,113.808,265.404,114.392
				 M262.893,106.937h-2.772v0.831h2.772V106.937z M264.357,111.326c-1.636-0.379-2.333-1.674-2.333-2.035h1.864v-0.831h-4.796
				v0.831h1.855c0,0.361-0.32,1.584-2.463,2.304l0.648,0.773c0.828-0.207,2.063-1.092,2.373-1.771
				c0.398,0.648,1.614,1.42,2.343,1.545L264.357,111.326z M275.361,112.419v-5.482h-0.997v2.088h-1.766v0.895h1.766v2.5H275.361z
				 M275.46,114.361c0-1.04-1.146-1.787-3.329-1.787c-2.174,0-3.33,0.747-3.33,1.787c0,1.027,1.156,1.769,3.33,1.769
				C274.313,116.13,275.46,115.389,275.46,114.361 M274.373,114.372c0,0.576-0.898,0.976-2.233,0.976
				c-1.354,0-2.263-0.421-2.263-0.997c0-0.595,0.908-0.978,2.263-0.978C273.475,113.373,274.373,113.775,274.373,114.372
				 M273.187,111.237c-1.973-0.691-2.332-1.957-2.332-2.655v-0.228h1.854v-0.863h-4.785v0.863h1.853v0.228
				c0,0.698-0.299,2.067-2.462,2.963l0.698,0.72c0.738-0.29,1.983-1.173,2.293-1.975c0.628,0.845,1.605,1.541,2.304,1.728
				L273.187,111.237z M280.112,108.058h-3.53v5.935h3.53V108.058z M283.981,115.985v-9.049h-0.968v3.466h-1.026v-3.262h-0.969v8.435
				h0.969v-4.163h1.026v4.573H283.981z M279.126,113.096h-1.556v-4.152h1.556V113.096z M292.639,106.937h-0.996v5.008h0.996V106.937
				z M292.62,115.883v-3.475h-0.988v0.935h-4.287v-0.935h-0.995v3.475H292.62z M291.632,115.04h-4.287v-0.885h4.287V115.04z
				 M290.955,111.513V110.7c-0.618,0.093-1.903,0.196-2.772,0.215l-1.823,0.011v-0.924h3.457v-2.634h-4.455v0.823h3.46v1.029h-3.46
				v2.528l2.442-0.021C288.931,111.708,290.307,111.605,290.955,111.513 M301.699,106.937h-0.996v9.049h0.996V106.937z
				 M299.624,113.393c-1.684-0.965-2.304-2.467-2.304-3.925v-0.68h1.995v-0.896h-5.085v0.896h1.984v0.68
				c0,1.49-0.578,3.126-2.593,4.297l0.818,0.7c0.897-0.606,1.944-1.605,2.322-2.816c0.27,0.935,1.406,2.013,2.174,2.537
				L299.624,113.393z M314.099,112.121v-0.866h-1.544c0.268-0.965,0.598-3.444,0.598-3.815h-6.87v0.863h5.733
				c-0.062,0.937-0.329,2.357-0.508,2.952h-6.183v0.866h3.669v3.864h1.017v-3.864H314.099z M322.16,113.599v-6.662h-0.987v2.026
				h-1.335v0.863h1.335v1.008h-1.534v0.874h1.534v1.891H322.16z M322.341,115.779v-0.853h-5.554v-1.646h-1.016v2.498H322.341z
				 M318.393,106.896h-2.722v0.813h2.722V106.896z M319.708,108.354h-5.354v0.825h5.354V108.354z M317.025,112.776
				c1.515,0,2.304-0.729,2.304-1.563c0-0.874-0.777-1.54-2.294-1.54c-1.444,0-2.302,0.666-2.302,1.54
				C314.733,112.039,315.58,112.776,317.025,112.776 M318.253,111.203c0,0.464-0.34,0.782-1.208,0.782
				c-0.878,0-1.215-0.329-1.215-0.782c0-0.462,0.35-0.801,1.215-0.801C317.913,110.402,318.253,110.741,318.253,111.203
				 M323.422,114.372v1.203h0.769c0,0.226-0.628,0.657-0.769,0.668l0.311,0.37c0.119-0.03,0.518-0.206,0.736-0.524
				c0.19-0.267,0.3-0.492,0.3-0.853v-0.864H323.422z M333.596,109.549c0-1.276-1.018-2.315-2.434-2.315
				c-1.414,0-2.422,1.039-2.422,2.315c0,1.274,1.008,2.304,2.422,2.304C332.578,111.853,333.596,110.823,333.596,109.549
				 M335.121,106.937v6.551h0.998v-3.352h1.245v-0.915h-1.245v-2.284H335.121z M336.397,115.779v-0.861h-5.404v-2.007h-0.997v2.868
				H336.397z M332.568,109.549c0,0.77-0.498,1.409-1.406,1.409c-0.887,0-1.396-0.64-1.396-1.409c0-0.782,0.509-1.42,1.396-1.42
				C332.07,108.129,332.568,108.767,332.568,109.549 M345.456,112.419v-5.482h-0.996v2.088h-1.766v0.895h1.766v2.5H345.456z
				 M345.555,114.361c0-1.04-1.146-1.787-3.33-1.787c-2.172,0-3.33,0.747-3.33,1.787c0,1.027,1.157,1.769,3.33,1.769
				C344.409,116.13,345.555,115.389,345.555,114.361 M344.467,114.372c0,0.576-0.895,0.976-2.232,0.976
				c-1.354,0-2.261-0.421-2.261-0.997c0-0.595,0.907-0.978,2.261-0.978C343.573,113.373,344.467,113.775,344.467,114.372
				 M343.282,111.237c-1.973-0.691-2.333-1.957-2.333-2.655v-0.228h1.856v-0.863h-4.786v0.863h1.852v0.228
				c0,0.698-0.298,2.067-2.462,2.963l0.699,0.72c0.738-0.29,1.984-1.173,2.292-1.975c0.629,0.845,1.605,1.541,2.303,1.728
				L343.282,111.237z M354.235,112.347v-5.41h-0.996v2.088h-1.766v0.905h1.766v2.417H354.235z M354.215,115.985v-3.115h-6.471v0.864
				h5.484v2.251H354.215z M352.042,111.237c-1.975-0.691-2.334-1.957-2.334-2.655v-0.228h1.855v-0.863h-4.785v0.863h1.854v0.228
				c0,0.698-0.299,2.067-2.463,2.963l0.697,0.72c0.74-0.29,1.986-1.173,2.293-1.975c0.629,0.845,1.607,1.541,2.305,1.728
				L352.042,111.237z M365.598,108.767c0-1.08-1.125-1.882-3.35-1.882c-2.195,0-3.34,0.802-3.34,1.893
				c0,1.101,1.145,1.891,3.34,1.891C364.473,110.668,365.598,109.867,365.598,108.767 M366.635,112.357v-0.866h-8.773v0.866h3.969
				v1.809h1.018v-1.809H366.635z M365.768,115.779v-0.861h-5.773v-1.708h-0.996v2.569H365.768z M359.977,108.756
				c0-0.627,0.855-1.069,2.271-1.069c1.406,0,2.283,0.475,2.283,1.091c0,0.606-0.898,1.079-2.283,1.079
				C360.852,109.856,359.977,109.362,359.977,108.756 M373.721,114.34c0,0.608-0.879,0.947-2.244,0.947
				c-1.375,0-2.254-0.393-2.254-0.999c0-0.616,0.879-0.967,2.254-0.967C372.842,113.321,373.721,113.724,373.721,114.34
				 M374.786,114.34c0-1.059-1.115-1.869-3.309-1.869c-2.184,0-3.311,0.77-3.311,1.828c0,1.06,1.127,1.81,3.311,1.81
				C373.67,116.108,374.786,115.399,374.786,114.34 M370.918,109.446c0,0.741-0.498,1.347-1.395,1.347
				c-0.898,0-1.406-0.605-1.406-1.347c0-0.729,0.508-1.337,1.406-1.337C370.42,108.109,370.918,108.718,370.918,109.446
				 M371.397,108.025c-0.418-0.483-1.086-0.792-1.873-0.792c-1.416,0-2.434,0.988-2.434,2.213c0,1.222,1.018,2.221,2.434,2.221
				c0.814,0,1.494-0.328,1.924-0.854h2.262v1.545h0.996v-5.421h-0.996v1.089H371.397z M371.885,109.94
				c0.039-0.166,0.061-0.331,0.061-0.494c0-0.196-0.031-0.381-0.07-0.555h1.834v1.049H371.885z M387.276,114.834v-0.863h-3.846
				v-1.964h2.818v-0.863h-5.561v-2.512h5.482v-0.872H379.7v4.247h2.703v1.964h-3.889v0.863H387.276z M396.055,114.834v-0.863h-3.867
				v-2.005h2.672v-4.217h-6.35v4.217h2.652v2.005h-3.869v0.863H396.055z M393.852,111.101h-4.346v-2.478h4.346V111.101z"/>
		</g>
	</g>
	<g>
		<rect x="591.737" y="62.172" fill="#99AAE6" width="17.863" height="75.931"/>
		<g>
			<path fill="#737070" d="M590.148,142.528c-1.348,0-1.945,0.973-1.961,1.993h0.724c0.034-0.632,0.308-1.282,1.221-1.282
				c0.758,0,1.133,0.455,1.133,1.203c0,0.554-0.34,0.976-0.801,1.319l-1.016,0.745c-1.16,0.845-1.432,1.688-1.441,2.533h4.094
				v-0.688h-3.164c0.146-0.526,0.615-0.984,0.938-1.221l1.008-0.711c0.528-0.378,1.245-0.978,1.245-1.987
				C592.126,143.404,591.487,142.528,590.148,142.528 M594.889,142.625c-1.459,0-2.218,1.325-2.218,3.268
				c0,1.95,0.759,3.296,2.218,3.296c1.457,0,2.243-1.346,2.243-3.296C597.132,143.95,596.346,142.625,594.889,142.625
				 M594.889,148.46c-0.88,0-1.348-1.117-1.348-2.567c0-1.459,0.468-2.548,1.348-2.548c0.904,0,1.347,1.089,1.347,2.548
				C596.236,147.343,595.793,148.46,594.889,148.46 M599.877,149.092l0.009-6.379h-0.58c-0.024,0.342-0.222,0.675-0.444,0.842
				c-0.306,0.22-0.654,0.327-1.05,0.335v0.632h1.315v4.57H599.877z M603.161,142.545c-1.178,0-2.047,0.941-2.047,2.136
				c0,1.16,0.769,2.145,1.919,2.215c0.647,0.034,1.15-0.317,1.545-0.713c0,0.369,0.007,0.872-0.179,1.373
				c-0.189,0.5-0.479,0.99-1.203,0.99c-0.743,0-1.219-0.614-1.272-1.072h-0.768c0.094,0.898,0.93,1.785,2.005,1.785
				c1.015,0,1.664-0.589,2.013-1.59c0.333-0.926,0.341-2.646,0.05-3.491C604.91,143.248,604.261,142.545,603.161,142.545
				 M603.196,146.148c-0.743,0-1.255-0.606-1.255-1.468c0-0.853,0.512-1.441,1.255-1.441c0.741,0,1.244,0.597,1.244,1.441
				C604.44,145.531,603.937,146.148,603.196,146.148 M612.627,147.66v-5.599h-0.853v0.834h-2.158v0.702h2.158v0.696h-2.158v0.711
				h2.158v2.655H612.627z M612.797,149.618v-0.737h-4.691v-1.601h-0.853v2.338H612.797z M610.982,146.245v-0.723
				c-0.58,0.125-1.673,0.256-2.688,0.273l-1.015,0.017v-3.427h-0.853v4.166l1.86-0.017
				C609.421,146.516,610.487,146.358,610.982,146.245"/>
			<path fill="#737070" d="M562.441,48.223c0-0.207,0-0.911,0.967-0.911c0.929,0,0.929,0.632,0.929,1.076v0.931
				c0,1.318-0.521,1.504-1.969,1.504v1.447c1.485,0,2.041,0.075,2.041,1.543v1.837c0,0.707-0.333,1.003-0.927,1.003
				c-1.06,0-1.06-0.704-1.06-1.076v-1.319h-2.138v1.504c0,1.412,1.098,2.546,3.16,2.546c1.467,0,3.12-0.631,3.12-2.822v-1.876
				c0-1.674-0.409-1.895-1.857-2.138c1.338-0.204,1.781-0.632,1.781-1.912V48.11c0-0.391-0.11-2.49-3.007-2.49
				c-0.613,0-1.523,0.112-2.138,0.522c-0.612,0.389-0.947,1.094-0.947,1.819v1.523h2.044V48.223z M568.642,52.418h1.69
				c0.13-0.761,0.483-1.263,1.207-1.263c0.984,0,0.964,0.854,0.964,1.394v2.952c0,1.042-0.611,1.115-1,1.115
				c-0.968,0-0.968-0.799-0.968-1.06v-1.261h-2.117v1.28c0,0.464,0.094,1.487,0.911,2.118c0.706,0.537,1.765,0.612,2.264,0.612
				c2.938,0,3.104-1.987,3.104-3.046v-3.063c0-0.671-0.037-1.45-0.742-2.063c-0.317-0.299-0.837-0.596-1.673-0.596
				c-0.892,0-1.392,0.354-1.819,0.651l0.037-2.546h4.011v-1.856h-5.737L568.642,52.418z M577.908,48.463
				c0-0.52,0.074-1.19,1.041-1.19c0.853,0,0.91,0.707,0.91,1.079v1.411c0,0.931-0.112,1.04-1.97,2.879
				c-1.207,1.188-2.267,2.247-2.267,5.498h6.52v-1.856h-4.124c0.074-0.967,0.26-1.153,2.192-3.103
				c1.468-1.467,1.783-1.932,1.783-3.25v-1.264c0-0.52-0.129-1.207-0.147-1.282c-0.336-1.3-1.617-1.765-2.954-1.765
				c-0.447,0-1.449,0.039-2.191,0.651c-0.8,0.688-0.818,1.615-0.818,2.155v1.522h2.025V48.463z"/>
			<path fill="#737070" d="M591.762,51.183c0,0.904-0.608,1.646-1.704,1.646c-1.095,0-1.716-0.741-1.716-1.646
				c0-0.892,0.621-1.631,1.716-1.631C591.154,49.552,591.762,50.291,591.762,51.183 M592.929,50.506
				c-0.315-1.166-1.41-2.021-2.871-2.021c-1.728,0-2.968,1.205-2.968,2.698c0,1.495,1.24,2.714,2.968,2.714
				c1.558,0,2.703-0.993,2.921-2.273h2.215v2.95h1.216v-6.454h-1.216v2.387H592.929z M596.398,59.169v-3.942h-7.909v1.055h6.705
				v2.888H596.398z M611.241,56.607v-8.488h-1.218v6.277h-2.52v1.006h2.52v1.205H611.241z M609.633,53.406v-1.042
				c-0.536,0.114-3.09,0.353-4.562,0.353h-3.396v1.029h2.64v1.907h1.218v-1.92C606.787,53.733,608.747,53.557,609.633,53.406
				 M611.507,58.919v-1.055h-6.85v-1.733h-1.219v2.788H611.507z M605.398,48.961c1.205,0,1.692,0.628,1.692,1.056
				c0,0.401-0.487,1.005-1.681,1.005c-1.168,0-1.678-0.604-1.678-1.005C603.732,49.589,604.207,48.961,605.398,48.961
				 M605.398,48.008c-1.848,0-2.847,0.94-2.847,2.009c0,1.093,0.987,2.009,2.847,2.009c1.862,0,2.848-0.905,2.848-2.009
				C608.246,48.938,607.297,48.008,605.398,48.008"/>
			<path fill="#737070" d="M625.269,98.896c-5.743,0-10.4,4.66-10.4,10.4v5.906c0,1.029,0.865,1.896,1.895,1.896
				c1.03,0,1.897-0.867,1.897-1.896v-5.906c0-1.407,0.487-2.761,1.246-3.846v30.77c0,1.3,1.027,2.385,2.384,2.385
				c1.354,0,2.382-1.031,2.382-2.385v-17.768h1.354v17.768c0,1.3,1.028,2.385,2.385,2.385c1.353,0,2.382-1.031,2.382-2.385v-30.77
				c0.76,1.085,1.246,2.385,1.246,3.846v5.906c0,1.029,0.867,1.896,1.896,1.896c1.028,0,1.896-0.867,1.896-1.896v-5.906
				C635.724,103.556,631.011,98.896,625.269,98.896"/>
			<path fill="#737070" d="M625.269,87.142c2.872,0,5.2,2.326,5.2,5.199c0,2.874-2.328,5.201-5.2,5.201
				c-2.873,0-5.2-2.327-5.2-5.201C620.069,89.468,622.396,87.142,625.269,87.142"/>
			<path fill="#737070" d="M619.029,74.631c1.173-0.197,1.589-0.561,1.806-0.759v9.174h2.112V71.039h-1.408
				c-0.343,0.487-0.542,0.795-1.01,1.153c-0.76,0.598-1.265,0.722-1.5,0.777V74.631z M624.537,80.247c0,0.865,0,2.96,3.105,2.96
				c0.468,0,1.389-0.017,2.111-0.668c0.74-0.668,0.867-1.588,0.867-2.236v-6.467c0-0.739,0-2.961-3.07-2.961
				c-0.939,0-1.948,0.271-2.547,1.12c-0.432,0.614-0.467,1.246-0.467,2.041V80.247z M626.611,73.711c0-0.507,0-1.265,0.994-1.265
				c0.939,0,0.939,0.722,0.939,1.355v6.519c0,0.451,0,1.263-0.994,1.263c-0.939,0-0.939-0.829-0.939-1.119V73.711z"/>
			<path fill="#737070" d="M640.878,78.324V71.82h-1.183v1.695h-2.415V72.54h-5.064v4.918h5.064v-0.976h2.415v1.842H640.878z
				 M639.696,75.494h-2.415v-1.001h2.415V75.494z M636.098,76.423h-2.697v-2.855h2.697V76.423z M640.951,80.582
				c0-1.257-1.361-2.17-3.965-2.17c-2.593,0-3.966,0.913-3.966,2.17c0,1.259,1.373,2.148,3.966,2.148
				C639.589,82.73,640.951,81.841,640.951,80.582 M639.684,80.582c0,0.72-1.076,1.171-2.698,1.171c-1.635,0-2.711-0.462-2.711-1.182
				c0-0.732,1.076-1.147,2.711-1.147C638.608,79.424,639.684,79.852,639.684,80.582"/>
		</g>
		<rect x="498.299" y="105.173" fill="#99AAE6" width="17.862" height="32.93"/>
		<g>
			<path fill="#737070" d="M496.503,142.528c-1.347,0-1.945,0.973-1.962,1.993h0.726c0.033-0.632,0.307-1.282,1.219-1.282
				c0.759,0,1.134,0.455,1.134,1.203c0,0.554-0.34,0.976-0.801,1.319l-1.016,0.745c-1.16,0.845-1.433,1.688-1.441,2.533h4.095
				v-0.688h-3.165c0.146-0.526,0.614-0.984,0.937-1.221l1.008-0.711c0.528-0.378,1.245-0.978,1.245-1.987
				C498.481,143.404,497.843,142.528,496.503,142.528 M501.244,142.625c-1.459,0-2.217,1.325-2.217,3.268
				c0,1.95,0.758,3.296,2.217,3.296s2.243-1.346,2.243-3.296C503.487,143.95,502.703,142.625,501.244,142.625 M501.244,148.46
				c-0.88,0-1.347-1.117-1.347-2.567c0-1.459,0.467-2.548,1.347-2.548c0.904,0,1.349,1.089,1.349,2.548
				C502.592,147.343,502.148,148.46,501.244,148.46 M506.402,142.625c-1.457,0-2.216,1.325-2.216,3.268
				c0,1.95,0.759,3.296,2.216,3.296c1.461,0,2.244-1.346,2.244-3.296C508.646,143.95,507.863,142.625,506.402,142.625
				 M506.402,148.46c-0.877,0-1.347-1.117-1.347-2.567c0-1.459,0.47-2.548,1.347-2.548c0.906,0,1.35,1.089,1.35,2.548
				C507.751,147.343,507.308,148.46,506.402,148.46 M511.392,149.092l0.009-6.379h-0.58c-0.025,0.342-0.224,0.675-0.444,0.842
				c-0.307,0.22-0.657,0.327-1.048,0.335v0.632h1.313v4.57H511.392z M519.393,147.66v-5.599h-0.854v0.834h-2.159v0.702h2.159v0.696
				h-2.159v0.711h2.159v2.655H519.393z M519.564,149.618v-0.737h-4.693v-1.601h-0.854v2.338H519.564z M517.746,146.245v-0.723
				c-0.58,0.125-1.672,0.256-2.688,0.273l-1.014,0.017v-3.427h-0.854v4.166l1.858-0.017
				C516.184,146.516,517.25,146.358,517.746,146.245"/>
			<path fill="#737070" d="M519.576,112.901c0.844-0.143,1.144-0.402,1.3-0.546v6.604h1.521v-8.644h-1.014
				c-0.247,0.351-0.39,0.571-0.727,0.831c-0.549,0.428-0.909,0.521-1.08,0.559V112.901z"/>
			<path fill="#737070" d="M531.104,115.559v-4.684h-0.852v1.221h-1.741v-0.703h-3.649v3.541h3.649v-0.703h1.741v1.328H531.104z
				 M530.252,113.52h-1.741v-0.72h1.741V113.52z M527.658,114.188h-1.943v-2.058h1.943V114.188z M531.156,117.185
				c0-0.904-0.981-1.563-2.857-1.563c-1.868,0-2.856,0.659-2.856,1.563c0,0.907,0.988,1.547,2.856,1.547
				C530.174,118.731,531.156,118.092,531.156,117.185 M530.244,117.185c0,0.519-0.778,0.843-1.945,0.843
				c-1.177,0-1.954-0.333-1.954-0.854c0-0.523,0.777-0.824,1.954-0.824C529.465,116.35,530.244,116.656,530.244,117.185"/>
			<path fill="#737070" d="M522.021,124.563c-1.931,0-3.498,1.568-3.498,3.498v1.985c0,0.348,0.292,0.638,0.637,0.638
				c0.347,0,0.638-0.29,0.638-0.638v-1.985c0-0.473,0.164-0.929,0.418-1.294v10.352c0,0.437,0.349,0.802,0.804,0.802
				c0.454,0,0.802-0.349,0.802-0.802v-5.977h0.456v5.977c0,0.437,0.345,0.802,0.802,0.802c0.455,0,0.8-0.349,0.8-0.802v-10.352
				c0.256,0.365,0.419,0.804,0.419,1.294v1.985c0,0.348,0.294,0.638,0.639,0.638c0.346,0,0.638-0.29,0.638-0.638v-1.985
				C525.538,126.131,523.953,124.563,522.021,124.563"/>
			<path fill="#737070" d="M522.021,120.609c0.965,0,1.749,0.782,1.749,1.749c0,0.965-0.784,1.749-1.749,1.749
				c-0.967,0-1.751-0.784-1.751-1.749C520.27,121.392,521.054,120.609,522.021,120.609"/>
			<path fill="#737070" d="M489.735,95.118c0-0.494,0-1.896-2.092-1.896c-1.275,0-2.081,0.52-2.081,1.845v0.909
				c0,0.924,0.429,1.171,0.897,1.39c-0.65,0.327-1.028,0.522-1.028,1.652v1.104c0,1.339,0.898,1.977,2.262,1.977
				c0.26,0,1.145,0,1.756-0.729c0.312-0.35,0.377-0.729,0.377-1.379v-1.169c0-1.001-0.442-1.207-1.001-1.457
				c0.768-0.376,0.91-0.636,0.91-1.493V95.118z M486.939,98.783c0-0.298,0-0.856,0.716-0.856c0.65,0,0.702,0.494,0.702,0.856v1.339
				c0,0.466-0.195,0.78-0.714,0.78c-0.184,0-0.704,0-0.704-0.78V98.783z M486.991,95.054c0-0.546,0.404-0.65,0.664-0.65
				c0.65,0,0.65,0.532,0.65,0.715v0.896c0,0.389,0,0.833-0.638,0.833c-0.455,0-0.677-0.185-0.677-0.743V95.054z M492.102,95.209
				c0-0.365,0.053-0.832,0.729-0.832c0.598,0,0.637,0.494,0.637,0.754v0.988c0,0.649-0.077,0.729-1.379,2.016
				c-0.844,0.831-1.583,1.572-1.583,3.846h4.561v-1.3h-2.885c0.051-0.675,0.181-0.806,1.533-2.17
				c1.028-1.027,1.247-1.352,1.247-2.275v-0.885c0-0.363-0.09-0.843-0.104-0.896c-0.233-0.908-1.13-1.232-2.068-1.232
				c-0.31,0-1.011,0.025-1.531,0.453c-0.56,0.481-0.573,1.132-0.573,1.508v1.065h1.417V95.209z"/>
			<path fill="#737070" d="M501.811,97.112c0,0.634-0.426,1.151-1.193,1.151c-0.769,0-1.203-0.518-1.203-1.151
				c0-0.625,0.435-1.141,1.203-1.141C501.385,95.972,501.811,96.487,501.811,97.112 M502.63,96.638
				c-0.223-0.816-0.99-1.416-2.013-1.416c-1.213,0-2.082,0.847-2.082,1.891c0,1.046,0.869,1.899,2.082,1.899
				c1.09,0,1.893-0.696,2.046-1.593h1.553v2.065h0.854v-4.517h-0.854v1.67H502.63z M505.061,102.7v-2.759h-5.545v0.739h4.7v2.02
				H505.061z M515.457,100.91v-5.942h-0.854v4.394h-1.767v0.703h1.767v0.846H515.457z M514.329,98.668v-0.729
				c-0.373,0.077-2.164,0.245-3.196,0.245h-2.381v0.722h1.851v1.334h0.854v-1.345C512.334,98.896,513.708,98.772,514.329,98.668
				 M515.643,102.526v-0.739h-4.802v-1.212h-0.854v1.951H515.643z M511.361,95.555c0.846,0,1.186,0.442,1.186,0.741
				c0,0.281-0.34,0.702-1.176,0.702c-0.82,0-1.178-0.421-1.178-0.702C510.193,95.997,510.525,95.555,511.361,95.555 M511.361,94.889
				c-1.297,0-1.996,0.659-1.996,1.407c0,0.763,0.692,1.405,1.996,1.405s1.997-0.634,1.997-1.405
				C513.358,95.539,512.693,94.889,511.361,94.889"/>
			<path fill="#737070" d="M576.798,115.406l-12.673-7.777c-0.848-0.51-1.935,0.101-1.935,1.085v3.908h-5.098
				c-6.589,0-11.957,5.366-11.957,11.958c0,0.849,1.02,1.291,1.631,0.713l1.529-1.427c2.479-2.274,5.707-3.534,9.07-3.534h4.791
				v3.94c0,0.986,1.086,1.599,1.936,1.09l12.672-7.782C577.614,117.071,577.614,115.883,576.798,115.406"/>
		</g>
	</g>
</g>
</svg>
