<?xml version="1.0" encoding="utf-8"?>
<!-- Generator: Adobe Illustrator 16.0.0, SVG Export Plug-In . SVG Version: 6.00 Build 0)  -->
<!DOCTYPE svg PUBLIC "-//W3C//DTD SVG 1.1//EN" "http://www.w3.org/Graphics/SVG/1.1/DTD/svg11.dtd">
<svg version="1.1" id="레이어_1" xmlns="http://www.w3.org/2000/svg" xmlns:xlink="http://www.w3.org/1999/xlink" x="0px"
	 y="0px" width="598.64px" height="424.584px" viewBox="0 0 598.64 424.584" enable-background="new 0 0 598.64 424.584"
	 xml:space="preserve">
<g>
	<g>
		<path fill="#737070" d="M255.807,12.011c-3.248-0.65-5.357-3.846-4.701-7.128c0.659-3.289,3.834-5.419,7.084-4.766
			c3.252,0.653,5.354,3.833,4.697,7.122C262.23,10.525,259.059,12.661,255.807,12.011"/>
		<path fill="#737070" d="M245.647,49.392V32.471h9.979c1.098,0,2.115-0.578,2.678-1.523l5.489-9.215l7.081,7.136l-7.17,13.229
			c-0.329,0.571-1.292,2.479-0.572,4.121c0.563,1.287,1.584,1.968,2.727,1.968h17.461c1.906,0,3.422-1.382,3.422-3.094
			c0.002-1.704-1.419-3.083-3.422-3.083h-11.197l10.057-11.099c0.373-0.387,0.682-0.754,0.949-1.221
			c1.39-2.389,1.137-5.491-0.811-7.271l-11.953-11.865c-1.076-1.103-2.209-1.738-3.359-1.846c-2.135-0.2-3.588,1.513-4.021,2.204
			l-9.129,15.323h-8.208v-2.224c0-0.443-0.358-0.802-0.798-0.802c-0.443,0-0.801,0.358-0.801,0.802v2.224h-1.309
			c-1.721,0-3.117,1.394-3.117,3.115c0,1.723,1.397,3.119,3.117,3.119h1.309v16.915"/>
		<path fill="#737070" d="M237.309,18.191c-0.234,1.314,0.74,2.917,2.441,3.848c1.699,0.926,3.574,0.879,4.555-0.026
			c0.233-1.314-0.742-2.917-2.441-3.848C240.164,17.237,238.287,17.284,237.309,18.191"/>
		<path fill="#737070" d="M239.85,9.857c-0.914,0.969-0.979,2.842-0.064,4.553c0.912,1.708,2.508,2.696,3.822,2.473
			c0.916-0.969,0.98-2.845,0.066-4.553C242.761,10.62,241.164,9.633,239.85,9.857"/>
		<path fill="#737070" d="M250.854,13.842c0.65,1.164,0.256,2.997-1.047,4.432c-1.302,1.436-3.09,2.003-4.313,1.468
			c-0.648-1.164-0.256-2.999,1.047-4.433C247.844,13.875,249.631,13.307,250.854,13.842"/>
		<path fill="#EAAA9C" d="M1.136,82.412H9.74c0.662-3.876,2.459-6.431,6.146-6.431c5.012,0,4.917,4.351,4.917,7.093v15.039
			c0,5.296-3.119,5.672-5.105,5.672c-4.917,0-4.917-4.067-4.917-5.391v-6.431H0v6.525c0,2.365,0.473,7.566,4.635,10.78
			c3.593,2.744,8.984,3.122,11.537,3.122c14.941,0,15.793-10.119,15.793-15.51V81.277c0-3.402-0.19-7.375-3.784-10.495
			c-1.606-1.515-4.257-3.026-8.511-3.026c-4.539,0-7.093,1.796-9.268,3.309l0.189-12.955h20.426v-9.458H1.797L1.136,82.412z
			 M38.018,111.541h5.58l-6.526,12.766h4.257l7.848-12.766V99.341H38.018V111.541z M54.474,90.83v8.795h19.103v11.916h10.117V99.625
			h3.783V90.83h-3.783V48.368H70.55L54.474,90.83z M63.74,90.83l10.592-31.397L73.576,90.83H63.74z M103.461,62.27
			c0-2.649,0.377-6.052,5.295-6.052c4.352,0,4.635,3.592,4.635,5.482v7.188c0,4.729-0.567,5.296-10.024,14.659
			C97.22,89.6,91.828,94.991,91.828,111.541h33.193v-9.458h-20.994c0.379-4.918,1.324-5.863,11.16-15.793
			c7.471-7.47,9.078-9.836,9.078-16.55v-6.43c0-2.649-0.662-6.149-0.756-6.525c-1.703-6.619-8.229-8.984-15.037-8.984
			c-2.27,0-7.377,0.189-11.158,3.311c-4.068,3.498-4.161,8.227-4.161,10.97v7.754h10.308V62.27z M134.008,96.881
			c0,4.54,0,15.51,16.265,15.51c2.459,0,7.282-0.095,11.065-3.5c3.877-3.498,4.539-8.321,4.539-11.727V63.31
			c0-3.878,0-15.51-16.077-15.51c-4.917,0-10.212,1.418-13.333,5.863c-2.27,3.216-2.459,6.524-2.459,10.687V96.881z M144.883,62.646
			c0-2.646,0-6.617,5.201-6.617c4.916,0,4.916,3.781,4.916,7.092v34.139c0,2.365,0,6.619-5.2,6.619c-4.917,0-4.917-4.348-4.917-5.86
			V62.646z M172.025,111.541h5.58l-6.526,12.766h4.255l7.85-12.766V99.341h-11.158V111.541z M189.142,96.881
			c0,4.54,0,15.51,16.267,15.51c2.459,0,7.282-0.095,11.063-3.5c3.878-3.498,4.54-8.321,4.54-11.727V63.31
			c0-3.878,0-15.51-16.076-15.51c-4.918,0-10.213,1.418-13.335,5.863c-2.269,3.216-2.459,6.524-2.459,10.687V96.881z
			 M200.018,62.646c0-2.646,0-6.617,5.2-6.617c4.919,0,4.919,3.781,4.919,7.092v34.139c0,2.365,0,6.619-5.201,6.619
			c-4.918,0-4.918-4.348-4.918-5.86V62.646z M226.593,96.881c0,4.54,0,15.51,16.267,15.51c2.459,0,7.279-0.095,11.063-3.5
			c3.877-3.498,4.538-8.321,4.538-11.727V63.31c0-3.878,0-15.51-16.076-15.51c-4.916,0-10.213,1.418-13.334,5.863
			c-2.27,3.216-2.458,6.524-2.458,10.687V96.881z M237.469,62.646c0-2.646,0-6.617,5.2-6.617c4.919,0,4.919,3.781,4.919,7.092
			v34.139c0,2.365,0,6.619-5.203,6.619c-4.916,0-4.916-4.348-4.916-5.86V62.646z M264.043,96.881c0,4.54,0,15.51,16.266,15.51
			c2.461,0,7.281-0.095,11.064-3.5c3.877-3.498,4.539-8.321,4.539-11.727V63.31c0-3.878,0-15.51-16.076-15.51
			c-4.917,0-10.213,1.418-13.334,5.863c-2.27,3.216-2.459,6.524-2.459,10.687V96.881z M274.919,62.646c0-2.646,0-6.617,5.2-6.617
			c4.918,0,4.918,3.781,4.918,7.092v34.139c0,2.365,0,6.619-5.201,6.619c-4.917,0-4.917-4.348-4.917-5.86V62.646z"/>
		<path fill="#EAAA9C" d="M319.472,110.284v-1.352h-3.991c0.169-0.913,0.611-3.593,0.928-5.985c0.318-2.265,0.508-4.05,0.593-6.01
			h-13.92v1.352h12.187c-0.084,2.829-1.076,8.946-1.372,10.644h-13.011v1.352H319.472z M335.898,103.86v-1.35h-12.123v-2.437h11.469
			v-5.139h-13.096v1.349h11.533v2.46h-11.47v5.116H335.898z M338.16,107.278v-1.35h-18.588v1.35h8.513v6.052h1.583v-6.052H338.16z"
			/>
		<path fill="#737070" d="M170.866,164.052V163.2h-4.478v-1.728h-1.016v1.728h-3.28v0.853H170.866z M169.969,166.532
			c0-1.06-1.257-1.82-3.499-1.82c-2.224,0-3.479,0.761-3.479,1.82c0,1.069,1.256,1.83,3.49,1.83
			C168.723,168.362,169.969,167.601,169.969,166.532 M166.48,165.535c1.404,0,2.402,0.358,2.402,0.986
			c0,0.679-0.998,1.029-2.402,1.029c-1.427,0-2.402-0.351-2.402-1.029C164.078,165.893,165.054,165.535,166.48,165.535
			 M169.909,159.539h-6.81v0.863h5.674c-0.091,0.845-0.43,2.181-0.449,2.252h1.017C169.609,161.822,169.899,160.31,169.909,159.539
			 M176.795,165.728c-1.646-1.008-2.503-2.374-2.503-4.628v-1.429h-1.048v1.429c0,2.224-0.777,3.858-2.621,4.907l0.798,0.646
			c0.856-0.503,2.073-1.893,2.353-2.898c0.469,1.109,1.574,2.363,2.353,2.714L176.795,165.728z M177.552,159.168v9.05h0.997v-4.514
			h1.326v-0.907h-1.326v-3.629H177.552z M186.042,166.469v-0.904c-0.769,0.103-2.104,0.195-2.662,0.195v-1.728
			c1.187-0.206,1.984-1.1,1.984-2.159c0-1.08-1.036-2.222-2.513-2.222c-1.475,0-2.512,0.997-2.512,2.211
			c0,1.079,0.816,1.983,2.023,2.17v1.769h-2.522v0.874h2.282C183.84,166.675,185.424,166.542,186.042,166.469 M186.44,159.168v9.05
			h0.997v-4.34h1.307v-0.926h-1.307v-3.784H186.44z M184.367,161.863c0,0.73-0.538,1.337-1.506,1.337
			c-0.967,0-1.515-0.606-1.515-1.337s0.538-1.336,1.505-1.336S184.367,161.132,184.367,161.863 M200.237,159.168h-0.997v9.05h0.997
			V159.168z M198.164,165.625c-1.686-0.967-2.304-2.464-2.304-3.925v-0.681h1.993v-0.895h-5.084v0.895h1.984v0.681
			c0,1.489-0.578,3.124-2.592,4.297l0.817,0.698c0.898-0.605,1.944-1.603,2.323-2.816c0.268,0.937,1.406,2.015,2.174,2.539
			L198.164,165.625z M205.078,161.676c0,0.743-0.498,1.349-1.396,1.349s-1.406-0.605-1.406-1.349c0-0.73,0.509-1.334,1.406-1.334
			S205.078,160.946,205.078,161.676 M205.606,160.31c-0.428-0.514-1.107-0.845-1.924-0.845c-1.415,0-2.433,0.988-2.433,2.211
			c0,1.225,1.018,2.222,2.433,2.222c0.828,0,1.524-0.349,1.954-0.873h2.254v1.439h0.996v-5.296h-0.996v1.142H205.606z
			 M206.056,162.16c0.03-0.152,0.05-0.318,0.05-0.483c0-0.174-0.02-0.34-0.06-0.503h1.845v0.986H206.056z M208.877,168.218v-3.229
			h-6.479v0.864h5.493v2.365H208.877z M214.565,160.38h2.822v-0.863h-6.7v0.863h2.82c-0.13,0.557-0.986,1.842-3.319,2.354
			l0.668,0.733c1.505-0.361,2.643-1.174,3.181-1.985c0.538,0.853,1.965,1.697,3.182,1.985l0.668-0.733
			C215.514,162.16,214.694,160.937,214.565,160.38 M218.424,165.071v-0.854h-8.773v0.854h3.889v3.147h0.996v-3.147H218.424z
			 M226.465,159.168h-0.998v6.551h0.998V159.168z M226.676,168.012v-0.864h-5.465v-2.025h-1.027v2.89H226.676z M223.534,159.775
			h-4.367v4.37h4.367V159.775z M222.547,163.283h-2.383v-2.643h2.383V163.283z M232.632,163.189c0-2.035-0.917-3.341-2.373-3.341
			c-1.446,0-2.392,1.295-2.392,3.341c0,2.025,0.945,3.343,2.392,3.343C231.715,166.532,232.632,165.206,232.632,163.189
			 M235.375,159.168h-0.998v9.05h0.998V159.168z M231.656,163.18c0,1.314-0.5,2.437-1.386,2.437c-0.888,0-1.418-1.122-1.418-2.437
			c0-1.287,0.53-2.428,1.418-2.428C231.156,160.752,231.656,161.884,231.656,163.18 M242.133,167.395l0.01-7.466h-0.68
			c-0.029,0.399-0.258,0.791-0.518,0.988c-0.359,0.256-0.768,0.381-1.226,0.392v0.738h1.534v5.348H242.133z M243.689,166.605v1.2
			h0.769c0,0.226-0.629,0.66-0.769,0.671l0.31,0.369c0.12-0.032,0.519-0.206,0.737-0.524c0.189-0.266,0.299-0.494,0.299-0.853
			v-0.863H243.689z M248.438,159.827c-1.705,0-2.594,1.553-2.594,3.826c0,2.281,0.889,3.856,2.594,3.856s2.622-1.575,2.622-3.856
			C251.06,161.379,250.143,159.827,248.438,159.827 M248.438,166.654c-1.028,0-1.576-1.304-1.576-3.001
			c0-1.708,0.548-2.984,1.576-2.984c1.057,0,1.574,1.276,1.574,2.984C250.012,165.35,249.494,166.654,248.438,166.654
			 M254.074,159.827c-1.705,0-2.594,1.553-2.594,3.826c0,2.281,0.889,3.856,2.594,3.856c1.703,0,2.621-1.575,2.621-3.856
			C256.695,161.379,255.777,159.827,254.074,159.827 M254.074,166.654c-1.028,0-1.576-1.304-1.576-3.001
			c0-1.708,0.548-2.984,1.576-2.984c1.057,0,1.574,1.276,1.574,2.984C255.648,165.35,255.131,166.654,254.074,166.654
			 M259.71,159.827c-1.704,0-2.593,1.553-2.593,3.826c0,2.281,0.889,3.856,2.593,3.856s2.622-1.575,2.622-3.856
			C262.332,161.379,261.414,159.827,259.71,159.827 M259.71,166.654c-1.026,0-1.575-1.304-1.575-3.001
			c0-1.708,0.549-2.984,1.575-2.984c1.057,0,1.575,1.276,1.575,2.984C261.285,165.35,260.767,166.654,259.71,166.654
			 M267.42,159.775h-4.365v4.37h4.365V159.775z M271.348,162.645v-0.896h-1.235v-2.581h-0.996v6.551h0.996v-3.074H271.348z
			 M270.412,168.012v-0.864h-5.443v-2.025h-0.998v2.89H270.412z M266.434,163.283h-2.382v-2.643h2.382V163.283z M283.58,166.879
			v-0.863h-1.744c0.308-1.182,0.707-4.164,0.707-5.636h-6.81v0.866h5.712c-0.039,1.212-0.478,3.897-0.637,4.77h-6.002v0.863H283.58z
			 M291.334,163.794v-0.853h-5.465v-0.886h5.224v-2.591h-6.25v0.855h5.224v0.894h-5.224v2.58H291.334z M292.408,165.472v-0.863
			h-8.771v0.863h3.856v2.746h1.019v-2.746H292.408z M301.77,165.76v-0.874c-0.719,0.154-2.113,0.319-3.041,0.339l-1.138,0.009
			v-5.201h-0.997v6.097l2.104-0.019C299.865,166.089,301.16,165.885,301.77,165.76 M302.456,159.168v9.05h0.997v-4.606h1.316v-0.896
			h-1.316v-3.548H302.456z M312.303,159.569h-6.411v3.56h6.411V159.569z M313.479,165.051v-0.866h-8.774v0.866h3.869v3.167h1.027
			v-3.167H313.479z M311.296,162.265h-4.409v-1.833h4.409V162.265z M321.601,159.168h-0.997v5.174h0.997V159.168z M321.57,164.815
			h-6.25v3.3h6.25V164.815z M320.574,167.251h-4.268v-1.575h4.268V167.251z M319.546,163.272c-2.063-0.792-2.413-2.262-2.413-3.074
			v-0.773h-1.045v0.773c0,0.864-0.32,2.426-2.513,3.444l0.728,0.679c0.867-0.442,1.935-1.429,2.313-2.313
			c0.369,0.728,1.396,1.654,2.343,2.045L319.546,163.272z M327.529,160.187h-4.299v0.861h3.152c-0.109,1.38-1.058,3.775-3.679,4.989
			l0.747,0.605C326.223,165.329,327.519,162.325,327.529,160.187 M330.45,159.168h-0.995v9.05h0.995V159.168z"/>
		<path fill="#737070" d="M167.965,180.251c-1.645-1.008-2.502-2.376-2.502-4.628v-1.431h-1.047v1.431
			c0,2.222-0.777,3.856-2.623,4.905l0.799,0.648c0.855-0.505,2.073-1.893,2.352-2.9c0.47,1.111,1.576,2.365,2.354,2.716
			L167.965,180.251z M168.723,173.69v9.052h0.998v-4.517h1.325v-0.904h-1.325v-3.631H168.723z M175.01,176.044
			c0,0.669-0.628,1.203-1.336,1.203s-1.336-0.534-1.336-1.203c0-0.648,0.628-1.171,1.336-1.171S175.01,175.387,175.01,176.044
			 M177.9,181.784h-4.287v-1.038h4.287V181.784z M178.898,182.638v-3.69H177.9v0.964h-4.287v-0.964h-0.987v3.69H178.898z
			 M175.977,175.572c-0.249-0.978-1.237-1.604-2.303-1.604c-1.246,0-2.363,0.845-2.363,2.099c0,1.266,1.137,2.108,2.363,2.108
			c1.105,0,2.133-0.688,2.332-1.738h1.905v2.066h0.997v-4.813h-0.997v1.882H175.977z M184.139,173.62
			c-2.204,0-3.37,0.709-3.37,1.654c0,0.958,1.166,1.636,3.37,1.636c2.213,0,3.359-0.688,3.359-1.645
			C187.498,174.347,186.352,173.62,184.139,173.62 M188.525,177.514h-8.773v0.793h8.773V177.514z M186.381,175.274
			c0,0.494-0.85,0.886-2.224,0.886c-1.405,0-2.272-0.392-2.272-0.895c0-0.505,0.816-0.877,2.242-0.877
			C185.523,174.388,186.381,174.771,186.381,175.274 M187.606,182.638v-0.782h-5.662v-0.7h5.443v-2.181h-6.5v0.773h5.434v0.657
			h-5.434v2.232H187.606z M198.723,173.649h-3.509v0.834h3.509V173.649z M197.516,176.055h2.862v-0.863h-6.79v0.863h2.852
			c-0.17,0.359-0.918,1.348-3.251,1.665l0.658,0.782c0.997-0.06,2.812-0.913,3.14-1.562c0.42,0.573,1.985,1.418,3.133,1.562
			l0.658-0.782C198.441,177.321,197.695,176.415,197.516,176.055 M201.363,180.026v-0.863h-8.772v0.863h3.888v2.716h0.998v-2.716
			H201.363z M209.685,173.69h-0.997v6.551h0.997V173.69z M209.883,182.536v-0.864h-5.473v-2.025h-1.018v2.89H209.883z
			 M207.512,178.062c-1.396-0.548-2.254-1.513-2.254-2.694v-0.258h1.845v-0.865h-4.776v0.865h1.855v0.258
			c0,1.242-0.809,2.345-2.492,3.023l0.746,0.771c0.957-0.435,2.045-1.348,2.275-2.11c0.518,0.763,1.344,1.502,2.213,1.82
			L207.512,178.062z M214.784,173.649h-2.921v0.813h2.921V173.649z M216.102,175.11h-5.553v0.821h5.553V175.11z M219.201,177.258
			v-0.896h-1.245v-2.673h-0.987v6.705h0.987v-3.137H219.201z M213.318,179.532c1.516,0,2.404-0.73,2.404-1.564
			c0-0.872-0.877-1.542-2.393-1.542c-1.445,0-2.404,0.67-2.404,1.542C210.926,178.791,211.874,179.532,213.318,179.532
			 M218.216,182.536v-0.855h-5.335v-1.644h-1.057v2.499H218.216z M214.646,177.959c0,0.462-0.44,0.781-1.307,0.781
			c-0.879,0-1.316-0.33-1.316-0.781c0-0.465,0.449-0.804,1.316-0.804C214.206,177.156,214.646,177.495,214.646,177.959
			 M231.204,178.432v-4.742h-0.997v1.276h-1.645v0.831h1.645v0.929h-1.805v0.831h1.805v0.875H231.204z M228.362,174.296h-4.356
			v0.853h3.082c-0.23,1.309-1.836,2.612-3.619,2.829l0.526,0.68C226.758,178.164,228.293,176.241,228.362,174.296 M231.375,182.638
			v-0.761h-5.385v-0.773h5.193v-2.221h-6.271v0.781h5.195v0.73h-5.195v2.243H231.375z M237.432,174.73h-4.945v0.863h3.867
			c-0.019,1.068-0.357,3.26-0.377,3.373h0.986C237.201,177.702,237.441,175.901,237.432,174.73 M238.607,173.69v9.052h0.997v-4.331
			h1.307v-0.886h-1.307v-3.835H238.607z M238.209,180.889v-0.853c-0.469,0.071-2.691,0.245-3.521,0.245v-2.857h-0.985v2.868h-1.694
			v0.863h1.057C235.627,181.156,237.621,180.96,238.209,180.889 M241.285,181.125v1.203h0.767c0,0.226-0.628,0.66-0.767,0.669
			l0.309,0.369c0.12-0.03,0.52-0.206,0.738-0.524c0.189-0.267,0.299-0.492,0.299-0.853v-0.864H241.285z M249.775,174.236
			c-1.576,0-2.275,1.141-2.295,2.333h0.848c0.041-0.739,0.359-1.502,1.426-1.502c0.889,0,1.326,0.535,1.326,1.412
			c0,0.645-0.4,1.139-0.938,1.54l-1.187,0.875c-1.356,0.988-1.674,1.974-1.685,2.962h4.785v-0.803h-3.698
			c0.171-0.617,0.718-1.152,1.097-1.429l1.176-0.834c0.619-0.44,1.455-1.141,1.455-2.324
			C252.086,175.265,251.34,174.236,249.775,174.236 M254.922,174.347c-1.705,0-2.592,1.554-2.592,3.827
			c0,2.283,0.887,3.856,2.592,3.856c1.704,0,2.623-1.573,2.623-3.856C257.545,175.901,256.626,174.347,254.922,174.347
			 M254.922,181.177c-1.027,0-1.576-1.306-1.576-3.003c0-1.708,0.549-2.982,1.576-2.982c1.057,0,1.575,1.274,1.575,2.982
			C256.497,179.872,255.979,181.177,254.922,181.177 M260.359,181.918l0.01-7.468h-0.679c-0.028,0.401-0.259,0.793-0.519,0.988
			c-0.359,0.256-0.766,0.38-1.227,0.391v0.739h1.535v5.35H260.359z M263.801,174.257c-1.376,0-2.395,1.098-2.395,2.496
			c0,1.358,0.898,2.51,2.244,2.594c0.76,0.041,1.347-0.372,1.805-0.834c0,0.435,0.011,1.019-0.209,1.605
			c-0.219,0.586-0.561,1.162-1.404,1.162c-0.87,0-1.427-0.72-1.486-1.255h-0.897c0.108,1.049,1.087,2.086,2.343,2.086
			c1.187,0,1.944-0.688,2.354-1.86c0.389-1.078,0.397-3.096,0.06-4.082C265.844,175.078,265.086,174.257,263.801,174.257
			 M263.842,178.472c-0.87,0-1.467-0.711-1.467-1.719c0-0.996,0.597-1.687,1.467-1.687c0.867,0,1.454,0.701,1.454,1.687
			C265.296,177.752,264.709,178.472,263.842,178.472 M274.472,180.241v-6.551h-0.997v0.978h-2.521v0.823h2.521v0.812h-2.521v0.834
			h2.521v3.104H274.472z M274.67,182.536v-0.864h-5.482V179.8h-0.996v2.735H274.67z M272.548,178.584v-0.843
			c-0.678,0.145-1.954,0.299-3.142,0.32l-1.186,0.02v-4.011h-0.996v4.877l2.173-0.021
			C270.723,178.905,271.97,178.719,272.548,178.584 M281.959,181.918l0.008-7.468h-0.676c-0.031,0.401-0.26,0.793-0.521,0.988
			c-0.357,0.256-0.766,0.38-1.225,0.391v0.739h1.535v5.35H281.959z M285.49,174.236c-1.575,0-2.273,1.141-2.296,2.333h0.85
			c0.04-0.739,0.358-1.502,1.426-1.502c0.886,0,1.326,0.535,1.326,1.412c0,0.645-0.399,1.139-0.938,1.54l-1.186,0.875
			c-1.355,0.988-1.674,1.974-1.686,2.962h4.787v-0.803h-3.699c0.17-0.617,0.717-1.152,1.096-1.429l1.178-0.834
			c0.617-0.44,1.455-1.141,1.455-2.324C287.803,175.265,287.055,174.236,285.49,174.236 M296.021,178.956v-5.266h-0.997v4.218
			h-2.063v0.729h2.063v0.319H296.021z M294.705,177.351v-0.813c-0.43,0.093-2.834,0.288-3.799,0.288h-2.723v0.791h2.164v1.349h0.998
			v-1.357C292.133,177.609,294.087,177.465,294.705,177.351 M296.181,182.638v-0.771h-5.444v-0.475h5.255v-2.045h-6.36v0.761h5.243
			v0.534h-5.243v1.996H296.181z M291.234,174.286c0.979,0,1.357,0.382,1.357,0.681c0,0.318-0.391,0.636-1.357,0.636
			c-0.947,0-1.355-0.317-1.355-0.657C289.879,174.667,290.298,174.286,291.234,174.286 M291.234,173.495
			c-1.455,0-2.342,0.689-2.342,1.472c0,0.82,0.867,1.418,2.342,1.418c1.486,0,2.344-0.605,2.344-1.418
			C293.578,174.165,292.73,173.495,291.234,173.495 M308.751,180.355v-6.665h-0.987v2.026h-1.336v0.863h1.336v1.01h-1.536v0.872
			h1.536v1.894H308.751z M308.93,182.536v-0.855h-5.552v-1.644h-1.018v2.499H308.93z M304.981,173.649h-2.72v0.813h2.72V173.649z
			 M306.299,175.11h-5.355v0.821h5.355V175.11z M303.616,179.532c1.517,0,2.304-0.73,2.304-1.564c0-0.872-0.778-1.542-2.293-1.542
			c-1.445,0-2.305,0.67-2.305,1.542C301.322,178.791,302.172,179.532,303.616,179.532 M304.843,177.959
			c0,0.462-0.339,0.781-1.206,0.781c-0.878,0-1.217-0.33-1.217-0.781c0-0.465,0.35-0.804,1.217-0.804
			S304.843,177.495,304.843,177.959 M317.91,182.742v-9.052h-0.969v3.487h-1.027v-3.281h-0.967v8.433h0.967v-4.144h1.027v4.557
			H317.91z M311.599,175.634v0.318c0,1.553-0.351,3.27-2.134,4.679l0.807,0.617c0.768-0.679,1.604-1.82,1.846-2.735
			c0.229,0.845,1.155,2.057,1.764,2.499l0.709-0.646c-1.535-1.203-1.945-2.893-1.945-4.413v-0.318h1.516v-0.874h-4.099v0.874
			H311.599z M329.992,182.742v-3.21h-6.372v0.863h5.364v2.347H329.992z M331.257,177.712v-0.864h-1.277v-1.091h1.277v-0.864h-1.277
			v-1.203h-0.995v5.317h0.995v-1.295H331.257z M327.449,176.2c0-1.223-1.007-2.211-2.424-2.211c-1.416,0-2.432,0.988-2.432,2.211
			c0,1.225,1.016,2.222,2.432,2.222C326.442,178.421,327.449,177.424,327.449,176.2 M326.422,176.2c0,0.741-0.498,1.347-1.396,1.347
			s-1.405-0.605-1.405-1.347c0-0.73,0.507-1.337,1.405-1.337S326.422,175.469,326.422,176.2"/>
		<path fill="#737070" d="M164.895,191.502c-0.479-0.029-1.036,0.063-1.516,0.381l0.299-1.964h3.052v-0.853h-3.819l-0.579,3.896
			l0.856,0.011c0.271-0.371,0.69-0.638,1.388-0.638c0.897,0,1.427,0.782,1.427,1.749c0,0.997-0.6,1.719-1.447,1.719
			c-0.886,0-1.445-0.619-1.525-1.255h-0.877c0.16,1.049,0.987,2.086,2.443,2.086c1.177,0,2.412-0.926,2.412-2.571
			C167.008,192.244,165.712,191.576,164.895,191.502 M172.374,195.031v-0.78h-1.086v-5.307l-0.917,0.009l-3.31,5.029v1.049h3.329
			v1.409h0.897v-1.409H172.374z M170.391,194.25h-2.473l2.424-3.755l0.049,0.021V194.25z M174.761,188.759
			c-1.575,0-2.272,1.139-2.294,2.333h0.849c0.04-0.741,0.358-1.502,1.426-1.502c0.888,0,1.327,0.535,1.327,1.41
			c0,0.646-0.4,1.141-0.939,1.542l-1.185,0.875c-1.356,0.988-1.678,1.974-1.687,2.962h4.785v-0.803h-3.697
			c0.168-0.617,0.719-1.152,1.098-1.429l1.176-0.834c0.617-0.442,1.455-1.143,1.455-2.324
			C177.074,189.787,176.326,188.759,174.761,188.759 M181.982,188.82h-4.367v4.372h4.367V188.82z M185.91,191.69v-0.896h-1.236
			v-2.58h-0.996v6.551h0.996v-3.074H185.91z M184.971,197.056v-0.863h-5.441v-2.026h-0.995v2.89H184.971z M180.995,192.328h-2.384
			v-2.645h2.384V192.328z M197.873,195.926v-0.863h-1.744c0.309-1.184,0.707-4.166,0.707-5.638h-6.809v0.866h5.711
			c-0.039,1.211-0.479,3.895-0.638,4.771H189.1v0.863H197.873z M205.625,192.841v-0.855h-5.463v-0.883h5.223v-2.591h-6.252v0.853
			h5.227v0.896h-5.227v2.58H205.625z M206.701,194.517v-0.863h-8.773v0.863h3.858v2.746h1.017v-2.746H206.701z M214.952,188.213
			h-0.997v9.05h0.997V188.213z M213.597,195.226v-0.883c-0.858,0.09-2.442,0.185-3.979,0.206l-2.472,0.009v0.863l2.393-0.009
			C210.895,195.391,212.969,195.289,213.597,195.226 M210.098,188.749c-1.446,0-2.483,1.038-2.483,2.26
			c0,1.235,1.037,2.273,2.483,2.273c1.443,0,2.492-1.038,2.492-2.273C212.59,189.787,211.541,188.749,210.098,188.749
			 M211.563,191.008c0,0.763-0.538,1.401-1.465,1.401c-0.92,0-1.455-0.639-1.455-1.401c0-0.738,0.535-1.386,1.455-1.386
			C211.024,189.623,211.563,190.27,211.563,191.008 M227.502,193.488v-0.874h-3.887v-1.274h2.86v-0.863h-5.612v-2.211h-0.998v3.074
			h2.741v1.274h-3.878v0.874H227.502z M226.376,197.263v-2.817h-6.62v0.864h5.623v1.953H226.376z M235.913,193.654v-5.44h-0.968
			v2.179h-1.036v-2.023h-0.966v5.285h0.966v-2.334h1.036v2.334H235.913z M235.873,197.263v-3.126h-6.561V195h5.563v2.263H235.873z
			 M232.643,192.48c-1.625-0.812-1.955-2.303-1.955-3.155v-0.864h-1.045v0.864c0,0.853-0.242,2.365-2.055,3.465l0.788,0.649
			c0.828-0.557,1.614-1.432,1.794-2.091c0.389,0.732,1.207,1.575,1.843,1.862L232.643,192.48z M248.303,193.047v-0.854h-8.773v0.854
			h3.85v0.883h-2.861v0.864h1.086l0.129,1.502h-1.415v0.863h7.198v-0.863h-1.415l0.127-1.502h1.089v-0.864h-2.852v-0.883H248.303z
			 M245.232,194.794l-0.12,1.502h-2.392l-0.121-1.502H245.232z M243.916,189.683c0.509,0.999,2.034,1.882,3.261,2.037l0.608-0.72
			c-2.622-0.505-3.341-1.944-3.341-2.562v-0.269h-1.056v0.269c0,0.617-0.578,1.964-3.341,2.562l0.608,0.72
			C241.992,191.524,243.487,190.579,243.916,189.683 M256.416,190.023v-0.134h2.821v-0.863h-6.7v0.863h2.822v0.134
			c0,0.627-0.359,2.161-3.301,3.106l0.649,0.72c1.575-0.432,2.692-1.482,3.181-2.438c0.607,1.151,2.063,2.17,3.18,2.438l0.648-0.72
			C256.924,192.184,256.416,190.65,256.416,190.023 M260.275,196.132v-0.863h-3.888v-2.048h-0.997v2.048h-3.889v0.863H260.275z
			 M268.455,193.602v-5.389h-0.986v1.788h-1.863v0.906h1.863v2.694H268.455z M266.322,192.315c-2.064-0.791-2.412-2.26-2.412-3.074
			v-0.78h-1.047v0.78c0,0.863-0.319,2.428-2.514,3.446l0.729,0.679c0.868-0.442,1.934-1.429,2.313-2.314
			c0.369,0.73,1.396,1.654,2.344,2.046L266.322,192.315z M268.605,195.598c0-1.062-1.148-1.831-3.32-1.831
			c-2.173,0-3.33,0.782-3.33,1.831c0,1.057,1.157,1.809,3.33,1.809C267.457,197.407,268.605,196.655,268.605,195.598
			 M267.529,195.609c0,0.595-0.908,0.996-2.234,0.996c-1.354,0-2.242-0.412-2.242-1.007c0-0.619,0.888-0.999,2.242-0.999
			C266.621,194.599,267.529,194.99,267.529,195.609"/>
		<path fill="#EAAA9C" d="M173.012,140.654v-1.221h-4.463v-1.343h3.299v-1.223h-6.516v-2.272h-1.363v3.495h3.158v1.343h-4.449v1.221
			H173.012z M171.719,145.139v-3.396h-7.868v1.233h6.507v2.163H171.719z M183.01,140.894v-6.396h-1.316v2.479h-1.031v-2.299h-1.315
			v6.215h1.315v-2.61h1.031v2.61H183.01z M178.97,139.506c-0.315-0.136-0.891-0.582-1.409-1.235
			c-0.48-0.616-0.738-1.486-0.738-2.589v-0.894h-1.445v0.894c0,1.103-0.246,1.887-0.715,2.576c-0.493,0.715-1.116,1.223-1.598,1.523
			l1.081,0.908c0.328-0.206,0.646-0.46,1.116-0.969c0.398-0.434,0.738-0.99,0.846-1.244c0.129,0.254,0.455,0.727,0.82,1.09
			c0.469,0.457,0.904,0.771,1.186,0.906L178.97,139.506z M182.976,145.139v-3.749h-7.845v1.235h6.482v2.514H182.976z
			 M197.482,140.267v-1.221h-10.334v1.221h4.463v0.919h-3.346v1.137h1.268l0.141,1.547h-1.645v1.149h8.562v-1.149h-1.635
			l0.142-1.547h1.258v-1.137h-3.334v-0.919H197.482z M193.736,142.323l-0.129,1.547h-2.585l-0.128-1.547H193.736z M196.823,137.678
			c-0.526-0.12-1.515-0.387-2.429-0.967c-0.869-0.546-1.269-1.162-1.269-1.897v-0.376h-1.62v0.376c0,0.735-0.398,1.364-1.268,1.897
			c-0.916,0.569-1.904,0.847-2.432,0.967l0.797,0.992c0.367-0.084,1.305-0.339,2.139-0.799c0.785-0.435,1.337-0.894,1.573-1.307
			c0.235,0.413,0.788,0.872,1.574,1.307c0.834,0.46,1.771,0.715,2.138,0.799L196.823,137.678z M207.21,136.748v-0.146h3.184v-1.221
			h-7.985v1.221h3.192v0.146c0,0.447-0.245,1.307-1.079,2.02c-0.775,0.666-1.832,1.124-2.747,1.45l0.938,1.006
			c0.609-0.193,1.467-0.557,2.244-1.126c0.751-0.544,1.289-1.207,1.441-1.536c0.154,0.329,0.694,0.992,1.446,1.536
			c0.774,0.569,1.631,0.933,2.243,1.126l0.938-1.006c-0.915-0.326-1.972-0.784-2.747-1.45
			C207.445,138.054,207.21,137.195,207.21,136.748 M211.566,143.966v-1.22h-4.451v-2.057h-1.455v2.057h-4.427v1.22H211.566z
			 M221.238,140.774v-6.275h-1.362v1.886h-2.067v1.307h2.067v3.083H221.238z M214.871,143.096c0-0.643,1-1.04,2.516-1.04
			c1.49,0,2.513,0.411,2.513,1.053c0,0.617-1.022,1.04-2.513,1.04C215.871,144.149,214.871,143.713,214.871,143.096
			 M221.391,143.096c0-1.259-1.409-2.213-4.016-2.213c-2.596,0-4.018,0.967-4.018,2.213c0,1.27,1.422,2.189,4.018,2.189
			C219.981,145.286,221.391,144.353,221.391,143.096 M218.652,139.167c-0.619-0.242-1.289-0.652-1.914-1.308
			c-0.551-0.604-0.832-1.378-0.832-2.32v-0.75h-1.444v0.75c0,0.942-0.222,1.716-0.856,2.455c-0.576,0.677-1.35,1.221-1.949,1.536
			l0.963,0.979c0.481-0.279,0.869-0.532,1.441-1.053c0.484-0.436,0.858-0.906,1.131-1.402c0.316,0.483,0.621,0.797,1.044,1.16
			c0.518,0.446,1.187,0.836,1.633,1.003L218.652,139.167z M232.53,139.954v-1.296h-1.493v-4.159h-1.361v10.641h1.361v-5.186H232.53z
			 M228.878,142.093c-0.647-0.374-1.315-0.896-1.951-1.767c-0.716-0.992-0.891-2.564-0.891-3.482v-1.753h-1.421v1.753
			c0,1.21-0.178,2.333-0.775,3.362c-0.518,0.894-1.269,1.584-2.195,2.177l1.033,0.906c0.576-0.399,1.045-0.75,1.504-1.282
			c0.551-0.641,0.903-1.124,1.16-1.717c0.248,0.507,0.542,0.956,0.999,1.476c0.586,0.664,1.175,1.04,1.657,1.33L228.878,142.093z
			 M237.045,137.268c0,0.7-0.668,1.27-1.41,1.27c-0.739,0-1.408-0.569-1.408-1.27c0-0.677,0.669-1.233,1.408-1.233
			C236.377,136.035,237.045,136.578,237.045,137.268 M240.463,143.835h-4.78v-0.981h4.78V143.835z M241.824,145.019v-4.449h-1.361
			v1.1h-4.78v-1.1h-1.352v4.449H241.824z M238.337,136.578c-0.353-1.089-1.481-1.776-2.702-1.776c-1.479,0-2.805,1.001-2.805,2.49
			c0,1.499,1.349,2.503,2.805,2.503c1.281,0,2.467-0.773,2.75-1.973h2.1v2.275h1.362v-5.599h-1.362v2.079H238.337z"/>
	</g>
	<g>
		<path fill="#EAAA9C" d="M436.401,82.092c0.177,0.338,0.739,0.883,1.468,1.33c0.846,0.52,1.797,0.823,2.254,0.92l0.834-1.017
			c-0.541-0.122-1.643-0.483-2.514-1.076c-0.893-0.606-1.268-1.439-1.268-2.213v-0.376h-1.551v0.376
			c0,0.773-0.363,1.606-1.256,2.213c-0.869,0.593-1.973,0.954-2.512,1.076l0.832,1.017c0.459-0.097,1.41-0.4,2.256-0.92
			C435.672,82.975,436.225,82.43,436.401,82.092 M441.567,86.495v-1.223h-10.333v1.223h4.426v3.81h1.411v-3.81H441.567z
			 M451.954,89.13v-1.222h-4.45v-2.177h3.277v-1.223h-6.4v-2.72h6.317v-1.221h-7.726v5.163h3.076v2.177h-4.428v1.222H451.954z
			 M459.934,84.282v-1.221c-0.41,0.071-1.184,0.107-1.76,0.143c0.059-0.314,0.165-0.686,0.248-1.185
			c0.08-0.543,0.174-1.196,0.209-1.873h-5.507v1.221h3.993c-0.047,0.605-0.2,1.452-0.293,1.909h-4.475v1.233h2.408v2.057h1.42
			v-2.067C457.034,84.499,458.938,84.402,459.934,84.282 M461.649,87.511v-7.851h-1.364v5.564h-2.405v1.233h2.405v1.053H461.649z
			 M461.896,90.061V88.84h-6.494v-1.826h-1.386v3.047H461.896z M467.375,80.943h-4.217v7.063h4.217V80.943z M471.967,90.304V79.661
			h-1.315v3.846h-1.032v-3.604h-1.316v9.918h1.316v-4.936h1.032v5.419H471.967z M466.012,86.785h-1.492v-4.619h1.492V86.785z
			 M482.213,79.661h-1.363v5.889h1.363V79.661z M482.201,90.181v-4.123h-1.352v1.004h-4.919v-1.004h-1.362v4.123H482.201z
			 M480.85,89.021h-4.919v-0.797h4.919V89.021z M479.958,85.044v-1.162c-0.751,0.107-2.302,0.242-3.313,0.253l-1.843,0.014v-0.823
			h4.063v-3.156h-5.447v1.171h4.074V82.2h-4.074v3.122l2.665-0.026C477.492,85.285,479.171,85.152,479.958,85.044 M492.939,79.661
			h-1.362v10.644h1.362V79.661z M486.306,81.972v0.447c0,0.605-0.201,1.923-0.775,2.926c-0.517,0.896-1.315,1.633-2.242,2.226
			l1.127,0.918c0.575-0.4,1.032-0.75,1.503-1.281c0.552-0.629,0.894-1.162,1.127-1.766c0.246,0.507,0.553,1.017,1.01,1.536
			c0.588,0.664,1.257,1.063,1.467,1.186l0.883-1.053c-0.33-0.193-1.141-0.749-1.773-1.619c-0.716-0.993-0.881-2.479-0.881-3.072
			v-0.447h2.266V80.75h-5.965v1.223H486.306z M507.682,83.326V82.08h-1.42v-2.419h-1.363v6.325h1.363v-2.66H507.682z M506.52,88.368
			c0-1.207-1.409-2.092-4.016-2.092c-2.596,0-3.992,0.885-3.992,2.092c0,1.223,1.396,2.08,3.992,2.08
			C505.11,90.448,506.52,89.59,506.52,88.368 M505.004,88.381c0,0.58-0.998,0.93-2.488,0.93c-1.515,0-2.5-0.35-2.5-0.93
			c0-0.583,0.985-0.931,2.5-0.931C504.006,87.451,505.004,87.798,505.004,88.381 M503.103,85.513v-5.464h-1.362v1.523h-2.57v-1.523
			h-1.363v5.464H503.103z M501.74,84.246h-2.57V82.83h2.57V84.246z M517.977,86.097v-1.225h-10.334v1.225h4.66v2.052h1.387v-2.052
			H517.977z M517.025,90.061V88.84h-6.707v-1.766h-1.397v2.986H517.025z M508.933,83.893h7.763v-3.93h-7.763V83.893z
			 M515.332,82.685h-5.037v-1.499h5.037V82.685z M527.681,86.022v-6.361h-1.315v2.602h-0.998v-2.432h-1.315v6.191h1.315v-2.453
			h0.998v2.453H527.681z M523.125,80.374h-4.297v1.21h2.747c-0.117,0.643-0.411,1.392-1.104,2.079
			c-0.61,0.619-1.526,1.115-2.29,1.442l0.857,0.904c0.844-0.351,1.867-0.894,2.818-1.981
			C522.809,82.939,523.125,81.27,523.125,80.374 M527.646,90.304v-3.738h-7.785v1.222h6.422v2.517H527.646z"/>
		<path fill="#EAAA9C" d="M432.729,68.229c0,2.455,1.543,4.247,5.129,4.247c2.705,0,5.505-0.879,5.505-4.75V55.583
			c0-2.453-1.101-4.593-5.159-4.593c-3.807,0-5.475,1.508-5.475,4.909v5.158c0,2.14,1.196,3.648,3.87,3.648
			c1.511,0,2.296-0.565,3.178-1.225v3.964c0,1.194,0,2.264-1.762,2.264c-1.511,0-1.604-0.978-1.636-1.354
			c-0.031-0.283-0.031-0.44-0.031-1.791h-3.619V68.229z M436.348,55.899c0-0.818,0-2.14,1.762-2.14c1.51,0,1.667,1.162,1.667,1.95
			v3.837c0,0.976,0,2.267-1.794,2.267c-1.635,0-1.635-1.291-1.635-2.267V55.899z M445.471,72.195h1.855l-2.17,4.247h1.416
			l2.609-4.247v-4.059h-3.711V72.195z M451.07,68.229c0,2.455,1.541,4.247,5.129,4.247c2.704,0,5.504-0.879,5.504-4.75V55.583
			c0-2.453-1.101-4.593-5.16-4.593c-3.805,0-5.473,1.508-5.473,4.909v5.158c0,2.14,1.197,3.648,3.87,3.648
			c1.51,0,2.296-0.565,3.176-1.225v3.964c0,1.194,0,2.264-1.761,2.264c-1.51,0-1.604-0.978-1.637-1.354
			c-0.031-0.283-0.031-0.44-0.031-1.791h-3.617V68.229z M454.688,55.899c0-0.818,0-2.14,1.763-2.14c1.511,0,1.666,1.162,1.666,1.95
			v3.837c0,0.976,0,2.267-1.792,2.267c-1.637,0-1.637-1.291-1.637-2.267V55.899z M475.42,56.842c0-2.737,0-4.218-1.855-5.161
			c-1.008-0.535-2.172-0.691-3.147-0.691c-2.39,0-5.411,0.786-5.411,4.563v12.016c0,1.008,0,2.737,1.699,3.934
			c1.07,0.755,2.486,0.974,3.619,0.974c5.284,0,5.284-3.745,5.284-4.845v-4.875c0-0.691,0-4.059-3.679-4.059
			c-1.732,0-2.707,0.787-3.337,1.289v-4.12c0-0.757,0-2.075,1.763-2.075c1.604,0,1.604,0.849,1.604,3.051H475.42z M468.593,63.764
			c0-0.537,0-2.077,1.763-2.077c1.637,0,1.637,1.321,1.637,2.264v3.775c0,0.535,0,1.889-1.637,1.889
			c-1.763,0-1.763-1.543-1.763-2.422V63.764z M478.723,67.318c0,1.51,0,5.158,5.412,5.158c0.818,0,2.422-0.03,3.682-1.162
			c1.289-1.165,1.51-2.77,1.51-3.901V56.15c0-1.291,0-5.16-5.349-5.16c-1.637,0-3.398,0.473-4.437,1.95
			c-0.755,1.07-0.818,2.17-0.818,3.556V67.318z M482.341,55.929c0-0.881,0-2.202,1.73-2.202c1.636,0,1.636,1.259,1.636,2.358v11.359
			c0,0.784,0,2.199-1.729,2.199c-1.637,0-1.637-1.445-1.637-1.948V55.929z M491.371,72.195h1.855l-2.172,4.247h1.417l2.611-4.247
			v-4.059h-3.712V72.195z M497.063,67.318c0,1.51,0,5.158,5.412,5.158c0.82,0,2.423-0.03,3.683-1.162
			c1.29-1.165,1.509-2.77,1.509-3.901V56.15c0-1.291,0-5.16-5.348-5.16c-1.636,0-3.398,0.473-4.438,1.95
			c-0.755,1.07-0.818,2.17-0.818,3.556V67.318z M500.683,55.929c0-0.881,0-2.202,1.729-2.202c1.637,0,1.637,1.259,1.637,2.358
			v11.359c0,0.784,0,2.199-1.73,2.199c-1.636,0-1.636-1.445-1.636-1.948V55.929z M509.521,67.318c0,1.51,0,5.158,5.412,5.158
			c0.818,0,2.424-0.03,3.681-1.162c1.29-1.165,1.51-2.77,1.51-3.901V56.15c0-1.291,0-5.16-5.349-5.16
			c-1.636,0-3.397,0.473-4.436,1.95c-0.756,1.07-0.818,2.17-0.818,3.556V67.318z M513.14,55.929c0-0.881,0-2.202,1.729-2.202
			c1.639,0,1.639,1.259,1.639,2.358v11.359c0,0.784,0,2.199-1.732,2.199c-1.636,0-1.636-1.445-1.636-1.948V55.929z M521.979,67.318
			c0,1.51,0,5.158,5.412,5.158c0.818,0,2.423-0.03,3.684-1.162c1.289-1.165,1.51-2.77,1.51-3.901V56.15c0-1.291,0-5.16-5.351-5.16
			c-1.636,0-3.397,0.473-4.437,1.95c-0.755,1.07-0.818,2.17-0.818,3.556V67.318z M525.598,55.929c0-0.881,0-2.202,1.73-2.202
			c1.637,0,1.637,1.259,1.637,2.358v11.359c0,0.784,0,2.199-1.731,2.199c-1.636,0-1.636-1.445-1.636-1.948V55.929z"/>
		<path fill="#EAAA9C" d="M547.064,67.359V59.71h-1.016v1.92h-3.127v-1.016h-5.734v5.414h5.734v-1.229h3.127v2.56H547.064z
			 M547.216,69.948c0-1.429-1.577-2.46-4.5-2.46c-2.922,0-4.513,1.031-4.513,2.46s1.591,2.446,4.513,2.446
			C545.639,72.394,547.216,71.376,547.216,69.948 M546.049,63.951h-3.127v-1.472h3.127V63.951z M541.906,65.154h-3.704v-3.663h3.704
			V65.154z M546.146,69.948c0,0.99-1.427,1.583-3.43,1.583c-2.043,0-3.443-0.608-3.443-1.583c0-1.019,1.4-1.584,3.443-1.584
			C544.719,68.364,546.146,68.944,546.146,69.948"/>
		<path fill="#737070" d="M439.654,110.396v-6.551h-0.997v1.532h-1.646v0.863h1.646v1.184h-1.805v0.864h1.805v2.107H439.654z
			 M439.904,112.688v-0.863h-5.516v-1.953h-0.996v2.816H439.904z M436.814,104.452h-4.349v0.863h3.151
			c-0.1,1.513-1.755,2.984-3.729,3.579l0.618,0.689C435.088,108.701,436.803,106.787,436.814,104.452 M444.705,103.802h-2.922v0.793
			h2.922V103.802z M446.02,105.193h-5.553v0.79h5.553V105.193z M449.122,107.218v-0.896h-1.247v-2.478h-0.987v5.76h0.987v-2.387
			H449.122z M443.239,109.418c1.516,0,2.392-0.646,2.392-1.502c0-0.853-0.855-1.48-2.373-1.48c-1.465,0-2.401,0.628-2.401,1.48
			C440.856,108.772,441.803,109.418,443.239,109.418 M447.885,112.895v-2.735h-6.479v0.813h5.462v1.923H447.885z M444.565,107.906
			c0,0.445-0.429,0.763-1.308,0.763c-0.876,0-1.325-0.31-1.325-0.752c0-0.432,0.449-0.729,1.325-0.729
			C444.137,107.188,444.565,107.474,444.565,107.906 M449.337,111.281v1.203h0.767c0,0.226-0.627,0.658-0.767,0.669l0.308,0.369
			c0.12-0.03,0.52-0.206,0.739-0.524c0.188-0.269,0.298-0.494,0.298-0.853v-0.864H449.337z M462.61,104.853h-6.919v0.874h5.823
			c-0.03,1.41-0.47,3.816-0.489,3.938h0.977C462.32,108.153,462.58,105.798,462.61,104.853 M463.538,111.703v-0.866h-3.401v-3.104
			h-1.006v3.104h-1.307v-3.104h-1.007v3.104h-2.054v0.866H463.538z M472.167,109.06v-0.864h-8.773v0.864h2.343v1.171h-1.325v0.863
			h5.612v1.801h0.998v-2.664h-1.188v-1.171H472.167z M468.847,110.231h-2.113v-1.171h2.113V110.231z M467.781,103.815
			c-2.204,0-3.352,0.77-3.352,1.829c0,1.061,1.147,1.811,3.352,1.811c2.213,0,3.33-0.75,3.33-1.811
			C471.111,104.584,469.994,103.815,467.781,103.815 M467.781,104.595c1.404,0,2.242,0.442,2.242,1.049
			c0,0.597-0.857,1.028-2.242,1.028c-1.406,0-2.264-0.453-2.264-1.037C465.518,105.027,466.355,104.595,467.781,104.595
			 M472.563,111.281v1.203h0.768c0,0.226-0.629,0.658-0.768,0.669l0.309,0.369c0.12-0.03,0.518-0.206,0.738-0.524
			c0.188-0.269,0.299-0.494,0.299-0.853v-0.864H472.563z M484.48,112.484v-8.435h-0.967v3.713h-1.366v0.885h1.366v3.837H484.48z
			 M486.335,103.845h-0.968v9.05h0.968V103.845z M481.827,104.452h-2.461v0.853h2.461V104.452z M482.875,110.489
			c-1.506-0.905-1.725-2.273-1.725-2.974v-0.44h1.565v-0.886h-4.237v0.886h1.586v0.44c0,1.452-0.859,2.541-2.085,3.199l0.757,0.698
			c0.608-0.338,1.685-1.285,1.875-2.095c0.199,0.709,1.156,1.694,1.664,1.912L482.875,110.489z M495.393,109.06v-0.864h-8.772v0.864
			h2.342v1.171h-1.325v0.863h5.612v1.801h0.997v-2.664h-1.186v-1.171H495.393z M492.073,110.231h-2.114v-1.171h2.114V110.231z
			 M491.006,103.815c-2.203,0-3.35,0.77-3.35,1.829c0,1.061,1.146,1.811,3.35,1.811c2.214,0,3.33-0.75,3.33-1.811
			C494.336,104.584,493.22,103.815,491.006,103.815 M491.006,104.595c1.405,0,2.243,0.442,2.243,1.049
			c0,0.597-0.856,1.028-2.243,1.028c-1.404,0-2.263-0.453-2.263-1.037C488.743,105.027,489.58,104.595,491.006,104.595
			 M503.374,103.845h-0.997v9.05h0.997V103.845z M501.439,110.428c-1.645-1.01-2.5-2.376-2.5-4.63v-1.429h-1.049v1.429
			c0,2.222-0.776,3.856-2.623,4.905l0.799,0.648c0.857-0.505,2.073-1.891,2.354-2.898c0.468,1.111,1.574,2.365,2.353,2.714
			L501.439,110.428z M511.994,108.595v-4.75h-0.988v1.502h-1.863v0.863h1.863v2.385H511.994z M509.84,107.59
			c-2.014-0.773-2.391-1.955-2.391-2.655v-0.813H506.4v0.813c0,0.803-0.527,2.242-2.492,2.992l0.697,0.73
			c1.018-0.483,2.016-1.225,2.313-2.047c0.489,0.822,1.656,1.493,2.344,1.74L509.84,107.59z M512.184,112.792V112h-5.403v-0.72
			h5.184v-2.283h-6.23v0.793h5.184v0.738h-5.184v2.263H512.184z M521.494,107.865c0-2.034-0.918-3.341-2.373-3.341
			c-1.445,0-2.395,1.296-2.395,3.341c0,2.026,0.949,3.344,2.395,3.344C520.576,111.208,521.494,109.882,521.494,107.865
			 M524.236,103.845h-0.996v9.05h0.996V103.845z M520.517,107.857c0,1.316-0.499,2.436-1.386,2.436s-1.416-1.119-1.416-2.436
			c0-1.287,0.529-2.428,1.416-2.428S520.517,106.559,520.517,107.857 M533.574,109.008v-0.864h-2.323v-1.162
			c0.886-0.31,1.345-0.825,1.345-1.441c0-0.997-1.176-1.747-3.41-1.747c-2.223,0-3.4,0.741-3.4,1.738c0,0.617,0.46,1.141,1.357,1.45
			v1.162h-2.342v0.864H533.574z M531.539,105.541c0,0.537-0.957,0.947-2.354,0.947c-1.426,0-2.333-0.442-2.333-0.978
			c0-0.543,0.888-0.976,2.333-0.976C530.602,104.535,531.539,104.997,531.539,105.541 M530.244,108.144h-2.096v-0.956
			c0.311,0.052,0.658,0.071,1.037,0.071c0.39,0,0.748-0.02,1.059-0.071V108.144z M532.676,111.341c0-1.008-1.246-1.706-3.49-1.706
			c-2.234,0-3.499,0.698-3.499,1.706c0,0.999,1.265,1.717,3.499,1.717C531.43,113.058,532.676,112.34,532.676,111.341
			 M529.186,110.417c1.396,0,2.354,0.358,2.354,0.924c0,0.557-0.957,0.906-2.354,0.906c-1.416,0-2.363-0.36-2.363-0.917
			C526.822,110.754,527.77,110.417,529.186,110.417 M533.969,111.281v1.203h0.766c0,0.226-0.628,0.658-0.766,0.669l0.307,0.369
			c0.121-0.03,0.519-0.206,0.738-0.524c0.189-0.269,0.299-0.494,0.299-0.853v-0.864H533.969z M548.367,107.177v-0.863h-1.225v-2.469
			h-0.997v5.358h0.997v-2.026H548.367z M544.61,104.452h-4.458v0.863h3.261c-0.09,0.853-0.849,2.571-3.76,3.229l0.568,0.679
			C543.244,108.525,544.52,106.466,544.61,104.452 M547.152,112.895v-3.137h-6.333v0.853h5.326v2.284H547.152z M556.798,109.049
			v-0.864h-3.878v-1.203h-1.018v1.203h-3.879v0.864H556.798z M552.959,104.997h2.803v-0.844h-6.7v0.844h2.802
			c-0.199,0.688-1.337,1.461-3.26,1.769l0.608,0.75c1.274-0.172,2.702-0.854,3.21-1.552c0.537,0.576,1.803,1.399,3.209,1.552
			l0.609-0.75C553.768,106.333,553.09,105.418,552.959,104.997 M555.9,111.341c0-1.008-1.245-1.706-3.489-1.706
			c-2.233,0-3.499,0.698-3.499,1.706c0,0.999,1.266,1.717,3.499,1.717C554.655,113.058,555.9,112.34,555.9,111.341 M552.411,110.417
			c1.396,0,2.353,0.358,2.353,0.924c0,0.557-0.957,0.906-2.353,0.906c-1.415,0-2.362-0.36-2.362-0.917
			C550.049,110.754,550.996,110.417,552.411,110.417 M569.089,109.41v-0.833h-8.773v0.833h3.868v0.986h-2.841v0.842h5.632v1.657
			h0.988v-2.499h-2.742v-0.986H569.089z M566.498,103.712h-3.6v0.812h3.6V103.712z M565.291,105.963h2.76v-0.822h-6.699v0.822h2.763
			c-0.198,0.351-0.978,1.152-3.239,1.429l0.576,0.761c1.297-0.101,2.821-0.81,3.271-1.418c0.457,0.689,2.113,1.317,3.249,1.418
			l0.579-0.761C566.338,107.218,565.51,106.314,565.291,105.963 M575.466,112.473v-8.411h-0.967v3.075h-1.466v0.904h1.466v4.432
			H575.466z M577.311,103.845h-0.967v9.05h0.967V103.845z M570.999,105.788v0.32c0,0.885-0.109,3.147-2.134,4.679l0.809,0.617
			c0.767-0.679,1.605-1.82,1.843-2.735c0.229,0.843,1.157,2.057,1.765,2.499l0.709-0.646c-1.795-1.38-1.943-3.509-1.943-4.413v-0.32
			h1.514v-0.874h-4.096v0.874H570.999z M588.975,107.197v-0.863h-5.604v-1.328h5.503v-0.861h-6.501v3.053H588.975z M590.01,107.959
			h-8.773v0.864h8.773V107.959z M585.623,109.44c-2.232,0-3.479,0.73-3.479,1.809c0,1.07,1.246,1.801,3.479,1.801
			c2.244,0,3.48-0.73,3.48-1.801C589.104,110.17,587.867,109.44,585.623,109.44 M587.986,111.249c0,0.639-0.958,0.978-2.363,0.978
			c-1.426,0-2.363-0.35-2.363-0.978c0-0.648,0.938-1.007,2.363-1.007C587.028,110.242,587.986,110.6,587.986,111.249
			 M594.252,103.775c-2.201,0-3.369,0.709-3.369,1.654c0,0.956,1.168,1.635,3.369,1.635c2.215,0,3.361-0.689,3.361-1.646
			C597.613,104.502,596.467,103.775,594.252,103.775 M598.64,107.669h-8.774v0.793h8.774V107.669z M596.496,105.429
			c0,0.494-0.848,0.885-2.225,0.885c-1.404,0-2.271-0.391-2.271-0.896s0.816-0.875,2.242-0.875
			C595.64,104.543,596.496,104.924,596.496,105.429 M597.723,112.792v-0.782h-5.662v-0.7h5.443v-2.179h-6.502v0.771h5.435v0.657
			h-5.435v2.232H597.723z"/>
		<path fill="#737070" d="M435.926,124.363c-2.264,0-3.529,0.657-3.529,1.584c0,0.926,1.295,1.615,3.529,1.615
			c2.243,0,3.529-0.659,3.529-1.586C439.455,125.05,438.169,124.363,435.926,124.363 M438.328,125.958
			c0,0.505-0.997,0.812-2.402,0.812c-1.426,0-2.402-0.339-2.402-0.833c0-0.514,0.986-0.761,2.411-0.761
			C437.331,125.175,438.328,125.442,438.328,125.958 M440.312,123.901v-0.836h-3.838v-0.779h2.803v-0.834h-5.594v-0.627h5.493
			v-0.802h-5.493v-0.638h5.514v-0.823h-6.521v3.724h2.691v0.779h-3.828v0.836H440.312z M444.026,119.076h-2.452v0.813h2.452V119.076
			z M445.104,120.691h-4.586v0.823h4.586V120.691z M448.623,127.418v-9.052h-0.967v3.663h-0.977v-3.457h-0.968v8.433h0.968v-3.989
			h0.977v4.402H448.623z M444.854,124.035c0-1.133-0.877-1.894-2.035-1.894c-1.104,0-2.031,0.752-2.031,1.894
			c0,1.182,0.927,1.912,2.031,1.912C443.986,125.947,444.854,125.206,444.854,124.035 M441.744,124.053c0-0.668,0.429-1.1,1.074-1.1
			c0.66,0,1.068,0.432,1.068,1.092c0,0.668-0.418,1.078-1.068,1.078C442.182,125.124,441.744,124.713,441.744,124.053
			 M461.542,118.367h-0.996v9.052h0.996V118.367z M459.469,124.825c-1.685-0.967-2.303-2.469-2.303-3.927v-0.68h1.994v-0.896h-5.085
			v0.896h1.983v0.68c0,1.49-0.578,3.123-2.592,4.299l0.816,0.698c0.898-0.608,1.945-1.605,2.323-2.816
			c0.271,0.935,1.406,2.015,2.175,2.539L459.469,124.825z M470.899,122.861v-0.863h-1.483c0.119-0.483,0.457-1.771,0.526-3.259
			h-6.81v0.863h5.664c-0.07,0.823-0.3,1.934-0.399,2.396h-6.271v0.863H470.899z M469.763,123.869h-6.499v3.446h6.499V123.869z
			 M468.737,126.462h-4.458v-1.738h4.458V126.462z M474.207,119.486h-2.674v0.866h1.596c-0.07,1.192-0.449,3.436-2.242,4.823
			l0.856,0.423C473.658,123.983,474.217,121.02,474.207,119.486 M476.957,119.486h-2.401v0.866h1.325
			c-0.109,1.542-0.717,3.805-2.473,5.369l0.878,0.432C476.359,124.157,476.897,121.289,476.957,119.486 M477.845,118.367v9.052
			h0.997v-4.402h1.227v-0.926h-1.227v-3.724H477.845z M488.029,118.367h-0.997v9.052h0.997V118.367z M485.957,124.825
			c-1.686-0.967-2.305-2.469-2.305-3.927v-0.68h1.994v-0.896h-5.084v0.896h1.983v0.68c0,1.49-0.577,3.123-2.592,4.299l0.817,0.698
			c0.898-0.608,1.944-1.605,2.324-2.816c0.268,0.935,1.406,2.015,2.172,2.539L485.957,124.825z M500.342,127.418v-3.21h-6.371v0.863
			h5.363v2.347H500.342z M501.607,122.388v-0.863h-1.275v-1.092h1.275v-0.863h-1.275v-1.203h-0.998v5.317h0.998v-1.296H501.607z
			 M497.799,120.876c0-1.225-1.006-2.211-2.423-2.211c-1.415,0-2.433,0.986-2.433,2.211s1.018,2.221,2.433,2.221
			C496.793,123.097,497.799,122.101,497.799,120.876 M496.771,120.876c0,0.741-0.499,1.347-1.396,1.347
			c-0.897,0-1.405-0.605-1.405-1.347c0-0.73,0.508-1.337,1.405-1.337C496.272,119.54,496.771,120.146,496.771,120.876
			 M508.225,126.593l0.012-7.466h-0.68c-0.029,0.401-0.258,0.793-0.517,0.988c-0.359,0.256-0.769,0.38-1.228,0.391v0.739h1.535
			v5.348H508.225z M509.783,125.802v1.203h0.768c0,0.226-0.629,0.657-0.768,0.668l0.309,0.372c0.121-0.032,0.52-0.206,0.737-0.526
			c0.19-0.267,0.3-0.494,0.3-0.853v-0.864H509.783z M514.531,119.024c-1.705,0-2.592,1.554-2.592,3.826
			c0,2.282,0.887,3.859,2.592,3.859c1.704,0,2.621-1.577,2.621-3.859C517.152,120.578,516.235,119.024,514.531,119.024
			 M514.531,125.854c-1.029,0-1.576-1.307-1.576-3.004c0-1.705,0.547-2.981,1.576-2.981c1.057,0,1.575,1.276,1.575,2.981
			C516.106,124.547,515.588,125.854,514.531,125.854 M520.167,119.024c-1.704,0-2.592,1.554-2.592,3.826
			c0,2.282,0.888,3.859,2.592,3.859c1.706,0,2.623-1.577,2.623-3.859C522.79,120.578,521.873,119.024,520.167,119.024
			 M520.167,125.854c-1.026,0-1.574-1.307-1.574-3.004c0-1.705,0.548-2.981,1.574-2.981c1.058,0,1.575,1.276,1.575,2.981
			C521.742,124.547,521.225,125.854,520.167,125.854 M525.803,119.024c-1.703,0-2.59,1.554-2.59,3.826
			c0,2.282,0.887,3.859,2.59,3.859c1.707,0,2.624-1.577,2.624-3.859C528.427,120.578,527.51,119.024,525.803,119.024
			 M525.803,125.854c-1.025,0-1.574-1.307-1.574-3.004c0-1.705,0.549-2.981,1.574-2.981c1.059,0,1.576,1.276,1.576,2.981
			C527.379,124.547,526.861,125.854,525.803,125.854 M533.515,118.972h-4.366v4.372h4.366V118.972z M537.443,121.843v-0.896h-1.237
			v-2.58h-0.995v6.551h0.995v-3.074H537.443z M536.506,127.211v-0.865h-5.444v-2.024h-0.997v2.89H536.506z M532.527,122.481h-2.381
			v-2.643h2.381V122.481z M541.846,122.377c0,1.317-0.49,2.437-1.386,2.437c-0.888,0-1.406-1.119-1.406-2.437
			c0-1.286,0.519-2.425,1.406-2.425C541.355,119.953,541.846,121.083,541.846,122.377 M542.533,120.61
			c-0.38-0.988-1.106-1.564-2.085-1.564c-1.444,0-2.382,1.296-2.382,3.343c0,2.024,0.938,3.341,2.382,3.341
			c1.048,0,1.815-0.679,2.165-1.798h1.943v3.487h0.998v-9.052h-0.998v2.243H542.533z M542.803,123.016
			c0.021-0.206,0.03-0.413,0.03-0.628c0-0.309-0.021-0.597-0.06-0.874h1.783v1.502H542.803z M558.404,123.849v-5.482h-0.997v1.431
			h-2.034v-0.825h-4.268v4.146h4.268v-0.822h2.034v1.553H558.404z M557.407,121.462h-2.034v-0.844h2.034V121.462z M554.377,122.245
			h-2.273v-2.408h2.273V122.245z M558.464,125.75c0-1.059-1.146-1.83-3.34-1.83c-2.185,0-3.341,0.771-3.341,1.83
			c0,1.06,1.156,1.812,3.341,1.812C557.318,127.562,558.464,126.81,558.464,125.75 M557.398,125.75c0,0.608-0.908,0.986-2.274,0.986
			c-1.376,0-2.284-0.391-2.284-0.997c0-0.616,0.908-0.967,2.284-0.967C556.49,124.773,557.398,125.132,557.398,125.75
			 M567.443,118.367h-0.997v9.052h0.997V118.367z M566.088,125.379v-0.883c-0.859,0.092-2.443,0.185-3.98,0.206l-2.472,0.011v0.863
			l2.392-0.011C563.384,125.544,565.459,125.442,566.088,125.379 M562.588,118.902c-1.447,0-2.484,1.037-2.484,2.262
			c0,1.235,1.037,2.273,2.484,2.273c1.445,0,2.491-1.038,2.491-2.273C565.079,119.939,564.033,118.902,562.588,118.902
			 M564.053,121.164c0,0.763-0.539,1.399-1.465,1.399c-0.918,0-1.455-0.637-1.455-1.399c0-0.738,0.537-1.388,1.455-1.388
			C563.514,119.776,564.053,120.425,564.053,121.164 M580.951,122.832v-0.864h-1.507c0.29-0.833,0.519-2.707,0.55-3.229h-6.811
			v0.863h5.664c-0.081,0.831-0.319,1.975-0.41,2.365h-6.262v0.864h3.709v1.676h-2.682v0.863h5.604v2.048h1.027v-2.911h-2.912v-1.676
			H580.951z M585.512,125.072v-0.924c-0.359,0.071-1.266,0.193-1.744,0.204l-0.957,0.02v-5.12h-0.988v6.057l1.575-0.021
			C584.156,125.267,585.184,125.132,585.512,125.072 M589.121,127.418v-9.052h-0.967v3.457h-1.127v-3.251h-0.968v8.433h0.968v-4.267
			h1.127v4.68H589.121z M597.969,118.367h-0.995v9.052h0.995V118.367z M596.575,125.678v-0.905
			c-0.769,0.104-2.203,0.196-2.763,0.196v-1.738c1.188-0.204,1.984-1.101,1.984-2.159c0-1.081-1.037-2.222-2.512-2.222
			c-1.477,0-2.514,0.999-2.514,2.213c0,1.078,0.818,1.983,2.024,2.168v1.778h-2.622v0.875h3.012
			C594.311,125.884,595.957,125.75,596.575,125.678 M594.799,121.063c0,0.729-0.537,1.336-1.504,1.336s-1.516-0.607-1.516-1.336
			c0-0.732,0.537-1.339,1.506-1.339C594.252,119.724,594.799,120.331,594.799,121.063"/>
		<path fill="#737070" d="M439.365,140.334c0-1.017-1.136-1.769-3.311-1.769c-2.163,0-3.309,0.752-3.309,1.769
			c0,1.019,1.146,1.749,3.309,1.749C438.229,142.083,439.365,141.353,439.365,140.334 M438.289,140.345
			c0,0.557-0.908,0.937-2.234,0.937c-1.346,0-2.242-0.38-2.242-0.937c0-0.576,0.896-0.956,2.242-0.956
			C437.381,139.389,438.289,139.769,438.289,140.345 M440.344,136.068v-0.896h-1.207v-2.281h-0.997v5.45h0.997v-2.272H440.344z
			 M436.443,137.817v-4.525h-0.986v1.511h-2.383v-1.511h-0.996v4.525H436.443z M435.457,136.951h-2.383v-1.274h2.383V136.951z
			 M448.014,133.189h-6.508v3.311h6.508V133.189z M449.141,138.268v-0.854h-8.772v0.854h4.027v1.912h1.007v-1.912H449.141z
			 M448.254,141.733v-0.863h-5.732v-1.624h-1.016v2.487H448.254z M447.018,135.636h-4.517v-1.584h4.517V135.636z M457.342,138.319
			v-5.429h-0.966v2.303h-0.979v-2.148h-0.967v5.274h0.967v-2.188h0.979v2.188H457.342z M453.564,133.547h-3.63v0.864h2.474
			c-0.221,1.316-1.316,2.767-3.071,3.248l0.607,0.648C452.059,137.713,453.574,135.542,453.564,133.547 M457.313,141.939v-3.104
			h-6.511v0.864h5.514v2.24H457.313z M463.35,136.91c0-2.034-0.916-3.341-2.373-3.341c-1.444,0-2.393,1.296-2.393,3.341
			c0,2.026,0.948,3.343,2.393,3.343C462.434,140.252,463.35,138.927,463.35,136.91 M466.092,132.89h-0.996v9.049h0.996V132.89z
			 M462.373,136.899c0,1.317-0.498,2.438-1.385,2.438c-0.889,0-1.418-1.121-1.418-2.438c0-1.284,0.529-2.426,1.418-2.426
			C461.875,134.473,462.373,135.604,462.373,136.899 M478.771,138.544v-0.863h-8.773v0.863h3.867v3.395h1.037v-3.395H478.771z
			 M474.375,134.66c0.509,1.101,2.213,2.024,3.279,2.158l0.609-0.709c-2.881-0.649-3.352-2.108-3.352-2.757v-0.462h-1.057v0.462
			c0,0.648-0.578,2.222-3.35,2.757l0.608,0.709C472.431,136.5,473.927,135.728,474.375,134.66 M487.592,140.788v-0.863h-3.851
			v-1.964h2.822v-0.863H481v-2.512h5.484v-0.872h-6.47v4.247h2.7v1.964h-3.888v0.863H487.592z M494.506,136.714v-0.842
			c-0.34,0.06-1.018,0.122-1.574,0.154c0.129-0.524,0.328-1.461,0.387-2.675h-4.656v0.863h3.549
			c-0.039,0.557-0.178,1.47-0.258,1.872h-3.979v0.863h2.174v1.852h0.998v-1.86C492.063,136.942,493.698,136.839,494.506,136.714
			 M495.821,139.615v-6.725h-0.997v4.802h-2.074v0.863h2.074v1.06H495.821z M496.012,141.733v-0.863h-5.574v-1.697h-1.008v2.561
			H496.012z M500.703,134.011h-3.529v5.935h3.529V134.011z M504.571,141.939v-9.049h-0.968v3.466h-1.027v-3.26h-0.966v8.433h0.966
			v-4.166h1.027v4.576H504.571z M499.715,139.049h-1.555v-4.154h1.555V139.049z M513.28,132.89h-0.997v5.008h0.997V132.89z
			 M513.26,141.836v-3.477h-0.986v0.937h-4.287v-0.937h-0.998v3.477H513.26z M512.273,140.994h-4.287v-0.883h4.287V140.994z
			 M511.596,137.466v-0.814c-0.619,0.095-1.906,0.198-2.771,0.22L507,136.879v-0.926h3.458v-2.632h-4.456v0.823h3.459v1.026h-3.459
			v2.531l2.443-0.021C509.572,137.66,510.947,137.559,511.596,137.466 M522.389,132.89h-0.996v9.049h0.996V132.89z M520.314,139.348
			c-1.686-0.967-2.303-2.469-2.303-3.93v-0.679h1.994v-0.894h-5.084v0.894h1.984v0.679c0,1.491-0.58,3.126-2.594,4.3l0.818,0.7
			c0.896-0.608,1.944-1.605,2.322-2.819c0.27,0.938,1.406,2.016,2.174,2.542L520.314,139.348z M533.942,140.334
			c0-1.017-1.137-1.769-3.312-1.769c-2.162,0-3.309,0.752-3.309,1.769c0,1.019,1.146,1.749,3.309,1.749
			C532.806,142.083,533.942,141.353,533.942,140.334 M532.865,140.345c0,0.557-0.907,0.937-2.234,0.937
			c-1.346,0-2.242-0.38-2.242-0.937c0-0.576,0.896-0.956,2.242-0.956C531.958,139.389,532.865,139.769,532.865,140.345
			 M534.918,136.068v-0.896h-1.205v-2.281h-0.997v5.45h0.997v-2.272H534.918z M531.021,137.817v-4.525h-0.987v1.511h-2.383v-1.511
			h-0.996v4.525H531.021z M530.033,136.951h-2.383v-1.274h2.383V136.951z M542.592,133.189h-6.511v3.311h6.511V133.189z
			 M543.719,138.268v-0.854h-8.774v0.854h4.028v1.912h1.007v-1.912H543.719z M542.831,141.733v-0.863h-5.733v-1.624h-1.017v2.487
			H542.831z M541.594,135.636h-4.516v-1.584h4.516V135.636z"/>
	</g>
	<g>
		<path fill="#737070" d="M171.203,373.542c0-1.038-1.137-1.769-3.352-1.769c-2.202,0-3.348,0.73-3.348,1.769
			c0,1.048,1.146,1.77,3.348,1.77C170.066,375.312,171.203,374.59,171.203,373.542 M172.239,376.082h-8.774v0.863h8.774V376.082z
			 M171.104,377.749h-6.501v3.023h6.501V377.749z M170.156,373.553c0,0.573-0.918,0.985-2.305,0.985
			c-1.404,0-2.313-0.412-2.313-0.996c0-0.598,0.888-0.988,2.313-0.988C169.258,372.554,170.156,372.956,170.156,373.553
			 M170.106,379.908H165.6v-1.295h4.507V379.908z M179.844,380.875h0.936v-9.049h-0.936V380.875z M178.976,380.454v-8.422h-0.938
			v2.415H177v0.853h1.038v1.062H177v0.851h1.038v3.242H178.976z M177.09,372.884h-4.188v0.895h4.188V372.884z M177.379,378.797
			v-0.872c-0.438,0.06-0.638,0.081-0.997,0.101l0.169-3.856h-0.985l-0.159,3.899c-0.449,0.009-0.141,0.009-0.768,0.02l-0.14-3.919
			h-0.997l0.168,3.919h-0.967v0.885l2.813-0.032C176.263,378.932,176.703,378.881,177.379,378.797 M190.396,377.48v-0.863h-8.773
			v0.863h3.868v3.395h1.036v-3.395H190.396z M186,373.593c0.508,1.101,2.213,2.026,3.279,2.159l0.609-0.709
			c-2.883-0.648-3.351-2.107-3.351-2.756v-0.462h-1.056v0.462c0,0.648-0.579,2.222-3.352,2.756l0.608,0.709
			C184.055,375.435,185.551,374.664,186,373.593 M194.209,376.021c0,1.378-0.396,2.458-1.036,2.458c-0.667,0-1.056-1.08-1.056-2.458
			c0-1.379,0.389-2.449,1.056-2.449C193.813,373.572,194.209,374.653,194.209,376.021 M195.179,375.476
			c-0.141-1.728-0.928-2.807-2.015-2.807c-1.176,0-2.033,1.294-2.033,3.36c0,2.078,0.857,3.354,2.033,3.354
			c1.117,0,1.924-1.121,2.023-2.951h0.928v4.032h0.966v-8.433h-0.966v3.444H195.179z M198.896,371.826h-0.967v9.049h0.967V371.826z
			 M207.887,380.875v-9.049h-0.998v3.014h-1.965v0.905h1.965v5.13H207.887z M205.902,378.387c-1.646-1.01-2.504-2.377-2.504-4.63
			v-1.429h-1.047v1.429c0,2.221-0.777,3.858-2.621,4.906l0.797,0.647c0.857-0.503,2.074-1.891,2.354-2.898
			c0.469,1.11,1.574,2.363,2.354,2.713L205.902,378.387z M222.24,374.601v-0.863h-1.246v-1.912h-0.996v4.75h0.996v-1.975H222.24z
			 M218.303,376.32v-4.114h-0.986v1.348h-2.383v-1.348h-0.998v4.114H218.303z M221.195,380.772v-0.813h-5.244v-0.679h5.043v-2.273
			h-6.091v0.823h5.026v0.668h-5.026v2.273H221.195z M217.316,375.484h-2.382v-1.087h2.382V375.484z M230.831,377.377v-5.552h-0.966
			v2.17h-1.038v-2.016h-0.967v5.038h0.967v-2.107h1.038v2.467H230.831z M230.871,379.199c0-1.059-1.166-1.83-3.41-1.83
			c-2.232,0-3.408,0.771-3.408,1.83c0,1.06,1.176,1.82,3.408,1.82C229.705,381.019,230.871,380.258,230.871,379.199
			 M229.806,379.208c0,0.608-0.948,0.988-2.335,0.988c-1.416,0-2.361-0.391-2.361-0.997c0-0.616,0.945-0.988,2.361-0.988
			C228.857,378.21,229.806,378.591,229.806,379.208 M227.562,376.062c-1.625-0.812-1.954-2.305-1.954-3.158v-0.801h-1.049v0.801
			c0,0.854-0.277,2.408-2.093,3.509l0.788,0.648c0.828-0.559,1.656-1.474,1.834-2.131c0.389,0.73,1.207,1.572,1.846,1.862
			L227.562,376.062z M235.973,372.268h-2.892v0.863h2.892V372.268z M237.259,373.933h-5.474v0.885h5.474V373.933z M238.226,371.826
			v9.049h0.997v-4.442h1.326v-0.935h-1.326v-3.672H238.226z M236.949,377.534c0-1.121-0.987-2.077-2.393-2.077
			c-1.456,0-2.442,0.967-2.442,2.077c0,1.101,0.996,2.107,2.432,2.107C235.962,379.641,236.949,378.602,236.949,377.534
			 M235.932,377.542c0,0.638-0.518,1.214-1.375,1.214c-0.887,0-1.396-0.576-1.396-1.214c0-0.646,0.51-1.223,1.396-1.223
			C235.414,376.32,235.932,376.885,235.932,377.542 M248.391,375.115v-0.863h-5.623v-2.385h-0.997v3.248H248.391z M249.407,376.247
			h-8.773v0.864h8.773V376.247z M248.57,380.668v-0.863h-5.803v-1.88h-0.997v2.743H248.57z M259.256,378.982v-6.345h-0.996v2.148
			h-2.423v-2.148h-0.997v6.345H259.256z M263.055,376.155v-0.926h-1.256v-3.403h-0.996v9.049h0.996v-4.72H263.055z M258.26,378.108
			h-2.423v-2.426h2.423V378.108z M268.654,375.847c0-2.039-0.917-3.343-2.373-3.343c-1.445,0-2.393,1.296-2.393,3.343
			c0,2.024,0.947,3.341,2.393,3.341C267.737,379.188,268.654,377.863,268.654,375.847 M271.396,371.826h-0.997v9.049h0.997V371.826z
			 M267.678,375.834c0,1.317-0.5,2.438-1.386,2.438c-0.888,0-1.417-1.121-1.417-2.438c0-1.285,0.529-2.425,1.417-2.425
			C267.178,373.41,267.678,374.539,267.678,375.834 M279.168,374.601c0,0.915-1.066,1.472-2.373,1.472
			c-1.305,0-2.373-0.557-2.373-1.472c0-0.937,1.068-1.472,2.373-1.472C278.112,373.129,279.168,373.665,279.168,374.601
			 M277.305,376.958c1.794-0.155,2.912-1.111,2.912-2.368c0-1.377-1.307-2.365-3.422-2.365c-2.103,0-3.419,0.999-3.419,2.365
			c0,1.257,1.096,2.213,2.901,2.368v1.901h-3.869v0.863h8.775v-0.863h-3.879V376.958z M286.514,372.844h-4.299v0.863h3.151
			c-0.11,1.377-1.057,3.772-3.679,4.986l0.746,0.608C285.207,377.985,286.502,374.982,286.514,372.844 M288.086,371.826v9.049h0.998
			v-4.402h1.347v-0.915h-1.347v-3.731H288.086z M299.34,378.674h-8.773v0.864h8.773V378.674z M294.953,374.664
			c0.439,0.997,1.885,2.322,3.229,2.725l0.7-0.75c-2.894-1.01-3.402-2.83-3.402-3.683v-0.627h-1.057v0.627
			c0,0.853-0.396,2.632-3.398,3.683l0.698,0.75C293.027,376.986,294.564,375.774,294.953,374.664 M308.419,376.03h-8.774v0.784
			h8.774V376.03z M300.781,375.383h6.602v-0.75h-5.535v-0.589h5.344v-2.013h-6.41v0.75h5.324v0.575h-5.324V375.383z
			 M307.383,380.772v-0.752h-5.535v-0.585h5.334v-2.015h-6.4v0.752h5.334v0.573h-5.334v2.026H307.383z M318.586,375.847
			c0-2.039-0.916-3.343-2.373-3.343c-1.445,0-2.392,1.296-2.392,3.343c0,2.024,0.946,3.341,2.392,3.341
			C317.67,379.188,318.586,377.863,318.586,375.847 M321.328,371.826h-0.997v9.049h0.997V371.826z M317.609,375.834
			c0,1.317-0.498,2.438-1.387,2.438c-0.887,0-1.415-1.121-1.415-2.438c0-1.285,0.528-2.425,1.415-2.425
			C317.111,373.41,317.609,374.539,317.609,375.834 M331.114,376.986v-0.863h-2.323v-1.16c0.889-0.31,1.348-0.825,1.348-1.441
			c0-0.997-1.178-1.747-3.41-1.747c-2.225,0-3.401,0.739-3.401,1.738c0,0.614,0.46,1.141,1.356,1.45v1.16h-2.343v0.863H331.114z
			 M329.08,373.521c0,0.534-0.957,0.947-2.352,0.947c-1.428,0-2.332-0.442-2.332-0.976c0-0.548,0.887-0.979,2.332-0.979
			C328.145,372.513,329.08,372.977,329.08,373.521 M327.785,376.123h-2.094v-0.956c0.31,0.052,0.658,0.073,1.037,0.073
			c0.389,0,0.747-0.021,1.057-0.073V376.123z M330.219,379.324c0-1.008-1.248-1.708-3.49-1.708c-2.234,0-3.5,0.7-3.5,1.708
			c0,0.994,1.266,1.717,3.5,1.717C328.971,381.041,330.219,380.318,330.219,379.324 M326.729,378.398
			c1.395,0,2.352,0.358,2.352,0.926c0,0.554-0.957,0.902-2.352,0.902c-1.416,0-2.363-0.359-2.363-0.915
			C324.365,378.735,325.313,378.398,326.729,378.398"/>
		<path fill="#737070" d="M167.883,386.79h-2.893v0.863h2.893V386.79z M169.168,388.457h-5.473v0.883h5.473V388.457z
			 M170.136,386.347v9.049h0.997v-4.443h1.326v-0.935h-1.326v-3.671H170.136z M168.859,392.055c0-1.121-0.986-2.077-2.393-2.077
			c-1.455,0-2.443,0.969-2.443,2.077c0,1.1,0.997,2.107,2.435,2.107C167.873,394.163,168.859,393.123,168.859,392.055
			 M167.842,392.064c0,0.638-0.518,1.214-1.375,1.214c-0.889,0-1.396-0.576-1.396-1.214c0-0.646,0.508-1.221,1.396-1.221
			C167.324,390.843,167.842,391.407,167.842,392.064 M176.453,390.358c0,1.314-0.489,2.437-1.387,2.437
			c-0.887,0-1.405-1.122-1.405-2.437c0-1.285,0.519-2.428,1.405-2.428C175.964,387.93,176.453,389.062,176.453,390.358
			 M177.14,388.587c-0.378-0.986-1.106-1.562-2.083-1.562c-1.445,0-2.383,1.298-2.383,3.343c0,2.026,0.938,3.343,2.383,3.343
			c1.047,0,1.814-0.681,2.163-1.802h1.944v3.486h0.998v-9.049h-0.998v2.24H177.14z M177.41,390.996
			c0.02-0.204,0.029-0.412,0.029-0.627c0-0.31-0.02-0.598-0.061-0.874h1.785v1.501H177.41z M189.68,390.781v-0.844
			c-0.678,0.144-1.952,0.296-3.141,0.317l-1.185,0.021v-3.549h-0.997v4.413l2.173-0.021
			C187.855,391.099,189.103,390.913,189.68,390.781 M190.368,386.347v6.55h0.997v-3.186h1.256v-0.866h-1.256v-2.498H190.368z
			 M191.624,395.192v-0.863h-5.353v-2.173h-0.998v3.036H191.624z M200.225,393.793c0-1.021-1.137-1.771-3.311-1.771
			c-2.164,0-3.311,0.75-3.311,1.771c0,1.019,1.146,1.749,3.311,1.749C199.088,395.542,200.225,394.812,200.225,393.793
			 M199.148,393.802c0,0.556-0.908,0.937-2.234,0.937c-1.346,0-2.244-0.381-2.244-0.937c0-0.576,0.898-0.954,2.244-0.954
			C198.24,392.848,199.148,393.226,199.148,393.802 M201.201,389.524v-0.894h-1.206v-2.283h-0.997v5.45h0.997v-2.273H201.201z
			 M197.303,391.273v-4.524h-0.986v1.511h-2.383v-1.511h-0.998v4.524H197.303z M196.316,390.41h-2.383v-1.276h2.383V390.41z
			 M205.444,386.79h-2.89v0.863h2.89V386.79z M206.73,388.457h-5.473v0.883h5.473V388.457z M207.698,386.347v9.049h0.995v-4.443
			h1.328v-0.935h-1.328v-3.671H207.698z M206.421,392.055c0-1.121-0.987-2.077-2.392-2.077c-1.457,0-2.443,0.969-2.443,2.077
			c0,1.1,0.996,2.107,2.433,2.107C205.434,394.163,206.421,393.123,206.421,392.055 M205.404,392.064
			c0,0.638-0.519,1.214-1.375,1.214c-0.889,0-1.396-0.576-1.396-1.214c0-0.646,0.508-1.221,1.396-1.221
			C204.886,390.843,205.404,391.407,205.404,392.064 M217.414,389.638v-0.863h-5.623v-2.388h-0.997v3.251H217.414z M218.431,390.77
			h-8.776v0.864h8.776V390.77z M217.594,395.192v-0.863h-5.803v-1.883h-0.997v2.746H217.594z M230.104,391.881v-0.875h-3.879v-0.926
			c1.905-0.113,2.841-0.874,2.841-1.893c0-1.089-1.126-1.903-3.349-1.903c-2.193,0-3.34,0.814-3.34,1.903
			c0,1.019,0.937,1.779,2.821,1.893v0.926h-3.868v0.875H230.104z M229.236,395.192v-0.863h-5.773v-1.646h-0.997v2.51H229.236z
			 M228.01,388.199c0,0.627-0.908,1.121-2.293,1.121c-1.396,0-2.304-0.485-2.304-1.132c0-0.616,0.907-1.103,2.304-1.103
			C227.112,387.085,228.01,387.561,228.01,388.199 M238.025,386.347h-0.998v4.741h0.998V386.347z M238.185,395.295v-0.793h-5.403
			v-0.72h5.215V391.5h-6.302v0.791h5.255v0.739h-5.215v2.265H238.185z M235.951,389.957c-2.014-0.771-2.392-1.953-2.392-2.653
			v-0.709h-1.047v0.709c0,0.803-0.53,2.242-2.493,2.992l0.697,0.732c1.018-0.483,2.014-1.227,2.313-2.047
			c0.49,0.82,1.656,1.491,2.344,1.738L235.951,389.957z M242.098,390.544c0,1.375-0.398,2.456-1.036,2.456
			c-0.667,0-1.056-1.081-1.056-2.456c0-1.379,0.389-2.451,1.056-2.451C241.699,388.093,242.098,389.176,242.098,390.544
			 M243.066,389.997c-0.142-1.725-0.928-2.806-2.016-2.806c-1.176,0-2.033,1.294-2.033,3.362c0,2.075,0.857,3.352,2.033,3.352
			c1.117,0,1.926-1.119,2.024-2.952h0.928v4.033h0.968v-8.433h-0.968v3.443H243.066z M246.784,386.347h-0.966v9.049h0.966V386.347z
			 M255.324,395.396v-9.049h-0.998v3.014h-1.962v0.904h1.962v5.131H255.324z M253.34,392.911c-1.645-1.008-2.503-2.377-2.503-4.63
			v-1.429h-1.046v1.429c0,2.221-0.777,3.856-2.623,4.904l0.798,0.649c0.858-0.505,2.073-1.894,2.354-2.9
			c0.467,1.11,1.573,2.365,2.352,2.715L253.34,392.911z M267.136,386.347h-0.997v9.049h0.997V386.347z M265.063,392.805
			c-1.685-0.967-2.303-2.467-2.303-3.928v-0.679h1.994v-0.896h-5.086v0.896h1.984v0.679c0,1.491-0.578,3.126-2.592,4.297l0.818,0.7
			c0.897-0.607,1.943-1.604,2.322-2.818c0.27,0.937,1.406,2.018,2.174,2.542L265.063,392.805z M271.778,388.856
			c0,0.739-0.499,1.348-1.397,1.348c-0.896,0-1.404-0.608-1.404-1.348c0-0.73,0.508-1.336,1.404-1.336
			C271.279,387.52,271.778,388.125,271.778,388.856 M272.307,387.488c-0.428-0.514-1.107-0.843-1.926-0.843
			c-1.414,0-2.431,0.986-2.431,2.211s1.017,2.222,2.431,2.222c0.828,0,1.526-0.351,1.955-0.874h2.254v1.439h0.996v-5.296h-0.996
			v1.141H272.307z M272.756,389.339c0.029-0.154,0.05-0.317,0.05-0.483c0-0.174-0.021-0.339-0.062-0.503h1.846v0.986H272.756z
			 M275.576,395.396v-3.229h-6.479v0.864h5.492v2.365H275.576z M281.066,387.561h2.821v-0.864h-6.7v0.864h2.822
			c-0.131,0.554-0.988,1.841-3.32,2.356l0.668,0.729c1.505-0.359,2.642-1.173,3.18-1.985c0.538,0.855,1.964,1.697,3.181,1.985
			l0.669-0.729C282.014,389.339,281.195,388.115,281.066,387.561 M284.924,392.25v-0.853h-8.773v0.853h3.889v3.146h0.996v-3.146
			H284.924z M292.767,386.347h-0.997v6.55h0.997V386.347z M292.977,395.192v-0.863h-5.465V392.3h-1.027v2.892H292.977z
			 M289.835,386.955h-4.367v4.37h4.367V386.955z M288.848,390.461h-2.383v-2.643h2.383V390.461z M301.146,389.35v-0.822h-5.582
			v-1.06h5.482v-0.823h-6.5v2.705H301.146z M302.184,390.04h-8.772v0.804h8.772V390.04z M301.266,395.295v-0.793h-5.643v-0.709
			h5.424v-2.241h-6.5v0.78h5.414v0.709h-5.414v2.254H301.266z M307.363,390.369c0-2.037-0.916-3.343-2.372-3.343
			c-1.446,0-2.394,1.298-2.394,3.343c0,2.026,0.947,3.343,2.394,3.343C306.447,393.711,307.363,392.384,307.363,390.369
			 M310.105,386.347h-0.996v9.049h0.996V386.347z M306.387,390.358c0,1.314-0.5,2.437-1.387,2.437c-0.888,0-1.415-1.122-1.415-2.437
			c0-1.285,0.527-2.428,1.415-2.428C305.887,387.93,306.387,389.062,306.387,390.358 M321.977,386.347h-0.996v5.431h0.996V386.347z
			 M321.947,395.396v-3.126h-6.471v0.863h5.473v2.263H321.947z M319.875,390.646c-1.396-0.535-2.335-1.285-2.335-2.653v-0.226h1.855
			v-0.866h-4.786v0.866h1.855v0.226c0,1.409-0.93,2.354-2.465,2.96l0.699,0.72c0.738-0.285,1.984-1.171,2.292-1.974
			c0.628,0.846,1.606,1.544,2.304,1.729L319.875,390.646z M329.579,394.472h-4.366v-1.078h4.366V394.472z M330.577,395.295v-3.634
			h-0.998v0.918h-4.366v-0.918h-0.996v3.634H330.577z M330.588,391.221v-4.874h-0.998v2.066h-1.766v0.866h1.766v1.941H330.588z
			 M328.414,390.265c-1.626-0.442-2.342-1.925-2.342-2.335v-0.185h1.863v-0.854h-4.785v0.854h1.864v0.185
			c0,0.432-0.39,1.79-2.464,2.632l0.699,0.722c1.027-0.38,1.884-1.225,2.292-1.985c0.299,0.72,1.585,1.493,2.272,1.758
			L328.414,390.265z"/>
		<path fill="#737070" d="M171.502,409.919v-3.178h-6.45v0.864h5.462v2.313H171.502z M171.531,400.871h-0.996v5.461h0.996V400.871z
			 M169.467,405.044c-2.063-0.79-2.411-2.262-2.411-3.074v-0.855h-1.047v0.855c0,0.863-0.321,2.428-2.514,3.446l0.728,0.677
			c0.869-0.442,1.936-1.429,2.313-2.314c0.369,0.73,1.396,1.657,2.346,2.048L169.467,405.044z M178.934,403.091h-4.504v-1.11h4.504
			V403.091z M179.932,401.167h-6.5v2.727h6.5V401.167z M176.164,406.156h-2.732v0.773h5.434v0.657h-5.434v2.229h6.719v-0.779h-5.662
			v-0.7h5.443v-2.181H177.2v-0.791h3.867v-0.793h-8.772v0.793h3.869V406.156z M185.51,400.797c-2.201,0-3.368,0.709-3.368,1.656
			c0,0.956,1.167,1.635,3.368,1.635c2.215,0,3.359-0.688,3.359-1.646C188.869,401.53,187.725,400.797,185.51,400.797
			 M189.896,404.695h-8.772v0.79h8.772V404.695z M187.754,402.454c0,0.494-0.848,0.885-2.223,0.885
			c-1.406,0-2.273-0.391-2.273-0.896c0-0.503,0.816-0.874,2.243-0.874C186.896,401.569,187.754,401.949,187.754,402.454
			 M188.98,409.816v-0.779h-5.664v-0.7h5.445v-2.181h-6.501v0.773h5.433v0.657h-5.433v2.229H188.98z M201.87,400.871h-0.997v9.049
			h0.997V400.871z M197.713,404.151c-0.32,0.03-0.668,0.052-0.918,0.071c-0.627,0.051-2.202,0.051-2.283,0.051v0.813
			c0.069,0,1.436,0,2.133-0.052c0.209-0.011,0.48-0.041,0.699-0.07c-0.628,1.13-1.754,2.303-3.061,2.908l0.746,0.608
			c2.992-1.45,4.078-4.351,4.119-6.592h-4.338v0.864h3.191C197.973,403.132,197.882,403.667,197.713,404.151 M210.359,402.926
			c0-1.151-1.235-2.005-3.418-2.005c-2.175,0-3.42,0.854-3.42,2.005c0,1.162,1.256,2.005,3.428,2.005
			C209.134,404.931,210.359,404.088,210.359,402.926 M211.328,406.834v-0.864h-8.773v0.864h3.887v3.085h0.998v-3.085H211.328z
			 M206.941,401.743c1.375,0,2.342,0.496,2.342,1.205c0,0.688-0.986,1.162-2.342,1.162c-1.377,0-2.363-0.483-2.363-1.184
			C204.578,402.215,205.545,401.743,206.941,401.743 M215.4,407.123h-2.174v-4.289h2.174V407.123z M216.396,403.277v-1.307h-4.167
			v6.018h4.167v-1.563h1.885v3.495h0.997v-9.049h-0.997v2.406H216.396z M216.396,404.138h1.887v1.42h-1.887V404.138z
			 M220.76,408.306v1.203h0.769c0,0.226-0.628,0.657-0.769,0.666l0.31,0.369c0.119-0.027,0.519-0.204,0.736-0.521
			c0.19-0.269,0.3-0.494,0.3-0.854v-0.863H220.76z M234.752,400.871h-0.998v9.049h0.998V400.871z M232.678,407.329
			c-1.684-0.969-2.303-2.469-2.303-3.928v-0.681h1.994v-0.894h-5.086v0.894h1.986v0.681c0,1.489-0.58,3.126-2.594,4.297l0.816,0.7
			c0.898-0.607,1.945-1.604,2.324-2.818c0.27,0.937,1.405,2.016,2.176,2.539L232.678,407.329z M239.593,403.379
			c0,0.739-0.499,1.348-1.396,1.348s-1.406-0.608-1.406-1.348c0-0.73,0.51-1.336,1.406-1.336S239.593,402.649,239.593,403.379
			 M240.123,402.011c-0.432-0.514-1.108-0.845-1.926-0.845c-1.416,0-2.434,0.988-2.434,2.213c0,1.223,1.018,2.22,2.434,2.22
			c0.827,0,1.525-0.351,1.953-0.872h2.254v1.439h0.997v-5.296h-0.997v1.141H240.123z M240.57,403.863
			c0.029-0.154,0.051-0.317,0.051-0.483c0-0.176-0.021-0.339-0.061-0.505h1.844v0.988H240.57z M243.392,409.919v-3.229h-6.481v0.864
			h5.494v2.365H243.392z M249.079,402.084h2.821v-0.864h-6.698v0.864h2.821c-0.13,0.556-0.987,1.839-3.32,2.353l0.668,0.73
			c1.506-0.357,2.643-1.171,3.182-1.985c0.538,0.853,1.963,1.697,3.18,1.985l0.667-0.73
			C250.027,403.863,249.211,402.64,249.079,402.084 M252.938,406.774v-0.853h-8.774v0.853h3.889v3.146h0.998v-3.146H252.938z
			 M260.979,400.871h-0.997v6.55h0.997V400.871z M261.189,409.713v-0.864h-5.463v-2.023h-1.027v2.888H261.189z M258.049,401.476
			h-4.365v4.37h4.365V401.476z M257.063,404.982h-2.383v-2.643h2.383V404.982z M273.72,400.871h-0.997v4.771h0.997V400.871z
			 M273.949,409.816v-0.801h-5.455v-0.7h5.217v-2.273h-6.333v0.804h5.235v0.698h-5.235v2.272H273.949z M270.818,403.247
			c0-1.257-1.127-2.1-2.363-2.1c-1.246,0-2.361,0.843-2.361,2.1c0,1.263,1.135,2.107,2.361,2.107
			C269.691,405.354,270.818,404.501,270.818,403.247 M269.813,403.225c0,0.668-0.649,1.212-1.357,1.212
			c-0.707,0-1.355-0.544-1.355-1.212c0-0.649,0.648-1.182,1.355-1.182C269.163,402.043,269.813,402.565,269.813,403.225
			 M280.365,407.329c-2.023-1.173-2.303-3.074-2.303-3.928v-0.681h1.994v-0.894h-5.084v0.894h1.982v0.681
			c0,0.872-0.268,2.909-2.592,4.297l0.818,0.7c0.896-0.577,2.004-1.791,2.322-2.818c0.271,0.915,1.427,2.016,2.174,2.539
			L280.365,407.329z M281.174,400.871v9.049h0.997v-4.546h1.306v-0.937h-1.306v-3.566H281.174z M291.18,400.871h-0.997v9.049h0.997
			V400.871z M289.613,407.861v-0.853c-0.568,0.104-1.824,0.217-2.701,0.236l-1.836,0.011v-1.934h3.291v-3.579h-4.287v0.874h3.299
			v1.842h-3.299v3.671l2.523-0.021C287.709,408.089,289.015,407.956,289.613,407.861 M302.394,409.5v-8.415h-0.967v3.074h-1.466
			v0.906h1.466v4.435H302.394z M304.237,400.871h-0.968v9.049h0.968V400.871z M297.928,402.812v0.32c0,0.883-0.111,3.146-2.135,4.68
			l0.809,0.616c0.766-0.679,1.604-1.821,1.844-2.734c0.229,0.842,1.158,2.056,1.765,2.498l0.708-0.648
			c-1.795-1.377-1.944-3.509-1.944-4.411v-0.32h1.516v-0.872h-4.097v0.872H297.928z M313.477,405.753v-0.853h-4.478v-1.728h-1.017
			v1.728h-3.28v0.853H313.477z M312.578,408.233c0-1.06-1.256-1.819-3.498-1.819c-2.225,0-3.482,0.76-3.482,1.819
			c0,1.07,1.258,1.83,3.49,1.83C311.331,410.063,312.578,409.303,312.578,408.233 M309.088,407.236c1.406,0,2.403,0.359,2.403,0.986
			c0,0.679-0.997,1.029-2.403,1.029c-1.426,0-2.401-0.351-2.401-1.029C306.687,407.595,307.662,407.236,309.088,407.236
			 M312.52,401.24h-6.811v0.863h5.673c-0.091,0.845-0.429,2.179-0.449,2.254h1.019C312.22,403.524,312.509,402.011,312.52,401.24
			 M321.217,403.863c0-1.357-1.284-2.365-3.299-2.365c-1.986,0-3.301,1.019-3.301,2.365c0,1.348,1.307,2.365,3.301,2.365
			C319.911,406.228,321.217,405.221,321.217,403.863 M322.306,407.76h-8.774v0.863h8.774V407.76z M320.16,403.863
			c0,0.924-1.035,1.459-2.242,1.459s-2.244-0.535-2.244-1.459c0-0.947,1.047-1.461,2.244-1.461
			C319.125,402.402,320.16,402.916,320.16,403.863 M331.133,408.871v-0.865h-3.867v-1.407h2.803v-0.864h-5.494v-1.225h5.244v-2.971
			h-6.262v0.863h5.273v1.246h-5.254v2.95h2.642v1.407h-3.856v0.865H331.133z"/>
		<path fill="#737070" d="M167.852,418.107c0.439,0.997,1.885,2.325,3.23,2.727l0.699-0.752c-2.893-1.008-3.4-2.827-3.4-3.683v-0.72
			h-1.057v0.72c0,0.855-0.398,2.634-3.398,3.683l0.695,0.752C165.928,420.432,167.465,419.218,167.852,418.107 M172.238,423.319
			v-0.863h-3.906v-1.953h-0.979v1.953h-3.889v0.863H172.238z M180.042,418.827v-0.863h-5.622v-1.409h5.521v-0.864h-6.52v3.137
			H180.042z M181.068,419.774h-8.773v0.864h8.773V419.774z M179.941,424.441v-2.898h-6.62v0.863h5.624v2.035H179.941z
			 M193.04,419.65h-8.774v0.863h8.774V419.65z M188.653,421.07c-2.233,0-3.489,0.75-3.489,1.769c0,1.007,1.256,1.746,3.489,1.746
			c2.243,0,3.489-0.739,3.489-1.746C192.143,421.831,190.896,421.07,188.653,421.07 M191.036,422.838
			c0,0.566-0.977,0.956-2.383,0.956c-1.427,0-2.403-0.411-2.403-0.988c0-0.576,0.977-0.945,2.403-0.945
			C190.06,421.861,191.036,422.251,191.036,422.838 M189.201,416.543h2.801v-0.843h-6.699v0.843h2.803
			c-0.199,0.689-1.334,1.463-3.262,1.77l0.609,0.75c1.277-0.176,2.701-0.853,3.21-1.553c0.538,0.577,1.804,1.4,3.21,1.553
			l0.609-0.75C190.009,417.879,189.332,416.966,189.201,416.543 M197.602,422.284v-0.885c-0.318,0.049-0.997,0.111-1.615,0.122
			l-1.137,0.011v-4.145h2.145v-0.885h-3.131v5.944l1.755-0.02C196.715,422.406,197.303,422.333,197.602,422.284 M201.182,424.441
			v-9.05h-0.969v3.416h-1.125v-3.209h-0.967v8.433h0.967v-4.289h1.125v4.699H201.182z M210.123,415.917h-4.367v3.607h4.367V415.917z
			 M213.053,415.391h-0.997v5.215h0.997V415.391z M211.318,420.153h-3.281v0.773h3.281V420.153z M213.402,423.691
			c-1.406-0.133-2.672-0.791-3.03-1.429h2.672v-0.793h-6.571v0.793h2.703c-0.129,0.269-0.957,1.173-3.031,1.429l0.627,0.761
			c1.207-0.226,2.572-0.748,3.012-1.418c0.807,0.853,2.113,1.345,2.99,1.418L213.402,423.691z M209.135,418.694h-2.382v-1.936h2.382
			V418.694z M222.582,415.896h-4.914v0.864h3.838c-0.06,1.008-0.34,2.281-0.359,2.356h0.987
			C222.393,418.333,222.564,416.535,222.582,415.896 M225.951,419.167v-0.875h-1.225v-2.9h-0.998v6.687h0.998v-2.911H225.951z
			 M223.391,420.606v-0.845c-0.838,0.136-2.901,0.269-3.599,0.269v-1.972h-0.998v1.972h-1.715v0.864h1.157
			C220.43,420.894,222.144,420.76,223.391,420.606 M225.024,424.237v-0.864h-5.454v-1.8h-0.986v2.664H225.024z M232.27,424.031
			v-8.422h-0.967v1.995h-1.076v0.862h1.076v1.585h-1.287v0.864h1.287v3.115H232.27z M234.113,415.391h-0.967v9.05h0.967V415.391z
			 M230.176,416.543h-3.5v0.874h2.402c0.01,1.502-0.938,3.715-2.932,4.823l0.738,0.587
			C229.297,421.336,230.176,418.601,230.176,416.543 M242.066,416.543h-3.499v0.874h2.403c-0.061,0.834-0.379,3.311-2.931,4.823
			l0.736,0.587C241.27,421.244,242.066,418.612,242.066,416.543 M245.985,424.441v-9.05h-0.968v3.444h-1.025v-3.237h-0.969v8.433
			h0.969v-4.237h1.025v4.647H245.985z M254.785,421.942v-6.551h-0.988v1.975h-1.864v0.904h1.864v3.672H254.785z M255.014,424.237
			v-0.864h-5.473v-1.952h-0.998v2.816H255.014z M252.689,419.946c-2.142-0.945-2.432-2.754-2.432-3.566v-0.741h-1.047v0.741
			c0,0.813-0.09,2.653-2.501,3.835l0.696,0.669c1.077-0.565,1.994-1.48,2.324-2.469c0.348,0.844,1.454,1.873,2.322,2.265
			L252.689,419.946z"/>
		<path fill="#EAAA9C" d="M174.606,353.695v-1.223h-1.456v-1.1h1.456v-1.21h-1.456v-1.295h-1.362v6.277h1.362v-1.45H174.606z
			 M170.121,351.793c0-1.438-1.187-2.623-2.844-2.623c-1.654,0-2.84,1.186-2.84,2.623c0,1.439,1.186,2.604,2.84,2.604
			C168.935,354.397,170.121,353.233,170.121,351.793 M168.688,351.793c0,0.741-0.516,1.379-1.41,1.379
			c-0.879,0-1.408-0.638-1.408-1.379c0-0.737,0.529-1.39,1.408-1.39C168.172,350.404,168.688,351.056,168.688,351.793
			 M173.432,357.489c0-1.268-1.422-2.2-4.027-2.2c-2.596,0-4.004,0.933-4.004,2.2c0,1.259,1.408,2.179,4.004,2.179
			C172.01,359.667,173.432,358.748,173.432,357.489 M171.953,357.501c0,0.63-1.033,1.04-2.537,1.04
			c-1.515,0-2.561-0.434-2.561-1.053c0-0.638,1.046-1.063,2.561-1.063C170.92,356.425,171.953,356.862,171.953,357.501
			 M184.77,358.361v-1.22h-2.758v-2.286h1.373v-5.092h-7.551v5.092h1.42v2.286h-2.818v1.22H184.77z M182.021,353.645h-4.826v-2.661
			h4.826V353.645z M180.661,357.141h-2.044v-2.288h2.044V357.141z M195.157,355.519v-1.221h-4.45v-0.979
			c2.22-0.157,3.322-1.063,3.322-2.226c0-1.27-1.562-2.261-4.038-2.261c-2.491,0-4.028,0.991-4.028,2.261
			c0,1.139,1.092,2.068,3.299,2.226v0.979h-4.438v1.221H195.157z M194.205,359.268v-1.221h-6.67v-1.826h-1.42v3.047H194.205z
			 M192.504,351.106c0,0.604-0.987,1.113-2.513,1.113c-1.54,0-2.538-0.521-2.538-1.126c0-0.628,1.141-1.111,2.538-1.111
			C191.411,349.982,192.504,350.476,192.504,351.106 M204.793,348.868h-1.363v5.551h1.363V348.868z M205.027,359.39v-1.126
			l-6.27,0.014v-0.643l6.011-0.011v-2.782h-7.456v1.112h6v0.643h-6v2.793H205.027z M202.197,353.04
			c-0.574-0.193-1.126-0.494-1.725-1.003c-0.577-0.497-0.951-1.21-0.951-2.067v-0.836h-1.445v0.836c0,0.87-0.376,1.62-0.904,2.153
			c-0.646,0.65-1.326,1.039-1.914,1.306l0.963,0.993c0.388-0.196,0.939-0.497,1.492-0.945c0.492-0.4,0.881-0.811,1.092-1.244
			c0.305,0.385,0.645,0.711,1.079,1.037c0.577,0.426,1.08,0.666,1.515,0.825L202.197,353.04z M219.242,355.254v-6.387h-1.316v2.406
			h-1.033v-2.224h-1.315v5.839h1.315v-2.354h1.033v2.72H219.242z M219.299,357.515c0-1.257-1.397-2.153-4.086-2.153
			c-2.678,0-4.086,0.896-4.086,2.153c0,1.259,1.408,2.14,4.086,2.14C217.901,359.655,219.299,358.774,219.299,357.515
			 M215.225,356.548c1.516,0,2.561,0.337,2.561,0.978c0,0.631-1.057,0.981-2.561,0.981c-1.526,0-2.605-0.376-2.605-1.006
			C212.619,356.875,213.687,356.548,215.225,356.548 M215.201,353.875c-0.316-0.134-0.892-0.58-1.408-1.235
			c-0.482-0.614-0.74-1.487-0.74-2.587v-0.896h-1.443v0.896c0,1.1-0.247,1.887-0.718,2.576c-0.492,0.713-1.114,1.22-1.597,1.523
			l1.08,0.906c0.329-0.204,0.646-0.458,1.116-0.965c0.399-0.438,0.739-0.994,0.845-1.248c0.13,0.254,0.459,0.727,0.822,1.089
			c0.471,0.462,0.904,0.773,1.187,0.907L215.201,353.875z M226.622,353.949c-0.586-0.22-1.338-0.692-1.937-1.356
			c-0.589-0.652-0.811-1.499-0.811-2.356v-1.078h-1.445v1.078c0,0.883-0.175,1.704-0.844,2.514c-0.6,0.727-1.363,1.248-2.045,1.599
			l0.963,0.99c0.423-0.219,1.035-0.605,1.574-1.126c0.504-0.483,0.846-0.917,1.08-1.354c0.296,0.447,0.611,0.786,0.999,1.126
			c0.551,0.483,1.268,0.881,1.667,1.027L226.622,353.949z M230.355,353.222v-1.27h-1.42v-3.085h-1.362v7.693h1.362v-3.339H230.355z
			 M229.275,359.268v-1.221h-6.234v-2.105h-1.386v3.326H229.275z"/>
		<path fill="#737070" d="M319.75,266.848c0,0,1.961-6.813,7.584-8.647c5.627-1.839,6.176,4.151,5.081,5.369
			c0,0,5.545,3.391-0.415,7.272c0,0-4.323,2.537-11.617-2.217l5.858-2.931L319.75,266.848z M316.71,266.139
			c1.388,0,2.513,1.163,2.513,2.598c0,1.438-1.125,2.6-2.513,2.6c-1.387,0-2.512-1.162-2.512-2.6
			C314.198,267.302,315.323,266.139,316.71,266.139 M319.385,270.613c0,0,7.082-0.275,10.591,4.49
			c3.509,4.763-2.006,7.165-3.505,6.51c0,0-1.479,6.325-7.037,1.884c0,0-3.766-3.307-1.539-11.724l4.623,4.641L319.385,270.613z
			 M314.078,270.869c0,0-7.082-0.277-10.591,4.487c-3.509,4.766,2.005,7.168,3.505,6.51c0,0,1.479,6.327,7.035,1.887
			c0,0,3.768-3.309,1.541-11.724l-4.624,4.641L314.078,270.869z M313.879,266.707c0,0-1.961-6.811-7.586-8.647
			s-6.174,4.151-5.08,5.369c0,0-5.545,3.391,0.415,7.272c0,0,4.323,2.537,11.618-2.217l-5.858-2.931L313.879,266.707z
			 M315.871,265.752c0,0-5.867-3.979-5.867-9.896s5.863-4.58,6.682-3.162c0,0,4.943-4.218,6.784,2.653c0,0,1.071,4.896-5.714,10.355
			l-0.969-6.479L315.871,265.752z"/>
		<path fill="#737070" d="M193.637,307.278v-8.388c1.504,0.834,2.721-0.432,2.57-1.706c0.92,1.169,3.147,1.034,3.147-1.544
			c2.579,0,2.716-2.229,1.546-3.15c1.478,0.177,2.957-1.493,1.133-3.316c1.824-1.826,0.345-3.498-1.133-3.319
			c1.17-0.922,1.033-3.15-1.546-3.15c0-2.58-2.226-2.713-3.147-1.544c0.176-1.479-1.495-2.959-3.32-1.135
			c-1.822-1.824-3.493-0.346-3.318,1.135c-0.92-1.169-3.146-1.034-3.146,1.544c-2.581,0-2.717,2.229-1.546,3.15
			c-1.479-0.179-2.958,1.493-1.134,3.319c-1.824,1.823-0.346,3.493,1.134,3.316c-1.171,0.92-1.035,3.15,1.546,3.15
			c0,2.575,2.227,2.713,3.146,1.544c-0.151,1.278,1.078,2.553,2.594,1.693v8.437c-2.49-3.721-9.689-4.333-9.689-4.333
			c1.69,4.481,7.645,7.266,9.689,8.11v3.998c0,0.256,0.33,0.464,0.736,0.464c0.407,0,0.738-0.208,0.738-0.464v-4.009
			c2.064-0.853,7.98-3.635,9.664-8.1C203.301,302.981,196.147,303.591,193.637,307.278 M199.568,286.241
			c0.146,0.008,0.287,0.006,0.42-0.011c-0.105,0.083-0.208,0.18-0.302,0.29c-1.334,1.558-1.938,1.522-2.752,0.975
			C197.121,286.531,197.525,286.08,199.568,286.241 M199.686,291.822c0.095,0.112,0.197,0.209,0.303,0.29
			c-0.135-0.015-0.273-0.02-0.421-0.006c-2.042,0.156-2.446-0.295-2.634-1.257C197.748,290.298,198.353,290.264,199.686,291.822
			 M186.205,292.106c-0.146-0.014-0.285-0.009-0.42,0.006c0.107-0.081,0.209-0.178,0.305-0.29c1.332-1.558,1.936-1.523,2.75-0.973
			C188.653,291.811,188.25,292.262,186.205,292.106 M186.09,286.52c-0.096-0.11-0.197-0.207-0.303-0.29
			c0.133,0.017,0.272,0.019,0.419,0.011c2.044-0.161,2.447,0.29,2.636,1.254C188.025,288.042,187.422,288.078,186.09,286.52
			 M195.828,296.274c-0.082-0.107-0.178-0.209-0.29-0.304c-1.558-1.334-1.523-1.939-0.974-2.752
			c0.963,0.188,1.415,0.591,1.256,2.634C195.807,295.999,195.813,296.14,195.828,296.274 M195.538,282.374
			c0.112-0.095,0.208-0.196,0.29-0.304c-0.016,0.134-0.021,0.273-0.008,0.419c0.159,2.046-0.293,2.449-1.256,2.635
			C194.015,284.309,193.98,283.706,195.538,282.374 M195.832,289.218c0,1.556-1.209,2.825-2.738,2.933l-0.195-0.02l-0.199,0.02
			c-1.537-0.097-2.756-1.371-2.756-2.935c0-1.627,1.318-2.946,2.943-2.946C194.514,286.27,195.832,287.589,195.832,289.218
			 M189.946,282.07c0.083,0.107,0.18,0.209,0.29,0.304c1.559,1.332,1.525,1.938,0.975,2.75c-0.963-0.186-1.416-0.589-1.256-2.635
			C189.967,282.343,189.963,282.204,189.946,282.07 M190.236,295.968c-0.111,0.095-0.207,0.198-0.29,0.306
			c0.017-0.136,0.021-0.275,0.009-0.422c-0.16-2.043,0.291-2.446,1.256-2.634C191.762,294.031,191.795,294.636,190.236,295.968"/>
		<path fill="#737070" d="M84.85,300.53c0.646-0.234,0.666-0.651,0.666-0.651c-0.106-0.475-0.41-0.73-0.81-0.851
			c0.601-0.333,0.556-0.75,0.556-0.75c-0.178-0.453-0.518-0.655-0.932-0.713c0.543-0.424,0.432-0.825,0.432-0.825
			c-0.248-0.419-0.609-0.576-1.025-0.569c0.459-0.498,0.29-0.874,0.29-0.874c-0.309-0.376-0.69-0.473-1.101-0.4
			c0.374-0.564,0.148-0.91,0.148-0.91c-0.363-0.32-0.757-0.359-1.148-0.224c0.282-0.614,0.004-0.922,0.004-0.922
			c-0.41-0.26-0.805-0.234-1.17-0.039c0.18-0.652-0.141-0.913-0.141-0.913c-0.445-0.193-0.83-0.107-1.162,0.145
			c0.078-0.673-0.28-0.877-0.28-0.877c-0.47-0.122-0.838,0.023-1.126,0.322c-0.029-0.675-0.414-0.822-0.414-0.822
			c-0.485-0.048-0.82,0.161-1.059,0.505c-0.132-0.675-0.541-0.759-0.541-0.759c-0.486,0.028-0.783,0.288-0.967,0.664
			c-0.234-0.646-0.652-0.664-0.652-0.664c-0.475,0.105-0.729,0.408-0.851,0.808c-0.332-0.602-0.749-0.557-0.749-0.557
			c-0.453,0.179-0.657,0.519-0.713,0.933c-0.423-0.541-0.826-0.43-0.826-0.43c-0.416,0.245-0.574,0.606-0.566,1.022
			c-0.498-0.459-0.877-0.29-0.877-0.29c-0.373,0.31-0.473,0.69-0.4,1.101c-0.563-0.376-0.908-0.148-0.908-0.148
			c-0.32,0.363-0.359,0.756-0.225,1.149c-0.615-0.281-0.922-0.002-0.922-0.002c-0.262,0.408-0.236,0.801-0.039,1.169
			c-0.652-0.181-0.912,0.14-0.912,0.14c-0.193,0.446-0.107,0.829,0.145,1.162c-0.673-0.077-0.88,0.281-0.88,0.281
			c-0.12,0.469,0.024,0.836,0.324,1.124c-0.678,0.029-0.825,0.414-0.825,0.414c-0.047,0.483,0.163,0.821,0.507,1.06
			c-0.673,0.131-0.76,0.541-0.76,0.541c0.03,0.483,0.29,0.782,0.665,0.965c-0.644,0.236-0.665,0.653-0.665,0.653
			c0.106,0.475,0.409,0.729,0.81,0.851c-0.602,0.333-0.557,0.75-0.557,0.75c0.18,0.451,0.518,0.655,0.933,0.711
			c-0.542,0.423-0.433,0.827-0.433,0.827c0.246,0.419,0.608,0.576,1.024,0.567c-0.459,0.498-0.288,0.876-0.288,0.876
			c0.31,0.374,0.689,0.473,1.099,0.4c-0.374,0.564-0.147,0.908-0.147,0.908c0.363,0.32,0.757,0.361,1.148,0.224
			c-0.281,0.616-0.004,0.922-0.004,0.922c0.408,0.26,0.804,0.236,1.17,0.041c-0.182,0.652,0.141,0.91,0.141,0.91
			c0.444,0.193,0.83,0.11,1.162-0.142c-0.078,0.673,0.281,0.879,0.281,0.879c0.469,0.12,0.836-0.025,1.126-0.322
			c0.028,0.675,0.413,0.82,0.413,0.82c0.484,0.046,0.822-0.161,1.059-0.505c0.131,0.675,0.54,0.759,0.54,0.759
			c0.204-0.011,0.365-0.075,0.511-0.159v7.836c-0.363-0.696-1.047-1.315-1.807-1.62c-0.678-0.273-1.318-0.107-1.938,0.049
			c-0.275,0.069-0.561,0.145-0.848,0.177c-0.32,0.038-0.618,0.002-0.934-0.037c-0.166-0.019-0.327-0.038-0.494-0.049l-0.237-0.013
			l0.138,0.193c0.564,0.81,1.189,1.57,1.825,2.219c0.075,0.054,1.318,0.918,2.691,1.063l0.006,0.009l0.01-0.009
			c0.123,0.013,0.248,0.032,0.372,0.032c0.412,0,0.826-0.084,1.215-0.274v7.517h0.923v-10.744c0.39,0.191,0.803,0.273,1.214,0.273
			c0.125,0,0.248-0.018,0.373-0.03l0.01,0.009l0.006-0.011c1.374-0.148,2.621-1.013,2.707-1.074
			c0.621-0.639,1.248-1.403,1.811-2.209l0.136-0.193l-0.237,0.013c-0.166,0.011-0.33,0.03-0.493,0.05
			c-0.314,0.038-0.613,0.077-0.934,0.038c-0.287-0.034-0.573-0.107-0.849-0.178c-0.62-0.155-1.26-0.318-1.938-0.048
			c-0.759,0.304-1.441,0.922-1.806,1.62v-4.512l0.187,0.064c0.477-0.107,0.73-0.41,0.851-0.81c0.335,0.6,0.749,0.557,0.749,0.557
			c0.453-0.181,0.657-0.519,0.713-0.933c0.424,0.541,0.828,0.432,0.828,0.432c0.418-0.247,0.574-0.608,0.567-1.024
			c0.499,0.457,0.874,0.29,0.874,0.29c0.374-0.31,0.475-0.692,0.401-1.101c0.563,0.374,0.909,0.146,0.909,0.146
			c0.322-0.363,0.358-0.757,0.225-1.149c0.615,0.283,0.921,0.004,0.921,0.004c0.261-0.408,0.236-0.801,0.04-1.169
			c0.652,0.181,0.911-0.14,0.911-0.14c0.193-0.444,0.107-0.831-0.144-1.164c0.672,0.079,0.879-0.279,0.879-0.279
			c0.12-0.469-0.023-0.836-0.324-1.126c0.676-0.027,0.824-0.414,0.824-0.414c0.045-0.483-0.162-0.819-0.506-1.058
			c0.674-0.133,0.758-0.541,0.758-0.541C85.486,301.011,85.227,300.712,84.85,300.53 M75.385,310.307l0.006,0.018h-0.012
			L75.385,310.307z M74.93,319.436l-0.018-0.238l0.018,0.047V319.436z M74.642,318.624l0.069,0.986
			c-0.144-0.086-0.311-0.179-0.494-0.272l-0.23-1.5C74.252,318.07,74.471,318.338,74.642,318.624 M73.105,319.06l-1.434,0.836
			c-0.168-0.08-0.317-0.159-0.442-0.23l1.629-0.713L73.105,319.06z M73.363,319.178l0.297,0.133l-1.276,0.872
			c-0.159-0.054-0.31-0.111-0.453-0.172L73.363,319.178z M73.798,319.128l-0.231-1.613l0.154,0.12l0.242,1.573L73.798,319.128z
			 M73.902,319.427c0.18,0.084,0.342,0.165,0.484,0.238l-1.104,0.73c-0.211-0.027-0.419-0.07-0.619-0.127L73.902,319.427z
			 M73.316,317.388l0.232,1.62c-0.125-0.058-0.25-0.116-0.381-0.176l-0.336-1.654l0.205,0.064L73.316,317.388z M72.586,317.128
			l0.324,1.59c-0.144-0.063-0.289-0.127-0.436-0.191l-0.409-1.395C72.238,317.111,72.411,317.109,72.586,317.128 M71.473,318.11
			l-0.301-0.122l-0.182-0.623l0.16-0.041L71.473,318.11z M70.899,317.88c-0.146-0.061-0.288-0.114-0.431-0.172l-0.07-0.229
			c0.124-0.016,0.246-0.039,0.367-0.064L70.899,317.88z M70.195,317.603l-0.28-0.107l0.247-0.006L70.195,317.603z M70.418,317.938
			l-0.699,0.239c-0.188-0.234-0.372-0.476-0.551-0.723C69.584,317.614,70.004,317.775,70.418,317.938 M70.745,318.07l0.282,0.113
			l-0.984,0.392l-0.172-0.204L70.745,318.07z M71.336,318.308l0.309,0.127l-1.191,0.607l-0.25-0.283L71.336,318.308z
			 M71.771,318.233l-0.395-0.965c0.154-0.039,0.307-0.073,0.459-0.101l0.363,1.243C72.058,318.351,71.914,318.292,71.771,318.233
			 M70.617,319.216l1.306-0.666c0.222,0.095,0.439,0.188,0.649,0.275l-1.589,0.696c-0.122-0.073-0.197-0.125-0.2-0.125
			L70.617,319.216z M73.658,320.426l0.957-0.634c0.137,0.075,0.242,0.142,0.314,0.195v0.138
			C74.528,320.349,74.095,320.433,73.658,320.426 M75.852,316.899v-0.123c0.073-0.058,0.182-0.129,0.32-0.206l0.951,0.627
			C76.686,317.208,76.252,317.122,75.852,316.899 M77.924,315.725l1.625,0.714c-0.127,0.07-0.275,0.15-0.441,0.229l-1.43-0.836
			L77.924,315.725z M77.42,315.951l1.428,0.832c-0.143,0.063-0.294,0.118-0.451,0.172l-1.272-0.868L77.42,315.951z M76.816,315.979
			l0.24-1.568l0.155-0.118l-0.23,1.609L76.816,315.979z M76.883,316.203l1.232,0.838c-0.201,0.056-0.408,0.101-0.619,0.127
			l-1.096-0.725C76.543,316.368,76.703,316.287,76.883,316.203 M80.012,316.155c-0.004,0.003-0.086,0.059-0.215,0.14l-1.588-0.695
			c0.209-0.089,0.427-0.181,0.648-0.275l1.307,0.666L80.012,316.155z M79.445,315.081l1.132,0.451l-0.251,0.284l-1.189-0.608
			L79.445,315.081z M79.752,314.957l0.283-0.114l0.874,0.297l-0.173,0.208L79.752,314.957z M80.363,314.711
			c0.412-0.165,0.832-0.324,1.25-0.485c-0.18,0.249-0.363,0.487-0.552,0.724L80.363,314.711z M80.586,314.375l0.031-0.112
			l0.246,0.005L80.586,314.375z M80.313,314.482c-0.143,0.056-0.287,0.111-0.432,0.169l0.133-0.464
			c0.121,0.026,0.244,0.05,0.365,0.064L80.313,314.482z M79.608,314.761l-0.3,0.122l0.319-0.786l0.161,0.038L79.608,314.761z
			 M79.009,315.005c-0.144,0.059-0.288,0.118-0.429,0.179l0.365-1.246c0.15,0.028,0.304,0.064,0.459,0.101L79.009,315.005z
			 M78.715,313.906l-0.41,1.395c-0.147,0.064-0.291,0.127-0.434,0.188l0.324-1.59C78.369,313.877,78.541,313.886,78.715,313.906
			 M77.742,314.015l0.207-0.066l-0.337,1.656c-0.13,0.059-0.259,0.118-0.382,0.174l0.232-1.619L77.742,314.015z M76.792,314.613
			l-0.228,1.495c-0.185,0.097-0.353,0.189-0.495,0.275l0.067-0.984C76.308,315.116,76.526,314.844,76.792,314.613 M75.867,315.975
			l-0.016,0.229v-0.185L75.867,315.975z M80.809,304.478c-0.814-0.38-1.518-0.604-1.518-0.604c0.303,0.557,0.588,1.027,0.854,1.429
			c-0.744-0.503-1.401-0.831-1.401-0.831c0.212,0.595,0.419,1.104,0.618,1.545c-0.657-0.615-1.255-1.042-1.255-1.042
			c0.116,0.623,0.242,1.157,0.37,1.622c-0.551-0.707-1.076-1.223-1.076-1.223c0.02,0.632,0.059,1.18,0.113,1.656
			c-0.436-0.782-0.873-1.375-0.873-1.375c-0.08,0.627-0.126,1.173-0.146,1.656c-0.308-0.842-0.647-1.497-0.647-1.497
			c-0.179,0.61-0.31,1.141-0.406,1.615c-0.17-0.883-0.401-1.581-0.401-1.581c-0.273,0.573-0.486,1.078-0.654,1.532
			c-0.033-0.898-0.152-1.627-0.152-1.627c-0.359,0.522-0.647,0.988-0.885,1.409c0.11-0.892,0.105-1.626,0.105-1.626
			c-0.438,0.46-0.795,0.874-1.096,1.255c0.248-0.864,0.357-1.595,0.357-1.595c-0.502,0.387-0.921,0.741-1.276,1.068
			c0.38-0.814,0.603-1.517,0.603-1.517c-0.555,0.303-1.024,0.586-1.426,0.851c0.502-0.743,0.83-1.398,0.83-1.398
			c-0.597,0.21-1.105,0.419-1.543,0.618c0.612-0.657,1.039-1.255,1.039-1.255c-0.622,0.116-1.157,0.241-1.623,0.37
			c0.708-0.553,1.226-1.076,1.226-1.076c-0.631,0.019-1.179,0.058-1.659,0.111c0.785-0.434,1.378-0.87,1.378-0.87
			c-0.63-0.082-1.177-0.129-1.659-0.15c0.845-0.305,1.5-0.646,1.5-0.646c-0.609-0.179-1.141-0.31-1.613-0.404
			c0.881-0.172,1.578-0.403,1.578-0.403c-0.574-0.273-1.08-0.486-1.531-0.653c0.897-0.032,1.625-0.152,1.625-0.152
			c-0.523-0.357-0.99-0.647-1.41-0.886c0.891,0.109,1.629,0.105,1.629,0.105c-0.461-0.437-0.875-0.795-1.255-1.096
			c0.864,0.249,1.593,0.358,1.593,0.358c-0.387-0.502-0.74-0.921-1.066-1.278c0.813,0.381,1.516,0.604,1.516,0.604
			c-0.303-0.555-0.588-1.027-0.854-1.429c0.744,0.502,1.402,0.833,1.402,0.833c-0.213-0.597-0.42-1.106-0.62-1.545
			c0.657,0.612,1.255,1.04,1.255,1.04c-0.115-0.621-0.24-1.155-0.369-1.62c0.553,0.707,1.074,1.225,1.074,1.225
			c-0.016-0.634-0.057-1.184-0.111-1.662c0.436,0.786,0.872,1.379,0.872,1.379c0.083-0.63,0.128-1.175,0.148-1.661
			c0.308,0.847,0.646,1.5,0.646,1.5c0.18-0.608,0.31-1.141,0.406-1.613c0.171,0.881,0.403,1.579,0.403,1.579
			c0.271-0.571,0.485-1.079,0.654-1.53c0.031,0.898,0.151,1.625,0.151,1.625c0.358-0.522,0.647-0.988,0.885-1.41
			c-0.11,0.892-0.104,1.629-0.104,1.629c0.434-0.462,0.793-0.877,1.094-1.255c-0.247,0.864-0.357,1.592-0.357,1.592
			c0.502-0.387,0.921-0.741,1.276-1.067c-0.379,0.814-0.603,1.515-0.603,1.515c0.556-0.301,1.027-0.584,1.429-0.851
			c-0.502,0.743-0.832,1.402-0.832,1.402c0.596-0.212,1.106-0.421,1.545-0.62c-0.612,0.657-1.041,1.254-1.041,1.254
			c0.624-0.115,1.158-0.24,1.622-0.369c-0.706,0.552-1.225,1.076-1.225,1.076c0.633-0.017,1.182-0.056,1.66-0.109
			c-0.785,0.434-1.377,0.87-1.377,0.87c0.629,0.082,1.176,0.127,1.657,0.148c-0.843,0.307-1.498,0.646-1.498,0.646
			c0.608,0.179,1.141,0.308,1.613,0.404c-0.88,0.172-1.579,0.403-1.579,0.403c0.574,0.273,1.079,0.485,1.531,0.655
			c-0.897,0.03-1.625,0.15-1.625,0.15c0.523,0.356,0.99,0.646,1.412,0.886c-0.893-0.11-1.629-0.104-1.629-0.104
			c0.46,0.434,0.875,0.793,1.252,1.094c-0.861-0.247-1.59-0.359-1.59-0.359C80.127,303.703,80.481,304.124,80.809,304.478"/>
		<path fill="#737070" d="M75.228,299.058c0.901,0,1.63,0.73,1.63,1.628c0,0.9-0.729,1.631-1.63,1.631
			c-0.899,0-1.628-0.73-1.628-1.631C73.6,299.789,74.328,299.058,75.228,299.058"/>
		<path fill="#EAAA9C" d="M139.189,283.192c0-8.23,0-12.674-5.578-15.512c-3.025-1.607-6.525-2.08-9.458-2.08
			c-7.187,0-16.267,2.365-16.267,13.714v36.124c0,3.026,0,8.229,5.109,11.822c3.215,2.269,7.47,2.931,10.875,2.931
			c15.888,0,15.888-11.254,15.888-14.564v-14.658c0-2.08,0-12.199-11.065-12.199c-5.201,0-8.133,2.365-10.025,3.878v-12.39
			c0-2.27,0-6.239,5.297-6.239c4.823,0,4.823,2.552,4.823,9.174H139.189z M118.668,303.995c0-1.606,0-6.241,5.297-6.241
			c4.918,0,4.918,3.971,4.918,6.809v11.351c0,1.604,0,5.672-4.918,5.672c-5.297,0-5.297-4.632-5.297-7.281V303.995z
			 M180.612,283.192c0-8.23,0-12.674-5.579-15.512c-3.026-1.607-6.525-2.08-9.455-2.08c-7.189,0-16.268,2.365-16.268,13.714v36.124
			c0,3.026,0,8.229,5.106,11.822c3.216,2.269,7.472,2.931,10.876,2.931c15.887,0,15.887-11.254,15.887-14.564v-14.658
			c0-2.08,0-12.199-11.063-12.199c-5.202,0-8.134,2.365-10.024,3.878v-12.39c0-2.27,0-6.239,5.295-6.239
			c4.824,0,4.824,2.552,4.824,9.174H180.612z M160.092,303.995c0-1.606,0-6.241,5.295-6.241c4.918,0,4.918,3.971,4.918,6.809v11.351
			c0,1.604,0,5.672-4.918,5.672c-5.295,0-5.295-4.632-5.295-7.281V303.995z M187.139,329.34h5.58l-6.524,12.766h4.255l7.85-12.766
			v-12.199h-11.16V329.34z M204.257,314.681c0,4.54,0,15.51,16.265,15.51c2.46,0,7.282-0.095,11.065-3.5
			c3.877-3.497,4.538-8.32,4.538-11.726V281.11c0-3.878,0-15.51-16.076-15.51c-4.916,0-10.213,1.418-13.332,5.863
			c-2.271,3.216-2.46,6.524-2.46,10.687V314.681z M215.133,280.446c0-2.646,0-6.617,5.2-6.617c4.917,0,4.917,3.781,4.917,7.095
			v34.136c0,2.366,0,6.62-5.201,6.62c-4.916,0-4.916-4.349-4.916-5.861V280.446z M241.707,314.681c0,4.54,0,15.51,16.266,15.51
			c2.459,0,7.282-0.095,11.063-3.5c3.879-3.497,4.54-8.32,4.54-11.726V281.11c0-3.878,0-15.51-16.076-15.51
			c-4.918,0-10.215,1.418-13.336,5.863c-2.268,3.216-2.457,6.524-2.457,10.687V314.681z M252.582,280.446
			c0-2.646,0-6.617,5.202-6.617c4.917,0,4.917,3.781,4.917,7.095v34.136c0,2.366,0,6.62-5.201,6.62
			c-4.918,0-4.918-4.349-4.918-5.861V280.446z M279.158,314.681c0,4.54,0,15.51,16.266,15.51c2.458,0,7.281-0.095,11.064-3.5
			c3.876-3.497,4.538-8.32,4.538-11.726V281.11c0-3.878,0-15.51-16.077-15.51c-4.917,0-10.213,1.418-13.334,5.863
			c-2.27,3.216-2.457,6.524-2.457,10.687V314.681z M290.032,280.446c0-2.646,0-6.617,5.2-6.617c4.92,0,4.92,3.781,4.92,7.095v34.136
			c0,2.366,0,6.62-5.203,6.62c-4.917,0-4.917-4.349-4.917-5.861V280.446z"/>
		<path fill="#EAAA9C" d="M335.248,319.848V318.5h-8.47v-2.592h5.937v-7.882h-1.563v2.417H320.76v-2.417h-1.563v7.882h5.936v2.592
			h-8.471v1.349H335.248z M333.348,326.313v-1.35h-12.566v-3.789h-1.584v5.139H333.348z M331.152,314.602h-10.392v-2.854h10.392
			V314.602z"/>
		<g>
			<path fill="#EAAA9C" d="M102.532,308.44h-7.436v1.352h5.747c-0.191,1.914-0.867,4.634-0.909,4.789h1.563
				c0.02-0.066,0.379-1.416,0.654-2.939C102.32,310.552,102.448,309.419,102.532,308.44 M94.166,308.44H87.79v1.352h4.667
				c-0.338,2.177-1.269,4.658-1.309,4.789h1.625c0.021-0.088,0.529-1.547,0.846-2.961C93.893,310.466,94.063,309.333,94.166,308.44
				 M104.538,317.039v-1.348h-8.489v-3.398h-1.585v3.398h-8.511v1.348H104.538z M99.237,318.344h-8.005v1.307h8.005V318.344z
				 M103.314,325.593c-0.971-0.129-2.535-0.412-4.203-1.065c-1.395-0.544-2.641-1.633-2.831-2.241v-0.066h6.272v-1.307H87.895v1.307
				h6.314l-0.02,0.066c-0.169,0.608-1.416,1.697-2.811,2.241c-1.668,0.653-3.23,0.937-4.202,1.065l0.951,1.199
				c0.823-0.153,2.091-0.306,3.906-1.068c1.416-0.589,2.83-1.654,3.212-2.243c0.379,0.589,1.793,1.654,3.211,2.243
				c1.815,0.763,3.084,0.915,3.906,1.068L103.314,325.593z"/>
		</g>
	</g>
</g>
</svg>
