<?xml version="1.0" encoding="utf-8"?>
<!-- Generator: Adobe Illustrator 16.0.0, SVG Export Plug-In . SVG Version: 6.00 Build 0)  -->
<!DOCTYPE svg PUBLIC "-//W3C//DTD SVG 1.1//EN" "http://www.w3.org/Graphics/SVG/1.1/DTD/svg11.dtd">
<svg version="1.1" id="레이어_1" xmlns="http://www.w3.org/2000/svg" xmlns:xlink="http://www.w3.org/1999/xlink" x="0px"
	 y="0px" width="207.346px" height="151.093px" viewBox="0 0 207.346 151.093" enable-background="new 0 0 207.346 151.093"
	 xml:space="preserve">
<g>
	<defs>
		<rect id="SVGID_1_" width="207.346" height="151.093"/>
	</defs>
	<clipPath id="SVGID_2_">
		<use xlink:href="#SVGID_1_"  overflow="visible"/>
	</clipPath>
	<path clip-path="url(#SVGID_2_)" fill="#8CCDC0" d="M176.271,23.668c0,0-21.555-9.449-58.104-7.244
		c2.146,11.599,2.531,28.349,1.156,37.764c0,0,28.435,0,56.951,15.995C177.368,57.55,178.041,39.607,176.271,23.668"/>
	<path clip-path="url(#SVGID_2_)" fill="#FFF100" d="M176.271,23.668c-1.14-0.464-2.318-0.815-3.477-1.218
		c-1.167-0.381-2.359-0.678-3.538-1.021l-1.771-0.497l-1.797-0.399l-3.588-0.814c-1.189-0.306-2.406-0.473-3.615-0.683l-3.627-0.61
		c-1.209-0.201-2.414-0.431-3.637-0.524l-3.658-0.392l-3.654-0.401c-1.217-0.169-2.444-0.183-3.668-0.241l-7.348-0.313l-1.836-0.07
		l-1.838,0.051l-3.677,0.083l-7.354,0.161l0.328-0.419l0.725,4.699l0.523,4.724l0.33,4.735c0.086,1.58,0.12,3.162,0.184,4.742
		c0.06,1.582,0.027,3.164,0.043,4.745c0.035,1.582-0.081,3.163-0.123,4.743c-0.028,1.581-0.215,3.156-0.315,4.731
		c-0.112,1.577-0.379,3.141-0.56,4.707c0.133-1.575,0.348-3.14,0.412-4.718c0.052-1.579,0.189-3.15,0.168-4.729
		c-0.01-1.578,0.055-3.154,0-4.732c-0.045-1.578-0.038-3.154-0.125-4.729c-0.09-1.575-0.152-3.152-0.266-4.724l-0.402-4.712
		l-0.547-4.692l-0.746-4.662l-0.064-0.408l0.393-0.011l7.383-0.204l3.691-0.1l1.846-0.04l1.846,0.083l7.377,0.357
		c1.229,0.065,2.461,0.087,3.682,0.263l3.668,0.425l3.668,0.436c1.226,0.116,2.432,0.367,3.643,0.59l3.63,0.677
		c1.208,0.231,2.425,0.419,3.612,0.747l3.582,0.898l1.787,0.455l1.76,0.555c1.171,0.38,2.354,0.713,3.512,1.132
		C173.98,22.782,175.148,23.168,176.271,23.668"/>
</g>
<polygon fill="#CDE9EF" points="131.322,46.829 131.047,46.559 136.574,40.936 139.512,43.677 146.385,36.305 150.089,39.943 
	156.97,32.238 162.859,45.744 170.726,39.273 170.971,39.571 162.709,46.367 156.856,32.945 150.107,40.503 146.396,36.857 
	139.529,44.222 136.587,41.474 "/>
<g>
	<defs>
		<rect id="SVGID_3_" width="207.346" height="151.093"/>
	</defs>
	<clipPath id="SVGID_4_">
		<use xlink:href="#SVGID_3_"  overflow="visible"/>
	</clipPath>
	<path clip-path="url(#SVGID_4_)" fill="#CDE9EF" d="M171.675,62.43c-19.527-11.767-43.733-12.268-43.976-12.271l-0.426-0.007
		l0.047-0.425c0.017-0.129,1.465-13.196-0.527-27.626l0.764-0.104c1.807,13.079,0.801,25.051,0.573,27.403
		c3.325,0.123,25.657,1.352,43.942,12.369L171.675,62.43z"/>
</g>
<polygon fill="#B5B5B6" points="110.622,36.699 114.082,37.694 113.57,40.697 111.146,39.243 "/>
<g>
	<defs>
		<rect id="SVGID_5_" width="207.346" height="151.093"/>
	</defs>
	<clipPath id="SVGID_6_">
		<use xlink:href="#SVGID_5_"  overflow="visible"/>
	</clipPath>
	<path clip-path="url(#SVGID_6_)" fill="#97C619" d="M11.479,65.775c10.417-4.173,15.424,5.842,15.424,5.842
		c6.571,4.672,10.418,14.333,16.371,19.923c6.677,6.273,23.31,1.725,23.31,1.725l-1.708,36.924c0,0-28.134,7.592-39.333-25.078
		c-4.063-11.848-4.154-18.637-7.793-26.869L11.479,65.775z"/>
	<path clip-path="url(#SVGID_6_)" fill="#009388" d="M44.213,92.298c-0.328-0.232-0.647-0.482-0.94-0.758
		c-1.476-1.385-2.822-3.023-4.112-4.771c-8.145-1.443-14.338,8.02-15.421,12.559c0.507,1.799,1.091,3.711,1.802,5.783
		c1.577,4.6,3.488,8.4,5.611,11.537C31.534,113.257,33.773,98.517,44.213,92.298"/>
	<path clip-path="url(#SVGID_6_)" fill="#009388" d="M34.969,80.72c-2.418-3.514-4.932-6.875-8.065-9.101
		c0,0-0.055-0.107-0.159-0.29c-0.219,0.078-0.442,0.16-0.671,0.251c-3.648,1.448-6.198,4.369-7.971,7.5
		c1.603,3.834,2.481,7.398,3.413,11.371C23.944,85.708,28.365,79.767,34.969,80.72"/>
	<path clip-path="url(#SVGID_6_)" fill="#9EBE01" d="M122.309,117.197c0,0-3.641,12.982-3.039,19.387c0,0,4.054,1.184,3.405,6.506
		c-0.647,5.32-12.495,5.467-17.45,2.633c-0.744-0.428-1.513-1.146-2.093-3.164c-2.178-7.58-3.07-24.428-2.799-29.195
		L122.309,117.197z"/>
	<path clip-path="url(#SVGID_6_)" fill="#ABCD03" d="M80.834,121.609c0,0-5.005,12.52-5.088,18.953c0,0,3.904,1.607,2.693,6.83
		c-1.21,5.223-13.009,4.105-17.631,0.76c-0.696-0.504-1.383-1.301-1.746-3.369c-1.357-7.768-0.449-24.617,0.33-29.326
		L80.834,121.609z"/>
	<path clip-path="url(#SVGID_6_)" fill="#ABCD03" d="M119.303,52.476c0,0,12.107,7.349,15.798,10.521
		c2.216-9.667,9.789-24.136,19.87-16.901c7.525,5.4,4.042,12.754-0.15,20.236c-2.517,4.493-6.208,10.914-10.828,13.679
		c-3.244,1.941-8.869,2.193-13.781,0.129c0,0-12.094-6.102-14.529-10.082L119.303,52.476z"/>
	<path clip-path="url(#SVGID_6_)" fill="#003F85" d="M151.632,45.61c0,0,2.003-3.623,3.576-4.081
		c0.864-0.251,1.481,0.114,1.655,0.68c0.143,0.465-0.013,1.065-0.574,1.567c-1.247,1.114-2.215,2.95-2.215,2.95"/>
	<path clip-path="url(#SVGID_6_)" fill="#003F85" d="M153.005,46.854c0,0,2.002-3.623,3.575-4.081
		c0.863-0.251,1.48,0.115,1.656,0.68c0.143,0.464-0.013,1.065-0.574,1.567c-1.248,1.114-2.215,2.95-2.215,2.95"/>
	<path clip-path="url(#SVGID_6_)" fill="#008590" d="M153.005,46.854c0,0,0.177-0.401,0.513-0.967
		c0.342-0.562,0.819-1.301,1.398-1.971c0.287-0.336,0.64-0.613,0.967-0.874c0.175-0.111,0.373-0.188,0.545-0.274
		c0.168-0.109,0.37-0.084,0.521-0.125c0.349-0.028,0.623,0.087,0.789,0.18c0.148,0.124,0.233,0.194,0.233,0.194
		s-0.091-0.059-0.253-0.159l-0.322-0.092c-0.13,0.001-0.268-0.013-0.425,0.002c-0.159,0.05-0.343,0.031-0.493,0.141
		c-0.156,0.091-0.332,0.165-0.494,0.279c-0.303,0.265-0.625,0.543-0.895,0.887c-0.594,0.625-1.102,1.339-1.466,1.88
		C153.252,46.493,153.005,46.854,153.005,46.854"/>
	<path clip-path="url(#SVGID_6_)" fill="#008590" d="M151.632,45.61c0,0,0.172-0.392,0.5-0.945c0.331-0.551,0.8-1.269,1.356-1.931
		c0.281-0.327,0.606-0.615,0.935-0.861c0.144-0.145,0.353-0.199,0.517-0.291c0.161-0.096,0.34-0.15,0.5-0.161
		c0.324-0.063,0.61,0.029,0.781,0.092c0.161,0.099,0.252,0.153,0.252,0.153s-0.096-0.041-0.266-0.116
		c-0.184-0.044-0.434-0.072-0.743-0.006c-0.165,0.021-0.312,0.075-0.465,0.177c-0.15,0.094-0.334,0.145-0.47,0.294
		c-0.304,0.251-0.603,0.542-0.865,0.875c-0.573,0.619-1.073,1.312-1.426,1.843C151.874,45.259,151.632,45.61,151.632,45.61"/>
	<path clip-path="url(#SVGID_6_)" fill="#003F85" d="M154.367,47.734c0,0,2.429-3.353,4.047-3.616
		c0.889-0.144,1.455,0.294,1.56,0.876c0.086,0.479-0.142,1.056-0.761,1.486c-1.373,0.953-2.557,2.659-2.557,2.659"/>
	<path clip-path="url(#SVGID_6_)" fill="#003F85" d="M155.9,49.47c0,0,2.428-3.353,4.046-3.615c0.888-0.146,1.456,0.293,1.562,0.876
		c0.084,0.478-0.141,1.054-0.762,1.484c-1.373,0.955-2.558,2.659-2.558,2.659"/>
	<path clip-path="url(#SVGID_6_)" fill="#008590" d="M155.9,49.47c0,0,0.225-0.378,0.627-0.898c0.408-0.515,0.971-1.191,1.628-1.785
		c0.326-0.299,0.709-0.531,1.065-0.749c0.189-0.091,0.393-0.142,0.574-0.208c0.181-0.086,0.379-0.039,0.533-0.061
		c0.35,0.015,0.607,0.163,0.762,0.275c0.133,0.142,0.207,0.221,0.207,0.221s-0.084-0.068-0.23-0.188l-0.309-0.131
		c-0.129-0.014-0.264-0.045-0.422-0.05c-0.166,0.028-0.344-0.012-0.506,0.08c-0.168,0.072-0.352,0.124-0.524,0.218
		c-0.334,0.225-0.688,0.463-0.997,0.771c-0.666,0.55-1.258,1.194-1.684,1.689C156.189,49.142,155.9,49.47,155.9,49.47"/>
	<path clip-path="url(#SVGID_6_)" fill="#008590" d="M154.367,47.734c0,0,0.221-0.369,0.611-0.878
		c0.396-0.506,0.949-1.163,1.581-1.751c0.32-0.29,0.679-0.537,1.033-0.741c0.161-0.127,0.374-0.156,0.548-0.226
		c0.172-0.076,0.357-0.109,0.518-0.101c0.328-0.022,0.602,0.104,0.764,0.187c0.146,0.117,0.232,0.185,0.232,0.185
		s-0.092-0.054-0.252-0.149c-0.177-0.066-0.42-0.124-0.736-0.096c-0.166,0-0.317,0.037-0.482,0.118
		c-0.161,0.075-0.35,0.104-0.503,0.235c-0.331,0.212-0.663,0.465-0.965,0.762c-0.644,0.546-1.224,1.173-1.64,1.656
		C154.65,47.415,154.367,47.734,154.367,47.734"/>
	<path clip-path="url(#SVGID_6_)" fill="#003F85" d="M148.19,46.942c0,0-0.437-4.116,0.592-5.394
		c1.026-1.277,2.556-0.405,2.173,1.222c-0.383,1.628-0.124,3.687-0.124,3.687"/>
	<path clip-path="url(#SVGID_6_)" fill="#ABCD03" d="M119.303,52.476c0,0,12.107,7.349,15.798,10.521
		c2.216-9.667,9.789-24.136,19.87-16.901c7.525,5.4,4.042,12.754-0.15,20.236c-2.517,4.493-6.208,10.914-10.828,13.679
		c-3.244,1.941-8.869,2.193-13.781,0.129c0,0-12.094-6.102-14.529-10.082L119.303,52.476z"/>
	<path clip-path="url(#SVGID_6_)" fill="#EFEFEF" d="M138.424,53.134c0,0,2.92,11.262,15.569,15.819c0,0-4.637,9.515-8.226,12.265
		c-7.059,5.416-16.727,3.773-25.678-7.087l-1.488-23.991c0,0,11.594,8.307,16.15,12.458
		C134.752,62.598,136.543,55.714,138.424,53.134"/>
	<path clip-path="url(#SVGID_6_)" fill="#B5B5B6" d="M120.09,74.131l-0.925-11.986l-0.841-11.987
		c-0.012-0.153,0.104-0.286,0.258-0.297l0.184,0.053c2.767,1.982,5.514,3.989,8.229,6.042c1.359,1.025,2.713,2.06,4.044,3.123
		c1.335,1.058,2.64,2.159,3.92,3.294l-0.5,0.148c0.45-1.65,0.953-3.275,1.535-4.885c0.29-0.804,0.603-1.6,0.956-2.384
		c0.359-0.782,0.732-1.559,1.253-2.279l0.383-0.062l0.101,0.141l0.002,0.008c0.547,1.782,1.39,3.519,2.369,5.134
		c0.986,1.62,2.15,3.136,3.472,4.504c2.62,2.757,5.884,4.899,9.465,6.256c-3.615-1.247-6.992-3.276-9.713-6.014
		c-1.363-1.362-2.573-2.879-3.604-4.509c-0.517-0.814-0.994-1.657-1.416-2.525c-0.422-0.872-0.808-1.751-1.1-2.697l0.484,0.087
		c-0.475,0.662-0.838,1.425-1.181,2.188c-0.341,0.767-0.645,1.554-0.926,2.35c-0.565,1.589-1.058,3.214-1.489,4.842
		c-0.044,0.164-0.212,0.261-0.375,0.218l-0.126-0.068c-1.272-1.11-2.573-2.198-3.909-3.244c-1.33-1.051-2.666-2.103-4.02-3.13
		c-2.697-2.065-5.43-4.087-8.18-6.083l0.439-0.244l0.648,12.002L120.09,74.131z"/>
	<path clip-path="url(#SVGID_6_)" fill="#00A29A" d="M79.872,13.72c0,0-3.095-11.987,0.418-13.388
		c1.653-0.658,3.158-0.321,3.713,0.878c0.457,0.987,0.937,2.163-0.446,4.532l0.99,7.856L79.872,13.72z"/>
	<path clip-path="url(#SVGID_6_)" fill="#00A29A" d="M66.66,19.115c-1.366-2.434-5.171-9.021-5.022-12.112
		c0.224-4.659,5.213-4.306,6.277-2.2c1.267,2.506-0.758,4.131-0.758,4.131s1.638,4.078,2.816,6.441
		C70.735,16.904,67.801,21.151,66.66,19.115"/>
	<path clip-path="url(#SVGID_6_)" fill="#ABCD03" d="M63.611,9.378c0,0,0.463,0.119,1.172-0.021
		c0.353-0.056,0.767-0.179,1.195-0.354c0.454-0.193,0.833-0.382,1.136-0.851c0.714-0.79,0.995-1.733,0.946-2.447
		c-0.033-0.711-0.246-1.145-0.246-1.145s0.344,0.341,0.54,1.102c0.223,0.741,0.038,1.974-0.782,2.871
		c-0.176,0.235-0.382,0.461-0.662,0.626c-0.259,0.142-0.515,0.247-0.764,0.317c-0.497,0.139-0.955,0.192-1.342,0.178
		c-0.384-0.001-0.694-0.075-0.892-0.146C63.724,9.427,63.611,9.378,63.611,9.378"/>
	<path clip-path="url(#SVGID_6_)" fill="#ABCD03" d="M98.889,128.628c-13.507,1.063-27.658,0.768-34.398-1.789
		c-10.15-3.852-13.544-13.715-13.985-25.723c-0.364-9.992,1.315-21.467,2.853-32.193c2.974-20.757-11.158-50.588,22.128-56.752
		c8.871-1.644,20.289-1.755,32.542,16.661c2.132,3.206,4.017,6.883,5.679,10.598c0.937,2.094,1.793,4.111,2.606,6.279
		c4.576,12.202,7.969,20.263,9.99,33C129.02,95.806,134.254,125.843,98.889,128.628"/>
	<path clip-path="url(#SVGID_6_)" fill="#88B414" d="M54.743,118.679h-4.287c0,0,1.803,0.998,5.782,2.182
		C55.695,120.171,55.198,119.445,54.743,118.679"/>
	<path clip-path="url(#SVGID_6_)" fill="#9ABA00" d="M121.639,118.679H54.743c0.456,0.766,0.952,1.492,1.495,2.182
		c5.793,1.723,16.198,3.84,32.363,3.84c2.135,0,4.371-0.037,6.71-0.117v1.889C95.311,126.472,115.945,125.669,121.639,118.679"/>
	<path clip-path="url(#SVGID_6_)" fill="#53B332" d="M72.496,128.574c0,0,1.309,0.088,3.674,0.252
		c1.181,0.094,2.627,0.189,4.312,0.176c1.683-0.004,3.598,0.102,5.716,0.016c4.23-0.105,9.284-0.305,14.837-0.891
		c5.499-0.652,11.651-2.211,16.822-6.023c2.58-1.889,4.642-4.305,6.14-6.914c1.508-2.609,2.476-5.391,3.082-8.104
		c1.174-5.453,1.082-10.547,0.827-14.758c-0.268-4.225-0.763-7.625-1.077-9.975c-0.336-2.344-0.522-3.643-0.522-3.643
		s0.222,1.293,0.62,3.629c0.377,2.34,0.951,5.729,1.302,9.965c0.335,4.221,0.515,9.346-0.619,14.896
		c-0.584,2.76-1.545,5.609-3.078,8.295c-1.521,2.686-3.638,5.186-6.286,7.123c-5.316,3.916-11.592,5.449-17.146,6.047
		c-5.603,0.531-10.653,0.648-14.899,0.674c-2.121,0.047-4.041-0.1-5.725-0.133c-1.686-0.025-3.132-0.156-4.313-0.283
		C73.801,128.699,72.496,128.574,72.496,128.574"/>
	<path clip-path="url(#SVGID_6_)" fill="#003F85" d="M83.535,17.885c0.205,0.918,0.827,1.572,1.388,1.463
		c0.564-0.107,0.851-0.939,0.647-1.854c-0.206-0.919-0.828-1.574-1.39-1.465C83.618,16.139,83.329,16.969,83.535,17.885"/>
	<path clip-path="url(#SVGID_6_)" fill="#003F85" d="M72.98,19.794c0.206,0.916,0.828,1.571,1.389,1.461
		c0.563-0.11,0.852-0.939,0.646-1.855c-0.207-0.917-0.827-1.571-1.39-1.463C73.063,18.046,72.775,18.877,72.98,19.794"/>
	<path clip-path="url(#SVGID_6_)" fill="#ABCD03" d="M72.554,18.615c0,0,1.445-0.256,1.844-1.416L72.554,18.615z"/>
	<path clip-path="url(#SVGID_6_)" fill="#003F85" d="M72.554,18.778l-0.159-0.134l0.13-0.187c0.014-0.002,1.358-0.256,1.72-1.313
		l0.205-0.1l0.1,0.205c-0.425,1.235-1.905,1.512-1.968,1.523L72.554,18.778z"/>
	<path clip-path="url(#SVGID_6_)" fill="#003F85" d="M79.409,26.824c-2.138,0-2.283-1.877-2.284-1.896
		c-0.008-0.145,0.099-0.263,0.242-0.274c0.143-0.003,0.264,0.098,0.274,0.24c0.006,0.06,0.142,1.473,1.871,1.411
		c1.447-0.044,1.787-1.078,1.79-1.09c0.044-0.136,0.189-0.212,0.324-0.169c0.137,0.043,0.213,0.188,0.17,0.323
		c-0.017,0.059-0.459,1.397-2.267,1.454L79.409,26.824z"/>
	<path clip-path="url(#SVGID_6_)" fill="#C7DC68" d="M88.212,12.853c-2.172,0-4.046,0.564-5.466,1.188
		c-1.175,0.518-1.67,1.19-1.67,1.19l-4.097,0.688c0,0-0.702-0.451-1.983-0.516c-0.252-0.012-0.531-0.021-0.831-0.021
		c-0.186,0-0.381,0.003-0.582,0.01c-1.2,1.902-3.133,5.384-4.955,10.431c-0.376-0.121-0.733-0.274-1.104-0.459
		c0.947,0.472,1.798,0.752,3.126,0.752c1.072,0,2.455-0.183,4.451-0.592c2.229-0.46,2.821-1.455,3.198-2.597
		c0.415-1.254-0.094-3.675-0.213-4.265c-0.116-0.561,0.384-0.902,0.92-1.104c0.296-0.051,0.699-0.139,1.063-0.139
		c0.437,0,0.819,0.125,0.894,0.584c0.098,0.595,0.543,3.223,1.377,4.245c0.635,0.783,1.367,1.354,2.918,1.354
		c0.299,0,0.629-0.021,0.995-0.067l-0.088,0.007c2.039-5.302,4.126-8.676,5.096-10.093c0.826,0.589,1.356,1.679,1.649,2.869
		l-2.955,6.518c-0.812,0.271-1.833,0.456-3.243,0.642c3.198-0.419,4.409-0.844,5.666-2.23c0,0,0.783-1.105,0.815-2.37
		c0.059-2.368-0.784-5.505-2.96-5.862C89.536,12.902,88.861,12.853,88.212,12.853 M84.799,19.359c-0.526,0-1.074-0.623-1.264-1.475
		c-0.206-0.916,0.083-1.745,0.644-1.855c0.042-0.008,0.084-0.012,0.125-0.012c0.527,0,1.075,0.624,1.266,1.475
		c0.204,0.916-0.084,1.748-0.647,1.856C84.882,19.356,84.841,19.359,84.799,19.359 M74.126,17.408
		c0.046-0.082,0.086-0.168,0.118-0.262l0.206-0.102l0.1,0.206c-0.106,0.307-0.276,0.553-0.473,0.752
		c0.412,0.192,0.786,0.724,0.938,1.396c0.206,0.916-0.083,1.746-0.646,1.855c-0.042,0.008-0.083,0.013-0.125,0.013
		c-0.526,0-1.073-0.625-1.264-1.474c-0.093-0.414-0.085-0.81,0.003-1.131c-0.223,0.078-0.382,0.108-0.402,0.112l-0.027,0.003
		l-0.16-0.134l0.131-0.187c0.004-0.002,0.158-0.029,0.375-0.108L74.126,17.408z"/>
	<path clip-path="url(#SVGID_6_)" fill="#4E69A2" d="M84.304,16.017c-0.042,0-0.083,0.005-0.125,0.013
		c-0.561,0.109-0.85,0.939-0.644,1.855c0.19,0.852,0.738,1.475,1.264,1.475c0.041,0,0.083-0.003,0.124-0.012
		c0.563-0.107,0.851-0.939,0.647-1.854C85.379,16.641,84.832,16.017,84.304,16.017"/>
	<path clip-path="url(#SVGID_6_)" fill="#4E69A2" d="M74.077,18.003c-0.349,0.352-0.783,0.553-1.094,0.661
		c-0.088,0.32-0.096,0.716-0.003,1.13c0.191,0.849,0.738,1.473,1.264,1.473c0.042,0,0.083-0.004,0.125-0.012
		c0.563-0.11,0.852-0.939,0.646-1.855C74.863,18.727,74.489,18.195,74.077,18.003"/>
	<path clip-path="url(#SVGID_6_)" fill="#C7DC68" d="M74.126,17.408L72.9,18.35C73.272,18.215,73.828,17.936,74.126,17.408"/>
	<path clip-path="url(#SVGID_6_)" fill="#4E69A2" d="M74.45,17.045l-0.205,0.102c-0.033,0.094-0.072,0.18-0.119,0.262
		c-0.298,0.527-0.854,0.807-1.226,0.941c-0.216,0.079-0.37,0.106-0.375,0.108l-0.13,0.187l0.159,0.133l0.028-0.003
		c0.02-0.003,0.179-0.033,0.402-0.111c0.311-0.106,0.744-0.309,1.093-0.66c0.198-0.198,0.368-0.445,0.473-0.752L74.45,17.045z"/>
	<path clip-path="url(#SVGID_6_)" fill="#C7DC68" d="M73.393,15.399c-0.013,0-0.025,0.001-0.039,0.001
		C73.368,15.4,73.38,15.399,73.393,15.399 M73.352,15.4c-2.008,0.085-4.62,0.494-6.648,1.644c0.847-0.479,1.795-0.827,2.755-1.08
		C70.806,15.611,72.181,15.45,73.352,15.4 M66.696,17.048c-0.026,0.016-0.052,0.03-0.077,0.044
		C66.644,17.078,66.67,17.063,66.696,17.048 M66.575,17.119c-0.002,0.002-0.004,0.003-0.007,0.005
		C66.571,17.122,66.573,17.121,66.575,17.119 M66.533,17.145c-0.003,0.003-0.006,0.005-0.009,0.007
		C66.527,17.149,66.53,17.147,66.533,17.145 M66.491,17.173c-0.003,0.001-0.006,0.004-0.009,0.005
		C66.485,17.177,66.488,17.174,66.491,17.173 M66.45,17.2c-0.003,0.003-0.006,0.005-0.008,0.007
		C66.444,17.205,66.447,17.203,66.45,17.2 M66.409,17.229c-0.002,0.004-0.005,0.005-0.007,0.007
		C66.404,17.233,66.407,17.232,66.409,17.229 M66.368,17.26c-0.002,0.002-0.003,0.003-0.004,0.004
		C66.365,17.263,66.366,17.262,66.368,17.26 M66.326,17.292c0,0.002,0,0.002,0,0.002S66.326,17.294,66.326,17.292 M65.563,18.317
		c-0.001,0.003-0.003,0.007-0.004,0.01C65.56,18.324,65.562,18.32,65.563,18.317 M65.545,18.36
		c-0.003,0.007-0.005,0.012-0.008,0.017C65.539,18.372,65.542,18.367,65.545,18.36 M65.527,18.403
		c-0.003,0.008-0.007,0.016-0.009,0.023C65.52,18.419,65.524,18.411,65.527,18.403 M65.51,18.446
		c-0.004,0.011-0.008,0.021-0.012,0.03C65.502,18.467,65.506,18.457,65.51,18.446 M65.496,18.485
		c-0.539,1.448-0.21,3.499,0.412,5.056c-0.068-0.171-0.132-0.351-0.191-0.532C65.227,21.537,65.017,19.772,65.496,18.485
		 M86.685,23.481c-0.014,0.003-0.029,0.004-0.044,0.006C86.656,23.485,86.67,23.484,86.685,23.481 M86.603,23.492
		c-0.01,0.002-0.02,0.003-0.031,0.004C86.583,23.495,86.593,23.494,86.603,23.492 M86.507,23.505c-0.004,0-0.008,0-0.012,0.002
		C86.499,23.505,86.503,23.505,86.507,23.505 M86.419,23.516h-0.002H86.419 M65.916,23.562c0.008,0.021,0.017,0.042,0.025,0.063
		c0.48,1.17,1.509,1.702,1.509,1.702c0.025,0.012,0.049,0.024,0.074,0.037c-0.025-0.013-0.049-0.025-0.074-0.037
		c0,0-1.029-0.532-1.509-1.702C65.933,23.604,65.924,23.582,65.916,23.562"/>
	<path clip-path="url(#SVGID_6_)" fill="#00AEBE" d="M79.489,19.559c0.115,0.541,0.631,0.891,1.153,0.78
		c0.523-0.11,0.852-0.64,0.738-1.18c-0.116-0.542-0.633-0.891-1.154-0.78C79.703,18.489,79.375,19.019,79.489,19.559"/>
	<path clip-path="url(#SVGID_6_)" fill="#F7F8F8" d="M99.589,122.574c0,0-26.675,2.762-52.331-4.598c0,0,0-10.822,1.4-22.93
		c1.199-10.367,4.412-28.421,4.493-32.655c0.081-4.231,0-14.503,0-14.503L69.12,59.449l28.295,17.446
		C97.415,76.896,99.589,101.898,99.589,122.574"/>
	<path clip-path="url(#SVGID_6_)" fill="#B5B5B6" d="M99.589,122.574c0,0-0.818,0.111-2.257,0.225
		c-1.439,0.139-3.498,0.297-5.973,0.393c-1.238,0.074-2.58,0.084-3.999,0.094c-1.42,0.01-2.917,0.041-4.467,0.021
		c-1.548-0.064-3.147-0.131-4.772-0.199c-1.626-0.068-3.279-0.115-4.922-0.303c-1.644-0.17-3.289-0.338-4.907-0.502
		c-0.809-0.094-1.615-0.146-2.403-0.27c-0.787-0.129-1.564-0.258-2.329-0.385c-1.527-0.262-3.003-0.514-4.403-0.756
		c-0.7-0.121-1.379-0.242-2.037-0.355c-0.657-0.121-1.276-0.313-1.879-0.455c-4.789-1.264-7.983-2.105-7.983-2.105
		s3.223,0.699,8.058,1.75c0.605,0.125,1.225,0.297,1.883,0.402c0.659,0.098,1.341,0.197,2.041,0.301
		c1.399,0.211,2.875,0.436,4.402,0.664c0.762,0.119,1.537,0.242,2.321,0.363c0.787,0.117,1.591,0.16,2.397,0.246
		c1.613,0.15,3.252,0.303,4.892,0.457c1.635,0.205,3.281,0.264,4.9,0.346c1.619,0.084,3.213,0.164,4.754,0.242
		c3.087,0.01,5.972,0.154,8.442,0.08c2.473-0.037,4.534-0.053,5.975-0.137C98.767,122.644,99.589,122.574,99.589,122.574"/>
	<path clip-path="url(#SVGID_6_)" fill="#FFFFFF" d="M53.151,47.89c0,0,38.144,24.719,45.086,29.006c0,0-24.815-5.195-30.234-6.893
		c0,0-3.945-0.717-2.535-4.566l0.997-3.386l-4.738,2.262c0,0-2.54,1.005-3.737-1.38C56.791,60.549,53.127,48.414,53.151,47.89"/>
	<path clip-path="url(#SVGID_6_)" fill="#B5B5B6" d="M98.238,76.896c-5.079-0.963-10.152-1.962-15.208-3.047l-7.577-1.658
		c-1.261-0.287-2.515-0.625-3.773-0.936l-3.771-0.951l0.038,0.01c-0.857-0.187-1.637-0.568-2.269-1.202
		c-0.295-0.333-0.545-0.717-0.676-1.149c-0.139-0.43-0.166-0.879-0.133-1.311c0.045-0.434,0.151-0.844,0.286-1.245l0.339-1.136
		l0.687-2.303l0.412,0.351l-2.876,1.36l-1.437,0.681c-0.226,0.103-0.484,0.252-0.784,0.311c-0.285,0.062-0.559,0.119-0.848,0.112
		c-0.574,0.046-1.15-0.133-1.671-0.392c-0.234-0.171-0.456-0.366-0.673-0.555l-0.475-0.712c-0.242-0.519-0.387-1.001-0.585-1.503
		l-0.556-1.49c-0.198-0.491-0.334-1.01-0.501-1.515l-0.48-1.522c-0.316-1.016-0.647-2.028-0.925-3.053l-0.86-3.064
		c-0.306-1.013-0.515-2.068-0.77-3.087c0.297,1.026,0.541,2.047,0.887,3.053l0.976,3.027c0.316,1.013,0.69,2.002,1.018,3.006
		l0.508,1.501c0.178,0.499,0.321,1.004,0.53,1.493l0.588,1.477c0.2,0.48,0.382,1.018,0.597,1.448l0.418,0.604
		c0.189,0.148,0.371,0.305,0.562,0.442c0.432,0.197,0.898,0.34,1.393,0.295c0.518-0.028,0.922-0.106,1.41-0.381l1.433-0.69
		l2.866-1.38l0.598-0.289l-0.185,0.64l-0.671,2.308l-0.341,1.17c-0.119,0.361-0.21,0.726-0.245,1.093
		c-0.024,0.365,0,0.727,0.113,1.062c0.104,0.338,0.302,0.635,0.538,0.902c0.498,0.506,1.21,0.868,1.915,1.023l0.012,0.003
		l0.026,0.007l3.74,0.97c1.249,0.318,2.49,0.661,3.746,0.958l7.549,1.757L98.238,76.896z"/>
</g>
<polygon fill="#DCDDDD" points="95.637,77.408 95.637,122.857 99.195,122.611 97.415,76.896 "/>
<g>
	<defs>
		<rect id="SVGID_7_" width="207.346" height="151.093"/>
	</defs>
	<clipPath id="SVGID_8_">
		<use xlink:href="#SVGID_7_"  overflow="visible"/>
	</clipPath>
	<path clip-path="url(#SVGID_8_)" fill="#FFFFFF" d="M114.082,40.697c13.543,21.876,17.617,72.162,17.617,72.162
		c-11.586,11.436-33.72,11.436-33.72,11.436l-2.342-46.887L114.082,40.697z"/>
	<path clip-path="url(#SVGID_8_)" fill="#B5B5B6" d="M121.148,56.707c0,0-0.443-1.083-1.109-2.706
		c-0.328-0.812-0.711-1.76-1.122-2.776c-0.396-1.021-0.841-2.101-1.298-3.175c-0.42-1.09-0.895-2.154-1.329-3.158
		c-0.415-1.013-0.875-1.92-1.241-2.717c-0.348-0.806-0.753-1.406-0.992-1.861c-0.248-0.45-0.389-0.706-0.389-0.706
		s0.17,0.236,0.468,0.653c0.271,0.432,0.769,0.996,1.154,1.787c0.403,0.78,0.95,1.659,1.382,2.669
		c0.456,1.001,0.956,2.063,1.395,3.149c0.889,2.169,1.684,4.372,2.228,6.043C120.844,55.576,121.148,56.707,121.148,56.707"/>
	<path clip-path="url(#SVGID_8_)" fill="#B5B5B6" d="M124.282,67.575l2.569,11.192l0.623,2.801c0.195,0.936,0.447,1.861,0.596,2.809
		l0.943,5.668l0.914,5.676c0.328,1.889,0.582,3.787,0.799,5.689l0.701,5.703c0.258,1.898,0.391,3.814,0.58,5.721l0.014,0.154
		l-0.105,0.092l-1.73,1.514c-0.555,0.531-1.205,0.939-1.826,1.389c-0.631,0.43-1.233,0.908-1.912,1.262l-1.986,1.143
		c-1.382,0.646-2.736,1.361-4.174,1.869c-0.713,0.268-1.414,0.57-2.146,0.783l-2.176,0.693l-2.205,0.584
		c-0.732,0.209-1.483,0.336-2.224,0.508c-1.483,0.326-2.983,0.586-4.487,0.791c-1.502,0.211-3.013,0.377-4.525,0.488
		c-1.513,0.121-3.029,0.193-4.545,0.191c1.515-0.045,3.027-0.162,4.532-0.33c1.505-0.16,3.005-0.369,4.496-0.627
		s2.979-0.527,4.449-0.881c0.732-0.184,1.477-0.324,2.2-0.545l2.179-0.615l2.145-0.725c0.722-0.225,1.41-0.535,2.111-0.814
		c0.695-0.287,1.404-0.543,2.074-0.891l2.032-0.982l1.948-1.135c0.668-0.352,1.254-0.826,1.871-1.254
		c0.605-0.441,1.242-0.844,1.781-1.367l1.685-1.49l-0.091,0.244c-0.195-1.898-0.355-3.803-0.599-5.699l-0.668-5.695
		c-0.206-1.902-0.448-3.797-0.766-5.684l-0.873-5.664l-0.843-5.674c-0.131-0.947-0.367-1.877-0.547-2.816l-0.576-2.813
		L124.282,67.575z"/>
	<path clip-path="url(#SVGID_8_)" fill="#FFFFFF" d="M114.082,37.695c0,0-15.509,33.75-18.445,39.712
		c0,0,13.653-13.084,18.445-18.174c0,0,2.101-1.684-0.274-3.554l-2.418-1.735l3.457-0.101c0,0,1.201-0.102,0.998-1.853
		C115.474,48.777,114.888,43.199,114.082,37.695"/>
	<path clip-path="url(#SVGID_8_)" fill="#B5B5B6" d="M95.637,77.406c2.994-3.108,6.005-6.198,9.051-9.256
		c3.031-3.07,6.113-6.093,9.168-9.141l0.004-0.004l0.022-0.021c0.181-0.158,0.358-0.382,0.487-0.602l0.166-0.347l0.07-0.362
		l-0.033-0.361l-0.109-0.352l-0.18-0.341l-0.272-0.3c-0.211-0.197-0.349-0.391-0.614-0.559l-0.727-0.526l-1.452-1.053l-0.709-0.513
		l0.873-0.022l2.524-0.06c0.403-0.039,0.903,0.044,1.133-0.094c0.294-0.129,0.48-0.435,0.521-0.801
		c0.093-0.711-0.108-1.612-0.17-2.434l-0.274-2.51c-0.383-3.347-0.695-6.702-1.033-10.056c0.486,3.334,0.998,6.663,1.441,10.001
		l0.342,2.504l0.17,1.251c0.056,0.402,0.131,0.863,0.062,1.333c-0.041,0.462-0.328,0.993-0.815,1.213
		c-0.227,0.137-0.549,0.139-0.729,0.139l-0.631,0.021l-2.523,0.083l0.164-0.534l1.461,1.039l0.73,0.52
		c0.247,0.147,0.494,0.423,0.715,0.636c0.107,0.122,0.245,0.211,0.327,0.361l0.244,0.449c0.096,0.144,0.144,0.309,0.157,0.49
		c0.016,0.175,0.074,0.352,0.045,0.524l-0.1,0.518c-0.063,0.159-0.141,0.31-0.214,0.466c-0.177,0.291-0.376,0.541-0.647,0.774
		l0.027-0.023c-3.094,3.009-6.16,6.045-9.277,9.032C101.928,71.491,98.792,74.457,95.637,77.406"/>
	<path clip-path="url(#SVGID_8_)" fill="#929292" d="M103.945,85.453c0.126,1.428-0.78,2.674-2.024,2.783
		c-1.244,0.111-2.355-0.957-2.482-2.383c-0.126-1.43,0.781-2.676,2.025-2.785C102.708,82.958,103.818,84.027,103.945,85.453"/>
	<path clip-path="url(#SVGID_8_)" fill="#929292" d="M105,99.359c0.125,1.428-0.781,2.674-2.025,2.783
		c-1.244,0.111-2.355-0.957-2.481-2.385c-0.125-1.428,0.78-2.674,2.024-2.783C103.762,96.865,104.873,97.933,105,99.359"/>
	<path clip-path="url(#SVGID_8_)" fill="#929292" d="M106.055,113.265c0.125,1.426-0.779,2.672-2.023,2.783
		c-1.245,0.109-2.355-0.957-2.481-2.385c-0.127-1.428,0.78-2.674,2.024-2.783C104.818,110.769,105.929,111.837,106.055,113.265"/>
	<path clip-path="url(#SVGID_8_)" fill="#FFFFFF" d="M104.139,85c0.126,1.428-0.78,2.674-2.024,2.785
		c-1.244,0.109-2.355-0.959-2.481-2.385c-0.126-1.428,0.78-2.674,2.024-2.783C102.901,82.507,104.013,83.574,104.139,85"/>
	<path clip-path="url(#SVGID_8_)" fill="#EFEFEF" d="M103.351,85.07c0.082,0.928-0.508,1.74-1.317,1.811
		c-0.808,0.07-1.53-0.623-1.613-1.551c-0.081-0.928,0.508-1.738,1.317-1.811C102.547,83.449,103.268,84.142,103.351,85.07"/>
	<path clip-path="url(#SVGID_8_)" fill="#929292" d="M103.351,85.07c-0.083-0.928-0.804-1.621-1.613-1.551
		c-0.355,0.033-0.662,0.211-0.895,0.473c0.202-0.158,0.437-0.264,0.701-0.289c0.809-0.07,1.531,0.623,1.613,1.551
		c0.046,0.521-0.125,1.002-0.422,1.338C103.152,86.263,103.406,85.697,103.351,85.07"/>
	<path clip-path="url(#SVGID_8_)" fill="#FFFFFF" d="M105.193,98.906c0.127,1.428-0.779,2.674-2.024,2.785
		c-1.244,0.109-2.355-0.959-2.482-2.385c-0.125-1.428,0.781-2.674,2.025-2.783C103.956,96.412,105.067,97.48,105.193,98.906"/>
	<path clip-path="url(#SVGID_8_)" fill="#EFEFEF" d="M104.522,98.976c0.082,0.928-0.508,1.738-1.317,1.811
		c-0.809,0.07-1.531-0.623-1.613-1.551s0.508-1.738,1.316-1.811C103.719,97.355,104.439,98.048,104.522,98.976"/>
	<path clip-path="url(#SVGID_8_)" fill="#929292" d="M104.522,98.976c-0.083-0.928-0.804-1.621-1.614-1.551
		c-0.355,0.031-0.662,0.211-0.894,0.473c0.201-0.158,0.437-0.266,0.701-0.289c0.809-0.07,1.53,0.623,1.612,1.551
		c0.047,0.521-0.125,1.002-0.421,1.338C104.324,100.167,104.578,99.603,104.522,98.976"/>
	<path clip-path="url(#SVGID_8_)" fill="#FFFFFF" d="M106.248,112.812c0.126,1.428-0.78,2.674-2.023,2.783
		c-1.245,0.111-2.355-0.957-2.481-2.385c-0.126-1.426,0.78-2.672,2.024-2.783C105.012,110.318,106.122,111.384,106.248,112.812"/>
	<path clip-path="url(#SVGID_8_)" fill="#EFEFEF" d="M105.525,112.878c0.082,0.926-0.508,1.736-1.317,1.809
		c-0.808,0.07-1.53-0.623-1.612-1.551s0.507-1.738,1.316-1.811C104.721,111.253,105.441,111.949,105.525,112.878"/>
	<path clip-path="url(#SVGID_8_)" fill="#929292" d="M105.525,112.878c-0.084-0.93-0.805-1.625-1.613-1.553
		c-0.355,0.033-0.662,0.211-0.894,0.473c0.201-0.158,0.436-0.266,0.7-0.289c0.81-0.07,1.531,0.623,1.614,1.551
		c0.045,0.521-0.125,1-0.424,1.338C105.326,114.07,105.581,113.503,105.525,112.878"/>
	<path clip-path="url(#SVGID_8_)" fill="#FFFFFF" d="M120.314,65.705l1.185,6.558c0.474,3.111-0.114,5.368-3.991,6.377
		c-4.129,1.074-6.603,0.344-7.111-1.455l-1.803-8.088L120.314,65.705z"/>
	<path clip-path="url(#SVGID_8_)" fill="#B5B5B6" d="M108.595,69.099c3.873-1.245,7.758-2.449,11.659-3.6l0.228-0.066l0.044,0.234
		l1.055,5.689c0.084,0.46,0.178,0.97,0.213,1.447c0.072,0.471,0.061,0.977,0.054,1.479c0.01,0.251-0.067,0.496-0.099,0.745
		c-0.03,0.249-0.08,0.496-0.191,0.729c-0.145,0.495-0.443,0.91-0.752,1.317c-0.165,0.193-0.377,0.337-0.564,0.507
		c-0.184,0.178-0.39,0.318-0.619,0.42c-0.437,0.248-0.883,0.461-1.362,0.582c-0.462,0.164-0.946,0.289-1.419,0.367
		c-0.469,0.105-0.946,0.191-1.438,0.227c-0.485,0.072-0.975,0.082-1.464,0.063c-0.488,0.018-0.975-0.113-1.449-0.203l-0.691-0.252
		c-0.215-0.117-0.413-0.264-0.618-0.395c-0.187-0.156-0.326-0.363-0.489-0.541c-0.115-0.213-0.195-0.445-0.292-0.664
		c0.11,0.214,0.2,0.441,0.324,0.642c0.172,0.166,0.317,0.361,0.505,0.502c0.209,0.115,0.407,0.248,0.619,0.35l0.681,0.205
		c0.468,0.063,0.938,0.166,1.416,0.121c0.478,0,0.951-0.02,1.421-0.105c0.469-0.047,0.938-0.146,1.408-0.266
		c0.479-0.094,0.922-0.225,1.367-0.398c0.22-0.084,0.451-0.145,0.662-0.246l0.611-0.34c0.215-0.098,0.403-0.23,0.565-0.393
		c0.167-0.156,0.362-0.289,0.507-0.461c0.268-0.369,0.535-0.736,0.658-1.184c0.1-0.207,0.143-0.435,0.168-0.665
		c0.025-0.229,0.098-0.453,0.084-0.686c0-0.464,0.012-0.924-0.066-1.409c-0.041-0.483-0.129-0.921-0.223-1.41l-1.003-5.698
		l0.271,0.167C116.463,67.025,112.535,68.081,108.595,69.099"/>
	<path clip-path="url(#SVGID_8_)" fill="#C9CACA" d="M108.595,69.099c0,0,2.187,0.217,6.444-1.063
		c5.033-1.514,5.275-2.331,5.275-2.331L108.595,69.099z"/>
	<path clip-path="url(#SVGID_8_)" fill="#B5B5B6" d="M134.992,62.64c0,0-0.128,0.525-0.231,1.312
		c-0.056,0.394-0.136,0.853-0.194,1.347c-0.039,0.499-0.08,1.031-0.122,1.563c-0.038,0.532-0.104,1.063-0.071,1.564
		c0.008,0.501,0.018,0.969,0.024,1.368c0.017,0.806,0.026,1.341,0.026,1.341s-0.041-0.534-0.102-1.335
		c-0.029-0.401-0.064-0.87-0.104-1.372c-0.061-0.503-0.024-1.04-0.018-1.576c0.014-0.537,0.024-1.075,0.035-1.58
		c0.032-0.504,0.086-0.975,0.12-1.38c0.062-0.813,0.158-1.334,0.158-1.334L134.992,62.64z"/>
	<path clip-path="url(#SVGID_8_)" fill="#FDD676" d="M78.02,101.765c-0.124,1.24,0.795,2.135,2.056,2l23.016-2.496
		c1.261-0.135,2.384-1.252,2.509-2.492l3.495-34.671c0.125-1.24-0.795-2.135-2.057-1.998l-23.015,2.494
		c-1.26,0.137-2.385,1.253-2.509,2.493L78.02,101.765z"/>
	<path clip-path="url(#SVGID_8_)" fill="#D7B96B" d="M79.335,101.878l3.395-33.677c0.122-1.204,1.213-2.289,2.437-2.422
		l22.356-2.422c0.656-0.072,1.211,0.15,1.572,0.553v0.196l-3.495,34.67c-0.125,1.24-1.247,2.357-2.51,2.492l-22.644,2.455
		C79.709,103.466,79.246,102.765,79.335,101.878"/>
	<path clip-path="url(#SVGID_8_)" fill="#003F85" d="M79.679,82.123c0,0-1.37-4.047-0.624-5.568c0.745-1.52,2.482-0.987,2.465,0.74
		c-0.018,1.727,0.71,3.74,0.71,3.74"/>
	<path clip-path="url(#SVGID_8_)" fill="#003F85" d="M89.084,85.326c0,0,2.588-3.027,2.468-4.602
		c-0.119-1.572-1.806-1.713-2.389-0.213s-1.91,2.992-1.91,2.992"/>
	<path clip-path="url(#SVGID_8_)" fill="#003F85" d="M87.388,83.587c0,0,2.586-3.027,2.467-4.6
		c-0.118-1.572-1.806-1.715-2.388-0.215c-0.583,1.5-1.909,2.992-1.909,2.992"/>
	<path clip-path="url(#SVGID_8_)" fill="#008590" d="M87.467,78.773c0.039,0.043,0.093-0.564,0.834-0.979
		c0.358-0.186,0.975-0.143,1.316,0.332c0.18,0.227,0.25,0.51,0.302,0.807c-0.019,0.291-0.01,0.623-0.129,0.91
		c-0.407,1.189-1.095,2.092-1.569,2.738c-0.495,0.639-0.833,1.006-0.833,1.006s0.309-0.393,0.771-1.051
		c0.441-0.664,1.093-1.592,1.484-2.736c0.116-0.281,0.103-0.578,0.129-0.852c-0.046-0.277-0.103-0.537-0.259-0.744
		c-0.291-0.43-0.834-0.494-1.182-0.338C87.613,78.216,87.5,78.816,87.467,78.773"/>
	<path clip-path="url(#SVGID_8_)" fill="#003F85" d="M85.343,82.283c0,0,2.587-3.025,2.467-4.6
		c-0.118-1.574-1.806-1.715-2.388-0.215c-0.583,1.5-1.91,2.992-1.91,2.992"/>
	<path clip-path="url(#SVGID_8_)" fill="#008590" d="M85.421,77.468c0.039,0.041,0.093-0.566,0.835-0.977
		c0.358-0.187,0.975-0.144,1.316,0.33c0.179,0.228,0.249,0.51,0.301,0.809c-0.018,0.289-0.009,0.621-0.128,0.908
		c-0.407,1.189-1.095,2.092-1.569,2.738c-0.496,0.639-0.833,1.006-0.833,1.006s0.308-0.393,0.771-1.051
		c0.441-0.666,1.092-1.59,1.484-2.736c0.115-0.281,0.103-0.578,0.129-0.852c-0.046-0.277-0.104-0.538-0.26-0.745
		c-0.291-0.43-0.833-0.493-1.181-0.339C85.567,76.912,85.456,77.509,85.421,77.468"/>
	<path clip-path="url(#SVGID_8_)" fill="#003F85" d="M82.727,81.378c0,0,2.902-2.727,2.955-4.302
		c0.053-1.577-1.61-1.902-2.352-0.475c-0.743,1.427-2.224,2.767-2.224,2.767"/>
	<path clip-path="url(#SVGID_8_)" fill="#008590" d="M83.33,76.602c0.034,0.045,0.154-0.552,0.937-0.879
		c0.376-0.147,0.985-0.037,1.272,0.472c0.153,0.244,0.192,0.533,0.211,0.835c-0.049,0.287-0.077,0.619-0.226,0.89
		c-0.534,1.137-1.317,1.961-1.859,2.553c-0.562,0.58-0.938,0.906-0.938,0.906s0.349-0.355,0.881-0.959
		c0.512-0.613,1.26-1.463,1.774-2.559c0.146-0.268,0.166-0.564,0.221-0.833c-0.015-0.28-0.044-0.547-0.176-0.768
		c-0.243-0.459-0.776-0.581-1.138-0.465C83.536,76.064,83.357,76.646,83.33,76.602"/>
	<path clip-path="url(#SVGID_8_)" fill="#ABCD03" d="M51.783,75.9c0,0-0.982,21.839,10.325,29.496
		c11.308,7.658,20.832,1.42,25.615-6.584c4.035-6.752,4.786-15.43-1.2-18.705c-5.416-2.961-9.856-0.023-11.821,3.797
		c-1.964,3.822-5.871,6.498-5.871,6.498"/>
	<path clip-path="url(#SVGID_8_)" fill="#53B332" d="M68.832,90.402c0,0,1.242-0.844,3.088-2.795
		c0.899-0.998,1.906-2.293,2.787-3.984c0.891-1.689,2.408-3.502,4.729-4.428c2.307-0.961,5.293-0.582,7.734,0.986
		c1.242,0.764,2.323,1.92,3.009,3.33c0.696,1.402,1.02,3.01,1.06,4.637c0.046,3.271-0.926,6.625-2.537,9.744
		c-1.655,3.09-3.955,6.035-7.01,8.227c-1.507,1.117-3.201,1.953-4.955,2.486c-0.87,0.307-1.778,0.424-2.67,0.578
		c-0.9,0.035-1.802,0.164-2.685,0.043c-3.562-0.246-6.792-1.678-9.43-3.506c-2.695-1.863-4.56-4.42-5.89-6.932
		c-1.341-2.525-2.192-5.064-2.76-7.41c-1.185-4.693-1.406-8.615-1.527-11.299c-0.094-2.691,0.009-4.179,0.009-4.179
		s-0.05,1.492,0.123,4.173c0.199,2.672,0.529,6.576,1.805,11.197c0.613,2.311,1.506,4.795,2.86,7.24
		c1.343,2.434,3.188,4.871,5.781,6.615c2.592,1.748,5.708,3.08,9.079,3.287c0.838,0.113,1.688-0.02,2.539-0.053
		c0.841-0.154,1.698-0.264,2.519-0.559c1.658-0.51,3.265-1.305,4.708-2.373c2.922-2.094,5.164-4.938,6.786-7.918
		c1.58-3.004,2.545-6.24,2.539-9.352c-0.019-1.547-0.306-3.055-0.93-4.367c-0.617-1.313-1.59-2.389-2.736-3.125
		c-2.292-1.521-5.076-1.934-7.269-1.074c-2.214,0.822-3.736,2.531-4.646,4.158c-0.932,1.684-1.994,2.973-2.925,3.947
		C70.102,89.605,68.832,90.402,68.832,90.402"/>
	<path clip-path="url(#SVGID_8_)" fill="#FFF100" d="M81.514,67.095c0.015,0.005,0.009-0.234,0.159-0.641
		c0.142-0.401,0.482-0.996,1.185-1.447c0.698-0.515,1.769-0.478,2.912-0.639c1.163-0.135,2.487-0.286,3.95-0.456
		c2.931-0.33,6.417-0.726,10.284-1.162c1.937-0.215,3.968-0.441,6.075-0.675c0.522-0.042,1.054-0.172,1.636-0.069
		c0.565,0.101,1.096,0.483,1.34,1.026c0.265,0.542,0.176,1.164,0.121,1.695c-0.057,0.552-0.111,1.107-0.168,1.666
		c-1.804,17.893-3.406,32.381-3.406,32.381s1.32-14.518,3.125-32.409c0.056-0.56,0.113-1.115,0.168-1.667
		c0.061-0.561,0.131-1.089-0.094-1.55c-0.207-0.459-0.648-0.782-1.141-0.873c-0.482-0.093-1.025,0.023-1.552,0.067
		c-2.107,0.223-4.141,0.438-6.078,0.644c-3.872,0.401-7.361,0.763-10.295,1.065c-1.465,0.149-2.79,0.285-3.955,0.403
		c-1.153,0.147-2.21,0.095-2.898,0.589c-0.702,0.433-1.049,1.016-1.197,1.413C81.527,66.86,81.529,67.1,81.514,67.095"/>
</g>
<g>
	<defs>
		<path id="SVGID_9_" d="M67.524,25.364l-0.001-0.002L67.524,25.364z M65.916,23.562c-0.003-0.006-0.005-0.013-0.008-0.021
			C65.911,23.549,65.913,23.556,65.916,23.562 M65.496,18.484c0.001-0.002,0.001-0.005,0.002-0.008
			C65.497,18.479,65.497,18.482,65.496,18.484 M65.51,18.445c0.002-0.007,0.005-0.012,0.007-0.018
			C65.515,18.434,65.512,18.438,65.51,18.445 M65.527,18.402c0.004-0.008,0.007-0.016,0.01-0.024
			C65.534,18.387,65.531,18.395,65.527,18.402 M65.544,18.359c0.006-0.011,0.01-0.021,0.015-0.032
			C65.554,18.338,65.55,18.349,65.544,18.359 M65.562,18.316c0.176-0.401,0.426-0.752,0.764-1.021
			C65.988,17.564,65.738,17.915,65.562,18.316 M66.326,17.293c0.013-0.009,0.025-0.02,0.037-0.028
			C66.351,17.273,66.339,17.284,66.326,17.293 M66.368,17.26c0.012-0.007,0.022-0.017,0.034-0.025
			C66.39,17.243,66.38,17.253,66.368,17.26 M66.409,17.229c0.011-0.008,0.022-0.015,0.033-0.022
			C66.431,17.215,66.42,17.222,66.409,17.229 M66.45,17.2c0.01-0.007,0.021-0.014,0.032-0.022
			C66.471,17.187,66.46,17.193,66.45,17.2 M66.491,17.173c0.011-0.008,0.022-0.014,0.032-0.022
			C66.513,17.159,66.502,17.165,66.491,17.173 M66.533,17.145c0.011-0.006,0.024-0.015,0.035-0.021
			C66.557,17.13,66.544,17.139,66.533,17.145 M66.575,17.119c0.014-0.01,0.029-0.018,0.044-0.026
			C66.604,17.102,66.589,17.109,66.575,17.119 M66.696,17.049l0.008-0.005L66.696,17.049z M73.354,15.4h-0.002H73.354L73.354,15.4z
			 M73.393,15.399c0.064-0.004,0.128-0.005,0.19-0.007C73.521,15.395,73.457,15.396,73.393,15.399"/>
	</defs>
	<clipPath id="SVGID_10_">
		<use xlink:href="#SVGID_9_"  overflow="visible"/>
	</clipPath>
	<rect x="65.496" y="15.393" clip-path="url(#SVGID_10_)" fill="#C7DC68" width="8.088" height="9.972"/>
</g>
<g>
	<defs>
		<rect id="SVGID_11_" width="207.346" height="151.093"/>
	</defs>
	<clipPath id="SVGID_12_">
		<use xlink:href="#SVGID_11_"  overflow="visible"/>
	</clipPath>
	<path clip-path="url(#SVGID_12_)" fill="#D8E69B" d="M73.583,15.393c-0.062,0.001-0.126,0.004-0.19,0.007
		c-0.013,0-0.026,0.001-0.039,0.001h-0.003c-1.171,0.05-2.546,0.211-3.892,0.564c-0.96,0.252-1.908,0.6-2.755,1.079l-0.008,0.005
		c-0.026,0.014-0.052,0.028-0.077,0.044c-0.015,0.009-0.03,0.017-0.044,0.026c-0.002,0.001-0.005,0.003-0.007,0.005
		c-0.012,0.006-0.024,0.015-0.035,0.021c-0.003,0.003-0.006,0.004-0.01,0.007c-0.01,0.007-0.021,0.014-0.032,0.021
		c-0.003,0.002-0.006,0.005-0.009,0.006c-0.011,0.008-0.022,0.015-0.033,0.021c-0.002,0.003-0.005,0.005-0.008,0.008
		c-0.01,0.008-0.021,0.015-0.032,0.022c-0.003,0.002-0.005,0.004-0.007,0.005c-0.012,0.008-0.023,0.019-0.034,0.026
		c-0.002,0.001-0.003,0.003-0.004,0.004c-0.013,0.009-0.025,0.019-0.038,0.028c0,0.001,0,0.001-0.001,0.001
		c-0.337,0.27-0.587,0.62-0.762,1.022c-0.002,0.003-0.003,0.007-0.004,0.01c-0.005,0.013-0.01,0.023-0.015,0.033
		c-0.002,0.007-0.005,0.013-0.007,0.019c-0.003,0.009-0.007,0.017-0.01,0.024c-0.003,0.009-0.007,0.017-0.009,0.025
		c-0.003,0.007-0.006,0.012-0.008,0.018c-0.004,0.012-0.008,0.022-0.012,0.031c-0.001,0.003-0.002,0.006-0.003,0.008
		c-0.478,1.288-0.268,3.053,0.221,4.524c0.06,0.181,0.124,0.361,0.192,0.532c0.002,0.008,0.005,0.015,0.008,0.021
		c0.008,0.021,0.016,0.042,0.025,0.063c0.48,1.171,1.509,1.702,1.509,1.702c0.025,0.013,0.049,0.024,0.074,0.036v0.001
		c0.371,0.187,0.728,0.339,1.104,0.46C70.45,20.775,72.383,17.296,73.583,15.393"/>
	<path clip-path="url(#SVGID_12_)" fill="#C7DC68" d="M86.712,23.479c-0.009,0-0.019,0.003-0.028,0.003
		C86.693,23.481,86.704,23.479,86.712,23.479 M86.641,23.487c-0.012,0.002-0.025,0.004-0.037,0.005
		C86.616,23.491,86.628,23.489,86.641,23.487 M86.572,23.496c-0.021,0.003-0.044,0.007-0.065,0.009
		C86.528,23.503,86.551,23.499,86.572,23.496 M86.495,23.507c-0.025,0.003-0.05,0.005-0.075,0.009
		C86.445,23.512,86.47,23.51,86.495,23.507 M86.417,23.516c-0.054,0.008-0.109,0.015-0.164,0.021
		C86.308,23.53,86.363,23.523,86.417,23.516"/>
	<path clip-path="url(#SVGID_12_)" fill="#D8E69B" d="M91.261,13.449c-0.97,1.419-3.057,4.792-5.096,10.094l0.087-0.006
		c0.056-0.008,0.11-0.015,0.164-0.021h0.002c0.026-0.003,0.051-0.006,0.076-0.009c0.004-0.001,0.008-0.001,0.012-0.001
		c0.022-0.003,0.044-0.007,0.065-0.01c0.011-0.001,0.021-0.002,0.032-0.005c0.012-0.001,0.025-0.002,0.038-0.005
		c0.014-0.001,0.029-0.003,0.043-0.005c0.01,0,0.019-0.003,0.028-0.003c1.41-0.185,2.431-0.372,3.243-0.642l2.955-6.519
		C92.617,15.13,92.087,14.039,91.261,13.449"/>
	<path clip-path="url(#SVGID_12_)" fill="#F7F8F8" d="M72.496,85.652c0,0,12.706,8.695,12.848,19.781
		c0,0-12.429,10.023-23.709,1.945c-13.183-9.441-9.873-33.647-9.873-33.647l4.758,0.399l12.318,15.568L72.496,85.652z"/>
	<path clip-path="url(#SVGID_12_)" fill="#B5B5B6" d="M66.051,92.781l6.383-7.184l0.049-0.055l0.06,0.043
		c3.338,2.34,6.322,5.195,8.746,8.494c1.205,1.65,2.246,3.432,3.023,5.336c0.377,0.955,0.686,1.939,0.915,2.943
		c0.213,1.012,0.333,2.037,0.365,3.072l0.004,0.123l-0.096,0.074c-2.08,1.59-4.376,2.828-6.805,3.766
		c-2.431,0.918-5.027,1.475-7.652,1.449c-2.624-0.031-5.228-0.738-7.535-1.969c-1.154-0.605-2.228-1.402-3.219-2.203
		c-0.977-0.883-1.917-1.793-2.702-2.832c-3.244-4.117-4.87-9.221-5.685-14.291c-0.414-2.551-0.595-5.133-0.603-7.709
		c-0.012-2.58,0.121-5.158,0.462-7.708c-0.519,5.121-0.317,10.3,0.494,15.359c0.854,5.025,2.52,10.049,5.725,14.033
		c0.776,1.012,1.705,1.889,2.641,2.723c1.015,0.805,2.023,1.535,3.157,2.121c2.242,1.17,4.748,1.814,7.276,1.834
		c2.527,0.049,5.056-0.465,7.441-1.342c2.378-0.889,4.669-2.1,6.692-3.619l-0.093,0.197c-0.021-1-0.129-1.996-0.326-2.979
		c-0.214-0.98-0.506-1.943-0.866-2.879c-0.742-1.871-1.75-3.635-2.924-5.277c-1.178-1.639-2.51-3.172-3.947-4.598
		c-1.432-1.43-2.95-2.785-4.582-3.982l0.108-0.014L66.051,92.781z"/>
	<path clip-path="url(#SVGID_12_)" fill="#B1336F" d="M27.776,94.662c-3.284-8.516-8.396-16.143-8.396-16.143l0.018-12.091
		c0.001-0.821,0.041-1.646,0.05-2.467c0.007-0.663,0.04-1.445,0.473-1.987c0.466-0.586,0.609-0.688,1.167-1.017
		c0.305-0.182,0.742-0.472,0.742-0.922v-1.494h-2.209c-1.158-0.314-2.678-0.506-4.35-0.506s-3.192,0.191-4.351,0.506H8.731
		l-0.019,1.494c0,0.453,0.44,0.744,0.747,0.926c0.721,0.427,0.854,0.468,1.238,1.403c0.494,1.204,0.447,2.78,0.45,4.063
		l0.018,12.091c0,0-5.112,7.627-8.397,16.143c0,0-1.168,3.236,0.894,5.119c0.156,0.207,1.828,1.039,2.918,1.221
		c2.126,0.463,5.171,0.756,8.566,0.756c3.257,0,6.199-0.27,8.31-0.699C29.679,99.941,27.776,94.662,27.776,94.662"/>
	<path clip-path="url(#SVGID_12_)" fill="#E63E90" d="M8.698,58.386c0.044,0.583,0.087,1.167,0.103,1.748l-0.003-0.022
		c0.16,0.482,0.698,0.729,1.193,0.94c0.504,0.207,1.041,0.339,1.579,0.463c1.086,0.213,2.198,0.299,3.315,0.402
		c-0.558,0.013-1.122,0.072-1.683,0.029c-0.564-0.009-1.124-0.075-1.683-0.166c-0.554-0.11-1.114-0.232-1.637-0.474
		c-0.267-0.109-0.517-0.252-0.758-0.41c-0.256-0.175-0.445-0.428-0.525-0.739l-0.004-0.011l0.001-0.013
		C8.612,59.553,8.654,58.969,8.698,58.386"/>
	<path clip-path="url(#SVGID_12_)" fill="#E63E90" d="M8.616,91.187c-1.15,2.615-2.481,4.559-2.972,4.344
		c-0.49-0.215,0.045-2.51,1.196-5.125c1.151-2.617,2.482-4.563,2.972-4.346C10.303,86.275,9.767,88.57,8.616,91.187"/>
	<path clip-path="url(#SVGID_12_)" fill="#E63E90" d="M11.147,66.006c0.111,4.17,0.22,8.341,0.266,12.511l0.001,0.072l-0.043,0.066
		c-0.527,0.83-1.038,1.67-1.52,2.529c-0.487,0.857-1.007,1.693-1.487,2.555l-1.372,2.615l-0.686,1.309
		c-0.22,0.438-0.478,0.861-0.666,1.314L3.267,94.38c-0.233,0.457-0.317,0.865-0.405,1.344c-0.074,0.465-0.1,0.934-0.067,1.396
		c0.059,0.449,0.108,0.924,0.328,1.32c0.136,0.441,0.484,0.746,0.753,1.107L3.9,99.583l0.013,0.008
		c0.215,0.139,0.612,0.344,0.973,0.521c0.378,0.139,0.752,0.334,1.137,0.426c0.378,0.115,0.763,0.207,1.191,0.254l1.243,0.193
		c0.83,0.107,1.657,0.316,2.487,0.342l2.494,0.141c0.84,0.037,1.652,0.131,2.496,0.076l2.518-0.045l1.259-0.021l1.245-0.141
		l2.5-0.281l-2.488,0.406l-1.249,0.199l-1.257,0.084l-2.513,0.16c-0.833,0.078-1.698,0.008-2.535-0.006l-2.537-0.076
		c-0.85-0.004-1.67-0.191-2.506-0.275l-1.248-0.168c-0.41-0.039-0.842-0.133-1.27-0.258c-0.434-0.104-0.813-0.297-1.221-0.445
		c-0.389-0.203-0.768-0.326-1.222-0.705l0.039,0.041c-0.337-0.414-0.743-0.793-0.916-1.309c-0.26-0.477-0.326-1.016-0.395-1.531
		c-0.043-0.525-0.017-1.043,0.059-1.557c0.078-0.492,0.211-1.061,0.431-1.486l2.411-5.443c0.194-0.457,0.457-0.879,0.683-1.32
		l0.702-1.311l1.405-2.621c0.494-0.857,1.012-1.703,1.528-2.547c0.508-0.85,1.047-1.684,1.602-2.508l-0.042,0.139
		C10.952,74.347,11.045,70.176,11.147,66.006"/>
	<path clip-path="url(#SVGID_12_)" fill="#E63E90" d="M21.806,58.466c0,0.997-2.937,1.805-6.559,1.805
		c-3.623,0-6.559-0.808-6.559-1.805c0-0.996,2.936-1.805,6.559-1.805C18.869,56.661,21.806,57.47,21.806,58.466"/>
	<path clip-path="url(#SVGID_12_)" fill="#4F004D" d="M20.522,58.267c0,0.589-2.363,1.066-5.276,1.066s-5.275-0.478-5.275-1.066
		c0-0.588,2.362-1.063,5.275-1.063S20.522,57.679,20.522,58.267"/>
	<path clip-path="url(#SVGID_12_)" fill="#FFF100" d="M10.682,58.8c0.913,0.318,2.613,0.533,4.564,0.533
		c1.952,0,3.651-0.215,4.564-0.533c-0.913-0.317-2.612-0.532-4.564-0.532C13.295,58.268,11.595,58.482,10.682,58.8"/>
	<path clip-path="url(#SVGID_12_)" fill="#E63E90" d="M24.754,98.746c0,1.088-4.318,1.971-9.646,1.971
		c-5.327,0-9.645-0.883-9.645-1.971c0-1.09,4.318-1.973,9.645-1.973C20.436,96.773,24.754,97.656,24.754,98.746"/>
	<path clip-path="url(#SVGID_12_)" fill="#ABCD03" d="M11.06,65.945c0,0-5.126,3.075-6.729,10.573
		c-0.627,2.93-0.382,6.868,2.687,8.967c3.584,2.451,8.136,0.547,10.809-1.705c2.154-1.814,3.535-4.205,5.458-6.205
		c0.676-0.704,1.45-1.312,2.273-1.836c0.932-0.593,1.854-1.311,2.951-1.565c0.698-0.162,2.292,0.151,2.292-0.934
		c0.001-1.414-1.251-2.261-4.321-2.907c-5.705-1.201-11.1,1.504-15.408,4.915L11.06,65.945z"/>
</g>
<polygon fill="#ABCD03" points="10.67,75.213 10.696,75.226 10.798,75.116 "/>
<g>
	<defs>
		<rect id="SVGID_13_" width="207.346" height="151.093"/>
	</defs>
	<clipPath id="SVGID_14_">
		<use xlink:href="#SVGID_13_"  overflow="visible"/>
	</clipPath>
	<path clip-path="url(#SVGID_14_)" fill="#00A29A" d="M11.072,75.189l-0.012-9.244c0,0-6.79,4.098-7.006,13.318
		C5.185,77.343,7.878,75.115,11.072,75.189"/>
	<path clip-path="url(#SVGID_14_)" fill="#00A29A" d="M26.48,70.333c-4.644-0.979-9.083,0.633-12.897,3.106
		c-0.008,0.006-2.223,2.128-1.014,5.912c1.206,3.773,6.12,3.586,6.166,3.584c1.664-1.672,2.912-3.656,4.549-5.359
		c0.677-0.704,1.45-1.312,2.274-1.836c0.931-0.594,1.854-1.311,2.951-1.565c0.698-0.162,2.292,0.151,2.293-0.934
		C30.803,71.826,29.551,70.979,26.48,70.333"/>
	<path clip-path="url(#SVGID_14_)" fill="#FFEE00" d="M28.509,74.174c0,0,0.112-0.042,0.338-0.083
		c0.221-0.037,0.543-0.09,0.955-0.159c0.404-0.067,0.865-0.26,0.785-0.758c-0.002-0.544-0.301-1.08-0.871-1.453
		c-0.556-0.38-1.28-0.644-2.058-0.856c-0.783-0.212-1.622-0.41-2.499-0.459c-0.859-0.08-1.787-0.002-2.705,0.098
		c-0.922,0.129-1.85,0.321-2.762,0.579c-1.823,0.521-3.584,1.26-5.151,2.111c-0.777,0.436-1.516,0.88-2.188,1.349
		c-0.676,0.459-1.289,0.934-1.848,1.378c-0.541,0.467-1.058,0.875-1.462,1.294c-0.414,0.41-0.794,0.748-1.061,1.07
		c-0.559,0.623-0.878,0.979-0.878,0.979s0.305-0.369,0.838-1.014c0.255-0.334,0.62-0.689,1.019-1.118
		c0.389-0.438,0.89-0.869,1.417-1.361c2.147-1.908,5.466-4.029,9.197-5.099c0.928-0.27,1.875-0.474,2.819-0.612
		c0.951-0.108,1.881-0.198,2.812-0.121c0.917,0.052,1.782,0.232,2.581,0.468c0.8,0.231,1.559,0.51,2.186,0.95
		c0.643,0.411,1.052,1.156,1.035,1.791c0.042,0.336-0.147,0.732-0.436,0.863c-0.268,0.148-0.52,0.168-0.735,0.188
		c-0.435,0.025-0.76-0.033-0.984-0.033C28.63,74.158,28.509,74.174,28.509,74.174"/>
	<path clip-path="url(#SVGID_14_)" fill="#449ECE" d="M189.193,31.03c0.865,7.63,0.864,13.052,0.623,19.233
		c4.562-2.581,7.685-5.702,8.217-9.46l-0.02,0.791c0.014-0.27,0.02-0.532,0.02-0.791C198.033,40.804,199.049,32.942,189.193,31.03"
		/>
	<path clip-path="url(#SVGID_14_)" fill="#00ADB6" d="M177.18,55.332c-3.822,1.132-7.857,2.083-11.828,2.876
		c2.272,1.057,4.525,2.237,6.721,3.562l-0.396,0.66c-2.484-1.495-5.046-2.812-7.621-3.967c-1.99,0.384-3.955,0.729-5.858,1.036
		c-0.269,0.698-0.572,1.401-0.903,2.11c6.105,2.165,12.543,4.962,18.982,8.573C176.657,65.776,176.987,60.722,177.18,55.332"/>
	<path clip-path="url(#SVGID_14_)" fill="#4CBBDF" d="M165.353,58.208c-0.433,0.087-0.868,0.172-1.298,0.255
		c2.576,1.155,5.137,2.471,7.619,3.967l0.398-0.661C169.877,60.445,167.625,59.265,165.353,58.208"/>
	<path clip-path="url(#SVGID_14_)" fill="#3DAA34" d="M158.195,59.499c-5.873,0.95-11.166,1.561-14.818,1.921
		c0.369,0.439,0.753,0.864,1.152,1.277c2.486,2.615,5.553,4.68,8.92,6.043c0.49-0.84,0.947-1.65,1.371-2.408
		C156.113,64.024,157.339,61.729,158.195,59.499"/>
	<path clip-path="url(#SVGID_14_)" fill="#6FBBDE" d="M142.916,61.466c-2.901,0.282-4.652,0.396-4.652,0.396
		c0.322,5.442,0.595,13.258,0.656,22.253c2.453-0.314,4.766-1.297,6.849-2.896c3.587-2.75,8.226-12.265,8.226-12.265
		c-3.615-1.247-6.992-3.276-9.714-6.014C143.807,62.466,143.352,61.975,142.916,61.466"/>
	<path clip-path="url(#SVGID_14_)" fill="#528EA9" d="M143.377,61.42c-0.156,0.016-0.309,0.031-0.461,0.046
		c0.436,0.509,0.891,1,1.364,1.474c2.721,2.737,6.098,4.767,9.713,6.014c-0.183-0.068-0.363-0.14-0.544-0.212
		c-3.367-1.364-6.434-3.429-8.921-6.044C144.13,62.285,143.746,61.858,143.377,61.42"/>
	<path clip-path="url(#SVGID_14_)" fill="#77C7ED" d="M198.034,40.803c-0.533,3.759-3.656,6.88-8.218,9.46
		c-3.528,1.997-7.916,3.672-12.637,5.069c-0.192,5.389-0.522,10.444-0.904,14.852c-6.439-3.612-12.877-6.409-18.982-8.574
		c-0.727,1.556-1.584,3.137-2.473,4.723c-0.424,0.757-0.881,1.568-1.371,2.408c0.181,0.073,0.361,0.145,0.544,0.213
		c0,0-4.638,9.515-8.226,12.265c-2.082,1.6-4.395,2.582-6.848,2.896c0.066,9.354-0.094,19.986-0.656,30.551
		c0,0,0.641,0.039,1.83,0.039c4.875,0,18.965-0.629,35.916-7.033c19.758-7.461,20.723-15.283,20.723-15.283l1.281-50.794
		L198.034,40.803z"/>
	<path clip-path="url(#SVGID_14_)" fill="#ADDEF8" d="M158.824,107.917V80.105c0,0,3.393-0.24,6.623-1.213v27.254"/>
	<path clip-path="url(#SVGID_14_)" fill="#ADDEF8" d="M172.547,103.611v-21c0,0,3.312-0.605,6.623-1.965v20.789"/>
	<path clip-path="url(#SVGID_14_)" fill="#ADDEF8" d="M184.55,98.187V75.068c0,0,3.252-0.771,5.595-2.287v21.96"/>
</g>
<rect x="150.433" y="100.298" transform="matrix(-0.0845 -0.9964 0.9964 -0.0845 63.3072 258.9199)" fill="#ADDEF8" width="0.323" height="0.162"/>
<path fill="#ADDEF8" d="M191.778,84.214l-0.276-0.168l0.164-0.275l0.279,0.162L191.778,84.214z M191.241,85.035l-0.263-0.189
	l0.181-0.26l0.269,0.178L191.241,85.035z M190.652,85.814l-0.251-0.203l0.196-0.25l0.257,0.197L190.652,85.814z M190.016,86.556
	l-0.239-0.217l0.212-0.24l0.245,0.215L190.016,86.556z M189.342,87.263l-0.229-0.229l0.225-0.229l0.232,0.227L189.342,87.263z
	 M188.633,87.935l-0.217-0.24l0.235-0.215l0.221,0.234L188.633,87.935z M187.895,88.574l-0.206-0.248l0.245-0.207l0.209,0.246
	L187.895,88.574z M187.133,89.181l-0.197-0.256l0.254-0.197l0.199,0.254L187.133,89.181z M186.346,89.759l-0.187-0.264l0.261-0.188
	l0.19,0.262L186.346,89.759z M185.541,90.31l-0.178-0.27l0.268-0.18l0.182,0.268L185.541,90.31z M184.721,90.835l-0.168-0.275
	l0.271-0.172l0.173,0.273L184.721,90.835z M183.887,91.335l-0.164-0.281L184,90.892l0.166,0.279L183.887,91.335z M183.037,91.812
	l-0.154-0.283l0.281-0.154l0.157,0.283L183.037,91.812z M182.178,92.271l-0.147-0.289l0.285-0.148l0.149,0.287L182.178,92.271z
	 M181.309,92.707l-0.141-0.289l0.288-0.143l0.144,0.287L181.309,92.707z M180.432,93.126l-0.137-0.293l0.291-0.137l0.139,0.293
	L180.432,93.126z M179.545,93.527l-0.132-0.295l0.296-0.131l0.131,0.295L179.545,93.527z M178.651,93.914l-0.126-0.297l0.298-0.127
	l0.125,0.297L178.651,93.914z M177.752,94.283l-0.119-0.301l0.297-0.121l0.123,0.301L177.752,94.283z M176.848,94.638l-0.115-0.301
	l0.3-0.117l0.117,0.301L176.848,94.638z M175.938,94.978l-0.112-0.301l0.304-0.113l0.111,0.303L175.938,94.978z M175.021,95.308
	l-0.107-0.303l0.305-0.109l0.109,0.305L175.021,95.308z M174.1,95.625l-0.104-0.307l0.307-0.104l0.104,0.307L174.1,95.625z
	 M173.176,95.929l-0.1-0.307l0.309-0.1l0.1,0.307L173.176,95.929z M172.25,96.222l-0.096-0.309l0.307-0.096l0.098,0.309
	L172.25,96.222z M171.323,96.503l-0.092-0.309l0.308-0.094l0.094,0.309L171.323,96.503z M170.391,96.775l-0.09-0.311l0.312-0.09
	l0.089,0.311L170.391,96.775z M169.454,97.037l-0.085-0.311l0.311-0.086l0.086,0.311L169.454,97.037z M168.516,97.291l-0.082-0.314
	l0.313-0.082l0.083,0.313L168.516,97.291z M167.577,97.533l-0.08-0.313l0.314-0.082l0.079,0.314L167.577,97.533z M166.635,97.765
	l-0.078-0.313l0.314-0.076l0.077,0.313L166.635,97.765z M165.688,97.992l-0.074-0.314l0.315-0.074l0.074,0.314L165.688,97.992z
	 M164.742,98.21l-0.07-0.316l0.314-0.07l0.07,0.314L164.742,98.21z M163.793,98.421l-0.068-0.316l0.316-0.07l0.068,0.316
	L163.793,98.421z M162.844,98.623l-0.065-0.316l0.315-0.066l0.067,0.316L162.844,98.623z M161.893,98.816l-0.063-0.316l0.316-0.064
	l0.065,0.316L161.893,98.816z M160.939,99.001l-0.063-0.316l0.317-0.061l0.062,0.316L160.939,99.001z M159.984,99.181l-0.059-0.318
	l0.317-0.057l0.06,0.316L159.984,99.181z M159.028,99.353l-0.056-0.318l0.318-0.057l0.055,0.318L159.028,99.353z M158.07,99.519
	l-0.053-0.318l0.318-0.055l0.055,0.318L158.07,99.519z M157.113,99.675l-0.052-0.32l0.317-0.051l0.053,0.32L157.113,99.675z
	 M156.152,99.826l-0.049-0.32l0.318-0.047l0.049,0.32L156.152,99.826z M155.19,99.97l-0.045-0.322l0.319-0.045l0.047,0.32
	L155.19,99.97z M154.229,100.105l-0.045-0.318l0.32-0.045l0.045,0.318L154.229,100.105z M153.264,100.236l-0.041-0.322l0.32-0.041
	l0.043,0.318L153.264,100.236z M152.297,100.353l-0.037-0.32l0.32-0.039l0.039,0.32L152.297,100.353z M151.33,100.464l-0.035-0.322
	l0.321-0.035l0.036,0.322L151.33,100.464z"/>
<rect x="191.984" y="83.143" transform="matrix(-0.8877 -0.4605 0.4605 -0.8877 324.3799 245.5844)" fill="#ADDEF8" width="0.322" height="0.167"/>
<rect x="150.432" y="91.683" transform="matrix(-0.0725 -0.9974 0.9974 -0.0725 69.9957 248.6164)" fill="#ADDEF8" width="0.323" height="0.161"/>
<path fill="#ADDEF8" d="M191.664,76.635l-0.258-0.194l0.191-0.26l0.262,0.19L191.664,76.635z M191.047,77.404l-0.246-0.209
	l0.207-0.247l0.25,0.205L191.047,77.404z M190.391,78.134l-0.236-0.219l0.221-0.238l0.238,0.219L190.391,78.134z M189.699,78.833
	l-0.225-0.232l0.229-0.225l0.229,0.229L189.699,78.833z M188.975,79.5l-0.215-0.242l0.242-0.215l0.215,0.24L188.975,79.5z
	 M188.223,80.132l-0.203-0.25l0.25-0.207l0.205,0.25L188.223,80.132z M187.449,80.738l-0.195-0.26l0.257-0.195l0.198,0.256
	L187.449,80.738z M186.652,81.312l-0.186-0.266l0.266-0.186l0.188,0.264L186.652,81.312z M185.84,81.861l-0.176-0.271l0.27-0.178
	l0.18,0.268L185.84,81.861z M185.01,82.382l-0.169-0.275l0.276-0.17l0.17,0.275L185.01,82.382z M184.166,82.884l-0.161-0.281
	l0.282-0.162l0.162,0.279L184.166,82.884z M183.311,83.363l-0.156-0.285l0.285-0.154l0.158,0.281L183.311,83.363z M182.443,83.82
	l-0.146-0.287l0.288-0.15l0.149,0.287L182.443,83.82z M181.566,84.257l-0.141-0.293l0.293-0.141l0.143,0.289L181.566,84.257z
	 M180.682,84.675l-0.136-0.295l0.293-0.135l0.138,0.293L180.682,84.675z M179.787,85.078l-0.129-0.295l0.296-0.133l0.132,0.295
	L179.787,85.078z M178.887,85.46l-0.123-0.297l0.297-0.125l0.127,0.297L178.887,85.46z M177.98,85.832l-0.119-0.301l0.301-0.121
	l0.121,0.301L177.98,85.832z M177.066,86.185l-0.113-0.303l0.303-0.115l0.116,0.303L177.066,86.185z M176.15,86.527l-0.11-0.305
	l0.306-0.111l0.11,0.303L176.15,86.527z M175.225,86.855l-0.106-0.307l0.308-0.107l0.108,0.305L175.225,86.855z M174.296,87.169
	l-0.103-0.307l0.31-0.105l0.103,0.307L174.296,87.169z M173.365,87.47l-0.098-0.307l0.31-0.1l0.099,0.307L173.365,87.47z
	 M172.434,87.759l-0.096-0.309l0.311-0.094l0.096,0.309L172.434,87.759z M171.498,88.039l-0.091-0.311l0.312-0.09l0.09,0.311
	L171.498,88.039z M170.557,88.308l-0.086-0.313l0.312-0.086l0.089,0.309L170.557,88.308z M169.613,88.566l-0.084-0.313l0.314-0.084
	l0.086,0.311L169.613,88.566z M168.668,88.816l-0.081-0.314l0.315-0.082l0.082,0.313L168.668,88.816z M167.719,89.052l-0.076-0.313
	l0.315-0.078l0.078,0.313L167.719,89.052z M166.768,89.285l-0.074-0.316l0.317-0.076l0.074,0.316L166.768,89.285z M165.816,89.503
	l-0.072-0.314l0.316-0.07l0.072,0.313L165.816,89.503z M164.859,89.716l-0.067-0.316l0.317-0.068l0.068,0.314L164.859,89.716z
	 M163.904,89.921l-0.066-0.316l0.318-0.066l0.068,0.314L163.904,89.921z M162.945,90.117l-0.063-0.316l0.32-0.064l0.063,0.316
	L162.945,90.117z M161.984,90.304l-0.06-0.316l0.319-0.063l0.063,0.318L161.984,90.304z M161.025,90.484l-0.06-0.318l0.319-0.059
	l0.061,0.318L161.025,90.484z M160.061,90.656l-0.056-0.318l0.321-0.055l0.055,0.316L160.061,90.656z M159.098,90.822l-0.053-0.32
	l0.321-0.053l0.053,0.318L159.098,90.822z M158.131,90.976l-0.051-0.316l0.32-0.053l0.054,0.318L158.131,90.976z M157.163,91.128
	l-0.047-0.32l0.323-0.051l0.047,0.32L157.163,91.128z M156.195,91.269l-0.045-0.318l0.322-0.047l0.047,0.318L156.195,91.269z
	 M155.227,91.404l-0.043-0.318l0.322-0.045l0.044,0.32L155.227,91.404z M154.256,91.531l-0.04-0.32l0.322-0.043l0.042,0.322
	L154.256,91.531z M153.284,91.648l-0.038-0.32l0.322-0.037l0.039,0.32L153.284,91.648z M152.309,91.759l-0.035-0.322l0.324-0.037
	l0.036,0.322L152.309,91.759z M151.333,91.857l-0.031-0.32l0.324-0.031l0.033,0.32L151.333,91.857z"/>
<rect x="191.977" y="75.603" transform="matrix(-0.8269 -0.5624 0.5624 -0.8269 308.4452 246.3225)" fill="#ADDEF8" width="0.321" height="0.163"/>
<rect x="150.433" y="83.069" transform="matrix(-0.0665 -0.9978 0.9978 -0.0665 77.6469 238.9406)" fill="#ADDEF8" width="0.323" height="0.16"/>
<path fill="#ADDEF8" d="M191.573,68.702l-0.239-0.218l0.215-0.237l0.24,0.214L191.573,68.702z M190.898,69.404l-0.229-0.228
	l0.225-0.228l0.231,0.226L190.898,69.404z M190.199,70.078l-0.221-0.236l0.233-0.219l0.224,0.235L190.199,70.078z M189.473,70.724
	l-0.211-0.244l0.242-0.211l0.214,0.243L189.473,70.724z M188.725,71.343l-0.201-0.252l0.248-0.202l0.205,0.25L188.725,71.343z
	 M187.953,71.936l-0.191-0.26l0.256-0.192l0.195,0.258L187.953,71.936z M187.165,72.502l-0.183-0.265l0.261-0.186l0.188,0.264
	L187.165,72.502z M186.361,73.046l-0.176-0.27l0.267-0.178l0.18,0.269L186.361,73.046z M185.543,73.567l-0.169-0.275l0.272-0.171
	l0.17,0.273L185.543,73.567z M184.712,74.066l-0.162-0.279l0.275-0.164l0.165,0.278L184.712,74.066z M183.868,74.544l-0.156-0.282
	l0.281-0.157l0.157,0.282L183.868,74.544z M183.014,75.003l-0.15-0.285l0.277-0.146l0.159,0.281L183.014,75.003z M182.15,75.444
	l-0.145-0.289l0.287-0.144l0.146,0.287L182.15,75.444z M181.277,75.867l-0.139-0.291l0.291-0.141l0.141,0.292L181.277,75.867z
	 M180.398,76.274l-0.133-0.296l0.293-0.133l0.133,0.294L180.398,76.274z M179.511,76.663l-0.127-0.296l0.294-0.128l0.129,0.295
	L179.511,76.663z M178.619,77.038l-0.123-0.3l0.297-0.122l0.123,0.3L178.619,77.038z M177.716,77.4l-0.12-0.302l0.301-0.118
	l0.121,0.301L177.716,77.4z M176.809,77.746l-0.115-0.303l0.303-0.113l0.115,0.303L176.809,77.746z M175.898,78.08l-0.11-0.303
	l0.304-0.109l0.109,0.303L175.898,78.08z M174.982,78.402l-0.104-0.307l0.303-0.105l0.107,0.305L174.982,78.402z M174.068,78.707
	l-0.103-0.305l0.306-0.102l0.101,0.307L174.068,78.707z M173.148,79.001l-0.098-0.307l0.305-0.098l0.099,0.309L173.148,79.001z
	 M172.223,79.289l-0.094-0.311l0.309-0.092l0.094,0.309L172.223,79.289z M171.293,79.562l-0.09-0.311l0.309-0.09l0.092,0.311
	L171.293,79.562z M170.361,79.826l-0.086-0.313l0.309-0.086l0.089,0.313L170.361,79.826z M169.428,80.08l-0.084-0.313l0.29-0.08
	l0.063,0.152l0.041,0.156L169.428,80.08z M168.49,80.322l-0.079-0.313l0.312-0.08l0.082,0.314L168.49,80.322z M167.551,80.556
	l-0.076-0.313l0.313-0.076l0.078,0.313L167.551,80.556z M166.611,80.783l-0.074-0.316l0.313-0.072l0.074,0.314L166.611,80.783z
	 M165.667,80.998l-0.071-0.316l0.315-0.068l0.069,0.314L165.667,80.998z M164.721,81.205l-0.068-0.316l0.315-0.068l0.067,0.316
	L164.721,81.205z M163.775,81.404l-0.066-0.318l0.314-0.063l0.066,0.316L163.775,81.404z M162.826,81.593l-0.063-0.316l0.316-0.063
	l0.063,0.316L162.826,81.593z M161.874,81.775l-0.06-0.316l0.315-0.061l0.062,0.318L161.874,81.775z M160.923,81.951l-0.058-0.32
	l0.316-0.055l0.059,0.316L160.923,81.951z M159.969,82.117l-0.054-0.318l0.317-0.055l0.055,0.316L159.969,82.117z M159.014,82.273
	l-0.052-0.316l0.319-0.053l0.051,0.318L159.014,82.273z M158.057,82.425l-0.049-0.32l0.32-0.049l0.048,0.32L158.057,82.425z
	 M157.1,82.57l-0.047-0.322l0.319-0.047l0.048,0.322L157.1,82.57z M156.141,82.703l-0.043-0.32l0.319-0.045l0.043,0.322
	L156.141,82.703z M155.182,82.83l-0.041-0.32l0.319-0.041l0.041,0.32L155.182,82.83z M154.221,82.949l-0.039-0.32l0.319-0.039
	l0.039,0.32L154.221,82.949z M153.257,83.058l-0.034-0.32l0.318-0.035l0.037,0.32L153.257,83.058z M152.293,83.162l-0.033-0.322
	l0.32-0.033l0.033,0.32L152.293,83.162z M151.325,83.251l-0.027-0.322l0.32-0.029l0.03,0.322L151.325,83.251z"/>
<rect x="191.968" y="67.735" transform="matrix(-0.7717 -0.636 0.636 -0.7717 297.258 242.3466)" fill="#ADDEF8" width="0.324" height="0.162"/>
<rect x="150.433" y="74.453" transform="matrix(-0.0667 -0.9978 0.9978 -0.0667 86.2748 229.7648)" fill="#ADDEF8" width="0.322" height="0.16"/>
<path fill="#ADDEF8" d="M191.667,60.811l-0.255-0.199l0.191-0.252l0.26,0.192L191.667,60.811z M191.044,61.56l-0.241-0.215
	l0.211-0.242l0.244,0.213L191.044,61.56z M190.376,62.266l-0.228-0.229l0.222-0.227l0.231,0.225L190.376,62.266z M189.668,62.934
	l-0.216-0.242l0.235-0.214l0.22,0.237L189.668,62.934z M188.926,63.562l-0.203-0.251l0.245-0.203l0.208,0.249L188.926,63.562z
	 M188.159,64.156l-0.191-0.261l0.255-0.191l0.196,0.257L188.159,64.156z M187.366,64.717l-0.181-0.268l0.263-0.18l0.185,0.265
	L187.366,64.717z M186.557,65.249l-0.174-0.273l0.27-0.172l0.176,0.271L186.557,65.249z M185.729,65.752l-0.164-0.279l0.274-0.163
	l0.167,0.277L185.729,65.752z M184.885,66.229l-0.156-0.283l0.281-0.155l0.158,0.283L184.885,66.229z M184.027,66.684l-0.146-0.287
	l0.284-0.147l0.149,0.286L184.027,66.684z M183.162,67.116l-0.141-0.291l0.287-0.142l0.145,0.29L183.162,67.116z M182.285,67.526
	l-0.133-0.294l0.289-0.133l0.138,0.292L182.285,67.526z M181.4,67.921l-0.127-0.297l0.295-0.129l0.129,0.297L181.4,67.921z
	 M180.509,68.295l-0.122-0.299l0.297-0.122l0.123,0.298L180.509,68.295z M179.611,68.653l-0.119-0.302l0.3-0.117l0.118,0.302
	L179.611,68.653z M178.707,68.996l-0.111-0.304l0.299-0.111l0.113,0.303L178.707,68.996z M177.796,69.324l-0.106-0.305l0.302-0.106
	l0.108,0.304L177.796,69.324z M176.882,69.638l-0.103-0.306l0.304-0.103l0.104,0.306L176.882,69.638z M175.964,69.941l-0.098-0.309
	l0.304-0.098l0.1,0.306L175.964,69.941z M175.041,70.229l-0.096-0.308l0.308-0.096l0.097,0.309L175.041,70.229z M174.113,70.508
	l-0.092-0.31l0.31-0.092l0.091,0.311L174.113,70.508z M173.182,70.775l-0.088-0.311l0.311-0.087l0.088,0.31L173.182,70.775z
	 M172.25,71.032l-0.083-0.313l0.31-0.084l0.084,0.313L172.25,71.032z M171.318,71.275l-0.08-0.311l0.309-0.081l0.083,0.312
	L171.318,71.275z M170.384,71.512l-0.077-0.312l0.311-0.078l0.08,0.313L170.384,71.512z M169.445,71.741l-0.074-0.314l0.311-0.076
	l0.075,0.315L169.445,71.741z M168.503,71.958l-0.071-0.314l0.313-0.072l0.072,0.315L168.503,71.958z M167.561,72.169l-0.068-0.315
	l0.313-0.069l0.071,0.316L167.561,72.169z M166.615,72.372l-0.066-0.317l0.314-0.064l0.068,0.314L166.615,72.372z M165.67,72.564
	l-0.064-0.316l0.315-0.063l0.063,0.317L165.67,72.564z M164.721,72.752l-0.06-0.317l0.315-0.062l0.061,0.318L164.721,72.752z
	 M163.773,72.93l-0.061-0.315l0.316-0.061l0.059,0.317L163.773,72.93z M162.822,73.102l-0.057-0.316l0.316-0.057l0.057,0.317
	L162.822,73.102z M161.869,73.268l-0.055-0.318l0.317-0.054l0.056,0.318L161.869,73.268z M160.916,73.426l-0.051-0.318l0.316-0.053
	l0.053,0.319L160.916,73.426z M159.962,73.578l-0.049-0.32l0.319-0.049l0.049,0.318L159.962,73.578z M159.007,73.723l-0.046-0.321
	l0.316-0.047l0.049,0.32L159.007,73.723z M158.051,73.859l-0.045-0.319l0.318-0.046l0.046,0.319L158.051,73.859z M157.094,73.991
	l-0.043-0.319l0.319-0.043l0.044,0.32L157.094,73.991z M156.135,74.116l-0.039-0.321l0.315-0.04l0.043,0.319L156.135,74.116z
	 M155.176,74.234l-0.039-0.321l0.32-0.038l0.039,0.32L155.176,74.234z M154.215,74.346l-0.035-0.321l0.319-0.035l0.038,0.32
	L154.215,74.346z M153.254,74.45l-0.033-0.322l0.318-0.033l0.035,0.321L153.254,74.45z M152.29,74.547l-0.029-0.322l0.319-0.029
	l0.031,0.32L152.29,74.547z M151.325,74.636l-0.027-0.322l0.321-0.028l0.029,0.322L151.325,74.636z"/>
<polygon fill="#ADDEF8" points="191.959,59.852 192.228,60.031 192.317,59.895 192.045,59.721 "/>
<g>
	<defs>
		<rect id="SVGID_15_" width="207.346" height="151.093"/>
	</defs>
	<clipPath id="SVGID_16_">
		<use xlink:href="#SVGID_15_"  overflow="visible"/>
	</clipPath>
	<path clip-path="url(#SVGID_16_)" fill="#FFF100" d="M201.906,46.952c0,0-0.446,1.395-1.116,1.451c0,0,1.116,0.168,1.34,1.283
		c0,0,0.112-1.061,0.782-1.563C202.912,48.124,202.018,47.622,201.906,46.952"/>
	<path clip-path="url(#SVGID_16_)" fill="#FFF100" d="M199.784,32.592c0,0-0.446,1.396-1.116,1.451c0,0,1.116,0.168,1.34,1.285
		c0,0,0.111-1.062,0.781-1.563C200.789,33.765,199.896,33.263,199.784,32.592"/>
	<path clip-path="url(#SVGID_16_)" fill="#FFF100" d="M117.465,9.526c0,0-0.447,1.395-1.117,1.451c0,0,1.117,0.166,1.34,1.283
		c0,0,0.111-1.061,0.781-1.563C118.469,10.698,117.575,10.196,117.465,9.526"/>
	<path clip-path="url(#SVGID_16_)" fill="#FFF100" d="M205.633,36.365c0,0-0.762,2.381-1.904,2.476c0,0,1.904,0.285,2.285,2.189
		c0,0,0.189-1.809,1.332-2.665C207.346,38.365,205.823,37.508,205.633,36.365"/>
	<path clip-path="url(#SVGID_16_)" fill="#FFF100" d="M114.178,18.275c0,0-0.763,2.381-1.904,2.475c0,0,1.904,0.287,2.283,2.19
		c0,0,0.191-1.809,1.334-2.665C115.891,20.275,114.368,19.418,114.178,18.275"/>
	<path clip-path="url(#SVGID_16_)" fill="#FFF100" d="M92.378,21.249c0.204-0.349,0.384-0.71,0.497-1.096
		c0.16-0.371,0.168-0.776,0.224-1.165c0.033-0.801-0.093-1.593-0.264-2.366c-0.182-0.771-0.458-1.524-0.891-2.165
		c-0.216-0.321-0.483-0.596-0.781-0.818c-0.297-0.215-0.67-0.341-0.999-0.392l-1.206-0.076c-0.398-0.009-0.813-0.103-1.198-0.038
		l-1.165,0.118c-0.39,0.017-0.774,0.105-1.157,0.211c-0.382,0.1-0.769,0.184-1.148,0.293l-1.107,0.426
		c-0.382,0.118-0.68,0.334-1.058,0.519c-0.288,0.207-0.606,0.438-0.823,0.698l-0.078,0.096l-0.102,0.017l-4.101,0.663l-0.083,0.014
		l-0.098-0.051c-0.183-0.096-0.413-0.21-0.644-0.266c-0.231-0.07-0.464-0.138-0.709-0.155c-0.25-0.029-0.47-0.078-0.733-0.078
		c-0.254-0.006-0.514-0.029-0.763-0.022c-1.003-0.019-2.02,0.075-3.023,0.208c-0.497,0.094-1.002,0.155-1.488,0.297
		c-0.498,0.103-0.981,0.253-1.46,0.423c-0.487,0.143-0.933,0.404-1.393,0.604c-0.225,0.129-0.421,0.285-0.597,0.465
		c-0.168,0.191-0.311,0.4-0.432,0.627c0.106-0.232,0.236-0.453,0.396-0.659c0.17-0.198,0.366-0.371,0.577-0.513
		c0.461-0.237,0.892-0.525,1.378-0.704c0.475-0.204,0.957-0.389,1.456-0.522c0.492-0.161,1.003-0.245,1.507-0.358
		c1.019-0.17,2.039-0.303,3.084-0.32c0.262-0.015,0.513-0.002,0.77-0.004c0.251-0.012,0.535,0.043,0.793,0.068
		c0.267,0.018,0.528,0.087,0.787,0.165c0.266,0.064,0.503,0.172,0.771,0.314l-0.18-0.037l4.092-0.713l-0.179,0.11
		c0.294-0.366,0.637-0.61,1.003-0.873c0.343-0.172,0.72-0.416,1.114-0.535l1.156-0.427c0.395-0.11,0.799-0.195,1.197-0.292
		c0.398-0.104,0.799-0.193,1.219-0.208l1.243-0.105c0.417-0.059,0.807,0.041,1.213,0.053l1.204,0.103
		c0.924,0.138,1.622,0.757,2.065,1.466c0.446,0.715,0.701,1.513,0.862,2.314c0.14,0.803,0.206,1.63,0.125,2.438
		c-0.083,0.403-0.118,0.815-0.305,1.183C92.809,20.562,92.603,20.916,92.378,21.249"/>
	<path clip-path="url(#SVGID_16_)" fill="#FFFFFF" d="M124.045,24.874h0.788l-0.046,0.264h-0.454l-0.032,0.319l0.109-0.011
		c0.143,0,0.26,0.041,0.35,0.125c0.09,0.083,0.137,0.189,0.137,0.323c0,0.171-0.07,0.312-0.206,0.422
		c-0.136,0.109-0.312,0.165-0.523,0.165l-0.176-0.017l-0.067-0.228l0.219,0.031l0.302-0.095l0.114-0.243l-0.067-0.178l-0.183-0.067
		c-0.086,0-0.199,0.021-0.338,0.064L124.045,24.874z"/>
	<path clip-path="url(#SVGID_16_)" fill="#FFFFFF" d="M125.859,25.651c0-0.219-0.02-0.373-0.059-0.465l-0.145-0.112
		c-0.138,0-0.205,0.188-0.205,0.563c0,0.22,0.019,0.373,0.057,0.467l0.146,0.113C125.791,26.218,125.859,26.029,125.859,25.651
		 M125.656,24.848c0.168,0,0.301,0.07,0.4,0.216c0.098,0.144,0.148,0.337,0.148,0.579c0,0.241-0.052,0.436-0.154,0.582
		c-0.102,0.146-0.233,0.221-0.397,0.221c-0.168,0-0.3-0.073-0.399-0.217c-0.099-0.146-0.148-0.338-0.148-0.58
		c0-0.241,0.051-0.437,0.152-0.582C125.36,24.919,125.492,24.848,125.656,24.848"/>
</g>
<polygon fill="#FFFFFF" points="124.603,30.26 124.922,30.26 124.594,31.04 124.484,31.255 124.534,31.255 124.795,31.255 
	124.851,31.255 124.844,31.213 124.86,30.906 124.885,30.636 125.131,30.579 125.131,30.989 125.131,31.185 125.125,31.255 
	125.2,31.255 125.297,31.255 125.297,31.518 125.191,31.518 125.121,31.518 125.131,31.6 125.131,31.862 124.844,31.9 
	124.844,31.568 124.844,31.511 124.77,31.518 124.156,31.518 124.156,31.309 "/>
<g>
	<defs>
		<rect id="SVGID_17_" width="207.346" height="151.093"/>
	</defs>
	<clipPath id="SVGID_18_">
		<use xlink:href="#SVGID_17_"  overflow="visible"/>
	</clipPath>
	<path clip-path="url(#SVGID_18_)" fill="#FFFFFF" d="M126.168,31.046c0-0.219-0.018-0.373-0.057-0.464l-0.146-0.113
		c-0.137,0-0.205,0.188-0.205,0.564c0,0.219,0.02,0.373,0.057,0.466l0.146,0.114C126.1,31.613,126.168,31.424,126.168,31.046
		 M125.965,30.242c0.168,0,0.301,0.071,0.398,0.216c0.1,0.145,0.148,0.337,0.148,0.579s-0.05,0.437-0.152,0.583
		c-0.101,0.146-0.234,0.22-0.396,0.22c-0.17,0-0.301-0.072-0.4-0.216c-0.099-0.145-0.148-0.339-0.148-0.58
		c0-0.242,0.051-0.435,0.152-0.583C125.67,30.316,125.801,30.242,125.965,30.242"/>
	<path clip-path="url(#SVGID_18_)" fill="#FFFFFF" d="M124.6,36.503v-0.258l0.018,0.002l0.143,0.006c0.17,0,0.256-0.06,0.256-0.182
		c0-0.116-0.066-0.173-0.195-0.173c-0.125,0-0.24,0.043-0.345,0.128l-0.161-0.195l0.208-0.123l0.339-0.071
		c0.145,0,0.264,0.039,0.357,0.114l0.143,0.288c0,0.132-0.053,0.232-0.154,0.297l-0.086,0.043l0.203,0.137l0.073,0.215
		c0,0.159-0.077,0.289-0.228,0.39c-0.152,0.101-0.348,0.151-0.588,0.151l-0.19-0.012l-0.075-0.215l0.176,0.017
		c0.162,0,0.291-0.034,0.393-0.101l0.148-0.256l-0.101-0.176l-0.215-0.028h-0.047l-0.037,0.002H124.6z"/>
	<path clip-path="url(#SVGID_18_)" fill="#FFFFFF" d="M126.321,36.442c0-0.221-0.019-0.375-0.058-0.465l-0.146-0.114
		c-0.137,0-0.204,0.188-0.204,0.565c0,0.218,0.019,0.374,0.057,0.466l0.146,0.113C126.254,37.008,126.321,36.819,126.321,36.442
		 M126.118,35.637c0.169,0,0.302,0.071,0.4,0.217c0.098,0.144,0.147,0.338,0.147,0.578c0,0.243-0.05,0.437-0.152,0.582
		c-0.102,0.147-0.234,0.221-0.397,0.221c-0.169,0-0.301-0.073-0.399-0.216c-0.1-0.145-0.148-0.338-0.148-0.579
		c0-0.242,0.05-0.437,0.152-0.583S125.955,35.637,126.118,35.637"/>
	<path clip-path="url(#SVGID_18_)" fill="#FFFFFF" d="M125.275,42.338l-0.067,0.259h-0.991V42.38
		c0.164-0.162,0.293-0.293,0.385-0.393c0.17-0.184,0.254-0.341,0.254-0.474c0-0.14-0.064-0.209-0.193-0.209l-0.325,0.152
		l-0.166-0.196c0.169-0.153,0.364-0.229,0.582-0.229c0.138,0,0.246,0.042,0.329,0.124c0.081,0.08,0.121,0.188,0.121,0.319
		c0,0.15-0.09,0.324-0.27,0.523l-0.274,0.275l-0.089,0.076l0.242-0.012H125.275z"/>
	<path clip-path="url(#SVGID_18_)" fill="#FFFFFF" d="M126.168,41.837c0-0.219-0.018-0.375-0.057-0.465l-0.146-0.114
		c-0.137,0-0.205,0.188-0.205,0.565c0,0.218,0.02,0.374,0.057,0.466l0.146,0.115C126.1,42.404,126.168,42.214,126.168,41.837
		 M125.965,41.031c0.168,0,0.301,0.073,0.398,0.218c0.1,0.144,0.148,0.337,0.148,0.577c0,0.243-0.05,0.438-0.152,0.583
		c-0.101,0.147-0.234,0.22-0.396,0.22c-0.17,0-0.301-0.072-0.4-0.216c-0.099-0.144-0.148-0.337-0.148-0.579
		c0-0.24,0.051-0.436,0.152-0.583C125.67,41.105,125.801,41.031,125.965,41.031"/>
</g>
<polygon fill="#FFFFFF" points="124.428,46.45 123.949,46.786 124.027,46.952 124.336,46.805 124.336,47.74 124.089,47.74 
	124.089,47.993 124.84,47.993 124.84,47.74 124.64,47.74 124.64,46.45 "/>
<g>
	<defs>
		<rect id="SVGID_19_" width="207.346" height="151.093"/>
	</defs>
	<clipPath id="SVGID_20_">
		<use xlink:href="#SVGID_19_"  overflow="visible"/>
	</clipPath>
	<path clip-path="url(#SVGID_20_)" fill="#FFFFFF" d="M125.859,47.232c0-0.221-0.02-0.375-0.059-0.465l-0.145-0.114
		c-0.138,0-0.205,0.188-0.205,0.564c0,0.219,0.019,0.375,0.057,0.467l0.146,0.113C125.791,47.798,125.859,47.608,125.859,47.232
		 M125.656,46.427c0.168,0,0.301,0.072,0.4,0.216c0.098,0.145,0.148,0.337,0.148,0.579c0,0.243-0.052,0.437-0.154,0.584
		c-0.102,0.146-0.233,0.219-0.397,0.219c-0.168,0-0.3-0.072-0.399-0.216c-0.099-0.144-0.148-0.338-0.148-0.579
		c0-0.243,0.051-0.436,0.152-0.583C125.36,46.501,125.492,46.427,125.656,46.427"/>
	<path clip-path="url(#SVGID_20_)" fill="#FFF100" d="M138.264,114.666l0.311-13.203c0.072-2.201,0.057-4.4,0.065-6.602l0.017-6.598
		c0.02-2.201,0.014-4.4-0.056-6.6l-0.146-6.598c-0.029-2.2-0.112-4.398-0.233-6.593l-0.313-6.589l-0.017-0.352l0.349-0.026
		c2.737-0.201,5.477-0.502,8.211-0.792c2.736-0.295,5.468-0.636,8.191-1.02c5.448-0.772,10.874-1.721,16.23-2.975
		c1.341-0.307,2.672-0.649,4.002-1.001c1.324-0.366,2.652-0.727,3.96-1.149c1.315-0.4,2.61-0.854,3.903-1.32
		c1.279-0.495,2.566-0.979,3.808-1.565c1.256-0.553,2.481-1.173,3.672-1.852c1.192-0.677,2.34-1.436,3.403-2.299
		c0.511-0.454,1.072-0.859,1.513-1.388c0.478-0.492,0.942-0.997,1.304-1.583c0.844-1.095,1.295-2.422,1.596-3.761
		c-0.266,1.344-0.687,2.694-1.508,3.82c-0.352,0.602-0.808,1.121-1.276,1.633c-0.433,0.545-0.987,0.967-1.494,1.439
		c-1.052,0.899-2.192,1.694-3.377,2.408c-1.185,0.712-2.402,1.382-3.667,1.942c-1.246,0.601-2.536,1.1-3.821,1.609
		c-1.296,0.48-2.596,0.949-3.914,1.363c-1.311,0.435-2.641,0.809-3.968,1.189c-1.332,0.364-2.666,0.721-4.009,1.039
		c-5.366,1.306-10.802,2.304-16.257,3.128c-2.729,0.409-5.465,0.773-8.207,1.094c-2.741,0.317-5.487,0.557-8.248,0.749l0.332-0.376
		l0.257,6.604c0.101,2.202,0.165,4.403,0.176,6.606l0.089,6.606c0.051,2.201,0.035,4.404-0.001,6.607l-0.075,6.605
		c-0.035,2.203-0.014,4.406-0.158,6.605L138.264,114.666z"/>
	<path clip-path="url(#SVGID_20_)" fill="#ADDEF8" d="M147.678,109.46l0.037-0.447c1.439-17.061,0.5-39.914,0.49-40.144l0.77-0.031
		c0.01,0.227,0.935,22.728-0.454,39.783c3.876-0.354,31.692-3.357,44.827-17.291l0.562,0.529
		c-14.272,15.139-45.469,17.547-45.782,17.57L147.678,109.46z"/>
	<path clip-path="url(#SVGID_20_)" fill="#E63E90" d="M4.232,96.773c0-0.352,0.287-0.639,0.639-0.639
		c0.353,0,0.639,0.287,0.639,0.639c0,0.354-0.286,0.639-0.639,0.639C4.519,97.412,4.232,97.126,4.232,96.773"/>
	<path clip-path="url(#SVGID_20_)" fill="#E63E90" d="M17.181,61.917c0,0,0.289-0.055,0.722-0.14c0.435-0.068,1.007-0.2,1.567-0.363
		c0.57-0.131,1.115-0.335,1.513-0.52c0.385-0.212,0.641-0.354,0.641-0.354s-0.221,0.191-0.588,0.454
		c-0.393,0.21-0.938,0.455-1.511,0.621c-0.58,0.132-1.164,0.229-1.605,0.272C17.477,61.93,17.181,61.917,17.181,61.917"/>
	<path clip-path="url(#SVGID_20_)" fill="#53B332" d="M68.367,142.662c0,0,0.247-0.334,0.768-0.84
		c0.522-0.496,1.324-1.193,2.504-1.678c0.595-0.221,1.279-0.379,2.022-0.381c0.753,0.021,1.498,0.215,2.255,0.611
		c0.633,0.379,1.339,0.98,1.795,1.682c0.482,0.693,0.85,1.484,1.037,2.324c0.23,0.838,0.172,1.723,0.032,2.561
		c-0.227,0.822-0.589,1.619-1.175,2.191c-0.276,0.303-0.561,0.58-0.91,0.762c-0.324,0.217-0.644,0.418-0.996,0.523
		c-0.671,0.307-1.345,0.426-1.963,0.541c-0.614,0.135-1.196,0.086-1.699,0.123c-0.506,0.045-0.945-0.047-1.306-0.061
		c-0.72-0.061-1.131-0.096-1.131-0.096s0.413-0.002,1.134-0.002c0.359-0.018,0.798,0.035,1.293-0.051
		c0.492-0.082,1.061-0.082,1.65-0.234c0.593-0.139,1.235-0.287,1.848-0.605c0.329-0.113,0.615-0.316,0.901-0.527
		c0.141-0.107,0.301-0.195,0.435-0.316l0.374-0.395c0.52-0.521,0.821-1.236,1.019-1.969c0.109-0.754,0.156-1.553-0.069-2.316
		c-0.156-0.771-0.486-1.506-0.918-2.15c-0.433-0.666-0.954-1.135-1.631-1.57c-0.615-0.313-1.321-0.564-1.991-0.605
		c-0.677-0.031-1.321,0.084-1.895,0.266c-1.135,0.41-2,0.988-2.55,1.445C68.642,142.349,68.367,142.662,68.367,142.662"/>
	<path clip-path="url(#SVGID_20_)" fill="#F8B62D" d="M16.033,42.454c0,0,2.716-1.345,3.554-0.43
		C20.423,42.94,17.321,43.372,16.033,42.454"/>
	<path clip-path="url(#SVGID_20_)" fill="#F8B62D" d="M15.001,42.675c0,0-2.719,1.341-3.556,0.424
		C10.61,42.181,13.714,41.756,15.001,42.675"/>
	<path clip-path="url(#SVGID_20_)" fill="#F8B62D" d="M15.55,43.037c0,0,1.346,2.717,0.429,3.554
		C15.063,47.429,14.632,44.326,15.55,43.037"/>
	<path clip-path="url(#SVGID_20_)" fill="#F8B62D" d="M15.471,42.003c0,0-1.341-2.72-0.423-3.557
		C15.965,37.611,16.391,40.715,15.471,42.003"/>
	<path clip-path="url(#SVGID_20_)" fill="#F8B62D" d="M16.041,42.825c0,0,2.973,0.592,3.077,1.829
		C19.221,45.891,16.501,44.338,16.041,42.825"/>
	<path clip-path="url(#SVGID_20_)" fill="#F8B62D" d="M15.319,42.411c0,0-2.972-0.599-3.074-1.835
		C12.144,39.34,14.861,40.896,15.319,42.411"/>
	<path clip-path="url(#SVGID_20_)" fill="#F8B62D" d="M15.017,43.002c0,0-0.593,2.973-1.83,3.075
		C11.951,46.183,13.503,43.462,15.017,43.002"/>
	<path clip-path="url(#SVGID_20_)" fill="#F8B62D" d="M15.842,42.271c0,0,0.598-2.973,1.835-3.073
		C18.915,39.095,17.357,41.813,15.842,42.271"/>
	<path clip-path="url(#SVGID_20_)" fill="#C8D900" d="M24.279,39.591c0,0,0.205,1.265-0.74,2.293
		c-0.947,1.029-1.394,1.007-1.394,1.007s-0.223-0.906,0.319-1.91C22.961,40.062,24.279,39.591,24.279,39.591"/>
	<path clip-path="url(#SVGID_20_)" fill="#C8D900" d="M25.718,46.773c0,0,0.835,1.018,0.529,2.421
		c-0.307,1.402-0.714,1.613-0.714,1.613s-0.666-0.689-0.703-1.861C24.794,47.873,25.718,46.773,25.718,46.773"/>
	<path clip-path="url(#SVGID_20_)" fill="#C15EA0" d="M18.216,52.023c0,0,2.012-0.986,2.409-0.039S19.623,53.813,18.216,52.023"/>
	<path clip-path="url(#SVGID_20_)" fill="#C15EA0" d="M17.884,51.532c0,0-0.48-2.188,0.533-2.351
		C19.43,49.022,19.955,50.59,17.884,51.532"/>
	<path clip-path="url(#SVGID_20_)" fill="#C15EA0" d="M17.357,51.634c0,0-2.208-0.352-1.991-1.354
		C15.583,49.278,17.229,49.362,17.357,51.634"/>
	<path clip-path="url(#SVGID_20_)" fill="#C15EA0" d="M17.17,52.142c0,0-0.834,2.073-1.763,1.639
		C14.48,53.346,14.928,51.761,17.17,52.142"/>
	<path clip-path="url(#SVGID_20_)" fill="#C15EA0" d="M17.802,52.312c0,0,1.321,1.81,0.457,2.362
		C17.395,55.226,16.284,54.002,17.802,52.312"/>
	<path clip-path="url(#SVGID_20_)" fill="#FFDB00" d="M2.554,42.04c0,0-1.94,0.791-2.471,0.118
		C-0.448,41.485,1.711,41.343,2.554,42.04"/>
	<path clip-path="url(#SVGID_20_)" fill="#FFDB00" d="M3.275,41.939c0,0,1.941-0.79,2.471-0.115
		C6.276,42.498,4.116,42.637,3.275,41.939"/>
	<path clip-path="url(#SVGID_20_)" fill="#FFDB00" d="M2.915,41.662c0,0-0.792-1.938-0.118-2.471
		C3.47,38.66,3.612,40.819,2.915,41.662"/>
	<path clip-path="url(#SVGID_20_)" fill="#FFDB00" d="M2.917,42.379c0,0,0.788,1.94,0.114,2.472
		C2.358,45.379,2.22,43.221,2.917,42.379"/>
	<path clip-path="url(#SVGID_20_)" fill="#FFDB00" d="M2.567,41.783c0,0-2.02-0.556-2.03-1.414
		C0.527,39.512,2.325,40.717,2.567,41.783"/>
	<path clip-path="url(#SVGID_20_)" fill="#FFDB00" d="M3.042,42.104c0,0,2.019,0.56,2.027,1.417
		C5.079,44.381,3.283,43.172,3.042,42.104"/>
	<path clip-path="url(#SVGID_20_)" fill="#FFDB00" d="M3.281,41.713c0,0,0.557-2.02,1.414-2.029S4.346,41.472,3.281,41.713"/>
	<path clip-path="url(#SVGID_20_)" fill="#FFDB00" d="M2.675,42.175c0,0-0.561,2.02-1.417,2.028
		C0.4,44.211,1.608,42.416,2.675,42.175"/>
	<path clip-path="url(#SVGID_20_)" fill="#ABCD03" d="M11.375,52.41c0,0-1.883-0.106-3.06-1.794
		c-1.177-1.689-1.002-2.323-1.002-2.323s1.374-0.033,2.644,1.066C11.118,50.364,11.375,52.41,11.375,52.41"/>
</g>
</svg>
