<?xml version="1.0" encoding="utf-8"?>
<!-- Generator: Adobe Illustrator 16.0.0, SVG Export Plug-In . SVG Version: 6.00 Build 0)  -->
<!DOCTYPE svg PUBLIC "-//W3C//DTD SVG 1.1//EN" "http://www.w3.org/Graphics/SVG/1.1/DTD/svg11.dtd">
<svg version="1.1" id="레이어_1" xmlns="http://www.w3.org/2000/svg" xmlns:xlink="http://www.w3.org/1999/xlink" x="0px"
	 y="0px" width="146.715px" height="129.696px" viewBox="0 0 146.715 129.696" enable-background="new 0 0 146.715 129.696"
	 xml:space="preserve">
<g>
	<defs>
		<rect id="SVGID_1_" width="146.715" height="129.696"/>
	</defs>
	<clipPath id="SVGID_2_">
		<use xlink:href="#SVGID_1_"  overflow="visible"/>
	</clipPath>
	<path clip-path="url(#SVGID_2_)" fill="#ABCD03" d="M66.04,118.668c0,0-18.946-1.48-30.115-15.313
		C21.874,85.954,24.831,64.928,2.738,63.336c-6.285-0.45-1.14-4.991,9.251-4.865c10.39,0.124,26.428,7.319,35.172,21.346
		c8.745,14.027,27.388,8.727,27.388,8.727L66.04,118.668z"/>
	<path clip-path="url(#SVGID_2_)" fill="#00A29A" d="M30.489,81.903c4.985-5.463,10.459-6.252,13.843-6.084
		c1.006,1.268,1.956,2.596,2.829,3.998c0.515,0.824,1.066,1.576,1.642,2.273c-3.542,1.164-8.973,3.648-11.938,8.496
		c-2.128,3.479-3.189,6.6-3.72,8.969c-2.682-4.039-4.646-8.178-6.38-12.148C27.558,85.704,28.736,83.825,30.489,81.903"/>
	<path clip-path="url(#SVGID_2_)" fill="#00A29A" d="M19.727,66.379c2.276-2.79,4.818-3.884,6.871-4.264
		c3.44,1.563,6.906,3.631,10.153,6.192c-3.026-0.258-7.809,0.225-11.985,4.572c-1.256,1.309-2.145,2.609-2.777,3.826
		c-1.284-2.504-2.701-4.777-4.441-6.713C18.004,68.883,18.686,67.655,19.727,66.379"/>
	<path clip-path="url(#SVGID_2_)" fill="#00A29A" d="M11.989,58.471c1.434,0.017,2.977,0.173,4.592,0.459
		c-1.487,0.896-3.02,2.313-4.27,4.559c-0.371,0.667-0.666,1.309-0.905,1.924c-2.386-1.106-5.223-1.827-8.667-2.076
		C-3.547,62.885,1.598,58.344,11.989,58.471"/>
	<path clip-path="url(#SVGID_2_)" fill="#EFEFEF" d="M11.564,58.468h0.003H11.564z M11.535,58.468
		C4.526,58.474,0.018,60.609,0.001,62.06c-0.008,0.637,0.849,1.142,2.737,1.277c0.053,0.004,0.106,0.007,0.159,0.013h0.006
		c3.37,0.26,6.155,0.974,8.503,2.063c2.47,1.145,4.46,2.703,6.143,4.578c0,0-0.001,0-0.001,0.002
		c1.657,1.844,3.02,3.992,4.256,6.357c0.001,0.002,0.003,0.004,0.005,0.008c0.016,0.033,0.033,0.064,0.05,0.096
		c0.011,0.021,0.022,0.043,0.033,0.064c0.004,0.008,0.008,0.016,0.012,0.023c1.18,2.281,2.248,4.76,3.351,7.348
		c-1.118-2.617-2.2-5.117-3.395-7.42c-0.233-0.449-0.471-0.891-0.715-1.324c-0.064-0.115-0.127-0.232-0.192-0.346
		c-0.312-0.543-0.634-1.072-0.968-1.588l-0.174-0.258c-0.283-0.43-0.577-0.848-0.88-1.254c-0.088-0.121-0.177-0.238-0.268-0.354
		c-0.321-0.416-0.653-0.822-0.998-1.213c-1.993-2.256-4.414-4.066-7.567-5.264l-0.307-0.115c-0.45-0.163-0.912-0.314-1.392-0.452
		L8.15,64.235c-0.444-0.122-0.903-0.234-1.374-0.333L6.51,63.844c-0.521-0.106-1.062-0.195-1.616-0.274
		c-0.122-0.018-0.246-0.032-0.369-0.049c-0.58-0.073-1.169-0.139-1.788-0.184C-3.456,62.892,1.45,58.477,11.535,58.468
		 M47.161,79.819L47.161,79.819l0.05,0.07c0.243,0.389,0.493,0.762,0.752,1.115c0.041,0.061,0.083,0.117,0.125,0.174
		C47.768,80.747,47.459,80.295,47.161,79.819 M48.803,82.088c5.013,6.053,12.173,7.436,17.67,7.436c4.566,0,7.985-0.953,8.074-0.98
		c-0.089,0.027-3.513,0.982-8.083,0.982c-5.498,0-12.656-1.385-17.667-7.434C48.798,82.092,48.801,82.09,48.803,82.088
		 M35.815,103.217c0.007,0.01,0.014,0.02,0.021,0.027C35.829,103.237,35.822,103.227,35.815,103.217 M36.122,103.598
		c11.143,13.545,29.75,15.057,29.917,15.07C66.039,118.668,47.315,117.204,36.122,103.598"/>
	<path clip-path="url(#SVGID_2_)" fill="#A0C101" d="M16.58,58.93l-0.009,0.006c3.139,0.554,6.549,1.622,9.995,3.186
		c-2.046,0.385-4.575,1.482-6.839,4.258c-1.04,1.273-1.722,2.5-2.178,3.609c-1.683-1.873-3.673-3.432-6.143-4.576
		c0.239-0.616,0.533-1.258,0.904-1.924C13.56,61.242,15.094,59.825,16.58,58.93 M2.898,63.35h0.005H2.898 M35.432,68.25
		c0.466,0,0.906,0.021,1.313,0.055l0.001,0.002l-0.012-0.002c2.733,2.152,5.298,4.662,7.578,7.514
		c-0.254-0.012-0.519-0.018-0.794-0.018c-3.407,0-8.426,1.059-13.029,6.102c-1.752,1.92-2.929,3.799-3.722,5.502
		c-0.52-1.191-1.02-2.365-1.512-3.516c-1.103-2.588-2.171-5.066-3.35-7.348c0.028,0.057,0.056,0.111,0.084,0.164
		c0.631-1.219,1.521-2.518,2.777-3.826C28.377,69.12,32.442,68.25,35.432,68.25 M21.804,76.35c0.002,0.002,0.003,0.004,0.005,0.008
		C21.807,76.354,21.806,76.352,21.804,76.35 M21.859,76.454c0.011,0.021,0.022,0.043,0.033,0.064
		C21.881,76.497,21.87,76.475,21.859,76.454 M48.797,82.092c5.01,6.049,12.168,7.434,17.666,7.434c4.572,0,7.995-0.955,8.084-0.982
		h0.002l-8.51,30.125c-0.166-0.014-18.774-1.525-29.917-15.07c-0.066-0.082-0.132-0.162-0.197-0.242
		c-0.029-0.039-0.059-0.076-0.089-0.111c-0.007-0.008-0.014-0.018-0.021-0.027c-0.968-1.209-1.848-2.434-2.668-3.67l-0.002,0.008
		c0.531-2.369,1.592-5.49,3.72-8.971C39.829,85.741,45.254,83.256,48.797,82.092 M26.766,87.405L26.766,87.405L26.766,87.405z"/>
	<path clip-path="url(#SVGID_2_)" fill="#009991" d="M43.518,75.801c0.275,0,0.541,0.006,0.794,0.018
		c0,0.002,0.001,0.002,0.001,0.002h0.019c0.217,0.273,0.421,0.561,0.632,0.838c0.216,0.287,0.435,0.57,0.647,0.861
		c0.537,0.746,1.058,1.508,1.551,2.299c0.297,0.477,0.606,0.928,0.926,1.359c0.232,0.313,0.47,0.615,0.712,0.908
		c0,0,0.002,0.002,0.003,0.002c-0.002,0.004-0.004,0.004-0.006,0.004c-3.543,1.164-8.968,3.648-11.931,8.492
		c-2.129,3.48-3.189,6.602-3.721,8.971c-0.11-0.166-0.213-0.336-0.321-0.502c-0.198-0.305-0.395-0.607-0.584-0.912
		c-0.131-0.211-0.257-0.422-0.384-0.635c-0.194-0.322-0.389-0.643-0.576-0.963c-0.095-0.164-0.185-0.33-0.279-0.496
		c-0.427-0.756-0.838-1.51-1.229-2.266c-0.059-0.113-0.121-0.225-0.178-0.338c-0.155-0.305-0.304-0.607-0.454-0.91
		c-0.118-0.236-0.237-0.473-0.352-0.711c-0.135-0.281-0.266-0.559-0.398-0.836c-0.123-0.26-0.246-0.518-0.365-0.777
		c-0.124-0.268-0.245-0.533-0.365-0.799c-0.124-0.273-0.247-0.545-0.369-0.816c-0.113-0.258-0.227-0.514-0.34-0.77
		c-0.06-0.139-0.125-0.279-0.185-0.42l0,0h0.001c0.793-1.703,1.97-3.582,3.722-5.502C35.092,76.86,40.112,75.801,43.518,75.801"/>
	<path clip-path="url(#SVGID_2_)" fill="#009991" d="M26.597,62.115L26.597,62.115c0.179,0.082,0.357,0.179,0.536,0.262
		c0.474,0.223,0.948,0.457,1.422,0.698c0.353,0.18,0.705,0.362,1.058,0.552c0.505,0.274,1.009,0.563,1.51,0.857
		c0.316,0.185,0.629,0.368,0.943,0.561c0.549,0.338,1.093,0.695,1.636,1.061c0.264,0.178,0.53,0.35,0.794,0.535
		c0.589,0.41,1.169,0.846,1.748,1.291c0.167,0.129,0.34,0.244,0.501,0.373c-0.408-0.033-0.847-0.055-1.313-0.055
		c-2.99,0-7.056,0.869-10.667,4.629c-1.256,1.309-2.145,2.609-2.777,3.826c-0.028-0.053-0.056-0.107-0.084-0.164
		c-0.004-0.008-0.008-0.016-0.013-0.023c-0.011-0.021-0.022-0.043-0.033-0.064c-0.016-0.031-0.033-0.063-0.05-0.096
		c-0.002-0.004-0.003-0.006-0.004-0.008c-1.236-2.365-2.599-4.514-4.257-6.357c0.001-0.002,0.002-0.002,0.002-0.002
		c0.456-1.111,1.137-2.338,2.177-3.611c2.265-2.776,4.793-3.874,6.84-4.258h0.002L26.597,62.115z"/>
	<path clip-path="url(#SVGID_2_)" fill="#EFEFEF" d="M11.771,58.469c0.073,0,0.146,0,0.219,0.001
		c0.076,0.001,0.152,0.003,0.229,0.004c-0.029,0-0.059-0.001-0.087-0.001h-0.009c-0.045-0.002-0.089-0.002-0.133-0.003
		C11.917,58.469,11.843,58.469,11.771,58.469"/>
	<path clip-path="url(#SVGID_2_)" fill="#A0C101" d="M11.989,58.471c0.044,0.001,0.088,0.001,0.133,0.002
		C12.077,58.472,12.033,58.472,11.989,58.471 M12.131,58.473c0.029,0,0.059,0.001,0.087,0.001c0.007,0,0.014,0.001,0.02,0.001
		C12.202,58.474,12.167,58.474,12.131,58.473"/>
	<path clip-path="url(#SVGID_2_)" fill="#009991" d="M11.564,58.468h0.003c0.067,0,0.135,0,0.203,0.001c0.072,0,0.146,0,0.218,0.001
		c0.044,0.001,0.089,0.001,0.133,0.003h0.009c0.036,0.001,0.072,0.001,0.108,0.002c0.503,0.014,1.023,0.047,1.549,0.091l0.331,0.025
		c0.551,0.053,1.118,0.129,1.693,0.217c0.188,0.029,0.378,0.057,0.568,0.09l0.201,0.031c-1.487,0.896-3.02,2.313-4.27,4.561
		c-0.371,0.666-0.666,1.308-0.905,1.923c-2.348-1.089-5.132-1.803-8.502-2.064H2.897c-0.053-0.005-0.106-0.008-0.159-0.012
		C0.85,63.202-0.007,62.697,0,62.059c0.018-1.45,4.525-3.585,11.535-3.591H11.564"/>
	<path clip-path="url(#SVGID_2_)" fill="#00A29A" d="M109.909,16.468c0,0,8.911-8.064,11.308-5.677
		c2.151,2.144,0.489,4.383-2.449,5.612c-2.938,1.23-6.287,4.458-6.287,4.458"/>
	<path clip-path="url(#SVGID_2_)" fill="#00A29A" d="M97.215,14.709c-0.002-4.207,2.791-11.777,5.951-13.839
		c2.342-1.527,6.145-0.871,7.323,1.813c0.951,2.165-0.322,5.389-2.715,5.542c-0.771,0.051-1.404-0.081-1.933-0.304
		c-2.11,2.347-3.186,7.035-3.186,7.035L97.215,14.709z"/>
	<path clip-path="url(#SVGID_2_)" fill="#ABCD03" d="M103.845,0.505c0,0,0.079-0.028,0.226-0.079
		c0.145-0.059,0.364-0.119,0.646-0.183c0.562-0.129,1.399-0.183,2.364,0.001c0.947,0.194,2.063,0.68,2.807,1.653
		c0.362,0.471,0.643,1.075,0.73,1.686c0.097,0.625,0.041,1.28-0.131,1.897c-0.166,0.62-0.461,1.208-0.877,1.682
		c-0.412,0.477-0.97,0.804-1.557,0.909c-0.584,0.094-1.204,0.067-1.729-0.083c-0.534-0.151-1.018-0.396-1.424-0.667
		c-0.828-0.529-1.351-1.207-1.524-1.758c-0.181-0.55-0.123-0.896-0.14-0.892c0.019-0.003-0.06,0.337,0.094,0.906
		c0.15,0.563,0.639,1.311,1.48,1.875c0.416,0.287,0.901,0.545,1.461,0.716c0.569,0.169,1.18,0.21,1.821,0.122
		c0.64-0.104,1.257-0.451,1.708-0.955c0.458-0.499,0.783-1.121,0.973-1.776c0.18-0.658,0.219-1.355,0.104-2.021
		c-0.118-0.684-0.412-1.274-0.813-1.782c-0.807-1.014-1.977-1.49-2.955-1.672c-0.998-0.179-1.847-0.042-2.406,0.108
		c-0.281,0.083-0.498,0.152-0.639,0.221C103.922,0.473,103.845,0.505,103.845,0.505"/>
	<path clip-path="url(#SVGID_2_)" fill="#ABCD03" d="M95.628,108.17c0,0,2.966,3.805,11.438,7.459
		c6.942,2.994,19.418,4.643,23.942,4.178c9.187-0.941,10.425-14.025,8.455-18.225c-2.237-4.771-8.487-4.049-10.8-0.668
		c0,0-3.844-1.543-9.079-4.531"/>
	<path clip-path="url(#SVGID_2_)" fill="#53B332" d="M131.009,119.809c0.744-0.082,1.497-0.189,2.212-0.447
		c0.713-0.25,1.413-0.566,2.039-1.002c1.277-0.842,2.299-2.037,3.068-3.354c1.539-2.648,2.225-5.723,2.25-8.77
		c-0.01-1.525-0.129-3.074-0.707-4.555c-0.586-1.459-1.719-2.736-3.169-3.4c-1.438-0.682-3.116-0.787-4.625-0.336
		c-1.517,0.438-2.841,1.488-3.617,2.848l0.302-0.096c-1.293-0.551-2.57-1.135-3.853-1.713l-3.854-1.725l3.73,1.982
		c1.236,0.678,2.513,1.275,3.783,1.889l0.185,0.09l0.116-0.184c0.766-1.23,2.006-2.111,3.379-2.506
		c1.375-0.393,2.891-0.273,4.165,0.352c1.282,0.619,2.271,1.746,2.835,3.057c0.536,1.32,0.682,2.83,0.702,4.297
		c0.008,1.477-0.164,2.959-0.481,4.402c-0.314,1.445-0.805,2.859-1.514,4.154c-0.711,1.295-1.652,2.473-2.837,3.365
		c-0.585,0.459-1.25,0.803-1.938,1.088C132.488,119.538,131.751,119.686,131.009,119.809"/>
	<path clip-path="url(#SVGID_2_)" fill="#FFF9B1" d="M133.051,109.059c-0.865,3.676-0.35,6.973,1.376,7.412s3.644-2.223,4.509-5.898
		c0.866-3.676,0.489-6.977-1.375-7.412C135.308,102.637,133.916,105.385,133.051,109.059"/>
	<path clip-path="url(#SVGID_2_)" fill="#53B332" d="M128.467,100.702c0,0-0.089,0.189-0.222,0.473
		c-0.132,0.285-0.324,0.65-0.46,1.059c-0.293,0.783-0.584,1.568-0.584,1.568s0.406-0.727,0.813-1.449
		c0.187-0.361,0.437-0.699,0.609-0.959c0.176-0.26,0.293-0.432,0.293-0.432L128.467,100.702z"/>
	<path clip-path="url(#SVGID_2_)" fill="#ABCD03" d="M138.811,60.731c0,0,1.854,19.371-10.907,26.945
		c-3.743,2.223-9.991,1.984-15.548-1.813l2.023-27.384L138.811,60.731z"/>
	<path clip-path="url(#SVGID_2_)" fill="#ABCD03" d="M48.654,101.008c-5.875-24.205,4.531-57.745,23.332-76.572
		c10.11-10.123,26.343-13.262,40.215-6.903c18.226,8.354,9.324,32.933,6.921,47.372c-0.824,4.951-1.976,14.803,1.313,23.5
		c6.207,16.41-2.716,25.977-14.537,28.613C85.631,121.542,53.944,122.801,48.654,101.008"/>
	<path clip-path="url(#SVGID_2_)" fill="#003F85" d="M106.883,33.007c0,0-2.273-0.685-4.171-2.539c0,0-3.907,3.302-1.181,5.316
		C104.257,37.802,106.883,33.007,106.883,33.007"/>
	<path clip-path="url(#SVGID_2_)" fill="#003F85" d="M106.69,33.08c-0.363,0.608-1.948,3.07-3.761,3.07
		c-0.456,0-0.901-0.157-1.322-0.47c-0.586-0.433-0.893-0.963-0.912-1.575c-0.049-1.5,1.609-3.096,2.012-3.463
		C104.303,32.165,106.152,32.89,106.69,33.08 M102.93,36.41c2.212,0,3.992-3.203,4.066-3.341l0.077-0.14l-0.153-0.047
		c-0.022-0.006-2.269-0.698-4.119-2.508l-0.084-0.082l-0.09,0.075c-0.092,0.078-2.25,1.924-2.191,3.746
		c0.023,0.694,0.365,1.292,1.018,1.774C101.92,36.233,102.416,36.41,102.93,36.41"/>
	<path clip-path="url(#SVGID_2_)" fill="#003F85" d="M111.949,27.864c-0.197,0.938,0.104,1.811,0.672,1.947
		c0.568,0.136,1.189-0.515,1.387-1.454s-0.104-1.811-0.672-1.946C112.767,26.273,112.146,26.925,111.949,27.864"/>
	<path clip-path="url(#SVGID_2_)" fill="#003F85" d="M99.491,25.492c-0.198,0.939,0.104,1.812,0.672,1.946
		c0.568,0.137,1.188-0.514,1.386-1.453s-0.104-1.811-0.673-1.947C100.309,23.902,99.688,24.553,99.491,25.492"/>
	<path clip-path="url(#SVGID_2_)" fill="#00AFCC" d="M107.448,28.399c-0.122,0.553,0.211,1.095,0.743,1.213s1.063-0.233,1.184-0.786
		c0.123-0.552-0.209-1.095-0.742-1.212C108.102,27.496,107.571,27.848,107.448,28.399"/>
	<path clip-path="url(#SVGID_2_)" fill="#00A29A" d="M118.9,10.523c0,0,2.941-0.873,5.27,0.743s2.104,4.119,1.051,5.083
		c-0.756,0.693-2.799,1.854-5.914-1.068"/>
	<path clip-path="url(#SVGID_2_)" fill="#ABCD03" d="M118.9,10.523c0,0,0.273-0.076,0.764-0.125c0.243-0.036,0.543-0.04,0.883-0.048
		c0.34,0.013,0.728,0.019,1.139,0.09c0.205,0.038,0.418,0.078,0.639,0.118c0.211,0.075,0.43,0.15,0.654,0.229
		c0.232,0.061,0.438,0.195,0.652,0.319c0.218,0.145,0.438,0.21,0.629,0.406c0.197,0.176,0.412,0.343,0.603,0.529
		c0.156,0.206,0.313,0.415,0.474,0.625l0.334,0.732c0.043,0.264,0.141,0.522,0.144,0.791c0.026,0.535-0.05,1.088-0.31,1.545
		c-0.24,0.446-0.679,0.804-1.125,1.021c-0.463,0.193-0.951,0.31-1.42,0.284c-0.231-0.03-0.465-0.021-0.679-0.079
		c-0.213-0.068-0.418-0.134-0.616-0.196c-0.394-0.13-0.709-0.363-1.018-0.507c-0.311-0.147-0.52-0.371-0.723-0.508
		c-0.394-0.3-0.617-0.471-0.617-0.471s0.214,0.187,0.585,0.511c0.196,0.149,0.393,0.39,0.696,0.56
		c0.301,0.167,0.609,0.425,1.015,0.572c0.202,0.071,0.414,0.147,0.633,0.227c0.222,0.07,0.47,0.071,0.715,0.11
		c0.497,0.045,1.034-0.056,1.541-0.27c0.507-0.242,0.951-0.594,1.259-1.118c0.295-0.513,0.387-1.115,0.362-1.701
		c-0.008-0.295-0.114-0.576-0.167-0.862c-0.115-0.269-0.244-0.529-0.371-0.786c-0.18-0.23-0.357-0.457-0.533-0.682
		c-0.199-0.189-0.412-0.352-0.611-0.525c-0.186-0.185-0.469-0.301-0.682-0.423c-0.23-0.122-0.449-0.254-0.693-0.311
		c-0.234-0.071-0.465-0.143-0.686-0.21c-0.229-0.034-0.449-0.068-0.662-0.099c-0.423-0.063-0.818-0.042-1.162-0.033
		c-0.346,0.033-0.646,0.056-0.888,0.107C119.168,10.431,118.9,10.523,118.9,10.523"/>
	<path clip-path="url(#SVGID_2_)" fill="#53B332" d="M48.654,101.008c0,0,0.098,0.359,0.283,1.041
		c0.158,0.695,0.509,1.68,1.011,2.934c1.064,2.451,3.215,5.922,7.215,8.734c3.959,2.838,9.548,4.824,15.876,5.732
		c6.341,0.938,13.425,0.857,20.744,0.043c3.66-0.428,7.215-1.01,10.611-1.732c3.404-0.684,6.685-1.779,9.434-3.486
		c2.769-1.67,5.005-3.926,6.445-6.424c1.472-2.482,2.152-5.15,2.297-7.57c0.025-0.303,0.063-0.604,0.078-0.898
		c-0.008-0.295-0.015-0.588-0.021-0.877c-0.02-0.578-0.02-1.139-0.051-1.684c-0.168-1.078-0.244-2.109-0.465-3.043
		c-0.236-0.932-0.422-1.807-0.653-2.594c-0.269-0.773-0.515-1.482-0.735-2.121c-0.851-2.551-1.322-3.963-1.322-3.963
		s0.426,1.43,1.196,4.008c0.201,0.641,0.425,1.354,0.669,2.133c0.209,0.789,0.369,1.662,0.578,2.588
		c0.195,0.932,0.243,1.953,0.383,3.016c0.02,0.539,0.006,1.092,0.012,1.658c0,0.283,0,0.572,0.002,0.863
		c-0.022,0.289-0.065,0.58-0.098,0.875c-0.193,2.365-0.91,4.938-2.373,7.311c-1.433,2.385-3.617,4.521-6.316,6.104
		c-2.694,1.621-5.846,2.645-9.225,3.303c-3.379,0.695-6.91,1.258-10.543,1.682c-7.263,0.811-14.275,0.941-20.547,0.094
		c-6.26-0.818-11.782-2.67-15.731-5.369c-3.989-2.672-6.207-6.029-7.337-8.436c-0.537-1.229-0.919-2.201-1.099-2.887
		C48.764,101.364,48.654,101.008,48.654,101.008"/>
	<path clip-path="url(#SVGID_2_)" fill="#53B332" d="M118.501,69.604c0,0,0.173-1.113,0.479-3.125c0.25-2.02,0.916-4.89,1.719-8.44
		c0.8-3.55,1.805-7.778,2.498-12.564c0.34-2.393,0.594-4.929,0.62-7.572c0.032-2.641-0.185-5.402-0.897-8.145
		c-0.674-2.747-1.955-5.286-3.636-7.374c-1.707-2.079-3.849-3.623-6.026-4.718c-4.392-2.134-8.715-3.125-12.361-3.436
		c-3.656-0.313-6.616-0.001-8.633,0.271c-2.008,0.359-3.105,0.608-3.105,0.608s1.111-0.196,3.123-0.477
		c2.021-0.189,4.969-0.391,8.57,0.024c3.589,0.41,7.83,1.501,12.074,3.65c2.092,1.097,4.114,2.602,5.721,4.595
		c1.582,2.005,2.793,4.422,3.443,7.072c0.688,2.643,0.916,5.332,0.906,7.925c-0.002,2.595-0.219,5.102-0.518,7.479
		c-0.607,4.756-1.504,8.999-2.198,12.572c-0.698,3.573-1.263,6.475-1.431,8.509C118.625,68.483,118.501,69.604,118.501,69.604"/>
	<path clip-path="url(#SVGID_2_)" fill="#ABCD03" d="M78.288,111.786c0,0,2.423-8.805,11.171-7.158
		c10.307,1.941,6.975,16.666,6.975,16.666s-0.668,7.145-10.705,7.895c-10,0.746-29.996-5.639-37.074-28.18"/>
	<path clip-path="url(#SVGID_2_)" fill="#53B332" d="M78.288,111.786c0.47-1.377,1.196-2.658,2.104-3.775
		c0.916-1.111,2.058-2.035,3.361-2.596c1.299-0.57,2.729-0.77,4.139-0.68c0.721,0.068,1.381,0.152,2.093,0.355
		c0.702,0.176,1.315,0.436,1.942,0.764c1.215,0.676,2.221,1.684,2.907,2.891c0.699,1.201,1.138,2.559,1.375,3.951
		c0.248,1.393,0.308,2.826,0.255,4.252c-0.056,1.42-0.219,2.865-0.507,4.238l-0.002,0.008l-0.008,0.055
		c-0.179,1.178-0.747,2.402-1.502,3.396c-0.763,1.012-1.748,1.854-2.874,2.467c-2.256,1.244-4.926,1.674-7.549,1.674
		c-2.629-0.018-5.277-0.418-7.836-1.105c-2.565-0.672-5.062-1.623-7.441-2.807c-2.369-1.201-4.643-2.611-6.718-4.281
		c-1.039-0.832-2.049-1.703-2.992-2.646c-0.959-0.926-1.845-1.924-2.715-2.934l-1.248-1.566l-1.162-1.633
		c-0.742-1.111-1.44-2.254-2.08-3.428c-0.636-1.178-1.216-2.385-1.75-3.617c-0.528-1.232-0.99-2.49-1.427-3.76
		c0.399,1.281,0.826,2.555,1.319,3.805c0.499,1.248,1.046,2.479,1.65,3.68c0.609,1.201,1.279,2.371,1.994,3.514l1.125,1.682
		l1.216,1.619c0.844,1.055,1.732,2.074,2.688,3.029c0.941,0.973,1.952,1.873,2.993,2.736c2.082,1.73,4.371,3.203,6.767,4.469
		c2.407,1.24,4.933,2.273,7.557,2.975c2.62,0.719,5.322,1.145,8.063,1.178c1.373,0.01,2.734-0.096,4.094-0.357
		c1.354-0.26,2.689-0.699,3.926-1.367c1.234-0.66,2.35-1.582,3.211-2.713c0.842-1.154,1.451-2.432,1.664-3.918l-0.011,0.063
		c0.297-1.479,0.444-2.938,0.49-4.422c0.04-1.479-0.034-2.971-0.31-4.439c-0.269-1.467-0.736-2.928-1.531-4.229
		c-0.789-1.301-1.94-2.393-3.293-3.092c-0.668-0.332-1.414-0.613-2.129-0.77c-0.693-0.178-1.485-0.268-2.213-0.311
		c-1.49-0.047-3.021,0.188-4.357,0.875c-1.344,0.662-2.473,1.682-3.348,2.859C79.352,109.059,78.688,110.385,78.288,111.786"/>
	<path clip-path="url(#SVGID_2_)" fill="#FFF9B1" d="M82.523,116.963c-0.423,4.406,1.715,8.273,5.226,8.676
		c3.511,0.404,6.329-2.875,6.752-7.283c0.421-4.406-1.448-8.289-5.226-8.676C84.711,109.211,82.945,112.555,82.523,116.963"/>
	<path clip-path="url(#SVGID_2_)" fill="#F49C00" d="M101.234,69.918c-0.234-1.133-1.343-1.859-2.475-1.625
		s-1.859,1.342-1.626,2.473c0.235,1.133,1.343,1.861,2.476,1.625C100.74,72.159,101.468,71.051,101.234,69.918"/>
	<path clip-path="url(#SVGID_2_)" fill="#FFF68A" d="M87.27,68.797c-0.979,1.293,2.061,5.25,6.791,8.84
		c4.729,3.59,9.359,5.455,10.34,4.164c0.98-1.293-0.481-7.477-5.213-11.066C94.458,67.145,88.251,67.506,87.27,68.797"/>
	<path clip-path="url(#SVGID_2_)" fill="#FFD900" d="M95.717,92.946c0,0,3.592,1.803,8.598-0.166
		c3.47-1.367,6.967-1.787,9.182-0.115l-2.732-4.904c0,0-3.6,0.732-5.979,0.377c-3.539-0.531-2.25-4.174-2.25-4.174"/>
	<path clip-path="url(#SVGID_2_)" fill="#D8EFFC" d="M116.1,91.032c1.094-0.352,4.92-0.898,7.129,1.234
		c1.976,1.906-0.912,4.295-2.146,1.721C120.4,92.563,118.166,91.221,116.1,91.032"/>
	<path clip-path="url(#SVGID_2_)" fill="#FFFFFF" d="M123.551,93.727c0.012-0.293-0.121-0.525-0.297-0.52
		c-0.175,0.006-0.326,0.246-0.336,0.539c-0.013,0.291,0.12,0.523,0.295,0.518C123.389,94.26,123.539,94.02,123.551,93.727"/>
	<path clip-path="url(#SVGID_2_)" fill="#8CD2F5" d="M116.1,91.032c0,0,0.559-0.146,1.408-0.219
		c0.428-0.039,0.924-0.063,1.459-0.033c0.268-0.006,0.538,0.045,0.814,0.08c0.279,0.035,0.561,0.07,0.83,0.162
		c0.27,0.078,0.556,0.117,0.811,0.225c0.254,0.115,0.505,0.229,0.746,0.334c0.246,0.105,0.428,0.297,0.631,0.428
		c0.191,0.156,0.395,0.26,0.523,0.438c0.154,0.154,0.261,0.311,0.345,0.459c0.104,0.139,0.123,0.295,0.175,0.41
		c0.051,0.24,0.059,0.385,0.059,0.385s0.002-0.143-0.029-0.393c-0.045-0.117-0.053-0.279-0.148-0.432
		c-0.076-0.164-0.179-0.34-0.328-0.492c-0.123-0.178-0.34-0.307-0.527-0.463c-0.202-0.139-0.387-0.342-0.635-0.453
		c-0.244-0.117-0.498-0.24-0.756-0.363c-0.26-0.117-0.549-0.166-0.826-0.252s-0.565-0.115-0.849-0.143
		c-0.282-0.029-0.56-0.076-0.831-0.061c-0.542-0.018-1.043,0.02-1.473,0.07C116.638,90.833,116.1,91.032,116.1,91.032"/>
	<path clip-path="url(#SVGID_2_)" fill="#D8EFFC" d="M115.406,92.143c2.104,1.533,10.084,6.83,11.254,15.924
		c0.416,3.238-2.287,2.744-2.543,0.268C123.865,105.86,122.613,99.016,115.406,92.143"/>
	<path clip-path="url(#SVGID_2_)" fill="#FFFFFF" d="M126.309,108.231c-0.068-0.475-0.266-0.84-0.439-0.813
		c-0.174,0.023-0.258,0.43-0.189,0.906c0.069,0.473,0.266,0.84,0.439,0.813C126.293,109.114,126.377,108.708,126.309,108.231"/>
	<path clip-path="url(#SVGID_2_)" fill="#8CD2F5" d="M125.982,110.29c-0.021-0.006,0.355-0.08,0.582-0.627
		c0.225-0.527,0.223-1.385,0.019-2.365c-0.3-1.986-1.159-4.717-2.905-7.273c-1.712-2.578-3.797-4.482-5.355-5.746
		c-1.58-1.25-2.625-1.928-2.625-1.928s1.014,0.727,2.551,2.018c1.517,1.305,3.543,3.236,5.234,5.785
		c1.727,2.529,2.629,5.197,2.985,7.164c0.231,0.975,0.263,1.807,0.062,2.332C126.33,110.192,125.962,110.284,125.982,110.29"/>
	<path clip-path="url(#SVGID_2_)" fill="#FFF68A" d="M112.255,91.377c1.547,1.666,3.308,2.545,3.933,1.965s-0.123-2.4-1.67-4.066
		c-1.548-1.666-3.309-2.545-3.934-1.965C109.96,87.891,110.708,89.711,112.255,91.377"/>
	<path clip-path="url(#SVGID_2_)" fill="#FFD900" d="M112.097,91.418c1.397,1.504,2.958,2.326,3.485,1.836
		c0.529-0.492-0.176-2.107-1.573-3.611c-1.397-1.506-2.958-2.326-3.486-1.836S110.699,89.915,112.097,91.418"/>
	<path clip-path="url(#SVGID_2_)" fill="#FFF100" d="M77.625,81.506l9.646-12.707c0.979-1.293,5.608,0.57,10.34,4.162
		c4.729,3.588,7.77,7.547,6.789,8.84l-9.646,12.707c-0.979,1.293-5.61-0.57-10.34-4.162C79.685,86.756,76.645,82.799,77.625,81.506"
		/>
	<path clip-path="url(#SVGID_2_)" fill="#FFE100" d="M78.199,82.483c-0.74,0.979,2.119,4.396,6.389,7.637s8.33,5.074,9.072,4.098
		c0.74-0.977-2.119-4.396-6.389-7.635C83.003,83.342,78.941,81.506,78.199,82.483"/>
	<path clip-path="url(#SVGID_2_)" fill="#FFF100" d="M80.175,80.688l0.127-0.008c0.509-0.07,0.865-0.539,0.796-1.049
		c-0.01-0.074-0.974-7.434,2.025-10.193c0.404-0.373,0.814-0.531,1.254-0.508c0.883,0.063,1.76,0.902,1.997,1.191
		c0.327,0.398,0.911,0.455,1.31,0.129c0.397-0.326,0.455-0.912,0.129-1.309c-0.145-0.178-1.477-1.74-3.306-1.867
		c-0.94-0.066-1.864,0.275-2.644,0.994c-3.715,3.42-2.656,11.475-2.609,11.816C79.318,80.35,79.717,80.688,80.175,80.688"/>
	<path clip-path="url(#SVGID_2_)" fill="#003F85" d="M80.944,76.161c0.414,0,0.822-0.227,1.038-0.607
		c0.074-0.131,0.702-1.334-0.236-2.842c-0.334-0.533-1.039-0.697-1.574-0.365c-0.536,0.334-0.7,1.039-0.366,1.574
		c0.221,0.355,0.159,0.555,0.153,0.578c-0.312,0.549-0.102,1.211,0.449,1.521C80.576,76.116,80.761,76.161,80.944,76.161"/>
	<path clip-path="url(#SVGID_2_)" fill="#003F85" d="M82.623,74.239c0.565,0,1.063-0.445,1.146-1.02
		c0.021-0.15,0.167-1.498-1.257-2.561c-0.504-0.379-1.221-0.273-1.598,0.232c-0.379,0.504-0.275,1.223,0.231,1.6
		c0.336,0.25,0.353,0.459,0.353,0.482c-0.089,0.625,0.35,1.166,0.975,1.254L82.623,74.239z"/>
	<path clip-path="url(#SVGID_2_)" fill="#003F85" d="M83.57,72.137c0.565,0,1.063-0.445,1.146-1.02
		c0.021-0.152,0.167-1.498-1.257-2.559c-0.504-0.379-1.221-0.275-1.6,0.23c-0.377,0.506-0.273,1.223,0.232,1.6
		c0.337,0.252,0.354,0.461,0.354,0.482c-0.088,0.625,0.35,1.166,0.975,1.254L83.57,72.137z"/>
	<path clip-path="url(#SVGID_2_)" fill="#003F85" d="M84.537,69.917c0.565,0,1.063-0.445,1.145-1.02
		c0.021-0.15,0.168-1.498-1.256-2.559c-0.504-0.379-1.221-0.275-1.6,0.23c-0.377,0.506-0.273,1.223,0.232,1.6
		c0.336,0.252,0.354,0.461,0.354,0.482c-0.09,0.625,0.35,1.166,0.975,1.254L84.537,69.917z"/>
	<path clip-path="url(#SVGID_2_)" fill="#ABCD03" d="M53.722,65.1c10.891-17.806,34.852-7.473,29.168,5.908
		c-1.887,4.439-7.037,5.205-9.954,7.504c-3.038,3.521-9.906,12.223-19.081,11.406c-13.038-1.158-15.53-20.145,2.587-42.025"/>
	<path clip-path="url(#SVGID_2_)" fill="#53B332" d="M53.722,65.1c1.251-1.984,2.781-3.796,4.592-5.275
		c1.805-1.481,3.899-2.602,6.123-3.271c4.447-1.323,9.436-0.803,13.398,1.574c1.963,1.185,3.665,2.854,4.651,4.905
		c0.49,1.022,0.793,2.126,0.871,3.251s-0.059,2.26-0.375,3.346c-0.318,1.078-0.818,2.139-1.517,2.979
		c-0.707,0.865-1.608,1.566-2.585,2.16c-1.951,1.209-4.222,1.936-6.198,3.418l-0.03,0.021l-0.028,0.031
		c-1.999,2.354-4.023,4.652-6.374,6.594c-2.329,1.936-4.964,3.566-7.884,4.301c-1.452,0.377-2.96,0.494-4.452,0.381
		c-1.526-0.137-2.937-0.506-4.272-1.201c-1.313-0.691-2.452-1.691-3.327-2.895c-0.879-1.201-1.497-2.588-1.891-4.039
		c-0.811-2.908-0.732-6.023-0.259-9.029c0.269-1.5,0.594-2.998,1.062-4.457c0.434-1.469,0.989-2.9,1.572-4.32
		c1.214-2.818,2.648-5.549,4.281-8.158c0.81-1.309,1.674-2.584,2.568-3.839c0.894-1.257,1.839-2.474,2.794-3.685
		c-3.973,4.707-7.528,9.834-10.075,15.495c-0.61,1.422-1.193,2.862-1.656,4.344c-0.496,1.473-0.85,2.99-1.146,4.518
		c-0.526,3.059-0.671,6.258,0.14,9.326c0.407,1.523,1.053,3.002,1.99,4.297c0.932,1.295,2.162,2.385,3.577,3.141
		c1.396,0.752,3.029,1.17,4.571,1.311c1.582,0.131,3.189,0.014,4.726-0.377c3.089-0.766,5.852-2.443,8.24-4.443
		c2.403-2.006,4.46-4.371,6.439-6.725l-0.057,0.055c1.785-1.365,4.062-2.127,6.1-3.393c1.021-0.629,1.997-1.387,2.771-2.346
		c0.795-0.975,1.295-2.086,1.643-3.254c0.333-1.166,0.482-2.396,0.376-3.613c-0.103-1.217-0.448-2.407-0.988-3.493
		c-1.087-2.18-2.905-3.902-4.963-5.105c-2.067-1.205-4.397-1.918-6.762-2.158c-2.368-0.241-4.778,0.023-7.033,0.754
		c-2.252,0.737-4.347,1.927-6.132,3.467C56.413,61.229,54.924,63.087,53.722,65.1"/>
	<path clip-path="url(#SVGID_2_)" fill="#003F85" d="M130.42,42.922c0,0-1.898-3.514-3.412-3.971
		c-1.516-0.458-2.256,1.07-1.064,2.157c1.192,1.088,2.109,2.867,2.109,2.867"/>
	<path clip-path="url(#SVGID_2_)" fill="#003F85" d="M128.18,43.881c0,0-1.896-3.513-3.412-3.971
		c-1.515-0.456-2.256,1.071-1.063,2.159c1.192,1.086,2.108,2.867,2.108,2.867"/>
	<path clip-path="url(#SVGID_2_)" fill="#008590" d="M123.704,42.067c0.052-0.015-0.468-0.337-0.535-1.135
		c-0.021-0.382,0.235-0.867,0.743-0.984c0.249-0.071,0.515-0.03,0.791,0.027c0.246,0.122,0.527,0.217,0.748,0.427
		c0.931,0.781,1.562,1.725,2.025,2.378c0.448,0.671,0.703,1.102,0.703,1.102s-0.221-0.449-0.639-1.144
		c-0.434-0.677-1.031-1.647-1.994-2.457c-0.227-0.214-0.541-0.327-0.805-0.449c-0.299-0.058-0.588-0.095-0.865-0.01
		c-0.566,0.148-0.83,0.709-0.786,1.112C123.208,41.776,123.758,42.047,123.704,42.067"/>
	<path clip-path="url(#SVGID_2_)" fill="#003F85" d="M126.221,45.323c0,0-1.897-3.515-3.412-3.971
		c-1.515-0.457-2.256,1.07-1.063,2.157s2.108,2.866,2.108,2.866"/>
	<path clip-path="url(#SVGID_2_)" fill="#008590" d="M121.744,43.51c0.053-0.017-0.467-0.338-0.535-1.138
		c-0.02-0.381,0.236-0.865,0.744-0.981c0.125-0.012,0.252-0.06,0.385-0.042l0.404,0.066c0.248,0.124,0.528,0.219,0.75,0.429
		c0.93,0.78,1.562,1.726,2.024,2.379c0.449,0.67,0.704,1.101,0.704,1.101s-0.221-0.449-0.639-1.144
		c-0.435-0.677-1.031-1.647-1.994-2.457c-0.228-0.215-0.541-0.326-0.805-0.448c-0.301-0.061-0.588-0.097-0.865-0.01
		c-0.567,0.147-0.83,0.709-0.786,1.11C121.25,43.218,121.799,43.488,121.744,43.51"/>
	<path clip-path="url(#SVGID_2_)" fill="#003F85" d="M124.431,47.443c0,0-1.503-3.699-2.959-4.319
		c-1.456-0.618-2.358,0.819-1.293,2.029c1.067,1.211,1.784,3.08,1.784,3.08"/>
	<path clip-path="url(#SVGID_2_)" fill="#008590" d="M120.18,45.153c0.053-0.01-0.429-0.386-0.408-1.187
		c0.021-0.384,0.328-0.836,0.846-0.898c0.126,0.005,0.257-0.029,0.386,0.002l0.397,0.11c0.23,0.148,0.5,0.275,0.697,0.508
		c0.84,0.878,1.363,1.885,1.754,2.585c0.373,0.716,0.58,1.17,0.58,1.17s-0.172-0.469-0.512-1.205
		c-0.357-0.721-0.845-1.75-1.715-2.66c-0.201-0.239-0.501-0.384-0.752-0.534c-0.289-0.091-0.573-0.158-0.857-0.104
		c-0.58,0.084-0.902,0.614-0.901,1.019C119.719,44.811,120.234,45.139,120.18,45.153"/>
	<path clip-path="url(#SVGID_2_)" fill="#ABCD03" d="M138.092,72.778c4.275-27.607-8.402-37.17-14.05-30.042
		c-5.278,6.666-3.587,14.594-1.295,19.739"/>
	<path clip-path="url(#SVGID_2_)" fill="#53B332" d="M138.092,72.778c0,0,0.146-0.969,0.403-2.666
		c0.09-0.854,0.252-1.885,0.343-3.078c0.116-1.191,0.196-2.54,0.247-4.013c0.05-2.942-0.069-6.407-0.813-10.035
		c-0.366-1.812-0.9-3.662-1.686-5.45c-0.796-1.774-1.793-3.537-3.23-4.95c-1.379-1.421-3.326-2.516-5.395-2.371
		c-1.018,0.063-1.996,0.457-2.787,1.049c-0.795,0.578-1.426,1.378-1.93,2.124c-1.064,1.529-1.835,3.204-2.291,4.847
		c-0.465,1.646-0.627,3.273-0.588,4.759c0.034,1.484,0.23,2.834,0.471,4.011c0.284,1.168,0.573,2.175,0.879,2.979
		c0.291,0.81,0.551,1.434,0.742,1.851c0.189,0.419,0.29,0.642,0.29,0.642s-0.089-0.227-0.259-0.655c-0.17-0.426-0.4-1.06-0.65-1.879
		c-0.266-0.813-0.504-1.826-0.728-2.991c-0.206-1.172-0.363-2.505-0.356-3.96c0.008-2.896,0.807-6.34,2.926-9.289
		c0.531-0.768,1.08-1.449,1.82-1.989c0.725-0.533,1.594-0.88,2.502-0.947c1.84-0.139,3.661,0.836,4.986,2.192
		c1.379,1.338,2.361,3.05,3.148,4.777c0.775,1.745,1.309,3.563,1.705,5.344c0.795,3.57,0.967,7.012,0.965,9.939
		c-0.008,1.468-0.049,2.814-0.133,4.003c-0.055,1.193-0.188,2.227-0.255,3.082C138.21,71.803,138.092,72.778,138.092,72.778"/>
	<path clip-path="url(#SVGID_2_)" fill="#A64514" d="M131.068,95.614c-0.704-0.43-2.908-1.652-3.059-1.768
		c-1.563-1.207-2.826-2.572-3.248-2.877c-0.078,0.18,1.425,2.668,1.951,3.303c0.44,0.529,3.192,4.592,3.763,4.994"/>
	<path clip-path="url(#SVGID_2_)" fill="#A75614" d="M129.012,103.752c0.173-1.133,1.777-15.313,3.275-16.879l0.422-0.084
		c-0.854,1.514-0.959,26.273,1.234,31.373c-1.829,0.85-3.716-0.094-5.525,0.631C128.074,116.36,128.08,109.858,129.012,103.752"/>
	<path clip-path="url(#SVGID_2_)" fill="#CC6D17" d="M129.57,116.872c0,0,0.01-0.568-0.001-1.42
		c-0.005-0.424-0.04-0.922-0.022-1.451c0.018-0.531,0.036-1.098,0.055-1.664c0.002-1.133,0.002-2.266,0.004-3.113
		c-0.01-0.852-0.035-1.42-0.035-1.42s-0.045,0.563-0.084,1.416c-0.028,0.85-0.066,1.984-0.104,3.121c0,0.566,0,1.135,0,1.668
		c-0.002,0.531,0.051,1.025,0.068,1.451C129.512,116.309,129.57,116.872,129.57,116.872"/>
	<path clip-path="url(#SVGID_2_)" fill="#CC6D17" d="M130.714,118.618c0,0-0.022-0.57-0.084-1.418
		c-0.028-0.426-0.093-0.918-0.106-1.449c-0.013-0.531-0.027-1.098-0.041-1.664c-0.064-1.131-0.13-2.262-0.178-3.111
		c-0.059-0.848-0.118-1.414-0.118-1.414s-0.011,0.566,0,1.418c0.021,0.852,0.05,1.986,0.077,3.123
		c0.033,0.566,0.064,1.133,0.096,1.664c0.031,0.533,0.11,1.023,0.153,1.445C130.623,118.055,130.714,118.618,130.714,118.618"/>
	<path clip-path="url(#SVGID_2_)" fill="#00A040" d="M125.676,91.973c0,0-0.145-2.578-2.393-3.137
		c-1.511-0.375-2.117-0.125-3.174,0.016c0,0,0.434,0.834,0.792,1.553C121.459,91.522,123.266,92.915,125.676,91.973"/>
	<path clip-path="url(#SVGID_2_)" fill="#007733" d="M138.229,85.225c-2.991-0.027-5.086,1.383-5.853,1.775
		c0.011-0.043,1.055-4.785,7.386-3.24c0.646,0.156,1.278,0.621,2.619,0.428C141.854,84.543,140.518,85.247,138.229,85.225"/>
	<path clip-path="url(#SVGID_2_)" fill="#00A040" d="M138.229,85.225c2.288,0.021,3.624-0.682,4.152-1.037h0.003
		c0,0-2.365,7.139-10.008,2.814V87C133.144,86.608,135.238,85.198,138.229,85.225"/>
	<path clip-path="url(#SVGID_2_)" fill="#007733" d="M128.789,82.514c-1.908-0.975-2.351-1.596-2.563-2.24l0.002-0.006
		c0.92,0.893,1.842,0.336,3.887,1.395c2.787,1.441,2.403,4.74,2.318,5.289C132.101,86.231,130.746,83.512,128.789,82.514"/>
	<path clip-path="url(#SVGID_2_)" fill="#00A040" d="M126.226,80.272c0.214,0.646,0.654,1.268,2.564,2.242
		c1.956,0.998,3.311,3.717,3.643,4.438l-0.014,0.08C124.4,86.752,126.191,80.395,126.226,80.272"/>
	<path clip-path="url(#SVGID_2_)" fill="#D8EFFC" d="M143.093,119.543c0,0,5.763,0.723,2.751,2.244
		c-3.011,1.521-5.883,1.9-15.265,2.486s-9.341-1.584-17.454-0.773s-0.167-3.695,8.029-4.301"/>
	<path clip-path="url(#SVGID_2_)" fill="#C29B6B" d="M143.093,119.543c0,0-6.743-5.902-11.362-3.008c0,0-5.509-3.039-9.576,0.354
		c-4.279,3.57-10.547,5.549,10.858,5.549C140.084,122.438,144.678,120.899,143.093,119.543"/>
	<path clip-path="url(#SVGID_2_)" fill="#FEDF7D" d="M141.643,118.436c-1.431-1.049-2.986-1.98-4.718-2.498
		c-0.86-0.258-1.769-0.424-2.685-0.371c-0.459,0.025-0.912,0.105-1.356,0.23c-0.442,0.137-0.858,0.336-1.263,0.566l0.209-0.006
		c-1.198-0.617-2.475-1.027-3.805-1.193c-0.662-0.09-1.336-0.102-2.004-0.043c-0.666,0.076-1.337,0.195-1.957,0.455
		c-0.635,0.225-1.217,0.584-1.742,0.996c-0.528,0.4-1.012,0.838-1.532,1.227c-0.521,0.396-1.037,0.801-1.544,1.219
		c-0.493,0.424-1.036,0.846-1.32,1.447c0.32-0.58,0.881-0.957,1.398-1.346l1.608-1.127c0.542-0.375,1.05-0.801,1.58-1.17
		c0.515-0.379,1.081-0.688,1.683-0.895c0.59-0.24,1.228-0.342,1.86-0.408c0.636-0.049,1.279-0.031,1.914,0.063
		c1.265,0.186,2.526,0.561,3.662,1.133l0.106,0.053l0.101-0.059c0.37-0.215,0.752-0.404,1.161-0.535
		c0.41-0.123,0.833-0.203,1.263-0.232c0.861-0.057,1.737,0.053,2.584,0.275c0.851,0.219,1.668,0.555,2.472,0.924
		C140.119,117.518,140.894,117.956,141.643,118.436"/>
	<path clip-path="url(#SVGID_2_)" fill="#FEDF7D" d="M131.641,116.7c0,0,0.248,0.119,0.582,0.332
		c0.351,0.193,0.783,0.516,1.225,0.83c0.45,0.305,0.835,0.689,1.155,0.945c0.311,0.266,0.518,0.441,0.518,0.441
		s-0.188-0.195-0.471-0.492c-0.292-0.285-0.642-0.713-1.062-1.063c-0.412-0.363-0.817-0.736-1.164-0.975
		c-0.334-0.262-0.563-0.4-0.563-0.4L131.641,116.7z"/>
	<path clip-path="url(#SVGID_2_)" fill="#FEDF7D" d="M131.955,118.178c-0.043,0.094,0.074,0.238,0.261,0.324
		c0.186,0.084,0.37,0.078,0.413-0.016c0.043-0.092-0.073-0.236-0.26-0.324C132.183,118.079,131.998,118.086,131.955,118.178"/>
	<path clip-path="url(#SVGID_2_)" fill="#FEDF7D" d="M130.816,118.639c-0.027,0.061,0.047,0.152,0.166,0.207s0.236,0.051,0.264-0.01
		c0.027-0.059-0.047-0.15-0.165-0.205C130.961,118.579,130.844,118.581,130.816,118.639"/>
	<path clip-path="url(#SVGID_2_)" fill="#FEDF7D" d="M130.09,117.295c-0.037,0.082,0.064,0.207,0.228,0.283
		c0.164,0.074,0.326,0.068,0.364-0.014c0.037-0.08-0.065-0.209-0.229-0.281C130.289,117.208,130.127,117.213,130.09,117.295"/>
	<path clip-path="url(#SVGID_2_)" fill="#FEDF7D" d="M139.566,118.073c-0.037,0.096,0.09,0.234,0.28,0.307
		c0.191,0.074,0.376,0.057,0.413-0.039c0.036-0.094-0.089-0.232-0.279-0.305C139.789,117.959,139.604,117.979,139.566,118.073"/>
	<path clip-path="url(#SVGID_2_)" fill="#FEDF7D" d="M137.014,117.983c-0.023,0.061,0.057,0.148,0.178,0.195
		c0.122,0.047,0.24,0.035,0.264-0.025s-0.057-0.146-0.178-0.195C137.156,117.911,137.037,117.922,137.014,117.983"/>
	<path clip-path="url(#SVGID_2_)" fill="#FEDF7D" d="M136.622,116.948c-0.032,0.084,0.077,0.203,0.245,0.268
		c0.167,0.064,0.33,0.049,0.361-0.035c0.033-0.084-0.076-0.203-0.244-0.268S136.654,116.864,136.622,116.948"/>
</g>
</svg>
