<?xml version="1.0" encoding="utf-8"?>
<!-- Generator: Adobe Illustrator 16.0.0, SVG Export Plug-In . SVG Version: 6.00 Build 0)  -->
<!DOCTYPE svg PUBLIC "-//W3C//DTD SVG 1.1//EN" "http://www.w3.org/Graphics/SVG/1.1/DTD/svg11.dtd">
<svg version="1.1" id="레이어_1" xmlns="http://www.w3.org/2000/svg" xmlns:xlink="http://www.w3.org/1999/xlink" x="0px"
	 y="0px" width="147.925px" height="167.7px" viewBox="0 0 147.925 167.7" enable-background="new 0 0 147.925 167.7"
	 xml:space="preserve">
<polygon fill="#7A2621" points="5.468,58.531 63.074,49.044 78.145,83.965 16.808,97.715 "/>
<g>
	<defs>
		<rect id="SVGID_1_" width="147.925" height="167.7"/>
	</defs>
	<clipPath id="SVGID_2_">
		<use xlink:href="#SVGID_1_"  overflow="visible"/>
	</clipPath>
	<path clip-path="url(#SVGID_2_)" fill="#DCDDDD" d="M101.307,148.711c-0.841,0-1.591-0.596-1.756-1.453
		c-0.186-0.969,0.449-1.908,1.42-2.094c0.728-0.148,2.779-0.855,3.439-2.318c0.5-1.111,0.199-2.635-0.893-4.523l-9.182-16.217
		c-0.486-0.859-0.186-1.951,0.676-2.439c0.86-0.486,1.951-0.184,2.439,0.676l9.174,16.201c1.701,2.947,2.052,5.576,1.035,7.803
		c-1.572,3.443-5.832,4.297-6.014,4.332L101.307,148.711z"/>
	<path clip-path="url(#SVGID_2_)" fill="#AF4D55" d="M23.348,121.952c-1.243,0-2.388-0.816-2.751-2.07
		c-0.437-1.521,0.44-3.109,1.961-3.545l75.987-21.883c1.519-0.43,3.107,0.439,3.545,1.961c0.438,1.52-0.439,3.107-1.96,3.545
		L24.142,121.84C23.876,121.917,23.612,121.952,23.348,121.952"/>
	<path clip-path="url(#SVGID_2_)" fill="#BABFC2" d="M15.155,146.856c-0.795,0-1.521-0.533-1.731-1.336
		c-0.249-0.957,0.324-1.936,1.28-2.186l44.549-11.623c0.957-0.25,1.934,0.324,2.184,1.279c0.249,0.957-0.324,1.936-1.28,2.186
		l-44.549,11.623C15.458,146.838,15.305,146.856,15.155,146.856"/>
	<path clip-path="url(#SVGID_2_)" fill="#722127" d="M99.27,101.735l19.332,23.248l-70.948,21.068
		c-20.451-18.953-23.064-24.826-23.064-24.826L99.27,101.735z"/>
	<path clip-path="url(#SVGID_2_)" fill="#DCDDDD" d="M21.556,121.625c-0.776,0-1.49-0.508-1.718-1.289L0.888,55.258
		c-1.363-4.514-1.156-8.466,0.621-11.729c2.527-4.639,7.317-6.061,7.52-6.118l0.295-0.06l19.286-2.154
		c0.97-0.103,1.868,0.599,1.978,1.58c0.109,0.982-0.598,1.867-1.58,1.978L9.901,40.89c-0.627,0.22-3.663,1.407-5.267,4.388
		c-1.285,2.385-1.389,5.4-0.314,8.963l18.955,65.094c0.276,0.951-0.269,1.943-1.218,2.221
		C21.89,121.602,21.722,121.625,21.556,121.625"/>
	<path clip-path="url(#SVGID_2_)" fill="#DCDDDD" d="M48.705,167.7c-1.604,0-3.055-0.379-4.339-1.133
		c-2.634-1.551-3.631-4.215-3.885-5.039l-19.34-37.15l-0.09-0.205c-0.514-1.387-1.24-3.939-0.327-5.457
		c0.396-0.66,1.035-1.082,1.798-1.184c0.975-0.137,1.881,0.557,2.012,1.535c0.088,0.65-0.186,1.268-0.667,1.646
		c0.042,0.516,0.245,1.389,0.504,2.115l19.368,37.203c0.066,0.127,0.117,0.264,0.151,0.402c0.002,0.008,0.55,2.041,2.321,3.063
		c1.249,0.723,2.884,0.814,4.865,0.27c7.568-2.076,49.161-18.348,49.58-18.512c0.919-0.365,1.959,0.094,2.32,1.014
		c0.359,0.922-0.094,1.959-1.016,2.318c-1.719,0.674-42.189,16.506-49.939,18.635C50.856,167.54,49.748,167.7,48.705,167.7"/>
	<path clip-path="url(#SVGID_2_)" fill="#AF4D55" d="M48.48,149.399c-1.224,0-2.359-0.791-2.736-2.023
		c-0.466-1.512,0.384-3.113,1.896-3.578l72.641-22.326c1.511-0.465,3.113,0.385,3.578,1.895c0.466,1.514-0.385,3.115-1.896,3.58
		l-72.641,22.326C49.042,149.358,48.759,149.399,48.48,149.399"/>
	<path clip-path="url(#SVGID_2_)" fill="#E6E6E6" d="M44.517,149.342c-0.226,0-0.379-0.01-0.43-0.016l-26.51-0.701h-0.016
		c-3.467,0-4.227-1.9-4.376-2.484c-0.282-1.102,0.2-2.207,1.199-2.754c0.865-0.477,1.954-0.154,2.429,0.713
		c0.158,0.291,0.228,0.604,0.218,0.914c0.161,0.02,0.354,0.033,0.582,0.033h0.009l26.661,0.707c0.362,0.023,1.221-0.004,1.858-0.348
		c0.869-0.471,1.956-0.145,2.425,0.727c0.469,0.869,0.144,1.955-0.726,2.426C46.569,149.243,45.204,149.342,44.517,149.342"/>
	<path clip-path="url(#SVGID_2_)" fill="#ABCD03" d="M101.44,119.567c0,0,15.001-3.328,22.38-15.662
		c9.285-15.521,4.543-32.021,22.051-35.79c4.98-1.071,0.35-4.126-7.957-2.853c-8.304,1.274-20.332,8.848-25.748,21.064
		c-5.416,12.219-20.941,10.082-20.941,10.082L101.44,119.567z"/>
	<path clip-path="url(#SVGID_2_)" fill="#00A29A" d="M125.752,86.114c-4.609-3.811-9.082-3.823-11.771-3.306
		c-0.663,1.126-1.273,2.298-1.814,3.519c-0.318,0.719-0.674,1.383-1.058,2.006c2.968,0.531,7.597,1.906,10.517,5.453
		c2.099,2.547,3.3,4.924,3.992,6.762c1.691-3.537,2.797-7.072,3.736-10.449C128.526,88.827,127.371,87.454,125.752,86.114"/>
	<path clip-path="url(#SVGID_2_)" fill="#00A29A" d="M132.613,72.47c-2.139-1.977-4.297-2.567-5.983-2.639
		c-2.578,1.641-5.118,3.688-7.43,6.104c2.396-0.548,6.278-0.703,10.112,2.309c1.154,0.904,2.013,1.845,2.655,2.748
		c0.746-2.149,1.623-4.129,2.798-5.878C134.275,74.279,133.591,73.374,132.613,72.47"/>
	<path clip-path="url(#SVGID_2_)" fill="#00A29A" d="M137.915,65.264c-1.147,0.176-2.365,0.475-3.624,0.886
		c1.291,0.549,2.678,1.51,3.932,3.168c0.375,0.491,0.682,0.972,0.942,1.438c1.786-1.154,3.976-2.053,6.706-2.641
		C150.852,67.043,146.221,63.989,137.915,65.264"/>
	<path clip-path="url(#SVGID_2_)" fill="#EFEFEF" d="M141.754,64.957h-0.018H141.754z M141.775,64.957
		c3.783,0.004,6.16,0.989,6.149,1.916c-0.005,0.43-0.524,0.849-1.661,1.148C149.841,67.075,147.316,64.963,141.775,64.957
		 M138.117,65.232c-0.067,0.01-0.135,0.02-0.202,0.031C137.982,65.252,138.05,65.242,138.117,65.232 M145.871,68.115
		c-0.042,0.009-0.083,0.017-0.124,0.027c-0.004,0.001-0.009,0.002-0.011,0.002c-0.041,0.01-0.08,0.018-0.119,0.026h-0.001
		c-2.359,0.532-4.308,1.298-5.937,2.266l-0.002,0.002c-0.027,0.016-0.053,0.032-0.078,0.047c-0.006,0.003-0.01,0.005-0.015,0.008
		c-0.022,0.015-0.046,0.029-0.069,0.043c-0.006,0.002-0.01,0.005-0.014,0.008c-0.023,0.014-0.045,0.028-0.068,0.042
		c-0.019,0.012-0.037,0.024-0.057,0.036c-0.008,0.004-0.016,0.009-0.023,0.013c-0.02,0.015-0.037,0.024-0.056,0.037
		c-0.005,0.002-0.009,0.005-0.013,0.006c-1.908,1.212-3.36,2.708-4.521,4.438h0.002c-0.875,1.305-1.586,2.736-2.201,4.272
		c-0.897,2.247-1.588,4.718-2.293,7.328c0.563-2.078,1.119-4.066,1.772-5.926c0.138-0.386,0.278-0.768,0.424-1.141l0.114-0.298
		c0.188-0.472,0.389-0.933,0.596-1.383l0.109-0.224c0.179-0.378,0.367-0.744,0.564-1.104l0.174-0.313
		c0.209-0.371,0.43-0.73,0.662-1.084c1.34-2.031,3.074-3.755,5.465-5.069l0.231-0.126c0.341-0.181,0.695-0.354,1.062-0.519
		l0.193-0.082c0.344-0.148,0.697-0.289,1.063-0.423l0.207-0.077c0.404-0.144,0.826-0.277,1.263-0.401l0.29-0.081
		C144.916,68.339,145.382,68.222,145.871,68.115"/>
	<path clip-path="url(#SVGID_2_)" fill="#A0C101" d="M134.291,66.149l0.008,0.004c-2.451,0.798-5.062,2.04-7.643,3.679
		c1.682,0.077,3.83,0.672,5.957,2.638c0.979,0.902,1.662,1.811,2.15,2.646c1.162-1.729,2.613-3.226,4.521-4.438
		c-0.04,0.027-0.08,0.052-0.12,0.078c-0.26-0.467-0.567-0.947-0.942-1.438C136.969,67.66,135.582,66.698,134.291,66.149
		 M145.747,68.143c-0.004,0.001-0.008,0.001-0.011,0.002C145.739,68.145,145.743,68.144,145.747,68.143 M145.616,68.171
		L145.616,68.171z M139.68,70.437l-0.002,0.002L139.68,70.437 M139.6,70.485c-0.006,0.003-0.01,0.005-0.015,0.008
		C139.59,70.49,139.594,70.488,139.6,70.485 M139.516,70.536c-0.006,0.002-0.01,0.005-0.014,0.008
		C139.506,70.541,139.51,70.538,139.516,70.536 M139.434,70.586c-0.019,0.012-0.037,0.024-0.057,0.036
		C139.395,70.61,139.415,70.598,139.434,70.586 M139.354,70.635c-0.019,0.013-0.037,0.025-0.057,0.037
		C139.316,70.66,139.334,70.649,139.354,70.635 M121.952,75.621c-1.037,0-1.97,0.136-2.746,0.313h0.007
		c-1.945,2.031-3.715,4.332-5.212,6.869l-0.021,0.005c-0.012,0.019-0.023,0.036-0.033,0.056c0.011-0.02,0.021-0.037,0.033-0.056
		c0.719-0.14,1.565-0.239,2.509-0.239c2.583,0,5.886,0.754,9.262,3.546c1.619,1.338,2.774,2.709,3.601,3.982
		c0.32-1.148,0.621-2.277,0.92-3.383c0.705-2.609,1.396-5.081,2.293-7.328c-0.209,0.523-0.406,1.059-0.596,1.604
		c-0.644-0.904-1.502-1.844-2.656-2.748C126.725,76.21,124.113,75.621,121.952,75.621"/>
	<path clip-path="url(#SVGID_2_)" fill="#EFEFEF" d="M112.166,86.327L112.166,86.327l-0.031,0.064
		c-0.111,0.25-0.227,0.492-0.346,0.729c0.084-0.164,0.164-0.33,0.244-0.5c0.012-0.027,0.024-0.053,0.036-0.078
		c0-0.002,0.001-0.002,0.001-0.004c0.016-0.035,0.032-0.07,0.048-0.104C112.133,86.399,112.149,86.362,112.166,86.327"/>
	<path clip-path="url(#SVGID_2_)" fill="#A0C101" d="M112.166,86.327c-0.016,0.035-0.033,0.072-0.048,0.105
		C112.133,86.399,112.15,86.364,112.166,86.327 M112.118,86.432c-0.016,0.035-0.032,0.07-0.048,0.105
		C112.086,86.502,112.103,86.467,112.118,86.432 M112.069,86.542c-0.013,0.025-0.024,0.051-0.036,0.078
		C112.045,86.592,112.057,86.567,112.069,86.542"/>
	<path clip-path="url(#SVGID_2_)" fill="#EFEFEF" d="M111.374,87.887c-0.087,0.15-0.175,0.297-0.263,0.441
		c-2.424,3.939-6.037,6.025-9.521,7.109c0.001,0.002,0.002,0.004,0.002,0.004c3.483-1.084,7.097-3.17,9.519-7.107
		c0-0.002-0.002-0.002-0.002-0.002C111.199,88.186,111.287,88.038,111.374,87.887 M91.23,96.411c0.028,0.004,0.158,0.02,0.379,0.041
		C91.389,96.43,91.259,96.415,91.23,96.411 M123.958,103.674c-0.007,0.01-0.015,0.023-0.021,0.033
		C123.943,103.698,123.949,103.686,123.958,103.674 M123.906,103.762c-0.01,0.016-0.02,0.031-0.029,0.047
		C123.887,103.793,123.896,103.778,123.906,103.762"/>
	<path clip-path="url(#SVGID_2_)" fill="#A44850" d="M101.592,95.438c-2.912,0.908-5.732,1.113-7.695,1.113
		c-1.043,0-1.844-0.059-2.287-0.1c0.443,0.041,1.246,0.1,2.295,0.1c1.963,0,4.781-0.205,7.689-1.109
		C101.592,95.442,101.592,95.44,101.592,95.438"/>
	<path clip-path="url(#SVGID_2_)" fill="#A0C101" d="M111.111,88.334c-2.422,3.938-6.035,6.023-9.519,7.107
		c-2.908,0.904-5.726,1.111-7.688,1.111c-1.047,0-1.852-0.061-2.295-0.102c-0.221-0.021-0.351-0.037-0.379-0.041
		c-0.004-0.002-0.006-0.002-0.006-0.002l10.217,23.156c0,0,15-3.326,22.379-15.662c0.02-0.029,0.037-0.063,0.057-0.092
		c0.01-0.018,0.02-0.033,0.029-0.049c0.011-0.018,0.021-0.035,0.031-0.053c0.006-0.012,0.014-0.023,0.021-0.035
		c0.612-1.041,1.159-2.088,1.657-3.133l0.002,0.006c-0.692-1.838-1.895-4.215-3.991-6.762
		C118.705,90.239,114.08,88.866,111.111,88.334"/>
	<path clip-path="url(#SVGID_2_)" fill="#009991" d="M116.489,82.568c-0.943,0-1.79,0.102-2.509,0.239
		c-0.012,0.02-0.022,0.037-0.033,0.057c-0.131,0.226-0.25,0.459-0.378,0.688c-0.142,0.253-0.284,0.505-0.421,0.761
		c-0.346,0.658-0.678,1.326-0.983,2.014c-0.015,0.037-0.03,0.072-0.047,0.105c-0.017,0.035-0.031,0.07-0.047,0.105
		c-0.001,0.002-0.002,0.002-0.002,0.004c-0.013,0.023-0.024,0.051-0.036,0.078c-0.079,0.17-0.161,0.336-0.244,0.502
		c-0.043,0.084-0.086,0.168-0.129,0.25c-0.094,0.176-0.189,0.346-0.286,0.516c-0.088,0.15-0.176,0.299-0.265,0.445
		c0,0,0.002,0,0.003,0.002c2.967,0.531,7.594,1.906,10.514,5.451c2.097,2.547,3.298,4.924,3.992,6.762
		c0.069-0.146,0.133-0.293,0.2-0.439c0.123-0.266,0.248-0.529,0.363-0.797c0.082-0.182,0.158-0.367,0.236-0.551
		c0.118-0.279,0.24-0.557,0.354-0.836c0.058-0.143,0.111-0.285,0.166-0.428c0.259-0.652,0.5-1.307,0.729-1.953l0.104-0.291
		c0.093-0.26,0.176-0.52,0.262-0.779c0.066-0.203,0.138-0.406,0.201-0.609c0.078-0.24,0.15-0.477,0.226-0.715
		c0.067-0.221,0.138-0.441,0.204-0.664c0.07-0.227,0.135-0.453,0.202-0.68c0.067-0.232,0.136-0.465,0.2-0.695
		c0.063-0.219,0.127-0.436,0.187-0.654l0.103-0.357h-0.002c-0.826-1.273-1.981-2.645-3.601-3.982
		C122.375,83.323,119.072,82.568,116.489,82.568"/>
	<path clip-path="url(#SVGID_2_)" fill="#009991" d="M126.63,69.831L126.63,69.831c-0.134,0.086-0.267,0.184-0.399,0.271
		c-0.354,0.231-0.707,0.473-1.059,0.72c-0.264,0.184-0.525,0.369-0.784,0.563c-0.374,0.274-0.746,0.563-1.114,0.854
		c-0.23,0.184-0.461,0.366-0.69,0.555c-0.402,0.333-0.796,0.683-1.19,1.036c-0.191,0.172-0.385,0.339-0.574,0.516
		c-0.426,0.397-0.84,0.813-1.254,1.232l-0.359,0.355h0.002c0.775-0.177,1.709-0.313,2.744-0.313c2.162,0,4.773,0.589,7.361,2.623
		c1.154,0.904,2.014,1.844,2.655,2.748c0.19-0.546,0.388-1.081,0.599-1.604c0.612-1.536,1.323-2.968,2.198-4.272
		c-0.489-0.835-1.174-1.743-2.151-2.646c-2.127-1.966-4.274-2.561-5.957-2.638l-0.002,0.002L126.63,69.831z"/>
	<path clip-path="url(#SVGID_2_)" fill="#009991" d="M141.754,64.957h-0.018c-1.098,0.001-2.313,0.084-3.619,0.275
		c-0.067,0.011-0.135,0.02-0.202,0.03c-0.465,0.071-0.946,0.169-1.431,0.279l-0.262,0.058c-0.436,0.105-0.881,0.231-1.33,0.365
		c-0.148,0.045-0.295,0.089-0.443,0.137l-0.158,0.048c1.291,0.549,2.678,1.511,3.932,3.168c0.375,0.49,0.682,0.972,0.942,1.438
		c0.04-0.026,0.08-0.051,0.12-0.078c0.004-0.001,0.008-0.004,0.012-0.006c0.02-0.012,0.038-0.024,0.057-0.037
		c0.008-0.004,0.016-0.009,0.023-0.013c0.02-0.012,0.038-0.024,0.057-0.036c0.023-0.014,0.045-0.028,0.068-0.042
		c0.004-0.003,0.008-0.005,0.014-0.008c0.023-0.014,0.047-0.028,0.069-0.043c0.005-0.003,0.009-0.005,0.015-0.008
		c0.024-0.016,0.051-0.031,0.077-0.047c0,0,0.001,0,0.003-0.003c1.629-0.966,3.577-1.732,5.937-2.265h0.001
		c0.039-0.009,0.078-0.017,0.119-0.026c0.002-0.002,0.007-0.002,0.011-0.003c0.041-0.01,0.082-0.018,0.124-0.026
		c0.016-0.003,0.031-0.007,0.048-0.01c0.086-0.021,0.168-0.038,0.248-0.06c0.033-0.007,0.065-0.016,0.097-0.024
		c1.137-0.3,1.656-0.719,1.661-1.148c0.011-0.927-2.366-1.912-6.149-1.916H141.754"/>
	<path clip-path="url(#SVGID_2_)" fill="#ABCD03" d="M82.074,120.727c0,0,7.555,6.055,20.252,7.174
		c10.403,0.918,23.449-1.371,29.182-3.941c11.64-5.219,7.591-22.918,3.188-27.572c-5.003-5.285-12.886-1.627-14.453,3.809
		c0,0-5.712-0.357-13.873-2.006"/>
	<path clip-path="url(#SVGID_2_)" fill="#53B332" d="M131.509,123.959c0.919-0.486,1.813-1.014,2.594-1.689
		c0.78-0.668,1.507-1.406,2.075-2.26c1.171-1.682,1.896-3.635,2.268-5.639c0.367-2.008,0.397-4.072,0.184-6.105
		c-0.211-2.033-0.626-4.049-1.278-5.984c-0.663-1.914-1.508-3.83-2.782-5.33c-1.309-1.475-3.095-2.523-5.043-2.779
		c-1.943-0.268-3.984,0.232-5.617,1.346c-1.629,1.113-2.873,2.805-3.346,4.75l-0.072,0.299l-0.291-0.045
		c-3.791-0.604-7.578-1.248-11.352-1.947c3.822,0.379,7.633,0.818,11.436,1.295l-0.361,0.256c0.429-2.119,1.709-4.07,3.509-5.303
		c1.783-1.248,4.031-1.836,6.212-1.564c2.189,0.242,4.229,1.426,5.629,3.084c1.402,1.691,2.229,3.672,2.903,5.668
		c1.289,4.006,1.721,8.336,0.853,12.479c-0.207,1.035-0.549,2.043-0.957,3.014c-0.404,0.977-0.978,1.879-1.609,2.717
		c-0.631,0.846-1.411,1.564-2.237,2.205C133.4,123.077,132.449,123.534,131.509,123.959"/>
	<path clip-path="url(#SVGID_2_)" fill="#FFF9B1" d="M129.527,108.977c0.457,5.195,2.563,9.295,5.018,9.123
		c2.453-0.174,3.814-4.496,3.355-9.691c-0.457-5.195-2.384-9.363-5.019-9.123C129.703,99.575,129.068,103.782,129.527,108.977"/>
	<path clip-path="url(#SVGID_2_)" fill="#00A29A" d="M46.557,14.422c0,0,1.638-13.582,5.829-13.523
		c1.972,0.028,3.392,1.01,3.481,2.475c0.073,1.203,0.095,2.611-2.287,4.45l-2.148,8.461"/>
	<path clip-path="url(#SVGID_2_)" fill="#00A29A" d="M31.57,17.553c-0.915-2.971-3.513-11.043-2.635-14.339
		c1.324-4.967,6.648-3.317,7.313-0.778c0.794,3.024-1.778,4.264-1.778,4.264s0.829,4.813,1.557,7.662
		C36.5,16.205,32.336,20.04,31.57,17.553"/>
	<path clip-path="url(#SVGID_2_)" fill="#ABCD03" d="M30.576,6.563c0,0,0.125,0.044,0.336,0.121c0.213,0.067,0.533,0.14,0.931,0.153
		c0.394,0.03,0.87,0.001,1.376-0.075c0.256-0.04,0.511-0.105,0.76-0.191l0.335-0.164l0.339-0.268
		c0.964-0.672,1.486-1.628,1.596-2.408c0.128-0.778-0.001-1.295-0.001-1.295s0.293,0.447,0.33,1.314
		c0.073,0.853-0.415,2.147-1.525,2.913l-0.392,0.297c-0.153,0.081-0.324,0.155-0.48,0.21c-0.315,0.089-0.617,0.133-0.903,0.145
		c-0.57,0.021-1.077-0.036-1.488-0.153c-0.412-0.099-0.728-0.258-0.922-0.384C30.685,6.644,30.576,6.563,30.576,6.563"/>
	<path clip-path="url(#SVGID_2_)" fill="#ABCD03" d="M78.564,42.207c0,0,4.025,4.623,10.301,8.567
		c6.274,3.944,23.24,12.185,23.17,23.633c-0.071,11.449-15.125,9.728-27.108,4.416"/>
	<path clip-path="url(#SVGID_2_)" fill="#ABCD03" d="M72.941,136.954c14.845-1.008,29.795-10.127,33.988-16.768
		c19.604-31.047-12.173-52.582-19.226-62.333C74.057,38.983,74.409,6.906,38.47,13.017C12.797,17.383,11.7,52.463,14.334,71.552
		c1.503,10.881,4.082,21.796,7.67,32.226C28.235,121.893,43.182,138.975,72.941,136.954"/>
	<path clip-path="url(#SVGID_2_)" fill="#ABCD03" d="M82.806,50.291c0,0,7.44,11.684,12.29,14.666"/>
	<path clip-path="url(#SVGID_2_)" fill="#53B332" d="M82.806,50.291c0,0,0.728,0.959,1.817,2.397
		c0.543,0.718,1.177,1.556,1.854,2.454c0.661,0.91,1.406,1.85,2.156,2.782c0.706,0.969,1.5,1.862,2.212,2.73
		c0.701,0.878,1.449,1.603,2.045,2.276c0.592,0.682,1.208,1.102,1.587,1.47c0.394,0.354,0.618,0.556,0.618,0.556
		s-0.251-0.166-0.689-0.456c-0.218-0.15-0.483-0.331-0.789-0.539c-0.313-0.202-0.656-0.444-0.97-0.771
		c-0.637-0.642-1.487-1.302-2.211-2.174c-0.739-0.857-1.567-1.742-2.298-2.702c-1.484-1.904-2.855-3.89-3.809-5.426
		C83.367,51.358,82.806,50.291,82.806,50.291"/>
	<path clip-path="url(#SVGID_2_)" fill="#53B332" d="M112.497,107.067c0,0,0.151-0.889,0.364-2.449
		c0.045-0.787,0.197-1.729,0.18-2.828c0.041-1.092-0.018-2.322-0.107-3.662c-0.125-1.336-0.321-2.777-0.662-4.275
		c-0.338-1.498-0.789-3.055-1.365-4.629c-0.563-1.576-1.264-3.162-2.07-4.729c-0.785-1.576-1.727-3.099-2.688-4.609
		c-1.944-3.006-4.152-5.844-6.36-8.386c-2.2-2.552-4.345-4.857-6.198-6.823c-1.859-1.961-3.361-3.647-4.373-4.859
		c-1.011-1.213-1.514-1.964-1.514-1.964s0.54,0.724,1.607,1.881c1.059,1.168,2.677,2.733,4.582,4.649
		c1.896,1.924,4.15,4.14,6.383,6.689c2.246,2.537,4.504,5.378,6.5,8.407c0.957,1.539,1.898,3.092,2.681,4.702
		c0.806,1.594,1.501,3.215,2.06,4.824c0.584,1.6,0.984,3.205,1.287,4.734c0.303,1.531,0.461,3,0.549,4.357
		c0.063,1.357,0.057,2.605-0.043,3.705c-0.039,1.104-0.239,2.053-0.324,2.836C112.694,106.188,112.497,107.067,112.497,107.067"/>
	<path clip-path="url(#SVGID_2_)" fill="#003F85" d="M44.967,24.552c0,0-2.336,7.603,1,8.139c3.335,0.537,4.636-5.996,4.636-5.996"
		/>
	<path clip-path="url(#SVGID_2_)" fill="#ABCD03" d="M52.01,24.997c0,0-0.544,2.073-3.309,2.237
		c-3.408,0.203-3.734-2.684-3.734-2.684"/>
	<path clip-path="url(#SVGID_2_)" fill="#003F85" d="M48.365,27.424c-3.215,0-3.573-2.823-3.576-2.852l0.158-0.198l0.198,0.157
		c0.013,0.111,0.358,2.716,3.545,2.524c2.605-0.154,3.142-2.083,3.147-2.103l0.218-0.128l0.128,0.22
		c-0.006,0.021-0.611,2.199-3.472,2.368L48.365,27.424z"/>
	<path clip-path="url(#SVGID_2_)" fill="#53B332" d="M76.616,135.819c0,0,2.147-0.301,5.338-1.164
		c1.587-0.436,3.433-0.984,5.362-1.711c0.978-0.328,1.945-0.775,2.953-1.174c0.983-0.449,1.987-0.902,2.969-1.398
		c0.957-0.539,1.966-0.998,2.869-1.598c0.916-0.578,1.848-1.107,2.664-1.74c0.834-0.609,1.664-1.174,2.361-1.816
		c0.704-0.631,1.439-1.162,1.988-1.785c0.577-0.596,1.107-1.141,1.576-1.623c0.439-0.51,0.787-0.984,1.092-1.361
		c0.602-0.762,0.945-1.195,0.945-1.195s-0.326,0.447-0.896,1.232c-0.289,0.389-0.62,0.881-1.04,1.41
		c-0.452,0.504-0.962,1.074-1.519,1.693c-0.528,0.65-1.242,1.211-1.928,1.879c-0.681,0.678-1.492,1.279-2.311,1.93
		c-0.801,0.676-1.718,1.248-2.623,1.871c-0.895,0.643-1.891,1.148-2.841,1.734c-0.974,0.545-1.974,1.043-2.954,1.541
		c-1.005,0.443-1.973,0.938-2.95,1.313c-1.93,0.814-3.782,1.449-5.382,1.959c-3.193,1.008-5.434,1.416-5.434,1.416L76.616,135.819z"
		/>
	<path clip-path="url(#SVGID_2_)" fill="#00AFCC" d="M49.032,21.144c0.071,0.473,0.497,0.808,0.951,0.749
		c0.455-0.059,0.766-0.491,0.695-0.964c-0.072-0.473-0.498-0.808-0.952-0.748C49.27,20.239,48.959,20.671,49.032,21.144"/>
	<path clip-path="url(#SVGID_2_)" fill="#53B332" d="M120.592,100.155c0,0-0.344,1.092-0.602,2.205
		c-0.141,0.557-0.26,1.115-0.309,1.541c-0.063,0.43-0.106,0.713-0.106,0.713s-0.002-0.287-0.005-0.719
		c-0.019-0.438,0.012-1.014,0.066-1.592c0.084-1.158,0.256-2.305,0.256-2.305L120.592,100.155z"/>
	<path clip-path="url(#SVGID_2_)" fill="#003F85" d="M54.271,21.405c-0.274,0-0.524-0.09-0.733-0.265
		c-0.696-0.581-0.717-1.933-0.717-2.085c-0.001-0.197,0.159-0.357,0.357-0.357h0.001c0.197,0,0.357,0.159,0.358,0.356
		c0.001,0.301,0.087,1.226,0.461,1.538c0.106,0.088,0.225,0.111,0.386,0.086c0.153-0.027,0.253-0.093,0.322-0.209
		c0.237-0.404,0.032-1.255-0.059-1.521c-0.063-0.187,0.036-0.391,0.223-0.454c0.187-0.065,0.391,0.035,0.454,0.224
		c0.047,0.135,0.445,1.354,0,2.112c-0.175,0.297-0.456,0.488-0.813,0.553L54.271,21.405z"/>
	<path clip-path="url(#SVGID_2_)" fill="#003F85" d="M43.233,22.563c-0.274,0-0.524-0.09-0.732-0.264
		c-0.697-0.582-0.718-1.933-0.718-2.086c-0.001-0.197,0.159-0.356,0.357-0.356h0.001c0.197,0,0.357,0.158,0.358,0.355
		c0.001,0.301,0.088,1.226,0.461,1.538c0.105,0.088,0.224,0.114,0.385,0.087c0.155-0.028,0.254-0.093,0.323-0.21
		c0.238-0.405,0.032-1.255-0.059-1.521c-0.064-0.188,0.035-0.391,0.222-0.454c0.186-0.068,0.39,0.034,0.455,0.223
		c0.047,0.136,0.445,1.356-0.001,2.115c-0.174,0.295-0.456,0.485-0.814,0.551L43.233,22.563z"/>
	<path clip-path="url(#SVGID_2_)" fill="#003F85" d="M60.802,69.145c0,0,1.872-1.853,3.817-2.715c1.945-0.861,1.612-3.1-0.49-3.169
		c-2.103-0.066-4.47,2.071-4.47,2.071s-0.78,0.691-0.964,1.2C58.152,68.037,59.448,69.725,60.802,69.145"/>
	<path clip-path="url(#SVGID_2_)" fill="#003F85" d="M62.932,70.835c0,0,2.209-1.438,4.294-1.896
		c2.084-0.459,2.199-2.71,0.143-3.191c-2.057-0.479-4.809,1.141-4.809,1.141s-0.904,0.521-1.186,0.981
		C60.543,69.231,61.486,71.135,62.932,70.835"/>
	<path clip-path="url(#SVGID_2_)" fill="#003F85" d="M64.651,74.04c0,0,2.208-1.438,4.293-1.897c2.085-0.458,2.199-2.71,0.143-3.191
		c-2.057-0.48-4.809,1.141-4.809,1.141s-0.904,0.521-1.185,0.981C62.261,72.435,63.206,74.339,64.651,74.04"/>
	<path clip-path="url(#SVGID_2_)" fill="#003F85" d="M65.401,77.722c0,0,2.249-1.376,4.348-1.776
		c2.098-0.399,2.275-2.646,0.232-3.183c-2.044-0.537-4.841,1.003-4.841,1.003s-0.92,0.495-1.213,0.946
		C63.056,76.051,63.946,77.979,65.401,77.722"/>
</g>
<polygon fill="#53B332" points="35.269,79.814 31.146,68.224 35.936,79.556 "/>
<g>
	<defs>
		<rect id="SVGID_3_" width="147.925" height="167.7"/>
	</defs>
	<clipPath id="SVGID_4_">
		<use xlink:href="#SVGID_3_"  overflow="visible"/>
	</clipPath>
	<path clip-path="url(#SVGID_4_)" fill="#ABCD03" d="M18.485,71.474c-0.732,6.687-2.067,24.582,9.214,30.552
		c9.933,5.26,20.609-7.266,25.382-10.949c6.163-4.752,18.149-11.294,13.384-20.578C56.682,51.433,35,72.88,32.72,81.656"/>
	<path clip-path="url(#SVGID_4_)" fill="#53B332" d="M18.485,71.473c0,0-0.044,0.528-0.125,1.517
		c-0.073,0.99-0.165,2.441-0.196,4.29c-0.024,1.849,0.009,4.097,0.279,6.651c0.278,2.547,0.774,5.418,1.84,8.363
		c1.059,2.928,2.853,5.943,5.683,8.07c1.409,1.037,3.063,1.891,4.84,2.215c1.785,0.336,3.689,0.182,5.52-0.379
		c3.689-1.123,7.046-3.539,10.191-6.186c1.582-1.334,3.109-2.758,4.697-4.168c1.602-1.439,3.378-2.648,5.079-3.889
		c3.4-2.453,6.873-4.969,9.1-8.332c1.089-1.667,1.739-3.589,1.575-5.495c-0.125-1.901-1.056-3.692-2.098-5.302
		c-1.05-1.612-2.348-3.023-3.885-4.004c-1.533-0.991-3.302-1.496-5.051-1.541c-3.534-0.089-6.776,1.341-9.444,2.928
		c-2.683,1.632-4.92,3.495-6.756,5.285c-1.83,1.8-3.266,3.532-4.331,5.038c-1.067,1.507-1.764,2.79-2.16,3.696
		c-0.403,0.905-0.523,1.426-0.523,1.426s0.102-0.522,0.474-1.446c0.366-0.923,1.021-2.235,2.043-3.788
		c1.019-1.554,2.404-3.348,4.19-5.229c1.795-1.867,3.978-3.858,6.704-5.566c2.703-1.672,6.009-3.243,9.823-3.229
		c1.886,0.011,3.853,0.527,5.556,1.581c1.711,1.042,3.142,2.552,4.255,4.257c0.288,0.416,0.554,0.88,0.805,1.314
		c0.239,0.42,0.484,0.896,0.7,1.386c0.421,0.969,0.72,2.018,0.81,3.105c0.205,2.192-0.541,4.398-1.71,6.208
		c-2.396,3.652-5.947,6.22-9.346,8.72c-1.717,1.252-3.468,2.41-5.01,3.787c-1.574,1.379-3.129,2.811-4.743,4.152
		c-3.219,2.666-6.68,5.154-10.636,6.336c-1.962,0.586-4.06,0.76-6.03,0.359c-1.984-0.406-3.714-1.359-5.205-2.498
		c-2.974-2.338-4.768-5.543-5.794-8.572c-1.049-3.049-1.455-5.982-1.627-8.564c-0.178-2.588-0.126-4.847-0.032-6.698
		c0.1-1.854,0.247-3.303,0.356-4.289C18.422,71.998,18.485,71.473,18.485,71.473"/>
	<path clip-path="url(#SVGID_4_)" fill="#ABCD03" d="M55.267,121.204c0,0,3.318-12.844,16.061-10.65
		c15.016,2.584,10.51,24.049,10.51,24.049s-0.771,10.912-15.369,11.709c-10.51,0.572-25.263-6.219-31.023-23.203"/>
	<path clip-path="url(#SVGID_4_)" fill="#ABCD03" d="M55.267,121.204c0,0,3.318-12.844,16.061-10.65
		c15.016,2.584,10.51,24.049,10.51,24.049s-0.771,10.912-15.369,11.709c-10.51,0.572-25.263-6.219-31.023-23.203"/>
	<path clip-path="url(#SVGID_4_)" fill="#53B332" d="M55.267,121.204c0.266-1.023,0.657-2.014,1.098-2.977
		c0.476-0.945,0.988-1.887,1.636-2.734c0.616-0.869,1.343-1.666,2.146-2.375c0.801-0.709,1.692-1.334,2.661-1.811
		c0.464-0.285,0.983-0.445,1.491-0.633l0.767-0.268l0.797-0.156c1.058-0.273,2.146-0.248,3.227-0.303
		c1.047,0.123,2.198,0.137,3.209,0.402c1.041,0.213,2.116,0.602,3.088,1.072c1.965,0.982,3.645,2.531,4.809,4.395
		c1.172,1.859,1.881,3.959,2.3,6.072c0.43,2.121,0.569,4.279,0.545,6.422c-0.035,2.152-0.218,4.27-0.613,6.412l0.011-0.078
		c-0.156,1.438-0.593,2.703-1.177,3.949c-0.575,1.242-1.391,2.365-2.332,3.352l-0.727,0.723c-0.259,0.223-0.533,0.426-0.799,0.637
		c-0.518,0.451-1.119,0.773-1.696,1.131c-1.18,0.67-2.441,1.174-3.732,1.549c-0.633,0.238-1.303,0.301-1.955,0.455
		c-0.653,0.156-1.315,0.234-1.979,0.285c-0.671,0.049-1.308,0.17-2.005,0.154c-0.658-0.01-1.293,0.039-1.968-0.02
		c-0.669-0.061-1.348-0.086-2.009-0.176l-1.969-0.316c-1.293-0.301-2.587-0.605-3.832-1.066c-0.637-0.188-1.24-0.467-1.851-0.721
		c-0.613-0.252-1.222-0.508-1.803-0.828c-1.196-0.57-2.32-1.266-3.438-1.971c-1.071-0.77-2.181-1.496-3.153-2.389
		c-1.027-0.832-1.946-1.777-2.861-2.725c-0.475-0.457-0.857-0.998-1.284-1.496c-0.411-0.514-0.852-1.004-1.205-1.561l-1.113-1.623
		c-0.37-0.541-0.661-1.133-0.995-1.697c-0.689-1.117-1.196-2.328-1.749-3.512c-0.538-1.193-0.903-2.453-1.361-3.672
		c0.523,1.195,0.957,2.428,1.549,3.586c0.596,1.154,1.146,2.336,1.873,3.414c0.352,0.545,0.662,1.115,1.048,1.637l1.162,1.557
		c0.367,0.533,0.822,0.998,1.245,1.484c0.443,0.473,0.828,0.996,1.305,1.432c0.92,0.906,1.842,1.809,2.865,2.596
		c0.969,0.852,2.072,1.533,3.132,2.258c1.106,0.66,2.215,1.309,3.389,1.834c0.571,0.297,1.168,0.533,1.768,0.762
		c0.599,0.23,1.188,0.488,1.808,0.654c0.616,0.176,1.218,0.4,1.841,0.549l1.869,0.438l1.895,0.287
		c0.631,0.08,1.259,0.098,1.887,0.152c0.625,0.055,1.296-0.002,1.942,0.004c0.609,0.012,1.262-0.113,1.891-0.162
		c0.636-0.055,1.268-0.135,1.884-0.289c0.614-0.15,1.257-0.213,1.846-0.443c1.211-0.361,2.38-0.842,3.461-1.467
		c0.527-0.336,1.081-0.633,1.547-1.047c0.239-0.197,0.489-0.385,0.724-0.588l0.654-0.662c0.841-0.906,1.586-1.916,2.119-3.037
		c0.537-1.102,0.953-2.34,1.087-3.496l0.007-0.057l0.004-0.025c0.389-2.01,0.59-4.111,0.639-6.186
		c0.041-2.078-0.078-4.162-0.473-6.189c-0.379-2.025-1.051-3.996-2.103-5.736c-1.036-1.748-2.533-3.197-4.33-4.154
		c-0.919-0.465-1.833-0.832-2.857-1.068c-0.531-0.133-1.007-0.24-1.523-0.277l-1.539-0.184c-1.026,0.029-2.067-0.023-3.074,0.215
		l-0.762,0.129l-0.734,0.232c-0.49,0.158-0.992,0.289-1.444,0.543c-0.942,0.42-1.822,0.984-2.625,1.643
		c-0.805,0.654-1.545,1.4-2.182,2.23c-0.672,0.807-1.204,1.715-1.726,2.629C56.028,119.233,55.587,120.194,55.267,121.204"/>
	<path clip-path="url(#SVGID_4_)" fill="#FFF9B1" d="M61.535,128.627c-0.512,6.41,2.678,11.977,7.787,12.482
		c5.11,0.504,9.129-4.32,9.641-10.732c0.513-6.41-2.29-12.004-7.787-12.482C64.537,117.319,62.047,122.217,61.535,128.627"/>
	<path clip-path="url(#SVGID_4_)" fill="#A0383D" d="M4.016,58.485c0.293-0.069,1.164-0.107,1.558,0.047l11.339,39.193
		c-0.549-0.07-1.225-0.123-1.507-0.049c-0.968,0.25-1.544,0.637-1.872,1.225L2.133,59.617C2.5,59.101,2.954,58.738,4.016,58.485"/>
	<path clip-path="url(#SVGID_4_)" fill="#ABCD03" d="M112.024,74.817c-1.091,13.515-23.362,7.187-29.174,0.618
		c-5.813-6.567-3.948-16.727,2.637-16.759c6.586-0.034,11.706,4.25,11.706,4.25"/>
	<path clip-path="url(#SVGID_4_)" fill="#53B332" d="M112.024,74.817c0,0-0.021,0.269-0.06,0.771
		c-0.056,0.502-0.16,1.248-0.489,2.146c-0.335,0.887-0.903,1.947-1.9,2.868c-0.987,0.925-2.368,1.681-3.973,2.099
		c-3.224,0.842-7.16,0.574-11.122-0.431c-1.98-0.525-3.98-1.249-5.928-2.178c-1.94-0.938-3.857-2.057-5.514-3.596
		c-1.617-1.548-2.857-3.545-3.531-5.639c-0.689-2.1-0.897-4.33-0.521-6.425c0.367-2.074,1.396-4.093,3.117-5.201
		c0.845-0.552,1.804-0.86,2.731-0.938l0.705-0.02l0.633,0.035c0.416,0.011,0.838,0.063,1.254,0.123
		c3.303,0.451,5.752,1.785,7.367,2.742c1.615,0.996,2.398,1.75,2.398,1.75s-0.859-0.662-2.523-1.53
		c-1.648-0.862-4.176-1.911-7.313-2.24c-0.386-0.039-0.782-0.074-1.209-0.068l-0.636-0.008l-0.588,0.044
		c-0.803,0.105-1.592,0.405-2.278,0.896c-1.372,0.999-2.254,2.726-2.563,4.605c-0.311,1.89-0.094,3.935,0.567,5.847
		c0.683,1.92,1.767,3.688,3.224,5.155c1.486,1.418,3.316,2.528,5.174,3.451c1.865,0.918,3.799,1.64,5.711,2.176
		c3.804,1.113,7.604,1.498,10.688,0.807c1.53-0.348,2.872-0.948,3.85-1.773c0.992-0.813,1.597-1.794,1.974-2.637
		c0.37-0.854,0.546-1.576,0.635-2.069C111.982,75.083,112.024,74.817,112.024,74.817"/>
	<path clip-path="url(#SVGID_4_)" fill="#003F85" d="M81.033,61.707c-0.918,0.088-2.058,0.326-2.817,0.955
		c-1.461,1.205-0.466,2.983,1.396,2.526c0.743-0.183,1.508-0.186,2.269-0.208c1.089-0.032,1.196-1.015,1.011-1.874
		C82.686,62.147,82.056,61.61,81.033,61.707"/>
	<path clip-path="url(#SVGID_4_)" fill="#007AC3" d="M81.018,61.693c0,0-0.117,0.021-0.324,0.062c-0.207,0.028-0.502,0.1-0.84,0.197
		c-0.173,0.037-0.355,0.091-0.539,0.177c-0.18,0.087-0.395,0.132-0.57,0.258c-0.17,0.118-0.398,0.223-0.537,0.358
		c-0.135,0.178-0.381,0.333-0.43,0.532l-0.14,0.28l-0.036,0.313l0.037,0.304l0.109,0.281c0.119,0.164,0.23,0.325,0.41,0.408
		c0.147,0.131,0.332,0.162,0.498,0.204c0.33,0.107,0.633,0.023,0.84,0.049c0.209-0.023,0.328-0.036,0.328-0.036
		s-0.115,0.029-0.317,0.084c-0.206,0.002-0.511,0.153-0.88,0.066c-0.186-0.03-0.393-0.051-0.578-0.183
		c-0.212-0.083-0.373-0.256-0.52-0.46l-0.146-0.342c-0.043-0.122-0.083-0.247-0.058-0.378c0.013-0.13,0.015-0.264,0.039-0.393
		l0.17-0.366c0.11-0.265,0.322-0.365,0.475-0.554c0.202-0.188,0.417-0.265,0.617-0.396c0.193-0.136,0.424-0.158,0.619-0.235
		c0.197-0.072,0.392-0.111,0.574-0.135C80.537,61.658,81.018,61.718,81.018,61.693"/>
	<path clip-path="url(#SVGID_4_)" fill="#003F85" d="M81.51,64.332c-0.923-0.007-2.081,0.115-2.9,0.665
		c-1.576,1.052-0.765,2.92,1.133,2.654c0.758-0.106,1.518-0.032,2.277,0.023c1.086,0.078,1.293-0.89,1.196-1.764
		C83.109,64.937,82.536,64.34,81.51,64.332"/>
	<path clip-path="url(#SVGID_4_)" fill="#007AC3" d="M81.51,64.332c0,0-0.119,0.013-0.328,0.035
		c-0.21,0.013-0.507,0.063-0.852,0.133c-0.176,0.022-0.362,0.063-0.551,0.135c-0.187,0.074-0.404,0.101-0.59,0.214
		c-0.179,0.104-0.414,0.189-0.562,0.314c-0.149,0.167-0.406,0.303-0.472,0.498l-0.159,0.269l-0.062,0.31l0.014,0.305l0.087,0.288
		c0.106,0.173,0.206,0.342,0.378,0.44c0.137,0.14,0.318,0.188,0.48,0.242c0.319,0.133,0.629,0.073,0.834,0.112
		c0.209-0.008,0.33-0.011,0.33-0.011s-0.117,0.022-0.324,0.06c-0.205-0.015-0.521,0.116-0.883-0.001
		c-0.183-0.044-0.387-0.082-0.561-0.228c-0.206-0.099-0.354-0.284-0.482-0.499l-0.119-0.352c-0.033-0.126-0.063-0.253-0.027-0.382
		c0.021-0.127,0.035-0.261,0.068-0.387l0.199-0.352c0.129-0.256,0.348-0.341,0.514-0.516c0.218-0.172,0.438-0.232,0.646-0.348
		c0.204-0.12,0.436-0.125,0.637-0.187c0.202-0.057,0.398-0.081,0.582-0.092C81.035,64.259,81.509,64.355,81.51,64.332"/>
	<path clip-path="url(#SVGID_4_)" fill="#003F85" d="M82.174,67.041c-0.924-0.007-2.082,0.117-2.902,0.665
		c-1.574,1.051-0.764,2.92,1.133,2.654c0.759-0.106,1.52-0.032,2.277,0.022c1.086,0.079,1.293-0.889,1.197-1.762
		C83.771,67.646,83.199,67.047,82.174,67.041"/>
	<path clip-path="url(#SVGID_4_)" fill="#007AC3" d="M82.299,67.042c0,0-0.119,0.014-0.328,0.035
		c-0.209,0.012-0.508,0.062-0.853,0.132c-0.175,0.024-0.36,0.064-0.55,0.135c-0.186,0.074-0.405,0.102-0.589,0.214
		c-0.181,0.105-0.415,0.191-0.562,0.316c-0.15,0.166-0.408,0.301-0.473,0.498l-0.16,0.267l-0.061,0.311l0.014,0.305l0.087,0.288
		c0.106,0.172,0.206,0.343,0.378,0.441c0.137,0.14,0.318,0.186,0.48,0.241c0.32,0.133,0.629,0.072,0.834,0.111
		c0.21-0.007,0.33-0.009,0.33-0.009s-0.118,0.021-0.324,0.059c-0.205-0.015-0.521,0.115-0.883-0.002
		c-0.182-0.044-0.387-0.08-0.562-0.227c-0.204-0.1-0.352-0.284-0.481-0.498l-0.119-0.354c-0.033-0.126-0.064-0.252-0.027-0.381
		c0.021-0.128,0.034-0.261,0.066-0.387l0.201-0.353c0.129-0.256,0.348-0.341,0.515-0.517c0.217-0.169,0.437-0.23,0.646-0.346
		c0.203-0.12,0.436-0.125,0.637-0.186c0.201-0.058,0.398-0.082,0.58-0.093C81.823,66.97,82.297,67.066,82.299,67.042"/>
	<path clip-path="url(#SVGID_4_)" fill="#003F85" d="M82.546,69.299c-0.909,0.16-2.025,0.492-2.733,1.18
		c-1.357,1.319-0.222,3.009,1.594,2.405c0.729-0.242,1.489-0.307,2.246-0.391c1.082-0.12,1.109-1.106,0.857-1.949
		C84.227,69.604,83.557,69.119,82.546,69.299"/>
	<path clip-path="url(#SVGID_4_)" fill="#007AC3" d="M82.95,69.666c0,0-0.119,0.012-0.328,0.035
		c-0.21,0.012-0.507,0.062-0.853,0.132c-0.174,0.023-0.361,0.062-0.551,0.134c-0.186,0.074-0.404,0.101-0.589,0.215
		c-0.18,0.104-0.414,0.19-0.562,0.314c-0.149,0.166-0.407,0.302-0.471,0.499l-0.162,0.268l-0.06,0.311l0.013,0.304l0.088,0.289
		c0.105,0.172,0.205,0.341,0.377,0.44c0.138,0.14,0.318,0.187,0.481,0.24c0.319,0.135,0.628,0.074,0.833,0.113
		c0.21-0.007,0.33-0.01,0.33-0.01s-0.117,0.021-0.323,0.059c-0.204-0.014-0.521,0.116-0.882-0.002
		c-0.184-0.043-0.389-0.081-0.563-0.226c-0.205-0.1-0.353-0.284-0.481-0.499l-0.12-0.353c-0.031-0.126-0.063-0.253-0.027-0.382
		c0.022-0.127,0.035-0.26,0.068-0.386l0.2-0.354c0.129-0.255,0.347-0.34,0.514-0.516c0.218-0.17,0.437-0.232,0.646-0.346
		c0.205-0.12,0.436-0.125,0.636-0.188c0.203-0.056,0.399-0.081,0.583-0.092C82.475,69.592,82.949,69.689,82.95,69.666"/>
</g>
</svg>
