<?xml version="1.0" encoding="utf-8"?>
<!-- Generator: Adobe Illustrator 16.0.0, SVG Export Plug-In . SVG Version: 6.00 Build 0)  -->
<!DOCTYPE svg PUBLIC "-//W3C//DTD SVG 1.1//EN" "http://www.w3.org/Graphics/SVG/1.1/DTD/svg11.dtd">
<svg version="1.1" id="레이어_1" xmlns="http://www.w3.org/2000/svg" xmlns:xlink="http://www.w3.org/1999/xlink" x="0px"
	 y="0px" width="548.99px" height="154.791px" viewBox="0 0 548.99 154.791" enable-background="new 0 0 548.99 154.791"
	 xml:space="preserve">
<g>
	<rect x="83.397" y="120.236" fill="#7D6448" width="465.343" height="34.554"/>
	<polygon fill="#727072" points="289.909,71.337 218.376,71.982 227.176,46.113 280.102,46.059 	"/>
	<g>
		<line fill="none" stroke="#231815" stroke-width="0.878" x1="548.74" y1="120.238" x2="490.839" y2="120.238"/>
		<path fill="#409FBD" d="M149.065,120.53c0-2.746,2.328-4.974,5.201-4.974c2.872,0,5.2,2.228,5.2,4.974
			c0,2.747-2.328,4.975-5.2,4.975C151.393,125.505,149.065,123.277,149.065,120.53"/>
	</g>
	<polygon fill="#A7C24C" points="522.251,120.091 490.343,120.091 499.486,94.782 513.969,94.782 	"/>
	<polygon fill="#A7C24C" points="178.654,117.166 147.492,117.166 155.392,94.782 169.875,94.782 	"/>
	<polyline fill="#D9E020" points="169.687,94.782 181.389,133.403 487.447,133.403 499.149,94.782 	"/>
	<polyline fill="none" stroke="#1F2774" stroke-width="0.878" points="169.687,94.782 181.389,133.403 487.447,133.403 
		499.149,94.782 	"/>
	<polygon fill="#A7C24C" points="236.032,70.563 204.871,70.834 212.56,45.994 227.043,45.994 	"/>
	<rect x="195.552" y="70.349" fill="#00AA7C" width="276.285" height="23.481"/>
	<rect x="195.552" y="74.43" fill="#7D6448" width="276.285" height="23.482"/>
	<polygon fill="#A7C24C" points="207.84,94.563 176.679,94.563 184.579,70.35 199.062,70.35 	"/>
	<polygon fill="#A7C24C" points="491.805,94.563 460.645,94.563 468.544,70.35 483.028,70.35 	"/>
	<polygon fill="#A7C24C" points="461.522,70.233 430.36,70.233 438.26,46.021 452.744,46.021 	"/>
	<rect x="521.345" y="96.245" fill="#409FBD" width="4.097" height="58.546"/>
	<rect x="530.46" y="96.245" fill="#409FBD" width="4.096" height="41.256"/>
	<polyline fill="#C9B172" points="171.382,94.782 185.736,118.544 485.294,118.544 497.569,94.782 	"/>
	<rect x="244.491" y="34.361" fill="#409FBD" width="4.096" height="68.905"/>
	<rect x="218.157" y="34.361" fill="#409FBD" width="4.096" height="68.905"/>
	<g>
		<path fill="#0075C1" d="M171.039,95.157c0,1.781,1.445,3.226,3.226,3.226c1.782,0,3.226-1.444,3.226-3.226
			c0-1.782-1.444-3.227-3.226-3.227C172.484,91.931,171.039,93.375,171.039,95.157"/>
		
			<line fill="none" stroke="#0075C1" stroke-width="1.536" stroke-dasharray="5.359,3.229" x1="487.434" y1="95.22" x2="179.875" y2="95.22"/>
		
			<line fill="none" stroke="#0075C1" stroke-width="1.536" stroke-dasharray="5.34,3.21" x1="169.702" y1="95.22" x2="154.208" y2="95.22"/>
		<path fill="none" stroke="#0075C1" stroke-width="1.536" stroke-dasharray="5.637,3.507" d="M144.042,82.803
			c0.245-5.385,0.608-12.13,0.491-16.522"/>
		<path fill="none" stroke="#0075C1" stroke-width="1.536" stroke-dasharray="4.425,2.295" d="M142.988,57.434
			c-0.696-1.411-1.939-2.788-4.148-3.478"/>
		
			<line fill="none" stroke="#0075C1" stroke-width="1.536" stroke-dasharray="5.076,2.946" x1="130.039" y1="53.498" x2="99.421" y2="53.498"/>
		<path fill="none" stroke="#0075C1" stroke-width="1.536" d="M97.947,53.498h-2.538 M137.725,53.684
			c-0.66-0.12-1.392-0.186-2.202-0.186h-2.538 M144.449,64.528c-0.105-1.422-0.297-2.401-0.611-2.716c0,0,0.089-0.948-0.143-2.203
			 M144.364,92.047c-0.327-0.773-0.526-1.732-0.526-2.922c0-0.78,0.022-1.736,0.06-2.818 M152.603,95.22h-2.67
			c0,0-1.438,0.114-2.918-0.523 M178.261,95.22h-2.679h-2.67 M493.342,95.22h-2.68"/>
		<path fill="#0075C1" d="M490.335,95.157c0,1.781,1.443,3.226,3.227,3.226c1.781,0,3.225-1.444,3.225-3.226
			c0-1.782-1.443-3.227-3.225-3.227C491.779,91.931,490.335,93.375,490.335,95.157"/>
	</g>
	<polygon fill="#00AA7C" points="236.441,118.131 226.274,118.131 228.852,110.231 233.577,110.231 	"/>
	<polygon fill="#00AA7C" points="264.79,118.131 254.623,118.131 257.2,110.231 261.926,110.231 	"/>
	<polygon fill="#00AA7C" points="296.094,118.131 285.927,118.131 288.505,110.231 293.231,110.231 	"/>
	<polygon fill="#00AA7C" points="332.522,118.131 322.356,118.131 324.932,110.231 329.66,110.231 	"/>
	<polygon fill="#00AA7C" points="369.39,118.131 359.224,118.131 361.799,110.231 366.527,110.231 	"/>
	<polygon fill="#00AA7C" points="405.379,118.131 395.213,118.131 397.79,110.231 402.516,110.231 	"/>
	<polygon fill="#00AA7C" points="444.441,118.131 434.275,118.131 436.851,110.231 441.579,110.231 	"/>
	<rect x="415.66" y="51.916" fill="#409FBD" width="4.097" height="65.834"/>
	<line fill="none" stroke="#37B389" stroke-width="6.594" x1="83.396" y1="119.71" x2="487.188" y2="119.71"/>
	<rect x="490.868" y="126.595" fill="#7C6347" width="27.257" height="9.985"/>
	<rect x="498.722" y="84.395" fill="#B28146" width="2.065" height="10.396"/>
	<g>
		<defs>
			<path id="SVGID_1_" d="M494.932,84.811c0,4.187,2.211,5.053,4.938,5.053s4.936-0.866,4.936-5.053
				c0-4.184-2.209-7.576-4.936-7.576S494.932,80.627,494.932,84.811"/>
		</defs>
		<clipPath id="SVGID_2_">
			<use xlink:href="#SVGID_1_"  overflow="visible"/>
		</clipPath>
		
			<radialGradient id="SVGID_3_" cx="-190.3193" cy="371.2432" r="0.9987" gradientTransform="matrix(13.3113 0 0 -16.3831 3033.1133 6159.104)" gradientUnits="userSpaceOnUse">
			<stop  offset="0" style="stop-color:#76B92A"/>
			<stop  offset="1" style="stop-color:#1DA639"/>
		</radialGradient>
		<rect x="494.932" y="77.234" clip-path="url(#SVGID_2_)" fill="url(#SVGID_3_)" width="9.873" height="12.629"/>
	</g>
	<path fill="#007273" d="M121.96,119.405h17.606V85.669H121.96V119.405z M130.205,115.195h-5.879v-5.878h5.879V115.195z
		 M130.205,107.932h-5.879v-5.879h5.879V107.932z M130.205,100.744h-5.879v-5.878h5.879V100.744z M130.205,93.556h-5.879v-5.879
		h5.879V93.556z M137.201,115.195h-5.88v-5.878h5.88V115.195z M137.201,107.932h-5.88v-5.879h5.88V107.932z M137.201,100.744h-5.88
		v-5.878h5.88V100.744z M137.201,93.556h-5.88v-5.879h5.88V93.556z"/>
	<path fill="#007273" d="M112.03,95.026l-9.13,4.186v20.193h18.261V99.212v-4.186l-9.131,4.186V95.026z M113.655,102.052h5.879v5.88
		h-5.879V102.052z M110.403,107.933h-5.879v-5.88h5.879V107.933z"/>
	<polyline fill="none" stroke="#FFFFFF" stroke-width="0.824" points="144.754,119.578 417.6,119.578 417.6,116.412 	"/>
	<polygon fill="#5AC0EE" points="303.645,32.95 299.182,32.95 300.758,35.028 300.758,35.663 302.071,35.663 302.071,35.028 	"/>
	<g>
		<path fill="#5AC0EE" d="M304.161,42.826c0,0.397,0.323,0.721,0.721,0.721c0.398,0,0.721-0.323,0.721-0.721
			c0-0.398-0.322-0.722-0.721-0.722C304.484,42.104,304.161,42.428,304.161,42.826"/>
		<path fill="#5AC0EE" d="M303.388,41.268c0,0.341,0.276,0.618,0.618,0.618c0.341,0,0.617-0.277,0.617-0.618
			s-0.276-0.618-0.617-0.618C303.665,40.649,303.388,40.927,303.388,41.268"/>
		<path fill="#5AC0EE" d="M302.616,39.71c0,0.284,0.23,0.515,0.515,0.515s0.515-0.23,0.515-0.515c0-0.285-0.23-0.515-0.515-0.515
			S302.616,39.425,302.616,39.71"/>
		<path fill="#5AC0EE" d="M302.667,38.151c0-0.227-0.184-0.412-0.412-0.412c-0.227,0-0.412,0.186-0.412,0.412
			c0,0.229,0.186,0.412,0.412,0.412C302.483,38.563,302.667,38.38,302.667,38.151"/>
		<path fill="#5AC0EE" d="M303.534,38.151c0-0.227-0.184-0.412-0.412-0.412c-0.227,0-0.412,0.186-0.412,0.412
			c0,0.229,0.186,0.412,0.412,0.412C303.35,38.563,303.534,38.38,303.534,38.151"/>
		<path fill="#5AC0EE" d="M304.349,39.71c0,0.284,0.231,0.515,0.515,0.515c0.284,0,0.516-0.23,0.516-0.515
			c0-0.285-0.231-0.515-0.516-0.515C304.581,39.195,304.349,39.425,304.349,39.71"/>
		<path fill="#5AC0EE" d="M305.989,41.268c0,0.341,0.277,0.618,0.617,0.618c0.343,0,0.619-0.277,0.619-0.618
			s-0.276-0.618-0.619-0.618C306.266,40.649,305.989,40.927,305.989,41.268"/>
		<path fill="#5AC0EE" d="M307.628,42.826c0,0.397,0.323,0.721,0.721,0.721c0.398,0,0.722-0.323,0.722-0.721
			c0-0.398-0.323-0.722-0.722-0.722C307.952,42.104,307.628,42.428,307.628,42.826"/>
		<path fill="#5AC0EE" d="M297.225,42.826c0,0.397,0.323,0.721,0.721,0.721c0.398,0,0.721-0.323,0.721-0.721
			c0-0.398-0.322-0.722-0.721-0.722C297.548,42.104,297.225,42.428,297.225,42.826"/>
		<path fill="#5AC0EE" d="M298.204,41.268c0,0.341,0.277,0.618,0.617,0.618c0.343,0,0.619-0.277,0.619-0.618
			s-0.276-0.618-0.619-0.618C298.481,40.649,298.204,40.927,298.204,41.268"/>
		<path fill="#5AC0EE" d="M299.182,39.71c0,0.284,0.23,0.515,0.516,0.515c0.283,0,0.515-0.23,0.515-0.515
			c0-0.285-0.231-0.515-0.515-0.515C299.413,39.195,299.182,39.425,299.182,39.71"/>
		<path fill="#5AC0EE" d="M300.118,38.151c0-0.227-0.184-0.412-0.412-0.412c-0.227,0-0.412,0.186-0.412,0.412
			c0,0.229,0.186,0.412,0.412,0.412C299.934,38.563,300.118,38.38,300.118,38.151"/>
		<path fill="#5AC0EE" d="M297.448,39.71c0,0.284,0.23,0.515,0.516,0.515c0.284,0,0.516-0.23,0.516-0.515
			c0-0.285-0.231-0.515-0.516-0.515C297.678,39.195,297.448,39.425,297.448,39.71"/>
		<path fill="#5AC0EE" d="M295.602,41.268c0,0.341,0.277,0.618,0.619,0.618c0.34,0,0.617-0.277,0.617-0.618
			s-0.277-0.618-0.617-0.618C295.879,40.649,295.602,40.927,295.602,41.268"/>
		<path fill="#5AC0EE" d="M293.756,42.826c0,0.397,0.324,0.721,0.722,0.721c0.399,0,0.721-0.323,0.721-0.721
			c0-0.398-0.321-0.722-0.721-0.722C294.081,42.104,293.756,42.428,293.756,42.826"/>
		<path fill="#5AC0EE" d="M301.688,36.594c0-0.171-0.137-0.309-0.309-0.309c-0.171,0-0.309,0.138-0.309,0.309s0.138,0.31,0.309,0.31
			C301.551,36.903,301.688,36.765,301.688,36.594"/>
		<path fill="#5AC0EE" d="M301.387,38.563c0.229,0,0.412-0.184,0.412-0.412c0-0.227-0.184-0.412-0.412-0.412
			c-0.213,0-0.385,0.162-0.407,0.369c-0.021-0.207-0.194-0.369-0.407-0.369c-0.227,0-0.412,0.186-0.412,0.412
			c0,0.229,0.186,0.412,0.412,0.412c0.213,0,0.387-0.162,0.407-0.369C301.002,38.401,301.174,38.563,301.387,38.563"/>
		<path fill="#5AC0EE" d="M300.881,39.71c0,0.284,0.23,0.515,0.516,0.515c0.283,0,0.515-0.23,0.515-0.515
			c0-0.285-0.231-0.515-0.515-0.515C301.112,39.195,300.881,39.425,300.881,39.71"/>
		<path fill="#5AC0EE" d="M300.788,41.268c0,0.341,0.276,0.618,0.617,0.618c0.342,0,0.618-0.277,0.618-0.618
			s-0.276-0.618-0.618-0.618C301.064,40.649,300.788,40.927,300.788,41.268"/>
		<path fill="#5AC0EE" d="M300.693,42.826c0,0.397,0.323,0.721,0.722,0.721c0.397,0,0.721-0.323,0.721-0.721
			c0-0.398-0.323-0.722-0.721-0.722C301.016,42.104,300.693,42.428,300.693,42.826"/>
		<path fill="#5AC0EE" d="M313.543,36.768c0.887-0.214,1.483-0.969,1.483-1.882V21.658c0-0.569-0.461-1.029-1.03-1.029
			c-0.568,0-1.029,0.46-1.029,1.029v12.699c-0.926-1.829-2.113-4.226-2.959-6.105c-0.265-0.592-0.489-1.138-0.709-1.666
			c-1.002-2.433-1.869-4.535-4.756-4.306c-2.783,0.22-4.194,2.204-4.194,5.895v0.499h-0.679c-0.271,0-0.488,0.219-0.488,0.488v3.254
			h4.464v-3.254c0-0.27-0.22-0.488-0.489-0.488h-0.747v-0.499c0-3.216,1.103-3.748,2.296-3.841c1.28-0.101,1.604,0.406,2.691,3.038
			c0.213,0.517,0.454,1.104,0.734,1.724c0.936,2.084,2.278,4.776,3.24,6.667C311.784,36.575,312.657,36.98,313.543,36.768"/>
	</g>
	<polygon fill="#0072BA" points="102.9,50.197 93.787,53.479 102.9,56.388 	"/>
	<polygon fill="#FFFFFF" points="145.089,122.949 140.906,119.563 145.089,116.177 	"/>
	<g>
		<path fill="#5BB432" d="M278.862,57.864c1.174,0,2.124-0.951,2.124-2.124c0-1.174-0.95-2.125-2.124-2.125
			s-2.125,0.951-2.125,2.125C276.737,56.913,277.688,57.864,278.862,57.864"/>
		<path fill="#55B5B1" d="M236.673,39.039c-0.094,0.563-0.627,0.942-1.189,0.848c-0.563-0.095-0.942-0.627-0.847-1.189l1.029-6.13
			c0.095-0.562,0.627-0.941,1.19-0.847c0.562,0.094,0.942,0.627,0.847,1.188L236.673,39.039z"/>
		<path fill="#236372" d="M238.806,45.045c0,0.789-0.639,1.428-1.428,1.428h-10.971c-0.788,0-1.428-0.639-1.428-1.428
			s0.64-1.428,1.428-1.428h10.971C238.167,43.617,238.806,44.256,238.806,45.045"/>
		<path fill="#C6A711" d="M226.407,46.07c-0.565,0-1.026-0.46-1.026-1.025s0.461-1.026,1.026-1.026h10.972
			c0.565,0,1.025,0.461,1.025,1.026s-0.46,1.025-1.025,1.025H226.407z"/>
		<path fill="#236372" d="M228.883,45.045c0,0.342-0.278,0.62-0.622,0.62c-0.215,0-0.403-0.109-0.515-0.276h-0.748
			c-0.111,0.167-0.3,0.276-0.514,0.276c-0.343,0-0.62-0.278-0.62-0.62s0.277-0.62,0.62-0.62c0.214,0,0.403,0.109,0.514,0.276h0.748
			c0.112-0.167,0.3-0.276,0.515-0.276C228.605,44.425,228.883,44.703,228.883,45.045"/>
		<path fill="#236372" d="M237.923,45.045c0,0.342-0.278,0.62-0.622,0.62c-0.215,0-0.403-0.109-0.515-0.276h-0.748
			c-0.111,0.167-0.3,0.276-0.514,0.276c-0.343,0-0.62-0.278-0.62-0.62s0.277-0.62,0.62-0.62c0.214,0,0.403,0.109,0.514,0.276h0.748
			c0.112-0.167,0.3-0.276,0.515-0.276C237.645,44.425,237.923,44.703,237.923,45.045"/>
		<path fill="#C6A711" d="M232.321,43.215c0,0.223-0.18,0.401-0.402,0.401h-5.834c-0.222,0-0.401-0.179-0.401-0.401v-3.537
			c0-0.222,0.179-0.402,0.401-0.402h5.834c0.222,0,0.402,0.181,0.402,0.402V43.215z"/>
	</g>
	<polygon fill="#C6A711" points="232.542,36.647 232.542,42.871 237.657,42.871 237.657,38.297 236.285,36.647 	"/>
	<polygon fill="#FFFFFF" points="235.882,37.113 234.427,37.113 234.427,39.525 236.776,39.525 236.776,38.223 	"/>
	<rect x="233.537" y="42.873" fill="#C6A711" width="2.984" height="0.744"/>
	<g>
		<path fill="#C6A711" d="M241.34,38.137c0.248,0.334,0.336,0.603,0.002,0.851c-0.335,0.249-0.584,0.047-0.833-0.289l-4.433-5.553
			c-0.247-0.336-0.177-0.809,0.158-1.057c0.336-0.247,0.808-0.177,1.056,0.158L241.34,38.137z"/>
		<path fill="#55B5B1" d="M241.599,41.935c-0.269,0.028-2.496,0.26-2.342-0.08c0.07-0.151,0.324-0.106,0.416-0.162
			c0.175-0.142,0.283-0.47,0.367-0.664c0.303-0.708,0.521-1.351,0.793-2.1c-0.085-0.085-0.125-0.208-0.099-0.335
			c0.043-0.201,0.24-0.328,0.441-0.285c0.092,0.02,0.171,0.073,0.223,0.144l0.013,0.017c0.146,0.19,0.322,0.432,0.48,0.625
			c0.228,0.279,0.398,0.449,0.576,0.722C242.649,40.097,241.965,41.896,241.599,41.935"/>
		<path fill="#F2F2F1" d="M241.312,38.718c-0.025,0.117-0.14,0.192-0.258,0.168c-0.118-0.025-0.194-0.141-0.169-0.258
			c0.025-0.118,0.141-0.193,0.258-0.168C241.261,38.484,241.337,38.6,241.312,38.718"/>
		<path fill="#F2F2F1" d="M237.109,32.673c0,0.244-0.199,0.443-0.444,0.443s-0.445-0.199-0.445-0.443c0-0.246,0.2-0.444,0.445-0.444
			S237.109,32.427,237.109,32.673"/>
		<path fill="#9E8823" d="M228.386,41.651h-1.974c-0.09,0-0.163,0.073-0.163,0.163c0,0.091,0.073,0.165,0.163,0.165h1.974
			c0.09,0,0.163-0.074,0.163-0.165C228.549,41.725,228.476,41.651,228.386,41.651"/>
		<path fill="#9E8823" d="M228.386,42.18h-1.974c-0.09,0-0.163,0.073-0.163,0.163c0,0.091,0.073,0.164,0.163,0.164h1.974
			c0.09,0,0.163-0.073,0.163-0.164C228.549,42.253,228.476,42.18,228.386,42.18"/>
		<path fill="#9E8823" d="M228.386,42.708h-1.974c-0.09,0-0.163,0.073-0.163,0.163c0,0.091,0.073,0.164,0.163,0.164h1.974
			c0.09,0,0.163-0.073,0.163-0.164C228.549,42.781,228.476,42.708,228.386,42.708"/>
		<path fill="#55B5B1" d="M330.696,62.175c0.108,0.653,0.728,1.094,1.379,0.984c0.653-0.11,1.095-0.728,0.984-1.382l-1.193-7.114
			c-0.111-0.654-0.73-1.095-1.383-0.985c-0.652,0.11-1.093,0.728-0.982,1.381L330.696,62.175z"/>
		<path fill="#236372" d="M328.219,69.147c0,0.916,0.741,1.657,1.657,1.657h12.737c0.916,0,1.658-0.741,1.658-1.657
			c0-0.915-0.742-1.657-1.658-1.657h-12.737C328.96,67.49,328.219,68.232,328.219,69.147"/>
		<path fill="#C6A711" d="M342.614,70.338c0.656,0,1.191-0.533,1.191-1.19c0-0.656-0.535-1.191-1.191-1.191h-12.736
			c-0.658,0-1.192,0.535-1.192,1.191c0,0.657,0.534,1.19,1.192,1.19H342.614z"/>
		<path fill="#236372" d="M339.739,69.147c0,0.397,0.322,0.72,0.721,0.72c0.251,0,0.471-0.126,0.598-0.32h0.871
			c0.127,0.194,0.347,0.32,0.597,0.32c0.397,0,0.72-0.322,0.72-0.72s-0.322-0.72-0.72-0.72c-0.25,0-0.47,0.126-0.597,0.32h-0.871
			c-0.127-0.194-0.347-0.32-0.598-0.32C340.061,68.428,339.739,68.75,339.739,69.147"/>
		<path fill="#236372" d="M329.245,69.147c0,0.397,0.322,0.72,0.721,0.72c0.252,0,0.469-0.126,0.599-0.32h0.868
			c0.13,0.194,0.349,0.32,0.599,0.32c0.397,0,0.719-0.322,0.719-0.72s-0.321-0.72-0.719-0.72c-0.25,0-0.469,0.126-0.599,0.32h-0.868
			c-0.13-0.194-0.347-0.32-0.599-0.32C329.567,68.428,329.245,68.75,329.245,69.147"/>
		<path fill="#C6A711" d="M335.748,67.022c0,0.259,0.209,0.469,0.468,0.469h6.771c0.258,0,0.467-0.21,0.467-0.469v-4.106
			c0-0.257-0.209-0.466-0.467-0.466h-6.771c-0.259,0-0.468,0.209-0.468,0.466V67.022z"/>
	</g>
	<polygon fill="#C6A711" points="335.491,59.399 335.491,66.624 329.552,66.624 329.552,61.313 331.146,59.399 	"/>
	<polygon fill="#FFFFFF" points="331.613,59.938 333.303,59.938 333.303,62.738 330.575,62.738 330.575,61.227 	"/>
	<rect x="330.872" y="66.624" fill="#C6A711" width="3.465" height="0.866"/>
	<g>
		<path fill="#C6A711" d="M325.278,61.128c-0.287,0.389-0.391,0.699-0.002,0.986c0.389,0.289,0.678,0.055,0.965-0.335l5.146-6.447
			c0.289-0.389,0.206-0.937-0.181-1.226c-0.389-0.287-0.938-0.206-1.227,0.184L325.278,61.128z"/>
		<path fill="#55B5B1" d="M324.976,65.537c0.312,0.032,2.899,0.302,2.718-0.093c-0.08-0.178-0.375-0.125-0.481-0.189
			c-0.204-0.164-0.328-0.543-0.427-0.771c-0.351-0.821-0.606-1.567-0.92-2.437c0.099-0.099,0.145-0.242,0.115-0.389
			c-0.05-0.233-0.279-0.38-0.512-0.332c-0.107,0.023-0.2,0.086-0.259,0.167l-0.015,0.02c-0.172,0.221-0.375,0.501-0.56,0.727
			c-0.263,0.321-0.46,0.52-0.668,0.838C323.757,63.403,324.55,65.493,324.976,65.537"/>
		<path fill="#F2F2F1" d="M325.309,61.802c0.029,0.137,0.164,0.225,0.301,0.195c0.137-0.028,0.224-0.163,0.195-0.3
			c-0.029-0.137-0.164-0.224-0.3-0.196C325.37,61.53,325.28,61.664,325.309,61.802"/>
		<path fill="#F2F2F1" d="M330.189,54.783c0,0.285,0.231,0.516,0.517,0.516c0.283,0,0.515-0.23,0.515-0.516
			s-0.231-0.516-0.515-0.516C330.42,54.268,330.189,54.498,330.189,54.783"/>
		<path fill="#9E8823" d="M340.316,65.208h2.292c0.104,0,0.189,0.085,0.189,0.189c0,0.105-0.086,0.189-0.189,0.189h-2.292
			c-0.104,0-0.19-0.084-0.19-0.189C340.125,65.293,340.211,65.208,340.316,65.208"/>
		<path fill="#9E8823" d="M340.316,65.821h2.292c0.104,0,0.189,0.085,0.189,0.188c0,0.106-0.086,0.19-0.189,0.19h-2.292
			c-0.104,0-0.19-0.084-0.19-0.19C340.125,65.906,340.211,65.821,340.316,65.821"/>
		<path fill="#9E8823" d="M340.316,66.435h2.292c0.104,0,0.189,0.085,0.189,0.188c0,0.105-0.086,0.191-0.189,0.191h-2.292
			c-0.104,0-0.19-0.086-0.19-0.191C340.125,66.52,340.211,66.435,340.316,66.435"/>
		<path fill="#717071" d="M310.718,66.604c1.216,0,2.206,0.989,2.206,2.206c0,1.215-0.99,2.204-2.206,2.204
			c-1.215,0-2.206-0.989-2.206-2.204C308.512,67.593,309.503,66.604,310.718,66.604 M310.718,70.034
			c0.675,0,1.226-0.551,1.226-1.225c0-0.676-0.551-1.227-1.226-1.227s-1.226,0.551-1.226,1.227
			C309.493,69.483,310.043,70.034,310.718,70.034"/>
		<path fill="#717071" d="M308.512,59.006c0-0.136,0.11-0.245,0.246-0.245h5.115c0.145,0,0.273,0.097,0.313,0.234l1.043,3.668
			c0.093,0.324,0.145,0.664,0.145,0.998v5.146c0,0.137-0.109,0.246-0.244,0.246h-1.716v-0.246c0-1.483-1.211-2.694-2.694-2.694
			c-1.485,0-2.697,1.211-2.697,2.694v0.246h-0.489v-2.451h0.979V59.006z M310.473,65.132h0.49v-0.979h-0.49V65.132z M310.473,63.172
			h4.412l-0.98-3.431h-3.432V63.172z"/>
		<path fill="#00A97A" d="M289.09,61.198l-1.116-3.244c-0.089-0.254,0.048-0.535,0.303-0.623l14.831-5.106
			c0.254-0.088,0.534,0.049,0.623,0.304l2.712,7.878c0.088,0.257-0.049,0.536-0.303,0.623l-15.294,5.267l-2.014,0.175L289.09,61.198
			z M303.04,61.061l0.463-0.16l-2.394-6.952l-0.463,0.16L303.04,61.061z M299.795,62.178l0.463-0.16l-2.394-6.951l-0.463,0.159
			L299.795,62.178z M296.551,63.296l0.463-0.161l-2.393-6.952l-0.464,0.16L296.551,63.296z M293.307,64.412l0.464-0.16l-2.394-6.952
			l-0.463,0.161L293.307,64.412z"/>
		<path fill="#717071" d="M293.809,68.809c0,0.082,0.004,0.163,0.01,0.245h-0.99v-2.451h2.129
			C294.264,67.091,293.809,67.899,293.809,68.809"/>
		<path fill="#717071" d="M298.051,66.603h3.109v2.451h-1.973c0.008-0.081,0.012-0.163,0.012-0.245
			C299.2,67.898,298.745,67.092,298.051,66.603"/>
		<path fill="#717071" d="M296.504,66.604c1.215,0,2.205,0.989,2.205,2.206c0,1.215-0.99,2.204-2.205,2.204
			s-2.206-0.989-2.206-2.204C294.298,67.593,295.29,66.604,296.504,66.604 M296.504,70.034c0.675,0,1.225-0.551,1.225-1.225
			c0-0.676-0.55-1.227-1.225-1.227c-0.676,0-1.227,0.551-1.227,1.227C295.278,69.483,295.829,70.034,296.504,70.034"/>
		<path fill="#717071" d="M302.14,66.603h4.412c0.271,0,0.49,0.221,0.49,0.491v1.96c0,0.269-0.22,0.49-0.49,0.49h-4.412
			c-0.269,0-0.489-0.222-0.489-0.49v-1.96C301.651,66.823,301.872,66.603,302.14,66.603"/>
		<path fill="#717071" d="M377.458,66.502c1.242,0,2.256,1.015,2.256,2.257c0,1.243-1.014,2.256-2.256,2.256
			c-1.244,0-2.256-1.013-2.256-2.256C375.202,67.517,376.213,66.502,377.458,66.502 M377.458,70.012c0.69,0,1.254-0.563,1.254-1.253
			c0-0.69-0.563-1.254-1.254-1.254s-1.254,0.563-1.254,1.254C376.204,69.448,376.767,70.012,377.458,70.012"/>
		<path fill="#717071" d="M375.202,58.731c0-0.139,0.111-0.251,0.25-0.251h5.232c0.148,0,0.279,0.099,0.32,0.241l1.067,3.751
			c0.093,0.331,0.147,0.678,0.147,1.021v5.266c0,0.138-0.111,0.25-0.25,0.25h-1.754v-0.25c0-1.52-1.24-2.757-2.759-2.757
			s-2.757,1.237-2.757,2.757v0.25h-0.501v-2.507h1.003V58.731z M377.207,64.998h0.501v-1.003h-0.501V64.998z M377.207,62.992h4.513
			l-1.004-3.509h-3.509V62.992z"/>
		<path fill="#00A97A" d="M357.153,60.486v-3.511c0-0.274,0.227-0.501,0.501-0.501h16.043c0.276,0,0.502,0.227,0.502,0.501v8.523
			c0,0.276-0.226,0.502-0.502,0.502h-16.544l-2.005-0.502L357.153,60.486z M370.689,64.998h0.501v-7.521h-0.501V64.998z
			 M367.18,64.998h0.5v-7.521h-0.5V64.998z M363.67,64.998h0.5v-7.521h-0.5V64.998z M360.161,64.998h0.501v-7.521h-0.501V64.998z"/>
		<path fill="#717071" d="M360.161,68.758c0,0.084,0.004,0.168,0.012,0.25h-1.014v-2.506h2.177
			C360.626,67.002,360.161,67.828,360.161,68.758"/>
		<path fill="#717071" d="M364.5,66.502h3.18v2.507h-2.016c0.008-0.083,0.012-0.167,0.012-0.251
			C365.676,67.828,365.209,67.002,364.5,66.502"/>
		<path fill="#717071" d="M362.918,66.502c1.242,0,2.256,1.015,2.256,2.257c0,1.243-1.014,2.256-2.256,2.256
			c-1.243,0-2.256-1.013-2.256-2.256C360.663,67.517,361.675,66.502,362.918,66.502 M362.918,70.012
			c0.691,0,1.253-0.563,1.253-1.253c0-0.69-0.562-1.254-1.253-1.254c-0.69,0-1.254,0.563-1.254,1.254
			C361.665,69.448,362.228,70.012,362.918,70.012"/>
		<path fill="#717071" d="M368.684,66.502h4.512c0.276,0,0.501,0.225,0.501,0.502v2.005c0,0.276-0.225,0.501-0.501,0.501h-4.512
			c-0.275,0-0.501-0.225-0.501-0.501v-2.005C368.183,66.728,368.409,66.502,368.684,66.502"/>
	</g>
	<polygon fill="#FDED29" points="119.016,29.76 123.672,29.76 123.566,27.78 119.122,27.78 	"/>
	<polygon fill="#0072BA" points="123.366,25.257 123.269,23.446 123.165,21.512 123.068,19.701 122.964,17.766 122.867,15.957 
		122.761,13.977 119.927,13.977 119.821,15.957 119.725,17.766 119.621,19.701 119.524,21.512 119.42,23.446 119.323,25.257 
		119.219,27.191 123.47,27.191 	"/>
	<polygon fill="#FAC626" points="119.122,27.78 123.566,27.78 123.469,25.97 119.219,25.97 	"/>
	<rect x="115.068" y="27.331" fill="#00538C" width="7.997" height="9.009"/>
	<rect x="113.753" y="25.882" fill="#00538C" width="11.438" height="1.62"/>
	<rect x="116.283" y="28.344" fill="#FFFFFF" width="2.024" height="2.024"/>
	<rect x="120.028" y="28.344" fill="#FFFFFF" width="2.024" height="2.024"/>
	<polygon fill="#00538C" points="127.923,24.193 127.923,36.339 121.445,36.339 121.445,28.343 	"/>
	<rect x="123.008" y="28.849" fill="#FFFFFF" width="0.823" height="5.669"/>
	<rect x="125.438" y="28.849" fill="#FFFFFF" width="0.822" height="5.669"/>
	<polygon fill="#00538C" points="134.098,24.193 134.098,36.339 127.62,36.339 127.62,28.343 	"/>
	<rect x="129.182" y="28.849" fill="#FFFFFF" width="0.823" height="5.669"/>
	<rect x="131.611" y="28.849" fill="#FFFFFF" width="0.823" height="5.669"/>
	<g>
		<rect x="83.396" y="0.25" fill="none" stroke="#231815" stroke-width="0.5" width="465.344" height="154.291"/>
		<g>
			<path fill="#808080" d="M14.603,143.165c0,5.222-3.493,7.904-7.274,7.904c-3.817,0-7.328-2.683-7.328-7.904
				s3.511-7.868,7.328-7.868C11.109,135.297,14.603,137.943,14.603,143.165z M3.205,143.165c0,3.133,1.873,5.06,4.123,5.06
				c2.197,0,4.069-1.927,4.069-5.06s-1.873-5.023-4.069-5.023C5.078,138.142,3.205,140.032,3.205,143.165z"/>
			<path fill="#808080" d="M21.476,143.039c-1.026,0-1.944,0.973-1.944,2.377v4.033c0,0.936-0.667,1.494-1.566,1.494
				c-0.9,0-1.567-0.559-1.567-1.494v-7.707c0-0.936,0.667-1.494,1.567-1.494c0.738,0,1.332,0.396,1.512,1.045
				c0.522-0.667,1.458-1.045,2.269-1.045c0.738,0,1.351,0.126,1.819,0.45c0.432,0.288,0.72,0.99,0.396,1.747
				c-0.306,0.702-1.044,0.99-1.495,0.81C22.124,143.111,21.8,143.039,21.476,143.039z"/>
			<path fill="#808080" d="M27.288,135.423c0.991,0,1.819,0.828,1.819,1.818s-0.828,1.818-1.819,1.818
				c-0.99,0-1.818-0.828-1.818-1.818S26.298,135.423,27.288,135.423z M28.855,149.449c0,0.936-0.667,1.494-1.567,1.494
				c-0.9,0-1.566-0.559-1.566-1.494v-7.707c0-0.936,0.667-1.494,1.566-1.494c0.9,0,1.567,0.559,1.567,1.494V149.449z"/>
			<path fill="#808080" d="M37.658,149.989h-1.945c-3.097,0-4.879-1.944-4.879-4.754c0-2.862,1.783-4.807,4.879-4.807h3.025
				c1.333,0,2.053,0.702,2.053,2.07v7.49c0,2.845-1.836,4.213-4.664,4.213c-0.81,0-2.179-0.09-3.025-0.414
				c-0.756-0.288-1.026-0.99-0.846-1.675c0.18-0.666,0.756-1.188,1.548-0.972c0.612,0.162,1.44,0.288,2.287,0.288
				c0.882,0,1.566-0.433,1.566-1.297V149.989z M37.658,147.217v-4.016h-1.729c-1.405,0-1.963,0.792-1.963,2.034
				c0,1.207,0.558,1.981,1.963,1.981H37.658z"/>
			<path fill="#808080" d="M44.694,135.423c0.991,0,1.819,0.828,1.819,1.818s-0.828,1.818-1.819,1.818
				c-0.99,0-1.818-0.828-1.818-1.818S43.704,135.423,44.694,135.423z M46.261,149.449c0,0.936-0.667,1.494-1.567,1.494
				c-0.9,0-1.566-0.559-1.566-1.494v-7.707c0-0.936,0.667-1.494,1.566-1.494c0.9,0,1.567,0.559,1.567,1.494V149.449z"/>
			<path fill="#808080" d="M58.053,149.449c0,0.936-0.667,1.494-1.566,1.494c-0.9,0-1.566-0.559-1.566-1.494v-4.88
				c0-0.9-0.594-1.548-1.495-1.548c-0.882,0-1.513,0.63-1.513,1.494v4.934c0,0.936-0.666,1.494-1.566,1.494
				c-0.9,0-1.566-0.559-1.566-1.494v-7.707c0-0.936,0.667-1.494,1.566-1.494c0.738,0,1.333,0.396,1.513,1.045
				c0.522-0.703,1.44-1.045,2.431-1.045c1.927,0,3.763,1.116,3.763,3.997V149.449z"/>
			<path fill="#808080" d="M68.546,140.429c1.17,0,1.8,0.702,1.8,1.8v7.347c0,0.937-0.72,1.314-1.603,1.314
				c-0.684,0-1.35-0.396-1.422-1.026c-0.432,0.612-1.404,1.026-2.449,1.026c-3.025,0-5.023-2.143-5.023-5.275
				c0-3.134,2.215-5.186,5.24-5.186H68.546z M65.233,143.201c-1.44,0-2.251,1.026-2.251,2.413c0,1.368,0.811,2.502,2.107,2.502
				c1.314,0,2.125-0.936,2.125-2.646v-2.269H65.233z"/>
			<path fill="#808080" d="M75.817,149.449c0,0.936-0.667,1.494-1.567,1.494c-0.9,0-1.566-0.559-1.566-1.494v-12.532
				c0-0.937,0.667-1.494,1.566-1.494c0.9,0,1.567,0.558,1.567,1.494V149.449z"/>
		</g>
	</g>
</g>
</svg>
