<?xml version="1.0" encoding="utf-8"?>
<!-- Generator: Adobe Illustrator 16.0.0, SVG Export Plug-In . SVG Version: 6.00 Build 0)  -->
<!DOCTYPE svg PUBLIC "-//W3C//DTD SVG 1.1//EN" "http://www.w3.org/Graphics/SVG/1.1/DTD/svg11.dtd">
<svg version="1.1" id="레이어_1" xmlns="http://www.w3.org/2000/svg" xmlns:xlink="http://www.w3.org/1999/xlink" x="0px"
	 y="0px" width="369.476px" height="134.035px" viewBox="0 0 369.476 134.035" enable-background="new 0 0 369.476 134.035"
	 xml:space="preserve">
<g>
	<path fill="none" stroke="#231815" stroke-width="8" stroke-linejoin="round" stroke-miterlimit="9.176" d="M14.315,99.037
		c0.476-0.553,1.133-0.941,1.97-1.166c1.046-0.28,1.895-0.375,2.546-0.287c0.65,0.09,1.185,0.254,1.604,0.494
		c0.162,0.104,0.407,0.171,0.732,0.199c0.326,0.031,0.616,0.012,0.873-0.058c0.673-0.181,1.284-0.534,1.83-1.062
		c0.546-0.526,0.935-1.275,1.168-2.247c0.255-1.124,0.157-2.123-0.296-2.998s-1.087-1.482-1.9-1.821
		c-0.327-0.118-0.68-0.235-1.063-0.354c-0.384-0.116-0.837-0.186-1.36-0.207c-0.522-0.021-1.128,0.011-1.813,0.091
		c-0.686,0.081-1.481,0.242-2.389,0.485c-2.395,0.642-4.41,1.828-6.049,3.556c-1.639,1.729-2.76,3.861-3.365,6.397
		c-0.302,1.225-0.448,2.48-0.436,3.766c0.012,1.287,0.22,2.484,0.628,3.591c0.406,1.108,1.016,2.074,1.831,2.896
		c0.813,0.822,1.882,1.408,3.208,1.756c0.209,0.062,0.471,0.124,0.785,0.186c0.314,0.063,0.61,0.116,0.889,0.157
		c0.72,0.102,1.395,0.221,2.022,0.36c0.628,0.139,1.179,0.307,1.657,0.501c0.475,0.195,0.842,0.449,1.098,0.761
		c0.255,0.313,0.383,0.675,0.383,1.085c-0.024,0.973-0.302,1.752-0.837,2.334c-0.535,0.583-1.29,1.005-2.266,1.267
		c-1.185,0.317-2.092,0.451-2.72,0.399c-0.627-0.053-1.139-0.186-1.534-0.402c-0.325-0.146-0.668-0.305-1.029-0.472
		c-0.36-0.168-0.842-0.154-1.447,0.035c-0.464,0.155-0.93,0.426-1.395,0.814c-0.465,0.388-0.825,0.865-1.081,1.432
		c-0.256,0.568-0.418,1.131-0.488,1.692c-0.07,0.562-0.052,1.076,0.052,1.546c0.104,0.472,0.273,0.902,0.506,1.294
		c0.232,0.393,0.511,0.721,0.836,0.985c0.953,0.683,2.15,1.043,3.591,1.081c1.441,0.039,2.94-0.149,4.498-0.567
		c3.185-0.853,5.701-2.392,7.549-4.616c1.849-2.225,2.853-4.926,3.017-8.106c0.069-1.426-0.035-2.694-0.314-3.807
		s-0.709-2.066-1.291-2.864c-0.581-0.796-1.285-1.436-2.109-1.919c-0.826-0.481-1.75-0.819-2.772-1.016l-1.708-0.29
		c-1.395-0.212-2.476-0.509-3.243-0.889c-0.767-0.381-1.139-0.985-1.116-1.813C13.589,100.323,13.838,99.59,14.315,99.037z"/>
	<path fill="none" stroke="#231815" stroke-width="8" stroke-linejoin="round" stroke-miterlimit="9.176" d="M41.773,108.012
		c0,0.764-0.1,1.42-0.296,1.971c-0.198,0.552-0.448,1.028-0.75,1.432c-0.302,0.403-0.627,0.718-0.976,0.943
		c-0.349,0.226-0.674,0.379-0.977,0.46c-0.303,0.081-0.627,0.102-0.976,0.063c-0.349-0.039-0.668-0.166-0.959-0.381
		c-0.291-0.215-0.54-0.536-0.75-0.965c-0.209-0.428-0.326-0.989-0.349-1.687v-5.408c0-0.731,0.099-1.381,0.296-1.948
		c0.197-0.564,0.447-1.049,0.75-1.453c0.302-0.402,0.633-0.72,0.994-0.947c0.359-0.229,0.69-0.383,0.993-0.464
		c0.302-0.081,0.627-0.104,0.977-0.064c0.349,0.038,0.674,0.179,0.976,0.42c0.302,0.242,0.552,0.593,0.75,1.052
		c0.197,0.461,0.296,1.058,0.296,1.789V108.012z M35.741,128.138v-8.792c0.674,0.405,1.406,0.656,2.196,0.752
		c0.791,0.096,1.627,0.026,2.511-0.211c1.139-0.305,2.226-0.794,3.26-1.468c1.035-0.673,1.941-1.581,2.72-2.729
		c0.778-1.147,1.395-2.558,1.848-4.232s0.68-3.67,0.68-5.985v-3.957c0-2.315-0.227-4.188-0.68-5.621
		c-0.453-1.432-1.069-2.512-1.848-3.242c-0.779-0.729-1.686-1.153-2.72-1.271c-1.034-0.118-2.121-0.025-3.26,0.28
		c-0.884,0.236-1.772,0.68-2.667,1.329c-0.896,0.651-1.68,1.462-2.354,2.434c-0.302-0.71-0.75-1.19-1.343-1.442
		c-0.592-0.252-1.226-0.287-1.9-0.106c-0.465,0.125-0.906,0.338-1.325,0.641c-0.418,0.303-0.79,0.681-1.116,1.135
		c-0.325,0.454-0.587,0.978-0.784,1.572c-0.198,0.596-0.296,1.26-0.296,1.992v30.82L35.741,128.138z"/>
	<path fill="none" stroke="#231815" stroke-width="8" stroke-linejoin="round" stroke-miterlimit="9.176" d="M65.1,101.586
		c0,0.792-0.094,1.484-0.279,2.075c-0.187,0.594-0.424,1.104-0.715,1.533c-0.291,0.429-0.622,0.775-0.994,1.035
		c-0.372,0.262-0.744,0.44-1.116,0.54c-0.372,0.101-0.744,0.12-1.116,0.059c-0.372-0.062-0.703-0.23-0.994-0.503
		c-0.291-0.274-0.528-0.657-0.715-1.15c-0.186-0.491-0.278-1.134-0.278-1.926v-4.836c0-0.792,0.092-1.482,0.278-2.074
		c0.187-0.593,0.424-1.104,0.715-1.533c0.291-0.43,0.622-0.774,0.994-1.036c0.372-0.26,0.744-0.44,1.116-0.54
		c0.372-0.1,0.744-0.118,1.116-0.058c0.372,0.062,0.703,0.229,0.994,0.503c0.291,0.274,0.528,0.657,0.715,1.15
		c0.186,0.492,0.279,1.133,0.279,1.925V101.586z M51.885,104.731c0,2.374,0.308,4.255,0.924,5.645
		c0.615,1.389,1.412,2.421,2.388,3.096c0.977,0.678,2.063,1.045,3.26,1.105s2.377-0.065,3.539-0.377
		c1.162-0.312,2.341-0.818,3.539-1.52c1.197-0.702,2.283-1.651,3.26-2.853c0.977-1.198,1.772-2.657,2.389-4.376
		c0.615-1.719,0.923-3.766,0.923-6.14v-4.044c0-2.374-0.308-4.256-0.923-5.645c-0.617-1.388-1.413-2.42-2.389-3.097
		c-0.977-0.676-2.063-1.044-3.26-1.104c-1.198-0.061-2.377,0.065-3.539,0.377c-1.186,0.317-2.377,0.827-3.574,1.528
		c-1.197,0.702-2.283,1.652-3.26,2.853c-0.977,1.199-1.767,2.656-2.371,4.371c-0.605,1.717-0.907,3.761-0.907,6.135V104.731z"/>
	<path fill="none" stroke="#231815" stroke-width="8" stroke-linejoin="round" stroke-miterlimit="9.176" d="M77.791,100.868
		c0,1.671,0.162,3.034,0.488,4.09c0.325,1.056,0.803,1.852,1.43,2.386c0.627,0.536,1.395,0.843,2.302,0.923
		c0.906,0.079,1.94-0.036,3.103-0.348c0.604-0.162,1.208-0.441,1.813-0.838c0.604-0.396,1.104-0.81,1.5-1.237
		c0.488-0.541,0.865-1.199,1.133-1.975c0.267-0.774,0.319-1.594,0.157-2.459c-0.116-0.702-0.395-1.213-0.836-1.535
		c-0.441-0.321-0.954-0.404-1.534-0.248c-0.349,0.093-0.628,0.205-0.837,0.334c-0.208,0.129-0.441,0.213-0.697,0.253
		c-0.302,0.052-0.563,0.005-0.784-0.142c-0.221-0.146-0.332-0.556-0.332-1.23V87.938l2.058-0.552
		c1.092-0.292,1.876-0.868,2.354-1.729c0.476-0.861,0.715-1.76,0.715-2.698c0-0.44-0.059-0.863-0.175-1.272
		c-0.117-0.408-0.296-0.756-0.54-1.042c-0.245-0.286-0.559-0.487-0.942-0.605c-0.383-0.116-0.854-0.101-1.412,0.05l-2.058,0.551
		v-4.572c0-0.732-0.099-1.351-0.296-1.854c-0.197-0.505-0.459-0.889-0.785-1.153c-0.325-0.266-0.691-0.431-1.098-0.497
		c-0.407-0.067-0.832-0.041-1.272,0.077c-0.442,0.118-0.866,0.32-1.273,0.604s-0.773,0.646-1.099,1.086
		c-0.325,0.438-0.587,0.964-0.784,1.573c-0.198,0.61-0.296,1.281-0.296,2.014v4.572l-1.15,0.309
		c-0.559,0.149-1.035,0.387-1.43,0.712c-0.396,0.327-0.715,0.698-0.959,1.114c-0.245,0.418-0.418,0.859-0.523,1.328
		c-0.105,0.468-0.157,0.921-0.157,1.36c0,0.938,0.239,1.71,0.715,2.315s1.26,0.761,2.354,0.468l1.15-0.309V100.868z"/>
	<path fill="none" stroke="#231815" stroke-width="8" stroke-linejoin="round" stroke-miterlimit="9.176" d="M103.976,93.852
		c0,1.671,0.162,3.034,0.488,4.09c0.325,1.056,0.803,1.852,1.429,2.387c0.628,0.535,1.395,0.843,2.302,0.923
		c0.906,0.079,1.94-0.037,3.103-0.349c0.604-0.162,1.208-0.441,1.813-0.838c0.604-0.396,1.104-0.809,1.5-1.237
		c0.488-0.54,0.865-1.198,1.133-1.975c0.267-0.774,0.319-1.594,0.157-2.459c-0.116-0.702-0.395-1.213-0.836-1.535
		c-0.442-0.321-0.954-0.403-1.534-0.248c-0.349,0.094-0.628,0.205-0.837,0.334c-0.208,0.13-0.441,0.214-0.697,0.253
		c-0.302,0.053-0.563,0.005-0.784-0.142c-0.222-0.146-0.332-0.555-0.332-1.23V80.922l2.058-0.551
		c1.092-0.293,1.876-0.868,2.354-1.729c0.475-0.86,0.714-1.76,0.714-2.698c0-0.439-0.059-0.862-0.175-1.271
		c-0.117-0.409-0.296-0.756-0.54-1.043c-0.245-0.285-0.559-0.487-0.942-0.604c-0.384-0.117-0.854-0.101-1.412,0.049l-2.058,0.551
		v-4.572c0-0.732-0.099-1.351-0.296-1.854c-0.197-0.504-0.459-0.889-0.785-1.153c-0.325-0.265-0.691-0.431-1.098-0.497
		s-0.832-0.041-1.272,0.077c-0.442,0.118-0.867,0.32-1.273,0.605c-0.407,0.283-0.773,0.646-1.099,1.085
		c-0.325,0.439-0.587,0.964-0.784,1.573c-0.198,0.61-0.296,1.282-0.296,2.014v4.573l-1.15,0.308
		c-0.559,0.149-1.035,0.388-1.43,0.713c-0.396,0.326-0.715,0.697-0.959,1.114c-0.244,0.417-0.418,0.859-0.522,1.327
		c-0.105,0.468-0.157,0.921-0.157,1.361c0,0.938,0.238,1.709,0.715,2.314c0.476,0.605,1.26,0.761,2.354,0.468l1.15-0.309V93.852z"/>
	<path fill="none" stroke="#231815" stroke-width="8" stroke-linejoin="round" stroke-miterlimit="9.176" d="M138.075,92.979V77.636
		c0-2.314-0.221-4.19-0.663-5.626c-0.441-1.435-1.034-2.521-1.778-3.261c-0.744-0.737-1.621-1.17-2.632-1.295
		c-1.011-0.124-2.086-0.034-3.226,0.271c-0.93,0.249-1.784,0.661-2.563,1.236c-0.779,0.575-1.471,1.28-2.075,2.115v-7.385
		c0-0.733-0.1-1.344-0.296-1.834c-0.198-0.488-0.459-0.873-0.785-1.152c-0.325-0.279-0.697-0.457-1.115-0.537
		c-0.418-0.078-0.861-0.055-1.326,0.07c-0.465,0.124-0.913,0.34-1.342,0.646c-0.43,0.307-0.808,0.685-1.133,1.139
		c-0.325,0.454-0.587,0.979-0.784,1.572c-0.198,0.597-0.296,1.26-0.296,1.993v32.754l7.078-1.896V80.311
		c0.023-0.71,0.127-1.331,0.314-1.864c0.186-0.534,0.418-0.984,0.697-1.353c0.279-0.367,0.586-0.662,0.923-0.885
		c0.337-0.222,0.657-0.374,0.959-0.455c0.301-0.081,0.622-0.101,0.959-0.06c0.336,0.043,0.645,0.187,0.923,0.436
		c0.279,0.248,0.511,0.603,0.698,1.065c0.186,0.464,0.279,1.061,0.279,1.794v15.915L138.075,92.979z"/>
	<path fill="none" stroke="#231815" stroke-width="8" stroke-linejoin="round" stroke-miterlimit="9.176" d="M152.249,69.023
		c0.36,0.036,0.667,0.173,0.924,0.412c0.256,0.24,0.458,0.581,0.61,1.024c0.15,0.442,0.214,1.034,0.192,1.772l-5.894,1.579
		c0-0.732,0.093-1.366,0.279-1.899c0.186-0.533,0.418-0.991,0.697-1.374c0.279-0.383,0.598-0.688,0.959-0.917
		c0.359-0.228,0.737-0.395,1.133-0.501C151.521,69.021,151.888,68.989,152.249,69.023z M153.783,89.364
		c0.615-0.268,1.197-0.563,1.744-0.884c0.545-0.322,1.033-0.645,1.464-0.965c0.43-0.319,0.784-0.62,1.063-0.9
		c0.836-0.84,1.435-1.754,1.795-2.745c0.36-0.99,0.354-1.979-0.018-2.963c-0.232-0.612-0.599-0.983-1.098-1.113
		c-0.5-0.129-1.052-0.069-1.656,0.181c-0.303,0.141-0.587,0.311-0.854,0.515c-0.268,0.203-0.529,0.398-0.785,0.584
		c-0.465,0.33-0.93,0.601-1.395,0.813c-0.466,0.213-1.128,0.436-1.988,0.666c-0.418,0.111-0.86,0.164-1.325,0.157
		c-0.465-0.009-0.895-0.12-1.29-0.337c-0.396-0.216-0.721-0.539-0.977-0.97c-0.256-0.429-0.384-1.024-0.384-1.787v-0.044
		l12.483-3.345c0.046-0.394,0.087-0.858,0.122-1.396s0.052-0.996,0.052-1.377c0-2.901-0.273-5.195-0.819-6.881
		c-0.546-1.686-1.272-2.92-2.179-3.702c-0.906-0.783-1.935-1.204-3.086-1.263c-1.15-0.058-2.33,0.075-3.538,0.399
		c-1.117,0.299-2.261,0.804-3.435,1.514c-1.174,0.71-2.244,1.663-3.208,2.859c-0.965,1.197-1.755,2.655-2.372,4.373
		c-0.615,1.719-0.923,3.75-0.923,6.095v3.869c0,2.285,0.319,4.128,0.959,5.524c0.639,1.397,1.475,2.426,2.511,3.087
		c1.034,0.66,2.189,1.024,3.469,1.092c1.278,0.067,2.545-0.065,3.801-0.402C152.545,89.851,153.167,89.632,153.783,89.364z"/>
	<path fill="none" stroke="#231815" stroke-width="8" stroke-linejoin="round" stroke-miterlimit="9.176" d="M180.473,65.66
		c0-0.732,0.1-1.382,0.296-1.948c0.197-0.565,0.447-1.05,0.75-1.454c0.302-0.402,0.627-0.718,0.977-0.942
		c0.349-0.226,0.674-0.379,0.976-0.46c0.302-0.08,0.621-0.1,0.958-0.059c0.337,0.041,0.657,0.169,0.959,0.381
		c0.303,0.212,0.559,0.531,0.768,0.959s0.325,0.99,0.348,1.688v5.628c-0.022,0.709-0.139,1.334-0.348,1.874
		c-0.209,0.539-0.465,0.996-0.768,1.37c-0.302,0.374-0.622,0.673-0.959,0.895c-0.337,0.222-0.657,0.374-0.958,0.454
		c-0.302,0.081-0.627,0.103-0.976,0.064c-0.349-0.038-0.674-0.178-0.977-0.42c-0.303-0.242-0.553-0.585-0.75-1.03
		c-0.197-0.444-0.296-1.049-0.296-1.811V65.66z M193.583,78.106V45.353c0-0.733-0.099-1.343-0.296-1.834
		c-0.198-0.488-0.459-0.873-0.784-1.152c-0.326-0.279-0.697-0.457-1.115-0.536c-0.419-0.078-0.861-0.055-1.326,0.069
		s-0.912,0.34-1.342,0.646c-0.43,0.307-0.809,0.686-1.133,1.139c-0.326,0.454-0.588,0.979-0.785,1.573
		c-0.197,0.597-0.297,1.26-0.297,1.992v7.343c-0.604-0.483-1.296-0.804-2.074-0.961c-0.779-0.158-1.656-0.106-2.632,0.155
		c-1.162,0.312-2.254,0.802-3.277,1.472c-1.023,0.669-1.924,1.578-2.703,2.724c-0.778,1.148-1.394,2.559-1.848,4.233
		c-0.453,1.675-0.68,3.671-0.68,5.985v3.957c0,2.315,0.227,4.188,0.68,5.621c0.454,1.433,1.069,2.514,1.848,3.241
		c0.779,0.73,1.68,1.155,2.703,1.277c1.023,0.121,2.115,0.026,3.277-0.285c1.256-0.336,2.376-0.959,3.365-1.868
		c0.988-0.91,1.818-2.012,2.492-3.306l0.385,2.754L193.583,78.106z"/>
	<path fill="none" stroke="#231815" stroke-width="8" stroke-linejoin="round" stroke-miterlimit="9.176" d="M197.645,45.781
		c0.197,0.46,0.459,0.808,0.785,1.042c0.325,0.236,0.709,0.367,1.15,0.396c0.441,0.029,0.906-0.023,1.395-0.154
		c0.488-0.13,0.952-0.327,1.395-0.593c0.441-0.266,0.825-0.603,1.15-1.013c0.326-0.409,0.588-0.896,0.784-1.463
		c0.197-0.564,0.297-1.215,0.297-1.947c0-1.437-0.36-2.373-1.081-2.811c-0.721-0.437-1.568-0.524-2.545-0.263
		s-1.824,0.805-2.545,1.627c-0.721,0.823-1.082,1.953-1.082,3.389C197.348,44.725,197.448,45.321,197.645,45.781z M197.383,77.088
		l7.184-1.924V52.39c0-1.523-0.355-2.543-1.064-3.057c-0.709-0.513-1.551-0.64-2.527-0.378s-1.818,0.84-2.527,1.732
		c-0.709,0.894-1.064,2.103-1.064,3.627V77.088z"/>
	<path fill="none" stroke="#231815" stroke-width="8" stroke-linejoin="round" stroke-miterlimit="9.176" d="M217.85,71.604V52.259
		l1.988-0.532c1.092-0.293,1.877-0.868,2.354-1.729c0.476-0.86,0.715-1.76,0.715-2.697c0-0.468-0.059-0.908-0.175-1.316
		s-0.296-0.756-0.54-1.042c-0.245-0.287-0.559-0.481-0.941-0.584c-0.385-0.102-0.855-0.078-1.412,0.071l-1.988,0.533V43.73
		c0-0.674,0.088-1.166,0.262-1.477c0.174-0.312,0.436-0.513,0.785-0.606c0.162-0.043,0.313-0.076,0.453-0.1
		c0.14-0.022,0.313-0.032,0.523-0.03c0.301-0.021,0.545-0.036,0.731-0.042c0.186-0.006,0.419-0.047,0.698-0.121
		c0.58-0.156,1.08-0.538,1.498-1.149c0.418-0.61,0.709-1.274,0.871-1.991c0.163-0.894,0.158-1.67-0.017-2.326
		c-0.174-0.657-0.564-1.139-1.168-1.446c-0.558-0.289-1.198-0.433-1.917-0.431c-0.722,0.002-1.42,0.094-2.093,0.274
		c-1.255,0.337-2.365,0.803-3.33,1.397c-0.964,0.596-1.772,1.355-2.423,2.276c-0.65,0.922-1.146,2.037-1.481,3.343
		c-0.339,1.307-0.507,2.84-0.507,4.598v0.968l-1.185,0.317c-0.559,0.15-1.034,0.38-1.43,0.691c-0.396,0.311-0.715,0.675-0.959,1.092
		c-0.243,0.417-0.419,0.859-0.522,1.328c-0.105,0.467-0.158,0.937-0.158,1.404c0,0.938,0.239,1.709,0.715,2.314
		c0.477,0.605,1.261,0.761,2.354,0.468l1.185-0.317V73.51L217.85,71.604z"/>
	<path fill="none" stroke="#231815" stroke-width="8" stroke-linejoin="round" stroke-miterlimit="9.176" d="M234.133,67.241V47.896
		l1.988-0.533c1.091-0.292,1.877-0.868,2.353-1.729s0.715-1.76,0.715-2.698c0-0.468-0.058-0.908-0.174-1.315
		c-0.117-0.409-0.297-0.756-0.541-1.043c-0.244-0.286-0.558-0.481-0.94-0.583c-0.385-0.103-0.855-0.079-1.412,0.07l-1.988,0.533
		v-1.231c0-0.674,0.087-1.166,0.262-1.477c0.174-0.311,0.436-0.513,0.784-0.605c0.163-0.044,0.313-0.077,0.453-0.1
		c0.14-0.023,0.313-0.033,0.523-0.031c0.302-0.021,0.546-0.036,0.732-0.042c0.186-0.006,0.418-0.047,0.697-0.121
		c0.581-0.155,1.081-0.538,1.499-1.149c0.418-0.61,0.709-1.273,0.871-1.991c0.162-0.894,0.158-1.67-0.018-2.326
		c-0.174-0.657-0.563-1.139-1.168-1.445c-0.558-0.29-1.197-0.433-1.916-0.432c-0.723,0.003-1.42,0.095-2.093,0.274
		c-1.256,0.337-2.366,0.803-3.331,1.397c-0.963,0.597-1.771,1.355-2.422,2.277c-0.651,0.922-1.146,2.036-1.482,3.342
		c-0.338,1.308-0.506,2.84-0.506,4.598v0.969l-1.186,0.317c-0.558,0.149-1.034,0.38-1.43,0.69s-0.715,0.675-0.959,1.092
		c-0.243,0.418-0.418,0.86-0.521,1.328c-0.105,0.467-0.158,0.937-0.158,1.404c0,0.938,0.238,1.71,0.715,2.315
		s1.261,0.761,2.354,0.468l1.186-0.318v19.346L234.133,67.241z"/>
	<path fill="none" stroke="#231815" stroke-width="8" stroke-linejoin="round" stroke-miterlimit="9.176" d="M251.584,42.406
		c0.36,0.036,0.668,0.174,0.924,0.412c0.256,0.24,0.459,0.581,0.609,1.024c0.151,0.443,0.215,1.034,0.193,1.772l-5.894,1.579
		c0-0.732,0.093-1.365,0.279-1.899c0.185-0.533,0.418-0.99,0.697-1.374c0.279-0.382,0.598-0.688,0.959-0.916
		c0.359-0.229,0.737-0.396,1.134-0.502C250.857,42.403,251.223,42.372,251.584,42.406z M253.118,62.748
		c0.616-0.269,1.197-0.563,1.744-0.885c0.546-0.322,1.033-0.645,1.465-0.965c0.43-0.319,0.783-0.62,1.063-0.899
		c0.837-0.841,1.436-1.755,1.797-2.746c0.359-0.989,0.354-1.978-0.018-2.963c-0.233-0.612-0.6-0.982-1.099-1.113
		c-0.501-0.129-1.052-0.068-1.657,0.182c-0.302,0.14-0.587,0.311-0.854,0.515c-0.268,0.203-0.529,0.398-0.784,0.583
		c-0.466,0.33-0.931,0.601-1.395,0.813c-0.466,0.212-1.128,0.435-1.988,0.665c-0.418,0.112-0.859,0.164-1.325,0.157
		c-0.465-0.008-0.895-0.12-1.289-0.337c-0.396-0.216-0.721-0.539-0.977-0.969s-0.384-1.025-0.384-1.788v-0.044l12.482-3.345
		c0.046-0.393,0.087-0.858,0.122-1.396c0.035-0.536,0.052-0.995,0.052-1.377c0-2.901-0.272-5.195-0.819-6.881
		s-1.271-2.919-2.179-3.702c-0.905-0.783-1.935-1.203-3.086-1.263c-1.15-0.057-2.33,0.076-3.538,0.399
		c-1.117,0.3-2.262,0.804-3.436,1.514s-2.243,1.663-3.207,2.859c-0.965,1.198-1.756,2.655-2.371,4.373
		c-0.615,1.719-0.924,3.75-0.924,6.095v3.869c0,2.286,0.318,4.128,0.959,5.524c0.639,1.397,1.475,2.427,2.51,3.087
		c1.034,0.661,2.19,1.025,3.469,1.093s2.546-0.066,3.801-0.403C251.881,63.233,252.502,63.016,253.118,62.748z"/>
	<path fill="none" stroke="#231815" stroke-width="8" stroke-linejoin="round" stroke-miterlimit="9.176" d="M270.29,57.553V42.077
		c0.047-1.126,0.344-2.084,0.889-2.876c0.547-0.791,1.309-1.361,2.285-1.711c0.255-0.098,0.522-0.176,0.802-0.236
		c0.278-0.061,0.546-0.125,0.802-0.193c0.767-0.205,1.436-0.693,2.005-1.461c0.569-0.769,0.912-1.68,1.028-2.737
		c0.116-1.057,0.006-1.951-0.331-2.682c-0.337-0.729-0.843-1.181-1.517-1.352c-0.256-0.078-0.529-0.101-0.82-0.066
		c-0.29,0.034-0.563,0.085-0.818,0.153c-0.861,0.23-1.686,0.672-2.477,1.323c-0.789,0.651-1.51,1.445-2.161,2.382
		c-0.302-0.739-0.749-1.235-1.343-1.487c-0.592-0.252-1.226-0.287-1.9-0.106c-0.465,0.125-0.905,0.339-1.324,0.642
		c-0.418,0.302-0.791,0.681-1.116,1.134c-0.325,0.454-0.587,0.979-0.784,1.573c-0.197,0.597-0.297,1.26-0.297,1.992V59.45
		L270.29,57.553z"/>
	<path fill="none" stroke="#231815" stroke-width="8" stroke-linejoin="round" stroke-miterlimit="9.176" d="M290.705,31.925
		c0.36,0.035,0.667,0.173,0.924,0.412c0.256,0.239,0.458,0.581,0.61,1.023c0.15,0.443,0.215,1.035,0.191,1.772l-5.893,1.579
		c0-0.731,0.093-1.365,0.279-1.898c0.186-0.533,0.418-0.991,0.697-1.375c0.279-0.382,0.598-0.687,0.959-0.916
		c0.359-0.228,0.737-0.396,1.133-0.502C289.977,31.922,290.343,31.89,290.705,31.925z M292.239,52.266
		c0.615-0.269,1.197-0.563,1.743-0.885c0.546-0.322,1.034-0.645,1.464-0.965c0.431-0.319,0.785-0.62,1.064-0.899
		c0.836-0.841,1.436-1.755,1.795-2.745c0.361-0.99,0.355-1.979-0.018-2.964c-0.232-0.611-0.598-0.982-1.098-1.112
		c-0.5-0.129-1.052-0.069-1.656,0.181c-0.303,0.14-0.588,0.311-0.854,0.515c-0.268,0.203-0.529,0.398-0.785,0.584
		c-0.465,0.329-0.93,0.6-1.395,0.813c-0.466,0.213-1.129,0.435-1.988,0.665c-0.418,0.112-0.859,0.164-1.324,0.157
		c-0.465-0.008-0.895-0.119-1.29-0.337c-0.396-0.216-0.721-0.539-0.977-0.969c-0.257-0.43-0.384-1.025-0.384-1.788v-0.043
		l12.482-3.345c0.047-0.394,0.088-0.859,0.122-1.396c0.034-0.536,0.052-0.995,0.052-1.376c0-2.902-0.273-5.195-0.818-6.882
		c-0.547-1.685-1.272-2.919-2.18-3.702c-0.906-0.783-1.935-1.203-3.086-1.263c-1.15-0.057-2.33,0.076-3.538,0.399
		c-1.116,0.3-2.261,0.804-3.435,1.514c-1.175,0.711-2.244,1.664-3.208,2.86c-0.966,1.197-1.755,2.654-2.372,4.372
		c-0.615,1.719-0.923,3.75-0.923,6.095v3.869c0,2.286,0.319,4.128,0.959,5.525c0.639,1.396,1.476,2.426,2.511,3.086
		c1.033,0.661,2.189,1.025,3.469,1.093c1.277,0.067,2.545-0.066,3.801-0.402C291.001,52.751,291.623,52.533,292.239,52.266z"/>
	<path fill="none" stroke="#231815" stroke-width="8" stroke-linejoin="round" stroke-miterlimit="9.176" d="M309.411,47.071v-15.96
		c0-0.732,0.087-1.379,0.262-1.939c0.174-0.559,0.4-1.037,0.68-1.435c0.278-0.396,0.58-0.705,0.906-0.924
		c0.325-0.219,0.639-0.369,0.941-0.45c0.302-0.081,0.615-0.099,0.941-0.055c0.325,0.045,0.621,0.192,0.889,0.443
		s0.488,0.609,0.663,1.075c0.174,0.467,0.261,1.066,0.261,1.799v15.96l7.184-1.925V28.229c0-2.314-0.209-4.193-0.627-5.635
		c-0.419-1.441-0.982-2.528-1.691-3.262s-1.547-1.161-2.512-1.284c-0.965-0.122-2.004-0.034-3.12,0.265
		c-0.929,0.249-1.843,0.699-2.736,1.349c-0.896,0.65-1.681,1.461-2.354,2.434c-0.303-0.711-0.749-1.191-1.342-1.443
		c-0.593-0.251-1.227-0.286-1.9-0.105c-0.466,0.124-0.906,0.338-1.325,0.641s-0.79,0.681-1.116,1.134
		c-0.325,0.454-0.587,0.979-0.784,1.573c-0.198,0.597-0.296,1.26-0.296,1.992v23.082L309.411,47.071z"/>
	<path fill="none" stroke="#231815" stroke-width="8" stroke-linejoin="round" stroke-miterlimit="9.176" d="M332.422,25.561
		c0-0.938,0.104-1.734,0.314-2.393c0.208-0.655,0.481-1.198,0.818-1.625c0.338-0.428,0.703-0.761,1.099-0.998
		c0.396-0.238,0.79-0.41,1.187-0.516c0.533-0.144,0.964-0.215,1.289-0.215c0.326,0.001,0.662,0.058,1.012,0.169
		c0.255,0.079,0.517,0.155,0.784,0.23s0.563,0.099,0.89,0.069c0.557-0.062,1.086-0.262,1.586-0.602
		c0.5-0.339,0.912-0.918,1.238-1.738c0.232-0.561,0.354-1.099,0.366-1.615c0.011-0.516-0.06-1.002-0.21-1.46
		c-0.151-0.458-0.377-0.859-0.68-1.203s-0.662-0.621-1.081-0.832c-0.558-0.289-1.29-0.489-2.196-0.598
		c-0.907-0.109-1.988,0.005-3.242,0.341c-1.21,0.324-2.43,0.855-3.662,1.597c-1.232,0.74-2.342,1.712-3.33,2.914
		c-0.988,1.203-1.795,2.665-2.422,4.387c-0.629,1.723-0.942,3.74-0.942,6.056v3.869c0,2.374,0.313,4.254,0.942,5.639
		c0.627,1.386,1.446,2.412,2.457,3.079c1.012,0.667,2.15,1.021,3.418,1.063c1.266,0.042,2.527-0.105,3.783-0.442
		c1.185-0.317,2.253-0.802,3.207-1.452c0.953-0.651,1.754-1.313,2.406-1.986c0.418-0.435,0.777-0.912,1.08-1.433
		s0.528-1.057,0.68-1.611c0.151-0.553,0.21-1.096,0.176-1.63c-0.036-0.531-0.17-1.017-0.402-1.452
		c-0.303-0.535-0.691-0.855-1.168-0.963c-0.477-0.106-0.971-0.031-1.481,0.222c-0.325,0.146-0.628,0.353-0.906,0.616
		c-0.278,0.267-0.546,0.506-0.803,0.722c-0.464,0.387-0.901,0.688-1.307,0.899c-0.407,0.212-0.901,0.395-1.481,0.551
		c-0.396,0.105-0.797,0.146-1.204,0.124c-0.406-0.022-0.772-0.159-1.099-0.408c-0.325-0.25-0.593-0.647-0.801-1.192
		c-0.21-0.544-0.314-1.286-0.314-2.225V25.561z"/>
	<path fill="none" stroke="#231815" stroke-width="8" stroke-linejoin="round" stroke-miterlimit="9.176" d="M356.987,14.164
		c0.359,0.036,0.667,0.174,0.923,0.412c0.256,0.24,0.459,0.581,0.61,1.024c0.15,0.442,0.215,1.034,0.192,1.772l-5.894,1.579
		c0-0.732,0.094-1.366,0.279-1.899s0.418-0.991,0.697-1.374s0.599-0.688,0.959-0.917c0.359-0.228,0.738-0.395,1.134-0.501
		C356.259,14.161,356.625,14.13,356.987,14.164z M358.52,34.506c0.615-0.269,1.197-0.563,1.744-0.885
		c0.545-0.322,1.033-0.645,1.464-0.965c0.43-0.319,0.784-0.62,1.063-0.9c0.836-0.84,1.436-1.754,1.796-2.745
		c0.36-0.99,0.354-1.978-0.018-2.963c-0.233-0.612-0.599-0.982-1.099-1.113c-0.5-0.129-1.051-0.069-1.656,0.181
		c-0.303,0.141-0.588,0.312-0.854,0.515c-0.268,0.203-0.529,0.399-0.785,0.584c-0.465,0.33-0.93,0.601-1.395,0.813
		c-0.465,0.213-1.128,0.436-1.988,0.666c-0.418,0.111-0.859,0.164-1.324,0.157c-0.465-0.008-0.895-0.12-1.29-0.337
		c-0.396-0.216-0.72-0.539-0.977-0.97c-0.256-0.429-0.384-1.024-0.384-1.787v-0.044l12.483-3.345
		c0.046-0.394,0.087-0.858,0.122-1.396c0.034-0.536,0.052-0.996,0.052-1.377c0-2.901-0.273-5.195-0.819-6.881
		c-0.547-1.686-1.271-2.92-2.18-3.702c-0.905-0.783-1.934-1.203-3.086-1.263c-1.15-0.057-2.33,0.076-3.537,0.399
		c-1.117,0.299-2.262,0.804-3.436,1.514s-2.244,1.663-3.208,2.859c-0.965,1.198-1.755,2.655-2.371,4.373
		c-0.615,1.719-0.923,3.75-0.923,6.095v3.869c0,2.285,0.318,4.128,0.959,5.524c0.639,1.397,1.475,2.426,2.51,3.087
		c1.033,0.661,2.189,1.024,3.469,1.092c1.277,0.068,2.545-0.065,3.801-0.402C357.283,34.991,357.904,34.773,358.52,34.506z"/>
	<g>
		<path fill="#FFFFFF" d="M13.564,101.238c-0.023,0.827,0.349,1.431,1.115,1.812c0.768,0.381,1.849,0.678,3.243,0.89l1.708,0.29
			c1.022,0.195,1.946,0.533,2.771,1.016s1.528,1.123,2.11,1.919c0.581,0.798,1.011,1.751,1.29,2.864
			c0.279,1.111,0.383,2.381,0.314,3.807c-0.163,3.181-1.168,5.883-3.016,8.105c-1.848,2.225-4.365,3.764-7.549,4.617
			c-1.558,0.417-3.057,0.605-4.498,0.568c-1.441-0.039-2.638-0.399-3.591-1.083c-0.326-0.265-0.605-0.592-0.837-0.984
			c-0.232-0.392-0.401-0.822-0.505-1.294c-0.104-0.47-0.122-0.985-0.052-1.546c0.07-0.561,0.232-1.125,0.488-1.691
			c0.256-0.566,0.616-1.045,1.081-1.433c0.465-0.389,0.93-0.66,1.395-0.813c0.604-0.191,1.087-0.204,1.447-0.036
			c0.36,0.167,0.703,0.324,1.029,0.471c0.395,0.218,0.906,0.352,1.534,0.402c0.627,0.052,1.534-0.08,2.719-0.398
			c0.977-0.262,1.731-0.684,2.267-1.266c0.534-0.584,0.813-1.362,0.836-2.335c0-0.41-0.128-0.772-0.383-1.085
			c-0.256-0.313-0.623-0.565-1.099-0.762c-0.477-0.193-1.029-0.36-1.656-0.5c-0.627-0.141-1.302-0.26-2.022-0.359
			c-0.279-0.043-0.576-0.096-0.89-0.158c-0.313-0.062-0.575-0.123-0.784-0.186c-1.325-0.348-2.395-0.934-3.208-1.756
			c-0.814-0.822-1.425-1.787-1.831-2.896c-0.407-1.106-0.617-2.304-0.628-3.591c-0.012-1.286,0.134-2.541,0.436-3.766
			c0.604-2.536,1.726-4.668,3.365-6.397c1.638-1.729,3.655-2.913,6.049-3.555c0.906-0.243,1.703-0.405,2.388-0.486
			s1.291-0.11,1.813-0.091c0.522,0.022,0.976,0.09,1.36,0.208c0.383,0.117,0.737,0.235,1.063,0.352
			c0.813,0.34,1.447,0.946,1.901,1.821c0.453,0.875,0.552,1.874,0.296,2.998c-0.232,0.972-0.622,1.721-1.168,2.248
			c-0.546,0.527-1.157,0.881-1.831,1.062c-0.256,0.069-0.546,0.088-0.872,0.058c-0.326-0.029-0.57-0.096-0.732-0.199
			c-0.418-0.239-0.953-0.404-1.604-0.494c-0.651-0.089-1.5,0.007-2.545,0.287c-0.837,0.225-1.494,0.613-1.97,1.165
			C13.837,99.59,13.587,100.324,13.564,101.238z"/>
		<path fill="#FFFFFF" d="M28.662,130.036v-30.82c0-0.732,0.099-1.396,0.297-1.992c0.197-0.595,0.458-1.119,0.784-1.573
			c0.326-0.453,0.698-0.831,1.116-1.134c0.418-0.303,0.859-0.517,1.325-0.642c0.674-0.181,1.307-0.144,1.9,0.107
			c0.593,0.251,1.04,0.731,1.342,1.442c0.674-0.972,1.458-1.783,2.354-2.433c0.895-0.65,1.784-1.095,2.667-1.331
			c1.139-0.305,2.225-0.398,3.26-0.279c1.034,0.118,1.94,0.542,2.72,1.271c0.779,0.729,1.395,1.812,1.848,3.242
			c0.454,1.433,0.68,3.306,0.68,5.622v3.957c0,2.314-0.226,4.311-0.68,5.985c-0.453,1.675-1.069,3.085-1.848,4.231
			c-0.779,1.147-1.686,2.058-2.72,2.73c-1.035,0.672-2.121,1.16-3.26,1.466c-0.884,0.237-1.721,0.308-2.511,0.212
			c-0.791-0.096-1.523-0.348-2.196-0.752v8.793L28.662,130.036z M41.772,102.825c0-0.732-0.099-1.328-0.296-1.789
			c-0.198-0.459-0.448-0.811-0.75-1.053c-0.302-0.241-0.627-0.381-0.977-0.42c-0.349-0.038-0.674-0.017-0.976,0.064
			c-0.302,0.081-0.633,0.235-0.994,0.464s-0.692,0.545-0.994,0.948c-0.302,0.404-0.552,0.889-0.75,1.453
			c-0.197,0.566-0.296,1.217-0.296,1.949v5.406c0.022,0.698,0.139,1.26,0.349,1.688c0.209,0.427,0.458,0.749,0.75,0.964
			c0.291,0.215,0.61,0.342,0.958,0.38c0.349,0.038,0.674,0.018,0.977-0.063c0.302-0.081,0.627-0.234,0.976-0.46
			c0.349-0.226,0.674-0.539,0.977-0.942c0.302-0.402,0.552-0.88,0.75-1.432c0.197-0.551,0.296-1.208,0.296-1.971V102.825z"/>
		<path fill="#FFFFFF" d="M51.883,100.688c0-2.374,0.302-4.419,0.906-6.135c0.604-1.714,1.395-3.172,2.371-4.372
			c0.976-1.199,2.063-2.149,3.26-2.853c1.197-0.7,2.389-1.211,3.574-1.528c1.162-0.312,2.342-0.437,3.539-0.377
			c1.197,0.061,2.284,0.429,3.261,1.104c0.976,0.677,1.772,1.71,2.388,3.098c0.616,1.389,0.924,3.27,0.924,5.644v4.045
			c0,2.374-0.309,4.421-0.924,6.14c-0.616,1.719-1.412,3.177-2.388,4.376c-0.977,1.2-2.063,2.15-3.261,2.853
			c-1.197,0.701-2.376,1.209-3.539,1.521c-1.163,0.312-2.342,0.436-3.539,0.376c-1.198-0.061-2.284-0.429-3.26-1.105
			c-0.976-0.676-1.773-1.707-2.388-3.097c-0.616-1.389-0.924-3.27-0.924-5.644V100.688z M65.098,96.751
			c0-0.792-0.093-1.433-0.279-1.926c-0.186-0.492-0.424-0.876-0.715-1.149s-0.622-0.44-0.994-0.503
			c-0.372-0.061-0.744-0.042-1.116,0.058c-0.372,0.1-0.744,0.28-1.116,0.54c-0.372,0.262-0.703,0.606-0.994,1.035
			c-0.291,0.43-0.529,0.941-0.715,1.533c-0.186,0.593-0.279,1.283-0.279,2.075v4.836c0,0.791,0.093,1.434,0.279,1.925
			c0.186,0.494,0.424,0.876,0.715,1.15c0.291,0.274,0.622,0.442,0.994,0.503c0.372,0.063,0.744,0.043,1.116-0.057
			c0.372-0.1,0.744-0.28,1.116-0.542c0.372-0.26,0.703-0.604,0.994-1.034c0.291-0.431,0.529-0.94,0.715-1.533
			c0.186-0.592,0.279-1.284,0.279-2.075V96.751z"/>
		<path fill="#FFFFFF" d="M77.789,89.789l-1.15,0.308c-1.093,0.293-1.877,0.138-2.354-0.468c-0.477-0.604-0.715-1.376-0.715-2.315
			c0-0.439,0.052-0.893,0.157-1.359c0.104-0.468,0.279-0.911,0.523-1.328c0.244-0.417,0.563-0.789,0.958-1.114
			c0.395-0.325,0.872-0.563,1.43-0.712l1.15-0.309v-4.572c0-0.732,0.099-1.404,0.297-2.014c0.197-0.609,0.458-1.135,0.784-1.574
			c0.325-0.438,0.691-0.8,1.099-1.085c0.406-0.284,0.831-0.487,1.272-0.605c0.441-0.118,0.865-0.144,1.272-0.076
			c0.406,0.066,0.772,0.232,1.098,0.496c0.326,0.265,0.587,0.649,0.785,1.153c0.197,0.504,0.296,1.123,0.296,1.855v4.572
			l2.058-0.552c0.557-0.149,1.028-0.166,1.412-0.049c0.383,0.116,0.697,0.319,0.941,0.604c0.244,0.287,0.423,0.635,0.54,1.043
			c0.116,0.408,0.174,0.832,0.174,1.271c0,0.938-0.239,1.839-0.714,2.699c-0.477,0.859-1.261,1.436-2.354,1.729l-2.058,0.552v10.903
			c0,0.675,0.11,1.084,0.331,1.23c0.221,0.146,0.482,0.193,0.785,0.141c0.255-0.039,0.488-0.122,0.697-0.253
			c0.209-0.128,0.488-0.24,0.837-0.333c0.581-0.156,1.092-0.073,1.534,0.248c0.441,0.32,0.72,0.833,0.837,1.534
			c0.163,0.866,0.11,1.686-0.157,2.46c-0.268,0.775-0.646,1.434-1.133,1.975c-0.396,0.428-0.896,0.841-1.5,1.236
			c-0.604,0.396-1.209,0.676-1.813,0.838c-1.163,0.312-2.196,0.428-3.104,0.348c-0.906-0.079-1.673-0.387-2.301-0.921
			c-0.627-0.536-1.104-1.331-1.429-2.388c-0.326-1.055-0.488-2.419-0.488-4.09V89.789z"/>
		<path fill="#FFFFFF" d="M103.974,82.772l-1.15,0.309c-1.093,0.293-1.877,0.137-2.354-0.468c-0.477-0.604-0.715-1.377-0.715-2.315
			c0-0.439,0.052-0.893,0.157-1.36c0.104-0.468,0.279-0.911,0.523-1.328c0.244-0.417,0.563-0.788,0.959-1.114
			c0.395-0.325,0.872-0.563,1.429-0.712l1.15-0.309v-4.572c0-0.732,0.099-1.404,0.297-2.014c0.197-0.609,0.458-1.135,0.784-1.573
			c0.326-0.439,0.691-0.801,1.099-1.086c0.406-0.284,0.831-0.487,1.272-0.605c0.441-0.118,0.865-0.143,1.272-0.076
			c0.407,0.066,0.772,0.232,1.099,0.496c0.325,0.265,0.586,0.65,0.784,1.153c0.198,0.504,0.296,1.123,0.296,1.855v4.572l2.058-0.552
			c0.558-0.148,1.028-0.166,1.412-0.049c0.383,0.117,0.697,0.319,0.941,0.605c0.244,0.286,0.423,0.635,0.54,1.043
			c0.116,0.408,0.174,0.832,0.174,1.271c0,0.938-0.239,1.838-0.714,2.698c-0.477,0.86-1.261,1.437-2.354,1.729l-2.058,0.551v10.903
			c0,0.675,0.11,1.085,0.332,1.23c0.221,0.146,0.482,0.193,0.784,0.142c0.255-0.039,0.488-0.123,0.697-0.254
			c0.209-0.128,0.488-0.24,0.837-0.333c0.581-0.155,1.092-0.073,1.534,0.248c0.441,0.321,0.72,0.833,0.837,1.534
			c0.163,0.866,0.11,1.686-0.157,2.46c-0.268,0.775-0.645,1.434-1.133,1.975c-0.396,0.429-0.895,0.841-1.5,1.237
			s-1.208,0.676-1.813,0.837c-1.163,0.312-2.196,0.428-3.104,0.349c-0.906-0.08-1.673-0.387-2.301-0.922
			c-0.627-0.536-1.104-1.331-1.43-2.388c-0.326-1.055-0.488-2.419-0.488-4.09V82.772z"/>
		<path fill="#FFFFFF" d="M130.892,94.905V78.99c0-0.732-0.093-1.331-0.279-1.795c-0.187-0.462-0.418-0.817-0.698-1.065
			c-0.279-0.248-0.587-0.393-0.924-0.435c-0.337-0.042-0.657-0.021-0.959,0.06c-0.302,0.081-0.622,0.232-0.959,0.454
			c-0.337,0.223-0.645,0.519-0.924,0.886c-0.279,0.368-0.511,0.818-0.697,1.352c-0.187,0.533-0.291,1.155-0.314,1.865v16.135
			l-7.078,1.896V65.589c0-0.732,0.098-1.396,0.296-1.992c0.198-0.595,0.459-1.119,0.785-1.572c0.325-0.453,0.703-0.833,1.133-1.14
			c0.43-0.305,0.877-0.521,1.343-0.646c0.464-0.124,0.906-0.146,1.325-0.069c0.418,0.079,0.79,0.258,1.116,0.537
			c0.325,0.278,0.587,0.663,0.785,1.151c0.197,0.49,0.296,1.102,0.296,1.834v7.386c0.604-0.835,1.296-1.54,2.075-2.116
			c0.779-0.575,1.633-0.987,2.563-1.236c1.139-0.306,2.214-0.396,3.225-0.271c1.011,0.124,1.889,0.557,2.632,1.294
			c0.744,0.74,1.336,1.827,1.779,3.262c0.441,1.436,0.662,3.311,0.662,5.626V92.98L130.892,94.905z"/>
		<path fill="#FFFFFF" d="M151.917,90.019c-1.256,0.336-2.523,0.471-3.801,0.403s-2.435-0.432-3.469-1.093
			c-1.035-0.66-1.872-1.689-2.511-3.086c-0.64-1.396-0.959-3.238-0.959-5.525v-3.869c0-2.344,0.308-4.376,0.924-6.095
			c0.615-1.718,1.406-3.176,2.371-4.372s2.034-2.15,3.208-2.86c1.173-0.71,2.319-1.215,3.435-1.514
			c1.208-0.323,2.388-0.456,3.539-0.398c1.15,0.059,2.179,0.479,3.085,1.262c0.907,0.782,1.633,2.018,2.18,3.702
			c0.545,1.686,0.819,3.979,0.819,6.881c0,0.381-0.017,0.84-0.052,1.377c-0.035,0.537-0.075,1.002-0.122,1.396l-12.482,3.345v0.044
			c0,0.763,0.127,1.358,0.383,1.788c0.255,0.431,0.581,0.754,0.976,0.97c0.395,0.217,0.825,0.328,1.29,0.335
			c0.465,0.008,0.907-0.045,1.325-0.156c0.859-0.23,1.522-0.452,1.987-0.665c0.464-0.212,0.93-0.483,1.395-0.813
			c0.256-0.187,0.517-0.381,0.785-0.585c0.267-0.203,0.552-0.374,0.854-0.515c0.604-0.25,1.156-0.31,1.656-0.179
			c0.5,0.129,0.866,0.5,1.099,1.111c0.372,0.985,0.378,1.973,0.018,2.963c-0.361,0.992-0.959,1.906-1.796,2.746
			c-0.279,0.28-0.634,0.58-1.063,0.9c-0.431,0.32-0.919,0.642-1.464,0.964c-0.547,0.322-1.128,0.616-1.743,0.885
			C153.165,89.633,152.543,89.851,151.917,90.019z M151.149,69.122c-0.395,0.105-0.773,0.271-1.133,0.5
			c-0.361,0.229-0.68,0.534-0.959,0.917c-0.279,0.383-0.512,0.841-0.697,1.374c-0.187,0.533-0.279,1.167-0.279,1.898l5.892-1.578
			c0.023-0.738-0.041-1.33-0.191-1.773c-0.151-0.443-0.355-0.784-0.61-1.023c-0.256-0.239-0.564-0.377-0.924-0.412
			C151.887,68.989,151.521,69.022,151.149,69.122z"/>
		<path fill="#FFFFFF" d="M188.038,79.593l-0.383-2.755c-0.674,1.295-1.506,2.396-2.493,3.306c-0.989,0.909-2.11,1.532-3.365,1.868
			c-1.163,0.312-2.255,0.407-3.278,0.286c-1.023-0.122-1.923-0.548-2.703-1.277c-0.778-0.729-1.394-1.809-1.848-3.241
			c-0.453-1.433-0.679-3.307-0.679-5.622V68.2c0-2.315,0.227-4.311,0.679-5.985c0.454-1.675,1.07-3.085,1.848-4.232
			c0.779-1.146,1.679-2.055,2.703-2.724c1.022-0.67,2.115-1.161,3.278-1.473c0.976-0.262,1.854-0.313,2.632-0.155
			c0.779,0.158,1.47,0.478,2.075,0.96v-7.342c0-0.732,0.098-1.396,0.296-1.992c0.197-0.595,0.458-1.119,0.785-1.572
			c0.324-0.453,0.702-0.833,1.133-1.14c0.431-0.305,0.877-0.521,1.343-0.645c0.465-0.125,0.906-0.147,1.324-0.07
			c0.418,0.079,0.79,0.259,1.116,0.537c0.325,0.279,0.587,0.663,0.784,1.152c0.197,0.49,0.296,1.102,0.296,1.834v32.754
			L188.038,79.593z M180.472,70.849c0,0.763,0.099,1.365,0.296,1.811c0.197,0.446,0.447,0.79,0.75,1.031
			c0.302,0.241,0.627,0.381,0.976,0.419c0.349,0.038,0.674,0.018,0.977-0.063c0.302-0.081,0.622-0.233,0.958-0.455
			c0.336-0.223,0.656-0.52,0.959-0.894c0.302-0.374,0.558-0.831,0.767-1.371c0.21-0.54,0.326-1.164,0.35-1.874v-5.627
			c-0.023-0.698-0.14-1.261-0.35-1.688c-0.209-0.427-0.465-0.746-0.767-0.959c-0.303-0.211-0.623-0.339-0.959-0.381
			c-0.337-0.042-0.657-0.021-0.958,0.06c-0.303,0.081-0.627,0.233-0.977,0.459c-0.349,0.225-0.674,0.54-0.976,0.943
			c-0.303,0.404-0.553,0.889-0.75,1.453c-0.197,0.566-0.296,1.217-0.296,1.949V70.849z"/>
		<path fill="#FFFFFF" d="M197.347,43.993c0-1.438,0.36-2.566,1.081-3.39c0.72-0.823,1.568-1.366,2.545-1.628
			c0.977-0.261,1.824-0.173,2.546,0.264c0.72,0.438,1.08,1.373,1.08,2.811c0,0.732-0.099,1.382-0.296,1.947
			s-0.459,1.054-0.784,1.463c-0.326,0.41-0.709,0.748-1.15,1.012c-0.442,0.266-0.907,0.463-1.396,0.594
			c-0.487,0.131-0.953,0.183-1.395,0.153c-0.441-0.026-0.824-0.159-1.15-0.395c-0.325-0.235-0.588-0.583-0.785-1.043
			S197.347,44.726,197.347,43.993z M197.382,54.314c0-1.523,0.354-2.732,1.063-3.626c0.709-0.893,1.551-1.471,2.527-1.732
			s1.818-0.135,2.528,0.378s1.063,1.532,1.063,3.056v22.774l-7.183,1.925V54.314z"/>
		<path fill="#FFFFFF" d="M210.737,73.511V54.165l-1.186,0.318c-1.093,0.293-1.877,0.137-2.354-0.469
			c-0.477-0.604-0.715-1.376-0.715-2.314c0-0.468,0.053-0.938,0.156-1.404c0.105-0.468,0.279-0.911,0.523-1.328
			c0.245-0.417,0.564-0.78,0.959-1.092c0.395-0.311,0.871-0.541,1.43-0.69l1.186-0.317v-0.969c0-1.758,0.168-3.291,0.506-4.597
			c0.336-1.306,0.83-2.421,1.481-3.343c0.65-0.922,1.459-1.681,2.423-2.277c0.965-0.594,2.076-1.061,3.33-1.396
			c0.674-0.181,1.371-0.271,2.092-0.275c0.721-0.002,1.36,0.141,1.918,0.432c0.604,0.308,0.994,0.789,1.169,1.445
			c0.173,0.656,0.179,1.433,0.017,2.325c-0.163,0.719-0.453,1.382-0.871,1.993c-0.419,0.61-0.919,0.992-1.499,1.148
			c-0.279,0.074-0.513,0.115-0.698,0.121s-0.43,0.021-0.732,0.042c-0.209-0.001-0.383,0.009-0.521,0.03
			c-0.141,0.023-0.292,0.057-0.454,0.1c-0.349,0.094-0.61,0.295-0.785,0.605c-0.173,0.312-0.261,0.804-0.261,1.478v1.231
			l1.987-0.532c0.558-0.149,1.028-0.173,1.412-0.071c0.384,0.103,0.696,0.297,0.941,0.583c0.244,0.286,0.423,0.635,0.54,1.042
			c0.116,0.409,0.175,0.849,0.175,1.316c0,0.938-0.239,1.838-0.715,2.698c-0.477,0.86-1.261,1.437-2.354,1.729l-1.987,0.532v19.345
			L210.737,73.511z"/>
		<path fill="#FFFFFF" d="M227.02,69.147V49.803l-1.187,0.317c-1.093,0.293-1.877,0.137-2.354-0.468
			c-0.478-0.604-0.715-1.377-0.715-2.315c0-0.468,0.052-0.937,0.157-1.404c0.104-0.467,0.279-0.91,0.523-1.327
			s0.563-0.781,0.958-1.092c0.396-0.312,0.872-0.542,1.43-0.691l1.187-0.317v-0.968c0-1.759,0.168-3.291,0.505-4.598
			c0.336-1.306,0.83-2.421,1.481-3.343c0.65-0.922,1.459-1.68,2.423-2.276c0.965-0.595,2.075-1.062,3.33-1.397
			c0.675-0.181,1.371-0.271,2.092-0.275c0.721-0.002,1.36,0.142,1.918,0.432c0.604,0.308,0.994,0.789,1.169,1.445
			c0.174,0.657,0.179,1.433,0.017,2.326c-0.163,0.719-0.452,1.382-0.872,1.992c-0.418,0.611-0.918,0.993-1.498,1.148
			c-0.279,0.075-0.513,0.116-0.698,0.122c-0.187,0.006-0.431,0.021-0.731,0.042c-0.21-0.002-0.385,0.008-0.523,0.03
			s-0.291,0.056-0.453,0.099c-0.35,0.094-0.611,0.296-0.785,0.606c-0.174,0.312-0.262,0.804-0.262,1.478v1.23l1.988-0.532
			c0.557-0.149,1.027-0.173,1.412-0.07c0.384,0.102,0.697,0.296,0.941,0.583c0.244,0.285,0.424,0.634,0.54,1.042
			s0.175,0.848,0.175,1.315c0,0.938-0.238,1.839-0.715,2.699c-0.477,0.859-1.262,1.436-2.354,1.729l-1.988,0.533v19.344
			L227.02,69.147z"/>
		<path fill="#FFFFFF" d="M251.251,63.401c-1.255,0.336-2.522,0.471-3.8,0.403c-1.279-0.067-2.436-0.432-3.471-1.093
			c-1.033-0.66-1.871-1.689-2.51-3.086s-0.959-3.238-0.959-5.524v-3.869c0-2.345,0.309-4.377,0.924-6.096
			c0.617-1.718,1.407-3.176,2.372-4.372c0.964-1.196,2.034-2.15,3.207-2.859c1.173-0.711,2.319-1.216,3.435-1.515
			c1.209-0.323,2.389-0.456,3.539-0.398c1.15,0.059,2.18,0.479,3.086,1.263c0.906,0.782,1.633,2.018,2.179,3.701
			c0.546,1.687,0.819,3.979,0.819,6.882c0,0.381-0.017,0.839-0.052,1.376c-0.034,0.537-0.076,1.003-0.122,1.396l-12.482,3.344v0.045
			c0,0.762,0.127,1.357,0.383,1.787c0.256,0.431,0.582,0.754,0.977,0.97c0.396,0.217,0.824,0.328,1.291,0.335
			c0.464,0.008,0.906-0.045,1.324-0.156c0.86-0.23,1.522-0.452,1.987-0.664c0.466-0.213,0.929-0.484,1.396-0.813
			c0.254-0.186,0.517-0.381,0.783-0.584c0.268-0.204,0.553-0.375,0.855-0.516c0.604-0.249,1.155-0.31,1.656-0.179
			c0.498,0.13,0.865,0.5,1.098,1.111c0.371,0.986,0.377,1.974,0.018,2.964c-0.361,0.991-0.959,1.905-1.795,2.745
			c-0.279,0.28-0.635,0.58-1.064,0.9s-0.918,0.642-1.465,0.964c-0.545,0.322-1.127,0.616-1.742,0.885
			C252.501,63.016,251.879,63.233,251.251,63.401z M250.485,42.505c-0.396,0.105-0.773,0.271-1.133,0.5
			c-0.361,0.229-0.681,0.534-0.959,0.918c-0.279,0.382-0.512,0.84-0.697,1.373c-0.188,0.533-0.279,1.168-0.279,1.898l5.893-1.578
			c0.022-0.738-0.041-1.33-0.191-1.773c-0.152-0.442-0.355-0.783-0.611-1.022c-0.255-0.24-0.563-0.378-0.924-0.413
			S250.856,42.405,250.485,42.505z"/>
		<path fill="#FFFFFF" d="M263.21,59.45V36.368c0-0.732,0.099-1.396,0.296-1.992c0.197-0.594,0.459-1.119,0.785-1.573
			c0.325-0.453,0.697-0.831,1.115-1.134s0.859-0.517,1.326-0.641c0.674-0.182,1.307-0.145,1.899,0.106s1.04,0.748,1.343,1.486
			c0.65-0.937,1.371-1.729,2.162-2.382c0.789-0.651,1.614-1.092,2.475-1.322c0.256-0.069,0.529-0.12,0.82-0.154
			c0.29-0.033,0.563-0.011,0.819,0.066c0.673,0.172,1.179,0.622,1.516,1.353s0.448,1.624,0.332,2.681
			c-0.116,1.059-0.459,1.97-1.028,2.738c-0.57,0.768-1.238,1.254-2.005,1.46c-0.257,0.069-0.524,0.134-0.802,0.193
			c-0.279,0.06-0.547,0.14-0.803,0.236c-0.976,0.35-1.738,0.921-2.284,1.712s-0.843,1.75-0.888,2.876v15.476L263.21,59.45z"/>
		<path fill="#FFFFFF" d="M290.373,52.919c-1.255,0.336-2.522,0.471-3.801,0.403s-2.435-0.432-3.47-1.093
			c-1.033-0.66-1.871-1.689-2.51-3.086c-0.64-1.396-0.959-3.238-0.959-5.524V39.75c0-2.345,0.309-4.377,0.924-6.096
			c0.616-1.718,1.406-3.176,2.371-4.372s2.035-2.15,3.208-2.859c1.173-0.711,2.318-1.216,3.435-1.515
			c1.208-0.323,2.389-0.456,3.539-0.398c1.15,0.059,2.18,0.479,3.086,1.263c0.906,0.782,1.633,2.018,2.179,3.701
			c0.546,1.687,0.819,3.979,0.819,6.881c0,0.381-0.017,0.84-0.052,1.377c-0.034,0.537-0.076,1.003-0.122,1.396l-12.482,3.344v0.045
			c0,0.762,0.127,1.357,0.383,1.787c0.256,0.431,0.582,0.754,0.977,0.97c0.396,0.217,0.824,0.328,1.291,0.335
			c0.464,0.008,0.906-0.045,1.324-0.156c0.859-0.23,1.522-0.452,1.987-0.664c0.465-0.213,0.929-0.484,1.396-0.813
			c0.254-0.186,0.517-0.381,0.783-0.585c0.268-0.203,0.553-0.374,0.855-0.515c0.604-0.249,1.154-0.31,1.656-0.179
			c0.498,0.13,0.865,0.5,1.098,1.111c0.371,0.985,0.377,1.974,0.018,2.964c-0.361,0.991-0.959,1.905-1.796,2.745
			c-0.279,0.28-0.634,0.58-1.063,0.9c-0.431,0.32-0.918,0.642-1.465,0.964c-0.546,0.322-1.128,0.616-1.742,0.885
			C291.622,52.533,291,52.751,290.373,52.919z M289.606,32.022c-0.396,0.105-0.773,0.271-1.133,0.5
			c-0.361,0.229-0.681,0.534-0.96,0.918c-0.278,0.382-0.511,0.84-0.696,1.373c-0.188,0.533-0.279,1.168-0.279,1.898l5.893-1.578
			c0.021-0.738-0.041-1.33-0.191-1.773c-0.152-0.442-0.355-0.783-0.611-1.023c-0.256-0.239-0.563-0.377-0.924-0.412
			S289.977,31.923,289.606,32.022z"/>
		<path fill="#FFFFFF" d="M302.332,48.968V25.886c0-0.732,0.099-1.396,0.296-1.992c0.197-0.594,0.459-1.119,0.785-1.573
			c0.325-0.453,0.697-0.831,1.115-1.134s0.859-0.517,1.326-0.642c0.674-0.181,1.307-0.144,1.899,0.107s1.04,0.731,1.343,1.442
			c0.674-0.972,1.458-1.782,2.354-2.433c0.895-0.649,1.807-1.101,2.736-1.35c1.117-0.299,2.156-0.386,3.121-0.264
			c0.964,0.122,1.801,0.551,2.51,1.283c0.709,0.733,1.273,1.821,1.691,3.262c0.419,1.441,0.629,3.319,0.629,5.636v15.432
			l-7.184,1.924V29.626c0-0.732-0.087-1.332-0.262-1.799c-0.174-0.465-0.396-0.823-0.662-1.075
			c-0.268-0.251-0.564-0.398-0.889-0.443c-0.326-0.045-0.641-0.026-0.941,0.055c-0.303,0.081-0.617,0.23-0.941,0.45
			c-0.327,0.219-0.628,0.527-0.907,0.924c-0.279,0.398-0.505,0.877-0.681,1.436c-0.174,0.561-0.261,1.207-0.261,1.939v15.959
			L302.332,48.968z"/>
		<path fill="#FFFFFF" d="M332.421,29.519c0,0.938,0.104,1.68,0.313,2.223c0.209,0.546,0.477,0.943,0.803,1.193
			c0.325,0.249,0.691,0.386,1.098,0.408c0.406,0.023,0.808-0.018,1.203-0.124c0.58-0.155,1.074-0.339,1.481-0.551
			c0.407-0.211,0.843-0.511,1.308-0.899c0.256-0.215,0.523-0.456,0.803-0.721c0.277-0.266,0.58-0.471,0.906-0.617
			c0.51-0.253,1.004-0.328,1.482-0.222c0.475,0.108,0.864,0.429,1.168,0.963c0.231,0.437,0.365,0.921,0.4,1.453
			c0.035,0.533-0.023,1.076-0.175,1.63c-0.151,0.553-0.378,1.09-0.681,1.611c-0.301,0.52-0.662,0.998-1.08,1.433
			c-0.651,0.673-1.453,1.335-2.406,1.985c-0.953,0.651-2.021,1.135-3.207,1.452c-1.255,0.337-2.516,0.483-3.783,0.442
			s-2.406-0.396-3.418-1.063c-1.011-0.667-1.83-1.692-2.457-3.078c-0.628-1.385-0.941-3.266-0.941-5.639V27.53
			c0-2.316,0.313-4.334,0.941-6.057c0.627-1.721,1.436-3.184,2.423-4.385c0.988-1.204,2.098-2.175,3.329-2.915
			c1.232-0.74,2.453-1.273,3.662-1.598c1.255-0.336,2.336-0.45,3.242-0.341s1.64,0.309,2.197,0.599
			c0.418,0.211,0.777,0.487,1.081,0.831c0.302,0.345,0.528,0.745,0.68,1.203s0.221,0.945,0.208,1.46
			c-0.011,0.517-0.133,1.056-0.365,1.616c-0.326,0.819-0.738,1.399-1.238,1.737c-0.5,0.341-1.027,0.539-1.586,0.601
			c-0.326,0.03-0.621,0.007-0.889-0.068s-0.529-0.15-0.785-0.229c-0.349-0.112-0.686-0.168-1.011-0.169
			c-0.325,0-0.756,0.07-1.29,0.214c-0.396,0.106-0.791,0.277-1.186,0.515c-0.396,0.238-0.762,0.572-1.099,0.999
			s-0.61,0.97-0.819,1.626c-0.209,0.657-0.313,1.455-0.313,2.393V29.519z"/>
		<path fill="#FFFFFF" d="M356.653,35.159c-1.254,0.336-2.521,0.471-3.8,0.403c-1.278-0.068-2.435-0.432-3.47-1.093
			c-1.033-0.661-1.871-1.689-2.51-3.087c-0.64-1.396-0.959-3.237-0.959-5.524v-3.869c0-2.344,0.309-4.376,0.924-6.095
			c0.616-1.718,1.406-3.176,2.371-4.373c0.965-1.195,2.034-2.149,3.207-2.859c1.174-0.71,2.319-1.215,3.436-1.514
			c1.208-0.324,2.389-0.456,3.539-0.398c1.15,0.059,2.179,0.479,3.085,1.262c0.907,0.782,1.633,2.018,2.179,3.702
			c0.547,1.686,0.82,3.979,0.82,6.881c0,0.381-0.018,0.84-0.052,1.377c-0.035,0.537-0.077,1.002-0.123,1.396l-12.482,3.345v0.044
			c0,0.763,0.128,1.358,0.384,1.788c0.256,0.431,0.582,0.754,0.977,0.97s0.824,0.328,1.291,0.335
			c0.463,0.008,0.906-0.045,1.324-0.156c0.859-0.23,1.521-0.452,1.986-0.665c0.466-0.212,0.93-0.483,1.396-0.813
			c0.254-0.186,0.516-0.381,0.783-0.584s0.552-0.374,0.854-0.515c0.604-0.25,1.155-0.31,1.657-0.18
			c0.498,0.13,0.864,0.501,1.098,1.112c0.371,0.985,0.377,1.973,0.017,2.963c-0.36,0.991-0.958,1.906-1.795,2.746
			c-0.279,0.279-0.634,0.58-1.063,0.9c-0.431,0.32-0.918,0.642-1.465,0.963c-0.546,0.322-1.128,0.617-1.743,0.886
			C357.903,34.773,357.282,34.991,356.653,35.159z M355.887,14.262c-0.396,0.106-0.773,0.272-1.134,0.501
			c-0.361,0.229-0.68,0.534-0.959,0.917c-0.278,0.383-0.511,0.841-0.697,1.374s-0.279,1.167-0.279,1.898l5.894-1.579
			c0.021-0.737-0.041-1.329-0.192-1.772s-0.354-0.784-0.61-1.023c-0.256-0.24-0.564-0.377-0.924-0.412
			C356.624,14.13,356.258,14.162,355.887,14.262z"/>
	</g>
	<path fill="none" stroke="#2C7EE9" stroke-width="8" stroke-linejoin="round" stroke-miterlimit="9.176" d="M12.288,96.3
		c0.477-0.552,1.133-0.94,1.97-1.165c1.046-0.28,1.895-0.375,2.546-0.287c0.65,0.09,1.185,0.255,1.603,0.494
		c0.163,0.104,0.407,0.171,0.732,0.199c0.326,0.031,0.615,0.012,0.872-0.058c0.673-0.181,1.284-0.533,1.831-1.062
		c0.546-0.526,0.935-1.275,1.168-2.247c0.255-1.124,0.156-2.123-0.297-2.999c-0.453-0.874-1.086-1.481-1.9-1.821
		c-0.326-0.117-0.68-0.234-1.063-0.353c-0.383-0.116-0.837-0.186-1.36-0.207c-0.522-0.021-1.128,0.011-1.813,0.091
		c-0.686,0.081-1.482,0.243-2.389,0.486c-2.395,0.642-4.411,1.827-6.05,3.555c-1.638,1.729-2.76,3.861-3.364,6.397
		c-0.302,1.225-0.448,2.48-0.436,3.766c0.012,1.287,0.22,2.484,0.628,3.591c0.405,1.107,1.016,2.074,1.83,2.896
		c0.813,0.823,1.883,1.408,3.208,1.756c0.208,0.063,0.47,0.124,0.784,0.186c0.314,0.063,0.611,0.116,0.889,0.157
		c0.721,0.102,1.395,0.221,2.023,0.36c0.627,0.139,1.179,0.307,1.656,0.501c0.476,0.195,0.842,0.449,1.099,0.761
		c0.255,0.313,0.383,0.675,0.383,1.085c-0.024,0.973-0.302,1.752-0.837,2.334c-0.535,0.583-1.29,1.005-2.266,1.267
		c-1.185,0.317-2.092,0.451-2.72,0.399c-0.627-0.052-1.139-0.186-1.534-0.402c-0.326-0.146-0.668-0.305-1.029-0.472
		c-0.36-0.168-0.842-0.154-1.447,0.036c-0.465,0.153-0.93,0.425-1.395,0.813c-0.464,0.389-0.825,0.866-1.081,1.433
		c-0.256,0.568-0.418,1.131-0.488,1.692c-0.069,0.562-0.052,1.076,0.052,1.547c0.104,0.471,0.273,0.901,0.506,1.293
		c0.232,0.393,0.511,0.721,0.836,0.985c0.953,0.683,2.15,1.043,3.591,1.081c1.441,0.039,2.94-0.149,4.498-0.567
		c3.185-0.853,5.701-2.392,7.548-4.616c1.849-2.225,2.854-4.926,3.017-8.106c0.07-1.426-0.035-2.694-0.314-3.807
		c-0.279-1.112-0.709-2.066-1.291-2.864c-0.58-0.796-1.285-1.436-2.108-1.919c-0.826-0.481-1.75-0.819-2.772-1.016l-1.709-0.29
		c-1.395-0.212-2.476-0.509-3.243-0.889c-0.767-0.381-1.139-0.985-1.116-1.813C11.562,97.587,11.811,96.854,12.288,96.3z"/>
	<path fill="none" stroke="#2C7EE9" stroke-width="8" stroke-linejoin="round" stroke-miterlimit="9.176" d="M39.746,105.276
		c0,0.763-0.099,1.419-0.296,1.97c-0.198,0.552-0.448,1.028-0.75,1.432c-0.302,0.404-0.628,0.718-0.977,0.943
		s-0.674,0.379-0.977,0.46s-0.627,0.102-0.976,0.063c-0.349-0.039-0.668-0.166-0.959-0.381c-0.291-0.215-0.54-0.536-0.75-0.965
		c-0.209-0.427-0.325-0.989-0.349-1.687v-5.408c0-0.731,0.099-1.381,0.297-1.948c0.197-0.564,0.447-1.049,0.75-1.453
		c0.301-0.402,0.632-0.719,0.994-0.947c0.359-0.229,0.691-0.383,0.993-0.464s0.628-0.104,0.977-0.064
		c0.349,0.038,0.674,0.179,0.977,0.42c0.301,0.242,0.551,0.593,0.75,1.052c0.197,0.461,0.296,1.058,0.296,1.789V105.276z
		 M33.713,125.402v-8.793c0.674,0.405,1.407,0.656,2.197,0.752s1.626,0.026,2.51-0.211c1.139-0.305,2.226-0.794,3.26-1.468
		c1.034-0.673,1.94-1.581,2.72-2.729c0.779-1.146,1.395-2.558,1.848-4.232c0.453-1.675,0.68-3.669,0.68-5.985v-3.957
		c0-2.315-0.227-4.188-0.68-5.621c-0.453-1.432-1.069-2.512-1.848-3.242c-0.779-0.729-1.686-1.153-2.72-1.271
		c-1.035-0.118-2.122-0.025-3.26,0.28c-0.884,0.236-1.772,0.68-2.667,1.329c-0.896,0.651-1.68,1.462-2.354,2.434
		c-0.302-0.71-0.75-1.19-1.342-1.442c-0.592-0.252-1.226-0.287-1.9-0.106c-0.466,0.125-0.906,0.338-1.326,0.641
		c-0.418,0.303-0.79,0.682-1.115,1.135c-0.326,0.454-0.587,0.978-0.785,1.572c-0.198,0.596-0.296,1.26-0.296,1.992v30.82
		L33.713,125.402z"/>
	<path fill="none" stroke="#2C7EE9" stroke-width="8" stroke-linejoin="round" stroke-miterlimit="9.176" d="M63.072,98.85
		c0,0.792-0.094,1.484-0.279,2.075c-0.186,0.594-0.424,1.104-0.715,1.533c-0.291,0.429-0.622,0.775-0.994,1.035
		c-0.372,0.262-0.744,0.441-1.116,0.541s-0.744,0.119-1.116,0.058c-0.372-0.062-0.703-0.23-0.994-0.503
		c-0.291-0.274-0.528-0.657-0.715-1.15c-0.187-0.491-0.278-1.134-0.278-1.926v-4.836c0-0.792,0.092-1.482,0.278-2.074
		c0.187-0.593,0.424-1.104,0.715-1.533c0.291-0.429,0.622-0.774,0.994-1.036c0.372-0.26,0.744-0.44,1.116-0.54
		s0.744-0.118,1.116-0.058c0.372,0.063,0.703,0.23,0.994,0.503c0.291,0.274,0.529,0.658,0.715,1.15
		c0.186,0.493,0.279,1.133,0.279,1.925V98.85z M49.857,101.995c0,2.374,0.308,4.256,0.924,5.645
		c0.615,1.389,1.412,2.421,2.388,3.097c0.977,0.677,2.063,1.044,3.26,1.104s2.377-0.065,3.539-0.377s2.341-0.817,3.539-1.52
		c1.197-0.702,2.284-1.651,3.26-2.853c0.977-1.198,1.772-2.657,2.389-4.376c0.615-1.719,0.923-3.766,0.923-6.139v-4.045
		c0-2.374-0.308-4.256-0.923-5.645c-0.616-1.388-1.412-2.42-2.389-3.097c-0.977-0.676-2.063-1.044-3.26-1.104
		c-1.198-0.061-2.377,0.065-3.539,0.377c-1.185,0.317-2.377,0.827-3.574,1.529c-1.197,0.701-2.284,1.652-3.26,2.852
		s-1.767,2.656-2.37,4.371c-0.606,1.717-0.907,3.761-0.907,6.135V101.995z"/>
	<path fill="none" stroke="#2C7EE9" stroke-width="8" stroke-linejoin="round" stroke-miterlimit="9.176" d="M75.763,98.132
		c0,1.671,0.163,3.034,0.488,4.09c0.326,1.056,0.803,1.852,1.43,2.386c0.628,0.536,1.395,0.843,2.302,0.923
		c0.906,0.079,1.94-0.036,3.103-0.348c0.605-0.162,1.208-0.441,1.813-0.838c0.605-0.396,1.104-0.81,1.5-1.237
		c0.488-0.541,0.865-1.199,1.133-1.975c0.267-0.774,0.319-1.594,0.156-2.459c-0.116-0.702-0.395-1.213-0.836-1.535
		c-0.441-0.321-0.953-0.404-1.534-0.248c-0.349,0.093-0.628,0.205-0.837,0.334c-0.208,0.129-0.441,0.214-0.697,0.253
		c-0.303,0.052-0.563,0.005-0.785-0.142c-0.221-0.146-0.331-0.556-0.331-1.23V85.202l2.057-0.552
		c1.093-0.292,1.877-0.868,2.354-1.729c0.476-0.86,0.715-1.76,0.715-2.698c0-0.439-0.059-0.863-0.175-1.272
		c-0.117-0.408-0.296-0.756-0.54-1.042c-0.244-0.286-0.558-0.487-0.942-0.605c-0.383-0.116-0.854-0.101-1.412,0.05l-2.057,0.551
		v-4.572c0-0.732-0.099-1.351-0.297-1.854c-0.197-0.505-0.458-0.889-0.784-1.153s-0.691-0.431-1.098-0.497
		c-0.407-0.067-0.832-0.041-1.272,0.077c-0.442,0.118-0.867,0.32-1.273,0.604s-0.772,0.646-1.098,1.086
		c-0.326,0.438-0.587,0.964-0.784,1.573c-0.198,0.61-0.297,1.281-0.297,2.014v4.572l-1.15,0.309
		c-0.558,0.149-1.034,0.387-1.429,0.712c-0.396,0.327-0.715,0.698-0.959,1.114c-0.244,0.418-0.418,0.859-0.522,1.328
		c-0.105,0.468-0.157,0.921-0.157,1.36c0,0.938,0.238,1.71,0.714,2.315c0.477,0.605,1.261,0.761,2.354,0.468l1.15-0.309V98.132z"/>
	<path fill="none" stroke="#2C7EE9" stroke-width="8" stroke-linejoin="round" stroke-miterlimit="9.176" d="M101.948,91.115
		c0,1.671,0.163,3.034,0.488,4.09c0.326,1.056,0.803,1.852,1.43,2.387c0.628,0.535,1.395,0.843,2.302,0.923
		c0.906,0.079,1.94-0.037,3.103-0.349c0.605-0.161,1.208-0.441,1.813-0.837c0.605-0.397,1.104-0.81,1.5-1.238
		c0.488-0.54,0.866-1.198,1.133-1.975c0.267-0.773,0.319-1.594,0.156-2.459c-0.116-0.702-0.395-1.213-0.836-1.534
		c-0.442-0.322-0.953-0.404-1.534-0.249c-0.349,0.094-0.628,0.206-0.837,0.334c-0.209,0.13-0.441,0.214-0.698,0.253
		c-0.302,0.053-0.563,0.005-0.784-0.142c-0.221-0.146-0.331-0.555-0.331-1.229V78.186l2.057-0.551
		c1.093-0.293,1.877-0.868,2.354-1.729c0.475-0.86,0.715-1.76,0.715-2.698c0-0.439-0.059-0.862-0.175-1.271
		c-0.117-0.409-0.296-0.756-0.54-1.043c-0.244-0.285-0.558-0.487-0.942-0.604c-0.383-0.117-0.854-0.101-1.412,0.049l-2.057,0.551
		v-4.572c0-0.732-0.099-1.351-0.297-1.854c-0.197-0.504-0.458-0.889-0.784-1.153s-0.691-0.431-1.098-0.497s-0.832-0.041-1.272,0.077
		c-0.442,0.119-0.866,0.32-1.273,0.605c-0.407,0.284-0.772,0.646-1.098,1.085s-0.587,0.964-0.784,1.573
		c-0.198,0.61-0.297,1.282-0.297,2.014v4.573l-1.15,0.308c-0.558,0.15-1.034,0.388-1.43,0.713c-0.396,0.326-0.714,0.697-0.959,1.114
		c-0.244,0.417-0.418,0.859-0.522,1.327c-0.105,0.468-0.158,0.921-0.158,1.361c0,0.938,0.239,1.709,0.715,2.314
		c0.477,0.605,1.261,0.761,2.354,0.468l1.15-0.309V91.115z"/>
	<path fill="none" stroke="#2C7EE9" stroke-width="8" stroke-linejoin="round" stroke-miterlimit="9.176" d="M136.048,90.244V74.899
		c0-2.314-0.221-4.19-0.663-5.626c-0.441-1.435-1.035-2.521-1.778-3.261c-0.744-0.737-1.621-1.17-2.632-1.295
		c-1.011-0.124-2.086-0.034-3.225,0.271c-0.93,0.249-1.784,0.661-2.563,1.236c-0.78,0.575-1.471,1.28-2.075,2.116v-7.386
		c0-0.733-0.1-1.344-0.297-1.834c-0.198-0.488-0.458-0.873-0.784-1.152s-0.697-0.457-1.116-0.536
		c-0.418-0.079-0.86-0.056-1.325,0.069c-0.466,0.124-0.913,0.34-1.343,0.646c-0.43,0.307-0.808,0.685-1.133,1.139
		c-0.326,0.454-0.587,0.979-0.784,1.572c-0.198,0.597-0.297,1.26-0.297,1.993v32.754l7.079-1.896V77.574
		c0.023-0.709,0.127-1.331,0.313-1.864c0.186-0.534,0.418-0.984,0.698-1.353c0.279-0.367,0.586-0.662,0.923-0.885
		c0.337-0.222,0.657-0.374,0.959-0.455c0.301-0.081,0.622-0.101,0.959-0.06c0.336,0.043,0.644,0.188,0.923,0.436
		s0.511,0.604,0.697,1.065c0.187,0.464,0.279,1.061,0.279,1.794v15.915L136.048,90.244z"/>
	<path fill="none" stroke="#2C7EE9" stroke-width="8" stroke-linejoin="round" stroke-miterlimit="9.176" d="M150.221,66.287
		c0.36,0.036,0.667,0.174,0.923,0.412c0.256,0.24,0.459,0.581,0.61,1.024c0.151,0.442,0.215,1.034,0.192,1.772l-5.893,1.579
		c0-0.732,0.093-1.366,0.279-1.899c0.185-0.533,0.418-0.991,0.697-1.374s0.598-0.688,0.959-0.917
		c0.359-0.228,0.737-0.395,1.133-0.501C149.494,66.284,149.86,66.253,150.221,66.287z M151.755,86.629
		c0.616-0.269,1.197-0.563,1.744-0.885c0.546-0.322,1.034-0.645,1.464-0.965c0.43-0.319,0.784-0.62,1.063-0.9
		c0.836-0.84,1.436-1.754,1.796-2.745c0.36-0.99,0.354-1.978-0.018-2.963c-0.233-0.612-0.599-0.982-1.098-1.113
		c-0.5-0.129-1.052-0.069-1.657,0.181c-0.302,0.141-0.587,0.312-0.854,0.515c-0.268,0.203-0.529,0.398-0.784,0.584
		c-0.466,0.33-0.93,0.601-1.395,0.813c-0.465,0.213-1.128,0.436-1.988,0.666c-0.418,0.111-0.859,0.164-1.325,0.157
		c-0.464-0.009-0.895-0.12-1.29-0.337c-0.396-0.216-0.72-0.539-0.977-0.97c-0.256-0.429-0.383-1.024-0.383-1.787v-0.044
		l12.482-3.345c0.046-0.394,0.087-0.858,0.122-1.396c0.035-0.536,0.052-0.996,0.052-1.377c0-2.901-0.273-5.195-0.819-6.881
		c-0.547-1.686-1.272-2.92-2.179-3.702c-0.906-0.783-1.935-1.203-3.086-1.263c-1.15-0.057-2.33,0.075-3.538,0.399
		c-1.117,0.299-2.261,0.804-3.435,1.514s-2.244,1.663-3.208,2.859c-0.965,1.198-1.755,2.655-2.371,4.373
		c-0.615,1.719-0.923,3.75-0.923,6.095v3.869c0,2.285,0.318,4.128,0.959,5.524c0.639,1.397,1.475,2.426,2.51,3.087
		c1.034,0.661,2.19,1.024,3.469,1.092c1.278,0.068,2.545-0.065,3.801-0.402C150.518,87.114,151.139,86.896,151.755,86.629z"/>
	<path fill="none" stroke="#2C7EE9" stroke-width="8" stroke-linejoin="round" stroke-miterlimit="9.176" d="M178.445,62.924
		c0-0.732,0.099-1.382,0.296-1.948c0.197-0.565,0.447-1.05,0.75-1.454c0.302-0.402,0.628-0.718,0.977-0.942s0.674-0.379,0.977-0.46
		c0.301-0.08,0.621-0.1,0.958-0.059c0.337,0.041,0.657,0.169,0.959,0.381s0.558,0.531,0.767,0.959
		c0.21,0.428,0.326,0.99,0.349,1.688v5.628c-0.023,0.709-0.139,1.334-0.349,1.874c-0.208,0.539-0.464,0.996-0.767,1.37
		s-0.622,0.673-0.959,0.895c-0.337,0.222-0.657,0.374-0.958,0.454c-0.302,0.081-0.628,0.103-0.977,0.064s-0.674-0.178-0.977-0.42
		s-0.552-0.585-0.75-1.03c-0.197-0.444-0.296-1.049-0.296-1.811V62.924z M191.555,75.37V42.616c0-0.732-0.1-1.343-0.296-1.834
		c-0.198-0.488-0.459-0.873-0.784-1.152c-0.326-0.279-0.697-0.457-1.115-0.536c-0.419-0.078-0.861-0.055-1.326,0.069
		c-0.465,0.125-0.912,0.34-1.342,0.646c-0.431,0.307-0.809,0.686-1.134,1.139c-0.325,0.454-0.587,0.979-0.784,1.573
		c-0.198,0.597-0.296,1.26-0.296,1.992v7.343c-0.605-0.483-1.296-0.803-2.075-0.961c-0.778-0.158-1.655-0.106-2.632,0.155
		c-1.162,0.312-2.254,0.802-3.277,1.472c-1.023,0.669-1.924,1.579-2.703,2.725c-0.779,1.147-1.394,2.558-1.848,4.232
		c-0.453,1.675-0.68,3.671-0.68,5.985v3.957c0,2.316,0.227,4.189,0.68,5.621c0.454,1.433,1.069,2.514,1.848,3.241
		c0.778,0.73,1.68,1.155,2.703,1.277c1.023,0.121,2.115,0.026,3.277-0.285c1.255-0.336,2.376-0.959,3.365-1.868
		c0.987-0.91,1.818-2.011,2.492-3.306l0.385,2.754L191.555,75.37z"/>
	<path fill="none" stroke="#2C7EE9" stroke-width="8" stroke-linejoin="round" stroke-miterlimit="9.176" d="M195.618,43.045
		c0.197,0.46,0.459,0.808,0.785,1.042c0.324,0.236,0.709,0.367,1.15,0.396c0.441,0.029,0.906-0.023,1.395-0.154
		c0.487-0.13,0.952-0.327,1.395-0.593c0.441-0.266,0.824-0.602,1.15-1.013c0.325-0.409,0.587-0.896,0.784-1.462
		s0.296-1.216,0.296-1.948c0-1.437-0.359-2.373-1.08-2.811c-0.721-0.437-1.568-0.524-2.545-0.263s-1.825,0.805-2.545,1.627
		c-0.721,0.823-1.082,1.953-1.082,3.389C195.321,41.988,195.42,42.585,195.618,43.045z M195.356,74.353l7.183-1.925V49.653
		c0-1.523-0.354-2.543-1.063-3.057c-0.709-0.513-1.551-0.64-2.527-0.378s-1.819,0.84-2.528,1.732
		c-0.709,0.894-1.063,2.103-1.063,3.627V74.353z"/>
	<path fill="none" stroke="#2C7EE9" stroke-width="8" stroke-linejoin="round" stroke-miterlimit="9.176" d="M215.823,68.868V49.522
		l1.988-0.532c1.092-0.293,1.877-0.868,2.353-1.729c0.477-0.861,0.715-1.761,0.715-2.698c0-0.468-0.058-0.908-0.174-1.316
		s-0.296-0.756-0.541-1.042c-0.244-0.286-0.558-0.481-0.94-0.583c-0.385-0.103-0.855-0.079-1.412,0.07l-1.988,0.533v-1.231
		c0-0.674,0.087-1.166,0.262-1.477c0.174-0.311,0.436-0.513,0.785-0.606c0.162-0.043,0.313-0.076,0.452-0.1
		c0.14-0.022,0.313-0.032,0.523-0.03c0.302-0.021,0.546-0.036,0.732-0.042c0.186-0.006,0.419-0.047,0.697-0.121
		c0.581-0.156,1.081-0.538,1.499-1.149c0.418-0.61,0.709-1.274,0.871-1.991c0.162-0.894,0.158-1.67-0.018-2.326
		c-0.174-0.657-0.563-1.139-1.167-1.446c-0.559-0.289-1.198-0.433-1.917-0.431c-0.723,0.003-1.42,0.094-2.093,0.274
		c-1.256,0.337-2.366,0.803-3.331,1.397c-0.963,0.596-1.771,1.355-2.422,2.276c-0.651,0.922-1.146,2.037-1.482,3.343
		c-0.338,1.307-0.506,2.84-0.506,4.598v0.968l-1.186,0.317c-0.558,0.15-1.033,0.38-1.429,0.691c-0.396,0.311-0.715,0.675-0.96,1.092
		c-0.242,0.418-0.418,0.859-0.521,1.328c-0.105,0.467-0.158,0.937-0.158,1.404c0,0.938,0.238,1.709,0.715,2.314
		s1.261,0.761,2.354,0.468l1.186-0.317v19.346L215.823,68.868z"/>
	<path fill="none" stroke="#2C7EE9" stroke-width="8" stroke-linejoin="round" stroke-miterlimit="9.176" d="M232.106,64.505V45.16
		l1.988-0.533c1.091-0.292,1.876-0.868,2.353-1.729c0.476-0.86,0.715-1.76,0.715-2.698c0-0.468-0.058-0.908-0.175-1.315
		c-0.116-0.409-0.296-0.756-0.54-1.043c-0.245-0.286-0.558-0.48-0.94-0.583c-0.385-0.103-0.855-0.078-1.412,0.07l-1.988,0.533
		v-1.231c0-0.674,0.087-1.166,0.262-1.477c0.174-0.311,0.436-0.513,0.784-0.605c0.162-0.044,0.313-0.077,0.453-0.1
		c0.14-0.023,0.313-0.032,0.523-0.031c0.302-0.021,0.546-0.036,0.731-0.042s0.419-0.047,0.698-0.121
		c0.581-0.155,1.081-0.538,1.499-1.149c0.418-0.61,0.709-1.273,0.871-1.991c0.162-0.894,0.158-1.67-0.018-2.326
		c-0.174-0.657-0.564-1.139-1.168-1.445c-0.558-0.29-1.197-0.433-1.917-0.432c-0.722,0.003-1.419,0.095-2.093,0.274
		c-1.255,0.337-2.365,0.803-3.33,1.398c-0.964,0.596-1.772,1.354-2.422,2.276c-0.651,0.922-1.146,2.037-1.482,3.342
		c-0.338,1.308-0.506,2.84-0.506,4.598v0.969l-1.186,0.317c-0.559,0.149-1.034,0.38-1.43,0.69s-0.715,0.675-0.959,1.093
		c-0.243,0.417-0.418,0.859-0.522,1.327c-0.104,0.467-0.157,0.937-0.157,1.404c0,0.938,0.238,1.71,0.715,2.315
		s1.26,0.761,2.354,0.468l1.186-0.318v19.346L232.106,64.505z"/>
	<path fill="none" stroke="#2C7EE9" stroke-width="8" stroke-linejoin="round" stroke-miterlimit="9.176" d="M249.557,39.671
		c0.359,0.035,0.667,0.173,0.924,0.411c0.256,0.24,0.458,0.581,0.609,1.024s0.215,1.034,0.193,1.772l-5.894,1.579
		c0-0.731,0.093-1.365,0.278-1.898s0.419-0.991,0.698-1.375c0.278-0.382,0.598-0.687,0.959-0.916
		c0.359-0.229,0.737-0.396,1.133-0.502C248.83,39.668,249.196,39.636,249.557,39.671z M251.09,60.012
		c0.615-0.269,1.197-0.563,1.744-0.885c0.545-0.322,1.033-0.645,1.465-0.965c0.43-0.319,0.783-0.62,1.063-0.899
		c0.837-0.841,1.436-1.755,1.796-2.746c0.36-0.989,0.354-1.978-0.018-2.963c-0.232-0.611-0.599-0.982-1.099-1.113
		c-0.5-0.129-1.051-0.068-1.656,0.182c-0.303,0.14-0.587,0.311-0.854,0.515c-0.268,0.203-0.529,0.398-0.784,0.584
		c-0.466,0.329-0.931,0.6-1.396,0.813s-1.128,0.435-1.987,0.665c-0.419,0.112-0.86,0.164-1.325,0.157
		c-0.465-0.008-0.895-0.119-1.289-0.337c-0.396-0.216-0.721-0.539-0.977-0.969s-0.384-1.025-0.384-1.788v-0.043l12.482-3.345
		c0.046-0.394,0.087-0.859,0.122-1.396c0.034-0.536,0.052-0.995,0.052-1.376c0-2.902-0.273-5.195-0.819-6.882
		c-0.547-1.685-1.271-2.919-2.179-3.702c-0.906-0.783-1.935-1.203-3.087-1.263c-1.15-0.057-2.329,0.076-3.537,0.399
		c-1.117,0.3-2.262,0.804-3.436,1.514s-2.244,1.664-3.207,2.86c-0.965,1.197-1.756,2.654-2.372,4.372
		c-0.615,1.719-0.923,3.75-0.923,6.095v3.869c0,2.286,0.318,4.128,0.959,5.524c0.639,1.397,1.475,2.427,2.51,3.087
		c1.034,0.661,2.19,1.025,3.469,1.093s2.545-0.066,3.801-0.402C249.854,60.497,250.475,60.279,251.09,60.012z"/>
	<path fill="none" stroke="#2C7EE9" stroke-width="8" stroke-linejoin="round" stroke-miterlimit="9.176" d="M268.262,54.816V39.341
		c0.047-1.126,0.344-2.084,0.889-2.876c0.547-0.791,1.309-1.361,2.285-1.711c0.254-0.098,0.521-0.176,0.801-0.236
		s0.547-0.125,0.803-0.193c0.767-0.205,1.436-0.693,2.005-1.461c0.569-0.769,0.911-1.68,1.028-2.737
		c0.116-1.057,0.005-1.95-0.331-2.682c-0.337-0.729-0.843-1.181-1.517-1.352c-0.256-0.078-0.529-0.101-0.82-0.066
		s-0.563,0.085-0.818,0.153c-0.861,0.231-1.686,0.672-2.477,1.323c-0.789,0.651-1.51,1.445-2.161,2.382
		c-0.302-0.739-0.749-1.235-1.343-1.487c-0.592-0.251-1.226-0.286-1.9-0.105c-0.465,0.124-0.906,0.338-1.324,0.641
		c-0.419,0.303-0.791,0.681-1.116,1.134c-0.325,0.454-0.587,0.979-0.784,1.573c-0.198,0.597-0.297,1.26-0.297,1.992v23.082
		L268.262,54.816z"/>
	<path fill="none" stroke="#2C7EE9" stroke-width="8" stroke-linejoin="round" stroke-miterlimit="9.176" d="M288.677,29.188
		c0.36,0.036,0.667,0.173,0.923,0.412s0.459,0.581,0.611,1.023c0.15,0.443,0.214,1.035,0.191,1.772l-5.893,1.579
		c0-0.731,0.093-1.365,0.279-1.898c0.186-0.533,0.418-0.991,0.697-1.375c0.279-0.382,0.598-0.687,0.959-0.916
		c0.359-0.228,0.737-0.396,1.133-0.501C287.95,29.186,288.316,29.153,288.677,29.188z M290.211,49.529
		c0.615-0.269,1.196-0.563,1.743-0.885c0.546-0.322,1.034-0.645,1.464-0.965c0.43-0.318,0.785-0.62,1.064-0.899
		c0.836-0.84,1.436-1.755,1.795-2.745c0.36-0.99,0.354-1.979-0.018-2.964c-0.232-0.611-0.599-0.982-1.098-1.112
		c-0.5-0.129-1.053-0.069-1.656,0.181c-0.303,0.14-0.588,0.311-0.854,0.515c-0.268,0.203-0.529,0.398-0.784,0.584
		c-0.466,0.329-0.93,0.6-1.395,0.813c-0.466,0.213-1.129,0.435-1.988,0.665c-0.418,0.112-0.859,0.164-1.325,0.157
		c-0.464-0.008-0.895-0.119-1.29-0.337c-0.396-0.216-0.721-0.538-0.977-0.969c-0.256-0.43-0.383-1.024-0.383-1.788v-0.043
		l12.482-3.345c0.047-0.394,0.087-0.859,0.122-1.396c0.034-0.536,0.052-0.995,0.052-1.376c0-2.902-0.273-5.195-0.818-6.882
		c-0.547-1.685-1.272-2.919-2.18-3.702c-0.906-0.783-1.935-1.203-3.086-1.262c-1.15-0.058-2.33,0.075-3.539,0.398
		c-1.115,0.3-2.261,0.804-3.434,1.514c-1.176,0.711-2.244,1.664-3.209,2.86c-0.965,1.197-1.754,2.654-2.371,4.372
		c-0.615,1.719-0.923,3.75-0.923,6.095v3.869c0,2.286,0.318,4.128,0.959,5.525c0.639,1.397,1.476,2.426,2.511,3.086
		c1.033,0.661,2.189,1.025,3.469,1.093c1.277,0.067,2.545-0.066,3.801-0.402C288.973,50.015,289.594,49.797,290.211,49.529z"/>
	<path fill="none" stroke="#2C7EE9" stroke-width="8" stroke-linejoin="round" stroke-miterlimit="9.176" d="M307.383,44.335v-15.96
		c0-0.732,0.086-1.379,0.262-1.939c0.174-0.559,0.4-1.037,0.68-1.435c0.278-0.396,0.58-0.705,0.906-0.924
		c0.325-0.219,0.639-0.369,0.941-0.45c0.301-0.081,0.615-0.099,0.941-0.055c0.325,0.045,0.621,0.193,0.889,0.443
		c0.268,0.251,0.488,0.609,0.663,1.075c0.174,0.467,0.261,1.066,0.261,1.799v15.96l7.184-1.925V25.492
		c0-2.314-0.209-4.193-0.628-5.635c-0.418-1.441-0.982-2.528-1.691-3.262s-1.546-1.161-2.511-1.284
		c-0.965-0.122-2.005-0.034-3.121,0.265c-0.929,0.249-1.842,0.699-2.736,1.349c-0.895,0.65-1.68,1.461-2.354,2.434
		c-0.303-0.711-0.75-1.191-1.343-1.443c-0.592-0.251-1.226-0.286-1.899-0.105c-0.466,0.124-0.906,0.338-1.326,0.641
		c-0.418,0.303-0.789,0.681-1.115,1.135c-0.325,0.453-0.587,0.978-0.784,1.572c-0.198,0.597-0.296,1.26-0.296,1.992v23.082
		L307.383,44.335z"/>
	<path fill="none" stroke="#2C7EE9" stroke-width="8" stroke-linejoin="round" stroke-miterlimit="9.176" d="M330.395,22.824
		c0-0.938,0.104-1.734,0.314-2.393c0.208-0.655,0.481-1.198,0.818-1.625c0.338-0.428,0.703-0.761,1.099-0.999
		c0.396-0.237,0.79-0.409,1.187-0.515c0.533-0.144,0.963-0.215,1.289-0.215c0.325,0.001,0.662,0.058,1.012,0.169
		c0.254,0.079,0.516,0.155,0.783,0.23s0.563,0.099,0.891,0.069c0.557-0.062,1.086-0.262,1.586-0.602
		c0.499-0.339,0.912-0.918,1.238-1.738c0.231-0.561,0.354-1.099,0.365-1.615c0.012-0.516-0.059-1.002-0.209-1.46
		c-0.152-0.458-0.378-0.859-0.68-1.203c-0.303-0.344-0.663-0.621-1.081-0.832c-0.559-0.289-1.29-0.489-2.196-0.598
		c-0.907-0.109-1.988,0.005-3.243,0.341c-1.209,0.324-2.429,0.855-3.661,1.597c-1.232,0.74-2.342,1.712-3.33,2.914
		c-0.988,1.203-1.796,2.665-2.422,4.387c-0.629,1.723-0.942,3.74-0.942,6.056v3.869c0,2.374,0.313,4.254,0.942,5.639
		c0.626,1.386,1.446,2.412,2.457,3.079s2.15,1.021,3.417,1.063c1.267,0.042,2.528-0.105,3.784-0.442
		c1.185-0.317,2.253-0.802,3.206-1.452c0.954-0.651,1.755-1.313,2.406-1.986c0.419-0.435,0.778-0.912,1.081-1.433
		s0.528-1.057,0.68-1.611c0.15-0.553,0.21-1.096,0.175-1.63c-0.036-0.531-0.169-1.017-0.401-1.452
		c-0.303-0.535-0.691-0.855-1.168-0.963c-0.477-0.106-0.971-0.031-1.482,0.222c-0.324,0.146-0.627,0.353-0.905,0.616
		c-0.279,0.267-0.547,0.506-0.803,0.722c-0.465,0.387-0.901,0.688-1.308,0.899c-0.407,0.212-0.9,0.395-1.48,0.55
		c-0.396,0.106-0.797,0.147-1.204,0.125s-0.772-0.159-1.099-0.408c-0.325-0.251-0.593-0.647-0.801-1.192
		c-0.211-0.544-0.314-1.286-0.314-2.225V22.824z"/>
	<path fill="none" stroke="#2C7EE9" stroke-width="8" stroke-linejoin="round" stroke-miterlimit="9.176" d="M354.959,11.428
		c0.359,0.036,0.667,0.174,0.923,0.412c0.256,0.24,0.459,0.581,0.61,1.024c0.15,0.442,0.215,1.034,0.192,1.772l-5.894,1.579
		c0-0.732,0.094-1.365,0.279-1.899c0.186-0.533,0.418-0.99,0.697-1.374c0.279-0.382,0.598-0.688,0.959-0.916
		c0.359-0.229,0.737-0.396,1.133-0.502C354.231,11.425,354.598,11.394,354.959,11.428z M356.493,31.77
		c0.615-0.269,1.197-0.563,1.744-0.885c0.545-0.322,1.033-0.645,1.464-0.965c0.43-0.319,0.784-0.62,1.063-0.9
		c0.836-0.84,1.436-1.754,1.795-2.745c0.361-0.989,0.355-1.978-0.017-2.963c-0.233-0.612-0.599-0.982-1.099-1.113
		c-0.5-0.129-1.052-0.068-1.656,0.182c-0.303,0.14-0.588,0.311-0.854,0.514c-0.268,0.203-0.529,0.399-0.785,0.584
		c-0.465,0.33-0.93,0.601-1.395,0.813c-0.465,0.212-1.128,0.435-1.988,0.665c-0.418,0.111-0.859,0.164-1.324,0.157
		c-0.465-0.008-0.895-0.12-1.29-0.337c-0.396-0.216-0.721-0.539-0.977-0.97c-0.256-0.429-0.384-1.024-0.384-1.787v-0.044
		l12.482-3.345c0.047-0.393,0.088-0.858,0.122-1.396c0.035-0.536,0.052-0.996,0.052-1.377c0-2.901-0.273-5.195-0.818-6.881
		c-0.547-1.686-1.272-2.92-2.18-3.702c-0.906-0.783-1.935-1.203-3.086-1.263c-1.15-0.057-2.33,0.076-3.538,0.399
		c-1.116,0.3-2.261,0.804-3.435,1.514c-1.175,0.71-2.244,1.663-3.208,2.859c-0.965,1.198-1.755,2.655-2.371,4.373
		c-0.616,1.719-0.924,3.75-0.924,6.095v3.869c0,2.285,0.319,4.128,0.96,5.524c0.638,1.397,1.475,2.426,2.51,3.087
		c1.033,0.661,2.189,1.025,3.469,1.092c1.277,0.068,2.545-0.065,3.801-0.402C355.255,32.255,355.876,32.037,356.493,31.77z"/>
	<g>
		<path fill="#FFFFFF" d="M11.537,98.501c-0.023,0.828,0.349,1.432,1.116,1.812c0.767,0.382,1.848,0.678,3.243,0.89l1.708,0.291
			c1.022,0.194,1.947,0.533,2.772,1.015c0.825,0.483,1.528,1.123,2.11,1.919c0.581,0.798,1.011,1.752,1.29,2.865
			c0.279,1.111,0.384,2.38,0.314,3.806c-0.164,3.181-1.168,5.883-3.016,8.106c-1.848,2.225-4.365,3.763-7.549,4.616
			c-1.558,0.417-3.057,0.606-4.498,0.568c-1.441-0.038-2.639-0.399-3.591-1.083c-0.326-0.264-0.605-0.592-0.837-0.984
			c-0.232-0.392-0.401-0.822-0.506-1.293c-0.104-0.471-0.122-0.986-0.052-1.547c0.07-0.561,0.232-1.125,0.488-1.691
			c0.255-0.566,0.616-1.045,1.081-1.433c0.464-0.389,0.93-0.659,1.395-0.813c0.604-0.191,1.086-0.203,1.447-0.036
			s0.703,0.324,1.029,0.472c0.396,0.217,0.907,0.351,1.534,0.402c0.628,0.051,1.534-0.081,2.72-0.398
			c0.976-0.262,1.731-0.684,2.267-1.267c0.534-0.584,0.813-1.362,0.837-2.335c0-0.41-0.128-0.772-0.384-1.085
			c-0.256-0.312-0.623-0.565-1.098-0.761c-0.477-0.193-1.029-0.361-1.657-0.501c-0.627-0.141-1.302-0.259-2.022-0.359
			c-0.279-0.042-0.575-0.095-0.889-0.158c-0.314-0.062-0.575-0.123-0.785-0.186c-1.325-0.348-2.395-0.934-3.208-1.755
			c-0.814-0.822-1.424-1.788-1.831-2.896c-0.407-1.107-0.616-2.304-0.627-3.591c-0.012-1.287,0.133-2.542,0.436-3.767
			c0.604-2.536,1.726-4.668,3.365-6.397c1.639-1.729,3.655-2.913,6.049-3.555c0.907-0.242,1.703-0.405,2.389-0.486
			c0.685-0.08,1.29-0.11,1.813-0.09c0.523,0.021,0.976,0.09,1.36,0.207s0.738,0.235,1.063,0.352c0.814,0.34,1.447,0.947,1.901,1.821
			c0.453,0.876,0.552,1.875,0.296,2.999c-0.232,0.971-0.622,1.721-1.168,2.247c-0.546,0.527-1.156,0.882-1.831,1.062
			c-0.256,0.069-0.546,0.088-0.872,0.059c-0.326-0.03-0.569-0.097-0.732-0.199c-0.418-0.24-0.953-0.405-1.604-0.494
			c-0.651-0.09-1.5,0.006-2.545,0.286c-0.837,0.225-1.494,0.613-1.97,1.166C11.81,96.853,11.56,97.587,11.537,98.501z"/>
		<path fill="#FFFFFF" d="M26.634,127.299v-30.82c0-0.732,0.099-1.396,0.296-1.991c0.197-0.596,0.458-1.119,0.785-1.574
			c0.325-0.453,0.697-0.831,1.116-1.134s0.86-0.517,1.325-0.642c0.674-0.18,1.308-0.144,1.9,0.107
			c0.593,0.252,1.04,0.732,1.342,1.442c0.674-0.972,1.458-1.782,2.354-2.433c0.895-0.649,1.784-1.094,2.667-1.331
			c1.139-0.305,2.226-0.397,3.26-0.279c1.034,0.118,1.94,0.542,2.719,1.271c0.779,0.73,1.395,1.812,1.848,3.242
			c0.454,1.433,0.68,3.307,0.68,5.622v3.957c0,2.315-0.227,4.311-0.68,5.985c-0.453,1.676-1.069,3.086-1.848,4.232
			s-1.686,2.057-2.719,2.729c-1.035,0.673-2.122,1.161-3.26,1.466c-0.884,0.237-1.72,0.308-2.51,0.212
			c-0.791-0.096-1.523-0.347-2.197-0.752v8.793L26.634,127.299z M39.745,100.089c0-0.732-0.099-1.329-0.296-1.79
			c-0.198-0.459-0.448-0.81-0.75-1.052c-0.302-0.241-0.627-0.382-0.976-0.42c-0.349-0.039-0.675-0.017-0.977,0.064
			c-0.302,0.08-0.633,0.234-0.994,0.463s-0.692,0.545-0.994,0.948c-0.302,0.404-0.552,0.889-0.75,1.454
			c-0.198,0.566-0.296,1.216-0.296,1.948v5.407c0.023,0.697,0.139,1.26,0.349,1.688c0.209,0.428,0.458,0.749,0.75,0.965
			c0.291,0.215,0.61,0.341,0.959,0.379c0.349,0.039,0.674,0.018,0.976-0.063c0.302-0.081,0.628-0.235,0.977-0.461
			c0.349-0.225,0.674-0.538,0.976-0.941c0.302-0.403,0.552-0.881,0.75-1.433c0.197-0.551,0.296-1.207,0.296-1.97V100.089z"/>
		<path fill="#FFFFFF" d="M49.855,97.95c0-2.373,0.302-4.418,0.907-6.134c0.604-1.715,1.395-3.173,2.371-4.373
			c0.977-1.199,2.063-2.149,3.26-2.852c1.197-0.701,2.388-1.212,3.574-1.529c1.162-0.312,2.341-0.437,3.539-0.377
			c1.197,0.062,2.284,0.429,3.26,1.104c0.977,0.678,1.772,1.71,2.389,3.098c0.615,1.389,0.924,3.27,0.924,5.645v4.045
			c0,2.373-0.309,4.42-0.924,6.139c-0.617,1.719-1.412,3.178-2.389,4.377c-0.976,1.199-2.063,2.15-3.26,2.852
			c-1.197,0.701-2.376,1.209-3.539,1.521c-1.163,0.312-2.342,0.437-3.54,0.376c-1.197-0.06-2.284-0.428-3.26-1.105
			c-0.977-0.676-1.773-1.707-2.389-3.096s-0.924-3.27-0.924-5.645V97.95z M63.07,94.015c0-0.793-0.093-1.434-0.278-1.927
			c-0.187-0.492-0.425-0.876-0.715-1.149s-0.622-0.44-0.993-0.503c-0.372-0.061-0.744-0.042-1.116,0.058
			c-0.373,0.1-0.745,0.28-1.116,0.54c-0.372,0.262-0.703,0.606-0.994,1.036c-0.291,0.43-0.529,0.94-0.714,1.532
			c-0.187,0.593-0.279,1.284-0.279,2.075v4.836c0,0.791,0.093,1.434,0.279,1.926c0.186,0.493,0.423,0.876,0.714,1.15
			c0.291,0.273,0.622,0.441,0.994,0.502c0.372,0.063,0.744,0.043,1.116-0.057c0.372-0.1,0.744-0.279,1.116-0.541
			c0.371-0.26,0.703-0.605,0.993-1.035s0.529-0.94,0.715-1.533c0.186-0.592,0.278-1.283,0.278-2.074V94.015z"/>
		<path fill="#FFFFFF" d="M75.762,87.052l-1.15,0.309c-1.093,0.293-1.878,0.137-2.354-0.468c-0.477-0.604-0.715-1.377-0.715-2.315
			c0-0.439,0.053-0.893,0.157-1.36c0.104-0.468,0.279-0.911,0.523-1.328s0.563-0.788,0.959-1.114
			c0.395-0.325,0.872-0.563,1.43-0.712l1.15-0.309v-4.572c0-0.732,0.098-1.404,0.296-2.014c0.197-0.609,0.458-1.135,0.784-1.573
			c0.326-0.439,0.691-0.801,1.099-1.086c0.406-0.284,0.831-0.486,1.272-0.605c0.441-0.118,0.866-0.143,1.272-0.076
			s0.772,0.232,1.099,0.496c0.325,0.265,0.586,0.65,0.784,1.154c0.198,0.503,0.297,1.122,0.297,1.854v4.572l2.057-0.552
			c0.558-0.148,1.028-0.166,1.412-0.049c0.383,0.117,0.697,0.319,0.941,0.605c0.244,0.286,0.423,0.635,0.54,1.043
			s0.174,0.832,0.174,1.271c0,0.938-0.238,1.838-0.714,2.698c-0.477,0.86-1.261,1.437-2.354,1.729l-2.057,0.551v10.903
			c0,0.675,0.11,1.085,0.331,1.23c0.221,0.146,0.482,0.193,0.784,0.142c0.256-0.039,0.488-0.123,0.698-0.254
			c0.209-0.128,0.488-0.24,0.836-0.333c0.581-0.155,1.092-0.073,1.534,0.248s0.72,0.833,0.837,1.534
			c0.163,0.866,0.11,1.686-0.157,2.461c-0.268,0.774-0.645,1.434-1.133,1.974c-0.396,0.429-0.895,0.841-1.499,1.237
			c-0.605,0.396-1.209,0.676-1.813,0.837c-1.163,0.312-2.197,0.428-3.104,0.349c-0.907-0.08-1.673-0.387-2.301-0.922
			c-0.627-0.536-1.104-1.331-1.43-2.388c-0.326-1.055-0.488-2.419-0.488-4.09V87.052z"/>
		<path fill="#FFFFFF" d="M101.947,80.036l-1.15,0.308c-1.093,0.293-1.878,0.138-2.354-0.468c-0.477-0.604-0.715-1.377-0.715-2.315
			c0-0.439,0.052-0.893,0.157-1.36c0.104-0.467,0.279-0.91,0.523-1.328c0.244-0.416,0.563-0.788,0.959-1.113
			c0.395-0.326,0.872-0.563,1.43-0.713l1.15-0.309v-4.572c0-0.732,0.099-1.404,0.296-2.014c0.197-0.609,0.458-1.135,0.785-1.573
			c0.325-0.438,0.691-0.801,1.098-1.085c0.406-0.285,0.831-0.487,1.272-0.605c0.441-0.119,0.866-0.144,1.272-0.077
			c0.407,0.067,0.773,0.232,1.099,0.497c0.326,0.264,0.587,0.649,0.784,1.153c0.198,0.503,0.297,1.122,0.297,1.854v4.572
			l2.057-0.551c0.558-0.149,1.028-0.166,1.412-0.05c0.384,0.117,0.697,0.319,0.941,0.605s0.424,0.635,0.54,1.043
			c0.117,0.408,0.175,0.832,0.175,1.271c0,0.938-0.239,1.839-0.715,2.698c-0.477,0.86-1.261,1.437-2.354,1.729l-2.057,0.551v10.903
			c0,0.675,0.11,1.085,0.331,1.23c0.221,0.146,0.482,0.193,0.784,0.142c0.256-0.039,0.488-0.123,0.698-0.253
			c0.209-0.129,0.488-0.24,0.837-0.334c0.581-0.155,1.092-0.072,1.534,0.248c0.441,0.321,0.72,0.834,0.836,1.535
			c0.163,0.865,0.11,1.686-0.156,2.46c-0.268,0.774-0.646,1.434-1.134,1.975c-0.396,0.428-0.895,0.84-1.499,1.236
			c-0.605,0.396-1.209,0.676-1.813,0.837c-1.163,0.313-2.197,0.428-3.104,0.349s-1.673-0.387-2.301-0.921
			c-0.627-0.537-1.104-1.332-1.43-2.388s-0.488-2.419-0.488-4.091V80.036z"/>
		<path fill="#FFFFFF" d="M128.864,92.168V76.253c0-0.732-0.093-1.33-0.279-1.795c-0.186-0.461-0.418-0.817-0.697-1.065
			c-0.279-0.247-0.587-0.393-0.924-0.435c-0.337-0.041-0.657-0.021-0.958,0.061c-0.303,0.08-0.622,0.231-0.959,0.453
			c-0.337,0.223-0.645,0.52-0.924,0.886c-0.279,0.368-0.511,0.819-0.697,1.353c-0.187,0.533-0.291,1.154-0.314,1.865V93.71
			l-7.078,1.896V62.853c0-0.732,0.099-1.396,0.296-1.993c0.197-0.595,0.459-1.118,0.785-1.572c0.325-0.453,0.703-0.833,1.133-1.14
			c0.43-0.305,0.877-0.52,1.343-0.645c0.465-0.125,0.907-0.147,1.325-0.07c0.418,0.08,0.79,0.258,1.116,0.537
			c0.325,0.279,0.586,0.663,0.784,1.152c0.197,0.49,0.296,1.102,0.296,1.834v7.385c0.604-0.835,1.295-1.54,2.075-2.116
			c0.779-0.574,1.633-0.987,2.563-1.236c1.138-0.305,2.214-0.395,3.225-0.271c1.011,0.125,1.888,0.557,2.632,1.295
			c0.744,0.739,1.337,1.826,1.779,3.261c0.441,1.436,0.662,3.311,0.662,5.626v15.344L128.864,92.168z"/>
		<path fill="#FFFFFF" d="M149.889,87.281c-1.255,0.337-2.523,0.472-3.801,0.403c-1.279-0.067-2.435-0.432-3.469-1.093
			c-1.035-0.66-1.871-1.688-2.51-3.086c-0.64-1.396-0.959-3.238-0.959-5.524v-3.869c0-2.345,0.308-4.377,0.924-6.096
			c0.616-1.717,1.406-3.176,2.371-4.372c0.964-1.196,2.034-2.149,3.208-2.859c1.173-0.71,2.319-1.216,3.435-1.515
			c1.208-0.323,2.389-0.456,3.539-0.398c1.15,0.059,2.179,0.479,3.085,1.262c0.907,0.783,1.633,2.018,2.18,3.703
			c0.546,1.686,0.819,3.979,0.819,6.881c0,0.381-0.018,0.84-0.052,1.376c-0.035,0.538-0.076,1.003-0.122,1.396l-12.482,3.346v0.043
			c0,0.764,0.127,1.359,0.383,1.788c0.255,0.431,0.581,0.754,0.977,0.97c0.395,0.217,0.825,0.328,1.29,0.336
			c0.464,0.007,0.906-0.045,1.325-0.157c0.86-0.23,1.522-0.452,1.987-0.664c0.465-0.213,0.93-0.483,1.395-0.813
			c0.255-0.186,0.517-0.381,0.785-0.584c0.267-0.203,0.552-0.375,0.854-0.516c0.604-0.25,1.156-0.31,1.656-0.179
			c0.5,0.13,0.866,0.5,1.098,1.112c0.372,0.984,0.378,1.973,0.018,2.963c-0.361,0.991-0.959,1.905-1.795,2.746
			c-0.279,0.279-0.634,0.579-1.063,0.899c-0.431,0.321-0.919,0.642-1.465,0.964c-0.546,0.322-1.127,0.617-1.743,0.885
			C151.138,86.896,150.516,87.113,149.889,87.281z M149.122,66.385c-0.396,0.105-0.773,0.272-1.133,0.501
			c-0.361,0.229-0.68,0.533-0.958,0.917c-0.279,0.382-0.512,0.84-0.698,1.373s-0.279,1.167-0.279,1.899l5.893-1.579
			c0.023-0.737-0.041-1.33-0.192-1.773c-0.151-0.442-0.354-0.783-0.61-1.022c-0.256-0.24-0.564-0.377-0.924-0.413
			C149.859,66.252,149.493,66.285,149.122,66.385z"/>
		<path fill="#FFFFFF" d="M186.01,76.855l-0.383-2.755c-0.674,1.295-1.505,2.396-2.493,3.306c-0.988,0.909-2.11,1.532-3.365,1.868
			c-1.163,0.313-2.255,0.407-3.278,0.286c-1.023-0.122-1.923-0.548-2.703-1.277c-0.778-0.729-1.394-1.809-1.848-3.241
			c-0.453-1.432-0.679-3.307-0.679-5.621v-3.957c0-2.316,0.227-4.311,0.679-5.986c0.454-1.674,1.07-3.085,1.848-4.232
			c0.779-1.146,1.679-2.055,2.703-2.724c1.022-0.67,2.115-1.161,3.278-1.473c0.977-0.261,1.854-0.313,2.632-0.155
			c0.779,0.158,1.471,0.479,2.075,0.961v-7.342c0-0.732,0.098-1.396,0.296-1.992c0.197-0.596,0.458-1.119,0.785-1.573
			c0.325-0.453,0.702-0.833,1.133-1.14c0.431-0.305,0.878-0.52,1.343-0.645s0.906-0.147,1.325-0.07
			c0.417,0.08,0.79,0.259,1.116,0.537c0.324,0.279,0.586,0.663,0.783,1.152c0.197,0.49,0.297,1.102,0.297,1.834V75.37L186.01,76.855
			z M178.445,68.111c0,0.763,0.099,1.366,0.296,1.812c0.197,0.445,0.447,0.789,0.75,1.03c0.302,0.241,0.627,0.381,0.977,0.419
			s0.673,0.018,0.976-0.063c0.302-0.081,0.622-0.233,0.958-0.455s0.657-0.52,0.959-0.894c0.302-0.374,0.558-0.831,0.767-1.371
			c0.209-0.54,0.326-1.164,0.349-1.874v-5.627c-0.023-0.698-0.14-1.261-0.349-1.688c-0.209-0.427-0.465-0.746-0.767-0.959
			c-0.303-0.211-0.623-0.339-0.959-0.381c-0.337-0.041-0.656-0.021-0.958,0.06c-0.303,0.081-0.627,0.233-0.976,0.459
			s-0.674,0.54-0.977,0.943c-0.303,0.404-0.553,0.89-0.75,1.454c-0.197,0.566-0.296,1.216-0.296,1.948V68.111z"/>
		<path fill="#FFFFFF" d="M195.321,41.256c0-1.437,0.359-2.566,1.08-3.39c0.721-0.822,1.568-1.365,2.545-1.627
			s1.824-0.174,2.547,0.263c0.719,0.438,1.08,1.374,1.08,2.811c0,0.732-0.1,1.382-0.297,1.947s-0.459,1.054-0.783,1.463
			c-0.326,0.411-0.71,0.748-1.151,1.012c-0.442,0.266-0.906,0.464-1.396,0.595c-0.487,0.131-0.952,0.182-1.394,0.152
			c-0.442-0.026-0.825-0.158-1.151-0.395c-0.325-0.235-0.588-0.583-0.785-1.043C195.419,42.585,195.321,41.988,195.321,41.256z
			 M195.355,51.577c0-1.523,0.354-2.732,1.063-3.626c0.709-0.893,1.551-1.472,2.527-1.732c0.977-0.262,1.818-0.135,2.528,0.378
			c0.71,0.514,1.063,1.532,1.063,3.056v22.774l-7.183,1.925V51.577z"/>
		<path fill="#FFFFFF" d="M208.709,70.773V51.429l-1.186,0.317c-1.094,0.293-1.877,0.137-2.354-0.468
			c-0.478-0.604-0.715-1.377-0.715-2.315c0-0.468,0.051-0.937,0.156-1.404c0.104-0.468,0.279-0.91,0.523-1.327
			c0.244-0.418,0.563-0.781,0.959-1.092c0.395-0.312,0.871-0.541,1.43-0.691l1.186-0.317v-0.968c0-1.759,0.168-3.291,0.506-4.598
			c0.336-1.306,0.83-2.42,1.48-3.343c0.65-0.922,1.459-1.681,2.424-2.276c0.965-0.595,2.074-1.061,3.329-1.397
			c0.675-0.181,1.372-0.271,2.093-0.275c0.721-0.001,1.359,0.142,1.918,0.432c0.604,0.308,0.994,0.789,1.168,1.446
			c0.174,0.656,0.18,1.432,0.018,2.325c-0.164,0.718-0.453,1.382-0.872,1.992c-0.419,0.611-0.919,0.993-1.499,1.148
			c-0.279,0.075-0.512,0.116-0.697,0.122c-0.187,0.006-0.431,0.021-0.732,0.041c-0.209-0.001-0.385,0.009-0.523,0.031
			s-0.291,0.056-0.453,0.1c-0.35,0.093-0.61,0.295-0.785,0.605c-0.174,0.311-0.261,0.803-0.261,1.477v1.232l1.987-0.533
			c0.558-0.149,1.028-0.173,1.412-0.07c0.384,0.102,0.697,0.297,0.941,0.582c0.244,0.286,0.424,0.635,0.541,1.043
			c0.115,0.408,0.174,0.848,0.174,1.315c0,0.938-0.238,1.839-0.715,2.698c-0.477,0.86-1.262,1.438-2.354,1.729l-1.987,0.532v19.346
			L208.709,70.773z"/>
		<path fill="#FFFFFF" d="M224.993,66.41V47.065l-1.186,0.318c-1.094,0.293-1.878,0.137-2.354-0.469
			c-0.479-0.604-0.715-1.377-0.715-2.314c0-0.469,0.051-0.938,0.156-1.404c0.104-0.468,0.279-0.911,0.523-1.328
			s0.563-0.781,0.958-1.092s0.872-0.541,1.431-0.691l1.186-0.317V38.8c0-1.759,0.168-3.291,0.506-4.598
			c0.335-1.306,0.83-2.42,1.48-3.343c0.65-0.921,1.459-1.68,2.424-2.276c0.965-0.594,2.074-1.061,3.329-1.396
			c0.675-0.182,1.372-0.272,2.093-0.275c0.721-0.002,1.359,0.141,1.917,0.431c0.604,0.308,0.994,0.79,1.169,1.446
			c0.174,0.656,0.18,1.432,0.018,2.325c-0.164,0.719-0.453,1.382-0.872,1.992c-0.419,0.611-0.919,0.993-1.499,1.149
			c-0.279,0.074-0.512,0.115-0.698,0.121c-0.186,0.006-0.431,0.021-0.731,0.042c-0.21-0.002-0.385,0.008-0.523,0.03
			c-0.139,0.023-0.291,0.056-0.453,0.1c-0.35,0.094-0.61,0.295-0.785,0.605c-0.174,0.311-0.262,0.804-0.262,1.478v1.231l1.988-0.533
			c0.557-0.148,1.027-0.173,1.412-0.07c0.384,0.102,0.697,0.297,0.941,0.582c0.244,0.287,0.424,0.635,0.541,1.043
			c0.115,0.408,0.174,0.848,0.174,1.316c0,0.938-0.238,1.838-0.715,2.697c-0.477,0.86-1.262,1.438-2.354,1.729l-1.988,0.533v19.345
			L224.993,66.41z"/>
		<path fill="#FFFFFF" d="M249.224,60.664c-1.255,0.337-2.522,0.472-3.8,0.403c-1.279-0.067-2.436-0.432-3.47-1.093
			c-1.034-0.66-1.872-1.688-2.511-3.086c-0.639-1.396-0.959-3.238-0.959-5.524v-3.869c0-2.345,0.309-4.377,0.925-6.096
			c0.616-1.718,1.406-3.176,2.371-4.372c0.964-1.196,2.034-2.149,3.208-2.859c1.173-0.71,2.318-1.216,3.434-1.515
			c1.209-0.323,2.389-0.456,3.539-0.398c1.151,0.059,2.18,0.479,3.086,1.263c0.906,0.782,1.633,2.018,2.179,3.702
			c0.546,1.686,0.819,3.979,0.819,6.881c0,0.381-0.017,0.84-0.051,1.376c-0.035,0.538-0.077,1.003-0.123,1.396l-12.482,3.345v0.044
			c0,0.763,0.127,1.358,0.384,1.788c0.255,0.43,0.581,0.753,0.976,0.969c0.396,0.217,0.825,0.328,1.291,0.336
			c0.465,0.007,0.906-0.045,1.324-0.157c0.86-0.23,1.522-0.452,1.988-0.664c0.465-0.213,0.929-0.483,1.395-0.813
			c0.255-0.186,0.518-0.381,0.783-0.584c0.268-0.203,0.553-0.375,0.855-0.516c0.604-0.249,1.155-0.31,1.656-0.179
			c0.499,0.13,0.865,0.501,1.098,1.112c0.372,0.984,0.377,1.973,0.018,2.963c-0.361,0.991-0.959,1.905-1.795,2.746
			c-0.279,0.279-0.635,0.58-1.064,0.9s-0.918,0.641-1.464,0.963s-1.128,0.617-1.743,0.885
			C250.474,60.278,249.852,60.496,249.224,60.664z M248.458,39.768c-0.396,0.105-0.772,0.272-1.133,0.501
			c-0.361,0.229-0.68,0.533-0.959,0.917c-0.279,0.382-0.512,0.84-0.697,1.373c-0.188,0.533-0.279,1.168-0.279,1.899l5.893-1.579
			c0.022-0.737-0.041-1.33-0.191-1.772c-0.152-0.443-0.355-0.784-0.61-1.023c-0.256-0.24-0.563-0.377-0.925-0.412
			C249.196,39.636,248.829,39.668,248.458,39.768z"/>
		<path fill="#FFFFFF" d="M261.183,56.713V33.631c0-0.732,0.099-1.396,0.296-1.991c0.197-0.595,0.46-1.119,0.785-1.574
			c0.326-0.453,0.697-0.831,1.116-1.134c0.418-0.302,0.859-0.517,1.325-0.642c0.674-0.18,1.308-0.144,1.9,0.107
			c0.592,0.252,1.04,0.748,1.342,1.486c0.65-0.936,1.371-1.729,2.162-2.381c0.789-0.652,1.615-1.093,2.475-1.323
			c0.256-0.069,0.529-0.12,0.82-0.153c0.291-0.034,0.563-0.012,0.819,0.065c0.674,0.172,1.179,0.622,1.517,1.353
			c0.336,0.73,0.447,1.624,0.332,2.682c-0.117,1.058-0.46,1.969-1.029,2.737c-0.57,0.769-1.238,1.255-2.005,1.46
			c-0.257,0.068-0.523,0.134-0.802,0.193c-0.279,0.061-0.547,0.14-0.803,0.236c-0.976,0.35-1.738,0.921-2.283,1.712
			c-0.547,0.791-0.843,1.75-0.889,2.876v15.476L261.183,56.713z"/>
		<path fill="#FFFFFF" d="M288.344,50.183c-1.254,0.336-2.522,0.471-3.801,0.402c-1.277-0.067-2.434-0.432-3.469-1.093
			c-1.034-0.66-1.871-1.688-2.51-3.086c-0.641-1.396-0.96-3.238-0.96-5.524v-3.869c0-2.345,0.309-4.377,0.925-6.096
			c0.615-1.717,1.406-3.175,2.371-4.372c0.964-1.196,2.033-2.149,3.207-2.859s2.318-1.215,3.435-1.515
			c1.208-0.323,2.389-0.456,3.539-0.398c1.151,0.06,2.179,0.479,3.086,1.263c0.906,0.782,1.633,2.018,2.179,3.702
			c0.547,1.686,0.82,3.979,0.82,6.881c0,0.381-0.018,0.84-0.053,1.376c-0.035,0.538-0.076,1.003-0.123,1.396l-12.482,3.345v0.044
			c0,0.763,0.128,1.358,0.385,1.788c0.256,0.43,0.581,0.753,0.977,0.97c0.395,0.216,0.824,0.327,1.29,0.335
			c0.464,0.007,0.906-0.045,1.324-0.157c0.86-0.23,1.522-0.452,1.987-0.664c0.465-0.213,0.93-0.483,1.396-0.813
			c0.255-0.186,0.517-0.381,0.784-0.584c0.267-0.203,0.551-0.374,0.854-0.516c0.604-0.249,1.156-0.309,1.657-0.179
			c0.499,0.13,0.864,0.501,1.098,1.112c0.372,0.985,0.378,1.973,0.017,2.963c-0.359,0.991-0.958,1.905-1.795,2.746
			c-0.279,0.279-0.633,0.58-1.063,0.9s-0.918,0.641-1.464,0.963c-0.547,0.322-1.129,0.617-1.744,0.886
			C289.594,49.797,288.973,50.014,288.344,50.183z M287.578,29.285c-0.396,0.106-0.772,0.272-1.134,0.501
			c-0.36,0.229-0.68,0.533-0.959,0.917c-0.277,0.382-0.511,0.84-0.697,1.373c-0.186,0.534-0.279,1.168-0.279,1.899l5.894-1.579
			c0.022-0.737-0.04-1.33-0.192-1.772c-0.151-0.443-0.354-0.784-0.609-1.023c-0.256-0.24-0.564-0.377-0.925-0.412
			S287.95,29.186,287.578,29.285z"/>
		<path fill="#FFFFFF" d="M300.303,46.23V23.148c0-0.732,0.1-1.396,0.297-1.991c0.197-0.595,0.459-1.119,0.784-1.573
			s0.697-0.832,1.116-1.134c0.418-0.303,0.859-0.517,1.325-0.642c0.673-0.181,1.308-0.145,1.899,0.106
			c0.593,0.252,1.041,0.732,1.343,1.442c0.675-0.972,1.458-1.782,2.353-2.433c0.896-0.649,1.809-1.1,2.738-1.35
			c1.115-0.299,2.155-0.386,3.12-0.264c0.964,0.123,1.801,0.551,2.511,1.283c0.709,0.733,1.273,1.821,1.691,3.262
			c0.418,1.441,0.627,3.32,0.627,5.636v15.432l-7.183,1.925V26.89c0-0.732-0.087-1.332-0.261-1.799
			c-0.175-0.465-0.396-0.824-0.664-1.076c-0.267-0.25-0.563-0.398-0.889-0.443c-0.324-0.044-0.639-0.025-0.941,0.056
			s-0.615,0.23-0.941,0.449c-0.326,0.22-0.627,0.527-0.906,0.925s-0.506,0.877-0.68,1.435c-0.174,0.561-0.262,1.207-0.262,1.939
			v15.959L300.303,46.23z"/>
		<path fill="#FFFFFF" d="M330.394,26.781c0,0.938,0.104,1.68,0.314,2.224c0.208,0.545,0.476,0.942,0.802,1.192
			c0.325,0.249,0.691,0.386,1.098,0.409c0.406,0.022,0.808-0.019,1.203-0.125c0.58-0.155,1.075-0.338,1.481-0.551
			c0.407-0.211,0.843-0.511,1.309-0.899c0.255-0.215,0.522-0.456,0.802-0.721c0.278-0.265,0.58-0.47,0.906-0.617
			c0.511-0.253,1.005-0.327,1.482-0.222c0.475,0.108,0.865,0.429,1.168,0.963c0.231,0.438,0.365,0.921,0.4,1.453
			c0.035,0.533-0.023,1.076-0.174,1.63c-0.151,0.554-0.379,1.091-0.681,1.61c-0.302,0.521-0.662,0.999-1.08,1.434
			c-0.651,0.673-1.454,1.335-2.406,1.985c-0.954,0.651-2.022,1.135-3.208,1.452c-1.255,0.337-2.516,0.484-3.783,0.442
			c-1.268-0.041-2.406-0.396-3.417-1.063s-1.83-1.692-2.458-3.077c-0.627-1.387-0.941-3.266-0.941-5.64v-3.869
			c0-2.315,0.314-4.335,0.941-6.056c0.628-1.722,1.436-3.184,2.423-4.387c0.989-1.203,2.099-2.174,3.33-2.914
			s2.452-1.273,3.661-1.598c1.255-0.336,2.336-0.449,3.242-0.34c0.906,0.108,1.64,0.308,2.197,0.598
			c0.419,0.211,0.778,0.487,1.081,0.831c0.302,0.345,0.528,0.745,0.681,1.203c0.15,0.458,0.221,0.945,0.208,1.46
			c-0.011,0.518-0.134,1.056-0.366,1.616c-0.325,0.819-0.737,1.399-1.237,1.737c-0.5,0.34-1.028,0.539-1.587,0.602
			c-0.325,0.029-0.621,0.006-0.889-0.07c-0.268-0.074-0.529-0.149-0.785-0.229c-0.349-0.111-0.686-0.168-1.011-0.168
			c-0.325-0.001-0.755,0.07-1.29,0.213c-0.396,0.106-0.791,0.277-1.186,0.516c-0.396,0.237-0.762,0.571-1.099,0.998
			c-0.337,0.428-0.61,0.971-0.818,1.626c-0.21,0.657-0.314,1.455-0.314,2.393V26.781z"/>
		<path fill="#FFFFFF" d="M354.626,32.422c-1.255,0.336-2.522,0.471-3.801,0.403c-1.278-0.068-2.435-0.432-3.47-1.093
			c-1.033-0.661-1.871-1.689-2.51-3.087c-0.64-1.396-0.959-3.237-0.959-5.523v-3.869c0-2.345,0.309-4.377,0.924-6.096
			c0.616-1.718,1.406-3.176,2.371-4.373c0.965-1.195,2.034-2.148,3.208-2.859c1.173-0.709,2.318-1.215,3.435-1.514
			c1.208-0.324,2.389-0.456,3.539-0.398c1.15,0.059,2.179,0.479,3.086,1.262c0.906,0.783,1.633,2.018,2.178,3.703
			c0.547,1.686,0.82,3.979,0.82,6.881c0,0.381-0.018,0.839-0.052,1.376c-0.034,0.538-0.076,1.003-0.122,1.396l-12.482,3.346v0.043
			c0,0.764,0.127,1.359,0.383,1.788c0.256,0.431,0.582,0.754,0.977,0.97c0.396,0.217,0.824,0.328,1.291,0.335
			c0.464,0.008,0.906-0.044,1.324-0.156c0.859-0.23,1.522-0.452,1.987-0.665c0.465-0.212,0.929-0.482,1.396-0.813
			c0.254-0.186,0.517-0.381,0.783-0.584c0.268-0.204,0.553-0.375,0.855-0.516c0.604-0.25,1.154-0.31,1.656-0.18
			c0.498,0.131,0.865,0.501,1.098,1.112c0.371,0.985,0.377,1.974,0.018,2.964c-0.361,0.99-0.959,1.904-1.796,2.745
			c-0.279,0.28-0.634,0.58-1.063,0.9c-0.431,0.32-0.918,0.642-1.465,0.964c-0.546,0.322-1.128,0.616-1.742,0.885
			C355.875,32.036,355.254,32.254,354.626,32.422z M353.86,11.524c-0.396,0.106-0.773,0.273-1.133,0.501
			c-0.361,0.229-0.681,0.534-0.96,0.917c-0.278,0.383-0.511,0.841-0.696,1.374c-0.188,0.533-0.279,1.167-0.279,1.899l5.893-1.58
			c0.021-0.737-0.041-1.329-0.191-1.772c-0.152-0.442-0.355-0.784-0.611-1.022c-0.256-0.24-0.563-0.378-0.924-0.413
			S354.231,11.425,353.86,11.524z"/>
	</g>
</g>
</svg>
