<?xml version="1.0" encoding="utf-8"?>
<!-- Generator: Adobe Illustrator 16.0.0, SVG Export Plug-In . SVG Version: 6.00 Build 0)  -->
<!DOCTYPE svg PUBLIC "-//W3C//DTD SVG 1.1//EN" "http://www.w3.org/Graphics/SVG/1.1/DTD/svg11.dtd">
<svg version="1.1" id="레이어_1" xmlns="http://www.w3.org/2000/svg" xmlns:xlink="http://www.w3.org/1999/xlink" x="0px"
	 y="0px" width="361.992px" height="138.99px" viewBox="0 0 361.992 138.99" enable-background="new 0 0 361.992 138.99"
	 xml:space="preserve">
<g>
	<path fill="none" stroke="#231815" stroke-width="8" stroke-linejoin="round" stroke-miterlimit="9.176" d="M17.036,101.489
		c0.633-0.674,1.505-1.161,2.617-1.459c1.389-0.372,2.516-0.517,3.381-0.436c0.863,0.082,1.574,0.257,2.13,0.526
		c0.215,0.117,0.54,0.187,0.973,0.209c0.432,0.024,0.818-0.01,1.158-0.101c0.895-0.24,1.705-0.683,2.431-1.331
		c0.725-0.646,1.242-1.551,1.551-2.714c0.339-1.346,0.208-2.529-0.394-3.552c-0.602-1.022-1.443-1.72-2.524-2.093
		c-0.433-0.128-0.903-0.254-1.412-0.38c-0.509-0.124-1.112-0.188-1.807-0.195c-0.694-0.004-1.497,0.054-2.408,0.176
		c-0.911,0.123-1.969,0.344-3.172,0.666c-3.18,0.853-5.858,2.337-8.035,4.452c-2.177,2.117-3.667,4.692-4.469,7.729
		c-0.402,1.467-0.595,2.964-0.579,4.492c0.016,1.528,0.293,2.943,0.834,4.243c0.54,1.302,1.35,2.426,2.431,3.372
		c1.08,0.947,2.5,1.604,4.261,1.967c0.277,0.065,0.625,0.129,1.041,0.191c0.417,0.063,0.811,0.114,1.181,0.153
		c0.957,0.093,1.853,0.21,2.687,0.352c0.833,0.143,1.567,0.32,2.199,0.534c0.633,0.215,1.119,0.502,1.458,0.863
		c0.34,0.362,0.51,0.786,0.51,1.274c-0.032,1.157-0.402,2.093-1.112,2.805c-0.711,0.714-1.713,1.243-3.01,1.591
		c-1.575,0.422-2.779,0.614-3.613,0.576c-0.833-0.038-1.513-0.178-2.037-0.421c-0.433-0.162-0.889-0.337-1.367-0.522
		c-0.479-0.185-1.12-0.152-1.921,0.098c-0.618,0.2-1.235,0.539-1.853,1.019c-0.618,0.479-1.096,1.061-1.436,1.743
		c-0.34,0.685-0.556,1.36-0.648,2.029s-0.069,1.281,0.07,1.836c0.139,0.555,0.362,1.061,0.671,1.519
		c0.309,0.457,0.679,0.836,1.112,1.139c1.266,0.776,2.855,1.159,4.77,1.15c1.915-0.008,3.905-0.288,5.974-0.843
		c4.23-1.133,7.572-3.057,10.026-5.77c2.455-2.712,3.79-5.961,4.006-9.746c0.093-1.696-0.046-3.201-0.417-4.512
		c-0.371-1.312-0.943-2.43-1.713-3.355c-0.773-0.925-1.707-1.659-2.802-2.201c-1.096-0.542-2.323-0.91-3.682-1.104l-2.269-0.28
		c-1.853-0.199-3.288-0.512-4.307-0.936c-1.018-0.424-1.513-1.127-1.481-2.111C16.071,103.045,16.403,102.164,17.036,101.489z"/>
	<path fill="none" stroke="#231815" stroke-width="8" stroke-linejoin="round" stroke-miterlimit="9.176" d="M50.425,100.796
		c0.479,0.029,0.888,0.181,1.228,0.455c0.339,0.275,0.61,0.673,0.811,1.194c0.201,0.521,0.285,1.222,0.255,2.1l-7.827,2.097
		c0-0.869,0.124-1.626,0.371-2.267c0.247-0.641,0.556-1.194,0.927-1.66c0.37-0.464,0.794-0.839,1.273-1.124
		c0.478-0.285,0.979-0.498,1.505-0.639C49.46,100.821,49.947,100.769,50.425,100.796z M52.463,124.912
		c0.817-0.341,1.59-0.714,2.315-1.116c0.725-0.403,1.374-0.805,1.945-1.201c0.571-0.396,1.042-0.766,1.412-1.109
		c1.112-1.029,1.906-2.138,2.385-3.329c0.478-1.19,0.471-2.365-0.023-3.521c-0.309-0.718-0.795-1.146-1.458-1.281
		c-0.665-0.135-1.398-0.043-2.2,0.276c-0.402,0.178-0.78,0.392-1.135,0.645c-0.355,0.251-0.702,0.493-1.042,0.723
		c-0.617,0.409-1.234,0.748-1.852,1.019c-0.618,0.27-1.498,0.559-2.64,0.864c-0.557,0.149-1.143,0.228-1.76,0.236
		c-0.618,0.009-1.189-0.107-1.713-0.351c-0.525-0.243-0.957-0.613-1.296-1.116c-0.341-0.5-0.51-1.204-0.51-2.109v-0.052
		l16.579-4.442c0.062-0.47,0.116-1.024,0.162-1.664c0.046-0.639,0.07-1.186,0.07-1.638c0-3.448-0.363-6.164-1.089-8.146
		c-0.725-1.982-1.69-3.422-2.894-4.318c-1.204-0.896-2.57-1.357-4.098-1.385c-1.529-0.025-3.096,0.178-4.701,0.607
		c-1.482,0.397-3.003,1.04-4.561,1.928c-1.56,0.888-2.98,2.062-4.261,3.519c-1.282,1.458-2.332,3.22-3.149,5.285
		c-0.819,2.066-1.228,4.491-1.228,7.277v4.598c0,2.717,0.424,4.895,1.274,6.53c0.848,1.636,1.96,2.826,3.334,3.573
		c1.374,0.747,2.909,1.136,4.607,1.168c1.698,0.033,3.38-0.174,5.048-0.62C50.819,125.536,51.645,125.252,52.463,124.912z"/>
	<path fill="none" stroke="#231815" stroke-width="8" stroke-linejoin="round" stroke-miterlimit="9.176" d="M75.039,99.192
		c0-0.871,0.123-1.645,0.37-2.32c0.248-0.675,0.563-1.255,0.95-1.743c0.386-0.486,0.811-0.87,1.274-1.15
		c0.463-0.281,0.895-0.475,1.296-0.583c0.401-0.107,0.826-0.144,1.274-0.106c0.447,0.037,0.864,0.179,1.25,0.422
		c0.385,0.246,0.71,0.621,0.973,1.125c0.262,0.504,0.409,1.17,0.439,1.998v6.688c-0.031,0.844-0.178,1.588-0.439,2.233
		c-0.263,0.646-0.587,1.193-0.973,1.645c-0.386,0.453-0.803,0.815-1.25,1.093c-0.448,0.276-0.873,0.47-1.274,0.577
		c-0.402,0.107-0.833,0.145-1.296,0.112c-0.463-0.033-0.888-0.189-1.274-0.47c-0.386-0.278-0.702-0.682-0.95-1.208
		c-0.247-0.525-0.37-1.241-0.37-2.147V99.192z M92.266,122.737V86.111c0-0.869-0.131-1.592-0.394-2.167
		c-0.262-0.573-0.609-1.02-1.041-1.34c-0.433-0.319-0.927-0.518-1.482-0.596c-0.556-0.078-1.143-0.033-1.76,0.132
		c-0.896,0.24-1.745,0.711-2.547,1.413c-0.804,0.704-1.39,1.575-1.76,2.614c-0.896-0.7-1.922-1.139-3.08-1.317
		c-1.158-0.177-2.324-0.107-3.497,0.206c-1.544,0.414-2.995,1.038-4.354,1.872c-1.359,0.834-2.547,1.945-3.566,3.332
		c-1.018,1.388-1.822,3.084-2.408,5.087c-0.586,2.004-0.88,4.381-0.88,7.133v4.702c0,2.752,0.293,4.972,0.88,6.66
		c0.586,1.689,1.39,2.955,2.408,3.796c1.019,0.842,2.207,1.315,3.566,1.422c1.358,0.106,2.809-0.047,4.354-0.461
		c1.142-0.306,2.23-0.78,3.265-1.423c1.034-0.643,1.999-1.415,2.894-2.317v10.397L92.266,122.737z"/>
	<path fill="none" stroke="#231815" stroke-width="8" stroke-linejoin="round" stroke-miterlimit="9.176" d="M111.855,108.032
		c1.358-1.131,2.47-2.473,3.334-4.028l0.509,3.259l7.363-1.973V77.808c0-1.776-0.463-2.959-1.389-3.548
		c-0.926-0.587-2.037-0.707-3.334-0.36c-1.296,0.348-2.4,1.062-3.312,2.142c-0.911,1.08-1.366,2.509-1.366,4.285v14.942
		c-0.031,0.845-0.17,1.587-0.417,2.228c-0.247,0.642-0.548,1.185-0.903,1.627c-0.354,0.443-0.749,0.802-1.181,1.073
		c-0.433,0.273-0.833,0.459-1.204,0.559c-0.401,0.107-0.818,0.141-1.25,0.1c-0.433-0.041-0.827-0.204-1.182-0.493
		c-0.355-0.288-0.648-0.697-0.88-1.228c-0.23-0.53-0.347-1.247-0.347-2.153V82.352c0-1.812-0.471-3.009-1.413-3.593
		c-0.942-0.583-2.061-0.702-3.356-0.354c-1.297,0.348-2.417,1.065-3.358,2.153c-0.942,1.089-1.413,2.539-1.413,4.35V98.91
		c0,2.752,0.278,4.977,0.833,6.674c0.557,1.698,1.304,2.969,2.247,3.813c0.941,0.846,2.053,1.323,3.333,1.433
		c1.281,0.108,2.663-0.035,4.145-0.432C108.984,109.95,110.496,109.162,111.855,108.032z"/>
	<path fill="none" stroke="#231815" stroke-width="8" stroke-linejoin="round" stroke-miterlimit="9.176" d="M142.026,76.252
		c0.479,0.029,0.888,0.181,1.228,0.455c0.339,0.275,0.609,0.673,0.811,1.193c0.201,0.521,0.285,1.222,0.255,2.1l-7.827,2.098
		c0-0.87,0.124-1.627,0.371-2.268c0.247-0.641,0.556-1.193,0.926-1.659c0.37-0.465,0.794-0.839,1.273-1.125
		c0.478-0.284,0.979-0.497,1.505-0.638C141.061,76.276,141.548,76.224,142.026,76.252z M144.064,100.368
		c0.818-0.342,1.59-0.714,2.315-1.116c0.725-0.403,1.374-0.805,1.945-1.201c0.571-0.396,1.042-0.767,1.412-1.109
		c1.112-1.03,1.906-2.139,2.385-3.33c0.478-1.19,0.47-2.364-0.023-3.521c-0.309-0.718-0.795-1.146-1.458-1.281
		c-0.665-0.135-1.397-0.043-2.2,0.276c-0.402,0.177-0.78,0.392-1.135,0.644c-0.355,0.252-0.702,0.494-1.042,0.724
		c-0.617,0.408-1.234,0.748-1.852,1.018c-0.618,0.271-1.498,0.559-2.64,0.865c-0.557,0.148-1.143,0.228-1.76,0.236
		c-0.618,0.008-1.189-0.108-1.713-0.352c-0.525-0.242-0.958-0.613-1.296-1.115c-0.341-0.5-0.51-1.204-0.51-2.11v-0.052l16.579-4.442
		c0.062-0.469,0.116-1.023,0.162-1.663c0.046-0.639,0.069-1.186,0.069-1.638c0-3.449-0.363-6.164-1.088-8.147
		c-0.726-1.981-1.69-3.421-2.894-4.318c-1.205-0.896-2.57-1.356-4.098-1.384c-1.529-0.025-3.096,0.177-4.701,0.607
		c-1.482,0.396-3.003,1.039-4.561,1.927c-1.56,0.889-2.98,2.062-4.261,3.519c-1.282,1.459-2.332,3.221-3.149,5.285
		c-0.818,2.066-1.228,4.492-1.228,7.278v4.598c0,2.716,0.424,4.894,1.274,6.529c0.848,1.637,1.959,2.827,3.334,3.574
		c1.374,0.746,2.91,1.136,4.608,1.168c1.698,0.032,3.38-0.174,5.048-0.621C142.42,100.992,143.246,100.708,144.064,100.368z"/>
	<path fill="none" stroke="#231815" stroke-width="8" stroke-linejoin="round" stroke-miterlimit="9.176" d="M166.871,93.551V74.584
		c0-0.869,0.116-1.641,0.348-2.313c0.231-0.671,0.532-1.247,0.902-1.73c0.371-0.482,0.772-0.86,1.205-1.132
		c0.432-0.272,0.849-0.463,1.251-0.57c0.401-0.107,0.817-0.141,1.25-0.101c0.432,0.041,0.826,0.206,1.181,0.493
		c0.354,0.289,0.648,0.706,0.88,1.253c0.231,0.549,0.347,1.259,0.347,2.128v18.967l9.541-2.557V70.683
		c0-2.751-0.278-4.976-0.833-6.674c-0.557-1.697-1.306-2.968-2.247-3.813c-0.942-0.845-2.054-1.321-3.334-1.432
		c-1.281-0.109-2.662,0.034-4.145,0.432c-1.234,0.33-2.447,0.899-3.635,1.704c-1.189,0.808-2.231,1.8-3.125,2.981
		c-0.402-0.834-0.996-1.388-1.783-1.666c-0.787-0.275-1.629-0.294-2.524-0.055c-0.618,0.166-1.205,0.438-1.76,0.812
		c-0.555,0.376-1.05,0.84-1.481,1.39c-0.433,0.552-0.781,1.185-1.042,1.898c-0.263,0.716-0.394,1.509-0.394,2.379v27.43
		L166.871,93.551z"/>
	<path fill="none" stroke="#231815" stroke-width="8" stroke-linejoin="round" stroke-miterlimit="9.176" d="M197.436,67.127
		c0-1.114,0.139-2.067,0.417-2.855c0.277-0.788,0.64-1.442,1.087-1.963s0.935-0.931,1.459-1.228
		c0.525-0.297,1.051-0.516,1.576-0.656c0.709-0.19,1.279-0.292,1.712-0.303c0.433-0.012,0.88,0.044,1.344,0.162
		c0.339,0.085,0.687,0.165,1.042,0.244s0.748,0.096,1.181,0.049c0.741-0.094,1.442-0.352,2.107-0.773
		c0.663-0.421,1.212-1.125,1.644-2.112c0.309-0.675,0.471-1.319,0.486-1.933s-0.077-1.19-0.277-1.729
		c-0.201-0.538-0.503-1.006-0.904-1.404c-0.4-0.396-0.879-0.712-1.436-0.947c-0.74-0.323-1.713-0.534-2.916-0.629
		c-1.205-0.095-2.641,0.08-4.308,0.527c-1.604,0.43-3.226,1.108-4.862,2.034c-1.637,0.927-3.111,2.123-4.423,3.589
		c-1.313,1.466-2.385,3.234-3.219,5.304c-0.833,2.068-1.25,4.479-1.25,7.23v4.599c0,2.821,0.417,5.043,1.25,6.666
		c0.834,1.623,1.923,2.812,3.265,3.566c1.343,0.755,2.855,1.133,4.539,1.135c1.682,0.002,3.357-0.221,5.025-0.667
		c1.574-0.422,2.993-1.037,4.26-1.847c1.266-0.81,2.33-1.626,3.195-2.45c0.556-0.531,1.034-1.113,1.436-1.743
		c0.4-0.63,0.701-1.276,0.903-1.94c0.2-0.662,0.277-1.311,0.231-1.942c-0.047-0.632-0.225-1.202-0.533-1.712
		c-0.401-0.624-0.918-0.99-1.551-1.1c-0.634-0.109-1.289-0.003-1.969,0.318c-0.433,0.186-0.834,0.441-1.203,0.767
		c-0.371,0.327-0.727,0.622-1.066,0.887c-0.617,0.479-1.196,0.852-1.736,1.118c-0.539,0.268-1.196,0.503-1.967,0.71
		c-0.525,0.141-1.059,0.205-1.6,0.193c-0.539-0.012-1.026-0.16-1.458-0.445c-0.433-0.284-0.787-0.746-1.064-1.387
		c-0.278-0.64-0.417-1.517-0.417-2.631V67.127z"/>
	<path fill="none" stroke="#231815" stroke-width="8" stroke-linejoin="round" stroke-miterlimit="9.176" d="M230.061,52.664
		c0.479,0.029,0.887,0.181,1.227,0.455c0.34,0.275,0.609,0.673,0.811,1.193c0.201,0.521,0.285,1.223,0.256,2.1l-7.828,2.098
		c0-0.87,0.125-1.627,0.371-2.268s0.556-1.193,0.927-1.659c0.37-0.465,0.794-0.839,1.272-1.125c0.479-0.284,0.98-0.497,1.506-0.638
		C229.095,52.687,229.583,52.635,230.061,52.664z M232.098,76.779c0.818-0.342,1.59-0.714,2.315-1.116
		c0.726-0.403,1.374-0.805,1.946-1.201c0.57-0.396,1.041-0.767,1.412-1.109c1.111-1.03,1.905-2.139,2.385-3.33
		c0.478-1.19,0.47-2.364-0.023-3.521c-0.31-0.718-0.795-1.146-1.459-1.281c-0.664-0.135-1.396-0.043-2.199,0.276
		c-0.402,0.177-0.78,0.392-1.135,0.644c-0.355,0.252-0.703,0.494-1.043,0.724c-0.617,0.408-1.234,0.748-1.852,1.018
		c-0.617,0.271-1.498,0.56-2.64,0.865c-0.556,0.148-1.143,0.228-1.76,0.236c-0.618,0.009-1.188-0.107-1.714-0.352
		c-0.525-0.242-0.957-0.613-1.296-1.115c-0.341-0.5-0.511-1.204-0.511-2.11v-0.052l16.58-4.442c0.062-0.469,0.115-1.023,0.162-1.663
		c0.047-0.639,0.069-1.186,0.069-1.638c0-3.449-0.363-6.164-1.089-8.147c-0.725-1.981-1.689-3.421-2.894-4.318
		c-1.204-0.896-2.57-1.356-4.099-1.384c-1.529-0.025-3.096,0.177-4.701,0.607c-1.481,0.396-3.003,1.039-4.561,1.927
		c-1.561,0.889-2.98,2.062-4.262,3.519c-1.281,1.459-2.331,3.221-3.148,5.285c-0.818,2.066-1.228,4.492-1.228,7.278v4.598
		c0,2.716,0.425,4.894,1.274,6.529c0.848,1.637,1.959,2.827,3.334,3.574c1.373,0.747,2.91,1.136,4.607,1.168
		c1.698,0.032,3.381-0.174,5.048-0.621C230.455,77.403,231.28,77.12,232.098,76.779z"/>
	<path fill="none" stroke="#231815" stroke-width="8" stroke-linejoin="round" stroke-miterlimit="9.176" d="M267.641,47.583
		c0-0.87,0.123-1.644,0.37-2.319c0.247-0.675,0.563-1.256,0.949-1.743c0.387-0.486,0.811-0.87,1.274-1.151
		c0.463-0.281,0.895-0.475,1.297-0.582c0.4-0.107,0.825-0.144,1.273-0.106c0.447,0.037,0.863,0.179,1.25,0.422
		c0.385,0.246,0.71,0.62,0.973,1.125c0.262,0.504,0.408,1.17,0.439,1.998v6.688c-0.031,0.844-0.178,1.589-0.439,2.234
		c-0.263,0.645-0.588,1.193-0.973,1.645c-0.387,0.452-0.803,0.815-1.25,1.093c-0.448,0.276-0.873,0.469-1.273,0.576
		c-0.402,0.108-0.834,0.145-1.297,0.112c-0.464-0.033-0.888-0.188-1.274-0.469c-0.386-0.278-0.702-0.682-0.949-1.209
		c-0.247-0.524-0.37-1.24-0.37-2.147V47.583z M284.869,71.129V34.503c0-0.869-0.132-1.592-0.394-2.167
		c-0.262-0.573-0.61-1.02-1.042-1.34c-0.433-0.32-0.927-0.518-1.481-0.596c-0.557-0.078-1.143-0.033-1.76,0.132
		c-0.896,0.24-1.744,0.711-2.547,1.413c-0.805,0.704-1.391,1.574-1.761,2.614c-0.896-0.7-1.922-1.139-3.079-1.317
		c-1.158-0.177-2.324-0.108-3.496,0.206c-1.545,0.414-2.996,1.038-4.354,1.871c-1.359,0.835-2.548,1.946-3.566,3.333
		c-1.019,1.388-1.822,3.084-2.408,5.087c-0.586,2.004-0.881,4.381-0.881,7.133v4.702c0,2.752,0.295,4.971,0.881,6.66
		s1.39,2.955,2.408,3.796c1.019,0.842,2.207,1.315,3.566,1.422c1.357,0.106,2.809-0.047,4.354-0.461
		c1.141-0.306,2.229-0.781,3.264-1.424c1.034-0.642,1.999-1.414,2.895-2.316v10.397L284.869,71.129z"/>
	<path fill="none" stroke="#231815" stroke-width="8" stroke-linejoin="round" stroke-miterlimit="9.176" d="M304.458,56.423
		c1.358-1.13,2.471-2.472,3.334-4.028l0.51,3.26l7.363-1.973V26.201c0-1.776-0.463-2.959-1.389-3.548
		c-0.927-0.587-2.037-0.708-3.335-0.36c-1.296,0.348-2.4,1.062-3.312,2.142c-0.91,1.08-1.365,2.509-1.365,4.285v14.942
		c-0.031,0.845-0.17,1.587-0.418,2.228c-0.246,0.641-0.549,1.185-0.902,1.626c-0.355,0.444-0.749,0.803-1.181,1.074
		c-0.433,0.273-0.833,0.459-1.204,0.558c-0.401,0.107-0.818,0.142-1.25,0.101c-0.434-0.041-0.827-0.204-1.182-0.493
		c-0.355-0.288-0.648-0.697-0.88-1.228s-0.347-1.247-0.347-2.153v-14.63c0-1.811-0.472-3.008-1.413-3.593
		c-0.942-0.583-2.061-0.701-3.358-0.354c-1.296,0.348-2.415,1.065-3.355,2.153c-0.943,1.089-1.414,2.539-1.414,4.35v14.002
		c0,2.752,0.279,4.977,0.834,6.674c0.557,1.698,1.305,2.969,2.246,3.813c0.941,0.845,2.053,1.322,3.334,1.432
		s2.663-0.034,4.145-0.431C301.586,58.342,303.098,57.554,304.458,56.423z"/>
	<path fill="none" stroke="#231815" stroke-width="8" stroke-linejoin="round" stroke-miterlimit="9.176" d="M320.875,15.165
		c0.262,0.539,0.607,0.942,1.041,1.209c0.433,0.269,0.941,0.41,1.527,0.428c0.587,0.017,1.205-0.063,1.854-0.236
		c0.647-0.173,1.265-0.426,1.852-0.757s1.096-0.746,1.529-1.246c0.432-0.499,0.779-1.088,1.041-1.768s0.394-1.456,0.394-2.326
		c0-1.706-0.479-2.806-1.435-3.299c-0.958-0.492-2.084-0.565-3.381-0.218s-2.424,1.024-3.381,2.029
		c-0.957,1.006-1.436,2.362-1.436,4.068C320.481,13.919,320.612,14.625,320.875,15.165z M320.528,52.379l9.539-2.557V22.759
		c0-1.812-0.471-3.009-1.412-3.594c-0.942-0.583-2.061-0.701-3.357-0.354s-2.416,1.065-3.357,2.153
		c-0.942,1.089-1.412,2.539-1.412,4.35V52.379z"/>
	<path fill="none" stroke="#231815" stroke-width="8" stroke-linejoin="round" stroke-miterlimit="9.176" d="M345.627,22.038
		l-9.68,15.551c-0.711,1.131-1.211,2.137-1.504,3.016c-0.295,0.881-0.464,1.666-0.51,2.357c-0.047,0.691,0.008,1.286,0.162,1.785
		c0.153,0.5,0.324,0.914,0.509,1.248c0.464,0.815,1.135,1.307,2.015,1.472c0.88,0.164,1.969,0.073,3.266-0.274l14.402-3.859
		c0.648-0.174,1.211-0.464,1.689-0.87s0.864-0.858,1.158-1.355c0.293-0.497,0.509-1.024,0.648-1.584
		c0.139-0.56,0.208-1.102,0.208-1.623c0-0.522-0.069-1.018-0.208-1.485c-0.14-0.468-0.355-0.872-0.648-1.212
		c-0.294-0.339-0.672-0.577-1.135-0.715c-0.463-0.137-1.035-0.114-1.713,0.068l-8.846,2.37l9.68-15.552
		c0.647-1.044,1.118-1.997,1.412-2.859c0.293-0.862,0.471-1.642,0.531-2.338c0.063-0.695,0.031-1.314-0.092-1.856
		c-0.124-0.541-0.294-0.991-0.51-1.352c-0.896-1.502-2.654-1.9-5.279-1.197l-13.245,3.549c-0.647,0.174-1.211,0.463-1.69,0.87
		c-0.479,0.407-0.864,0.858-1.156,1.355c-0.295,0.496-0.511,1.025-0.648,1.584c-0.14,0.56-0.209,1.102-0.209,1.623
		c0,0.522,0.069,1.019,0.209,1.485c0.138,0.469,0.354,0.872,0.648,1.211c0.292,0.34,0.671,0.578,1.133,0.716
		c0.465,0.137,1.035,0.114,1.714-0.068L345.627,22.038z"/>
	<g>
		<path fill="#FFFFFF" d="M16.042,104.134c-0.031,0.983,0.463,1.687,1.482,2.11c1.02,0.424,2.455,0.735,4.307,0.936l2.269,0.28
			c1.358,0.193,2.586,0.561,3.682,1.103c1.096,0.543,2.03,1.277,2.802,2.202c0.771,0.926,1.343,2.043,1.713,3.354
			c0.37,1.312,0.509,2.815,0.417,4.513c-0.216,3.785-1.551,7.034-4.006,9.746c-2.454,2.713-5.796,4.637-10.026,5.77
			c-2.069,0.555-4.06,0.834-5.974,0.843c-1.915,0.009-3.504-0.375-4.77-1.151c-0.433-0.302-0.803-0.682-1.111-1.139
			c-0.309-0.457-0.533-0.963-0.671-1.519c-0.139-0.554-0.163-1.166-0.069-1.836c0.092-0.669,0.308-1.345,0.648-2.028
			c0.339-0.684,0.818-1.265,1.436-1.744c0.618-0.479,1.234-0.817,1.853-1.019c0.802-0.249,1.443-0.282,1.922-0.097
			c0.478,0.186,0.933,0.36,1.366,0.522c0.524,0.243,1.204,0.383,2.038,0.421c0.833,0.037,2.038-0.154,3.612-0.576
			c1.297-0.348,2.3-0.878,3.01-1.591c0.71-0.713,1.08-1.647,1.111-2.806c0-0.487-0.17-0.912-0.509-1.273
			c-0.34-0.362-0.827-0.65-1.459-0.863c-0.633-0.213-1.366-0.392-2.2-0.535c-0.833-0.142-1.729-0.259-2.686-0.35
			c-0.37-0.041-0.764-0.092-1.181-0.154c-0.417-0.063-0.764-0.127-1.042-0.191c-1.76-0.365-3.181-1.02-4.261-1.967
			c-1.081-0.946-1.892-2.07-2.431-3.371c-0.541-1.301-0.819-2.716-0.834-4.245c-0.016-1.527,0.178-3.024,0.58-4.491
			c0.802-3.037,2.292-5.611,4.469-7.729c2.176-2.115,4.854-3.6,8.035-4.451c1.204-0.323,2.261-0.546,3.172-0.668
			c0.91-0.121,1.713-0.18,2.408-0.174c0.695,0.005,1.297,0.07,1.807,0.194c0.509,0.125,0.979,0.252,1.412,0.38
			c1.08,0.372,1.922,1.069,2.524,2.092c0.602,1.023,0.733,2.207,0.394,3.553c-0.31,1.162-0.827,2.067-1.552,2.715
			c-0.726,0.647-1.536,1.09-2.432,1.33c-0.34,0.091-0.726,0.125-1.157,0.101c-0.433-0.022-0.757-0.093-0.973-0.209
			c-0.556-0.269-1.266-0.444-2.13-0.526c-0.865-0.082-1.991,0.063-3.381,0.436c-1.111,0.298-1.984,0.785-2.616,1.458
			C16.404,102.165,16.072,103.045,16.042,104.134z"/>
		<path fill="#FFFFFF" d="M49.987,125.759c-1.667,0.447-3.35,0.654-5.047,0.621c-1.699-0.033-3.235-0.422-4.608-1.169
			c-1.375-0.746-2.486-1.937-3.334-3.573c-0.85-1.636-1.273-3.813-1.273-6.529v-4.599c0-2.786,0.409-5.211,1.227-7.276
			c0.818-2.065,1.868-3.827,3.149-5.285c1.281-1.458,2.701-2.632,4.261-3.52c1.559-0.888,3.08-1.529,4.562-1.927
			c1.605-0.431,3.172-0.633,4.7-0.607c1.528,0.027,2.895,0.488,4.099,1.384c1.204,0.897,2.169,2.336,2.895,4.318
			c0.725,1.984,1.088,4.698,1.088,8.147c0,0.452-0.023,0.998-0.069,1.638c-0.046,0.639-0.101,1.194-0.163,1.663l-16.579,4.442v0.052
			c0,0.906,0.169,1.61,0.509,2.11c0.34,0.502,0.772,0.874,1.297,1.116c0.524,0.243,1.095,0.359,1.713,0.351
			c0.617-0.009,1.204-0.088,1.76-0.236c1.142-0.307,2.022-0.595,2.64-0.865c0.617-0.27,1.234-0.608,1.852-1.019
			c0.34-0.229,0.687-0.471,1.042-0.724c0.354-0.251,0.733-0.465,1.134-0.643c0.803-0.319,1.536-0.411,2.2-0.275
			c0.664,0.135,1.15,0.563,1.459,1.28c0.493,1.157,0.501,2.331,0.023,3.521c-0.479,1.191-1.273,2.3-2.385,3.329
			c-0.371,0.344-0.842,0.714-1.413,1.11c-0.571,0.396-1.22,0.797-1.945,1.201c-0.726,0.402-1.498,0.775-2.316,1.116
			C51.646,125.253,50.821,125.537,49.987,125.759z M48.968,100.954c-0.525,0.141-1.027,0.354-1.505,0.639
			c-0.479,0.284-0.903,0.66-1.273,1.124c-0.371,0.466-0.679,1.019-0.926,1.66c-0.248,0.641-0.371,1.396-0.371,2.267l7.827-2.097
			c0.03-0.879-0.054-1.579-0.255-2.1c-0.201-0.521-0.471-0.919-0.81-1.194c-0.34-0.274-0.749-0.427-1.228-0.454
			C49.948,100.769,49.461,100.822,48.968,100.954z"/>
		<path fill="#FFFFFF" d="M82.867,125.256v-10.397c-0.896,0.902-1.861,1.674-2.895,2.317c-1.035,0.643-2.123,1.118-3.265,1.424
			c-1.544,0.413-2.995,0.567-4.354,0.46c-1.359-0.105-2.547-0.579-3.566-1.421s-1.822-2.106-2.408-3.796
			c-0.587-1.689-0.88-3.909-0.88-6.661v-4.702c0-2.751,0.293-5.129,0.88-7.133c0.585-2.002,1.389-3.698,2.408-5.086
			s2.207-2.499,3.566-3.333c1.358-0.834,2.809-1.458,4.354-1.871c1.173-0.314,2.338-0.384,3.496-0.206s2.184,0.617,3.08,1.316
			c0.37-1.039,0.956-1.91,1.759-2.612c0.802-0.704,1.651-1.174,2.547-1.414c0.618-0.165,1.204-0.21,1.76-0.133
			c0.556,0.079,1.049,0.276,1.482,0.597c0.432,0.319,0.78,0.766,1.042,1.34c0.262,0.575,0.393,1.297,0.393,2.168v36.625
			L82.867,125.256z M75.041,105.357c0,0.906,0.123,1.623,0.37,2.148c0.247,0.526,0.563,0.929,0.95,1.208
			c0.386,0.28,0.811,0.437,1.274,0.469c0.462,0.033,0.895-0.005,1.296-0.112c0.401-0.107,0.825-0.299,1.273-0.576
			c0.447-0.276,0.864-0.641,1.25-1.094c0.386-0.45,0.709-0.999,0.972-1.645c0.262-0.645,0.409-1.389,0.44-2.233v-6.688
			c-0.031-0.828-0.178-1.493-0.44-1.997c-0.263-0.505-0.586-0.879-0.972-1.124c-0.386-0.244-0.803-0.386-1.25-0.424
			c-0.448-0.035-0.873-0.001-1.273,0.106c-0.402,0.107-0.834,0.303-1.296,0.583c-0.463,0.281-0.888,0.664-1.274,1.15
			c-0.386,0.487-0.703,1.069-0.95,1.744c-0.247,0.676-0.37,1.449-0.37,2.319V105.357z"/>
		<path fill="#FFFFFF" d="M107.319,110.398c-1.482,0.396-2.864,0.539-4.145,0.431c-1.282-0.109-2.394-0.586-3.335-1.432
			c-0.942-0.845-1.689-2.115-2.246-3.813c-0.556-1.696-0.833-3.921-0.833-6.673V84.909c0-1.811,0.47-3.261,1.413-4.35
			c0.941-1.088,2.061-1.806,3.357-2.153c1.297-0.348,2.416-0.229,3.358,0.354c0.941,0.584,1.413,1.781,1.413,3.592v14.629
			c0,0.906,0.115,1.625,0.347,2.154c0.231,0.53,0.525,0.939,0.88,1.228c0.354,0.288,0.748,0.453,1.181,0.492
			c0.432,0.042,0.848,0.009,1.25-0.1c0.371-0.099,0.771-0.284,1.204-0.558c0.432-0.272,0.826-0.63,1.181-1.074
			c0.354-0.442,0.656-0.985,0.903-1.626c0.247-0.641,0.386-1.383,0.417-2.228V80.327c0-1.776,0.455-3.204,1.366-4.284
			c0.91-1.08,2.014-1.793,3.311-2.141c1.296-0.348,2.408-0.228,3.334,0.36c0.926,0.588,1.389,1.769,1.389,3.546v27.482l-7.363,1.973
			l-0.51-3.26c-0.864,1.556-1.976,2.898-3.334,4.029C110.498,109.162,108.986,109.951,107.319,110.398z"/>
		<path fill="#FFFFFF" d="M141.588,101.215c-1.667,0.446-3.35,0.653-5.047,0.621c-1.698-0.033-3.234-0.423-4.608-1.17
			c-1.375-0.745-2.486-1.937-3.334-3.573c-0.85-1.636-1.273-3.812-1.273-6.528v-4.599c0-2.786,0.409-5.211,1.227-7.277
			c0.818-2.064,1.868-3.826,3.149-5.285c1.28-1.457,2.701-2.631,4.26-3.519c1.559-0.889,3.08-1.53,4.562-1.928
			c1.605-0.43,3.172-0.632,4.701-0.606c1.528,0.026,2.895,0.488,4.099,1.384c1.204,0.897,2.168,2.336,2.894,4.318
			c0.725,1.983,1.088,4.697,1.088,8.146c0,0.452-0.023,0.999-0.069,1.638c-0.046,0.64-0.101,1.195-0.162,1.664l-16.58,4.442v0.052
			c0,0.906,0.169,1.609,0.51,2.11c0.339,0.502,0.771,0.873,1.297,1.115c0.524,0.243,1.096,0.36,1.713,0.351
			c0.617-0.008,1.204-0.087,1.76-0.236c1.142-0.306,2.022-0.594,2.64-0.864c0.617-0.27,1.234-0.609,1.852-1.019
			c0.34-0.23,0.687-0.472,1.042-0.724c0.354-0.251,0.733-0.466,1.134-0.644c0.803-0.319,1.536-0.411,2.2-0.275
			c0.664,0.136,1.15,0.563,1.459,1.281c0.493,1.156,0.501,2.33,0.023,3.52c-0.479,1.192-1.273,2.301-2.385,3.33
			c-0.371,0.343-0.842,0.713-1.413,1.109c-0.571,0.397-1.22,0.798-1.945,1.201c-0.726,0.403-1.498,0.775-2.316,1.116
			C143.247,100.709,142.422,100.992,141.588,101.215z M140.569,76.41c-0.525,0.141-1.027,0.353-1.505,0.639
			c-0.479,0.284-0.903,0.659-1.273,1.124c-0.371,0.466-0.68,1.019-0.926,1.659c-0.248,0.641-0.371,1.397-0.371,2.268l7.827-2.098
			c0.031-0.878-0.054-1.579-0.255-2.1c-0.201-0.521-0.471-0.918-0.81-1.193c-0.34-0.274-0.749-0.427-1.227-0.455
			C141.549,76.225,141.063,76.277,140.569,76.41z"/>
		<path fill="#FFFFFF" d="M157.472,96.071v-27.43c0-0.87,0.131-1.663,0.394-2.379c0.262-0.714,0.609-1.347,1.042-1.898
			c0.432-0.552,0.926-1.014,1.482-1.39c0.556-0.375,1.142-0.646,1.76-0.811c0.895-0.24,1.736-0.223,2.524,0.055
			c0.787,0.276,1.381,0.831,1.783,1.664c0.895-1.181,1.937-2.174,3.126-2.979c1.188-0.807,2.4-1.374,3.635-1.706
			c1.482-0.396,2.863-0.54,4.145-0.432c1.28,0.11,2.392,0.587,3.334,1.432c0.941,0.845,1.69,2.117,2.247,3.813
			c0.555,1.698,0.833,3.923,0.833,6.673v18.34l-9.54,2.556V72.613c0-0.87-0.116-1.579-0.347-2.128
			c-0.232-0.546-0.525-0.964-0.88-1.253c-0.355-0.288-0.749-0.452-1.181-0.493c-0.433-0.04-0.85-0.008-1.25,0.1
			c-0.401,0.107-0.818,0.298-1.25,0.57c-0.433,0.273-0.833,0.65-1.204,1.132c-0.371,0.483-0.671,1.062-0.903,1.731
			c-0.232,0.673-0.347,1.444-0.347,2.313v18.967L157.472,96.071z"/>
		<path fill="#FFFFFF" d="M197.437,71.83c0,1.115,0.14,1.992,0.417,2.632c0.278,0.64,0.633,1.102,1.064,1.386
			c0.433,0.285,0.919,0.434,1.46,0.445c0.539,0.013,1.072-0.052,1.598-0.192c0.771-0.207,1.427-0.443,1.968-0.71
			c0.54-0.268,1.119-0.64,1.736-1.119c0.34-0.265,0.695-0.561,1.065-0.887c0.37-0.324,0.771-0.58,1.204-0.766
			c0.679-0.32,1.335-0.428,1.968-0.318s1.15,0.475,1.552,1.099c0.309,0.51,0.487,1.081,0.533,1.713s-0.031,1.279-0.232,1.942
			c-0.201,0.664-0.502,1.31-0.902,1.939c-0.402,0.631-0.88,1.211-1.436,1.743c-0.865,0.825-1.931,1.642-3.196,2.45
			c-1.266,0.81-2.686,1.426-4.26,1.848c-1.668,0.446-3.343,0.668-5.024,0.666c-1.684-0.002-3.196-0.38-4.539-1.135
			s-2.432-1.942-3.265-3.566c-0.833-1.622-1.25-3.844-1.25-6.666v-4.598c0-2.752,0.417-5.162,1.25-7.232
			c0.833-2.068,1.906-3.836,3.219-5.303c1.312-1.465,2.786-2.662,4.422-3.588c1.637-0.927,3.258-1.604,4.863-2.034
			c1.667-0.446,3.103-0.622,4.307-0.527c1.204,0.096,2.177,0.305,2.918,0.628c0.556,0.235,1.033,0.552,1.436,0.947
			c0.4,0.398,0.702,0.867,0.902,1.405c0.201,0.539,0.294,1.114,0.278,1.728c-0.016,0.614-0.178,1.258-0.486,1.933
			c-0.434,0.987-0.98,1.691-1.645,2.112c-0.664,0.422-1.365,0.68-2.106,0.773c-0.433,0.047-0.827,0.031-1.181-0.049
			c-0.355-0.078-0.703-0.159-1.042-0.243c-0.464-0.119-0.911-0.174-1.344-0.162c-0.432,0.011-1.004,0.111-1.713,0.302
			c-0.525,0.141-1.05,0.36-1.574,0.657c-0.525,0.298-1.013,0.706-1.459,1.227c-0.448,0.521-0.811,1.177-1.089,1.964
			c-0.277,0.789-0.417,1.74-0.417,2.854V71.83z"/>
		<path fill="#FFFFFF" d="M229.622,77.626c-1.666,0.447-3.351,0.654-5.047,0.621c-1.699-0.033-3.234-0.422-4.608-1.17
			c-1.374-0.745-2.485-1.936-3.334-3.572c-0.851-1.636-1.273-3.813-1.273-6.529v-4.599c0-2.786,0.408-5.211,1.227-7.277
			c0.818-2.064,1.868-3.826,3.149-5.285c1.28-1.457,2.701-2.631,4.261-3.519c1.558-0.889,3.079-1.53,4.562-1.928
			c1.604-0.43,3.172-0.632,4.7-0.606c1.528,0.026,2.895,0.488,4.099,1.384c1.204,0.897,2.169,2.336,2.894,4.318
			c0.726,1.983,1.089,4.697,1.089,8.146c0,0.453-0.023,0.999-0.069,1.639c-0.047,0.639-0.101,1.194-0.162,1.663l-16.579,4.442v0.052
			c0,0.906,0.169,1.61,0.51,2.11c0.34,0.502,0.771,0.874,1.296,1.115c0.525,0.243,1.097,0.36,1.714,0.351
			c0.617-0.008,1.204-0.087,1.76-0.235c1.142-0.307,2.022-0.595,2.64-0.865c0.617-0.27,1.235-0.609,1.853-1.019
			c0.339-0.229,0.688-0.472,1.042-0.724c0.354-0.251,0.732-0.465,1.135-0.643c0.803-0.32,1.535-0.412,2.199-0.276
			s1.15,0.563,1.46,1.281c0.493,1.157,0.501,2.33,0.022,3.521c-0.479,1.191-1.273,2.3-2.385,3.329
			c-0.371,0.343-0.842,0.714-1.413,1.11s-1.22,0.797-1.945,1.2s-1.498,0.775-2.314,1.116
			C231.281,77.121,230.456,77.404,229.622,77.626z M228.603,52.821c-0.525,0.141-1.026,0.353-1.505,0.639
			c-0.479,0.284-0.903,0.659-1.273,1.124c-0.37,0.466-0.68,1.019-0.927,1.66c-0.247,0.64-0.37,1.396-0.37,2.267l7.827-2.097
			c0.03-0.879-0.055-1.58-0.255-2.101c-0.202-0.521-0.472-0.918-0.811-1.193c-0.341-0.274-0.749-0.427-1.228-0.454
			C229.583,52.636,229.096,52.689,228.603,52.821z"/>
		<path fill="#FFFFFF" d="M275.468,73.649V63.251c-0.895,0.902-1.86,1.674-2.894,2.317c-1.035,0.643-2.123,1.118-3.265,1.424
			c-1.544,0.413-2.995,0.567-4.354,0.46c-1.359-0.105-2.547-0.579-3.565-1.422c-1.019-0.841-1.822-2.105-2.408-3.796
			c-0.587-1.688-0.88-3.908-0.88-6.66v-4.702c0-2.751,0.293-5.129,0.88-7.133c0.586-2.002,1.39-3.698,2.408-5.086
			s2.206-2.499,3.565-3.333c1.358-0.835,2.81-1.458,4.354-1.871c1.172-0.314,2.338-0.384,3.496-0.206s2.185,0.616,3.079,1.316
			c0.371-1.039,0.957-1.91,1.761-2.613c0.803-0.703,1.65-1.173,2.547-1.413c0.616-0.165,1.204-0.21,1.76-0.133
			c0.556,0.078,1.049,0.276,1.482,0.596c0.432,0.32,0.778,0.767,1.041,1.341c0.262,0.574,0.395,1.297,0.395,2.167v36.625
			L275.468,73.649z M267.642,53.75c0,0.906,0.124,1.623,0.371,2.148c0.247,0.526,0.563,0.929,0.949,1.208
			c0.386,0.28,0.811,0.437,1.273,0.468c0.464,0.033,0.896-0.004,1.296-0.111c0.401-0.107,0.827-0.3,1.274-0.577
			c0.447-0.276,0.863-0.64,1.25-1.093c0.386-0.451,0.711-1,0.973-1.645c0.263-0.645,0.408-1.389,0.439-2.233v-6.688
			c-0.031-0.828-0.177-1.494-0.439-1.998c-0.262-0.504-0.587-0.879-0.973-1.124c-0.387-0.243-0.803-0.386-1.25-0.423
			c-0.447-0.036-0.873-0.001-1.274,0.106c-0.4,0.107-0.832,0.302-1.296,0.583c-0.463,0.281-0.888,0.664-1.273,1.15
			c-0.387,0.487-0.702,1.069-0.949,1.744c-0.247,0.676-0.371,1.449-0.371,2.319V53.75z"/>
		<path fill="#FFFFFF" d="M299.92,58.791c-1.481,0.396-2.864,0.539-4.145,0.431c-1.281-0.11-2.394-0.586-3.335-1.432
			c-0.942-0.845-1.69-2.115-2.246-3.813c-0.556-1.696-0.834-3.921-0.834-6.673V33.301c0-1.811,0.471-3.261,1.413-4.35
			c0.941-1.088,2.062-1.806,3.357-2.153c1.297-0.348,2.416-0.229,3.358,0.354c0.941,0.583,1.412,1.781,1.412,3.592v14.629
			c0,0.906,0.116,1.624,0.347,2.154c0.232,0.53,0.524,0.939,0.88,1.228s0.748,0.452,1.182,0.492c0.432,0.042,0.849,0.009,1.25-0.099
			c0.37-0.1,0.771-0.285,1.204-0.559c0.433-0.272,0.825-0.63,1.181-1.074c0.355-0.442,0.656-0.985,0.903-1.626
			s0.386-1.383,0.417-2.228V28.719c0-1.776,0.454-3.204,1.365-4.284s2.016-1.793,3.313-2.141c1.296-0.348,2.407-0.228,3.333,0.36
			c0.927,0.588,1.39,1.769,1.39,3.546v27.482l-7.363,1.973l-0.509-3.26c-0.865,1.556-1.977,2.898-3.335,4.029
			C303.1,57.554,301.587,58.343,299.92,58.791z"/>
		<path fill="#FFFFFF" d="M320.482,13.049c0-1.706,0.479-3.062,1.436-4.068c0.957-1.004,2.084-1.681,3.381-2.028
			s2.424-0.274,3.381,0.217c0.957,0.494,1.436,1.593,1.436,3.299c0,0.871-0.132,1.647-0.394,2.326
			c-0.263,0.681-0.609,1.27-1.042,1.769c-0.433,0.5-0.942,0.915-1.528,1.245c-0.586,0.332-1.204,0.584-1.853,0.758
			c-0.647,0.173-1.266,0.253-1.853,0.235c-0.587-0.017-1.096-0.159-1.528-0.427c-0.433-0.267-0.779-0.67-1.042-1.21
			C320.614,14.626,320.482,13.92,320.482,13.049z M320.529,25.316c0-1.811,0.471-3.262,1.413-4.35
			c0.941-1.088,2.06-1.807,3.356-2.154c1.297-0.347,2.416-0.229,3.357,0.355c0.941,0.583,1.413,1.781,1.413,3.592v27.064
			l-9.54,2.557V25.316z"/>
		<path fill="#FFFFFF" d="M337.942,24.097c-0.68,0.183-1.251,0.206-1.715,0.068c-0.463-0.137-0.841-0.375-1.134-0.715
			c-0.294-0.339-0.509-0.743-0.648-1.211c-0.139-0.468-0.209-0.963-0.209-1.485s0.07-1.063,0.209-1.623
			c0.14-0.56,0.354-1.088,0.648-1.585c0.293-0.496,0.679-0.947,1.158-1.355c0.478-0.406,1.042-0.697,1.69-0.871l13.244-3.549
			c2.623-0.702,4.384-0.303,5.279,1.198c0.216,0.36,0.386,0.811,0.51,1.353c0.123,0.541,0.153,1.16,0.093,1.856
			c-0.063,0.695-0.24,1.476-0.533,2.337c-0.293,0.863-0.764,1.816-1.412,2.859l-9.679,15.552l8.845-2.37
			c0.68-0.182,1.251-0.204,1.714-0.067c0.463,0.138,0.841,0.376,1.135,0.715c0.293,0.339,0.51,0.743,0.648,1.211
			c0.139,0.469,0.208,0.963,0.208,1.485s-0.069,1.063-0.208,1.623s-0.355,1.088-0.648,1.585c-0.294,0.497-0.68,0.948-1.158,1.354
			c-0.479,0.407-1.041,0.697-1.69,0.871l-14.402,3.859c-1.297,0.348-2.386,0.438-3.265,0.274c-0.88-0.165-1.552-0.655-2.015-1.472
			c-0.185-0.334-0.355-0.749-0.51-1.249c-0.154-0.497-0.208-1.093-0.162-1.784c0.047-0.692,0.216-1.477,0.51-2.357
			c0.293-0.879,0.795-1.885,1.506-3.016l9.679-15.552L337.942,24.097z"/>
	</g>
	<path fill="none" stroke="#2C7EE9" stroke-width="8" stroke-linejoin="round" stroke-miterlimit="9.176" d="M15.008,98.752
		c0.632-0.674,1.505-1.161,2.617-1.459c1.389-0.372,2.516-0.517,3.38-0.436c0.864,0.082,1.575,0.257,2.13,0.526
		c0.216,0.117,0.54,0.187,0.973,0.21c0.432,0.023,0.818-0.011,1.158-0.102c0.895-0.24,1.705-0.683,2.432-1.331
		c0.724-0.646,1.242-1.551,1.551-2.714c0.339-1.346,0.208-2.529-0.395-3.552c-0.602-1.022-1.443-1.72-2.524-2.093
		c-0.433-0.128-0.903-0.254-1.412-0.38c-0.509-0.124-1.112-0.188-1.806-0.195c-0.694-0.004-1.497,0.054-2.408,0.176
		c-0.911,0.123-1.968,0.344-3.172,0.666c-3.18,0.853-5.858,2.337-8.035,4.453c-2.177,2.116-3.667,4.691-4.469,7.728
		c-0.402,1.467-0.595,2.964-0.579,4.492c0.016,1.528,0.292,2.943,0.833,4.243c0.54,1.302,1.351,2.426,2.431,3.372
		c1.08,0.947,2.501,1.604,4.261,1.967c0.277,0.065,0.625,0.129,1.042,0.191c0.417,0.063,0.81,0.114,1.181,0.153
		c0.956,0.093,1.853,0.21,2.686,0.352c0.834,0.143,1.567,0.32,2.2,0.534c0.633,0.215,1.119,0.502,1.458,0.863
		c0.34,0.362,0.51,0.786,0.51,1.274c-0.032,1.157-0.401,2.093-1.111,2.805c-0.711,0.714-1.714,1.243-3.01,1.591
		c-1.574,0.422-2.779,0.614-3.612,0.576c-0.833-0.037-1.513-0.178-2.037-0.421c-0.433-0.162-0.889-0.337-1.367-0.522
		c-0.479-0.185-1.12-0.152-1.921,0.098c-0.618,0.2-1.235,0.539-1.853,1.019c-0.618,0.479-1.097,1.061-1.437,1.743
		c-0.34,0.685-0.555,1.36-0.648,2.029s-0.07,1.281,0.069,1.836s0.362,1.061,0.671,1.519c0.308,0.457,0.679,0.836,1.112,1.139
		c1.265,0.776,2.855,1.159,4.77,1.15c1.915-0.008,3.905-0.288,5.975-0.843c4.229-1.133,7.572-3.057,10.026-5.77
		c2.454-2.712,3.789-5.961,4.005-9.746c0.093-1.696-0.046-3.201-0.416-4.512c-0.371-1.312-0.943-2.43-1.714-3.355
		c-0.772-0.925-1.707-1.658-2.802-2.201c-1.096-0.542-2.323-0.909-3.682-1.104l-2.269-0.28c-1.853-0.199-3.288-0.512-4.307-0.936
		c-1.018-0.424-1.513-1.126-1.482-2.111C14.043,100.309,14.375,99.427,15.008,98.752z"/>
	<path fill="none" stroke="#2C7EE9" stroke-width="8" stroke-linejoin="round" stroke-miterlimit="9.176" d="M48.397,98.061
		c0.479,0.028,0.888,0.18,1.228,0.454c0.339,0.275,0.609,0.674,0.811,1.194c0.201,0.521,0.285,1.222,0.255,2.1l-7.827,2.097
		c0-0.869,0.124-1.626,0.371-2.267c0.246-0.641,0.555-1.193,0.926-1.66c0.37-0.464,0.794-0.839,1.273-1.124
		c0.479-0.285,0.979-0.498,1.505-0.639C47.432,98.084,47.919,98.033,48.397,98.061z M50.436,122.175
		c0.817-0.341,1.59-0.713,2.315-1.116c0.726-0.403,1.374-0.805,1.945-1.201c0.571-0.396,1.042-0.766,1.413-1.109
		c1.112-1.029,1.906-2.138,2.385-3.329c0.478-1.19,0.47-2.364-0.023-3.521c-0.309-0.718-0.795-1.146-1.458-1.281
		c-0.665-0.135-1.397-0.043-2.199,0.277c-0.402,0.177-0.781,0.391-1.135,0.644c-0.355,0.251-0.702,0.493-1.042,0.723
		c-0.617,0.409-1.234,0.748-1.852,1.019c-0.618,0.27-1.498,0.559-2.64,0.864c-0.556,0.149-1.143,0.228-1.76,0.237
		c-0.618,0.008-1.189-0.108-1.713-0.352c-0.526-0.242-0.958-0.613-1.296-1.116c-0.341-0.499-0.51-1.204-0.51-2.109v-0.052
		l16.579-4.442c0.062-0.469,0.116-1.024,0.163-1.664c0.046-0.639,0.069-1.186,0.069-1.638c0-3.448-0.363-6.164-1.088-8.146
		c-0.726-1.982-1.69-3.421-2.894-4.318c-1.205-0.896-2.57-1.357-4.099-1.385c-1.529-0.024-3.096,0.178-4.701,0.607
		c-1.481,0.397-3.003,1.04-4.561,1.928c-1.56,0.888-2.979,2.062-4.261,3.519c-1.282,1.458-2.332,3.22-3.149,5.285
		c-0.819,2.066-1.228,4.491-1.228,7.277v4.598c0,2.717,0.424,4.895,1.274,6.53c0.848,1.636,1.96,2.827,3.334,3.573
		c1.374,0.747,2.91,1.136,4.607,1.168c1.698,0.033,3.381-0.174,5.048-0.62C48.792,122.799,49.617,122.516,50.436,122.175z"/>
	<path fill="none" stroke="#2C7EE9" stroke-width="8" stroke-linejoin="round" stroke-miterlimit="9.176" d="M73.011,96.456
		c0-0.871,0.123-1.645,0.37-2.32c0.247-0.675,0.563-1.256,0.949-1.743c0.387-0.486,0.811-0.87,1.274-1.15
		c0.462-0.282,0.895-0.475,1.296-0.583c0.401-0.107,0.826-0.144,1.274-0.106c0.447,0.037,0.863,0.179,1.25,0.422
		c0.385,0.246,0.71,0.621,0.973,1.125c0.262,0.504,0.408,1.17,0.439,1.998v6.688c-0.031,0.844-0.178,1.588-0.439,2.232
		c-0.263,0.646-0.587,1.194-0.973,1.646c-0.387,0.453-0.803,0.815-1.25,1.093c-0.448,0.276-0.874,0.47-1.274,0.577
		c-0.401,0.107-0.833,0.145-1.296,0.112c-0.464-0.033-0.888-0.189-1.274-0.47c-0.386-0.278-0.702-0.682-0.949-1.208
		c-0.248-0.525-0.37-1.241-0.37-2.147V96.456z M90.239,120V83.375c0-0.869-0.131-1.592-0.394-2.167
		c-0.262-0.573-0.61-1.02-1.042-1.34c-0.433-0.32-0.926-0.518-1.482-0.596c-0.556-0.078-1.143-0.033-1.76,0.132
		c-0.896,0.24-1.745,0.711-2.547,1.413c-0.804,0.704-1.39,1.575-1.76,2.614c-0.896-0.7-1.922-1.139-3.079-1.317
		c-1.158-0.177-2.324-0.108-3.497,0.206c-1.545,0.414-2.996,1.038-4.354,1.872c-1.359,0.834-2.547,1.945-3.566,3.332
		c-1.018,1.388-1.822,3.084-2.408,5.087c-0.586,2.004-0.88,4.381-0.88,7.133v4.702c0,2.752,0.294,4.972,0.88,6.66
		c0.586,1.689,1.39,2.955,2.408,3.796c1.019,0.842,2.207,1.315,3.566,1.422c1.358,0.106,2.809-0.047,4.354-0.461
		c1.142-0.306,2.23-0.78,3.265-1.423c1.034-0.643,1.999-1.415,2.894-2.317v10.397L90.239,120z"/>
	<path fill="none" stroke="#2C7EE9" stroke-width="8" stroke-linejoin="round" stroke-miterlimit="9.176" d="M109.828,105.295
		c1.358-1.131,2.47-2.473,3.334-4.028l0.509,3.259l7.363-1.973V75.072c0-1.776-0.463-2.959-1.389-3.548
		c-0.926-0.587-2.037-0.707-3.334-0.36c-1.296,0.348-2.4,1.062-3.311,2.142c-0.911,1.08-1.366,2.509-1.366,4.285v14.942
		c-0.031,0.845-0.17,1.587-0.417,2.228c-0.247,0.642-0.549,1.185-0.903,1.626c-0.354,0.444-0.749,0.803-1.18,1.074
		c-0.433,0.273-0.833,0.459-1.205,0.558c-0.401,0.107-0.818,0.142-1.25,0.101c-0.433-0.041-0.827-0.204-1.181-0.493
		c-0.355-0.288-0.648-0.697-0.88-1.228c-0.231-0.53-0.347-1.247-0.347-2.153v-14.63c0-1.811-0.472-3.008-1.413-3.592
		c-0.942-0.584-2.061-0.702-3.357-0.354c-1.297,0.348-2.417,1.065-3.357,2.153c-0.943,1.089-1.413,2.539-1.413,4.35v14.002
		c0,2.752,0.278,4.977,0.833,6.674c0.557,1.698,1.304,2.969,2.247,3.813c0.941,0.846,2.053,1.323,3.333,1.432
		c1.281,0.109,2.663-0.034,4.145-0.431C106.956,107.213,108.469,106.425,109.828,105.295z"/>
	<path fill="none" stroke="#2C7EE9" stroke-width="8" stroke-linejoin="round" stroke-miterlimit="9.176" d="M139.998,73.516
		c0.479,0.029,0.888,0.181,1.228,0.455c0.339,0.275,0.609,0.673,0.81,1.193c0.201,0.521,0.285,1.223,0.255,2.1l-7.827,2.098
		c0-0.87,0.124-1.627,0.371-2.268c0.246-0.641,0.555-1.193,0.926-1.659c0.37-0.465,0.794-0.839,1.273-1.125
		c0.478-0.284,0.979-0.497,1.505-0.638C139.033,73.54,139.52,73.488,139.998,73.516z M142.036,97.631
		c0.818-0.342,1.59-0.714,2.315-1.116c0.726-0.403,1.374-0.805,1.945-1.201c0.571-0.396,1.042-0.767,1.412-1.109
		c1.112-1.03,1.906-2.139,2.385-3.33c0.478-1.19,0.47-2.364-0.023-3.521c-0.309-0.718-0.795-1.146-1.458-1.281
		c-0.665-0.135-1.396-0.043-2.199,0.276c-0.402,0.177-0.781,0.392-1.135,0.644c-0.355,0.252-0.702,0.494-1.042,0.724
		c-0.617,0.408-1.234,0.748-1.852,1.018c-0.619,0.271-1.499,0.56-2.64,0.865c-0.556,0.148-1.143,0.228-1.76,0.236
		c-0.618,0.009-1.189-0.107-1.714-0.352c-0.525-0.242-0.957-0.613-1.296-1.115c-0.341-0.5-0.51-1.204-0.51-2.11v-0.052l16.579-4.442
		c0.062-0.469,0.116-1.023,0.163-1.663c0.046-0.639,0.069-1.186,0.069-1.638c0-3.449-0.363-6.164-1.088-8.147
		c-0.726-1.981-1.69-3.421-2.894-4.318c-1.205-0.896-2.57-1.356-4.099-1.384c-1.529-0.025-3.096,0.177-4.701,0.607
		c-1.481,0.396-3.003,1.039-4.561,1.927c-1.56,0.889-2.98,2.062-4.261,3.519c-1.282,1.459-2.332,3.221-3.149,5.285
		c-0.818,2.066-1.228,4.492-1.228,7.278v4.598c0,2.716,0.424,4.894,1.274,6.529c0.848,1.637,1.96,2.827,3.334,3.574
		c1.374,0.747,2.909,1.136,4.607,1.168s3.381-0.174,5.048-0.621C140.392,98.255,141.218,97.972,142.036,97.631z"/>
	<path fill="none" stroke="#2C7EE9" stroke-width="8" stroke-linejoin="round" stroke-miterlimit="9.176" d="M164.844,90.815V71.848
		c0-0.869,0.116-1.641,0.348-2.313c0.231-0.671,0.532-1.247,0.902-1.73c0.371-0.482,0.771-0.86,1.204-1.132
		c0.432-0.272,0.849-0.463,1.251-0.57c0.401-0.107,0.817-0.141,1.25-0.101c0.432,0.041,0.826,0.206,1.181,0.493
		c0.354,0.289,0.648,0.707,0.88,1.253c0.23,0.549,0.347,1.259,0.347,2.128v18.967l9.541-2.557V67.947
		c0-2.751-0.278-4.976-0.834-6.674c-0.556-1.697-1.305-2.968-2.247-3.813s-2.054-1.321-3.334-1.432
		c-1.281-0.109-2.662,0.034-4.145,0.432c-1.234,0.33-2.447,0.899-3.635,1.705c-1.189,0.807-2.231,1.8-3.126,2.98
		c-0.402-0.834-0.996-1.388-1.783-1.666c-0.787-0.275-1.629-0.294-2.524-0.055c-0.618,0.166-1.205,0.438-1.76,0.812
		c-0.555,0.376-1.05,0.84-1.482,1.39c-0.433,0.552-0.78,1.185-1.042,1.898c-0.263,0.716-0.394,1.509-0.394,2.379v27.43
		L164.844,90.815z"/>
	<path fill="none" stroke="#2C7EE9" stroke-width="8" stroke-linejoin="round" stroke-miterlimit="9.176" d="M195.409,64.391
		c0-1.114,0.139-2.066,0.417-2.855c0.276-0.788,0.64-1.441,1.087-1.963c0.447-0.521,0.935-0.931,1.459-1.227
		c0.525-0.298,1.05-0.517,1.576-0.657c0.709-0.19,1.279-0.292,1.712-0.303c0.433-0.012,0.88,0.044,1.344,0.162
		c0.339,0.085,0.687,0.165,1.042,0.244c0.354,0.079,0.748,0.096,1.181,0.049c0.741-0.094,1.442-0.352,2.107-0.773
		c0.663-0.421,1.212-1.125,1.644-2.112c0.309-0.675,0.471-1.319,0.486-1.933s-0.077-1.189-0.278-1.729
		c-0.2-0.538-0.502-1.006-0.903-1.404c-0.4-0.396-0.88-0.712-1.436-0.947c-0.74-0.323-1.713-0.534-2.916-0.629
		c-1.205-0.095-2.641,0.08-4.308,0.527c-1.605,0.43-3.226,1.108-4.862,2.034c-1.638,0.927-3.111,2.123-4.424,3.589
		c-1.313,1.467-2.385,3.234-3.218,5.304s-1.25,4.479-1.25,7.23v4.599c0,2.821,0.417,5.043,1.25,6.666s1.923,2.813,3.265,3.566
		c1.343,0.755,2.855,1.133,4.539,1.135c1.682,0.002,3.357-0.221,5.025-0.667c1.574-0.422,2.992-1.037,4.259-1.847
		s2.331-1.626,3.195-2.45c0.557-0.531,1.034-1.113,1.437-1.743c0.4-0.63,0.701-1.276,0.903-1.94c0.2-0.662,0.276-1.311,0.23-1.942
		s-0.224-1.202-0.532-1.712c-0.401-0.624-0.918-0.99-1.551-1.1c-0.634-0.109-1.289-0.003-1.969,0.318
		c-0.433,0.186-0.834,0.441-1.203,0.767c-0.371,0.326-0.727,0.622-1.066,0.887c-0.617,0.479-1.196,0.852-1.736,1.117
		c-0.54,0.269-1.197,0.504-1.967,0.711c-0.526,0.141-1.06,0.205-1.6,0.193c-0.539-0.012-1.026-0.16-1.458-0.444
		c-0.433-0.285-0.788-0.747-1.064-1.388c-0.278-0.64-0.417-1.517-0.417-2.631V64.391z"/>
	<path fill="none" stroke="#2C7EE9" stroke-width="8" stroke-linejoin="round" stroke-miterlimit="9.176" d="M228.033,49.927
		c0.479,0.029,0.888,0.181,1.228,0.455c0.34,0.275,0.609,0.673,0.811,1.193c0.201,0.521,0.285,1.223,0.255,2.1l-7.827,2.098
		c0-0.87,0.124-1.627,0.371-2.268c0.246-0.641,0.556-1.193,0.926-1.659c0.371-0.465,0.795-0.839,1.273-1.125
		c0.479-0.284,0.98-0.497,1.506-0.638C227.068,49.951,227.555,49.899,228.033,49.927z M230.071,74.042
		c0.818-0.341,1.59-0.714,2.315-1.116c0.726-0.403,1.374-0.805,1.945-1.201c0.571-0.396,1.042-0.766,1.412-1.109
		c1.112-1.03,1.905-2.139,2.385-3.33c0.478-1.19,0.471-2.364-0.022-3.521c-0.31-0.718-0.795-1.146-1.459-1.281
		c-0.664-0.135-1.396-0.043-2.199,0.276c-0.402,0.177-0.781,0.392-1.135,0.644c-0.355,0.252-0.703,0.494-1.043,0.724
		c-0.617,0.409-1.234,0.748-1.852,1.018c-0.618,0.271-1.498,0.56-2.64,0.865c-0.557,0.149-1.144,0.228-1.761,0.236
		s-1.188-0.107-1.713-0.352c-0.525-0.242-0.957-0.613-1.297-1.115c-0.34-0.5-0.51-1.204-0.51-2.11v-0.052l16.58-4.442
		c0.061-0.469,0.115-1.023,0.162-1.663c0.046-0.639,0.069-1.186,0.069-1.638c0-3.449-0.363-6.164-1.089-8.147
		c-0.726-1.981-1.69-3.421-2.895-4.317c-1.203-0.897-2.57-1.357-4.098-1.385c-1.529-0.025-3.096,0.177-4.701,0.607
		c-1.482,0.396-3.003,1.04-4.561,1.927c-1.561,0.889-2.98,2.062-4.262,3.519c-1.281,1.459-2.332,3.221-3.148,5.285
		c-0.818,2.066-1.228,4.492-1.228,7.278v4.598c0,2.717,0.424,4.894,1.274,6.529c0.848,1.637,1.959,2.827,3.334,3.574
		c1.373,0.747,2.909,1.136,4.607,1.168c1.697,0.033,3.381-0.174,5.048-0.62C228.426,74.667,229.252,74.383,230.071,74.042z"/>
	<path fill="none" stroke="#2C7EE9" stroke-width="8" stroke-linejoin="round" stroke-miterlimit="9.176" d="M265.614,44.847
		c0-0.87,0.123-1.644,0.369-2.319c0.248-0.675,0.564-1.256,0.95-1.743c0.386-0.486,0.811-0.87,1.274-1.151
		c0.463-0.281,0.895-0.475,1.296-0.582s0.825-0.144,1.274-0.106c0.447,0.036,0.863,0.179,1.25,0.422
		c0.385,0.246,0.709,0.62,0.973,1.125c0.262,0.504,0.408,1.17,0.439,1.998v6.688c-0.031,0.844-0.178,1.589-0.439,2.233
		c-0.264,0.646-0.588,1.194-0.973,1.646c-0.387,0.452-0.803,0.815-1.25,1.093c-0.449,0.276-0.873,0.469-1.274,0.576
		c-0.401,0.108-0.833,0.145-1.296,0.112c-0.464-0.033-0.889-0.188-1.274-0.469c-0.386-0.278-0.702-0.682-0.95-1.209
		c-0.246-0.524-0.369-1.24-0.369-2.147V44.847z M282.84,68.393V31.767c0-0.869-0.131-1.592-0.394-2.167
		c-0.262-0.573-0.609-1.02-1.041-1.34c-0.433-0.32-0.927-0.518-1.481-0.596c-0.557-0.078-1.143-0.033-1.76,0.132
		c-0.896,0.24-1.745,0.711-2.548,1.413c-0.804,0.704-1.39,1.574-1.76,2.614c-0.896-0.7-1.923-1.139-3.079-1.317
		c-1.158-0.177-2.324-0.108-3.497,0.206c-1.544,0.414-2.995,1.038-4.354,1.871c-1.358,0.835-2.547,1.946-3.565,3.333
		c-1.019,1.388-1.822,3.084-2.408,5.087c-0.587,2.004-0.881,4.381-0.881,7.133v4.702c0,2.751,0.294,4.971,0.881,6.66
		c0.586,1.689,1.39,2.955,2.408,3.796c1.019,0.842,2.207,1.315,3.565,1.421c1.358,0.107,2.81-0.046,4.354-0.46
		c1.142-0.306,2.23-0.781,3.265-1.424c1.033-0.642,1.998-1.414,2.895-2.316v10.397L282.84,68.393z"/>
	<path fill="none" stroke="#2C7EE9" stroke-width="8" stroke-linejoin="round" stroke-miterlimit="9.176" d="M302.43,53.687
		c1.357-1.13,2.47-2.472,3.334-4.028l0.51,3.26l7.363-1.973V23.464c0-1.777-0.463-2.959-1.39-3.548
		c-0.927-0.587-2.037-0.708-3.334-0.36c-1.296,0.348-2.4,1.062-3.312,2.142c-0.91,1.08-1.365,2.509-1.365,4.285v14.942
		c-0.031,0.845-0.17,1.587-0.418,2.228c-0.247,0.641-0.549,1.185-0.902,1.626c-0.355,0.444-0.749,0.803-1.181,1.074
		c-0.433,0.273-0.834,0.459-1.204,0.558c-0.401,0.107-0.818,0.142-1.25,0.101c-0.434-0.041-0.827-0.204-1.182-0.493
		c-0.355-0.288-0.648-0.697-0.881-1.228c-0.23-0.53-0.346-1.248-0.346-2.153v-14.63c0-1.811-0.472-3.008-1.414-3.593
		c-0.941-0.583-2.06-0.701-3.357-0.354c-1.296,0.347-2.416,1.065-3.356,2.153c-0.942,1.089-1.413,2.539-1.413,4.35v14.002
		c0,2.752,0.278,4.977,0.834,6.674c0.557,1.698,1.304,2.969,2.246,3.813c0.941,0.845,2.053,1.322,3.334,1.432
		s2.663-0.034,4.145-0.432C299.559,55.606,301.071,54.818,302.43,53.687z"/>
	<path fill="none" stroke="#2C7EE9" stroke-width="8" stroke-linejoin="round" stroke-miterlimit="9.176" d="M318.847,12.428
		c0.262,0.539,0.608,0.942,1.042,1.209c0.432,0.269,0.941,0.41,1.527,0.428c0.586,0.017,1.205-0.063,1.853-0.236
		c0.648-0.173,1.266-0.426,1.853-0.757c0.586-0.331,1.096-0.746,1.528-1.246c0.432-0.499,0.779-1.088,1.042-1.768
		c0.262-0.679,0.394-1.456,0.394-2.326c0-1.706-0.479-2.806-1.436-3.299c-0.957-0.492-2.083-0.565-3.381-0.218
		c-1.296,0.348-2.423,1.024-3.38,2.029c-0.958,1.006-1.436,2.362-1.436,4.068C318.454,11.183,318.584,11.889,318.847,12.428z
		 M318.5,49.643l9.54-2.557V20.023c0-1.812-0.471-3.009-1.412-3.594c-0.942-0.583-2.061-0.701-3.358-0.354
		c-1.296,0.348-2.415,1.065-3.357,2.153c-0.942,1.089-1.412,2.539-1.412,4.35V49.643z"/>
	<path fill="none" stroke="#2C7EE9" stroke-width="8" stroke-linejoin="round" stroke-miterlimit="9.176" d="M343.6,19.301
		l-9.68,15.551c-0.711,1.131-1.212,2.137-1.504,3.016c-0.295,0.881-0.465,1.666-0.511,2.357s0.008,1.287,0.163,1.785
		c0.152,0.5,0.324,0.915,0.508,1.248c0.465,0.816,1.136,1.307,2.016,1.472c0.88,0.164,1.969,0.073,3.265-0.274l14.403-3.859
		c0.648-0.173,1.211-0.464,1.689-0.87s0.864-0.858,1.158-1.355c0.292-0.496,0.509-1.024,0.647-1.584
		c0.14-0.56,0.209-1.102,0.209-1.624c0-0.521-0.069-1.017-0.209-1.484c-0.139-0.468-0.355-0.872-0.647-1.212
		c-0.294-0.338-0.672-0.576-1.135-0.714s-1.035-0.114-1.713,0.067l-8.846,2.37l9.679-15.552c0.648-1.044,1.118-1.997,1.413-2.859
		c0.292-0.862,0.47-1.642,0.531-2.338c0.063-0.695,0.031-1.314-0.092-1.855c-0.124-0.542-0.295-0.992-0.51-1.353
		c-0.896-1.501-2.655-1.901-5.279-1.198l-13.245,3.549c-0.647,0.174-1.212,0.464-1.69,0.871c-0.479,0.408-0.864,0.859-1.157,1.355
		c-0.294,0.496-0.51,1.025-0.647,1.584c-0.14,0.56-0.209,1.102-0.209,1.623c0,0.523,0.069,1.019,0.209,1.485
		c0.138,0.469,0.354,0.872,0.647,1.211c0.293,0.34,0.671,0.578,1.134,0.715c0.464,0.138,1.035,0.115,1.714-0.066L343.6,19.301z"/>
	<g>
		<path fill="#FFFFFF" d="M14.015,101.398c-0.031,0.983,0.463,1.688,1.482,2.11c1.019,0.424,2.455,0.735,4.307,0.936l2.269,0.28
			c1.358,0.193,2.585,0.561,3.682,1.104c1.096,0.542,2.03,1.277,2.802,2.201c0.771,0.926,1.343,2.043,1.714,3.355
			c0.37,1.311,0.509,2.815,0.416,4.512c-0.216,3.785-1.551,7.034-4.005,9.746c-2.455,2.713-5.796,4.637-10.026,5.77
			c-2.068,0.555-4.06,0.834-5.974,0.844c-1.915,0.008-3.504-0.376-4.771-1.152c-0.432-0.302-0.803-0.681-1.111-1.139
			c-0.309-0.457-0.533-0.963-0.672-1.518c-0.139-0.555-0.162-1.167-0.069-1.836c0.093-0.67,0.308-1.346,0.648-2.029
			s0.818-1.265,1.436-1.743c0.617-0.479,1.234-0.818,1.853-1.019c0.802-0.25,1.443-0.283,1.922-0.098
			c0.478,0.186,0.934,0.36,1.366,0.522c0.524,0.243,1.204,0.383,2.038,0.421c0.834,0.037,2.038-0.154,3.612-0.576
			c1.297-0.348,2.3-0.878,3.011-1.591c0.709-0.713,1.08-1.647,1.111-2.806c0-0.487-0.169-0.911-0.509-1.273
			s-0.826-0.649-1.458-0.863c-0.633-0.213-1.367-0.392-2.2-0.534c-0.833-0.142-1.729-0.26-2.686-0.351
			c-0.371-0.041-0.764-0.092-1.181-0.154c-0.417-0.063-0.764-0.127-1.042-0.191c-1.76-0.365-3.18-1.02-4.26-1.967
			c-1.082-0.946-1.892-2.07-2.431-3.371c-0.541-1.301-0.819-2.715-0.834-4.244c-0.016-1.528,0.177-3.025,0.579-4.492
			c0.802-3.037,2.292-5.611,4.469-7.729c2.177-2.115,4.854-3.6,8.035-4.451c1.204-0.322,2.261-0.545,3.172-0.668
			c0.911-0.121,1.714-0.18,2.408-0.174c0.695,0.005,1.297,0.07,1.807,0.194c0.509,0.126,0.979,0.253,1.413,0.38
			c1.08,0.372,1.921,1.069,2.524,2.092c0.602,1.023,0.733,2.207,0.394,3.553c-0.309,1.162-0.827,2.067-1.552,2.715
			c-0.726,0.647-1.536,1.09-2.431,1.33c-0.34,0.091-0.726,0.125-1.157,0.102c-0.433-0.023-0.757-0.094-0.973-0.21
			c-0.556-0.269-1.267-0.444-2.13-0.526c-0.865-0.082-1.991,0.063-3.381,0.436c-1.111,0.298-1.984,0.785-2.617,1.459
			C14.377,99.428,14.045,100.309,14.015,101.398z"/>
		<path fill="#FFFFFF" d="M47.96,123.024c-1.667,0.446-3.35,0.653-5.048,0.621c-1.698-0.033-3.234-0.423-4.608-1.17
			c-1.375-0.746-2.485-1.937-3.334-3.573c-0.85-1.636-1.273-3.813-1.273-6.529v-4.599c0-2.786,0.409-5.211,1.227-7.276
			c0.818-2.065,1.868-3.827,3.149-5.285c1.28-1.458,2.701-2.631,4.26-3.52c1.559-0.888,3.08-1.529,4.562-1.927
			c1.605-0.431,3.172-0.632,4.701-0.607c1.528,0.027,2.895,0.488,4.099,1.385s2.168,2.336,2.895,4.317
			c0.725,1.984,1.088,4.698,1.088,8.147c0,0.452-0.023,0.998-0.069,1.638s-0.101,1.195-0.162,1.664l-16.579,4.441v0.053
			c0,0.906,0.169,1.609,0.509,2.11c0.339,0.501,0.771,0.873,1.297,1.115c0.524,0.243,1.096,0.359,1.713,0.351
			c0.617-0.008,1.204-0.088,1.76-0.236c1.142-0.307,2.022-0.595,2.64-0.865c0.617-0.27,1.234-0.608,1.853-1.018
			c0.339-0.23,0.687-0.472,1.042-0.725c0.354-0.251,0.733-0.465,1.134-0.643c0.803-0.319,1.536-0.411,2.2-0.275
			c0.664,0.135,1.15,0.563,1.459,1.28c0.493,1.157,0.501,2.331,0.023,3.521c-0.479,1.191-1.273,2.301-2.384,3.329
			c-0.371,0.344-0.842,0.714-1.413,1.11c-0.572,0.397-1.22,0.798-1.945,1.201c-0.726,0.403-1.498,0.775-2.315,1.116
			C49.619,122.517,48.793,122.8,47.96,123.024z M46.941,98.217c-0.525,0.142-1.027,0.354-1.505,0.639
			c-0.479,0.285-0.903,0.66-1.273,1.125c-0.371,0.465-0.68,1.018-0.926,1.659c-0.248,0.641-0.371,1.396-0.371,2.268l7.826-2.098
			c0.031-0.878-0.054-1.579-0.254-2.1c-0.201-0.521-0.471-0.919-0.811-1.194c-0.34-0.274-0.749-0.426-1.227-0.454
			C47.92,98.033,47.434,98.085,46.941,98.217z"/>
		<path fill="#FFFFFF" d="M80.84,122.52v-10.397c-0.896,0.902-1.86,1.675-2.895,2.317c-1.035,0.643-2.123,1.118-3.265,1.424
			c-1.544,0.414-2.995,0.567-4.353,0.46c-1.359-0.105-2.547-0.579-3.566-1.421c-1.019-0.841-1.822-2.106-2.408-3.796
			c-0.587-1.688-0.88-3.909-0.88-6.661v-4.702c0-2.751,0.293-5.128,0.88-7.132c0.586-2.003,1.389-3.698,2.408-5.087
			c1.02-1.388,2.208-2.499,3.566-3.332c1.358-0.835,2.809-1.458,4.353-1.872c1.173-0.314,2.338-0.384,3.496-0.205
			c1.158,0.177,2.184,0.616,3.08,1.316c0.37-1.04,0.957-1.911,1.76-2.613c0.802-0.703,1.651-1.174,2.547-1.414
			c0.617-0.165,1.204-0.209,1.76-0.133c0.556,0.079,1.049,0.276,1.482,0.597c0.432,0.319,0.779,0.767,1.042,1.34
			c0.262,0.575,0.394,1.298,0.394,2.168v36.625L80.84,122.52z M73.014,102.621c0,0.906,0.123,1.623,0.37,2.148
			c0.247,0.526,0.563,0.93,0.949,1.209c0.386,0.279,0.811,0.436,1.274,0.468c0.463,0.033,0.895-0.005,1.296-0.112
			s0.826-0.299,1.273-0.576c0.447-0.276,0.864-0.641,1.25-1.093c0.386-0.451,0.71-1,0.973-1.646c0.262-0.645,0.409-1.389,0.44-2.233
			v-6.688c-0.031-0.827-0.178-1.493-0.44-1.997c-0.263-0.505-0.587-0.879-0.973-1.124c-0.386-0.244-0.803-0.386-1.25-0.423
			c-0.448-0.036-0.872-0.002-1.273,0.105c-0.401,0.108-0.833,0.303-1.296,0.583c-0.463,0.281-0.888,0.664-1.274,1.15
			c-0.386,0.488-0.702,1.069-0.949,1.744c-0.247,0.677-0.37,1.449-0.37,2.32V102.621z"/>
		<path fill="#FFFFFF" d="M105.292,107.662c-1.482,0.397-2.864,0.54-4.145,0.431c-1.281-0.109-2.393-0.586-3.334-1.432
			c-0.942-0.844-1.69-2.115-2.246-3.813c-0.556-1.696-0.833-3.921-0.833-6.673V82.172c0-1.811,0.47-3.261,1.413-4.349
			c0.941-1.089,2.061-1.807,3.357-2.154s2.416-0.229,3.357,0.354c0.941,0.584,1.413,1.782,1.413,3.593v14.629
			c0,0.906,0.116,1.624,0.347,2.153c0.231,0.531,0.525,0.939,0.88,1.228c0.355,0.289,0.748,0.453,1.181,0.493
			c0.432,0.041,0.849,0.008,1.25-0.1c0.37-0.1,0.771-0.285,1.204-0.559c0.432-0.271,0.825-0.63,1.181-1.074
			c0.354-0.442,0.655-0.985,0.902-1.626c0.247-0.641,0.386-1.383,0.417-2.228V77.59c0-1.776,0.455-3.204,1.366-4.284
			c0.911-1.08,2.015-1.793,3.311-2.141c1.297-0.348,2.408-0.228,3.334,0.36c0.926,0.588,1.389,1.77,1.389,3.546v27.482l-7.363,1.973
			l-0.509-3.26c-0.865,1.556-1.976,2.898-3.334,4.029C108.471,106.426,106.959,107.214,105.292,107.662z"/>
		<path fill="#FFFFFF" d="M139.561,98.479c-1.667,0.447-3.35,0.653-5.048,0.621c-1.698-0.033-3.234-0.422-4.608-1.169
			c-1.374-0.746-2.485-1.938-3.334-3.574c-0.849-1.635-1.273-3.812-1.273-6.528V83.23c0-2.786,0.409-5.211,1.228-7.277
			c0.817-2.064,1.868-3.826,3.149-5.285c1.281-1.457,2.701-2.631,4.26-3.519s3.08-1.53,4.562-1.927
			c1.605-0.431,3.172-0.633,4.7-0.607c1.528,0.027,2.895,0.488,4.099,1.384c1.204,0.897,2.168,2.336,2.895,4.318
			c0.725,1.983,1.088,4.698,1.088,8.147c0,0.451-0.023,0.998-0.069,1.637c-0.046,0.64-0.1,1.195-0.162,1.664l-16.579,4.442v0.052
			c0,0.906,0.169,1.609,0.509,2.11c0.339,0.502,0.771,0.874,1.297,1.116c0.524,0.242,1.096,0.359,1.714,0.35
			c0.617-0.008,1.204-0.087,1.759-0.236c1.142-0.306,2.022-0.594,2.64-0.864c0.617-0.27,1.234-0.608,1.852-1.019
			c0.339-0.229,0.687-0.471,1.042-0.724c0.354-0.251,0.733-0.465,1.134-0.643c0.803-0.319,1.536-0.412,2.2-0.276
			c0.664,0.136,1.15,0.563,1.458,1.281c0.494,1.156,0.501,2.33,0.023,3.52c-0.479,1.192-1.273,2.301-2.385,3.33
			c-0.371,0.344-0.842,0.714-1.413,1.109c-0.572,0.397-1.22,0.798-1.945,1.201c-0.726,0.403-1.498,0.775-2.315,1.117
			C141.22,97.973,140.395,98.255,139.561,98.479z M138.542,73.673c-0.525,0.141-1.026,0.354-1.505,0.639
			c-0.479,0.284-0.903,0.66-1.273,1.124c-0.371,0.466-0.68,1.019-0.926,1.659c-0.248,0.641-0.371,1.397-0.371,2.268l7.826-2.098
			c0.031-0.878-0.054-1.578-0.254-2.1c-0.201-0.521-0.471-0.918-0.811-1.193c-0.34-0.274-0.749-0.427-1.227-0.455
			C139.522,73.489,139.036,73.541,138.542,73.673z"/>
		<path fill="#FFFFFF" d="M155.444,93.334v-27.43c0-0.87,0.131-1.663,0.394-2.379c0.262-0.714,0.609-1.347,1.042-1.898
			c0.432-0.551,0.926-1.014,1.481-1.39c0.556-0.375,1.142-0.646,1.76-0.811c0.895-0.24,1.737-0.223,2.524,0.055
			c0.787,0.276,1.381,0.831,1.783,1.664c0.895-1.18,1.937-2.174,3.126-2.979c1.188-0.807,2.4-1.374,3.636-1.705
			c1.482-0.397,2.863-0.541,4.145-0.433c1.281,0.11,2.392,0.587,3.334,1.433c0.941,0.845,1.69,2.116,2.247,3.813
			c0.556,1.697,0.833,3.922,0.833,6.673v18.339l-9.54,2.556V69.876c0-0.87-0.116-1.579-0.347-2.127
			c-0.231-0.547-0.525-0.965-0.88-1.254c-0.355-0.287-0.749-0.451-1.181-0.493c-0.433-0.04-0.85-0.008-1.25,0.1
			c-0.401,0.107-0.818,0.299-1.25,0.57c-0.433,0.273-0.834,0.65-1.204,1.132c-0.371,0.483-0.672,1.062-0.903,1.732
			c-0.231,0.672-0.347,1.443-0.347,2.313v18.966L155.444,93.334z"/>
		<path fill="#FFFFFF" d="M195.41,69.093c0,1.115,0.14,1.992,0.417,2.632c0.278,0.64,0.633,1.102,1.065,1.387
			c0.432,0.284,0.918,0.434,1.459,0.444c0.539,0.013,1.072-0.052,1.598-0.192c0.771-0.206,1.428-0.443,1.968-0.71
			c0.541-0.267,1.119-0.64,1.736-1.119c0.34-0.264,0.695-0.56,1.065-0.887c0.371-0.324,0.771-0.579,1.204-0.766
			c0.679-0.32,1.335-0.428,1.968-0.318c0.634,0.109,1.15,0.475,1.552,1.099c0.309,0.511,0.487,1.081,0.533,1.713
			s-0.031,1.28-0.232,1.943c-0.2,0.663-0.501,1.309-0.902,1.938c-0.401,0.631-0.88,1.212-1.436,1.743
			c-0.865,0.825-1.93,1.642-3.196,2.45c-1.266,0.811-2.686,1.426-4.26,1.848c-1.668,0.447-3.343,0.668-5.024,0.667
			c-1.683-0.003-3.196-0.38-4.538-1.136c-1.344-0.754-2.432-1.942-3.265-3.566c-0.834-1.621-1.251-3.844-1.251-6.665V67
			c0-2.751,0.417-5.162,1.251-7.232c0.833-2.068,1.905-3.835,3.218-5.303c1.312-1.465,2.786-2.662,4.423-3.588
			c1.636-0.927,3.257-1.604,4.862-2.034c1.667-0.446,3.103-0.622,4.307-0.527c1.204,0.096,2.177,0.305,2.918,0.629
			c0.556,0.234,1.034,0.551,1.436,0.947c0.401,0.398,0.702,0.866,0.903,1.404c0.2,0.539,0.293,1.114,0.277,1.728
			c-0.016,0.614-0.178,1.259-0.486,1.933c-0.433,0.987-0.98,1.691-1.645,2.112c-0.664,0.422-1.365,0.68-2.105,0.773
			c-0.434,0.047-0.828,0.031-1.182-0.049c-0.355-0.078-0.702-0.159-1.042-0.243c-0.463-0.118-0.911-0.173-1.344-0.162
			c-0.432,0.011-1.003,0.111-1.713,0.302c-0.525,0.141-1.05,0.36-1.574,0.657c-0.525,0.298-1.012,0.707-1.459,1.227
			c-0.448,0.521-0.811,1.177-1.089,1.964c-0.277,0.789-0.417,1.74-0.417,2.855V69.093z"/>
		<path fill="#FFFFFF" d="M227.595,74.89c-1.667,0.447-3.351,0.654-5.048,0.621c-1.699-0.033-3.234-0.422-4.608-1.169
			c-1.374-0.746-2.485-1.937-3.334-3.573c-0.85-1.636-1.273-3.813-1.273-6.529v-4.599c0-2.786,0.408-5.211,1.228-7.277
			c0.817-2.064,1.867-3.826,3.148-5.284c1.28-1.458,2.701-2.632,4.261-3.52c1.559-0.888,3.08-1.53,4.562-1.927
			c1.604-0.431,3.172-0.633,4.7-0.607c1.528,0.027,2.895,0.488,4.099,1.384c1.204,0.897,2.169,2.336,2.895,4.318
			c0.725,1.983,1.088,4.698,1.088,8.147c0,0.452-0.023,0.998-0.069,1.638c-0.046,0.639-0.101,1.194-0.161,1.663l-16.579,4.442v0.052
			c0,0.906,0.168,1.61,0.509,2.11c0.34,0.502,0.771,0.874,1.296,1.116c0.525,0.243,1.097,0.359,1.714,0.351s1.204-0.088,1.76-0.236
			c1.143-0.307,2.022-0.595,2.641-0.865c0.616-0.27,1.234-0.609,1.853-1.019c0.338-0.229,0.687-0.472,1.041-0.724
			c0.354-0.251,0.733-0.465,1.135-0.643c0.803-0.319,1.536-0.412,2.2-0.276s1.149,0.563,1.459,1.281
			c0.493,1.157,0.501,2.331,0.022,3.521c-0.479,1.191-1.273,2.3-2.385,3.329c-0.37,0.344-0.841,0.714-1.413,1.11
			c-0.571,0.396-1.22,0.797-1.945,1.201c-0.725,0.402-1.497,0.775-2.314,1.115C229.254,74.384,228.428,74.667,227.595,74.89z
			 M226.576,50.084c-0.525,0.141-1.026,0.353-1.505,0.639c-0.479,0.284-0.903,0.66-1.273,1.124c-0.37,0.466-0.68,1.019-0.927,1.66
			c-0.247,0.641-0.369,1.396-0.369,2.267l7.826-2.097c0.03-0.879-0.055-1.579-0.255-2.1c-0.202-0.521-0.472-0.919-0.811-1.194
			c-0.34-0.274-0.749-0.427-1.227-0.454C227.556,49.9,227.07,49.953,226.576,50.084z"/>
		<path fill="#FFFFFF" d="M273.441,70.913V60.515c-0.895,0.902-1.859,1.674-2.894,2.317c-1.035,0.643-2.123,1.118-3.265,1.424
			c-1.544,0.414-2.995,0.567-4.354,0.46c-1.359-0.105-2.547-0.579-3.565-1.421s-1.822-2.106-2.408-3.796
			c-0.587-1.689-0.88-3.909-0.88-6.661v-4.702c0-2.751,0.293-5.129,0.88-7.133c0.586-2.002,1.39-3.698,2.408-5.086
			s2.206-2.499,3.565-3.332c1.358-0.835,2.81-1.458,4.354-1.872c1.173-0.314,2.338-0.384,3.497-0.206
			c1.157,0.178,2.184,0.616,3.078,1.317c0.371-1.04,0.957-1.911,1.761-2.613c0.803-0.704,1.65-1.174,2.547-1.414
			c0.617-0.165,1.204-0.21,1.76-0.133c0.556,0.079,1.049,0.276,1.482,0.597c0.432,0.319,0.779,0.766,1.041,1.34
			c0.263,0.575,0.395,1.297,0.395,2.168v36.625L273.441,70.913z M265.615,51.013c0,0.906,0.124,1.623,0.371,2.148
			c0.247,0.526,0.563,0.929,0.95,1.208c0.386,0.28,0.81,0.437,1.273,0.469c0.463,0.033,0.895-0.005,1.296-0.112
			c0.4-0.107,0.826-0.299,1.274-0.576c0.446-0.276,0.862-0.641,1.249-1.094c0.387-0.45,0.711-0.999,0.973-1.645
			c0.263-0.645,0.409-1.389,0.439-2.233V42.49c-0.03-0.827-0.177-1.493-0.439-1.997c-0.262-0.505-0.586-0.879-0.973-1.124
			c-0.387-0.244-0.803-0.386-1.249-0.424c-0.448-0.035-0.874-0.001-1.274,0.106c-0.401,0.107-0.833,0.303-1.296,0.583
			c-0.464,0.281-0.888,0.664-1.273,1.15c-0.388,0.487-0.703,1.069-0.95,1.744c-0.247,0.677-0.371,1.449-0.371,2.32V51.013z"/>
		<path fill="#FFFFFF" d="M297.893,56.054c-1.481,0.396-2.863,0.54-4.145,0.431s-2.394-0.586-3.335-1.432
			c-0.942-0.844-1.69-2.115-2.245-3.813c-0.556-1.696-0.834-3.921-0.834-6.673V30.565c0-1.811,0.471-3.261,1.413-4.349
			c0.941-1.089,2.061-1.807,3.356-2.154c1.297-0.348,2.416-0.229,3.358,0.354c0.941,0.584,1.412,1.782,1.412,3.593v14.629
			c0,0.906,0.116,1.624,0.347,2.153c0.232,0.531,0.525,0.94,0.881,1.228c0.354,0.289,0.748,0.453,1.181,0.493
			c0.432,0.041,0.849,0.008,1.25-0.1c0.37-0.1,0.771-0.285,1.204-0.559c0.433-0.271,0.826-0.63,1.182-1.074
			c0.354-0.442,0.655-0.985,0.902-1.626s0.386-1.383,0.417-2.228V25.983c0-1.776,0.455-3.204,1.366-4.284
			c0.91-1.079,2.015-1.793,3.312-2.141c1.296-0.348,2.407-0.228,3.334,0.36c0.926,0.588,1.389,1.77,1.389,3.546v27.482l-7.363,1.973
			l-0.509-3.26c-0.865,1.556-1.977,2.898-3.335,4.029C301.073,54.818,299.56,55.608,297.893,56.054z"/>
		<path fill="#FFFFFF" d="M318.455,10.313c0-1.706,0.479-3.062,1.437-4.068c0.956-1.004,2.083-1.681,3.38-2.028
			c1.298-0.348,2.424-0.274,3.381,0.217c0.957,0.494,1.437,1.593,1.437,3.299c0,0.871-0.133,1.648-0.395,2.326
			c-0.263,0.681-0.609,1.27-1.042,1.769c-0.433,0.5-0.942,0.915-1.527,1.245c-0.587,0.332-1.205,0.584-1.854,0.758
			c-0.647,0.174-1.266,0.253-1.853,0.235c-0.586-0.017-1.096-0.158-1.527-0.427c-0.434-0.267-0.78-0.67-1.043-1.21
			C318.586,11.89,318.455,11.184,318.455,10.313z M318.501,22.58c0-1.811,0.471-3.262,1.413-4.35
			c0.941-1.088,2.06-1.806,3.356-2.153c1.298-0.348,2.416-0.229,3.357,0.354c0.941,0.583,1.413,1.781,1.413,3.592v27.064
			l-9.54,2.557V22.58z"/>
		<path fill="#FFFFFF" d="M335.915,21.362c-0.68,0.182-1.251,0.205-1.714,0.067c-0.464-0.137-0.842-0.375-1.134-0.715
			c-0.295-0.339-0.51-0.743-0.649-1.211c-0.139-0.468-0.208-0.963-0.208-1.484c0-0.523,0.069-1.064,0.208-1.624
			c0.14-0.56,0.354-1.088,0.649-1.585c0.292-0.496,0.678-0.947,1.157-1.355c0.479-0.406,1.042-0.697,1.69-0.87l13.244-3.549
			c2.624-0.703,4.384-0.304,5.28,1.197c0.215,0.36,0.386,0.811,0.509,1.353s0.154,1.16,0.093,1.856
			c-0.063,0.695-0.239,1.476-0.533,2.337c-0.293,0.863-0.764,1.816-1.412,2.86l-9.679,15.552l8.845-2.371
			c0.68-0.182,1.251-0.204,1.714-0.067c0.464,0.138,0.841,0.376,1.135,0.715c0.293,0.339,0.51,0.743,0.648,1.211
			c0.139,0.469,0.208,0.963,0.208,1.485s-0.069,1.063-0.208,1.623s-0.355,1.088-0.648,1.585c-0.294,0.497-0.68,0.948-1.158,1.355
			c-0.479,0.406-1.041,0.696-1.69,0.87l-14.401,3.859c-1.298,0.348-2.386,0.438-3.266,0.274c-0.88-0.165-1.551-0.655-2.015-1.472
			c-0.185-0.334-0.355-0.749-0.509-1.248c-0.155-0.498-0.209-1.094-0.162-1.785c0.046-0.692,0.216-1.477,0.509-2.357
			c0.294-0.879,0.795-1.885,1.506-3.016l9.679-15.551L335.915,21.362z"/>
	</g>
</g>
</svg>
