<?xml version="1.0" encoding="utf-8"?>
<!-- Generator: Adobe Illustrator 16.0.0, SVG Export Plug-In . SVG Version: 6.00 Build 0)  -->
<!DOCTYPE svg PUBLIC "-//W3C//DTD SVG 1.1//EN" "http://www.w3.org/Graphics/SVG/1.1/DTD/svg11.dtd">
<svg version="1.1" id="레이어_1" xmlns="http://www.w3.org/2000/svg" xmlns:xlink="http://www.w3.org/1999/xlink" x="0px"
	 y="0px" width="235.748px" height="223.839px" viewBox="0 0 235.748 223.839" enable-background="new 0 0 235.748 223.839"
	 xml:space="preserve">
<g>
	<g>
		<path fill="#FFFFFF" d="M70,135c35.841,0,65-29.159,65-65S105.841,5,70,5S5,34.159,5,70S34.159,135,70,135"/>
		<path fill="none" stroke="#0075C1" stroke-width="10" d="M70,135c35.841,0,65-29.159,65-65S105.841,5,70,5S5,34.159,5,70
			S34.159,135,70,135z"/>
	</g>
	<g>
		<path fill="#DBDCDC" d="M46.192,52.599c0-1.586-1.456-2.288-4.238-2.964c-4.524-1.093-7.774-2.809-7.774-6.891
			c0-4.498,3.952-6.318,8.216-6.318c2.548,0,5.331,0.754,7.176,2.574c0.468,0.468,0.728,1.092,0.728,1.69
			c0,1.04-0.936,2.08-2.158,2.08c-0.521,0-0.962-0.234-1.508-0.676c-1.3-1.066-2.574-1.612-4.16-1.612
			c-2.184,0-3.718,0.676-3.718,2.105c0,1.69,1.924,2.288,4.811,3.017c3.874,0.962,7.28,2.678,7.28,6.734
			c0,5.07-4.628,6.864-8.606,6.864c-2.782,0-5.928-0.78-8.139-3.484c-0.338-0.416-0.468-0.962-0.468-1.43
			c0-1.196,0.988-2.055,2.132-2.055c0.546,0,1.248,0.208,1.769,0.729c1.43,1.43,3.172,2.184,4.94,2.184
			C44.086,55.146,46.192,54.497,46.192,52.599z"/>
		<path fill="#DBDCDC" d="M65.64,53.196h-8.034c0.39,1.145,1.664,1.925,3.198,1.925c1.482,0,2.678-0.391,3.64-0.807
			c0.962-0.39,1.846,0.078,2.236,0.884c0.39,0.832,0.338,1.847-0.624,2.444c-1.326,0.832-3.224,1.3-5.408,1.3
			c-4.394,0-7.722-3.302-7.722-7.644c0-4.395,3.094-7.723,7.618-7.723c4.212,0,7.411,3.38,7.411,7.28
			C67.954,52.417,67.252,53.196,65.64,53.196z M63.481,49.505c-0.312-1.118-1.534-2.028-2.938-2.028
			c-1.404,0-2.704,0.91-3.042,2.028H63.481z"/>
		<path fill="#DBDCDC" d="M82.748,53.196h-8.034c0.39,1.145,1.664,1.925,3.198,1.925c1.482,0,2.678-0.391,3.64-0.807
			c0.962-0.39,1.846,0.078,2.236,0.884c0.39,0.832,0.338,1.847-0.624,2.444c-1.326,0.832-3.224,1.3-5.408,1.3
			c-4.394,0-7.722-3.302-7.722-7.644c0-4.395,3.094-7.723,7.618-7.723c4.212,0,7.41,3.38,7.41,7.28
			C85.062,52.417,84.36,53.196,82.748,53.196z M80.59,49.505c-0.313-1.118-1.534-2.028-2.938-2.028c-1.404,0-2.704,0.91-3.042,2.028
			H80.59z"/>
		<path fill="#DBDCDC" d="M107.499,43.836c1.69,0,2.6,1.015,2.6,2.601v10.608c0,1.352-1.04,1.897-2.314,1.897
			c-0.988,0-1.95-0.571-2.054-1.481c-0.624,0.884-2.028,1.481-3.536,1.481c-4.368,0-7.254-3.094-7.254-7.618
			c0-4.523,3.198-7.488,7.566-7.488H107.499z M102.715,47.841c-2.08,0-3.25,1.481-3.25,3.483c0,1.977,1.17,3.614,3.042,3.614
			c1.898,0,3.068-1.352,3.068-3.822v-3.275H102.715z"/>
	</g>
	<g>
		<path fill="#DBDCDC" d="M59.79,88.062c0,1.353-0.962,2.158-2.262,2.158c-1.3,0-2.262-0.806-2.262-2.158v-7.046
			c0-1.3-0.858-2.236-2.158-2.236c-1.274,0-2.184,0.91-2.184,2.158v7.124c0,1.353-0.962,2.158-2.262,2.158
			c-1.3,0-2.262-0.806-2.262-2.158V69.966c0-1.353,0.962-2.158,2.262-2.158c1.3,0,2.262,0.806,2.262,2.158v6.214
			c0.676-0.91,2.054-1.404,3.432-1.404c2.782,0,5.434,1.612,5.434,5.772V88.062z"/>
		<path fill="#DBDCDC" d="M65.431,67.808c1.43,0,2.626,1.195,2.626,2.626c0,1.43-1.196,2.626-2.626,2.626s-2.626-1.196-2.626-2.626
			C62.805,69.003,64.001,67.808,65.431,67.808z M67.693,88.062c0,1.353-0.962,2.158-2.262,2.158c-1.3,0-2.262-0.806-2.262-2.158
			V76.934c0-1.353,0.962-2.158,2.262-2.158c1.3,0,2.262,0.806,2.262,2.158V88.062z"/>
		<path fill="#DBDCDC" d="M84.724,88.062c0,1.353-0.962,2.158-2.262,2.158c-1.3,0-2.262-0.806-2.262-2.158v-7.046
			c0-1.3-0.858-2.236-2.158-2.236c-1.274,0-2.184,0.91-2.184,2.158v7.124c0,1.353-0.962,2.158-2.262,2.158
			c-1.3,0-2.262-0.806-2.262-2.158V76.934c0-1.353,0.962-2.158,2.262-2.158c1.066,0,1.924,0.572,2.184,1.508
			c0.754-1.014,2.08-1.508,3.51-1.508c2.782,0,5.434,1.612,5.434,5.772V88.062z"/>
		<path fill="#DBDCDC" d="M93.927,75.035h3.433c1.118,0,1.768,0.988,1.768,2.028c0,1.066-0.65,2.028-1.768,2.028h-3.433V84.5
			c0,1.118,0.65,1.612,1.378,1.612c0.494,0,0.962-0.078,1.43-0.286c0.832-0.364,1.82,0.104,2.236,1.17
			c0.442,1.144-0.078,2.132-0.858,2.522c-0.936,0.468-2.054,0.623-3.016,0.623c-3.875,0-5.694-2.002-5.694-5.199v-5.851h-0.962
			c-1.118,0-1.638-0.988-1.638-2.028c0-1.066,0.52-2.028,1.638-2.028h0.962v-2.651c0-1.353,0.962-2.158,2.262-2.158
			c1.3,0,2.262,0.806,2.262,2.158V75.035z"/>
	</g>
	<g>
		<path fill="#0075C2" d="M44.762,50.882c0-1.586-1.456-2.288-4.238-2.964C36,46.825,32.75,45.109,32.75,41.027
			c0-4.498,3.952-6.318,8.216-6.318c2.548,0,5.33,0.754,7.176,2.574c0.468,0.468,0.728,1.092,0.728,1.69
			c0,1.04-0.936,2.08-2.158,2.08c-0.52,0-0.962-0.234-1.508-0.676c-1.3-1.066-2.574-1.612-4.16-1.612
			c-2.184,0-3.718,0.676-3.718,2.105c0,1.69,1.924,2.288,4.81,3.017c3.875,0.962,7.28,2.678,7.28,6.734
			c0,5.07-4.628,6.864-8.606,6.864c-2.782,0-5.928-0.78-8.138-3.484c-0.338-0.416-0.468-0.962-0.468-1.43
			c0-1.196,0.988-2.055,2.132-2.055c0.546,0,1.248,0.208,1.768,0.729c1.43,1.43,3.172,2.184,4.94,2.184
			C42.656,53.43,44.762,52.78,44.762,50.882z"/>
		<path fill="#0075C2" d="M64.209,51.479h-8.034c0.39,1.145,1.664,1.925,3.198,1.925c1.482,0,2.678-0.391,3.64-0.807
			c0.962-0.39,1.846,0.078,2.236,0.884c0.39,0.832,0.338,1.847-0.624,2.444c-1.326,0.832-3.224,1.3-5.408,1.3
			c-4.394,0-7.722-3.302-7.722-7.644c0-4.395,3.094-7.723,7.618-7.723c4.212,0,7.41,3.38,7.41,7.28
			C66.523,50.7,65.822,51.479,64.209,51.479z M62.052,47.788c-0.313-1.118-1.534-2.028-2.938-2.028c-1.404,0-2.704,0.91-3.042,2.028
			H62.052z"/>
		<path fill="#0075C2" d="M81.317,51.479h-8.034c0.39,1.145,1.664,1.925,3.198,1.925c1.482,0,2.678-0.391,3.64-0.807
			c0.962-0.39,1.846,0.078,2.236,0.884c0.39,0.832,0.338,1.847-0.624,2.444c-1.326,0.832-3.224,1.3-5.408,1.3
			c-4.394,0-7.722-3.302-7.722-7.644c0-4.395,3.094-7.723,7.618-7.723c4.212,0,7.411,3.38,7.411,7.28
			C83.632,50.7,82.93,51.479,81.317,51.479z M79.159,47.788c-0.312-1.118-1.534-2.028-2.938-2.028c-1.404,0-2.704,0.91-3.042,2.028
			H79.159z"/>
		<path fill="#0075C2" d="M106.069,42.119c1.69,0,2.6,1.015,2.6,2.601v10.608c0,1.352-1.04,1.897-2.314,1.897
			c-0.988,0-1.95-0.571-2.054-1.481c-0.624,0.884-2.028,1.481-3.536,1.481c-4.368,0-7.254-3.094-7.254-7.618
			c0-4.523,3.198-7.488,7.566-7.488H106.069z M101.285,46.124c-2.08,0-3.25,1.481-3.25,3.483c0,1.977,1.17,3.614,3.042,3.614
			c1.898,0,3.068-1.352,3.068-3.822v-3.275H101.285z"/>
	</g>
	<g>
		<path fill="#0075C2" d="M58.36,86.347c0,1.352-0.962,2.157-2.262,2.157c-1.3,0-2.262-0.806-2.262-2.157V79.3
			c0-1.3-0.858-2.236-2.158-2.236c-1.274,0-2.184,0.91-2.184,2.158v7.125c0,1.352-0.962,2.157-2.262,2.157
			c-1.3,0-2.262-0.806-2.262-2.157V68.249c0-1.352,0.962-2.157,2.262-2.157c1.3,0,2.262,0.806,2.262,2.157v6.215
			c0.676-0.91,2.054-1.404,3.432-1.404c2.782,0,5.434,1.612,5.434,5.772V86.347z"/>
		<path fill="#0075C2" d="M64.001,66.092c1.43,0,2.626,1.195,2.626,2.626c0,1.43-1.196,2.626-2.626,2.626
			c-1.43,0-2.626-1.196-2.626-2.626C61.375,67.287,62.571,66.092,64.001,66.092z M66.263,86.347c0,1.352-0.962,2.157-2.262,2.157
			c-1.3,0-2.262-0.806-2.262-2.157V75.218c0-1.352,0.962-2.158,2.262-2.158c1.3,0,2.262,0.807,2.262,2.158V86.347z"/>
		<path fill="#0075C2" d="M83.293,86.347c0,1.352-0.962,2.157-2.262,2.157c-1.3,0-2.262-0.806-2.262-2.157V79.3
			c0-1.3-0.858-2.236-2.158-2.236c-1.274,0-2.184,0.91-2.184,2.158v7.125c0,1.352-0.962,2.157-2.262,2.157
			c-1.3,0-2.262-0.806-2.262-2.157V75.218c0-1.352,0.962-2.158,2.262-2.158c1.066,0,1.924,0.572,2.184,1.508
			c0.754-1.014,2.08-1.508,3.51-1.508c2.782,0,5.434,1.612,5.434,5.772V86.347z"/>
		<path fill="#0075C2" d="M92.497,73.319h3.432c1.118,0,1.769,0.988,1.769,2.028c0,1.066-0.65,2.028-1.769,2.028h-3.432v5.408
			c0,1.118,0.65,1.612,1.378,1.612c0.494,0,0.962-0.078,1.43-0.286c0.832-0.364,1.82,0.104,2.236,1.17
			c0.442,1.144-0.078,2.132-0.858,2.521c-0.936,0.469-2.054,0.625-3.016,0.625c-3.874,0-5.694-2.003-5.694-5.201v-5.85h-0.962
			c-1.118,0-1.638-0.988-1.638-2.028c0-1.065,0.52-2.028,1.638-2.028h0.962v-2.651c0-1.353,0.962-2.158,2.262-2.158
			c1.3,0,2.262,0.806,2.262,2.158V73.319z"/>
	</g>
	<g>
		<path fill="#AACC03" d="M139.856,198.269c0,0,23.999,3.841,41.413-2.608c21.908-8.116,29.992-27.344,51.189-18.25
			c6.032,2.588,3.621-3.695-6.031-8.5c-9.647-4.806-28.144-6.283-43.422,1.479c-15.277,7.761-29.752-5.545-29.752-5.545"/>
		<path fill="#00A199" d="M197.314,180.037c-1.789-6.988-6.434-10.245-9.643-11.701c-1.578,0.598-3.137,1.275-4.666,2.053
			c-0.897,0.455-1.793,0.834-2.682,1.151c2.67,2.661,6.399,7.335,6.643,12.847c0.176,3.957-0.45,7.104-1.178,9.364
			c4.547-2.157,8.49-4.739,12.131-7.287C198.064,184.646,197.943,182.494,197.314,180.037"/>
		<path fill="#00A199" d="M215.225,171.959c-0.666-3.441-2.448-5.571-4.146-6.862c-3.979-0.301-8.238-0.186-12.549,0.451
			c2.924,1.212,7.09,3.882,8.705,9.543c0.484,1.703,0.637,3.226,0.594,4.557c2.473-1.517,4.948-2.775,7.547-3.595
			C215.527,174.897,215.529,173.533,215.225,171.959"/>
		<path fill="#00A199" d="M226.429,168.909c-1.331-0.662-2.835-1.259-4.472-1.779c0.91,1.462,1.598,3.389,1.596,5.883
			c0,0.741-0.059,1.425-0.155,2.061c2.769,0.19,5.757,0.919,9.062,2.336C238.492,179.998,236.078,173.715,226.429,168.909"/>
		<path fill="#FFDF00" d="M165.459,115.786c0,0,11.725-3.08,19.145,12.978c7.416,16.056,6.22,32.112-0.72,37.172
			c-6.938,5.059-16.748,5.938-16.748,5.938L165.459,115.786z"/>
		<path fill="#9DBD01" d="M97.283,188.242c0,0,5.142,13.135,4.981,19.793c0,0-4.458,1.523-3.299,6.97
			c1.157,5.447,14.479,4.718,19.814,1.422c0.803-0.495,1.607-1.295,2.095-3.421c1.834-7.99,1.474-25.452,0.783-30.354"/>
		<path fill="#AACC03" d="M134.769,193.081c0,0,5.142,13.135,4.981,19.792c0,0-4.457,1.525-3.299,6.972
			c1.156,5.445,14.479,4.718,19.813,1.422c0.804-0.496,1.608-1.296,2.097-3.422c1.832-7.989,1.473-25.451,0.782-30.354"/>
		<path fill="#00A199" d="M144.25,75.261c0,0,3.953-11.826,0.021-13.425c-3.369-1.369-4.877,1.61-4.428,5.138
			c0.449,3.526-0.967,8.547-0.967,8.547"/>
		<path fill="#FFDF00" d="M153.618,70.622c0,0.588-0.521,1.065-1.159,1.065c-0.64,0-1.158-0.478-1.158-1.065
			s0.519-1.064,1.158-1.064C153.098,69.558,153.618,70.034,153.618,70.622"/>
		<path fill="#FFDF00" d="M158.699,84.883c0,0,3.282-9.621-4.484-13.271c-7.418-3.483-14.617-1.431-17.8,4.109
			c-0.636,1.104-1.069,2.256-1.362,3.629L158.699,84.883z"/>
		<path fill="#FAC100" d="M136.284,75.646c1.272-2.176,3.174-3.818,5.169-4.688c1.979-0.926,3.979-1.144,5.605-1.127
			c1.64,0.03,2.937,0.33,3.818,0.552c0.868,0.272,1.35,0.423,1.35,0.423s-0.485-0.135-1.359-0.378
			c-0.889-0.195-2.188-0.455-3.813-0.448c-1.607,0.022-3.57,0.275-5.498,1.206c-1.939,0.877-3.771,2.489-5.014,4.608"/>
		<path fill="#F7B400" d="M139.363,79.072l-9.23,0.959c0,0-1.207-3.057,2.282-3.283C135.901,76.521,139.363,79.072,139.363,79.072"
			/>
		<path fill="#FFF000" d="M131.021,76.482c-0.879,0.394-1.41,0.967-1.58,1.703c-0.375,1.614,1.217,3.385,1.284,3.459
			c0.169,0.186,0.469,0.212,0.672,0.055c0.203-0.155,0.229-0.432,0.062-0.619c-0.379-0.418-1.313-1.722-1.082-2.713
			c0.109-0.464,0.457-0.822,1.064-1.095c0.275-0.123,0.586-0.204,0.917-0.252c-0.112-0.271-0.215-0.553-0.312-0.843
			C131.681,76.243,131.334,76.34,131.021,76.482"/>
		<path fill="#00A199" d="M158.978,79.632c1.146-2.719,4.371-10.092,3.708-13.268c-1.001-4.786-5.704-3.759-6.416-1.384
			c-0.713,2.374,0.516,4.194,0.516,4.194s-0.84,1.761-1.787,4.379C154.385,75.248,158.018,81.905,158.978,79.632"/>
		<path fill="#AACC03" d="M160.232,69.748c0,0-0.098,0.037-0.259,0.101c-0.169,0.074-0.419,0.137-0.738,0.205
			c-0.627,0.085-1.62,0.177-2.541-0.53c-0.442-0.414-0.576-0.958-0.646-1.36c-0.08-0.427-0.099-0.809-0.106-1.128
			c-0.007-0.64,0.051-1.032,0.051-1.032s0.114,0.421,0.271,0.985c0.083,0.302,0.184,0.66,0.315,1.035
			c0.122,0.39,0.283,0.773,0.541,1.011c0.612,0.493,1.508,0.638,2.1,0.695C159.832,69.774,160.232,69.748,160.232,69.748"/>
		<path fill="#AACC03" d="M118.46,200.242c15.211,1.101,31.146,0.796,38.735-1.85c11.433-3.987,15.256-14.2,15.752-26.631
			c0.41-10.343-1.482-22.223-3.213-33.327c-3.353-21.486,12.567-52.368-24.922-58.75c-9.988-1.7-22.85-1.817-36.647,17.247
			c-2.4,3.319-4.524,7.125-6.394,10.973c-1.055,2.167-2.019,4.256-2.936,6.501c-5.152,12.631-8.975,20.975-11.251,34.161
			C84.527,166.265,78.631,197.359,118.46,200.242"/>
		<path fill="#F6D400" d="M140.732,79.138c1.406,0.128,2.768,0.324,4.08,0.548C143.5,79.461,142.139,79.266,140.732,79.138
			 M145.037,79.725c0.043,0.007,0.084,0.015,0.127,0.021C145.121,79.739,145.08,79.731,145.037,79.725 M145.259,79.764
			c0.047,0.008,0.098,0.017,0.142,0.024C145.354,79.779,145.308,79.771,145.259,79.764 M145.482,79.803
			c0.051,0.01,0.094,0.017,0.143,0.026C145.578,79.82,145.531,79.812,145.482,79.803 M145.705,79.845
			c0.041,0.007,0.088,0.016,0.129,0.023C145.793,79.86,145.75,79.852,145.705,79.845 M145.936,79.888l0.117,0.021L145.936,79.888
			 M146.16,79.93c0.035,0.007,0.074,0.014,0.108,0.021C146.234,79.943,146.197,79.938,146.16,79.93 M146.39,79.975
			c0.03,0.006,0.063,0.013,0.095,0.019C146.453,79.987,146.421,79.98,146.39,79.975 M146.63,80.022
			c0.022,0.004,0.04,0.008,0.063,0.012C146.672,80.03,146.65,80.026,146.63,80.022 M146.888,80.074c0,0,0.013,0.003,0.017,0.004
			C146.898,80.076,146.893,80.075,146.888,80.074"/>
		<path fill="#A2C412" d="M137.373,78.978c-1.46,0-2.961,0.096-4.499,0.328c1.698,0.141,4.265,0.644,6.483,2.286
			c3.078,2.282,6.979,3.797,10.914,3.797c2.388,0,4.787-0.558,7.028-1.835c-2.837-1.446-6.261-2.624-10.396-3.476
			c-0.006-0.001-0.012-0.004-0.012-0.004c-0.072-0.013-0.135-0.026-0.201-0.04c-0.021-0.004-0.039-0.008-0.062-0.012
			c-0.048-0.01-0.098-0.021-0.147-0.029c-0.029-0.006-0.063-0.013-0.092-0.019c-0.041-0.009-0.082-0.017-0.121-0.024
			c-0.037-0.007-0.074-0.014-0.109-0.021c-0.035-0.008-0.072-0.014-0.107-0.021l-0.117-0.021c-0.033-0.007-0.066-0.013-0.101-0.019
			c-0.041-0.008-0.088-0.017-0.129-0.023c-0.026-0.006-0.054-0.011-0.081-0.016c-0.049-0.01-0.093-0.018-0.143-0.026
			c-0.026-0.006-0.055-0.011-0.082-0.015c-0.045-0.008-0.094-0.018-0.142-0.024c-0.032-0.007-0.062-0.012-0.094-0.018
			c-0.043-0.007-0.084-0.015-0.128-0.021c-0.073-0.014-0.148-0.027-0.225-0.039c-1.312-0.224-2.674-0.42-4.08-0.549
			C139.641,79.036,138.52,78.978,137.373,78.978"/>
		<path fill="#F5F2E8" d="M116.701,128.535c0.179,0.63-0.232,1.273-0.918,1.437c-0.686,0.165-1.386-0.213-1.564-0.843l-6.503-22.973
			c-0.18-0.632,0.231-1.274,0.918-1.438c0.684-0.164,1.384,0.214,1.563,0.844L116.701,128.535z"/>
		<path fill="#C8C9CA" d="M108.909,110.375c-0.108-0.382,0.505-0.858,1.045-0.988c0.542-0.129,1.33,0.014,1.437,0.395l-0.46-1.624
			c-0.108-0.381-0.894-0.522-1.436-0.394s-1.153,0.607-1.045,0.987L108.909,110.375z"/>
		<path fill="#53B232" d="M169.734,138.435c0,0,0.158,0.92,0.449,2.581c0.275,1.664,0.725,4.065,1.172,7.049
			c0.216,1.494,0.454,3.13,0.708,4.887c0.119,0.88,0.269,1.785,0.373,2.726c0.09,0.942,0.181,1.911,0.276,2.906
			c0.092,0.995,0.187,2.014,0.285,3.056c0.086,1.042,0.225,2.104,0.207,3.194c0.029,2.179,0.057,4.434,0.086,6.744
			c-0.16,4.617-0.834,9.03-2.164,12.838c-1.344,3.794-3.346,6.941-5.567,9.023c-2.201,2.111-4.386,3.313-5.923,3.998
			c-0.762,0.367-1.396,0.548-1.807,0.718c-0.416,0.156-0.635,0.237-0.635,0.237s0.215-0.091,0.625-0.264
			c0.4-0.189,1.025-0.395,1.77-0.789c1.504-0.741,3.623-2.01,5.723-4.146c2.124-2.107,4.002-5.228,5.257-8.968
			c1.242-3.755,1.867-8.102,2.026-12.674c-0.02-2.292-0.038-4.529-0.057-6.691c0.029-1.081-0.099-2.14-0.173-3.179
			c-0.081-1.037-0.161-2.053-0.239-3.045c-0.076-0.993-0.15-1.96-0.223-2.901c-0.084-0.938-0.215-1.847-0.313-2.726
			c-0.211-1.759-0.402-3.398-0.582-4.896C170.223,142.14,169.734,138.435,169.734,138.435"/>
		<path fill="#FFDF00" d="M104.445,138.954l-5.266,2.2c-4.137,9.176-10.224,13.651-12.876,15.258
			c-0.323,2.262-0.598,4.617-0.766,7.011C102.622,155.396,104.445,138.954,104.445,138.954"/>
		<path fill="#FFF000" d="M99.316,141.215c-2.317,5.132-5.583,9.15-8.283,11.625c-1.341,1.255-2.548,2.131-3.388,2.717
			c-0.853,0.568-1.342,0.856-1.342,0.856s0.479-0.306,1.316-0.896c0.823-0.606,2.003-1.51,3.312-2.787
			c2.637-2.521,5.814-6.547,8.114-11.638"/>
		<path fill="#FFDF00" d="M141.611,159.337c0,0,7.178,12.61,32.861,9.971l0.318-3.08c0,0-19.301-0.293-26.002-9.237"/>
		<path fill="#FFF000" d="M141.741,159.263c1.345,2.031,3.218,3.642,5.134,4.935c1.928,1.307,3.996,2.212,5.979,3.005
			c4.035,1.445,7.892,2.044,11.123,2.239c1.617,0.171,3.084,0.135,4.373,0.145c1.291,0.038,2.4-0.04,3.306-0.103
			c1.813-0.113,2.817-0.176,2.817-0.176s-1.002,0.078-2.814,0.222c-0.906,0.078-2.016,0.172-3.307,0.15
			c-1.291,0.007-2.764,0.063-4.385-0.09c-3.244-0.16-7.123-0.721-11.199-2.152c-3.98-1.515-8.409-3.823-11.285-8.026"/>
		<path fill="#53B232" d="M148.183,200.187c0,0-1.417,0.126-3.978,0.354c-2.56,0.295-6.283,0.362-10.881,0.457
			c-2.3-0.034-4.82-0.033-7.524-0.109c-2.701-0.153-5.591-0.218-8.628-0.478c-3.044-0.209-6.218-0.752-9.449-1.541
			c-3.228-0.81-6.499-2.033-9.552-3.854c-3.043-1.828-5.657-4.217-7.616-6.936c-1.986-2.71-3.276-5.729-4.069-8.687
			c-1.59-5.947-1.449-11.539-1.109-16.111c0.381-4.592,1.041-8.26,1.482-10.792c0.467-2.527,0.725-3.926,0.725-3.926
			s-0.219,1.405-0.618,3.943c-0.376,2.542-0.949,6.222-1.242,10.801c-0.252,4.556-0.296,10.106,1.328,15.928
			c0.809,2.895,2.095,5.829,4.041,8.452c1.923,2.633,4.465,4.945,7.436,6.73c2.981,1.775,6.186,2.989,9.363,3.807
			c3.181,0.795,6.315,1.361,9.333,1.6c3.016,0.29,5.904,0.394,8.594,0.586c2.697,0.118,5.213,0.16,7.508,0.237
			c4.588-0.008,8.313,0.012,10.871-0.217C146.763,200.273,148.183,200.187,148.183,200.187"/>
		<path fill="#003F84" d="M135.75,85.6c-0.232,0.948-0.932,1.627-1.563,1.514c-0.635-0.113-0.959-0.974-0.728-1.923
			c0.231-0.948,0.933-1.626,1.563-1.513C135.657,83.791,135.98,84.651,135.75,85.6"/>
		<path fill="#003F84" d="M147.637,87.574c-0.23,0.948-0.934,1.626-1.564,1.515c-0.634-0.114-0.957-0.975-0.728-1.923
			c0.231-0.949,0.933-1.626,1.563-1.515C147.541,85.765,147.867,86.626,147.637,87.574"/>
		<path fill="#003F84" d="M139.599,96.646l-0.132-0.002c-2.021-0.058-2.52-1.445-2.54-1.506c-0.05-0.145,0.028-0.304,0.174-0.354
			c0.142-0.051,0.306,0.026,0.353,0.172c0.021,0.052,0.416,1.083,2.031,1.129l0.11,0.002c1.868,0,2.005-1.395,2.01-1.454
			c0.013-0.154,0.14-0.273,0.3-0.258c0.151,0.012,0.268,0.145,0.258,0.298C142.16,94.692,141.994,96.646,139.599,96.646"/>
		<path fill="#003F84" d="M134.342,80.279c-2.418,0-4.682,1.825-5.385,4.34c-0.42,1.504-0.237,3.087,0.504,4.345
			c0.664,1.123,1.713,1.903,2.957,2.197c0.361,0.084,0.73,0.128,1.103,0.128c2.417,0,4.681-1.825,5.384-4.34
			c0.42-1.504,0.236-3.088-0.506-4.345c-0.661-1.122-1.711-1.903-2.955-2.197C135.082,80.322,134.713,80.279,134.342,80.279
			 M133.521,91.747c-0.407,0-0.812-0.047-1.207-0.14c-1.367-0.323-2.521-1.179-3.247-2.41c-0.804-1.365-1.007-3.078-0.553-4.701
			c0.757-2.709,3.208-4.675,5.828-4.675c0.408,0,0.813,0.047,1.207,0.14c1.367,0.322,2.52,1.179,3.244,2.41
			c0.807,1.364,1.006,3.078,0.553,4.701C138.59,89.781,136.138,91.747,133.521,91.747"/>
		<path fill="#003F84" d="M147.199,83c-2.422,0-4.684,1.825-5.387,4.34c-0.42,1.504-0.237,3.087,0.506,4.344
			c0.662,1.123,1.713,1.904,2.955,2.198c0.362,0.084,0.731,0.128,1.102,0.128c2.421,0,4.686-1.824,5.389-4.34
			c0.42-1.504,0.235-3.088-0.507-4.344c-0.663-1.124-1.713-1.904-2.957-2.198C147.939,83.043,147.57,83,147.199,83 M146.375,94.468
			c-0.404,0-0.811-0.047-1.206-0.139c-1.366-0.324-2.519-1.18-3.246-2.412c-0.804-1.364-1.007-3.078-0.553-4.7
			c0.757-2.709,3.208-4.675,5.829-4.675c0.406,0,0.813,0.047,1.205,0.14c1.367,0.322,2.521,1.179,3.248,2.41
			c0.804,1.365,1.007,3.078,0.553,4.701C151.448,92.502,148.997,94.468,146.375,94.468"/>
		<path fill="#003F84" d="M142.007,85.981c-0.957-0.881-2.608-0.708-2.624-0.706l-0.053-0.456c0.076-0.007,1.873-0.198,2.988,0.824
			L142.007,85.981z"/>
		<path fill="#00ADBE" d="M140.307,87.332c-0.131,0.56-0.712,0.922-1.3,0.807c-0.589-0.115-0.96-0.662-0.829-1.222
			c0.131-0.561,0.712-0.922,1.299-0.808C140.063,86.225,140.438,86.771,140.307,87.332"/>
		<path fill="#FFDF00" d="M133.88,76.429c0,0,1.099,0.282,2.534-0.708c0,0,12.521-0.574,21.232,7.691c0,0-5.713,1.475-9.478,0.577
			c-3.765-0.896-8.644-4.869-9.759-5.51S133.88,76.429,133.88,76.429"/>
		<path fill="#FAC100" d="M133.916,76.284c0.822,0.148,1.654-0.258,2.37-0.662c0.241-0.098,0.262-0.032,0.399-0.055l0.325-0.001
			l0.648,0.012c0.427,0.021,0.854,0.032,1.274,0.07c1.684,0.125,3.293,0.372,4.812,0.688c3.026,0.662,5.659,1.653,7.741,2.726
			c1.058,0.505,1.935,1.104,2.73,1.583c0.749,0.55,1.405,1.011,1.911,1.423c0.976,0.866,1.519,1.345,1.519,1.345
			s-0.551-0.467-1.547-1.309c-0.516-0.4-1.178-0.847-1.935-1.381c-0.804-0.461-1.687-1.042-2.746-1.528
			c-2.086-1.033-4.713-1.981-7.726-2.612c-1.51-0.299-3.11-0.533-4.78-0.648c-0.417-0.036-0.838-0.046-1.265-0.065l-0.639-0.009
			l-0.56,0.008c-0.771,0.431-1.618,0.877-2.607,0.706"/>
		<path fill="#FFF000" d="M158.039,83.291c-0.075-0.233-0.336-0.367-0.594-0.301c-0.035,0.01-3.584,0.935-7.563,0.626
			c-3.817-0.299-7.185-2.561-10.256-4.96c-2.473-1.932-5.417-2.861-7.58-2.479c0.097,0.29,0.2,0.572,0.312,0.843
			c1.855-0.269,4.472,0.605,6.649,2.307c3.192,2.494,6.71,4.847,10.794,5.165c0.607,0.047,1.203,0.067,1.778,0.067
			c3.356,0,6.002-0.689,6.131-0.724C157.964,83.768,158.112,83.524,158.039,83.291"/>
		<path fill="#AACC03" d="M101.771,107.903c0,0-3.235,6.717-10.605,13.491c-3.949,3.63-7.42,8.96-8.495,12.647
			c-2.272,7.808,2.274,12.867,8.495,14.077c6.22,1.21,16.149-2.419,22.969-9.238c6.821-6.818-0.118-15.507-5.503-15.727
			c-5.382-0.219-12.921,4.619-12.921,4.619"/>
		<path fill="#FFDF00" d="M103.847,131.128c-0.056-2.558-0.234-4.904-0.489-7.036c-0.687-5.759-1.927-9.924-2.78-12.279
			c-0.155-0.429-0.297-0.797-0.423-1.104c-1.048,1.649-2.62,3.893-4.771,6.357c0.928,1.59,1.648,3.126,2.201,4.565
			c0.614,1.595,1.027,3.067,1.305,4.363c0.7,3.279,0.529,5.408,0.529,5.408L103.847,131.128z"/>
		<path fill="#FFF000" d="M103.698,131.131c-0.209-2.701-0.311-5.284-0.555-7.618c-0.166-1.162-0.323-2.268-0.472-3.302
			c-0.205-1.023-0.397-1.978-0.572-2.851c-0.388-1.731-0.756-3.126-1.056-4.073c-0.298-0.947-0.465-1.475-0.465-1.475
			s0.182,0.522,0.509,1.46c0.327,0.94,0.731,2.327,1.157,4.055c0.192,0.871,0.402,1.824,0.627,2.848
			c0.164,1.037,0.339,2.143,0.521,3.305c0.275,2.34,0.395,4.932,0.604,7.646"/>
		<path fill="#FFDF00" d="M170.976,119.409c0,0-25.615,7.814-31.358,23.432l4.308,3.519c0,0,9.332-13.417,28.95-21.335"/>
		<path fill="#FFF000" d="M139.478,142.788c2.069-5.258,5.907-9.229,9.662-12.218c3.799-3.001,7.633-5.112,10.897-6.738
			c3.277-1.606,6.027-2.69,7.941-3.397c1.914-0.704,2.997-1.025,2.997-1.025s-1.075,0.339-2.979,1.068
			c-1.902,0.732-4.638,1.851-7.895,3.489c-3.238,1.654-7.045,3.795-10.807,6.802c-3.717,2.994-7.5,6.946-9.537,12.123"/>
		<path fill="#AACC03" d="M82.671,134.042c-2.272,7.808,2.273,12.867,8.494,14.077c6.221,1.21,16.15-2.419,22.97-9.238
			c6.82-6.819-0.118-15.507-5.503-15.726c-5.383-0.221-12.921,4.618-12.921,4.618"/>
		<path fill="#53B232" d="M95.711,127.773c0,0,0.913-0.629,2.668-1.598c1.767-0.923,4.354-2.336,7.92-3.068
			c0.893-0.146,1.849-0.29,2.863-0.149c1.023,0.093,2.018,0.504,2.957,1.036c1.863,1.104,3.543,2.849,4.499,5.123
			c1.033,2.222,1.013,5.121-0.265,7.504c-0.65,1.172-1.538,2.256-2.527,3.159c-0.962,0.944-2.024,1.808-3.131,2.636
			c-4.438,3.297-9.432,5.387-14.191,6.097c-2.373,0.316-4.743,0.229-6.79-0.443c-2.05-0.648-3.82-1.718-5.063-3.067
			c-1.263-1.328-2.011-2.86-2.351-4.259c-0.333-1.405-0.342-2.655-0.251-3.654c0.109-1,0.26-1.765,0.414-2.271
			c0.135-0.509,0.208-0.776,0.208-0.776s-0.06,0.271-0.171,0.785c-0.13,0.509-0.245,1.28-0.312,2.271
			c-0.047,0.991,0.012,2.22,0.387,3.571c0.377,1.346,1.15,2.79,2.396,4.021c1.227,1.251,2.944,2.221,4.917,2.793
			c1.979,0.594,4.209,0.626,6.509,0.283c4.585-0.769,9.443-2.855,13.764-6.069c2.119-1.635,4.229-3.352,5.438-5.479
			c1.168-2.151,1.239-4.729,0.321-6.813c-0.844-2.12-2.395-3.809-4.113-4.885c-1.724-1.146-3.698-1.278-5.435-0.973
			c-3.489,0.604-6.135,1.907-7.928,2.753C96.654,127.191,95.711,127.773,95.711,127.773"/>
		<path fill="#F5F2E8" d="M136.128,155.57c0.137,1.254-0.876,2.158-2.261,2.02l-25.312-2.521c-1.387-0.138-2.622-1.266-2.759-2.521
			l-3.843-35.049c-0.139-1.254,0.874-2.158,2.261-2.021L129.523,118c1.388,0.139,2.625,1.268,2.762,2.521L136.128,155.57z"/>
		<path fill="#EAE4D0" d="M134.681,155.685l-3.733-34.045c-0.133-1.217-1.332-2.314-2.681-2.449l-24.585-2.448
			c-0.721-0.071-1.33,0.153-1.729,0.56v0.198l3.843,35.048c0.137,1.255,1.372,2.383,2.759,2.521l24.904,2.482
			C134.271,157.29,134.779,156.581,134.681,155.685"/>
		<path fill="#003F84" d="M134.302,135.713c0,0,1.508-4.092,0.688-5.629c-0.82-1.537-2.731-0.998-2.711,0.747
			c0.019,1.745-0.783,3.783-0.783,3.783"/>
		<path fill="#003F84" d="M123.96,138.952c0,0-2.845-3.061-2.715-4.651c0.13-1.59,1.985-1.733,2.627-0.217
			c0.644,1.516,2.101,3.024,2.101,3.024"/>
		<path fill="#003F84" d="M125.827,137.194c0,0-2.847-3.061-2.714-4.65c0.129-1.59,1.984-1.733,2.627-0.217
			c0.641,1.515,2.1,3.023,2.1,3.023"/>
		<path fill="#00848F" d="M125.74,132.326c-0.032,0.043-0.176-0.571-0.939-0.909c-0.365-0.147-0.928-0.128-1.283,0.285
			c-0.355,0.402-0.408,1.061-0.194,1.639c0.437,1.185,1.169,2.117,1.655,2.792c0.508,0.668,0.847,1.061,0.847,1.061
			s-0.369-0.366-0.911-1.01c-0.521-0.656-1.29-1.561-1.742-2.792c-0.229-0.607-0.168-1.346,0.244-1.78
			c0.413-0.454,1.04-0.445,1.415-0.27C125.618,131.742,125.701,132.37,125.74,132.326"/>
		<path fill="#003F84" d="M128.074,135.875c0,0-2.846-3.06-2.714-4.65c0.131-1.591,1.985-1.733,2.627-0.218
			c0.642,1.517,2.101,3.025,2.101,3.025"/>
		<path fill="#00848F" d="M127.987,131.008c-0.031,0.043-0.175-0.571-0.938-0.909c-0.365-0.148-0.929-0.127-1.281,0.285
			c-0.356,0.401-0.41,1.061-0.194,1.637c0.435,1.187,1.167,2.118,1.651,2.793c0.509,0.668,0.851,1.062,0.851,1.062
			s-0.372-0.365-0.912-1.012c-0.521-0.654-1.291-1.559-1.745-2.792c-0.227-0.605-0.166-1.344,0.248-1.779
			c0.411-0.454,1.036-0.445,1.412-0.27C127.866,130.424,127.951,131.052,127.987,131.008"/>
		<path fill="#003F84" d="M130.952,134.962c0,0-3.19-2.757-3.249-4.351s1.77-1.923,2.585-0.479s2.446,2.796,2.446,2.796"/>
		<path fill="#00848F" d="M130.288,130.132c-0.026,0.046-0.239-0.547-1.037-0.809c-0.379-0.112-0.944-0.037-1.247,0.417
			c-0.31,0.443-0.275,1.105,0.012,1.656c0.576,1.132,1.41,1.979,1.972,2.6c0.581,0.61,0.965,0.966,0.965,0.966
			s-0.41-0.325-1.022-0.909c-0.594-0.596-1.463-1.413-2.061-2.588c-0.303-0.576-0.339-1.317,0.023-1.803
			c0.357-0.505,0.99-0.555,1.379-0.416C130.102,129.566,130.256,130.178,130.288,130.132"/>
		<path fill="#AACC03" d="M164.98,129.423c0,0,1.079,22.078-11.354,29.818c-12.437,7.74-22.91,1.437-28.17-6.656
			c-4.438-6.827-5.264-15.6,1.32-18.909c5.955-2.994,10.838-0.022,13,3.839c2.159,3.861,6.453,6.569,6.453,6.569"/>
		<path fill="#53B232" d="M146.23,144.084c0,0-0.334-0.201-0.938-0.635c-0.61-0.427-1.475-1.105-2.521-2.06
			c-1.021-0.979-2.202-2.274-3.243-4.009c-1.015-1.678-2.697-3.372-5.039-4.189c-2.324-0.851-5.211-0.538-7.748,0.861
			c-1.285,0.654-2.396,1.706-3.16,3.012c-0.767,1.309-1.152,2.874-1.203,4.489c-0.086,3.25,1.016,6.645,2.785,9.725
			c1.813,3.062,4.313,5.924,7.473,7.99c3.13,2.102,6.82,3.156,10.357,3.034c3.549-0.141,6.877-1.334,9.715-2.982
			c2.852-1.628,5.045-3.929,6.631-6.39c1.627-2.448,2.593-5.054,3.371-7.429c1.492-4.803,1.914-8.897,2.127-11.7
			c0.201-2.814,0.143-4.379,0.143-4.379s0.115,1.562-0.002,4.387c-0.132,2.815-0.439,6.933-1.839,11.821
			c-0.734,2.421-1.661,5.083-3.282,7.625c-1.574,2.549-3.829,4.991-6.77,6.718c-2.891,1.727-6.336,3.014-10.065,3.185
			c-3.716,0.157-7.614-0.949-10.876-3.142c-3.299-2.159-5.867-5.128-7.723-8.312c-1.813-3.204-2.932-6.733-2.797-10.182
			c0.074-1.713,0.508-3.398,1.365-4.811c0.852-1.407,2.086-2.527,3.461-3.2c2.683-1.424,5.762-1.694,8.189-0.741
			c2.443,0.917,4.134,2.718,5.131,4.467c0.982,1.739,2.109,3.045,3.098,4.05c1.01,0.979,1.85,1.687,2.444,2.13
			C145.903,143.871,146.23,144.084,146.23,144.084"/>
		<path fill="#FFFFFF" d="M132.285,120.521c-0.02,0.006-0.016-0.247-0.195-0.661c-0.173-0.411-0.572-0.998-1.324-1.42
			c-0.739-0.479-1.84-0.434-3.049-0.573c-1.223-0.112-2.611-0.243-4.148-0.386c-3.075-0.291-6.732-0.638-10.792-1.024
			c-2.032-0.195-4.164-0.402-6.373-0.616c-0.554-0.055-1.11-0.109-1.673-0.164c-0.57-0.067-1.11-0.109-1.61,0.099
			c-0.493,0.194-0.884,0.627-0.986,1.152c-0.093,0.509,0.047,1.118,0.091,1.697c2.055,18.727,3.571,33.923,3.571,33.923
			s-1.813-15.164-3.867-33.891c-0.04-0.587-0.193-1.15-0.085-1.79c0.119-0.623,0.592-1.145,1.164-1.363
			c0.569-0.241,1.211-0.183,1.752-0.116c0.56,0.057,1.119,0.112,1.671,0.169c2.207,0.226,4.338,0.443,6.37,0.65
			c4.054,0.425,7.71,0.807,10.783,1.126c1.533,0.163,2.922,0.312,4.141,0.44c1.201,0.155,2.314,0.126,3.064,0.626
			c0.758,0.441,1.146,1.039,1.311,1.455C132.277,120.274,132.266,120.527,132.285,120.521"/>
	</g>
</g>
</svg>
