<?xml version="1.0" encoding="utf-8"?>
<!-- Generator: Adobe Illustrator 16.0.0, SVG Export Plug-In . SVG Version: 6.00 Build 0)  -->
<!DOCTYPE svg PUBLIC "-//W3C//DTD SVG 1.1//EN" "http://www.w3.org/Graphics/SVG/1.1/DTD/svg11.dtd">
<svg version="1.1" id="레이어_1" xmlns="http://www.w3.org/2000/svg" xmlns:xlink="http://www.w3.org/1999/xlink" x="0px"
	 y="0px" width="209.697px" height="96.707px" viewBox="0 0 209.697 96.707" enable-background="new 0 0 209.697 96.707"
	 xml:space="preserve">
<g>
	<path fill="none" stroke="#231815" stroke-width="8" stroke-linejoin="round" stroke-miterlimit="9.176" d="M28.744,74.687
		c0,1.044-0.204,2.04-0.609,2.984c-0.407,0.945-0.918,1.787-1.536,2.527c-0.618,0.74-1.309,1.361-2.072,1.861
		c-0.764,0.501-1.486,0.843-2.168,1.025c-0.683,0.183-1.406,0.229-2.169,0.138c-0.764-0.092-1.455-0.343-2.072-0.752
		c-0.618-0.409-1.13-0.977-1.536-1.704c-0.406-0.727-0.609-1.613-0.609-2.658V66.04c0-1.149,0.188-2.192,0.562-3.129
		c0.373-0.936,0.868-1.765,1.486-2.487c0.617-0.723,1.299-1.315,2.048-1.776c0.747-0.462,1.511-0.797,2.291-1.007
		c0.78-0.208,1.542-0.282,2.292-0.221c0.747,0.061,1.429,0.287,2.046,0.679s1.113,0.956,1.487,1.691
		c0.374,0.736,0.561,1.679,0.561,2.828V74.687z M6.027,80.459c0,2.996,0.512,5.375,1.536,7.139s2.331,3.051,3.923,3.859
		c1.592,0.811,3.356,1.227,5.29,1.247c1.933,0.023,3.794-0.205,5.582-0.685c1.787-0.479,3.647-1.248,5.581-2.306
		c1.933-1.058,3.697-2.419,5.29-4.083c1.592-1.661,2.901-3.649,3.924-5.961c1.023-2.313,1.536-4.966,1.536-7.962V60.266
		c0-2.996-0.512-5.375-1.536-7.139c-1.023-1.763-2.332-3.049-3.924-3.859c-1.593-0.81-3.356-1.226-5.29-1.248
		c-1.934-0.021-3.794,0.207-5.581,0.687c-1.821,0.487-3.697,1.261-5.63,2.317c-1.935,1.06-3.697,2.42-5.29,4.082
		c-1.593,1.664-2.893,3.649-3.9,5.957c-1.007,2.308-1.511,4.959-1.511,7.955V80.459z"/>
	<path fill="none" stroke="#231815" stroke-width="8" stroke-linejoin="round" stroke-miterlimit="9.176" d="M86.364,73.876
		l-12.967-16.85l8.97-16.667c0.454-0.854,0.723-1.674,0.804-2.462c0.081-0.787,0.016-1.502-0.194-2.143
		c-0.212-0.64-0.561-1.156-1.049-1.547c-0.487-0.393-1.056-0.605-1.706-0.641c-1.333-0.061-2.559,0.293-3.68,1.063
		c-1.121,0.771-2.138,2.028-3.046,3.77l-5.704,11.298l-6.24-8.15c-0.91-1.22-1.974-1.908-3.192-2.07
		c-1.219-0.161-2.495,0.181-3.827,1.025c-0.651,0.419-1.219,0.962-1.707,1.633c-0.487,0.671-0.845,1.376-1.072,2.116
		c-0.228,0.74-0.309,1.485-0.243,2.233c0.064,0.749,0.308,1.398,0.731,1.946l9.262,11.625L48.779,83.948l11.114-2.979l7.214-13.846
		l7.897,9.797L86.364,73.876z"/>
	<path fill="none" stroke="#231815" stroke-width="8" stroke-linejoin="round" stroke-miterlimit="9.176" d="M119.171,50.457
		c0,1.045-0.203,2.041-0.609,2.984c-0.406,0.946-0.918,1.788-1.536,2.528c-0.617,0.739-1.308,1.36-2.071,1.861
		c-0.765,0.501-1.486,0.843-2.169,1.025s-1.406,0.229-2.169,0.137c-0.765-0.091-1.455-0.342-2.072-0.751
		c-0.618-0.409-1.131-0.977-1.536-1.705c-0.406-0.727-0.609-1.613-0.609-2.657V41.81c0-1.149,0.188-2.192,0.562-3.129
		c0.373-0.936,0.868-1.765,1.486-2.487c0.617-0.723,1.299-1.315,2.048-1.776c0.747-0.463,1.511-0.798,2.291-1.007
		c0.779-0.209,1.542-0.283,2.291-0.222c0.747,0.062,1.43,0.288,2.047,0.68s1.112,0.955,1.487,1.69
		c0.373,0.736,0.561,1.68,0.561,2.828V50.457z M96.454,56.23c0,2.996,0.512,5.375,1.536,7.139s2.331,3.051,3.923,3.859
		c1.592,0.811,3.356,1.226,5.29,1.247c1.933,0.022,3.794-0.206,5.582-0.685c1.624-0.436,3.266-1.085,4.923-1.947l3.363,3.802
		c0.423,0.479,0.927,0.796,1.512,0.953s1.202,0.182,1.852,0.078c0.65-0.104,1.301-0.321,1.951-0.653
		c0.65-0.33,1.25-0.745,1.803-1.24c0.52-0.487,0.967-1.052,1.341-1.692c0.373-0.64,0.626-1.299,0.755-1.978
		c0.13-0.68,0.115-1.337-0.048-1.973s-0.487-1.202-0.975-1.699l-3.218-3.056c0.942-1.471,1.689-3.108,2.242-4.911
		c0.553-1.802,0.829-3.801,0.829-5.995V36.037c0-2.996-0.513-5.376-1.536-7.139c-1.022-1.764-2.332-3.05-3.924-3.86
		c-1.592-0.809-3.355-1.225-5.289-1.247c-1.934-0.021-3.794,0.207-5.581,0.686c-1.821,0.488-3.698,1.261-5.63,2.318
		c-1.935,1.059-3.698,2.42-5.29,4.082c-1.593,1.664-2.893,3.649-3.899,5.956c-1.008,2.308-1.512,4.96-1.512,7.956V56.23z"/>
	<path fill="none" stroke="#231815" stroke-width="8" stroke-linejoin="round" stroke-miterlimit="9.176" d="M149.345,56.74
		c1.43-1.149,2.6-2.507,3.511-4.075l0.536,3.252l7.75-2.077V26.358c0-1.776-0.487-2.952-1.462-3.527
		c-0.975-0.574-2.144-0.68-3.511-0.313c-1.364,0.366-2.526,1.096-3.484,2.188c-0.959,1.094-1.438,2.528-1.438,4.305v14.942
		c-0.032,0.846-0.179,1.59-0.438,2.233c-0.261,0.645-0.578,1.192-0.95,1.64c-0.374,0.448-0.788,0.813-1.243,1.091
		c-0.456,0.279-0.877,0.47-1.268,0.574c-0.423,0.113-0.861,0.153-1.316,0.118s-0.869-0.193-1.243-0.477s-0.682-0.688-0.927-1.215
		c-0.243-0.527-0.365-1.243-0.365-2.148v-14.63c0-1.811-0.495-3.002-1.486-3.573c-0.992-0.569-2.169-0.672-3.534-0.307
		c-1.364,0.366-2.543,1.1-3.534,2.201c-0.992,1.103-1.486,2.559-1.486,4.369v14.002c0,2.752,0.291,4.974,0.877,6.662
		c0.586,1.69,1.373,2.95,2.365,3.781c0.99,0.832,2.16,1.294,3.508,1.385c1.35,0.091,2.804-0.072,4.363-0.49
		C146.323,58.699,147.915,57.889,149.345,56.74z"/>
	<path fill="none" stroke="#231815" stroke-width="8" stroke-linejoin="round" stroke-miterlimit="9.176" d="M166.626,15.249
		c0.275,0.536,0.641,0.934,1.098,1.194c0.454,0.263,0.99,0.397,1.607,0.406s1.269-0.079,1.95-0.262
		c0.683-0.184,1.332-0.444,1.95-0.783c0.617-0.34,1.153-0.762,1.608-1.268c0.455-0.505,0.821-1.1,1.097-1.783
		c0.275-0.683,0.415-1.461,0.415-2.331c0-1.707-0.505-2.799-1.512-3.279c-1.007-0.479-2.193-0.535-3.559-0.169
		c-1.364,0.365-2.552,1.059-3.558,2.076c-1.008,1.02-1.512,2.382-1.512,4.089C166.212,14.009,166.35,14.714,166.626,15.249z
		 M166.261,52.468l10.041-2.69V22.713c0-1.811-0.495-3.002-1.486-3.573c-0.992-0.569-2.169-0.672-3.534-0.307
		c-1.364,0.366-2.543,1.1-3.534,2.201s-1.486,2.559-1.486,4.369V52.468z"/>
	<path fill="none" stroke="#231815" stroke-width="8" stroke-linejoin="round" stroke-miterlimit="9.176" d="M192.682,21.773
		L182.493,37.46c-0.748,1.141-1.275,2.153-1.584,3.036c-0.31,0.886-0.488,1.673-0.537,2.364c-0.048,0.692,0.008,1.287,0.172,1.784
		c0.162,0.497,0.341,0.909,0.535,1.24c0.487,0.81,1.194,1.291,2.121,1.443c0.926,0.151,2.072,0.046,3.437-0.32l15.16-4.063
		c0.683-0.183,1.274-0.481,1.779-0.894c0.504-0.414,0.909-0.871,1.219-1.372s0.536-1.032,0.683-1.594s0.22-1.104,0.22-1.626
		s-0.073-1.017-0.22-1.482s-0.373-0.867-0.683-1.202s-0.707-0.567-1.194-0.699c-0.487-0.13-1.089-0.099-1.804,0.093l-9.311,2.494
		l10.188-15.688c0.682-1.053,1.178-2.013,1.486-2.88c0.309-0.866,0.496-1.648,0.561-2.345s0.033-1.315-0.097-1.855
		c-0.13-0.539-0.31-0.987-0.537-1.345c-0.942-1.488-2.796-1.862-5.557-1.123l-13.942,3.736c-0.682,0.183-1.275,0.48-1.779,0.894
		c-0.504,0.415-0.91,0.871-1.218,1.372c-0.31,0.5-0.536,1.032-0.683,1.593c-0.146,0.563-0.22,1.104-0.22,1.627
		s0.073,1.018,0.22,1.482c0.146,0.466,0.373,0.866,0.683,1.201c0.308,0.336,0.706,0.568,1.194,0.7c0.487,0.13,1.088,0.1,1.803-0.093
		L192.682,21.773z"/>
	<g>
		<path fill="#FFFFFF" d="M6.026,69.019c0-2.995,0.503-5.647,1.511-7.955c1.007-2.308,2.307-4.293,3.9-5.956
			c1.592-1.662,3.355-3.023,5.289-4.082s3.81-1.83,5.63-2.318c1.787-0.479,3.648-0.708,5.582-0.686
			c1.934,0.021,3.696,0.438,5.289,1.248c1.592,0.809,2.901,2.096,3.924,3.859c1.024,1.763,1.536,4.143,1.536,7.139v11.441
			c0,2.996-0.512,5.649-1.536,7.962c-1.023,2.312-2.332,4.3-3.924,5.962c-1.593,1.664-3.355,3.024-5.289,4.082
			s-3.795,1.827-5.582,2.306c-1.788,0.479-3.648,0.707-5.582,0.686c-1.934-0.021-3.697-0.438-5.289-1.247
			c-1.593-0.81-2.901-2.097-3.924-3.859c-1.024-1.764-1.536-4.143-1.536-7.139V69.019z M28.742,62.619
			c0-1.149-0.187-2.093-0.56-2.828c-0.374-0.735-0.87-1.3-1.487-1.691s-1.3-0.618-2.047-0.679c-0.748-0.062-1.511,0.013-2.291,0.222
			s-1.544,0.544-2.291,1.006c-0.748,0.461-1.431,1.054-2.047,1.776c-0.618,0.723-1.114,1.552-1.487,2.488
			c-0.374,0.936-0.56,1.979-0.56,3.128V78.11c0,1.045,0.202,1.932,0.609,2.658c0.406,0.728,0.917,1.295,1.536,1.704
			c0.617,0.409,1.307,0.66,2.071,0.751c0.763,0.092,1.487,0.047,2.169-0.137c0.683-0.183,1.405-0.525,2.169-1.025
			c0.763-0.5,1.454-1.121,2.072-1.861c0.617-0.74,1.129-1.582,1.535-2.527c0.406-0.944,0.609-1.939,0.609-2.984V62.619z"/>
		<path fill="#FFFFFF" d="M75.004,76.921l-7.897-9.796L59.892,80.97l-11.114,2.979L61.5,60.058l-9.262-11.625
			c-0.423-0.548-0.667-1.197-0.731-1.946c-0.065-0.748,0.016-1.493,0.244-2.233c0.227-0.739,0.585-1.445,1.072-2.115
			c0.488-0.671,1.056-1.215,1.707-1.634c1.332-0.844,2.608-1.186,3.827-1.025c1.219,0.162,2.283,0.852,3.193,2.07l6.24,8.15
			l5.704-11.299c0.909-1.74,1.925-2.997,3.047-3.768c1.121-0.771,2.347-1.126,3.68-1.064c0.65,0.034,1.219,0.248,1.706,0.641
			c0.488,0.392,0.836,0.907,1.048,1.547c0.211,0.641,0.275,1.354,0.195,2.143c-0.082,0.788-0.35,1.608-0.804,2.462l-8.97,16.667
			l12.967,16.85L75.004,76.921z"/>
		<path fill="#FFFFFF" d="M96.501,44.776c0-2.995,0.503-5.647,1.511-7.954c1.007-2.308,2.307-4.294,3.9-5.956
			c1.592-1.663,3.355-3.024,5.29-4.082c1.933-1.059,3.81-1.831,5.63-2.318c1.786-0.479,3.647-0.708,5.581-0.687
			c1.934,0.022,3.697,0.438,5.289,1.248c1.593,0.81,2.9,2.096,3.924,3.859c1.024,1.763,1.536,4.144,1.536,7.139v11.442
			c0,2.194-0.276,4.193-0.829,5.994c-0.553,1.804-1.3,3.44-2.242,4.912l3.218,3.057c0.487,0.496,0.812,1.063,0.975,1.697
			c0.162,0.637,0.179,1.293,0.05,1.973c-0.131,0.68-0.383,1.339-0.756,1.979c-0.375,0.641-0.821,1.205-1.342,1.692
			c-0.553,0.496-1.153,0.909-1.803,1.24c-0.65,0.331-1.301,0.548-1.95,0.653c-0.65,0.104-1.267,0.078-1.853-0.078
			c-0.585-0.156-1.089-0.475-1.512-0.953l-3.363-3.801c-1.656,0.861-3.299,1.511-4.923,1.945c-1.788,0.479-3.648,0.707-5.582,0.686
			c-1.934-0.021-3.697-0.438-5.289-1.247c-1.593-0.81-2.9-2.097-3.924-3.859c-1.024-1.764-1.536-4.143-1.536-7.139V44.776z
			 M119.218,38.375c0-1.148-0.188-2.092-0.561-2.828c-0.374-0.735-0.869-1.299-1.486-1.691c-0.618-0.391-1.301-0.618-2.048-0.679
			c-0.747-0.062-1.511,0.013-2.291,0.222s-1.544,0.544-2.291,1.006c-0.748,0.461-1.431,1.055-2.048,1.776
			c-0.617,0.724-1.113,1.552-1.486,2.488c-0.374,0.937-0.561,1.979-0.561,3.129v12.069c0,1.045,0.202,1.931,0.609,2.658
			c0.406,0.727,0.918,1.295,1.535,1.703c0.617,0.41,1.308,0.66,2.072,0.752c0.763,0.092,1.486,0.046,2.169-0.137
			c0.683-0.184,1.405-0.525,2.169-1.026c0.764-0.5,1.454-1.12,2.072-1.861c0.617-0.739,1.129-1.582,1.535-2.526
			c0.406-0.945,0.609-1.939,0.609-2.984V38.375z"/>
		<path fill="#FFFFFF" d="M144.615,59.158c-1.56,0.418-3.015,0.58-4.362,0.489c-1.35-0.092-2.52-0.553-3.51-1.385
			c-0.992-0.831-1.78-2.092-2.365-3.781c-0.584-1.689-0.877-3.91-0.877-6.662V33.817c0-1.811,0.495-3.268,1.486-4.369
			s2.17-1.835,3.535-2.2c1.364-0.366,2.541-0.264,3.533,0.307c0.991,0.57,1.486,1.762,1.486,3.572v14.629
			c0,0.906,0.123,1.622,0.367,2.149c0.242,0.527,0.551,0.932,0.926,1.215c0.373,0.283,0.787,0.441,1.242,0.477
			s0.895-0.004,1.316-0.117c0.391-0.105,0.813-0.296,1.268-0.575c0.455-0.278,0.869-0.643,1.243-1.091s0.69-0.995,0.95-1.64
			c0.26-0.644,0.406-1.389,0.439-2.233V28.997c0-1.775,0.479-3.21,1.438-4.303s2.121-1.822,3.486-2.188
			c1.364-0.366,2.534-0.262,3.51,0.313c0.976,0.575,1.462,1.75,1.462,3.526v27.482l-7.751,2.077l-0.536-3.253
			c-0.91,1.568-2.081,2.927-3.51,4.076C147.962,57.877,146.37,58.687,144.615,59.158z"/>
		<path fill="#FFFFFF" d="M166.259,13.126c0-1.706,0.503-3.068,1.512-4.088c1.006-1.019,2.193-1.711,3.558-2.077
			c1.364-0.365,2.551-0.309,3.56,0.17c1.006,0.48,1.511,1.572,1.511,3.278c0,0.871-0.139,1.649-0.414,2.332
			c-0.277,0.685-0.643,1.278-1.097,1.783c-0.456,0.506-0.993,0.928-1.609,1.267c-0.618,0.341-1.268,0.601-1.95,0.783
			c-0.683,0.184-1.333,0.271-1.95,0.262c-0.617-0.008-1.153-0.143-1.607-0.404c-0.456-0.261-0.822-0.659-1.098-1.195
			C166.396,14.702,166.259,13.998,166.259,13.126z M166.308,25.392c0-1.811,0.494-3.268,1.486-4.369
			c0.991-1.102,2.17-1.835,3.534-2.201c1.364-0.365,2.543-0.263,3.534,0.308c0.99,0.57,1.486,1.762,1.486,3.572v27.064l-10.041,2.69
			V25.392z"/>
		<path fill="#FFFFFF" d="M184.636,23.929c-0.715,0.191-1.315,0.223-1.803,0.092c-0.488-0.13-0.887-0.363-1.195-0.698
			c-0.309-0.336-0.536-0.736-0.683-1.202c-0.146-0.466-0.219-0.96-0.219-1.482s0.073-1.064,0.219-1.626
			c0.146-0.562,0.374-1.094,0.683-1.594c0.309-0.501,0.715-0.957,1.219-1.372c0.504-0.413,1.098-0.712,1.779-0.895l13.941-3.735
			c2.763-0.74,4.615-0.365,5.558,1.123c0.228,0.357,0.406,0.805,0.536,1.346c0.13,0.539,0.162,1.157,0.098,1.854
			s-0.252,1.479-0.561,2.345c-0.309,0.867-0.805,1.826-1.486,2.879l-10.188,15.688l9.312-2.495c0.714-0.191,1.315-0.222,1.803-0.092
			c0.487,0.132,0.885,0.364,1.195,0.699c0.308,0.335,0.535,0.736,0.682,1.202s0.22,0.959,0.22,1.481s-0.073,1.064-0.22,1.627
			c-0.146,0.562-0.374,1.093-0.682,1.594c-0.311,0.501-0.716,0.958-1.219,1.371c-0.506,0.414-1.098,0.712-1.779,0.895l-15.16,4.063
			c-1.365,0.365-2.512,0.472-3.438,0.32c-0.927-0.152-1.633-0.634-2.121-1.443c-0.195-0.33-0.373-0.744-0.535-1.241
			c-0.164-0.495-0.221-1.091-0.172-1.782c0.05-0.693,0.227-1.479,0.536-2.364c0.309-0.884,0.837-1.896,1.585-3.037l10.188-15.688
			L184.636,23.929z"/>
	</g>
	<path fill="none" stroke="#2C7EE9" stroke-width="8" stroke-linejoin="round" stroke-miterlimit="9.176" d="M26.717,71.951
		c0,1.044-0.204,2.04-0.61,2.984c-0.406,0.945-0.918,1.787-1.536,2.527s-1.309,1.361-2.072,1.861
		c-0.764,0.501-1.487,0.843-2.168,1.025c-0.683,0.184-1.407,0.229-2.169,0.138c-0.764-0.092-1.455-0.343-2.072-0.752
		c-0.618-0.409-1.13-0.977-1.536-1.704c-0.407-0.727-0.609-1.613-0.609-2.658V63.303c0-1.149,0.188-2.192,0.561-3.129
		c0.373-0.936,0.868-1.765,1.487-2.487c0.617-0.723,1.299-1.315,2.047-1.776c0.747-0.462,1.511-0.797,2.292-1.007
		c0.779-0.208,1.542-0.282,2.291-0.221c0.747,0.061,1.43,0.287,2.047,0.679s1.113,0.956,1.486,1.691
		c0.374,0.736,0.562,1.679,0.562,2.828V71.951z M4,77.723c0,2.996,0.512,5.375,1.536,7.139s2.331,3.051,3.924,3.859
		c1.592,0.811,3.355,1.227,5.29,1.248c1.933,0.022,3.794-0.206,5.582-0.686c1.787-0.479,3.647-1.247,5.581-2.306
		c1.933-1.058,3.696-2.419,5.29-4.082c1.592-1.662,2.9-3.65,3.923-5.962c1.024-2.313,1.536-4.966,1.536-7.962V57.53
		c0-2.996-0.512-5.375-1.536-7.139c-1.023-1.763-2.332-3.049-3.923-3.859c-1.593-0.81-3.357-1.226-5.29-1.248
		c-1.934-0.021-3.794,0.207-5.581,0.687c-1.821,0.487-3.698,1.261-5.63,2.317c-1.935,1.06-3.698,2.42-5.29,4.083
		c-1.593,1.663-2.893,3.648-3.9,5.956S4,63.286,4,66.282V77.723z"/>
	<path fill="none" stroke="#2C7EE9" stroke-width="8" stroke-linejoin="round" stroke-miterlimit="9.176" d="M84.336,71.14
		L71.37,54.291l8.969-16.667c0.454-0.854,0.723-1.674,0.804-2.462c0.081-0.787,0.017-1.502-0.194-2.143
		c-0.213-0.64-0.562-1.156-1.049-1.547c-0.487-0.393-1.056-0.605-1.706-0.641c-1.333-0.061-2.559,0.293-3.68,1.063
		c-1.122,0.771-2.138,2.028-3.047,3.77l-5.704,11.298l-6.24-8.15c-0.91-1.219-1.975-1.908-3.192-2.07
		c-1.219-0.161-2.495,0.181-3.827,1.025c-0.651,0.419-1.219,0.962-1.707,1.634c-0.487,0.67-0.845,1.375-1.072,2.115
		c-0.228,0.74-0.309,1.485-0.244,2.233c0.065,0.749,0.308,1.398,0.731,1.946l9.262,11.625L46.752,81.211l11.114-2.979l7.215-13.846
		l7.897,9.797L84.336,71.14z"/>
	<path fill="none" stroke="#2C7EE9" stroke-width="8" stroke-linejoin="round" stroke-miterlimit="9.176" d="M117.144,47.72
		c0,1.045-0.204,2.041-0.609,2.984c-0.407,0.946-0.919,1.788-1.536,2.528c-0.617,0.739-1.308,1.36-2.072,1.861
		c-0.764,0.501-1.486,0.843-2.169,1.025c-0.682,0.183-1.406,0.229-2.169,0.137c-0.764-0.091-1.454-0.342-2.071-0.751
		c-0.619-0.409-1.13-0.977-1.536-1.705c-0.407-0.726-0.61-1.612-0.61-2.657V39.074c0-1.149,0.188-2.192,0.562-3.129
		c0.373-0.936,0.868-1.765,1.487-2.487c0.617-0.723,1.299-1.315,2.047-1.776c0.747-0.462,1.512-0.798,2.291-1.007
		c0.78-0.209,1.543-0.282,2.292-0.222c0.747,0.062,1.429,0.288,2.047,0.68c0.617,0.392,1.112,0.956,1.486,1.69
		c0.374,0.736,0.562,1.68,0.562,2.828V47.72z M94.427,53.494c0,2.996,0.512,5.375,1.536,7.139s2.331,3.051,3.924,3.859
		c1.592,0.811,3.355,1.227,5.289,1.247c1.933,0.022,3.794-0.206,5.582-0.685c1.625-0.436,3.267-1.084,4.924-1.947l3.363,3.802
		c0.422,0.479,0.927,0.796,1.512,0.953c0.584,0.157,1.201,0.182,1.852,0.078c0.65-0.104,1.301-0.321,1.951-0.653
		c0.649-0.33,1.25-0.745,1.803-1.24c0.52-0.487,0.967-1.052,1.341-1.692c0.372-0.64,0.626-1.299,0.755-1.978
		c0.13-0.68,0.114-1.337-0.048-1.973c-0.163-0.636-0.487-1.202-0.975-1.698l-3.218-3.057c0.941-1.471,1.689-3.108,2.242-4.911
		c0.553-1.802,0.828-3.801,0.828-5.995V33.3c0-2.996-0.512-5.375-1.535-7.139s-2.332-3.049-3.924-3.86
		c-1.593-0.809-3.356-1.225-5.289-1.247c-1.934-0.021-3.795,0.207-5.582,0.686c-1.82,0.488-3.697,1.262-5.63,2.318
		c-1.935,1.059-3.697,2.42-5.289,4.082c-1.593,1.664-2.893,3.649-3.899,5.956c-1.009,2.308-1.512,4.96-1.512,7.956V53.494z"/>
	<path fill="none" stroke="#2C7EE9" stroke-width="8" stroke-linejoin="round" stroke-miterlimit="9.176" d="M147.317,54.003
		c1.43-1.149,2.6-2.508,3.511-4.075l0.536,3.252l7.75-2.077V23.622c0-1.776-0.487-2.952-1.462-3.527
		c-0.975-0.574-2.145-0.68-3.511-0.313c-1.364,0.366-2.526,1.096-3.484,2.188c-0.959,1.094-1.438,2.528-1.438,4.305v14.942
		c-0.032,0.846-0.179,1.59-0.438,2.233c-0.261,0.645-0.578,1.192-0.951,1.64c-0.373,0.448-0.787,0.813-1.242,1.091
		c-0.456,0.279-0.877,0.47-1.268,0.574c-0.424,0.113-0.861,0.153-1.316,0.118s-0.869-0.193-1.243-0.477s-0.683-0.688-0.927-1.215
		c-0.243-0.527-0.365-1.243-0.365-2.148v-14.63c0-1.811-0.495-3.002-1.486-3.573c-0.992-0.569-2.17-0.672-3.534-0.307
		c-1.364,0.366-2.544,1.1-3.534,2.201c-0.992,1.103-1.486,2.559-1.486,4.369v14.002c0,2.752,0.291,4.974,0.877,6.662
		c0.585,1.69,1.372,2.95,2.364,3.781c0.991,0.832,2.161,1.294,3.509,1.385c1.35,0.091,2.804-0.072,4.363-0.49
		C144.296,55.962,145.888,55.153,147.317,54.003z"/>
	<path fill="none" stroke="#2C7EE9" stroke-width="8" stroke-linejoin="round" stroke-miterlimit="9.176" d="M164.599,12.512
		c0.275,0.536,0.641,0.934,1.097,1.195c0.455,0.262,0.991,0.396,1.608,0.405s1.268-0.079,1.95-0.262s1.332-0.444,1.95-0.783
		c0.617-0.34,1.153-0.762,1.607-1.268c0.455-0.505,0.822-1.099,1.098-1.783c0.275-0.683,0.414-1.461,0.414-2.331
		c0-1.706-0.504-2.799-1.512-3.279c-1.007-0.479-2.193-0.535-3.558-0.169c-1.365,0.365-2.552,1.059-3.559,2.076
		c-1.007,1.02-1.511,2.383-1.511,4.089C164.185,11.273,164.321,11.978,164.599,12.512z M164.233,49.732l10.041-2.69V19.977
		c0-1.811-0.495-3.002-1.486-3.573c-0.992-0.569-2.17-0.672-3.534-0.307c-1.365,0.366-2.544,1.101-3.534,2.201
		c-0.991,1.102-1.486,2.559-1.486,4.369V49.732z"/>
	<path fill="none" stroke="#2C7EE9" stroke-width="8" stroke-linejoin="round" stroke-miterlimit="9.176" d="M190.653,19.037
		l-10.188,15.688c-0.748,1.141-1.275,2.153-1.584,3.037c-0.31,0.885-0.488,1.672-0.537,2.364c-0.048,0.691,0.008,1.286,0.172,1.782
		c0.162,0.498,0.34,0.911,0.535,1.241c0.487,0.81,1.194,1.291,2.121,1.443c0.926,0.151,2.071,0.046,3.436-0.32l15.161-4.062
		c0.683-0.184,1.274-0.481,1.778-0.896c0.505-0.412,0.91-0.87,1.22-1.371s0.536-1.032,0.683-1.593
		c0.146-0.563,0.22-1.104,0.22-1.628c0-0.521-0.073-1.016-0.22-1.481s-0.373-0.866-0.683-1.202c-0.31-0.334-0.707-0.567-1.194-0.699
		c-0.487-0.13-1.09-0.099-1.804,0.093l-9.311,2.494l10.188-15.688c0.682-1.053,1.178-2.013,1.486-2.88
		c0.309-0.866,0.496-1.648,0.561-2.345s0.033-1.315-0.097-1.855c-0.13-0.539-0.31-0.987-0.537-1.345
		c-0.942-1.488-2.796-1.863-5.558-1.124l-13.941,3.736c-0.682,0.183-1.275,0.481-1.779,0.895c-0.504,0.415-0.91,0.871-1.219,1.372
		c-0.309,0.5-0.535,1.032-0.682,1.593c-0.146,0.563-0.22,1.104-0.22,1.627s0.073,1.018,0.22,1.482
		c0.146,0.466,0.373,0.867,0.682,1.201c0.309,0.336,0.707,0.568,1.194,0.699s1.089,0.101,1.804-0.091L190.653,19.037z"/>
	<g>
		<path fill="#FFFFFF" d="M3.999,66.282c0-2.995,0.503-5.647,1.511-7.955c1.007-2.308,2.307-4.293,3.9-5.955
			c1.592-1.663,3.355-3.024,5.289-4.083c1.933-1.058,3.81-1.83,5.63-2.318c1.787-0.479,3.647-0.708,5.582-0.686
			c1.933,0.022,3.696,0.438,5.289,1.248c1.592,0.81,2.9,2.096,3.924,3.859c1.024,1.763,1.536,4.144,1.536,7.139v11.442
			c0,2.996-0.512,5.648-1.536,7.961c-1.023,2.312-2.332,4.3-3.924,5.963c-1.593,1.663-3.356,3.023-5.289,4.081
			c-1.934,1.058-3.795,1.827-5.582,2.306c-1.788,0.479-3.649,0.707-5.582,0.686c-1.934-0.021-3.697-0.438-5.289-1.247
			c-1.593-0.81-2.9-2.097-3.924-3.859c-1.024-1.764-1.536-4.143-1.536-7.139V66.282z M26.715,59.881
			c0-1.149-0.188-2.092-0.561-2.828c-0.374-0.736-0.87-1.299-1.487-1.691c-0.617-0.391-1.3-0.618-2.047-0.679
			c-0.748-0.062-1.511,0.013-2.291,0.222c-0.78,0.209-1.544,0.544-2.292,1.006c-0.748,0.461-1.43,1.055-2.047,1.776
			c-0.618,0.723-1.113,1.552-1.487,2.488c-0.374,0.936-0.561,1.979-0.561,3.128v12.07c0,1.045,0.203,1.931,0.609,2.657
			c0.406,0.728,0.918,1.296,1.536,1.704c0.617,0.41,1.308,0.66,2.072,0.752c0.763,0.091,1.487,0.045,2.169-0.138
			s1.405-0.524,2.169-1.025c0.763-0.5,1.454-1.121,2.072-1.861c0.617-0.739,1.128-1.582,1.535-2.526
			c0.406-0.945,0.609-1.94,0.609-2.985V59.881z"/>
		<path fill="#FFFFFF" d="M73.025,74.171l-7.897-9.796L57.914,78.22l-11.114,2.978l12.723-23.89L50.26,45.683
			c-0.423-0.548-0.667-1.197-0.731-1.946c-0.065-0.748,0.016-1.493,0.244-2.233c0.227-0.739,0.585-1.445,1.072-2.116
			c0.488-0.67,1.056-1.214,1.707-1.633c1.332-0.844,2.608-1.186,3.827-1.025c1.219,0.162,2.283,0.852,3.193,2.07l6.24,8.15
			l5.704-11.299c0.909-1.74,1.925-2.997,3.047-3.768c1.121-0.771,2.347-1.126,3.68-1.064c0.65,0.034,1.219,0.248,1.706,0.641
			c0.488,0.392,0.836,0.907,1.048,1.547c0.211,0.641,0.275,1.354,0.195,2.142c-0.082,0.789-0.35,1.609-0.804,2.463l-8.97,16.667
			l12.967,16.85L73.025,74.171z"/>
		<path fill="#FFFFFF" d="M94.523,42.026c0-2.995,0.503-5.647,1.511-7.955c1.007-2.308,2.307-4.293,3.9-5.955
			c1.592-1.663,3.355-3.024,5.289-4.083c1.933-1.058,3.809-1.83,5.63-2.317c1.786-0.479,3.647-0.709,5.581-0.687
			s3.697,0.438,5.289,1.248c1.593,0.81,2.9,2.096,3.924,3.859c1.024,1.763,1.536,4.144,1.536,7.139v11.442
			c0,2.194-0.276,4.193-0.829,5.994c-0.553,1.804-1.3,3.44-2.242,4.911l3.218,3.058c0.487,0.496,0.812,1.063,0.975,1.697
			c0.162,0.637,0.179,1.293,0.05,1.973c-0.131,0.679-0.383,1.338-0.756,1.979c-0.375,0.641-0.821,1.204-1.342,1.692
			c-0.553,0.495-1.153,0.909-1.803,1.24c-0.65,0.331-1.301,0.548-1.95,0.653c-0.65,0.104-1.267,0.078-1.853-0.078
			c-0.585-0.156-1.089-0.475-1.512-0.953l-3.363-3.801c-1.656,0.861-3.299,1.511-4.923,1.945c-1.788,0.479-3.648,0.707-5.582,0.686
			s-3.697-0.438-5.289-1.247c-1.593-0.81-2.9-2.097-3.924-3.859c-1.024-1.764-1.536-4.143-1.536-7.139V42.026z M117.239,35.625
			c0-1.149-0.188-2.092-0.561-2.828c-0.374-0.735-0.869-1.299-1.486-1.691c-0.618-0.391-1.301-0.618-2.049-0.679
			c-0.747-0.062-1.51,0.013-2.29,0.222s-1.544,0.544-2.292,1.006c-0.747,0.461-1.43,1.055-2.047,1.776
			c-0.617,0.723-1.113,1.552-1.487,2.488c-0.374,0.936-0.561,1.979-0.561,3.128v12.07c0,1.045,0.203,1.931,0.609,2.658
			c0.406,0.727,0.918,1.295,1.536,1.703c0.617,0.41,1.308,0.66,2.072,0.752c0.763,0.091,1.486,0.046,2.169-0.137
			c0.683-0.184,1.405-0.525,2.169-1.026c0.764-0.5,1.454-1.121,2.072-1.861c0.617-0.739,1.129-1.582,1.535-2.526
			c0.406-0.945,0.609-1.94,0.609-2.985V35.625z"/>
		<path fill="#FFFFFF" d="M142.637,56.408c-1.56,0.418-3.015,0.58-4.362,0.489c-1.35-0.092-2.52-0.553-3.51-1.385
			c-0.992-0.831-1.78-2.092-2.365-3.781c-0.584-1.689-0.877-3.91-0.877-6.662V31.067c0-1.811,0.495-3.268,1.486-4.369
			s2.17-1.835,3.535-2.201c1.364-0.365,2.541-0.263,3.533,0.308c0.991,0.57,1.486,1.762,1.486,3.572v14.629
			c0,0.906,0.123,1.622,0.367,2.149c0.242,0.527,0.551,0.932,0.926,1.215c0.373,0.283,0.787,0.441,1.242,0.477
			s0.895-0.005,1.316-0.118c0.391-0.104,0.813-0.296,1.268-0.575c0.455-0.277,0.869-0.642,1.243-1.09s0.69-0.995,0.95-1.64
			s0.406-1.389,0.439-2.233V26.247c0-1.776,0.479-3.21,1.438-4.303s2.121-1.822,3.486-2.188c1.364-0.366,2.534-0.262,3.51,0.313
			c0.975,0.575,1.461,1.75,1.461,3.526v27.482l-7.75,2.077l-0.536-3.253c-0.91,1.568-2.081,2.927-3.51,4.076
			C145.983,55.127,144.392,55.937,142.637,56.408z"/>
		<path fill="#FFFFFF" d="M164.28,10.376c0-1.706,0.504-3.068,1.512-4.089c1.006-1.018,2.193-1.711,3.559-2.076
			c1.364-0.365,2.551-0.309,3.559,0.17c1.006,0.48,1.512,1.572,1.512,3.278c0,0.871-0.139,1.649-0.415,2.331
			c-0.277,0.686-0.642,1.279-1.097,1.783c-0.455,0.506-0.992,0.929-1.609,1.268c-0.617,0.341-1.268,0.601-1.949,0.783
			c-0.683,0.183-1.334,0.271-1.95,0.262c-0.618-0.008-1.153-0.143-1.608-0.405c-0.455-0.261-0.822-0.658-1.098-1.194
			C164.419,11.952,164.28,11.248,164.28,10.376z M164.329,22.642c0-1.811,0.495-3.268,1.487-4.369
			c0.991-1.102,2.169-1.835,3.534-2.201c1.364-0.366,2.543-0.264,3.533,0.307c0.991,0.571,1.487,1.763,1.487,3.573v27.064
			l-10.042,2.69V22.642z"/>
		<path fill="#FFFFFF" d="M182.657,21.179c-0.715,0.191-1.315,0.223-1.803,0.091c-0.488-0.13-0.886-0.363-1.194-0.698
			c-0.31-0.335-0.536-0.735-0.683-1.202c-0.146-0.465-0.219-0.959-0.219-1.481s0.072-1.064,0.219-1.626
			c0.146-0.563,0.373-1.094,0.683-1.595c0.309-0.501,0.714-0.957,1.219-1.371c0.504-0.413,1.097-0.712,1.778-0.895L196.6,8.666
			c2.763-0.739,4.614-0.365,5.558,1.124c0.227,0.356,0.406,0.805,0.536,1.345s0.162,1.158,0.097,1.855
			c-0.064,0.696-0.252,1.479-0.561,2.345s-0.804,1.826-1.486,2.879l-10.188,15.688l9.311-2.495c0.715-0.191,1.316-0.222,1.804-0.092
			c0.487,0.132,0.885,0.363,1.194,0.699c0.309,0.335,0.535,0.736,0.682,1.201c0.146,0.467,0.22,0.96,0.22,1.482
			s-0.073,1.064-0.22,1.627c-0.146,0.561-0.373,1.093-0.682,1.594c-0.31,0.5-0.715,0.958-1.219,1.371
			c-0.505,0.414-1.098,0.712-1.779,0.895l-15.16,4.063c-1.365,0.365-2.512,0.472-3.438,0.32c-0.926-0.152-1.633-0.634-2.121-1.443
			c-0.195-0.331-0.373-0.744-0.535-1.241c-0.164-0.495-0.22-1.091-0.171-1.782c0.049-0.693,0.227-1.48,0.536-2.365
			c0.309-0.883,0.836-1.896,1.584-3.036l10.189-15.688L182.657,21.179z"/>
	</g>
</g>
</svg>
