<?xml version="1.0" encoding="utf-8"?>
<!-- Generator: Adobe Illustrator 16.0.0, SVG Export Plug-In . SVG Version: 6.00 Build 0)  -->
<!DOCTYPE svg PUBLIC "-//W3C//DTD SVG 1.1//EN" "http://www.w3.org/Graphics/SVG/1.1/DTD/svg11.dtd">
<svg version="1.1" id="레이어_1" xmlns="http://www.w3.org/2000/svg" xmlns:xlink="http://www.w3.org/1999/xlink" x="0px"
	 y="0px" width="463.057px" height="327.182px" viewBox="0 0 463.057 327.182" enable-background="new 0 0 463.057 327.182"
	 xml:space="preserve">
<rect y="42.632" fill="#FFFFFF" width="463.055" height="284.55"/>
<g>
	<defs>
		<rect id="SVGID_1_" width="463.057" height="327.182"/>
	</defs>
	<clipPath id="SVGID_2_">
		<use xlink:href="#SVGID_1_"  overflow="visible"/>
	</clipPath>
	<path clip-path="url(#SVGID_2_)" fill="#9FA0A0" d="M5.86,23.804c0,0-5.858,0-5.858,6.514v27.274h463.053V30.317
		c0,0,0-6.514-5.86-6.514H5.86z"/>
</g>
<rect x="24.276" y="225.879" fill="#89C4CF" width="24.778" height="77.008"/>
<rect x="62.909" y="255.215" fill="#89C4CF" width="24.779" height="47.672"/>
<rect x="101.542" y="233.213" fill="#89C4CF" width="24.778" height="69.674"/>
<rect x="140.175" y="211.211" fill="#89C4CF" width="24.778" height="91.676"/>
<rect x="178.808" y="207.545" fill="#89C4CF" width="24.778" height="95.342"/>
<rect x="217.441" y="200.211" fill="#89C4CF" width="24.778" height="102.676"/>
<rect x="294.706" y="156.206" fill="#89C4CF" width="24.778" height="146.681"/>
<rect x="333.339" y="112.201" fill="#89C4CF" width="24.778" height="190.686"/>
<rect x="371.972" y="108.534" fill="#89C4CF" width="24.778" height="194.353"/>
<rect x="410.605" y="108.534" fill="#89C4CF" width="24.777" height="194.353"/>
<rect x="256.073" y="174.542" fill="#89C4CF" width="24.778" height="128.346"/>
<g>
	<defs>
		<rect id="SVGID_3_" width="463.057" height="327.182"/>
	</defs>
	<clipPath id="SVGID_4_">
		<use xlink:href="#SVGID_3_"  overflow="visible"/>
	</clipPath>
	<path clip-path="url(#SVGID_4_)" fill="#89C4CF" d="M402.673,79.955c2.46,0,4.456-2,4.456-4.468c0-2.467-1.996-4.465-4.456-4.465
		c-2.462,0-4.458,1.998-4.458,4.465C398.215,77.955,400.211,79.955,402.673,79.955"/>
	<path clip-path="url(#SVGID_4_)" fill="#89C4CF" d="M424.601,83.912l-0.411-0.514l-7.16,5.151
		c-0.326-0.219-0.716-0.345-1.137-0.345h-4.062V84.67l-0.038-0.404c-0.173-2.19-1.993-3.909-4.218-3.909h-9.781
		c-2.339,0-4.234,1.899-4.234,4.243l0.004,0.118V94.1c0,1.115,0.901,2.017,2.016,2.017c1.111,0,2.013-0.901,2.013-2.017v-8.31h0.495
		v11.201l0.002,0.023v12.139c0,0.981,0.96,1.771,2.145,1.771c1.188,0,2.145-0.79,2.145-1.771V98.521l0.342,0.007l0.336-0.007v10.633
		c0,0.981,0.958,1.771,2.144,1.771s2.142-0.79,2.142-1.771V97.071l0.016-0.08v-4.683v-4.087V85.79h0.448v2.415v4.123h4.026h4.062
		c1.137,0,2.056-0.926,2.056-2.063c0-0.3-0.063-0.582-0.18-0.838L424.601,83.912z M402.895,90.859l-0.05,0.048l-0.048-0.048
		l-1.367-1.37l1.095-7.881l-0.004-0.138h0.021h0.605h0.023l-0.004,0.138l1.095,7.881L402.895,90.859z"/>
</g>
<polygon fill="#89C4CF" points="420.18,77.306 420.18,84.737 421.277,83.835 421.277,78.183 434.284,72.683 434.284,98.584 
	421.277,93.938 421.277,88.083 420.18,89.094 420.18,94.863 422.883,95.827 422.883,108.2 424.141,108.2 424.141,96.277 
	430.43,98.524 430.43,111.057 431.689,111.057 431.689,98.973 435.382,100.291 435.382,70.878 "/>
<g>
	<defs>
		<rect id="SVGID_5_" width="463.057" height="327.182"/>
	</defs>
	<clipPath id="SVGID_6_">
		<use xlink:href="#SVGID_5_"  overflow="visible"/>
	</clipPath>
	
		<line clip-path="url(#SVGID_6_)" fill="none" stroke="#9FA0A0" stroke-width="0.993" x1="0" y1="302.895" x2="463.057" y2="302.895"/>
	<path clip-path="url(#SVGID_6_)" d="M41.76,250.752v-12.816h-1.908l-1.926,1.547v2.16l1.926-1.475v10.584H41.76z M35.928,250.752
		v-1.711h-3.6l2.898-5.543c0.414-0.793,0.702-1.873,0.702-2.809c0-1.025-0.342-1.746-0.846-2.215
		c-0.522-0.484-1.206-0.684-1.98-0.684s-1.566,0.27-2.07,0.756s-0.792,1.098-0.792,2.125v0.756h1.908V240.6
		c0-0.738,0.432-1.098,0.954-1.098s0.918,0.377,0.918,1.115c0,0.936-0.234,1.746-0.522,2.287l-3.204,6.227v1.621H35.928z"/>
	<path clip-path="url(#SVGID_6_)" d="M81.796,276.389c0-1.098-0.054-1.746-0.396-2.357c-0.162-0.307-0.432-0.559-0.738-0.773
		c0.306-0.199,0.54-0.451,0.702-0.758c0.288-0.557,0.324-1.17,0.324-2.033c0-1.26-0.252-2.088-0.828-2.664
		c-0.45-0.449-1.116-0.721-1.962-0.721c-0.792,0-1.476,0.252-1.98,0.738s-0.792,1.135-0.792,2.125v0.773h1.908v-0.9
		c0-0.684,0.378-1.025,0.864-1.025c0.288,0,0.486,0.107,0.63,0.287c0.234,0.307,0.252,0.865,0.252,1.514
		c0,0.666,0,1.295-0.288,1.619c-0.144,0.162-0.342,0.252-0.612,0.252h-0.63v1.602h0.63c0.324,0,0.558,0.109,0.72,0.324
		c0.27,0.359,0.288,1.008,0.288,1.873c0,0.791-0.036,1.547-0.306,1.889c-0.144,0.18-0.378,0.324-0.684,0.324
		c-0.522,0-0.954-0.359-0.954-1.098v-0.828h-1.908v0.756c0,1.025,0.288,1.639,0.792,2.125c0.504,0.484,1.278,0.756,2.07,0.756
		s1.548-0.252,2.052-0.738C81.761,278.657,81.796,277.758,81.796,276.389 M73.174,280.043v-12.816h-1.908l-1.926,1.549v2.16
		l1.926-1.477v10.584H73.174z"/>
	<path clip-path="url(#SVGID_6_)" d="M118.521,248.963c0,0.773,0.018,1.656-0.288,2.053c-0.162,0.215-0.414,0.324-0.684,0.324
		s-0.54-0.109-0.702-0.324c-0.306-0.396-0.288-1.279-0.288-2.053s-0.018-1.619,0.288-2.016c0.162-0.217,0.414-0.324,0.702-0.324
		c0.27,0,0.522,0.107,0.684,0.324C118.539,247.362,118.521,248.19,118.521,248.963 M120.429,248.946c0-1.549-0.126-2.287-0.63-3.006
		c-0.45-0.648-1.224-1.027-2.25-1.027c-0.936,0-1.764,0.307-2.268,1.027c-0.414,0.594-0.63,1.295-0.63,3.006
		c0,1.891,0.18,2.574,0.648,3.168c0.414,0.539,1.026,0.791,1.71,0.791c0.27,0,0.558-0.053,0.774-0.215l-2.106,5.184h1.98l2.25-5.904
		C120.213,251.141,120.429,250.098,120.429,248.946 M111.807,257.874v-12.816h-1.908l-1.926,1.549v2.16l1.926-1.477v10.584H111.807z
		"/>
	<path clip-path="url(#SVGID_6_)" d="M159.08,231.551c0-1.566-0.072-2.754-0.612-3.42c-0.414-0.521-0.936-0.773-1.728-0.773
		c-0.324,0-0.648,0.09-0.918,0.232c-0.252,0.145-0.486,0.379-0.666,0.613v-3.438h3.78v-1.711h-5.526v7.381h1.818v-0.271
		c0-0.701,0.414-1.098,0.954-1.098c0.306,0,0.576,0.127,0.738,0.396c0.252,0.396,0.252,1.205,0.252,2.268s0,2.053-0.288,2.43
		c-0.18,0.252-0.396,0.342-0.702,0.342c-0.54,0-0.954-0.342-0.954-1.115v-0.883h-1.908v0.631c0,1.025,0.306,1.656,0.81,2.143
		c0.504,0.484,1.26,0.738,2.052,0.738s1.53-0.289,2.034-0.793C159.062,234.377,159.08,233.243,159.08,231.551 M151.826,235.872
		v-1.711h-3.6l2.898-5.543c0.414-0.793,0.702-1.873,0.702-2.809c0-1.025-0.342-1.746-0.846-2.215
		c-0.522-0.484-1.206-0.684-1.98-0.684s-1.566,0.27-2.07,0.756s-0.792,1.1-0.792,2.125v0.756h1.908v-0.828
		c0-0.738,0.432-1.098,0.954-1.098s0.918,0.377,0.918,1.115c0,0.936-0.234,1.746-0.522,2.287l-3.204,6.227v1.621H151.826z"/>
	<path clip-path="url(#SVGID_6_)" d="M195.787,228.288c0,0.773,0.018,1.621-0.288,2.016c-0.162,0.217-0.396,0.324-0.684,0.324
		c-0.27,0-0.54-0.107-0.702-0.324c-0.306-0.414-0.288-1.242-0.288-2.016s-0.018-1.656,0.288-2.051
		c0.162-0.217,0.432-0.324,0.702-0.324s0.522,0.107,0.684,0.324C195.805,226.631,195.787,227.514,195.787,228.288 M197.695,228.305
		c0-1.889-0.18-2.572-0.648-3.168c-0.414-0.539-1.008-0.791-1.692-0.791c-0.27,0-0.576,0.055-0.792,0.215l2.106-5.184h-1.98
		l-2.25,5.904c-0.306,0.828-0.522,1.873-0.522,3.023c0,1.549,0.144,2.287,0.648,3.006c0.45,0.648,1.206,1.027,2.232,1.027
		c0.936,0,1.782-0.307,2.286-1.027C197.497,230.717,197.695,230.016,197.695,228.305 M190.459,232.194v-1.709h-3.6l2.898-5.545
		c0.414-0.793,0.702-1.871,0.702-2.809c0-1.025-0.342-1.746-0.846-2.213c-0.522-0.486-1.206-0.684-1.98-0.684
		s-1.566,0.27-2.07,0.756c-0.504,0.484-0.792,1.098-0.792,2.123v0.756h1.908v-0.828c0-0.738,0.432-1.098,0.954-1.098
		s0.918,0.379,0.918,1.115c0,0.938-0.234,1.746-0.522,2.287l-3.204,6.229v1.619H190.459z"/>
	<path clip-path="url(#SVGID_6_)" d="M234.33,215.473c0,0.631,0.035,1.352-0.307,1.676c-0.144,0.143-0.342,0.215-0.576,0.215
		c-0.233,0-0.432-0.072-0.576-0.215c-0.342-0.324-0.324-1.045-0.324-1.676c0-0.611,0-1.277,0.27-1.602
		c0.144-0.18,0.377-0.252,0.629-0.252s0.469,0.072,0.612,0.252C234.33,214.196,234.33,214.862,234.33,215.473 M234.42,221.163
		c0,0.738,0,1.475-0.288,1.836c-0.162,0.197-0.414,0.305-0.685,0.305c-0.27,0-0.54-0.107-0.702-0.305
		c-0.288-0.379-0.288-1.098-0.288-1.836c0-0.811-0.018-1.512,0.288-1.891c0.162-0.197,0.432-0.307,0.702-0.307
		c0.271,0,0.522,0.109,0.685,0.307C234.438,219.651,234.42,220.352,234.42,221.163 M236.328,221.252c0-1.08-0.072-1.711-0.379-2.268
		c-0.18-0.324-0.432-0.576-0.756-0.811c0.307-0.217,0.541-0.486,0.703-0.793c0.287-0.557,0.342-1.115,0.342-1.998
		c0-1.242-0.181-2.088-0.828-2.734c-0.504-0.504-1.207-0.738-1.98-0.738c-0.774,0-1.458,0.234-1.962,0.738
		c-0.648,0.646-0.828,1.492-0.828,2.734c0,0.883,0.054,1.441,0.342,1.998c0.162,0.307,0.396,0.576,0.702,0.793
		c-0.324,0.234-0.594,0.486-0.756,0.811c-0.306,0.557-0.378,1.188-0.378,2.268c0,1.404,0.09,2.25,0.846,3.006
		c0.504,0.504,1.278,0.756,2.051,0.756c0.774,0,1.53-0.252,2.035-0.756C236.238,223.502,236.328,222.657,236.328,221.252
		 M229.092,224.87v-1.709h-3.6l2.898-5.545c0.414-0.791,0.702-1.871,0.702-2.809c0-1.025-0.342-1.744-0.846-2.213
		c-0.522-0.486-1.206-0.684-1.98-0.684c-0.774,0-1.566,0.27-2.07,0.756s-0.792,1.098-0.792,2.123v0.756h1.908v-0.828
		c0-0.736,0.432-1.098,0.954-1.098s0.918,0.379,0.918,1.117c0,0.936-0.234,1.746-0.522,2.285l-3.204,6.229v1.619H229.092z"/>
	<path clip-path="url(#SVGID_6_)" d="M274.979,194.881c0-1.566-0.072-2.754-0.611-3.42c-0.414-0.523-0.937-0.775-1.729-0.775
		c-0.324,0-0.648,0.09-0.918,0.234c-0.252,0.145-0.486,0.379-0.666,0.613v-3.439h3.779v-1.709h-5.525v7.379h1.818v-0.27
		c0-0.701,0.414-1.098,0.953-1.098c0.307,0,0.576,0.125,0.738,0.396c0.252,0.395,0.252,1.205,0.252,2.268s0,2.051-0.287,2.43
		c-0.181,0.252-0.396,0.342-0.703,0.342c-0.539,0-0.953-0.342-0.953-1.115v-0.883h-1.908v0.631c0,1.025,0.306,1.656,0.811,2.141
		c0.504,0.486,1.26,0.738,2.051,0.738c0.793,0,1.53-0.287,2.035-0.791C274.961,197.708,274.979,196.573,274.979,194.881
		 M267.742,195.547c0-1.098-0.054-1.746-0.396-2.359c-0.162-0.305-0.433-0.557-0.738-0.773c0.306-0.197,0.54-0.449,0.702-0.756
		c0.288-0.559,0.324-1.17,0.324-2.033c0-1.26-0.252-2.088-0.828-2.664c-0.45-0.451-1.116-0.721-1.962-0.721
		c-0.792,0-1.476,0.252-1.979,0.738c-0.505,0.486-0.793,1.133-0.793,2.123v0.775h1.908v-0.9c0-0.684,0.378-1.025,0.864-1.025
		c0.288,0,0.485,0.107,0.63,0.287c0.234,0.307,0.252,0.863,0.252,1.512c0,0.666,0,1.297-0.288,1.621
		c-0.144,0.162-0.342,0.252-0.612,0.252h-0.629v1.602h0.629c0.324,0,0.559,0.107,0.721,0.324c0.27,0.359,0.287,1.008,0.287,1.871
		c0,0.793-0.035,1.549-0.305,1.891c-0.145,0.18-0.379,0.324-0.685,0.324c-0.522,0-0.954-0.361-0.954-1.098v-0.828h-1.908v0.756
		c0,1.025,0.288,1.637,0.792,2.123c0.505,0.486,1.278,0.756,2.07,0.756s1.548-0.252,2.052-0.738
		C267.707,197.815,267.742,196.915,267.742,195.547"/>
	<path clip-path="url(#SVGID_6_)" d="M311.649,178.202c0,0.738-0.414,1.098-0.937,1.098c-0.521,0-0.953-0.359-0.953-1.098v-7.488
		c0-0.738,0.432-1.098,0.953-1.098c0.522,0,0.937,0.359,0.937,1.098V178.202z M313.558,178.129v-7.344
		c0-1.025-0.307-1.639-0.811-2.125c-0.504-0.484-1.241-0.756-2.034-0.756c-0.791,0-1.548,0.271-2.052,0.756
		c-0.504,0.486-0.81,1.1-0.81,2.125v7.344c0,1.025,0.306,1.639,0.81,2.125c0.504,0.484,1.261,0.756,2.052,0.756
		c0.793,0,1.53-0.271,2.034-0.756C313.251,179.768,313.558,179.155,313.558,178.129 M306.663,178.868v-1.711h-0.882v-2.285h-1.908
		v2.285h-1.602l3.186-9.107h-1.854l-3.294,9.107v1.711h3.563v1.998h1.908v-1.998H306.663z"/>
	<path clip-path="url(#SVGID_6_)" d="M352.208,136.861v-1.71h-3.6l2.897-5.544c0.414-0.793,0.702-1.872,0.702-2.809
		c0-1.025-0.342-1.746-0.846-2.214c-0.522-0.486-1.206-0.684-1.98-0.684c-0.773,0-1.565,0.27-2.069,0.756
		c-0.504,0.485-0.792,1.098-0.792,2.124v0.756h1.907v-0.828c0-0.738,0.433-1.098,0.954-1.098c0.522,0,0.918,0.378,0.918,1.115
		c0,0.937-0.233,1.746-0.521,2.286l-3.204,6.229v1.62H352.208z M345.026,132.541c0-1.566-0.072-2.754-0.612-3.42
		c-0.414-0.522-0.936-0.774-1.728-0.774c-0.324,0-0.648,0.09-0.918,0.234c-0.252,0.144-0.486,0.378-0.666,0.612v-3.438h3.779v-1.71
		h-5.525v7.38h1.817v-0.27c0-0.702,0.414-1.099,0.954-1.099c0.307,0,0.576,0.126,0.738,0.396c0.252,0.396,0.252,1.206,0.252,2.268
		c0,1.063,0,2.053-0.288,2.431c-0.18,0.252-0.396,0.342-0.702,0.342c-0.54,0-0.954-0.342-0.954-1.116v-0.882h-1.907v0.63
		c0,1.026,0.306,1.656,0.81,2.142c0.504,0.486,1.26,0.738,2.052,0.738s1.53-0.288,2.034-0.792
		C345.008,135.367,345.026,134.233,345.026,132.541"/>
	<path clip-path="url(#SVGID_6_)" d="M390.859,129.54c0-1.098-0.055-1.746-0.396-2.358c-0.162-0.306-0.432-0.558-0.738-0.773
		c0.307-0.198,0.54-0.45,0.702-0.756c0.288-0.559,0.324-1.17,0.324-2.034c0-1.26-0.252-2.088-0.828-2.664
		c-0.45-0.45-1.116-0.72-1.962-0.72c-0.792,0-1.476,0.252-1.979,0.737c-0.505,0.486-0.792,1.134-0.792,2.124v0.774h1.907v-0.9
		c0-0.684,0.378-1.025,0.864-1.025c0.288,0,0.486,0.107,0.63,0.288c0.234,0.306,0.252,0.863,0.252,1.512c0,0.666,0,1.296-0.288,1.62
		c-0.144,0.162-0.342,0.252-0.611,0.252h-0.631v1.602h0.631c0.323,0,0.558,0.108,0.72,0.324c0.27,0.36,0.288,1.008,0.288,1.872
		c0,0.792-0.036,1.548-0.307,1.89c-0.144,0.181-0.378,0.324-0.684,0.324c-0.521,0-0.954-0.36-0.954-1.098v-0.828h-1.908v0.756
		c0,1.026,0.288,1.638,0.792,2.124s1.278,0.756,2.07,0.756s1.548-0.252,2.052-0.738C390.823,131.808,390.859,130.908,390.859,129.54
		 M383.659,128.874c0-1.566-0.072-2.754-0.612-3.42c-0.414-0.522-0.936-0.774-1.728-0.774c-0.324,0-0.648,0.09-0.918,0.234
		c-0.252,0.144-0.486,0.378-0.666,0.612v-3.438h3.779v-1.71h-5.525v7.38h1.817v-0.27c0-0.702,0.414-1.099,0.954-1.099
		c0.307,0,0.576,0.126,0.738,0.396c0.252,0.396,0.252,1.206,0.252,2.268c0,1.063,0,2.052-0.288,2.431
		c-0.18,0.252-0.396,0.342-0.702,0.342c-0.54,0-0.954-0.342-0.954-1.116v-0.882h-1.907v0.63c0,1.026,0.306,1.656,0.81,2.142
		c0.504,0.486,1.26,0.738,2.052,0.738s1.53-0.288,2.034-0.792C383.641,131.7,383.659,130.566,383.659,128.874"/>
	<path clip-path="url(#SVGID_6_)" d="M429.492,129.54c0-1.098-0.055-1.746-0.396-2.358c-0.162-0.306-0.432-0.558-0.738-0.773
		c0.307-0.198,0.54-0.45,0.702-0.756c0.288-0.559,0.324-1.17,0.324-2.034c0-1.26-0.252-2.088-0.828-2.664
		c-0.45-0.45-1.116-0.72-1.962-0.72c-0.792,0-1.476,0.252-1.979,0.737c-0.505,0.486-0.792,1.134-0.792,2.124v0.774h1.907v-0.9
		c0-0.684,0.378-1.025,0.864-1.025c0.288,0,0.486,0.107,0.63,0.288c0.234,0.306,0.252,0.863,0.252,1.512c0,0.666,0,1.296-0.288,1.62
		c-0.144,0.162-0.342,0.252-0.611,0.252h-0.631v1.602h0.631c0.323,0,0.558,0.108,0.72,0.324c0.27,0.36,0.288,1.008,0.288,1.872
		c0,0.792-0.036,1.548-0.307,1.89c-0.144,0.181-0.378,0.324-0.684,0.324c-0.521,0-0.954-0.36-0.954-1.098v-0.828h-1.908v0.756
		c0,1.026,0.288,1.638,0.792,2.124s1.278,0.756,2.07,0.756s1.548-0.252,2.052-0.738C429.456,131.808,429.492,130.908,429.492,129.54
		 M422.292,128.874c0-1.566-0.072-2.754-0.612-3.42c-0.414-0.522-0.936-0.774-1.728-0.774c-0.324,0-0.648,0.09-0.918,0.234
		c-0.252,0.144-0.486,0.378-0.666,0.612v-3.438h3.779v-1.71h-5.525v7.38h1.817v-0.27c0-0.702,0.414-1.099,0.954-1.099
		c0.307,0,0.576,0.126,0.738,0.396c0.252,0.396,0.252,1.206,0.252,2.268c0,1.063,0,2.052-0.288,2.431
		c-0.18,0.252-0.396,0.342-0.702,0.342c-0.54,0-0.954-0.342-0.954-1.116v-0.882h-1.907v0.63c0,1.026,0.306,1.656,0.81,2.142
		c0.504,0.486,1.26,0.738,2.052,0.738s1.53-0.288,2.034-0.792C422.273,131.7,422.292,130.566,422.292,128.874"/>
	<path clip-path="url(#SVGID_6_)" d="M84.082,317.805v-8.543h-0.863l-1.596,1.381v0.984l1.596-1.404v7.582H84.082z M78.778,317.805
		v-8.543h-0.863l-1.596,1.381v0.984l1.596-1.404v7.582H78.778z M74.123,315.479c0,0.936-0.528,1.631-1.476,1.631
		c-0.949,0-1.477-0.695-1.477-1.631v-3.889c0-0.938,0.528-1.633,1.477-1.633c0.948,0,1.476,0.695,1.476,1.633V315.479z
		 M74.986,315.526v-3.984c0-1.416-1.007-2.352-2.339-2.352c-1.333,0-2.34,0.936-2.34,2.352v3.984c0,1.416,1.007,2.352,2.34,2.352
		C73.979,317.877,74.986,316.942,74.986,315.526 M69.742,317.805v-0.766H66.07l2.989-3.816c0.467-0.6,0.683-1.045,0.683-1.729
		c0-1.404-0.947-2.305-2.351-2.305c-1.429,0-2.351,0.973-2.351,2.316h0.862c0-1.105,0.696-1.549,1.489-1.549
		c0.936,0,1.488,0.611,1.488,1.537c0,0.467-0.156,0.84-0.48,1.26l-3.371,4.285v0.766H69.742z"/>
	<path clip-path="url(#SVGID_6_)" d="M124.287,317.805v-0.766h-3.672l2.989-3.816c0.467-0.6,0.683-1.045,0.683-1.729
		c0-1.404-0.947-2.305-2.352-2.305c-1.428,0-2.351,0.973-2.351,2.316h0.863c0-1.105,0.696-1.549,1.488-1.549
		c0.937,0,1.489,0.611,1.489,1.537c0,0.467-0.156,0.84-0.48,1.26l-3.372,4.285v0.766H124.287z M117.411,317.805v-8.543h-0.863
		l-1.596,1.381v0.984l1.596-1.404v7.582H117.411z M112.755,315.479c0,0.936-0.528,1.631-1.476,1.631
		c-0.949,0-1.477-0.695-1.477-1.631v-3.889c0-0.938,0.528-1.633,1.477-1.633c0.948,0,1.476,0.695,1.476,1.633V315.479z
		 M113.619,315.526v-3.984c0-1.416-1.007-2.352-2.339-2.352c-1.333,0-2.34,0.936-2.34,2.352v3.984c0,1.416,1.007,2.352,2.34,2.352
		C112.612,317.877,113.619,316.942,113.619,315.526 M108.375,317.805v-0.766h-3.672l2.989-3.816c0.467-0.6,0.683-1.045,0.683-1.729
		c0-1.404-0.947-2.305-2.351-2.305c-1.429,0-2.351,0.973-2.351,2.316h0.862c0-1.105,0.696-1.549,1.489-1.549
		c0.936,0,1.488,0.611,1.488,1.537c0,0.467-0.156,0.84-0.48,1.26l-3.371,4.285v0.766H108.375z"/>
	<path clip-path="url(#SVGID_6_)" d="M162.907,315.479c0-1.068-0.444-1.766-1.307-2.088c0.768-0.348,1.151-0.996,1.151-1.896
		c0-1.393-0.959-2.316-2.352-2.316c-1.296,0-2.303,0.816-2.399,2.197h0.863c0.084-0.877,0.636-1.43,1.536-1.43
		c0.829,0,1.489,0.539,1.489,1.561c0,0.961-0.48,1.549-1.525,1.549h-0.18v0.754h0.18c1.165,0,1.681,0.625,1.681,1.658
		c0,1.043-0.72,1.656-1.645,1.656c-0.816,0-1.572-0.42-1.644-1.488h-0.863c0.072,1.547,1.163,2.254,2.507,2.254
		C161.792,317.889,162.907,317.051,162.907,315.479 M156.043,317.805v-8.543h-0.863l-1.596,1.381v0.984l1.596-1.404v7.582H156.043z
		 M151.388,315.479c0,0.936-0.528,1.631-1.476,1.631c-0.949,0-1.477-0.695-1.477-1.631v-3.889c0-0.938,0.528-1.633,1.477-1.633
		c0.948,0,1.476,0.695,1.476,1.633V315.479z M152.251,315.526v-3.984c0-1.416-1.007-2.352-2.339-2.352
		c-1.333,0-2.34,0.936-2.34,2.352v3.984c0,1.416,1.007,2.352,2.34,2.352C151.245,317.877,152.251,316.942,152.251,315.526
		 M147.007,317.805v-0.766h-3.672l2.989-3.816c0.467-0.6,0.683-1.045,0.683-1.729c0-1.404-0.947-2.305-2.351-2.305
		c-1.429,0-2.351,0.973-2.351,2.316h0.862c0-1.105,0.696-1.549,1.489-1.549c0.936,0,1.488,0.611,1.488,1.537
		c0,0.467-0.156,0.84-0.48,1.26l-3.371,4.285v0.766H147.007z"/>
	<path clip-path="url(#SVGID_6_)" d="M201.804,316.45v-0.779h-1.044v-2.424h-0.851v2.424h-2.484l3.083-6.408h-0.923l-3.084,6.408
		v0.779h3.408v1.355h0.851v-1.355H201.804z M194.676,317.805v-8.543h-0.863l-1.596,1.381v0.984l1.596-1.404v7.582H194.676z
		 M190.021,315.479c0,0.936-0.528,1.631-1.476,1.631c-0.949,0-1.477-0.695-1.477-1.631v-3.889c0-0.938,0.528-1.633,1.477-1.633
		c0.948,0,1.476,0.695,1.476,1.633V315.479z M190.884,315.526v-3.984c0-1.416-1.007-2.352-2.339-2.352
		c-1.333,0-2.34,0.936-2.34,2.352v3.984c0,1.416,1.007,2.352,2.34,2.352C189.877,317.877,190.884,316.942,190.884,315.526
		 M185.64,317.805v-0.766h-3.672l2.989-3.816c0.467-0.6,0.683-1.045,0.683-1.729c0-1.404-0.947-2.305-2.351-2.305
		c-1.429,0-2.351,0.973-2.351,2.316h0.862c0-1.105,0.696-1.549,1.489-1.549c0.936,0,1.488,0.611,1.488,1.537
		c0,0.467-0.156,0.84-0.48,1.26l-3.371,4.285v0.766H185.64z"/>
	<path clip-path="url(#SVGID_6_)" d="M240.197,314.987c0-0.805-0.084-1.67-0.707-2.293c-0.336-0.336-0.84-0.539-1.477-0.539
		c-0.673,0-1.201,0.217-1.537,0.588v-2.713h3.541v-0.768h-4.32v4.488h0.779c0.168-0.504,0.672-0.84,1.416-0.84
		c1.237,0,1.441,1.031,1.441,2.076c0,0.611-0.023,1.297-0.468,1.74c-0.253,0.252-0.638,0.396-1.058,0.396
		c-0.899,0-1.344-0.48-1.451-1.332h-0.863c0.048,0.611,0.229,1.104,0.599,1.486c0.372,0.371,0.972,0.611,1.716,0.611
		c0.758,0,1.31-0.24,1.705-0.635C240.125,316.643,240.197,315.838,240.197,314.987 M233.309,317.805v-8.543h-0.863l-1.596,1.381
		v0.984l1.596-1.404v7.582H233.309z M228.654,315.479c0,0.936-0.528,1.631-1.476,1.631c-0.949,0-1.477-0.695-1.477-1.631v-3.889
		c0-0.938,0.528-1.633,1.477-1.633c0.948,0,1.476,0.695,1.476,1.633V315.479z M229.517,315.526v-3.984
		c0-1.416-1.007-2.352-2.339-2.352c-1.333,0-2.34,0.936-2.34,2.352v3.984c0,1.416,1.007,2.352,2.34,2.352
		C228.51,317.877,229.517,316.942,229.517,315.526 M224.273,317.805v-0.766h-3.672l2.989-3.816c0.467-0.6,0.683-1.045,0.683-1.729
		c0-1.404-0.947-2.305-2.351-2.305c-1.429,0-2.351,0.973-2.351,2.316h0.862c0-1.105,0.696-1.549,1.489-1.549
		c0.936,0,1.488,0.611,1.488,1.537c0,0.467-0.156,0.84-0.48,1.26l-3.371,4.285v0.766H224.273z"/>
	<path clip-path="url(#SVGID_6_)" d="M277.943,315.383c0,1.043-0.601,1.727-1.514,1.727c-0.912,0-1.5-0.684-1.5-1.727
		c0-1.057,0.588-1.73,1.5-1.73C277.414,313.653,277.943,314.434,277.943,315.383 M278.806,315.346c0-1.404-0.887-2.424-2.22-2.424
		c-0.336,0-0.637,0.061-0.9,0.18l1.909-3.84h-0.89l-2.1,4.236c-0.359,0.719-0.539,1.309-0.539,1.92c0,1.477,0.924,2.459,2.375,2.459
		C277.895,317.877,278.806,316.799,278.806,315.346 M271.941,317.805v-8.543h-0.863l-1.596,1.381v0.984l1.596-1.404v7.582H271.941z
		 M267.287,315.479c0,0.936-0.528,1.631-1.477,1.631c-0.949,0-1.477-0.695-1.477-1.631v-3.889c0-0.938,0.527-1.633,1.477-1.633
		c0.948,0,1.477,0.695,1.477,1.633V315.479z M268.15,315.526v-3.984c0-1.416-1.008-2.352-2.34-2.352c-1.333,0-2.34,0.936-2.34,2.352
		v3.984c0,1.416,1.007,2.352,2.34,2.352C267.143,317.877,268.15,316.942,268.15,315.526 M262.906,317.805v-0.766h-3.672l2.988-3.816
		c0.467-0.6,0.684-1.045,0.684-1.729c0-1.404-0.947-2.305-2.352-2.305c-1.429,0-2.352,0.973-2.352,2.316h0.863
		c0-1.105,0.695-1.549,1.488-1.549c0.936,0,1.489,0.611,1.489,1.537c0,0.467-0.157,0.84-0.481,1.26l-3.371,4.285v0.766H262.906z"/>
	<path clip-path="url(#SVGID_6_)" d="M317.57,310.03v-0.768h-4.739v2.111h0.852v-1.344h2.976l-2.964,7.775h0.912L317.57,310.03z
		 M310.574,317.805v-8.543h-0.862l-1.597,1.381v0.984l1.597-1.404v7.582H310.574z M305.92,315.479c0,0.936-0.528,1.631-1.477,1.631
		c-0.949,0-1.477-0.695-1.477-1.631v-3.889c0-0.938,0.527-1.633,1.477-1.633c0.948,0,1.477,0.695,1.477,1.633V315.479z
		 M306.782,315.526v-3.984c0-1.416-1.007-2.352-2.339-2.352c-1.333,0-2.34,0.936-2.34,2.352v3.984c0,1.416,1.007,2.352,2.34,2.352
		C305.775,317.877,306.782,316.942,306.782,315.526 M301.539,317.805v-0.766h-3.672l2.988-3.816c0.467-0.6,0.684-1.045,0.684-1.729
		c0-1.404-0.947-2.305-2.352-2.305c-1.429,0-2.352,0.973-2.352,2.316h0.863c0-1.105,0.695-1.549,1.488-1.549
		c0.937,0,1.489,0.611,1.489,1.537c0,0.467-0.157,0.84-0.481,1.26l-3.371,4.285v0.766H301.539z"/>
	<path clip-path="url(#SVGID_6_)" d="M355.172,311.495c0,0.9-0.611,1.525-1.488,1.525c-0.876,0-1.488-0.625-1.488-1.525
		c0-0.889,0.612-1.537,1.488-1.537C354.561,309.958,355.172,310.606,355.172,311.495 M355.341,315.442
		c0,0.949-0.721,1.668-1.657,1.668s-1.656-0.719-1.656-1.668c0-0.947,0.72-1.668,1.656-1.668S355.341,314.495,355.341,315.442
		 M356.203,315.456c0-0.998-0.551-1.67-1.271-2.076c0.672-0.385,1.103-1.008,1.103-1.896c0-1.334-0.995-2.293-2.352-2.293
		s-2.352,0.959-2.352,2.293c0,0.889,0.443,1.512,1.115,1.896c-0.72,0.406-1.283,1.078-1.283,2.076c0,1.439,1.104,2.422,2.52,2.422
		C355.101,317.877,356.203,316.895,356.203,315.456 M349.207,317.805v-8.543h-0.862l-1.597,1.381v0.984l1.597-1.404v7.582H349.207z
		 M344.553,315.479c0,0.936-0.528,1.631-1.477,1.631c-0.949,0-1.477-0.695-1.477-1.631v-3.889c0-0.938,0.527-1.633,1.477-1.633
		c0.948,0,1.477,0.695,1.477,1.633V315.479z M345.415,315.526v-3.984c0-1.416-1.007-2.352-2.339-2.352
		c-1.333,0-2.34,0.936-2.34,2.352v3.984c0,1.416,1.007,2.352,2.34,2.352C344.408,317.877,345.415,316.942,345.415,315.526
		 M340.172,317.805v-0.766h-3.673l2.989-3.816c0.467-0.6,0.684-1.045,0.684-1.729c0-1.404-0.947-2.305-2.352-2.305
		c-1.429,0-2.352,0.973-2.352,2.316h0.862c0-1.105,0.696-1.549,1.489-1.549c0.937,0,1.489,0.611,1.489,1.537
		c0,0.467-0.157,0.84-0.481,1.26l-3.372,4.285v0.766H340.172z"/>
	<path clip-path="url(#SVGID_6_)" d="M393.806,311.686c0,1.057-0.601,1.729-1.514,1.729c-0.983,0-1.5-0.779-1.5-1.729
		c0-1.045,0.588-1.729,1.5-1.729C393.205,309.958,393.806,310.641,393.806,311.686 M394.668,311.651
		c0-1.477-0.923-2.461-2.376-2.461c-1.452,0-2.362,1.08-2.362,2.533c0,1.404,0.875,2.422,2.207,2.422
		c0.336,0,0.648-0.059,0.912-0.18l-1.921,3.84h0.9l2.1-4.234C394.488,312.85,394.668,312.262,394.668,311.651 M387.84,317.805
		v-8.543h-0.862l-1.597,1.381v0.984l1.597-1.404v7.582H387.84z M383.186,315.479c0,0.936-0.528,1.631-1.477,1.631
		s-1.477-0.695-1.477-1.631v-3.889c0-0.938,0.528-1.633,1.477-1.633s1.477,0.695,1.477,1.633V315.479z M384.048,315.526v-3.984
		c0-1.416-1.007-2.352-2.339-2.352c-1.333,0-2.34,0.936-2.34,2.352v3.984c0,1.416,1.007,2.352,2.34,2.352
		C383.041,317.877,384.048,316.942,384.048,315.526 M378.805,317.805v-0.766h-3.673l2.989-3.816c0.467-0.6,0.684-1.045,0.684-1.729
		c0-1.404-0.947-2.305-2.352-2.305c-1.429,0-2.352,0.973-2.352,2.316h0.862c0-1.105,0.696-1.549,1.489-1.549
		c0.937,0,1.489,0.611,1.489,1.537c0,0.467-0.157,0.84-0.481,1.26l-3.372,4.285v0.766H378.805z"/>
	<path clip-path="url(#SVGID_6_)" d="M433.019,315.479c0,0.936-0.528,1.631-1.477,1.631s-1.477-0.695-1.477-1.631v-3.889
		c0-0.938,0.528-1.633,1.477-1.633s1.477,0.695,1.477,1.633V315.479z M433.882,315.526v-3.984c0-1.416-1.007-2.352-2.34-2.352
		c-1.332,0-2.34,0.936-2.34,2.352v3.984c0,1.416,1.008,2.352,2.34,2.352C432.875,317.877,433.882,316.942,433.882,315.526
		 M428.638,317.805v-0.766h-3.672l2.989-3.816c0.467-0.6,0.683-1.045,0.683-1.729c0-1.404-0.947-2.305-2.353-2.305
		c-1.428,0-2.351,0.973-2.351,2.316h0.863c0-1.105,0.695-1.549,1.487-1.549c0.938,0,1.489,0.611,1.489,1.537
		c0,0.467-0.156,0.84-0.479,1.26l-3.372,4.285v0.766H428.638z M422.41,315.479c0,0.936-0.527,1.631-1.476,1.631
		c-0.949,0-1.477-0.695-1.477-1.631v-3.889c0-0.938,0.527-1.633,1.477-1.633c0.948,0,1.476,0.695,1.476,1.633V315.479z
		 M423.273,315.526v-3.984c0-1.416-1.007-2.352-2.339-2.352c-1.333,0-2.34,0.936-2.34,2.352v3.984c0,1.416,1.007,2.352,2.34,2.352
		C422.267,317.877,423.273,316.942,423.273,315.526 M418.029,317.805v-0.766h-3.672l2.989-3.816c0.467-0.6,0.683-1.045,0.683-1.729
		c0-1.404-0.946-2.305-2.351-2.305c-1.429,0-2.353,0.973-2.353,2.316h0.863c0-1.105,0.696-1.549,1.489-1.549
		c0.936,0,1.489,0.611,1.489,1.537c0,0.467-0.157,0.84-0.481,1.26l-3.372,4.285v0.766H418.029z"/>
	<path clip-path="url(#SVGID_6_)" d="M57.243,315.479c0,0.936-0.528,1.631-1.476,1.631c-0.949,0-1.477-0.695-1.477-1.631v-3.889
		c0-0.938,0.528-1.633,1.477-1.633c0.948,0,1.476,0.695,1.476,1.633V315.479z M58.106,315.526v-3.984
		c0-1.416-1.007-2.352-2.339-2.352c-1.333,0-2.34,0.936-2.34,2.352v3.984c0,1.416,1.007,2.352,2.34,2.352
		C57.099,317.877,58.106,316.942,58.106,315.526 M51.29,317.805v-8.543h-0.863l-1.596,1.381v0.984l1.596-1.404v7.582H51.29z
		 M46.636,315.479c0,0.936-0.529,1.631-1.477,1.631c-0.949,0-1.477-0.695-1.477-1.631v-3.889c0-0.938,0.528-1.633,1.477-1.633
		c0.948,0,1.477,0.695,1.477,1.633V315.479z M47.498,315.526v-3.984c0-1.416-1.006-2.352-2.339-2.352s-2.339,0.936-2.339,2.352
		v3.984c0,1.416,1.006,2.352,2.339,2.352S47.498,316.942,47.498,315.526 M42.254,317.805v-0.766h-3.672l2.989-3.816
		c0.468-0.6,0.683-1.045,0.683-1.729c0-1.404-0.946-2.305-2.351-2.305c-1.429,0-2.351,0.973-2.351,2.316h0.862
		c0-1.105,0.697-1.549,1.489-1.549c0.936,0,1.489,0.611,1.489,1.537c0,0.467-0.156,0.84-0.48,1.26l-3.372,4.285v0.766H42.254z
		 M37.095,314.471l-0.54-0.539c-0.468,0.467-0.672,0.539-1.008,0.539c-0.324,0-0.6-0.133-0.936-0.287
		c-0.456-0.205-0.84-0.373-1.26-0.373c-0.54,0-0.876,0.145-1.548,0.816l0.528,0.539c0.468-0.467,0.672-0.539,1.008-0.539
		c0.324,0,0.6,0.131,0.936,0.287c0.456,0.203,0.852,0.371,1.272,0.371C36.087,315.286,36.423,315.141,37.095,314.471
		 M31.455,314.987c0-0.805-0.084-1.67-0.707-2.293c-0.336-0.336-0.84-0.539-1.477-0.539c-0.672,0-1.2,0.217-1.536,0.588v-2.713h3.54
		v-0.768h-4.319v4.488h0.779c0.168-0.504,0.672-0.84,1.416-0.84c1.237,0,1.441,1.031,1.441,2.076c0,0.611-0.024,1.297-0.468,1.74
		c-0.252,0.252-0.637,0.396-1.057,0.396c-0.9,0-1.344-0.48-1.452-1.332h-0.863c0.048,0.611,0.228,1.104,0.599,1.486
		c0.372,0.371,0.972,0.611,1.716,0.611c0.757,0,1.309-0.24,1.705-0.635C31.383,316.643,31.455,315.838,31.455,314.987
		 M25.216,315.479c0,0.936-0.528,1.631-1.477,1.631c-0.948,0-1.476-0.695-1.476-1.631v-3.889c0-0.938,0.528-1.633,1.476-1.633
		c0.949,0,1.477,0.695,1.477,1.633V315.479z M26.079,315.526v-3.984c0-1.416-1.007-2.352-2.34-2.352
		c-1.332,0-2.339,0.936-2.339,2.352v3.984c0,1.416,1.007,2.352,2.339,2.352C25.072,317.877,26.079,316.942,26.079,315.526
		 M19.912,315.479c0,0.936-0.528,1.631-1.476,1.631c-0.949,0-1.477-0.695-1.477-1.631v-3.889c0-0.938,0.528-1.633,1.477-1.633
		c0.948,0,1.476,0.695,1.476,1.633V315.479z M20.775,315.526v-3.984c0-1.416-1.007-2.352-2.339-2.352
		c-1.333,0-2.34,0.936-2.34,2.352v3.984c0,1.416,1.007,2.352,2.34,2.352C19.768,317.877,20.775,316.942,20.775,315.526
		 M15.531,317.805v-0.766h-3.672l2.989-3.816c0.467-0.6,0.683-1.045,0.683-1.729c0-1.404-0.947-2.305-2.351-2.305
		c-1.429,0-2.351,0.973-2.351,2.316h0.862c0-1.105,0.696-1.549,1.489-1.549c0.936,0,1.488,0.611,1.488,1.537
		c0,0.467-0.156,0.84-0.48,1.26l-3.371,4.285v0.766H15.531z"/>
	<path clip-path="url(#SVGID_6_)" fill="#FFFFFF" d="M372.462,48.361c0.705-2.256,1.585-4.527,1.585-6.912
		c0-2.464-0.88-4.752-1.6-7.071h-0.978c0.593,2.336,1.073,4.72,1.073,7.136c0,2.32-0.48,4.607-1.009,6.848H372.462z M369.279,34.922
		h-1.313v11.552h1.313V34.922z M364.159,46.474h1.439c-0.096-0.624-0.159-1.28-0.159-1.92v-3.888c0-1.36-0.545-2.433-2.624-2.433
		c-1.713,0-2.673,0.624-2.736,2.433h1.424c-0.08-0.849,0.384-1.44,1.264-1.44c1.408,0,1.393,1.168,1.36,2.24
		c-1.84-0.048-4.24,0.063-4.24,2.512c0,1.552,0.496,2.656,2.208,2.656c1.008,0,1.632-0.4,2.032-1.328h0.032V46.474z M364.127,42.458
		c0.128,2.607-0.864,3.104-1.664,3.104c-0.88,0-1.264-0.704-1.264-1.488C361.199,42.361,362.879,42.474,364.127,42.458
		 M354.367,38.394v0.992h1.328v5.744c0,0.928,0.56,1.439,1.808,1.439c0.432,0,0.864-0.096,1.296-0.128v-1.008
		c-0.288,0.032-0.496,0.064-0.592,0.064c-1.2,0-1.2-0.656-1.2-1.169v-4.943h1.76v-0.992h-1.76V36.25l-1.312,0.592v1.552H354.367z
		 M350.399,46.634c1.712,0,3.071-0.513,3.071-4.08c0-2.368-0.271-4.32-3.071-4.32c-2.801,0-3.072,1.952-3.072,4.32
		C347.327,46.121,348.688,46.634,350.399,46.634 M350.399,45.562c-1.36,0-1.696-0.944-1.696-3.568c0-2.208,0.688-2.688,1.696-2.688
		c1.008,0,1.695,0.479,1.695,2.688C352.095,44.617,351.759,45.562,350.399,45.562 M341.919,38.394v0.992h1.328v5.744
		c0,0.928,0.56,1.439,1.808,1.439c0.433,0,0.864-0.096,1.296-0.128v-1.008c-0.288,0.032-0.495,0.064-0.592,0.064
		c-1.2,0-1.2-0.656-1.2-1.169v-4.943h1.761v-0.992h-1.761V36.25l-1.312,0.592v1.552H341.919z M337.247,46.474v-5.6
		c0-1.601-0.432-2.641-2.16-2.641c-1.04,0-1.647,0.288-2.16,1.2h-0.063v-1.04h-1.393c0.048,0.56,0.08,1.12,0.08,1.68v6.4h1.313
		v-4.784c0-1.104,0.208-2.384,1.647-2.384c1.12,0,1.424,0.704,1.424,1.568v5.6H337.247z M327.887,36.329h1.473v-1.407h-1.473V36.329
		z M329.279,38.394h-1.313v8.08h1.313V38.394z M322.544,44.17c0-2.465-4.032-2.433-4.032-3.856c0-0.704,0.544-1.088,1.248-1.088
		c0.832,0,1.28,0.448,1.265,1.296h1.456c0.111-1.6-1.12-2.288-2.561-2.288c-2.271,0-2.784,1.36-2.784,2.208
		c0,2.416,4.032,2.448,4.032,3.888c0,0.832-0.608,1.232-1.392,1.232c-1.328,0-1.345-1.088-1.345-1.552h-1.487
		c-0.048,1.855,1.04,2.624,2.783,2.624C321.328,46.634,322.544,45.945,322.544,44.17 M315.168,42.857V42.17
		c0-2.672-0.576-3.937-2.88-3.937c-2.8,0-3.072,1.952-3.072,4.32c0,3.567,1.36,4.08,3.072,4.08c1.696,0,2.8-0.816,2.815-2.608
		h-1.439c-0.048,0.816-0.512,1.536-1.408,1.536c-1.023,0-1.632-0.448-1.632-2.704H315.168z M310.624,41.865
		c0.016-2.239,0.704-2.64,1.536-2.64c0.96,0,1.616,0.288,1.616,2.64H310.624z M307.44,44.17c0-2.465-4.032-2.433-4.032-3.856
		c0-0.704,0.544-1.088,1.248-1.088c0.832,0,1.279,0.448,1.264,1.296h1.456c0.112-1.6-1.12-2.288-2.56-2.288
		c-2.272,0-2.784,1.36-2.784,2.208c0,2.416,4.032,2.448,4.032,3.888c0,0.832-0.608,1.232-1.393,1.232
		c-1.328,0-1.344-1.088-1.344-1.552h-1.488c-0.048,1.855,1.04,2.624,2.784,2.624C306.224,46.634,307.44,45.945,307.44,44.17
		 M298.4,46.474h1.439c-0.096-0.624-0.16-1.28-0.16-1.92v-3.888c0-1.36-0.544-2.433-2.623-2.433c-1.713,0-2.673,0.624-2.736,2.433
		h1.424c-0.08-0.849,0.384-1.44,1.264-1.44c1.408,0,1.393,1.168,1.36,2.24c-1.841-0.048-4.24,0.063-4.24,2.512
		c0,1.552,0.496,2.656,2.208,2.656c1.008,0,1.632-0.4,2.032-1.328h0.032V46.474z M298.368,42.458
		c0.128,2.607-0.864,3.104-1.664,3.104c-0.88,0-1.265-0.704-1.265-1.488C295.439,42.361,297.12,42.474,298.368,42.458
		 M291.824,40.985c0.08-1.808-0.864-2.752-2.48-2.752c-2.8,0-3.072,1.952-3.072,4.32c0,3.567,1.36,4.08,3.072,4.08
		c0.896,0,2.592-0.576,2.545-2.849h-1.377c0.049,1.456-0.863,1.776-1.168,1.776c-1.359,0-1.695-0.944-1.695-3.568
		c0-2.208,0.688-2.688,1.695-2.688c0.496,0,1.152,0.352,1.12,1.68H291.824z M275.376,35.369v6.24h1.328
		c0.128-0.735,0.56-1.296,1.36-1.296c1.375,0,1.424,1.264,1.424,2.88c0,1.088-0.096,2.448-1.488,2.448
		c-0.977,0-1.313-0.816-1.313-1.68h-1.472c0,1.487,0.433,2.752,2.736,2.752c2.784,0,3.008-2.112,3.008-3.889
		c0-2.56-0.735-3.743-2.319-3.743c-0.752,0-1.521,0.352-1.761,0.831l-0.032-0.031v-3.232h3.713v-1.28H275.376z M270.896,46.714
		c2.16,0,2.961-1.761,2.961-3.744c0-2.896-1.217-3.729-2.641-3.729c-0.768,0-1.439,0.4-1.808,1.04h-0.032
		c0-2.96,0.305-4.016,1.504-4.016c0.88,0,1.296,0.864,1.296,1.632h1.472c0.064-1.68-1.088-2.704-2.752-2.704
		c-3.039,0-2.992,2.784-2.992,5.776C267.904,43.865,267.889,46.714,270.896,46.714 M269.409,42.874c0-0.992,0.176-2.4,1.472-2.4
		c1.28,0,1.504,1.231,1.504,2.24c0,1.456-0.208,2.768-1.408,2.768C269.553,45.481,269.409,43.978,269.409,42.874 M262.93,41.306
		c1.711,0,2.383,0.384,2.383,2.176c0,1.185-0.399,2-1.695,2c-1.328,0-1.504-0.96-1.52-2.063h-1.473c0,0.624-0.24,3.296,2.863,3.296
		c2.129,0,3.297-1.04,3.297-3.2c0-1.664-0.561-2.592-2.305-2.832v-0.032c0.641-0.16,2.192-0.479,2.192-2.576
		c0-1.936-1.12-2.88-3.008-2.88c-2.063,0-2.976,1.152-2.864,3.04h1.473c-0.017-0.896,0.176-1.808,1.392-1.808
		c1.088,0,1.536,0.735,1.536,1.744c0,1.424-0.944,1.951-2.271,1.84V41.306z M259.089,48.361c-0.528-2.24-1.008-4.527-1.008-6.848
		c0-2.416,0.479-4.8,1.071-7.136h-0.976c-0.72,2.319-1.6,4.607-1.6,7.071c0,2.385,0.88,4.656,1.584,6.912H259.089z M251.201,42.857
		V42.17c0-2.672-0.576-3.937-2.881-3.937c-2.799,0-3.071,1.952-3.071,4.32c0,3.567,1.36,4.08,3.071,4.08
		c1.697,0,2.801-0.816,2.816-2.608h-1.439c-0.049,0.816-0.512,1.536-1.408,1.536c-1.023,0-1.632-0.448-1.632-2.704H251.201z
		 M246.657,41.865c0.016-2.239,0.704-2.64,1.536-2.64c0.959,0,1.615,0.288,1.615,2.64H246.657z M242.961,40.985
		c0.08-1.808-0.863-2.752-2.48-2.752c-2.799,0-3.071,1.952-3.071,4.32c0,3.567,1.36,4.08,3.071,4.08
		c0.896,0,2.593-0.576,2.545-2.849h-1.377c0.049,1.456-0.863,1.776-1.168,1.776c-1.359,0-1.695-0.944-1.695-3.568
		c0-2.208,0.688-2.688,1.695-2.688c0.496,0,1.152,0.352,1.121,1.68H242.961z M235.073,46.474v-5.6c0-1.601-0.433-2.641-2.16-2.641
		c-1.04,0-1.648,0.288-2.16,1.2h-0.064v-1.04h-1.392c0.048,0.56,0.08,1.12,0.08,1.68v6.4h1.312v-4.784
		c0-1.104,0.208-2.384,1.648-2.384c1.12,0,1.425,0.704,1.425,1.568v5.6H235.073z M225.537,46.474h1.44
		c-0.096-0.624-0.16-1.28-0.16-1.92v-3.888c0-1.36-0.544-2.433-2.624-2.433c-1.712,0-2.672,0.624-2.736,2.433h1.424
		c-0.08-0.849,0.384-1.44,1.264-1.44c1.408,0,1.392,1.168,1.36,2.24c-1.84-0.048-4.24,0.063-4.24,2.512
		c0,1.552,0.496,2.656,2.208,2.656c1.008,0,1.632-0.4,2.032-1.328h0.032V46.474z M225.505,42.458
		c0.128,2.607-0.864,3.104-1.664,3.104c-0.88,0-1.264-0.704-1.264-1.488C222.577,42.361,224.257,42.474,225.505,42.458
		 M215.745,38.394v0.992h1.328v5.744c0,0.928,0.56,1.439,1.808,1.439c0.432,0,0.864-0.096,1.296-0.128v-1.008
		c-0.288,0.032-0.496,0.064-0.592,0.064c-1.2,0-1.2-0.656-1.2-1.169v-4.943h1.76v-0.992h-1.76V36.25l-1.312,0.592v1.552H215.745z
		 M215.025,44.17c0-2.465-4.032-2.433-4.032-3.856c0-0.704,0.544-1.088,1.248-1.088c0.832,0,1.28,0.448,1.264,1.296h1.456
		c0.112-1.6-1.12-2.288-2.56-2.288c-2.272,0-2.784,1.36-2.784,2.208c0,2.416,4.032,2.448,4.032,3.888
		c0,0.832-0.608,1.232-1.392,1.232c-1.328,0-1.344-1.088-1.344-1.552h-1.488c-0.048,1.855,1.04,2.624,2.784,2.624
		C213.809,46.634,215.025,45.945,215.025,44.17 M206.162,36.329h1.472v-1.407h-1.472V36.329z M207.554,38.394h-1.312v8.08h1.312
		V38.394z M204.37,44.17c0-2.465-4.032-2.433-4.032-3.856c0-0.704,0.544-1.088,1.248-1.088c0.832,0,1.28,0.448,1.264,1.296h1.456
		c0.112-1.6-1.12-2.288-2.56-2.288c-2.272,0-2.784,1.36-2.784,2.208c0,2.416,4.032,2.448,4.032,3.888
		c0,0.832-0.608,1.232-1.392,1.232c-1.328,0-1.344-1.088-1.344-1.552h-1.488c-0.048,1.855,1.04,2.624,2.784,2.624
		C203.154,46.634,204.37,45.945,204.37,44.17 M197.266,44.17c0-2.465-4.032-2.433-4.032-3.856c0-0.704,0.544-1.088,1.248-1.088
		c0.832,0,1.28,0.448,1.264,1.296h1.456c0.112-1.6-1.12-2.288-2.56-2.288c-2.272,0-2.784,1.36-2.784,2.208
		c0,2.416,4.032,2.448,4.032,3.888c0,0.832-0.608,1.232-1.392,1.232c-1.328,0-1.344-1.088-1.344-1.552h-1.488
		c-0.048,1.855,1.04,2.624,2.784,2.624C196.05,46.634,197.266,45.945,197.266,44.17 M187.794,42.441h-3.696l1.808-6.16h0.032
		L187.794,42.441z M181.378,46.474h1.488l0.864-2.752h4.464l0.832,2.752h1.648l-3.76-11.552h-1.872L181.378,46.474z M176.467,34.922
		h-1.312v11.552h1.312V34.922z M171.347,46.474h1.44c-0.096-0.624-0.16-1.28-0.16-1.92v-3.888c0-1.36-0.544-2.433-2.624-2.433
		c-1.712,0-2.672,0.624-2.736,2.433h1.424c-0.08-0.849,0.384-1.44,1.264-1.44c1.408,0,1.392,1.168,1.36,2.24
		c-1.84-0.048-4.24,0.063-4.24,2.512c0,1.552,0.496,2.656,2.208,2.656c1.008,0,1.632-0.4,2.032-1.328h0.032V46.474z M171.315,42.458
		c0.128,2.607-0.864,3.104-1.664,3.104c-0.88,0-1.264-0.704-1.264-1.488C168.387,42.361,170.067,42.474,171.315,42.458
		 M164.771,40.985c0.08-1.808-0.864-2.752-2.48-2.752c-2.8,0-3.072,1.952-3.072,4.32c0,3.567,1.36,4.08,3.072,4.08
		c0.896,0,2.592-0.576,2.544-2.849h-1.376c0.048,1.456-0.864,1.776-1.168,1.776c-1.36,0-1.696-0.944-1.696-3.568
		c0-2.208,0.688-2.688,1.696-2.688c0.496,0,1.152,0.352,1.12,1.68H164.771z M155.523,36.329h1.472v-1.407h-1.472V36.329z
		 M156.915,38.394h-1.312v8.08h1.312V38.394z M151.907,39.386h-0.032c-0.368-0.784-1.04-1.152-1.888-1.152
		c-0.656,0-2.528,0.24-2.528,3.952c0,2.4,0.432,4.288,2.624,4.288c0.704,0,1.44-0.368,1.776-1.008h0.048v1.68
		c0,0.832-0.496,1.392-1.408,1.392c-0.72,0-1.216-0.416-1.232-1.168h-1.472c-0.112,1.488,1.104,2.16,2.448,2.16
		c1.776,0,2.976-0.432,2.976-2.24v-8.896h-1.312V39.386z M151.939,42.394c0,1.12,0.048,2.992-1.536,2.992
		c-0.976,0-1.568-0.608-1.568-3.2c0-1.072,0.048-2.864,1.536-2.864C152.019,39.321,151.939,41.193,151.939,42.394 M142.483,46.634
		c1.712,0,3.072-0.513,3.072-4.08c0-2.368-0.272-4.32-3.072-4.32c-2.8,0-3.072,1.952-3.072,4.32
		C139.411,46.121,140.771,46.634,142.483,46.634 M142.483,45.562c-1.36,0-1.696-0.944-1.696-3.568c0-2.208,0.688-2.688,1.696-2.688
		c1.008,0,1.696,0.479,1.696,2.688C144.179,44.617,143.843,45.562,142.483,45.562 M137.363,34.922h-1.312v11.552h1.312V34.922z
		 M130.931,46.634c1.712,0,3.072-0.513,3.072-4.08c0-2.368-0.272-4.32-3.072-4.32c-2.8,0-3.072,1.952-3.072,4.32
		C127.859,46.121,129.219,46.634,130.931,46.634 M130.931,45.562c-1.36,0-1.696-0.944-1.696-3.568c0-2.208,0.688-2.688,1.696-2.688
		c1.008,0,1.696,0.479,1.696,2.688C132.627,44.617,132.291,45.562,130.931,45.562 M125.779,46.474v-5.6
		c0-1.601-0.432-2.641-2.16-2.641c-1.04,0-1.648,0.288-2.16,1.2h-0.064v-1.04h-1.392c0.048,0.56,0.08,1.12,0.08,1.68v6.4h1.312
		v-4.784c0-1.104,0.208-2.384,1.648-2.384c1.12,0,1.424,0.704,1.424,1.568v5.6H125.779z M117.779,46.474v-5.729
		c0-1.823-0.768-2.512-2.144-2.512c-1.056,0-1.664,0.256-2.192,1.2h-0.064v-4.512h-1.312v11.552h1.312v-4.752
		c0-1.36,0.336-2.416,1.648-2.416c1.12,0,1.44,0.704,1.44,1.696v5.472H117.779z M109.667,40.985c0.08-1.808-0.864-2.752-2.48-2.752
		c-2.8,0-3.072,1.952-3.072,4.32c0,3.567,1.36,4.08,3.072,4.08c0.896,0,2.592-0.576,2.544-2.849h-1.376
		c0.048,1.456-0.864,1.776-1.168,1.776c-1.36,0-1.696-0.944-1.696-3.568c0-2.208,0.688-2.688,1.696-2.688
		c0.496,0,1.152,0.352,1.12,1.68H109.667z M101.907,42.857V42.17c0-2.672-0.576-3.937-2.88-3.937c-2.8,0-3.072,1.952-3.072,4.32
		c0,3.567,1.36,4.08,3.072,4.08c1.696,0,2.8-0.816,2.816-2.608h-1.44c-0.048,0.816-0.512,1.536-1.408,1.536
		c-1.024,0-1.632-0.448-1.632-2.704H101.907z M97.363,41.865c0.016-2.239,0.704-2.64,1.536-2.64c0.96,0,1.616,0.288,1.616,2.64
		H97.363z M88.435,34.922v1.279h3.04v10.272h1.472V36.201h3.04v-1.279H88.435z"/>
	<path clip-path="url(#SVGID_6_)" d="M457.794,311.276h-0.719v6.057h0.719v-3.898c0-1.021,0.672-1.633,1.691-1.549v-0.73
		c-0.731,0-1.368,0.359-1.668,0.934h-0.023V311.276z M454.831,317.333h0.743c-0.071-0.707-0.071-1.092-0.071-1.523v-3.047
		c0-1.549-1.271-1.607-1.885-1.607c-1.056,0-1.955,0.455-2.015,1.619h0.767c0-0.721,0.528-1.045,1.188-1.045
		c0.961,0,1.225,0.541,1.225,1.43v0.504c-1.225,0.096-3.359-0.121-3.359,2.004c0,1.057,0.587,1.787,1.667,1.787
		c0.745,0,1.333-0.287,1.717-0.863h0.023V317.333z M454.783,315.342c0,0.791-0.672,1.537-1.501,1.537
		c-0.744,0-1.092-0.564-1.092-1.25c0-1.477,1.562-1.355,2.593-1.393V315.342z M446.935,313.879c0-1.346,0.216-2.15,1.369-2.15
		c1.151,0,1.368,0.805,1.368,2.15H446.935z M450.391,314.454c0-1.799,0-3.299-2.087-3.299c-1.357,0-2.088,0.803-2.088,2.555v1.488
		c0,1.836,1.043,2.256,2.088,2.256c1.212,0,2.003-0.504,2.087-1.967h-0.755c0.012,0.814-0.433,1.393-1.332,1.393
		c-1.142,0-1.369-1.117-1.369-1.959v-0.467H450.391z M442.304,319.625h0.708l2.507-8.35h-0.72l-1.428,4.967h-0.023l-1.477-4.967
		h-0.779l1.92,6.07L442.304,319.625z"/>
	<path clip-path="url(#SVGID_6_)" d="M459.223-0.001c0.54,2.131,1.006,4.305,1.006,6.51c0,2.234-0.391,4.469-1.006,6.613h0.735
		c0.659-2.069,1.229-4.198,1.229-6.389c0-2.31-0.539-4.559-1.288-6.734H459.223z M453.281,6.824c0-1.681,0.27-2.687,1.711-2.687
		s1.711,1.006,1.711,2.687H453.281z M457.602,7.543c0-2.25,0-4.123-2.609-4.123c-1.696,0-2.609,1.003-2.609,3.194v1.859
		c0,2.296,1.304,2.819,2.609,2.819c1.516,0,2.504-0.629,2.609-2.46h-0.943c0.015,1.021-0.54,1.741-1.666,1.741
		c-1.426,0-1.711-1.396-1.711-2.446V7.543H457.602z M450.986,9.149c0-2.536-3.405-2.026-3.405-3.917
		c0-0.675,0.511-1.095,1.156-1.095c1.021,0,1.275,0.51,1.321,1.471h0.883c0-1.156-0.479-2.188-1.979-2.188
		c-1.321,0-2.278,0.493-2.278,1.888c0,2.506,3.404,1.996,3.404,3.977c0,0.84-0.42,1.335-1.291,1.335
		c-1.156,0-1.396-0.689-1.396-1.725h-0.913c-0.016,1.604,0.629,2.398,2.264,2.398C450.163,11.293,450.986,10.574,450.986,9.149
		 M443.998,11.143h0.928c-0.089-0.885-0.089-1.365-0.089-1.905V5.429c0-1.935-1.589-2.009-2.354-2.009
		c-1.32,0-2.444,0.568-2.52,2.023h0.958c0-0.9,0.661-1.306,1.486-1.306c1.201,0,1.531,0.676,1.531,1.787v0.63
		c-1.53,0.12-4.2-0.15-4.2,2.504c0,1.321,0.733,2.234,2.084,2.234c0.931,0,1.666-0.359,2.146-1.078h0.03V11.143z M443.938,8.653
		c0,0.99-0.841,1.921-1.876,1.921c-0.931,0-1.365-0.705-1.365-1.561c0-1.846,1.951-1.696,3.241-1.741V8.653z M438.522,5.743
		c0.074-1.591-0.81-2.323-2.114-2.323c-1.036,0-1.891,0.389-2.28,1.468c-0.194,0.57-0.225,1.756-0.225,2.506
		c0,1.876,0,3.899,2.564,3.899c0.705,0,2.145-0.345,2.069-2.384h-0.898c-0.046,0.915-0.195,1.665-1.381,1.665
		c-1.396,0-1.396-1.815-1.396-3.181c0-1.005,0.09-2.041,0.21-2.386c0.195-0.556,0.66-0.87,1.216-0.87c1.035,0,1.38,0.66,1.335,1.605
		H438.522z M427.784,4.707h1.108V3.569h-1.108V4.707z M427.784,11.143h1.108v-1.138h-1.108V11.143z M423.959,4.287v5.417
		c0,0.93,0.359,1.469,1.573,1.469c0.285,0,0.585-0.016,0.854-0.045V10.35c-0.194,0.03-0.404,0.045-0.705,0.045
		c-0.72,0-0.824-0.24-0.824-1.245V4.287h1.529V3.569h-1.529v-1.95l-0.898,0.391v1.56h-1.215v0.718H423.959z M421.393,0.314h-1.108
		v1.138h1.108V0.314z M421.287,3.569h-0.898v7.573h0.898V3.569z M414.328,6.388c0-1.695,0.825-2.25,1.636-2.25
		c1.05,0,1.396,0.825,1.396,1.71v5.295h0.898v-5.34c0-0.99-0.194-2.383-2.068-2.383c-0.812,0-1.396,0.448-1.831,1.077h-0.03V3.569
		h-0.899v7.573h0.899V6.388z M410.64,3.569v5.34c0,0.525-0.436,1.665-1.65,1.665c-1.306,0-1.261-1.59-1.261-1.8V3.569h-0.898v5.355
		c0,1.229,0.434,2.368,1.993,2.368c0.841,0,1.381-0.345,1.906-0.988h0.029v0.838h0.779V3.569H410.64z M404.278-0.001
		c-0.749,2.176-1.288,4.425-1.288,6.734c0,2.19,0.568,4.319,1.228,6.389h0.735c-0.615-2.145-1.005-4.379-1.005-6.613
		c0-2.205,0.465-4.379,1.005-6.51H404.278z"/>
</g>
</svg>
