<?xml version="1.0" encoding="utf-8"?>
<!-- Generator: Adobe Illustrator 16.0.0, SVG Export Plug-In . SVG Version: 6.00 Build 0)  -->
<!DOCTYPE svg PUBLIC "-//W3C//DTD SVG 1.1//EN" "http://www.w3.org/Graphics/SVG/1.1/DTD/svg11.dtd">
<svg version="1.1" id="레이어_1" xmlns="http://www.w3.org/2000/svg" xmlns:xlink="http://www.w3.org/1999/xlink" x="0px"
	 y="0px" width="458px" height="188.221px" viewBox="0 0 458 188.221" enable-background="new 0 0 458 188.221"
	 xml:space="preserve">
<rect x="226.058" y="37.822" fill="#FFFFFF" width="231.942" height="149.286"/>
<rect x="0.002" y="37.822" fill="#FFFFFF" width="192.756" height="149.897"/>
<rect x="390.957" y="165.139" fill="#E4007F" width="45.354" height="22.678"/>
<rect x="318.672" y="158.354" fill="#E4007F" width="45.355" height="29.479"/>
<rect x="246.041" y="118.149" fill="#E4007F" width="45.354" height="69.07"/>
<g>
	<defs>
		<rect id="SVGID_1_" width="458" height="188.221"/>
	</defs>
	<clipPath id="SVGID_2_">
		<use xlink:href="#SVGID_1_"  overflow="visible"/>
	</clipPath>
	<path clip-path="url(#SVGID_2_)" fill="#9FA0A0" d="M231.729,0c0,0-5.67,0-5.67,5.67v46.488H458V5.67c0,0,0-5.67-5.669-5.67
		H231.729z"/>
</g>
<rect x="76.473" y="121.01" fill="#60A5C1" width="34.016" height="66.209"/>
<rect x="19.98" y="110.153" fill="#60A5C1" width="34.016" height="77.066"/>
<g>
	<defs>
		<rect id="SVGID_3_" width="458" height="188.221"/>
	</defs>
	<clipPath id="SVGID_4_">
		<use xlink:href="#SVGID_3_"  overflow="visible"/>
	</clipPath>
	<path clip-path="url(#SVGID_4_)" fill="#60A5C1" d="M35.667,96.34H29.57c-0.478,0-0.865-0.355-0.865-0.799
		c0-0.439,0.387-0.795,0.865-0.795h6.098c0.475,0,0.861,0.355,0.861,0.795C36.529,95.985,36.143,96.34,35.667,96.34"/>
	<path clip-path="url(#SVGID_4_)" fill="#60A5C1" d="M19.438,104.756c-0.557,0-1.006-0.418-1.006-0.93
		c0-0.514,0.449-0.93,1.006-0.93h4.742c0.553,0,1.006,0.416,1.006,0.93c0,0.512-0.453,0.93-1.006,0.93H19.438z"/>
	<path clip-path="url(#SVGID_4_)" fill="#60A5C1" d="M19.438,100.655c-0.557,0-1.006-0.418-1.006-0.93
		c0-0.514,0.449-0.93,1.006-0.93h4.742c0.553,0,1.006,0.416,1.006,0.93c0,0.512-0.453,0.93-1.006,0.93H19.438z"/>
	<path clip-path="url(#SVGID_4_)" fill="#60A5C1" d="M19.438,96.553c-0.557,0-1.006-0.418-1.006-0.932
		c0-0.512,0.449-0.93,1.006-0.93h4.742c0.553,0,1.006,0.418,1.006,0.93c0,0.514-0.453,0.932-1.006,0.932H19.438z"/>
	<path clip-path="url(#SVGID_4_)" fill="#60A5C1" d="M19.438,92.449c-0.557,0-1.006-0.418-1.006-0.93c0-0.511,0.449-0.93,1.006-0.93
		h4.742c0.553,0,1.006,0.419,1.006,0.93c0,0.512-0.453,0.93-1.006,0.93H19.438z"/>
	<path clip-path="url(#SVGID_4_)" fill="#60A5C1" d="M19.438,88.348c-0.557,0-1.006-0.418-1.006-0.93c0-0.514,0.449-0.93,1.006-0.93
		h4.742c0.553,0,1.006,0.416,1.006,0.93c0,0.512-0.453,0.93-1.006,0.93H19.438z"/>
</g>
<rect x="21.025" y="88.881" fill="#60A5C1" width="1.726" height="1.178"/>
<rect x="21.025" y="97.083" fill="#60A5C1" width="1.726" height="1.182"/>
<rect x="21.025" y="92.98" fill="#60A5C1" width="1.726" height="1.181"/>
<rect x="21.025" y="101.186" fill="#60A5C1" width="1.726" height="1.18"/>
<g>
	<defs>
		<rect id="SVGID_5_" width="458" height="188.221"/>
	</defs>
	<clipPath id="SVGID_6_">
		<use xlink:href="#SVGID_5_"  overflow="visible"/>
	</clipPath>
	<path clip-path="url(#SVGID_6_)" fill="#60A5C1" d="M43.633,96.75c0.559,0.113,0.685,0.514,0.279,0.887l-4.662,4.309
		c-0.406,0.375-0.838,0.256-0.959-0.26l-1.283-5.389c-0.123-0.518,0.232-0.846,0.793-0.732L43.633,96.75z"/>
	<path clip-path="url(#SVGID_6_)" fill="#60A5C1" d="M49.742,112.801l0.894,0.824c1.627,1.506,4.27,1.506,5.901,0
		c1.629-1.504,1.629-3.947,0-5.453l-0.893-0.824L49.742,112.801z"/>
</g>
<polygon fill="#60A5C1" points="41.109,100.813 51.593,110.499 53.13,109.079 42.648,99.393 "/>
<polygon fill="#60A5C1" points="38.939,102.819 49.421,112.506 51.083,110.973 40.597,101.286 "/>
<polygon fill="#60A5C1" points="44.84,97.366 43.16,98.918 53.645,108.606 55.324,107.053 "/>
<g>
	<defs>
		<rect id="SVGID_7_" width="458" height="188.221"/>
	</defs>
	<clipPath id="SVGID_8_">
		<use xlink:href="#SVGID_7_"  overflow="visible"/>
	</clipPath>
	<path clip-path="url(#SVGID_8_)" fill="#60A5C1" d="M52.953,85.164c0-3.348-2.947-6.07-6.57-6.07H27.596
		c-3.621,0-6.571,2.723-6.571,6.07v0.791h1.727v-0.791c0-2.469,2.172-4.477,4.844-4.477h18.787c2.672,0,4.845,2.008,4.845,4.477
		v16.6l1.725,1.596V85.164z"/>
	<path clip-path="url(#SVGID_8_)" fill="#60A5C1" d="M27.596,110.719c-2.672,0-4.844-2.008-4.844-4.477v-0.953h-1.726v0.953
		c0,3.348,2.947,6.07,6.57,6.07h18.789c0.375,0,0.744-0.035,1.104-0.092l-1.627-1.502H27.596z"/>
	<path clip-path="url(#SVGID_8_)" fill="#60A5C1" d="M46.072,88.629H29.281c-0.477,0-0.863-0.355-0.863-0.797
		c0-0.439,0.386-0.797,0.863-0.797h16.791c0.475,0,0.861,0.357,0.861,0.797C46.933,88.273,46.547,88.629,46.072,88.629"/>
	<path clip-path="url(#SVGID_8_)" fill="#60A5C1" d="M46.072,92.316H29.281c-0.477,0-0.863-0.355-0.863-0.797
		s0.386-0.797,0.863-0.797h16.791c0.475,0,0.861,0.355,0.861,0.797S46.547,92.316,46.072,92.316"/>
</g>
<rect x="135.4" y="166.038" fill="#60A5C1" width="34.016" height="21.182"/>
<g>
	<defs>
		<rect id="SVGID_9_" width="458" height="188.221"/>
	</defs>
	<clipPath id="SVGID_10_">
		<use xlink:href="#SVGID_9_"  overflow="visible"/>
	</clipPath>
	<path clip-path="url(#SVGID_10_)" fill="#9FA0A0" d="M5.672,0C5.672,0,0,0,0,5.67v46.488h192.758V5.67c0,0,0-5.67-5.668-5.67H5.672
		z"/>
	<path clip-path="url(#SVGID_10_)" fill="#E4007F" d="M264.881,98.249c0.129-0.328,0.408-0.582,0.748-0.678
		c0.762-0.217,1.279-0.893,1.279-1.676c0-0.768-0.5-1.436-1.242-1.665c-0.322-0.098-0.582-0.33-0.717-0.639
		c-0.133-0.309-0.121-0.655,0.025-0.959c0.33-0.666,0.211-1.465-0.299-1.994c-0.537-0.553-1.494-0.678-2.154-0.281
		c-0.303,0.178-0.686,0.209-1.008,0.082c-0.328-0.133-0.582-0.412-0.678-0.75c-0.219-0.762-0.891-1.275-1.672-1.275
		c-0.77,0-1.439,0.5-1.664,1.242c-0.098,0.319-0.334,0.58-0.639,0.711c-0.311,0.131-0.668,0.121-0.959-0.021
		c-0.637-0.316-1.49-0.188-1.996,0.299c-0.584,0.564-0.701,1.453-0.283,2.156c0.184,0.303,0.211,0.68,0.08,1.004
		c-0.129,0.328-0.412,0.581-0.746,0.68c-0.766,0.217-1.277,0.889-1.277,1.674c0,0.768,0.502,1.436,1.242,1.664
		c0.322,0.098,0.582,0.332,0.713,0.637c0.133,0.309,0.125,0.66-0.023,0.959c-0.332,0.666-0.209,1.469,0.301,1.996
		c0.533,0.551,1.486,0.68,2.154,0.281c0.303-0.18,0.68-0.211,1.006-0.08c0.33,0.131,0.582,0.408,0.678,0.748
		c0.217,0.764,0.891,1.277,1.676,1.277c0.768,0,1.434-0.502,1.664-1.244c0.096-0.318,0.33-0.58,0.637-0.711
		c0.305-0.131,0.666-0.123,0.959,0.023c0.238,0.119,0.508,0.18,0.779,0.18c0.457,0,0.9-0.176,1.215-0.48
		c0.584-0.566,0.703-1.453,0.281-2.152C264.779,98.948,264.75,98.581,264.881,98.249"/>
	<path clip-path="url(#SVGID_10_)" fill="#E4007F" d="M263.004,104.35c-0.184-0.066-0.383-0.01-0.51,0.135
		c-0.762,0.916-1.883,1.439-3.068,1.439c-1.232,0-2.422-0.588-3.186-1.576l-0.561-0.158c-0.227,0.027-0.396,0.225-0.396,0.453
		v10.244c0,0.182,0.105,0.346,0.271,0.416l0.186,0.041l0.307-0.117l2.604-2.369c0.43-0.393,1.139-0.381,1.559,0.018l2.322,2.217
		l0.496,0.092c0.17-0.074,0.275-0.238,0.275-0.422v-9.982C263.303,104.588,263.184,104.417,263.004,104.35"/>
	<path clip-path="url(#SVGID_10_)" fill="#E4007F" d="M289.197,80.585h-40.959c-0.797,0-1.447,0.649-1.447,1.446v27.711
		c0,0.799,0.65,1.449,1.447,1.449h4.305c0.25,0,0.457-0.205,0.457-0.457v-6.906l-0.191-0.373c-0.221-0.16-0.393-0.303-0.539-0.455
		c-0.826-0.857-1.229-2.033-1.102-3.227l-0.18-0.412c-1.014-0.762-1.592-1.93-1.592-3.203c0-1.229,0.586-2.42,1.57-3.184
		l0.174-0.433c-0.211-1.3,0.229-2.622,1.178-3.539c0.863-0.833,2.035-1.239,3.225-1.103l0.416-0.182
		c0.764-1.009,1.932-1.59,3.205-1.59c1.23,0,2.42,0.588,3.182,1.576l0.436,0.173c1.303-0.211,2.639,0.243,3.537,1.173
		c0.826,0.857,1.229,2.034,1.104,3.229l0.178,0.414c1.01,0.762,1.592,1.93,1.592,3.202c0,1.229-0.59,2.418-1.574,3.184l-0.17,0.434
		c0.209,1.297-0.23,2.619-1.178,3.537l-0.488,0.387l-0.193,0.373v6.926c0,0.252,0.203,0.457,0.457,0.457h23.152
		c0.801,0,1.447-0.65,1.447-1.449V82.031C290.645,81.234,289.998,80.585,289.197,80.585 M273.742,101.37h10.51
		c0.627,0,1.139,0.51,1.139,1.143c0,0.627-0.512,1.141-1.139,1.141h-10.51c-0.629,0-1.139-0.514-1.139-1.141
		C272.604,101.879,273.113,101.37,273.742,101.37 M284.252,97.713h-10.51c-0.629,0-1.139-0.512-1.139-1.141
		c0-0.631,0.51-1.143,1.139-1.143h10.51c0.627,0,1.139,0.512,1.139,1.143C285.391,97.202,284.879,97.713,284.252,97.713
		 M284.252,91.775h-10.51c-0.629,0-1.139-0.512-1.139-1.143c0-0.63,0.51-1.141,1.139-1.141h10.51c0.627,0,1.139,0.511,1.139,1.141
		C285.391,91.264,284.879,91.775,284.252,91.775"/>
	<path clip-path="url(#SVGID_10_)" fill="#FFFFFF" d="M405.896,172.417c1.104-0.477,2.158-1.07,3.146-1.785h2.192v11.865h-2.567
		v-9.23c-0.493,0.375-1.479,0.986-2.771,1.514V172.417z"/>
	<path clip-path="url(#SVGID_10_)" fill="#FFFFFF" d="M413.869,180.1l3.076-2.805c0.543-0.494,1.156-1.037,1.785-1.803
		c0.662-0.799,0.814-1.172,0.814-1.717c0-0.9-0.525-1.512-1.409-1.512c-1.36,0-1.479,1.393-1.496,1.732h-2.601
		c0-0.475,0-1.359,0.695-2.227c0.682-0.85,1.939-1.291,3.383-1.291c2.584,0,4.012,1.395,4.012,3.229
		c0,1.225-0.475,2.805-5.609,6.936c1.717-0.033,1.922-0.051,3.264-0.066c1.818-0.035,2.024-0.035,2.414-0.053v1.973h-8.328V180.1z"
		/>
	<line clip-path="url(#SVGID_10_)" fill="none" stroke="#9FA0A0" x1="0.001" y1="187.721" x2="458" y2="187.721"/>
	<path clip-path="url(#SVGID_10_)" fill="#FFFFFF" d="M272.034,139.098c-0.83,0-1.747-0.57-1.747-1.799
		c0-1.021,0.727-1.783,1.73-1.783c0.916,0,1.729,0.658,1.729,1.748C273.747,138.614,272.762,139.098,272.034,139.098
		 M272.034,133.44c-0.952,0-1.558-0.709-1.558-1.557c0-0.916,0.709-1.504,1.574-1.504c0.813,0,1.609,0.518,1.609,1.504
		C273.66,132.852,272.916,133.44,272.034,133.44 M270.184,134.428c-0.451,0.154-1.004,0.328-1.592,0.898
		c-0.52,0.502-0.883,1.178-0.883,2.111c0,1.938,1.695,3.512,4.152,3.512c2.369,0,4.429-1.299,4.429-3.512
		c0-0.588-0.14-1.211-0.554-1.799c-0.641-0.9-1.453-1.107-1.938-1.246c1.229-0.189,2.37-1.193,2.37-2.646
		c0-1.887-1.678-3.271-4.1-3.271c-2.941,0-4.171,1.904-4.171,3.375C267.898,133.717,269.577,134.237,270.184,134.428
		 M258.54,130.708h5.554l-4.412,10.051h2.89l4.151-9.912v-2.145h-8.183V130.708z"/>
	<path clip-path="url(#SVGID_10_)" fill="#FFFFFF" d="M346.389,175.198c-0.831,0-1.748-0.57-1.748-1.799
		c0-1.021,0.727-1.781,1.729-1.781c0.917,0,1.73,0.658,1.73,1.748C348.101,174.713,347.114,175.198,346.389,175.198
		 M346.389,169.542c-0.952,0-1.558-0.709-1.558-1.557c0-0.918,0.709-1.506,1.574-1.506c0.813,0,1.609,0.52,1.609,1.506
		C348.015,168.954,347.271,169.542,346.389,169.542 M344.537,170.528c-0.449,0.154-1.004,0.328-1.592,0.898
		c-0.519,0.502-0.882,1.176-0.882,2.111c0,1.938,1.695,3.512,4.152,3.512c2.37,0,4.429-1.297,4.429-3.512
		c0-0.588-0.139-1.211-0.554-1.799c-0.641-0.9-1.453-1.107-1.938-1.246c1.229-0.189,2.37-1.193,2.37-2.646
		c0-1.887-1.678-3.27-4.1-3.27c-2.941,0-4.169,1.902-4.169,3.373C342.254,169.819,343.932,170.336,344.537,170.528 M334.243,169.004
		c1.315-0.535,2.318-1.158,2.82-1.539v9.395h2.612v-12.076h-2.231c-1.004,0.727-2.076,1.332-3.201,1.816V169.004z"/>
	<path clip-path="url(#SVGID_10_)" fill="#FFFFFF" d="M45.811,128.575c-0.848,0-1.643-0.623-1.643-2.111
		c0-1.869,1.314-2.129,1.747-2.129c0.865,0,1.557,0.744,1.557,2.076C47.472,128.055,46.555,128.575,45.811,128.575 M49.825,121.188
		c-0.052-2.215-1.782-3.15-3.599-3.15c-0.467,0-1.73,0.053-2.785,0.848c-1.643,1.213-1.955,3.721-1.955,6.143
		c0,1.436,0,5.482,4.169,5.482c1.35,0,2.284-0.379,3.08-1.123c0.917-0.848,1.28-1.816,1.28-3.148c0-2.629-1.782-3.824-3.46-3.824
		c-1.263,0-1.938,0.572-2.37,0.969c0.035-1.244,0.086-3.391,1.816-3.391c0.641,0,1.211,0.33,1.263,1.195H49.825z M31.954,126.983
		c0,0.484,0.034,1.85,1.107,2.732c0.779,0.623,2.041,0.814,2.906,0.814c2.509,0,4.377-1.523,4.377-3.564
		c0-0.57-0.138-1.453-0.986-2.164c-0.553-0.467-1.055-0.621-1.436-0.742c0.537-0.156,2.319-0.709,2.319-2.734
		c0-1.314-0.986-3.287-4.066-3.287c-1.28,0-2.56,0.363-3.356,1.332c-0.606,0.744-0.658,1.506-0.709,2.043h2.647
		c0-1.004,0.726-1.506,1.47-1.506c0.778,0,1.488,0.484,1.488,1.436c0,1.73-1.782,1.766-2.993,1.801v2.023
		c1.263,0,2.975,0,2.975,1.781c0,0.934-0.588,1.643-1.556,1.643c-1.436,0-1.54-1.227-1.558-1.607H31.954z M23.943,122.415
		c1.315-0.535,2.318-1.158,2.82-1.539v9.395h2.612v-12.076h-2.231c-1.004,0.727-2.076,1.332-3.201,1.816V122.415z"/>
	<path clip-path="url(#SVGID_10_)" fill="#FFFFFF" d="M102.543,132.487c-0.017,0.311-0.035,1.176-0.035,1.332v3.184h-3.045
		L102.543,132.487z M102.37,138.94v2.629h2.56v-2.629h1.644v-1.99h-1.644l0.018-7.455h-2.578l-4.844,7.109v2.336H102.37z
		 M88.409,141.569h8.477v-2.006c-0.398,0.018-0.606,0.018-2.457,0.051c-1.367,0.018-1.574,0.035-3.321,0.07
		c5.224-4.203,5.709-5.813,5.709-7.059c0-1.869-1.454-3.287-4.083-3.287c-1.471,0-2.751,0.449-3.443,1.314
		c-0.709,0.883-0.709,1.783-0.709,2.266h2.647c0.017-0.346,0.138-1.764,1.522-1.764c0.9,0,1.436,0.623,1.436,1.539
		c0,0.555-0.156,0.934-0.83,1.748c-0.641,0.777-1.263,1.332-1.817,1.834l-3.131,2.854V141.569z M80.347,133.715
		c1.315-0.535,2.318-1.158,2.82-1.541v9.395h2.612v-12.074h-2.231c-1.004,0.725-2.077,1.332-3.201,1.816V133.715z"/>
	<path clip-path="url(#SVGID_10_)" fill="#FFFFFF" d="M152.671,180.184c0.018,0.449,0.07,1.193,0.675,1.92
		c0.831,0.986,2.111,1.314,3.374,1.314c3.096,0,4.307-2.318,4.307-4.375c0-2.424-1.626-3.842-3.563-3.842
		c-1.333,0-1.903,0.535-2.284,0.865l0.156-2.994h5.034v-1.971h-7.318l-0.277,7.145l2.509,0.068c0.086-0.275,0.38-1.211,1.539-1.211
		c1.16,0,1.609,1.004,1.609,2.164c0,1.59-0.847,2.266-1.782,2.266c-1.211,0-1.435-1.072-1.418-1.35H152.671z M143.243,179.874
		c0,0.482,0.035,1.85,1.107,2.732c0.779,0.623,2.042,0.813,2.907,0.813c2.508,0,4.376-1.521,4.376-3.563
		c0-0.572-0.138-1.455-0.986-2.164c-0.553-0.467-1.055-0.623-1.436-0.744c0.537-0.154,2.319-0.709,2.319-2.732
		c0-1.314-0.986-3.287-4.066-3.287c-1.28,0-2.56,0.363-3.356,1.332c-0.606,0.744-0.657,1.506-0.709,2.041h2.647
		c0-1.002,0.726-1.504,1.47-1.504c0.779,0,1.488,0.484,1.488,1.436c0,1.73-1.782,1.766-2.993,1.799v2.025
		c1.263,0,2.976,0,2.976,1.781c0,0.934-0.589,1.643-1.557,1.643c-1.436,0-1.54-1.227-1.557-1.607H143.243z"/>
	<path clip-path="url(#SVGID_10_)" fill="#FFFFFF" d="M158.881,43.243c0.704-2.256,1.584-4.528,1.584-6.912
		c0-2.464-0.88-4.752-1.6-7.072h-0.976c0.592,2.336,1.072,4.721,1.072,7.137c0,2.319-0.48,4.607-1.008,6.848H158.881z
		 M155.858,29.803h-1.312v11.553h1.312V29.803z M150.898,41.355h1.44c-0.096-0.624-0.16-1.28-0.16-1.92v-3.889
		c0-1.359-0.544-2.432-2.624-2.432c-1.712,0-2.672,0.624-2.736,2.432h1.424c-0.08-0.848,0.384-1.439,1.264-1.439
		c1.408,0,1.392,1.168,1.36,2.239c-1.84-0.048-4.24,0.064-4.24,2.513c0,1.552,0.496,2.655,2.208,2.655
		c1.008,0,1.632-0.399,2.032-1.327h0.032V41.355z M150.866,37.339c0.128,2.608-0.864,3.104-1.664,3.104
		c-0.88,0-1.264-0.704-1.264-1.488C147.938,37.243,149.618,37.355,150.866,37.339 M141.266,33.275v0.992h1.328v5.743
		c0,0.929,0.56,1.44,1.808,1.44c0.432,0,0.864-0.096,1.296-0.128v-1.008c-0.288,0.031-0.496,0.063-0.592,0.063
		c-1.2,0-1.2-0.656-1.2-1.168v-4.943h1.76v-0.992h-1.76v-2.145l-1.312,0.592v1.553H141.266z M137.458,41.515
		c1.712,0,3.072-0.512,3.072-4.079c0-2.368-0.272-4.32-3.072-4.32c-2.8,0-3.072,1.952-3.072,4.32
		C134.386,41.003,135.746,41.515,137.458,41.515 M137.458,40.443c-1.36,0-1.696-0.944-1.696-3.568c0-2.208,0.688-2.688,1.696-2.688
		c1.008,0,1.696,0.479,1.696,2.688C139.154,39.499,138.818,40.443,137.458,40.443 M129.138,33.275v0.992h1.328v5.743
		c0,0.929,0.56,1.44,1.808,1.44c0.432,0,0.864-0.096,1.296-0.128v-1.008c-0.288,0.031-0.496,0.063-0.592,0.063
		c-1.2,0-1.2-0.656-1.2-1.168v-4.943h1.76v-0.992h-1.76v-2.145l-1.312,0.592v1.553H129.138z M124.786,41.355v-5.601
		c0-1.6-0.432-2.64-2.16-2.64c-1.04,0-1.648,0.288-2.16,1.2h-0.064v-1.04h-1.392c0.048,0.56,0.08,1.12,0.08,1.68v6.4h1.312v-4.784
		c0-1.104,0.208-2.384,1.648-2.384c1.12,0,1.424,0.703,1.424,1.567v5.601H124.786z M115.586,31.211h1.472v-1.408h-1.472V31.211z
		 M116.978,33.275h-1.312v8.08h1.312V33.275z M110.563,39.051c0-2.464-4.032-2.432-4.032-3.855c0-0.704,0.544-1.088,1.248-1.088
		c0.832,0,1.28,0.447,1.264,1.296h1.456c0.112-1.601-1.12-2.288-2.56-2.288c-2.272,0-2.784,1.36-2.784,2.208
		c0,2.416,4.032,2.448,4.032,3.888c0,0.832-0.608,1.232-1.392,1.232c-1.328,0-1.344-1.088-1.344-1.553h-1.488
		c-0.048,1.856,1.04,2.624,2.784,2.624C109.347,41.515,110.563,40.827,110.563,39.051 M99.891,33.275v0.992h1.328v5.743
		c0,0.929,0.56,1.44,1.808,1.44c0.432,0,0.864-0.096,1.296-0.128v-1.008c-0.288,0.031-0.496,0.063-0.592,0.063
		c-1.2,0-1.2-0.656-1.2-1.168v-4.943h1.76v-0.992h-1.76v-2.145l-1.312,0.592v1.553H99.891z M98.819,35.867
		c0.08-1.808-0.864-2.752-2.48-2.752c-2.8,0-3.072,1.952-3.072,4.32c0,3.567,1.36,4.079,3.072,4.079
		c0.896,0,2.592-0.575,2.544-2.848h-1.376c0.048,1.456-0.864,1.776-1.168,1.776c-1.36,0-1.696-0.944-1.696-3.568
		c0-2.208,0.688-2.688,1.696-2.688c0.496,0,1.152,0.352,1.12,1.68H98.819z M91.219,37.739v-0.688c0-2.672-0.576-3.936-2.88-3.936
		c-2.8,0-3.072,1.952-3.072,4.32c0,3.567,1.36,4.079,3.072,4.079c1.696,0,2.8-0.815,2.816-2.607h-1.44
		c-0.048,0.815-0.512,1.536-1.408,1.536c-1.024,0-1.632-0.448-1.632-2.704H91.219z M86.675,36.747c0.016-2.24,0.704-2.64,1.536-2.64
		c0.96,0,1.616,0.288,1.616,2.64H86.675z M81.891,31.211h1.472v-1.408h-1.472V31.211z M81.971,42.539
		c0,0.672-0.416,0.752-0.976,0.752v1.12c1.92,0,2.288-0.656,2.288-1.936v-9.2h-1.312V42.539z M77.011,41.515
		c1.712,0,3.072-0.512,3.072-4.079c0-2.368-0.272-4.32-3.072-4.32s-3.072,1.952-3.072,4.32
		C73.939,41.003,75.299,41.515,77.011,41.515 M77.011,40.443c-1.36,0-1.696-0.944-1.696-3.568c0-2.208,0.688-2.688,1.696-2.688
		s1.696,0.479,1.696,2.688C78.707,39.499,78.371,40.443,77.011,40.443 M70.355,33.275h-1.312v8.08h1.312v-4.769
		c0-1.088,0.368-2.191,1.824-2.191c0.128,0,0.24,0.016,0.352,0.031c0.112,0.017,0.24,0.032,0.352,0.049v-1.36
		c-1.28,0-1.952,0.144-2.496,1.376h-0.032V33.275z M62.579,33.275h-1.312v11.136h1.312v-3.872h0.048
		c0.448,0.64,1.008,0.976,1.776,0.976c2.608,0,2.672-2.319,2.672-4.336c0-3.552-1.312-4.063-2.608-4.063
		c-0.848,0-1.408,0.368-1.856,1.12h-0.032V33.275z M64.099,40.443c-1.456,0-1.52-1.712-1.52-2.784c0-1.232-0.144-3.472,1.472-3.472
		c1.648,0,1.648,1.775,1.648,2.991C65.699,39.339,65.507,40.443,64.099,40.443 M50.612,30.251v6.24h1.328
		c0.128-0.736,0.56-1.296,1.36-1.296c1.376,0,1.424,1.264,1.424,2.88c0,1.088-0.096,2.448-1.488,2.448
		c-0.976,0-1.312-0.816-1.312-1.681h-1.472c0,1.488,0.432,2.752,2.736,2.752c2.784,0,3.008-2.111,3.008-3.888
		c0-2.56-0.736-3.744-2.32-3.744c-0.752,0-1.52,0.353-1.76,0.832l-0.032-0.032v-3.231h3.712v-1.28H50.612z M46.26,30.075
		c-1.472,0-2.96,0.912-2.96,3.408c0,3.04,1.664,3.504,2.544,3.504c0.848,0,1.552-0.272,1.904-1.04h0.032
		c0,2.848-0.096,4.416-1.52,4.416c-0.944,0-1.264-0.849-1.264-1.664h-1.472c-0.032,1.76,1.072,2.896,2.736,2.896
		c3.008,0,2.992-2.848,2.992-5.743C49.252,32.859,49.3,30.075,46.26,30.075 M46.26,31.147c1.264,0,1.488,1.296,1.488,2.304
		c0,1.104-0.208,2.304-1.488,2.304c-1.28,0-1.488-1.2-1.488-2.304C44.772,32.443,44.996,31.147,46.26,31.147 M42.436,41.355v-1.28
		h-4.4c2.864-3.776,4.112-4.608,4.112-7.088c0-2-0.96-2.912-2.96-2.912c-1.888,0-2.816,1.2-2.688,3.04h1.504
		c-0.016-0.896,0.192-1.809,1.296-1.809c0.944,0,1.376,0.593,1.376,1.473c0,1.92-0.96,2.752-4.208,7.296v1.28H42.436z
		 M34.804,43.243c-0.528-2.24-1.008-4.528-1.008-6.848c0-2.416,0.48-4.801,1.072-7.137h-0.976c-0.72,2.32-1.6,4.608-1.6,7.072
		c0,2.384,0.88,4.656,1.584,6.912H34.804z"/>
	<path clip-path="url(#SVGID_10_)" fill="#FFFFFF" d="M146.25,12.275v0.992h1.328v5.743c0,0.929,0.56,1.44,1.808,1.44
		c0.432,0,0.864-0.096,1.296-0.128v-1.008c-0.288,0.031-0.496,0.063-0.592,0.063c-1.2,0-1.2-0.656-1.2-1.168v-4.943h1.76v-0.992
		h-1.76v-2.145l-1.312,0.592v1.553H146.25z M145.178,14.867c0.08-1.808-0.864-2.752-2.48-2.752c-2.8,0-3.072,1.952-3.072,4.32
		c0,3.567,1.36,4.079,3.072,4.079c0.896,0,2.592-0.575,2.544-2.848h-1.376c0.048,1.456-0.864,1.776-1.168,1.776
		c-1.36,0-1.696-0.944-1.696-3.568c0-2.208,0.688-2.688,1.696-2.688c0.496,0,1.152,0.352,1.12,1.68H145.178z M137.579,16.739v-0.688
		c0-2.672-0.576-3.936-2.88-3.936c-2.8,0-3.072,1.952-3.072,4.32c0,3.567,1.36,4.079,3.072,4.079c1.696,0,2.8-0.815,2.816-2.607
		h-1.44c-0.048,0.815-0.512,1.536-1.408,1.536c-1.024,0-1.632-0.448-1.632-2.704H137.579z M133.034,15.747
		c0.016-2.24,0.704-2.64,1.536-2.64c0.96,0,1.616,0.288,1.616,2.64H133.034z M128.25,10.211h1.472V8.803h-1.472V10.211z
		 M128.331,21.539c0,0.672-0.416,0.752-0.976,0.752v1.12c1.92,0,2.288-0.656,2.288-1.936v-9.2h-1.312V21.539z M123.371,20.515
		c1.712,0,3.072-0.512,3.072-4.079c0-2.368-0.272-4.32-3.072-4.32c-2.8,0-3.072,1.952-3.072,4.32
		C120.298,20.003,121.658,20.515,123.371,20.515 M123.371,19.443c-1.36,0-1.696-0.944-1.696-3.568c0-2.208,0.688-2.688,1.696-2.688
		c1.008,0,1.696,0.479,1.696,2.688C125.066,18.499,124.73,19.443,123.371,19.443 M116.714,12.275h-1.312v8.08h1.312v-4.769
		c0-1.088,0.368-2.191,1.824-2.191c0.128,0,0.24,0.016,0.352,0.031c0.112,0.017,0.24,0.032,0.352,0.049v-1.36
		c-1.28,0-1.952,0.144-2.496,1.376h-0.032V12.275z M108.426,20.355v-5.088h1.936c1.184,0,3.232-0.545,3.232-3.169
		c0-2.72-1.664-3.296-3.216-3.296h-3.424v11.553H108.426z M108.426,10.083h2.032c0.32,0,1.632,0.176,1.632,1.937
		c0,1.808-1.44,1.968-2.048,1.968h-1.616V10.083z M101.083,20.355v-5.729c0-1.824-0.768-2.512-2.144-2.512
		c-1.056,0-1.664,0.256-2.192,1.2h-0.064V8.803h-1.312v11.553h1.312v-4.752c0-1.36,0.336-2.416,1.648-2.416
		c1.12,0,1.44,0.703,1.44,1.695v5.473H101.083z M93.131,14.867c0.08-1.808-0.864-2.752-2.48-2.752c-2.8,0-3.072,1.952-3.072,4.32
		c0,3.567,1.36,4.079,3.072,4.079c0.896,0,2.592-0.575,2.544-2.848h-1.376c0.048,1.456-0.864,1.776-1.168,1.776
		c-1.36,0-1.696-0.944-1.696-3.568c0-2.208,0.688-2.688,1.696-2.688c0.496,0,1.152,0.352,1.12,1.68H93.131z M83.739,12.275h-1.312
		v8.08h1.312v-4.769c0-1.088,0.368-2.191,1.824-2.191c0.128,0,0.24,0.016,0.352,0.031c0.112,0.017,0.24,0.032,0.352,0.049v-1.36
		c-1.28,0-1.952,0.144-2.496,1.376h-0.032V12.275z M78.699,20.355h1.44c-0.096-0.624-0.16-1.28-0.16-1.92v-3.889
		c0-1.359-0.544-2.432-2.624-2.432c-1.712,0-2.672,0.624-2.736,2.432h1.424c-0.08-0.848,0.384-1.439,1.264-1.439
		c1.408,0,1.392,1.168,1.36,2.239c-1.84-0.048-4.24,0.064-4.24,2.513c0,1.552,0.496,2.655,2.208,2.655
		c1.008,0,1.632-0.399,2.032-1.327h0.032V20.355z M78.667,16.339c0.128,2.608-0.864,3.104-1.664,3.104
		c-0.88,0-1.264-0.704-1.264-1.488C75.739,16.243,77.419,16.355,78.667,16.339 M72.523,16.739v-0.688
		c0-2.672-0.576-3.936-2.88-3.936c-2.8,0-3.072,1.952-3.072,4.32c0,3.567,1.36,4.079,3.072,4.079c1.696,0,2.8-0.815,2.816-2.607
		h-1.44c-0.048,0.815-0.512,1.536-1.408,1.536c-1.024,0-1.632-0.448-1.632-2.704H72.523z M67.979,15.747
		c0.016-2.24,0.704-2.64,1.536-2.64c0.96,0,1.616,0.288,1.616,2.64H67.979z M64.956,18.051c0-2.464-4.032-2.432-4.032-3.855
		c0-0.704,0.544-1.088,1.248-1.088c0.832,0,1.28,0.447,1.264,1.296h1.456c0.112-1.601-1.12-2.288-2.56-2.288
		c-2.272,0-2.784,1.36-2.784,2.208c0,2.416,4.032,2.448,4.032,3.888c0,0.832-0.608,1.232-1.392,1.232
		c-1.328,0-1.344-1.088-1.344-1.553h-1.488c-0.048,1.856,1.04,2.624,2.784,2.624C63.739,20.515,64.956,19.827,64.956,18.051
		 M57.739,16.739v-0.688c0-2.672-0.576-3.936-2.88-3.936c-2.8,0-3.072,1.952-3.072,4.32c0,3.567,1.36,4.079,3.072,4.079
		c1.696,0,2.8-0.815,2.816-2.607h-1.44c-0.048,0.815-0.512,1.536-1.408,1.536c-1.024,0-1.632-0.448-1.632-2.704H57.739z
		 M53.195,15.747c0.016-2.24,0.704-2.64,1.536-2.64c0.96,0,1.616,0.288,1.616,2.64H53.195z M46.491,15.043
		c0.496,0,1.632,0.064,1.744,1.472c0.128,1.536,0.032,3.04,0.448,3.841h1.536c-0.224-0.721-0.384-2.528-0.4-3.024
		c-0.08-2.32-0.56-2.768-1.888-2.976v-0.032c1.36-0.24,2.112-1.28,2.112-2.64c0-1.44-0.72-2.881-2.768-2.881h-3.984v11.553h1.472
		v-5.313H46.491z M44.763,10.083h2.224c1.136,0,1.552,0.928,1.552,1.76c0,1.009-0.512,1.92-1.568,1.92h-2.208V10.083z"/>
	<path clip-path="url(#SVGID_10_)" fill="#FFFFFF" d="M447.122,43.243c0.598-2.256,1.346-4.528,1.346-6.912
		c0-2.464-0.748-4.752-1.36-7.072h-0.83c0.505,2.336,0.912,4.721,0.912,7.137c0,2.319-0.407,4.607-0.856,6.848H447.122z
		 M444.551,29.803h-1.115v11.553h1.115V29.803z M440.335,41.355h1.224c-0.081-0.624-0.136-1.28-0.136-1.92v-3.889
		c0-1.359-0.462-2.432-2.23-2.432c-1.454,0-2.271,0.624-2.325,2.432h1.211c-0.068-0.848,0.326-1.439,1.073-1.439
		c1.197,0,1.184,1.168,1.156,2.239c-1.563-0.048-3.604,0.064-3.604,2.513c0,1.552,0.422,2.655,1.877,2.655
		c0.856,0,1.387-0.399,1.727-1.327h0.027V41.355z M440.308,37.339c0.109,2.608-0.733,3.104-1.414,3.104
		c-0.748,0-1.075-0.704-1.075-1.488C437.818,37.243,439.247,37.355,440.308,37.339 M432.147,33.275v0.992h1.129v5.743
		c0,0.929,0.477,1.44,1.537,1.44c0.367,0,0.734-0.096,1.102-0.128v-1.008c-0.244,0.031-0.421,0.063-0.503,0.063
		c-1.021,0-1.021-0.656-1.021-1.168v-4.943h1.496v-0.992h-1.496v-2.145l-1.115,0.592v1.553H432.147z M428.911,41.515
		c1.456,0,2.611-0.512,2.611-4.079c0-2.368-0.231-4.32-2.611-4.32s-2.611,1.952-2.611,4.32
		C426.3,41.003,427.456,41.515,428.911,41.515 M428.911,40.443c-1.156,0-1.441-0.944-1.441-3.568c0-2.208,0.585-2.688,1.441-2.688
		s1.441,0.479,1.441,2.688C430.353,39.499,430.066,40.443,428.911,40.443 M421.839,33.275v0.992h1.129v5.743
		c0,0.929,0.476,1.44,1.537,1.44c0.367,0,0.734-0.096,1.102-0.128v-1.008c-0.245,0.031-0.422,0.063-0.504,0.063
		c-1.02,0-1.02-0.656-1.02-1.168v-4.943h1.496v-0.992h-1.496v-2.145l-1.115,0.592v1.553H421.839z M418.14,41.355v-5.601
		c0-1.6-0.367-2.64-1.836-2.64c-0.884,0-1.399,0.288-1.836,1.2h-0.054v-1.04h-1.184c0.041,0.56,0.068,1.12,0.068,1.68v6.4h1.115
		v-4.784c0-1.104,0.177-2.384,1.4-2.384c0.952,0,1.21,0.703,1.21,1.567v5.601H418.14z M410.32,31.211h1.252v-1.408h-1.252V31.211z
		 M411.504,33.275h-1.115v8.08h1.115V33.275z M406.051,39.051c0-2.464-3.427-2.432-3.427-3.855c0-0.704,0.462-1.088,1.06-1.088
		c0.708,0,1.088,0.447,1.075,1.296h1.237c0.096-1.601-0.952-2.288-2.177-2.288c-1.931,0-2.365,1.36-2.365,2.208
		c0,2.416,3.427,2.448,3.427,3.888c0,0.832-0.517,1.232-1.183,1.232c-1.13,0-1.143-1.088-1.143-1.553h-1.265
		c-0.041,1.856,0.884,2.624,2.366,2.624C405.017,41.515,406.051,40.827,406.051,39.051 M399.917,37.739v-0.688
		c0-2.672-0.489-3.936-2.448-3.936c-2.38,0-2.611,1.952-2.611,4.32c0,3.567,1.156,4.079,2.611,4.079c1.442,0,2.38-0.815,2.395-2.607
		h-1.225c-0.041,0.815-0.435,1.536-1.197,1.536c-0.869,0-1.387-0.448-1.387-2.704H399.917z M396.055,36.747
		c0.013-2.24,0.598-2.64,1.305-2.64c0.816,0,1.374,0.288,1.374,2.64H396.055z M393.484,39.051c0-2.464-3.428-2.432-3.428-3.855
		c0-0.704,0.463-1.088,1.062-1.088c0.707,0,1.088,0.447,1.074,1.296h1.237c0.095-1.601-0.952-2.288-2.176-2.288
		c-1.931,0-2.366,1.36-2.366,2.208c0,2.416,3.427,2.448,3.427,3.888c0,0.832-0.517,1.232-1.183,1.232
		c-1.129,0-1.143-1.088-1.143-1.553h-1.265c-0.041,1.856,0.884,2.624,2.366,2.624C392.451,41.515,393.484,40.827,393.484,39.051
		 M385.937,41.355h1.225c-0.082-0.624-0.137-1.28-0.137-1.92v-3.889c0-1.359-0.463-2.432-2.23-2.432
		c-1.455,0-2.271,0.624-2.325,2.432h1.21c-0.068-0.848,0.326-1.439,1.074-1.439c1.197,0,1.184,1.168,1.156,2.239
		c-1.564-0.048-3.604,0.064-3.604,2.513c0,1.552,0.422,2.655,1.877,2.655c0.857,0,1.387-0.399,1.728-1.327h0.027V41.355z
		 M385.909,37.339c0.108,2.608-0.734,3.104-1.414,3.104c-0.748,0-1.074-0.704-1.074-1.488
		C383.421,37.243,384.849,37.355,385.909,37.339 M380.482,35.867c0.068-1.808-0.733-2.752-2.107-2.752
		c-2.38,0-2.611,1.952-2.611,4.32c0,3.567,1.156,4.079,2.611,4.079c0.762,0,2.203-0.575,2.162-2.848h-1.169
		c0.041,1.456-0.735,1.776-0.993,1.776c-1.156,0-1.442-0.944-1.442-3.568c0-2.208,0.585-2.688,1.442-2.688
		c0.422,0,0.979,0.352,0.952,1.68H380.482z M368.991,34.827c-0.938,0-1.169-1.2-1.169-2.016c0-0.832,0.366-1.664,1.169-1.664
		s1.17,0.832,1.17,1.664C370.161,33.627,369.93,34.827,368.991,34.827 M369.767,35.467c1.115-0.256,1.646-1.344,1.646-2.607
		c0-1.744-0.938-2.784-2.421-2.784s-2.421,1.04-2.421,2.784c0,1.264,0.53,2.352,1.646,2.607v0.017
		c-1.387,0.16-1.741,1.439-1.741,2.88c0,2,0.871,3.231,2.517,3.231s2.516-1.231,2.516-3.231c0-1.44-0.353-2.72-1.74-2.88V35.467z
		 M368.991,40.363c-0.938,0-1.265-1.024-1.265-1.984c0-0.992,0.096-2.271,1.265-2.271c1.17,0,1.265,1.279,1.265,2.271
		C370.256,39.339,369.93,40.363,368.991,40.363 M363.089,31.307c1.279,0,1.292,1.841,1.292,4.832c0,1.872,0.095,4.225-1.292,4.225
		s-1.292-2.353-1.292-4.225C361.797,33.147,361.811,31.307,363.089,31.307 M363.089,30.075c-2.584,0-2.543,2.784-2.543,5.776
		c0,2.896-0.014,5.743,2.543,5.743s2.543-2.848,2.543-5.743C365.632,32.859,365.673,30.075,363.089,30.075 M358.098,30.251h-1.074
		c-0.381,0.368-1.278,1.168-1.591,1.328v1.408l1.414-1.12v9.488h1.251V30.251z M353.338,43.243c-0.449-2.24-0.857-4.528-0.857-6.848
		c0-2.416,0.408-4.801,0.912-7.137h-0.83c-0.611,2.32-1.359,4.608-1.359,7.072c0,2.384,0.748,4.656,1.346,6.912H353.338z
		 M346.797,41.355v-5.601c0-1.6-0.367-2.64-1.836-2.64c-0.884,0-1.401,0.288-1.836,1.2h-0.056v-1.04h-1.183
		c0.041,0.56,0.068,1.12,0.068,1.68v6.4h1.114v-4.784c0-1.104,0.178-2.384,1.401-2.384c0.952,0,1.211,0.703,1.211,1.567v5.601
		H346.797z M337.712,41.515c1.455,0,2.611-0.512,2.611-4.079c0-2.368-0.231-4.32-2.611-4.32s-2.611,1.952-2.611,4.32
		C335.101,41.003,336.257,41.515,337.712,41.515 M337.712,40.443c-1.156,0-1.442-0.944-1.442-3.568c0-2.208,0.585-2.688,1.442-2.688
		c0.856,0,1.441,0.479,1.441,2.688C339.153,39.499,338.868,40.443,337.712,40.443 M332.313,31.211h1.251v-1.408h-1.251V31.211z
		 M333.496,33.275h-1.115v8.08h1.115V33.275z M327.757,33.275v0.992h1.129v5.743c0,0.929,0.476,1.44,1.537,1.44
		c0.367,0,0.734-0.096,1.101-0.128v-1.008c-0.245,0.031-0.421,0.063-0.503,0.063c-1.02,0-1.02-0.656-1.02-1.168v-4.943h1.496v-0.992
		h-1.496v-2.145l-1.115,0.592v1.553H327.757z M325.635,41.355h1.224c-0.081-0.624-0.136-1.28-0.136-1.92v-3.889
		c0-1.359-0.462-2.432-2.229-2.432c-1.455,0-2.271,0.624-2.326,2.432h1.211c-0.068-0.848,0.326-1.439,1.074-1.439
		c1.196,0,1.183,1.168,1.155,2.239c-1.563-0.048-3.604,0.064-3.604,2.513c0,1.552,0.422,2.655,1.877,2.655
		c0.857,0,1.387-0.399,1.727-1.327h0.027V41.355z M325.607,37.339c0.109,2.608-0.733,3.104-1.414,3.104
		c-0.748,0-1.074-0.704-1.074-1.488C323.119,37.243,324.547,37.355,325.607,37.339 M318.863,33.275h-1.115v8.08h1.115v-4.769
		c0-1.088,0.313-2.191,1.55-2.191c0.108,0,0.204,0.016,0.299,0.031c0.096,0.017,0.204,0.032,0.3,0.049v-1.36
		c-1.088,0-1.66,0.144-2.122,1.376h-0.026V33.275z M313.056,33.275v0.992h1.128v5.743c0,0.929,0.477,1.44,1.537,1.44
		c0.367,0,0.735-0.096,1.103-0.128v-1.008c-0.245,0.031-0.423,0.063-0.504,0.063c-1.02,0-1.02-0.656-1.02-1.168v-4.943h1.496v-0.992
		H315.3v-2.145l-1.116,0.592v1.553H313.056z M312.58,39.051c0-2.464-3.428-2.432-3.428-3.855c0-0.704,0.463-1.088,1.061-1.088
		c0.708,0,1.088,0.447,1.075,1.296h1.236c0.097-1.601-0.951-2.288-2.176-2.288c-1.931,0-2.366,1.36-2.366,2.208
		c0,2.416,3.428,2.448,3.428,3.888c0,0.832-0.518,1.232-1.184,1.232c-1.129,0-1.142-1.088-1.142-1.553h-1.266
		c-0.041,1.856,0.885,2.624,2.366,2.624C311.546,41.515,312.58,40.827,312.58,39.051 M305.182,31.211h1.251v-1.408h-1.251V31.211z
		 M306.365,33.275h-1.115v8.08h1.115V33.275z M302.244,34.268h-0.027c-0.313-0.784-0.884-1.152-1.605-1.152
		c-0.558,0-2.148,0.24-2.148,3.952c0,2.399,0.367,4.288,2.23,4.288c0.599,0,1.225-0.368,1.51-1.009h0.041v1.681
		c0,0.832-0.422,1.392-1.197,1.392c-0.612,0-1.033-0.416-1.047-1.168h-1.251c-0.096,1.488,0.938,2.16,2.081,2.16
		c1.509,0,2.528-0.432,2.528-2.24v-8.896h-1.114V34.268z M302.271,37.275c0,1.12,0.041,2.992-1.305,2.992
		c-0.83,0-1.333-0.608-1.333-3.2c0-1.072,0.041-2.864,1.305-2.864C302.339,34.203,302.271,36.075,302.271,37.275 M296.898,37.739
		v-0.688c0-2.672-0.488-3.936-2.447-3.936c-2.381,0-2.611,1.952-2.611,4.32c0,3.567,1.156,4.079,2.611,4.079
		c1.441,0,2.379-0.815,2.394-2.607h-1.224c-0.041,0.815-0.436,1.536-1.197,1.536c-0.87,0-1.387-0.448-1.387-2.704H296.898z
		 M293.037,36.747c0.013-2.24,0.598-2.64,1.305-2.64c0.816,0,1.374,0.288,1.374,2.64H293.037z M287.338,36.043
		c0.422,0,1.388,0.064,1.482,1.472c0.109,1.536,0.027,3.04,0.381,3.841h1.306c-0.19-0.721-0.326-2.528-0.34-3.024
		c-0.068-2.32-0.476-2.768-1.604-2.976v-0.032c1.155-0.24,1.795-1.28,1.795-2.64c0-1.44-0.611-2.881-2.353-2.881h-3.388v11.553
		h1.252v-5.313H287.338z M285.869,31.083h1.891c0.966,0,1.318,0.928,1.318,1.76c0,1.009-0.435,1.92-1.332,1.92h-1.877V31.083z
		 M276.16,33.275h-1.293l2.326,8.08l-0.775,3.056h1.156l3.113-11.136h-1.21l-1.646,6.576h-0.027L276.16,33.275z M271.087,33.275
		v0.992h1.129v5.743c0,0.929,0.476,1.44,1.536,1.44c0.367,0,0.734-0.096,1.102-0.128v-1.008c-0.244,0.031-0.422,0.063-0.503,0.063
		c-1.021,0-1.021-0.656-1.021-1.168v-4.943h1.496v-0.992h-1.496v-2.145l-1.114,0.592v1.553H271.087z M268.855,33.275h-1.115v8.08
		h1.115v-4.769c0-1.088,0.313-2.191,1.551-2.191c0.109,0,0.205,0.016,0.299,0.031c0.096,0.017,0.205,0.032,0.3,0.049v-1.36
		c-1.088,0-1.659,0.144-2.121,1.376h-0.028V33.275z M265.986,37.739v-0.688c0-2.672-0.49-3.936-2.447-3.936
		c-2.381,0-2.611,1.952-2.611,4.32c0,3.567,1.156,4.079,2.611,4.079c1.441,0,2.38-0.815,2.393-2.607h-1.224
		c-0.04,0.815-0.435,1.536-1.196,1.536c-0.871,0-1.388-0.448-1.388-2.704H265.986z M262.124,36.747
		c0.014-2.24,0.599-2.64,1.306-2.64c0.816,0,1.374,0.288,1.374,2.64H262.124z M255.583,33.275h-1.115v11.136h1.115v-3.872h0.041
		c0.38,0.64,0.856,0.976,1.509,0.976c2.217,0,2.271-2.319,2.271-4.336c0-3.552-1.115-4.063-2.217-4.063
		c-0.721,0-1.197,0.368-1.578,1.12h-0.026V33.275z M256.875,40.443c-1.238,0-1.292-1.712-1.292-2.784
		c0-1.232-0.123-3.472,1.251-3.472c1.4,0,1.4,1.775,1.4,2.991C258.234,39.339,258.072,40.443,256.875,40.443 M250.129,41.515
		c1.455,0,2.611-0.512,2.611-4.079c0-2.368-0.231-4.32-2.611-4.32s-2.611,1.952-2.611,4.32
		C247.518,41.003,248.674,41.515,250.129,41.515 M250.129,40.443c-1.156,0-1.441-0.944-1.441-3.568c0-2.208,0.584-2.688,1.441-2.688
		s1.441,0.479,1.441,2.688C251.57,39.499,251.285,40.443,250.129,40.443 M244.472,33.275h-1.114v8.08h1.114v-4.769
		c0-1.088,0.313-2.191,1.55-2.191c0.109,0,0.204,0.016,0.299,0.031c0.097,0.017,0.205,0.032,0.301,0.049v-1.36
		c-1.088,0-1.66,0.144-2.122,1.376h-0.027V33.275z M237.427,41.355v-5.088h1.646c1.006,0,2.748-0.545,2.748-3.169
		c0-2.72-1.416-3.296-2.734-3.296h-2.91v11.553H237.427z M237.427,31.083h1.728c0.271,0,1.387,0.176,1.387,1.937
		c0,1.808-1.225,1.968-1.74,1.968h-1.374V31.083z"/>
	<path clip-path="url(#SVGID_10_)" fill="#FFFFFF" d="M430.306,8.803h-1.114v11.553h1.114V8.803z M426.09,20.355h1.225
		c-0.082-0.624-0.137-1.28-0.137-1.92v-3.889c0-1.359-0.463-2.432-2.23-2.432c-1.455,0-2.271,0.624-2.325,2.432h1.21
		c-0.068-0.848,0.327-1.439,1.075-1.439c1.195,0,1.183,1.168,1.155,2.239c-1.563-0.048-3.604,0.064-3.604,2.513
		c0,1.552,0.421,2.655,1.876,2.655c0.857,0,1.388-0.399,1.728-1.327h0.027V20.355z M426.063,16.339
		c0.108,2.608-0.734,3.104-1.414,3.104c-0.748,0-1.074-0.704-1.074-1.488C423.574,16.243,425.002,16.355,426.063,16.339
		 M419.562,17.635c0,1.345-0.747,1.872-1.347,1.872c-0.788,0-1.169-0.655-1.169-1.632v-5.6h-1.115v6.16
		c0,1.376,0.652,2.079,1.85,2.079c0.721,0,1.374-0.399,1.741-1.136h0.04v0.977h1.184c-0.041-0.561-0.068-1.12-0.068-1.681v-6.399
		h-1.115V17.635z M411.239,12.275v0.992h1.128v5.743c0,0.929,0.476,1.44,1.537,1.44c0.367,0,0.734-0.096,1.102-0.128v-1.008
		c-0.245,0.031-0.422,0.063-0.503,0.063c-1.02,0-1.02-0.656-1.02-1.168v-4.943h1.495v-0.992h-1.495v-2.145l-1.116,0.592v1.553
		H411.239z M410.327,14.867c0.067-1.808-0.734-2.752-2.108-2.752c-2.38,0-2.61,1.952-2.61,4.32c0,3.567,1.155,4.079,2.61,4.079
		c0.763,0,2.204-0.575,2.163-2.848h-1.17c0.041,1.456-0.734,1.776-0.993,1.776c-1.156,0-1.44-0.944-1.44-3.568
		c0-2.208,0.585-2.688,1.44-2.688c0.422,0,0.98,0.352,0.952,1.68H410.327z M403.867,16.739v-0.688c0-2.672-0.489-3.936-2.448-3.936
		c-2.38,0-2.611,1.952-2.611,4.32c0,3.567,1.156,4.079,2.611,4.079c1.442,0,2.38-0.815,2.394-2.607h-1.224
		c-0.041,0.815-0.435,1.536-1.197,1.536c-0.869,0-1.387-0.448-1.387-2.704H403.867z M400.005,15.747
		c0.014-2.24,0.598-2.64,1.306-2.64c0.816,0,1.373,0.288,1.373,2.64H400.005z M397.122,8.803h-1.115v11.553h1.115V8.803z
		 M394.239,8.803h-1.115v11.553h1.115V8.803z M391.437,16.739v-0.688c0-2.672-0.488-3.936-2.447-3.936
		c-2.38,0-2.611,1.952-2.611,4.32c0,3.567,1.156,4.079,2.611,4.079c1.441,0,2.38-0.815,2.394-2.607h-1.224
		c-0.041,0.815-0.436,1.536-1.197,1.536c-0.87,0-1.387-0.448-1.387-2.704H391.437z M387.575,15.747
		c0.014-2.24,0.598-2.64,1.306-2.64c0.816,0,1.373,0.288,1.373,2.64H387.575z M381.836,12.275v0.992h1.129v5.743
		c0,0.929,0.477,1.44,1.536,1.44c0.368,0,0.735-0.096,1.102-0.128v-1.008c-0.244,0.031-0.422,0.063-0.503,0.063
		c-1.02,0-1.02-0.656-1.02-1.168v-4.943h1.496v-0.992h-1.496v-2.145l-1.115,0.592v1.553H381.836z M381.02,20.355v-5.601
		c0-1.6-0.366-2.64-1.836-2.64c-0.884,0-1.4,0.288-1.836,1.2h-0.055v-1.04h-1.183c0.041,0.56,0.067,1.12,0.067,1.68v6.4h1.115
		v-4.784c0-1.104,0.177-2.384,1.401-2.384c0.952,0,1.211,0.703,1.211,1.567v5.601H381.02z M374.07,8.803h-1.251v11.553h1.251V8.803z
		 M367.828,20.355v-5.601c0-1.6-0.367-2.64-1.836-2.64c-0.884,0-1.401,0.288-1.836,1.2h-0.055v-1.04h-1.183
		c0.04,0.56,0.068,1.12,0.068,1.68v6.4h1.114v-4.784c0-1.104,0.178-2.384,1.401-2.384c0.951,0,1.21,0.703,1.21,1.567v5.601H367.828z
		 M359.954,13.268h-0.028c-0.312-0.784-0.884-1.152-1.604-1.152c-0.559,0-2.149,0.24-2.149,3.952c0,2.399,0.367,4.288,2.23,4.288
		c0.599,0,1.224-0.368,1.51-1.009h0.041v1.681c0,0.832-0.422,1.392-1.197,1.392c-0.612,0-1.034-0.416-1.047-1.168h-1.251
		c-0.096,1.488,0.938,2.16,2.08,2.16c1.51,0,2.53-0.432,2.53-2.24v-8.896h-1.115V13.268z M359.981,16.275
		c0,1.12,0.041,2.992-1.307,2.992c-0.829,0-1.333-0.608-1.333-3.2c0-1.072,0.041-2.864,1.307-2.864
		C360.049,13.203,359.981,15.075,359.981,16.275 M353.344,10.211h1.251V8.803h-1.251V10.211z M354.528,12.275h-1.115v8.08h1.115
		V12.275z M351.726,16.739v-0.688c0-2.672-0.489-3.936-2.447-3.936c-2.38,0-2.611,1.952-2.611,4.32c0,3.567,1.156,4.079,2.611,4.079
		c1.44,0,2.38-0.815,2.394-2.607h-1.224c-0.041,0.815-0.437,1.536-1.197,1.536c-0.871,0-1.387-0.448-1.387-2.704H351.726z
		 M347.864,15.747c0.013-2.24,0.598-2.64,1.305-2.64c0.816,0,1.374,0.288,1.374,2.64H347.864z M343.539,12.275h-1.115v8.08h1.115
		v-4.769c0-1.088,0.313-2.191,1.55-2.191c0.109,0,0.204,0.016,0.299,0.031c0.097,0.017,0.204,0.032,0.3,0.049v-1.36
		c-1.088,0-1.659,0.144-2.121,1.376h-0.027V12.275z M338.14,20.515c1.455,0,2.611-0.512,2.611-4.079c0-2.368-0.231-4.32-2.611-4.32
		s-2.611,1.952-2.611,4.32C335.528,20.003,336.684,20.515,338.14,20.515 M338.14,19.443c-1.155,0-1.441-0.944-1.441-3.568
		c0-2.208,0.585-2.688,1.441-2.688s1.441,0.479,1.441,2.688C339.581,18.499,339.296,19.443,338.14,19.443 M331.095,20.355v-5.28
		h3.428v-1.28h-3.428v-3.712h3.618v-1.28h-4.869v11.553H331.095z M323.901,13.091h-0.041c-0.382-0.64-0.857-0.976-1.511-0.976
		c-2.216,0-2.271,2.32-2.271,4.336c0,3.552,1.115,4.063,2.217,4.063c0.721,0,1.197-0.367,1.578-1.119h0.027v0.96h1.114V8.803h-1.114
		V13.091z M323.901,15.987c0,1.632,0,3.456-1.251,3.456c-1.401,0-1.401-1.76-1.401-2.977c0-2.16,0.163-3.279,1.36-3.279
		C323.846,13.188,323.901,14.915,323.901,15.987 M318.447,20.355v-5.601c0-1.6-0.367-2.64-1.836-2.64
		c-0.885,0-1.401,0.288-1.836,1.2h-0.055v-1.04h-1.183c0.04,0.56,0.068,1.12,0.068,1.68v6.4h1.114v-4.784
		c0-1.104,0.178-2.384,1.401-2.384c0.952,0,1.21,0.703,1.21,1.567v5.601H318.447z M310.478,20.355h1.225
		c-0.082-0.624-0.136-1.28-0.136-1.92v-3.889c0-1.359-0.464-2.432-2.231-2.432c-1.455,0-2.271,0.624-2.325,2.432h1.21
		c-0.067-0.848,0.326-1.439,1.074-1.439c1.197,0,1.184,1.168,1.156,2.239c-1.564-0.048-3.604,0.064-3.604,2.513
		c0,1.552,0.422,2.655,1.877,2.655c0.857,0,1.388-0.399,1.728-1.327h0.027V20.355z M310.45,16.339
		c0.108,2.608-0.734,3.104-1.414,3.104c-0.748,0-1.074-0.704-1.074-1.488C307.962,16.243,309.39,16.355,310.45,16.339
		 M302.141,14.867c0.068-1.808-0.733-2.752-2.107-2.752c-2.381,0-2.611,1.952-2.611,4.32c0,3.567,1.156,4.079,2.611,4.079
		c0.762,0,2.203-0.575,2.162-2.848h-1.169c0.041,1.456-0.735,1.776-0.993,1.776c-1.156,0-1.442-0.944-1.442-3.568
		c0-2.208,0.585-2.688,1.442-2.688c0.422,0,0.979,0.352,0.952,1.68H302.141z M294.416,10.211h1.251V8.803h-1.251V10.211z
		 M295.6,12.275h-1.115v8.08h1.115V12.275z M289.859,12.275v0.992h1.129v5.743c0,0.929,0.477,1.44,1.537,1.44
		c0.367,0,0.734-0.096,1.103-0.128v-1.008c-0.245,0.031-0.422,0.063-0.504,0.063c-1.021,0-1.021-0.656-1.021-1.168v-4.943h1.496
		v-0.992h-1.496v-2.145l-1.115,0.592v1.553H289.859z M289.385,18.051c0-2.464-3.428-2.432-3.428-3.855
		c0-0.704,0.463-1.088,1.061-1.088c0.707,0,1.088,0.447,1.075,1.296h1.237c0.095-1.601-0.952-2.288-2.176-2.288
		c-1.932,0-2.366,1.36-2.366,2.208c0,2.416,3.427,2.448,3.427,3.888c0,0.832-0.517,1.232-1.183,1.232
		c-1.13,0-1.144-1.088-1.144-1.553h-1.264c-0.041,1.856,0.884,2.624,2.366,2.624C288.352,20.515,289.385,19.827,289.385,18.051
		 M283.251,16.739v-0.688c0-2.672-0.49-3.936-2.448-3.936c-2.38,0-2.611,1.952-2.611,4.32c0,3.567,1.156,4.079,2.611,4.079
		c1.442,0,2.381-0.815,2.395-2.607h-1.225c-0.041,0.815-0.436,1.536-1.197,1.536c-0.871,0-1.387-0.448-1.387-2.704H283.251z
		 M279.389,15.747c0.014-2.24,0.598-2.64,1.305-2.64c0.816,0,1.375,0.288,1.375,2.64H279.389z M273.105,20.355v-5.44
		c0-0.304,0.055-1.104,0.381-1.424c0.3-0.288,0.422-0.304,0.844-0.304c0.896,0,1.088,0.752,1.088,1.567v5.601h1.115v-6.145
		c0-1.904-1.156-2.096-1.877-2.096c-0.625,0-1.252,0.176-1.633,1.04c-0.258-0.736-0.979-1.04-1.604-1.04
		c-0.802,0-1.387,0.304-1.713,1.168h-0.026v-1.008h-1.185c0.041,0.56,0.067,1.12,0.067,1.68v6.4h1.117v-5.44
		c0-0.304,0.053-0.784,0.258-1.184c0.162-0.305,0.625-0.544,0.965-0.544c0.897,0,1.088,0.752,1.088,1.567v5.601H273.105z
		 M264.374,20.515c1.456,0,2.612-0.512,2.612-4.079c0-2.368-0.231-4.32-2.612-4.32c-2.38,0-2.61,1.952-2.61,4.32
		C261.764,20.003,262.919,20.515,264.374,20.515 M264.374,19.443c-1.156,0-1.44-0.944-1.44-3.568c0-2.208,0.584-2.688,1.44-2.688
		s1.442,0.479,1.442,2.688C265.816,18.499,265.531,19.443,264.374,19.443 M253.93,20.355h2.258c1.713,0,2.707-0.496,3.236-1.488
		c0.408-0.769,0.6-2.192,0.6-4.656c0-0.368-0.041-2.672-0.437-3.647c-0.489-1.232-1.387-1.761-2.638-1.761h-3.02V20.355z
		 M255.182,10.083h1.646c1.305,0,1.917,0.864,1.917,3.2v2.336c0,2.688-0.639,3.456-2.381,3.456h-1.182V10.083z"/>
	<path clip-path="url(#SVGID_10_)" d="M86.996,64.428v5.417c0,0.93,0.359,1.469,1.573,1.469c0.285,0,0.585-0.016,0.855-0.046V70.49
		c-0.195,0.029-0.405,0.045-0.705,0.045c-0.72,0-0.825-0.24-0.825-1.245v-4.862h1.53V63.71h-1.53v-1.95l-0.898,0.391v1.56h-1.215
		v0.718H86.996z M85.194,65.883c0.075-1.59-0.808-2.323-2.114-2.323c-1.036,0-1.891,0.39-2.28,1.469
		c-0.194,0.569-0.224,1.756-0.224,2.506c0,1.875,0,3.898,2.564,3.898c0.705,0,2.144-0.344,2.069-2.384h-0.898
		c-0.045,0.916-0.195,1.666-1.381,1.666c-1.396,0-1.396-1.815-1.396-3.181c0-1.005,0.09-2.041,0.21-2.386
		c0.195-0.556,0.66-0.87,1.216-0.87c1.035,0,1.381,0.66,1.336,1.604H85.194z M75.264,66.965c0-1.681,0.27-2.687,1.711-2.687
		c1.441,0,1.711,1.006,1.711,2.687H75.264z M79.584,67.683c0-2.249,0-4.123-2.609-4.123c-1.696,0-2.609,1.004-2.609,3.195v1.859
		c0,2.295,1.303,2.818,2.609,2.818c1.516,0,2.504-0.628,2.609-2.459h-0.943c0.015,1.021-0.54,1.741-1.666,1.741
		c-1.426,0-1.711-1.396-1.711-2.447v-0.585H79.584z M72.894,60.455h-1.108v1.138h1.108V60.455z M71.891,63.71v8.475
		c0,0.99-0.12,1.29-1.23,1.216v0.748c0.075,0.029,0.33,0.06,0.66,0.06c1.289,0,1.468-0.973,1.468-1.528v-8.97H71.891z
		 M67.585,64.278c1.486,0,1.711,1.245,1.711,3.211c0,1.98-0.225,3.226-1.711,3.226c-1.485,0-1.711-1.245-1.711-3.226
		C65.874,65.523,66.1,64.278,67.585,64.278 M67.585,71.433c1.771,0,2.609-1.152,2.609-3.118v-1.636c0-1.966-0.838-3.119-2.609-3.119
		c-1.77,0-2.609,1.153-2.609,3.119v1.636C64.976,70.28,65.815,71.433,67.585,71.433 M62.259,63.71h-0.898v7.573h0.898v-4.874
		c0-1.276,0.84-2.041,2.115-1.937V63.56c-0.915,0-1.71,0.449-2.085,1.168h-0.03V63.71z M55.84,63.71h-0.868v10.438h0.898V70.43
		l0.03,0.016c0.465,0.719,1.02,0.987,1.576,0.987c1.935,0,2.609-1.152,2.609-3.117V66.62c0-0.992-0.015-3.061-2.384-3.061
		c-0.601,0-1.351,0.314-1.831,1.049l-0.03,0.015V63.71z M55.87,66.814c0-1.876,1.02-2.536,1.606-2.536
		c1.485,0,1.711,1.245,1.711,3.211c0,1.98-0.226,3.226-1.711,3.226c-0.826,0-1.606-0.825-1.606-2.551V66.814z M46.45,71.283v-4.755
		c0-1.695,0.826-2.25,1.636-2.25c1.051,0,1.396,0.824,1.396,1.71v5.295h0.898v-5.34c0-0.99-0.194-2.384-2.069-2.384
		c-0.81,0-1.396,0.449-1.831,1.078h-0.03v-4.183h-0.898v10.828H46.45z M44.29,65.883c0.075-1.59-0.808-2.323-2.114-2.323
		c-1.035,0-1.89,0.39-2.279,1.469c-0.195,0.569-0.225,1.756-0.225,2.506c0,1.875,0,3.898,2.564,3.898
		c0.706,0,2.144-0.344,2.069-2.384h-0.898c-0.045,0.916-0.195,1.666-1.381,1.666c-1.396,0-1.396-1.815-1.396-3.181
		c0-1.005,0.09-2.041,0.21-2.386c0.196-0.556,0.661-0.87,1.216-0.87c1.036,0,1.381,0.66,1.336,1.604H44.29z M37.105,63.71h-0.898
		v7.573h0.898v-4.874c0-1.276,0.84-2.041,2.115-1.937V63.56c-0.915,0-1.71,0.449-2.085,1.168h-0.03V63.71z M33.702,71.283h0.929
		c-0.09-0.885-0.09-1.365-0.09-1.905v-3.809c0-1.935-1.589-2.01-2.355-2.01c-1.32,0-2.444,0.568-2.519,2.024h0.958
		c0-0.901,0.661-1.306,1.486-1.306c1.201,0,1.531,0.676,1.531,1.786v0.631c-1.531,0.12-4.2-0.15-4.2,2.504
		c0,1.32,0.734,2.233,2.084,2.233c0.931,0,1.666-0.358,2.146-1.077h0.03V71.283z M33.642,68.794c0,0.99-0.84,1.921-1.876,1.921
		c-0.93,0-1.366-0.706-1.366-1.561c0-1.847,1.952-1.696,3.242-1.741V68.794z M24.131,66.965c0-1.681,0.27-2.687,1.711-2.687
		c1.44,0,1.711,1.006,1.711,2.687H24.131z M28.451,67.683c0-2.249,0-4.123-2.609-4.123c-1.696,0-2.609,1.004-2.609,3.195v1.859
		c0,2.295,1.303,2.818,2.609,2.818c1.515,0,2.504-0.628,2.609-2.459h-0.943c0.015,1.021-0.541,1.741-1.666,1.741
		c-1.426,0-1.711-1.396-1.711-2.447v-0.585H28.451z M22.136,69.289c0-2.535-3.405-2.025-3.405-3.916c0-0.675,0.51-1.095,1.156-1.095
		c1.02,0,1.276,0.51,1.321,1.47h0.883c0-1.155-0.479-2.188-1.979-2.188c-1.321,0-2.279,0.494-2.279,1.889
		c0,2.506,3.405,1.996,3.405,3.976c0,0.841-0.421,1.336-1.291,1.336c-1.156,0-1.396-0.689-1.396-1.726h-0.913
		c-0.015,1.605,0.628,2.398,2.264,2.398C21.313,71.433,22.136,70.715,22.136,69.289 M12.236,66.965c0-1.681,0.27-2.687,1.711-2.687
		s1.711,1.006,1.711,2.687H12.236z M16.556,67.683c0-2.249,0-4.123-2.609-4.123c-1.696,0-2.609,1.004-2.609,3.195v1.859
		c0,2.295,1.303,2.818,2.609,2.818c1.516,0,2.504-0.628,2.609-2.459h-0.943c0.015,1.021-0.54,1.741-1.666,1.741
		c-1.426,0-1.711-1.396-1.711-2.447v-0.585H16.556z M5.396,61.263h1.966c1.126,0,1.711,0.285,1.711,1.771
		c0,1.815-0.675,2.19-2.116,2.19H5.396V61.263z M7.212,66.033c2.085,0,1.771,2.085,1.786,2.55c0.015,0.585,0.06,2.385,0.15,2.7
		h0.913c-0.03-0.42-0.105-0.84-0.105-1.26c0-3.87-0.09-4.051-1.603-4.364v-0.03c1.453-0.329,1.678-1.229,1.678-2.58
		c0-1.906-0.524-2.594-2.609-2.594H4.438v10.828h0.958v-5.25H7.212z"/>
	<path clip-path="url(#SVGID_10_)" d="M318.802,69.289c0-2.535-3.404-2.025-3.404-3.916c0-0.675,0.51-1.095,1.155-1.095
		c1.021,0,1.276,0.51,1.321,1.47h0.883c0-1.155-0.479-2.188-1.979-2.188c-1.321,0-2.279,0.494-2.279,1.889
		c0,2.506,3.405,1.996,3.405,3.976c0,0.841-0.421,1.336-1.291,1.336c-1.156,0-1.396-0.689-1.396-1.726h-0.913
		c-0.015,1.605,0.628,2.398,2.265,2.398C317.979,71.433,318.802,70.715,318.802,69.289 M311.229,64.428v5.417
		c0,0.93,0.358,1.469,1.572,1.469c0.285,0,0.585-0.016,0.855-0.046V70.49c-0.195,0.029-0.405,0.045-0.705,0.045
		c-0.72,0-0.825-0.24-0.825-1.246v-4.861h1.53V63.71h-1.53v-1.95l-0.897,0.391v1.56h-1.216v0.718H311.229z M305.228,66.528
		c0-1.695,0.825-2.25,1.636-2.25c1.051,0,1.396,0.824,1.396,1.71v5.295h0.898v-5.34c0-0.99-0.195-2.384-2.069-2.384
		c-0.81,0-1.396,0.449-1.831,1.078h-0.029V63.71h-0.898v7.573h0.898V66.528z M298.672,66.965c0-1.681,0.271-2.687,1.711-2.687
		c1.441,0,1.711,1.006,1.711,2.687H298.672z M302.992,67.683c0-2.249,0-4.123-2.609-4.123c-1.695,0-2.609,1.004-2.609,3.195v1.859
		c0,2.295,1.305,2.818,2.609,2.818c1.517,0,2.505-0.628,2.609-2.459h-0.943c0.016,1.021-0.54,1.741-1.666,1.741
		c-1.426,0-1.711-1.396-1.711-2.447v-0.585H302.992z M294.639,64.428v5.417c0,0.93,0.359,1.469,1.573,1.469
		c0.285,0,0.585-0.016,0.854-0.046V70.49c-0.194,0.029-0.404,0.045-0.704,0.045c-0.72,0-0.825-0.24-0.825-1.246v-4.861h1.529V63.71
		h-1.529v-1.95l-0.898,0.391v1.56h-1.215v0.718H294.639z M291.654,71.283h0.929c-0.09-0.885-0.09-1.365-0.09-1.905v-3.809
		c0-1.935-1.589-2.01-2.354-2.01c-1.32,0-2.444,0.568-2.52,2.024h0.959c0-0.901,0.66-1.306,1.484-1.306
		c1.201,0,1.531,0.676,1.531,1.786v0.631c-1.529,0.12-4.199-0.15-4.199,2.504c0,1.32,0.733,2.233,2.084,2.233
		c0.931,0,1.666-0.358,2.146-1.077h0.03V71.283z M291.594,68.794c0,0.99-0.84,1.921-1.875,1.921c-0.931,0-1.365-0.706-1.365-1.561
		c0-1.847,1.951-1.696,3.24-1.741V68.794z M282.278,63.71h-0.868v10.438h0.898V70.43l0.029,0.016
		c0.465,0.719,1.02,0.987,1.576,0.987c1.936,0,2.609-1.152,2.609-3.117V66.62c0-0.992-0.016-3.061-2.385-3.061
		c-0.601,0-1.351,0.314-1.83,1.049l-0.03,0.015V63.71z M282.309,66.814c0-1.876,1.02-2.536,1.605-2.536
		c1.484,0,1.711,1.245,1.711,3.211c0,1.98-0.227,3.226-1.711,3.226c-0.826,0-1.605-0.825-1.605-2.551V66.814z M277.088,65.883
		c0.075-1.59-0.808-2.323-2.113-2.323c-1.037,0-1.891,0.39-2.279,1.469c-0.195,0.569-0.225,1.756-0.225,2.506
		c0,1.875,0,3.898,2.563,3.898c0.706,0,2.144-0.344,2.069-2.384h-0.898c-0.045,0.916-0.195,1.666-1.381,1.666
		c-1.396,0-1.396-1.815-1.396-3.181c0-1.005,0.09-2.041,0.211-2.386c0.194-0.556,0.66-0.87,1.215-0.87
		c1.037,0,1.382,0.66,1.336,1.604H277.088z M271.088,60.455h-1.107v1.138h1.107V60.455z M270.982,63.71h-0.897v7.573h0.897V63.71z
		 M266.455,64.428v5.417c0,0.93,0.359,1.469,1.573,1.469c0.284,0,0.585-0.016,0.854-0.046V70.49
		c-0.195,0.029-0.404,0.045-0.705,0.045c-0.72,0-0.824-0.24-0.824-1.246v-4.861h1.529V63.71h-1.529v-1.95l-0.898,0.391v1.56h-1.215
		v0.718H266.455z M264.623,69.289c0-2.535-3.404-2.025-3.404-3.916c0-0.675,0.51-1.095,1.155-1.095c1.021,0,1.276,0.51,1.321,1.47
		h0.883c0-1.155-0.479-2.188-1.979-2.188c-1.321,0-2.279,0.494-2.279,1.889c0,2.506,3.404,1.996,3.404,3.976
		c0,0.841-0.42,1.336-1.291,1.336c-1.154,0-1.396-0.689-1.396-1.726h-0.913c-0.016,1.605,0.629,2.398,2.264,2.398
		C263.801,71.433,264.623,70.715,264.623,69.289 M254.725,66.965c0-1.681,0.27-2.687,1.711-2.687c1.439,0,1.711,1.006,1.711,2.687
		H254.725z M259.044,67.683c0-2.249,0-4.123-2.608-4.123c-1.696,0-2.609,1.004-2.609,3.195v1.859c0,2.295,1.303,2.818,2.609,2.818
		c1.515,0,2.504-0.628,2.608-2.459h-0.942c0.015,1.021-0.541,1.741-1.666,1.741c-1.426,0-1.711-1.396-1.711-2.447v-0.585H259.044z
		 M245.199,66.408c0-0.99,0.436-2.13,1.576-2.13c0.885,0,1.156,0.84,1.171,1.59v5.415h0.897v-4.875c0-0.99,0.436-2.13,1.576-2.13
		c0.885,0,1.156,0.84,1.172,1.59v5.415h0.897v-5.641c-0.045-1.215-0.704-2.083-1.964-2.083c-0.842,0-1.486,0.435-1.861,1.184
		c-0.254-0.749-0.943-1.184-1.725-1.184c-0.84,0-1.44,0.465-1.801,1.078h-0.029V63.71h-0.809v7.573h0.898V66.408z M240.37,64.278
		c1.485,0,1.711,1.245,1.711,3.211c0,1.98-0.226,3.226-1.711,3.226s-1.711-1.245-1.711-3.226
		C238.659,65.523,238.885,64.278,240.37,64.278 M240.37,71.433c1.771,0,2.608-1.152,2.608-3.118v-1.636
		c0-1.966-0.838-3.119-2.608-3.119s-2.608,1.153-2.608,3.119v1.636C237.762,70.28,238.6,71.433,240.37,71.433 M230.126,71.283h2.474
		c3.271,0,3.795-1.769,3.795-5.369c0-3.691-0.375-5.459-3.404-5.459h-2.864V71.283z M231.084,61.263h1.262
		c2.67,0,3.09,0.9,3.09,4.006c0,4.427-0.285,5.206-3.181,5.206h-1.171V61.263z"/>
	<path clip-path="url(#SVGID_10_)" d="M112.839,114.747v-4.756c0-1.695,0.826-2.25,1.636-2.25c1.051,0,1.396,0.824,1.396,1.711
		v5.295h0.898v-5.34c0-0.99-0.195-2.385-2.069-2.385c-0.81,0-1.396,0.449-1.831,1.078h-0.03v-4.182h-0.898v10.828H112.839z
		 M110.679,109.346c0.075-1.59-0.808-2.324-2.114-2.324c-1.035,0-1.89,0.391-2.279,1.469c-0.195,0.57-0.225,1.756-0.225,2.506
		c0,1.877,0,3.898,2.564,3.898c0.706,0,2.144-0.344,2.069-2.383h-0.898c-0.045,0.916-0.195,1.666-1.381,1.666
		c-1.396,0-1.396-1.816-1.396-3.182c0-1.004,0.09-2.041,0.21-2.385c0.195-0.557,0.661-0.871,1.216-0.871
		c1.036,0,1.381,0.66,1.336,1.605H110.679z M103.494,107.172h-0.898v7.574h0.898v-4.875c0-1.275,0.84-2.041,2.115-1.936v-0.914
		c-0.915,0-1.71,0.449-2.085,1.168h-0.03V107.172z M100.091,114.747h0.928c-0.09-0.885-0.09-1.365-0.09-1.906v-3.809
		c0-1.934-1.588-2.01-2.354-2.01c-1.32,0-2.444,0.57-2.519,2.025h0.958c0-0.902,0.661-1.307,1.486-1.307
		c1.201,0,1.531,0.676,1.531,1.787v0.631c-1.531,0.119-4.2-0.15-4.2,2.504c0,1.32,0.734,2.232,2.084,2.232
		c0.931,0,1.666-0.357,2.146-1.076h0.03V114.747z M100.031,112.256c0,0.99-0.84,1.922-1.876,1.922c-0.93,0-1.366-0.705-1.366-1.561
		c0-1.848,1.952-1.697,3.242-1.742V112.256z M90.52,110.428c0-1.682,0.27-2.688,1.711-2.688c1.44,0,1.711,1.006,1.711,2.688H90.52z
		 M94.84,111.145c0-2.248,0-4.123-2.609-4.123c-1.696,0-2.609,1.004-2.609,3.195v1.859c0,2.295,1.303,2.818,2.609,2.818
		c1.515,0,2.504-0.627,2.609-2.459h-0.943c0.015,1.021-0.541,1.742-1.666,1.742c-1.426,0-1.711-1.396-1.711-2.447v-0.586H94.84z
		 M88.525,112.752c0-2.535-3.405-2.025-3.405-3.916c0-0.676,0.51-1.096,1.156-1.096c1.02,0,1.276,0.51,1.321,1.471h0.883
		c0-1.156-0.479-2.189-1.979-2.189c-1.321,0-2.279,0.494-2.279,1.889c0,2.506,3.405,1.996,3.405,3.977
		c0,0.84-0.421,1.336-1.291,1.336c-1.156,0-1.396-0.689-1.396-1.727h-0.913c-0.015,1.605,0.628,2.398,2.264,2.398
		C87.701,114.895,88.525,114.178,88.525,112.752 M78.625,110.428c0-1.682,0.27-2.688,1.711-2.688s1.711,1.006,1.711,2.688H78.625z
		 M82.945,111.145c0-2.248,0-4.123-2.609-4.123c-1.696,0-2.609,1.004-2.609,3.195v1.859c0,2.295,1.303,2.818,2.609,2.818
		c1.516,0,2.504-0.627,2.609-2.459h-0.943c0.015,1.021-0.54,1.742-1.666,1.742c-1.426,0-1.711-1.396-1.711-2.447v-0.586H82.945z
		 M75.01,107.172h-0.898v7.574h0.898v-4.875c0-1.275,0.84-2.041,2.115-1.936v-0.914c-0.915,0-1.71,0.449-2.085,1.168h-0.03V107.172z
		"/>
	<path clip-path="url(#SVGID_10_)" d="M124.915,93.891v5.417c0,0.93,0.359,1.469,1.573,1.469c0.285,0,0.585-0.016,0.855-0.045
		v-0.777c-0.195,0.029-0.405,0.045-0.705,0.045c-0.72,0-0.825-0.24-0.825-1.246v-4.862h1.53v-0.718h-1.53v-1.95l-0.898,0.39v1.561
		H123.7v0.718H124.915z M118.913,95.991c0-1.695,0.826-2.25,1.636-2.25c1.051,0,1.396,0.825,1.396,1.711v5.295h0.898v-5.342
		c0-0.988-0.194-2.382-2.068-2.382c-0.811,0-1.396,0.449-1.832,1.078h-0.03v-0.928h-0.898v7.574h0.898V95.991z M112.359,96.428
		c0-1.682,0.27-2.688,1.711-2.688c1.44,0,1.711,1.006,1.711,2.688H112.359z M116.679,97.145c0-2.248,0-4.123-2.609-4.123
		c-1.696,0-2.609,1.004-2.609,3.195v1.859c0,2.297,1.303,2.818,2.609,2.818c1.515,0,2.504-0.627,2.609-2.459h-0.943
		c0.015,1.021-0.541,1.742-1.666,1.742c-1.426,0-1.711-1.396-1.711-2.447v-0.586H116.679z M109.316,100.747h0.868
		c-0.045-0.256-0.09-0.75-0.09-1.5v-9.329h-0.898v4.018l-0.03-0.015c-0.466-0.584-1.141-0.898-1.831-0.898
		c-2.324,0-2.324,2.474-2.324,3.929c0,1.771,0.12,3.943,2.309,3.943c0.885,0,1.456-0.373,1.921-1.092l0.03-0.016L109.316,100.747z
		 M107.56,100.178c-0.976,0-1.651-0.375-1.651-3.197c0-1.77,0-3.241,1.621-3.241c1.696,0,1.696,2.102,1.696,2.551v1.352
		C109.226,99.487,108.415,100.178,107.56,100.178 M99.834,95.991c0-1.695,0.826-2.25,1.636-2.25c1.051,0,1.396,0.825,1.396,1.711
		v5.295h0.898v-5.342c0-0.988-0.194-2.382-2.069-2.382c-0.81,0-1.396,0.449-1.831,1.078h-0.03v-0.928h-0.898v7.574h0.898V95.991z
		 M93.279,96.428c0-1.682,0.27-2.688,1.711-2.688c1.441,0,1.711,1.006,1.711,2.688H93.279z M97.599,97.145
		c0-2.248,0-4.123-2.609-4.123c-1.696,0-2.609,1.004-2.609,3.195v1.859c0,2.297,1.304,2.818,2.609,2.818
		c1.516,0,2.505-0.627,2.609-2.459h-0.943c0.015,1.021-0.54,1.742-1.666,1.742c-1.426,0-1.711-1.396-1.711-2.447v-0.586H97.599z
		 M87.115,93.173h-0.869v10.437h0.899v-3.717l0.03,0.014c0.465,0.721,1.02,0.988,1.575,0.988c1.936,0,2.61-1.152,2.61-3.117v-1.695
		c0-0.99-0.015-3.06-2.384-3.06c-0.601,0-1.351,0.314-1.831,1.048l-0.03,0.016V93.173z M87.145,96.276
		c0-1.875,1.02-2.536,1.605-2.536c1.486,0,1.711,1.247,1.711,3.211c0,1.98-0.225,3.227-1.711,3.227
		c-0.825,0-1.605-0.826-1.605-2.551V96.276z M80.56,96.428c0-1.682,0.27-2.688,1.711-2.688s1.711,1.006,1.711,2.688H80.56z
		 M84.88,97.145c0-2.248,0-4.123-2.609-4.123c-1.696,0-2.609,1.004-2.609,3.195v1.859c0,2.297,1.303,2.818,2.609,2.818
		c1.516,0,2.504-0.627,2.609-2.459h-0.943c0.015,1.021-0.541,1.742-1.666,1.742c-1.426,0-1.711-1.396-1.711-2.447v-0.586H84.88z
		 M77.517,100.747h0.868c-0.045-0.256-0.09-0.75-0.09-1.5v-9.329h-0.898v4.018l-0.03-0.015c-0.465-0.584-1.141-0.898-1.831-0.898
		c-2.324,0-2.324,2.474-2.324,3.929c0,1.771,0.12,3.943,2.309,3.943c0.885,0,1.456-0.373,1.921-1.092l0.03-0.016L77.517,100.747z
		 M75.761,100.178c-0.976,0-1.651-0.375-1.651-3.197c0-1.77,0-3.241,1.621-3.241c1.696,0,1.696,2.102,1.696,2.551v1.352
		C77.427,99.487,76.616,100.178,75.761,100.178 M68.035,95.991c0-1.695,0.826-2.25,1.636-2.25c1.051,0,1.396,0.825,1.396,1.711
		v5.295h0.898v-5.342c0-0.988-0.194-2.382-2.069-2.382c-0.81,0-1.395,0.449-1.831,1.078h-0.03v-0.928h-0.898v7.574h0.898V95.991z
		 M64.377,100.747h0.958V89.918h-0.958V100.747z"/>
	<path clip-path="url(#SVGID_10_)" d="M360.181,149.881c0-2.535-3.405-2.025-3.405-3.916c0-0.676,0.511-1.096,1.156-1.096
		c1.021,0,1.276,0.51,1.321,1.471h0.883c0-1.156-0.479-2.189-1.979-2.189c-1.321,0-2.279,0.494-2.279,1.889
		c0,2.506,3.405,1.996,3.405,3.977c0,0.84-0.42,1.336-1.291,1.336c-1.156,0-1.396-0.691-1.396-1.727h-0.913
		c-0.015,1.605,0.629,2.398,2.265,2.398C359.357,152.024,360.181,151.307,360.181,149.881 M352.607,145.02v5.416
		c0,0.93,0.359,1.469,1.573,1.469c0.285,0,0.585-0.016,0.855-0.045v-0.779c-0.195,0.031-0.405,0.045-0.705,0.045
		c-0.721,0-0.825-0.238-0.825-1.244v-4.861h1.53v-0.719h-1.53v-1.949l-0.898,0.389v1.561h-1.215v0.719H352.607z M346.605,147.12
		c0-1.695,0.826-2.25,1.637-2.25c1.051,0,1.396,0.824,1.396,1.709v5.295h0.898v-5.34c0-0.99-0.194-2.383-2.069-2.383
		c-0.81,0-1.395,0.449-1.831,1.078h-0.03v-0.928h-0.897v7.572h0.897V147.12z M340.052,147.557c0-1.682,0.271-2.688,1.711-2.688
		s1.71,1.006,1.71,2.688H340.052z M344.372,148.274c0-2.248,0-4.123-2.609-4.123c-1.696,0-2.61,1.004-2.61,3.195v1.859
		c0,2.295,1.305,2.818,2.61,2.818c1.515,0,2.504-0.627,2.609-2.459h-0.944c0.015,1.021-0.54,1.742-1.665,1.742
		c-1.426,0-1.711-1.396-1.711-2.447v-0.586H344.372z M336.018,145.02v5.416c0,0.93,0.36,1.469,1.574,1.469
		c0.285,0,0.585-0.016,0.855-0.045v-0.779c-0.195,0.031-0.405,0.045-0.705,0.045c-0.721,0-0.825-0.238-0.825-1.244v-4.861h1.53
		v-0.719h-1.53v-1.949l-0.899,0.389v1.561h-1.215v0.719H336.018z M333.034,151.874h0.928c-0.09-0.885-0.09-1.363-0.09-1.904v-3.809
		c0-1.934-1.589-2.01-2.354-2.01c-1.32,0-2.443,0.57-2.519,2.025h0.958c0-0.9,0.66-1.307,1.485-1.307c1.2,0,1.531,0.676,1.531,1.787
		v0.629c-1.531,0.121-4.2-0.148-4.2,2.504c0,1.322,0.733,2.234,2.083,2.234c0.932,0,1.666-0.359,2.147-1.078h0.03V151.874z
		 M332.974,149.385c0,0.99-0.841,1.922-1.876,1.922c-0.931,0-1.366-0.705-1.366-1.563c0-1.844,1.951-1.695,3.242-1.74V149.385z
		 M323.657,144.301h-0.868v10.438h0.897v-3.717l0.03,0.014c0.465,0.719,1.021,0.988,1.576,0.988c1.935,0,2.608-1.152,2.608-3.117
		v-1.695c0-0.99-0.015-3.061-2.384-3.061c-0.6,0-1.351,0.314-1.831,1.049l-0.029,0.014V144.301z M323.687,147.405
		c0-1.875,1.021-2.535,1.606-2.535c1.485,0,1.711,1.246,1.711,3.211c0,1.98-0.226,3.227-1.711,3.227
		c-0.826,0-1.606-0.826-1.606-2.553V147.405z"/>
	<path clip-path="url(#SVGID_10_)" d="M364.621,135.881c0-2.535-3.405-2.025-3.405-3.916c0-0.676,0.51-1.096,1.156-1.096
		c1.021,0,1.275,0.51,1.32,1.471h0.884c0-1.156-0.479-2.189-1.979-2.189c-1.321,0-2.279,0.494-2.279,1.889
		c0,2.506,3.405,1.996,3.405,3.977c0,0.84-0.42,1.336-1.291,1.336c-1.156,0-1.396-0.691-1.396-1.727h-0.913
		c-0.016,1.605,0.629,2.398,2.264,2.398C363.798,138.024,364.621,137.307,364.621,135.881 M357.933,137.874h0.928
		c-0.09-0.885-0.09-1.363-0.09-1.904v-3.809c0-1.934-1.588-2.01-2.354-2.01c-1.321,0-2.444,0.568-2.52,2.025h0.958
		c0-0.902,0.661-1.307,1.486-1.307c1.201,0,1.531,0.676,1.531,1.785v0.631c-1.531,0.121-4.2-0.148-4.2,2.504
		c0,1.322,0.734,2.234,2.084,2.234c0.931,0,1.666-0.359,2.146-1.078h0.03V137.874z M357.873,135.385c0,0.99-0.84,1.922-1.876,1.922
		c-0.931,0-1.366-0.705-1.366-1.563c0-1.846,1.951-1.695,3.242-1.74V135.385z M348.361,133.557c0-1.682,0.271-2.688,1.711-2.688
		s1.711,1.006,1.711,2.688H348.361z M352.682,134.274c0-2.248,0-4.123-2.609-4.123c-1.695,0-2.609,1.004-2.609,3.195v1.859
		c0,2.295,1.304,2.818,2.609,2.818c1.516,0,2.505-0.627,2.609-2.459h-0.943c0.015,1.021-0.54,1.742-1.666,1.742
		c-1.426,0-1.711-1.396-1.711-2.447v-0.586H352.682z M346.367,135.881c0-2.535-3.405-2.025-3.405-3.916
		c0-0.676,0.51-1.096,1.155-1.096c1.021,0,1.276,0.51,1.321,1.471h0.884c0-1.156-0.479-2.189-1.979-2.189
		c-1.321,0-2.279,0.494-2.279,1.889c0,2.506,3.405,1.996,3.405,3.977c0,0.84-0.421,1.336-1.291,1.336
		c-1.156,0-1.396-0.691-1.396-1.727h-0.913c-0.016,1.605,0.628,2.398,2.264,2.398C345.543,138.024,346.367,137.307,346.367,135.881
		 M339.212,130.301h-0.898v7.572h0.898V133c0-1.275,0.84-2.041,2.115-1.936v-0.914c-0.915,0-1.71,0.449-2.085,1.168h-0.03V130.301z
		 M332.597,133.557c0-1.682,0.271-2.688,1.711-2.688c1.441,0,1.711,1.006,1.711,2.688H332.597z M336.917,134.274
		c0-2.248,0-4.123-2.609-4.123c-1.696,0-2.608,1.004-2.608,3.195v1.859c0,2.295,1.303,2.818,2.608,2.818
		c1.517,0,2.504-0.627,2.609-2.459h-0.943c0.016,1.021-0.541,1.742-1.666,1.742c-1.426,0-1.711-1.396-1.711-2.447v-0.586H336.917z
		 M326.568,130.301h-0.975l2.249,7.572h1.035l2.249-7.572h-0.87l-1.844,6.436h-0.03L326.568,130.301z M318.304,132.461
		c0,2.926,0.03,5.623,3.27,5.623c3.238,0,3.269-2.697,3.269-5.623c0-2.928-0.03-5.625-3.269-5.625
		C318.334,126.836,318.304,129.534,318.304,132.461 M319.262,132.461c0-2.883,0.03-4.816,2.312-4.816
		c2.28,0,2.311,1.934,2.311,4.816c0,2.881-0.03,4.814-2.311,4.814C319.292,137.276,319.262,135.342,319.262,132.461"/>
	<path clip-path="url(#SVGID_10_)" d="M443.229,145.936c0.54,2.129,1.005,4.303,1.005,6.508c0,2.236-0.39,4.469-1.005,6.615h0.735
		c0.658-2.07,1.228-4.199,1.228-6.391c0-2.309-0.539-4.559-1.288-6.732H443.229z M441.952,155.084c0-2.535-3.404-2.025-3.404-3.916
		c0-0.676,0.51-1.096,1.155-1.096c1.021,0,1.276,0.51,1.321,1.471h0.883c0-1.154-0.479-2.188-1.979-2.188
		c-1.321,0-2.279,0.494-2.279,1.887c0,2.506,3.405,1.996,3.405,3.977c0,0.842-0.42,1.336-1.291,1.336
		c-1.156,0-1.396-0.689-1.396-1.727h-0.913c-0.015,1.607,0.63,2.4,2.265,2.4C441.13,157.229,441.952,156.51,441.952,155.084
		 M432.053,152.76c0-1.682,0.27-2.688,1.711-2.688c1.44,0,1.711,1.006,1.711,2.688H432.053z M436.372,153.479
		c0-2.25,0-4.123-2.608-4.123c-1.696,0-2.609,1.002-2.609,3.195v1.857c0,2.295,1.303,2.82,2.609,2.82
		c1.516,0,2.504-0.629,2.608-2.459h-0.942c0.015,1.02-0.54,1.74-1.666,1.74c-1.426,0-1.711-1.396-1.711-2.447v-0.584H436.372z
		 M429.622,146.25h-1.107v1.139h1.107V146.25z M429.518,149.506h-0.898v7.572h0.898V149.506z M425.92,150.448l-0.03-0.029
		c-0.33-0.674-1.095-1.063-1.861-1.063c-1.53,0-2.054,1.182-2.129,1.498c-0.209,0.809-0.224,0.824-0.224,2.58
		c0,1.68,0.148,3.555,2.322,3.555c0.722,0,1.441-0.27,1.832-0.914h0.03c0,2.266,0.104,3.211-1.65,3.211
		c-0.842,0-1.486-0.51-1.427-1.379h-0.897c-0.061,0.766,0.313,2.096,2.203,2.096c2.161,0,2.67-0.986,2.67-2.648v-6.365
		c0-0.391,0.015-0.764,0.045-1.482h-0.884V150.448z M424.164,150.073c0.841,0,1.696,0.602,1.696,2.191
		c0,2.221-0.061,2.564-0.286,3.15c-0.135,0.359-0.614,0.855-1.364,0.855c-1.637,0-1.637-1.576-1.637-3.15
		C422.573,151.993,422.604,150.073,424.164,150.073 M418.015,150.073c1.485,0,1.711,1.246,1.711,3.211
		c0,1.982-0.226,3.227-1.711,3.227c-1.486,0-1.711-1.244-1.711-3.227C416.304,151.319,416.528,150.073,418.015,150.073
		 M418.015,157.229c1.771,0,2.608-1.154,2.608-3.119v-1.635c0-1.967-0.838-3.119-2.608-3.119c-1.771,0-2.609,1.152-2.609,3.119
		v1.635C415.405,156.075,416.243,157.229,418.015,157.229 M413.769,146.25h-0.898v10.828h0.898V146.25z M408.624,150.073
		c1.486,0,1.712,1.246,1.712,3.211c0,1.982-0.226,3.227-1.712,3.227c-1.485,0-1.711-1.244-1.711-3.227
		C406.913,151.319,407.139,150.073,408.624,150.073 M408.624,157.229c1.771,0,2.609-1.154,2.609-3.119v-1.635
		c0-1.967-0.838-3.119-2.609-3.119c-1.771,0-2.608,1.152-2.608,3.119v1.635C406.016,156.075,406.854,157.229,408.624,157.229
		 M400.749,152.323c0-1.695,0.825-2.25,1.637-2.25c1.05,0,1.395,0.826,1.395,1.711v5.295h0.899v-5.34
		c0-0.99-0.195-2.383-2.069-2.383c-0.811,0-1.396,0.449-1.831,1.078h-0.03v-0.928h-0.898v7.572h0.898V152.323z M394.39,157.079
		v-4.756c0-1.695,0.825-2.25,1.636-2.25c1.05,0,1.396,0.826,1.396,1.711v5.295h0.897v-5.34c0-0.99-0.195-2.383-2.069-2.383
		c-0.811,0-1.396,0.449-1.83,1.078h-0.03v-4.184h-0.898v10.828H394.39z M392.229,151.678c0.075-1.59-0.808-2.322-2.114-2.322
		c-1.036,0-1.89,0.389-2.279,1.467c-0.194,0.57-0.225,1.756-0.225,2.506c0,1.877,0,3.9,2.564,3.9c0.705,0,2.144-0.344,2.068-2.385
		h-0.897c-0.045,0.916-0.195,1.666-1.381,1.666c-1.396,0-1.396-1.816-1.396-3.182c0-1.004,0.09-2.041,0.21-2.385
		c0.195-0.555,0.66-0.871,1.216-0.871c1.036,0,1.382,0.66,1.336,1.605H392.229z M382.3,152.76c0-1.682,0.27-2.688,1.711-2.688
		c1.44,0,1.711,1.006,1.711,2.688H382.3z M386.619,153.479c0-2.25,0-4.123-2.608-4.123c-1.696,0-2.609,1.002-2.609,3.195v1.857
		c0,2.295,1.303,2.82,2.609,2.82c1.516,0,2.504-0.629,2.608-2.459h-0.942c0.015,1.02-0.54,1.74-1.666,1.74
		c-1.426,0-1.711-1.396-1.711-2.447v-0.584H386.619z M378.267,150.223v5.418c0,0.928,0.358,1.467,1.573,1.467
		c0.284,0,0.585-0.014,0.854-0.045v-0.777c-0.195,0.029-0.405,0.045-0.705,0.045c-0.72,0-0.825-0.24-0.825-1.246v-4.861h1.53v-0.717
		h-1.53v-1.951l-0.897,0.391v1.561h-1.215v0.717H378.267z"/>
	<path clip-path="url(#SVGID_10_)" d="M427.823,138.323c0-1.695,0.825-2.25,1.636-2.25c1.051,0,1.396,0.826,1.396,1.711v5.295h0.897
		v-5.34c0-0.99-0.195-2.383-2.069-2.383c-0.81,0-1.396,0.449-1.83,1.078h-0.03v-0.928h-0.898v7.572h0.898V138.323z M421.269,138.76
		c0-1.682,0.27-2.688,1.711-2.688c1.44,0,1.711,1.006,1.711,2.688H421.269z M425.588,139.479c0-2.25,0-4.123-2.608-4.123
		c-1.696,0-2.609,1.002-2.609,3.195v1.857c0,2.295,1.303,2.82,2.609,2.82c1.516,0,2.504-0.629,2.608-2.459h-0.942
		c0.015,1.02-0.54,1.74-1.666,1.74c-1.427,0-1.711-1.396-1.711-2.447v-0.584H425.588z M414.908,138.76
		c0-1.682,0.271-2.688,1.711-2.688c1.441,0,1.711,1.006,1.711,2.688H414.908z M419.229,139.479c0-2.25,0-4.123-2.609-4.123
		c-1.696,0-2.609,1.002-2.609,3.195v1.857c0,2.295,1.305,2.82,2.609,2.82c1.516,0,2.505-0.629,2.609-2.459h-0.943
		c0.015,1.02-0.54,1.74-1.666,1.74c-1.425,0-1.711-1.396-1.711-2.447v-0.584H419.229z M411.293,135.506h-0.897v7.572h0.897v-4.875
		c0-1.275,0.84-2.041,2.115-1.936v-0.912c-0.915,0-1.71,0.449-2.085,1.168h-0.03V135.506z M407.936,136.448l-0.03-0.029
		c-0.33-0.674-1.095-1.063-1.861-1.063c-1.53,0-2.054,1.182-2.129,1.498c-0.21,0.809-0.225,0.824-0.225,2.58
		c0,1.68,0.149,3.555,2.323,3.555c0.722,0,1.441-0.27,1.831-0.914h0.03c0,2.266,0.105,3.211-1.65,3.211
		c-0.841,0-1.485-0.51-1.426-1.379H403.9c-0.061,0.766,0.314,2.096,2.204,2.096c2.16,0,2.67-0.986,2.67-2.648v-6.365
		c0-0.391,0.015-0.764,0.045-1.482h-0.884V136.448z M406.179,136.073c0.842,0,1.696,0.602,1.696,2.191
		c0,2.221-0.06,2.564-0.285,3.15c-0.135,0.359-0.615,0.855-1.365,0.855c-1.636,0-1.636-1.576-1.636-3.15
		C404.589,137.993,404.619,136.073,406.179,136.073 M398.034,135.506h-0.898v7.572h0.898v-4.875c0-1.275,0.84-2.041,2.115-1.936
		v-0.912c-0.915,0-1.71,0.449-2.085,1.168h-0.03V135.506z M393.13,136.073c1.486,0,1.711,1.246,1.711,3.211
		c0,1.982-0.225,3.227-1.711,3.227c-1.485,0-1.711-1.244-1.711-3.227C391.419,137.319,391.645,136.073,393.13,136.073
		 M393.13,143.229c1.771,0,2.609-1.154,2.609-3.119v-1.635c0-1.967-0.838-3.119-2.609-3.119c-1.771,0-2.608,1.152-2.608,3.119v1.635
		C390.521,142.075,391.359,143.229,393.13,143.229"/>
	<path clip-path="url(#SVGID_10_)" d="M433.27,130.731l4.272-12.48h-0.809l-4.259,12.48H433.27z M431.095,129.079h0.869
		c-0.046-0.256-0.091-0.75-0.091-1.5v-9.328h-0.898v4.018l-0.03-0.016c-0.465-0.584-1.14-0.896-1.831-0.896
		c-2.324,0-2.324,2.473-2.324,3.928c0,1.771,0.12,3.945,2.31,3.945c0.886,0,1.456-0.375,1.921-1.094l0.03-0.016L431.095,129.079z
		 M429.339,128.51c-0.976,0-1.65-0.375-1.65-3.195c0-1.771,0-3.242,1.62-3.242c1.695,0,1.695,2.102,1.695,2.551v1.352
		C431.004,127.821,430.194,128.51,429.339,128.51 M421.613,124.323c0-1.695,0.825-2.25,1.636-2.25c1.051,0,1.396,0.826,1.396,1.711
		v5.295h0.897v-5.34c0-0.99-0.194-2.383-2.068-2.383c-0.812,0-1.396,0.449-1.831,1.078h-0.03v-0.93h-0.897v7.574h0.897V124.323z
		 M418.271,129.079h0.928c-0.09-0.885-0.09-1.365-0.09-1.906v-3.809c0-1.934-1.589-2.008-2.354-2.008
		c-1.32,0-2.443,0.568-2.519,2.023h0.958c0-0.9,0.66-1.307,1.486-1.307c1.201,0,1.53,0.676,1.53,1.787v0.631
		c-1.53,0.119-4.199-0.15-4.199,2.504c0,1.32,0.732,2.234,2.084,2.234c0.93,0,1.666-0.359,2.146-1.078h0.03V129.079z
		 M418.21,126.588c0,0.99-0.841,1.922-1.876,1.922c-0.931,0-1.365-0.705-1.365-1.561c0-1.846,1.95-1.697,3.241-1.742V126.588z
		 M402.94,129.079h1.125l1.589-6.48h0.03l1.665,6.48h1.125l2.084-7.574h-0.9l-1.693,6.631h-0.03l-1.681-6.631h-1.109l-1.604,6.631
		h-0.029l-1.695-6.631h-0.96L402.94,129.079z M395.965,124.76c0-1.682,0.27-2.688,1.71-2.688s1.711,1.006,1.711,2.688H395.965z
		 M400.284,125.479c0-2.25,0-4.123-2.609-4.123c-1.695,0-2.609,1.002-2.609,3.195v1.857c0,2.295,1.304,2.82,2.609,2.82
		c1.516,0,2.505-0.629,2.609-2.459h-0.943c0.015,1.02-0.54,1.74-1.666,1.74c-1.426,0-1.71-1.396-1.71-2.447v-0.584H400.284z
		 M389.8,124.323c0-1.695,0.824-2.25,1.636-2.25c1.05,0,1.396,0.826,1.396,1.711v5.295h0.898v-5.34c0-0.99-0.195-2.383-2.069-2.383
		c-0.811,0-1.396,0.449-1.831,1.078H389.8v-0.93h-0.898v7.574h0.898V124.323z M386.709,117.936
		c-0.749,2.174-1.287,4.424-1.287,6.732c0,2.191,0.568,4.32,1.228,6.391h0.735c-0.615-2.146-1.006-4.379-1.006-6.615
		c0-2.205,0.466-4.379,1.006-6.508H386.709z"/>
	<path clip-path="url(#SVGID_10_)" d="M427.727,113.084c0-2.535-3.405-2.025-3.405-3.916c0-0.676,0.51-1.096,1.155-1.096
		c1.021,0,1.275,0.51,1.32,1.471h0.885c0-1.154-0.479-2.188-1.979-2.188c-1.321,0-2.28,0.494-2.28,1.887
		c0,2.506,3.405,1.996,3.405,3.979c0,0.84-0.42,1.334-1.291,1.334c-1.155,0-1.395-0.689-1.395-1.727h-0.914
		c-0.016,1.607,0.629,2.4,2.264,2.4C426.902,115.229,427.727,114.51,427.727,113.084 M420.571,107.504h-0.899v7.574h0.899v-4.875
		c0-1.275,0.84-2.041,2.115-1.936v-0.912c-0.915,0-1.71,0.449-2.085,1.168h-0.03V107.504z M413.956,110.76
		c0-1.682,0.271-2.688,1.711-2.688c1.441,0,1.711,1.006,1.711,2.688H413.956z M418.276,111.479c0-2.25,0-4.123-2.609-4.123
		c-1.696,0-2.608,1.002-2.608,3.195v1.857c0,2.295,1.303,2.82,2.608,2.82c1.517,0,2.504-0.629,2.609-2.459h-0.943
		c0.016,1.02-0.541,1.74-1.666,1.74c-1.426,0-1.711-1.396-1.711-2.447v-0.584H418.276z M407.791,115.079v-4.756
		c0-1.695,0.826-2.25,1.636-2.25c1.052,0,1.396,0.826,1.396,1.711v5.295h0.897v-5.34c0-0.99-0.194-2.383-2.068-2.383
		c-0.811,0-1.396,0.449-1.831,1.078h-0.03v-4.184h-0.897v10.828H407.791z M403.563,108.223v5.418c0,0.928,0.358,1.467,1.572,1.467
		c0.285,0,0.585-0.014,0.855-0.045v-0.777c-0.195,0.029-0.405,0.045-0.705,0.045c-0.72,0-0.825-0.24-0.825-1.246v-4.861h1.53v-0.719
		h-1.53v-1.949l-0.897,0.391v1.559h-1.215v0.719H403.563z M394.968,109.665c0,2.926,0.03,5.623,3.27,5.623s3.269-2.697,3.269-5.623
		s-0.029-5.625-3.269-5.625S394.968,106.739,394.968,109.665 M395.926,109.665c0-2.881,0.03-4.816,2.312-4.816
		s2.311,1.936,2.311,4.816s-0.029,4.816-2.311,4.816S395.926,112.545,395.926,109.665"/>
	<path clip-path="url(#SVGID_10_)" d="M169.837,157.95v-4.756c0-1.695,0.826-2.25,1.636-2.25c1.051,0,1.396,0.826,1.396,1.711v5.295
		h0.898v-5.34c0-0.99-0.195-2.383-2.069-2.383c-0.81,0-1.396,0.449-1.831,1.078h-0.03v-4.184h-0.898v10.828H169.837z
		 M167.677,152.551c0.075-1.592-0.808-2.324-2.114-2.324c-1.035,0-1.89,0.389-2.279,1.467c-0.195,0.572-0.225,1.756-0.225,2.506
		c0,1.877,0,3.9,2.564,3.9c0.706,0,2.144-0.346,2.069-2.385h-0.898c-0.045,0.916-0.195,1.666-1.381,1.666
		c-1.396,0-1.396-1.816-1.396-3.182c0-1.004,0.09-2.041,0.21-2.385c0.195-0.555,0.661-0.871,1.216-0.871
		c1.036,0,1.381,0.66,1.336,1.607H167.677z M160.492,150.375h-0.898v7.574h0.898v-4.875c0-1.275,0.84-2.041,2.115-1.936v-0.912
		c-0.915,0-1.71,0.449-2.085,1.168h-0.03V150.375z M157.089,157.95h0.928c-0.09-0.885-0.09-1.365-0.09-1.906v-3.809
		c0-1.934-1.588-2.008-2.354-2.008c-1.32,0-2.444,0.568-2.519,2.023h0.958c0-0.9,0.661-1.307,1.486-1.307
		c1.201,0,1.531,0.676,1.531,1.787v0.631c-1.531,0.119-4.2-0.15-4.2,2.504c0,1.32,0.734,2.234,2.084,2.234
		c0.931,0,1.666-0.359,2.146-1.078h0.03V157.95z M157.029,155.459c0,0.99-0.84,1.922-1.876,1.922c-0.93,0-1.366-0.705-1.366-1.561
		c0-1.846,1.952-1.697,3.242-1.742V155.459z M147.518,153.631c0-1.682,0.27-2.688,1.711-2.688c1.44,0,1.711,1.006,1.711,2.688
		H147.518z M151.838,154.35c0-2.25,0-4.123-2.609-4.123c-1.696,0-2.609,1.002-2.609,3.193v1.859c0,2.295,1.303,2.82,2.609,2.82
		c1.515,0,2.504-0.629,2.609-2.459h-0.943c0.015,1.02-0.541,1.74-1.666,1.74c-1.426,0-1.711-1.396-1.711-2.447v-0.584H151.838z
		 M145.523,155.956c0-2.535-3.405-2.025-3.405-3.916c0-0.676,0.51-1.096,1.156-1.096c1.02,0,1.276,0.51,1.321,1.471h0.883
		c0-1.154-0.479-2.188-1.979-2.188c-1.321,0-2.279,0.494-2.279,1.887c0,2.506,3.405,1.996,3.405,3.977
		c0,0.842-0.421,1.336-1.291,1.336c-1.156,0-1.396-0.689-1.396-1.727h-0.913c-0.015,1.607,0.628,2.4,2.264,2.4
		C144.699,158.1,145.523,157.381,145.523,155.956 M135.623,153.631c0-1.682,0.27-2.688,1.711-2.688c1.441,0,1.711,1.006,1.711,2.688
		H135.623z M139.943,154.35c0-2.25,0-4.123-2.609-4.123c-1.696,0-2.609,1.002-2.609,3.193v1.859c0,2.295,1.303,2.82,2.609,2.82
		c1.516,0,2.504-0.629,2.609-2.459H139c0.015,1.02-0.54,1.74-1.666,1.74c-1.426,0-1.711-1.396-1.711-2.447v-0.584H139.943z
		 M132.008,150.375h-0.898v7.574h0.898v-4.875c0-1.275,0.84-2.041,2.115-1.936v-0.912c-0.915,0-1.71,0.449-2.085,1.168h-0.03
		V150.375z"/>
	<path clip-path="url(#SVGID_10_)" d="M162.833,137.094v5.418c0,0.928,0.359,1.467,1.573,1.467c0.285,0,0.585-0.016,0.855-0.045
		v-0.777c-0.195,0.029-0.405,0.045-0.705,0.045c-0.72,0-0.825-0.24-0.825-1.246v-4.861h1.53v-0.719h-1.53v-1.949l-0.898,0.391v1.559
		h-1.215v0.719H162.833z M156.832,139.194c0-1.695,0.826-2.25,1.636-2.25c1.051,0,1.396,0.826,1.396,1.711v5.295h0.898v-5.34
		c0-0.99-0.194-2.383-2.068-2.383c-0.811,0-1.396,0.449-1.832,1.078h-0.03v-0.93h-0.898v7.574h0.898V139.194z M154.208,133.122
		H153.1v1.139h1.108V133.122z M154.103,136.375h-0.898v7.574h0.898V136.375z M148.958,136.944c1.486,0,1.711,1.246,1.711,3.211
		c0,1.982-0.225,3.227-1.711,3.227s-1.711-1.244-1.711-3.227C147.248,138.19,147.473,136.944,148.958,136.944 M148.958,144.1
		c1.771,0,2.609-1.154,2.609-3.119v-1.635c0-1.967-0.838-3.119-2.609-3.119s-2.609,1.152-2.609,3.119v1.635
		C146.35,142.946,147.188,144.1,148.958,144.1 M139.6,140.891c0,1.561,0.21,3.268,2.579,3.268c0.33,0,2.639,0,2.639-2.547v-8.49
		h-0.958v8.355c0,1.424-0.78,1.875-1.666,1.875c-1.516,0-1.636-1.262-1.636-2.461H139.6z"/>
</g>
</svg>
