<?xml version="1.0" encoding="utf-8"?>
<!-- Generator: Adobe Illustrator 16.0.0, SVG Export Plug-In . SVG Version: 6.00 Build 0)  -->
<!DOCTYPE svg PUBLIC "-//W3C//DTD SVG 1.1//EN" "http://www.w3.org/Graphics/SVG/1.1/DTD/svg11.dtd">
<svg version="1.1" id="레이어_1" xmlns="http://www.w3.org/2000/svg" xmlns:xlink="http://www.w3.org/1999/xlink" x="0px"
	 y="0px" width="413.188px" height="146.415px" viewBox="0 0 413.188 146.415" enable-background="new 0 0 413.188 146.415"
	 xml:space="preserve">
<g>
	<defs>
		<rect id="SVGID_1_" width="413.188" height="146.415"/>
	</defs>
	<clipPath id="SVGID_2_">
		<use xlink:href="#SVGID_1_"  overflow="visible"/>
	</clipPath>
	<path clip-path="url(#SVGID_2_)" fill="none" stroke="#DCDDDD" stroke-width="0.594" d="M21.82,96.715h391.367 M21.82,35.709
		h391.367 M21.82,66.734h391.367"/>
	<path clip-path="url(#SVGID_2_)" d="M299.514,0.58v2.627h1.959v-2.82h0.611v6.439h-0.611V3.721h-1.959v3.105h-0.611V0.58H299.514z
		 M295.23,11.074h6.205v-3.09h-6.205V11.074z M294.619,7.469h7.428v4.121h-7.428V7.469z M294.656,5.898h-1.506V0.928h0.611v4.455
		h0.588c2.068,0,3.414-0.232,3.939-0.334v0.502C297.838,5.641,295.756,5.898,294.656,5.898"/>
	<path clip-path="url(#SVGID_2_)" d="M312.721,11.719V5.588h-1.836v5.615h-0.611V0.643h0.611v4.432h1.836V0.387h0.611v11.332
		H312.721z M309.025,9.299c-0.992-0.723-2.215-2.293-2.521-3.891c-0.244,1.508-1.457,3.221-2.656,4.199l-0.502-0.336
		c1.09-0.784,2.852-2.832,2.852-5.627V1.287h0.613v2.357c0,2.742,1.639,4.52,2.654,5.293L309.025,9.299z"/>
</g>
<path d="M316.627,7.984v3.477h7.648v-0.514h-7.037V7.984H316.627z M315.893,1.738h3.781v4.199h-3.781V1.738z M315.281,6.451h5.004
	V1.222h-5.004V6.451z M323.357,8.629h0.61V0.387h-0.61V8.629z"/>
<g>
	<defs>
		<rect id="SVGID_3_" width="413.188" height="146.415"/>
	</defs>
	<clipPath id="SVGID_4_">
		<use xlink:href="#SVGID_3_"  overflow="visible"/>
	</clipPath>
	<path clip-path="url(#SVGID_4_)" d="M334.496,9.4V7.623h-3.23V7.109h3.23V0.387h0.611V9.4H334.496z M327.766,11.461V8.758h0.611
		v2.189h7.023v0.514H327.766z M329.576,0.928c-1.432,0-2.215,0.732-2.215,1.506s0.783,1.52,2.215,1.52
		c1.443,0,2.215-0.746,2.215-1.52S331.02,0.928,329.576,0.928 M329.576,4.494c-1.676,0-2.84-0.965-2.84-2.061
		c0-1.094,1.164-2.074,2.84-2.074s2.84,0.98,2.84,2.074C332.416,3.529,331.252,4.494,329.576,4.494 M329.234,6.002v2.316h-0.613
		V6.014h-2.936V5.498h3.695c1.334,0,4.063-0.258,4.625-0.359v0.514C333.162,5.809,331.584,5.975,329.234,6.002"/>
	<path clip-path="url(#SVGID_4_)" d="M349.412,0.388h0.611v8.241h-0.611V4.584h-2.57V4.057h2.57V0.388z M343.293,7.984v2.963h7.158
		v0.514h-7.77V7.984H343.293z M341.457,1.287h5.129c-0.184,2.976-2.338,5.035-5.447,6.195l-0.402-0.465
		c2.789-0.861,5.09-2.961,5.127-5.214h-4.406V1.287z"/>
	<path clip-path="url(#SVGID_4_)" d="M352.486,5.589l-0.393-0.438c2.031-0.463,4.309-2.227,4.309-3.875v-0.58h0.686v0.58
		c0,1.725,2.691,3.605,4.307,3.875l-0.391,0.438c-1.445-0.349-3.402-1.571-4.26-3.31C356.107,3.979,353.82,5.268,352.486,5.589
		 M357.051,7.404v4.314h-0.611V7.404h-5.08V6.889h10.77v0.516H357.051z"/>
	<path clip-path="url(#SVGID_4_)" d="M362.607,6.053c0-2.77,1.297-4.92,2.006-6.053h0.344c-1.199,2.164-1.738,4.16-1.738,6.053
		c0,1.881,0.539,3.877,1.738,6.039h-0.344C363.904,10.959,362.607,8.809,362.607,6.053"/>
	<path clip-path="url(#SVGID_4_)" d="M374.563,0.387V3.49h1.699v0.514h-1.699v4.625h-0.614V0.387H374.563z M368.076,7.855v3.092
		h6.854v0.514h-7.467V7.855H368.076z M368.137,6.322h-1.908V1.301h5.385v0.516h-4.773v3.992h1.334c1.787,0,4.332-0.221,5.066-0.361
		v0.516C372.506,6.078,369.752,6.322,368.137,6.322"/>
	<path clip-path="url(#SVGID_4_)" d="M386.178,11.719h-0.61V0.387h0.61V11.719z M380.584,1.248c-1.432,0-2.238,0.953-2.238,1.895
		c0,0.939,0.807,1.893,2.238,1.893c1.445,0,2.252-0.953,2.252-1.893C382.836,2.201,382.029,1.248,380.584,1.248 M380.584,5.602
		c-1.676,0-2.838-1.186-2.838-2.459c0-1.275,1.162-2.461,2.838-2.461c1.678,0,2.84,1.186,2.84,2.461
		C383.424,4.416,382.262,5.602,380.584,5.602 M380.744,7.469v3.992h-0.611V7.482h-3.256V6.967h3.672
		c1.541,0,3.988-0.232,4.527-0.348v0.502C384.232,7.275,382.273,7.469,380.744,7.469"/>
</g>
<path d="M392.012,2.988h1.004v1.016h-1.004V2.988z M392,8.603h1.002V9.62H392V8.603z"/>
<g>
	<defs>
		<rect id="SVGID_5_" width="413.188" height="146.415"/>
	</defs>
	<clipPath id="SVGID_6_">
		<use xlink:href="#SVGID_5_"  overflow="visible"/>
	</clipPath>
	<path clip-path="url(#SVGID_6_)" d="M406.924,0.388h0.611v8.241h-0.611V4.584h-2.57V4.057h2.57V0.388z M400.805,7.984v2.963h7.158
		v0.514h-7.77V7.984H400.805z M398.969,1.287h5.129c-0.184,2.976-2.338,5.035-5.447,6.195l-0.402-0.465
		c2.789-0.861,5.09-2.961,5.127-5.214h-4.406V1.287z"/>
	<path clip-path="url(#SVGID_6_)" d="M411.332,6.053c0,2.756-1.297,4.906-2.021,6.039h-0.343c1.213-2.162,1.738-4.158,1.738-6.039
		c0-1.893-0.525-3.889-1.738-6.053h0.343C410.035,1.133,411.332,3.283,411.332,6.053"/>
</g>
<polygon points="3.011,0.617 0,7.495 0,8.333 3.329,8.333 3.329,9.787 4.159,9.787 4.159,8.333 5.179,8.333 5.179,7.495 
	4.159,7.495 4.159,4.893 3.329,4.893 3.329,7.495 0.902,7.495 3.915,0.617 "/>
<g>
	<defs>
		<rect id="SVGID_7_" width="413.188" height="146.415"/>
	</defs>
	<clipPath id="SVGID_8_">
		<use xlink:href="#SVGID_7_"  overflow="visible"/>
	</clipPath>
	<path clip-path="url(#SVGID_8_)" d="M8.48,1.365c-0.937,0-1.441,0.734-1.441,1.75v4.174c0,1.018,0.504,1.752,1.441,1.752
		c0.938,0,1.441-0.734,1.441-1.752V3.115C9.921,2.1,9.418,1.365,8.48,1.365 M8.48,9.865c-1.301,0-2.285-1.006-2.285-2.525V3.064
		c0-1.52,0.984-2.523,2.285-2.523c1.301,0,2.285,1.004,2.285,2.523V7.34C10.765,8.859,9.781,9.865,8.48,9.865"/>
	<path clip-path="url(#SVGID_8_)" d="M2.473,39.877c-1.301,0-2.391-0.76-2.449-2.42h0.844c0.058,1.133,0.82,1.596,1.605,1.596
		c0.902,0,1.606-0.645,1.606-1.777c0-1.119-0.504-1.777-1.641-1.777H2.262v-0.81h0.176c1.031,0,1.488-0.632,1.488-1.663
		c0-1.094-0.644-1.673-1.453-1.673c-0.891,0-1.418,0.591-1.5,1.532H0.128c0.094-1.482,1.078-2.357,2.344-2.357
		c1.359,0,2.297,0.993,2.297,2.486c0,0.979-0.375,1.66-1.125,2.035c0.855,0.349,1.277,1.094,1.277,2.24
		C4.921,38.978,3.832,39.877,2.473,39.877"/>
	<path clip-path="url(#SVGID_8_)" d="M8.48,31.365c-0.937,0-1.441,0.734-1.441,1.75v4.174c0,1.018,0.504,1.752,1.441,1.752
		c0.938,0,1.441-0.734,1.441-1.752v-4.174C9.921,32.1,9.418,31.365,8.48,31.365 M8.48,39.865c-1.301,0-2.285-1.006-2.285-2.525
		v-4.275c0-1.52,0.984-2.523,2.285-2.523c1.301,0,2.285,1.004,2.285,2.523v4.275C10.765,38.859,9.781,39.865,8.48,39.865"/>
	<path clip-path="url(#SVGID_8_)" d="M0.328,68.963l3.293-4.598c0.316-0.451,0.469-0.85,0.469-1.352
		c0-0.991-0.528-1.648-1.453-1.648c-0.786,0-1.454,0.477-1.454,1.66H0.34c0-1.441,0.902-2.484,2.297-2.484
		c1.371,0,2.296,0.965,2.296,2.473c0,0.734-0.211,1.197-0.667,1.854l-2.919,4.096h3.586v0.824H0.328V68.963z"/>
	<path clip-path="url(#SVGID_8_)" d="M8.48,61.365c-0.937,0-1.441,0.734-1.441,1.75v4.174c0,1.018,0.504,1.752,1.441,1.752
		c0.938,0,1.441-0.734,1.441-1.752v-4.174C9.921,62.1,9.418,61.365,8.48,61.365 M8.48,69.865c-1.301,0-2.285-1.006-2.285-2.525
		v-4.275c0-1.52,0.984-2.523,2.285-2.523c1.301,0,2.285,1.004,2.285,2.523v4.275C10.765,68.859,9.781,69.865,8.48,69.865"/>
</g>
<polygon points="2.555,90.618 0.996,92.1 0.996,93.155 2.555,91.649 2.555,99.788 3.398,99.788 3.398,90.618 "/>
<g>
	<defs>
		<rect id="SVGID_9_" width="413.188" height="146.415"/>
	</defs>
	<clipPath id="SVGID_10_">
		<use xlink:href="#SVGID_9_"  overflow="visible"/>
	</clipPath>
	<path clip-path="url(#SVGID_10_)" d="M8.48,91.366c-0.937,0-1.441,0.734-1.441,1.75v4.174c0,1.018,0.504,1.752,1.441,1.752
		c0.938,0,1.441-0.734,1.441-1.752v-4.174C9.921,92.1,9.418,91.366,8.48,91.366 M8.48,99.866c-1.301,0-2.285-1.006-2.285-2.525
		v-4.275c0-1.52,0.984-2.523,2.285-2.523c1.301,0,2.285,1.004,2.285,2.523v4.275C10.765,98.86,9.781,99.866,8.48,99.866"/>
	<path clip-path="url(#SVGID_10_)" d="M8.469,121.366c-0.938,0-1.441,0.734-1.441,1.75v4.174c0,1.018,0.503,1.752,1.441,1.752
		c0.937,0,1.441-0.734,1.441-1.752v-4.174C9.91,122.1,9.406,121.366,8.469,121.366 M8.469,129.866c-1.301,0-2.285-1.006-2.285-2.525
		v-4.275c0-1.52,0.984-2.523,2.285-2.523c1.301,0,2.285,1.004,2.285,2.523v4.275C10.754,128.86,9.77,129.866,8.469,129.866"/>
</g>
<rect x="70.095" y="62.188" fill="#95C01D" width="39.684" height="65.629"/>
<g>
	<defs>
		<rect id="SVGID_11_" width="413.188" height="146.415"/>
	</defs>
	<clipPath id="SVGID_12_">
		<use xlink:href="#SVGID_11_"  overflow="visible"/>
	</clipPath>
	<path clip-path="url(#SVGID_12_)" fill="#FFFFFF" d="M83.242,85.721v-1.455l3.988-5.328c0.196-0.268,0.336-0.516,0.422-0.744
		c0.088-0.23,0.133-0.488,0.133-0.777c0-0.512-0.133-0.928-0.395-1.248c-0.261-0.318-0.634-0.479-1.121-0.479
		c-0.193,0-0.382,0.031-0.568,0.096c-0.184,0.064-0.346,0.166-0.486,0.303c-0.141,0.139-0.256,0.32-0.342,0.545
		c-0.088,0.225-0.133,0.496-0.133,0.816h-1.484c0-0.48,0.076-0.92,0.226-1.32c0.151-0.4,0.358-0.738,0.625-1.016
		c0.268-0.277,0.586-0.494,0.953-0.648c0.37-0.154,0.774-0.232,1.209-0.232c0.448,0,0.854,0.074,1.223,0.225
		c0.369,0.148,0.686,0.363,0.947,0.641c0.262,0.277,0.467,0.613,0.612,1.008c0.146,0.395,0.218,0.836,0.218,1.328
		c0,0.5-0.082,0.93-0.248,1.287c-0.164,0.357-0.408,0.75-0.728,1.176l-3.246,4.369h4.222v1.455H83.242z"/>
</g>
<polygon fill="#FFFFFF" points="93.492,85.721 93.492,76.106 91.469,78.057 91.469,76.249 93.492,74.329 94.976,74.329 
	94.976,85.721 "/>
<rect x="149.465" y="87.653" fill="#95C01D" width="45.355" height="40.164"/>
<polygon fill="#FFFFFF" points="168.213,109.696 168.213,100.081 166.19,102.032 166.19,100.223 168.213,98.303 169.697,98.303 
	169.697,109.696 "/>
<g>
	<defs>
		<rect id="SVGID_13_" width="413.188" height="146.415"/>
	</defs>
	<clipPath id="SVGID_14_">
		<use xlink:href="#SVGID_13_"  overflow="visible"/>
	</clipPath>
	<path clip-path="url(#SVGID_14_)" fill="#FFFFFF" d="M172.932,109.696v-1.455l3.988-5.328c0.196-0.268,0.336-0.516,0.422-0.744
		c0.088-0.23,0.133-0.488,0.133-0.777c0-0.512-0.133-0.928-0.395-1.248c-0.261-0.318-0.634-0.479-1.121-0.479
		c-0.193,0-0.382,0.031-0.568,0.096c-0.184,0.064-0.346,0.166-0.486,0.303c-0.141,0.139-0.256,0.32-0.342,0.545
		c-0.088,0.225-0.133,0.496-0.133,0.816h-1.484c0-0.48,0.076-0.92,0.226-1.32c0.151-0.4,0.358-0.738,0.625-1.016
		c0.268-0.277,0.586-0.494,0.953-0.648c0.37-0.154,0.774-0.232,1.209-0.232c0.448,0,0.854,0.074,1.223,0.225
		c0.369,0.148,0.686,0.363,0.947,0.641c0.262,0.277,0.467,0.613,0.612,1.008c0.146,0.395,0.218,0.836,0.218,1.328
		c0,0.5-0.082,0.93-0.248,1.287c-0.164,0.357-0.408,0.75-0.728,1.176l-3.246,4.369h4.222v1.455H172.932z"/>
</g>
<polygon fill="#214E29" points="110.721,27.227 110.553,23.963 112.748,26.387 114.938,23.963 114.768,27.223 118.035,27.059 
	115.606,29.248 118.031,31.439 114.768,31.273 114.934,34.538 112.748,32.109 110.553,34.538 110.721,31.273 107.453,31.439 
	109.885,29.248 107.453,27.059 "/>
<polygon fill="#214E29" points="98.988,32.514 98.82,29.25 101.013,31.674 103.204,29.25 103.033,32.51 106.302,32.346 
	103.872,34.537 106.298,36.727 103.033,36.561 103.199,39.824 101.013,37.396 98.82,39.824 98.988,36.561 95.72,36.727 
	98.152,34.537 95.72,32.346 "/>
<polygon fill="#214E29" points="87.922,28.07 87.793,25.58 89.465,27.43 91.137,25.58 91.006,28.066 93.496,27.941 91.645,29.609 
	93.494,31.279 91.006,31.152 91.131,33.643 89.465,31.791 87.793,33.643 87.922,31.152 85.432,31.279 87.285,29.609 85.432,27.941 
	"/>
<g>
	<defs>
		<rect id="SVGID_15_" width="413.188" height="146.415"/>
	</defs>
	<clipPath id="SVGID_16_">
		<use xlink:href="#SVGID_15_"  overflow="visible"/>
	</clipPath>
	<path clip-path="url(#SVGID_16_)" fill="#95C01D" d="M104.957,36.248h-29.58c-1.299,0-2.358,1.061-2.358,2.355v22.643
		c0,1.299,1.059,2.355,2.358,2.355h29.58c1.297,0,2.355-1.057,2.355-2.355V38.604C107.312,37.309,106.254,36.248,104.957,36.248
		 M80.709,58.389c0,1.297-0.797,2.355-1.766,2.355c-0.972,0-1.767-1.059-1.767-2.355V44.061c0-1.299,0.795-2.359,1.767-2.359
		c0.969,0,1.766,1.061,1.766,2.359V58.389z M87.777,58.389c0,1.297-0.795,2.355-1.767,2.355c-0.973,0-1.768-1.059-1.768-2.355
		V44.061c0-1.299,0.795-2.359,1.768-2.359c0.972,0,1.767,1.061,1.767,2.359V58.389z M94.846,58.389c0,1.297-0.797,2.355-1.77,2.355
		s-1.768-1.059-1.768-2.355V44.061c0-1.299,0.795-2.359,1.768-2.359s1.77,1.061,1.77,2.359V58.389z M101.908,58.389
		c0,1.297-0.795,2.355-1.766,2.355c-0.968,0-1.765-1.059-1.765-2.355V44.061c0-1.299,0.797-2.359,1.765-2.359
		c0.971,0,1.766,1.061,1.766,2.359V58.389z"/>
	<path clip-path="url(#SVGID_16_)" fill="#95C01D" d="M101.262,10.314l-1.043-1.381c-0.781-1.033-2.268-1.244-3.301-0.461
		l-9.4,7.094l-1.834-2.432c-0.783-1.037-2.266-1.242-3.301-0.462l-2.258,1.702l-1.945,1.467c-1.035,0.783-1.242,2.268-0.461,3.303
		l1.836,2.434l-9.234,6.966c-1.034,0.784-1.241,2.269-0.461,3.304l1.041,1.381c0.781,1.033,2.267,1.242,3.302,0.457l13.057-9.854
		l13.539-10.217C101.834,12.834,102.041,11.348,101.262,10.314"/>
	<polyline clip-path="url(#SVGID_16_)" fill="none" stroke="#9FA0A0" stroke-width="1.584" points="21.777,6.596 21.777,128.323 
		413.188,128.323 	"/>
</g>
<rect x="234.505" y="122.803" fill="#95C01D" width="45.354" height="5.014"/>
<g>
	<defs>
		<rect id="SVGID_17_" width="413.188" height="146.415"/>
	</defs>
	<clipPath id="SVGID_18_">
		<use xlink:href="#SVGID_17_"  overflow="visible"/>
	</clipPath>
	<path clip-path="url(#SVGID_18_)" fill="#CEB273" d="M250.922,108.889c0-0.555-0.133-1.002-0.4-1.344s-0.639-0.512-1.113-0.512
		c-0.477,0-0.844,0.17-1.107,0.512c-0.262,0.342-0.393,0.789-0.393,1.344v4.959c0,0.555,0.131,1.004,0.393,1.346
		c0.264,0.34,0.631,0.512,1.107,0.512c0.475,0,0.846-0.172,1.113-0.512c0.268-0.342,0.4-0.791,0.4-1.346V108.889z M252.168,115.264
		c-0.16,0.4-0.377,0.742-0.648,1.025c-0.271,0.281-0.59,0.498-0.953,0.646c-0.365,0.15-0.75,0.225-1.158,0.225
		s-0.793-0.074-1.158-0.225c-0.363-0.148-0.682-0.365-0.953-0.646c-0.271-0.283-0.486-0.625-0.641-1.025
		c-0.156-0.398-0.232-0.855-0.232-1.367v-5.057c0-0.512,0.076-0.967,0.232-1.367c0.154-0.4,0.369-0.742,0.641-1.023
		c0.271-0.283,0.59-0.5,0.953-0.648c0.365-0.15,0.75-0.225,1.158-0.225s0.793,0.074,1.158,0.225
		c0.363,0.148,0.682,0.365,0.953,0.648c0.271,0.281,0.488,0.623,0.648,1.023s0.24,0.855,0.24,1.367v5.057
		C252.408,114.409,252.328,114.866,252.168,115.264"/>
	<path clip-path="url(#SVGID_18_)" fill="#CEB273" d="M260.162,113.176c-0.18,0.16-0.355,0.289-0.525,0.385
		s-0.338,0.166-0.502,0.207c-0.166,0.043-0.344,0.064-0.539,0.064c-0.281,0-0.549-0.047-0.801-0.145
		c-0.252-0.096-0.529-0.223-0.83-0.383c-0.203-0.117-0.395-0.211-0.574-0.279c-0.18-0.07-0.371-0.105-0.576-0.105
		c-0.203,0-0.393,0.043-0.566,0.129c-0.176,0.086-0.398,0.277-0.67,0.576l-0.932-1.025c0.213-0.234,0.408-0.432,0.588-0.592
		s0.354-0.287,0.518-0.383c0.166-0.096,0.33-0.166,0.496-0.209c0.164-0.043,0.344-0.064,0.537-0.064
		c0.281,0,0.547,0.049,0.795,0.145c0.246,0.096,0.521,0.225,0.822,0.385c0.203,0.117,0.398,0.211,0.582,0.279
		c0.184,0.07,0.379,0.104,0.582,0.104c0.098,0,0.191-0.008,0.285-0.023c0.092-0.016,0.184-0.047,0.275-0.096
		s0.195-0.119,0.307-0.217c0.111-0.096,0.234-0.219,0.371-0.367l0.945,1.023C260.537,112.819,260.34,113.016,260.162,113.176"/>
</g>
<polygon fill="#CEB273" points="264.783,117.065 264.783,107.45 262.76,109.401 262.76,107.592 264.783,105.672 266.268,105.672 
	266.268,117.065 "/>
<rect x="319.543" y="123.817" fill="#FFFFFF" width="50.516" height="4"/>
<g>
	<defs>
		<rect id="SVGID_19_" width="413.188" height="146.415"/>
	</defs>
	<clipPath id="SVGID_20_">
		<use xlink:href="#SVGID_19_"  overflow="visible"/>
	</clipPath>
	<path clip-path="url(#SVGID_20_)" fill="#E60012" d="M364.656,47.357h-33.709c-1.479,0-2.688,1.209-2.688,2.688v25.799
		c0,1.48,1.209,2.688,2.688,2.688h33.709c1.477,0,2.686-1.207,2.686-2.688V50.045C367.342,48.566,366.133,47.357,364.656,47.357
		 M337.025,72.588c0,1.479-0.908,2.684-2.016,2.684c-1.105,0-2.014-1.205-2.014-2.684V56.26c0-1.477,0.908-2.686,2.014-2.686
		c1.107,0,2.016,1.209,2.016,2.686V72.588z M345.078,72.588c0,1.479-0.906,2.684-2.014,2.684s-2.014-1.205-2.014-2.684V56.26
		c0-1.477,0.906-2.686,2.014-2.686s2.014,1.209,2.014,2.686V72.588z M353.133,72.588c0,1.479-0.906,2.684-2.014,2.684
		c-1.111,0-2.014-1.205-2.014-2.684V56.26c0-1.477,0.902-2.686,2.014-2.686c1.107,0,2.014,1.209,2.014,2.686V72.588z
		 M361.184,72.588c0,1.479-0.906,2.684-2.014,2.684c-1.105,0-2.012-1.205-2.012-2.684V56.26c0-1.477,0.906-2.686,2.012-2.686
		c1.107,0,2.014,1.209,2.014,2.686V72.588z"/>
	<path clip-path="url(#SVGID_20_)" fill="#E60012" d="M368.742,44.977l-0.004-1.969c-0.002-1.479-1.209-2.686-2.688-2.684
		l-13.42,0.008l-0.002-3.471c-0.002-1.48-1.209-2.686-2.686-2.684l-3.227,0.002h-2.773c-1.479,0.004-2.686,1.211-2.682,2.69v3.472
		l-13.18,0.01c-1.48,0.002-2.689,1.209-2.688,2.688v1.973c0.002,1.475,1.213,2.682,2.693,2.68l18.637-0.014l19.329-0.012
		C367.533,47.663,368.742,46.454,368.742,44.977"/>
</g>
<rect x="318.633" y="79.854" fill="none" stroke="#E60012" stroke-width="4.554" width="56.873" height="47.885"/>
<g>
	<defs>
		<rect id="SVGID_21_" width="413.188" height="146.415"/>
	</defs>
	<clipPath id="SVGID_22_">
		<use xlink:href="#SVGID_21_"  overflow="visible"/>
	</clipPath>
	<path clip-path="url(#SVGID_22_)" d="M77.443,145.5l3.293-4.598c0.316-0.451,0.469-0.85,0.469-1.352
		c0-0.992-0.528-1.648-1.453-1.648c-0.786,0-1.454,0.477-1.454,1.66h-0.843c0-1.441,0.902-2.484,2.297-2.484
		c1.371,0,2.296,0.965,2.296,2.473c0,0.734-0.21,1.197-0.668,1.854l-2.917,4.096h3.585v0.824h-4.605V145.5z"/>
	<path clip-path="url(#SVGID_22_)" d="M85.596,137.903c-0.938,0-1.441,0.734-1.441,1.75v4.174c0,1.018,0.503,1.752,1.441,1.752
		c0.937,0,1.441-0.734,1.441-1.752v-4.174C87.037,138.637,86.533,137.903,85.596,137.903 M85.596,146.403
		c-1.301,0-2.285-1.006-2.285-2.525v-4.275c0-1.52,0.984-2.523,2.285-2.523c1.301,0,2.285,1.004,2.285,2.523v4.275
		C87.881,145.397,86.897,146.403,85.596,146.403"/>
</g>
<polygon points="91.451,137.155 89.893,138.637 89.893,139.69 91.451,138.186 91.451,146.325 92.295,146.325 92.295,137.155 "/>
<g>
	<defs>
		<rect id="SVGID_23_" width="413.188" height="146.415"/>
	</defs>
	<clipPath id="SVGID_24_">
		<use xlink:href="#SVGID_23_"  overflow="visible"/>
	</clipPath>
	<path clip-path="url(#SVGID_24_)" d="M95.115,145.5l3.293-4.598c0.316-0.451,0.469-0.85,0.469-1.352
		c0-0.992-0.528-1.648-1.453-1.648c-0.786,0-1.453,0.477-1.453,1.66h-0.844c0-1.441,0.902-2.484,2.297-2.484
		c1.371,0,2.297,0.965,2.297,2.473c0,0.734-0.211,1.197-0.668,1.854l-2.918,4.096h3.586v0.824h-4.606V145.5z"/>
	<path clip-path="url(#SVGID_24_)" d="M159.939,145.5l3.293-4.598c0.316-0.451,0.469-0.85,0.469-1.352
		c0-0.992-0.528-1.648-1.453-1.648c-0.786,0-1.454,0.477-1.454,1.66h-0.843c0-1.441,0.902-2.484,2.297-2.484
		c1.371,0,2.296,0.965,2.296,2.473c0,0.734-0.21,1.197-0.667,1.854l-2.918,4.096h3.585v0.824h-4.605V145.5z"/>
	<path clip-path="url(#SVGID_24_)" d="M168.092,137.903c-0.937,0-1.441,0.734-1.441,1.75v4.174c0,1.018,0.504,1.752,1.441,1.752
		s1.441-0.734,1.441-1.752v-4.174C169.533,138.637,169.029,137.903,168.092,137.903 M168.092,146.403
		c-1.301,0-2.285-1.006-2.285-2.525v-4.275c0-1.52,0.984-2.523,2.285-2.523s2.285,1.004,2.285,2.523v4.275
		C170.377,145.397,169.393,146.403,168.092,146.403"/>
</g>
<polygon points="173.947,137.155 172.389,138.637 172.389,139.69 173.947,138.186 173.947,146.325 174.791,146.325 174.791,137.155 
	"/>
<g>
	<defs>
		<rect id="SVGID_25_" width="413.188" height="146.415"/>
	</defs>
	<clipPath id="SVGID_26_">
		<use xlink:href="#SVGID_25_"  overflow="visible"/>
	</clipPath>
	<path clip-path="url(#SVGID_26_)" d="M179.756,146.415c-1.301,0-2.391-0.76-2.449-2.42h0.844c0.058,1.133,0.82,1.596,1.605,1.596
		c0.902,0,1.605-0.645,1.605-1.777c0-1.119-0.503-1.777-1.64-1.777h-0.176v-0.811h0.176c1.031,0,1.488-0.631,1.488-1.662
		c0-1.094-0.644-1.674-1.453-1.674c-0.891,0-1.418,0.592-1.5,1.533h-0.844c0.094-1.484,1.078-2.359,2.344-2.359
		c1.359,0,2.297,0.994,2.297,2.488c0,0.979-0.375,1.66-1.125,2.033c0.855,0.35,1.277,1.096,1.277,2.242
		C182.205,145.514,181.115,146.415,179.756,146.415"/>
	<path clip-path="url(#SVGID_26_)" d="M227.596,145.5l3.293-4.598c0.316-0.451,0.469-0.85,0.469-1.352
		c0-0.992-0.527-1.648-1.453-1.648c-0.785,0-1.453,0.477-1.453,1.66h-0.844c0-1.441,0.902-2.484,2.297-2.484
		c1.371,0,2.297,0.965,2.297,2.473c0,0.734-0.211,1.197-0.668,1.854l-2.918,4.096h3.586v0.824h-4.605V145.5z"/>
	<path clip-path="url(#SVGID_26_)" d="M235.748,137.903c-0.938,0-1.441,0.734-1.441,1.75v4.174c0,1.018,0.504,1.752,1.441,1.752
		s1.441-0.734,1.441-1.752v-4.174C237.189,138.637,236.686,137.903,235.748,137.903 M235.748,146.403
		c-1.301,0-2.285-1.006-2.285-2.525v-4.275c0-1.52,0.984-2.523,2.285-2.523s2.285,1.004,2.285,2.523v4.275
		C238.033,145.397,237.049,146.403,235.748,146.403"/>
</g>
<polygon points="241.604,137.155 240.045,138.637 240.045,139.69 241.604,138.186 241.604,146.325 242.447,146.325 242.447,137.155 
	"/>
<polygon points="247.951,137.155 244.939,144.032 244.939,144.87 248.268,144.87 248.268,146.325 249.1,146.325 249.1,144.87 
	250.119,144.87 250.119,144.032 249.1,144.032 249.1,141.43 248.268,141.43 248.268,144.032 245.842,144.032 248.854,137.155 "/>
<g>
	<defs>
		<rect id="SVGID_27_" width="413.188" height="146.415"/>
	</defs>
	<clipPath id="SVGID_28_">
		<use xlink:href="#SVGID_27_"  overflow="visible"/>
	</clipPath>
	<path clip-path="url(#SVGID_28_)" d="M250.818,142.668c0.094-1.52,1.23-3.053,2.848-2.848c1.664,0.221,2.238,2.77,3.832,2.859
		c1.395,0.104,2.074-1.082,2.309-2.408h0.445c-0.246,1.508-1.125,3.066-2.906,2.834c-1.688-0.232-2.391-2.781-3.75-2.885
		c-1.605-0.143-2.262,1.441-2.355,2.447H250.818z"/>
	<path clip-path="url(#SVGID_28_)" d="M261.359,145.5l3.293-4.598c0.316-0.451,0.469-0.85,0.469-1.352
		c0-0.992-0.527-1.648-1.453-1.648c-0.785,0-1.453,0.477-1.453,1.66h-0.844c0-1.441,0.902-2.484,2.297-2.484
		c1.371,0,2.297,0.965,2.297,2.473c0,0.734-0.211,1.197-0.668,1.854l-2.918,4.096h3.586v0.824h-4.605V145.5z"/>
	<path clip-path="url(#SVGID_28_)" d="M269.512,137.903c-0.938,0-1.441,0.734-1.441,1.75v4.174c0,1.018,0.504,1.752,1.441,1.752
		s1.441-0.734,1.441-1.752v-4.174C270.953,138.637,270.449,137.903,269.512,137.903 M269.512,146.403
		c-1.301,0-2.285-1.006-2.285-2.525v-4.275c0-1.52,0.984-2.523,2.285-2.523s2.285,1.004,2.285,2.523v4.275
		C271.797,145.397,270.813,146.403,269.512,146.403"/>
</g>
<polygon points="275.367,137.155 273.809,138.637 273.809,139.69 275.367,138.186 275.367,146.325 276.211,146.325 276.211,137.155 
	"/>
<polygon points="279.125,137.155 279.125,139.422 279.957,139.422 279.957,137.979 282.864,137.979 279.969,146.325 
	280.859,146.325 283.754,137.979 283.754,137.155 "/>
<g>
	<defs>
		<rect id="SVGID_29_" width="413.188" height="146.415"/>
	</defs>
	<clipPath id="SVGID_30_">
		<use xlink:href="#SVGID_29_"  overflow="visible"/>
	</clipPath>
	<path clip-path="url(#SVGID_30_)" d="M336.195,145.5l3.293-4.598c0.316-0.451,0.469-0.85,0.469-1.352
		c0-0.992-0.527-1.648-1.453-1.648c-0.785,0-1.453,0.477-1.453,1.66h-0.844c0-1.441,0.902-2.484,2.297-2.484
		c1.371,0,2.297,0.965,2.297,2.473c0,0.734-0.211,1.197-0.668,1.854l-2.918,4.096h3.586v0.824h-4.605V145.5z"/>
	<path clip-path="url(#SVGID_30_)" d="M344.348,137.903c-0.937,0-1.441,0.734-1.441,1.75v4.174c0,1.018,0.505,1.752,1.441,1.752
		c0.938,0,1.441-0.734,1.441-1.752v-4.174C345.789,138.637,345.285,137.903,344.348,137.903 M344.348,146.403
		c-1.301,0-2.285-1.006-2.285-2.525v-4.275c0-1.52,0.984-2.523,2.285-2.523s2.285,1.004,2.285,2.523v4.275
		C346.633,145.397,345.648,146.403,344.348,146.403"/>
</g>
<polygon points="350.203,137.155 348.645,138.637 348.645,139.69 350.203,138.186 350.203,146.325 351.047,146.325 351.047,137.155 
	"/>
<g>
	<defs>
		<rect id="SVGID_31_" width="413.188" height="146.415"/>
	</defs>
	<clipPath id="SVGID_32_">
		<use xlink:href="#SVGID_31_"  overflow="visible"/>
	</clipPath>
	<path clip-path="url(#SVGID_32_)" d="M356.129,137.903c-0.855,0-1.453,0.682-1.453,1.648c0,0.979,0.598,1.635,1.453,1.635
		s1.453-0.656,1.453-1.635C357.582,138.584,356.984,137.903,356.129,137.903 M356.129,141.999c-0.914,0-1.617,0.771-1.617,1.789
		s0.703,1.791,1.617,1.791s1.617-0.773,1.617-1.791S357.043,141.999,356.129,141.999 M356.129,146.403
		c-1.383,0-2.461-1.057-2.461-2.602c0-1.082,0.551-1.777,1.254-2.229c-0.656-0.412-1.09-1.068-1.09-2.035
		c0-1.441,0.973-2.459,2.297-2.459s2.297,1.018,2.297,2.459c0,0.967-0.422,1.623-1.078,2.035c0.703,0.451,1.242,1.146,1.242,2.229
		C358.59,145.346,357.512,146.403,356.129,146.403"/>
</g>
<line fill="none" stroke="#E60012" stroke-width="2.6" stroke-linecap="round" stroke-dasharray="3.284,3.284" x1="112.732" y1="37.215" x2="153.007" y2="65.578"/>
<g>
	<defs>
		<rect id="SVGID_33_" width="413.188" height="146.415"/>
	</defs>
	<clipPath id="SVGID_34_">
		<use xlink:href="#SVGID_33_"  overflow="visible"/>
	</clipPath>
	
		<path clip-path="url(#SVGID_34_)" fill="none" stroke="#E60012" stroke-width="2.6" stroke-linecap="round" stroke-dasharray="2.761,2.761" d="
		M165.469,73.627c4.486,2.416,10.764,5.344,17.844,7.314"/>
</g>
<line fill="none" stroke="#E60012" stroke-width="2.6" stroke-linecap="round" stroke-dasharray="2.905,2.905" x1="197.246" y1="83.836" x2="251.475" y2="94.163"/>
<line fill="none" stroke="#E60012" stroke-width="2.6" stroke-linecap="round" stroke-dasharray="3.165,3.165" x1="266.674" y1="95.504" x2="339.439" y2="97.463"/>
<g>
	<defs>
		<rect id="SVGID_35_" width="413.188" height="146.415"/>
	</defs>
	<clipPath id="SVGID_36_">
		<use xlink:href="#SVGID_35_"  overflow="visible"/>
	</clipPath>
	<path clip-path="url(#SVGID_36_)" fill="none" stroke="#E60012" stroke-width="2.6" stroke-linecap="round" d="M104.678,31.541
		l2.686,1.893 M155.691,67.469l2.685,1.891c0,0,0.827,0.582,2.313,1.506 M185.984,81.629c0.89,0.211,1.789,0.402,2.699,0.576
		l2.856,0.543 M254.328,94.706l2.854,0.543l3.164,0.086 M342.604,97.549l3.164,0.084"/>
	<path clip-path="url(#SVGID_36_)" fill="#E60012" d="M104.678,37.9c2.818,0,5.103-2.285,5.103-5.102
		c0-2.818-2.285-5.104-5.103-5.104s-5.102,2.285-5.102,5.104C99.576,35.615,101.86,37.9,104.678,37.9"/>
	<path clip-path="url(#SVGID_36_)" fill="#E60012" d="M172.143,81.889c2.818,0,5.102-2.283,5.102-5.102s-2.284-5.102-5.102-5.102
		s-5.102,2.284-5.102,5.102S169.325,81.889,172.143,81.889"/>
	<path clip-path="url(#SVGID_36_)" fill="#E60012" d="M257.184,98.977c2.816,0,5.102-2.283,5.102-5.102s-2.285-5.102-5.102-5.102
		c-2.818,0-5.104,2.283-5.104,5.102S254.365,98.977,257.184,98.977"/>
	<path clip-path="url(#SVGID_36_)" fill="#E60012" d="M345.768,104.081c2.818,0,5.102-2.285,5.102-5.102
		c0-2.818-2.283-5.104-5.102-5.104s-5.102,2.285-5.102,5.104C340.666,101.795,342.949,104.081,345.768,104.081"/>
	<path clip-path="url(#SVGID_36_)" fill="#E60012" d="M347.906,111.237c-0.084-0.418-0.441-1.779-1.602-1.779
		c-0.908,0-1.309,0.857-1.455,1.318c-0.486,1.561-0.486,3.91-0.486,4.285c0,2.613,0.381,5.053,1.963,5.053
		c1.686,0,1.961-2.988,1.961-5.098C348.287,114.049,348.182,112.249,347.906,111.237 M346.283,106.909
		c2.066,0,3.289,1.164,3.838,2.021c0.76,1.164,1.328,2.658,1.328,5.537c0,3.559-0.779,8.24-5.209,8.24
		c-3.773,0-5.082-3.779-5.082-7.867C341.158,112.797,341.559,106.909,346.283,106.909"/>
</g>
</svg>
