<?xml version="1.0" encoding="utf-8"?>
<!-- Generator: Adobe Illustrator 16.0.0, SVG Export Plug-In . SVG Version: 6.00 Build 0)  -->
<!DOCTYPE svg PUBLIC "-//W3C//DTD SVG 1.1//EN" "http://www.w3.org/Graphics/SVG/1.1/DTD/svg11.dtd">
<svg version="1.1" id="레이어_1" xmlns="http://www.w3.org/2000/svg" xmlns:xlink="http://www.w3.org/1999/xlink" x="0px"
	 y="0px" width="253.411px" height="63.041px" viewBox="0 0 253.411 63.041" enable-background="new 0 0 253.411 63.041"
	 xml:space="preserve">
<g>
	<defs>
		<rect id="SVGID_1_" y="0.001" width="253.411" height="63.04"/>
	</defs>
	<clipPath id="SVGID_2_">
		<use xlink:href="#SVGID_1_"  overflow="visible"/>
	</clipPath>
	<path clip-path="url(#SVGID_2_)" fill="#E47476" d="M242.987,2.111c0,0-0.778-2.111-3.028-2.111H1.629c0,0-2.25,0-1.462,2.108
		l10.201,27.304c0,0,0.787,2.108,0,4.216L0.167,60.933c0,0-0.788,2.107,1.462,2.107h238.33c0,0,2.25,0,3.028-2.111l10.077-27.297
		c0,0,0.779-2.112,0-4.223L242.987,2.111z"/>
</g>
<path fill="#FFFFFF" d="M65.399,17.959c-0.447,0.714-1.03,1.297-1.75,1.75l3.801,6.382h-4.521l-3-5.381h-2.561v5.381h-4.101V13.148
	c0-0.574,0.05-1.061,0.15-1.461c0.1-0.399,0.27-0.727,0.51-0.98c0.24-0.253,0.561-0.437,0.96-0.55s0.9-0.17,1.5-0.17h3.681
	c0.867,0,1.667,0.104,2.4,0.311c0.733,0.206,1.367,0.526,1.9,0.96c0.534,0.434,0.95,0.977,1.25,1.63c0.3,0.653,0.45,1.427,0.45,2.32
	v0.24C66.069,16.409,65.846,17.245,65.399,17.959z M59.968,17.329c0.68,0,1.19-0.187,1.53-0.561c0.34-0.373,0.51-0.813,0.51-1.32
	v-0.14c0-0.507-0.17-0.947-0.51-1.32c-0.34-0.373-0.85-0.561-1.53-0.561h-2.021c-0.227,0-0.38,0.037-0.46,0.11s-0.12,0.23-0.12,0.47
	v3.321H59.968z M71.767,26.15c-0.733-0.187-1.397-0.493-1.99-0.92c-0.594-0.427-1.074-0.997-1.44-1.71
	c-0.367-0.714-0.55-1.591-0.55-2.631v-1.761c0-1.066,0.177-1.953,0.53-2.66s0.807-1.273,1.36-1.7c0.553-0.427,1.167-0.73,1.84-0.91
	c0.673-0.181,1.33-0.271,1.97-0.271c0.694,0,1.371,0.084,2.031,0.25c0.66,0.167,1.25,0.483,1.77,0.95
	c0.521,0.467,0.937,1.117,1.25,1.95c0.313,0.834,0.47,1.911,0.47,3.231c0,0.173-0.01,0.38-0.03,0.62s-0.043,0.446-0.07,0.62h-7.162
	v0.02c0,0.347,0.073,0.634,0.22,0.86c0.146,0.227,0.333,0.413,0.56,0.561c0.227,0.146,0.474,0.25,0.74,0.31
	c0.267,0.061,0.52,0.09,0.76,0.09c0.493,0,0.874-0.02,1.14-0.06s0.533-0.106,0.8-0.2c0.146-0.054,0.296-0.11,0.45-0.17
	c0.153-0.061,0.317-0.104,0.49-0.13c0.347-0.04,0.664,0,0.95,0.12s0.497,0.333,0.63,0.64c0.213,0.493,0.216,0.943,0.01,1.351
	c-0.207,0.406-0.55,0.75-1.03,1.03c-0.16,0.093-0.363,0.187-0.61,0.28c-0.247,0.093-0.527,0.18-0.84,0.26s-0.647,0.144-1,0.189
	c-0.354,0.047-0.71,0.07-1.07,0.07C73.228,26.431,72.5,26.338,71.767,26.15z M72.857,16.919c-0.207,0.06-0.39,0.16-0.55,0.3
	c-0.16,0.141-0.293,0.32-0.4,0.54c-0.107,0.221-0.16,0.497-0.16,0.83h3.381c0.013-0.333-0.023-0.609-0.11-0.83
	c-0.087-0.22-0.204-0.399-0.35-0.54c-0.147-0.14-0.324-0.24-0.53-0.3c-0.207-0.061-0.417-0.09-0.63-0.09
	C73.281,16.829,73.064,16.858,72.857,16.919z M84.947,21.96c0.12,0.273,0.273,0.486,0.46,0.64c0.187,0.153,0.397,0.261,0.63,0.32
	c0.233,0.061,0.463,0.09,0.69,0.09c0.333,0,0.617-0.023,0.851-0.069c0.233-0.047,0.483-0.13,0.75-0.25
	c0.146-0.067,0.3-0.144,0.46-0.23s0.333-0.144,0.52-0.17c0.293-0.054,0.577-0.026,0.85,0.08c0.273,0.106,0.497,0.3,0.67,0.58
	c0.133,0.227,0.21,0.463,0.23,0.71s-0.013,0.487-0.1,0.721c-0.086,0.233-0.217,0.449-0.39,0.649s-0.38,0.374-0.62,0.521
	c-0.373,0.227-0.833,0.43-1.38,0.61c-0.546,0.18-1.16,0.27-1.84,0.27c-0.72,0-1.443-0.087-2.17-0.26
	c-0.727-0.174-1.38-0.474-1.96-0.9s-1.05-0.993-1.41-1.7s-0.54-1.601-0.54-2.681v-1.761c0-1.053,0.18-1.934,0.54-2.641
	c0.36-0.706,0.824-1.273,1.39-1.7c0.567-0.427,1.204-0.733,1.911-0.92c0.707-0.187,1.407-0.28,2.101-0.28
	c0.72,0,1.34,0.08,1.86,0.24c0.52,0.16,0.94,0.34,1.26,0.54c0.24,0.146,0.447,0.316,0.62,0.51s0.303,0.404,0.39,0.631
	c0.086,0.227,0.126,0.456,0.12,0.689c-0.006,0.233-0.077,0.464-0.21,0.69c-0.187,0.334-0.423,0.547-0.71,0.641
	c-0.287,0.093-0.59,0.12-0.91,0.08c-0.187-0.027-0.357-0.074-0.51-0.141s-0.303-0.133-0.45-0.2c-0.2-0.093-0.393-0.16-0.58-0.2
	c-0.187-0.039-0.433-0.06-0.74-0.06c-0.227,0-0.453,0.03-0.68,0.09c-0.227,0.061-0.437,0.167-0.63,0.32s-0.35,0.367-0.47,0.64
	c-0.12,0.273-0.18,0.624-0.18,1.051v1.8C84.767,21.336,84.827,21.687,84.947,21.96z M96.487,26.15
	c-0.733-0.187-1.397-0.493-1.99-0.92c-0.594-0.427-1.074-0.997-1.44-1.71c-0.367-0.714-0.55-1.591-0.55-2.631v-1.761
	c0-1.066,0.177-1.953,0.53-2.66s0.807-1.273,1.36-1.7c0.553-0.427,1.167-0.73,1.84-0.91c0.673-0.181,1.33-0.271,1.97-0.271
	c0.694,0,1.371,0.084,2.031,0.25c0.66,0.167,1.25,0.483,1.77,0.95c0.521,0.467,0.937,1.117,1.25,1.95
	c0.313,0.834,0.47,1.911,0.47,3.231c0,0.173-0.01,0.38-0.03,0.62s-0.043,0.446-0.07,0.62h-7.162v0.02c0,0.347,0.073,0.634,0.22,0.86
	c0.146,0.227,0.333,0.413,0.56,0.561c0.227,0.146,0.473,0.25,0.74,0.31c0.267,0.061,0.52,0.09,0.76,0.09
	c0.494,0,0.874-0.02,1.141-0.06c0.267-0.04,0.533-0.106,0.8-0.2c0.147-0.054,0.297-0.11,0.45-0.17
	c0.153-0.061,0.317-0.104,0.49-0.13c0.347-0.04,0.664,0,0.95,0.12s0.497,0.333,0.63,0.64c0.213,0.493,0.216,0.943,0.01,1.351
	c-0.207,0.406-0.55,0.75-1.03,1.03c-0.16,0.093-0.363,0.187-0.61,0.28c-0.247,0.093-0.527,0.18-0.84,0.26s-0.647,0.144-1,0.189
	c-0.353,0.047-0.71,0.07-1.07,0.07C97.948,26.431,97.221,26.338,96.487,26.15z M97.578,16.919c-0.207,0.06-0.39,0.16-0.55,0.3
	c-0.16,0.141-0.293,0.32-0.4,0.54c-0.107,0.221-0.16,0.497-0.16,0.83h3.381c0.013-0.333-0.023-0.609-0.11-0.83
	c-0.086-0.22-0.203-0.399-0.35-0.54c-0.146-0.14-0.323-0.24-0.53-0.3c-0.207-0.061-0.417-0.09-0.63-0.09
	C98.001,16.829,97.784,16.858,97.578,16.919z M106.227,9.617c0.414-0.287,0.9-0.43,1.46-0.43s1.047,0.143,1.46,0.43
	c0.413,0.287,0.62,0.757,0.62,1.41c0,0.334-0.057,0.617-0.17,0.851c-0.114,0.233-0.264,0.423-0.45,0.57
	c-0.187,0.146-0.407,0.253-0.66,0.319c-0.253,0.067-0.52,0.101-0.8,0.101c-0.28,0-0.547-0.033-0.8-0.101
	c-0.253-0.066-0.473-0.173-0.66-0.319c-0.187-0.147-0.336-0.337-0.45-0.57c-0.114-0.233-0.17-0.517-0.17-0.851
	C105.606,10.374,105.813,9.904,106.227,9.617z M106.237,14.208c0.407-0.32,0.89-0.479,1.45-0.479s1.043,0.159,1.45,0.479
	s0.61,0.827,0.61,1.521v10.362h-4.121V15.729C105.626,15.035,105.83,14.528,106.237,14.208z M114.967,26.091l-3.881-9.842
	c-0.12-0.294-0.164-0.577-0.13-0.851c0.034-0.273,0.117-0.526,0.25-0.76c0.133-0.233,0.307-0.431,0.52-0.591s0.453-0.279,0.72-0.359
	c0.533-0.147,1.057-0.113,1.57,0.1c0.513,0.214,0.876,0.641,1.09,1.28l2,6.182l1.94-6.201c0.094-0.308,0.23-0.563,0.41-0.771
	s0.387-0.363,0.62-0.47c0.233-0.107,0.483-0.171,0.75-0.19c0.267-0.021,0.533,0.003,0.8,0.07c0.253,0.066,0.487,0.183,0.7,0.35
	s0.38,0.367,0.5,0.601c0.12,0.233,0.193,0.49,0.22,0.77c0.027,0.28-0.02,0.567-0.14,0.86l-3.781,9.822H114.967z M124.867,9.617
	c0.413-0.287,0.9-0.43,1.46-0.43c0.561,0,1.047,0.143,1.46,0.43c0.414,0.287,0.62,0.757,0.62,1.41c0,0.334-0.057,0.617-0.17,0.851
	s-0.263,0.423-0.45,0.57c-0.187,0.146-0.407,0.253-0.66,0.319c-0.253,0.067-0.52,0.101-0.8,0.101c-0.28,0-0.546-0.033-0.8-0.101
	c-0.253-0.066-0.474-0.173-0.66-0.319c-0.187-0.147-0.337-0.337-0.45-0.57s-0.17-0.517-0.17-0.851
	C124.247,10.374,124.453,9.904,124.867,9.617z M124.876,14.208c0.407-0.32,0.89-0.479,1.45-0.479c0.561,0,1.044,0.159,1.451,0.479
	c0.406,0.32,0.609,0.827,0.609,1.521v10.362h-4.12V15.729C124.267,15.035,124.47,14.528,124.876,14.208z M130.486,15.589
	c0-0.334,0.057-0.624,0.17-0.87c0.113-0.247,0.264-0.454,0.45-0.62c0.187-0.167,0.399-0.294,0.64-0.381
	c0.24-0.086,0.494-0.13,0.761-0.13c0.387,0,0.75,0.094,1.091,0.28c0.34,0.187,0.596,0.46,0.77,0.82
	c0.387-0.36,0.837-0.634,1.35-0.82c0.514-0.187,1.037-0.28,1.57-0.28c0.641,0,1.238,0.087,1.791,0.261
	c0.554,0.173,1.033,0.47,1.44,0.89s0.729,0.983,0.97,1.69s0.36,1.587,0.36,2.641v7.021h-4.12v-7.262c0-0.333-0.051-0.616-0.15-0.85
	s-0.227-0.424-0.381-0.57c-0.152-0.146-0.322-0.25-0.51-0.311c-0.187-0.06-0.367-0.09-0.54-0.09s-0.354,0.03-0.54,0.09
	c-0.187,0.061-0.359,0.164-0.52,0.311s-0.291,0.337-0.391,0.57s-0.15,0.517-0.15,0.85v7.262h-4.061V15.589z M154.959,26.291
	c-0.154,0.587-0.454,1.123-0.9,1.61c-0.447,0.486-1.084,0.9-1.91,1.24c-0.827,0.34-1.914,0.536-3.262,0.59
	c-0.186,0.014-0.41,0.01-0.67-0.01c-0.26-0.021-0.529-0.054-0.811-0.101c-0.279-0.046-0.546-0.106-0.799-0.18
	c-0.254-0.073-0.461-0.156-0.621-0.25c-0.307-0.174-0.523-0.45-0.65-0.83c-0.126-0.38-0.123-0.743,0.011-1.09
	c0.12-0.32,0.327-0.574,0.62-0.761s0.613-0.253,0.96-0.2c0.294,0.04,0.601,0.08,0.921,0.12c0.319,0.04,0.666,0.061,1.039,0.061
	c0.428,0,0.794-0.051,1.101-0.15c0.308-0.1,0.561-0.236,0.761-0.41c0.199-0.173,0.346-0.366,0.439-0.58
	c0.094-0.213,0.141-0.434,0.141-0.66v-0.36c-0.348,0.347-0.761,0.617-1.24,0.811c-0.48,0.193-1.027,0.29-1.641,0.29
	c-0.667,0-1.291-0.087-1.871-0.26c-0.58-0.174-1.09-0.471-1.529-0.891c-0.44-0.42-0.787-0.98-1.041-1.681
	c-0.253-0.7-0.38-1.57-0.38-2.61v-0.88c0-1.054,0.127-1.934,0.38-2.641c0.254-0.707,0.601-1.273,1.041-1.7
	c0.439-0.427,0.953-0.73,1.54-0.91c0.587-0.181,1.214-0.271,1.88-0.271c0.508,0,1.014,0.094,1.521,0.28s0.954,0.467,1.341,0.84
	c0.16-0.373,0.41-0.653,0.75-0.84s0.71-0.28,1.109-0.28c0.534,0,1.001,0.167,1.4,0.5c0.4,0.334,0.601,0.834,0.601,1.501v9.002
	C155.188,25.138,155.111,25.704,154.959,26.291z M147.917,21.21c0.113,0.227,0.253,0.413,0.42,0.56
	c0.167,0.147,0.351,0.25,0.55,0.311c0.201,0.06,0.387,0.09,0.561,0.09s0.357-0.03,0.551-0.09c0.193-0.061,0.373-0.157,0.539-0.29
	c0.167-0.134,0.311-0.311,0.431-0.53s0.187-0.49,0.2-0.811v-1.72c-0.014-0.32-0.08-0.591-0.2-0.811s-0.264-0.396-0.431-0.53
	c-0.166-0.133-0.346-0.229-0.539-0.29c-0.193-0.06-0.377-0.09-0.551-0.09s-0.359,0.03-0.561,0.09
	c-0.199,0.061-0.383,0.164-0.55,0.311s-0.307,0.337-0.42,0.57s-0.17,0.517-0.17,0.85v1.521
	C147.747,20.696,147.804,20.983,147.917,21.21z M170.147,25.251c-0.387,0.359-0.84,0.646-1.36,0.859
	c-0.52,0.214-1.08,0.32-1.68,0.32h-0.44c-0.413,0-0.86-0.063-1.341-0.189c-0.479-0.127-0.923-0.344-1.33-0.65
	c-0.406-0.307-0.746-0.721-1.02-1.24c-0.273-0.521-0.41-1.174-0.41-1.961c0-0.76,0.133-1.394,0.4-1.9
	c0.266-0.507,0.623-0.913,1.07-1.22c0.445-0.307,0.967-0.527,1.56-0.66c0.594-0.134,1.217-0.2,1.87-0.2h2.061
	c-0.014-0.293-0.07-0.537-0.17-0.73s-0.233-0.347-0.4-0.46c-0.166-0.113-0.359-0.193-0.58-0.24c-0.22-0.046-0.449-0.069-0.689-0.069
	c-0.227,0-0.447,0.02-0.66,0.06c-0.214,0.04-0.44,0.094-0.681,0.16c-0.159,0.054-0.31,0.113-0.45,0.18
	c-0.14,0.067-0.303,0.141-0.49,0.221c-0.187,0.093-0.383,0.143-0.59,0.149s-0.41-0.02-0.609-0.08
	c-0.201-0.06-0.384-0.156-0.551-0.29c-0.166-0.133-0.297-0.3-0.391-0.5c-0.186-0.399-0.213-0.79-0.08-1.17
	c0.134-0.38,0.374-0.704,0.721-0.971c0.267-0.199,0.566-0.366,0.9-0.5c0.334-0.133,0.68-0.243,1.04-0.33s0.724-0.149,1.091-0.189
	c0.366-0.04,0.723-0.061,1.07-0.061c0.72,0,1.41,0.077,2.07,0.23s1.24,0.427,1.74,0.82c0.5,0.393,0.9,0.937,1.2,1.63
	s0.45,1.58,0.45,2.661v7.161h-3.161L170.147,25.251z M167.707,21.35c-0.387,0-0.68,0.09-0.88,0.271c-0.2,0.18-0.3,0.43-0.3,0.75
	c0,0.333,0.1,0.58,0.3,0.74s0.474,0.24,0.819,0.24h0.281c0.186,0,0.373-0.027,0.56-0.08c0.187-0.054,0.356-0.134,0.511-0.24
	c0.152-0.106,0.279-0.24,0.379-0.4c0.101-0.16,0.15-0.347,0.15-0.56V21.35H167.707z M175.406,15.589c0-0.334,0.057-0.624,0.17-0.87
	c0.113-0.247,0.264-0.454,0.45-0.62c0.187-0.167,0.399-0.294,0.64-0.381c0.24-0.086,0.494-0.13,0.76-0.13
	c0.388,0,0.751,0.094,1.091,0.28c0.341,0.187,0.597,0.46,0.771,0.82c0.387-0.36,0.836-0.634,1.35-0.82s1.037-0.28,1.57-0.28
	c0.641,0,1.237,0.087,1.791,0.261c0.553,0.173,1.033,0.47,1.439,0.89c0.407,0.42,0.73,0.983,0.971,1.69s0.36,1.587,0.36,2.641v7.021
	h-4.121v-7.262c0-0.333-0.05-0.616-0.149-0.85c-0.101-0.233-0.227-0.424-0.381-0.57c-0.153-0.146-0.323-0.25-0.51-0.311
	c-0.187-0.06-0.367-0.09-0.54-0.09s-0.354,0.03-0.54,0.09c-0.188,0.061-0.36,0.164-0.521,0.311c-0.159,0.146-0.29,0.337-0.39,0.57
	s-0.15,0.517-0.15,0.85v7.262h-4.061V15.589z M196.748,24.79c-0.387,0.507-0.863,0.907-1.431,1.201
	c-0.567,0.293-1.21,0.439-1.931,0.439c-0.666,0-1.293-0.09-1.881-0.27c-0.586-0.181-1.104-0.483-1.55-0.91s-0.8-0.994-1.06-1.701
	c-0.261-0.706-0.391-1.587-0.391-2.641v-1.8c0-1.054,0.13-1.934,0.391-2.641c0.26-0.707,0.613-1.273,1.06-1.7s0.964-0.73,1.55-0.91
	c0.588-0.181,1.215-0.271,1.881-0.271c0.561,0,1.064,0.084,1.511,0.25c0.446,0.167,0.843,0.397,1.19,0.69v-3.341
	c0-0.333,0.057-0.623,0.17-0.87s0.264-0.453,0.449-0.62c0.188-0.167,0.404-0.293,0.65-0.38c0.247-0.087,0.504-0.13,0.771-0.13
	s0.521,0.043,0.761,0.13c0.239,0.087,0.453,0.213,0.64,0.38s0.337,0.373,0.45,0.62s0.17,0.537,0.17,0.87v14.903h-3.181
	L196.748,24.79z M192.797,22.05c0.113,0.227,0.257,0.413,0.43,0.561c0.174,0.146,0.36,0.25,0.561,0.31
	c0.199,0.061,0.387,0.09,0.561,0.09c0.173,0,0.355-0.029,0.55-0.09c0.193-0.06,0.376-0.156,0.55-0.29
	c0.174-0.133,0.32-0.31,0.439-0.53c0.121-0.22,0.188-0.49,0.201-0.81v-2.561c-0.014-0.32-0.08-0.591-0.201-0.811
	c-0.119-0.22-0.266-0.396-0.439-0.53c-0.174-0.133-0.356-0.229-0.55-0.29c-0.193-0.06-0.377-0.09-0.55-0.09
	c-0.174,0-0.361,0.03-0.561,0.09c-0.2,0.061-0.387,0.164-0.561,0.311c-0.173,0.146-0.316,0.337-0.43,0.57s-0.17,0.517-0.17,0.85
	v2.36C192.627,21.536,192.684,21.823,192.797,22.05z"/>
<path fill="#FFFFFF" d="M23.428,50.31c-0.227-0.039-0.447-0.1-0.66-0.18s-0.397-0.18-0.55-0.301
	c-0.153-0.119-0.257-0.266-0.31-0.439l-2.021-7.301l-0.92,9.002h-3.781l1.681-14.145c0.026-0.307,0.11-0.58,0.25-0.818
	c0.14-0.24,0.31-0.443,0.51-0.611c0.2-0.166,0.417-0.297,0.65-0.391c0.233-0.092,0.463-0.152,0.69-0.18
	c0.24-0.014,0.497,0,0.77,0.041c0.273,0.039,0.533,0.123,0.78,0.25c0.247,0.127,0.47,0.299,0.67,0.52s0.347,0.496,0.44,0.83
	l2.421,9.162l2.42-9.162c0.093-0.334,0.237-0.609,0.43-0.83s0.417-0.393,0.67-0.52s0.517-0.211,0.79-0.25
	c0.273-0.041,0.53-0.055,0.771-0.041c0.227,0.027,0.457,0.088,0.69,0.18c0.233,0.094,0.45,0.225,0.65,0.391
	c0.2,0.168,0.37,0.371,0.51,0.611c0.14,0.238,0.224,0.512,0.25,0.818l1.681,14.145h-3.781l-0.9-9.063l-2.041,7.361
	c-0.053,0.174-0.157,0.32-0.31,0.439c-0.153,0.121-0.336,0.221-0.55,0.301s-0.434,0.141-0.66,0.18
	c-0.227,0.041-0.434,0.061-0.62,0.061C23.861,50.371,23.655,50.351,23.428,50.31z M41.968,50.251
	c-0.387,0.359-0.84,0.646-1.36,0.859s-1.08,0.32-1.68,0.32h-0.44c-0.413,0-0.86-0.064-1.34-0.189c-0.48-0.127-0.923-0.344-1.33-0.65
	s-0.747-0.721-1.02-1.24c-0.273-0.521-0.41-1.174-0.41-1.961c0-0.76,0.133-1.395,0.4-1.9c0.267-0.508,0.624-0.914,1.07-1.221
	s0.967-0.527,1.561-0.66c0.593-0.133,1.217-0.199,1.87-0.199h2.061c-0.013-0.293-0.07-0.537-0.17-0.73s-0.233-0.348-0.4-0.461
	c-0.167-0.113-0.36-0.193-0.58-0.24c-0.22-0.045-0.45-0.068-0.69-0.068c-0.227,0-0.447,0.02-0.66,0.059
	c-0.213,0.041-0.44,0.094-0.68,0.16c-0.16,0.055-0.31,0.113-0.45,0.18c-0.14,0.068-0.303,0.141-0.49,0.221
	c-0.187,0.094-0.383,0.143-0.59,0.15c-0.207,0.006-0.41-0.02-0.61-0.08c-0.2-0.061-0.383-0.156-0.55-0.291
	c-0.167-0.133-0.297-0.299-0.39-0.5c-0.187-0.398-0.213-0.789-0.08-1.17c0.133-0.379,0.374-0.703,0.72-0.971
	c0.267-0.199,0.566-0.365,0.9-0.5c0.333-0.133,0.68-0.242,1.041-0.33c0.36-0.086,0.723-0.148,1.09-0.189
	c0.367-0.039,0.724-0.061,1.07-0.061c0.72,0,1.411,0.078,2.071,0.23c0.66,0.154,1.24,0.428,1.74,0.82s0.9,0.938,1.2,1.631
	s0.45,1.58,0.45,2.66v7.162h-3.161L41.968,50.251z M39.527,46.349c-0.387,0-0.68,0.09-0.88,0.271c-0.2,0.18-0.3,0.43-0.3,0.75
	c0,0.332,0.1,0.58,0.3,0.74s0.474,0.24,0.82,0.24h0.28c0.187,0,0.374-0.027,0.561-0.08c0.187-0.055,0.356-0.135,0.51-0.24
	c0.153-0.107,0.28-0.24,0.38-0.4s0.15-0.348,0.15-0.561v-0.721H39.527z M47.226,40.589c0-0.334,0.057-0.625,0.17-0.871
	s0.264-0.453,0.45-0.619c0.187-0.168,0.4-0.295,0.64-0.381s0.494-0.131,0.76-0.131c0.387,0,0.75,0.094,1.09,0.281
	c0.34,0.186,0.597,0.459,0.77,0.82c0.387-0.361,0.837-0.635,1.35-0.82c0.514-0.188,1.037-0.281,1.57-0.281
	c0.64,0,1.237,0.088,1.791,0.262c0.554,0.172,1.034,0.469,1.44,0.889s0.73,0.984,0.97,1.691s0.36,1.586,0.36,2.641v7.021h-4.121
	V43.83c0-0.334-0.05-0.617-0.15-0.85c-0.1-0.234-0.227-0.424-0.38-0.57s-0.323-0.25-0.51-0.311c-0.187-0.061-0.367-0.09-0.54-0.09
	s-0.354,0.029-0.54,0.09s-0.36,0.164-0.52,0.311s-0.29,0.336-0.39,0.57c-0.1,0.232-0.15,0.516-0.15,0.85v7.262h-4.061V40.589z
	 M67.888,50.251c-0.387,0.359-0.84,0.646-1.36,0.859s-1.08,0.32-1.681,0.32h-0.44c-0.414,0-0.86-0.064-1.34-0.189
	c-0.48-0.127-0.923-0.344-1.33-0.65s-0.747-0.721-1.021-1.24c-0.273-0.521-0.41-1.174-0.41-1.961c0-0.76,0.133-1.395,0.4-1.9
	c0.267-0.508,0.624-0.914,1.07-1.221s0.967-0.527,1.56-0.66c0.594-0.133,1.217-0.199,1.871-0.199h2.061
	c-0.014-0.293-0.07-0.537-0.17-0.73c-0.1-0.193-0.233-0.348-0.4-0.461s-0.36-0.193-0.58-0.24c-0.22-0.045-0.45-0.068-0.69-0.068
	c-0.227,0-0.447,0.02-0.66,0.059c-0.213,0.041-0.44,0.094-0.68,0.16c-0.16,0.055-0.31,0.113-0.45,0.18
	c-0.14,0.068-0.304,0.141-0.49,0.221c-0.187,0.094-0.383,0.143-0.59,0.15c-0.207,0.006-0.41-0.02-0.61-0.08s-0.383-0.156-0.55-0.291
	c-0.167-0.133-0.296-0.299-0.39-0.5c-0.187-0.398-0.213-0.789-0.08-1.17c0.133-0.379,0.373-0.703,0.72-0.971
	c0.267-0.199,0.567-0.365,0.9-0.5c0.333-0.133,0.68-0.242,1.04-0.33c0.36-0.086,0.724-0.148,1.09-0.189
	c0.367-0.039,0.724-0.061,1.07-0.061c0.72,0,1.41,0.078,2.07,0.23c0.66,0.154,1.24,0.428,1.741,0.82c0.5,0.393,0.9,0.938,1.2,1.631
	c0.3,0.693,0.45,1.58,0.45,2.66v7.162h-3.161L67.888,50.251z M65.447,46.349c-0.387,0-0.68,0.09-0.88,0.271
	c-0.2,0.18-0.3,0.43-0.3,0.75c0,0.332,0.1,0.58,0.3,0.74s0.473,0.24,0.82,0.24h0.28c0.187,0,0.374-0.027,0.56-0.08
	c0.187-0.055,0.357-0.135,0.51-0.24c0.153-0.107,0.28-0.24,0.38-0.4c0.1-0.16,0.15-0.348,0.15-0.561v-0.721H65.447z M84.318,51.291
	c-0.153,0.588-0.454,1.123-0.9,1.611c-0.447,0.486-1.083,0.9-1.91,1.24c-0.827,0.34-1.914,0.535-3.261,0.59
	c-0.187,0.014-0.41,0.01-0.67-0.01c-0.26-0.021-0.53-0.055-0.81-0.102c-0.28-0.045-0.547-0.105-0.8-0.18
	c-0.253-0.072-0.46-0.156-0.62-0.25c-0.307-0.174-0.523-0.449-0.65-0.83c-0.127-0.379-0.124-0.742,0.01-1.09
	c0.12-0.32,0.327-0.574,0.62-0.76c0.293-0.188,0.614-0.254,0.96-0.201c0.293,0.041,0.6,0.08,0.92,0.121
	c0.32,0.039,0.667,0.061,1.04,0.061c0.427,0,0.793-0.051,1.1-0.15s0.56-0.236,0.76-0.41s0.347-0.367,0.44-0.58s0.14-0.434,0.14-0.66
	V49.33c-0.347,0.348-0.76,0.617-1.24,0.811s-1.027,0.291-1.64,0.291c-0.667,0-1.291-0.088-1.871-0.26
	c-0.58-0.174-1.09-0.471-1.53-0.891s-0.787-0.98-1.04-1.682c-0.253-0.699-0.38-1.57-0.38-2.609v-0.881
	c0-1.053,0.127-1.934,0.38-2.641c0.253-0.707,0.6-1.273,1.04-1.699c0.44-0.428,0.954-0.73,1.54-0.91
	c0.587-0.182,1.214-0.271,1.881-0.271c0.506,0,1.013,0.094,1.52,0.281c0.507,0.186,0.954,0.467,1.34,0.84
	c0.16-0.373,0.41-0.654,0.75-0.84c0.34-0.188,0.71-0.281,1.11-0.281c0.534,0,1,0.168,1.4,0.5c0.4,0.334,0.6,0.834,0.6,1.502v9.002
	C84.548,50.138,84.472,50.705,84.318,51.291z M77.277,46.21c0.113,0.227,0.253,0.412,0.42,0.559c0.167,0.148,0.35,0.25,0.55,0.311
	s0.387,0.09,0.56,0.09s0.357-0.029,0.55-0.09s0.373-0.156,0.54-0.289c0.167-0.135,0.31-0.311,0.43-0.531
	c0.12-0.219,0.187-0.49,0.2-0.811V43.73c-0.013-0.32-0.08-0.592-0.2-0.811c-0.12-0.221-0.264-0.396-0.43-0.531
	c-0.167-0.133-0.347-0.229-0.54-0.289s-0.377-0.09-0.55-0.09s-0.36,0.029-0.56,0.09s-0.383,0.164-0.55,0.311
	c-0.167,0.146-0.307,0.336-0.42,0.57c-0.113,0.232-0.17,0.516-0.17,0.85v1.52C77.107,45.697,77.164,45.984,77.277,46.21z
	 M90.367,51.15c-0.733-0.186-1.397-0.492-1.99-0.92c-0.594-0.426-1.074-0.996-1.44-1.709c-0.367-0.715-0.55-1.592-0.55-2.631v-1.762
	c0-1.066,0.177-1.953,0.53-2.66s0.807-1.273,1.36-1.699c0.553-0.428,1.167-0.73,1.84-0.91c0.673-0.182,1.33-0.271,1.97-0.271
	c0.694,0,1.371,0.084,2.031,0.25c0.66,0.168,1.25,0.484,1.77,0.951c0.521,0.467,0.937,1.117,1.25,1.949
	c0.313,0.834,0.47,1.912,0.47,3.232c0,0.172-0.01,0.379-0.03,0.619s-0.043,0.447-0.07,0.621h-7.162v0.02
	c0,0.346,0.073,0.633,0.22,0.859c0.146,0.227,0.333,0.414,0.56,0.561s0.473,0.25,0.74,0.311c0.267,0.061,0.52,0.09,0.76,0.09
	c0.494,0,0.874-0.02,1.141-0.061c0.267-0.039,0.533-0.105,0.8-0.199c0.147-0.055,0.297-0.111,0.45-0.17
	c0.153-0.061,0.317-0.104,0.49-0.131c0.347-0.039,0.664,0,0.95,0.121c0.287,0.119,0.497,0.332,0.63,0.639
	c0.214,0.494,0.217,0.943,0.01,1.352c-0.207,0.406-0.55,0.75-1.03,1.029c-0.16,0.094-0.363,0.188-0.61,0.281
	c-0.247,0.092-0.527,0.18-0.84,0.26s-0.647,0.143-1,0.189c-0.353,0.047-0.71,0.07-1.07,0.07C91.827,51.431,91.1,51.337,90.367,51.15
	z M91.457,41.919c-0.207,0.059-0.39,0.16-0.55,0.299c-0.16,0.141-0.293,0.32-0.4,0.541c-0.107,0.221-0.16,0.496-0.16,0.83h3.381
	c0.013-0.334-0.023-0.609-0.11-0.83c-0.086-0.221-0.203-0.4-0.35-0.541c-0.146-0.139-0.323-0.24-0.53-0.299
	c-0.207-0.061-0.417-0.09-0.63-0.09C91.88,41.83,91.664,41.859,91.457,41.919z M99.406,40.589c0-0.334,0.057-0.625,0.17-0.871
	s0.263-0.453,0.45-0.619c0.187-0.168,0.4-0.295,0.64-0.381c0.24-0.086,0.494-0.131,0.76-0.131c0.387,0,0.75,0.094,1.09,0.281
	c0.34,0.186,0.59,0.459,0.75,0.82c0.774-0.734,1.707-1.102,2.801-1.102c0.613,0,1.2,0.107,1.76,0.32s1.054,0.574,1.48,1.08
	c0.414-0.426,0.914-0.766,1.5-1.02c0.586-0.254,1.287-0.381,2.1-0.381c0.64,0,1.247,0.09,1.821,0.271
	c0.573,0.18,1.077,0.479,1.51,0.9c0.433,0.42,0.78,0.982,1.04,1.689s0.39,1.58,0.39,2.621v7.021h-4.121V43.83
	c0-0.334-0.046-0.617-0.14-0.85c-0.094-0.234-0.217-0.424-0.37-0.57s-0.32-0.25-0.5-0.311c-0.18-0.061-0.35-0.09-0.51-0.09
	c-0.16,0-0.333,0.029-0.52,0.09c-0.187,0.061-0.354,0.164-0.5,0.311c-0.146,0.146-0.27,0.336-0.37,0.57
	c-0.1,0.232-0.15,0.516-0.15,0.85v7.262h-3.961V43.83c0-0.334-0.046-0.617-0.14-0.85c-0.094-0.234-0.217-0.424-0.37-0.57
	s-0.32-0.25-0.5-0.311c-0.18-0.061-0.35-0.09-0.51-0.09c-0.16,0-0.33,0.029-0.51,0.09s-0.343,0.156-0.49,0.289
	c-0.146,0.135-0.27,0.311-0.37,0.531c-0.1,0.219-0.157,0.49-0.17,0.811v7.361h-4.061V40.589z M123.427,51.15
	c-0.733-0.186-1.397-0.492-1.991-0.92c-0.593-0.426-1.073-0.996-1.44-1.709c-0.367-0.715-0.55-1.592-0.55-2.631v-1.762
	c0-1.066,0.177-1.953,0.53-2.66s0.807-1.273,1.36-1.699c0.553-0.428,1.167-0.73,1.84-0.91c0.673-0.182,1.33-0.271,1.97-0.271
	c0.693,0,1.371,0.084,2.031,0.25c0.66,0.168,1.25,0.484,1.77,0.951c0.521,0.467,0.938,1.117,1.251,1.949
	c0.313,0.834,0.47,1.912,0.47,3.232c0,0.172-0.01,0.379-0.029,0.619c-0.021,0.24-0.044,0.447-0.07,0.621h-7.162v0.02
	c0,0.346,0.073,0.633,0.22,0.859c0.146,0.227,0.333,0.414,0.56,0.561c0.227,0.146,0.473,0.25,0.74,0.311
	c0.267,0.061,0.52,0.09,0.76,0.09c0.494,0,0.874-0.02,1.141-0.061c0.267-0.039,0.533-0.105,0.8-0.199
	c0.147-0.055,0.297-0.111,0.451-0.17c0.152-0.061,0.316-0.104,0.49-0.131c0.346-0.039,0.663,0,0.949,0.121
	c0.287,0.119,0.497,0.332,0.631,0.639c0.213,0.494,0.217,0.943,0.01,1.352c-0.207,0.406-0.551,0.75-1.03,1.029
	c-0.16,0.094-0.363,0.188-0.61,0.281c-0.246,0.092-0.526,0.18-0.84,0.26s-0.647,0.143-1,0.189c-0.353,0.047-0.71,0.07-1.07,0.07
	C124.887,51.431,124.16,51.337,123.427,51.15z M124.517,41.919c-0.207,0.059-0.39,0.16-0.55,0.299c-0.16,0.141-0.293,0.32-0.4,0.541
	c-0.107,0.221-0.16,0.496-0.16,0.83h3.381c0.013-0.334-0.023-0.609-0.11-0.83c-0.086-0.221-0.203-0.4-0.35-0.541
	c-0.146-0.139-0.323-0.24-0.53-0.299c-0.207-0.061-0.417-0.09-0.63-0.09C124.94,41.83,124.724,41.859,124.517,41.919z
	 M132.466,40.589c0-0.334,0.057-0.625,0.171-0.871c0.113-0.246,0.263-0.453,0.449-0.619c0.188-0.168,0.4-0.295,0.641-0.381
	s0.493-0.131,0.76-0.131c0.387,0,0.75,0.094,1.09,0.281c0.34,0.186,0.598,0.459,0.771,0.82c0.387-0.361,0.837-0.635,1.351-0.82
	c0.514-0.188,1.037-0.281,1.57-0.281c0.641,0,1.236,0.088,1.79,0.262c0.554,0.172,1.034,0.469,1.44,0.889s0.73,0.984,0.971,1.691
	s0.359,1.586,0.359,2.641v7.021h-4.121V43.83c0-0.334-0.049-0.617-0.149-0.85c-0.101-0.234-0.228-0.424-0.38-0.57
	c-0.154-0.146-0.324-0.25-0.51-0.311c-0.188-0.061-0.367-0.09-0.541-0.09s-0.354,0.029-0.54,0.09s-0.36,0.164-0.521,0.311
	s-0.289,0.336-0.39,0.57c-0.101,0.232-0.149,0.516-0.149,0.85v7.262h-4.062V40.589z M146.525,42.289c-0.626,0-1.076-0.166-1.35-0.5
	s-0.41-0.713-0.41-1.141c0-0.199,0.03-0.4,0.09-0.6c0.061-0.199,0.16-0.381,0.301-0.541c0.14-0.158,0.322-0.289,0.55-0.389
	c0.227-0.1,0.5-0.15,0.819-0.15h0.66v-2.08c0-0.334,0.057-0.627,0.171-0.881c0.113-0.254,0.263-0.459,0.45-0.619
	c0.187-0.16,0.396-0.281,0.63-0.361s0.477-0.119,0.729-0.119c0.254,0,0.498,0.039,0.73,0.119c0.233,0.08,0.443,0.201,0.631,0.361
	c0.186,0.16,0.336,0.365,0.449,0.619s0.17,0.547,0.17,0.881v2.08h1.181c0.32,0,0.591,0.051,0.81,0.15
	c0.221,0.1,0.4,0.23,0.541,0.389c0.14,0.16,0.243,0.342,0.311,0.541c0.066,0.199,0.1,0.4,0.1,0.6c0,0.428-0.137,0.807-0.41,1.141
	s-0.724,0.5-1.351,0.5h-1.181v4.961c0,0.307,0.064,0.508,0.19,0.6c0.127,0.094,0.276,0.148,0.45,0.16
	c0.146,0.014,0.28,0.004,0.4-0.029c0.119-0.033,0.279-0.051,0.48-0.051c0.333,0,0.626,0.102,0.879,0.301
	c0.254,0.201,0.414,0.467,0.48,0.801c0.094,0.412,0.063,0.779-0.09,1.1s-0.37,0.574-0.65,0.76c-0.227,0.146-0.514,0.273-0.859,0.381
	c-0.348,0.107-0.693,0.16-1.041,0.16c-0.666,0-1.26-0.074-1.78-0.221s-0.96-0.379-1.319-0.699c-0.361-0.32-0.635-0.74-0.82-1.262
	c-0.188-0.52-0.281-1.16-0.281-1.92v-5.041H146.525z M165.427,40.628c0.44,0.268,1.06,0.533,1.86,0.801l0.98,0.34
	c0.586,0.213,1.117,0.48,1.59,0.801c0.474,0.318,0.877,0.695,1.211,1.129c0.333,0.434,0.58,0.92,0.74,1.461
	c0.16,0.539,0.22,1.131,0.18,1.77c-0.094,1.428-0.67,2.535-1.73,3.322c-1.061,0.785-2.504,1.18-4.331,1.18
	c-0.894,0-1.754-0.098-2.581-0.291c-0.826-0.193-1.514-0.502-2.061-0.93c-0.186-0.16-0.346-0.344-0.479-0.551
	c-0.134-0.205-0.229-0.422-0.29-0.648c-0.061-0.229-0.07-0.465-0.029-0.711c0.039-0.246,0.133-0.484,0.279-0.711
	s0.354-0.4,0.62-0.52s0.534-0.188,0.8-0.199c0.348-0.014,0.624,0.039,0.83,0.16c0.207,0.119,0.404,0.232,0.591,0.34
	c0.227,0.146,0.521,0.27,0.88,0.369c0.36,0.1,0.881,0.15,1.561,0.15c0.561,0,0.994-0.1,1.301-0.301
	c0.307-0.199,0.467-0.52,0.479-0.959c0-0.188-0.073-0.367-0.22-0.541s-0.357-0.334-0.631-0.48s-0.59-0.289-0.949-0.43
	c-0.361-0.141-0.748-0.277-1.16-0.41c-0.16-0.053-0.33-0.113-0.511-0.18s-0.33-0.127-0.45-0.18c-0.76-0.32-1.373-0.717-1.84-1.191
	c-0.467-0.473-0.817-0.986-1.051-1.539c-0.233-0.555-0.354-1.123-0.359-1.711c-0.008-0.586,0.076-1.141,0.25-1.66
	c0.346-1.08,0.99-1.914,1.93-2.5c0.94-0.588,2.098-0.881,3.471-0.881c0.521,0,0.977,0.023,1.371,0.07
	c0.393,0.047,0.74,0.107,1.039,0.18c0.301,0.074,0.561,0.16,0.781,0.26c0.22,0.1,0.423,0.197,0.609,0.291
	c0.467,0.252,0.83,0.605,1.09,1.061c0.261,0.453,0.317,0.92,0.171,1.4c-0.134,0.412-0.356,0.705-0.671,0.879
	c-0.313,0.174-0.663,0.26-1.05,0.26c-0.146,0-0.313-0.025-0.5-0.08c-0.187-0.053-0.327-0.113-0.42-0.18
	c-0.24-0.16-0.547-0.299-0.921-0.42c-0.373-0.119-0.859-0.18-1.46-0.18c-0.479,0-0.856,0.096-1.13,0.289s-0.417,0.498-0.43,0.91
	C164.773,40.042,164.986,40.361,165.427,40.628z M178.137,54.072c-1.033,0.586-2.25,0.779-3.65,0.58
	c-0.294-0.041-0.547-0.123-0.761-0.25s-0.39-0.283-0.53-0.471c-0.14-0.186-0.236-0.387-0.29-0.6s-0.066-0.434-0.04-0.66
	c0.066-0.453,0.264-0.83,0.59-1.131c0.327-0.299,0.791-0.396,1.391-0.289c0.414,0.08,0.807,0.059,1.181-0.061
	c0.373-0.121,0.64-0.334,0.8-0.641v-0.02l-4.08-9.082c-0.134-0.293-0.197-0.58-0.191-0.859c0.008-0.281,0.064-0.541,0.171-0.781
	s0.257-0.449,0.45-0.631c0.193-0.18,0.424-0.316,0.689-0.408c0.254-0.094,0.521-0.148,0.801-0.16
	c0.279-0.014,0.543,0.023,0.79,0.109s0.47,0.227,0.67,0.42s0.36,0.449,0.48,0.77l2.3,6.223l2.121-6.223
	c0.106-0.32,0.26-0.576,0.46-0.77s0.423-0.334,0.67-0.42s0.504-0.123,0.771-0.109c0.267,0.012,0.533,0.066,0.801,0.16
	c0.252,0.092,0.477,0.229,0.67,0.408c0.193,0.182,0.34,0.391,0.439,0.631s0.15,0.5,0.15,0.781c0,0.279-0.061,0.566-0.18,0.859
	l-4.201,9.621C179.994,52.484,179.17,53.484,178.137,54.072z M190.377,42.949c0.313,0.121,0.843,0.246,1.59,0.381
	c0.133,0.025,0.264,0.053,0.391,0.08c0.126,0.025,0.25,0.053,0.369,0.08c1.201,0.307,2.081,0.83,2.641,1.57
	c0.561,0.74,0.768,1.717,0.621,2.93c-0.08,0.588-0.271,1.098-0.57,1.531c-0.301,0.434-0.69,0.789-1.171,1.07
	c-0.479,0.279-1.03,0.49-1.65,0.629c-0.62,0.141-1.276,0.211-1.97,0.211c-0.348,0-0.704-0.018-1.07-0.051
	c-0.367-0.033-0.73-0.09-1.091-0.17s-0.706-0.189-1.04-0.33s-0.627-0.316-0.881-0.529c-0.346-0.293-0.583-0.658-0.709-1.09
	c-0.127-0.434-0.051-0.865,0.229-1.291c0.147-0.213,0.33-0.367,0.55-0.461c0.221-0.092,0.464-0.146,0.73-0.16
	c0.32-0.012,0.574,0.035,0.76,0.141c0.188,0.107,0.367,0.213,0.541,0.32c0.213,0.133,0.52,0.24,0.92,0.32s0.793,0.119,1.18,0.119
	s0.684-0.066,0.891-0.199s0.323-0.293,0.35-0.48c0.027-0.24-0.176-0.43-0.609-0.57s-1.037-0.289-1.811-0.449
	c-0.146-0.027-0.29-0.057-0.43-0.09c-0.141-0.033-0.271-0.07-0.391-0.111c-0.787-0.24-1.4-0.563-1.84-0.969
	c-0.44-0.408-0.748-0.857-0.921-1.352c-0.173-0.492-0.233-1.006-0.18-1.539c0.054-0.535,0.187-1.035,0.399-1.502
	c0.201-0.412,0.464-0.773,0.791-1.08c0.326-0.307,0.699-0.557,1.119-0.75c0.421-0.193,0.871-0.336,1.352-0.43
	c0.479-0.094,0.973-0.141,1.48-0.141c0.799,0,1.486,0.074,2.06,0.221s1.034,0.32,1.38,0.52c0.414,0.227,0.74,0.537,0.98,0.932
	c0.24,0.393,0.294,0.816,0.16,1.27c-0.119,0.387-0.32,0.654-0.6,0.801c-0.28,0.146-0.601,0.219-0.961,0.219
	c-0.133,0-0.283-0.023-0.449-0.07c-0.167-0.045-0.297-0.102-0.391-0.17c-0.12-0.08-0.267-0.148-0.439-0.209
	c-0.174-0.061-0.357-0.117-0.551-0.17c-0.193-0.055-0.391-0.094-0.59-0.121c-0.2-0.025-0.381-0.039-0.541-0.039
	c-0.319,0-0.572,0.063-0.76,0.189c-0.187,0.127-0.287,0.277-0.3,0.451C189.92,42.65,190.063,42.83,190.377,42.949z M198.205,42.289
	c-0.626,0-1.076-0.166-1.35-0.5s-0.41-0.713-0.41-1.141c0-0.199,0.03-0.4,0.09-0.6c0.061-0.199,0.16-0.381,0.301-0.541
	c0.14-0.158,0.322-0.289,0.55-0.389c0.227-0.1,0.5-0.15,0.819-0.15h0.66v-2.08c0-0.334,0.057-0.627,0.171-0.881
	c0.113-0.254,0.263-0.459,0.45-0.619c0.187-0.16,0.396-0.281,0.63-0.361s0.477-0.119,0.729-0.119c0.254,0,0.498,0.039,0.73,0.119
	c0.233,0.08,0.443,0.201,0.631,0.361c0.186,0.16,0.336,0.365,0.449,0.619s0.17,0.547,0.17,0.881v2.08h1.181
	c0.32,0,0.591,0.051,0.81,0.15c0.221,0.1,0.4,0.23,0.541,0.389c0.14,0.16,0.243,0.342,0.311,0.541c0.066,0.199,0.1,0.4,0.1,0.6
	c0,0.428-0.137,0.807-0.41,1.141s-0.724,0.5-1.351,0.5h-1.181v4.961c0,0.307,0.064,0.508,0.19,0.6
	c0.127,0.094,0.276,0.148,0.45,0.16c0.146,0.014,0.28,0.004,0.4-0.029c0.119-0.033,0.279-0.051,0.48-0.051
	c0.333,0,0.626,0.102,0.879,0.301c0.254,0.201,0.414,0.467,0.48,0.801c0.094,0.412,0.063,0.779-0.09,1.1s-0.37,0.574-0.65,0.76
	c-0.227,0.146-0.514,0.273-0.859,0.381c-0.348,0.107-0.693,0.16-1.041,0.16c-0.666,0-1.26-0.074-1.78-0.221s-0.96-0.379-1.319-0.699
	c-0.361-0.32-0.635-0.74-0.82-1.262c-0.188-0.52-0.281-1.16-0.281-1.92v-5.041H198.205z M210.686,51.15
	c-0.732-0.186-1.396-0.492-1.99-0.92c-0.593-0.426-1.073-0.996-1.439-1.709c-0.367-0.715-0.551-1.592-0.551-2.631v-1.762
	c0-1.066,0.177-1.953,0.53-2.66s0.808-1.273,1.36-1.699c0.554-0.428,1.167-0.73,1.84-0.91c0.674-0.182,1.331-0.271,1.971-0.271
	c0.693,0,1.371,0.084,2.031,0.25c0.66,0.168,1.25,0.484,1.77,0.951c0.521,0.467,0.938,1.117,1.25,1.949
	c0.314,0.834,0.471,1.912,0.471,3.232c0,0.172-0.01,0.379-0.029,0.619c-0.021,0.24-0.044,0.447-0.07,0.621h-7.162v0.02
	c0,0.346,0.074,0.633,0.221,0.859s0.333,0.414,0.56,0.561s0.474,0.25,0.74,0.311s0.521,0.09,0.761,0.09
	c0.492,0,0.873-0.02,1.14-0.061c0.267-0.039,0.534-0.105,0.8-0.199c0.146-0.055,0.297-0.111,0.451-0.17
	c0.152-0.061,0.316-0.104,0.489-0.131c0.347-0.039,0.663,0,0.95,0.121c0.287,0.119,0.497,0.332,0.631,0.639
	c0.213,0.494,0.217,0.943,0.01,1.352c-0.207,0.406-0.551,0.75-1.031,1.029c-0.159,0.094-0.363,0.188-0.609,0.281
	c-0.246,0.092-0.527,0.18-0.84,0.26c-0.314,0.08-0.646,0.143-1,0.189s-0.711,0.07-1.07,0.07
	C212.146,51.431,211.42,51.337,210.686,51.15z M211.776,41.919c-0.206,0.059-0.39,0.16-0.55,0.299c-0.16,0.141-0.293,0.32-0.4,0.541
	c-0.106,0.221-0.16,0.496-0.16,0.83h3.381c0.014-0.334-0.023-0.609-0.109-0.83c-0.088-0.221-0.204-0.4-0.351-0.541
	c-0.147-0.139-0.323-0.24-0.53-0.299c-0.207-0.061-0.416-0.09-0.63-0.09C212.199,41.83,211.983,41.859,211.776,41.919z
	 M219.726,40.589c0-0.334,0.057-0.625,0.17-0.871s0.264-0.453,0.45-0.619c0.187-0.168,0.4-0.295,0.641-0.381
	c0.239-0.086,0.492-0.131,0.76-0.131c0.387,0,0.75,0.094,1.09,0.281c0.34,0.186,0.59,0.459,0.75,0.82
	c0.773-0.734,1.707-1.102,2.801-1.102c0.613,0,1.201,0.107,1.761,0.32s1.054,0.574,1.479,1.08c0.414-0.426,0.914-0.766,1.501-1.02
	s1.287-0.381,2.101-0.381c0.641,0,1.246,0.09,1.82,0.271c0.573,0.18,1.076,0.479,1.51,0.9c0.434,0.42,0.781,0.982,1.041,1.689
	s0.39,1.58,0.39,2.621v7.021h-4.12V43.83c0-0.334-0.047-0.617-0.141-0.85c-0.094-0.234-0.217-0.424-0.37-0.57s-0.319-0.25-0.5-0.311
	s-0.351-0.09-0.511-0.09s-0.333,0.029-0.52,0.09s-0.354,0.164-0.5,0.311s-0.27,0.336-0.37,0.57c-0.101,0.232-0.149,0.516-0.149,0.85
	v7.262h-3.961V43.83c0-0.334-0.047-0.617-0.141-0.85c-0.094-0.234-0.217-0.424-0.37-0.57s-0.319-0.25-0.5-0.311
	s-0.351-0.09-0.511-0.09s-0.33,0.029-0.51,0.09s-0.344,0.156-0.49,0.289c-0.146,0.135-0.27,0.311-0.369,0.531
	c-0.101,0.219-0.157,0.49-0.171,0.811v7.361h-4.061V40.589z"/>
</svg>
