<?xml version="1.0" encoding="utf-8"?>
<!-- Generator: Adobe Illustrator 16.0.0, SVG Export Plug-In . SVG Version: 6.00 Build 0)  -->
<!DOCTYPE svg PUBLIC "-//W3C//DTD SVG 1.1//EN" "http://www.w3.org/Graphics/SVG/1.1/DTD/svg11.dtd">
<svg version="1.1" id="레이어_1" xmlns="http://www.w3.org/2000/svg" xmlns:xlink="http://www.w3.org/1999/xlink" x="0px"
	 y="0px" width="253.411px" height="63.041px" viewBox="0 0 253.411 63.041" enable-background="new 0 0 253.411 63.041"
	 xml:space="preserve">
<g>
	<defs>
		<rect id="SVGID_1_" x="-0.049" y="0.001" width="253.411" height="63.04"/>
	</defs>
	<clipPath id="SVGID_2_">
		<use xlink:href="#SVGID_1_"  overflow="visible"/>
	</clipPath>
	<path clip-path="url(#SVGID_2_)" fill="#CCC8C7" d="M242.938,2.111c0,0-0.778-2.111-3.028-2.111H1.581c0,0-2.25,0-1.462,2.108
		l10.201,27.304c0,0,0.787,2.109,0,4.216L0.119,60.933c0,0-0.788,2.107,1.462,2.107h238.33c0,0,2.25,0,3.028-2.111l10.077-27.297
		c0,0,0.779-2.111,0-4.223L242.938,2.111z"/>
</g>
<path fill="#FFFFFF" d="M80.448,25.921c-0.4-0.113-0.72-0.297-0.96-0.55c-0.24-0.254-0.41-0.581-0.51-0.98
	c-0.1-0.4-0.15-0.887-0.15-1.461V11.947c0-0.333,0.057-0.626,0.17-0.88c0.113-0.253,0.267-0.467,0.46-0.64
	c0.193-0.174,0.417-0.304,0.67-0.391c0.253-0.087,0.514-0.13,0.78-0.13c0.267,0,0.527,0.043,0.78,0.13s0.477,0.217,0.67,0.391
	c0.193,0.173,0.347,0.387,0.46,0.64c0.113,0.254,0.17,0.547,0.17,0.88V22.01c0,0.24,0.04,0.396,0.12,0.471
	c0.08,0.073,0.233,0.109,0.46,0.109h4.441c0.293,0,0.543,0.05,0.75,0.15c0.207,0.1,0.373,0.233,0.5,0.399
	c0.126,0.167,0.22,0.354,0.28,0.561s0.09,0.41,0.09,0.61s-0.03,0.406-0.09,0.62c-0.06,0.213-0.157,0.406-0.29,0.58
	c-0.133,0.173-0.3,0.313-0.5,0.42s-0.447,0.16-0.74,0.16h-6.061C81.348,26.091,80.848,26.034,80.448,25.921z M94.648,26.15
	c-0.734-0.187-1.397-0.493-1.991-0.92c-0.593-0.427-1.073-0.997-1.44-1.71c-0.367-0.714-0.55-1.591-0.55-2.631v-1.761
	c0-1.066,0.177-1.953,0.53-2.66c0.353-0.707,0.807-1.273,1.36-1.7c0.554-0.427,1.167-0.73,1.841-0.91
	c0.673-0.181,1.33-0.271,1.97-0.271c0.693,0,1.37,0.084,2.03,0.25c0.66,0.167,1.25,0.483,1.771,0.95s0.937,1.117,1.25,1.95
	c0.313,0.834,0.47,1.911,0.47,3.231c0,0.173-0.01,0.38-0.03,0.62s-0.043,0.446-0.07,0.62h-7.162v0.02c0,0.347,0.073,0.634,0.22,0.86
	c0.147,0.227,0.333,0.413,0.56,0.561c0.227,0.146,0.474,0.25,0.74,0.31c0.267,0.061,0.521,0.09,0.76,0.09
	c0.494,0,0.874-0.02,1.14-0.06c0.267-0.04,0.534-0.106,0.8-0.2c0.147-0.054,0.297-0.11,0.45-0.17c0.153-0.061,0.317-0.104,0.49-0.13
	c0.347-0.04,0.663,0,0.95,0.12c0.287,0.12,0.497,0.333,0.63,0.64c0.213,0.493,0.217,0.943,0.01,1.351
	c-0.207,0.406-0.55,0.75-1.03,1.03c-0.16,0.093-0.364,0.187-0.61,0.28c-0.247,0.093-0.527,0.18-0.84,0.26
	c-0.313,0.08-0.647,0.144-1,0.189c-0.354,0.047-0.71,0.07-1.07,0.07C96.108,26.431,95.382,26.338,94.648,26.15z M95.738,16.919
	c-0.207,0.06-0.39,0.16-0.55,0.3c-0.16,0.141-0.293,0.32-0.4,0.54c-0.106,0.221-0.16,0.497-0.16,0.83h3.38
	c0.014-0.333-0.023-0.609-0.11-0.83c-0.086-0.22-0.203-0.399-0.35-0.54c-0.146-0.14-0.323-0.24-0.53-0.3
	c-0.207-0.061-0.417-0.09-0.63-0.09C96.162,16.829,95.945,16.858,95.738,16.919z M111.049,25.251
	c-0.387,0.359-0.84,0.646-1.36,0.859c-0.52,0.214-1.081,0.32-1.681,0.32h-0.44c-0.414,0-0.86-0.063-1.34-0.189
	c-0.48-0.127-0.923-0.344-1.33-0.65s-0.747-0.721-1.021-1.24c-0.273-0.521-0.41-1.174-0.41-1.961c0-0.76,0.134-1.394,0.4-1.9
	s0.624-0.913,1.07-1.22s0.967-0.527,1.56-0.66c0.594-0.134,1.217-0.2,1.871-0.2h2.061c-0.014-0.293-0.07-0.537-0.17-0.73
	c-0.1-0.193-0.233-0.347-0.4-0.46s-0.36-0.193-0.58-0.24c-0.22-0.046-0.45-0.069-0.69-0.069c-0.227,0-0.446,0.02-0.66,0.06
	s-0.44,0.094-0.68,0.16c-0.16,0.054-0.31,0.113-0.45,0.18c-0.14,0.067-0.304,0.141-0.49,0.221c-0.187,0.093-0.383,0.143-0.59,0.149
	c-0.207,0.007-0.41-0.02-0.61-0.08c-0.2-0.06-0.383-0.156-0.55-0.29c-0.167-0.133-0.296-0.3-0.39-0.5
	c-0.187-0.399-0.213-0.79-0.08-1.17c0.133-0.38,0.373-0.704,0.72-0.971c0.267-0.199,0.567-0.366,0.9-0.5
	c0.333-0.133,0.68-0.243,1.04-0.33c0.36-0.087,0.724-0.149,1.09-0.189s0.724-0.061,1.07-0.061c0.72,0,1.41,0.077,2.07,0.23
	s1.24,0.427,1.741,0.82c0.5,0.393,0.9,0.937,1.2,1.63c0.3,0.693,0.45,1.58,0.45,2.661v7.161h-3.161L111.049,25.251z M108.608,21.35
	c-0.387,0-0.68,0.09-0.88,0.271c-0.2,0.18-0.3,0.43-0.3,0.75c0,0.333,0.1,0.58,0.3,0.74s0.473,0.24,0.82,0.24h0.28
	c0.187,0,0.374-0.027,0.56-0.08c0.187-0.054,0.357-0.134,0.51-0.24s0.28-0.24,0.38-0.4c0.1-0.16,0.15-0.347,0.15-0.56V21.35H108.608
	z M120.448,21.96c0.12,0.273,0.273,0.486,0.46,0.64c0.187,0.153,0.396,0.261,0.63,0.32c0.233,0.061,0.463,0.09,0.69,0.09
	c0.333,0,0.617-0.023,0.85-0.069c0.233-0.047,0.483-0.13,0.75-0.25c0.146-0.067,0.3-0.144,0.46-0.23
	c0.16-0.087,0.333-0.144,0.52-0.17c0.293-0.054,0.577-0.026,0.851,0.08s0.497,0.3,0.67,0.58c0.133,0.227,0.21,0.463,0.23,0.71
	s-0.013,0.487-0.1,0.721c-0.086,0.233-0.216,0.449-0.39,0.649c-0.174,0.2-0.38,0.374-0.621,0.521c-0.373,0.227-0.833,0.43-1.38,0.61
	c-0.547,0.18-1.161,0.27-1.84,0.27c-0.72,0-1.444-0.087-2.171-0.26c-0.727-0.174-1.38-0.474-1.96-0.9
	c-0.58-0.427-1.05-0.993-1.41-1.7c-0.36-0.707-0.54-1.601-0.54-2.681v-1.761c0-1.053,0.18-1.934,0.54-2.641
	c0.36-0.706,0.824-1.273,1.39-1.7c0.567-0.427,1.204-0.733,1.911-0.92s1.407-0.28,2.101-0.28c0.72,0,1.34,0.08,1.86,0.24
	s0.94,0.34,1.26,0.54c0.24,0.146,0.447,0.316,0.62,0.51s0.303,0.404,0.39,0.631c0.086,0.227,0.126,0.456,0.12,0.689
	c-0.007,0.233-0.077,0.464-0.21,0.69c-0.187,0.334-0.423,0.547-0.71,0.641c-0.287,0.093-0.59,0.12-0.91,0.08
	c-0.187-0.027-0.357-0.074-0.51-0.141s-0.303-0.133-0.45-0.2c-0.2-0.093-0.393-0.16-0.58-0.2c-0.187-0.039-0.433-0.06-0.74-0.06
	c-0.227,0-0.454,0.03-0.68,0.09c-0.227,0.061-0.437,0.167-0.63,0.32s-0.35,0.367-0.47,0.64c-0.12,0.273-0.18,0.624-0.18,1.051v1.8
	C120.269,21.336,120.328,21.687,120.448,21.96z M135.609,18.85c0-0.334-0.054-0.617-0.16-0.851c-0.107-0.233-0.24-0.424-0.4-0.57
	s-0.336-0.25-0.529-0.31c-0.193-0.061-0.377-0.09-0.551-0.09s-0.356,0.029-0.551,0.09c-0.193,0.06-0.369,0.156-0.529,0.29
	c-0.16,0.133-0.293,0.31-0.4,0.53c-0.106,0.22-0.166,0.489-0.18,0.81v7.342h-4.061V11.188c0-0.333,0.057-0.623,0.17-0.87
	s0.264-0.453,0.449-0.62c0.188-0.167,0.404-0.293,0.65-0.38c0.247-0.087,0.504-0.13,0.771-0.13s0.521,0.043,0.761,0.13
	c0.239,0.087,0.453,0.213,0.64,0.38s0.337,0.373,0.45,0.62s0.17,0.537,0.17,0.87v3.36c0.347-0.307,0.743-0.543,1.189-0.71
	c0.447-0.166,0.938-0.25,1.471-0.25c0.654,0,1.271,0.09,1.851,0.271c0.58,0.18,1.083,0.483,1.511,0.91
	c0.426,0.427,0.767,0.993,1.02,1.7c0.254,0.707,0.381,1.587,0.381,2.641v6.981h-4.121V18.85z M149.029,25.251
	c-0.387,0.359-0.84,0.646-1.36,0.859c-0.521,0.214-1.08,0.32-1.681,0.32h-0.439c-0.414,0-0.86-0.063-1.341-0.189
	c-0.479-0.127-0.923-0.344-1.33-0.65s-0.747-0.721-1.021-1.24c-0.273-0.521-0.41-1.174-0.41-1.961c0-0.76,0.134-1.394,0.4-1.9
	s0.623-0.913,1.07-1.22s0.967-0.527,1.561-0.66c0.594-0.134,1.217-0.2,1.87-0.2h2.061c-0.014-0.293-0.07-0.537-0.17-0.73
	c-0.101-0.193-0.233-0.347-0.4-0.46s-0.36-0.193-0.58-0.24c-0.22-0.046-0.45-0.069-0.69-0.069c-0.227,0-0.446,0.02-0.66,0.06
	c-0.213,0.04-0.439,0.094-0.68,0.16c-0.16,0.054-0.311,0.113-0.45,0.18c-0.14,0.067-0.304,0.141-0.49,0.221
	c-0.187,0.093-0.384,0.143-0.59,0.149c-0.207,0.007-0.41-0.02-0.61-0.08c-0.2-0.06-0.383-0.156-0.551-0.29
	c-0.166-0.133-0.296-0.3-0.39-0.5c-0.187-0.399-0.213-0.79-0.079-1.17c0.133-0.38,0.373-0.704,0.72-0.971
	c0.267-0.199,0.566-0.366,0.899-0.5c0.334-0.133,0.681-0.243,1.041-0.33c0.359-0.087,0.723-0.149,1.09-0.189s0.724-0.061,1.07-0.061
	c0.721,0,1.41,0.077,2.07,0.23s1.24,0.427,1.74,0.82c0.5,0.393,0.9,0.937,1.201,1.63c0.299,0.693,0.449,1.58,0.449,2.661v7.161
	h-3.16L149.029,25.251z M146.589,21.35c-0.387,0-0.681,0.09-0.88,0.271c-0.201,0.18-0.301,0.43-0.301,0.75
	c0,0.333,0.1,0.58,0.301,0.74c0.199,0.16,0.473,0.24,0.82,0.24h0.279c0.188,0,0.373-0.027,0.561-0.08
	c0.187-0.054,0.356-0.134,0.51-0.24s0.28-0.24,0.38-0.4c0.101-0.16,0.15-0.347,0.15-0.56V21.35H146.589z M155.048,17.289
	c-0.627,0-1.077-0.167-1.351-0.5c-0.273-0.334-0.41-0.714-0.41-1.141c0-0.2,0.03-0.4,0.09-0.6c0.061-0.2,0.16-0.381,0.301-0.541
	c0.14-0.159,0.323-0.29,0.55-0.39s0.5-0.15,0.82-0.15h0.66v-2.08c0-0.333,0.057-0.627,0.17-0.88c0.113-0.254,0.263-0.46,0.45-0.62
	c0.187-0.16,0.396-0.28,0.63-0.36s0.478-0.12,0.73-0.12s0.497,0.04,0.729,0.12c0.234,0.08,0.443,0.2,0.631,0.36
	c0.187,0.16,0.336,0.366,0.449,0.62c0.113,0.253,0.17,0.547,0.17,0.88v2.08h1.182c0.319,0,0.59,0.051,0.81,0.15
	s0.399,0.23,0.54,0.39c0.141,0.16,0.243,0.341,0.311,0.541c0.066,0.199,0.1,0.399,0.1,0.6c0,0.427-0.137,0.807-0.41,1.141
	c-0.273,0.333-0.724,0.5-1.35,0.5h-1.182v4.961c0,0.307,0.064,0.507,0.191,0.6c0.126,0.094,0.275,0.147,0.449,0.16
	c0.146,0.014,0.28,0.004,0.4-0.029c0.12-0.034,0.279-0.051,0.48-0.051c0.333,0,0.627,0.101,0.88,0.301s0.413,0.467,0.479,0.8
	c0.094,0.413,0.064,0.78-0.09,1.101c-0.153,0.319-0.369,0.573-0.65,0.76c-0.227,0.146-0.513,0.273-0.859,0.38
	c-0.348,0.107-0.693,0.16-1.041,0.16c-0.666,0-1.26-0.073-1.779-0.22c-0.521-0.146-0.961-0.38-1.32-0.7
	c-0.36-0.32-0.634-0.74-0.82-1.261c-0.188-0.52-0.28-1.16-0.28-1.92v-5.041H155.048z M167.528,26.15
	c-0.733-0.187-1.397-0.493-1.991-0.92c-0.593-0.427-1.072-0.997-1.439-1.71c-0.367-0.714-0.551-1.591-0.551-2.631v-1.761
	c0-1.066,0.178-1.953,0.531-2.66c0.353-0.707,0.807-1.273,1.359-1.7c0.554-0.427,1.167-0.73,1.841-0.91
	c0.673-0.181,1.33-0.271,1.97-0.271c0.693,0,1.371,0.084,2.031,0.25c0.66,0.167,1.25,0.483,1.77,0.95
	c0.521,0.467,0.938,1.117,1.251,1.95c0.313,0.834,0.47,1.911,0.47,3.231c0,0.173-0.01,0.38-0.029,0.62
	c-0.021,0.24-0.044,0.446-0.07,0.62h-7.162v0.02c0,0.347,0.074,0.634,0.221,0.86s0.333,0.413,0.561,0.561
	c0.227,0.146,0.473,0.25,0.739,0.31c0.267,0.061,0.521,0.09,0.761,0.09c0.493,0,0.873-0.02,1.14-0.06s0.534-0.106,0.8-0.2
	c0.147-0.054,0.297-0.11,0.451-0.17c0.152-0.061,0.316-0.104,0.49-0.13c0.346-0.04,0.663,0,0.949,0.12
	c0.287,0.12,0.497,0.333,0.631,0.64c0.213,0.493,0.217,0.943,0.01,1.351c-0.207,0.406-0.551,0.75-1.03,1.03
	c-0.16,0.093-0.363,0.187-0.61,0.28c-0.246,0.093-0.526,0.18-0.84,0.26s-0.646,0.144-1,0.189c-0.354,0.047-0.711,0.07-1.07,0.07
	C168.988,26.431,168.262,26.338,167.528,26.15z M168.619,16.919c-0.207,0.06-0.391,0.16-0.551,0.3c-0.16,0.141-0.293,0.32-0.4,0.54
	c-0.106,0.221-0.16,0.497-0.16,0.83h3.381c0.014-0.333-0.023-0.609-0.109-0.83c-0.087-0.22-0.203-0.399-0.351-0.54
	c-0.146-0.14-0.323-0.24-0.53-0.3c-0.207-0.061-0.416-0.09-0.63-0.09C169.042,16.829,168.825,16.858,168.619,16.919z"/>
<path fill="#FFFFFF" d="M74.948,38.529h-3.061c-0.293,0-0.543-0.055-0.75-0.16c-0.207-0.107-0.373-0.248-0.5-0.42
	c-0.126-0.174-0.22-0.367-0.28-0.58c-0.06-0.215-0.09-0.422-0.09-0.621s0.03-0.402,0.09-0.609c0.06-0.207,0.153-0.395,0.28-0.561
	c0.127-0.166,0.293-0.301,0.5-0.4c0.207-0.1,0.457-0.15,0.75-0.15H82.17c0.293,0,0.543,0.051,0.75,0.15s0.374,0.234,0.5,0.4
	c0.127,0.166,0.22,0.354,0.28,0.561s0.09,0.41,0.09,0.609s-0.03,0.406-0.09,0.621c-0.06,0.213-0.157,0.406-0.29,0.58
	c-0.134,0.172-0.3,0.313-0.5,0.42c-0.2,0.105-0.447,0.16-0.74,0.16h-3.061v12.563h-4.161V38.529z M83.787,40.589
	c0-0.334,0.057-0.625,0.17-0.871c0.113-0.246,0.263-0.453,0.45-0.619c0.187-0.168,0.4-0.295,0.64-0.381
	c0.24-0.086,0.494-0.131,0.76-0.131c0.387,0,0.75,0.094,1.09,0.281c0.34,0.186,0.597,0.467,0.77,0.84
	c0.374-0.348,0.787-0.621,1.24-0.82c0.454-0.199,0.927-0.301,1.42-0.301c0.147,0,0.303,0.01,0.47,0.031
	c0.167,0.02,0.323,0.063,0.47,0.129c0.387,0.16,0.677,0.428,0.87,0.801s0.257,0.793,0.19,1.26s-0.263,0.84-0.59,1.121
	c-0.327,0.279-0.71,0.42-1.15,0.42c-0.147,0-0.3-0.004-0.46-0.01c-0.16-0.008-0.313-0.004-0.46,0.01
	c-0.56,0.039-0.997,0.207-1.31,0.5s-0.483,0.693-0.51,1.199v7.043h-4.061V40.589z M97.188,51.15c-0.733-0.186-1.397-0.492-1.99-0.92
	c-0.593-0.426-1.074-0.996-1.44-1.709c-0.367-0.715-0.55-1.592-0.55-2.631v-1.762c0-1.066,0.176-1.953,0.53-2.66
	s0.807-1.273,1.36-1.699c0.554-0.428,1.167-0.73,1.84-0.91c0.674-0.182,1.331-0.271,1.971-0.271c0.693,0,1.37,0.084,2.03,0.25
	c0.66,0.168,1.25,0.484,1.771,0.951s0.937,1.117,1.25,1.949c0.313,0.834,0.47,1.912,0.47,3.232c0,0.172-0.01,0.379-0.03,0.619
	s-0.043,0.447-0.07,0.621h-7.162v0.02c0,0.346,0.074,0.633,0.22,0.859c0.147,0.227,0.333,0.414,0.56,0.561s0.474,0.25,0.74,0.311
	s0.52,0.09,0.76,0.09c0.493,0,0.874-0.02,1.14-0.061c0.267-0.039,0.534-0.105,0.8-0.199c0.146-0.055,0.296-0.111,0.45-0.17
	c0.153-0.061,0.316-0.104,0.49-0.131c0.347-0.039,0.664,0,0.95,0.121c0.287,0.119,0.497,0.332,0.63,0.639
	c0.213,0.494,0.217,0.943,0.01,1.352c-0.207,0.406-0.55,0.75-1.03,1.029c-0.16,0.094-0.363,0.188-0.61,0.281
	c-0.247,0.092-0.527,0.18-0.84,0.26s-0.646,0.143-1,0.189s-0.71,0.07-1.07,0.07C98.648,51.431,97.922,51.337,97.188,51.15z
	 M98.278,41.919c-0.207,0.059-0.39,0.16-0.55,0.299c-0.16,0.141-0.293,0.32-0.4,0.541c-0.106,0.221-0.16,0.496-0.16,0.83h3.381
	c0.013-0.334-0.023-0.609-0.11-0.83c-0.087-0.221-0.204-0.4-0.35-0.541c-0.147-0.139-0.323-0.24-0.53-0.299
	c-0.207-0.061-0.417-0.09-0.63-0.09C98.702,41.83,98.485,41.859,98.278,41.919z M113.589,50.251c-0.387,0.359-0.84,0.646-1.36,0.859
	c-0.52,0.213-1.08,0.32-1.68,0.32h-0.44c-0.414,0-0.86-0.064-1.34-0.189c-0.48-0.127-0.924-0.344-1.331-0.65s-0.747-0.721-1.02-1.24
	c-0.273-0.521-0.41-1.174-0.41-1.961c0-0.76,0.133-1.395,0.4-1.9c0.267-0.508,0.623-0.914,1.07-1.221s0.967-0.527,1.561-0.66
	s1.217-0.199,1.871-0.199h2.06c-0.013-0.293-0.07-0.537-0.17-0.73s-0.233-0.348-0.4-0.461c-0.167-0.113-0.36-0.193-0.58-0.24
	c-0.22-0.045-0.45-0.068-0.69-0.068c-0.227,0-0.447,0.02-0.66,0.059c-0.213,0.041-0.44,0.094-0.68,0.16
	c-0.16,0.055-0.31,0.113-0.45,0.18c-0.14,0.068-0.303,0.141-0.49,0.221c-0.187,0.094-0.383,0.143-0.59,0.15
	c-0.207,0.006-0.41-0.02-0.61-0.08c-0.2-0.061-0.384-0.156-0.55-0.291c-0.167-0.133-0.297-0.299-0.39-0.5
	c-0.187-0.398-0.213-0.789-0.08-1.17c0.133-0.379,0.374-0.703,0.72-0.971c0.267-0.199,0.567-0.365,0.9-0.5
	c0.333-0.133,0.68-0.242,1.04-0.33c0.36-0.086,0.724-0.148,1.09-0.189c0.367-0.039,0.724-0.061,1.07-0.061
	c0.72,0,1.41,0.078,2.07,0.23c0.66,0.154,1.24,0.428,1.74,0.82s0.9,0.938,1.2,1.631c0.3,0.693,0.45,1.58,0.45,2.66v7.162h-3.161
	L113.589,50.251z M111.148,46.349c-0.387,0-0.68,0.09-0.88,0.271c-0.2,0.18-0.3,0.43-0.3,0.75c0,0.332,0.1,0.58,0.3,0.74
	c0.2,0.16,0.473,0.24,0.82,0.24h0.28c0.187,0,0.374-0.027,0.56-0.08c0.187-0.055,0.357-0.135,0.51-0.24
	c0.153-0.107,0.28-0.24,0.38-0.4s0.15-0.348,0.15-0.561v-0.721H111.148z M119.607,42.289c-0.626,0-1.077-0.166-1.35-0.5
	s-0.41-0.713-0.41-1.141c0-0.199,0.03-0.4,0.09-0.6s0.16-0.381,0.3-0.541c0.14-0.158,0.323-0.289,0.55-0.389
	c0.227-0.1,0.5-0.15,0.82-0.15h0.66v-2.08c0-0.334,0.057-0.627,0.17-0.881c0.114-0.254,0.264-0.459,0.45-0.619
	c0.187-0.16,0.397-0.281,0.63-0.361s0.477-0.119,0.73-0.119s0.497,0.039,0.73,0.119s0.443,0.201,0.63,0.361s0.337,0.365,0.45,0.619
	s0.17,0.547,0.17,0.881v2.08h1.18c0.32,0,0.59,0.051,0.81,0.15c0.22,0.1,0.4,0.23,0.541,0.389c0.14,0.16,0.243,0.342,0.31,0.541
	c0.066,0.199,0.1,0.4,0.1,0.6c0,0.428-0.136,0.807-0.41,1.141s-0.724,0.5-1.351,0.5h-1.18v4.961c0,0.307,0.063,0.508,0.19,0.6
	c0.127,0.094,0.277,0.148,0.45,0.16c0.147,0.014,0.28,0.004,0.4-0.029c0.12-0.033,0.28-0.051,0.48-0.051
	c0.333,0,0.626,0.102,0.88,0.301c0.253,0.201,0.414,0.467,0.48,0.801c0.093,0.412,0.063,0.779-0.09,1.1s-0.37,0.574-0.65,0.76
	c-0.227,0.146-0.514,0.273-0.86,0.381s-0.693,0.16-1.04,0.16c-0.667,0-1.26-0.074-1.781-0.221c-0.52-0.146-0.96-0.379-1.32-0.699
	c-0.36-0.32-0.634-0.74-0.82-1.262c-0.187-0.52-0.28-1.16-0.28-1.92v-5.041H119.607z M128.268,40.589
	c0-0.334,0.057-0.625,0.17-0.871s0.264-0.453,0.449-0.619c0.188-0.168,0.4-0.295,0.641-0.381s0.494-0.131,0.76-0.131
	c0.387,0,0.751,0.094,1.091,0.281c0.34,0.186,0.591,0.459,0.75,0.82c0.773-0.734,1.707-1.102,2.801-1.102
	c0.613,0,1.2,0.107,1.761,0.32c0.56,0.213,1.053,0.574,1.48,1.08c0.413-0.426,0.913-0.766,1.5-1.02
	c0.586-0.254,1.287-0.381,2.1-0.381c0.641,0,1.248,0.09,1.82,0.271c0.574,0.18,1.078,0.479,1.512,0.9
	c0.433,0.42,0.779,0.982,1.039,1.689c0.261,0.707,0.391,1.58,0.391,2.621v7.021h-4.121V43.83c0-0.334-0.047-0.617-0.141-0.85
	c-0.093-0.234-0.216-0.424-0.369-0.57c-0.154-0.146-0.32-0.25-0.5-0.311s-0.351-0.09-0.51-0.09c-0.16,0-0.334,0.029-0.521,0.09
	c-0.186,0.061-0.353,0.164-0.5,0.311c-0.146,0.146-0.27,0.336-0.369,0.57c-0.101,0.232-0.15,0.516-0.15,0.85v7.262h-3.961V43.83
	c0-0.334-0.047-0.617-0.141-0.85c-0.093-0.234-0.216-0.424-0.369-0.57c-0.154-0.146-0.32-0.25-0.5-0.311s-0.351-0.09-0.51-0.09
	c-0.16,0-0.33,0.029-0.511,0.09s-0.343,0.156-0.49,0.289c-0.146,0.135-0.271,0.311-0.37,0.531c-0.1,0.219-0.156,0.49-0.17,0.811
	v7.361h-4.061V40.589z M152.288,51.15c-0.733-0.186-1.397-0.492-1.991-0.92c-0.593-0.426-1.072-0.996-1.439-1.709
	c-0.367-0.715-0.551-1.592-0.551-2.631v-1.762c0-1.066,0.178-1.953,0.531-2.66c0.353-0.707,0.807-1.273,1.359-1.699
	c0.554-0.428,1.167-0.73,1.841-0.91c0.673-0.182,1.33-0.271,1.97-0.271c0.693,0,1.371,0.084,2.031,0.25
	c0.66,0.168,1.25,0.484,1.77,0.951c0.521,0.467,0.938,1.117,1.251,1.949c0.313,0.834,0.47,1.912,0.47,3.232
	c0,0.172-0.01,0.379-0.029,0.619c-0.021,0.24-0.044,0.447-0.07,0.621h-7.162v0.02c0,0.346,0.074,0.633,0.221,0.859
	s0.333,0.414,0.561,0.561c0.227,0.146,0.473,0.25,0.739,0.311s0.521,0.09,0.761,0.09c0.493,0,0.873-0.02,1.14-0.061
	c0.267-0.039,0.534-0.105,0.8-0.199c0.147-0.055,0.297-0.111,0.451-0.17c0.152-0.061,0.316-0.104,0.49-0.131
	c0.346-0.039,0.663,0,0.949,0.121c0.287,0.119,0.497,0.332,0.631,0.639c0.213,0.494,0.217,0.943,0.01,1.352
	c-0.207,0.406-0.551,0.75-1.03,1.029c-0.16,0.094-0.363,0.188-0.61,0.281c-0.246,0.092-0.527,0.18-0.84,0.26
	c-0.313,0.08-0.646,0.143-1,0.189s-0.711,0.07-1.07,0.07C153.748,51.431,153.021,51.337,152.288,51.15z M153.379,41.919
	c-0.207,0.059-0.391,0.16-0.551,0.299c-0.16,0.141-0.293,0.32-0.4,0.541c-0.106,0.221-0.16,0.496-0.16,0.83h3.381
	c0.014-0.334-0.023-0.609-0.109-0.83c-0.087-0.221-0.203-0.4-0.351-0.541c-0.146-0.139-0.323-0.24-0.53-0.299
	c-0.207-0.061-0.416-0.09-0.63-0.09C153.802,41.83,153.585,41.859,153.379,41.919z M161.327,40.589c0-0.334,0.057-0.625,0.17-0.871
	c0.114-0.246,0.264-0.453,0.45-0.619c0.188-0.168,0.4-0.295,0.641-0.381s0.493-0.131,0.76-0.131c0.387,0,0.75,0.094,1.09,0.281
	c0.34,0.186,0.598,0.459,0.771,0.82c0.387-0.361,0.837-0.635,1.351-0.82c0.514-0.188,1.037-0.281,1.57-0.281
	c0.641,0,1.236,0.088,1.79,0.262c0.554,0.172,1.034,0.469,1.44,0.889s0.73,0.984,0.971,1.691s0.359,1.586,0.359,2.641v7.021h-4.121
	V43.83c0-0.334-0.05-0.617-0.149-0.85c-0.101-0.234-0.228-0.424-0.38-0.57c-0.154-0.146-0.324-0.25-0.51-0.311
	c-0.188-0.061-0.367-0.09-0.541-0.09s-0.354,0.029-0.54,0.09s-0.36,0.164-0.521,0.311s-0.289,0.336-0.39,0.57
	c-0.101,0.232-0.149,0.516-0.149,0.85v7.262h-4.062V40.589z M175.387,42.289c-0.627,0-1.076-0.166-1.35-0.5s-0.41-0.713-0.41-1.141
	c0-0.199,0.029-0.4,0.09-0.6s0.16-0.381,0.301-0.541c0.14-0.158,0.322-0.289,0.549-0.389c0.228-0.1,0.501-0.15,0.82-0.15h0.66v-2.08
	c0-0.334,0.057-0.627,0.17-0.881c0.114-0.254,0.264-0.459,0.451-0.619c0.187-0.16,0.396-0.281,0.63-0.361s0.477-0.119,0.729-0.119
	c0.254,0,0.497,0.039,0.73,0.119s0.443,0.201,0.631,0.361c0.186,0.16,0.336,0.365,0.449,0.619s0.17,0.547,0.17,0.881v2.08h1.181
	c0.32,0,0.591,0.051,0.81,0.15c0.221,0.1,0.4,0.23,0.541,0.389c0.14,0.16,0.243,0.342,0.31,0.541c0.067,0.199,0.101,0.4,0.101,0.6
	c0,0.428-0.137,0.807-0.41,1.141s-0.724,0.5-1.351,0.5h-1.181v4.961c0,0.307,0.064,0.508,0.19,0.6
	c0.127,0.094,0.276,0.148,0.45,0.16c0.146,0.014,0.28,0.004,0.4-0.029c0.119-0.033,0.279-0.051,0.48-0.051
	c0.332,0,0.626,0.102,0.879,0.301c0.254,0.201,0.414,0.467,0.48,0.801c0.094,0.412,0.063,0.779-0.09,1.1s-0.37,0.574-0.65,0.76
	c-0.227,0.146-0.514,0.273-0.859,0.381c-0.348,0.107-0.693,0.16-1.041,0.16c-0.666,0-1.26-0.074-1.78-0.221s-0.96-0.379-1.32-0.699
	s-0.634-0.74-0.819-1.262c-0.188-0.52-0.281-1.16-0.281-1.92v-5.041H175.387z"/>
<g>
	<defs>
		<rect id="SVGID_3_" x="-0.049" y="-0.149" width="253.411" height="63.039"/>
	</defs>
	<clipPath id="SVGID_4_">
		<use xlink:href="#SVGID_3_"  overflow="visible"/>
	</clipPath>
	<path clip-path="url(#SVGID_4_)" fill="#CCC8C7" d="M242.938,1.961c0,0-0.778-2.111-3.028-2.111H1.581c0,0-2.25,0-1.462,2.108
		L10.32,29.262c0,0,0.787,2.108,0,4.217L0.119,60.783c0,0-0.788,2.107,1.462,2.107h238.33c0,0,2.25,0,3.028-2.11l10.077-27.298
		c0,0,0.779-2.111,0-4.223L242.938,1.961z"/>
</g>
<path fill="#FFFFFF" d="M65.35,17.809c-0.447,0.714-1.03,1.297-1.75,1.75l3.801,6.382h-4.521l-3-5.381h-2.561v5.381h-4.101V12.999
	c0-0.574,0.05-1.061,0.15-1.461c0.1-0.399,0.27-0.727,0.51-0.98c0.24-0.253,0.561-0.437,0.96-0.55s0.9-0.17,1.5-0.17h3.681
	c0.867,0,1.667,0.104,2.4,0.311c0.733,0.206,1.367,0.526,1.9,0.96c0.534,0.434,0.95,0.977,1.25,1.63c0.3,0.653,0.45,1.427,0.45,2.32
	v0.24C66.02,16.259,65.797,17.095,65.35,17.809z M59.919,17.179c0.68,0,1.19-0.187,1.53-0.561c0.34-0.373,0.51-0.813,0.51-1.32
	v-0.14c0-0.507-0.17-0.947-0.51-1.32c-0.34-0.373-0.85-0.561-1.53-0.561h-2.021c-0.227,0-0.38,0.037-0.46,0.11s-0.12,0.23-0.12,0.47
	v3.321H59.919z M71.718,26c-0.733-0.187-1.397-0.493-1.99-0.92c-0.594-0.427-1.074-0.997-1.44-1.71
	c-0.367-0.714-0.55-1.591-0.55-2.631v-1.761c0-1.066,0.177-1.953,0.53-2.66s0.807-1.273,1.36-1.7c0.553-0.427,1.167-0.73,1.84-0.91
	c0.673-0.181,1.33-0.271,1.97-0.271c0.694,0,1.371,0.084,2.031,0.25c0.66,0.167,1.25,0.483,1.77,0.95
	c0.521,0.467,0.937,1.117,1.25,1.95c0.313,0.834,0.47,1.911,0.47,3.231c0,0.173-0.01,0.38-0.03,0.62s-0.043,0.446-0.07,0.62h-7.162
	v0.02c0,0.347,0.073,0.634,0.22,0.86c0.146,0.227,0.333,0.413,0.56,0.561c0.227,0.146,0.474,0.25,0.74,0.31
	c0.267,0.061,0.52,0.09,0.76,0.09c0.493,0,0.874-0.02,1.14-0.06s0.533-0.106,0.8-0.2c0.146-0.054,0.296-0.11,0.45-0.17
	c0.153-0.061,0.317-0.104,0.49-0.13c0.347-0.04,0.664,0,0.95,0.12s0.497,0.333,0.63,0.64c0.213,0.493,0.216,0.943,0.01,1.351
	c-0.207,0.406-0.55,0.75-1.03,1.03c-0.16,0.093-0.363,0.187-0.61,0.28c-0.247,0.093-0.527,0.18-0.84,0.26s-0.647,0.144-1,0.189
	c-0.354,0.047-0.71,0.07-1.07,0.07C73.179,26.281,72.452,26.188,71.718,26z M72.809,16.769c-0.207,0.06-0.39,0.16-0.55,0.3
	c-0.16,0.141-0.293,0.32-0.4,0.54c-0.107,0.221-0.16,0.497-0.16,0.83h3.381c0.013-0.333-0.023-0.609-0.11-0.83
	c-0.087-0.22-0.204-0.399-0.35-0.54c-0.147-0.14-0.324-0.24-0.53-0.3c-0.207-0.061-0.417-0.09-0.63-0.09
	C73.232,16.679,73.015,16.708,72.809,16.769z M84.898,21.81c0.12,0.273,0.273,0.486,0.46,0.64c0.187,0.153,0.397,0.261,0.63,0.32
	c0.233,0.061,0.463,0.09,0.69,0.09c0.333,0,0.617-0.023,0.851-0.069c0.233-0.047,0.483-0.13,0.75-0.25
	c0.146-0.067,0.3-0.144,0.46-0.23s0.333-0.144,0.52-0.17c0.293-0.054,0.577-0.026,0.85,0.08c0.273,0.106,0.497,0.3,0.67,0.58
	c0.133,0.227,0.21,0.463,0.23,0.71s-0.013,0.487-0.1,0.721c-0.086,0.233-0.217,0.449-0.39,0.649s-0.38,0.374-0.62,0.521
	c-0.373,0.227-0.833,0.43-1.38,0.61c-0.546,0.18-1.16,0.27-1.84,0.27c-0.72,0-1.443-0.087-2.17-0.26
	c-0.727-0.174-1.38-0.474-1.96-0.9s-1.05-0.993-1.41-1.7s-0.54-1.601-0.54-2.681v-1.761c0-1.053,0.18-1.934,0.54-2.641
	c0.36-0.706,0.824-1.273,1.39-1.7c0.567-0.427,1.204-0.733,1.911-0.92c0.707-0.187,1.407-0.28,2.101-0.28
	c0.72,0,1.34,0.08,1.86,0.24c0.52,0.16,0.94,0.34,1.26,0.54c0.24,0.146,0.447,0.316,0.62,0.51s0.303,0.404,0.39,0.631
	c0.086,0.227,0.126,0.456,0.12,0.689c-0.006,0.233-0.077,0.464-0.21,0.69c-0.187,0.334-0.423,0.547-0.71,0.641
	c-0.287,0.093-0.59,0.12-0.91,0.08c-0.187-0.027-0.357-0.074-0.51-0.141s-0.303-0.133-0.45-0.2c-0.2-0.093-0.393-0.16-0.58-0.2
	c-0.187-0.039-0.433-0.06-0.74-0.06c-0.227,0-0.453,0.03-0.68,0.09c-0.227,0.061-0.437,0.167-0.63,0.32s-0.35,0.367-0.47,0.64
	c-0.12,0.273-0.18,0.624-0.18,1.051v1.8C84.718,21.186,84.778,21.537,84.898,21.81z M96.438,26c-0.733-0.187-1.397-0.493-1.99-0.92
	c-0.594-0.427-1.074-0.997-1.44-1.71c-0.367-0.714-0.55-1.591-0.55-2.631v-1.761c0-1.066,0.177-1.953,0.53-2.66
	s0.807-1.273,1.36-1.7c0.553-0.427,1.167-0.73,1.84-0.91c0.673-0.181,1.33-0.271,1.97-0.271c0.694,0,1.371,0.084,2.031,0.25
	c0.66,0.167,1.25,0.483,1.77,0.95c0.521,0.467,0.937,1.117,1.25,1.95c0.313,0.834,0.47,1.911,0.47,3.231
	c0,0.173-0.01,0.38-0.03,0.62s-0.043,0.446-0.07,0.62h-7.162v0.02c0,0.347,0.073,0.634,0.22,0.86
	c0.146,0.227,0.333,0.413,0.56,0.561c0.227,0.146,0.473,0.25,0.74,0.31c0.267,0.061,0.52,0.09,0.76,0.09
	c0.494,0,0.874-0.02,1.141-0.06c0.267-0.04,0.533-0.106,0.8-0.2c0.147-0.054,0.297-0.11,0.45-0.17
	c0.153-0.061,0.317-0.104,0.49-0.13c0.347-0.04,0.664,0,0.95,0.12s0.497,0.333,0.63,0.64c0.213,0.493,0.216,0.943,0.01,1.351
	c-0.207,0.406-0.55,0.75-1.03,1.03c-0.16,0.093-0.363,0.187-0.61,0.28c-0.247,0.093-0.527,0.18-0.84,0.26s-0.647,0.144-1,0.189
	c-0.353,0.047-0.71,0.07-1.07,0.07C97.899,26.281,97.172,26.188,96.438,26z M97.529,16.769c-0.207,0.06-0.39,0.16-0.55,0.3
	c-0.16,0.141-0.293,0.32-0.4,0.54c-0.107,0.221-0.16,0.497-0.16,0.83h3.381c0.013-0.333-0.023-0.609-0.11-0.83
	c-0.086-0.22-0.203-0.399-0.35-0.54c-0.146-0.14-0.323-0.24-0.53-0.3c-0.207-0.061-0.417-0.09-0.63-0.09
	C97.952,16.679,97.735,16.708,97.529,16.769z M106.178,9.467c0.414-0.287,0.9-0.43,1.46-0.43s1.047,0.143,1.46,0.43
	c0.413,0.287,0.62,0.757,0.62,1.41c0,0.334-0.057,0.617-0.17,0.851c-0.114,0.233-0.264,0.423-0.45,0.57
	c-0.187,0.146-0.407,0.253-0.66,0.319c-0.253,0.067-0.52,0.101-0.8,0.101c-0.28,0-0.547-0.033-0.8-0.101
	c-0.253-0.066-0.473-0.173-0.66-0.319c-0.187-0.147-0.336-0.337-0.45-0.57c-0.114-0.233-0.17-0.517-0.17-0.851
	C105.558,10.224,105.765,9.754,106.178,9.467z M106.188,14.058c0.407-0.32,0.89-0.479,1.45-0.479s1.043,0.159,1.45,0.479
	s0.61,0.827,0.61,1.521v10.362h-4.121V15.579C105.578,14.885,105.781,14.378,106.188,14.058z M114.918,25.941l-3.881-9.842
	c-0.12-0.294-0.164-0.577-0.13-0.851c0.034-0.273,0.117-0.526,0.25-0.76c0.133-0.233,0.307-0.431,0.52-0.591s0.453-0.279,0.72-0.359
	c0.533-0.147,1.057-0.113,1.57,0.1c0.513,0.214,0.876,0.641,1.09,1.28l2,6.182l1.94-6.201c0.094-0.308,0.23-0.563,0.41-0.771
	s0.387-0.363,0.62-0.47c0.233-0.107,0.483-0.171,0.75-0.19c0.267-0.021,0.533,0.003,0.8,0.07c0.253,0.066,0.487,0.183,0.7,0.35
	s0.38,0.367,0.5,0.601c0.12,0.233,0.193,0.49,0.22,0.77c0.027,0.28-0.02,0.567-0.14,0.86l-3.781,9.822H114.918z M124.818,9.467
	c0.413-0.287,0.9-0.43,1.46-0.43c0.561,0,1.047,0.143,1.46,0.43c0.414,0.287,0.62,0.757,0.62,1.41c0,0.334-0.057,0.617-0.17,0.851
	s-0.263,0.423-0.45,0.57c-0.187,0.146-0.407,0.253-0.66,0.319c-0.253,0.067-0.52,0.101-0.8,0.101c-0.28,0-0.546-0.033-0.8-0.101
	c-0.253-0.066-0.474-0.173-0.66-0.319c-0.187-0.147-0.337-0.337-0.45-0.57s-0.17-0.517-0.17-0.851
	C124.198,10.224,124.404,9.754,124.818,9.467z M124.828,14.058c0.407-0.32,0.89-0.479,1.45-0.479c0.561,0,1.044,0.159,1.451,0.479
	c0.406,0.32,0.609,0.827,0.609,1.521v10.362h-4.12V15.579C124.218,14.885,124.421,14.378,124.828,14.058z M130.438,15.439
	c0-0.334,0.057-0.624,0.17-0.87c0.113-0.247,0.264-0.454,0.45-0.62c0.187-0.167,0.399-0.294,0.64-0.381
	c0.24-0.086,0.494-0.13,0.761-0.13c0.387,0,0.75,0.094,1.091,0.28c0.34,0.187,0.596,0.46,0.77,0.82
	c0.387-0.36,0.837-0.634,1.35-0.82c0.514-0.187,1.037-0.28,1.57-0.28c0.641,0,1.238,0.087,1.791,0.261
	c0.554,0.173,1.033,0.47,1.44,0.89s0.729,0.983,0.97,1.69s0.36,1.587,0.36,2.641v7.021h-4.12v-7.262c0-0.333-0.051-0.616-0.15-0.85
	s-0.227-0.424-0.381-0.57c-0.152-0.146-0.322-0.25-0.51-0.311c-0.187-0.06-0.367-0.09-0.54-0.09s-0.354,0.03-0.54,0.09
	c-0.187,0.061-0.359,0.164-0.52,0.311s-0.291,0.337-0.391,0.57s-0.15,0.517-0.15,0.85v7.262h-4.061V15.439z M154.91,26.141
	c-0.154,0.587-0.454,1.123-0.9,1.61c-0.447,0.486-1.084,0.9-1.91,1.24c-0.827,0.34-1.914,0.536-3.262,0.59
	c-0.186,0.014-0.41,0.01-0.67-0.01c-0.26-0.021-0.529-0.054-0.811-0.101c-0.279-0.046-0.546-0.106-0.799-0.18
	c-0.254-0.073-0.461-0.156-0.621-0.25c-0.307-0.174-0.523-0.45-0.65-0.83c-0.126-0.38-0.123-0.743,0.011-1.09
	c0.12-0.32,0.327-0.574,0.62-0.761s0.613-0.253,0.96-0.2c0.294,0.04,0.601,0.08,0.921,0.12c0.319,0.04,0.666,0.061,1.039,0.061
	c0.428,0,0.794-0.051,1.101-0.15c0.308-0.1,0.561-0.236,0.761-0.41c0.199-0.173,0.346-0.366,0.439-0.58
	c0.094-0.213,0.141-0.434,0.141-0.66v-0.36c-0.348,0.347-0.761,0.617-1.24,0.811c-0.48,0.193-1.027,0.29-1.641,0.29
	c-0.667,0-1.291-0.087-1.871-0.26c-0.58-0.174-1.09-0.471-1.529-0.891c-0.44-0.42-0.787-0.98-1.041-1.681
	c-0.253-0.7-0.38-1.57-0.38-2.61v-0.88c0-1.054,0.127-1.934,0.38-2.641c0.254-0.707,0.601-1.273,1.041-1.7
	c0.439-0.427,0.953-0.73,1.54-0.91c0.587-0.181,1.214-0.271,1.88-0.271c0.508,0,1.014,0.094,1.521,0.28s0.954,0.467,1.341,0.84
	c0.16-0.373,0.41-0.653,0.75-0.84s0.71-0.28,1.109-0.28c0.534,0,1.001,0.167,1.4,0.5c0.4,0.334,0.601,0.834,0.601,1.501v9.002
	C155.14,24.988,155.063,25.554,154.91,26.141z M147.868,21.06c0.113,0.227,0.253,0.413,0.42,0.56c0.167,0.147,0.351,0.25,0.55,0.311
	c0.201,0.06,0.387,0.09,0.561,0.09s0.357-0.03,0.551-0.09c0.193-0.061,0.373-0.157,0.539-0.29c0.167-0.134,0.311-0.311,0.431-0.53
	s0.187-0.49,0.2-0.811v-1.72c-0.014-0.32-0.08-0.591-0.2-0.811s-0.264-0.396-0.431-0.53c-0.166-0.133-0.346-0.229-0.539-0.29
	c-0.193-0.06-0.377-0.09-0.551-0.09s-0.359,0.03-0.561,0.09c-0.199,0.061-0.383,0.164-0.55,0.311s-0.307,0.337-0.42,0.57
	s-0.17,0.517-0.17,0.85V20.2C147.698,20.546,147.755,20.833,147.868,21.06z M170.099,25.101c-0.387,0.359-0.84,0.646-1.36,0.859
	c-0.52,0.214-1.08,0.32-1.68,0.32h-0.44c-0.413,0-0.86-0.063-1.341-0.189c-0.479-0.127-0.923-0.344-1.33-0.65
	c-0.406-0.307-0.746-0.721-1.02-1.24c-0.273-0.521-0.41-1.174-0.41-1.961c0-0.76,0.133-1.394,0.4-1.9
	c0.266-0.507,0.623-0.913,1.07-1.22c0.445-0.307,0.967-0.527,1.56-0.66c0.594-0.134,1.217-0.2,1.87-0.2h2.061
	c-0.014-0.293-0.07-0.537-0.17-0.73s-0.233-0.347-0.4-0.46c-0.166-0.113-0.359-0.193-0.58-0.24c-0.22-0.046-0.449-0.069-0.689-0.069
	c-0.227,0-0.447,0.02-0.66,0.06c-0.214,0.04-0.44,0.094-0.681,0.16c-0.159,0.054-0.31,0.113-0.45,0.18
	c-0.14,0.067-0.303,0.141-0.49,0.221c-0.187,0.093-0.383,0.143-0.59,0.149s-0.41-0.02-0.609-0.08
	c-0.201-0.06-0.384-0.156-0.551-0.29c-0.166-0.133-0.297-0.3-0.391-0.5c-0.186-0.399-0.213-0.79-0.08-1.17
	c0.134-0.38,0.374-0.704,0.721-0.971c0.267-0.199,0.566-0.366,0.9-0.5c0.334-0.133,0.68-0.243,1.04-0.33s0.724-0.149,1.091-0.189
	c0.366-0.04,0.723-0.061,1.07-0.061c0.72,0,1.41,0.077,2.07,0.23s1.24,0.427,1.74,0.82c0.5,0.393,0.9,0.937,1.2,1.63
	s0.45,1.58,0.45,2.661v7.161h-3.161L170.099,25.101z M167.658,21.2c-0.387,0-0.68,0.09-0.88,0.271c-0.2,0.18-0.3,0.43-0.3,0.75
	c0,0.333,0.1,0.58,0.3,0.74s0.474,0.24,0.819,0.24h0.281c0.186,0,0.373-0.027,0.56-0.08c0.187-0.054,0.356-0.134,0.511-0.24
	c0.152-0.106,0.279-0.24,0.379-0.4c0.101-0.16,0.15-0.347,0.15-0.56V21.2H167.658z M175.357,15.439c0-0.334,0.057-0.624,0.17-0.87
	c0.113-0.247,0.264-0.454,0.45-0.62c0.187-0.167,0.399-0.294,0.64-0.381c0.24-0.086,0.494-0.13,0.76-0.13
	c0.388,0,0.751,0.094,1.091,0.28c0.341,0.187,0.597,0.46,0.771,0.82c0.387-0.36,0.836-0.634,1.35-0.82s1.037-0.28,1.57-0.28
	c0.641,0,1.237,0.087,1.791,0.261c0.553,0.173,1.033,0.47,1.439,0.89c0.407,0.42,0.73,0.983,0.971,1.69s0.36,1.587,0.36,2.641v7.021
	h-4.121v-7.262c0-0.333-0.05-0.616-0.149-0.85c-0.101-0.233-0.227-0.424-0.381-0.57c-0.153-0.146-0.323-0.25-0.51-0.311
	c-0.187-0.06-0.367-0.09-0.54-0.09s-0.354,0.03-0.54,0.09c-0.188,0.061-0.36,0.164-0.521,0.311c-0.159,0.146-0.29,0.337-0.39,0.57
	s-0.15,0.517-0.15,0.85v7.262h-4.061V15.439z M196.699,24.64c-0.387,0.507-0.863,0.907-1.431,1.201
	c-0.567,0.293-1.21,0.439-1.931,0.439c-0.666,0-1.293-0.09-1.881-0.27c-0.586-0.181-1.104-0.483-1.55-0.91s-0.8-0.994-1.06-1.701
	c-0.261-0.706-0.391-1.587-0.391-2.641v-1.8c0-1.054,0.13-1.934,0.391-2.641c0.26-0.707,0.613-1.273,1.06-1.7s0.964-0.73,1.55-0.91
	c0.588-0.181,1.215-0.271,1.881-0.271c0.561,0,1.064,0.084,1.511,0.25c0.446,0.167,0.843,0.397,1.19,0.69v-3.341
	c0-0.333,0.057-0.623,0.17-0.87s0.264-0.453,0.449-0.62c0.188-0.167,0.404-0.293,0.65-0.38c0.247-0.087,0.504-0.13,0.771-0.13
	s0.521,0.043,0.761,0.13c0.239,0.087,0.453,0.213,0.64,0.38s0.337,0.373,0.45,0.62s0.17,0.537,0.17,0.87v14.903h-3.181
	L196.699,24.64z M192.748,21.9c0.113,0.227,0.257,0.413,0.43,0.561c0.174,0.146,0.36,0.25,0.561,0.31
	c0.199,0.061,0.387,0.09,0.561,0.09c0.173,0,0.355-0.029,0.55-0.09c0.193-0.06,0.376-0.156,0.55-0.29
	c0.174-0.133,0.32-0.31,0.439-0.53c0.121-0.22,0.188-0.49,0.201-0.81V18.58c-0.014-0.32-0.08-0.591-0.201-0.811
	c-0.119-0.22-0.266-0.396-0.439-0.53c-0.174-0.133-0.356-0.229-0.55-0.29c-0.193-0.06-0.377-0.09-0.55-0.09
	c-0.174,0-0.361,0.03-0.561,0.09c-0.2,0.061-0.387,0.164-0.561,0.311c-0.173,0.146-0.316,0.337-0.43,0.57s-0.17,0.517-0.17,0.85
	v2.36C192.578,21.386,192.635,21.673,192.748,21.9z"/>
<path fill="#FFFFFF" d="M23.379,50.161c-0.227-0.04-0.447-0.1-0.66-0.18s-0.397-0.181-0.55-0.301
	c-0.153-0.119-0.257-0.267-0.31-0.439l-2.021-7.302l-0.92,9.002h-3.781l1.681-14.144c0.026-0.307,0.11-0.58,0.25-0.819
	c0.14-0.24,0.31-0.443,0.51-0.61c0.2-0.167,0.417-0.297,0.65-0.391c0.233-0.093,0.463-0.153,0.69-0.18c0.24-0.014,0.497,0,0.77,0.04
	s0.533,0.123,0.78,0.25c0.247,0.127,0.47,0.3,0.67,0.521c0.2,0.22,0.347,0.496,0.44,0.83L24,45.6l2.42-9.162
	c0.093-0.334,0.237-0.61,0.43-0.83c0.193-0.221,0.417-0.394,0.67-0.521s0.517-0.21,0.79-0.25s0.53-0.054,0.771-0.04
	c0.227,0.026,0.457,0.087,0.69,0.18c0.233,0.094,0.45,0.224,0.65,0.391c0.2,0.167,0.37,0.37,0.51,0.61
	c0.14,0.239,0.224,0.513,0.25,0.819l1.681,14.144h-3.781l-0.9-9.062l-2.041,7.361c-0.053,0.173-0.157,0.32-0.31,0.439
	c-0.153,0.12-0.336,0.221-0.55,0.301s-0.434,0.14-0.66,0.18c-0.227,0.04-0.434,0.061-0.62,0.061
	C23.813,50.221,23.606,50.201,23.379,50.161z M41.919,50.101c-0.387,0.359-0.84,0.646-1.36,0.859c-0.52,0.214-1.08,0.32-1.68,0.32
	h-0.44c-0.413,0-0.86-0.063-1.34-0.189c-0.48-0.127-0.923-0.344-1.33-0.65s-0.747-0.721-1.02-1.24
	c-0.273-0.521-0.41-1.174-0.41-1.961c0-0.76,0.133-1.394,0.4-1.9s0.624-0.913,1.07-1.22s0.967-0.527,1.561-0.66
	c0.593-0.134,1.217-0.2,1.87-0.2h2.061c-0.013-0.293-0.07-0.537-0.17-0.73s-0.233-0.347-0.4-0.46c-0.167-0.113-0.36-0.193-0.58-0.24
	c-0.22-0.046-0.45-0.069-0.69-0.069c-0.227,0-0.447,0.02-0.66,0.06s-0.44,0.094-0.68,0.16c-0.16,0.054-0.31,0.113-0.45,0.18
	c-0.14,0.067-0.303,0.141-0.49,0.221c-0.187,0.093-0.383,0.143-0.59,0.149c-0.207,0.007-0.41-0.02-0.61-0.08
	c-0.2-0.06-0.383-0.156-0.55-0.29c-0.167-0.133-0.297-0.3-0.39-0.5c-0.187-0.399-0.213-0.79-0.08-1.17s0.374-0.704,0.72-0.971
	c0.267-0.199,0.566-0.366,0.9-0.5c0.333-0.133,0.68-0.243,1.041-0.33c0.36-0.087,0.723-0.149,1.09-0.189
	c0.367-0.04,0.724-0.061,1.07-0.061c0.72,0,1.411,0.077,2.071,0.23s1.24,0.427,1.74,0.82c0.5,0.393,0.9,0.937,1.2,1.63
	s0.45,1.58,0.45,2.661v7.161h-3.161L41.919,50.101z M39.479,46.2c-0.387,0-0.68,0.09-0.88,0.271c-0.2,0.18-0.3,0.43-0.3,0.75
	c0,0.333,0.1,0.58,0.3,0.74s0.474,0.24,0.82,0.24h0.28c0.187,0,0.374-0.027,0.561-0.08c0.187-0.054,0.356-0.134,0.51-0.24
	s0.28-0.24,0.38-0.4s0.15-0.347,0.15-0.56V46.2H39.479z M47.177,40.439c0-0.334,0.057-0.624,0.17-0.87
	c0.113-0.247,0.264-0.454,0.45-0.62c0.187-0.167,0.4-0.294,0.64-0.381c0.24-0.086,0.494-0.13,0.76-0.13
	c0.387,0,0.75,0.094,1.09,0.28c0.34,0.187,0.597,0.46,0.77,0.82c0.387-0.36,0.837-0.634,1.35-0.82c0.514-0.187,1.037-0.28,1.57-0.28
	c0.64,0,1.237,0.087,1.791,0.261c0.554,0.173,1.034,0.47,1.44,0.89s0.73,0.983,0.97,1.69s0.36,1.587,0.36,2.641v7.021h-4.121v-7.262
	c0-0.333-0.05-0.616-0.15-0.85c-0.1-0.233-0.227-0.424-0.38-0.57s-0.323-0.25-0.51-0.311c-0.187-0.06-0.367-0.09-0.54-0.09
	s-0.354,0.03-0.54,0.09c-0.187,0.061-0.36,0.164-0.52,0.311s-0.29,0.337-0.39,0.57s-0.15,0.517-0.15,0.85v7.262h-4.061V40.439z
	 M67.839,50.101c-0.387,0.359-0.84,0.646-1.36,0.859c-0.52,0.214-1.08,0.32-1.681,0.32h-0.44c-0.414,0-0.86-0.063-1.34-0.189
	c-0.48-0.127-0.923-0.344-1.33-0.65s-0.747-0.721-1.021-1.24c-0.273-0.521-0.41-1.174-0.41-1.961c0-0.76,0.133-1.394,0.4-1.9
	s0.624-0.913,1.07-1.22s0.967-0.527,1.56-0.66c0.594-0.134,1.217-0.2,1.871-0.2h2.061c-0.014-0.293-0.07-0.537-0.17-0.73
	c-0.1-0.193-0.233-0.347-0.4-0.46s-0.36-0.193-0.58-0.24c-0.22-0.046-0.45-0.069-0.69-0.069c-0.227,0-0.447,0.02-0.66,0.06
	s-0.44,0.094-0.68,0.16c-0.16,0.054-0.31,0.113-0.45,0.18c-0.14,0.067-0.304,0.141-0.49,0.221c-0.187,0.093-0.383,0.143-0.59,0.149
	c-0.207,0.007-0.41-0.02-0.61-0.08c-0.2-0.06-0.383-0.156-0.55-0.29c-0.167-0.133-0.296-0.3-0.39-0.5
	c-0.187-0.399-0.213-0.79-0.08-1.17c0.133-0.38,0.373-0.704,0.72-0.971c0.267-0.199,0.567-0.366,0.9-0.5
	c0.333-0.133,0.68-0.243,1.04-0.33c0.36-0.087,0.724-0.149,1.09-0.189s0.724-0.061,1.07-0.061c0.72,0,1.41,0.077,2.07,0.23
	s1.24,0.427,1.741,0.82c0.5,0.393,0.9,0.937,1.2,1.63c0.3,0.693,0.45,1.58,0.45,2.661v7.161h-3.161L67.839,50.101z M65.398,46.2
	c-0.387,0-0.68,0.09-0.88,0.271c-0.2,0.18-0.3,0.43-0.3,0.75c0,0.333,0.1,0.58,0.3,0.74s0.473,0.24,0.82,0.24h0.28
	c0.187,0,0.374-0.027,0.56-0.08c0.187-0.054,0.357-0.134,0.51-0.24s0.28-0.24,0.38-0.4c0.1-0.16,0.15-0.347,0.15-0.56V46.2H65.398z
	 M84.27,51.141c-0.153,0.587-0.454,1.123-0.9,1.61c-0.447,0.486-1.083,0.9-1.91,1.24c-0.827,0.34-1.914,0.536-3.261,0.59
	c-0.187,0.014-0.41,0.01-0.67-0.01c-0.26-0.021-0.53-0.054-0.81-0.101c-0.28-0.046-0.547-0.106-0.8-0.18s-0.46-0.156-0.62-0.25
	c-0.307-0.174-0.523-0.45-0.65-0.83c-0.127-0.38-0.124-0.743,0.01-1.09c0.12-0.32,0.327-0.574,0.62-0.761
	c0.293-0.187,0.614-0.253,0.96-0.2c0.293,0.04,0.6,0.08,0.92,0.12c0.32,0.04,0.667,0.061,1.04,0.061c0.427,0,0.793-0.051,1.1-0.15
	s0.56-0.236,0.76-0.41c0.2-0.173,0.347-0.366,0.44-0.58c0.093-0.213,0.14-0.434,0.14-0.66v-0.36c-0.347,0.347-0.76,0.617-1.24,0.811
	s-1.027,0.29-1.64,0.29c-0.667,0-1.291-0.087-1.871-0.26c-0.58-0.174-1.09-0.471-1.53-0.891s-0.787-0.98-1.04-1.681
	c-0.253-0.7-0.38-1.57-0.38-2.61v-0.88c0-1.054,0.127-1.934,0.38-2.641c0.253-0.707,0.6-1.273,1.04-1.7s0.954-0.73,1.54-0.91
	c0.587-0.181,1.214-0.271,1.881-0.271c0.506,0,1.013,0.094,1.52,0.28s0.954,0.467,1.34,0.84c0.16-0.373,0.41-0.653,0.75-0.84
	c0.34-0.187,0.71-0.28,1.11-0.28c0.534,0,1,0.167,1.4,0.5c0.4,0.334,0.6,0.834,0.6,1.501v9.002
	C84.5,49.988,84.423,50.554,84.27,51.141z M77.228,46.06c0.113,0.227,0.253,0.413,0.42,0.56c0.167,0.147,0.35,0.25,0.55,0.311
	c0.2,0.06,0.387,0.09,0.56,0.09s0.357-0.03,0.55-0.09c0.193-0.061,0.373-0.157,0.54-0.29c0.167-0.134,0.31-0.311,0.43-0.53
	c0.12-0.22,0.187-0.49,0.2-0.811v-1.72c-0.013-0.32-0.08-0.591-0.2-0.811c-0.12-0.22-0.264-0.396-0.43-0.53
	c-0.167-0.133-0.347-0.229-0.54-0.29c-0.193-0.06-0.377-0.09-0.55-0.09s-0.36,0.03-0.56,0.09c-0.2,0.061-0.383,0.164-0.55,0.311
	c-0.167,0.146-0.307,0.337-0.42,0.57s-0.17,0.517-0.17,0.85V45.2C77.058,45.546,77.115,45.833,77.228,46.06z M90.318,51
	c-0.733-0.187-1.397-0.493-1.99-0.92c-0.594-0.427-1.074-0.997-1.44-1.71c-0.367-0.714-0.55-1.591-0.55-2.631v-1.761
	c0-1.066,0.177-1.953,0.53-2.66s0.807-1.273,1.36-1.7c0.553-0.427,1.167-0.73,1.84-0.91c0.673-0.181,1.33-0.271,1.97-0.271
	c0.694,0,1.371,0.084,2.031,0.25c0.66,0.167,1.25,0.483,1.77,0.95c0.521,0.467,0.937,1.117,1.25,1.95
	c0.313,0.834,0.47,1.911,0.47,3.231c0,0.173-0.01,0.38-0.03,0.62s-0.043,0.446-0.07,0.62h-7.162v0.02c0,0.347,0.073,0.634,0.22,0.86
	c0.146,0.227,0.333,0.413,0.56,0.561c0.227,0.146,0.473,0.25,0.74,0.31c0.267,0.061,0.52,0.09,0.76,0.09
	c0.494,0,0.874-0.02,1.141-0.06c0.267-0.04,0.533-0.106,0.8-0.2c0.147-0.054,0.297-0.11,0.45-0.17
	c0.153-0.061,0.317-0.104,0.49-0.13c0.347-0.04,0.664,0,0.95,0.12s0.497,0.333,0.63,0.64c0.214,0.493,0.217,0.943,0.01,1.351
	c-0.207,0.406-0.55,0.75-1.03,1.03c-0.16,0.093-0.363,0.187-0.61,0.28c-0.247,0.093-0.527,0.18-0.84,0.26s-0.647,0.144-1,0.189
	c-0.353,0.047-0.71,0.07-1.07,0.07C91.778,51.281,91.051,51.188,90.318,51z M91.408,41.769c-0.207,0.06-0.39,0.16-0.55,0.3
	c-0.16,0.141-0.293,0.32-0.4,0.54c-0.107,0.221-0.16,0.497-0.16,0.83h3.381c0.013-0.333-0.023-0.609-0.11-0.83
	c-0.086-0.22-0.203-0.399-0.35-0.54c-0.146-0.14-0.323-0.24-0.53-0.3c-0.207-0.061-0.417-0.09-0.63-0.09
	C91.832,41.679,91.615,41.708,91.408,41.769z M99.357,40.439c0-0.334,0.057-0.624,0.17-0.87c0.113-0.247,0.263-0.454,0.45-0.62
	c0.187-0.167,0.4-0.294,0.64-0.381c0.24-0.086,0.494-0.13,0.76-0.13c0.387,0,0.75,0.094,1.09,0.28c0.34,0.187,0.59,0.46,0.75,0.82
	c0.774-0.733,1.707-1.101,2.801-1.101c0.613,0,1.2,0.106,1.76,0.32c0.56,0.213,1.054,0.573,1.48,1.08
	c0.414-0.427,0.914-0.767,1.5-1.021c0.586-0.253,1.287-0.38,2.1-0.38c0.64,0,1.247,0.09,1.821,0.271
	c0.573,0.18,1.077,0.479,1.51,0.9c0.433,0.42,0.78,0.983,1.04,1.689c0.26,0.707,0.39,1.581,0.39,2.621v7.021H113.5v-7.262
	c0-0.333-0.046-0.616-0.14-0.85c-0.094-0.233-0.217-0.424-0.37-0.57s-0.32-0.25-0.5-0.311c-0.18-0.06-0.35-0.09-0.51-0.09
	c-0.16,0-0.333,0.03-0.52,0.09c-0.187,0.061-0.354,0.164-0.5,0.311c-0.146,0.146-0.27,0.337-0.37,0.57
	c-0.1,0.233-0.15,0.517-0.15,0.85v7.262h-3.961v-7.262c0-0.333-0.046-0.616-0.14-0.85c-0.094-0.233-0.217-0.424-0.37-0.57
	s-0.32-0.25-0.5-0.311c-0.18-0.06-0.35-0.09-0.51-0.09c-0.16,0-0.33,0.03-0.51,0.09c-0.18,0.061-0.343,0.157-0.49,0.29
	c-0.146,0.134-0.27,0.311-0.37,0.53c-0.1,0.22-0.157,0.49-0.17,0.811v7.361h-4.061V40.439z M123.378,51
	c-0.733-0.187-1.397-0.493-1.991-0.92c-0.593-0.427-1.073-0.997-1.44-1.71c-0.367-0.714-0.55-1.591-0.55-2.631v-1.761
	c0-1.066,0.177-1.953,0.53-2.66s0.807-1.273,1.36-1.7c0.553-0.427,1.167-0.73,1.84-0.91c0.673-0.181,1.33-0.271,1.97-0.271
	c0.693,0,1.371,0.084,2.031,0.25c0.66,0.167,1.25,0.483,1.77,0.95c0.521,0.467,0.938,1.117,1.251,1.95
	c0.313,0.834,0.47,1.911,0.47,3.231c0,0.173-0.01,0.38-0.029,0.62c-0.021,0.24-0.044,0.446-0.07,0.62h-7.162v0.02
	c0,0.347,0.073,0.634,0.22,0.86c0.146,0.227,0.333,0.413,0.56,0.561c0.227,0.146,0.473,0.25,0.74,0.31
	c0.267,0.061,0.52,0.09,0.76,0.09c0.494,0,0.874-0.02,1.141-0.06c0.267-0.04,0.533-0.106,0.8-0.2c0.147-0.054,0.297-0.11,0.451-0.17
	c0.152-0.061,0.316-0.104,0.49-0.13c0.346-0.04,0.663,0,0.949,0.12c0.287,0.12,0.497,0.333,0.631,0.64
	c0.213,0.493,0.217,0.943,0.01,1.351c-0.207,0.406-0.551,0.75-1.03,1.03c-0.16,0.093-0.363,0.187-0.61,0.28
	c-0.246,0.093-0.526,0.18-0.84,0.26s-0.647,0.144-1,0.189c-0.353,0.047-0.71,0.07-1.07,0.07
	C124.838,51.281,124.111,51.188,123.378,51z M124.468,41.769c-0.207,0.06-0.39,0.16-0.55,0.3c-0.16,0.141-0.293,0.32-0.4,0.54
	c-0.107,0.221-0.16,0.497-0.16,0.83h3.381c0.013-0.333-0.023-0.609-0.11-0.83c-0.086-0.22-0.203-0.399-0.35-0.54
	c-0.146-0.14-0.323-0.24-0.53-0.3c-0.207-0.061-0.417-0.09-0.63-0.09C124.892,41.679,124.675,41.708,124.468,41.769z
	 M132.417,40.439c0-0.334,0.057-0.624,0.171-0.87c0.113-0.247,0.263-0.454,0.449-0.62c0.188-0.167,0.4-0.294,0.641-0.381
	c0.24-0.086,0.493-0.13,0.76-0.13c0.387,0,0.75,0.094,1.09,0.28s0.598,0.46,0.771,0.82c0.387-0.36,0.837-0.634,1.351-0.82
	s1.037-0.28,1.57-0.28c0.641,0,1.236,0.087,1.79,0.261c0.554,0.173,1.034,0.47,1.44,0.89s0.73,0.983,0.971,1.69
	s0.359,1.587,0.359,2.641v7.021h-4.121v-7.262c0-0.333-0.049-0.616-0.149-0.85s-0.228-0.424-0.38-0.57
	c-0.154-0.146-0.324-0.25-0.51-0.311c-0.188-0.06-0.367-0.09-0.541-0.09s-0.354,0.03-0.54,0.09c-0.187,0.061-0.36,0.164-0.521,0.311
	s-0.289,0.337-0.39,0.57s-0.149,0.517-0.149,0.85v7.262h-4.062V40.439z M146.477,42.139c-0.626,0-1.076-0.167-1.35-0.5
	c-0.273-0.334-0.41-0.714-0.41-1.141c0-0.2,0.03-0.4,0.09-0.6c0.061-0.2,0.16-0.381,0.301-0.541c0.14-0.159,0.322-0.29,0.55-0.39
	c0.227-0.1,0.5-0.15,0.819-0.15h0.66v-2.08c0-0.333,0.057-0.627,0.171-0.88c0.113-0.254,0.263-0.46,0.45-0.62
	c0.187-0.16,0.396-0.28,0.63-0.36s0.477-0.12,0.729-0.12c0.254,0,0.498,0.04,0.73,0.12c0.233,0.08,0.443,0.2,0.631,0.36
	c0.186,0.16,0.336,0.366,0.449,0.62c0.113,0.253,0.17,0.547,0.17,0.88v2.08h1.181c0.32,0,0.591,0.051,0.81,0.15
	c0.221,0.1,0.4,0.23,0.541,0.39c0.14,0.16,0.243,0.341,0.311,0.541c0.066,0.199,0.1,0.399,0.1,0.6c0,0.427-0.137,0.807-0.41,1.141
	c-0.273,0.333-0.724,0.5-1.351,0.5h-1.181V47.1c0,0.307,0.064,0.507,0.19,0.6c0.127,0.094,0.276,0.147,0.45,0.16
	c0.146,0.014,0.28,0.004,0.4-0.029c0.119-0.034,0.279-0.051,0.48-0.051c0.333,0,0.626,0.101,0.879,0.301
	c0.254,0.2,0.414,0.467,0.48,0.8c0.094,0.413,0.063,0.78-0.09,1.101c-0.153,0.319-0.37,0.573-0.65,0.76
	c-0.227,0.146-0.514,0.273-0.859,0.38c-0.348,0.107-0.693,0.16-1.041,0.16c-0.666,0-1.26-0.073-1.78-0.22s-0.96-0.38-1.319-0.7
	c-0.361-0.32-0.635-0.74-0.82-1.261c-0.188-0.52-0.281-1.16-0.281-1.92v-5.041H146.477z M165.378,40.479
	c0.44,0.267,1.06,0.533,1.86,0.8l0.98,0.34c0.586,0.214,1.117,0.48,1.59,0.801c0.474,0.319,0.877,0.696,1.211,1.13
	c0.333,0.434,0.58,0.92,0.74,1.46s0.22,1.131,0.18,1.771c-0.094,1.427-0.67,2.534-1.73,3.321c-1.061,0.786-2.504,1.18-4.331,1.18
	c-0.894,0-1.754-0.097-2.581-0.29c-0.826-0.193-1.514-0.503-2.061-0.93c-0.186-0.16-0.346-0.344-0.479-0.551
	c-0.134-0.206-0.229-0.423-0.29-0.649c-0.061-0.228-0.07-0.464-0.029-0.711c0.039-0.246,0.133-0.483,0.279-0.71s0.354-0.4,0.62-0.52
	c0.267-0.12,0.534-0.188,0.8-0.2c0.348-0.014,0.624,0.04,0.83,0.16c0.207,0.12,0.404,0.233,0.591,0.34
	c0.227,0.146,0.521,0.27,0.88,0.37c0.36,0.1,0.881,0.149,1.561,0.149c0.561,0,0.994-0.1,1.301-0.3s0.467-0.52,0.479-0.96
	c0-0.187-0.073-0.367-0.22-0.54c-0.146-0.174-0.357-0.334-0.631-0.48s-0.59-0.29-0.949-0.43c-0.361-0.141-0.748-0.277-1.16-0.41
	c-0.16-0.054-0.33-0.113-0.511-0.18c-0.181-0.067-0.33-0.127-0.45-0.181c-0.76-0.32-1.373-0.717-1.84-1.19
	c-0.467-0.473-0.817-0.986-1.051-1.54s-0.354-1.123-0.359-1.71c-0.008-0.587,0.076-1.141,0.25-1.661c0.346-1.08,0.99-1.913,1.93-2.5
	c0.94-0.587,2.098-0.88,3.471-0.88c0.521,0,0.977,0.022,1.371,0.069c0.393,0.047,0.74,0.107,1.039,0.181
	c0.301,0.073,0.561,0.159,0.781,0.26c0.22,0.1,0.423,0.196,0.609,0.29c0.467,0.253,0.83,0.606,1.09,1.061
	c0.261,0.453,0.317,0.92,0.171,1.4c-0.134,0.413-0.356,0.706-0.671,0.88c-0.313,0.173-0.663,0.26-1.05,0.26
	c-0.146,0-0.313-0.026-0.5-0.08c-0.187-0.053-0.327-0.113-0.42-0.18c-0.24-0.16-0.547-0.3-0.921-0.42
	c-0.373-0.12-0.859-0.181-1.46-0.181c-0.479,0-0.856,0.097-1.13,0.29s-0.417,0.497-0.43,0.91
	C164.725,39.892,164.938,40.211,165.378,40.479z M178.088,53.921c-1.033,0.587-2.25,0.78-3.65,0.58
	c-0.294-0.04-0.547-0.123-0.761-0.25s-0.39-0.283-0.53-0.47c-0.14-0.187-0.236-0.387-0.29-0.601c-0.054-0.213-0.066-0.434-0.04-0.66
	c0.066-0.453,0.264-0.83,0.59-1.13c0.327-0.3,0.791-0.396,1.391-0.29c0.414,0.08,0.807,0.06,1.181-0.061
	c0.373-0.12,0.64-0.333,0.8-0.64V50.38l-4.08-9.082c-0.134-0.293-0.197-0.58-0.191-0.859c0.008-0.28,0.064-0.54,0.171-0.78
	s0.257-0.45,0.45-0.631c0.193-0.18,0.424-0.316,0.689-0.409c0.254-0.094,0.521-0.147,0.801-0.16c0.279-0.014,0.543,0.023,0.79,0.109
	c0.247,0.087,0.47,0.228,0.67,0.421s0.36,0.449,0.48,0.77l2.3,6.222l2.121-6.222c0.106-0.32,0.26-0.576,0.46-0.77
	s0.423-0.334,0.67-0.421c0.247-0.086,0.504-0.123,0.771-0.109c0.267,0.013,0.533,0.066,0.801,0.16
	c0.252,0.093,0.477,0.229,0.67,0.409c0.193,0.181,0.34,0.391,0.439,0.631s0.15,0.5,0.15,0.78c0,0.279-0.061,0.566-0.18,0.859
	l-4.201,9.622C179.945,52.334,179.121,53.334,178.088,53.921z M190.328,42.799c0.313,0.12,0.843,0.246,1.59,0.38
	c0.133,0.026,0.264,0.054,0.391,0.08c0.126,0.026,0.25,0.054,0.369,0.08c1.201,0.307,2.081,0.83,2.641,1.57
	c0.561,0.74,0.768,1.717,0.621,2.931c-0.08,0.587-0.271,1.097-0.57,1.53c-0.301,0.434-0.69,0.79-1.171,1.07
	c-0.479,0.28-1.03,0.49-1.65,0.63s-1.276,0.21-1.97,0.21c-0.348,0-0.704-0.017-1.07-0.05c-0.367-0.033-0.73-0.09-1.091-0.17
	s-0.706-0.19-1.04-0.33c-0.334-0.141-0.627-0.316-0.881-0.53c-0.346-0.293-0.583-0.657-0.709-1.09
	c-0.127-0.434-0.051-0.864,0.229-1.291c0.147-0.213,0.33-0.366,0.55-0.46c0.221-0.093,0.464-0.146,0.73-0.16
	c0.32-0.013,0.574,0.034,0.76,0.141c0.188,0.106,0.367,0.213,0.541,0.32c0.213,0.133,0.52,0.239,0.92,0.319s0.793,0.12,1.18,0.12
	s0.684-0.066,0.891-0.2c0.207-0.133,0.323-0.293,0.35-0.479c0.027-0.24-0.176-0.431-0.609-0.57c-0.434-0.141-1.037-0.29-1.811-0.45
	c-0.146-0.026-0.29-0.057-0.43-0.09c-0.141-0.033-0.271-0.07-0.391-0.11c-0.787-0.24-1.4-0.563-1.84-0.97
	c-0.44-0.407-0.748-0.857-0.921-1.351s-0.233-1.007-0.18-1.54c0.054-0.534,0.187-1.034,0.399-1.501
	c0.201-0.413,0.464-0.773,0.791-1.08c0.326-0.307,0.699-0.557,1.119-0.75c0.421-0.193,0.871-0.337,1.352-0.43
	c0.479-0.094,0.973-0.141,1.48-0.141c0.799,0,1.486,0.073,2.06,0.221c0.573,0.146,1.034,0.319,1.38,0.52
	c0.414,0.227,0.74,0.537,0.98,0.931s0.294,0.816,0.16,1.27c-0.119,0.387-0.32,0.654-0.6,0.801c-0.28,0.146-0.601,0.22-0.961,0.22
	c-0.133,0-0.283-0.023-0.449-0.07c-0.167-0.046-0.297-0.103-0.391-0.17c-0.12-0.08-0.267-0.149-0.439-0.21
	c-0.174-0.06-0.357-0.116-0.551-0.17s-0.391-0.093-0.59-0.12c-0.2-0.026-0.381-0.04-0.541-0.04c-0.319,0-0.572,0.063-0.76,0.19
	c-0.187,0.127-0.287,0.276-0.3,0.45C189.871,42.5,190.014,42.679,190.328,42.799z M198.156,42.139c-0.626,0-1.076-0.167-1.35-0.5
	c-0.273-0.334-0.41-0.714-0.41-1.141c0-0.2,0.03-0.4,0.09-0.6c0.061-0.2,0.16-0.381,0.301-0.541c0.14-0.159,0.322-0.29,0.55-0.39
	c0.227-0.1,0.5-0.15,0.819-0.15h0.66v-2.08c0-0.333,0.057-0.627,0.171-0.88c0.113-0.254,0.263-0.46,0.45-0.62
	c0.187-0.16,0.396-0.28,0.63-0.36s0.477-0.12,0.729-0.12c0.254,0,0.498,0.04,0.73,0.12c0.233,0.08,0.443,0.2,0.631,0.36
	c0.186,0.16,0.336,0.366,0.449,0.62c0.113,0.253,0.17,0.547,0.17,0.88v2.08h1.181c0.32,0,0.591,0.051,0.81,0.15
	c0.221,0.1,0.4,0.23,0.541,0.39c0.14,0.16,0.243,0.341,0.311,0.541c0.066,0.199,0.1,0.399,0.1,0.6c0,0.427-0.137,0.807-0.41,1.141
	c-0.273,0.333-0.724,0.5-1.351,0.5h-1.181V47.1c0,0.307,0.064,0.507,0.19,0.6c0.127,0.094,0.276,0.147,0.45,0.16
	c0.146,0.014,0.28,0.004,0.4-0.029c0.119-0.034,0.279-0.051,0.48-0.051c0.333,0,0.626,0.101,0.879,0.301
	c0.254,0.2,0.414,0.467,0.48,0.8c0.094,0.413,0.063,0.78-0.09,1.101c-0.153,0.319-0.37,0.573-0.65,0.76
	c-0.227,0.146-0.514,0.273-0.859,0.38c-0.348,0.107-0.693,0.16-1.041,0.16c-0.666,0-1.26-0.073-1.78-0.22s-0.96-0.38-1.319-0.7
	c-0.361-0.32-0.635-0.74-0.82-1.261c-0.188-0.52-0.281-1.16-0.281-1.92v-5.041H198.156z M210.637,51
	c-0.732-0.187-1.396-0.493-1.99-0.92c-0.593-0.427-1.073-0.997-1.439-1.71c-0.367-0.714-0.551-1.591-0.551-2.631v-1.761
	c0-1.066,0.177-1.953,0.53-2.66s0.808-1.273,1.36-1.7c0.554-0.427,1.167-0.73,1.84-0.91c0.674-0.181,1.331-0.271,1.971-0.271
	c0.693,0,1.371,0.084,2.031,0.25c0.66,0.167,1.25,0.483,1.77,0.95c0.521,0.467,0.938,1.117,1.25,1.95
	c0.314,0.834,0.471,1.911,0.471,3.231c0,0.173-0.01,0.38-0.029,0.62c-0.021,0.24-0.044,0.446-0.07,0.62h-7.162v0.02
	c0,0.347,0.074,0.634,0.221,0.86s0.333,0.413,0.56,0.561c0.227,0.146,0.474,0.25,0.74,0.31c0.267,0.061,0.521,0.09,0.761,0.09
	c0.492,0,0.873-0.02,1.14-0.06s0.534-0.106,0.8-0.2c0.146-0.054,0.297-0.11,0.451-0.17c0.152-0.061,0.316-0.104,0.489-0.13
	c0.347-0.04,0.663,0,0.95,0.12s0.497,0.333,0.631,0.64c0.213,0.493,0.217,0.943,0.01,1.351c-0.207,0.406-0.551,0.75-1.031,1.03
	c-0.159,0.093-0.363,0.187-0.609,0.28c-0.246,0.093-0.527,0.18-0.84,0.26c-0.314,0.08-0.646,0.144-1,0.189
	c-0.354,0.047-0.711,0.07-1.07,0.07C212.098,51.281,211.371,51.188,210.637,51z M211.728,41.769c-0.206,0.06-0.39,0.16-0.55,0.3
	c-0.16,0.141-0.293,0.32-0.4,0.54c-0.106,0.221-0.16,0.497-0.16,0.83h3.381c0.014-0.333-0.023-0.609-0.109-0.83
	c-0.088-0.22-0.204-0.399-0.351-0.54c-0.147-0.14-0.323-0.24-0.53-0.3c-0.207-0.061-0.416-0.09-0.63-0.09
	C212.15,41.679,211.935,41.708,211.728,41.769z M219.677,40.439c0-0.334,0.057-0.624,0.17-0.87c0.113-0.247,0.264-0.454,0.45-0.62
	c0.187-0.167,0.4-0.294,0.641-0.381c0.239-0.086,0.492-0.13,0.76-0.13c0.387,0,0.75,0.094,1.09,0.28s0.59,0.46,0.75,0.82
	c0.773-0.733,1.707-1.101,2.801-1.101c0.613,0,1.201,0.106,1.761,0.32c0.56,0.213,1.054,0.573,1.479,1.08
	c0.414-0.427,0.914-0.767,1.501-1.021c0.587-0.253,1.287-0.38,2.101-0.38c0.641,0,1.246,0.09,1.82,0.271
	c0.573,0.18,1.076,0.479,1.51,0.9c0.434,0.42,0.781,0.983,1.041,1.689c0.26,0.707,0.39,1.581,0.39,2.621v7.021h-4.12v-7.262
	c0-0.333-0.047-0.616-0.141-0.85s-0.217-0.424-0.37-0.57s-0.319-0.25-0.5-0.311c-0.181-0.06-0.351-0.09-0.511-0.09
	s-0.333,0.03-0.52,0.09c-0.187,0.061-0.354,0.164-0.5,0.311s-0.27,0.337-0.37,0.57s-0.149,0.517-0.149,0.85v7.262h-3.961v-7.262
	c0-0.333-0.047-0.616-0.141-0.85s-0.217-0.424-0.37-0.57s-0.319-0.25-0.5-0.311c-0.181-0.06-0.351-0.09-0.511-0.09
	s-0.33,0.03-0.51,0.09c-0.18,0.061-0.344,0.157-0.49,0.29c-0.146,0.134-0.27,0.311-0.369,0.53c-0.101,0.22-0.157,0.49-0.171,0.811
	v7.361h-4.061V40.439z"/>
</svg>
