<?xml version="1.0" encoding="utf-8"?>
<!-- Generator: Adobe Illustrator 16.0.0, SVG Export Plug-In . SVG Version: 6.00 Build 0)  -->
<!DOCTYPE svg PUBLIC "-//W3C//DTD SVG 1.1//EN" "http://www.w3.org/Graphics/SVG/1.1/DTD/svg11.dtd">
<svg version="1.1" id="레이어_1" xmlns="http://www.w3.org/2000/svg" xmlns:xlink="http://www.w3.org/1999/xlink" x="0px"
	 y="0px" width="253.411px" height="63.041px" viewBox="0 0 253.411 63.041" enable-background="new 0 0 253.411 63.041"
	 xml:space="preserve">
<g>
	<defs>
		<rect id="SVGID_1_" x="0.482" y="0" width="253.411" height="63.039"/>
	</defs>
	<clipPath id="SVGID_2_">
		<use xlink:href="#SVGID_1_"  overflow="visible"/>
	</clipPath>
	<path clip-path="url(#SVGID_2_)" fill="#CCC8C7" d="M243.47,2.111c0,0-0.778-2.111-3.028-2.111H2.112c0,0-2.25,0-1.462,2.108
		l10.201,27.304c0,0,0.787,2.108,0,4.217L0.65,60.932c0,0-0.788,2.107,1.462,2.107h238.33c0,0,2.25,0,3.028-2.11l10.077-27.298
		c0,0,0.779-2.111,0-4.223L243.47,2.111z"/>
</g>
<path fill="#FFFFFF" d="M71.091,16.208c0.293,0,0.541,0.053,0.74,0.16c0.2,0.106,0.367,0.246,0.5,0.42
	c0.134,0.173,0.23,0.363,0.29,0.57c0.06,0.206,0.09,0.409,0.09,0.609s-0.03,0.4-0.09,0.601c-0.06,0.2-0.153,0.383-0.28,0.55
	c-0.127,0.167-0.293,0.3-0.5,0.4c-0.207,0.1-0.457,0.149-0.75,0.149H65.63v2.341c0,0.24,0.04,0.396,0.12,0.471
	c0.08,0.073,0.233,0.109,0.46,0.109h5.261c0.293,0,0.543,0.05,0.75,0.15c0.207,0.1,0.374,0.233,0.5,0.4
	c0.127,0.166,0.22,0.353,0.28,0.56s0.09,0.41,0.09,0.61s-0.03,0.406-0.09,0.62c-0.06,0.213-0.157,0.406-0.29,0.58
	c-0.133,0.173-0.3,0.313-0.5,0.42c-0.2,0.106-0.447,0.16-0.74,0.16h-6.822c-0.6,0-1.1-0.057-1.5-0.17
	c-0.4-0.113-0.72-0.297-0.96-0.55c-0.24-0.254-0.41-0.581-0.51-0.98c-0.1-0.4-0.15-0.887-0.15-1.461v-9.781
	c0-0.574,0.05-1.061,0.15-1.461c0.1-0.399,0.27-0.727,0.51-0.98c0.24-0.253,0.56-0.437,0.96-0.55c0.4-0.113,0.9-0.17,1.5-0.17h6.622
	c0.293,0,0.54,0.054,0.74,0.16s0.367,0.247,0.5,0.42c0.133,0.174,0.23,0.367,0.29,0.58c0.06,0.214,0.09,0.42,0.09,0.62
	s-0.03,0.403-0.09,0.61s-0.153,0.394-0.28,0.56c-0.127,0.167-0.293,0.301-0.5,0.4c-0.207,0.101-0.457,0.15-0.75,0.15H66.21
	c-0.227,0-0.38,0.036-0.46,0.109c-0.08,0.074-0.12,0.23-0.12,0.471v2.141H71.091z M78.83,21.959c0.12,0.273,0.273,0.486,0.46,0.64
	c0.187,0.153,0.396,0.261,0.63,0.32c0.233,0.061,0.463,0.09,0.69,0.09c0.333,0,0.617-0.023,0.85-0.069
	c0.233-0.047,0.483-0.13,0.75-0.25c0.147-0.067,0.3-0.144,0.46-0.23c0.16-0.087,0.333-0.144,0.52-0.17
	c0.293-0.054,0.577-0.026,0.85,0.08s0.497,0.3,0.67,0.58c0.134,0.227,0.21,0.463,0.23,0.71c0.02,0.247-0.014,0.487-0.1,0.721
	c-0.087,0.233-0.217,0.449-0.39,0.649s-0.38,0.374-0.62,0.521c-0.374,0.227-0.833,0.43-1.38,0.61c-0.547,0.18-1.16,0.27-1.84,0.27
	c-0.72,0-1.444-0.087-2.17-0.26c-0.727-0.174-1.38-0.474-1.96-0.9s-1.05-0.993-1.411-1.7c-0.36-0.707-0.54-1.601-0.54-2.681v-1.761
	c0-1.053,0.18-1.934,0.54-2.641c0.36-0.706,0.824-1.273,1.391-1.7s1.204-0.733,1.91-0.92c0.707-0.187,1.407-0.28,2.101-0.28
	c0.72,0,1.34,0.08,1.86,0.24s0.94,0.34,1.26,0.54c0.24,0.146,0.447,0.316,0.62,0.51s0.304,0.404,0.39,0.631
	c0.087,0.227,0.127,0.456,0.12,0.689s-0.077,0.464-0.21,0.69c-0.187,0.334-0.423,0.547-0.71,0.641c-0.287,0.093-0.59,0.12-0.91,0.08
	c-0.187-0.027-0.356-0.074-0.51-0.141c-0.154-0.066-0.304-0.133-0.45-0.2c-0.2-0.093-0.394-0.16-0.58-0.2
	c-0.187-0.039-0.434-0.06-0.74-0.06c-0.227,0-0.454,0.03-0.68,0.09c-0.227,0.061-0.437,0.167-0.63,0.32s-0.35,0.367-0.47,0.64
	c-0.12,0.273-0.18,0.624-0.18,1.051v1.8C78.65,21.335,78.71,21.686,78.83,21.959z M86.909,16.409c0.347-0.707,0.8-1.274,1.36-1.701
	s1.184-0.727,1.87-0.899c0.687-0.174,1.371-0.261,2.051-0.261c0.667,0,1.343,0.087,2.03,0.261c0.687,0.173,1.31,0.473,1.871,0.899
	c0.56,0.427,1.017,0.994,1.37,1.701c0.354,0.706,0.53,1.6,0.53,2.68v1.841c0,1.08-0.177,1.974-0.53,2.681s-0.81,1.273-1.37,1.7
	c-0.561,0.427-1.184,0.727-1.871,0.9c-0.687,0.173-1.364,0.26-2.03,0.26c-0.667,0-1.344-0.087-2.031-0.26
	c-0.687-0.174-1.31-0.474-1.87-0.9s-1.017-0.993-1.371-1.7c-0.353-0.707-0.53-1.601-0.53-2.681v-1.841
	C86.389,18.008,86.563,17.115,86.909,16.409z M93.811,17.999c-0.106-0.247-0.243-0.45-0.41-0.61c-0.167-0.16-0.356-0.276-0.57-0.35
	s-0.427-0.11-0.64-0.11s-0.427,0.037-0.64,0.11s-0.404,0.189-0.57,0.35s-0.303,0.363-0.41,0.61c-0.106,0.247-0.16,0.55-0.16,0.91
	v2.2c0,0.36,0.054,0.664,0.16,0.91c0.107,0.247,0.244,0.45,0.41,0.61s0.357,0.277,0.57,0.351s0.427,0.109,0.64,0.109
	s0.427-0.036,0.64-0.109s0.403-0.19,0.57-0.351c0.167-0.16,0.304-0.363,0.41-0.61c0.107-0.246,0.16-0.55,0.16-0.91v-2.2
	C93.971,18.548,93.917,18.246,93.811,17.999z M99.319,17.458c0.06-0.207,0.153-0.394,0.28-0.561c0.126-0.166,0.293-0.3,0.5-0.399
	c0.207-0.101,0.457-0.15,0.75-0.15h7.202c0.293,0,0.543,0.05,0.75,0.15c0.207,0.1,0.374,0.233,0.5,0.399
	c0.126,0.167,0.22,0.354,0.28,0.561s0.09,0.41,0.09,0.61s-0.03,0.406-0.09,0.62c-0.06,0.213-0.157,0.406-0.29,0.58
	c-0.133,0.173-0.3,0.313-0.5,0.42s-0.447,0.16-0.74,0.16h-7.202c-0.293,0-0.543-0.054-0.75-0.16s-0.374-0.247-0.5-0.42
	c-0.127-0.174-0.22-0.367-0.28-0.58c-0.06-0.214-0.09-0.42-0.09-0.62S99.259,17.666,99.319,17.458z M112.509,17.289h-0.68
	c-0.627,0-1.077-0.167-1.35-0.5c-0.273-0.334-0.41-0.714-0.41-1.141c0-0.213,0.03-0.42,0.09-0.62s0.16-0.38,0.3-0.54
	s0.323-0.287,0.55-0.38c0.227-0.094,0.5-0.141,0.82-0.141h0.68v-0.439c0-0.801,0.097-1.478,0.29-2.03
	c0.193-0.554,0.477-1.001,0.85-1.341c0.374-0.34,0.837-0.587,1.391-0.74c0.553-0.153,1.19-0.229,1.91-0.229
	c0.387,0,0.787,0.043,1.2,0.13c0.414,0.087,0.78,0.229,1.101,0.43c0.347,0.214,0.57,0.48,0.67,0.801
	c0.1,0.319,0.104,0.673,0.01,1.06c-0.093,0.307-0.26,0.573-0.5,0.801c-0.24,0.227-0.527,0.34-0.86,0.34c-0.16,0-0.293-0.01-0.4-0.03
	c-0.106-0.02-0.247-0.043-0.42-0.07c-0.12-0.026-0.22-0.043-0.3-0.05s-0.167-0.01-0.26-0.01c-0.2,0-0.35,0.06-0.45,0.18
	s-0.15,0.334-0.15,0.641v0.56h1.14c0.32,0,0.59,0.047,0.81,0.141c0.22,0.093,0.4,0.22,0.54,0.38c0.14,0.16,0.244,0.34,0.31,0.54
	c0.067,0.2,0.1,0.407,0.1,0.62c0,0.427-0.137,0.807-0.41,1.141c-0.273,0.333-0.723,0.5-1.35,0.5h-1.14v8.802h-4.081V17.289z
	 M120.409,15.588c0-0.334,0.057-0.624,0.17-0.87c0.113-0.247,0.263-0.454,0.45-0.62c0.187-0.167,0.4-0.294,0.64-0.381
	c0.24-0.086,0.494-0.13,0.76-0.13c0.387,0,0.75,0.094,1.09,0.28c0.34,0.187,0.597,0.467,0.77,0.84c0.374-0.347,0.787-0.62,1.24-0.82
	c0.454-0.199,0.927-0.3,1.42-0.3c0.147,0,0.304,0.01,0.47,0.03c0.167,0.02,0.323,0.063,0.47,0.13c0.387,0.16,0.677,0.427,0.87,0.8
	c0.193,0.374,0.257,0.794,0.19,1.261c-0.067,0.467-0.264,0.84-0.59,1.12c-0.328,0.28-0.711,0.42-1.151,0.42
	c-0.147,0-0.3-0.003-0.46-0.01c-0.16-0.007-0.313-0.003-0.46,0.01c-0.56,0.04-0.997,0.207-1.31,0.5
	c-0.313,0.294-0.483,0.694-0.51,1.2v7.042h-4.061V15.588z M130.689,9.617c0.413-0.287,0.9-0.43,1.46-0.43s1.047,0.143,1.46,0.43
	c0.414,0.287,0.621,0.757,0.621,1.41c0,0.334-0.057,0.617-0.17,0.851c-0.114,0.233-0.264,0.423-0.451,0.57
	c-0.187,0.146-0.406,0.253-0.66,0.319c-0.253,0.067-0.52,0.101-0.8,0.101s-0.547-0.033-0.8-0.101
	c-0.254-0.066-0.474-0.173-0.66-0.319c-0.188-0.147-0.337-0.337-0.45-0.57c-0.114-0.233-0.171-0.517-0.171-0.851
	C130.068,10.374,130.275,9.904,130.689,9.617z M130.699,14.208c0.406-0.32,0.891-0.479,1.45-0.479s1.044,0.159,1.45,0.479
	s0.61,0.827,0.61,1.521V26.09h-4.121V15.728C130.089,15.035,130.293,14.528,130.699,14.208z M140.13,26.15
	c-0.733-0.187-1.397-0.493-1.991-0.92c-0.593-0.427-1.072-0.997-1.439-1.71c-0.367-0.714-0.551-1.591-0.551-2.631v-1.761
	c0-1.066,0.178-1.953,0.53-2.66c0.354-0.707,0.808-1.273,1.36-1.7c0.554-0.427,1.167-0.73,1.84-0.91
	c0.674-0.181,1.331-0.271,1.971-0.271c0.693,0,1.371,0.084,2.031,0.25c0.66,0.167,1.25,0.483,1.77,0.95
	c0.521,0.467,0.938,1.117,1.251,1.95c0.313,0.834,0.47,1.911,0.47,3.231c0,0.173-0.01,0.38-0.029,0.62
	c-0.021,0.24-0.044,0.446-0.07,0.62h-7.162v0.02c0,0.347,0.074,0.634,0.221,0.86s0.333,0.413,0.56,0.561
	c0.228,0.146,0.474,0.25,0.74,0.31c0.267,0.061,0.521,0.09,0.761,0.09c0.493,0,0.873-0.02,1.14-0.06s0.534-0.106,0.8-0.2
	c0.146-0.054,0.297-0.11,0.451-0.17c0.152-0.061,0.316-0.104,0.49-0.13c0.346-0.04,0.662,0,0.949,0.12s0.497,0.333,0.631,0.64
	c0.213,0.493,0.217,0.943,0.01,1.351c-0.207,0.406-0.551,0.75-1.03,1.03c-0.16,0.093-0.364,0.187-0.61,0.28
	c-0.246,0.093-0.527,0.18-0.84,0.26c-0.313,0.08-0.646,0.144-1,0.189c-0.354,0.047-0.711,0.07-1.07,0.07
	C141.59,26.43,140.863,26.337,140.13,26.15z M141.22,16.918c-0.206,0.06-0.39,0.16-0.55,0.3c-0.16,0.141-0.293,0.32-0.4,0.54
	c-0.106,0.221-0.16,0.497-0.16,0.83h3.381c0.014-0.333-0.023-0.609-0.109-0.83c-0.088-0.22-0.204-0.399-0.351-0.54
	c-0.146-0.14-0.323-0.24-0.53-0.3c-0.207-0.061-0.416-0.09-0.63-0.09C141.644,16.829,141.427,16.858,141.22,16.918z M149.169,15.588
	c0-0.334,0.057-0.624,0.17-0.87c0.113-0.247,0.264-0.454,0.45-0.62c0.187-0.167,0.4-0.294,0.641-0.381
	c0.24-0.086,0.493-0.13,0.76-0.13c0.387,0,0.75,0.094,1.09,0.28s0.598,0.46,0.771,0.82c0.387-0.36,0.837-0.634,1.351-0.82
	s1.037-0.28,1.57-0.28c0.64,0,1.236,0.087,1.79,0.261c0.554,0.173,1.034,0.47,1.44,0.89s0.73,0.983,0.971,1.69
	c0.239,0.707,0.359,1.587,0.359,2.641v7.021h-4.121v-7.262c0-0.333-0.05-0.616-0.149-0.85c-0.101-0.233-0.228-0.424-0.38-0.57
	c-0.154-0.146-0.324-0.25-0.511-0.311c-0.187-0.06-0.366-0.09-0.54-0.09s-0.354,0.03-0.54,0.09c-0.187,0.061-0.36,0.164-0.521,0.311
	s-0.289,0.337-0.39,0.57s-0.149,0.517-0.149,0.85v7.262h-4.062V15.588z M170.511,24.79c-0.387,0.507-0.864,0.907-1.431,1.201
	c-0.566,0.293-1.21,0.439-1.93,0.439c-0.668,0-1.294-0.09-1.881-0.27c-0.587-0.181-1.104-0.483-1.551-0.91
	c-0.446-0.427-0.8-0.994-1.061-1.701c-0.26-0.706-0.39-1.587-0.39-2.641v-1.8c0-1.054,0.13-1.934,0.39-2.641
	c0.261-0.707,0.614-1.273,1.061-1.7c0.447-0.427,0.964-0.73,1.551-0.91c0.587-0.181,1.213-0.271,1.881-0.271
	c0.56,0,1.063,0.084,1.51,0.25c0.447,0.167,0.844,0.397,1.19,0.69v-3.341c0-0.333,0.057-0.623,0.17-0.87s0.263-0.453,0.45-0.62
	c0.187-0.167,0.403-0.293,0.65-0.38c0.246-0.087,0.503-0.13,0.77-0.13c0.268,0,0.521,0.043,0.76,0.13
	c0.24,0.087,0.454,0.213,0.641,0.38c0.188,0.167,0.337,0.373,0.45,0.62s0.17,0.537,0.17,0.87V26.09h-3.181L170.511,24.79z
	 M166.56,22.049c0.113,0.227,0.257,0.413,0.431,0.561c0.173,0.146,0.359,0.25,0.56,0.31c0.2,0.061,0.387,0.09,0.56,0.09
	c0.174,0,0.357-0.029,0.551-0.09c0.193-0.06,0.377-0.156,0.551-0.29c0.173-0.133,0.319-0.31,0.439-0.53
	c0.12-0.22,0.187-0.49,0.2-0.81v-2.561c-0.014-0.32-0.08-0.591-0.2-0.811s-0.267-0.396-0.439-0.53
	c-0.174-0.133-0.357-0.229-0.551-0.29c-0.193-0.06-0.377-0.09-0.551-0.09c-0.173,0-0.359,0.03-0.56,0.09
	c-0.2,0.061-0.387,0.164-0.56,0.311c-0.174,0.146-0.317,0.337-0.431,0.57s-0.17,0.517-0.17,0.85v2.36
	C166.39,21.536,166.446,21.823,166.56,22.049z M176.679,9.667c0.407-0.319,0.89-0.479,1.45-0.479s1.044,0.16,1.451,0.479
	c0.406,0.32,0.609,0.827,0.609,1.521V26.09h-4.121V11.187C176.068,10.494,176.271,9.987,176.679,9.667z M186.959,29.071
	c-1.033,0.587-2.25,0.78-3.65,0.58c-0.293-0.04-0.547-0.123-0.76-0.25s-0.391-0.283-0.53-0.47s-0.237-0.387-0.29-0.601
	c-0.053-0.213-0.066-0.434-0.04-0.66c0.067-0.453,0.264-0.83,0.591-1.13c0.326-0.3,0.789-0.396,1.39-0.29
	c0.413,0.08,0.807,0.06,1.181-0.061c0.373-0.12,0.64-0.333,0.8-0.64V25.53l-4.081-9.082c-0.133-0.293-0.197-0.58-0.189-0.859
	c0.006-0.28,0.063-0.54,0.17-0.78c0.106-0.24,0.256-0.45,0.449-0.631c0.193-0.18,0.424-0.316,0.691-0.409
	c0.252-0.094,0.52-0.147,0.799-0.16c0.281-0.014,0.544,0.023,0.791,0.109c0.246,0.087,0.47,0.228,0.67,0.421s0.359,0.449,0.48,0.77
	l2.301,6.222l2.119-6.222c0.107-0.32,0.261-0.576,0.461-0.77c0.199-0.193,0.424-0.334,0.67-0.421
	c0.246-0.086,0.504-0.123,0.77-0.109c0.268,0.013,0.534,0.066,0.801,0.16c0.254,0.093,0.477,0.229,0.67,0.409
	c0.193,0.181,0.34,0.391,0.44,0.631s0.149,0.5,0.149,0.78c0,0.279-0.06,0.566-0.18,0.859l-4.201,9.622
	C188.816,27.484,187.993,28.484,186.959,29.071z"/>
<path fill="#FFFFFF" d="M45.57,40.628c0.44,0.267,1.061,0.533,1.86,0.8l0.98,0.34c0.587,0.214,1.117,0.48,1.59,0.801
	c0.473,0.319,0.877,0.696,1.21,1.13c0.333,0.434,0.58,0.92,0.74,1.46s0.22,1.131,0.18,1.771c-0.093,1.427-0.67,2.534-1.73,3.321
	c-1.06,0.786-2.504,1.18-4.331,1.18c-0.894,0-1.753-0.097-2.581-0.29c-0.827-0.193-1.514-0.503-2.06-0.93
	c-0.187-0.16-0.347-0.344-0.48-0.551c-0.133-0.206-0.23-0.423-0.29-0.649c-0.06-0.228-0.07-0.464-0.03-0.711
	c0.04-0.246,0.133-0.483,0.28-0.71c0.147-0.227,0.354-0.4,0.621-0.52c0.267-0.12,0.533-0.188,0.8-0.2
	c0.347-0.014,0.624,0.04,0.83,0.16c0.207,0.12,0.404,0.233,0.59,0.34c0.227,0.146,0.52,0.27,0.88,0.37
	c0.36,0.1,0.88,0.149,1.56,0.149c0.56,0,0.994-0.1,1.3-0.3s0.467-0.52,0.48-0.96c0-0.187-0.073-0.367-0.22-0.54
	c-0.147-0.174-0.357-0.334-0.63-0.48s-0.59-0.29-0.95-0.43c-0.36-0.141-0.747-0.277-1.16-0.41c-0.16-0.054-0.33-0.113-0.51-0.18
	c-0.18-0.067-0.33-0.127-0.45-0.181c-0.76-0.32-1.374-0.717-1.841-1.19c-0.466-0.473-0.816-0.986-1.05-1.54s-0.354-1.123-0.36-1.71
	c-0.006-0.587,0.077-1.141,0.25-1.661c0.347-1.08,0.99-1.913,1.931-2.5c0.94-0.587,2.097-0.88,3.471-0.88
	c0.52,0,0.977,0.022,1.37,0.069s0.74,0.107,1.041,0.181c0.3,0.073,0.56,0.159,0.78,0.26c0.22,0.1,0.424,0.196,0.61,0.29
	c0.467,0.253,0.83,0.606,1.09,1.061c0.26,0.453,0.316,0.92,0.17,1.4c-0.133,0.413-0.357,0.706-0.67,0.88
	c-0.313,0.173-0.663,0.26-1.05,0.26c-0.147,0-0.313-0.026-0.5-0.08c-0.187-0.053-0.327-0.113-0.42-0.18
	c-0.24-0.16-0.547-0.3-0.92-0.42c-0.373-0.12-0.86-0.181-1.46-0.181c-0.48,0-0.857,0.097-1.13,0.29s-0.417,0.497-0.43,0.91
	C44.917,40.042,45.13,40.361,45.57,40.628z M60.95,50.25c-0.387,0.359-0.84,0.646-1.36,0.859c-0.521,0.214-1.081,0.32-1.681,0.32
	h-0.44c-0.414,0-0.86-0.063-1.34-0.189c-0.48-0.127-0.923-0.344-1.33-0.65s-0.747-0.721-1.021-1.24
	c-0.273-0.521-0.41-1.174-0.41-1.961c0-0.76,0.133-1.394,0.4-1.9c0.267-0.507,0.624-0.913,1.07-1.22
	c0.446-0.307,0.967-0.527,1.56-0.66c0.593-0.134,1.217-0.2,1.871-0.2h2.06c-0.013-0.293-0.07-0.537-0.17-0.73s-0.233-0.347-0.4-0.46
	c-0.167-0.113-0.36-0.193-0.58-0.24c-0.22-0.046-0.45-0.069-0.69-0.069c-0.227,0-0.447,0.02-0.66,0.06s-0.44,0.094-0.68,0.16
	c-0.16,0.054-0.31,0.113-0.45,0.18c-0.14,0.067-0.304,0.141-0.49,0.221c-0.187,0.093-0.383,0.143-0.59,0.149
	c-0.207,0.007-0.41-0.02-0.61-0.08c-0.2-0.06-0.384-0.156-0.55-0.29c-0.167-0.133-0.297-0.3-0.39-0.5
	c-0.187-0.399-0.213-0.79-0.08-1.17s0.374-0.704,0.72-0.971c0.267-0.199,0.567-0.366,0.9-0.5c0.333-0.133,0.68-0.243,1.04-0.33
	c0.36-0.087,0.724-0.149,1.09-0.189s0.724-0.061,1.07-0.061c0.72,0,1.41,0.077,2.07,0.23s1.24,0.427,1.74,0.82
	c0.5,0.393,0.9,0.937,1.2,1.63c0.3,0.693,0.45,1.58,0.45,2.661v7.161H61.11L60.95,50.25z M58.51,46.349
	c-0.387,0-0.68,0.09-0.88,0.271c-0.2,0.18-0.3,0.43-0.3,0.75c0,0.333,0.1,0.58,0.3,0.74c0.2,0.16,0.473,0.24,0.82,0.24h0.28
	c0.187,0,0.374-0.027,0.56-0.08c0.187-0.054,0.357-0.134,0.51-0.24s0.28-0.24,0.38-0.4s0.15-0.347,0.15-0.56v-0.721H58.51z
	 M66.209,40.588c0-0.334,0.057-0.624,0.17-0.87c0.113-0.247,0.263-0.454,0.45-0.62c0.187-0.167,0.4-0.294,0.64-0.381
	c0.24-0.086,0.493-0.13,0.76-0.13c0.387,0,0.75,0.094,1.09,0.28c0.34,0.187,0.597,0.46,0.771,0.82c0.387-0.36,0.836-0.634,1.35-0.82
	c0.513-0.187,1.037-0.28,1.57-0.28c0.64,0,1.237,0.087,1.791,0.261c0.553,0.173,1.033,0.47,1.44,0.89s0.73,0.983,0.97,1.69
	c0.24,0.707,0.36,1.587,0.36,2.641v7.021H73.45v-7.262c0-0.333-0.05-0.616-0.15-0.85s-0.227-0.424-0.38-0.57
	c-0.154-0.146-0.324-0.25-0.51-0.311c-0.187-0.06-0.367-0.09-0.54-0.09s-0.354,0.03-0.54,0.09c-0.187,0.061-0.36,0.164-0.521,0.311
	c-0.16,0.146-0.29,0.337-0.39,0.57c-0.1,0.233-0.15,0.517-0.15,0.85v7.262h-4.061V40.588z M80.209,34.617
	c0.413-0.287,0.9-0.43,1.46-0.43s1.047,0.143,1.46,0.43s0.62,0.757,0.62,1.41c0,0.334-0.057,0.617-0.17,0.851
	s-0.264,0.423-0.45,0.57c-0.187,0.146-0.407,0.253-0.66,0.319c-0.253,0.067-0.52,0.101-0.8,0.101c-0.28,0-0.546-0.033-0.8-0.101
	c-0.253-0.066-0.474-0.173-0.66-0.319c-0.187-0.147-0.337-0.337-0.45-0.57s-0.17-0.517-0.17-0.851
	C79.589,35.374,79.795,34.904,80.209,34.617z M80.219,39.208c0.407-0.32,0.89-0.479,1.45-0.479s1.044,0.159,1.451,0.479
	s0.61,0.827,0.61,1.521V51.09h-4.121V40.728C79.609,40.035,79.812,39.528,80.219,39.208z M86.589,42.289
	c-0.627,0-1.077-0.167-1.351-0.5c-0.273-0.334-0.41-0.714-0.41-1.141c0-0.2,0.03-0.4,0.09-0.6c0.06-0.2,0.16-0.381,0.3-0.541
	c0.14-0.159,0.324-0.29,0.55-0.39s0.5-0.15,0.82-0.15h0.66v-2.08c0-0.333,0.057-0.627,0.17-0.88c0.113-0.254,0.263-0.46,0.45-0.62
	c0.187-0.16,0.396-0.28,0.63-0.36s0.477-0.12,0.73-0.12c0.253,0,0.497,0.04,0.73,0.12s0.443,0.2,0.63,0.36
	c0.187,0.16,0.337,0.366,0.45,0.62c0.113,0.253,0.17,0.547,0.17,0.88v2.08h1.181c0.32,0,0.59,0.051,0.81,0.15
	c0.22,0.1,0.4,0.23,0.54,0.39c0.14,0.16,0.243,0.341,0.31,0.541c0.067,0.199,0.1,0.399,0.1,0.6c0,0.427-0.137,0.807-0.41,1.141
	c-0.273,0.333-0.724,0.5-1.35,0.5h-1.181v4.961c0,0.307,0.063,0.507,0.19,0.6c0.126,0.094,0.276,0.147,0.45,0.16
	c0.147,0.014,0.28,0.004,0.4-0.029c0.12-0.034,0.28-0.051,0.48-0.051c0.333,0,0.627,0.101,0.88,0.301s0.413,0.467,0.48,0.8
	c0.093,0.413,0.063,0.78-0.09,1.101c-0.154,0.319-0.37,0.573-0.65,0.76c-0.227,0.146-0.513,0.273-0.86,0.38
	c-0.347,0.107-0.693,0.16-1.04,0.16c-0.667,0-1.26-0.073-1.78-0.22s-0.96-0.38-1.32-0.7c-0.36-0.32-0.633-0.74-0.82-1.261
	c-0.187-0.52-0.28-1.16-0.28-1.92v-5.041H86.589z M102.61,50.25c-0.387,0.359-0.84,0.646-1.36,0.859
	c-0.52,0.214-1.08,0.32-1.68,0.32h-0.44c-0.414,0-0.86-0.063-1.34-0.189c-0.48-0.127-0.924-0.344-1.331-0.65s-0.747-0.721-1.02-1.24
	c-0.273-0.521-0.41-1.174-0.41-1.961c0-0.76,0.133-1.394,0.4-1.9c0.267-0.507,0.624-0.913,1.07-1.22s0.967-0.527,1.561-0.66
	c0.593-0.134,1.217-0.2,1.87-0.2h2.061c-0.013-0.293-0.07-0.537-0.17-0.73s-0.233-0.347-0.4-0.46c-0.167-0.113-0.36-0.193-0.58-0.24
	c-0.22-0.046-0.45-0.069-0.69-0.069c-0.227,0-0.447,0.02-0.66,0.06s-0.44,0.094-0.68,0.16c-0.16,0.054-0.31,0.113-0.45,0.18
	c-0.14,0.067-0.303,0.141-0.49,0.221c-0.187,0.093-0.384,0.143-0.59,0.149s-0.41-0.02-0.61-0.08c-0.2-0.06-0.384-0.156-0.55-0.29
	c-0.167-0.133-0.297-0.3-0.39-0.5c-0.187-0.399-0.213-0.79-0.08-1.17s0.374-0.704,0.72-0.971c0.267-0.199,0.567-0.366,0.9-0.5
	c0.333-0.133,0.68-0.243,1.04-0.33s0.724-0.149,1.09-0.189s0.723-0.061,1.07-0.061c0.72,0,1.41,0.077,2.07,0.23
	s1.24,0.427,1.74,0.82c0.5,0.393,0.9,0.937,1.2,1.63c0.3,0.693,0.45,1.58,0.45,2.661v7.161h-3.161L102.61,50.25z M100.169,46.349
	c-0.387,0-0.68,0.09-0.88,0.271c-0.2,0.18-0.3,0.43-0.3,0.75c0,0.333,0.1,0.58,0.3,0.74c0.2,0.16,0.474,0.24,0.82,0.24h0.28
	c0.187,0,0.373-0.027,0.56-0.08c0.187-0.054,0.356-0.134,0.51-0.24c0.153-0.106,0.28-0.24,0.38-0.4s0.15-0.347,0.15-0.56v-0.721
	H100.169z M107.868,40.588c0-0.334,0.057-0.624,0.17-0.87c0.113-0.247,0.263-0.454,0.45-0.62c0.187-0.167,0.4-0.294,0.64-0.381
	c0.24-0.086,0.494-0.13,0.76-0.13c0.387,0,0.75,0.094,1.09,0.28c0.34,0.187,0.597,0.467,0.77,0.84c0.374-0.347,0.787-0.62,1.24-0.82
	c0.454-0.199,0.927-0.3,1.42-0.3c0.147,0,0.303,0.01,0.47,0.03c0.167,0.02,0.323,0.063,0.47,0.13c0.387,0.16,0.677,0.427,0.87,0.8
	c0.193,0.374,0.257,0.794,0.19,1.261s-0.263,0.84-0.59,1.12c-0.327,0.28-0.71,0.42-1.15,0.42c-0.147,0-0.3-0.003-0.46-0.01
	c-0.16-0.007-0.313-0.003-0.46,0.01c-0.56,0.04-0.997,0.207-1.31,0.5c-0.313,0.294-0.483,0.694-0.51,1.2v7.042h-4.061V40.588z
	 M122.14,54.071c-1.034,0.587-2.25,0.78-3.651,0.58c-0.293-0.04-0.547-0.123-0.76-0.25s-0.39-0.283-0.53-0.47
	s-0.237-0.387-0.29-0.601c-0.053-0.213-0.066-0.434-0.04-0.66c0.067-0.453,0.264-0.83,0.59-1.13s0.79-0.396,1.39-0.29
	c0.414,0.08,0.807,0.06,1.18-0.061c0.374-0.12,0.64-0.333,0.8-0.64V50.53l-4.081-9.082c-0.133-0.293-0.196-0.58-0.19-0.859
	c0.007-0.28,0.063-0.54,0.17-0.78c0.107-0.24,0.257-0.45,0.45-0.631c0.193-0.18,0.423-0.316,0.69-0.409
	c0.253-0.094,0.52-0.147,0.8-0.16c0.28-0.014,0.543,0.023,0.791,0.109c0.247,0.087,0.47,0.228,0.67,0.421s0.36,0.449,0.48,0.77
	l2.301,6.222l2.121-6.222c0.106-0.32,0.26-0.576,0.46-0.77c0.2-0.193,0.423-0.334,0.67-0.421c0.247-0.086,0.503-0.123,0.771-0.109
	c0.267,0.013,0.533,0.066,0.8,0.16c0.253,0.093,0.477,0.229,0.67,0.409c0.193,0.181,0.34,0.391,0.44,0.631s0.149,0.5,0.149,0.78
	c0,0.279-0.06,0.566-0.18,0.859l-4.201,9.622C123.997,52.484,123.173,53.484,122.14,54.071z M137.408,50.92
	c-0.399-0.113-0.72-0.297-0.96-0.55c-0.239-0.254-0.409-0.581-0.51-0.98c-0.101-0.4-0.15-0.887-0.15-1.461V36.947
	c0-0.333,0.058-0.626,0.171-0.88c0.113-0.253,0.266-0.467,0.459-0.64c0.193-0.174,0.417-0.304,0.67-0.391
	c0.254-0.087,0.514-0.13,0.781-0.13c0.266,0,0.526,0.043,0.779,0.13c0.254,0.087,0.477,0.217,0.67,0.391
	c0.194,0.173,0.348,0.387,0.461,0.64c0.113,0.254,0.17,0.547,0.17,0.88v10.063c0,0.24,0.04,0.396,0.12,0.471
	c0.08,0.073,0.233,0.109,0.46,0.109h4.441c0.293,0,0.543,0.05,0.75,0.15c0.207,0.1,0.373,0.233,0.5,0.399
	c0.127,0.167,0.22,0.354,0.279,0.561c0.061,0.207,0.091,0.41,0.091,0.61s-0.03,0.406-0.091,0.62c-0.06,0.213-0.156,0.406-0.289,0.58
	c-0.134,0.173-0.301,0.313-0.5,0.42c-0.201,0.106-0.447,0.16-0.74,0.16h-6.062C138.309,51.09,137.809,51.034,137.408,50.92z
	 M155.15,50.25c-0.387,0.359-0.841,0.646-1.361,0.859c-0.52,0.214-1.08,0.32-1.68,0.32h-0.439c-0.414,0-0.861-0.063-1.341-0.189
	c-0.48-0.127-0.924-0.344-1.331-0.65c-0.406-0.307-0.746-0.721-1.02-1.24c-0.273-0.521-0.41-1.174-0.41-1.961
	c0-0.76,0.133-1.394,0.4-1.9c0.267-0.507,0.623-0.913,1.07-1.22c0.446-0.307,0.967-0.527,1.561-0.66
	c0.593-0.134,1.217-0.2,1.869-0.2h2.061c-0.013-0.293-0.069-0.537-0.17-0.73c-0.1-0.193-0.232-0.347-0.4-0.46
	c-0.166-0.113-0.359-0.193-0.58-0.24c-0.219-0.046-0.449-0.069-0.689-0.069c-0.227,0-0.447,0.02-0.66,0.06s-0.439,0.094-0.68,0.16
	c-0.16,0.054-0.311,0.113-0.451,0.18c-0.14,0.067-0.303,0.141-0.489,0.221c-0.187,0.093-0.384,0.143-0.591,0.149
	c-0.206,0.007-0.41-0.02-0.609-0.08c-0.2-0.06-0.384-0.156-0.551-0.29c-0.166-0.133-0.297-0.3-0.39-0.5
	c-0.187-0.399-0.214-0.79-0.08-1.17s0.374-0.704,0.72-0.971c0.268-0.199,0.567-0.366,0.9-0.5c0.334-0.133,0.68-0.243,1.041-0.33
	c0.359-0.087,0.723-0.149,1.09-0.189s0.723-0.061,1.07-0.061c0.72,0,1.41,0.077,2.07,0.23s1.24,0.427,1.74,0.82
	c0.5,0.393,0.9,0.937,1.2,1.63s0.45,1.58,0.45,2.661v7.161h-3.16L155.15,50.25z M152.709,46.349c-0.387,0-0.68,0.09-0.88,0.271
	c-0.2,0.18-0.3,0.43-0.3,0.75c0,0.333,0.1,0.58,0.3,0.74s0.474,0.24,0.82,0.24h0.28c0.187,0,0.373-0.027,0.561-0.08
	c0.186-0.054,0.355-0.134,0.51-0.24c0.153-0.106,0.279-0.24,0.38-0.4s0.149-0.347,0.149-0.56v-0.721H152.709z M160.408,40.588
	c0-0.334,0.057-0.624,0.17-0.87c0.113-0.247,0.264-0.454,0.45-0.62c0.187-0.167,0.4-0.294,0.64-0.381
	c0.24-0.086,0.494-0.13,0.761-0.13c0.387,0,0.75,0.094,1.091,0.28c0.34,0.187,0.596,0.46,0.77,0.82
	c0.387-0.36,0.837-0.634,1.351-0.82c0.513-0.187,1.036-0.28,1.57-0.28c0.64,0,1.237,0.087,1.79,0.261
	c0.554,0.173,1.033,0.47,1.44,0.89s0.729,0.983,0.97,1.69s0.36,1.587,0.36,2.641v7.021h-4.12v-7.262c0-0.333-0.051-0.616-0.15-0.85
	s-0.227-0.424-0.381-0.57c-0.152-0.146-0.322-0.25-0.51-0.311c-0.187-0.06-0.367-0.09-0.54-0.09s-0.353,0.03-0.54,0.09
	c-0.187,0.061-0.359,0.164-0.52,0.311s-0.291,0.337-0.391,0.57s-0.15,0.517-0.15,0.85v7.262h-4.061V40.588z M181.75,49.79
	c-0.387,0.507-0.863,0.907-1.43,1.201c-0.567,0.293-1.211,0.439-1.932,0.439c-0.666,0-1.293-0.09-1.88-0.27
	c-0.587-0.181-1.104-0.483-1.55-0.91c-0.447-0.427-0.801-0.994-1.061-1.701c-0.26-0.706-0.391-1.587-0.391-2.641v-1.8
	c0-1.054,0.131-1.934,0.391-2.641s0.613-1.273,1.061-1.7c0.446-0.427,0.963-0.73,1.55-0.91c0.587-0.181,1.214-0.271,1.88-0.271
	c0.561,0,1.064,0.084,1.511,0.25c0.446,0.167,0.844,0.397,1.19,0.69v-3.341c0-0.333,0.057-0.623,0.17-0.87s0.264-0.453,0.45-0.62
	s0.403-0.293,0.649-0.38c0.248-0.087,0.504-0.13,0.771-0.13c0.266,0,0.52,0.043,0.76,0.13s0.453,0.213,0.64,0.38
	s0.337,0.373,0.45,0.62s0.17,0.537,0.17,0.87V51.09h-3.181L181.75,49.79z M177.799,47.049c0.113,0.227,0.257,0.413,0.43,0.561
	c0.174,0.146,0.361,0.25,0.561,0.31c0.2,0.061,0.387,0.09,0.561,0.09s0.356-0.029,0.55-0.09c0.193-0.06,0.377-0.156,0.55-0.29
	c0.174-0.133,0.32-0.31,0.44-0.53c0.12-0.22,0.187-0.49,0.2-0.81v-2.561c-0.014-0.32-0.08-0.591-0.2-0.811s-0.267-0.396-0.44-0.53
	c-0.173-0.133-0.356-0.229-0.55-0.29c-0.193-0.06-0.376-0.09-0.55-0.09s-0.36,0.03-0.561,0.09c-0.199,0.061-0.387,0.164-0.561,0.311
	c-0.173,0.146-0.316,0.337-0.43,0.57s-0.17,0.517-0.17,0.85v2.36C177.629,46.536,177.686,46.823,177.799,47.049z M188.668,42.289
	h-0.68c-0.627,0-1.077-0.167-1.35-0.5c-0.273-0.334-0.41-0.714-0.41-1.141c0-0.213,0.029-0.42,0.09-0.62
	c0.06-0.2,0.16-0.38,0.3-0.54s0.323-0.287,0.55-0.38c0.227-0.094,0.5-0.141,0.82-0.141h0.68v-0.439c0-0.801,0.098-1.478,0.291-2.03
	c0.193-0.554,0.477-1.001,0.85-1.341s0.837-0.587,1.391-0.74c0.553-0.153,1.189-0.229,1.91-0.229c0.387,0,0.787,0.043,1.2,0.13
	s0.78,0.229,1.101,0.43c0.346,0.214,0.57,0.48,0.67,0.801c0.1,0.319,0.104,0.673,0.01,1.06c-0.094,0.307-0.26,0.573-0.5,0.801
	c-0.24,0.227-0.527,0.34-0.86,0.34c-0.159,0-0.293-0.01-0.399-0.03c-0.107-0.02-0.247-0.043-0.42-0.07
	c-0.121-0.026-0.221-0.043-0.301-0.05s-0.166-0.01-0.26-0.01c-0.2,0-0.35,0.06-0.45,0.18s-0.15,0.334-0.15,0.641v0.56h1.141
	c0.319,0,0.59,0.047,0.81,0.141c0.221,0.093,0.4,0.22,0.541,0.38c0.14,0.16,0.243,0.34,0.31,0.54c0.067,0.2,0.101,0.407,0.101,0.62
	c0,0.427-0.137,0.807-0.41,1.141c-0.273,0.333-0.725,0.5-1.351,0.5h-1.141v8.802h-4.081V42.289z M197.268,34.617
	c0.414-0.287,0.9-0.43,1.461-0.43s1.047,0.143,1.461,0.43c0.412,0.287,0.619,0.757,0.619,1.41c0,0.334-0.057,0.617-0.17,0.851
	s-0.264,0.423-0.449,0.57c-0.188,0.146-0.407,0.253-0.66,0.319c-0.254,0.067-0.521,0.101-0.801,0.101
	c-0.28,0-0.547-0.033-0.801-0.101c-0.253-0.066-0.473-0.173-0.66-0.319c-0.186-0.147-0.336-0.337-0.449-0.57s-0.17-0.517-0.17-0.851
	C196.648,35.374,196.854,34.904,197.268,34.617z M197.278,39.208c0.407-0.32,0.89-0.479,1.45-0.479s1.043,0.159,1.45,0.479
	s0.61,0.827,0.61,1.521V51.09h-4.121V40.728C196.668,40.035,196.871,39.528,197.278,39.208z M203.578,34.667
	c0.406-0.319,0.891-0.479,1.45-0.479s1.044,0.16,1.45,0.479c0.406,0.32,0.61,0.827,0.61,1.521V51.09h-4.121V36.187
	C202.968,35.494,203.172,34.987,203.578,34.667z M209.857,34.667c0.407-0.319,0.891-0.479,1.451-0.479c0.56,0,1.043,0.16,1.45,0.479
	c0.406,0.32,0.61,0.827,0.61,1.521V51.09h-4.121V36.187C209.248,35.494,209.451,34.987,209.857,34.667z"/>
</svg>
