<?xml version="1.0" encoding="utf-8"?>
<!-- Generator: Adobe Illustrator 16.0.0, SVG Export Plug-In . SVG Version: 6.00 Build 0)  -->
<!DOCTYPE svg PUBLIC "-//W3C//DTD SVG 1.1//EN" "http://www.w3.org/Graphics/SVG/1.1/DTD/svg11.dtd">
<svg version="1.1" id="레이어_1" xmlns="http://www.w3.org/2000/svg" xmlns:xlink="http://www.w3.org/1999/xlink" x="0px"
	 y="0px" width="1018px" height="145.252px" viewBox="0 0 1018 145.252" enable-background="new 0 0 1018 145.252"
	 xml:space="preserve">
<g>
	<defs>
		<rect id="SVGID_1_" width="1018" height="145.252"/>
	</defs>
	<clipPath id="SVGID_2_">
		<use xlink:href="#SVGID_1_"  overflow="visible"/>
	</clipPath>
	<path clip-path="url(#SVGID_2_)" fill="#FFFFFF" d="M29,8.25C28.802,8.25,9.25,8.485,9.25,28v96.252
		c0,0.197,0.236,19.75,19.75,19.75h960c0.197,0,19.75-0.236,19.75-19.75V28c0-0.198-0.236-19.75-19.75-19.75H29z"/>
	<path clip-path="url(#SVGID_2_)" fill="#E37476" d="M843.506,40.897v-7.141c0-1.427-0.32-2.522-0.96-3.29
		c-0.64-0.767-1.547-1.149-2.72-1.149c-1.641,0-2.787,0.732-3.44,2.2c-0.253-0.707-0.67-1.25-1.25-1.63
		c-0.58-0.381-1.276-0.57-2.09-0.57c-0.787,0-1.447,0.193-1.98,0.58c-0.532,0.387-0.899,0.92-1.1,1.6v-1.899h-3.12v11.3h3.12v-6.36
		c0-0.88,0.188-1.563,0.56-2.05c0.373-0.487,0.888-0.73,1.54-0.73c1.04,0,1.561,0.641,1.561,1.921v7.22h3.1v-6.36
		c0-0.88,0.19-1.563,0.57-2.05s0.897-0.73,1.55-0.73c1.04,0,1.561,0.641,1.561,1.921v7.22H843.506z M822.367,34.138h-4.221
		c0.066-1.681,0.773-2.521,2.12-2.521C821.6,31.617,822.3,32.457,822.367,34.138 M825.525,35.237c0-1.867-0.436-3.32-1.309-4.36
		c-0.874-1.04-2.191-1.56-3.95-1.56c-1.747,0-3.06,0.52-3.939,1.56s-1.32,2.493-1.32,4.36c0,1.88,0.44,3.34,1.32,4.38
		s2.192,1.561,3.939,1.561c1.413,0,2.557-0.33,3.431-0.99c0.873-0.66,1.402-1.57,1.589-2.73h-3.159
		c-0.188,0.96-0.807,1.44-1.86,1.44c-1.347,0-2.06-0.934-2.14-2.8h7.38C825.52,35.938,825.525,35.65,825.525,35.237 M814.167,32.018
		v-2.42h-2.94v-3.2h-3.12v3.2h-1.64v2.42h1.64v5.52c0,1.293,0.316,2.203,0.95,2.73c0.633,0.526,1.703,0.79,3.21,0.79
		c0.854,0,1.486-0.021,1.9-0.061v-2.34h-1.16c-0.694,0-1.164-0.107-1.41-0.32c-0.247-0.213-0.37-0.64-0.37-1.279v-5.04H814.167z
		 M798.117,40.178c0.833,0.667,1.976,1,3.43,1c1.426,0,2.563-0.333,3.41-1c0.846-0.667,1.27-1.521,1.27-2.561
		c0-1.013-0.283-1.8-0.85-2.36c-0.567-0.56-1.484-0.96-2.75-1.199l-1.12-0.2c-0.534-0.093-0.917-0.233-1.15-0.42
		c-0.233-0.188-0.35-0.447-0.35-0.78s0.113-0.6,0.34-0.8s0.554-0.3,0.98-0.3c0.439,0,0.772,0.103,1,0.31
		c0.226,0.207,0.34,0.478,0.34,0.811v0.22h3.1v-0.2c0-1.013-0.39-1.83-1.17-2.45s-1.87-0.93-3.27-0.93
		c-1.374,0-2.46,0.32-3.261,0.96c-0.8,0.64-1.199,1.473-1.199,2.5c0,0.96,0.303,1.72,0.91,2.28c0.605,0.56,1.522,0.953,2.75,1.18
		l1.1,0.2c0.56,0.093,0.953,0.24,1.18,0.439c0.227,0.2,0.34,0.487,0.34,0.86c0,0.36-0.144,0.65-0.43,0.87
		c-0.287,0.22-0.67,0.33-1.15,0.33c-0.493,0-0.884-0.11-1.17-0.33c-0.287-0.22-0.43-0.518-0.43-0.891v-0.3h-3.1v0.2
		C796.867,38.657,797.283,39.511,798.117,40.178 M788.287,43.157c-0.24,0.173-0.54,0.26-0.9,0.26h-0.84v2.36
		c0.24,0.027,0.68,0.04,1.32,0.04c1.105,0,1.942-0.23,2.51-0.69c0.566-0.46,1.083-1.362,1.55-2.71l4.561-12.819h-3.2l-2.44,7.68
		l-2.5-7.68h-3.2l4.2,11.34l-0.46,1.26C788.727,42.664,788.527,42.984,788.287,43.157 M780.587,31.617l-1.7-0.34
		c-0.773-0.16-1.334-0.394-1.68-0.7c-0.348-0.307-0.521-0.732-0.521-1.28c0-0.56,0.187-1.003,0.561-1.33
		c0.373-0.326,0.899-0.489,1.58-0.489c0.68,0,1.206,0.167,1.58,0.5c0.373,0.333,0.56,0.772,0.56,1.319v0.24h3.28v-0.24
		c0-1.267-0.48-2.333-1.44-3.199c-0.96-0.867-2.287-1.301-3.979-1.301c-1.694,0-3.021,0.434-3.98,1.301
		c-0.96,0.866-1.439,1.96-1.439,3.279c0,2.521,1.426,4.061,4.279,4.62l1.7,0.34c1.44,0.293,2.16,1,2.16,2.12
		c0,0.613-0.214,1.11-0.64,1.49c-0.428,0.38-1.015,0.57-1.761,0.57s-1.337-0.19-1.77-0.57c-0.434-0.38-0.65-0.877-0.65-1.49v-0.34
		h-3.279v0.3c0,1.413,0.506,2.561,1.52,3.44c1.013,0.88,2.406,1.32,4.18,1.32c1.786,0,3.184-0.443,4.19-1.33
		c1.006-0.888,1.51-2.051,1.51-3.49C784.847,33.771,783.427,32.19,780.587,31.617 M766.927,32.018v-2.42h-2.939v-3.2h-3.12v3.2
		h-1.641v2.42h1.641v5.52c0,1.293,0.316,2.203,0.949,2.73c0.634,0.526,1.703,0.79,3.211,0.79c0.853,0,1.486-0.021,1.899-0.061v-2.34
		h-1.16c-0.692,0-1.163-0.107-1.41-0.32s-0.369-0.64-0.369-1.279v-5.04H766.927z M757.427,30.447c-0.64-0.753-1.567-1.13-2.78-1.13
		c-0.8,0-1.477,0.193-2.029,0.58c-0.554,0.387-0.931,0.913-1.13,1.58v-1.88h-3.141v11.3h3.141v-6.38c0-0.88,0.196-1.563,0.59-2.051
		c0.393-0.486,0.923-0.729,1.59-0.729c1.067,0,1.6,0.687,1.6,2.06v7.101h3.12v-7.16C758.387,32.297,758.066,31.2,757.427,30.447
		 M743.867,34.138h-4.221c0.067-1.681,0.773-2.521,2.12-2.521C743.1,31.617,743.8,32.457,743.867,34.138 M747.027,35.237
		c0-1.867-0.438-3.32-1.311-4.36s-2.189-1.56-3.95-1.56c-1.747,0-3.06,0.52-3.939,1.56s-1.32,2.493-1.32,4.36
		c0,1.88,0.44,3.34,1.32,4.38s2.192,1.561,3.939,1.561c1.413,0,2.558-0.33,3.431-0.99s1.402-1.57,1.59-2.73h-3.16
		c-0.188,0.96-0.807,1.44-1.86,1.44c-1.347,0-2.06-0.934-2.14-2.8h7.38C747.02,35.938,747.027,35.65,747.027,35.237 M735.227,40.897
		v-7.141c0-1.427-0.319-2.522-0.96-3.29c-0.64-0.767-1.546-1.149-2.72-1.149c-1.64,0-2.786,0.732-3.44,2.2
		c-0.253-0.707-0.67-1.25-1.25-1.63c-0.579-0.381-1.275-0.57-2.09-0.57c-0.786,0-1.445,0.193-1.979,0.58
		c-0.533,0.387-0.9,0.92-1.101,1.6v-1.899h-3.12v11.3h3.12v-6.36c0-0.88,0.188-1.563,0.561-2.05c0.374-0.487,0.887-0.73,1.54-0.73
		c1.041,0,1.561,0.641,1.561,1.921v7.22h3.101v-6.36c0-0.88,0.188-1.563,0.568-2.05s0.897-0.73,1.55-0.73
		c1.04,0,1.561,0.641,1.561,1.921v7.22H735.227z M714.088,34.138h-4.22c0.065-1.681,0.772-2.521,2.12-2.521
		C713.321,31.617,714.021,32.457,714.088,34.138 M717.248,35.237c0-1.867-0.438-3.32-1.311-4.36c-0.874-1.04-2.189-1.56-3.949-1.56
		c-1.747,0-3.061,0.52-3.94,1.56s-1.32,2.493-1.32,4.36c0,1.88,0.44,3.34,1.32,4.38s2.193,1.561,3.94,1.561
		c1.412,0,2.556-0.33,3.43-0.99c0.873-0.66,1.403-1.57,1.59-2.73h-3.16c-0.187,0.96-0.807,1.44-1.859,1.44
		c-1.348,0-2.061-0.934-2.141-2.8h7.38C717.241,35.938,717.248,35.65,717.248,35.237 M701.808,37.907
		c-0.334,0.567-0.88,0.85-1.64,0.85c-0.774,0-1.327-0.282-1.66-0.85c-0.334-0.567-0.5-1.457-0.5-2.67c0-1.2,0.166-2.083,0.5-2.65
		c0.333-0.566,0.886-0.85,1.66-0.85c0.76,0,1.306,0.283,1.64,0.85c0.333,0.567,0.5,1.45,0.5,2.65
		C702.308,36.45,702.141,37.34,701.808,37.907 M700.428,43.938c-1.094,0-1.693-0.467-1.8-1.4h-3.14
		c0.146,1.133,0.643,2.018,1.489,2.65s1.99,0.95,3.431,0.95c1.652,0,2.902-0.44,3.75-1.32c0.846-0.88,1.27-2.033,1.27-3.46v-11.76
		h-3.12v1.739c-0.2-0.612-0.573-1.103-1.12-1.47s-1.207-0.55-1.979-0.55c-1.36,0-2.42,0.497-3.18,1.49
		c-0.761,0.992-1.141,2.47-1.141,4.43c0,1.973,0.38,3.457,1.141,4.45c0.76,0.993,1.819,1.49,3.18,1.49
		c0.772,0,1.433-0.184,1.979-0.551c0.547-0.366,0.92-0.856,1.12-1.47v2.44C702.308,43.157,701.681,43.938,700.428,43.938
		 M686.488,37.598c0-0.987,0.652-1.48,1.96-1.48c1.319,0,1.979,0.493,1.979,1.48c0,0.973-0.66,1.46-1.979,1.46
		C687.141,39.058,686.488,38.57,686.488,37.598 M690.628,40.897h3.18c-0.2-0.427-0.3-0.967-0.3-1.62v-5.72
		c0-1.293-0.414-2.323-1.24-3.091c-0.827-0.767-2.026-1.149-3.6-1.149c-1.48,0-2.63,0.333-3.45,1s-1.277,1.58-1.37,2.74h3.12
		c0.106-0.907,0.673-1.36,1.7-1.36c1.16,0,1.74,0.6,1.74,1.8v2.061c-0.2-0.493-0.58-0.877-1.141-1.15
		c-0.56-0.273-1.207-0.41-1.939-0.41c-1.214,0-2.178,0.32-2.891,0.96c-0.714,0.641-1.069,1.521-1.069,2.641
		c0,1.106,0.359,1.979,1.08,2.619c0.72,0.641,1.68,0.961,2.88,0.961c0.786,0,1.453-0.147,2-0.44c0.546-0.293,0.906-0.673,1.08-1.14
		C690.434,40.17,690.508,40.604,690.628,40.897 M681.168,30.447c-0.64-0.753-1.567-1.13-2.78-1.13c-0.8,0-1.477,0.193-2.03,0.58
		c-0.553,0.387-0.93,0.913-1.13,1.58v-1.88h-3.14v11.3h3.14v-6.38c0-0.88,0.197-1.563,0.591-2.051
		c0.393-0.486,0.923-0.729,1.59-0.729c1.065,0,1.6,0.687,1.6,2.06v7.101h3.12v-7.16C682.128,32.297,681.808,31.2,681.168,30.447
		 M663.388,37.598c0-0.987,0.653-1.48,1.96-1.48c1.32,0,1.98,0.493,1.98,1.48c0,0.973-0.66,1.46-1.98,1.46
		C664.041,39.058,663.388,38.57,663.388,37.598 M667.528,40.897h3.18c-0.2-0.427-0.3-0.967-0.3-1.62v-5.72
		c0-1.293-0.413-2.323-1.24-3.091c-0.827-0.767-2.027-1.149-3.6-1.149c-1.48,0-2.631,0.333-3.45,1c-0.82,0.667-1.277,1.58-1.37,2.74
		h3.12c0.106-0.907,0.673-1.36,1.7-1.36c1.159,0,1.739,0.6,1.739,1.8v2.061c-0.2-0.493-0.58-0.877-1.14-1.15
		c-0.561-0.273-1.207-0.41-1.94-0.41c-1.213,0-2.177,0.32-2.89,0.96c-0.713,0.641-1.07,1.521-1.07,2.641
		c0,1.106,0.36,1.979,1.08,2.619c0.721,0.641,1.681,0.961,2.88,0.961c0.787,0,1.453-0.147,2-0.44s0.907-0.673,1.08-1.14
		C667.335,40.17,667.408,40.604,667.528,40.897 M655.628,31.678v9.22h3.2v-15.82h-3.34l-4.74,12.4l-4.74-12.4h-3.34v15.82h3.2v-9.22
		l3.52,9.22h2.72L655.628,31.678z M631.168,29.867c-0.547-0.367-1.206-0.55-1.98-0.55c-1.359,0-2.42,0.497-3.18,1.49
		c-0.76,0.992-1.14,2.47-1.14,4.43c0,1.973,0.38,3.457,1.14,4.45s1.82,1.49,3.18,1.49c0.774,0,1.434-0.184,1.98-0.551
		c0.547-0.366,0.92-0.856,1.12-1.47v1.74h3.1v-15.82h-3.1v6.26C632.088,30.725,631.715,30.234,631.168,29.867 M631.788,37.907
		c-0.333,0.567-0.888,0.85-1.66,0.85c-0.773,0-1.327-0.282-1.66-0.85s-0.5-1.457-0.5-2.67c0-1.188,0.17-2.063,0.51-2.63
		c0.341-0.567,0.891-0.851,1.65-0.851c0.772,0,1.327,0.28,1.66,0.841c0.333,0.56,0.5,1.439,0.5,2.64
		C632.288,36.45,632.121,37.34,631.788,37.907 M622.628,30.447c-0.64-0.753-1.567-1.13-2.78-1.13c-0.8,0-1.476,0.193-2.029,0.58
		s-0.931,0.913-1.131,1.58v-1.88h-3.14v11.3h3.14v-6.38c0-0.88,0.197-1.563,0.591-2.051c0.393-0.486,0.923-0.729,1.59-0.729
		c1.066,0,1.6,0.687,1.6,2.06v7.101h3.12v-7.16C623.588,32.297,623.268,31.2,622.628,30.447 M604.848,37.598
		c0-0.987,0.654-1.48,1.96-1.48c1.321,0,1.981,0.493,1.981,1.48c0,0.973-0.66,1.46-1.981,1.46
		C605.502,39.058,604.848,38.57,604.848,37.598 M608.988,40.897h3.181c-0.201-0.427-0.301-0.967-0.301-1.62v-5.72
		c0-1.293-0.413-2.323-1.239-3.091c-0.827-0.767-2.027-1.149-3.6-1.149c-1.48,0-2.631,0.333-3.451,1
		c-0.819,0.667-1.276,1.58-1.37,2.74h3.12c0.106-0.907,0.674-1.36,1.701-1.36c1.158,0,1.739,0.6,1.739,1.8v2.061
		c-0.2-0.493-0.581-0.877-1.14-1.15c-0.561-0.273-1.207-0.41-1.941-0.41c-1.213,0-2.176,0.32-2.889,0.96
		c-0.714,0.641-1.071,1.521-1.071,2.641c0,1.106,0.36,1.979,1.08,2.619c0.722,0.641,1.681,0.961,2.88,0.961
		c0.787,0,1.454-0.147,2-0.44c0.547-0.293,0.907-0.673,1.081-1.14C608.795,40.17,608.868,40.604,608.988,40.897 M594.049,30.447
		c-0.64-0.753-1.567-1.13-2.78-1.13c-0.8,0-1.477,0.193-2.029,0.58c-0.555,0.387-0.931,0.913-1.13,1.58v-1.88h-3.141v11.3h3.141
		v-6.38c0-0.88,0.195-1.563,0.59-2.051c0.393-0.486,0.923-0.729,1.59-0.729c1.065,0,1.6,0.687,1.6,2.06v7.101h3.12v-7.16
		C595.009,32.297,594.688,31.2,594.049,30.447 M580.049,37.907c-0.333,0.567-0.88,0.85-1.64,0.85c-0.773,0-1.327-0.282-1.66-0.85
		s-0.5-1.457-0.5-2.67c0-1.2,0.167-2.083,0.5-2.65c0.333-0.566,0.887-0.85,1.66-0.85c0.76,0,1.307,0.283,1.64,0.85
		c0.333,0.567,0.5,1.45,0.5,2.65C580.549,36.45,580.382,37.34,580.049,37.907 M582.349,30.877c-0.88-1.04-2.192-1.56-3.939-1.56
		c-1.761,0-3.08,0.52-3.96,1.56c-0.881,1.04-1.32,2.493-1.32,4.36c0,1.88,0.439,3.34,1.32,4.38c0.88,1.04,2.199,1.561,3.96,1.561
		c1.747,0,3.06-0.521,3.939-1.561s1.32-2.5,1.32-4.38C583.669,33.37,583.229,31.917,582.349,30.877 M571.749,29.598h-3.12v11.3h3.12
		V29.598z M571.749,25.077h-3.12v2.72h3.12V25.077z M567.369,32.018v-2.42h-2.94v-3.2h-3.12v3.2h-1.64v2.42h1.64v5.52
		c0,1.293,0.317,2.203,0.95,2.73c0.634,0.526,1.703,0.79,3.21,0.79c0.854,0,1.487-0.021,1.9-0.061v-2.34h-1.16
		c-0.693,0-1.163-0.107-1.41-0.32s-0.37-0.64-0.37-1.279v-5.04H567.369z M550.169,39.617c0.88,1.04,2.2,1.561,3.96,1.561
		c1.52,0,2.727-0.37,3.62-1.11c0.893-0.74,1.387-1.771,1.479-3.09h-3.1c-0.107,1.187-0.773,1.779-2,1.779
		c-0.773,0-1.327-0.282-1.66-0.85s-0.5-1.457-0.5-2.67c0-1.2,0.167-2.083,0.5-2.65c0.333-0.566,0.887-0.85,1.66-0.85
		c1.227,0,1.893,0.593,2,1.78h3.1c-0.093-1.32-0.587-2.351-1.479-3.09c-0.894-0.74-2.101-1.11-3.62-1.11
		c-1.76,0-3.08,0.52-3.96,1.56s-1.32,2.493-1.32,4.36C548.849,37.117,549.289,38.577,550.169,39.617 M544.67,34.138h-4.22
		c0.065-1.681,0.772-2.521,2.12-2.521C543.903,31.617,544.603,32.457,544.67,34.138 M547.83,35.237c0-1.867-0.438-3.32-1.311-4.36
		c-0.874-1.04-2.189-1.56-3.949-1.56c-1.747,0-3.061,0.52-3.94,1.56s-1.32,2.493-1.32,4.36c0,1.88,0.44,3.34,1.32,4.38
		s2.193,1.561,3.94,1.561c1.412,0,2.556-0.33,3.43-0.99c0.873-0.66,1.403-1.57,1.59-2.73h-3.16c-0.187,0.96-0.807,1.44-1.859,1.44
		c-1.348,0-2.061-0.934-2.141-2.8h7.38C547.823,35.938,547.83,35.65,547.83,35.237 M530,40.638c0.54,0.359,1.196,0.54,1.97,0.54
		c1.373,0,2.437-0.497,3.19-1.49c0.753-0.993,1.13-2.478,1.13-4.45s-0.377-3.453-1.13-4.44c-0.754-0.986-1.817-1.479-3.19-1.479
		c-0.773,0-1.43,0.18-1.97,0.54c-0.54,0.359-0.91,0.853-1.11,1.479v-1.739h-3.12v16.22h3.12v-6.66
		C529.09,39.784,529.46,40.277,530,40.638 M529.39,32.598c0.333-0.561,0.88-0.841,1.641-0.841c0.772,0,1.325,0.28,1.659,0.841
		c0.333,0.56,0.5,1.439,0.5,2.64c0,1.213-0.167,2.103-0.5,2.67c-0.334,0.567-0.887,0.85-1.659,0.85c-0.761,0-1.308-0.282-1.641-0.85
		c-0.334-0.567-0.5-1.457-0.5-2.67C528.89,34.037,529.056,33.157,529.39,32.598 M516.42,40.178c0.833,0.667,1.976,1,3.43,1
		c1.426,0,2.563-0.333,3.41-1c0.846-0.667,1.271-1.521,1.271-2.561c0-1.013-0.284-1.8-0.851-2.36c-0.566-0.56-1.483-0.96-2.75-1.199
		l-1.12-0.2c-0.534-0.093-0.917-0.233-1.149-0.42c-0.234-0.188-0.351-0.447-0.351-0.78s0.113-0.6,0.34-0.8s0.554-0.3,0.98-0.3
		c0.44,0,0.773,0.103,1,0.31c0.226,0.207,0.34,0.478,0.34,0.811v0.22h3.101v-0.2c0-1.013-0.391-1.83-1.171-2.45
		c-0.779-0.62-1.869-0.93-3.27-0.93c-1.374,0-2.46,0.32-3.26,0.96s-1.2,1.473-1.2,2.5c0,0.96,0.303,1.72,0.91,2.28
		c0.605,0.56,1.522,0.953,2.75,1.18l1.1,0.2c0.561,0.093,0.953,0.24,1.18,0.439c0.227,0.2,0.341,0.487,0.341,0.86
		c0,0.36-0.145,0.65-0.431,0.87c-0.287,0.22-0.67,0.33-1.149,0.33c-0.494,0-0.884-0.11-1.17-0.33
		c-0.287-0.22-0.431-0.518-0.431-0.891v-0.3h-3.1v0.2C515.17,38.657,515.586,39.511,516.42,40.178 M512.91,30.447
		c-0.641-0.753-1.567-1.13-2.78-1.13c-0.8,0-1.477,0.193-2.03,0.58s-0.93,0.913-1.13,1.58v-1.88h-3.14v11.3h3.14v-6.38
		c0-0.88,0.196-1.563,0.59-2.051c0.394-0.486,0.923-0.729,1.59-0.729c1.066,0,1.601,0.687,1.601,2.06v7.101h3.12v-7.16
		C513.87,32.297,513.55,31.2,512.91,30.447 M498.79,40.897h3.28v-15.82h-3.28V40.897z M487.91,37.907
		c-0.333,0.567-0.88,0.85-1.641,0.85c-0.772,0-1.326-0.282-1.659-0.85s-0.5-1.457-0.5-2.67c0-1.2,0.167-2.083,0.5-2.65
		c0.333-0.566,0.887-0.85,1.659-0.85c0.761,0,1.308,0.283,1.641,0.85c0.333,0.567,0.5,1.45,0.5,2.65
		C488.41,36.45,488.243,37.34,487.91,37.907 M486.53,43.938c-1.094,0-1.693-0.467-1.801-1.4h-3.14
		c0.147,1.133,0.643,2.018,1.49,2.65c0.847,0.633,1.99,0.95,3.43,0.95c1.653,0,2.903-0.44,3.75-1.32s1.271-2.033,1.271-3.46v-11.76
		h-3.12v1.739c-0.2-0.612-0.573-1.103-1.12-1.47s-1.207-0.55-1.98-0.55c-1.359,0-2.42,0.497-3.18,1.49
		c-0.76,0.992-1.14,2.47-1.14,4.43c0,1.973,0.38,3.457,1.14,4.45s1.82,1.49,3.18,1.49c0.773,0,1.434-0.184,1.98-0.551
		c0.547-0.366,0.92-0.856,1.12-1.47v2.44C488.41,43.157,487.783,43.938,486.53,43.938 M478.75,30.447
		c-0.64-0.753-1.567-1.13-2.78-1.13c-0.8,0-1.477,0.193-2.03,0.58c-0.553,0.387-0.93,0.913-1.13,1.58v-1.88h-3.14v11.3h3.14v-6.38
		c0-0.88,0.197-1.563,0.59-2.051c0.394-0.486,0.924-0.729,1.591-0.729c1.066,0,1.6,0.687,1.6,2.06v7.101h3.12v-7.16
		C479.71,32.297,479.39,31.2,478.75,30.447 M467.99,29.598h-3.12v11.3h3.12V29.598z M467.99,25.077h-3.12v2.72h3.12V25.077z
		 M463.95,29.598h-3.2l-2.48,8.02l-2.46-8.02h-3.199l3.979,11.3h3.36L463.95,29.598z M451.671,29.598h-3.12v11.3h3.12V29.598z
		 M451.671,25.077h-3.12v2.72h3.12V25.077z M443.991,34.138h-4.221c0.066-1.681,0.773-2.521,2.12-2.521
		C443.224,31.617,443.924,32.457,443.991,34.138 M447.15,35.237c0-1.867-0.437-3.32-1.31-4.36c-0.874-1.04-2.19-1.56-3.95-1.56
		c-1.747,0-3.06,0.52-3.939,1.56s-1.32,2.493-1.32,4.36c0,1.88,0.44,3.34,1.32,4.38s2.192,1.561,3.939,1.561
		c1.413,0,2.557-0.33,3.431-0.99c0.873-0.66,1.402-1.57,1.59-2.73h-3.16c-0.188,0.96-0.807,1.44-1.86,1.44
		c-1.347,0-2.06-0.934-2.14-2.8h7.38C447.144,35.938,447.15,35.65,447.15,35.237 M426.751,39.617c0.88,1.04,2.2,1.561,3.96,1.561
		c1.52,0,2.726-0.37,3.62-1.11c0.893-0.74,1.386-1.771,1.479-3.09h-3.1c-0.107,1.187-0.774,1.779-2,1.779
		c-0.774,0-1.327-0.282-1.66-0.85c-0.334-0.567-0.5-1.457-0.5-2.67c0-1.2,0.166-2.083,0.5-2.65c0.333-0.566,0.886-0.85,1.66-0.85
		c1.226,0,1.893,0.593,2,1.78h3.1c-0.094-1.32-0.587-2.351-1.479-3.09c-0.895-0.74-2.101-1.11-3.62-1.11
		c-1.76,0-3.08,0.52-3.96,1.56s-1.32,2.493-1.32,4.36C425.431,37.117,425.871,38.577,426.751,39.617 M421.251,34.138h-4.22
		c0.066-1.681,0.772-2.521,2.12-2.521C420.484,31.617,421.184,32.457,421.251,34.138 M424.411,35.237c0-1.867-0.438-3.32-1.311-4.36
		s-2.189-1.56-3.949-1.56c-1.747,0-3.061,0.52-3.94,1.56s-1.32,2.493-1.32,4.36c0,1.88,0.44,3.34,1.32,4.38s2.193,1.561,3.94,1.561
		c1.412,0,2.557-0.33,3.43-0.99s1.403-1.57,1.59-2.73h-3.16c-0.187,0.96-0.807,1.44-1.859,1.44c-1.348,0-2.061-0.934-2.141-2.8h7.38
		C424.404,35.938,424.411,35.65,424.411,35.237 M404.351,27.817h2.62c1.587,0,2.38,0.787,2.38,2.36c0,0.84-0.199,1.442-0.6,1.81
		s-0.993,0.55-1.78,0.55h-2.62V27.817z M409.511,40.897h3.32c-0.16-0.36-0.26-0.84-0.3-1.44l-0.141-2.2
		c-0.066-1.053-0.293-1.847-0.68-2.38c-0.387-0.532-1.007-0.859-1.86-0.979c1.88-0.507,2.82-1.833,2.82-3.98
		c0-1.533-0.44-2.723-1.32-3.569c-0.88-0.848-2.146-1.271-3.8-1.271h-6.479v15.82h3.279v-5.62h2.36c0.84,0,1.44,0.167,1.8,0.5
		c0.36,0.333,0.567,0.9,0.62,1.7l0.12,2C409.304,40.117,409.391,40.59,409.511,40.897 M389.571,29.867
		c-0.548-0.367-1.207-0.55-1.98-0.55c-1.36,0-2.42,0.497-3.18,1.49c-0.76,0.992-1.141,2.47-1.141,4.43
		c0,1.973,0.381,3.457,1.141,4.45s1.819,1.49,3.18,1.49c0.773,0,1.433-0.184,1.98-0.551c0.547-0.366,0.92-0.856,1.119-1.47v1.74
		h3.101v-15.82h-3.101v6.26C390.491,30.725,390.118,30.234,389.571,29.867 M390.19,37.907c-0.333,0.567-0.887,0.85-1.659,0.85
		c-0.773,0-1.327-0.282-1.66-0.85s-0.5-1.457-0.5-2.67c0-1.188,0.17-2.063,0.51-2.63c0.34-0.567,0.89-0.851,1.65-0.851
		c0.772,0,1.326,0.28,1.659,0.841c0.333,0.56,0.5,1.439,0.5,2.64C390.69,36.45,390.523,37.34,390.19,37.907 M379.092,34.138h-4.22
		c0.065-1.681,0.772-2.521,2.12-2.521C378.325,31.617,379.025,32.457,379.092,34.138 M382.252,35.237c0-1.867-0.438-3.32-1.311-4.36
		s-2.189-1.56-3.949-1.56c-1.747,0-3.061,0.52-3.94,1.56s-1.32,2.493-1.32,4.36c0,1.88,0.44,3.34,1.32,4.38s2.193,1.561,3.94,1.561
		c1.413,0,2.556-0.33,3.43-0.99c0.873-0.66,1.403-1.57,1.59-2.73h-3.16c-0.187,0.96-0.807,1.44-1.859,1.44
		c-1.348,0-2.061-0.934-2.141-2.8h7.38C382.245,35.938,382.252,35.65,382.252,35.237 M370.892,32.018v-2.42h-2.939v-3.2h-3.12v3.2
		h-1.641v2.42h1.641v5.52c0,1.293,0.315,2.203,0.95,2.73c0.633,0.526,1.703,0.79,3.21,0.79c0.853,0,1.485-0.021,1.899-0.061v-2.34
		h-1.16c-0.693,0-1.163-0.107-1.409-0.32c-0.247-0.213-0.37-0.64-0.37-1.279v-5.04H370.892z M355.292,37.598
		c0-0.987,0.653-1.48,1.96-1.48c1.32,0,1.979,0.493,1.979,1.48c0,0.973-0.659,1.46-1.979,1.46
		C355.945,39.058,355.292,38.57,355.292,37.598 M359.432,40.897h3.181c-0.2-0.427-0.301-0.967-0.301-1.62v-5.72
		c0-1.293-0.414-2.323-1.239-3.091c-0.827-0.767-2.027-1.149-3.601-1.149c-1.479,0-2.63,0.333-3.45,1
		c-0.819,0.667-1.276,1.58-1.369,2.74h3.119c0.106-0.907,0.674-1.36,1.7-1.36c1.16,0,1.74,0.6,1.74,1.8v2.061
		c-0.2-0.493-0.58-0.877-1.14-1.15c-0.561-0.273-1.207-0.41-1.94-0.41c-1.214,0-2.177,0.32-2.89,0.96
		c-0.714,0.641-1.07,1.521-1.07,2.641c0,1.106,0.36,1.979,1.08,2.619c0.72,0.641,1.68,0.961,2.88,0.961c0.786,0,1.453-0.147,2-0.44
		c0.546-0.293,0.906-0.673,1.08-1.14C359.238,40.17,359.312,40.604,359.432,40.897 M351.712,31.938l0.04-2.521
		c-0.24-0.066-0.534-0.1-0.88-0.1c-1.614,0-2.594,0.793-2.94,2.38v-2.1h-3.14v11.3h3.14v-5.641c0-1.093,0.25-1.927,0.75-2.5
		c0.5-0.572,1.203-0.859,2.11-0.859C351.165,31.897,351.472,31.91,351.712,31.938 M339.572,37.907
		c-0.334,0.567-0.881,0.85-1.641,0.85c-0.773,0-1.327-0.282-1.66-0.85c-0.334-0.567-0.5-1.457-0.5-2.67c0-1.2,0.166-2.083,0.5-2.65
		c0.333-0.566,0.887-0.85,1.66-0.85c0.76,0,1.307,0.283,1.641,0.85c0.333,0.567,0.5,1.45,0.5,2.65
		C340.072,36.45,339.905,37.34,339.572,37.907 M338.191,43.938c-1.094,0-1.693-0.467-1.8-1.4h-3.14
		c0.146,1.133,0.643,2.018,1.49,2.65c0.846,0.633,1.989,0.95,3.43,0.95c1.653,0,2.903-0.44,3.75-1.32
		c0.846-0.88,1.27-2.033,1.27-3.46v-11.76h-3.119v1.739c-0.2-0.612-0.574-1.103-1.12-1.47c-0.547-0.367-1.207-0.55-1.98-0.55
		c-1.359,0-2.42,0.497-3.18,1.49c-0.76,0.992-1.14,2.47-1.14,4.43c0,1.973,0.38,3.457,1.14,4.45s1.82,1.49,3.18,1.49
		c0.773,0,1.434-0.184,1.98-0.551c0.546-0.366,0.92-0.856,1.12-1.47v2.44C340.072,43.157,339.445,43.938,338.191,43.938
		 M328.472,34.138h-4.22c0.067-1.681,0.773-2.521,2.12-2.521C327.705,31.617,328.405,32.457,328.472,34.138 M331.632,35.237
		c0-1.867-0.437-3.32-1.31-4.36s-2.19-1.56-3.95-1.56c-1.747,0-3.061,0.52-3.94,1.56s-1.319,2.493-1.319,4.36
		c0,1.88,0.439,3.34,1.319,4.38s2.193,1.561,3.94,1.561c1.413,0,2.557-0.33,3.43-0.99s1.403-1.57,1.59-2.73h-3.16
		c-0.187,0.96-0.807,1.44-1.859,1.44c-1.347,0-2.061-0.934-2.141-2.8h7.381C331.625,35.938,331.632,35.65,331.632,35.237
		 M320.271,32.018v-2.42h-2.939v-3.2h-3.12v3.2h-1.64v2.42h1.64v5.52c0,1.293,0.317,2.203,0.95,2.73
		c0.633,0.526,1.703,0.79,3.21,0.79c0.853,0,1.487-0.021,1.899-0.061v-2.34h-1.159c-0.693,0-1.163-0.107-1.41-0.32
		s-0.37-0.64-0.37-1.279v-5.04H320.271z M310.771,30.447c-0.64-0.753-1.566-1.13-2.779-1.13c-0.801,0-1.478,0.193-2.03,0.58
		s-0.93,0.913-1.13,1.58v-1.88h-3.141v11.3h3.141v-6.38c0-0.88,0.197-1.563,0.59-2.051c0.393-0.486,0.923-0.729,1.59-0.729
		c1.067,0,1.601,0.687,1.601,2.06v7.101h3.119v-7.16C311.731,32.297,311.412,31.2,310.771,30.447 M296.652,40.897h3.28v-15.82h-3.28
		V40.897z M290.073,25.037c-0.414-0.08-1.014-0.12-1.801-0.12c-1.44,0-2.476,0.273-3.11,0.82c-0.633,0.547-0.95,1.44-0.95,2.68
		v1.181h-1.639v2.42h1.639v8.88h3.1v-8.88h2.761v-2.42h-2.761v-0.98c0-0.467,0.111-0.797,0.331-0.99
		c0.219-0.192,0.603-0.29,1.15-0.29h1.28V25.037z M278.473,37.907c-0.334,0.567-0.88,0.85-1.64,0.85c-0.774,0-1.327-0.282-1.66-0.85
		c-0.334-0.567-0.5-1.457-0.5-2.67c0-1.2,0.166-2.083,0.5-2.65c0.333-0.566,0.886-0.85,1.66-0.85c0.76,0,1.306,0.283,1.64,0.85
		c0.333,0.567,0.5,1.45,0.5,2.65C278.973,36.45,278.806,37.34,278.473,37.907 M280.773,30.877c-0.88-1.04-2.194-1.56-3.94-1.56
		c-1.76,0-3.08,0.52-3.96,1.56c-0.88,1.04-1.32,2.493-1.32,4.36c0,1.88,0.44,3.34,1.32,4.38c0.88,1.04,2.2,1.561,3.96,1.561
		c1.746,0,3.06-0.521,3.94-1.561s1.32-2.5,1.32-4.38C282.093,33.37,281.653,31.917,280.773,30.877 M263.833,30.447
		c-0.64-0.753-1.567-1.13-2.78-1.13c-0.8,0-1.477,0.193-2.03,0.58c-0.553,0.387-0.93,0.913-1.13,1.58v-1.88h-3.14v11.3h3.14v-6.38
		c0-0.88,0.197-1.563,0.59-2.051c0.393-0.486,0.923-0.729,1.59-0.729c1.067,0,1.6,0.687,1.6,2.06v7.101h3.12v-7.16
		C264.793,32.297,264.473,31.2,263.833,30.447 M249.833,37.907c-0.333,0.567-0.88,0.85-1.64,0.85c-0.773,0-1.327-0.282-1.66-0.85
		s-0.5-1.457-0.5-2.67c0-1.2,0.167-2.083,0.5-2.65c0.333-0.566,0.887-0.85,1.66-0.85c0.76,0,1.307,0.283,1.64,0.85
		c0.333,0.567,0.5,1.45,0.5,2.65C250.333,36.45,250.166,37.34,249.833,37.907 M252.133,30.877c-0.88-1.04-2.193-1.56-3.94-1.56
		c-1.76,0-3.08,0.52-3.96,1.56s-1.32,2.493-1.32,4.36c0,1.88,0.44,3.34,1.32,4.38s2.2,1.561,3.96,1.561
		c1.747,0,3.06-0.521,3.94-1.561s1.32-2.5,1.32-4.38C253.453,33.37,253.013,31.917,252.133,30.877 M241.533,29.598h-3.12v11.3h3.12
		V29.598z M241.533,25.077h-3.12v2.72h3.12V25.077z M237.154,32.018v-2.42h-2.94v-3.2h-3.12v3.2h-1.64v2.42h1.64v5.52
		c0,1.293,0.316,2.203,0.95,2.73c0.633,0.526,1.703,0.79,3.21,0.79c0.853,0,1.486-0.021,1.9-0.061v-2.34h-1.16
		c-0.694,0-1.164-0.107-1.41-0.32c-0.247-0.213-0.37-0.64-0.37-1.279v-5.04H237.154z M221.554,37.598c0-0.987,0.653-1.48,1.96-1.48
		c1.32,0,1.98,0.493,1.98,1.48c0,0.973-0.66,1.46-1.98,1.46C222.207,39.058,221.554,38.57,221.554,37.598 M225.694,40.897h3.18
		c-0.2-0.427-0.3-0.967-0.3-1.62v-5.72c0-1.293-0.414-2.323-1.24-3.091c-0.827-0.767-2.027-1.149-3.6-1.149
		c-1.48,0-2.63,0.333-3.45,1c-0.82,0.667-1.277,1.58-1.37,2.74h3.12c0.106-0.907,0.673-1.36,1.7-1.36c1.16,0,1.74,0.6,1.74,1.8
		v2.061c-0.2-0.493-0.58-0.877-1.14-1.15s-1.207-0.41-1.94-0.41c-1.214,0-2.177,0.32-2.89,0.96c-0.714,0.641-1.07,1.521-1.07,2.641
		c0,1.106,0.36,1.979,1.08,2.619c0.72,0.641,1.68,0.961,2.88,0.961c0.786,0,1.453-0.147,2-0.44c0.546-0.293,0.906-0.673,1.08-1.14
		C225.5,40.17,225.574,40.604,225.694,40.897 M217.974,31.938l0.04-2.521c-0.24-0.066-0.534-0.1-0.88-0.1
		c-1.614,0-2.594,0.793-2.94,2.38v-2.1h-3.14v11.3h3.14v-5.641c0-1.093,0.25-1.927,0.75-2.5c0.5-0.572,1.203-0.859,2.11-0.859
		C217.427,31.897,217.734,31.91,217.974,31.938 M206.574,34.138h-4.22c0.066-1.681,0.773-2.521,2.12-2.521
		C205.807,31.617,206.507,32.457,206.574,34.138 M209.734,35.237c0-1.867-0.437-3.32-1.31-4.36c-0.874-1.04-2.19-1.56-3.95-1.56
		c-1.747,0-3.06,0.52-3.94,1.56c-0.88,1.04-1.32,2.493-1.32,4.36c0,1.88,0.44,3.34,1.32,4.38c0.88,1.04,2.193,1.561,3.94,1.561
		c1.413,0,2.556-0.33,3.43-0.99c0.873-0.66,1.403-1.57,1.59-2.73h-3.16c-0.187,0.96-0.807,1.44-1.86,1.44
		c-1.347,0-2.06-0.934-2.14-2.8h7.38C209.727,35.938,209.734,35.65,209.734,35.237 M191.904,40.638c0.54,0.359,1.196,0.54,1.97,0.54
		c1.373,0,2.436-0.497,3.19-1.49c0.753-0.993,1.13-2.478,1.13-4.45s-0.377-3.453-1.13-4.44c-0.754-0.986-1.817-1.479-3.19-1.479
		c-0.774,0-1.43,0.18-1.97,0.54c-0.54,0.359-0.91,0.853-1.11,1.479v-1.739h-3.12v16.22h3.12v-6.66
		C190.994,39.784,191.364,40.277,191.904,40.638 M191.294,32.598c0.333-0.561,0.88-0.841,1.64-0.841c0.773,0,1.326,0.28,1.66,0.841
		c0.333,0.56,0.5,1.439,0.5,2.64c0,1.213-0.167,2.103-0.5,2.67c-0.334,0.567-0.887,0.85-1.66,0.85c-0.76,0-1.307-0.282-1.64-0.85
		c-0.334-0.567-0.5-1.457-0.5-2.67C190.794,34.037,190.96,33.157,191.294,32.598 M177.594,28.657c0.493-0.733,1.253-1.1,2.28-1.1
		c1.027,0,1.787,0.366,2.28,1.1c0.52,0.76,0.78,2.2,0.78,4.32c0,2.133-0.26,3.58-0.78,4.34c-0.493,0.732-1.253,1.1-2.28,1.1
		c-1.027,0-1.787-0.367-2.28-1.1c-0.533-0.787-0.8-2.233-0.8-4.34C176.794,30.884,177.061,29.444,177.594,28.657 M184.734,26.938
		c-1.067-1.427-2.687-2.141-4.86-2.141c-2.173,0-3.793,0.714-4.86,2.141c-1.013,1.333-1.52,3.347-1.52,6.04
		c0,2.707,0.507,4.727,1.52,6.06c1.067,1.427,2.687,2.141,4.86,2.141c2.173,0,3.793-0.714,4.86-2.141c1-1.32,1.5-3.34,1.5-6.06
		C186.234,30.271,185.734,28.257,184.734,26.938"/>
	<circle clip-path="url(#SVGID_2_)" fill="none" stroke="#E47476" stroke-width="3.6" cx="148.563" cy="81.563" r="7.264"/>
</g>
<text transform="matrix(1 0 0 1 157.626 88.106)" font-family="'S-CoreDream-4Regular'" font-size="15"> </text>
<g>
	<defs>
		<rect id="SVGID_3_" width="1018" height="145.252"/>
	</defs>
	<clipPath id="SVGID_4_">
		<use xlink:href="#SVGID_3_"  overflow="visible"/>
	</clipPath>
	<path clip-path="url(#SVGID_4_)" d="M498.317,80.532c1.47,0,2.255,0.924,2.354,2.773h-4.725
		C496.047,81.456,496.837,80.532,498.317,80.532 M499.787,86.801c-0.38,0.299-0.86,0.449-1.44,0.449c-1.56,0-2.364-1-2.415-3h6
		v-0.359c0-1.41-0.303-2.496-0.907-3.256c-0.605-0.76-1.508-1.139-2.707-1.139c-1.2,0-2.104,0.379-2.708,1.139
		c-0.605,0.76-0.907,1.846-0.907,3.256c0,1.42,0.302,2.508,0.907,3.262c0.604,0.756,1.518,1.133,2.737,1.133
		c0.95,0,1.718-0.232,2.303-0.697s0.952-1.123,1.103-1.973h-1.275C500.397,86.106,500.167,86.5,499.787,86.801 M493.667,80.725
		v-1.033h-2.445v-2.387h-1.245v2.387h-1.244v1.033h1.244v5.146c0,0.869,0.207,1.477,0.622,1.822
		c0.415,0.344,1.099,0.518,2.049,0.518c0.47,0,0.81-0.01,1.02-0.031v-1.004h-0.825c-0.59,0-1.008-0.104-1.253-0.309
		s-0.367-0.602-0.367-1.191v-4.951H493.667z M487.277,76.331h-1.245v1.635h1.245V76.331z M487.277,79.692h-1.245v8.398h1.245V79.692
		z M477.917,81.881c0,0.639,0.202,1.145,0.607,1.514c0.404,0.371,1.058,0.646,1.958,0.826l1.034,0.209
		c0.561,0.111,0.962,0.275,1.207,0.496c0.245,0.219,0.368,0.525,0.368,0.914c0,0.42-0.185,0.762-0.555,1.027s-0.85,0.398-1.44,0.398
		c-0.59,0-1.067-0.131-1.433-0.391s-0.547-0.609-0.547-1.049v-0.285h-1.245v0.285c0,0.729,0.297,1.322,0.892,1.775
		c0.596,0.455,1.373,0.684,2.333,0.684c0.98,0,1.766-0.23,2.355-0.689c0.59-0.461,0.885-1.051,0.885-1.77
		c0-0.701-0.198-1.24-0.593-1.621c-0.396-0.379-1.037-0.66-1.927-0.84l-1.021-0.209c-0.59-0.121-1.01-0.281-1.26-0.48
		c-0.25-0.201-0.375-0.475-0.375-0.826c0-0.379,0.16-0.697,0.479-0.951c0.32-0.256,0.761-0.383,1.32-0.383
		c0.57,0,1.015,0.127,1.335,0.383c0.32,0.254,0.48,0.576,0.48,0.967v0.225h1.245v-0.209c0-0.711-0.273-1.285-0.818-1.725
		c-0.545-0.441-1.292-0.66-2.242-0.66s-1.695,0.221-2.235,0.666C478.188,80.608,477.917,81.18,477.917,81.881 M471.752,76.331
		h-1.245v11.76h1.245V76.331z M468.362,76.331h-1.245v11.76h1.245V76.331z M464.972,76.331h-1.245v1.635h1.245V76.331z
		 M464.972,79.692h-1.245v8.398h1.245V79.692z M462.332,76.27c-0.29-0.039-0.6-0.059-0.93-0.059c-0.95,0-1.622,0.18-2.018,0.539
		c-0.395,0.361-0.593,0.986-0.593,1.875v1.066h-1.245v1.033h1.245v7.365h1.245v-7.365h2.295v-1.033h-2.295v-0.99
		c0-0.551,0.104-0.932,0.314-1.141c0.211-0.211,0.605-0.314,1.186-0.314h0.795V76.27z M454.27,86.395
		c-0.375,0.57-0.982,0.855-1.822,0.855s-1.445-0.285-1.815-0.855c-0.37-0.568-0.555-1.404-0.555-2.504
		c0-1.09,0.185-1.924,0.555-2.498s0.976-0.861,1.815-0.861c1.59,0,2.385,1.119,2.385,3.359
		C454.832,84.991,454.645,85.827,454.27,86.395 M453.895,79.901c-0.444-0.27-0.987-0.404-1.628-0.404
		c-1.109,0-1.96,0.369-2.55,1.109s-0.885,1.836-0.885,3.285s0.295,2.545,0.885,3.285s1.44,1.109,2.55,1.109
		c0.641,0,1.184-0.135,1.628-0.404c0.445-0.27,0.758-0.641,0.938-1.111v1.32h1.245v-11.76h-1.245v4.68
		C454.652,80.542,454.34,80.17,453.895,79.901 M446.425,80.381c-0.505-0.59-1.232-0.885-2.182-0.885
		c-1.361,0-2.266,0.559-2.715,1.68v-1.484h-1.245v8.398h1.245v-4.32c0-1.01,0.225-1.803,0.675-2.377s1.029-0.861,1.74-0.861
		c0.669,0,1.172,0.209,1.507,0.629s0.503,1.09,0.503,2.01v4.92h1.229v-5.219C447.183,81.801,446.93,80.971,446.425,80.381
		 M436.555,86.823c-0.385,0.285-0.952,0.428-1.702,0.428s-1.317-0.143-1.702-0.428c-0.386-0.285-0.577-0.688-0.577-1.207
		c0-0.51,0.194-0.91,0.585-1.199c0.39-0.291,0.954-0.436,1.694-0.436c0.739,0,1.306,0.145,1.695,0.436
		c0.39,0.289,0.585,0.689,0.585,1.199C437.133,86.135,436.94,86.538,436.555,86.823 M437.298,88.09h1.26
		c-0.131-0.369-0.194-0.754-0.194-1.154v-4.32c0-0.971-0.285-1.732-0.855-2.287s-1.406-0.832-2.505-0.832
		c-1.02,0-1.815,0.23-2.385,0.697c-0.57,0.465-0.892,1.107-0.96,1.928h1.274c0.12-1.061,0.811-1.59,2.07-1.59
		c0.69,0,1.217,0.184,1.582,0.555c0.365,0.369,0.548,0.875,0.548,1.514v1.426c-0.381-0.721-1.235-1.08-2.564-1.08
		c-1.001,0-1.791,0.236-2.37,0.713c-0.581,0.475-0.87,1.127-0.87,1.957c0,0.84,0.289,1.496,0.87,1.965
		c0.579,0.471,1.369,0.705,2.37,0.705c1.35,0,2.205-0.359,2.564-1.08C437.133,87.545,437.188,87.84,437.298,88.09 M429.633,76.331
		h-1.245v11.76h1.245V76.331z M418.638,80.532c1.471,0,2.255,0.924,2.355,2.773h-4.726
		C416.368,81.456,417.158,80.532,418.638,80.532 M420.108,86.801c-0.381,0.299-0.86,0.449-1.44,0.449c-1.56,0-2.365-1-2.415-3h6
		v-0.359c0-1.41-0.303-2.496-0.908-3.256c-0.604-0.76-1.507-1.139-2.707-1.139s-2.103,0.379-2.708,1.139
		c-0.604,0.76-0.906,1.846-0.906,3.256c0,1.42,0.302,2.508,0.906,3.262c0.605,0.756,1.519,1.133,2.738,1.133
		c0.95,0,1.717-0.232,2.302-0.697s0.953-1.123,1.104-1.973h-1.275C420.718,86.106,420.488,86.5,420.108,86.801 M414.243,80.577
		l0.015-1.021c-0.12-0.039-0.33-0.059-0.63-0.059c-1.27,0-2.08,0.559-2.43,1.68v-1.484h-1.245v8.398h1.245v-4.273
		c0-1.07,0.215-1.885,0.645-2.439c0.431-0.555,1.01-0.832,1.74-0.832C413.843,80.545,414.063,80.555,414.243,80.577 M407.898,76.331
		h-1.245v1.635h1.245V76.331z M407.898,79.692h-1.245v8.398h1.245V79.692z M405.033,80.725v-1.033h-2.445v-2.387h-1.245v2.387
		h-1.245v1.033h1.245v5.146c0,0.869,0.207,1.477,0.623,1.822c0.414,0.344,1.097,0.518,2.047,0.518c0.471,0,0.811-0.01,1.021-0.031
		v-1.004h-0.825c-0.59,0-1.007-0.104-1.252-0.309c-0.246-0.205-0.368-0.602-0.368-1.191v-4.951H405.033z M398.111,80.381
		c-0.506-0.59-1.233-0.885-2.184-0.885c-1.359,0-2.265,0.559-2.715,1.68v-1.484h-1.245v8.398h1.245v-4.32
		c0-1.01,0.225-1.803,0.675-2.377s1.03-0.861,1.74-0.861c0.67,0,1.172,0.209,1.508,0.629c0.334,0.42,0.502,1.09,0.502,2.01v4.92
		h1.23v-5.219C398.868,81.801,398.615,80.971,398.111,80.381 M386.673,80.532c1.47,0,2.255,0.924,2.355,2.773h-4.726
		C384.403,81.456,385.193,80.532,386.673,80.532 M388.143,86.801c-0.38,0.299-0.859,0.449-1.439,0.449c-1.561,0-2.365-1-2.415-3h6
		v-0.359c0-1.41-0.302-2.496-0.907-3.256c-0.604-0.76-1.508-1.139-2.708-1.139s-2.102,0.379-2.707,1.139
		c-0.604,0.76-0.908,1.846-0.908,3.256c0,1.42,0.304,2.508,0.908,3.262c0.605,0.756,1.518,1.133,2.737,1.133
		c0.95,0,1.718-0.232,2.303-0.697s0.952-1.123,1.103-1.973h-1.275C388.753,86.106,388.523,86.5,388.143,86.801 M373.699,80.532
		c1.47,0,2.255,0.924,2.354,2.773h-4.725C371.428,81.456,372.219,80.532,373.699,80.532 M375.169,86.801
		c-0.381,0.299-0.861,0.449-1.44,0.449c-1.56,0-2.364-1-2.414-3h6v-0.359c0-1.41-0.304-2.496-0.908-3.256
		c-0.605-0.76-1.507-1.139-2.707-1.139s-2.104,0.379-2.708,1.139c-0.605,0.76-0.907,1.846-0.907,3.256
		c0,1.42,0.302,2.508,0.907,3.262c0.604,0.756,1.517,1.133,2.737,1.133c0.95,0,1.718-0.232,2.303-0.697s0.953-1.123,1.103-1.973
		h-1.274C375.778,86.106,375.549,86.5,375.169,86.801 M367.676,80.381c-0.505-0.59-1.231-0.885-2.182-0.885
		c-1.36,0-2.266,0.559-2.715,1.68v-4.846h-1.245v11.76h1.245v-4.32c0-1.01,0.225-1.803,0.675-2.377s1.029-0.861,1.74-0.861
		c0.669,0,1.172,0.209,1.507,0.629s0.503,1.09,0.503,2.01v4.92h1.229v-5.219C368.434,81.801,368.181,80.971,367.676,80.381
		 M360.004,80.725v-1.033h-2.445v-2.387h-1.244v2.387h-1.245v1.033h1.245v5.146c0,0.869,0.207,1.477,0.621,1.822
		c0.415,0.344,1.099,0.518,2.049,0.518c0.47,0,0.81-0.01,1.02-0.031v-1.004h-0.825c-0.59,0-1.008-0.104-1.253-0.309
		s-0.367-0.602-0.367-1.191v-4.951H360.004z M349.999,76.27c-0.29-0.039-0.6-0.059-0.93-0.059c-0.95,0-1.622,0.18-2.018,0.539
		c-0.395,0.361-0.593,0.986-0.593,1.875v1.066h-1.245v1.033h1.245v7.365h1.245v-7.365h2.295v-1.033h-2.295v-0.99
		c0-0.551,0.104-0.932,0.314-1.141c0.21-0.211,0.605-0.314,1.186-0.314h0.795V76.27z M342.492,86.395
		c-0.375,0.57-0.983,0.855-1.823,0.855s-1.445-0.285-1.815-0.855c-0.369-0.568-0.555-1.404-0.555-2.504
		c0-1.09,0.186-1.924,0.555-2.498c0.37-0.574,0.976-0.861,1.815-0.861c1.59,0,2.385,1.119,2.385,3.359
		C343.054,84.991,342.867,85.827,342.492,86.395 M340.669,79.497c-1.2,0-2.102,0.379-2.707,1.139
		c-0.604,0.76-0.908,1.846-0.908,3.256s0.304,2.494,0.908,3.254c0.605,0.762,1.507,1.141,2.707,1.141s2.105-0.379,2.715-1.141
		c0.61-0.76,0.915-1.844,0.915-3.254s-0.305-2.496-0.915-3.256C342.774,79.875,341.869,79.497,340.669,79.497 M331.46,80.725v-1.033
		h-2.445v-2.387h-1.245v2.387h-1.244v1.033h1.244v5.146c0,0.869,0.207,1.477,0.622,1.822c0.415,0.344,1.099,0.518,2.049,0.518
		c0.47,0,0.81-0.01,1.02-0.031v-1.004h-0.825c-0.59,0-1.008-0.104-1.253-0.309s-0.367-0.602-0.367-1.191v-4.951H331.46z
		 M324.537,80.381c-0.505-0.59-1.232-0.885-2.182-0.885c-1.36,0-2.266,0.559-2.716,1.68v-1.484h-1.245v8.398h1.245v-4.32
		c0-1.01,0.226-1.803,0.676-2.377c0.449-0.574,1.029-0.861,1.739-0.861c0.67,0,1.172,0.209,1.508,0.629
		c0.335,0.42,0.503,1.09,0.503,2.01v4.92h1.229v-5.219C325.295,81.801,325.042,80.971,324.537,80.381 M313.1,80.532
		c1.471,0,2.256,0.924,2.355,2.773h-4.725C310.83,81.456,311.62,80.532,313.1,80.532 M314.57,86.801
		c-0.38,0.299-0.86,0.449-1.44,0.449c-1.56,0-2.365-1-2.415-3h6v-0.359c0-1.41-0.303-2.496-0.908-3.256
		c-0.604-0.76-1.507-1.139-2.707-1.139c-1.199,0-2.103,0.379-2.708,1.139c-0.604,0.76-0.906,1.846-0.906,3.256
		c0,1.42,0.302,2.508,0.906,3.262c0.605,0.756,1.519,1.133,2.738,1.133c0.95,0,1.717-0.232,2.302-0.697s0.953-1.123,1.104-1.973
		h-1.275C315.18,86.106,314.95,86.5,314.57,86.801 M303.17,81.385c0.42-0.568,0.955-0.854,1.605-0.854
		c1.21,0,1.814,0.689,1.814,2.068v5.49h1.245v-5.459c0-1.01-0.24-1.785-0.72-2.326c-0.48-0.539-1.17-0.809-2.07-0.809
		c-1.35,0-2.26,0.594-2.729,1.785c-0.181-0.58-0.493-1.023-0.938-1.328s-0.987-0.457-1.627-0.457c-1.26,0-2.09,0.549-2.49,1.648
		v-1.453h-1.245v8.398h1.245v-4.334c0-1.02,0.207-1.813,0.622-2.379c0.415-0.564,0.948-0.846,1.599-0.846
		c1.22,0,1.829,0.689,1.829,2.068v5.49h1.23v-4.32C302.54,82.75,302.75,81.956,303.17,81.385 M290.72,80.532
		c1.47,0,2.255,0.924,2.355,2.773h-4.725C288.45,81.456,289.24,80.532,290.72,80.532 M292.19,86.801
		c-0.38,0.299-0.86,0.449-1.44,0.449c-1.56,0-2.365-1-2.415-3h6v-0.359c0-1.41-0.303-2.496-0.907-3.256
		c-0.606-0.76-1.508-1.139-2.708-1.139c-1.2,0-2.103,0.379-2.707,1.139c-0.606,0.76-0.908,1.846-0.908,3.256
		c0,1.42,0.302,2.508,0.908,3.262c0.604,0.756,1.517,1.133,2.737,1.133c0.95,0,1.717-0.232,2.303-0.697
		c0.585-0.465,0.952-1.123,1.102-1.973h-1.275C292.8,86.106,292.57,86.5,292.19,86.801 M281.81,87.25
		c-0.84,0-1.447-0.285-1.822-0.855c-0.375-0.568-0.563-1.404-0.563-2.504c0-2.24,0.795-3.359,2.385-3.359
		c1.58,0,2.37,1.119,2.37,3.359S283.39,87.25,281.81,87.25 M283.618,90.34c-0.375,0.41-0.918,0.615-1.628,0.615
		c-0.58,0-1.052-0.129-1.417-0.389c-0.366-0.262-0.588-0.625-0.668-1.096h-1.26c0.1,0.779,0.443,1.395,1.028,1.846
		c0.585,0.449,1.357,0.674,2.317,0.674c1.14,0,1.997-0.32,2.573-0.959c0.575-0.641,0.862-1.486,0.862-2.535v-8.805h-1.245v1.318
		c-0.19-0.469-0.502-0.84-0.937-1.109s-0.973-0.404-1.613-0.404c-1.11,0-1.96,0.369-2.55,1.109s-0.885,1.836-0.885,3.285
		s0.295,2.545,0.885,3.285s1.44,1.109,2.55,1.109c0.64,0,1.178-0.135,1.613-0.404s0.747-0.635,0.937-1.096v1.801
		C284.18,89.346,283.993,89.93,283.618,90.34 M274.768,86.823c-0.385,0.285-0.953,0.428-1.703,0.428s-1.318-0.143-1.702-0.428
		c-0.385-0.285-0.578-0.688-0.578-1.207c0-0.51,0.195-0.91,0.585-1.199c0.39-0.291,0.955-0.436,1.695-0.436
		c0.74,0,1.305,0.145,1.695,0.436c0.39,0.289,0.585,0.689,0.585,1.199C275.345,86.135,275.152,86.538,274.768,86.823 M275.51,88.09
		h1.26c-0.13-0.369-0.195-0.754-0.195-1.154v-4.32c0-0.971-0.285-1.732-0.855-2.287c-0.57-0.555-1.405-0.832-2.505-0.832
		c-1.02,0-1.815,0.23-2.385,0.697c-0.57,0.465-0.89,1.107-0.96,1.928h1.275c0.12-1.061,0.81-1.59,2.07-1.59
		c0.69,0,1.217,0.184,1.583,0.555c0.365,0.369,0.547,0.875,0.547,1.514v1.426c-0.38-0.721-1.235-1.08-2.565-1.08
		c-1,0-1.79,0.236-2.37,0.713c-0.58,0.475-0.87,1.127-0.87,1.957c0,0.84,0.29,1.496,0.87,1.965c0.58,0.471,1.37,0.705,2.37,0.705
		c1.35,0,2.205-0.359,2.565-1.08C275.345,87.545,275.4,87.84,275.51,88.09 M267.193,80.381c-0.505-0.59-1.233-0.885-2.183-0.885
		c-1.36,0-2.265,0.559-2.715,1.68v-1.484h-1.245v8.398h1.245v-4.32c0-1.01,0.225-1.803,0.675-2.377
		c0.45-0.574,1.03-0.861,1.74-0.861c0.67,0,1.173,0.209,1.508,0.629c0.335,0.42,0.502,1.09,0.502,2.01v4.92h1.23v-5.219
		C267.95,81.801,267.698,80.971,267.193,80.381 M257.323,86.823c-0.385,0.285-0.953,0.428-1.703,0.428s-1.317-0.143-1.702-0.428
		c-0.385-0.285-0.578-0.688-0.578-1.207c0-0.51,0.195-0.91,0.585-1.199c0.39-0.291,0.955-0.436,1.695-0.436
		c0.74,0,1.305,0.145,1.695,0.436c0.39,0.289,0.585,0.689,0.585,1.199C257.9,86.135,257.708,86.538,257.323,86.823 M258.065,88.09
		h1.26c-0.13-0.369-0.195-0.754-0.195-1.154v-4.32c0-0.971-0.285-1.732-0.855-2.287c-0.57-0.555-1.405-0.832-2.505-0.832
		c-1.02,0-1.815,0.23-2.385,0.697c-0.57,0.465-0.89,1.107-0.96,1.928h1.275c0.12-1.061,0.81-1.59,2.07-1.59
		c0.69,0,1.218,0.184,1.583,0.555c0.365,0.369,0.547,0.875,0.547,1.514v1.426c-0.38-0.721-1.235-1.08-2.565-1.08
		c-1,0-1.79,0.236-2.37,0.713c-0.58,0.475-0.87,1.127-0.87,1.957c0,0.84,0.29,1.496,0.87,1.965c0.58,0.471,1.37,0.705,2.37,0.705
		c1.35,0,2.205-0.359,2.565-1.08C257.9,87.545,257.955,87.84,258.065,88.09 M245.84,81.385c0.42-0.568,0.955-0.854,1.605-0.854
		c1.21,0,1.815,0.689,1.815,2.068v5.49h1.245v-5.459c0-1.01-0.24-1.785-0.72-2.326c-0.48-0.539-1.17-0.809-2.07-0.809
		c-1.35,0-2.26,0.594-2.73,1.785c-0.18-0.58-0.492-1.023-0.937-1.328c-0.445-0.305-0.988-0.457-1.628-0.457
		c-1.26,0-2.09,0.549-2.49,1.648v-1.453h-1.245v8.398h1.245v-4.334c0-1.02,0.208-1.813,0.623-2.379
		c0.415-0.564,0.947-0.846,1.597-0.846c1.22,0,1.83,0.689,1.83,2.068v5.49h1.23v-4.32C245.21,82.75,245.42,81.956,245.84,81.385
		 M230.548,86.395c-0.375,0.57-0.982,0.855-1.822,0.855s-1.446-0.285-1.815-0.855c-0.371-0.568-0.555-1.404-0.555-2.504
		c0-1.09,0.184-1.924,0.555-2.498c0.369-0.574,0.975-0.861,1.815-0.861c1.59,0,2.385,1.119,2.385,3.359
		C231.111,84.991,230.923,85.827,230.548,86.395 M230.173,79.901c-0.445-0.27-0.988-0.404-1.627-0.404
		c-1.11,0-1.961,0.369-2.55,1.109c-0.591,0.74-0.885,1.836-0.885,3.285s0.294,2.545,0.885,3.285c0.589,0.74,1.44,1.109,2.55,1.109
		c0.639,0,1.182-0.135,1.627-0.404c0.445-0.27,0.758-0.641,0.938-1.111v1.32h1.245v-11.76h-1.245v4.68
		C230.931,80.542,230.618,80.17,230.173,79.901 M220.116,80.532c1.47,0,2.255,0.924,2.355,2.773h-4.725
		C217.846,81.456,218.636,80.532,220.116,80.532 M221.586,86.801c-0.38,0.299-0.86,0.449-1.44,0.449c-1.56,0-2.365-1-2.415-3h6
		v-0.359c0-1.41-0.303-2.496-0.908-3.256c-0.605-0.76-1.507-1.139-2.707-1.139c-1.2,0-2.103,0.379-2.708,1.139
		s-0.907,1.846-0.907,3.256c0,1.42,0.302,2.508,0.907,3.262c0.605,0.756,1.518,1.133,2.738,1.133c0.95,0,1.717-0.232,2.302-0.697
		c0.585-0.465,0.953-1.123,1.103-1.973h-1.275C222.196,86.106,221.966,86.5,221.586,86.801 M215.466,80.725v-1.033h-2.445v-2.387
		h-1.245v2.387h-1.245v1.033h1.245v5.146c0,0.869,0.207,1.477,0.622,1.822c0.415,0.344,1.097,0.518,2.048,0.518
		c0.47,0,0.81-0.01,1.02-0.031v-1.004h-0.825c-0.591,0-1.008-0.104-1.253-0.309c-0.245-0.205-0.367-0.602-0.367-1.191v-4.951
		H215.466z M207.538,86.823c-0.385,0.285-0.953,0.428-1.703,0.428s-1.317-0.143-1.702-0.428c-0.385-0.285-0.578-0.688-0.578-1.207
		c0-0.51,0.195-0.91,0.585-1.199c0.39-0.291,0.955-0.436,1.695-0.436c0.74,0,1.305,0.145,1.695,0.436
		c0.39,0.289,0.585,0.689,0.585,1.199C208.115,86.135,207.923,86.538,207.538,86.823 M208.28,88.09h1.26
		c-0.13-0.369-0.195-0.754-0.195-1.154v-4.32c0-0.971-0.285-1.732-0.855-2.287c-0.57-0.555-1.405-0.832-2.505-0.832
		c-1.02,0-1.815,0.23-2.385,0.697c-0.57,0.465-0.89,1.107-0.96,1.928h1.275c0.12-1.061,0.81-1.59,2.07-1.59
		c0.69,0,1.218,0.184,1.583,0.555c0.365,0.369,0.547,0.875,0.547,1.514v1.426c-0.38-0.721-1.235-1.08-2.565-1.08
		c-1,0-1.79,0.236-2.37,0.713c-0.58,0.475-0.87,1.127-0.87,1.957c0,0.84,0.29,1.496,0.87,1.965c0.58,0.471,1.37,0.705,2.37,0.705
		c1.35,0,2.205-0.359,2.565-1.08C208.115,87.545,208.17,87.84,208.28,88.09 M201.651,80.577l0.015-1.021
		c-0.12-0.039-0.33-0.059-0.63-0.059c-1.27,0-2.08,0.559-2.43,1.68v-1.484h-1.245v8.398h1.245v-4.273
		c0-1.07,0.215-1.885,0.645-2.439c0.429-0.555,1.01-0.832,1.74-0.832C201.251,80.545,201.471,80.555,201.651,80.577 M191.766,87.25
		c-0.84,0-1.448-0.285-1.823-0.855c-0.375-0.568-0.562-1.404-0.562-2.504c0-2.24,0.795-3.359,2.385-3.359
		c1.58,0,2.37,1.119,2.37,3.359S193.346,87.25,191.766,87.25 M193.573,90.34c-0.375,0.41-0.917,0.615-1.627,0.615
		c-0.58,0-1.053-0.129-1.418-0.389c-0.365-0.262-0.587-0.625-0.667-1.096h-1.26c0.1,0.779,0.442,1.395,1.027,1.846
		c0.585,0.449,1.358,0.674,2.318,0.674c1.14,0,1.997-0.32,2.572-0.959c0.575-0.641,0.863-1.486,0.863-2.535v-8.805h-1.245v1.318
		c-0.19-0.469-0.503-0.84-0.938-1.109c-0.435-0.27-0.972-0.404-1.612-0.404c-1.11,0-1.96,0.369-2.55,1.109
		c-0.59,0.74-0.885,1.836-0.885,3.285s0.295,2.545,0.885,3.285c0.59,0.74,1.44,1.109,2.55,1.109c0.64,0,1.177-0.135,1.612-0.404
		c0.435-0.27,0.748-0.635,0.938-1.096v1.801C194.136,89.346,193.948,89.93,193.573,90.34 M183.156,80.532
		c1.47,0,2.255,0.924,2.355,2.773h-4.725C180.886,81.456,181.676,80.532,183.156,80.532 M184.626,86.801
		c-0.38,0.299-0.86,0.449-1.44,0.449c-1.56,0-2.365-1-2.415-3h6v-0.359c0-1.41-0.303-2.496-0.908-3.256s-1.507-1.139-2.707-1.139
		c-1.2,0-2.103,0.379-2.708,1.139c-0.605,0.76-0.907,1.846-0.907,3.256c0,1.42,0.302,2.508,0.907,3.262
		c0.605,0.756,1.518,1.133,2.738,1.133c0.95,0,1.717-0.232,2.302-0.697c0.585-0.465,0.953-1.123,1.103-1.973h-1.275
		C185.236,86.106,185.006,86.5,184.626,86.801 M178.506,80.725v-1.033h-2.445v-2.387h-1.245v2.387h-1.245v1.033h1.245v5.146
		c0,0.869,0.207,1.477,0.622,1.822c0.415,0.344,1.098,0.518,2.048,0.518c0.47,0,0.81-0.01,1.02-0.031v-1.004h-0.825
		c-0.59,0-1.008-0.104-1.253-0.309c-0.245-0.205-0.367-0.602-0.367-1.191v-4.951H178.506z M171.583,80.381
		c-0.505-0.59-1.232-0.885-2.182-0.885c-1.36,0-2.265,0.559-2.715,1.68v-1.484h-1.245v8.398h1.245v-4.32
		c0-1.01,0.225-1.803,0.675-2.377c0.45-0.574,1.03-0.861,1.74-0.861c0.67,0,1.172,0.209,1.507,0.629s0.503,1.09,0.503,2.01v4.92
		h1.23v-5.219C172.341,81.801,172.088,80.971,171.583,80.381 M161.991,88.09h1.305v-11.76h-1.305V88.09z"/>
</g>
<text transform="matrix(1 0 0 1 501.9316 88.106)" font-family="'S-CoreDream-4Regular'" font-size="15">    </text>
<g>
	<defs>
		<rect id="SVGID_5_" width="1018" height="145.252"/>
	</defs>
	<clipPath id="SVGID_6_">
		<use xlink:href="#SVGID_5_"  overflow="visible"/>
	</clipPath>
	<circle clip-path="url(#SVGID_6_)" fill="none" stroke="#E47476" stroke-width="4" cx="528.454" cy="81.563" r="7.063"/>
</g>
<text transform="matrix(1 0 0 1 537.5176 88.106)" font-family="'S-CoreDream-4Regular'" font-size="15"> </text>
<g>
	<defs>
		<rect id="SVGID_7_" width="1018" height="145.252"/>
	</defs>
	<clipPath id="SVGID_8_">
		<use xlink:href="#SVGID_7_"  overflow="visible"/>
	</clipPath>
	<path clip-path="url(#SVGID_8_)" d="M892.247,80.53c1.47,0,2.255,0.926,2.354,2.775h-4.725
		C889.977,81.456,890.767,80.53,892.247,80.53 M893.717,86.801c-0.38,0.299-0.86,0.449-1.439,0.449c-1.561,0-2.365-1-2.415-3h6
		v-0.359c0-1.41-0.303-2.496-0.907-3.256c-0.605-0.76-1.508-1.139-2.708-1.139s-2.103,0.379-2.707,1.139
		c-0.605,0.76-0.908,1.846-0.908,3.256c0,1.42,0.303,2.508,0.908,3.262c0.604,0.756,1.517,1.133,2.737,1.133
		c0.949,0,1.718-0.232,2.303-0.697s0.952-1.123,1.102-1.973h-1.274C894.327,86.106,894.097,86.5,893.717,86.801 M887.597,80.725
		V79.69h-2.444v-2.385h-1.245v2.385h-1.245v1.035h1.245v5.146c0,0.869,0.208,1.477,0.623,1.822c0.414,0.346,1.097,0.518,2.047,0.518
		c0.47,0,0.81-0.012,1.02-0.031v-1.004h-0.825c-0.59,0-1.007-0.104-1.252-0.307c-0.246-0.205-0.367-0.604-0.367-1.193v-4.951
		H887.597z M881.207,76.331h-1.245v1.635h1.245V76.331z M881.207,79.69h-1.245v8.4h1.245V79.69z M871.847,81.881
		c0,0.639,0.203,1.145,0.608,1.514c0.405,0.371,1.057,0.646,1.957,0.826l1.035,0.209c0.56,0.111,0.963,0.275,1.208,0.496
		c0.245,0.219,0.366,0.523,0.366,0.914c0,0.42-0.185,0.764-0.555,1.029c-0.37,0.264-0.85,0.396-1.439,0.396
		c-0.591,0-1.067-0.131-1.433-0.391s-0.548-0.609-0.548-1.051v-0.283h-1.245v0.283c0,0.73,0.298,1.324,0.894,1.779
		c0.595,0.455,1.371,0.682,2.332,0.682c0.979,0,1.765-0.23,2.354-0.689c0.59-0.461,0.885-1.051,0.885-1.771
		c0-0.699-0.196-1.238-0.592-1.619c-0.395-0.381-1.038-0.66-1.928-0.84l-1.021-0.211c-0.59-0.119-1.01-0.279-1.26-0.479
		c-0.25-0.201-0.375-0.477-0.375-0.826c0-0.379,0.16-0.697,0.48-0.951c0.319-0.256,0.76-0.383,1.319-0.383
		c0.57,0,1.016,0.127,1.335,0.383c0.32,0.254,0.48,0.576,0.48,0.967v0.225h1.245v-0.209c0-0.711-0.272-1.285-0.817-1.727
		c-0.545-0.439-1.293-0.658-2.243-0.658s-1.694,0.223-2.234,0.668C872.117,80.608,871.847,81.18,871.847,81.881 M865.683,76.331
		h-1.245v11.76h1.245V76.331z M862.293,76.331h-1.245v11.76h1.245V76.331z M858.903,76.331h-1.245v1.635h1.245V76.331z
		 M858.903,79.69h-1.245v8.4h1.245V79.69z M856.263,76.27c-0.29-0.039-0.6-0.059-0.93-0.059c-0.95,0-1.623,0.18-2.019,0.539
		c-0.395,0.359-0.592,0.984-0.592,1.875v1.064h-1.245v1.035h1.245v7.365h1.245v-7.365h2.295V79.69h-2.295V78.7
		c0-0.549,0.105-0.93,0.315-1.139c0.21-0.211,0.604-0.314,1.185-0.314h0.795V76.27z M848.2,86.395
		c-0.375,0.57-0.982,0.855-1.822,0.855s-1.445-0.285-1.815-0.855c-0.369-0.57-0.555-1.404-0.555-2.504
		c0-1.09,0.186-1.922,0.555-2.498c0.37-0.574,0.976-0.863,1.815-0.863c1.59,0,2.385,1.121,2.385,3.361
		C848.763,84.991,848.575,85.825,848.2,86.395 M847.825,79.901c-0.445-0.27-0.987-0.404-1.627-0.404c-1.11,0-1.96,0.369-2.551,1.109
		c-0.59,0.74-0.885,1.834-0.885,3.285c0,1.449,0.295,2.545,0.885,3.285c0.591,0.74,1.44,1.109,2.551,1.109
		c0.64,0,1.182-0.135,1.627-0.404c0.444-0.271,0.758-0.641,0.938-1.111v1.32h1.245v-11.76h-1.245v4.68
		C848.583,80.542,848.27,80.17,847.825,79.901 M840.354,80.381c-0.505-0.59-1.231-0.885-2.182-0.885c-1.36,0-2.265,0.559-2.715,1.68
		V79.69h-1.245v8.4h1.245v-4.32c0-1.01,0.225-1.801,0.675-2.377c0.45-0.574,1.03-0.863,1.74-0.863c0.67,0,1.172,0.211,1.508,0.631
		c0.334,0.42,0.502,1.09,0.502,2.01v4.92h1.23v-5.219C841.113,81.801,840.86,80.971,840.354,80.381 M830.485,86.823
		c-0.386,0.285-0.952,0.428-1.702,0.428s-1.318-0.143-1.702-0.428c-0.386-0.283-0.578-0.688-0.578-1.207
		c0-0.51,0.195-0.91,0.585-1.199c0.39-0.291,0.955-0.436,1.695-0.436c0.739,0,1.305,0.145,1.694,0.436
		c0.391,0.289,0.585,0.689,0.585,1.199C831.063,86.135,830.87,86.54,830.485,86.823 M831.228,88.09h1.261
		c-0.131-0.369-0.195-0.754-0.195-1.154v-4.32c0-0.971-0.285-1.732-0.855-2.287c-0.569-0.555-1.404-0.832-2.505-0.832
		c-1.02,0-1.814,0.232-2.385,0.697s-0.89,1.107-0.96,1.928h1.275c0.119-1.061,0.81-1.592,2.069-1.592
		c0.69,0,1.218,0.186,1.583,0.557c0.364,0.369,0.547,0.875,0.547,1.514v1.426c-0.38-0.721-1.234-1.08-2.564-1.08
		c-1,0-1.79,0.238-2.37,0.713s-0.87,1.127-0.87,1.957c0,0.84,0.29,1.494,0.87,1.965s1.37,0.705,2.37,0.705
		c1.35,0,2.205-0.359,2.564-1.08C831.063,87.545,831.118,87.84,831.228,88.09 M823.563,76.331h-1.244v11.76h1.244V76.331z
		 M812.568,80.53c1.47,0,2.255,0.926,2.354,2.775h-4.725C810.298,81.456,811.088,80.53,812.568,80.53 M814.038,86.801
		c-0.38,0.299-0.86,0.449-1.44,0.449c-1.56,0-2.365-1-2.415-3h6v-0.359c0-1.41-0.302-2.496-0.907-3.256
		c-0.604-0.76-1.508-1.139-2.707-1.139c-1.2,0-2.103,0.379-2.707,1.139c-0.605,0.76-0.908,1.846-0.908,3.256
		c0,1.42,0.303,2.508,0.908,3.262c0.604,0.756,1.517,1.133,2.736,1.133c0.95,0,1.719-0.232,2.303-0.697
		c0.586-0.465,0.952-1.123,1.103-1.973h-1.275C814.647,86.106,814.418,86.5,814.038,86.801 M808.173,80.575l0.016-1.02
		c-0.12-0.039-0.331-0.059-0.631-0.059c-1.27,0-2.08,0.559-2.43,1.68V79.69h-1.245v8.4h1.245v-4.275
		c0-1.068,0.215-1.881,0.645-2.436c0.431-0.557,1.011-0.834,1.74-0.834C807.772,80.545,807.993,80.555,808.173,80.575
		 M801.828,76.331h-1.245v1.635h1.245V76.331z M801.828,79.69h-1.245v8.4h1.245V79.69z M798.964,80.725V79.69h-2.445v-2.385h-1.245
		v2.385h-1.244v1.035h1.244v5.146c0,0.869,0.207,1.477,0.622,1.822s1.098,0.518,2.049,0.518c0.469,0,0.81-0.012,1.02-0.031v-1.004
		h-0.825c-0.591,0-1.008-0.104-1.253-0.307c-0.245-0.205-0.367-0.604-0.367-1.193v-4.951H798.964z M792.041,80.381
		c-0.505-0.59-1.233-0.885-2.182-0.885c-1.361,0-2.266,0.559-2.716,1.68V79.69h-1.245v8.4h1.245v-4.32
		c0-1.01,0.226-1.801,0.676-2.377c0.449-0.574,1.028-0.863,1.739-0.863c0.669,0,1.172,0.211,1.508,0.631
		c0.334,0.42,0.503,1.09,0.503,2.01v4.92h1.229v-5.219C792.799,81.801,792.546,80.971,792.041,80.381 M780.604,80.53
		c1.471,0,2.256,0.926,2.355,2.775h-4.725C778.334,81.456,779.124,80.53,780.604,80.53 M782.074,86.801
		c-0.38,0.299-0.86,0.449-1.44,0.449c-1.56,0-2.365-1-2.415-3h6v-0.359c0-1.41-0.303-2.496-0.908-3.256
		c-0.604-0.76-1.507-1.139-2.707-1.139c-1.199,0-2.103,0.379-2.708,1.139c-0.604,0.76-0.906,1.846-0.906,3.256
		c0,1.42,0.302,2.508,0.906,3.262c0.605,0.756,1.519,1.133,2.738,1.133c0.95,0,1.717-0.232,2.302-0.697s0.953-1.123,1.104-1.973
		h-1.275C782.684,86.106,782.454,86.5,782.074,86.801 M767.629,80.53c1.47,0,2.255,0.926,2.355,2.775h-4.726
		C765.359,81.456,766.148,80.53,767.629,80.53 M769.099,86.801c-0.38,0.299-0.859,0.449-1.439,0.449c-1.561,0-2.365-1-2.415-3h6
		v-0.359c0-1.41-0.303-2.496-0.907-3.256c-0.606-0.76-1.508-1.139-2.708-1.139s-2.102,0.379-2.707,1.139s-0.908,1.846-0.908,3.256
		c0,1.42,0.303,2.508,0.908,3.262c0.605,0.756,1.517,1.133,2.737,1.133c0.95,0,1.718-0.232,2.303-0.697s0.952-1.123,1.102-1.973
		h-1.274C769.709,86.106,769.479,86.5,769.099,86.801 M761.606,80.381c-0.505-0.59-1.232-0.885-2.183-0.885
		c-1.36,0-2.265,0.559-2.715,1.68v-4.846h-1.245v11.76h1.245v-4.32c0-1.01,0.225-1.801,0.675-2.377
		c0.45-0.574,1.03-0.863,1.74-0.863c0.67,0,1.172,0.211,1.508,0.631c0.335,0.42,0.502,1.09,0.502,2.01v4.92h1.23v-5.219
		C762.364,81.801,762.111,80.971,761.606,80.381 M753.934,80.725V79.69h-2.444v-2.385h-1.245v2.385h-1.245v1.035h1.245v5.146
		c0,0.869,0.208,1.477,0.623,1.822s1.097,0.518,2.047,0.518c0.47,0,0.81-0.012,1.02-0.031v-1.004h-0.824
		c-0.591,0-1.008-0.104-1.253-0.307c-0.244-0.205-0.367-0.604-0.367-1.193v-4.951H753.934z M739.64,87.25
		c-0.84,0-1.448-0.285-1.823-0.855s-0.562-1.404-0.562-2.504c0-2.24,0.795-3.361,2.385-3.361c1.58,0,2.37,1.121,2.37,3.361
		S741.22,87.25,739.64,87.25 M741.447,90.34c-0.375,0.41-0.917,0.615-1.627,0.615c-0.58,0-1.054-0.131-1.418-0.391
		c-0.365-0.26-0.588-0.625-0.668-1.094h-1.26c0.1,0.779,0.442,1.395,1.027,1.844c0.585,0.451,1.357,0.676,2.318,0.676
		c1.14,0,1.996-0.32,2.571-0.961c0.575-0.639,0.863-1.484,0.863-2.533V79.69h-1.245v1.32c-0.189-0.469-0.503-0.84-0.938-1.109
		c-0.436-0.27-0.974-0.404-1.612-0.404c-1.11,0-1.96,0.369-2.55,1.109c-0.591,0.74-0.885,1.834-0.885,3.285
		c0,1.449,0.294,2.545,0.885,3.285c0.59,0.74,1.439,1.109,2.55,1.109c0.639,0,1.177-0.135,1.612-0.404
		c0.435-0.271,0.748-0.635,0.938-1.096v1.801C742.01,89.346,741.822,89.93,741.447,90.34 M733.617,80.381
		c-0.505-0.59-1.232-0.885-2.183-0.885c-1.359,0-2.265,0.559-2.715,1.68V79.69h-1.245v8.4h1.245v-4.32
		c0-1.01,0.226-1.801,0.675-2.377c0.45-0.574,1.029-0.863,1.74-0.863c0.669,0,1.172,0.211,1.507,0.631s0.503,1.09,0.503,2.01v4.92
		h1.23v-5.219C734.375,81.801,734.122,80.971,733.617,80.381 M725.42,76.331h-1.245v1.635h1.245V76.331z M725.42,79.69h-1.245v8.4
		h1.245V79.69z M722.81,80.575l0.016-1.02c-0.12-0.039-0.33-0.059-0.63-0.059c-1.271,0-2.08,0.559-2.431,1.68V79.69h-1.245v8.4
		h1.245v-4.275c0-1.068,0.215-1.881,0.646-2.436c0.43-0.557,1.01-0.834,1.74-0.834C722.41,80.545,722.63,80.555,722.81,80.575
		 M713.225,80.53c1.471,0,2.255,0.926,2.355,2.775h-4.726C710.955,81.456,711.745,80.53,713.225,80.53 M714.695,86.801
		c-0.381,0.299-0.86,0.449-1.44,0.449c-1.56,0-2.365-1-2.415-3h6v-0.359c0-1.41-0.302-2.496-0.907-3.256s-1.508-1.139-2.708-1.139
		c-1.199,0-2.103,0.379-2.707,1.139c-0.605,0.76-0.908,1.846-0.908,3.256c0,1.42,0.303,2.508,0.908,3.262
		c0.604,0.756,1.518,1.133,2.737,1.133c0.95,0,1.718-0.232,2.303-0.697s0.952-1.123,1.103-1.973h-1.275
		C715.305,86.106,715.075,86.5,714.695,86.801 M708.8,79.69h-1.32l-2.609,6.977l-2.61-6.977h-1.32l3.211,8.4h1.439L708.8,79.69z
		 M698.338,86.395c-0.375,0.57-0.983,0.855-1.823,0.855s-1.444-0.285-1.814-0.855s-0.556-1.404-0.556-2.504
		c0-1.09,0.186-1.922,0.556-2.498c0.37-0.574,0.975-0.863,1.814-0.863c1.59,0,2.386,1.121,2.386,3.361
		C698.9,84.991,698.713,85.825,698.338,86.395 M696.515,79.497c-1.2,0-2.102,0.379-2.707,1.139s-0.907,1.846-0.907,3.256
		s0.302,2.494,0.907,3.254s1.507,1.141,2.707,1.141s2.105-0.381,2.715-1.141c0.61-0.76,0.915-1.844,0.915-3.254
		s-0.305-2.496-0.915-3.256C698.62,79.875,697.715,79.497,696.515,79.497 M688.16,88.286c1.02,0,1.83-0.25,2.43-0.75
		s0.955-1.215,1.065-2.145h-1.261c-0.08,0.59-0.31,1.047-0.689,1.371c-0.38,0.326-0.896,0.488-1.545,0.488
		c-0.84,0-1.445-0.285-1.815-0.855s-0.555-1.404-0.555-2.504c0-1.09,0.185-1.922,0.555-2.498c0.37-0.574,0.976-0.863,1.815-0.863
		c0.649,0,1.165,0.164,1.545,0.488c0.38,0.326,0.609,0.783,0.689,1.373h1.261c-0.11-0.93-0.466-1.645-1.065-2.145
		s-1.41-0.75-2.43-0.75c-1.2,0-2.103,0.379-2.707,1.139c-0.605,0.76-0.908,1.846-0.908,3.256s0.303,2.494,0.908,3.254
		C686.058,87.905,686.96,88.286,688.16,88.286 M678.425,76.331h-1.245v1.635h1.245V76.331z M678.425,79.69h-1.245v8.4h1.245V79.69z
		 M670.206,88.09v-5.279h4.875V81.67h-4.875v-4.199h5.399v-1.141H668.9v11.76H670.206z M666.936,82.061h-4.949v1.109h4.949V82.061z
		 M660.096,76.331h-1.245v1.635h1.245V76.331z M660.096,79.69h-1.245v8.4h1.245V79.69z M657.516,76.331h-1.35l-2.73,9.945
		l-2.85-9.945h-1.29l-2.85,9.945l-2.73-9.945h-1.35l3.239,11.76h1.561l2.774-9.615l2.761,9.615h1.56L657.516,76.331z
		 M634.978,86.395c-0.375,0.57-0.981,0.855-1.821,0.855c-0.841,0-1.445-0.285-1.815-0.855s-0.555-1.404-0.555-2.504
		c0-1.09,0.185-1.922,0.555-2.498c0.37-0.574,0.975-0.863,1.815-0.863c1.59,0,2.385,1.121,2.385,3.361
		C635.541,84.991,635.353,85.825,634.978,86.395 M634.603,79.901c-0.444-0.27-0.986-0.404-1.627-0.404
		c-1.109,0-1.96,0.369-2.55,1.109s-0.885,1.834-0.885,3.285c0,1.449,0.295,2.545,0.885,3.285s1.44,1.109,2.55,1.109
		c0.641,0,1.183-0.135,1.627-0.404c0.445-0.271,0.759-0.641,0.938-1.111v1.32h1.245v-11.76h-1.245v4.68
		C635.361,80.542,635.048,80.17,634.603,79.901 M624.546,80.53c1.47,0,2.255,0.926,2.354,2.775h-4.725
		C622.275,81.456,623.065,80.53,624.546,80.53 M626.016,86.801c-0.38,0.299-0.859,0.449-1.439,0.449c-1.561,0-2.365-1-2.415-3h6
		v-0.359c0-1.41-0.302-2.496-0.907-3.256s-1.508-1.139-2.708-1.139s-2.102,0.379-2.707,1.139c-0.604,0.76-0.908,1.846-0.908,3.256
		c0,1.42,0.304,2.508,0.908,3.262c0.605,0.756,1.517,1.133,2.737,1.133c0.949,0,1.718-0.232,2.303-0.697s0.952-1.123,1.102-1.973
		h-1.274C626.626,86.106,626.396,86.5,626.016,86.801 M619.896,80.725V79.69h-2.444v-2.385h-1.245v2.385h-1.245v1.035h1.245v5.146
		c0,0.869,0.207,1.477,0.623,1.822c0.414,0.346,1.097,0.518,2.047,0.518c0.47,0,0.81-0.012,1.02-0.031v-1.004h-0.824
		c-0.591,0-1.008-0.104-1.252-0.307c-0.246-0.205-0.368-0.604-0.368-1.193v-4.951H619.896z M611.968,86.823
		c-0.385,0.285-0.952,0.428-1.702,0.428s-1.317-0.143-1.703-0.428c-0.385-0.283-0.576-0.688-0.576-1.207
		c0-0.51,0.194-0.91,0.585-1.199c0.39-0.291,0.954-0.436,1.694-0.436s1.306,0.145,1.695,0.436c0.39,0.289,0.585,0.689,0.585,1.199
		C612.546,86.135,612.353,86.54,611.968,86.823 M612.711,88.09h1.26c-0.13-0.369-0.195-0.754-0.195-1.154v-4.32
		c0-0.971-0.284-1.732-0.854-2.287s-1.405-0.832-2.505-0.832c-1.021,0-1.815,0.232-2.385,0.697c-0.57,0.465-0.891,1.107-0.96,1.928
		h1.274c0.12-1.061,0.811-1.592,2.07-1.592c0.689,0,1.217,0.186,1.582,0.557c0.365,0.369,0.548,0.875,0.548,1.514v1.426
		c-0.38-0.721-1.235-1.08-2.565-1.08c-1,0-1.79,0.238-2.369,0.713c-0.58,0.475-0.87,1.127-0.87,1.957c0,0.84,0.29,1.494,0.87,1.965
		c0.579,0.471,1.369,0.705,2.369,0.705c1.351,0,2.205-0.359,2.565-1.08C612.546,87.545,612.601,87.84,612.711,88.09 M606.081,80.575
		l0.015-1.02c-0.12-0.039-0.33-0.059-0.63-0.059c-1.27,0-2.08,0.559-2.43,1.68V79.69h-1.245v8.4h1.245v-4.275
		c0-1.068,0.215-1.881,0.645-2.436c0.431-0.557,1.01-0.834,1.74-0.834C605.681,80.545,605.9,80.555,606.081,80.575 M596.496,80.53
		c1.47,0,2.255,0.926,2.354,2.775h-4.725C594.226,81.456,595.016,80.53,596.496,80.53 M597.966,86.801
		c-0.38,0.299-0.86,0.449-1.44,0.449c-1.56,0-2.364-1-2.414-3h6v-0.359c0-1.41-0.303-2.496-0.907-3.256
		c-0.605-0.76-1.508-1.139-2.708-1.139s-2.103,0.379-2.707,1.139c-0.605,0.76-0.908,1.846-0.908,3.256
		c0,1.42,0.303,2.508,0.908,3.262c0.604,0.756,1.517,1.133,2.736,1.133c0.95,0,1.719-0.232,2.304-0.697s0.952-1.123,1.102-1.973
		h-1.274C598.576,86.106,598.346,86.5,597.966,86.801 M587.886,80.53c1.58,0,2.37,1.121,2.37,3.361s-0.79,3.359-2.37,3.359
		c-0.84,0-1.447-0.285-1.822-0.855s-0.563-1.404-0.563-2.504C585.501,81.651,586.296,80.53,587.886,80.53 M588.065,88.286
		c1.11,0,1.96-0.369,2.551-1.109c0.59-0.74,0.885-1.836,0.885-3.285c0-1.451-0.295-2.545-0.885-3.285
		c-0.591-0.74-1.44-1.109-2.551-1.109c-0.64,0-1.18,0.135-1.619,0.404c-0.44,0.27-0.756,0.641-0.945,1.109v-1.32h-1.23V91.75h1.23
		v-4.965C585.921,87.786,586.775,88.286,588.065,88.286 M580.799,86.395c-0.375,0.57-0.983,0.855-1.823,0.855
		s-1.444-0.285-1.814-0.855s-0.556-1.404-0.556-2.504c0-1.09,0.186-1.922,0.556-2.498c0.37-0.574,0.975-0.863,1.814-0.863
		c1.59,0,2.386,1.121,2.386,3.361C581.361,84.991,581.174,85.825,580.799,86.395 M578.976,79.497c-1.2,0-2.102,0.379-2.707,1.139
		c-0.604,0.76-0.907,1.846-0.907,3.256s0.303,2.494,0.907,3.254c0.605,0.76,1.507,1.141,2.707,1.141s2.105-0.381,2.715-1.141
		c0.61-0.76,0.915-1.844,0.915-3.254s-0.305-2.496-0.915-3.256C581.081,79.875,580.176,79.497,578.976,79.497 M573.862,82.061h-4.95
		v1.109h4.95V82.061z M567.771,76.27c-0.29-0.039-0.6-0.059-0.93-0.059c-0.95,0-1.623,0.18-2.018,0.539
		c-0.396,0.359-0.593,0.984-0.593,1.875v1.064h-1.244v1.035h1.244v7.365h1.245v-7.365h2.295V79.69h-2.295V78.7
		c0-0.549,0.105-0.93,0.315-1.139c0.21-0.211,0.604-0.314,1.185-0.314h0.795V76.27z M561.427,76.331h-1.245v11.76h1.245V76.331z
		 M554.797,80.53c1.47,0,2.255,0.926,2.355,2.775h-4.726C552.527,81.456,553.316,80.53,554.797,80.53 M556.267,86.801
		c-0.38,0.299-0.859,0.449-1.439,0.449c-1.561,0-2.365-1-2.415-3h6v-0.359c0-1.41-0.303-2.496-0.908-3.256s-1.507-1.139-2.707-1.139
		s-2.103,0.379-2.708,1.139c-0.604,0.76-0.907,1.846-0.907,3.256c0,1.42,0.303,2.508,0.907,3.262
		c0.605,0.756,1.518,1.133,2.738,1.133c0.95,0,1.717-0.232,2.302-0.697s0.953-1.123,1.103-1.973h-1.274
		C556.877,86.106,556.646,86.5,556.267,86.801 M546.712,81.641l-1.515-0.316c-1.351-0.289-2.025-0.959-2.025-2.01
		c0-0.619,0.217-1.115,0.652-1.484c0.435-0.369,1.038-0.555,1.808-0.555c0.771,0,1.37,0.186,1.8,0.555
		c0.431,0.369,0.646,0.865,0.646,1.484v0.227h1.305v-0.227c0-0.91-0.33-1.666-0.99-2.271s-1.58-0.908-2.76-0.908
		s-2.1,0.303-2.76,0.908s-0.99,1.361-0.99,2.271c0,1.682,0.97,2.721,2.91,3.121l1.515,0.314c1.48,0.301,2.221,1.035,2.221,2.205
		c0,0.65-0.24,1.18-0.721,1.59c-0.479,0.41-1.13,0.615-1.95,0.615c-0.829,0-1.484-0.205-1.965-0.615
		c-0.479-0.41-0.72-0.939-0.72-1.59v-0.33h-1.29v0.314c0,0.98,0.353,1.783,1.057,2.408c0.705,0.625,1.679,0.938,2.918,0.938
		c1.23,0,2.197-0.313,2.902-0.938s1.058-1.428,1.058-2.408C549.816,83.18,548.782,82.081,546.712,81.641"/>
</g>
<text transform="matrix(1 0 0 1 895.8623 88.106)" font-family="'S-CoreDream-4Regular'" font-size="15">    </text>
<g>
	<defs>
		<rect id="SVGID_9_" width="1018" height="145.252"/>
	</defs>
	<clipPath id="SVGID_10_">
		<use xlink:href="#SVGID_9_"  overflow="visible"/>
	</clipPath>
	<circle clip-path="url(#SVGID_10_)" fill="none" stroke="#E47476" stroke-width="4" cx="148.563" cy="108.563" r="7.063"/>
</g>
<text transform="matrix(1 0 0 1 157.6265 115.106)" font-family="'S-CoreDream-4Regular'" font-size="15"> </text>
<g>
	<defs>
		<rect id="SVGID_11_" width="1018" height="145.252"/>
	</defs>
	<clipPath id="SVGID_12_">
		<use xlink:href="#SVGID_11_"  overflow="visible"/>
	</clipPath>
	<path clip-path="url(#SVGID_12_)" d="M484.338,107.53c1.47,0,2.255,0.926,2.354,2.775h-4.725
		C482.067,108.456,482.857,107.53,484.338,107.53 M485.808,113.799c-0.38,0.301-0.86,0.451-1.44,0.451c-1.56,0-2.364-1-2.415-3h6
		v-0.359c0-1.41-0.303-2.494-0.907-3.256c-0.605-0.76-1.508-1.139-2.707-1.139c-1.2,0-2.104,0.379-2.708,1.139
		c-0.605,0.762-0.907,1.846-0.907,3.256c0,1.42,0.302,2.508,0.907,3.262c0.604,0.756,1.518,1.133,2.737,1.133
		c0.95,0,1.718-0.232,2.303-0.697s0.952-1.123,1.103-1.973h-1.275C486.418,113.106,486.188,113.5,485.808,113.799 M475.428,114.25
		c-0.84,0-1.447-0.285-1.822-0.855s-0.563-1.404-0.563-2.504c0-2.24,0.795-3.361,2.385-3.361c1.58,0,2.37,1.121,2.37,3.361
		S477.008,114.25,475.428,114.25 M477.235,117.34c-0.375,0.41-0.918,0.615-1.628,0.615c-0.58,0-1.053-0.131-1.418-0.391
		s-0.587-0.625-0.667-1.096h-1.26c0.1,0.781,0.441,1.396,1.027,1.846c0.585,0.451,1.357,0.676,2.317,0.676
		c1.14,0,1.997-0.32,2.572-0.961c0.575-0.639,0.863-1.484,0.863-2.533v-8.807h-1.245v1.32c-0.19-0.469-0.502-0.84-0.938-1.109
		c-0.435-0.271-0.973-0.404-1.613-0.404c-1.109,0-1.96,0.369-2.55,1.109s-0.885,1.836-0.885,3.285s0.295,2.545,0.885,3.283
		c0.59,0.742,1.44,1.111,2.55,1.111c0.641,0,1.179-0.135,1.613-0.406c0.436-0.27,0.747-0.633,0.938-1.094v1.799
		C477.798,116.344,477.61,116.93,477.235,117.34 M468.341,113.395c-0.375,0.57-0.983,0.855-1.823,0.855s-1.445-0.285-1.815-0.855
		s-0.555-1.404-0.555-2.504c0-1.09,0.185-1.924,0.555-2.498s0.976-0.863,1.815-0.863c1.59,0,2.385,1.121,2.385,3.361
		C468.902,111.991,468.716,112.825,468.341,113.395 M467.966,106.901c-0.446-0.271-0.988-0.404-1.628-0.404
		c-1.11,0-1.96,0.369-2.551,1.109c-0.59,0.74-0.885,1.836-0.885,3.285s0.295,2.545,0.885,3.283c0.591,0.742,1.44,1.111,2.551,1.111
		c0.64,0,1.182-0.135,1.628-0.406c0.443-0.27,0.757-0.639,0.937-1.109v1.32h1.245v-11.76h-1.245v4.68
		C468.723,107.542,468.409,107.17,467.966,106.901 M461.147,103.331h-1.245v1.635h1.245V103.331z M461.147,106.69h-1.245v8.4h1.245
		V106.69z M458.537,107.577l0.016-1.021c-0.12-0.039-0.33-0.059-0.63-0.059c-1.271,0-2.08,0.561-2.431,1.678v-1.484h-1.245v8.4
		h1.245v-4.275c0-1.068,0.215-1.881,0.646-2.438c0.43-0.555,1.01-0.832,1.74-0.832C458.138,107.545,458.357,107.557,458.537,107.577
		 M448.968,107.53c1.58,0,2.37,1.121,2.37,3.361s-0.79,3.359-2.37,3.359c-0.84,0-1.447-0.285-1.822-0.855s-0.563-1.404-0.563-2.504
		C446.582,108.651,447.378,107.53,448.968,107.53 M445.338,103.331v11.76h1.244v-1.32c0.4,1.012,1.256,1.516,2.565,1.516
		c1.11,0,1.958-0.369,2.543-1.111c0.585-0.738,0.877-1.834,0.877-3.283s-0.292-2.545-0.877-3.285s-1.433-1.109-2.543-1.109
		c-1.31,0-2.165,0.504-2.565,1.514v-4.68H445.338z M442.631,107.379c-0.506-0.588-1.233-0.883-2.184-0.883
		c-1.359,0-2.265,0.561-2.715,1.678v-4.844h-1.244v11.76h1.244v-4.32c0-1.01,0.225-1.803,0.675-2.377s1.03-0.863,1.74-0.863
		c0.67,0,1.173,0.211,1.508,0.631s0.502,1.09,0.502,2.01v4.92h1.23v-5.219C443.388,108.801,443.136,107.971,442.631,107.379
		 M430.894,114.25c-0.84,0-1.448-0.285-1.823-0.855s-0.562-1.404-0.562-2.504c0-2.24,0.795-3.361,2.385-3.361
		c1.579,0,2.37,1.121,2.37,3.361S432.473,114.25,430.894,114.25 M432.7,117.34c-0.375,0.41-0.918,0.615-1.627,0.615
		c-0.58,0-1.053-0.131-1.418-0.391s-0.588-0.625-0.667-1.096h-1.26c0.099,0.781,0.442,1.396,1.027,1.846
		c0.585,0.451,1.357,0.676,2.317,0.676c1.141,0,1.997-0.32,2.572-0.961c0.575-0.639,0.863-1.484,0.863-2.533v-8.807h-1.245v1.32
		c-0.191-0.469-0.503-0.84-0.938-1.109c-0.435-0.271-0.973-0.404-1.611-0.404c-1.11,0-1.961,0.369-2.551,1.109
		c-0.591,0.74-0.885,1.836-0.885,3.285s0.294,2.545,0.885,3.283c0.59,0.742,1.44,1.111,2.551,1.111c0.639,0,1.177-0.135,1.611-0.406
		c0.436-0.27,0.747-0.633,0.938-1.094v1.799C433.264,116.344,433.075,116.93,432.7,117.34 M425.523,103.331h-1.245v1.635h1.245
		V103.331z M425.523,106.69h-1.245v8.4h1.245V106.69z M418.894,107.53c1.47,0,2.255,0.926,2.354,2.775h-4.725
		C416.623,108.456,417.413,107.53,418.894,107.53 M420.363,113.799c-0.38,0.301-0.859,0.451-1.439,0.451c-1.561,0-2.365-1-2.415-3h6
		v-0.359c0-1.41-0.304-2.494-0.908-3.256c-0.605-0.76-1.507-1.139-2.707-1.139s-2.104,0.379-2.708,1.139
		c-0.605,0.762-0.907,1.846-0.907,3.256c0,1.42,0.302,2.508,0.907,3.262c0.604,0.756,1.518,1.133,2.738,1.133
		c0.949,0,1.717-0.232,2.302-0.697s0.953-1.123,1.103-1.973h-1.274C420.974,113.106,420.743,113.5,420.363,113.799 M405.139,113.561
		l-2.205-6.871h-1.29l2.805,8.4h1.365l2.205-6.871l2.235,6.871h1.35l2.82-8.4h-1.306l-2.205,6.871l-2.22-6.871h-1.32
		L405.139,113.561z M394.241,113.395c-0.375,0.57-0.982,0.855-1.822,0.855c-0.841,0-1.445-0.285-1.815-0.855
		s-0.555-1.404-0.555-2.504c0-1.09,0.185-1.924,0.555-2.498s0.975-0.863,1.815-0.863c1.59,0,2.385,1.121,2.385,3.361
		C394.804,111.991,394.616,112.825,394.241,113.395 M393.866,106.901c-0.444-0.271-0.987-0.404-1.628-0.404
		c-1.109,0-1.96,0.369-2.55,1.109s-0.885,1.836-0.885,3.285s0.295,2.545,0.885,3.283c0.59,0.742,1.44,1.111,2.55,1.111
		c0.641,0,1.184-0.135,1.628-0.406c0.445-0.27,0.757-0.639,0.938-1.109v1.32h1.245v-11.76h-1.245v4.68
		C394.623,107.542,394.312,107.17,393.866,106.901 M383.809,107.53c1.47,0,2.255,0.926,2.354,2.775h-4.725
		C381.538,108.456,382.328,107.53,383.809,107.53 M385.278,113.799c-0.38,0.301-0.859,0.451-1.439,0.451c-1.561,0-2.365-1-2.415-3h6
		v-0.359c0-1.41-0.303-2.494-0.907-3.256c-0.605-0.76-1.508-1.139-2.708-1.139s-2.103,0.379-2.707,1.139
		c-0.605,0.762-0.908,1.846-0.908,3.256c0,1.42,0.303,2.508,0.908,3.262c0.604,0.756,1.517,1.133,2.737,1.133
		c0.949,0,1.718-0.232,2.303-0.697s0.952-1.123,1.102-1.973h-1.274C385.889,113.106,385.658,113.5,385.278,113.799 M379.158,107.725
		v-1.035h-2.444v-2.385h-1.245v2.385h-1.245v1.035h1.245v5.146c0,0.869,0.208,1.477,0.623,1.822
		c0.415,0.344,1.097,0.516,2.047,0.516c0.47,0,0.81-0.01,1.02-0.029v-1.006h-0.824c-0.591,0-1.008-0.102-1.253-0.307
		c-0.244-0.205-0.367-0.602-0.367-1.193v-4.949H379.158z M371.231,113.823c-0.385,0.285-0.953,0.428-1.703,0.428
		s-1.317-0.143-1.702-0.428s-0.578-0.688-0.578-1.207c0-0.51,0.195-0.91,0.586-1.201c0.39-0.289,0.954-0.434,1.694-0.434
		s1.306,0.145,1.695,0.434c0.39,0.291,0.585,0.691,0.585,1.201C371.809,113.135,371.615,113.538,371.231,113.823 M371.974,115.09
		h1.26c-0.13-0.369-0.195-0.754-0.195-1.154v-4.32c0-0.969-0.284-1.732-0.854-2.287s-1.405-0.832-2.505-0.832
		c-1.021,0-1.815,0.232-2.385,0.697c-0.57,0.465-0.891,1.107-0.96,1.928h1.274c0.12-1.061,0.811-1.592,2.07-1.592
		c0.689,0,1.217,0.186,1.583,0.555c0.365,0.371,0.547,0.877,0.547,1.516v1.426c-0.38-0.721-1.235-1.08-2.565-1.08
		c-1,0-1.79,0.238-2.37,0.713c-0.579,0.475-0.869,1.127-0.869,1.957c0,0.84,0.29,1.496,0.869,1.965
		c0.58,0.471,1.37,0.705,2.37,0.705c1.351,0,2.205-0.361,2.565-1.08C371.809,114.545,371.863,114.84,371.974,115.09
		 M365.344,107.577l0.015-1.021c-0.12-0.039-0.33-0.059-0.63-0.059c-1.27,0-2.08,0.561-2.43,1.678v-1.484h-1.245v8.4h1.245v-4.275
		c0-1.068,0.215-1.881,0.645-2.438c0.43-0.555,1.01-0.832,1.74-0.832C364.943,107.545,365.163,107.557,365.344,107.577
		 M355.459,114.25c-0.841,0-1.447-0.285-1.822-0.855s-0.563-1.404-0.563-2.504c0-2.24,0.795-3.361,2.386-3.361
		c1.579,0,2.369,1.121,2.369,3.361S357.038,114.25,355.459,114.25 M357.267,117.34c-0.375,0.41-0.918,0.615-1.628,0.615
		c-0.58,0-1.052-0.131-1.417-0.391s-0.588-0.625-0.668-1.096h-1.26c0.1,0.781,0.442,1.396,1.027,1.846
		c0.585,0.451,1.357,0.676,2.317,0.676c1.14,0,1.998-0.32,2.573-0.961c0.574-0.639,0.861-1.484,0.861-2.533v-8.807h-1.245v1.32
		c-0.189-0.469-0.502-0.84-0.937-1.109c-0.436-0.271-0.973-0.404-1.613-0.404c-1.109,0-1.96,0.369-2.55,1.109
		s-0.885,1.836-0.885,3.285s0.295,2.545,0.885,3.283c0.59,0.742,1.44,1.111,2.55,1.111c0.641,0,1.178-0.135,1.613-0.406
		c0.435-0.27,0.747-0.633,0.937-1.094v1.799C357.828,116.344,357.642,116.93,357.267,117.34 M346.85,107.53
		c1.47,0,2.254,0.926,2.354,2.775h-4.724C344.578,108.456,345.368,107.53,346.85,107.53 M348.319,113.799
		c-0.381,0.301-0.86,0.451-1.439,0.451c-1.561,0-2.366-1-2.415-3h6v-0.359c0-1.41-0.304-2.494-0.908-3.256
		c-0.605-0.76-1.508-1.139-2.707-1.139c-1.201,0-2.104,0.379-2.708,1.139c-0.605,0.762-0.908,1.846-0.908,3.256
		c0,1.42,0.303,2.508,0.908,3.262c0.604,0.756,1.517,1.133,2.738,1.133c0.948,0,1.717-0.232,2.302-0.697s0.953-1.123,1.103-1.973
		h-1.274C348.929,113.106,348.698,113.5,348.319,113.799 M342.198,107.725v-1.035h-2.444v-2.385h-1.245v2.385h-1.245v1.035h1.245
		v5.146c0,0.869,0.208,1.477,0.623,1.822c0.415,0.344,1.097,0.516,2.047,0.516c0.47,0,0.81-0.01,1.02-0.029v-1.006h-0.825
		c-0.59,0-1.007-0.102-1.252-0.307c-0.244-0.205-0.367-0.602-0.367-1.193v-4.949H342.198z M335.276,107.379
		c-0.505-0.588-1.232-0.883-2.183-0.883c-1.36,0-2.266,0.561-2.715,1.678v-1.484h-1.245v8.4h1.245v-4.32
		c0-1.01,0.225-1.803,0.675-2.377s1.03-0.863,1.74-0.863c0.67,0,1.173,0.211,1.508,0.631s0.502,1.09,0.502,2.01v4.92h1.229v-5.219
		C336.033,108.801,335.781,107.971,335.276,107.379 M327.078,103.331h-1.244v1.635h1.244V103.331z M327.078,106.69h-1.244v8.4h1.244
		V106.69z M317.606,113.395c-0.375,0.57-0.982,0.855-1.822,0.855s-1.444-0.285-1.814-0.855s-0.556-1.404-0.556-2.504
		c0-1.09,0.186-1.924,0.556-2.498s0.975-0.863,1.814-0.863c1.59,0,2.386,1.121,2.386,3.361
		C318.17,111.991,317.981,112.825,317.606,113.395 M317.231,106.901c-0.445-0.271-0.987-0.404-1.627-0.404
		c-1.11,0-1.96,0.369-2.55,1.109s-0.885,1.836-0.885,3.285s0.295,2.545,0.885,3.283c0.59,0.742,1.439,1.111,2.55,1.111
		c0.64,0,1.182-0.135,1.627-0.406c0.445-0.27,0.758-0.639,0.938-1.109v1.32h1.244v-11.76h-1.244v4.68
		C317.989,107.542,317.677,107.17,317.231,106.901 M307.175,107.53c1.47,0,2.255,0.926,2.354,2.775h-4.725
		C304.904,108.456,305.694,107.53,307.175,107.53 M308.645,113.799c-0.38,0.301-0.86,0.451-1.44,0.451c-1.56,0-2.364-1-2.415-3h6
		v-0.359c0-1.41-0.303-2.494-0.907-3.256c-0.605-0.76-1.508-1.139-2.707-1.139c-1.2,0-2.104,0.379-2.708,1.139
		c-0.605,0.762-0.907,1.846-0.907,3.256c0,1.42,0.302,2.508,0.907,3.262c0.604,0.756,1.518,1.133,2.737,1.133
		c0.95,0,1.718-0.232,2.303-0.697s0.953-1.123,1.103-1.973h-1.274C309.255,113.106,309.024,113.5,308.645,113.799 M295.834,108.879
		c0,0.643,0.203,1.146,0.608,1.516c0.405,0.371,1.057,0.645,1.957,0.824l1.035,0.211c0.56,0.111,0.962,0.275,1.208,0.494
		c0.244,0.223,0.367,0.525,0.367,0.916c0,0.42-0.186,0.764-0.556,1.027c-0.369,0.266-0.85,0.398-1.439,0.398
		s-1.068-0.131-1.432-0.391c-0.366-0.26-0.548-0.609-0.548-1.051v-0.285h-1.245v0.285c0,0.732,0.297,1.324,0.893,1.779
		c0.594,0.455,1.372,0.682,2.332,0.682c0.979,0,1.765-0.229,2.354-0.691c0.591-0.459,0.886-1.049,0.886-1.77
		c0-0.699-0.198-1.238-0.593-1.619c-0.396-0.379-1.038-0.66-1.928-0.84l-1.02-0.211c-0.591-0.119-1.01-0.279-1.26-0.48
		c-0.25-0.197-0.375-0.473-0.375-0.824c0-0.379,0.16-0.697,0.48-0.951c0.32-0.256,0.76-0.383,1.32-0.383
		c0.569,0,1.015,0.127,1.335,0.383c0.319,0.254,0.479,0.576,0.479,0.967v0.225h1.245v-0.211c0-0.709-0.273-1.283-0.817-1.725
		c-0.546-0.439-1.293-0.658-2.242-0.658c-0.95,0-1.695,0.221-2.235,0.666S295.834,108.182,295.834,108.879 M292.362,113.823
		c-0.385,0.285-0.953,0.428-1.703,0.428s-1.318-0.143-1.702-0.428c-0.385-0.285-0.578-0.688-0.578-1.207
		c0-0.51,0.195-0.91,0.585-1.201c0.39-0.289,0.955-0.434,1.695-0.434c0.74,0,1.305,0.145,1.695,0.434
		c0.39,0.291,0.585,0.691,0.585,1.201C292.939,113.135,292.747,113.538,292.362,113.823 M293.104,115.09h1.26
		c-0.13-0.369-0.195-0.754-0.195-1.154v-4.32c0-0.969-0.285-1.732-0.855-2.287s-1.405-0.832-2.505-0.832
		c-1.02,0-1.815,0.232-2.385,0.697c-0.57,0.465-0.89,1.107-0.96,1.928h1.275c0.12-1.061,0.81-1.592,2.07-1.592
		c0.69,0,1.217,0.186,1.583,0.555c0.365,0.371,0.547,0.877,0.547,1.516v1.426c-0.38-0.721-1.235-1.08-2.565-1.08
		c-1,0-1.79,0.238-2.37,0.713s-0.87,1.127-0.87,1.957c0,0.84,0.29,1.496,0.87,1.965c0.58,0.471,1.37,0.705,2.37,0.705
		c1.35,0,2.205-0.361,2.565-1.08C292.939,114.545,292.995,114.84,293.104,115.09 M282.214,107.53c1.58,0,2.37,1.121,2.37,3.361
		s-0.79,3.359-2.37,3.359c-0.84,0-1.447-0.285-1.822-0.855s-0.563-1.404-0.563-2.504C279.83,108.651,280.625,107.53,282.214,107.53
		 M278.584,103.331v11.76h1.245v-1.32c0.4,1.012,1.255,1.516,2.565,1.516c1.11,0,1.958-0.369,2.543-1.111
		c0.585-0.738,0.877-1.834,0.877-3.283s-0.292-2.545-0.877-3.285s-1.433-1.109-2.543-1.109c-1.31,0-2.165,0.504-2.565,1.514v-4.68
		H278.584z M276.785,109.061h-4.95v1.109h4.95V109.061z M266.509,104.469v10.621h1.305v-10.621h3.435v-1.139h-8.175v1.139H266.509z
		 M260.359,115.09h1.305v-11.76h-1.305V115.09z M250.536,107.53c1.47,0,2.254,0.926,2.355,2.775h-4.725
		C248.265,108.456,249.055,107.53,250.536,107.53 M252.005,113.799c-0.381,0.301-0.861,0.451-1.44,0.451c-1.56,0-2.366-1-2.415-3h6
		v-0.359c0-1.41-0.303-2.494-0.908-3.256c-0.605-0.76-1.507-1.139-2.707-1.139c-1.2,0-2.103,0.379-2.708,1.139
		c-0.605,0.762-0.907,1.846-0.907,3.256c0,1.42,0.302,2.508,0.907,3.262c0.605,0.756,1.517,1.133,2.738,1.133
		c0.949,0,1.717-0.232,2.302-0.697s0.953-1.123,1.103-1.973h-1.275C252.614,113.106,252.384,113.5,252.005,113.799 M241.625,114.25
		c-0.84,0-1.448-0.285-1.823-0.855s-0.562-1.404-0.562-2.504c0-2.24,0.795-3.361,2.385-3.361c1.58,0,2.37,1.121,2.37,3.361
		S243.206,114.25,241.625,114.25 M243.433,117.34c-0.375,0.41-0.917,0.615-1.627,0.615c-0.58,0-1.053-0.131-1.418-0.391
		c-0.365-0.26-0.587-0.625-0.667-1.096h-1.26c0.099,0.781,0.442,1.396,1.027,1.846c0.585,0.451,1.358,0.676,2.318,0.676
		c1.14,0,1.997-0.32,2.572-0.961c0.575-0.639,0.863-1.484,0.863-2.533v-8.807h-1.245v1.32c-0.19-0.469-0.503-0.84-0.938-1.109
		c-0.435-0.271-0.972-0.404-1.612-0.404c-1.11,0-1.96,0.369-2.55,1.109c-0.591,0.74-0.885,1.836-0.885,3.285
		s0.294,2.545,0.885,3.283c0.59,0.742,1.44,1.111,2.55,1.111c0.64,0,1.177-0.135,1.612-0.406c0.435-0.27,0.748-0.633,0.938-1.094
		v1.799C243.996,116.344,243.808,116.93,243.433,117.34 M234.538,113.395c-0.375,0.57-0.982,0.855-1.822,0.855
		c-0.84,0-1.445-0.285-1.815-0.855s-0.555-1.404-0.555-2.504c0-1.09,0.185-1.924,0.555-2.498s0.975-0.863,1.815-0.863
		c1.59,0,2.385,1.121,2.385,3.361C235.101,111.991,234.913,112.825,234.538,113.395 M234.163,106.901
		c-0.445-0.271-0.987-0.404-1.627-0.404c-1.11,0-1.96,0.369-2.55,1.109c-0.59,0.74-0.885,1.836-0.885,3.285s0.295,2.545,0.885,3.283
		c0.59,0.742,1.44,1.111,2.55,1.111c0.64,0,1.182-0.135,1.627-0.406c0.445-0.27,0.758-0.639,0.938-1.109v1.32h1.245v-11.76h-1.245
		v4.68C234.92,107.542,234.607,107.17,234.163,106.901 M224.105,107.53c1.47,0,2.255,0.926,2.355,2.775h-4.725
		C221.835,108.456,222.625,107.53,224.105,107.53 M225.576,113.799c-0.38,0.301-0.86,0.451-1.44,0.451c-1.56,0-2.365-1-2.415-3h6
		v-0.359c0-1.41-0.303-2.494-0.908-3.256c-0.605-0.76-1.507-1.139-2.707-1.139s-2.103,0.379-2.708,1.139
		c-0.605,0.762-0.907,1.846-0.907,3.256c0,1.42,0.302,2.508,0.907,3.262c0.605,0.756,1.518,1.133,2.738,1.133
		c0.95,0,1.717-0.232,2.302-0.697s0.953-1.123,1.103-1.973h-1.275C226.186,113.106,225.956,113.5,225.576,113.799 M218.991,109.061
		h-4.95v1.109h4.95V109.061z M208.61,114.25c-0.84,0-1.447-0.285-1.822-0.855s-0.563-1.404-0.563-2.504
		c0-2.24,0.795-3.361,2.385-3.361c1.58,0,2.37,1.121,2.37,3.361S210.19,114.25,208.61,114.25 M210.418,117.34
		c-0.375,0.41-0.918,0.615-1.628,0.615c-0.58,0-1.053-0.131-1.417-0.391c-0.366-0.26-0.588-0.625-0.668-1.096h-1.26
		c0.1,0.781,0.443,1.396,1.028,1.846c0.585,0.451,1.357,0.676,2.317,0.676c1.14,0,1.997-0.32,2.573-0.961
		c0.574-0.639,0.862-1.484,0.862-2.533v-8.807h-1.245v1.32c-0.19-0.469-0.502-0.84-0.937-1.109
		c-0.435-0.271-0.973-0.404-1.613-0.404c-1.11,0-1.96,0.369-2.55,1.109c-0.59,0.74-0.885,1.836-0.885,3.285s0.295,2.545,0.885,3.283
		c0.59,0.742,1.44,1.111,2.55,1.111c0.64,0,1.178-0.135,1.613-0.406c0.435-0.27,0.747-0.633,0.937-1.094v1.799
		C210.98,116.344,210.793,116.93,210.418,117.34 M202.588,107.379c-0.505-0.588-1.233-0.883-2.183-0.883
		c-1.36,0-2.265,0.561-2.715,1.678v-1.484h-1.245v8.4h1.245v-4.32c0-1.01,0.225-1.803,0.675-2.377c0.45-0.574,1.03-0.863,1.74-0.863
		c0.67,0,1.172,0.211,1.508,0.631c0.335,0.42,0.502,1.09,0.502,2.01v4.92h1.23v-5.219
		C203.346,108.801,203.092,107.971,202.588,107.379 M194.391,103.331h-1.245v1.635h1.245V103.331z M194.391,106.69h-1.245v8.4h1.245
		V106.69z M191.525,107.725v-1.035h-2.445v-2.385h-1.245v2.385h-1.245v1.035h1.245v5.146c0,0.869,0.208,1.477,0.623,1.822
		c0.415,0.344,1.097,0.516,2.047,0.516c0.47,0,0.81-0.01,1.02-0.029v-1.006h-0.825c-0.59,0-1.007-0.102-1.252-0.307
		c-0.245-0.205-0.368-0.602-0.368-1.193v-4.949H191.525z M185.75,107.725v-1.035h-2.445v-2.385h-1.245v2.385h-1.245v1.035h1.245
		v5.146c0,0.869,0.208,1.477,0.623,1.822c0.415,0.344,1.097,0.516,2.047,0.516c0.47,0,0.81-0.01,1.02-0.029v-1.006h-0.825
		c-0.59,0-1.007-0.102-1.252-0.307c-0.245-0.205-0.368-0.602-0.368-1.193v-4.949H185.75z M173.293,114.401
		c0.505,0.59,1.232,0.885,2.182,0.885c1.35,0,2.26-0.559,2.73-1.68v1.484h1.23v-8.4h-1.23v4.32c0,1.012-0.227,1.803-0.682,2.377
		c-0.455,0.576-1.038,0.863-1.748,0.863c-0.67,0-1.17-0.211-1.5-0.629c-0.33-0.422-0.495-1.09-0.495-2.012v-4.92h-1.245v5.221
		C172.536,112.981,172.789,113.811,173.293,114.401 M169.559,114.198c0.755-0.725,1.172-1.711,1.253-2.963h-1.29
		c-0.071,0.922-0.366,1.637-0.886,2.145c-0.52,0.512-1.244,0.766-2.174,0.766c-1.151,0-1.965-0.412-2.445-1.236
		c-0.48-0.826-0.72-2.057-0.72-3.699c0-1.619,0.234-2.846,0.705-3.682c0.469-0.834,1.289-1.252,2.46-1.252
		c0.93,0,1.654,0.258,2.174,0.771c0.52,0.516,0.815,1.234,0.886,2.154h1.29c-0.081-1.25-0.498-2.24-1.253-2.971
		s-1.788-1.096-3.097-1.096c-2.981,0-4.47,2.025-4.47,6.074c0,4.051,1.489,6.076,4.47,6.076
		C167.771,115.286,168.804,114.922,169.559,114.198"/>
</g>
<text transform="matrix(1 0 0 1 487.9521 115.106)" font-family="'S-CoreDream-4Regular'" font-size="15">       </text>
<g>
	<defs>
		<rect id="SVGID_13_" width="1018" height="145.252"/>
	</defs>
	<clipPath id="SVGID_14_">
		<use xlink:href="#SVGID_13_"  overflow="visible"/>
	</clipPath>
	<circle clip-path="url(#SVGID_14_)" fill="none" stroke="#E47476" stroke-width="4" cx="527.569" cy="108.563" r="7.063"/>
</g>
<text transform="matrix(1 0 0 1 536.6318 115.106)" font-family="'S-CoreDream-4Regular'" font-size="15"> </text>
<g>
	<defs>
		<rect id="SVGID_15_" width="1018" height="145.252"/>
	</defs>
	<clipPath id="SVGID_16_">
		<use xlink:href="#SVGID_15_"  overflow="visible"/>
	</clipPath>
	<path clip-path="url(#SVGID_16_)" d="M854.704,107.725v-1.035h-2.445v-2.385h-1.245v2.385h-1.245v1.035h1.245v5.146
		c0,0.869,0.207,1.477,0.622,1.82c0.415,0.346,1.098,0.52,2.048,0.52c0.47,0,0.811-0.012,1.021-0.031v-1.004h-0.825
		c-0.59,0-1.008-0.104-1.253-0.309c-0.245-0.203-0.367-0.602-0.367-1.191v-4.951H854.704z M847.781,107.381
		c-0.506-0.59-1.232-0.885-2.183-0.885c-1.36,0-2.265,0.559-2.715,1.68v-1.486h-1.245v8.4h1.245v-4.32
		c0-1.01,0.225-1.801,0.675-2.377c0.45-0.574,1.03-0.863,1.74-0.863c0.67,0,1.172,0.211,1.507,0.631s0.503,1.09,0.503,2.01v4.92
		h1.23v-5.219C848.539,108.801,848.286,107.971,847.781,107.381 M836.344,107.53c1.47,0,2.255,0.926,2.355,2.775h-4.726
		C834.074,108.456,834.863,107.53,836.344,107.53 M837.813,113.801c-0.38,0.299-0.859,0.449-1.439,0.449c-1.561,0-2.365-1-2.415-3h6
		v-0.359c0-1.41-0.303-2.496-0.907-3.256c-0.606-0.76-1.508-1.139-2.708-1.139s-2.103,0.379-2.707,1.139
		c-0.605,0.76-0.908,1.846-0.908,3.256c0,1.42,0.303,2.508,0.908,3.262c0.604,0.756,1.517,1.133,2.737,1.133
		c0.95,0,1.718-0.232,2.303-0.697s0.952-1.123,1.102-1.973h-1.274C838.424,113.106,838.193,113.5,837.813,113.801 M826.414,108.385
		c0.42-0.57,0.955-0.855,1.604-0.855c1.21,0,1.815,0.691,1.815,2.07v5.49h1.245v-5.459c0-1.01-0.24-1.785-0.721-2.326
		c-0.479-0.539-1.17-0.809-2.069-0.809c-1.351,0-2.261,0.594-2.73,1.783c-0.18-0.58-0.493-1.021-0.937-1.326
		c-0.446-0.305-0.988-0.457-1.628-0.457c-1.261,0-2.091,0.549-2.49,1.648v-1.455h-1.245v8.4h1.245v-4.334
		c0-1.021,0.207-1.813,0.623-2.379c0.414-0.564,0.947-0.848,1.597-0.848c1.22,0,1.83,0.691,1.83,2.07v5.49h1.23v-4.32
		C825.784,109.75,825.994,108.956,826.414,108.385 M813.964,107.53c1.47,0,2.255,0.926,2.354,2.775h-4.725
		C811.693,108.456,812.483,107.53,813.964,107.53 M815.434,113.801c-0.38,0.299-0.859,0.449-1.439,0.449c-1.561,0-2.365-1-2.415-3h6
		v-0.359c0-1.41-0.303-2.496-0.907-3.256c-0.605-0.76-1.508-1.139-2.708-1.139s-2.103,0.379-2.707,1.139
		c-0.606,0.76-0.908,1.846-0.908,3.256c0,1.42,0.302,2.508,0.908,3.262c0.604,0.756,1.517,1.133,2.737,1.133
		c0.949,0,1.718-0.232,2.303-0.697s0.952-1.123,1.102-1.973h-1.274C816.044,113.106,815.813,113.5,815.434,113.801 M805.054,114.25
		c-0.84,0-1.447-0.285-1.822-0.855s-0.563-1.404-0.563-2.504c0-2.24,0.795-3.361,2.385-3.361c1.58,0,2.37,1.121,2.37,3.361
		S806.634,114.25,805.054,114.25 M806.861,117.34c-0.375,0.41-0.918,0.615-1.628,0.615c-0.58,0-1.052-0.131-1.417-0.391
		c-0.364-0.26-0.588-0.625-0.668-1.094h-1.26c0.1,0.779,0.443,1.395,1.028,1.844c0.585,0.451,1.356,0.676,2.316,0.676
		c1.141,0,1.998-0.32,2.573-0.961c0.575-0.639,0.862-1.484,0.862-2.533v-8.807h-1.245v1.32c-0.19-0.469-0.502-0.84-0.938-1.109
		c-0.435-0.27-0.973-0.404-1.612-0.404c-1.11,0-1.96,0.369-2.55,1.109c-0.591,0.74-0.886,1.834-0.886,3.285
		c0,1.449,0.295,2.545,0.886,3.285c0.59,0.74,1.439,1.109,2.55,1.109c0.64,0,1.178-0.135,1.612-0.404
		c0.436-0.271,0.747-0.635,0.938-1.096v1.801C807.424,116.346,807.236,116.93,806.861,117.34 M798.012,113.823
		c-0.385,0.285-0.953,0.428-1.703,0.428s-1.316-0.143-1.702-0.428c-0.385-0.285-0.578-0.688-0.578-1.207
		c0-0.51,0.195-0.91,0.585-1.199c0.391-0.291,0.955-0.436,1.695-0.436s1.305,0.145,1.695,0.436c0.39,0.289,0.585,0.689,0.585,1.199
		C798.589,113.135,798.396,113.538,798.012,113.823 M798.754,115.09h1.26c-0.13-0.369-0.195-0.754-0.195-1.154v-4.32
		c0-0.971-0.284-1.732-0.854-2.287c-0.57-0.557-1.405-0.832-2.505-0.832c-1.021,0-1.815,0.23-2.385,0.695
		c-0.57,0.465-0.891,1.109-0.961,1.93h1.275c0.12-1.061,0.811-1.592,2.07-1.592c0.689,0,1.218,0.186,1.583,0.557
		c0.364,0.369,0.547,0.875,0.547,1.514v1.426c-0.38-0.721-1.235-1.08-2.565-1.08c-1,0-1.79,0.238-2.37,0.711
		c-0.579,0.477-0.869,1.129-0.869,1.959c0,0.84,0.29,1.494,0.869,1.965c0.58,0.471,1.37,0.705,2.37,0.705
		c1.351,0,2.205-0.359,2.565-1.08C798.589,114.545,798.644,114.84,798.754,115.09 M790.437,107.381
		c-0.505-0.59-1.232-0.885-2.183-0.885c-1.36,0-2.266,0.559-2.715,1.68v-1.486h-1.245v8.4h1.245v-4.32
		c0-1.01,0.225-1.801,0.675-2.377c0.45-0.574,1.03-0.863,1.74-0.863c0.67,0,1.173,0.211,1.508,0.631s0.502,1.09,0.502,2.01v4.92
		h1.229v-5.219C791.193,108.801,790.941,107.971,790.437,107.381 M780.566,113.823c-0.385,0.285-0.953,0.428-1.703,0.428
		s-1.316-0.143-1.701-0.428c-0.386-0.285-0.578-0.688-0.578-1.207c0-0.51,0.194-0.91,0.585-1.199
		c0.39-0.291,0.955-0.436,1.694-0.436c0.74,0,1.306,0.145,1.695,0.436c0.391,0.289,0.585,0.689,0.585,1.199
		C781.144,113.135,780.952,113.538,780.566,113.823 M781.309,115.09h1.26c-0.13-0.369-0.194-0.754-0.194-1.154v-4.32
		c0-0.971-0.285-1.732-0.855-2.287c-0.569-0.557-1.405-0.832-2.505-0.832c-1.02,0-1.814,0.23-2.385,0.695s-0.891,1.109-0.96,1.93
		h1.274c0.12-1.061,0.811-1.592,2.07-1.592c0.69,0,1.218,0.186,1.583,0.557c0.365,0.369,0.547,0.875,0.547,1.514v1.426
		c-0.38-0.721-1.234-1.08-2.564-1.08c-1,0-1.79,0.238-2.37,0.711c-0.58,0.477-0.87,1.129-0.87,1.959c0,0.84,0.29,1.494,0.87,1.965
		s1.37,0.705,2.37,0.705c1.35,0,2.205-0.359,2.564-1.08C781.144,114.545,781.199,114.84,781.309,115.09 M769.084,108.385
		c0.42-0.57,0.955-0.855,1.604-0.855c1.21,0,1.815,0.691,1.815,2.07v5.49h1.245v-5.459c0-1.01-0.24-1.785-0.721-2.326
		c-0.479-0.539-1.17-0.809-2.069-0.809c-1.351,0-2.26,0.594-2.73,1.783c-0.18-0.58-0.492-1.021-0.937-1.326
		c-0.445-0.305-0.988-0.457-1.628-0.457c-1.261,0-2.09,0.549-2.49,1.648v-1.455h-1.245v8.4h1.245v-4.334
		c0-1.021,0.208-1.813,0.623-2.379c0.415-0.564,0.947-0.848,1.597-0.848c1.22,0,1.83,0.691,1.83,2.07v5.49h1.23v-4.32
		C768.454,109.75,768.664,108.956,769.084,108.385 M751.97,114.25c-0.84,0-1.448-0.285-1.823-0.855s-0.562-1.404-0.562-2.504
		c0-2.24,0.795-3.361,2.385-3.361c1.58,0,2.37,1.121,2.37,3.361S753.55,114.25,751.97,114.25 M753.776,117.34
		c-0.375,0.41-0.917,0.615-1.627,0.615c-0.58,0-1.053-0.131-1.418-0.391c-0.364-0.26-0.587-0.625-0.667-1.094h-1.26
		c0.1,0.779,0.442,1.395,1.027,1.844c0.585,0.451,1.357,0.676,2.317,0.676c1.141,0,1.997-0.32,2.572-0.961
		c0.575-0.639,0.863-1.484,0.863-2.533v-8.807h-1.245v1.32c-0.19-0.469-0.503-0.84-0.938-1.109c-0.435-0.27-0.972-0.404-1.611-0.404
		c-1.11,0-1.96,0.369-2.55,1.109c-0.591,0.74-0.886,1.834-0.886,3.285c0,1.449,0.295,2.545,0.886,3.285
		c0.59,0.74,1.439,1.109,2.55,1.109c0.64,0,1.177-0.135,1.611-0.404c0.436-0.271,0.748-0.635,0.938-1.096v1.801
		C754.34,116.346,754.151,116.93,753.776,117.34 M745.947,107.381c-0.506-0.59-1.232-0.885-2.183-0.885
		c-1.36,0-2.265,0.559-2.715,1.68v-1.486h-1.245v8.4h1.245v-4.32c0-1.01,0.225-1.801,0.675-2.377c0.45-0.574,1.03-0.863,1.74-0.863
		c0.67,0,1.172,0.211,1.507,0.631s0.503,1.09,0.503,2.01v4.92h1.23v-5.219C746.705,108.801,746.452,107.971,745.947,107.381
		 M737.75,103.331h-1.245v1.635h1.245V103.331z M737.75,106.69h-1.245v8.4h1.245V106.69z M732.642,113.395
		c-0.375,0.57-0.981,0.855-1.822,0.855c-0.84,0-1.444-0.285-1.814-0.855s-0.555-1.404-0.555-2.504c0-1.09,0.185-1.922,0.555-2.498
		c0.37-0.574,0.975-0.863,1.814-0.863c1.591,0,2.386,1.121,2.386,3.361C733.205,111.991,733.017,112.825,732.642,113.395
		 M732.267,106.901c-0.444-0.27-0.987-0.404-1.627-0.404c-1.11,0-1.96,0.369-2.55,1.109s-0.885,1.834-0.885,3.285
		c0,1.449,0.295,2.545,0.885,3.285s1.439,1.109,2.55,1.109c0.64,0,1.183-0.135,1.627-0.404c0.445-0.271,0.758-0.641,0.938-1.111
		v1.32h1.245v-11.76h-1.245v4.68C733.024,107.542,732.712,107.17,732.267,106.901 M723.776,113.823
		c-0.385,0.285-0.951,0.428-1.701,0.428s-1.318-0.143-1.703-0.428c-0.386-0.285-0.577-0.688-0.577-1.207
		c0-0.51,0.195-0.91,0.585-1.199c0.39-0.291,0.955-0.436,1.695-0.436c0.739,0,1.305,0.145,1.694,0.436
		c0.391,0.289,0.585,0.689,0.585,1.199C724.354,113.135,724.162,113.538,723.776,113.823 M724.52,115.09h1.26
		c-0.13-0.369-0.194-0.754-0.194-1.154v-4.32c0-0.971-0.285-1.732-0.855-2.287c-0.569-0.557-1.404-0.832-2.505-0.832
		c-1.02,0-1.814,0.23-2.385,0.695s-0.89,1.109-0.96,1.93h1.274c0.12-1.061,0.811-1.592,2.07-1.592c0.69,0,1.217,0.186,1.582,0.557
		c0.365,0.369,0.548,0.875,0.548,1.514v1.426c-0.38-0.721-1.234-1.08-2.564-1.08c-1,0-1.79,0.238-2.37,0.711
		c-0.58,0.477-0.87,1.129-0.87,1.959c0,0.84,0.29,1.494,0.87,1.965s1.37,0.705,2.37,0.705c1.35,0,2.205-0.359,2.564-1.08
		C724.354,114.545,724.41,114.84,724.52,115.09 M715.438,113.395c-0.375,0.57-0.982,0.855-1.822,0.855
		c-0.841,0-1.445-0.285-1.815-0.855s-0.555-1.404-0.555-2.504c0-1.09,0.185-1.922,0.555-2.498c0.37-0.574,0.975-0.863,1.815-0.863
		c1.59,0,2.385,1.121,2.385,3.361C716,111.991,715.813,112.825,715.438,113.395 M713.615,106.497c-1.2,0-2.104,0.379-2.707,1.139
		c-0.606,0.76-0.908,1.846-0.908,3.256s0.302,2.494,0.908,3.254c0.604,0.76,1.507,1.141,2.707,1.141
		c1.199,0,2.104-0.381,2.715-1.141c0.609-0.76,0.915-1.844,0.915-3.254s-0.306-2.496-0.915-3.256
		C715.72,106.875,714.814,106.497,713.615,106.497 M708.245,103.331H707v11.76h1.245V103.331z M704.203,107.381
		c-0.506-0.59-1.233-0.885-2.184-0.885c-1.359,0-2.265,0.559-2.715,1.68v-1.486h-1.245v8.4h1.245v-4.32
		c0-1.01,0.225-1.801,0.675-2.377c0.45-0.574,1.03-0.863,1.74-0.863c0.67,0,1.172,0.211,1.508,0.631
		c0.335,0.42,0.502,1.09,0.502,2.01v4.92h1.23v-5.219C704.96,108.801,704.707,107.971,704.203,107.381 M689.938,114.401
		c0.505,0.59,1.232,0.885,2.183,0.885c1.35,0,2.26-0.561,2.729-1.68v1.484h1.23v-8.4h-1.23v4.32c0,1.01-0.227,1.803-0.682,2.377
		c-0.455,0.576-1.038,0.863-1.748,0.863c-0.67,0-1.17-0.209-1.5-0.629c-0.33-0.422-0.495-1.092-0.495-2.012v-4.92h-1.245v5.221
		C689.18,112.981,689.433,113.811,689.938,114.401 M679.551,107.53c1.47,0,2.255,0.926,2.355,2.775h-4.726
		C677.279,108.456,678.07,107.53,679.551,107.53 M681.021,113.801c-0.381,0.299-0.86,0.449-1.439,0.449c-1.561,0-2.366-1-2.415-3h6
		v-0.359c0-1.41-0.304-2.496-0.908-3.256c-0.605-0.76-1.507-1.139-2.707-1.139s-2.104,0.379-2.708,1.139
		c-0.605,0.76-0.907,1.846-0.907,3.256c0,1.42,0.302,2.508,0.907,3.262c0.604,0.756,1.517,1.133,2.738,1.133
		c0.948,0,1.717-0.232,2.302-0.697s0.953-1.123,1.103-1.973h-1.274C681.63,113.106,681.399,113.5,681.021,113.801 M674.899,107.725
		v-1.035h-2.444v-2.385h-1.245v2.385h-1.245v1.035h1.245v5.146c0,0.869,0.208,1.477,0.623,1.82c0.415,0.346,1.097,0.52,2.047,0.52
		c0.47,0,0.81-0.012,1.02-0.031v-1.004h-0.824c-0.591,0-1.008-0.104-1.253-0.309c-0.244-0.203-0.367-0.602-0.367-1.191v-4.951
		H674.899z M662.87,108.881c0,0.639,0.202,1.145,0.607,1.514c0.405,0.371,1.059,0.646,1.957,0.826l1.035,0.209
		c0.56,0.111,0.963,0.275,1.208,0.496c0.245,0.219,0.368,0.523,0.368,0.914c0,0.42-0.187,0.764-0.556,1.027
		c-0.37,0.266-0.851,0.398-1.44,0.398s-1.067-0.131-1.432-0.391c-0.365-0.26-0.549-0.609-0.549-1.051v-0.283h-1.244v0.283
		c0,0.73,0.298,1.324,0.893,1.777c0.595,0.457,1.372,0.684,2.332,0.684c0.979,0,1.765-0.23,2.354-0.689
		c0.591-0.461,0.887-1.051,0.887-1.771c0-0.699-0.198-1.238-0.594-1.619c-0.395-0.381-1.037-0.66-1.928-0.84l-1.02-0.211
		c-0.59-0.119-1.01-0.279-1.26-0.479c-0.25-0.201-0.375-0.477-0.375-0.826c0-0.379,0.159-0.697,0.479-0.953
		c0.32-0.254,0.76-0.381,1.321-0.381c0.568,0,1.014,0.127,1.334,0.381c0.319,0.256,0.479,0.578,0.479,0.969v0.225h1.245v-0.209
		c0-0.711-0.271-1.285-0.816-1.727c-0.546-0.439-1.293-0.658-2.242-0.658c-0.951,0-1.696,0.223-2.236,0.666
		C663.14,107.608,662.87,108.18,662.87,108.881 M659.397,113.823c-0.385,0.285-0.952,0.428-1.702,0.428s-1.317-0.143-1.702-0.428
		c-0.386-0.285-0.577-0.688-0.577-1.207c0-0.51,0.194-0.91,0.585-1.199c0.389-0.291,0.954-0.436,1.694-0.436
		c0.739,0,1.306,0.145,1.694,0.436c0.39,0.289,0.586,0.689,0.586,1.199C659.976,113.135,659.783,113.538,659.397,113.823
		 M660.14,115.09h1.26c-0.13-0.369-0.194-0.754-0.194-1.154v-4.32c0-0.971-0.284-1.732-0.854-2.287
		c-0.571-0.557-1.406-0.832-2.506-0.832c-1.019,0-1.815,0.23-2.385,0.695c-0.57,0.465-0.891,1.109-0.959,1.93h1.273
		c0.12-1.061,0.811-1.592,2.07-1.592c0.691,0,1.218,0.186,1.583,0.557c0.365,0.369,0.548,0.875,0.548,1.514v1.426
		c-0.381-0.721-1.235-1.08-2.564-1.08c-1.001,0-1.791,0.238-2.37,0.711c-0.581,0.477-0.87,1.129-0.87,1.959
		c0,0.84,0.289,1.494,0.87,1.965c0.579,0.471,1.369,0.705,2.37,0.705c1.349,0,2.204-0.359,2.564-1.08
		C659.976,114.545,660.029,114.84,660.14,115.09 M644.061,113.561l-2.205-6.871h-1.29l2.806,8.4h1.364l2.205-6.869l2.235,6.869h1.35
		l2.82-8.4h-1.305l-2.205,6.871l-2.221-6.871h-1.319L644.061,113.561z M633.163,113.395c-0.375,0.57-0.982,0.855-1.822,0.855
		s-1.445-0.285-1.815-0.855c-0.369-0.57-0.555-1.404-0.555-2.504c0-1.09,0.186-1.922,0.555-2.498
		c0.37-0.574,0.976-0.863,1.815-0.863c1.59,0,2.385,1.121,2.385,3.361C633.726,111.991,633.538,112.825,633.163,113.395
		 M632.788,106.901c-0.445-0.27-0.987-0.404-1.627-0.404c-1.11,0-1.96,0.369-2.551,1.109c-0.59,0.74-0.885,1.834-0.885,3.285
		c0,1.449,0.295,2.545,0.885,3.285c0.591,0.74,1.44,1.109,2.551,1.109c0.64,0,1.182-0.135,1.627-0.404
		c0.444-0.271,0.758-0.641,0.938-1.111v1.32h1.245v-11.76h-1.245v4.68C633.546,107.542,633.232,107.17,632.788,106.901
		 M622.73,107.53c1.471,0,2.255,0.926,2.355,2.775h-4.726C620.461,108.456,621.251,107.53,622.73,107.53 M624.201,113.801
		c-0.381,0.299-0.86,0.449-1.44,0.449c-1.56,0-2.365-1-2.415-3h6v-0.359c0-1.41-0.302-2.496-0.907-3.256s-1.508-1.139-2.708-1.139
		c-1.199,0-2.102,0.379-2.707,1.139s-0.908,1.846-0.908,3.256c0,1.42,0.303,2.508,0.908,3.262c0.605,0.756,1.518,1.133,2.737,1.133
		c0.95,0,1.718-0.232,2.303-0.697s0.952-1.123,1.103-1.973h-1.275C624.811,113.106,624.581,113.5,624.201,113.801 M611.391,108.881
		c0,0.639,0.203,1.145,0.608,1.514c0.404,0.371,1.057,0.646,1.957,0.826l1.034,0.209c0.561,0.111,0.964,0.275,1.209,0.496
		c0.244,0.219,0.366,0.523,0.366,0.914c0,0.42-0.185,0.764-0.555,1.027c-0.37,0.266-0.85,0.398-1.44,0.398
		c-0.59,0-1.066-0.131-1.432-0.391s-0.548-0.609-0.548-1.051v-0.283h-1.245v0.283c0,0.73,0.298,1.324,0.893,1.777
		c0.596,0.457,1.372,0.684,2.332,0.684c0.98,0,1.766-0.23,2.355-0.689c0.59-0.461,0.885-1.051,0.885-1.771
		c0-0.699-0.197-1.238-0.592-1.619s-1.038-0.66-1.928-0.84l-1.021-0.211c-0.59-0.119-1.01-0.279-1.26-0.479
		c-0.25-0.201-0.375-0.477-0.375-0.826c0-0.379,0.16-0.697,0.479-0.953c0.32-0.254,0.761-0.381,1.32-0.381
		c0.57,0,1.016,0.127,1.335,0.381c0.32,0.256,0.48,0.578,0.48,0.969v0.225h1.245v-0.209c0-0.711-0.272-1.285-0.817-1.727
		c-0.545-0.439-1.293-0.658-2.243-0.658s-1.695,0.223-2.234,0.666C611.661,107.608,611.391,108.18,611.391,108.881 M607.919,113.823
		c-0.385,0.285-0.953,0.428-1.703,0.428s-1.317-0.143-1.702-0.428s-0.578-0.688-0.578-1.207c0-0.51,0.195-0.91,0.585-1.199
		c0.391-0.291,0.955-0.436,1.695-0.436s1.305,0.145,1.695,0.436c0.39,0.289,0.585,0.689,0.585,1.199
		C608.496,113.135,608.304,113.538,607.919,113.823 M608.661,115.09h1.26c-0.13-0.369-0.195-0.754-0.195-1.154v-4.32
		c0-0.971-0.285-1.732-0.854-2.287c-0.57-0.557-1.405-0.832-2.506-0.832c-1.02,0-1.814,0.23-2.385,0.695
		c-0.569,0.465-0.89,1.109-0.96,1.93h1.275c0.12-1.061,0.81-1.592,2.069-1.592c0.69,0,1.219,0.186,1.584,0.557
		c0.364,0.369,0.547,0.875,0.547,1.514v1.426c-0.381-0.721-1.235-1.08-2.565-1.08c-1,0-1.79,0.238-2.37,0.711
		c-0.58,0.477-0.87,1.129-0.87,1.959c0,0.84,0.29,1.494,0.87,1.965s1.37,0.705,2.37,0.705c1.351,0,2.205-0.359,2.565-1.08
		C608.496,114.545,608.551,114.84,608.661,115.09 M597.771,107.53c1.58,0,2.37,1.121,2.37,3.361s-0.79,3.359-2.37,3.359
		c-0.84,0-1.446-0.285-1.821-0.855s-0.563-1.404-0.563-2.504C595.386,108.651,596.181,107.53,597.771,107.53 M594.141,103.331v11.76
		h1.245v-1.32c0.4,1.01,1.255,1.516,2.565,1.516c1.109,0,1.958-0.369,2.543-1.109s0.877-1.836,0.877-3.285
		c0-1.451-0.292-2.545-0.877-3.285s-1.434-1.109-2.543-1.109c-1.311,0-2.165,0.504-2.565,1.514v-4.68H594.141z M592.341,109.061
		h-4.95v1.109h4.95V109.061z M582.262,107.53c1.47,0,2.255,0.926,2.355,2.775h-4.726C579.99,108.456,580.781,107.53,582.262,107.53
		 M583.731,113.801c-0.381,0.299-0.86,0.449-1.439,0.449c-1.561,0-2.366-1-2.415-3h6v-0.359c0-1.41-0.303-2.496-0.908-3.256
		s-1.507-1.139-2.707-1.139s-2.103,0.379-2.708,1.139c-0.604,0.76-0.907,1.846-0.907,3.256c0,1.42,0.303,2.508,0.907,3.262
		c0.605,0.756,1.517,1.133,2.738,1.133c0.948,0,1.717-0.232,2.302-0.697s0.953-1.123,1.104-1.973h-1.275
		C584.341,113.106,584.11,113.5,583.731,113.801 M576.892,103.331h-1.245v11.76h1.245V103.331z M573.502,103.331h-1.245v1.635h1.245
		V103.331z M573.502,106.69h-1.245v8.4h1.245V106.69z M566.887,107.53c1.58,0,2.37,1.121,2.37,3.361s-0.79,3.359-2.37,3.359
		c-0.84,0-1.448-0.285-1.823-0.855s-0.562-1.404-0.562-2.504C564.502,108.651,565.297,107.53,566.887,107.53 M563.257,103.331v11.76
		h1.245v-1.32c0.399,1.01,1.255,1.516,2.564,1.516c1.11,0,1.957-0.369,2.542-1.109s0.878-1.836,0.878-3.285
		c0-1.451-0.293-2.545-0.878-3.285s-1.432-1.109-2.542-1.109c-1.31,0-2.165,0.504-2.564,1.514v-4.68H563.257z M559.784,113.395
		c-0.375,0.57-0.982,0.855-1.822,0.855s-1.445-0.285-1.815-0.855s-0.555-1.404-0.555-2.504c0-1.09,0.185-1.922,0.555-2.498
		c0.37-0.574,0.976-0.863,1.815-0.863c1.59,0,2.385,1.121,2.385,3.361C560.347,111.991,560.159,112.825,559.784,113.395
		 M557.962,106.497c-1.2,0-2.104,0.379-2.708,1.139c-0.605,0.76-0.907,1.846-0.907,3.256s0.302,2.494,0.907,3.254
		c0.604,0.76,1.508,1.141,2.708,1.141s2.104-0.381,2.715-1.141s0.915-1.844,0.915-3.254s-0.305-2.496-0.915-3.256
		S559.162,106.497,557.962,106.497 M551.197,106.09v9h1.305v-11.76h-1.455l-4.305,10.291l-4.29-10.291h-1.455v11.76h1.305v-9l3.75,9
		h1.396L551.197,106.09z"/>
	<path clip-path="url(#SVGID_16_)" fill="none" stroke="#E37476" stroke-width="0.5" d="M29,8.25C28.802,8.25,9.25,8.485,9.25,28
		v96.252c0,0.197,0.236,19.75,19.75,19.75h960c0.197,0,19.75-0.236,19.75-19.75V28c0-0.198-0.236-19.75-19.75-19.75H29z"/>
</g>
<line fill="none" stroke="#E37476" stroke-width="0.5" x1="9" y1="53.083" x2="1009" y2="53.083"/>
</svg>
