<?xml version="1.0" encoding="utf-8"?>
<!-- Generator: Adobe Illustrator 16.0.0, SVG Export Plug-In . SVG Version: 6.00 Build 0)  -->
<!DOCTYPE svg PUBLIC "-//W3C//DTD SVG 1.1//EN" "http://www.w3.org/Graphics/SVG/1.1/DTD/svg11.dtd">
<svg version="1.1" id="레이어_1" xmlns="http://www.w3.org/2000/svg" xmlns:xlink="http://www.w3.org/1999/xlink" x="0px"
	 y="0px" width="953.662px" height="47.259px" viewBox="0 0 953.662 47.259" enable-background="new 0 0 953.662 47.259"
	 xml:space="preserve">
<g>
	<defs>
		<rect id="SVGID_1_" width="953.662" height="47.259"/>
	</defs>
	<clipPath id="SVGID_2_">
		<use xlink:href="#SVGID_1_"  overflow="visible"/>
	</clipPath>
	<path clip-path="url(#SVGID_2_)" fill="#E37476" d="M941.012,17.571c0.49,0,0.974,0.069,1.449,0.207
		c0.475,0.139,0.881,0.368,1.219,0.69c0.337,0.322,0.605,0.735,0.806,1.242c0.198,0.506,0.282,1.142,0.253,1.908h-7.774
		c0-0.767,0.122-1.402,0.368-1.908c0.245-0.507,0.552-0.92,0.92-1.242s0.789-0.552,1.265-0.69
		C939.992,17.641,940.49,17.571,941.012,17.571 M942.023,39.652c0.828,0,1.648-0.055,2.462-0.162c0.812-0.105,1.579-0.252,2.3-0.436
		c0.72-0.186,1.363-0.383,1.932-0.598c0.567-0.217,1.035-0.43,1.403-0.645c1.104-0.645,1.893-1.434,2.369-2.369
		c0.475-0.936,0.467-1.971-0.023-3.105c-0.307-0.705-0.79-1.195-1.449-1.473c-0.659-0.275-1.388-0.367-2.185-0.275
		c-0.399,0.061-0.775,0.162-1.127,0.299c-0.354,0.139-0.698,0.268-1.035,0.391c-0.614,0.215-1.227,0.369-1.84,0.461
		c-0.614,0.092-1.488,0.139-2.622,0.139c-0.552,0-1.135-0.07-1.748-0.207c-0.614-0.139-1.181-0.377-1.702-0.713
		c-0.521-0.338-0.951-0.768-1.288-1.289c-0.338-0.521-0.506-1.182-0.506-1.979v-0.045h16.468c0.062-0.398,0.115-0.875,0.161-1.426
		c0.046-0.553,0.069-1.027,0.069-1.426c0-3.037-0.361-5.513-1.081-7.43c-0.721-1.917-1.679-3.412-2.875-4.484
		c-1.196-1.073-2.553-1.803-4.071-2.186c-1.518-0.383-3.075-0.575-4.669-0.575c-1.472,0-2.982,0.207-4.531,0.621
		s-2.96,1.112-4.231,2.094c-1.273,0.98-2.316,2.284-3.128,3.909c-0.813,1.625-1.22,3.665-1.22,6.118v4.048
		c0,2.393,0.422,4.408,1.266,6.049c0.843,1.641,1.947,2.951,3.312,3.934c1.364,0.98,2.891,1.686,4.577,2.115
		S940.368,39.652,942.023,39.652 M909.824,18.63v11.592c0,1.748,0.215,3.219,0.644,4.416c0.429,1.195,1.059,2.162,1.886,2.896
		c0.828,0.736,1.841,1.273,3.036,1.611c1.196,0.336,2.562,0.506,4.095,0.506c0.797,0,1.595-0.123,2.392-0.369
		c0.797-0.244,1.457-0.535,1.978-0.873c0.645-0.43,1.143-1.012,1.495-1.748c0.354-0.736,0.422-1.578,0.207-2.529
		c-0.152-0.768-0.521-1.381-1.104-1.84c-0.583-0.461-1.257-0.691-2.024-0.691c-0.46,0-0.828,0.039-1.104,0.115
		c-0.276,0.078-0.583,0.1-0.92,0.068c-0.399-0.029-0.744-0.152-1.035-0.367s-0.438-0.676-0.438-1.381V18.63h2.714
		c1.441,0,2.477-0.383,3.105-1.15c0.629-0.767,0.943-1.641,0.943-2.622c0-0.46-0.077-0.92-0.23-1.38s-0.391-0.874-0.713-1.242
		s-0.736-0.667-1.242-0.896c-0.506-0.23-1.127-0.346-1.863-0.346h-2.714V6.21c0-0.768-0.13-1.441-0.391-2.024
		s-0.606-1.058-1.035-1.426s-0.912-0.645-1.449-0.828s-1.096-0.276-1.679-0.276s-1.142,0.093-1.679,0.276s-1.021,0.46-1.449,0.828
		s-0.774,0.843-1.035,1.426s-0.391,1.257-0.391,2.024v4.783h-1.519c-0.735,0-1.364,0.115-1.886,0.346
		c-0.521,0.229-0.943,0.528-1.265,0.896c-0.322,0.368-0.553,0.782-0.69,1.242s-0.207,0.92-0.207,1.38
		c0,0.981,0.314,1.855,0.943,2.622c0.629,0.768,1.664,1.15,3.104,1.15H909.824z M892.206,4.231c0,0.768,0.131,1.418,0.391,1.955
		c0.262,0.537,0.606,0.974,1.035,1.312c0.43,0.337,0.937,0.583,1.519,0.735c0.583,0.153,1.195,0.23,1.84,0.23
		c0.644,0,1.258-0.077,1.84-0.23c0.583-0.152,1.089-0.398,1.518-0.735c0.431-0.338,0.775-0.774,1.035-1.312
		c0.261-0.537,0.391-1.188,0.391-1.955c0-1.503-0.475-2.584-1.426-3.243C899.398,0.329,898.278,0,896.99,0s-2.407,0.329-3.358,0.988
		C892.682,1.647,892.206,2.729,892.206,4.231 M892.252,15.042v23.827h9.476V15.042c0-1.596-0.467-2.761-1.402-3.496
		c-0.936-0.736-2.047-1.104-3.335-1.104s-2.399,0.368-3.335,1.104C892.72,12.281,892.252,13.446,892.252,15.042 M872.104,12.604
		c0.031-0.951,0.361-1.647,0.989-2.093c0.629-0.445,1.495-0.667,2.6-0.667c1.381,0,2.5,0.138,3.357,0.414
		c0.859,0.275,1.564,0.598,2.116,0.966c0.215,0.153,0.537,0.291,0.967,0.414c0.429,0.123,0.813,0.184,1.149,0.184
		c0.89,0,1.694-0.198,2.416-0.598c0.72-0.399,1.233-1.073,1.54-2.024c0.338-1.104,0.207-2.177-0.392-3.22
		c-0.597-1.043-1.433-1.854-2.506-2.438c-0.43-0.216-0.897-0.438-1.404-0.667c-0.505-0.23-1.104-0.43-1.794-0.599
		c-0.689-0.169-1.486-0.307-2.392-0.414c-0.904-0.106-1.954-0.161-3.151-0.161c-3.157,0-5.818,0.676-7.979,2.024
		c-2.162,1.349-3.643,3.266-4.44,5.75c-0.397,1.196-0.59,2.469-0.575,3.818c0.017,1.349,0.292,2.659,0.828,3.933
		c0.537,1.273,1.343,2.453,2.416,3.542s2.484,2.001,4.231,2.737c0.277,0.123,0.621,0.261,1.035,0.414
		c0.414,0.152,0.805,0.291,1.174,0.414c0.95,0.306,1.839,0.621,2.667,0.943s1.557,0.652,2.185,0.988
		c0.629,0.338,1.112,0.705,1.45,1.104c0.337,0.4,0.505,0.814,0.505,1.242c-0.029,1.014-0.397,1.748-1.104,2.209
		c-0.705,0.459-1.702,0.689-2.99,0.689c-1.564,0-2.76-0.115-3.588-0.344c-0.828-0.23-1.502-0.516-2.024-0.852
		c-0.429-0.246-0.881-0.506-1.355-0.783c-0.477-0.275-1.112-0.398-1.909-0.367c-0.614,0.031-1.227,0.184-1.841,0.461
		c-0.613,0.275-1.088,0.674-1.425,1.195c-0.339,0.521-0.553,1.066-0.646,1.633c-0.092,0.566-0.068,1.111,0.07,1.633
		c0.138,0.521,0.359,1.02,0.666,1.496c0.307,0.475,0.675,0.896,1.104,1.264c1.258,0.98,2.837,1.695,4.738,2.139
		c1.902,0.445,3.88,0.668,5.934,0.668c4.202,0,7.521-0.904,9.959-2.715c2.438-1.809,3.766-4.354,3.979-7.635
		c0.092-1.473-0.046-2.83-0.414-4.072c-0.367-1.242-0.936-2.361-1.702-3.357c-0.766-0.997-1.694-1.863-2.783-2.6
		c-1.088-0.736-2.307-1.349-3.655-1.84l-2.256-0.782c-1.84-0.612-3.266-1.227-4.277-1.84S872.074,13.463,872.104,12.604
		 M835.765,4.6v34.269h9.477V4.6c0-1.595-0.468-2.76-1.403-3.496S841.791,0,840.503,0s-2.4,0.367-3.335,1.104
		C836.232,1.84,835.765,3.005,835.765,4.6 M821.321,4.6v34.269h9.476V4.6c0-1.595-0.468-2.76-1.403-3.496
		C828.459,0.367,827.347,0,826.059,0s-2.399,0.367-3.335,1.104C821.789,1.84,821.321,3.005,821.321,4.6 M806.785,4.231
		c0,0.768,0.131,1.418,0.391,1.955c0.261,0.537,0.606,0.974,1.035,1.312c0.43,0.337,0.936,0.583,1.518,0.735
		c0.583,0.153,1.196,0.23,1.841,0.23c0.644,0,1.258-0.077,1.84-0.23c0.583-0.152,1.089-0.398,1.518-0.735
		c0.431-0.338,0.775-0.774,1.035-1.312c0.261-0.537,0.391-1.188,0.391-1.955c0-1.503-0.475-2.584-1.426-3.243
		C813.977,0.329,812.857,0,811.569,0s-2.407,0.329-3.358,0.988C807.261,1.647,806.785,2.729,806.785,4.231 M806.831,15.042v23.827
		h9.476V15.042c0-1.596-0.467-2.761-1.402-3.496c-0.936-0.736-2.047-1.104-3.335-1.104s-2.399,0.368-3.335,1.104
		C807.299,12.281,806.831,13.446,806.831,15.042 M788.431,38.869h9.384V18.63h2.622c1.442,0,2.478-0.383,3.105-1.15
		c0.629-0.767,0.943-1.641,0.943-2.622c0-0.491-0.076-0.966-0.23-1.426c-0.153-0.46-0.391-0.874-0.713-1.242
		s-0.736-0.659-1.242-0.874s-1.127-0.322-1.863-0.322h-2.622V9.706c0-0.705,0.115-1.196,0.346-1.473
		c0.229-0.275,0.575-0.414,1.035-0.414c0.215,0,0.414,0.008,0.598,0.023c0.184,0.015,0.414,0.054,0.69,0.115
		c0.398,0.061,0.721,0.114,0.966,0.16c0.246,0.047,0.552,0.069,0.92,0.069c0.767,0,1.426-0.261,1.978-0.782
		c0.552-0.521,0.937-1.135,1.15-1.84c0.215-0.889,0.207-1.702-0.023-2.438c-0.229-0.736-0.743-1.35-1.541-1.841
		c-0.735-0.46-1.579-0.789-2.529-0.988S799.533,0,798.643,0c-1.655,0-3.119,0.176-4.393,0.528c-1.272,0.354-2.338,0.92-3.197,1.702
		c-0.857,0.782-1.51,1.81-1.955,3.082c-0.443,1.273-0.667,2.829-0.667,4.669v1.012h-1.563c-0.736,0-1.364,0.107-1.887,0.322
		c-0.521,0.215-0.942,0.506-1.265,0.874s-0.552,0.782-0.689,1.242c-0.139,0.46-0.207,0.935-0.207,1.426
		c0,0.981,0.314,1.855,0.942,2.622c0.629,0.768,1.664,1.15,3.105,1.15h1.563V38.869z M763.04,27.599v-5.427
		c0-0.768,0.13-1.418,0.391-1.955s0.59-0.975,0.989-1.312c0.398-0.337,0.828-0.574,1.288-0.713c0.46-0.138,0.889-0.207,1.288-0.207
		c0.397,0,0.82,0.069,1.265,0.207c0.444,0.139,0.866,0.36,1.266,0.667c0.397,0.308,0.735,0.713,1.012,1.219
		c0.276,0.507,0.429,1.128,0.46,1.863v5.888c-0.031,0.736-0.184,1.357-0.46,1.863s-0.614,0.912-1.012,1.219
		c-0.399,0.307-0.821,0.529-1.266,0.666c-0.444,0.139-0.867,0.207-1.265,0.207c-0.399,0-0.828-0.068-1.288-0.207
		c-0.46-0.137-0.89-0.375-1.288-0.713c-0.399-0.336-0.729-0.766-0.989-1.287S763.04,28.396,763.04,27.599 M773.021,38.869h7.314V4.6
		c0-0.767-0.131-1.434-0.391-2.001c-0.262-0.567-0.606-1.043-1.035-1.426c-0.431-0.383-0.92-0.675-1.473-0.874
		C776.886,0.1,776.303,0,775.689,0s-1.203,0.1-1.771,0.299c-0.568,0.199-1.066,0.491-1.495,0.874
		c-0.43,0.383-0.775,0.858-1.035,1.426c-0.261,0.567-0.391,1.234-0.391,2.001v7.682c-0.798-0.675-1.71-1.204-2.737-1.587
		s-2.185-0.575-3.473-0.575c-1.534,0-2.976,0.207-4.324,0.621c-1.35,0.414-2.538,1.112-3.565,2.094
		c-1.027,0.98-1.84,2.284-2.438,3.909s-0.896,3.649-0.896,6.072v4.141c0,2.422,0.299,4.445,0.896,6.07s1.41,2.93,2.438,3.91
		c1.027,0.982,2.216,1.68,3.565,2.094c1.349,0.414,2.79,0.621,4.324,0.621c1.656,0,3.135-0.338,4.438-1.012
		c1.304-0.676,2.399-1.596,3.289-2.76L773.021,38.869z M723.434,38.869h9.338V22.172c0-0.768,0.115-1.418,0.346-1.955
		c0.229-0.537,0.528-0.975,0.896-1.312s0.768-0.574,1.196-0.713c0.429-0.138,0.843-0.207,1.242-0.207
		c0.398,0,0.813,0.069,1.242,0.207c0.429,0.139,0.819,0.376,1.173,0.713c0.353,0.337,0.644,0.774,0.874,1.312
		c0.229,0.537,0.345,1.188,0.345,1.955v16.697h9.476V22.724c0-2.423-0.275-4.447-0.827-6.072c-0.553-1.625-1.297-2.921-2.231-3.887
		s-2.039-1.648-3.312-2.047c-1.273-0.399-2.646-0.599-4.117-0.599c-1.228,0-2.431,0.216-3.611,0.645s-2.216,1.058-3.104,1.886
		c-0.399-0.828-0.989-1.457-1.771-1.886s-1.618-0.645-2.507-0.645c-0.613,0-1.196,0.101-1.748,0.3
		c-0.552,0.198-1.043,0.49-1.472,0.874c-0.43,0.383-0.774,0.858-1.035,1.426c-0.261,0.566-0.392,1.233-0.392,2.001V38.869z
		 M709.91,27.968v1.656c0,0.49-0.115,0.92-0.346,1.287c-0.229,0.367-0.521,0.676-0.873,0.92c-0.354,0.244-0.743,0.43-1.174,0.553
		c-0.429,0.123-0.858,0.184-1.288,0.184h-0.644c-0.797,0-1.426-0.184-1.886-0.553c-0.46-0.367-0.69-0.934-0.69-1.701
		c0-0.736,0.23-1.311,0.69-1.725s1.135-0.621,2.023-0.621H709.91z M711.704,38.869h7.268V22.401c0-2.483-0.345-4.522-1.035-6.118
		c-0.689-1.595-1.609-2.844-2.76-3.749c-1.149-0.904-2.483-1.532-4.002-1.886c-1.518-0.353-3.104-0.529-4.761-0.529
		c-0.797,0-1.617,0.047-2.461,0.139c-0.843,0.092-1.68,0.237-2.507,0.437c-0.828,0.199-1.625,0.452-2.393,0.759
		c-0.767,0.308-1.457,0.69-2.069,1.15c-0.798,0.613-1.35,1.357-1.656,2.231c-0.308,0.874-0.245,1.771,0.184,2.69
		c0.215,0.46,0.515,0.843,0.897,1.15c0.383,0.307,0.805,0.528,1.265,0.667c0.46,0.138,0.928,0.199,1.403,0.184
		c0.475-0.015,0.928-0.13,1.356-0.345c0.43-0.184,0.806-0.354,1.127-0.506c0.322-0.153,0.667-0.291,1.035-0.414
		c0.553-0.153,1.073-0.276,1.564-0.368s0.997-0.138,1.518-0.138c0.552,0,1.081,0.054,1.587,0.161
		c0.506,0.106,0.951,0.291,1.334,0.552c0.384,0.261,0.69,0.613,0.92,1.058c0.23,0.445,0.361,1.004,0.392,1.68h-4.738
		c-1.503,0-2.936,0.152-4.301,0.46c-1.365,0.307-2.562,0.813-3.588,1.518c-1.027,0.705-1.849,1.64-2.461,2.806
		c-0.613,1.164-0.92,2.621-0.92,4.369c0,1.811,0.313,3.313,0.942,4.508c0.629,1.197,1.411,2.148,2.347,2.854
		c0.935,0.705,1.954,1.203,3.059,1.494c1.104,0.291,2.131,0.438,3.082,0.438h1.012c1.38,0,2.668-0.246,3.864-0.736
		s2.239-1.15,3.128-1.979L711.704,38.869z M673.985,38.869h13.938c0.674,0,1.242-0.121,1.702-0.367
		c0.46-0.244,0.843-0.566,1.15-0.967c0.306-0.398,0.528-0.842,0.667-1.334c0.138-0.49,0.206-0.965,0.206-1.426
		c0-0.459-0.068-0.928-0.206-1.402c-0.139-0.475-0.354-0.904-0.645-1.287c-0.292-0.385-0.675-0.691-1.149-0.92
		c-0.477-0.23-1.052-0.346-1.726-0.346h-10.212c-0.521,0-0.874-0.084-1.058-0.254c-0.185-0.168-0.276-0.529-0.276-1.08V6.348
		c0-0.767-0.131-1.441-0.391-2.024c-0.262-0.583-0.614-1.072-1.059-1.472s-0.959-0.698-1.541-0.897
		c-0.583-0.198-1.181-0.299-1.794-0.299c-0.614,0-1.212,0.101-1.794,0.299c-0.583,0.199-1.097,0.498-1.541,0.897
		c-0.445,0.399-0.798,0.889-1.058,1.472c-0.261,0.583-0.392,1.258-0.392,2.024v25.253c0,1.32,0.115,2.439,0.346,3.359
		c0.229,0.92,0.621,1.67,1.173,2.254c0.552,0.582,1.288,1.004,2.208,1.264C671.455,38.74,672.604,38.869,673.985,38.869
		 M623.155,38.869h9.338V22.172c0-0.768,0.115-1.418,0.345-1.955c0.23-0.537,0.529-0.975,0.897-1.312
		c0.367-0.337,0.767-0.574,1.195-0.713c0.43-0.138,0.843-0.207,1.242-0.207s0.813,0.069,1.242,0.207
		c0.429,0.139,0.82,0.376,1.173,0.713c0.354,0.337,0.645,0.774,0.874,1.312c0.23,0.537,0.345,1.188,0.345,1.955v16.697h9.477V22.724
		c0-2.423-0.276-4.447-0.828-6.072s-1.296-2.921-2.231-3.887c-0.935-0.966-2.039-1.648-3.312-2.047
		c-1.273-0.399-2.646-0.599-4.117-0.599c-1.227,0-2.43,0.216-3.611,0.645c-1.181,0.429-2.216,1.058-3.104,1.886
		c-0.399-0.828-0.989-1.457-1.771-1.886c-0.781-0.429-1.618-0.645-2.507-0.645c-0.613,0-1.196,0.101-1.748,0.3
		c-0.552,0.198-1.043,0.49-1.472,0.874c-0.429,0.383-0.774,0.858-1.035,1.426c-0.261,0.566-0.391,1.233-0.391,2.001V38.869z
		 M609.678,22.355v5.06c0,0.828-0.123,1.525-0.368,2.094c-0.245,0.566-0.56,1.035-0.942,1.402c-0.384,0.367-0.821,0.637-1.312,0.805
		c-0.491,0.17-0.981,0.254-1.472,0.254c-0.491,0-0.982-0.084-1.472-0.254c-0.491-0.168-0.929-0.438-1.312-0.805
		c-0.384-0.367-0.698-0.836-0.942-1.402c-0.246-0.568-0.368-1.266-0.368-2.094v-5.06c0-0.828,0.122-1.526,0.368-2.093
		c0.244-0.567,0.559-1.035,0.942-1.403c0.383-0.368,0.82-0.636,1.312-0.805c0.489-0.169,0.98-0.253,1.472-0.253
		c0.49,0,0.98,0.084,1.472,0.253c0.49,0.169,0.928,0.437,1.312,0.805c0.383,0.368,0.697,0.836,0.942,1.403
		C609.555,20.829,609.678,21.527,609.678,22.355 M592.244,22.77v4.232c0,2.484,0.406,4.539,1.219,6.164s1.863,2.93,3.151,3.91
		s2.721,1.672,4.301,2.07c1.579,0.398,3.135,0.598,4.669,0.598c1.533,0,3.089-0.199,4.669-0.598c1.579-0.398,3.013-1.09,4.301-2.07
		s2.338-2.285,3.151-3.91c0.812-1.625,1.219-3.68,1.219-6.164V22.77c0-2.484-0.407-4.539-1.219-6.164
		c-0.813-1.625-1.863-2.929-3.151-3.91c-1.288-0.98-2.722-1.671-4.301-2.069c-1.58-0.399-3.136-0.599-4.669-0.599
		c-1.564,0-3.136,0.199-4.715,0.599c-1.58,0.398-3.014,1.089-4.301,2.069c-1.288,0.981-2.331,2.285-3.129,3.91
		S592.244,20.285,592.244,22.77 M583.458,38.869l6.762-22.631c0.215-0.705,0.308-1.388,0.276-2.047s-0.169-1.257-0.414-1.794
		s-0.59-0.997-1.035-1.38s-0.974-0.636-1.587-0.759c-1.319-0.276-2.507-0.176-3.565,0.299c-1.058,0.475-1.756,1.434-2.093,2.875
		l-3.45,14.765l-4.277-14.443c-0.399-1.288-0.981-2.17-1.748-2.646c-0.768-0.475-1.625-0.713-2.576-0.713s-1.787,0.261-2.507,0.782
		c-0.722,0.521-1.266,1.395-1.633,2.622l-4.278,14.26l-3.542-14.583c-0.368-1.441-1.104-2.407-2.208-2.898
		c-1.104-0.49-2.315-0.598-3.634-0.321c-0.613,0.123-1.158,0.376-1.634,0.759c-0.475,0.383-0.843,0.843-1.104,1.38
		s-0.414,1.135-0.46,1.794s0.038,1.326,0.253,2.001l6.808,22.677h8.971l4.968-15.225l4.738,15.225H583.458z M520.852,4.6v34.269h9.2
		v-7.176l2.76-2.668l5.98,9.844h10.396l-10.166-15.777l6.072-5.842c0.43-0.399,0.736-0.89,0.92-1.473
		c0.185-0.583,0.253-1.173,0.207-1.771c-0.046-0.599-0.207-1.173-0.482-1.726c-0.276-0.552-0.66-1.012-1.15-1.38
		c-0.491-0.368-1.028-0.621-1.61-0.759c-0.583-0.138-1.157-0.169-1.725-0.092c-0.568,0.077-1.12,0.253-1.656,0.528
		c-0.537,0.276-1.004,0.63-1.402,1.059l-8.143,8.97V4.6c0-1.533-0.46-2.683-1.38-3.45C527.752,0.383,526.694,0,525.498,0
		c-0.613,0-1.196,0.1-1.748,0.299s-1.043,0.491-1.472,0.874c-0.43,0.383-0.775,0.858-1.035,1.426
		C520.982,3.166,520.852,3.833,520.852,4.6 M507.282,22.355v5.06c0,0.828-0.122,1.525-0.368,2.094
		c-0.245,0.566-0.559,1.035-0.943,1.402c-0.383,0.367-0.819,0.637-1.311,0.805c-0.49,0.17-0.981,0.254-1.473,0.254
		c-0.489,0-0.98-0.084-1.472-0.254c-0.49-0.168-0.927-0.438-1.311-0.805s-0.697-0.836-0.943-1.402
		c-0.245-0.568-0.368-1.266-0.368-2.094v-5.06c0-0.828,0.123-1.526,0.368-2.093c0.246-0.567,0.56-1.035,0.943-1.403
		s0.82-0.636,1.311-0.805c0.491-0.169,0.982-0.253,1.472-0.253c0.491,0,0.982,0.084,1.473,0.253
		c0.491,0.169,0.928,0.437,1.311,0.805c0.385,0.368,0.698,0.836,0.943,1.403C507.16,20.829,507.282,21.527,507.282,22.355
		 M489.848,22.77v4.232c0,2.484,0.407,4.539,1.22,6.164s1.862,2.93,3.15,3.91s2.723,1.672,4.301,2.07
		c1.58,0.398,3.137,0.598,4.669,0.598c1.534,0,3.091-0.199,4.67-0.598s3.013-1.09,4.301-2.07s2.339-2.285,3.15-3.91
		c0.813-1.625,1.22-3.68,1.22-6.164V22.77c0-2.484-0.406-4.539-1.22-6.164c-0.812-1.625-1.862-2.929-3.15-3.91
		c-1.288-0.98-2.722-1.671-4.301-2.069c-1.579-0.399-3.136-0.599-4.67-0.599c-1.563,0-3.135,0.199-4.715,0.599
		c-1.579,0.398-3.013,1.089-4.301,2.069c-1.288,0.981-2.33,2.285-3.128,3.91C490.247,18.23,489.848,20.285,489.848,22.77
		 M468.137,27.599v-5.427c0-0.768,0.13-1.418,0.392-1.955c0.26-0.537,0.59-0.975,0.988-1.312s0.828-0.574,1.288-0.713
		c0.46-0.138,0.89-0.207,1.288-0.207s0.82,0.069,1.266,0.207c0.443,0.139,0.865,0.36,1.265,0.667
		c0.397,0.308,0.736,0.713,1.012,1.219c0.276,0.507,0.43,1.128,0.46,1.863v5.888c-0.03,0.736-0.184,1.357-0.46,1.863
		c-0.275,0.506-0.614,0.912-1.012,1.219c-0.399,0.307-0.821,0.529-1.265,0.666c-0.445,0.139-0.867,0.207-1.266,0.207
		s-0.828-0.068-1.288-0.207c-0.46-0.137-0.89-0.375-1.288-0.713c-0.398-0.336-0.729-0.766-0.988-1.287
		C468.267,29.056,468.137,28.396,468.137,27.599 M478.119,38.869h7.313V4.6c0-0.767-0.131-1.434-0.391-2.001
		c-0.261-0.567-0.606-1.043-1.035-1.426c-0.43-0.383-0.92-0.675-1.472-0.874S481.4,0,480.787,0c-0.614,0-1.204,0.1-1.771,0.299
		s-1.065,0.491-1.495,0.874s-0.774,0.858-1.034,1.426c-0.262,0.567-0.392,1.234-0.392,2.001v7.682
		c-0.798-0.675-1.71-1.204-2.736-1.587c-1.028-0.383-2.186-0.575-3.474-0.575c-1.534,0-2.975,0.207-4.324,0.621
		s-2.537,1.112-3.564,2.094c-1.028,0.98-1.84,2.284-2.438,3.909c-0.598,1.625-0.896,3.649-0.896,6.072v4.141
		c0,2.422,0.299,4.445,0.896,6.07c0.599,1.625,1.41,2.93,2.438,3.91c1.027,0.982,2.215,1.68,3.564,2.094s2.79,0.621,4.324,0.621
		c1.656,0,3.135-0.338,4.439-1.012c1.303-0.676,2.398-1.596,3.289-2.76L478.119,38.869z M438.881,39.652
		c1.656,0,3.159-0.338,4.508-1.012c1.35-0.676,2.453-1.596,3.313-2.76l0.506,2.988h7.313V14.674c0-1.564-0.46-2.714-1.38-3.45
		s-2.023-1.104-3.312-1.104s-2.384,0.368-3.289,1.104s-1.357,1.886-1.357,3.45V27.83c-0.03,0.736-0.169,1.357-0.414,1.863
		c-0.244,0.506-0.544,0.912-0.896,1.219c-0.354,0.307-0.744,0.529-1.173,0.666c-0.43,0.139-0.828,0.207-1.196,0.207
		c-0.399,0-0.813-0.068-1.242-0.207c-0.429-0.137-0.819-0.375-1.173-0.713c-0.353-0.336-0.644-0.766-0.874-1.287
		c-0.229-0.521-0.345-1.182-0.345-1.979V14.72c0-1.595-0.468-2.76-1.403-3.496c-0.935-0.736-2.047-1.104-3.335-1.104
		s-2.399,0.368-3.335,1.104c-0.935,0.736-1.403,1.901-1.403,3.496v12.329c0,2.422,0.276,4.445,0.828,6.07
		c0.553,1.625,1.296,2.922,2.231,3.889c0.935,0.965,2.039,1.646,3.312,2.047C436.037,39.453,437.409,39.652,438.881,39.652
		 M408.613,12.604c0.03-0.951,0.36-1.647,0.988-2.093c0.63-0.445,1.495-0.667,2.6-0.667c1.38,0,2.5,0.138,3.357,0.414
		c0.859,0.275,1.564,0.598,2.116,0.966c0.215,0.153,0.537,0.291,0.966,0.414c0.431,0.123,0.813,0.184,1.15,0.184
		c0.89,0,1.695-0.198,2.415-0.598c0.721-0.399,1.235-1.073,1.541-2.024c0.338-1.104,0.207-2.177-0.391-3.22
		c-0.599-1.043-1.434-1.854-2.508-2.438c-0.429-0.216-0.896-0.438-1.402-0.667c-0.506-0.23-1.104-0.43-1.794-0.599
		c-0.69-0.169-1.487-0.307-2.393-0.414c-0.903-0.106-1.955-0.161-3.15-0.161c-3.158,0-5.819,0.676-7.981,2.024
		s-3.641,3.266-4.438,5.75c-0.398,1.196-0.591,2.469-0.575,3.818c0.016,1.349,0.292,2.659,0.828,3.933s1.342,2.453,2.415,3.542
		s2.483,2.001,4.231,2.737c0.276,0.123,0.621,0.261,1.035,0.414c0.414,0.152,0.805,0.291,1.173,0.414
		c0.951,0.306,1.84,0.621,2.668,0.943s1.557,0.652,2.186,0.988c0.629,0.338,1.111,0.705,1.448,1.104
		c0.338,0.4,0.507,0.814,0.507,1.242c-0.03,1.014-0.398,1.748-1.104,2.209c-0.705,0.459-1.702,0.689-2.99,0.689
		c-1.563,0-2.76-0.115-3.588-0.344c-0.828-0.23-1.502-0.516-2.023-0.852c-0.43-0.246-0.882-0.506-1.357-0.783
		c-0.475-0.275-1.111-0.398-1.909-0.367c-0.613,0.031-1.226,0.184-1.84,0.461c-0.613,0.275-1.088,0.674-1.426,1.195
		c-0.337,0.521-0.552,1.066-0.645,1.633c-0.092,0.566-0.068,1.111,0.069,1.633s0.361,1.02,0.667,1.496
		c0.307,0.475,0.675,0.896,1.104,1.264c1.259,0.98,2.838,1.695,4.738,2.139c1.902,0.445,3.88,0.668,5.935,0.668
		c4.201,0,7.521-0.904,9.959-2.715c2.438-1.809,3.765-4.354,3.979-7.635c0.092-1.473-0.046-2.83-0.414-4.072
		c-0.368-1.242-0.935-2.361-1.702-3.357c-0.766-0.997-1.693-1.863-2.782-2.6s-2.308-1.349-3.657-1.84l-2.254-0.782
		c-1.84-0.612-3.267-1.227-4.278-1.84S408.583,13.463,408.613,12.604 M375.264,42.273c-0.184,0.092-0.353,0.154-0.506,0.186
		c-0.154,0.029-0.307,0.076-0.46,0.137c-0.798,0.184-1.227,0.645-1.288,1.381c-0.062,0.613,0.092,1.043,0.46,1.287
		c0.368,0.246,0.751,0.398,1.15,0.461c0.368,0.061,0.751,0.053,1.149-0.023s0.798-0.191,1.196-0.346
		c1.625-0.613,2.944-1.74,3.956-3.381s1.519-3.809,1.519-6.508v-0.414c0-1.381-0.445-2.523-1.334-3.428
		c-0.891-0.904-2.07-1.357-3.542-1.357c-1.473,0-2.653,0.406-3.543,1.219c-0.89,0.814-1.334,1.924-1.334,3.336
		c0,1.318,0.384,2.361,1.15,3.127c0.766,0.768,1.794,1.211,3.082,1.334v0.047c0,0.676-0.146,1.266-0.437,1.771
		C376.191,41.607,375.785,41.998,375.264,42.273 M354.38,38.869h9.338V22.678c0.062-1.165,0.452-2.085,1.173-2.76
		c0.721-0.676,1.726-1.059,3.014-1.15c0.337-0.031,0.689-0.038,1.058-0.023c0.368,0.016,0.72,0.023,1.058,0.023
		c1.013,0,1.894-0.322,2.646-0.966c0.751-0.645,1.203-1.503,1.356-2.576s0.008-2.039-0.437-2.898
		c-0.445-0.858-1.112-1.472-2.001-1.84c-0.338-0.152-0.698-0.253-1.081-0.299c-0.384-0.046-0.744-0.069-1.081-0.069
		c-1.135,0-2.224,0.23-3.266,0.69c-1.043,0.46-1.994,1.089-2.853,1.886c-0.398-0.858-0.988-1.503-1.771-1.932
		s-1.618-0.645-2.507-0.645c-0.614,0-1.196,0.101-1.748,0.3c-0.553,0.198-1.043,0.49-1.473,0.874
		c-0.43,0.383-0.774,0.858-1.035,1.426c-0.261,0.566-0.391,1.233-0.391,2.001V38.869z M337.59,17.571
		c0.491,0,0.975,0.069,1.449,0.207c0.476,0.139,0.882,0.368,1.219,0.69c0.338,0.322,0.606,0.735,0.805,1.242
		c0.2,0.506,0.284,1.142,0.254,1.908h-7.774c0-0.767,0.123-1.402,0.368-1.908c0.246-0.507,0.552-0.92,0.92-1.242
		s0.79-0.552,1.265-0.69C336.571,17.641,337.069,17.571,337.59,17.571 M338.602,39.652c0.828,0,1.649-0.055,2.461-0.162
		c0.813-0.105,1.58-0.252,2.301-0.436c0.721-0.186,1.364-0.383,1.932-0.598c0.568-0.217,1.035-0.43,1.403-0.645
		c1.104-0.645,1.894-1.434,2.369-2.369s0.468-1.971-0.023-3.105c-0.306-0.705-0.789-1.195-1.449-1.473
		c-0.659-0.275-1.387-0.367-2.185-0.275c-0.398,0.061-0.774,0.162-1.127,0.299c-0.353,0.139-0.697,0.268-1.035,0.391
		c-0.613,0.215-1.227,0.369-1.84,0.461s-1.487,0.139-2.622,0.139c-0.552,0-1.134-0.07-1.748-0.207
		c-0.613-0.139-1.18-0.377-1.702-0.713c-0.521-0.338-0.95-0.768-1.288-1.289c-0.337-0.521-0.506-1.182-0.506-1.979v-0.045h16.468
		c0.063-0.398,0.115-0.875,0.161-1.426c0.046-0.553,0.069-1.027,0.069-1.426c0-3.037-0.36-5.513-1.081-7.43
		c-0.72-1.917-1.679-3.412-2.875-4.484c-1.196-1.073-2.553-1.803-4.071-2.186c-1.518-0.383-3.074-0.575-4.669-0.575
		c-1.472,0-2.982,0.207-4.531,0.621c-1.548,0.414-2.959,1.112-4.231,2.094c-1.272,0.98-2.315,2.284-3.128,3.909
		s-1.22,3.665-1.22,6.118v4.048c0,2.393,0.423,4.408,1.266,6.049c0.844,1.641,1.947,2.951,3.312,3.934
		c1.365,0.98,2.892,1.686,4.577,2.115C335.275,39.437,336.946,39.652,338.602,39.652 M310.865,38.869h9.476V22.815
		c0-2.423-0.292-4.447-0.874-6.072c-0.583-1.625-1.365-2.929-2.346-3.909c-0.982-0.981-2.139-1.68-3.473-2.094
		s-2.754-0.621-4.256-0.621c-1.227,0-2.354,0.192-3.381,0.575s-1.939,0.929-2.736,1.633V4.6c0-0.767-0.132-1.434-0.392-2.001
		c-0.261-0.567-0.605-1.043-1.035-1.426s-0.92-0.675-1.472-0.874S299.242,0,298.629,0c-0.614,0-1.204,0.1-1.771,0.299
		c-0.568,0.199-1.066,0.491-1.495,0.874c-0.43,0.383-0.775,0.858-1.035,1.426c-0.261,0.567-0.391,1.234-0.391,2.001v34.269h9.338
		V21.987c0.029-0.735,0.168-1.356,0.414-1.862c0.244-0.507,0.552-0.912,0.92-1.22c0.367-0.307,0.773-0.528,1.219-0.667
		c0.443-0.138,0.866-0.207,1.265-0.207s0.82,0.069,1.266,0.207c0.443,0.139,0.851,0.376,1.219,0.713
		c0.368,0.338,0.674,0.774,0.92,1.312c0.245,0.537,0.368,1.188,0.368,1.955V38.869z M275.353,18.63v11.592
		c0,1.748,0.215,3.219,0.644,4.416c0.429,1.195,1.058,2.162,1.886,2.896c0.828,0.736,1.84,1.273,3.036,1.611
		c1.196,0.336,2.561,0.506,4.094,0.506c0.797,0,1.595-0.123,2.392-0.369c0.797-0.244,1.457-0.535,1.978-0.873
		c0.644-0.43,1.142-1.012,1.495-1.748s0.422-1.578,0.207-2.529c-0.153-0.768-0.521-1.381-1.104-1.84
		c-0.583-0.461-1.257-0.691-2.024-0.691c-0.46,0-0.828,0.039-1.104,0.115c-0.276,0.078-0.583,0.1-0.92,0.068
		c-0.399-0.029-0.744-0.152-1.035-0.367s-0.437-0.676-0.437-1.381V18.63h2.714c1.441,0,2.476-0.383,3.105-1.15
		c0.629-0.767,0.943-1.641,0.943-2.622c0-0.46-0.077-0.92-0.23-1.38c-0.153-0.46-0.391-0.874-0.713-1.242
		c-0.322-0.368-0.736-0.667-1.242-0.896c-0.506-0.23-1.127-0.346-1.863-0.346h-2.714V6.21c0-0.768-0.13-1.441-0.391-2.024
		c-0.261-0.583-0.606-1.058-1.035-1.426c-0.429-0.368-0.912-0.645-1.449-0.828s-1.096-0.276-1.679-0.276s-1.142,0.093-1.679,0.276
		s-1.02,0.46-1.449,0.828c-0.429,0.368-0.774,0.843-1.035,1.426c-0.261,0.583-0.391,1.257-0.391,2.024v4.783h-1.518
		c-0.736,0-1.365,0.115-1.886,0.346c-0.521,0.229-0.943,0.528-1.265,0.896c-0.322,0.368-0.552,0.782-0.69,1.242
		c-0.138,0.46-0.207,0.92-0.207,1.38c0,0.981,0.314,1.855,0.943,2.622c0.629,0.768,1.664,1.15,3.105,1.15H275.353z M255.298,17.571
		c0.49,0,0.973,0.069,1.449,0.207c0.475,0.139,0.881,0.368,1.219,0.69c0.337,0.322,0.605,0.735,0.805,1.242
		c0.199,0.506,0.283,1.142,0.253,1.908h-7.774c0-0.767,0.122-1.402,0.368-1.908c0.245-0.507,0.552-0.92,0.92-1.242
		c0.368-0.322,0.789-0.552,1.265-0.69C254.278,17.641,254.776,17.571,255.298,17.571 M256.31,39.652
		c0.828,0,1.648-0.055,2.461-0.162c0.812-0.105,1.579-0.252,2.3-0.436c0.72-0.186,1.364-0.383,1.932-0.598
		c0.567-0.217,1.035-0.43,1.403-0.645c1.104-0.645,1.893-1.434,2.369-2.369c0.475-0.936,0.467-1.971-0.023-3.105
		c-0.307-0.705-0.79-1.195-1.449-1.473c-0.66-0.275-1.388-0.367-2.185-0.275c-0.399,0.061-0.775,0.162-1.127,0.299
		c-0.353,0.139-0.698,0.268-1.035,0.391c-0.614,0.215-1.227,0.369-1.84,0.461c-0.614,0.092-1.488,0.139-2.622,0.139
		c-0.552,0-1.135-0.07-1.748-0.207c-0.614-0.139-1.181-0.377-1.702-0.713c-0.522-0.338-0.951-0.768-1.288-1.289
		c-0.338-0.521-0.506-1.182-0.506-1.979v-0.045h16.468c0.061-0.398,0.115-0.875,0.161-1.426c0.046-0.553,0.069-1.027,0.069-1.426
		c0-3.037-0.361-5.513-1.081-7.43c-0.721-1.917-1.679-3.412-2.875-4.484c-1.196-1.073-2.553-1.803-4.071-2.186
		s-3.075-0.575-4.669-0.575c-1.472,0-2.983,0.207-4.531,0.621c-1.549,0.414-2.96,1.112-4.232,2.094
		c-1.273,0.98-2.316,2.284-3.128,3.909c-0.813,1.625-1.219,3.665-1.219,6.118v4.048c0,2.393,0.421,4.408,1.265,6.049
		c0.843,1.641,1.947,2.951,3.312,3.934c1.364,0.98,2.89,1.686,4.577,2.115C252.982,39.437,254.654,39.652,256.31,39.652
		 M220.798,25.667v-3.496c0-0.768,0.13-1.418,0.391-1.955c0.26-0.537,0.582-0.975,0.966-1.312c0.383-0.337,0.805-0.574,1.265-0.713
		c0.46-0.138,0.889-0.207,1.288-0.207c0.398,0,0.82,0.069,1.265,0.207c0.444,0.139,0.858,0.36,1.242,0.667
		c0.383,0.308,0.713,0.713,0.989,1.219c0.276,0.507,0.429,1.128,0.46,1.863v3.957c-0.031,0.736-0.184,1.357-0.46,1.863
		s-0.606,0.912-0.989,1.219c-0.384,0.307-0.798,0.529-1.242,0.666c-0.445,0.139-0.867,0.207-1.265,0.207
		c-0.399,0-0.828-0.068-1.288-0.207c-0.46-0.137-0.882-0.375-1.265-0.713c-0.384-0.336-0.706-0.766-0.966-1.287
		C220.928,27.125,220.798,26.464,220.798,25.667 M237.91,35.419v-20.7c0-1.533-0.46-2.684-1.38-3.45
		c-0.92-0.767-1.994-1.15-3.22-1.15c-0.92,0-1.771,0.216-2.553,0.645c-0.782,0.429-1.357,1.073-1.725,1.932
		c-0.89-0.858-1.917-1.503-3.082-1.932c-1.166-0.429-2.331-0.645-3.496-0.645c-1.534,0-2.975,0.207-4.324,0.621
		c-1.35,0.414-2.53,1.112-3.542,2.094c-1.012,0.98-1.81,2.284-2.392,3.909c-0.583,1.625-0.874,3.649-0.874,6.072v2.024
		c0,2.393,0.291,4.393,0.874,6.004c0.582,1.609,1.38,2.896,2.392,3.863c1.012,0.967,2.185,1.648,3.519,2.047
		s2.767,0.598,4.301,0.598c1.41,0,2.668-0.221,3.772-0.666s2.054-1.066,2.852-1.863v0.828c0,0.521-0.108,1.027-0.322,1.518
		c-0.215,0.49-0.552,0.936-1.012,1.334c-0.46,0.398-1.043,0.713-1.748,0.943c-0.706,0.23-1.549,0.346-2.53,0.346
		c-0.859,0-1.656-0.047-2.392-0.139c-0.736-0.092-1.442-0.184-2.116-0.275c-0.798-0.123-1.534,0.029-2.208,0.459
		c-0.675,0.43-1.15,1.012-1.426,1.748c-0.307,0.797-0.315,1.633-0.023,2.508c0.291,0.873,0.789,1.51,1.495,1.908
		c0.368,0.215,0.843,0.406,1.426,0.574c0.582,0.17,1.196,0.309,1.84,0.414c0.644,0.107,1.265,0.186,1.863,0.23
		c0.598,0.047,1.111,0.055,1.541,0.023c3.097-0.123,5.596-0.574,7.498-1.357c1.901-0.781,3.365-1.732,4.393-2.852
		c1.027-1.119,1.717-2.354,2.07-3.703C237.733,37.98,237.91,36.677,237.91,35.419 M198.212,22.355v5.06
		c0,0.828-0.122,1.525-0.368,2.094c-0.245,0.566-0.559,1.035-0.943,1.402c-0.383,0.367-0.82,0.637-1.311,0.805
		c-0.49,0.17-0.981,0.254-1.472,0.254c-0.49,0-0.981-0.084-1.472-0.254c-0.49-0.168-0.927-0.438-1.311-0.805
		c-0.383-0.367-0.697-0.836-0.943-1.402c-0.245-0.568-0.368-1.266-0.368-2.094v-5.06c0-0.828,0.123-1.526,0.368-2.093
		c0.246-0.567,0.56-1.035,0.943-1.403c0.384-0.368,0.821-0.636,1.311-0.805c0.491-0.169,0.982-0.253,1.472-0.253
		c0.491,0,0.982,0.084,1.472,0.253c0.491,0.169,0.928,0.437,1.311,0.805c0.384,0.368,0.698,0.836,0.943,1.403
		C198.09,20.829,198.212,21.527,198.212,22.355 M180.778,22.77v4.232c0,2.484,0.407,4.539,1.219,6.164
		c0.813,1.625,1.863,2.93,3.151,3.91s2.722,1.672,4.301,2.07c1.58,0.398,3.136,0.598,4.669,0.598c1.534,0,3.09-0.199,4.669-0.598
		c1.58-0.398,3.013-1.09,4.301-2.07s2.339-2.285,3.151-3.91c0.813-1.625,1.219-3.68,1.219-6.164V22.77
		c0-2.484-0.406-4.539-1.219-6.164c-0.812-1.625-1.863-2.929-3.151-3.91c-1.288-0.98-2.721-1.671-4.301-2.069
		c-1.579-0.399-3.135-0.599-4.669-0.599c-1.564,0-3.135,0.199-4.715,0.599c-1.579,0.398-3.013,1.089-4.301,2.069
		c-1.288,0.981-2.33,2.285-3.128,3.91C181.177,18.23,180.778,20.285,180.778,22.77 M161.734,38.869h9.568V9.981h7.038
		c0.675,0,1.242-0.123,1.702-0.368s0.843-0.566,1.15-0.966c0.307-0.398,0.529-0.843,0.667-1.334
		c0.138-0.491,0.207-0.966,0.207-1.426s-0.069-0.928-0.207-1.403c-0.138-0.475-0.353-0.905-0.644-1.288s-0.675-0.689-1.15-0.92
		c-0.475-0.229-1.05-0.345-1.725-0.345h-23.644c-0.675,0-1.25,0.115-1.725,0.345c-0.475,0.23-0.859,0.537-1.15,0.92
		s-0.506,0.813-0.644,1.288c-0.138,0.476-0.207,0.943-0.207,1.403s0.069,0.935,0.207,1.426c0.138,0.491,0.353,0.936,0.644,1.334
		c0.291,0.399,0.675,0.721,1.15,0.966c0.475,0.245,1.05,0.368,1.725,0.368h7.038V38.869z M118.678,25.667v-3.496
		c0-0.768,0.131-1.418,0.391-1.955c0.261-0.537,0.583-0.975,0.966-1.312c0.384-0.337,0.805-0.574,1.265-0.713
		c0.46-0.138,0.89-0.207,1.288-0.207c0.399,0,0.821,0.069,1.265,0.207c0.445,0.139,0.859,0.36,1.242,0.667
		c0.384,0.308,0.713,0.713,0.989,1.219c0.276,0.507,0.43,1.128,0.46,1.863v3.957c-0.03,0.736-0.184,1.357-0.46,1.863
		s-0.605,0.912-0.989,1.219c-0.383,0.307-0.797,0.529-1.242,0.666c-0.444,0.139-0.866,0.207-1.265,0.207
		c-0.398,0-0.828-0.068-1.288-0.207c-0.46-0.137-0.881-0.375-1.265-0.713c-0.383-0.336-0.705-0.766-0.966-1.287
		C118.809,27.125,118.678,26.464,118.678,25.667 M135.79,35.419v-20.7c0-1.533-0.46-2.684-1.38-3.45s-1.993-1.15-3.22-1.15
		c-0.92,0-1.771,0.216-2.553,0.645c-0.782,0.429-1.357,1.073-1.725,1.932c-0.889-0.858-1.916-1.503-3.082-1.932
		c-1.165-0.429-2.33-0.645-3.496-0.645c-1.533,0-2.974,0.207-4.324,0.621c-1.349,0.414-2.53,1.112-3.542,2.094
		c-1.012,0.98-1.809,2.284-2.392,3.909c-0.582,1.625-0.874,3.649-0.874,6.072v2.024c0,2.393,0.292,4.393,0.874,6.004
		c0.583,1.609,1.38,2.896,2.392,3.863c1.012,0.967,2.185,1.648,3.519,2.047s2.768,0.598,4.301,0.598
		c1.411,0,2.668-0.221,3.772-0.666s2.055-1.066,2.852-1.863v0.828c0,0.521-0.107,1.027-0.322,1.518
		c-0.214,0.49-0.552,0.936-1.012,1.334s-1.042,0.713-1.748,0.943c-0.705,0.23-1.548,0.346-2.53,0.346
		c-0.858,0-1.656-0.047-2.392-0.139c-0.736-0.092-1.441-0.184-2.116-0.275c-0.797-0.123-1.533,0.029-2.208,0.459
		c-0.674,0.43-1.15,1.012-1.426,1.748c-0.306,0.797-0.314,1.633-0.023,2.508c0.292,0.873,0.79,1.51,1.495,1.908
		c0.368,0.215,0.844,0.406,1.426,0.574c0.583,0.17,1.196,0.309,1.84,0.414c0.644,0.107,1.265,0.186,1.863,0.23
		c0.598,0.047,1.112,0.055,1.541,0.023c3.098-0.123,5.597-0.574,7.498-1.357c1.902-0.781,3.366-1.732,4.393-2.852
		c1.028-1.119,1.718-2.354,2.07-3.703C135.614,37.98,135.79,36.677,135.79,35.419 M78.981,38.869h9.338V22.172
		c0-0.768,0.115-1.418,0.345-1.955s0.529-0.975,0.897-1.312s0.766-0.574,1.196-0.713c0.429-0.138,0.843-0.207,1.242-0.207
		c0.398,0,0.812,0.069,1.242,0.207c0.429,0.139,0.82,0.376,1.173,0.713c0.352,0.337,0.644,0.774,0.874,1.312
		s0.345,1.188,0.345,1.955v16.697h9.476V22.724c0-2.423-0.276-4.447-0.828-6.072c-0.552-1.625-1.296-2.921-2.231-3.887
		c-0.936-0.966-2.04-1.648-3.312-2.047c-1.273-0.399-2.645-0.599-4.117-0.599c-1.227,0-2.431,0.216-3.611,0.645
		c-1.181,0.429-2.216,1.058-3.105,1.886c-0.399-0.828-0.989-1.457-1.771-1.886c-0.782-0.429-1.618-0.645-2.507-0.645
		c-0.614,0-1.196,0.101-1.748,0.3c-0.552,0.198-1.043,0.49-1.472,0.874c-0.43,0.383-0.775,0.858-1.035,1.426
		c-0.261,0.566-0.391,1.233-0.391,2.001V38.869z M64.629,4.231c0,0.768,0.13,1.418,0.391,1.955c0.261,0.537,0.606,0.974,1.035,1.312
		c0.429,0.337,0.935,0.583,1.518,0.735c0.583,0.153,1.196,0.23,1.84,0.23s1.257-0.077,1.84-0.23
		c0.583-0.152,1.089-0.398,1.518-0.735c0.429-0.338,0.774-0.774,1.035-1.312c0.261-0.537,0.391-1.188,0.391-1.955
		c0-1.503-0.475-2.584-1.426-3.243S70.701,0,69.413,0s-2.407,0.329-3.358,0.988C65.104,1.647,64.629,2.729,64.629,4.231
		 M64.675,15.042v23.827h9.476V15.042c0-1.596-0.468-2.761-1.403-3.496c-0.935-0.736-2.047-1.104-3.335-1.104
		s-2.4,0.368-3.335,1.104C65.143,12.281,64.675,13.446,64.675,15.042 M50.967,22.355v5.06c0,0.828-0.122,1.525-0.368,2.094
		c-0.245,0.566-0.559,1.035-0.943,1.402c-0.383,0.367-0.82,0.637-1.311,0.805c-0.49,0.17-0.981,0.254-1.472,0.254
		c-0.49,0-0.981-0.084-1.472-0.254c-0.49-0.168-0.927-0.438-1.311-0.805c-0.383-0.367-0.697-0.836-0.943-1.402
		c-0.245-0.568-0.368-1.266-0.368-2.094v-5.06c0-0.828,0.123-1.526,0.368-2.093c0.246-0.567,0.56-1.035,0.943-1.403
		c0.384-0.368,0.821-0.636,1.311-0.805c0.491-0.169,0.982-0.253,1.472-0.253c0.491,0,0.982,0.084,1.472,0.253
		c0.491,0.169,0.928,0.437,1.311,0.805c0.384,0.368,0.698,0.836,0.943,1.403C50.845,20.829,50.967,21.527,50.967,22.355
		 M33.533,22.77v4.232c0,2.484,0.407,4.539,1.219,6.164c0.813,1.625,1.863,2.93,3.151,3.91c1.288,0.98,2.722,1.672,4.301,2.07
		c1.58,0.398,3.136,0.598,4.669,0.598c1.534,0,3.09-0.199,4.669-0.598c1.58-0.398,3.013-1.09,4.301-2.07
		c1.288-0.98,2.339-2.285,3.151-3.91c0.813-1.625,1.219-3.68,1.219-6.164V22.77c0-2.484-0.406-4.539-1.219-6.164
		c-0.812-1.625-1.863-2.929-3.151-3.91c-1.288-0.98-2.721-1.671-4.301-2.069c-1.579-0.399-3.135-0.599-4.669-0.599
		c-1.564,0-3.135,0.199-4.715,0.599c-1.579,0.398-3.013,1.089-4.301,2.069c-1.288,0.981-2.33,2.285-3.128,3.91
		C33.932,18.23,33.533,20.285,33.533,22.77 M30.406,26.587v-2.484c0-1.288-0.1-2.369-0.299-3.243
		c-0.199-0.874-0.552-1.579-1.058-2.116c-0.506-0.536-1.204-0.92-2.093-1.149c-0.889-0.23-2.009-0.345-3.358-0.345h-4.186
		c-0.644,0-1.204,0.123-1.679,0.367c-0.475,0.245-0.859,0.561-1.15,0.943s-0.506,0.813-0.644,1.288s-0.207,0.943-0.207,1.403
		s0.069,0.92,0.207,1.38s0.353,0.874,0.644,1.242c0.291,0.367,0.667,0.667,1.127,0.897s1.027,0.344,1.702,0.344h1.518
		c0.429,0,0.713,0.063,0.851,0.186c0.138,0.123,0.207,0.414,0.207,0.873v0.553c0,0.828-0.169,1.541-0.506,2.139
		s-0.782,1.088-1.334,1.473c-0.552,0.383-1.196,0.674-1.932,0.873c-0.736,0.199-1.487,0.299-2.254,0.299
		c-0.828,0-1.633-0.129-2.415-0.391c-0.782-0.262-1.487-0.645-2.116-1.15c-0.629-0.506-1.127-1.15-1.495-1.932
		s-0.552-1.711-0.552-2.783v-9.2c0-1.043,0.199-1.963,0.598-2.76s0.92-1.449,1.564-1.955s1.365-0.89,2.162-1.15
		s1.595-0.391,2.392-0.391c2.085,0,3.665,0.199,4.738,0.598c0.337,0.153,0.713,0.33,1.127,0.529s0.882,0.345,1.403,0.437
		c0.797,0.153,1.579,0.062,2.346-0.275s1.38-0.905,1.84-1.702c0.552-0.981,0.644-1.97,0.276-2.967s-1.027-1.832-1.978-2.508
		c-0.889-0.644-2.208-1.181-3.956-1.609c-1.748-0.43-3.68-0.645-5.796-0.645c-2.024,0-4.002,0.253-5.934,0.76
		C8.234,2.921,6.517,3.726,5.014,4.829C3.511,5.934,2.3,7.375,1.38,9.153C0.46,10.933,0,13.095,0,15.64v10.028
		c0,2.516,0.46,4.66,1.38,6.439s2.124,3.229,3.611,4.348c1.487,1.119,3.189,1.932,5.106,2.438s3.872,0.76,5.865,0.76
		c1.963,0,3.818-0.246,5.566-0.736s3.281-1.258,4.6-2.301s2.361-2.391,3.128-4.047S30.406,28.919,30.406,26.587"/>
</g>
</svg>
