<?xml version="1.0" encoding="utf-8"?>
<!-- Generator: Adobe Illustrator 16.0.0, SVG Export Plug-In . SVG Version: 6.00 Build 0)  -->
<!DOCTYPE svg PUBLIC "-//W3C//DTD SVG 1.1//EN" "http://www.w3.org/Graphics/SVG/1.1/DTD/svg11.dtd">
<svg version="1.1" id="레이어_1" xmlns="http://www.w3.org/2000/svg" xmlns:xlink="http://www.w3.org/1999/xlink" x="0px"
	 y="0px" width="494.541px" height="39.653px" viewBox="0 0 494.541 39.653" enable-background="new 0 0 494.541 39.653"
	 xml:space="preserve">
<g>
	<defs>
		<rect id="SVGID_1_" width="494.541" height="39.653"/>
	</defs>
	<clipPath id="SVGID_2_">
		<use xlink:href="#SVGID_1_"  overflow="visible"/>
	</clipPath>
	<path clip-path="url(#SVGID_2_)" fill="#E37476" d="M478.671,18.63v11.593c0,1.748,0.214,3.219,0.645,4.416
		c0.429,1.195,1.058,2.162,1.886,2.896c0.828,0.736,1.84,1.273,3.036,1.611c1.195,0.336,2.56,0.506,4.094,0.506
		c0.797,0,1.594-0.123,2.392-0.369c0.797-0.244,1.456-0.537,1.979-0.873c0.644-0.43,1.142-1.012,1.495-1.748
		c0.352-0.736,0.421-1.58,0.207-2.529c-0.154-0.768-0.522-1.381-1.104-1.842c-0.583-0.459-1.258-0.689-2.023-0.689
		c-0.46,0-0.828,0.039-1.104,0.115s-0.583,0.1-0.92,0.068c-0.399-0.031-0.744-0.152-1.035-0.367
		c-0.292-0.215-0.437-0.676-0.437-1.381V18.63h2.714c1.44,0,2.476-0.383,3.104-1.149c0.628-0.768,0.943-1.642,0.943-2.622
		c0-0.46-0.077-0.92-0.23-1.38s-0.391-0.874-0.713-1.242c-0.321-0.368-0.735-0.667-1.241-0.897
		c-0.507-0.229-1.128-0.345-1.863-0.345h-2.714V6.21c0-0.767-0.131-1.44-0.392-2.023s-0.605-1.059-1.035-1.426
		c-0.43-0.368-0.912-0.645-1.448-0.828c-0.537-0.185-1.098-0.276-1.68-0.276c-0.583,0-1.143,0.092-1.679,0.276
		c-0.537,0.184-1.02,0.46-1.449,0.828c-0.43,0.367-0.774,0.843-1.035,1.426s-0.391,1.257-0.391,2.023v4.784h-1.518
		c-0.736,0-1.365,0.115-1.887,0.345c-0.521,0.23-0.942,0.529-1.265,0.897s-0.552,0.782-0.69,1.242
		c-0.138,0.46-0.206,0.92-0.206,1.38c0,0.98,0.313,1.854,0.942,2.622c0.628,0.767,1.663,1.149,3.105,1.149H478.671z M444.815,38.87
		h9.338V22.172c0-0.768,0.114-1.418,0.345-1.955c0.229-0.537,0.529-0.975,0.896-1.312c0.368-0.337,0.768-0.575,1.196-0.713
		s0.843-0.207,1.242-0.207s0.813,0.069,1.242,0.207s0.819,0.376,1.173,0.713c0.353,0.337,0.644,0.774,0.874,1.312
		c0.229,0.536,0.345,1.187,0.345,1.955V38.87h9.477V22.725c0-2.423-0.276-4.448-0.828-6.073c-0.553-1.625-1.296-2.921-2.231-3.887
		c-0.935-0.966-2.039-1.648-3.312-2.047c-1.273-0.399-2.646-0.599-4.117-0.599c-1.228,0-2.43,0.215-3.611,0.645
		c-1.181,0.429-2.216,1.058-3.104,1.886c-0.399-0.828-0.989-1.457-1.771-1.886c-0.782-0.43-1.618-0.645-2.507-0.645
		c-0.613,0-1.196,0.101-1.748,0.299c-0.552,0.199-1.043,0.491-1.472,0.874c-0.43,0.384-0.774,0.859-1.035,1.427
		c-0.261,0.566-0.391,1.233-0.391,2.001V38.87z M428.025,17.572c0.49,0,0.974,0.069,1.448,0.207c0.477,0.138,0.883,0.368,1.22,0.69
		c0.338,0.321,0.605,0.735,0.805,1.241c0.2,0.507,0.284,1.143,0.253,1.909h-7.774c0-0.766,0.123-1.402,0.368-1.909
		c0.246-0.506,0.553-0.92,0.92-1.241c0.368-0.322,0.79-0.553,1.266-0.69S427.504,17.572,428.025,17.572 M429.037,39.653
		c0.828,0,1.648-0.055,2.461-0.162c0.813-0.105,1.58-0.252,2.3-0.436c0.721-0.186,1.365-0.385,1.933-0.6s1.034-0.428,1.402-0.643
		c1.104-0.645,1.895-1.436,2.369-2.369c0.476-0.936,0.468-1.971-0.023-3.105c-0.306-0.705-0.788-1.195-1.448-1.473
		c-0.659-0.275-1.388-0.367-2.186-0.275c-0.397,0.061-0.773,0.16-1.127,0.299c-0.352,0.139-0.696,0.268-1.035,0.391
		c-0.612,0.215-1.226,0.369-1.84,0.461c-0.612,0.092-1.486,0.137-2.622,0.137c-0.552,0-1.134-0.068-1.748-0.207
		c-0.612-0.137-1.18-0.375-1.701-0.713c-0.521-0.336-0.95-0.766-1.288-1.287c-0.337-0.521-0.507-1.182-0.507-1.979v-0.045h16.469
		c0.062-0.4,0.114-0.875,0.161-1.426c0.046-0.553,0.068-1.027,0.068-1.428c0-3.035-0.359-5.511-1.081-7.428
		c-0.72-1.917-1.679-3.412-2.875-4.485c-1.195-1.072-2.553-1.802-4.07-2.185c-1.519-0.383-3.074-0.575-4.67-0.575
		c-1.472,0-2.981,0.207-4.53,0.621c-1.548,0.414-2.959,1.112-4.232,2.093c-1.271,0.981-2.314,2.285-3.128,3.91
		c-0.812,1.625-1.219,3.665-1.219,6.118v4.049c0,2.393,0.422,4.408,1.265,6.049c0.844,1.641,1.948,2.951,3.313,3.934
		c1.364,0.98,2.891,1.686,4.577,2.115S427.381,39.653,429.037,39.653 M368.778,38.87h9.338V21.942
		c0.03-0.736,0.161-1.357,0.391-1.863c0.23-0.506,0.513-0.912,0.852-1.219c0.337-0.307,0.713-0.529,1.127-0.667
		s0.805-0.207,1.173-0.207s0.759,0.069,1.173,0.207s0.797,0.376,1.15,0.713c0.352,0.337,0.636,0.774,0.851,1.312
		c0.214,0.536,0.322,1.187,0.322,1.955V38.87h9.107V22.172c0-0.768,0.115-1.418,0.346-1.955c0.229-0.537,0.513-0.975,0.851-1.312
		c0.337-0.337,0.72-0.575,1.15-0.713c0.429-0.138,0.827-0.207,1.195-0.207s0.759,0.069,1.173,0.207s0.798,0.376,1.15,0.713
		c0.352,0.337,0.636,0.774,0.851,1.312c0.215,0.536,0.322,1.187,0.322,1.955V38.87h9.477V22.725c0-2.393-0.3-4.402-0.897-6.027
		s-1.396-2.921-2.392-3.887c-0.997-0.966-2.155-1.656-3.474-2.07s-2.714-0.621-4.186-0.621c-1.871,0-3.481,0.291-4.83,0.874
		c-1.35,0.583-2.5,1.365-3.45,2.347c-0.981-1.165-2.116-1.993-3.404-2.484c-1.287-0.491-2.638-0.736-4.048-0.736
		c-2.515,0-4.662,0.843-6.439,2.53c-0.368-0.828-0.943-1.457-1.726-1.886c-0.781-0.43-1.618-0.645-2.507-0.645
		c-0.614,0-1.196,0.101-1.748,0.299c-0.552,0.199-1.043,0.491-1.472,0.874c-0.43,0.384-0.775,0.859-1.035,1.427
		c-0.261,0.566-0.391,1.233-0.391,2.001V38.87z M350.378,18.63v11.593c0,1.748,0.215,3.219,0.645,4.416
		c0.429,1.195,1.058,2.162,1.886,2.896c0.828,0.736,1.84,1.273,3.036,1.611c1.195,0.336,2.561,0.506,4.094,0.506
		c0.797,0,1.595-0.123,2.392-0.369c0.797-0.244,1.457-0.537,1.979-0.873c0.644-0.43,1.142-1.012,1.495-1.748
		c0.353-0.736,0.422-1.58,0.207-2.529c-0.153-0.768-0.521-1.381-1.104-1.842c-0.583-0.459-1.257-0.689-2.023-0.689
		c-0.46,0-0.828,0.039-1.104,0.115s-0.583,0.1-0.92,0.068c-0.399-0.031-0.744-0.152-1.035-0.367s-0.437-0.676-0.437-1.381V18.63
		h2.714c1.44,0,2.476-0.383,3.104-1.149c0.629-0.768,0.943-1.642,0.943-2.622c0-0.46-0.077-0.92-0.23-1.38
		c-0.152-0.46-0.391-0.874-0.713-1.242c-0.321-0.368-0.735-0.667-1.242-0.897c-0.506-0.229-1.127-0.345-1.862-0.345h-2.714V6.21
		c0-0.767-0.13-1.44-0.392-2.023c-0.261-0.583-0.605-1.059-1.035-1.426c-0.429-0.368-0.911-0.645-1.448-0.828
		c-0.537-0.185-1.097-0.276-1.68-0.276s-1.142,0.092-1.679,0.276c-0.537,0.184-1.02,0.46-1.449,0.828
		c-0.429,0.367-0.773,0.843-1.035,1.426c-0.261,0.583-0.391,1.257-0.391,2.023v4.784h-1.518c-0.736,0-1.365,0.115-1.887,0.345
		c-0.521,0.23-0.942,0.529-1.265,0.897s-0.552,0.782-0.69,1.242c-0.138,0.46-0.207,0.92-0.207,1.38c0,0.98,0.314,1.854,0.943,2.622
		c0.629,0.767,1.664,1.149,3.105,1.149H350.378z M333.588,27.969v1.654c0,0.492-0.115,0.92-0.345,1.289
		c-0.23,0.367-0.521,0.674-0.874,0.92c-0.354,0.244-0.744,0.43-1.173,0.553c-0.43,0.123-0.859,0.184-1.288,0.184h-0.645
		c-0.797,0-1.426-0.184-1.886-0.553c-0.46-0.367-0.69-0.936-0.69-1.701c0-0.736,0.23-1.313,0.69-1.727
		c0.46-0.412,1.135-0.619,2.024-0.619H333.588z M335.382,38.87h7.269V22.403c0-2.485-0.346-4.524-1.035-6.119
		c-0.69-1.595-1.61-2.844-2.76-3.749c-1.15-0.905-2.484-1.533-4.003-1.886c-1.518-0.354-3.104-0.529-4.761-0.529
		c-0.797,0-1.618,0.046-2.461,0.139c-0.843,0.092-1.679,0.237-2.507,0.437s-1.625,0.452-2.392,0.759
		c-0.768,0.308-1.457,0.69-2.07,1.15c-0.797,0.613-1.35,1.356-1.656,2.23s-0.245,1.771,0.185,2.691
		c0.215,0.46,0.514,0.843,0.896,1.15c0.383,0.307,0.805,0.528,1.265,0.667c0.46,0.138,0.929,0.198,1.403,0.184
		c0.476-0.015,0.928-0.13,1.357-0.345c0.429-0.185,0.805-0.354,1.127-0.506c0.321-0.153,0.667-0.291,1.035-0.414
		c0.552-0.153,1.072-0.276,1.563-0.368s0.997-0.139,1.519-0.139c0.552,0,1.08,0.055,1.587,0.161c0.506,0.107,0.95,0.291,1.334,0.553
		c0.383,0.261,0.689,0.612,0.92,1.058c0.229,0.445,0.359,1.004,0.391,1.678h-4.738c-1.503,0-2.936,0.154-4.301,0.461
		s-2.561,0.813-3.588,1.518s-1.848,1.641-2.461,2.807c-0.613,1.164-0.92,2.621-0.92,4.369c0,1.809,0.313,3.313,0.943,4.508
		c0.629,1.197,1.41,2.148,2.346,2.854c0.935,0.705,1.955,1.203,3.059,1.494c1.104,0.291,2.131,0.438,3.082,0.438h1.013
		c1.38,0,2.668-0.246,3.863-0.736c1.196-0.49,2.239-1.15,3.128-1.979L335.382,38.87z M301.297,17.572
		c0.49,0,0.973,0.069,1.449,0.207c0.475,0.138,0.881,0.368,1.219,0.69c0.337,0.321,0.605,0.735,0.805,1.241
		c0.199,0.507,0.283,1.143,0.254,1.909h-7.774c0-0.766,0.122-1.402,0.368-1.909c0.244-0.506,0.552-0.92,0.92-1.241
		c0.368-0.322,0.789-0.553,1.265-0.69S300.775,17.572,301.297,17.572 M302.309,39.653c0.828,0,1.648-0.055,2.461-0.162
		c0.813-0.105,1.579-0.252,2.301-0.436c0.72-0.186,1.363-0.385,1.932-0.6c0.567-0.215,1.035-0.428,1.403-0.643
		c1.104-0.645,1.893-1.436,2.369-2.369c0.475-0.936,0.467-1.971-0.023-3.105c-0.307-0.705-0.79-1.195-1.449-1.473
		c-0.66-0.275-1.388-0.367-2.185-0.275c-0.399,0.061-0.775,0.16-1.127,0.299c-0.354,0.139-0.698,0.268-1.035,0.391
		c-0.614,0.215-1.228,0.369-1.84,0.461c-0.614,0.092-1.488,0.137-2.622,0.137c-0.552,0-1.135-0.068-1.748-0.207
		c-0.614-0.137-1.181-0.375-1.702-0.713c-0.521-0.336-0.951-0.766-1.288-1.287c-0.338-0.521-0.506-1.182-0.506-1.979v-0.045h16.468
		c0.062-0.4,0.115-0.875,0.161-1.426c0.046-0.553,0.069-1.027,0.069-1.428c0-3.035-0.361-5.511-1.081-7.428
		c-0.722-1.917-1.68-3.412-2.875-4.485c-1.196-1.072-2.554-1.802-4.071-2.185s-3.075-0.575-4.669-0.575
		c-1.472,0-2.983,0.207-4.53,0.621c-1.55,0.414-2.961,1.112-4.232,2.093c-1.273,0.981-2.316,2.285-3.129,3.91
		s-1.219,3.665-1.219,6.118v4.049c0,2.393,0.422,4.408,1.266,6.049c0.843,1.641,1.947,2.951,3.312,3.934
		c1.364,0.98,2.89,1.686,4.577,2.115C298.981,39.438,300.653,39.653,302.309,39.653 M266.475,38.87h9.338V22.678
		c0.062-1.164,0.453-2.084,1.174-2.76c0.721-0.675,1.725-1.058,3.013-1.149c0.337-0.031,0.69-0.038,1.058-0.023
		c0.368,0.016,0.721,0.023,1.059,0.023c1.012,0,1.894-0.322,2.645-0.966c0.751-0.645,1.204-1.503,1.357-2.576
		c0.152-1.073,0.008-2.039-0.438-2.898c-0.445-0.858-1.111-1.472-2-1.84c-0.338-0.153-0.699-0.253-1.082-0.299
		s-0.744-0.069-1.08-0.069c-1.136,0-2.224,0.23-3.267,0.69s-1.993,1.089-2.853,1.886c-0.398-0.859-0.988-1.503-1.771-1.932
		c-0.782-0.43-1.618-0.645-2.507-0.645c-0.613,0-1.196,0.101-1.748,0.299c-0.553,0.199-1.043,0.491-1.473,0.874
		c-0.428,0.384-0.773,0.859-1.034,1.427c-0.261,0.566-0.392,1.233-0.392,2.001V38.87z M246.143,38.87h9.568V9.982h7.038
		c0.674,0,1.242-0.123,1.702-0.368s0.843-0.567,1.15-0.966c0.306-0.399,0.528-0.843,0.666-1.334
		c0.139-0.491,0.207-0.966,0.207-1.426s-0.068-0.929-0.207-1.403c-0.138-0.475-0.353-0.905-0.644-1.288
		c-0.292-0.383-0.675-0.689-1.149-0.92c-0.477-0.23-1.052-0.345-1.726-0.345h-23.644c-0.675,0-1.25,0.114-1.725,0.345
		c-0.476,0.23-0.859,0.537-1.15,0.92c-0.292,0.383-0.506,0.813-0.644,1.288c-0.138,0.475-0.207,0.943-0.207,1.403
		s0.069,0.935,0.207,1.426c0.138,0.491,0.352,0.935,0.644,1.334c0.291,0.398,0.674,0.721,1.15,0.966
		c0.475,0.245,1.05,0.368,1.725,0.368h7.038V38.87z M208.009,17.572c0.491,0,0.974,0.069,1.449,0.207
		c0.476,0.138,0.882,0.368,1.219,0.69c0.338,0.321,0.606,0.735,0.805,1.241c0.2,0.507,0.284,1.143,0.253,1.909h-7.774
		c0-0.766,0.123-1.402,0.368-1.909c0.246-0.506,0.552-0.92,0.92-1.241c0.368-0.322,0.79-0.553,1.265-0.69
		C206.99,17.642,207.488,17.572,208.009,17.572 M209.021,39.653c0.828,0,1.649-0.055,2.461-0.162c0.813-0.105,1.58-0.252,2.3-0.436
		c0.721-0.186,1.365-0.385,1.932-0.6c0.568-0.215,1.035-0.428,1.403-0.643c1.104-0.645,1.894-1.436,2.369-2.369
		c0.476-0.936,0.468-1.971-0.023-3.105c-0.306-0.705-0.789-1.195-1.449-1.473c-0.659-0.275-1.387-0.367-2.185-0.275
		c-0.398,0.061-0.774,0.16-1.127,0.299c-0.352,0.139-0.697,0.268-1.035,0.391c-0.613,0.215-1.226,0.369-1.84,0.461
		c-0.613,0.092-1.487,0.137-2.622,0.137c-0.552,0-1.134-0.068-1.748-0.207c-0.613-0.137-1.18-0.375-1.702-0.713
		c-0.521-0.336-0.95-0.766-1.288-1.287c-0.337-0.521-0.506-1.182-0.506-1.979v-0.045h16.468c0.062-0.4,0.115-0.875,0.161-1.426
		c0.046-0.553,0.069-1.027,0.069-1.428c0-3.035-0.36-5.511-1.081-7.428c-0.72-1.917-1.679-3.412-2.875-4.485
		c-1.196-1.072-2.553-1.802-4.071-2.185s-3.074-0.575-4.669-0.575c-1.472,0-2.982,0.207-4.531,0.621
		c-1.548,0.414-2.959,1.112-4.232,2.093c-1.272,0.981-2.315,2.285-3.128,3.91c-0.812,1.625-1.219,3.665-1.219,6.118v4.049
		c0,2.393,0.422,4.408,1.265,6.049c0.844,1.641,1.948,2.951,3.312,3.934c1.365,0.98,2.891,1.686,4.577,2.115
		C205.694,39.438,207.365,39.653,209.021,39.653 M176.822,18.63v11.593c0,1.748,0.214,3.219,0.644,4.416
		c0.429,1.195,1.058,2.162,1.886,2.896c0.828,0.736,1.84,1.273,3.036,1.611c1.196,0.336,2.56,0.506,4.094,0.506
		c0.797,0,1.594-0.123,2.392-0.369c0.797-0.244,1.456-0.537,1.978-0.873c0.644-0.43,1.142-1.012,1.495-1.748
		c0.352-0.736,0.421-1.58,0.207-2.529c-0.154-0.768-0.522-1.381-1.104-1.842c-0.583-0.459-1.258-0.689-2.024-0.689
		c-0.46,0-0.828,0.039-1.104,0.115c-0.276,0.076-0.583,0.1-0.92,0.068c-0.399-0.031-0.744-0.152-1.035-0.367
		c-0.292-0.215-0.437-0.676-0.437-1.381V18.63h2.714c1.441,0,2.476-0.383,3.105-1.149c0.628-0.768,0.943-1.642,0.943-2.622
		c0-0.46-0.077-0.92-0.23-1.38c-0.154-0.46-0.391-0.874-0.713-1.242c-0.322-0.368-0.736-0.667-1.242-0.897
		c-0.506-0.229-1.127-0.345-1.863-0.345h-2.714V6.21c0-0.767-0.131-1.44-0.391-2.023c-0.261-0.583-0.606-1.059-1.035-1.426
		c-0.43-0.368-0.913-0.645-1.449-0.828c-0.537-0.185-1.097-0.276-1.679-0.276c-0.583,0-1.143,0.092-1.679,0.276
		c-0.537,0.184-1.02,0.46-1.449,0.828c-0.43,0.367-0.775,0.843-1.035,1.426c-0.261,0.583-0.391,1.257-0.391,2.023v4.784h-1.518
		c-0.736,0-1.365,0.115-1.886,0.345c-0.522,0.23-0.943,0.529-1.265,0.897c-0.322,0.368-0.552,0.782-0.69,1.242
		c-0.138,0.46-0.207,0.92-0.207,1.38c0,0.98,0.314,1.854,0.943,2.622c0.628,0.767,1.663,1.149,3.105,1.149H176.822z M160.032,27.969
		v1.654c0,0.492-0.115,0.92-0.345,1.289c-0.23,0.367-0.522,0.674-0.874,0.92c-0.353,0.244-0.744,0.43-1.173,0.553
		c-0.43,0.123-0.859,0.184-1.288,0.184h-0.644c-0.798,0-1.426-0.184-1.886-0.553c-0.46-0.367-0.69-0.936-0.69-1.701
		c0-0.736,0.23-1.313,0.69-1.727c0.46-0.412,1.134-0.619,2.024-0.619H160.032z M161.826,38.87h7.268V22.403
		c0-2.485-0.345-4.524-1.035-6.119s-1.61-2.844-2.76-3.749c-1.15-0.905-2.484-1.533-4.002-1.886
		c-1.518-0.354-3.105-0.529-4.761-0.529c-0.798,0-1.618,0.046-2.461,0.139c-0.844,0.092-1.679,0.237-2.507,0.437
		c-0.828,0.199-1.626,0.452-2.392,0.759c-0.767,0.308-1.457,0.69-2.07,1.15c-0.798,0.613-1.35,1.356-1.656,2.23
		c-0.307,0.874-0.246,1.771,0.184,2.691c0.214,0.46,0.513,0.843,0.897,1.15c0.383,0.307,0.805,0.528,1.265,0.667
		c0.46,0.138,0.927,0.198,1.403,0.184c0.475-0.015,0.927-0.13,1.357-0.345c0.429-0.185,0.805-0.354,1.127-0.506
		c0.322-0.153,0.667-0.291,1.035-0.414c0.552-0.153,1.073-0.276,1.564-0.368c0.49-0.092,0.996-0.139,1.518-0.139
		c0.552,0,1.081,0.055,1.587,0.161c0.506,0.107,0.95,0.291,1.334,0.553c0.383,0.261,0.69,0.612,0.92,1.058s0.36,1.004,0.391,1.678
		h-4.738c-1.503,0-2.937,0.154-4.301,0.461c-1.365,0.307-2.561,0.813-3.588,1.518c-1.028,0.705-1.848,1.641-2.461,2.807
		c-0.614,1.164-0.92,2.621-0.92,4.369c0,1.809,0.314,3.313,0.943,4.508c0.628,1.197,1.41,2.148,2.346,2.854
		c0.935,0.705,1.955,1.203,3.059,1.494s2.131,0.438,3.082,0.438h1.012c1.38,0,2.668-0.246,3.864-0.736
		c1.196-0.49,2.238-1.15,3.128-1.979L161.826,38.87z M130.592,38.87h9.476V22.817c0-2.423-0.291-4.448-0.874-6.073
		c-0.582-1.625-1.364-2.929-2.346-3.91c-0.981-0.98-2.139-1.679-3.473-2.093s-2.752-0.621-4.255-0.621
		c-1.226,0-2.353,0.192-3.381,0.575c-1.027,0.383-1.939,0.928-2.737,1.633V4.601c0-0.768-0.13-1.435-0.391-2.001
		c-0.26-0.567-0.605-1.043-1.035-1.426c-0.429-0.384-0.92-0.676-1.472-0.874c-0.552-0.199-1.134-0.3-1.748-0.3
		c-0.613,0-1.203,0.101-1.771,0.3c-0.567,0.198-1.065,0.49-1.495,0.874c-0.429,0.383-0.774,0.858-1.035,1.426
		c-0.26,0.566-0.391,1.233-0.391,2.001V38.87h9.338V21.989c0.031-0.736,0.169-1.358,0.414-1.864c0.246-0.506,0.552-0.912,0.92-1.219
		s0.775-0.529,1.219-0.667c0.445-0.138,0.867-0.207,1.265-0.207c0.399,0,0.821,0.069,1.265,0.207
		c0.445,0.138,0.851,0.376,1.219,0.713c0.368,0.337,0.675,0.774,0.92,1.312c0.246,0.538,0.368,1.188,0.368,1.956V38.87z
		 M95.311,26.956v-4.139c0-0.982,0.138-1.787,0.414-2.416c0.276-0.629,0.636-1.119,1.081-1.472c0.445-0.354,0.928-0.599,1.449-0.736
		s1.043-0.207,1.564-0.207c0.705,0,1.273,0.046,1.702,0.138c0.429,0.093,0.874,0.245,1.334,0.46c0.337,0.153,0.682,0.308,1.035,0.46
		c0.353,0.153,0.744,0.262,1.173,0.322c0.736,0.092,1.434,0.031,2.093-0.184c0.659-0.215,1.204-0.705,1.633-1.473
		c0.307-0.521,0.468-1.05,0.483-1.587s-0.077-1.065-0.276-1.587c-0.199-0.521-0.498-1.004-0.897-1.449
		c-0.399-0.444-0.874-0.836-1.426-1.173c-0.736-0.46-1.702-0.874-2.898-1.242c-1.196-0.367-2.622-0.552-4.278-0.552
		c-1.595,0-3.205,0.215-4.83,0.645c-1.625,0.429-3.09,1.135-4.393,2.115c-1.303,0.981-2.369,2.285-3.197,3.91
		c-0.828,1.625-1.242,3.649-1.242,6.072v4.049c0,2.484,0.414,4.539,1.242,6.164c0.828,1.625,1.909,2.928,3.243,3.91
		c1.334,0.98,2.837,1.67,4.508,2.07c1.671,0.398,3.335,0.598,4.991,0.598c1.564,0,2.975-0.207,4.232-0.621
		c1.257-0.414,2.315-0.883,3.174-1.404c0.552-0.336,1.027-0.734,1.426-1.195c0.399-0.459,0.698-0.957,0.897-1.494
		c0.199-0.537,0.276-1.09,0.23-1.656c-0.046-0.568-0.222-1.113-0.529-1.633c-0.399-0.645-0.912-1.09-1.541-1.334
		c-0.629-0.246-1.28-0.307-1.955-0.186c-0.429,0.063-0.828,0.193-1.196,0.393c-0.368,0.199-0.721,0.375-1.058,0.529
		c-0.613,0.275-1.188,0.467-1.725,0.574s-1.188,0.16-1.955,0.16c-0.521,0-1.05-0.068-1.587-0.207
		c-0.537-0.137-1.02-0.383-1.449-0.734c-0.429-0.354-0.782-0.844-1.058-1.473S95.311,27.938,95.311,26.956 M72.679,27.969v1.654
		c0,0.492-0.115,0.92-0.345,1.289c-0.23,0.367-0.521,0.674-0.874,0.92c-0.353,0.244-0.744,0.43-1.173,0.553
		c-0.429,0.123-0.859,0.184-1.288,0.184h-0.644c-0.797,0-1.426-0.184-1.886-0.553c-0.46-0.367-0.69-0.936-0.69-1.701
		c0-0.736,0.23-1.313,0.69-1.727c0.46-0.412,1.135-0.619,2.024-0.619H72.679z M74.473,38.87h7.268V22.403
		c0-2.485-0.345-4.524-1.035-6.119s-1.61-2.844-2.76-3.749c-1.15-0.905-2.484-1.533-4.002-1.886
		c-1.518-0.354-3.105-0.529-4.761-0.529c-0.797,0-1.618,0.046-2.461,0.139c-0.843,0.092-1.679,0.237-2.507,0.437
		c-0.828,0.199-1.625,0.452-2.392,0.759c-0.767,0.308-1.457,0.69-2.07,1.15c-0.797,0.613-1.349,1.356-1.656,2.23
		c-0.307,0.874-0.245,1.771,0.184,2.691c0.215,0.46,0.514,0.843,0.897,1.15c0.383,0.307,0.805,0.528,1.265,0.667
		c0.46,0.138,0.928,0.198,1.403,0.184c0.475-0.015,0.928-0.13,1.357-0.345c0.429-0.185,0.805-0.354,1.127-0.506
		c0.322-0.153,0.667-0.291,1.035-0.414c0.552-0.153,1.073-0.276,1.564-0.368c0.491-0.092,0.997-0.139,1.518-0.139
		c0.552,0,1.081,0.055,1.587,0.161c0.506,0.107,0.951,0.291,1.334,0.553c0.383,0.261,0.69,0.612,0.92,1.058s0.36,1.004,0.391,1.678
		h-4.738c-1.503,0-2.936,0.154-4.301,0.461c-1.365,0.307-2.561,0.813-3.588,1.518c-1.027,0.705-1.848,1.641-2.461,2.807
		c-0.613,1.164-0.92,2.621-0.92,4.369c0,1.809,0.314,3.313,0.943,4.508c0.629,1.197,1.411,2.148,2.346,2.854
		s1.955,1.203,3.059,1.494s2.131,0.438,3.082,0.438h1.012c1.38,0,2.668-0.246,3.864-0.736c1.196-0.49,2.239-1.15,3.128-1.979
		L74.473,38.87z M40.387,17.572c0.491,0,0.974,0.069,1.449,0.207c0.476,0.138,0.882,0.368,1.219,0.69
		c0.338,0.321,0.606,0.735,0.805,1.241c0.2,0.507,0.284,1.143,0.253,1.909h-7.774c0-0.766,0.123-1.402,0.368-1.909
		c0.246-0.506,0.552-0.92,0.92-1.241c0.368-0.322,0.79-0.553,1.265-0.69C39.368,17.642,39.866,17.572,40.387,17.572 M41.399,39.653
		c0.828,0,1.649-0.055,2.461-0.162c0.813-0.105,1.58-0.252,2.3-0.436c0.721-0.186,1.365-0.385,1.932-0.6
		c0.568-0.215,1.035-0.428,1.403-0.643c1.104-0.645,1.894-1.436,2.369-2.369c0.476-0.936,0.468-1.971-0.023-3.105
		c-0.306-0.705-0.789-1.195-1.449-1.473c-0.659-0.275-1.387-0.367-2.185-0.275c-0.398,0.061-0.774,0.16-1.127,0.299
		c-0.352,0.139-0.697,0.268-1.035,0.391c-0.613,0.215-1.226,0.369-1.84,0.461c-0.613,0.092-1.487,0.137-2.622,0.137
		c-0.552,0-1.134-0.068-1.748-0.207c-0.613-0.137-1.18-0.375-1.702-0.713c-0.521-0.336-0.95-0.766-1.288-1.287
		c-0.337-0.521-0.506-1.182-0.506-1.979v-0.045h16.468c0.062-0.4,0.115-0.875,0.161-1.426c0.046-0.553,0.069-1.027,0.069-1.428
		c0-3.035-0.36-5.511-1.081-7.428c-0.72-1.917-1.679-3.412-2.875-4.485c-1.196-1.072-2.553-1.802-4.071-2.185
		c-1.518-0.383-3.074-0.575-4.669-0.575c-1.472,0-2.982,0.207-4.531,0.621c-1.548,0.414-2.959,1.112-4.232,2.093
		c-1.272,0.981-2.315,2.285-3.128,3.91c-0.812,1.625-1.219,3.665-1.219,6.118v4.049c0,2.393,0.422,4.408,1.265,6.049
		c0.844,1.641,1.948,2.951,3.312,3.934c1.365,0.98,2.891,1.686,4.577,2.115C38.072,39.438,39.743,39.653,41.399,39.653 M7.176,38.87
		h13.938c0.675,0,1.242-0.123,1.702-0.367s0.843-0.566,1.15-0.967c0.307-0.398,0.529-0.842,0.667-1.334
		c0.138-0.49,0.207-0.965,0.207-1.426c0-0.459-0.069-0.928-0.207-1.402c-0.138-0.475-0.353-0.904-0.644-1.289
		c-0.291-0.383-0.675-0.689-1.15-0.92c-0.475-0.229-1.05-0.344-1.725-0.344H10.902c-0.521,0-0.874-0.084-1.058-0.254
		c-0.184-0.168-0.276-0.529-0.276-1.08V6.349c0-0.768-0.13-1.441-0.391-2.024C8.916,3.741,8.564,3.251,8.119,2.853
		C7.674,2.453,7.161,2.154,6.578,1.955S5.397,1.656,4.784,1.656c-0.613,0-1.211,0.1-1.794,0.299S1.894,2.453,1.449,2.853
		C1.004,3.251,0.652,3.741,0.391,4.324C0.13,4.907,0,5.581,0,6.349v25.253c0,1.318,0.115,2.438,0.345,3.357s0.621,1.672,1.173,2.254
		c0.552,0.584,1.288,1.006,2.208,1.266C4.646,38.741,5.796,38.87,7.176,38.87"/>
</g>
</svg>
