<?xml version="1.0" encoding="utf-8"?>
<!-- Generator: Adobe Illustrator 16.0.0, SVG Export Plug-In . SVG Version: 6.00 Build 0)  -->
<!DOCTYPE svg PUBLIC "-//W3C//DTD SVG 1.1//EN" "http://www.w3.org/Graphics/SVG/1.1/DTD/svg11.dtd">
<svg version="1.1" id="레이어_1" xmlns="http://www.w3.org/2000/svg" xmlns:xlink="http://www.w3.org/1999/xlink" x="0px"
	 y="0px" width="646.845px" height="47.259px" viewBox="0 0 646.845 47.259" enable-background="new 0 0 646.845 47.259"
	 xml:space="preserve">
<g>
	<defs>
		<rect id="SVGID_1_" width="646.845" height="47.259"/>
	</defs>
	<clipPath id="SVGID_2_">
		<use xlink:href="#SVGID_1_"  overflow="visible"/>
	</clipPath>
	<path clip-path="url(#SVGID_2_)" fill="#E37476" d="M630.975,18.63v11.592c0,1.748,0.216,3.219,0.645,4.416
		c0.43,1.195,1.058,2.162,1.886,2.896c0.828,0.736,1.84,1.273,3.036,1.611c1.196,0.336,2.561,0.506,4.094,0.506
		c0.798,0,1.596-0.123,2.393-0.369c0.798-0.244,1.457-0.537,1.978-0.873c0.645-0.43,1.144-1.012,1.495-1.748
		c0.353-0.736,0.422-1.58,0.207-2.529c-0.153-0.768-0.521-1.381-1.104-1.842c-0.581-0.459-1.257-0.689-2.023-0.689
		c-0.46,0-0.828,0.039-1.104,0.115c-0.275,0.078-0.582,0.1-0.92,0.068c-0.397-0.029-0.742-0.152-1.035-0.367
		c-0.291-0.215-0.437-0.676-0.437-1.381V18.63h2.714c1.442,0,2.478-0.384,3.105-1.15c0.629-0.767,0.942-1.641,0.942-2.622
		c0-0.46-0.076-0.92-0.229-1.38s-0.392-0.874-0.713-1.242c-0.322-0.368-0.736-0.667-1.242-0.896
		c-0.506-0.23-1.127-0.346-1.863-0.346h-2.714V6.21c0-0.768-0.13-1.441-0.391-2.024s-0.605-1.058-1.035-1.426
		s-0.912-0.645-1.449-0.828c-0.536-0.185-1.096-0.276-1.679-0.276c-0.582,0-1.143,0.092-1.68,0.276
		c-0.535,0.184-1.019,0.46-1.448,0.828s-0.774,0.843-1.035,1.426c-0.26,0.583-0.392,1.257-0.392,2.024v4.783h-1.518
		c-0.736,0-1.364,0.115-1.886,0.346c-0.521,0.229-0.943,0.528-1.266,0.896c-0.321,0.368-0.552,0.782-0.689,1.242
		c-0.139,0.46-0.207,0.92-0.207,1.38c0,0.981,0.314,1.855,0.942,2.622c0.63,0.767,1.664,1.15,3.105,1.15H630.975z M597.12,38.869
		h9.338V22.172c0-0.768,0.115-1.418,0.345-1.955c0.23-0.537,0.529-0.975,0.897-1.312s0.766-0.575,1.196-0.713
		c0.429-0.138,0.843-0.207,1.241-0.207s0.813,0.069,1.242,0.207c0.429,0.138,0.82,0.376,1.173,0.713s0.645,0.774,0.874,1.312
		c0.23,0.537,0.345,1.188,0.345,1.955v16.697h9.477V22.724c0-2.423-0.276-4.447-0.828-6.072s-1.296-2.921-2.23-3.887
		c-0.937-0.966-2.04-1.648-3.313-2.047c-1.273-0.399-2.645-0.599-4.117-0.599c-1.227,0-2.431,0.216-3.61,0.645
		c-1.182,0.429-2.217,1.058-3.105,1.886c-0.399-0.828-0.989-1.457-1.771-1.886c-0.782-0.429-1.618-0.645-2.508-0.645
		c-0.613,0-1.195,0.101-1.748,0.3c-0.552,0.198-1.043,0.49-1.472,0.874c-0.43,0.383-0.774,0.858-1.035,1.426
		c-0.261,0.566-0.391,1.233-0.391,2.001V38.869z M580.33,17.571c0.491,0,0.974,0.069,1.449,0.207s0.882,0.368,1.219,0.69
		c0.338,0.321,0.605,0.735,0.805,1.242c0.2,0.506,0.284,1.142,0.253,1.908h-7.773c0-0.767,0.123-1.402,0.368-1.908
		c0.246-0.507,0.552-0.921,0.92-1.242c0.367-0.322,0.79-0.553,1.265-0.69C579.311,17.641,579.809,17.571,580.33,17.571
		 M581.342,39.652c0.828,0,1.649-0.055,2.461-0.162c0.813-0.105,1.58-0.252,2.3-0.436c0.722-0.186,1.365-0.383,1.933-0.6
		c0.567-0.215,1.035-0.428,1.402-0.643c1.104-0.645,1.895-1.434,2.369-2.369c0.477-0.936,0.469-1.971-0.022-3.105
		c-0.307-0.705-0.789-1.195-1.449-1.473c-0.659-0.275-1.387-0.367-2.185-0.275c-0.398,0.061-0.774,0.162-1.127,0.299
		c-0.353,0.139-0.697,0.268-1.035,0.391c-0.613,0.215-1.227,0.369-1.84,0.461s-1.487,0.139-2.622,0.139
		c-0.553,0-1.135-0.07-1.748-0.207c-0.613-0.139-1.181-0.377-1.702-0.715c-0.521-0.336-0.95-0.766-1.288-1.287
		c-0.337-0.521-0.506-1.182-0.506-1.979v-0.045h16.468c0.063-0.4,0.115-0.875,0.161-1.426c0.046-0.553,0.069-1.027,0.069-1.426
		c0-3.037-0.36-5.513-1.081-7.43s-1.68-3.412-2.875-4.484c-1.196-1.073-2.554-1.803-4.071-2.186
		c-1.519-0.383-3.074-0.575-4.669-0.575c-1.472,0-2.982,0.207-4.531,0.621c-1.548,0.414-2.959,1.112-4.231,2.093
		c-1.272,0.981-2.315,2.285-3.129,3.91c-0.812,1.625-1.219,3.665-1.219,6.118v4.048c0,2.393,0.422,4.408,1.266,6.049
		s1.947,2.951,3.312,3.934c1.365,0.98,2.891,1.686,4.577,2.115S579.686,39.652,581.342,39.652 M521.082,38.869h9.338V21.941
		c0.031-0.736,0.161-1.356,0.391-1.863c0.23-0.506,0.515-0.912,0.852-1.219c0.338-0.307,0.713-0.529,1.127-0.667
		s0.805-0.207,1.173-0.207s0.759,0.069,1.173,0.207s0.798,0.376,1.15,0.713s0.637,0.774,0.851,1.312
		c0.215,0.537,0.322,1.188,0.322,1.955v16.697h9.108V22.172c0-0.768,0.114-1.418,0.345-1.955c0.229-0.537,0.514-0.975,0.851-1.312
		c0.338-0.337,0.722-0.575,1.15-0.713c0.43-0.138,0.828-0.207,1.196-0.207c0.367,0,0.759,0.069,1.173,0.207s0.798,0.376,1.149,0.713
		c0.354,0.337,0.638,0.774,0.852,1.312c0.215,0.537,0.321,1.188,0.321,1.955v16.697h9.477V22.724c0-2.393-0.299-4.401-0.897-6.026
		c-0.598-1.625-1.395-2.921-2.392-3.887c-0.996-0.966-2.154-1.656-3.473-2.07s-2.715-0.621-4.187-0.621
		c-1.87,0-3.479,0.291-4.83,0.874c-1.349,0.583-2.499,1.365-3.45,2.347c-0.98-1.165-2.115-1.993-3.403-2.484
		s-2.638-0.736-4.048-0.736c-2.515,0-4.661,0.844-6.44,2.53c-0.368-0.828-0.943-1.457-1.725-1.886
		c-0.782-0.429-1.617-0.645-2.508-0.645c-0.612,0-1.195,0.101-1.747,0.3c-0.553,0.198-1.043,0.49-1.473,0.874
		c-0.429,0.383-0.773,0.858-1.035,1.426c-0.26,0.566-0.391,1.233-0.391,2.001V38.869z M504.293,17.571
		c0.491,0,0.974,0.069,1.449,0.207c0.475,0.138,0.882,0.368,1.219,0.69c0.337,0.321,0.606,0.735,0.805,1.242
		c0.199,0.506,0.284,1.142,0.253,1.908h-7.773c0-0.767,0.122-1.402,0.368-1.908c0.245-0.507,0.552-0.921,0.92-1.242
		c0.368-0.322,0.79-0.553,1.265-0.69C503.273,17.641,503.772,17.571,504.293,17.571 M505.305,39.652
		c0.828,0,1.648-0.055,2.461-0.162c0.813-0.105,1.579-0.252,2.301-0.436c0.721-0.186,1.364-0.383,1.932-0.6
		c0.567-0.215,1.035-0.428,1.403-0.643c1.104-0.645,1.894-1.434,2.368-2.369c0.476-0.936,0.469-1.971-0.022-3.105
		c-0.307-0.705-0.79-1.195-1.449-1.473c-0.659-0.275-1.388-0.367-2.185-0.275c-0.399,0.061-0.774,0.162-1.127,0.299
		c-0.354,0.139-0.698,0.268-1.035,0.391c-0.613,0.215-1.228,0.369-1.84,0.461c-0.613,0.092-1.487,0.139-2.622,0.139
		c-0.553,0-1.136-0.07-1.748-0.207c-0.613-0.139-1.182-0.377-1.702-0.715c-0.521-0.336-0.951-0.766-1.288-1.287
		s-0.506-1.182-0.506-1.979v-0.045h16.468c0.062-0.4,0.115-0.875,0.161-1.426c0.046-0.553,0.069-1.027,0.069-1.426
		c0-3.037-0.36-5.513-1.081-7.43c-0.722-1.917-1.68-3.412-2.875-4.484c-1.196-1.073-2.554-1.803-4.071-2.186
		s-3.075-0.575-4.669-0.575c-1.472,0-2.982,0.207-4.531,0.621s-2.959,1.112-4.231,2.093c-1.273,0.981-2.315,2.285-3.128,3.91
		c-0.813,1.625-1.22,3.665-1.22,6.118v4.048c0,2.393,0.422,4.408,1.266,6.049c0.843,1.641,1.946,2.951,3.312,3.934
		c1.364,0.98,2.89,1.686,4.577,2.115C501.978,39.437,503.649,39.652,505.305,39.652 M469.793,25.667v-3.496
		c0-0.768,0.13-1.418,0.391-1.955c0.262-0.537,0.583-0.975,0.967-1.312c0.383-0.337,0.805-0.575,1.265-0.713
		s0.889-0.207,1.288-0.207c0.398,0,0.82,0.069,1.265,0.207c0.445,0.138,0.859,0.36,1.242,0.667s0.713,0.713,0.989,1.219
		c0.275,0.507,0.429,1.127,0.46,1.863v3.957c-0.031,0.736-0.185,1.357-0.46,1.863c-0.276,0.506-0.606,0.912-0.989,1.219
		s-0.797,0.529-1.242,0.666c-0.444,0.139-0.866,0.207-1.265,0.207c-0.399,0-0.828-0.068-1.288-0.207
		c-0.46-0.137-0.882-0.375-1.265-0.713c-0.384-0.336-0.705-0.768-0.967-1.287C469.923,27.125,469.793,26.464,469.793,25.667
		 M486.905,35.419v-20.7c0-1.533-0.46-2.684-1.38-3.45s-1.993-1.15-3.221-1.15c-0.92,0-1.771,0.216-2.553,0.645
		s-1.357,1.073-1.725,1.932c-0.89-0.858-1.917-1.503-3.082-1.932s-2.331-0.645-3.496-0.645c-1.533,0-2.976,0.207-4.324,0.621
		s-2.53,1.112-3.542,2.093c-1.012,0.981-1.809,2.285-2.392,3.91s-0.874,3.649-0.874,6.072v2.024c0,2.393,0.291,4.393,0.874,6.004
		c0.583,1.609,1.38,2.896,2.392,3.863s2.185,1.648,3.519,2.047s2.769,0.598,4.302,0.598c1.411,0,2.668-0.221,3.771-0.666
		c1.104-0.445,2.056-1.066,2.853-1.863v0.828c0,0.521-0.107,1.027-0.322,1.518s-0.552,0.936-1.012,1.334s-1.043,0.713-1.748,0.943
		s-1.549,0.344-2.53,0.344c-0.859,0-1.656-0.045-2.392-0.137c-0.736-0.092-1.441-0.184-2.116-0.275
		c-0.797-0.123-1.533,0.029-2.208,0.459s-1.15,1.012-1.426,1.748c-0.308,0.797-0.314,1.633-0.023,2.508
		c0.291,0.873,0.79,1.51,1.495,1.908c0.368,0.215,0.843,0.406,1.426,0.574c0.583,0.17,1.196,0.309,1.84,0.414
		c0.645,0.107,1.266,0.186,1.863,0.23c0.598,0.047,1.112,0.055,1.541,0.023c3.097-0.123,5.597-0.576,7.498-1.357
		s3.366-1.732,4.393-2.852c1.027-1.119,1.718-2.354,2.07-3.703S486.905,36.677,486.905,35.419 M447.161,27.968v1.654
		c0,0.492-0.115,0.922-0.345,1.289c-0.23,0.367-0.521,0.676-0.874,0.92c-0.354,0.244-0.744,0.43-1.174,0.553
		c-0.429,0.123-0.858,0.184-1.287,0.184h-0.645c-0.797,0-1.426-0.184-1.886-0.553c-0.46-0.367-0.69-0.936-0.69-1.701
		c0-0.736,0.23-1.311,0.69-1.725s1.135-0.621,2.023-0.621H447.161z M448.955,38.869h7.268V22.401c0-2.483-0.345-4.522-1.035-6.118
		c-0.689-1.595-1.609-2.844-2.76-3.749c-1.149-0.904-2.483-1.532-4.002-1.886c-1.518-0.353-3.104-0.529-4.761-0.529
		c-0.797,0-1.618,0.046-2.461,0.139c-0.843,0.092-1.679,0.237-2.507,0.437s-1.625,0.452-2.393,0.759
		c-0.767,0.308-1.457,0.69-2.069,1.15c-0.798,0.613-1.35,1.357-1.656,2.231c-0.307,0.873-0.245,1.771,0.184,2.69
		c0.215,0.46,0.515,0.843,0.897,1.15c0.383,0.307,0.805,0.528,1.265,0.667c0.46,0.138,0.928,0.198,1.403,0.184
		c0.475-0.015,0.928-0.13,1.356-0.345c0.43-0.185,0.806-0.354,1.127-0.506c0.322-0.153,0.667-0.291,1.035-0.414
		c0.553-0.153,1.073-0.276,1.564-0.368s0.997-0.138,1.518-0.138c0.553,0,1.081,0.054,1.587,0.16
		c0.507,0.107,0.951,0.291,1.334,0.553c0.384,0.261,0.69,0.612,0.92,1.058c0.23,0.445,0.36,1.004,0.392,1.679h-4.738
		c-1.503,0-2.936,0.153-4.301,0.46c-1.365,0.308-2.562,0.813-3.588,1.519c-1.027,0.705-1.849,1.64-2.461,2.806
		c-0.613,1.164-0.92,2.621-0.92,4.369c0,1.811,0.313,3.313,0.942,4.508c0.629,1.197,1.411,2.148,2.347,2.854
		c0.935,0.705,1.955,1.203,3.059,1.494c1.104,0.291,2.131,0.438,3.082,0.438h1.012c1.38,0,2.668-0.246,3.864-0.736
		s2.239-1.15,3.128-1.979L448.955,38.869z M401.069,38.869h9.338V22.172c0-0.768,0.115-1.418,0.345-1.955
		c0.23-0.537,0.529-0.975,0.897-1.312c0.367-0.337,0.767-0.575,1.195-0.713c0.431-0.138,0.845-0.207,1.242-0.207
		c0.399,0,0.813,0.069,1.242,0.207c0.43,0.138,0.821,0.376,1.173,0.713c0.354,0.337,0.645,0.774,0.874,1.312
		c0.23,0.537,0.345,1.188,0.345,1.955v16.697h9.477V22.724c0-2.423-0.276-4.447-0.828-6.072s-1.295-2.921-2.231-3.887
		c-0.935-0.966-2.039-1.648-3.312-2.047c-1.272-0.399-2.646-0.599-4.117-0.599c-1.226,0-2.43,0.216-3.611,0.645
		c-1.18,0.429-2.215,1.058-3.104,1.886c-0.398-0.828-0.989-1.457-1.771-1.886c-0.781-0.429-1.616-0.645-2.507-0.645
		c-0.613,0-1.196,0.101-1.748,0.3c-0.552,0.198-1.042,0.49-1.472,0.874c-0.429,0.383-0.774,0.858-1.035,1.426
		c-0.26,0.566-0.391,1.233-0.391,2.001V38.869z M387.546,27.968v1.654c0,0.492-0.115,0.922-0.345,1.289
		c-0.23,0.367-0.522,0.676-0.874,0.92c-0.354,0.244-0.744,0.43-1.173,0.553c-0.431,0.123-0.859,0.184-1.288,0.184h-0.645
		c-0.798,0-1.426-0.184-1.886-0.553c-0.46-0.367-0.689-0.936-0.689-1.701c0-0.736,0.229-1.311,0.689-1.725s1.134-0.621,2.024-0.621
		H387.546z M389.34,38.869h7.269V22.401c0-2.483-0.346-4.522-1.035-6.118c-0.69-1.595-1.61-2.844-2.761-3.749
		c-1.149-0.904-2.483-1.532-4.002-1.886c-1.518-0.353-3.104-0.529-4.761-0.529c-0.798,0-1.618,0.046-2.461,0.139
		c-0.844,0.092-1.679,0.237-2.507,0.437s-1.626,0.452-2.392,0.759c-0.768,0.308-1.457,0.69-2.07,1.15
		c-0.798,0.613-1.351,1.357-1.656,2.231c-0.307,0.873-0.246,1.771,0.185,2.69c0.214,0.46,0.513,0.843,0.896,1.15
		c0.383,0.307,0.805,0.528,1.265,0.667c0.46,0.138,0.928,0.198,1.403,0.184c0.475-0.015,0.927-0.13,1.357-0.345
		c0.429-0.185,0.805-0.354,1.127-0.506c0.321-0.153,0.667-0.291,1.035-0.414c0.552-0.153,1.072-0.276,1.563-0.368
		c0.49-0.092,0.996-0.138,1.519-0.138c0.552,0,1.08,0.054,1.587,0.16c0.506,0.107,0.949,0.291,1.334,0.553
		c0.383,0.261,0.689,0.612,0.92,1.058c0.229,0.445,0.359,1.004,0.391,1.679h-4.738c-1.503,0-2.937,0.153-4.301,0.46
		c-1.365,0.308-2.561,0.813-3.588,1.519c-1.028,0.705-1.848,1.64-2.461,2.806c-0.614,1.164-0.92,2.621-0.92,4.369
		c0,1.811,0.313,3.313,0.943,4.508c0.628,1.197,1.409,2.148,2.346,2.854c0.935,0.705,1.955,1.203,3.059,1.494
		c1.104,0.291,2.131,0.438,3.082,0.438h1.013c1.38,0,2.668-0.246,3.863-0.736c1.196-0.49,2.238-1.15,3.128-1.979L389.34,38.869z
		 M347.756,37.214c0.429,0,0.905-0.047,1.426-0.139c0.521-0.092,1.027-0.23,1.519-0.414c0.49-0.184,0.912-0.414,1.265-0.689
		c0.354-0.277,0.59-0.613,0.713-1.012l4.692-16.929l2.07,20.837h8.693L364.27,6.348c-0.061-0.705-0.253-1.334-0.574-1.886
		c-0.322-0.553-0.713-1.021-1.173-1.403c-0.461-0.383-0.958-0.682-1.495-0.897c-0.537-0.215-1.066-0.353-1.587-0.414
		c-0.553-0.03-1.144,0-1.771,0.093c-0.629,0.092-1.234,0.283-1.817,0.574s-1.096,0.69-1.541,1.196
		c-0.444,0.506-0.773,1.143-0.988,1.909l-5.566,21.068L342.19,5.52c-0.216-0.767-0.553-1.403-1.013-1.909s-0.974-0.905-1.541-1.196
		c-0.566-0.291-1.165-0.482-1.794-0.574c-0.629-0.093-1.219-0.123-1.771-0.093c-0.522,0.062-1.051,0.199-1.587,0.414
		c-0.537,0.216-1.035,0.515-1.495,0.897s-0.852,0.851-1.173,1.403c-0.322,0.552-0.515,1.181-0.575,1.886l-3.864,32.521h8.694
		l2.115-20.699l4.646,16.791c0.122,0.398,0.36,0.734,0.713,1.012c0.354,0.275,0.774,0.506,1.265,0.689s0.997,0.322,1.519,0.414
		C346.851,37.167,347.326,37.214,347.756,37.214 M296.788,18.63v11.592c0,1.748,0.215,3.219,0.644,4.416
		c0.43,1.195,1.058,2.162,1.886,2.896c0.828,0.736,1.84,1.273,3.035,1.611c1.196,0.336,2.562,0.506,4.095,0.506
		c0.798,0,1.595-0.123,2.392-0.369c0.798-0.244,1.457-0.537,1.979-0.873c0.644-0.43,1.143-1.012,1.494-1.748
		c0.354-0.736,0.423-1.58,0.207-2.529c-0.152-0.768-0.521-1.381-1.104-1.842c-0.582-0.459-1.257-0.689-2.024-0.689
		c-0.46,0-0.827,0.039-1.104,0.115c-0.276,0.078-0.582,0.1-0.92,0.068c-0.398-0.029-0.743-0.152-1.035-0.367
		c-0.291-0.215-0.437-0.676-0.437-1.381V18.63h2.714c1.441,0,2.477-0.384,3.104-1.15c0.629-0.767,0.943-1.641,0.943-2.622
		c0-0.46-0.076-0.92-0.23-1.38c-0.152-0.46-0.391-0.874-0.713-1.242s-0.736-0.667-1.242-0.896c-0.506-0.23-1.127-0.346-1.862-0.346
		h-2.714V6.21c0-0.768-0.131-1.441-0.392-2.024c-0.26-0.583-0.604-1.058-1.035-1.426c-0.429-0.368-0.912-0.645-1.448-0.828
		c-0.536-0.185-1.097-0.276-1.68-0.276c-0.582,0-1.142,0.092-1.679,0.276c-0.536,0.184-1.02,0.46-1.449,0.828
		c-0.429,0.368-0.774,0.843-1.035,1.426c-0.26,0.583-0.391,1.257-0.391,2.024v4.783h-1.518c-0.736,0-1.364,0.115-1.886,0.346
		c-0.521,0.229-0.943,0.528-1.265,0.896c-0.322,0.368-0.552,0.782-0.69,1.242c-0.138,0.46-0.207,0.92-0.207,1.38
		c0,0.981,0.315,1.855,0.943,2.622c0.629,0.767,1.664,1.15,3.105,1.15H296.788z M262.933,38.869h9.338V22.172
		c0-0.768,0.115-1.418,0.345-1.955c0.23-0.537,0.529-0.975,0.897-1.312c0.368-0.337,0.766-0.575,1.196-0.713
		c0.429-0.138,0.843-0.207,1.242-0.207c0.398,0,0.812,0.069,1.242,0.207c0.429,0.138,0.82,0.376,1.173,0.713
		c0.352,0.337,0.644,0.774,0.874,1.312c0.23,0.537,0.345,1.188,0.345,1.955v16.697h9.476V22.724c0-2.423-0.276-4.447-0.828-6.072
		c-0.552-1.625-1.296-2.921-2.231-3.887c-0.936-0.966-2.04-1.648-3.312-2.047c-1.273-0.399-2.645-0.599-4.117-0.599
		c-1.227,0-2.431,0.216-3.611,0.645c-1.181,0.429-2.216,1.058-3.105,1.886c-0.399-0.828-0.989-1.457-1.771-1.886
		c-0.782-0.429-1.618-0.645-2.507-0.645c-0.614,0-1.196,0.101-1.748,0.3c-0.552,0.198-1.043,0.49-1.472,0.874
		c-0.43,0.383-0.775,0.858-1.035,1.426c-0.261,0.566-0.391,1.233-0.391,2.001V38.869z M246.143,17.571
		c0.491,0,0.974,0.069,1.449,0.207c0.475,0.138,0.882,0.368,1.219,0.69c0.337,0.321,0.606,0.735,0.805,1.242
		c0.199,0.506,0.284,1.142,0.253,1.908h-7.774c0-0.767,0.123-1.402,0.368-1.908c0.245-0.507,0.552-0.921,0.92-1.242
		c0.368-0.322,0.79-0.553,1.265-0.69S245.622,17.571,246.143,17.571 M247.155,39.652c0.828,0,1.648-0.055,2.461-0.162
		c0.813-0.105,1.579-0.252,2.3-0.436c0.721-0.186,1.365-0.383,1.932-0.6c0.567-0.215,1.035-0.428,1.403-0.643
		c1.104-0.645,1.894-1.434,2.369-2.369c0.475-0.936,0.468-1.971-0.023-3.105c-0.307-0.705-0.79-1.195-1.449-1.473
		c-0.659-0.275-1.388-0.367-2.185-0.275c-0.399,0.061-0.774,0.162-1.127,0.299c-0.353,0.139-0.698,0.268-1.035,0.391
		c-0.613,0.215-1.227,0.369-1.84,0.461c-0.613,0.092-1.487,0.139-2.622,0.139c-0.552,0-1.135-0.07-1.748-0.207
		c-0.613-0.139-1.181-0.377-1.702-0.715c-0.521-0.336-0.951-0.766-1.288-1.287s-0.506-1.182-0.506-1.979v-0.045h16.468
		c0.061-0.4,0.115-0.875,0.161-1.426c0.046-0.553,0.069-1.027,0.069-1.426c0-3.037-0.36-5.513-1.081-7.43
		c-0.721-1.917-1.679-3.412-2.875-4.484c-1.196-1.073-2.553-1.803-4.071-2.186s-3.074-0.575-4.669-0.575
		c-1.472,0-2.982,0.207-4.531,0.621c-1.549,0.414-2.959,1.112-4.232,2.093c-1.273,0.981-2.315,2.285-3.128,3.91
		s-1.219,3.665-1.219,6.118v4.048c0,2.393,0.422,4.408,1.265,6.049c0.843,1.641,1.947,2.951,3.312,3.934
		c1.365,0.98,2.89,1.686,4.577,2.115S245.499,39.652,247.155,39.652 M186.895,38.869h9.338V21.941
		c0.031-0.736,0.161-1.356,0.391-1.863c0.23-0.506,0.514-0.912,0.851-1.219c0.338-0.307,0.713-0.529,1.127-0.667
		s0.805-0.207,1.173-0.207c0.368,0,0.759,0.069,1.173,0.207c0.414,0.138,0.798,0.376,1.15,0.713
		c0.353,0.337,0.637,0.774,0.851,1.312c0.215,0.537,0.322,1.188,0.322,1.955v16.697h9.108V22.172c0-0.768,0.115-1.418,0.345-1.955
		s0.514-0.975,0.851-1.312c0.338-0.337,0.721-0.575,1.15-0.713c0.43-0.138,0.828-0.207,1.196-0.207c0.368,0,0.759,0.069,1.173,0.207
		c0.414,0.138,0.798,0.376,1.15,0.713c0.353,0.337,0.637,0.774,0.851,1.312c0.215,0.537,0.322,1.188,0.322,1.955v16.697h9.476
		V22.724c0-2.393-0.299-4.401-0.897-6.026c-0.598-1.625-1.395-2.921-2.392-3.887c-0.996-0.966-2.154-1.656-3.473-2.07
		c-1.318-0.414-2.714-0.621-4.186-0.621c-1.87,0-3.48,0.291-4.83,0.874c-1.349,0.583-2.499,1.365-3.45,2.347
		c-0.981-1.165-2.116-1.993-3.404-2.484c-1.288-0.491-2.637-0.736-4.048-0.736c-2.514,0-4.661,0.844-6.44,2.53
		c-0.368-0.828-0.943-1.457-1.725-1.886c-0.782-0.429-1.617-0.645-2.507-0.645c-0.613,0-1.196,0.101-1.748,0.3
		c-0.552,0.198-1.042,0.49-1.472,0.874c-0.429,0.383-0.774,0.858-1.035,1.426c-0.26,0.566-0.391,1.233-0.391,2.001V38.869z
		 M156.306,38.869h9.338V22.172c0-0.768,0.115-1.418,0.345-1.955s0.529-0.975,0.897-1.312c0.368-0.337,0.766-0.575,1.196-0.713
		c0.429-0.138,0.843-0.207,1.242-0.207c0.398,0,0.812,0.069,1.242,0.207c0.429,0.138,0.82,0.376,1.173,0.713
		c0.352,0.337,0.644,0.774,0.874,1.312s0.345,1.188,0.345,1.955v16.697h9.476V22.724c0-2.423-0.276-4.447-0.828-6.072
		c-0.552-1.625-1.296-2.921-2.231-3.887c-0.936-0.966-2.04-1.648-3.312-2.047c-1.273-0.399-2.645-0.599-4.117-0.599
		c-1.227,0-2.431,0.216-3.611,0.645c-1.181,0.429-2.216,1.058-3.105,1.886c-0.399-0.828-0.989-1.457-1.771-1.886
		s-1.618-0.645-2.507-0.645c-0.614,0-1.196,0.101-1.748,0.3c-0.552,0.198-1.043,0.49-1.472,0.874
		c-0.43,0.383-0.775,0.858-1.035,1.426c-0.261,0.566-0.391,1.233-0.391,2.001V38.869z M142.828,22.355v5.06
		c0,0.828-0.122,1.525-0.368,2.094c-0.245,0.566-0.559,1.035-0.943,1.402c-0.383,0.367-0.82,0.637-1.311,0.805
		c-0.49,0.17-0.981,0.254-1.472,0.254c-0.49,0-0.981-0.084-1.472-0.254c-0.49-0.168-0.927-0.438-1.311-0.805
		c-0.383-0.367-0.697-0.836-0.943-1.402c-0.245-0.568-0.368-1.266-0.368-2.094v-5.06c0-0.828,0.123-1.526,0.368-2.093
		c0.246-0.567,0.56-1.035,0.943-1.403c0.384-0.368,0.821-0.636,1.311-0.805c0.491-0.169,0.982-0.253,1.472-0.253
		c0.491,0,0.982,0.084,1.472,0.253c0.491,0.169,0.928,0.437,1.311,0.805c0.384,0.368,0.698,0.836,0.943,1.403
		C142.706,20.829,142.828,21.527,142.828,22.355 M125.394,22.77v4.232c0,2.484,0.407,4.539,1.219,6.164
		c0.813,1.625,1.863,2.93,3.151,3.91c1.288,0.98,2.722,1.67,4.301,2.07c1.58,0.398,3.136,0.598,4.669,0.598
		c1.534,0,3.09-0.199,4.669-0.598c1.58-0.4,3.013-1.09,4.301-2.07s2.339-2.285,3.151-3.91c0.813-1.625,1.219-3.68,1.219-6.164V22.77
		c0-2.484-0.406-4.539-1.219-6.164c-0.812-1.625-1.863-2.929-3.151-3.91c-1.288-0.98-2.721-1.671-4.301-2.069
		c-1.579-0.399-3.135-0.599-4.669-0.599c-1.564,0-3.135,0.199-4.715,0.599c-1.579,0.398-3.013,1.089-4.301,2.069
		c-1.288,0.981-2.33,2.285-3.128,3.91C125.793,18.23,125.394,20.285,125.394,22.77 M103.729,38.869h9.338V22.678
		c0.061-1.165,0.452-2.085,1.173-2.76c0.72-0.676,1.725-1.059,3.013-1.15c0.337-0.031,0.69-0.038,1.058-0.023
		c0.368,0.016,0.72,0.023,1.058,0.023c1.012,0,1.893-0.322,2.645-0.966c0.751-0.645,1.203-1.503,1.357-2.576
		c0.153-1.073,0.007-2.039-0.437-2.898c-0.445-0.858-1.112-1.472-2.001-1.84c-0.338-0.152-0.698-0.253-1.081-0.299
		c-0.384-0.046-0.744-0.069-1.081-0.069c-1.135,0-2.224,0.23-3.266,0.69c-1.043,0.46-1.994,1.089-2.852,1.886
		c-0.399-0.858-0.989-1.503-1.771-1.932c-0.782-0.429-1.618-0.645-2.507-0.645c-0.614,0-1.196,0.101-1.748,0.3
		c-0.552,0.198-1.043,0.49-1.472,0.874c-0.43,0.383-0.775,0.858-1.035,1.426c-0.261,0.566-0.391,1.233-0.391,2.001V38.869z
		 M89.377,4.231c0,0.767,0.13,1.418,0.391,1.955c0.261,0.537,0.606,0.974,1.035,1.311c0.429,0.338,0.935,0.583,1.518,0.736
		s1.196,0.23,1.84,0.23s1.257-0.077,1.84-0.23s1.089-0.398,1.518-0.736c0.429-0.337,0.774-0.773,1.035-1.311
		c0.261-0.537,0.391-1.188,0.391-1.955c0-1.503-0.475-2.584-1.426-3.243s-2.07-0.989-3.358-0.989s-2.407,0.33-3.358,0.989
		C89.852,1.647,89.377,2.729,89.377,4.231 M89.423,15.041v23.828h9.476V15.041c0-1.595-0.468-2.76-1.403-3.495
		c-0.935-0.736-2.047-1.104-3.335-1.104s-2.4,0.368-3.335,1.104C89.891,12.281,89.423,13.446,89.423,15.041 M77.601,38.869
		l8.694-22.585c0.276-0.675,0.383-1.334,0.322-1.978c-0.061-0.645-0.23-1.234-0.506-1.771c-0.276-0.537-0.659-0.997-1.15-1.38
		c-0.491-0.383-1.027-0.651-1.61-0.805c-0.613-0.153-1.227-0.207-1.84-0.161c-0.613,0.046-1.188,0.192-1.725,0.438
		c-0.537,0.244-1.012,0.605-1.426,1.08c-0.414,0.476-0.728,1.066-0.943,1.771l-4.462,14.26l-4.6-14.214
		c-0.491-1.472-1.326-2.453-2.507-2.944c-1.181-0.49-2.384-0.566-3.611-0.229c-0.613,0.184-1.165,0.46-1.656,0.828
		c-0.491,0.368-0.889,0.819-1.196,1.356c-0.307,0.537-0.498,1.119-0.575,1.748s0.023,1.28,0.299,1.955l8.924,22.631H77.601z
		 M30.267,38.869h9.338V22.172c0-0.768,0.115-1.418,0.345-1.955s0.529-0.975,0.897-1.312c0.368-0.337,0.767-0.575,1.196-0.713
		c0.43-0.138,0.844-0.207,1.242-0.207c0.399,0,0.813,0.069,1.242,0.207c0.43,0.138,0.821,0.376,1.173,0.713
		c0.353,0.337,0.644,0.774,0.874,1.312s0.345,1.188,0.345,1.955v16.697h9.476V22.724c0-2.423-0.276-4.447-0.828-6.072
		c-0.552-1.625-1.295-2.921-2.231-3.887c-0.935-0.966-2.039-1.648-3.312-2.047c-1.272-0.399-2.645-0.599-4.117-0.599
		c-1.226,0-2.43,0.216-3.611,0.645c-1.18,0.429-2.215,1.058-3.105,1.886c-0.398-0.828-0.989-1.457-1.771-1.886
		c-0.782-0.429-1.617-0.645-2.507-0.645c-0.613,0-1.196,0.101-1.748,0.3c-0.552,0.198-1.042,0.49-1.472,0.874
		c-0.429,0.383-0.774,0.858-1.035,1.426c-0.26,0.566-0.391,1.233-0.391,2.001V38.869z M9.43,16.146v-4.922
		c0-0.552,0.092-0.912,0.276-1.081s0.537-0.253,1.058-0.253h11.638c0.675,0,1.25-0.115,1.725-0.345
		c0.475-0.23,0.859-0.537,1.15-0.921c0.291-0.383,0.506-0.813,0.644-1.287c0.138-0.476,0.207-0.943,0.207-1.403
		s-0.069-0.936-0.207-1.426c-0.138-0.491-0.36-0.936-0.667-1.334c-0.307-0.399-0.69-0.722-1.15-0.967
		c-0.46-0.244-1.027-0.367-1.702-0.367H7.176c-1.38,0-2.53,0.13-3.45,0.391S2.07,2.912,1.518,3.495
		C0.966,4.078,0.575,4.829,0.345,5.749C0.115,6.67,0,7.788,0,9.107v22.494c0,1.32,0.115,2.438,0.345,3.359
		c0.23,0.92,0.621,1.67,1.173,2.254c0.552,0.582,1.288,1.004,2.208,1.264c0.92,0.262,2.07,0.391,3.45,0.391h15.686
		c0.675,0,1.242-0.123,1.702-0.367s0.843-0.566,1.15-0.967c0.307-0.398,0.529-0.842,0.667-1.334c0.138-0.49,0.207-0.965,0.207-1.426
		c0-0.459-0.069-0.928-0.207-1.402c-0.138-0.475-0.353-0.904-0.644-1.287c-0.291-0.385-0.675-0.691-1.15-0.922
		c-0.475-0.229-1.05-0.344-1.725-0.344H10.764c-0.521,0-0.874-0.084-1.058-0.254c-0.184-0.168-0.276-0.529-0.276-1.08v-5.382h12.558
		c0.675,0,1.25-0.115,1.725-0.345c0.475-0.23,0.859-0.537,1.15-0.92c0.291-0.384,0.506-0.806,0.644-1.266
		c0.138-0.46,0.207-0.92,0.207-1.38s-0.069-0.928-0.207-1.403c-0.138-0.475-0.36-0.911-0.667-1.311
		c-0.307-0.399-0.69-0.721-1.15-0.966s-1.027-0.368-1.702-0.368H9.43z"/>
</g>
</svg>
