<?xml version="1.0" encoding="utf-8"?>
<!-- Generator: Adobe Illustrator 16.0.0, SVG Export Plug-In . SVG Version: 6.00 Build 0)  -->
<!DOCTYPE svg PUBLIC "-//W3C//DTD SVG 1.1//EN" "http://www.w3.org/Graphics/SVG/1.1/DTD/svg11.dtd">
<svg version="1.1" id="레이어_1" xmlns="http://www.w3.org/2000/svg" xmlns:xlink="http://www.w3.org/1999/xlink" x="0px"
	 y="0px" width="385.453px" height="72.472px" viewBox="0 0 385.453 72.472" enable-background="new 0 0 385.453 72.472"
	 xml:space="preserve">
<g>
	<defs>
		<rect id="SVGID_1_" x="-74.492" width="545.746" height="72.472"/>
	</defs>
	<clipPath id="SVGID_2_">
		<use xlink:href="#SVGID_1_"  overflow="visible"/>
	</clipPath>
	<path clip-path="url(#SVGID_2_)" fill="#E37476" d="M1.426,14.244c0.951-0.736,2.07-1.104,3.358-1.104s2.408,0.368,3.358,1.104
		c0.951,0.735,1.426,1.901,1.426,3.496v32.619H0V17.74C0,16.146,0.476,14.979,1.426,14.244z M14.214,26.205
		c0-0.767,0.13-1.434,0.391-2.001s0.606-1.043,1.035-1.427c0.43-0.383,0.92-0.675,1.472-0.874c0.552-0.199,1.135-0.299,1.748-0.299
		c0.89,0,1.726,0.215,2.507,0.645c0.782,0.429,1.373,1.058,1.771,1.886c0.889-0.828,1.924-1.457,3.105-1.886
		c1.181-0.43,2.384-0.645,3.611-0.645c1.472,0,2.845,0.199,4.117,0.599c1.273,0.398,2.377,1.081,3.313,2.047
		s1.679,2.262,2.231,3.888c0.552,1.625,0.828,3.649,0.828,6.072v16.149h-9.477V33.658c0-0.767-0.115-1.419-0.345-1.955
		c-0.23-0.537-0.521-0.974-0.874-1.312c-0.353-0.337-0.744-0.575-1.173-0.713c-0.429-0.139-0.843-0.207-1.242-0.207
		c-0.398,0-0.813,0.068-1.242,0.207c-0.429,0.138-0.828,0.376-1.196,0.713c-0.368,0.338-0.667,0.774-0.897,1.312
		c-0.23,0.536-0.345,1.188-0.345,1.955v16.701h-9.339V26.205z M54.327,40.857c0.276,0.629,0.629,1.121,1.058,1.473
		c0.43,0.354,0.913,0.598,1.449,0.736c0.537,0.139,1.066,0.207,1.587,0.207c0.767,0,1.418-0.053,1.955-0.16s1.112-0.299,1.725-0.576
		c0.337-0.152,0.69-0.33,1.058-0.529c0.368-0.199,0.767-0.328,1.196-0.391c0.675-0.123,1.327-0.061,1.955,0.184
		c0.629,0.246,1.143,0.691,1.542,1.334c0.307,0.521,0.483,1.066,0.529,1.635c0.046,0.566-0.031,1.119-0.23,1.656
		c-0.199,0.535-0.499,1.035-0.897,1.494c-0.399,0.461-0.874,0.859-1.426,1.197c-0.859,0.52-1.917,0.988-3.174,1.402
		s-2.668,0.621-4.232,0.621c-1.656,0-3.32-0.199-4.992-0.598s-3.174-1.09-4.508-2.07c-1.334-0.982-2.416-2.285-3.244-3.91
		c-0.828-1.627-1.242-3.682-1.242-6.166v-4.048c0-2.423,0.414-4.446,1.242-6.072s1.894-2.929,3.197-3.91
		c1.304-0.981,2.768-1.688,4.394-2.116c1.625-0.43,3.236-0.645,4.831-0.645c1.656,0,3.083,0.185,4.279,0.552
		c1.196,0.368,2.162,0.782,2.898,1.242c0.552,0.338,1.028,0.729,1.426,1.174c0.399,0.444,0.698,0.928,0.897,1.449
		c0.2,0.521,0.292,1.05,0.276,1.587c-0.016,0.537-0.176,1.065-0.483,1.587c-0.43,0.767-0.974,1.258-1.633,1.473
		c-0.66,0.215-1.357,0.275-2.093,0.184c-0.43-0.062-0.82-0.169-1.173-0.322c-0.353-0.153-0.698-0.307-1.035-0.46
		c-0.46-0.215-0.905-0.368-1.334-0.46s-0.997-0.138-1.702-0.138c-0.521,0-1.043,0.068-1.564,0.207
		c-0.521,0.138-1.004,0.383-1.449,0.736c-0.445,0.353-0.805,0.843-1.082,1.472c-0.276,0.629-0.414,1.434-0.414,2.415v4.141
		C53.913,39.423,54.051,40.23,54.327,40.857z M72.91,28.092c0.797-1.626,1.84-2.93,3.128-3.911c1.289-0.981,2.722-1.671,4.302-2.07
		c1.58-0.398,3.151-0.598,4.715-0.598c1.534,0,3.09,0.199,4.67,0.598c1.579,0.399,3.013,1.089,4.301,2.07s2.338,2.285,3.151,3.911
		c0.813,1.625,1.219,3.68,1.219,6.164v4.232c0,2.484-0.406,4.539-1.219,6.166c-0.813,1.625-1.863,2.928-3.151,3.91
		c-1.288,0.98-2.722,1.672-4.301,2.07c-1.58,0.398-3.136,0.598-4.67,0.598c-1.533,0-3.09-0.199-4.669-0.598s-3.013-1.09-4.301-2.07
		c-1.288-0.982-2.339-2.285-3.151-3.91c-0.813-1.627-1.219-3.682-1.219-6.166v-4.232C71.714,31.771,72.112,29.717,72.91,28.092z
		 M88.782,31.749c-0.245-0.567-0.56-1.035-0.943-1.403c-0.384-0.368-0.821-0.637-1.312-0.805c-0.491-0.169-0.981-0.254-1.472-0.254
		s-0.981,0.085-1.472,0.254c-0.491,0.168-0.928,0.437-1.311,0.805s-0.698,0.836-0.943,1.403c-0.246,0.567-0.368,1.265-0.368,2.093
		v5.06c0,0.828,0.123,1.527,0.368,2.094c0.245,0.568,0.56,1.035,0.943,1.404c0.383,0.367,0.82,0.635,1.311,0.805
		c0.491,0.168,0.981,0.252,1.472,0.252s0.981-0.084,1.472-0.252c0.491-0.17,0.928-0.438,1.312-0.805
		c0.383-0.369,0.698-0.836,0.943-1.404c0.246-0.566,0.368-1.266,0.368-2.094v-5.06C89.15,33.014,89.027,32.316,88.782,31.749z
		 M102.626,26.205c0-0.767,0.13-1.434,0.391-2.001s0.605-1.043,1.035-1.427c0.429-0.383,0.92-0.675,1.472-0.874
		c0.552-0.199,1.135-0.299,1.748-0.299c0.89,0,1.725,0.215,2.507,0.645c0.782,0.429,1.357,1.058,1.725,1.886
		c1.779-1.687,3.926-2.53,6.441-2.53c1.411,0,2.76,0.245,4.048,0.736c1.288,0.49,2.423,1.318,3.404,2.484
		c0.951-0.981,2.101-1.764,3.451-2.347c1.349-0.583,2.959-0.874,4.831-0.874c1.472,0,2.868,0.207,4.186,0.621
		c1.319,0.414,2.477,1.104,3.474,2.07s1.794,2.262,2.392,3.888c0.598,1.625,0.897,3.634,0.897,6.026v16.149h-9.477V33.658
		c0-0.767-0.107-1.419-0.322-1.955c-0.215-0.537-0.499-0.974-0.851-1.312c-0.353-0.337-0.736-0.575-1.15-0.713
		c-0.414-0.139-0.805-0.207-1.173-0.207s-0.767,0.068-1.196,0.207c-0.429,0.138-0.813,0.376-1.15,0.713
		c-0.337,0.338-0.621,0.774-0.851,1.312c-0.23,0.536-0.345,1.188-0.345,1.955v16.701h-9.109V33.658c0-0.767-0.107-1.419-0.322-1.955
		c-0.214-0.537-0.498-0.974-0.851-1.312c-0.353-0.337-0.736-0.575-1.15-0.713c-0.414-0.139-0.805-0.207-1.173-0.207
		s-0.759,0.068-1.173,0.207c-0.414,0.138-0.79,0.36-1.127,0.667s-0.621,0.713-0.851,1.219c-0.23,0.507-0.36,1.128-0.391,1.863
		v16.931h-9.339V26.205z M150.696,12.473c0.951-0.659,2.07-0.989,3.358-0.989s2.408,0.33,3.358,0.989s1.426,1.74,1.426,3.243
		c0,0.767-0.13,1.419-0.391,1.955c-0.261,0.537-0.606,0.974-1.035,1.312c-0.429,0.337-0.936,0.583-1.518,0.736
		c-0.583,0.153-1.196,0.229-1.84,0.229s-1.257-0.076-1.84-0.229c-0.583-0.153-1.089-0.399-1.518-0.736
		c-0.429-0.338-0.774-0.774-1.035-1.312c-0.261-0.536-0.391-1.188-0.391-1.955C149.27,14.213,149.745,13.132,150.696,12.473z
		 M150.719,23.031c0.936-0.736,2.047-1.104,3.335-1.104s2.4,0.368,3.335,1.104c0.936,0.735,1.403,1.901,1.403,3.496v23.832h-9.477
		V26.527C149.316,24.933,149.783,23.767,150.719,23.031z M163.622,26.205c0-0.767,0.13-1.434,0.391-2.001
		c0.26-0.567,0.605-1.043,1.035-1.427c0.43-0.383,0.92-0.675,1.472-0.874c0.552-0.199,1.135-0.299,1.749-0.299
		c0.889,0,1.725,0.215,2.507,0.645c0.782,0.429,1.373,1.058,1.771,1.886c0.89-0.828,1.925-1.457,3.105-1.886
		c1.181-0.43,2.385-0.645,3.611-0.645c1.472,0,2.845,0.199,4.118,0.599c1.272,0.398,2.377,1.081,3.312,2.047
		c0.936,0.966,1.679,2.262,2.231,3.888c0.552,1.625,0.828,3.649,0.828,6.072v16.149h-9.477V33.658c0-0.767-0.115-1.419-0.345-1.955
		c-0.23-0.537-0.521-0.974-0.874-1.312c-0.353-0.337-0.744-0.575-1.173-0.713c-0.429-0.139-0.843-0.207-1.242-0.207
		c-0.399,0-0.813,0.068-1.242,0.207c-0.43,0.138-0.828,0.376-1.196,0.713c-0.368,0.338-0.667,0.774-0.897,1.312
		c-0.23,0.536-0.345,1.188-0.345,1.955v16.701h-9.339V26.205z M219.905,50.818c-0.353,1.35-1.043,2.584-2.07,3.703
		c-1.028,1.119-2.492,2.07-4.394,2.854c-1.902,0.781-4.401,1.234-7.499,1.355c-0.429,0.031-0.942,0.023-1.541-0.021
		c-0.599-0.047-1.22-0.123-1.863-0.23s-1.257-0.246-1.841-0.414c-0.582-0.168-1.058-0.361-1.426-0.576
		c-0.705-0.398-1.204-1.033-1.495-1.908c-0.291-0.875-0.284-1.709,0.023-2.508c0.276-0.736,0.751-1.318,1.426-1.748
		s1.411-0.582,2.208-0.459c0.675,0.092,1.381,0.184,2.117,0.275c0.735,0.092,1.533,0.139,2.392,0.139
		c0.981,0,1.825-0.115,2.53-0.346s1.288-0.545,1.748-0.943c0.461-0.398,0.798-0.844,1.012-1.334c0.215-0.49,0.322-0.996,0.322-1.518
		V46.31c-0.797,0.797-1.748,1.418-2.852,1.863c-1.104,0.443-2.361,0.666-3.773,0.666c-1.533,0-2.967-0.199-4.301-0.598
		s-2.507-1.082-3.52-2.047c-1.012-0.967-1.81-2.254-2.392-3.865c-0.583-1.609-0.874-3.611-0.874-6.003v-2.024
		c0-2.423,0.291-4.447,0.874-6.072c0.583-1.626,1.38-2.929,2.392-3.91s2.193-1.68,3.543-2.094c1.35-0.414,2.791-0.621,4.324-0.621
		c1.165,0,2.33,0.215,3.496,0.645c1.166,0.429,2.193,1.073,3.082,1.932c0.368-0.858,0.943-1.503,1.726-1.932
		c0.782-0.43,1.634-0.645,2.554-0.645c1.227,0,2.3,0.384,3.22,1.15c0.921,0.767,1.38,1.917,1.38,3.45v20.703
		C220.434,48.166,220.258,49.468,219.905,50.818z M203.711,39.132c0.261,0.521,0.583,0.951,0.967,1.289
		c0.383,0.336,0.805,0.574,1.265,0.713c0.46,0.137,0.89,0.207,1.288,0.207s0.82-0.07,1.266-0.207
		c0.444-0.139,0.858-0.361,1.242-0.668c0.383-0.307,0.713-0.713,0.988-1.219c0.276-0.506,0.43-1.127,0.461-1.863v-3.957
		c-0.031-0.735-0.185-1.356-0.461-1.863c-0.275-0.506-0.605-0.912-0.988-1.219c-0.384-0.307-0.798-0.529-1.242-0.667
		c-0.445-0.139-0.867-0.207-1.266-0.207s-0.828,0.068-1.288,0.207c-0.46,0.138-0.882,0.376-1.265,0.713
		c-0.384,0.338-0.706,0.774-0.967,1.312c-0.26,0.536-0.391,1.188-0.391,1.955v3.496C203.32,37.953,203.451,38.611,203.711,39.132z
		 M272.277,16.544c0.122-0.705,0.367-1.288,0.735-1.748s0.798-0.82,1.288-1.081c0.491-0.261,1.027-0.43,1.61-0.506
		c0.583-0.077,1.166-0.069,1.748,0.022c0.553,0.092,1.074,0.284,1.564,0.575c0.491,0.291,0.897,0.651,1.219,1.081
		c0.322,0.43,0.553,0.943,0.69,1.541c0.138,0.599,0.131,1.234-0.022,1.909l-7.27,32.021H263.72l-5.383-23.003l-5.336,23.003h-9.432
		l-7.591-31.975c-0.153-0.705-0.161-1.349-0.022-1.932c0.138-0.583,0.375-1.097,0.713-1.541c0.337-0.445,0.759-0.813,1.265-1.104
		c0.507-0.291,1.035-0.483,1.588-0.575c0.582-0.092,1.165-0.1,1.748-0.022c0.583,0.076,1.127,0.245,1.633,0.506
		s0.936,0.621,1.288,1.081s0.606,1.043,0.76,1.748l4.278,20.151l4.232-18.909c0.184-0.675,0.468-1.242,0.851-1.702
		c0.384-0.46,0.798-0.82,1.242-1.081c0.445-0.261,0.913-0.444,1.403-0.552c0.491-0.107,0.951-0.161,1.38-0.161
		c0.43,0,0.89,0.054,1.381,0.161c0.49,0.107,0.958,0.291,1.403,0.552c0.444,0.261,0.858,0.621,1.242,1.081
		c0.383,0.46,0.667,1.027,0.851,1.702l4.463,20.104L272.277,16.544z M300.238,48.425c-0.89,0.828-1.933,1.488-3.129,1.979
		s-2.484,0.736-3.864,0.736h-1.012c-0.951,0-1.979-0.146-3.083-0.438c-1.104-0.291-2.124-0.789-3.059-1.494
		c-0.936-0.707-1.718-1.656-2.347-2.854c-0.629-1.195-0.943-2.699-0.943-4.508c0-1.748,0.307-3.205,0.92-4.371
		c0.614-1.166,1.435-2.1,2.462-2.806c1.027-0.705,2.224-1.211,3.588-1.518c1.365-0.307,2.799-0.46,4.302-0.46h4.738
		c-0.03-0.675-0.161-1.235-0.391-1.68c-0.23-0.444-0.537-0.798-0.92-1.059c-0.384-0.26-0.828-0.444-1.334-0.552
		c-0.507-0.107-1.035-0.161-1.588-0.161c-0.521,0-1.027,0.046-1.518,0.139c-0.491,0.092-1.013,0.214-1.564,0.367
		c-0.368,0.123-0.713,0.261-1.035,0.414c-0.322,0.154-0.698,0.322-1.127,0.507c-0.43,0.215-0.882,0.329-1.357,0.345
		s-0.943-0.046-1.403-0.184c-0.46-0.139-0.882-0.36-1.265-0.668c-0.384-0.307-0.683-0.689-0.897-1.149
		c-0.43-0.92-0.49-1.817-0.184-2.691s0.858-1.618,1.656-2.231c0.613-0.46,1.303-0.844,2.07-1.15c0.767-0.307,1.563-0.56,2.392-0.759
		s1.664-0.345,2.508-0.438c0.843-0.092,1.663-0.138,2.461-0.138c1.656,0,3.243,0.177,4.762,0.529
		c1.518,0.353,2.853,0.981,4.002,1.886c1.15,0.905,2.07,2.155,2.761,3.75s1.035,3.634,1.035,6.118v16.471h-7.269L300.238,48.425z
		 M294.625,39.455c-0.889,0-1.563,0.207-2.023,0.621c-0.461,0.414-0.69,0.988-0.69,1.725c0,0.768,0.229,1.334,0.69,1.703
		c0.46,0.367,1.088,0.553,1.886,0.553h0.645c0.429,0,0.858-0.063,1.288-0.186c0.429-0.123,0.82-0.307,1.173-0.551
		c0.353-0.246,0.644-0.553,0.874-0.92c0.23-0.369,0.345-0.799,0.345-1.289v-1.656H294.625z M322.156,31.634
		c0.721,0.276,1.939,0.567,3.657,0.874c0.307,0.062,0.605,0.123,0.897,0.185c0.291,0.061,0.574,0.122,0.851,0.184
		c2.761,0.705,4.785,1.909,6.073,3.611c1.288,1.702,1.763,3.95,1.426,6.741c-0.184,1.348-0.621,2.521-1.312,3.518
		c-0.689,0.998-1.587,1.818-2.69,2.463c-1.104,0.643-2.37,1.127-3.796,1.449c-1.426,0.32-2.937,0.482-4.531,0.482
		c-0.798,0-1.618-0.039-2.462-0.115c-0.843-0.076-1.679-0.207-2.507-0.391s-1.626-0.438-2.393-0.76s-1.441-0.729-2.024-1.219
		c-0.797-0.674-1.342-1.51-1.633-2.508c-0.291-0.996-0.115-1.986,0.529-2.967c0.337-0.49,0.759-0.844,1.265-1.059
		s1.066-0.338,1.68-0.367c0.735-0.031,1.318,0.076,1.748,0.322c0.43,0.244,0.844,0.49,1.242,0.736
		c0.49,0.307,1.196,0.551,2.116,0.734c0.92,0.186,1.825,0.277,2.714,0.277c0.89,0,1.572-0.154,2.048-0.461
		c0.475-0.307,0.743-0.674,0.805-1.104c0.062-0.553-0.406-0.99-1.403-1.311c-0.996-0.322-2.385-0.668-4.163-1.035
		c-0.338-0.063-0.667-0.131-0.989-0.207c-0.322-0.078-0.621-0.162-0.897-0.254c-1.81-0.553-3.22-1.295-4.232-2.23
		c-1.012-0.936-1.717-1.971-2.116-3.106c-0.398-1.135-0.536-2.315-0.414-3.543c0.123-1.227,0.43-2.377,0.921-3.45
		c0.46-0.95,1.065-1.778,1.816-2.484c0.752-0.705,1.61-1.28,2.576-1.725c0.967-0.445,2.002-0.774,3.105-0.989
		c1.104-0.215,2.239-0.322,3.404-0.322c1.841,0,3.42,0.169,4.739,0.506c1.318,0.338,2.377,0.736,3.174,1.196
		c0.951,0.521,1.702,1.234,2.255,2.14c0.552,0.904,0.675,1.878,0.367,2.921c-0.275,0.89-0.735,1.503-1.38,1.841
		c-0.644,0.337-1.38,0.506-2.208,0.506c-0.307,0-0.651-0.054-1.035-0.161s-0.683-0.237-0.897-0.392
		c-0.275-0.184-0.613-0.345-1.012-0.482c-0.398-0.139-0.82-0.269-1.266-0.392c-0.444-0.122-0.896-0.214-1.356-0.275
		s-0.874-0.092-1.242-0.092c-0.736,0-1.319,0.146-1.748,0.437c-0.43,0.291-0.66,0.637-0.69,1.035
		C321.105,30.943,321.436,31.357,322.156,31.634z M340.164,30.115c-1.441,0-2.477-0.383-3.105-1.149
		c-0.629-0.768-0.943-1.642-0.943-2.623c0-0.46,0.069-0.92,0.207-1.38c0.139-0.46,0.368-0.874,0.69-1.242s0.744-0.667,1.266-0.896
		c0.521-0.23,1.149-0.346,1.886-0.346h1.519v-4.784c0-0.767,0.13-1.441,0.391-2.024s0.605-1.058,1.035-1.426
		s0.912-0.645,1.449-0.828c0.537-0.185,1.097-0.276,1.68-0.276c0.582,0,1.142,0.092,1.679,0.276c0.537,0.184,1.02,0.46,1.449,0.828
		s0.774,0.843,1.035,1.426s0.391,1.258,0.391,2.024v4.784h2.715c0.736,0,1.357,0.115,1.863,0.346
		c0.506,0.229,0.92,0.528,1.242,0.896s0.56,0.782,0.713,1.242s0.229,0.92,0.229,1.38c0,0.981-0.313,1.855-0.942,2.623
		c-0.629,0.767-1.664,1.149-3.105,1.149h-2.715v11.41c0,0.705,0.146,1.166,0.438,1.381s0.637,0.336,1.035,0.367
		c0.337,0.031,0.644,0.008,0.92-0.068c0.276-0.078,0.645-0.115,1.104-0.115c0.767,0,1.441,0.23,2.024,0.689
		c0.582,0.461,0.95,1.074,1.104,1.84c0.215,0.951,0.146,1.795-0.207,2.531s-0.851,1.318-1.495,1.748
		c-0.521,0.338-1.181,0.629-1.979,0.873c-0.797,0.246-1.595,0.369-2.392,0.369c-1.534,0-2.898-0.168-4.095-0.506
		s-2.208-0.875-3.036-1.611c-0.828-0.734-1.457-1.701-1.887-2.898c-0.429-1.195-0.644-2.668-0.644-4.416V30.115H340.164z
		 M368.869,50.496c-1.688-0.43-3.213-1.135-4.578-2.115c-1.364-0.982-2.469-2.293-3.313-3.934c-0.843-1.641-1.265-3.658-1.265-6.051
		v-4.048c0-2.453,0.406-4.493,1.219-6.118c0.813-1.626,1.855-2.929,3.129-3.91c1.272-0.981,2.684-1.68,4.232-2.094
		s3.059-0.621,4.531-0.621c1.595,0,3.151,0.191,4.67,0.575c1.518,0.384,2.875,1.111,4.071,2.186
		c1.196,1.073,2.154,2.568,2.875,4.485s1.081,4.394,1.081,7.43c0,0.399-0.022,0.874-0.069,1.426c-0.046,0.553-0.1,1.027-0.16,1.426
		h-16.471v0.047c0,0.797,0.169,1.457,0.507,1.979c0.337,0.521,0.767,0.949,1.288,1.287s1.089,0.576,1.702,0.713
		c0.613,0.139,1.196,0.207,1.748,0.207c1.135,0,2.009-0.045,2.622-0.137c0.613-0.094,1.227-0.246,1.84-0.461
		c0.338-0.123,0.683-0.254,1.035-0.391c0.354-0.139,0.729-0.238,1.128-0.299c0.797-0.092,1.525,0,2.185,0.275
		c0.66,0.275,1.143,0.768,1.449,1.473c0.491,1.135,0.499,2.17,0.023,3.105s-1.266,1.725-2.369,2.369
		c-0.368,0.215-0.836,0.43-1.403,0.645c-0.567,0.213-1.212,0.414-1.933,0.598s-1.487,0.33-2.3,0.436
		c-0.813,0.107-1.634,0.162-2.462,0.162C372.228,51.14,370.556,50.925,368.869,50.496z M371.376,29.265
		c-0.476,0.138-0.897,0.368-1.265,0.689c-0.368,0.322-0.675,0.736-0.921,1.242c-0.245,0.507-0.368,1.143-0.368,1.909h7.775
		c0.03-0.767-0.054-1.402-0.253-1.909c-0.199-0.506-0.468-0.92-0.806-1.242c-0.337-0.321-0.743-0.552-1.219-0.689
		s-0.958-0.207-1.449-0.207C372.35,29.058,371.852,29.127,371.376,29.265z"/>
</g>
</svg>
