<?xml version="1.0" encoding="utf-8"?>
<!-- Generator: Adobe Illustrator 16.0.0, SVG Export Plug-In . SVG Version: 6.00 Build 0)  -->
<!DOCTYPE svg PUBLIC "-//W3C//DTD SVG 1.1//EN" "http://www.w3.org/Graphics/SVG/1.1/DTD/svg11.dtd">
<svg version="1.1" id="레이어_1" xmlns="http://www.w3.org/2000/svg" xmlns:xlink="http://www.w3.org/1999/xlink" x="0px"
	 y="0px" width="351.069px" height="47.259px" viewBox="0 0 351.069 47.259" enable-background="new 0 0 351.069 47.259"
	 xml:space="preserve">
<g>
	<defs>
		<rect id="SVGID_1_" width="351.069" height="47.259"/>
	</defs>
	<clipPath id="SVGID_2_">
		<use xlink:href="#SVGID_1_"  overflow="visible"/>
	</clipPath>
	<path clip-path="url(#SVGID_2_)" fill="#E37476" d="M338.419,17.571c0.491,0,0.974,0.069,1.449,0.207
		c0.475,0.138,0.882,0.368,1.219,0.69c0.337,0.321,0.606,0.735,0.805,1.242c0.199,0.506,0.284,1.142,0.253,1.908h-7.773
		c0-0.767,0.123-1.402,0.368-1.908c0.245-0.507,0.552-0.921,0.92-1.242c0.368-0.322,0.79-0.553,1.265-0.69
		C337.399,17.641,337.898,17.571,338.419,17.571 M339.431,39.652c0.828,0,1.648-0.055,2.461-0.162
		c0.813-0.105,1.579-0.252,2.301-0.436c0.721-0.186,1.364-0.383,1.932-0.6c0.567-0.215,1.035-0.428,1.403-0.643
		c1.104-0.645,1.894-1.434,2.369-2.369c0.475-0.936,0.467-1.971-0.023-3.105c-0.307-0.705-0.79-1.195-1.449-1.473
		c-0.66-0.275-1.388-0.367-2.185-0.275c-0.399,0.061-0.774,0.162-1.127,0.299c-0.354,0.139-0.698,0.268-1.035,0.391
		c-0.613,0.215-1.228,0.369-1.84,0.461c-0.613,0.092-1.487,0.139-2.622,0.139c-0.553,0-1.135-0.07-1.748-0.207
		c-0.613-0.139-1.182-0.377-1.702-0.715c-0.522-0.336-0.951-0.766-1.288-1.287s-0.506-1.182-0.506-1.979v-0.045h16.468
		c0.062-0.4,0.115-0.875,0.161-1.426c0.046-0.553,0.069-1.027,0.069-1.426c0-3.037-0.361-5.513-1.081-7.43
		c-0.722-1.917-1.68-3.412-2.875-4.484c-1.196-1.073-2.554-1.803-4.071-2.186s-3.074-0.575-4.669-0.575
		c-1.472,0-2.982,0.207-4.531,0.621s-2.959,1.112-4.231,2.093c-1.273,0.981-2.316,2.285-3.128,3.91
		c-0.813,1.625-1.22,3.665-1.22,6.118v4.048c0,2.393,0.422,4.408,1.266,6.049c0.843,1.641,1.946,2.951,3.312,3.934
		c1.365,0.98,2.891,1.686,4.577,2.115S337.775,39.652,339.431,39.652 M307.231,18.63v11.592c0,1.748,0.215,3.219,0.644,4.416
		c0.43,1.195,1.058,2.162,1.886,2.896c0.828,0.736,1.84,1.273,3.036,1.611c1.196,0.336,2.562,0.506,4.094,0.506
		c0.799,0,1.596-0.123,2.393-0.369c0.798-0.244,1.457-0.537,1.978-0.873c0.645-0.43,1.144-1.012,1.495-1.748
		c0.354-0.736,0.422-1.58,0.207-2.529c-0.153-0.768-0.521-1.381-1.104-1.842c-0.583-0.459-1.258-0.689-2.024-0.689
		c-0.46,0-0.828,0.039-1.104,0.115c-0.276,0.078-0.582,0.1-0.921,0.068c-0.397-0.029-0.742-0.152-1.034-0.367
		c-0.291-0.215-0.438-0.676-0.438-1.381V18.63h2.714c1.442,0,2.477-0.384,3.105-1.15s0.942-1.641,0.942-2.622
		c0-0.46-0.075-0.92-0.229-1.38c-0.153-0.46-0.391-0.874-0.713-1.242s-0.736-0.667-1.242-0.896c-0.506-0.23-1.127-0.346-1.863-0.346
		h-2.714V6.21c0-0.768-0.13-1.441-0.391-2.024s-0.605-1.058-1.035-1.426c-0.429-0.368-0.912-0.645-1.449-0.828
		c-0.537-0.185-1.096-0.276-1.679-0.276s-1.143,0.092-1.679,0.276c-0.537,0.184-1.021,0.46-1.449,0.828
		c-0.43,0.368-0.774,0.843-1.035,1.426s-0.391,1.257-0.391,2.024v4.783h-1.519c-0.736,0-1.365,0.115-1.886,0.346
		c-0.521,0.229-0.943,0.528-1.265,0.896c-0.322,0.368-0.553,0.782-0.69,1.242s-0.207,0.92-0.207,1.38
		c0,0.981,0.313,1.855,0.943,2.622c0.629,0.767,1.664,1.15,3.104,1.15H307.231z M286.716,18.905c0.03-0.398,0.261-0.744,0.69-1.035
		c0.429-0.291,1.012-0.437,1.748-0.437c0.367,0,0.781,0.031,1.242,0.092c0.459,0.062,0.912,0.153,1.356,0.276
		s0.866,0.253,1.265,0.391s0.736,0.299,1.012,0.483c0.215,0.152,0.514,0.284,0.897,0.391c0.384,0.107,0.728,0.161,1.035,0.161
		c0.828,0,1.563-0.169,2.208-0.506s1.104-0.951,1.38-1.84c0.307-1.043,0.185-2.017-0.368-2.921c-0.552-0.905-1.304-1.618-2.254-2.14
		c-0.798-0.46-1.855-0.858-3.174-1.195c-1.318-0.338-2.898-0.507-4.738-0.507c-1.166,0-2.3,0.107-3.404,0.322
		c-1.104,0.215-2.139,0.544-3.104,0.989s-1.825,1.02-2.575,1.725c-0.752,0.705-1.357,1.533-1.818,2.484
		c-0.49,1.073-0.797,2.223-0.92,3.45c-0.123,1.227,0.016,2.406,0.414,3.542c0.398,1.135,1.104,2.17,2.117,3.104
		c1.012,0.936,2.422,1.68,4.231,2.232c0.276,0.092,0.575,0.176,0.897,0.252c0.321,0.078,0.65,0.146,0.988,0.207
		c1.778,0.369,3.166,0.713,4.163,1.035c0.996,0.322,1.464,0.76,1.403,1.311c-0.063,0.43-0.33,0.797-0.805,1.105
		c-0.477,0.307-1.158,0.459-2.047,0.459c-0.891,0-1.795-0.092-2.715-0.275s-1.626-0.43-2.115-0.736
		c-0.399-0.246-0.813-0.49-1.242-0.736c-0.43-0.244-1.012-0.354-1.748-0.322c-0.614,0.031-1.174,0.154-1.68,0.369
		s-0.928,0.566-1.265,1.057c-0.644,0.982-0.821,1.971-0.528,2.967c0.291,0.998,0.834,1.832,1.633,2.508
		c0.582,0.49,1.256,0.896,2.023,1.219c0.766,0.322,1.564,0.576,2.393,0.76s1.662,0.314,2.506,0.391s1.664,0.115,2.461,0.115
		c1.595,0,3.105-0.162,4.531-0.482c1.426-0.322,2.691-0.807,3.795-1.449c1.104-0.645,2.002-1.465,2.691-2.461
		c0.69-0.998,1.127-2.17,1.312-3.52c0.337-2.791-0.139-5.037-1.427-6.738c-1.287-1.703-3.312-2.907-6.072-3.612
		c-0.275-0.062-0.56-0.123-0.851-0.185c-0.292-0.061-0.591-0.123-0.897-0.184c-1.717-0.307-2.937-0.598-3.656-0.874
		C286.984,19.871,286.654,19.457,286.716,18.905 M264.359,27.968v1.654c0,0.492-0.114,0.922-0.344,1.289
		c-0.23,0.367-0.521,0.676-0.875,0.92c-0.353,0.244-0.744,0.43-1.173,0.553s-0.858,0.184-1.288,0.184h-0.644
		c-0.798,0-1.427-0.184-1.886-0.553c-0.461-0.367-0.69-0.936-0.69-1.701c0-0.736,0.229-1.311,0.69-1.725
		c0.459-0.414,1.135-0.621,2.023-0.621H264.359z M266.154,38.869h7.268V22.401c0-2.483-0.345-4.522-1.035-6.118
		c-0.689-1.595-1.609-2.844-2.76-3.749c-1.15-0.904-2.484-1.532-4.002-1.886c-1.518-0.353-3.105-0.529-4.762-0.529
		c-0.797,0-1.617,0.046-2.461,0.139c-0.842,0.092-1.678,0.237-2.506,0.437s-1.625,0.452-2.393,0.759
		c-0.768,0.308-1.457,0.69-2.07,1.15c-0.797,0.613-1.349,1.357-1.656,2.231c-0.307,0.873-0.244,1.771,0.185,2.69
		c0.215,0.46,0.515,0.843,0.897,1.15c0.383,0.307,0.805,0.528,1.265,0.667c0.46,0.138,0.928,0.198,1.403,0.184
		c0.475-0.015,0.928-0.13,1.356-0.345c0.429-0.185,0.806-0.354,1.127-0.506c0.322-0.153,0.667-0.291,1.035-0.414
		c0.552-0.153,1.073-0.276,1.563-0.368c0.492-0.092,0.998-0.138,1.519-0.138c0.552,0,1.081,0.054,1.587,0.16
		c0.506,0.107,0.951,0.291,1.334,0.553c0.383,0.261,0.689,0.612,0.92,1.058s0.36,1.004,0.391,1.679h-4.737
		c-1.503,0-2.937,0.153-4.302,0.46c-1.364,0.308-2.561,0.813-3.588,1.519c-1.026,0.705-1.848,1.64-2.461,2.806
		c-0.612,1.164-0.92,2.621-0.92,4.369c0,1.811,0.314,3.313,0.943,4.508c0.629,1.197,1.411,2.148,2.346,2.854
		c0.936,0.705,1.955,1.203,3.06,1.494s2.131,0.438,3.082,0.438h1.012c1.38,0,2.668-0.246,3.864-0.736
		c1.195-0.49,2.238-1.15,3.128-1.979L266.154,38.869z M233.218,26.404l-4.462-20.102c-0.184-0.675-0.468-1.242-0.852-1.702
		c-0.383-0.46-0.797-0.82-1.241-1.081c-0.445-0.261-0.912-0.445-1.403-0.552c-0.49-0.107-0.951-0.161-1.38-0.161
		s-0.889,0.054-1.38,0.161c-0.491,0.106-0.958,0.291-1.402,0.552c-0.445,0.261-0.859,0.621-1.242,1.081s-0.668,1.027-0.852,1.702
		l-4.232,18.905L210.494,5.06c-0.153-0.705-0.406-1.288-0.76-1.748c-0.353-0.46-0.781-0.82-1.287-1.081s-1.051-0.429-1.633-0.506
		c-0.584-0.077-1.166-0.069-1.748,0.022c-0.553,0.093-1.082,0.284-1.588,0.575s-0.928,0.659-1.265,1.104
		c-0.337,0.444-0.575,0.958-0.713,1.541s-0.13,1.227,0.022,1.932l7.59,31.969h9.431l5.336-23l5.382,23h10.12l7.269-32.015
		c0.152-0.675,0.16-1.311,0.022-1.909c-0.138-0.598-0.368-1.112-0.69-1.541c-0.321-0.429-0.728-0.79-1.219-1.081
		c-0.49-0.291-1.012-0.482-1.563-0.575c-0.583-0.092-1.165-0.1-1.748-0.022s-1.119,0.245-1.61,0.506
		c-0.49,0.261-0.92,0.621-1.287,1.081c-0.369,0.46-0.613,1.043-0.736,1.748L233.218,26.404z M168.864,25.667v-3.496
		c0-0.768,0.13-1.418,0.391-1.955c0.261-0.537,0.583-0.975,0.966-1.312c0.383-0.337,0.805-0.575,1.265-0.713
		s0.889-0.207,1.288-0.207s0.82,0.069,1.265,0.207c0.445,0.138,0.859,0.36,1.242,0.667c0.383,0.307,0.713,0.713,0.989,1.219
		c0.276,0.507,0.429,1.127,0.46,1.863v3.957c-0.031,0.736-0.184,1.357-0.46,1.863s-0.606,0.912-0.989,1.219
		c-0.383,0.307-0.797,0.529-1.242,0.666c-0.445,0.139-0.866,0.207-1.265,0.207s-0.828-0.068-1.288-0.207
		c-0.46-0.137-0.882-0.375-1.265-0.713c-0.383-0.336-0.705-0.768-0.966-1.287C168.994,27.125,168.864,26.464,168.864,25.667
		 M185.977,35.419v-20.7c0-1.533-0.461-2.684-1.381-3.45s-1.992-1.15-3.22-1.15c-0.92,0-1.771,0.216-2.553,0.645
		s-1.357,1.073-1.726,1.932c-0.889-0.858-1.917-1.503-3.082-1.932s-2.331-0.645-3.496-0.645c-1.533,0-2.975,0.207-4.324,0.621
		c-1.349,0.414-2.53,1.112-3.542,2.093c-1.012,0.981-1.809,2.285-2.392,3.91s-0.874,3.649-0.874,6.072v2.024
		c0,2.393,0.291,4.393,0.874,6.004c0.583,1.609,1.38,2.896,2.392,3.863c1.012,0.967,2.185,1.648,3.519,2.047
		s2.768,0.598,4.301,0.598c1.411,0,2.668-0.221,3.772-0.666s2.055-1.066,2.852-1.863v0.828c0,0.521-0.106,1.027-0.322,1.518
		c-0.215,0.49-0.552,0.936-1.012,1.334s-1.043,0.713-1.748,0.943s-1.549,0.344-2.53,0.344c-0.859,0-1.656-0.045-2.392-0.137
		c-0.736-0.092-1.441-0.184-2.116-0.275c-0.797-0.123-1.533,0.029-2.208,0.459s-1.15,1.012-1.426,1.748
		c-0.307,0.797-0.314,1.633-0.023,2.508c0.291,0.873,0.79,1.51,1.495,1.908c0.368,0.215,0.843,0.406,1.426,0.574
		c0.583,0.17,1.196,0.309,1.84,0.414c0.644,0.107,1.265,0.186,1.863,0.23c0.598,0.047,1.112,0.055,1.541,0.023
		c3.097-0.123,5.597-0.576,7.499-1.357c1.9-0.781,3.365-1.732,4.393-2.852s1.717-2.354,2.07-3.703
		C185.8,37.98,185.977,36.677,185.977,35.419 M129.166,38.869h9.338V22.172c0-0.768,0.115-1.418,0.345-1.955
		s0.529-0.975,0.897-1.312c0.368-0.337,0.767-0.575,1.196-0.713c0.43-0.138,0.844-0.207,1.242-0.207
		c0.399,0,0.813,0.069,1.242,0.207c0.43,0.138,0.821,0.376,1.173,0.713c0.353,0.337,0.644,0.774,0.874,1.312
		s0.345,1.188,0.345,1.955v16.697h9.476V22.724c0-2.423-0.276-4.447-0.828-6.072c-0.552-1.625-1.295-2.921-2.231-3.887
		c-0.935-0.966-2.039-1.648-3.312-2.047c-1.272-0.399-2.645-0.599-4.117-0.599c-1.226,0-2.43,0.216-3.611,0.645
		c-1.18,0.429-2.215,1.058-3.105,1.886c-0.398-0.828-0.989-1.457-1.771-1.886c-0.782-0.429-1.617-0.645-2.507-0.645
		c-0.613,0-1.196,0.101-1.748,0.3c-0.552,0.198-1.042,0.49-1.472,0.874c-0.429,0.383-0.774,0.858-1.035,1.426
		c-0.26,0.566-0.391,1.233-0.391,2.001V38.869z M114.815,4.231c0,0.767,0.13,1.418,0.391,1.955c0.26,0.537,0.605,0.974,1.035,1.311
		c0.429,0.338,0.935,0.583,1.518,0.736c0.582,0.153,1.196,0.23,1.84,0.23s1.257-0.077,1.84-0.23
		c0.582-0.153,1.088-0.398,1.518-0.736c0.429-0.337,0.774-0.773,1.035-1.311c0.26-0.537,0.391-1.188,0.391-1.955
		c0-1.503-0.476-2.584-1.426-3.243c-0.951-0.659-2.07-0.989-3.358-0.989s-2.408,0.33-3.358,0.989
		C115.29,1.647,114.815,2.729,114.815,4.231 M114.861,15.041v23.828h9.476V15.041c0-1.595-0.468-2.76-1.403-3.495
		c-0.936-0.736-2.047-1.104-3.335-1.104s-2.4,0.368-3.335,1.104C115.328,12.281,114.861,13.446,114.861,15.041 M101.981,38.824
		l9.66-22.126c0.276-0.675,0.414-1.334,0.414-1.978c0-0.645-0.115-1.242-0.345-1.794c-0.23-0.553-0.567-1.035-1.012-1.449
		c-0.445-0.414-0.958-0.729-1.541-0.943c-0.613-0.215-1.227-0.337-1.84-0.368c-0.613-0.03-1.204,0.055-1.771,0.254
		c-0.567,0.198-1.081,0.521-1.541,0.966c-0.46,0.444-0.813,1.035-1.058,1.771l-4.876,14.307l-5.29-14.307
		c-0.276-0.735-0.644-1.326-1.104-1.771c-0.46-0.445-0.974-0.768-1.541-0.966c-0.567-0.199-1.173-0.284-1.817-0.254
		c-0.644,0.031-1.257,0.153-1.84,0.368c-0.613,0.215-1.142,0.529-1.587,0.943c-0.445,0.414-0.79,0.896-1.035,1.449
		c-0.245,0.552-0.376,1.149-0.391,1.794c-0.015,0.644,0.13,1.303,0.437,1.978l9.384,20.884v0.047
		c-0.368,0.703-0.981,1.195-1.84,1.471c-0.859,0.277-1.763,0.322-2.714,0.139c-1.38-0.246-2.446-0.023-3.197,0.666
		c-0.751,0.691-1.204,1.557-1.357,2.6c-0.061,0.521-0.031,1.027,0.092,1.518c0.123,0.492,0.345,0.951,0.667,1.381
		c0.322,0.428,0.728,0.789,1.219,1.08c0.491,0.291,1.073,0.484,1.748,0.576c3.22,0.459,6.018,0.014,8.395-1.334
		C98.677,44.375,100.57,42.074,101.981,38.824 M63.479,38.869h9.338V22.678c0.062-1.165,0.453-2.085,1.173-2.76
		c0.721-0.676,1.725-1.059,3.013-1.15c0.338-0.031,0.69-0.038,1.058-0.023c0.368,0.016,0.721,0.023,1.058,0.023
		c1.012,0,1.894-0.322,2.645-0.966c0.752-0.645,1.204-1.503,1.357-2.576c0.154-1.073,0.008-2.039-0.437-2.898
		c-0.444-0.858-1.111-1.472-2.001-1.84c-0.337-0.152-0.697-0.253-1.081-0.299c-0.383-0.046-0.743-0.069-1.081-0.069
		c-1.134,0-2.223,0.23-3.266,0.69c-1.042,0.46-1.993,1.089-2.852,1.886c-0.398-0.858-0.989-1.503-1.771-1.932
		c-0.782-0.429-1.617-0.645-2.507-0.645c-0.613,0-1.196,0.101-1.748,0.3c-0.552,0.198-1.042,0.49-1.472,0.874
		c-0.429,0.383-0.774,0.858-1.035,1.426c-0.26,0.566-0.391,1.233-0.391,2.001V38.869z M43.24,39.652
		c1.656,0,3.158-0.338,4.508-1.012c1.349-0.676,2.453-1.596,3.312-2.76l0.506,2.988h7.314V14.674c0-1.564-0.46-2.714-1.38-3.45
		s-2.024-1.104-3.312-1.104s-2.385,0.368-3.289,1.104c-0.905,0.736-1.357,1.886-1.357,3.45V27.83
		c-0.031,0.736-0.169,1.357-0.414,1.863c-0.246,0.506-0.545,0.912-0.897,1.219c-0.353,0.307-0.744,0.529-1.173,0.666
		c-0.43,0.139-0.828,0.207-1.196,0.207c-0.399,0-0.813-0.068-1.242-0.207c-0.43-0.137-0.821-0.375-1.173-0.713
		c-0.353-0.336-0.644-0.766-0.874-1.287c-0.23-0.521-0.345-1.182-0.345-1.979V14.72c0-1.596-0.468-2.76-1.403-3.496
		c-0.936-0.736-2.047-1.104-3.335-1.104c-1.288,0-2.4,0.368-3.335,1.104c-0.936,0.736-1.403,1.9-1.403,3.496v12.329
		c0,2.422,0.276,4.445,0.828,6.07c0.552,1.625,1.295,2.922,2.231,3.889c0.935,0.965,2.039,1.646,3.312,2.047
		C40.395,39.453,41.768,39.652,43.24,39.652 M10.672,9.659h3.68c1.533,0,2.645,0.346,3.335,1.035c0.69,0.69,1.035,1.449,1.035,2.277
		v0.322c0,0.398-0.084,0.789-0.253,1.173c-0.169,0.383-0.429,0.735-0.782,1.058s-0.805,0.583-1.357,0.782
		c-0.552,0.199-1.211,0.299-1.978,0.299H9.338v-5.612c0-0.552,0.092-0.912,0.276-1.081C9.798,9.743,10.151,9.659,10.672,9.659
		 M9.338,24.104h6.394c1.533,0,2.645,0.345,3.335,1.035s1.035,1.449,1.035,2.277v0.322c0,0.828-0.345,1.586-1.035,2.277
		c-0.69,0.689-1.802,1.035-3.335,1.035h-5.06c-0.521,0-0.874-0.084-1.058-0.254c-0.184-0.168-0.276-0.529-0.276-1.08V24.104z
		 M28.06,12.833v-0.275c0-1.717-0.345-3.243-1.035-4.577s-1.656-2.453-2.898-3.358c-1.242-0.904-2.729-1.595-4.462-2.069
		c-1.733-0.476-3.657-0.713-5.773-0.713H7.176c-1.38,0-2.53,0.13-3.45,0.391S2.07,2.912,1.518,3.495
		C0.966,4.078,0.575,4.829,0.345,5.749C0.115,6.67,0,7.788,0,9.107v22.494c0,1.32,0.115,2.438,0.345,3.359
		c0.23,0.92,0.621,1.67,1.173,2.254c0.552,0.582,1.288,1.004,2.208,1.264c0.92,0.262,2.07,0.391,3.45,0.391h8.004
		c2.055,0,3.948-0.191,5.681-0.574c1.733-0.383,3.235-0.996,4.508-1.84s2.269-1.947,2.99-3.313c0.721-1.365,1.081-3.027,1.081-4.99
		v-0.047c0-1.809-0.46-3.426-1.38-4.852c-0.92-1.427-2.377-2.538-4.37-3.335c1.472-0.828,2.568-1.855,3.289-3.082
		C27.7,15.608,28.06,14.274,28.06,12.833"/>
</g>
</svg>
