<?xml version="1.0" encoding="utf-8"?>
<!-- Generator: Adobe Illustrator 16.0.0, SVG Export Plug-In . SVG Version: 6.00 Build 0)  -->
<!DOCTYPE svg PUBLIC "-//W3C//DTD SVG 1.1//EN" "http://www.w3.org/Graphics/SVG/1.1/DTD/svg11.dtd">
<svg version="1.1" id="레이어_1" xmlns="http://www.w3.org/2000/svg" xmlns:xlink="http://www.w3.org/1999/xlink" x="0px"
	 y="0px" width="966.027px" height="43.152px" viewBox="0 0 966.027 43.152" enable-background="new 0 0 966.027 43.152"
	 xml:space="preserve">
<g>
	<defs>
		<rect id="SVGID_1_" width="966.027" height="43.152"/>
	</defs>
	<clipPath id="SVGID_2_">
		<use xlink:href="#SVGID_1_"  overflow="visible"/>
	</clipPath>
	<path clip-path="url(#SVGID_2_)" fill="#E37476" d="M956.829,35.449l8.821-20.203c0.251-0.615,0.377-1.218,0.377-1.806
		s-0.105-1.134-0.314-1.638c-0.21-0.504-0.519-0.945-0.925-1.323c-0.405-0.378-0.874-0.665-1.407-0.861
		c-0.559-0.195-1.12-0.308-1.679-0.336c-0.562-0.027-1.1,0.05-1.618,0.231c-0.517,0.182-0.986,0.476-1.407,0.882
		c-0.419,0.406-0.741,0.945-0.965,1.617l-4.452,13.061l-4.83-13.061c-0.253-0.672-0.588-1.211-1.008-1.617
		c-0.421-0.406-0.89-0.7-1.407-0.882c-0.519-0.182-1.071-0.259-1.66-0.231c-0.588,0.028-1.146,0.141-1.679,0.336
		c-0.561,0.196-1.043,0.483-1.449,0.861c-0.405,0.378-0.722,0.819-0.945,1.323c-0.225,0.504-0.344,1.05-0.356,1.638
		c-0.014,0.588,0.118,1.19,0.398,1.806l8.567,19.068v0.043c-0.335,0.645-0.896,1.092-1.679,1.344
		c-0.785,0.252-1.61,0.293-2.478,0.125c-1.261-0.223-2.234-0.02-2.92,0.609c-0.686,0.631-1.1,1.422-1.238,2.373
		c-0.057,0.477-0.029,0.938,0.084,1.387c0.11,0.447,0.313,0.867,0.608,1.26c0.293,0.393,0.664,0.721,1.112,0.986
		c0.448,0.268,0.981,0.441,1.597,0.525c2.939,0.42,5.495,0.014,7.664-1.217C953.812,40.517,955.541,38.417,956.829,35.449
		 M923.229,23.437v-3.193c0-0.699,0.12-1.295,0.358-1.784c0.237-0.49,0.532-0.89,0.882-1.197c0.35-0.309,0.734-0.525,1.155-0.651
		c0.419-0.126,0.812-0.188,1.176-0.188c0.363,0,0.748,0.063,1.154,0.188s0.785,0.329,1.134,0.609c0.35,0.28,0.651,0.65,0.903,1.113
		c0.253,0.462,0.393,1.028,0.42,1.7v3.612c-0.027,0.672-0.167,1.24-0.42,1.701c-0.252,0.463-0.554,0.834-0.903,1.113
		c-0.349,0.279-0.728,0.482-1.134,0.609c-0.406,0.125-0.791,0.189-1.154,0.189c-0.364,0-0.757-0.064-1.176-0.189
		c-0.421-0.127-0.806-0.344-1.155-0.65c-0.35-0.309-0.645-0.701-0.882-1.178C923.349,24.767,923.229,24.166,923.229,23.437
		 M938.854,32.341V13.44c0-1.399-0.421-2.45-1.26-3.149c-0.84-0.7-1.82-1.051-2.939-1.051c-0.842,0-1.618,0.196-2.331,0.588
		c-0.714,0.393-1.24,0.98-1.575,1.765c-0.813-0.784-1.75-1.372-2.815-1.765c-1.063-0.392-2.127-0.588-3.191-0.588
		c-1.399,0-2.715,0.189-3.948,0.567c-1.231,0.378-2.309,1.015-3.234,1.911c-0.924,0.896-1.651,2.086-2.184,3.569
		c-0.531,1.484-0.797,3.332-0.797,5.545v1.848c0,2.184,0.266,4.01,0.797,5.48c0.532,1.471,1.26,2.646,2.184,3.527
		c0.926,0.883,1.996,1.506,3.213,1.869c1.219,0.365,2.528,0.547,3.928,0.547c1.289,0,2.436-0.203,3.444-0.609
		c1.008-0.406,1.876-0.973,2.604-1.701v0.756c0,0.477-0.098,0.938-0.295,1.387c-0.196,0.447-0.504,0.854-0.923,1.217
		c-0.421,0.365-0.952,0.652-1.598,0.861c-0.643,0.211-1.413,0.316-2.309,0.316c-0.785,0-1.513-0.043-2.185-0.127
		c-0.673-0.084-1.315-0.168-1.932-0.252c-0.728-0.111-1.399,0.027-2.017,0.42c-0.616,0.393-1.049,0.924-1.302,1.596
		c-0.279,0.729-0.287,1.492-0.021,2.289c0.266,0.799,0.722,1.379,1.365,1.744c0.337,0.195,0.77,0.369,1.302,0.523
		c0.533,0.154,1.092,0.281,1.68,0.379c0.589,0.098,1.156,0.168,1.702,0.209c0.545,0.043,1.016,0.049,1.407,0.021
		c2.828-0.111,5.11-0.525,6.845-1.238c1.737-0.715,3.073-1.582,4.011-2.604c0.938-1.023,1.568-2.15,1.891-3.383
		C938.692,34.679,938.854,33.488,938.854,32.341 M903.868,20.412v4.621c0,0.756-0.112,1.393-0.336,1.91
		c-0.225,0.52-0.512,0.945-0.861,1.281s-0.749,0.582-1.197,0.736c-0.447,0.152-0.896,0.23-1.344,0.23s-0.896-0.078-1.344-0.23
		c-0.448-0.154-0.847-0.4-1.197-0.736c-0.35-0.336-0.637-0.762-0.861-1.281c-0.224-0.518-0.336-1.154-0.336-1.91v-4.621
		c0-0.756,0.112-1.393,0.336-1.91c0.225-0.519,0.512-0.945,0.861-1.281c0.351-0.336,0.749-0.581,1.197-0.735
		c0.448-0.153,0.896-0.23,1.344-0.23s0.896,0.077,1.344,0.23c0.448,0.154,0.848,0.399,1.197,0.735s0.637,0.763,0.861,1.281
		C903.756,19.02,903.868,19.656,903.868,20.412 M887.95,20.791v3.863c0,2.27,0.371,4.145,1.112,5.629
		c0.742,1.484,1.701,2.674,2.877,3.57c1.177,0.896,2.485,1.525,3.928,1.889c1.441,0.365,2.862,0.547,4.263,0.547
		s2.821-0.182,4.263-0.547c1.442-0.363,2.751-0.992,3.928-1.889c1.176-0.896,2.135-2.086,2.877-3.57s1.112-3.359,1.112-5.629v-3.863
		c0-2.269-0.37-4.145-1.112-5.629c-0.742-1.483-1.701-2.674-2.877-3.569c-1.177-0.896-2.485-1.526-3.928-1.891
		c-1.441-0.363-2.862-0.546-4.263-0.546c-1.428,0-2.863,0.183-4.305,0.546c-1.442,0.364-2.751,0.994-3.927,1.891
		c-1.177,0.896-2.129,2.086-2.856,3.569C888.314,16.646,887.95,18.522,887.95,20.791 M876.526,4.2v31.29h8.651V4.2
		c0-1.456-0.427-2.52-1.281-3.191c-0.854-0.672-1.868-1.008-3.045-1.008c-1.176,0-2.19,0.336-3.045,1.008
		C876.953,1.681,876.526,2.744,876.526,4.2 M865.313,20.412v4.621c0,0.756-0.111,1.393-0.336,1.91
		c-0.224,0.52-0.511,0.945-0.86,1.281c-0.351,0.336-0.749,0.582-1.197,0.736c-0.448,0.152-0.896,0.23-1.344,0.23
		s-0.896-0.078-1.345-0.23c-0.447-0.154-0.847-0.4-1.196-0.736c-0.351-0.336-0.638-0.762-0.861-1.281
		c-0.224-0.518-0.336-1.154-0.336-1.91v-4.621c0-0.756,0.112-1.393,0.336-1.91c0.224-0.519,0.511-0.945,0.861-1.281
		c0.35-0.336,0.749-0.581,1.196-0.735c0.448-0.153,0.896-0.23,1.345-0.23s0.896,0.077,1.344,0.23
		c0.448,0.154,0.847,0.399,1.197,0.735c0.35,0.336,0.637,0.763,0.86,1.281C865.201,19.02,865.313,19.656,865.313,20.412
		 M849.395,20.791v3.863c0,2.27,0.371,4.145,1.113,5.629s1.701,2.674,2.877,3.57s2.485,1.525,3.927,1.889
		c1.442,0.365,2.863,0.547,4.264,0.547c1.399,0,2.82-0.182,4.263-0.547c1.442-0.363,2.751-0.992,3.927-1.889
		c1.177-0.896,2.136-2.086,2.877-3.57c0.742-1.484,1.113-3.359,1.113-5.629v-3.863c0-2.269-0.371-4.145-1.113-5.629
		c-0.741-1.483-1.7-2.674-2.877-3.569c-1.176-0.896-2.484-1.526-3.927-1.891c-1.442-0.363-2.863-0.546-4.263-0.546
		c-1.429,0-2.863,0.183-4.306,0.546c-1.441,0.364-2.751,0.994-3.927,1.891c-1.176,0.896-2.128,2.086-2.855,3.569
		C849.759,16.646,849.395,18.522,849.395,20.791 M823.061,35.49h8.526V20.244c0-0.699,0.105-1.295,0.315-1.784
		c0.21-0.49,0.482-0.89,0.818-1.197c0.336-0.309,0.7-0.525,1.092-0.651c0.393-0.126,0.771-0.188,1.135-0.188
		c0.363,0,0.742,0.063,1.134,0.188s0.749,0.343,1.071,0.651c0.321,0.308,0.588,0.707,0.798,1.197
		c0.21,0.489,0.314,1.085,0.314,1.784V35.49h8.652V20.749c0-2.213-0.252-4.061-0.756-5.545c-0.504-1.483-1.184-2.667-2.037-3.549
		c-0.854-0.882-1.862-1.505-3.024-1.869c-1.162-0.363-2.415-0.546-3.759-0.546c-1.12,0-2.219,0.196-3.297,0.588
		c-1.078,0.393-2.023,0.967-2.835,1.723c-0.364-0.756-0.903-1.33-1.617-1.723c-0.714-0.392-1.477-0.588-2.289-0.588
		c-0.56,0-1.092,0.092-1.596,0.273s-0.952,0.448-1.344,0.798c-0.393,0.35-0.707,0.784-0.945,1.302
		c-0.238,0.519-0.357,1.127-0.357,1.827V35.49z M811.596,35.49h8.652V20.833c0-2.213-0.266-4.061-0.798-5.545
		c-0.532-1.483-1.246-2.674-2.143-3.569c-0.896-0.896-1.953-1.533-3.171-1.911s-2.513-0.567-3.885-0.567
		c-1.12,0-2.149,0.176-3.087,0.525c-0.938,0.35-1.771,0.847-2.499,1.491V4.2c0-0.699-0.119-1.309-0.357-1.826
		c-0.237-0.519-0.553-0.952-0.944-1.303c-0.393-0.35-0.841-0.615-1.345-0.798c-0.504-0.182-1.035-0.272-1.596-0.272
		c-0.56,0-1.099,0.091-1.617,0.272c-0.518,0.183-0.973,0.448-1.364,0.798c-0.393,0.351-0.707,0.784-0.945,1.303
		c-0.238,0.518-0.357,1.127-0.357,1.826v31.29h8.526V20.076c0.028-0.672,0.154-1.238,0.378-1.7c0.224-0.463,0.504-0.833,0.84-1.113
		s0.707-0.483,1.113-0.609s0.791-0.188,1.155-0.188c0.363,0,0.749,0.063,1.154,0.188c0.406,0.126,0.777,0.343,1.113,0.651
		c0.336,0.308,0.616,0.707,0.84,1.197c0.225,0.489,0.336,1.085,0.336,1.784V35.49z M780.642,24.613v-3.78
		c0-0.896,0.126-1.632,0.378-2.205c0.252-0.574,0.581-1.022,0.987-1.345c0.406-0.321,0.847-0.546,1.323-0.672
		c0.476-0.126,0.952-0.188,1.428-0.188c0.645,0,1.162,0.042,1.554,0.126c0.393,0.084,0.799,0.224,1.219,0.42
		c0.308,0.14,0.623,0.28,0.944,0.42c0.322,0.14,0.68,0.238,1.071,0.294c0.672,0.084,1.309,0.028,1.911-0.168
		c0.602-0.196,1.099-0.645,1.491-1.344c0.279-0.477,0.427-0.959,0.44-1.449c0.015-0.49-0.069-0.973-0.252-1.449
		c-0.182-0.476-0.455-0.917-0.818-1.323c-0.364-0.405-0.799-0.763-1.303-1.07c-0.672-0.42-1.554-0.798-2.646-1.135
		c-1.092-0.336-2.395-0.504-3.906-0.504c-1.456,0-2.926,0.196-4.41,0.588c-1.483,0.393-2.82,1.036-4.011,1.933
		c-1.19,0.896-2.163,2.086-2.919,3.57c-0.756,1.483-1.134,3.331-1.134,5.544v3.695c0,2.27,0.378,4.145,1.134,5.629
		s1.743,2.674,2.961,3.57s2.59,1.525,4.116,1.889c1.525,0.365,3.045,0.547,4.557,0.547c1.428,0,2.716-0.189,3.864-0.566
		c1.147-0.379,2.114-0.805,2.897-1.281c0.504-0.309,0.938-0.672,1.303-1.092c0.363-0.42,0.637-0.875,0.818-1.365
		c0.183-0.49,0.252-0.994,0.21-1.512c-0.042-0.52-0.202-1.016-0.482-1.492c-0.364-0.588-0.833-0.994-1.407-1.217
		c-0.574-0.225-1.169-0.281-1.785-0.168c-0.392,0.055-0.756,0.174-1.092,0.355c-0.336,0.184-0.658,0.344-0.966,0.484
		c-0.561,0.252-1.085,0.426-1.575,0.525c-0.49,0.098-1.085,0.146-1.785,0.146c-0.476,0-0.959-0.063-1.449-0.189
		c-0.489-0.125-0.931-0.35-1.322-0.672c-0.393-0.322-0.715-0.77-0.967-1.344S780.642,25.509,780.642,24.613 M758.257,16.045
		c0.448,0,0.889,0.063,1.323,0.188c0.434,0.126,0.805,0.336,1.113,0.63c0.308,0.294,0.553,0.672,0.734,1.135
		c0.183,0.462,0.259,1.043,0.231,1.742h-7.099c0-0.699,0.112-1.28,0.336-1.742c0.225-0.463,0.505-0.841,0.841-1.135
		s0.721-0.504,1.154-0.63C757.326,16.107,757.781,16.045,758.257,16.045 M759.181,36.205c0.756,0,1.505-0.049,2.247-0.146
		s1.442-0.232,2.101-0.4c0.657-0.168,1.245-0.35,1.764-0.545c0.518-0.195,0.945-0.393,1.281-0.588
		c1.008-0.588,1.729-1.309,2.163-2.164c0.434-0.854,0.427-1.799-0.021-2.834c-0.28-0.645-0.721-1.092-1.323-1.344
		c-0.602-0.252-1.267-0.336-1.995-0.252c-0.363,0.055-0.707,0.146-1.028,0.271c-0.322,0.127-0.638,0.246-0.945,0.357
		c-0.56,0.197-1.12,0.336-1.68,0.42c-0.561,0.084-1.358,0.127-2.395,0.127c-0.504,0-1.036-0.063-1.596-0.189
		c-0.56-0.125-1.078-0.344-1.554-0.65c-0.477-0.309-0.868-0.701-1.176-1.176c-0.309-0.477-0.463-1.078-0.463-1.807v-0.043h15.036
		c0.057-0.363,0.105-0.797,0.147-1.301s0.063-0.938,0.063-1.303c0-2.772-0.329-5.033-0.986-6.783
		c-0.658-1.75-1.533-3.115-2.625-4.095c-1.093-0.98-2.331-1.646-3.718-1.995c-1.386-0.35-2.807-0.525-4.263-0.525
		c-1.344,0-2.723,0.189-4.137,0.567s-2.702,1.015-3.864,1.911c-1.162,0.896-2.114,2.086-2.855,3.569
		c-0.742,1.484-1.113,3.347-1.113,5.587v3.695c0,2.186,0.385,4.025,1.155,5.523c0.77,1.498,1.777,2.695,3.023,3.592
		s2.639,1.539,4.179,1.932S757.669,36.205,759.181,36.205 M730.116,35.49h8.736V9.114h6.426c0.616,0,1.134-0.111,1.555-0.336
		c0.419-0.224,0.77-0.518,1.049-0.882c0.28-0.364,0.483-0.77,0.609-1.218s0.189-0.882,0.189-1.302s-0.063-0.848-0.189-1.281
		c-0.126-0.435-0.322-0.826-0.588-1.176c-0.267-0.351-0.616-0.63-1.05-0.841c-0.435-0.21-0.959-0.314-1.575-0.314h-21.589
		c-0.615,0-1.141,0.104-1.574,0.314c-0.434,0.211-0.783,0.49-1.051,0.841c-0.266,0.35-0.461,0.741-0.587,1.176
		c-0.127,0.434-0.189,0.861-0.189,1.281s0.063,0.854,0.189,1.302c0.126,0.448,0.321,0.854,0.587,1.218
		c0.268,0.364,0.617,0.658,1.051,0.882c0.434,0.225,0.959,0.336,1.574,0.336h6.427V35.49z M685.219,35.49h8.526V20.244
		c0-0.699,0.104-1.295,0.314-1.784c0.21-0.49,0.483-0.89,0.819-1.197c0.336-0.309,0.7-0.525,1.092-0.651
		c0.393-0.126,0.771-0.188,1.134-0.188c0.364,0,0.742,0.063,1.135,0.188c0.392,0.126,0.749,0.343,1.07,0.651
		c0.322,0.308,0.589,0.707,0.799,1.197c0.21,0.489,0.314,1.085,0.314,1.784V35.49h8.652V20.749c0-2.213-0.252-4.061-0.756-5.545
		c-0.505-1.483-1.184-2.667-2.037-3.549c-0.854-0.882-1.862-1.505-3.024-1.869c-1.162-0.363-2.415-0.546-3.759-0.546
		c-1.12,0-2.219,0.196-3.297,0.588c-1.078,0.393-2.023,0.967-2.835,1.723c-0.364-0.756-0.903-1.33-1.617-1.723
		c-0.714-0.392-1.477-0.588-2.289-0.588c-0.56,0-1.092,0.092-1.596,0.273s-0.952,0.448-1.345,0.798
		c-0.392,0.35-0.706,0.784-0.944,1.302c-0.238,0.519-0.357,1.127-0.357,1.827V35.49z M674.173,20.412v4.621
		c0,0.756-0.112,1.393-0.336,1.91c-0.224,0.52-0.511,0.945-0.861,1.281c-0.35,0.336-0.749,0.582-1.196,0.736
		c-0.448,0.152-0.896,0.23-1.345,0.23c-0.447,0-0.896-0.078-1.344-0.23c-0.448-0.154-0.847-0.4-1.197-0.736
		c-0.35-0.336-0.637-0.762-0.86-1.281c-0.225-0.518-0.336-1.154-0.336-1.91v-4.621c0-0.756,0.111-1.393,0.336-1.91
		c0.224-0.519,0.511-0.945,0.86-1.281c0.351-0.336,0.749-0.581,1.197-0.735c0.448-0.153,0.896-0.23,1.344-0.23
		c0.448,0,0.896,0.077,1.345,0.23c0.447,0.154,0.847,0.399,1.196,0.735c0.351,0.336,0.638,0.763,0.861,1.281
		C674.061,19.02,674.173,19.656,674.173,20.412 M658.255,20.791v3.863c0,2.27,0.371,4.145,1.113,5.629s1.701,2.674,2.877,3.57
		s2.484,1.525,3.927,1.889c1.442,0.365,2.863,0.547,4.263,0.547c1.4,0,2.821-0.182,4.264-0.547c1.441-0.363,2.751-0.992,3.927-1.889
		s2.135-2.086,2.877-3.57s1.113-3.359,1.113-5.629v-3.863c0-2.269-0.371-4.145-1.113-5.629c-0.742-1.483-1.701-2.674-2.877-3.569
		c-1.176-0.896-2.485-1.526-3.927-1.891c-1.442-0.363-2.863-0.546-4.264-0.546c-1.428,0-2.862,0.183-4.305,0.546
		c-1.442,0.364-2.751,0.994-3.927,1.891c-1.176,0.896-2.128,2.086-2.856,3.569C658.619,16.646,658.255,18.522,658.255,20.791
		 M646.748,3.864c0,0.7,0.119,1.295,0.356,1.785c0.238,0.49,0.554,0.889,0.945,1.197c0.393,0.308,0.854,0.532,1.386,0.672
		c0.532,0.14,1.093,0.21,1.681,0.21s1.147-0.07,1.68-0.21s0.994-0.364,1.386-0.672c0.393-0.309,0.707-0.707,0.945-1.197
		s0.357-1.085,0.357-1.785c0-1.372-0.435-2.358-1.303-2.961c-0.867-0.602-1.89-0.902-3.065-0.902c-1.177,0-2.198,0.301-3.066,0.902
		C647.182,1.506,646.748,2.492,646.748,3.864 M646.79,13.734V35.49h8.652V13.734c0-1.456-0.428-2.52-1.281-3.191
		c-0.854-0.673-1.869-1.009-3.045-1.009c-1.177,0-2.191,0.336-3.045,1.009C647.217,11.215,646.79,12.278,646.79,13.734
		 M631.04,17.011v10.584c0,1.596,0.196,2.939,0.588,4.031s0.966,1.975,1.722,2.646s1.681,1.162,2.772,1.469
		c1.092,0.309,2.338,0.463,3.738,0.463c0.728,0,1.456-0.111,2.184-0.336s1.33-0.49,1.806-0.799c0.588-0.391,1.043-0.924,1.365-1.596
		s0.385-1.441,0.189-2.309c-0.141-0.701-0.477-1.262-1.009-1.682c-0.531-0.42-1.147-0.629-1.848-0.629
		c-0.42,0-0.756,0.035-1.008,0.105c-0.252,0.068-0.532,0.09-0.84,0.063c-0.364-0.029-0.68-0.141-0.945-0.336
		c-0.266-0.197-0.399-0.617-0.399-1.26V17.011h2.479c1.316,0,2.261-0.351,2.835-1.05c0.574-0.7,0.861-1.498,0.861-2.395
		c0-0.42-0.07-0.84-0.21-1.26c-0.141-0.42-0.357-0.798-0.651-1.134s-0.672-0.609-1.134-0.819s-1.029-0.315-1.701-0.315h-2.479V5.671
		c0-0.7-0.118-1.316-0.356-1.849c-0.238-0.531-0.553-0.966-0.945-1.302c-0.392-0.336-0.833-0.588-1.323-0.756
		c-0.489-0.168-1.001-0.252-1.532-0.252c-0.532,0-1.043,0.084-1.533,0.252s-0.931,0.42-1.323,0.756
		c-0.392,0.336-0.707,0.771-0.945,1.302c-0.237,0.532-0.356,1.148-0.356,1.849v4.367h-1.386c-0.672,0-1.246,0.105-1.723,0.315
		c-0.476,0.21-0.86,0.483-1.154,0.819s-0.504,0.714-0.631,1.134c-0.126,0.42-0.188,0.84-0.188,1.26c0,0.896,0.287,1.694,0.861,2.395
		c0.573,0.699,1.519,1.05,2.835,1.05H631.04z M616.97,25.537v1.512c0,0.447-0.104,0.84-0.314,1.176s-0.477,0.617-0.798,0.84
		c-0.322,0.225-0.68,0.393-1.071,0.504c-0.393,0.113-0.784,0.168-1.176,0.168h-0.589c-0.728,0-1.302-0.168-1.722-0.504
		s-0.63-0.854-0.63-1.553c0-0.672,0.21-1.197,0.63-1.576c0.42-0.377,1.036-0.566,1.849-0.566H616.97z M618.608,35.49h6.636V20.454
		c0-2.268-0.315-4.13-0.945-5.586s-1.47-2.597-2.52-3.423c-1.051-0.826-2.269-1.399-3.654-1.722s-2.835-0.483-4.347-0.483
		c-0.729,0-1.478,0.042-2.247,0.126c-0.771,0.084-1.533,0.218-2.289,0.399s-1.484,0.413-2.185,0.693
		c-0.699,0.279-1.33,0.63-1.89,1.05c-0.729,0.56-1.232,1.239-1.512,2.037c-0.28,0.798-0.225,1.616,0.168,2.457
		c0.195,0.42,0.469,0.77,0.818,1.05c0.351,0.28,0.735,0.482,1.155,0.608s0.847,0.183,1.281,0.168
		c0.434-0.014,0.847-0.118,1.239-0.314c0.392-0.168,0.734-0.322,1.028-0.462c0.294-0.141,0.609-0.267,0.945-0.378
		c0.504-0.141,0.979-0.252,1.428-0.336s0.91-0.126,1.386-0.126c0.505,0,0.987,0.049,1.449,0.146
		c0.462,0.099,0.868,0.267,1.219,0.504c0.35,0.238,0.63,0.561,0.84,0.966c0.21,0.406,0.329,0.917,0.356,1.533h-4.326
		c-1.372,0-2.681,0.141-3.927,0.42c-1.246,0.28-2.338,0.742-3.275,1.387c-0.938,0.644-1.688,1.499-2.247,2.561
		c-0.561,1.064-0.841,2.395-0.841,3.99c0,1.652,0.287,3.023,0.861,4.117c0.574,1.092,1.288,1.959,2.143,2.604
		c0.854,0.645,1.784,1.1,2.793,1.365c1.008,0.266,1.945,0.398,2.813,0.398h0.924c1.261,0,2.437-0.225,3.528-0.672
		s2.044-1.051,2.855-1.807L618.608,35.49z M591.056,4.2v31.29h8.652V4.2c0-1.456-0.427-2.52-1.281-3.191
		c-0.854-0.672-1.869-1.008-3.045-1.008s-2.19,0.336-3.045,1.008C591.483,1.681,591.056,2.744,591.056,4.2 M573.669,36.205
		c1.512,0,2.884-0.309,4.116-0.924c1.231-0.615,2.24-1.457,3.023-2.52l0.462,2.729h6.679V13.398c0-1.428-0.42-2.478-1.26-3.149
		c-0.841-0.673-1.849-1.009-3.024-1.009s-2.177,0.336-3.003,1.009c-0.826,0.672-1.239,1.722-1.239,3.149V25.41
		c-0.028,0.674-0.154,1.24-0.378,1.701c-0.224,0.463-0.497,0.834-0.819,1.113c-0.321,0.281-0.679,0.484-1.07,0.609
		c-0.393,0.127-0.757,0.189-1.093,0.189c-0.363,0-0.741-0.063-1.134-0.189c-0.392-0.125-0.749-0.344-1.07-0.65
		c-0.322-0.309-0.589-0.701-0.799-1.176c-0.21-0.477-0.314-1.078-0.314-1.807V13.44c0-1.456-0.428-2.52-1.282-3.191
		c-0.853-0.673-1.868-1.009-3.044-1.009s-2.191,0.336-3.045,1.009c-0.854,0.672-1.281,1.735-1.281,3.191v11.256
		c0,2.211,0.252,4.061,0.756,5.543c0.504,1.484,1.184,2.668,2.037,3.551c0.854,0.881,1.862,1.504,3.024,1.867
		C571.072,36.023,572.325,36.205,573.669,36.205 M548.889,24.613v-3.78c0-0.896,0.126-1.632,0.378-2.205
		c0.252-0.574,0.581-1.022,0.987-1.345c0.406-0.321,0.847-0.546,1.323-0.672c0.476-0.126,0.952-0.188,1.428-0.188
		c0.644,0,1.162,0.042,1.554,0.126c0.393,0.084,0.799,0.224,1.219,0.42c0.308,0.14,0.623,0.28,0.944,0.42
		c0.322,0.14,0.68,0.238,1.071,0.294c0.672,0.084,1.309,0.028,1.911-0.168c0.602-0.196,1.099-0.645,1.491-1.344
		c0.279-0.477,0.427-0.959,0.44-1.449c0.015-0.49-0.069-0.973-0.252-1.449c-0.182-0.476-0.455-0.917-0.819-1.323
		c-0.363-0.405-0.798-0.763-1.302-1.07c-0.672-0.42-1.554-0.798-2.646-1.135c-1.092-0.336-2.395-0.504-3.906-0.504
		c-1.456,0-2.926,0.196-4.41,0.588c-1.483,0.393-2.821,1.036-4.011,1.933c-1.19,0.896-2.163,2.086-2.919,3.57
		c-0.756,1.483-1.134,3.331-1.134,5.544v3.695c0,2.27,0.378,4.145,1.134,5.629s1.743,2.674,2.961,3.57s2.59,1.525,4.116,1.889
		c1.525,0.365,3.045,0.547,4.557,0.547c1.428,0,2.716-0.189,3.864-0.566c1.147-0.379,2.114-0.805,2.897-1.281
		c0.504-0.309,0.938-0.672,1.303-1.092c0.363-0.42,0.637-0.875,0.818-1.365c0.183-0.49,0.252-0.994,0.21-1.512
		c-0.042-0.52-0.203-1.016-0.482-1.492c-0.364-0.588-0.833-0.994-1.407-1.217c-0.574-0.225-1.169-0.281-1.785-0.168
		c-0.392,0.055-0.756,0.174-1.092,0.355c-0.336,0.184-0.658,0.344-0.966,0.484c-0.561,0.252-1.085,0.426-1.575,0.525
		c-0.49,0.098-1.085,0.146-1.785,0.146c-0.476,0-0.959-0.063-1.449-0.189c-0.489-0.125-0.931-0.35-1.322-0.672
		c-0.393-0.322-0.715-0.77-0.967-1.344S548.889,25.509,548.889,24.613 M521.716,35.49h8.526V20.707
		c0.056-1.064,0.413-1.904,1.07-2.521c0.658-0.616,1.575-0.966,2.752-1.05c0.308-0.028,0.63-0.035,0.966-0.021
		c0.336,0.015,0.657,0.021,0.966,0.021c0.924,0,1.729-0.294,2.415-0.882c0.686-0.588,1.099-1.372,1.239-2.353
		c0.14-0.979,0.007-1.861-0.399-2.646s-1.015-1.345-1.827-1.681c-0.308-0.14-0.637-0.23-0.987-0.272
		c-0.35-0.042-0.679-0.063-0.986-0.063c-1.036,0-2.03,0.21-2.982,0.63c-0.952,0.421-1.819,0.994-2.604,1.723
		c-0.364-0.784-0.903-1.372-1.617-1.765c-0.714-0.392-1.478-0.588-2.289-0.588c-0.56,0-1.092,0.092-1.596,0.273
		s-0.952,0.448-1.345,0.798c-0.392,0.35-0.707,0.784-0.944,1.302c-0.238,0.519-0.357,1.127-0.357,1.827V35.49z M509.872,3.864
		c0,0.7,0.119,1.295,0.356,1.785c0.238,0.49,0.554,0.889,0.945,1.197c0.393,0.308,0.854,0.532,1.386,0.672
		c0.532,0.14,1.093,0.21,1.681,0.21s1.147-0.07,1.68-0.21s0.994-0.364,1.386-0.672c0.393-0.309,0.707-0.707,0.945-1.197
		s0.357-1.085,0.357-1.785c0-1.372-0.435-2.358-1.303-2.961c-0.868-0.602-1.89-0.902-3.065-0.902s-2.198,0.301-3.066,0.902
		C510.306,1.506,509.872,2.492,509.872,3.864 M509.914,13.734V35.49h8.652V13.734c0-1.456-0.428-2.52-1.281-3.191
		c-0.854-0.673-1.869-1.009-3.045-1.009s-2.191,0.336-3.045,1.009C510.341,11.215,509.914,12.278,509.914,13.734 M491.14,22.849
		v-7.981c0-0.979,0.161-1.841,0.483-2.583c0.322-0.741,0.756-1.357,1.302-1.848s1.169-0.861,1.869-1.113s1.428-0.378,2.184-0.378
		c0.868,0,1.575,0.042,2.121,0.126s1.071,0.225,1.575,0.42c0.309,0.141,0.651,0.302,1.029,0.483s0.805,0.315,1.281,0.399
		c0.728,0.14,1.441,0.056,2.142-0.252c0.7-0.309,1.26-0.826,1.68-1.555c0.504-0.896,0.588-1.799,0.252-2.709
		s-0.938-1.673-1.806-2.289c-0.812-0.588-1.925-1.078-3.339-1.47s-3.06-0.588-4.936-0.588c-1.819,0-3.598,0.238-5.334,0.714
		c-1.735,0.476-3.282,1.239-4.641,2.289s-2.45,2.394-3.276,4.032c-0.825,1.638-1.238,3.619-1.238,5.942v8.736
		c0,2.324,0.413,4.305,1.238,5.943c0.826,1.639,1.918,2.982,3.276,4.031c1.358,1.051,2.905,1.814,4.641,2.289
		c1.736,0.477,3.515,0.715,5.334,0.715c1.624,0,3.263-0.217,4.914-0.65c1.652-0.436,3.066-1.127,4.242-2.08
		c0.729-0.588,1.226-1.316,1.491-2.184s0.133-1.736-0.399-2.604c-0.42-0.701-0.938-1.176-1.554-1.428s-1.302-0.309-2.058-0.168
		c-0.393,0.055-0.777,0.182-1.155,0.377c-0.378,0.197-0.721,0.365-1.029,0.504c-0.56,0.252-1.196,0.449-1.911,0.588
		c-0.714,0.141-1.561,0.211-2.541,0.211c-0.756,0-1.483-0.127-2.184-0.379s-1.323-0.623-1.869-1.113
		c-0.546-0.488-0.979-1.105-1.302-1.848S491.14,23.828,491.14,22.849 M458.254,16.045c0.448,0,0.889,0.063,1.323,0.188
		c0.434,0.126,0.805,0.336,1.113,0.63c0.308,0.294,0.553,0.672,0.734,1.135c0.183,0.462,0.259,1.043,0.231,1.742h-7.099
		c0-0.699,0.112-1.28,0.336-1.742c0.225-0.463,0.505-0.841,0.841-1.135s0.721-0.504,1.154-0.63
		C457.323,16.107,457.778,16.045,458.254,16.045 M459.178,36.205c0.756,0,1.505-0.049,2.247-0.146s1.442-0.232,2.101-0.4
		c0.657-0.168,1.245-0.35,1.764-0.545c0.518-0.195,0.945-0.393,1.281-0.588c1.008-0.588,1.729-1.309,2.163-2.164
		c0.434-0.854,0.427-1.799-0.021-2.834c-0.28-0.645-0.721-1.092-1.323-1.344c-0.602-0.252-1.267-0.336-1.995-0.252
		c-0.363,0.055-0.707,0.146-1.028,0.271c-0.322,0.127-0.638,0.246-0.945,0.357c-0.56,0.197-1.12,0.336-1.68,0.42
		c-0.561,0.084-1.358,0.127-2.395,0.127c-0.504,0-1.036-0.063-1.596-0.189c-0.56-0.125-1.078-0.344-1.554-0.65
		c-0.477-0.309-0.868-0.701-1.177-1.176c-0.308-0.477-0.462-1.078-0.462-1.807v-0.043h15.036c0.057-0.363,0.105-0.797,0.147-1.301
		s0.063-0.938,0.063-1.303c0-2.772-0.329-5.033-0.986-6.783c-0.658-1.75-1.533-3.115-2.625-4.095
		c-1.093-0.98-2.331-1.646-3.718-1.995c-1.386-0.35-2.807-0.525-4.263-0.525c-1.344,0-2.723,0.189-4.137,0.567
		s-2.702,1.015-3.864,1.911c-1.162,0.896-2.114,2.086-2.855,3.569c-0.742,1.484-1.113,3.347-1.113,5.587v3.695
		c0,2.186,0.385,4.025,1.154,5.523c0.771,1.498,1.778,2.695,3.024,3.592s2.639,1.539,4.179,1.932S457.666,36.205,459.178,36.205
		 M431.249,24.613v-3.78c0-0.896,0.126-1.632,0.378-2.205c0.252-0.574,0.581-1.022,0.987-1.345c0.405-0.321,0.847-0.546,1.322-0.672
		c0.477-0.126,0.952-0.188,1.429-0.188c0.644,0,1.162,0.042,1.554,0.126s0.798,0.224,1.218,0.42c0.309,0.14,0.623,0.28,0.945,0.42
		s0.679,0.238,1.071,0.294c0.672,0.084,1.309,0.028,1.911-0.168c0.602-0.196,1.099-0.645,1.49-1.344
		c0.28-0.477,0.428-0.959,0.441-1.449s-0.07-0.973-0.252-1.449c-0.183-0.476-0.455-0.917-0.819-1.323
		c-0.364-0.405-0.798-0.763-1.302-1.07c-0.672-0.42-1.554-0.798-2.646-1.135c-1.092-0.336-2.394-0.504-3.905-0.504
		c-1.456,0-2.927,0.196-4.41,0.588c-1.484,0.393-2.821,1.036-4.011,1.933c-1.19,0.896-2.163,2.086-2.919,3.57
		c-0.757,1.483-1.135,3.331-1.135,5.544v3.695c0,2.27,0.378,4.145,1.135,5.629c0.756,1.484,1.742,2.674,2.961,3.57
		c1.218,0.896,2.59,1.525,4.115,1.889c1.526,0.365,3.045,0.547,4.558,0.547c1.428,0,2.716-0.189,3.863-0.566
		c1.148-0.379,2.114-0.805,2.898-1.281c0.504-0.309,0.938-0.672,1.302-1.092c0.364-0.42,0.638-0.875,0.819-1.365
		s0.252-0.994,0.21-1.512c-0.042-0.52-0.203-1.016-0.483-1.492c-0.363-0.588-0.833-0.994-1.406-1.217
		c-0.574-0.225-1.169-0.281-1.785-0.168c-0.393,0.055-0.756,0.174-1.092,0.355c-0.336,0.184-0.658,0.344-0.967,0.484
		c-0.56,0.252-1.085,0.426-1.574,0.525c-0.49,0.098-1.085,0.146-1.785,0.146c-0.477,0-0.959-0.063-1.449-0.189
		c-0.49-0.125-0.931-0.35-1.323-0.672c-0.392-0.322-0.714-0.77-0.966-1.344S431.249,25.509,431.249,24.613 M404.075,35.49h8.525
		V20.707c0.057-1.064,0.413-1.904,1.071-2.521s1.575-0.966,2.751-1.05c0.309-0.028,0.63-0.035,0.966-0.021
		c0.336,0.015,0.658,0.021,0.967,0.021c0.924,0,1.729-0.294,2.414-0.882c0.687-0.588,1.1-1.372,1.239-2.353
		c0.141-0.979,0.007-1.861-0.398-2.646c-0.406-0.784-1.016-1.345-1.827-1.681c-0.309-0.14-0.638-0.23-0.987-0.272
		s-0.679-0.063-0.987-0.063c-1.035,0-2.029,0.21-2.981,0.63c-0.952,0.421-1.82,0.994-2.604,1.723
		c-0.363-0.784-0.902-1.372-1.616-1.765c-0.715-0.392-1.478-0.588-2.289-0.588c-0.561,0-1.093,0.092-1.597,0.273
		s-0.952,0.448-1.344,0.798s-0.707,0.784-0.945,1.302c-0.237,0.519-0.356,1.127-0.356,1.827V35.49z M386.856,36.205
		c1.512,0,2.884-0.309,4.115-0.924c1.232-0.615,2.24-1.457,3.024-2.52l0.462,2.729h6.678V13.398c0-1.428-0.42-2.478-1.26-3.149
		c-0.84-0.673-1.848-1.009-3.024-1.009c-1.176,0-2.177,0.336-3.003,1.009c-0.825,0.672-1.238,1.722-1.238,3.149V25.41
		c-0.028,0.674-0.154,1.24-0.378,1.701c-0.225,0.463-0.497,0.834-0.819,1.113c-0.322,0.281-0.679,0.484-1.071,0.609
		c-0.392,0.127-0.756,0.189-1.092,0.189c-0.364,0-0.742-0.063-1.134-0.189c-0.393-0.125-0.749-0.344-1.071-0.65
		c-0.322-0.309-0.588-0.701-0.798-1.176c-0.21-0.477-0.315-1.078-0.315-1.807V13.44c0-1.456-0.427-2.52-1.28-3.191
		c-0.854-0.673-1.869-1.009-3.045-1.009c-1.177,0-2.191,0.336-3.046,1.009c-0.854,0.672-1.28,1.735-1.28,3.191v11.256
		c0,2.211,0.252,4.061,0.756,5.543c0.504,1.484,1.183,2.668,2.037,3.551c0.854,0.881,1.861,1.504,3.023,1.867
		C384.259,36.023,385.512,36.205,386.856,36.205 M366.36,20.412v4.621c0,0.756-0.112,1.393-0.336,1.91
		c-0.225,0.52-0.512,0.945-0.861,1.281c-0.351,0.336-0.749,0.582-1.197,0.736c-0.448,0.152-0.896,0.23-1.344,0.23
		s-0.896-0.078-1.344-0.23c-0.448-0.154-0.848-0.4-1.197-0.736s-0.637-0.762-0.861-1.281c-0.224-0.518-0.336-1.154-0.336-1.91
		v-4.621c0-0.756,0.112-1.393,0.336-1.91c0.225-0.519,0.512-0.945,0.861-1.281s0.749-0.581,1.197-0.735
		c0.447-0.153,0.896-0.23,1.344-0.23s0.896,0.077,1.344,0.23c0.448,0.154,0.847,0.399,1.197,0.735
		c0.35,0.336,0.637,0.763,0.861,1.281C366.248,19.02,366.36,19.656,366.36,20.412 M350.442,20.791v3.863
		c0,2.27,0.37,4.145,1.112,5.629s1.701,2.674,2.877,3.57c1.177,0.896,2.485,1.525,3.928,1.889c1.441,0.365,2.862,0.547,4.263,0.547
		c1.399,0,2.821-0.182,4.263-0.547c1.442-0.363,2.751-0.992,3.927-1.889c1.177-0.896,2.136-2.086,2.878-3.57
		c0.741-1.484,1.112-3.359,1.112-5.629v-3.863c0-2.269-0.371-4.145-1.112-5.629c-0.742-1.483-1.701-2.674-2.878-3.569
		c-1.176-0.896-2.484-1.526-3.927-1.891c-1.441-0.363-2.863-0.546-4.263-0.546c-1.428,0-2.863,0.183-4.305,0.546
		c-1.442,0.364-2.751,0.994-3.928,1.891c-1.176,0.896-2.128,2.086-2.855,3.569C350.806,16.646,350.442,18.522,350.442,20.791
		 M336.289,17.263c0.028-0.364,0.238-0.679,0.63-0.945c0.392-0.266,0.924-0.398,1.596-0.398c0.336,0,0.714,0.027,1.135,0.084
		c0.42,0.056,0.833,0.14,1.238,0.252c0.406,0.111,0.791,0.23,1.155,0.356s0.672,0.273,0.924,0.441
		c0.196,0.14,0.469,0.259,0.819,0.356c0.35,0.099,0.665,0.147,0.945,0.147c0.756,0,1.428-0.154,2.016-0.462
		c0.588-0.309,1.008-0.868,1.26-1.68c0.28-0.952,0.168-1.842-0.336-2.667c-0.504-0.826-1.189-1.478-2.058-1.953
		c-0.729-0.42-1.694-0.784-2.898-1.093c-1.204-0.308-2.646-0.462-4.326-0.462c-1.063,0-2.1,0.099-3.107,0.294
		c-1.008,0.196-1.953,0.497-2.835,0.903s-1.666,0.931-2.353,1.575c-0.686,0.644-1.238,1.399-1.659,2.268
		c-0.447,0.98-0.728,2.03-0.84,3.15c-0.111,1.12,0.015,2.198,0.378,3.234c0.364,1.035,1.009,1.981,1.933,2.834
		s2.212,1.533,3.863,2.037c0.252,0.084,0.525,0.16,0.819,0.23s0.595,0.133,0.903,0.189c1.624,0.336,2.891,0.65,3.801,0.945
		c0.91,0.293,1.337,0.693,1.281,1.197c-0.057,0.391-0.302,0.727-0.735,1.008c-0.434,0.279-1.057,0.42-1.869,0.42
		c-0.812,0-1.638-0.084-2.478-0.252s-1.484-0.393-1.933-0.672c-0.363-0.225-0.741-0.449-1.134-0.672
		c-0.392-0.225-0.924-0.322-1.596-0.295c-0.561,0.029-1.071,0.141-1.533,0.336c-0.462,0.197-0.847,0.518-1.155,0.967
		c-0.588,0.896-0.749,1.799-0.482,2.709c0.266,0.91,0.763,1.672,1.491,2.289c0.531,0.447,1.147,0.818,1.848,1.113
		c0.7,0.293,1.428,0.523,2.184,0.691s1.52,0.287,2.289,0.357c0.771,0.07,1.52,0.105,2.247,0.105c1.456,0,2.835-0.146,4.137-0.441
		c1.303-0.293,2.457-0.734,3.466-1.322c1.008-0.588,1.826-1.338,2.457-2.248c0.63-0.91,1.028-1.98,1.196-3.213
		c0.309-2.547-0.126-4.598-1.302-6.152c-1.176-1.554-3.024-2.653-5.544-3.297c-0.252-0.056-0.511-0.111-0.777-0.168
		c-0.266-0.056-0.539-0.111-0.818-0.168c-1.568-0.279-2.682-0.546-3.339-0.798C336.534,18.145,336.233,17.767,336.289,17.263
		 M314.155,16.045c0.447,0,0.889,0.063,1.322,0.188c0.435,0.126,0.806,0.336,1.113,0.63c0.309,0.294,0.553,0.672,0.735,1.135
		c0.182,0.462,0.259,1.043,0.23,1.742h-7.098c0-0.699,0.112-1.28,0.336-1.742c0.224-0.463,0.504-0.841,0.84-1.135
		s0.722-0.504,1.155-0.63S313.679,16.045,314.155,16.045 M315.079,36.205c0.756,0,1.505-0.049,2.247-0.146s1.441-0.232,2.1-0.4
		s1.246-0.35,1.765-0.545c0.518-0.195,0.944-0.393,1.28-0.588c1.008-0.588,1.729-1.309,2.163-2.164
		c0.435-0.854,0.427-1.799-0.021-2.834c-0.28-0.645-0.722-1.092-1.323-1.344c-0.603-0.252-1.267-0.336-1.995-0.252
		c-0.364,0.055-0.707,0.146-1.029,0.271c-0.321,0.127-0.637,0.246-0.944,0.357c-0.561,0.197-1.12,0.336-1.681,0.42
		c-0.56,0.084-1.357,0.127-2.394,0.127c-0.504,0-1.036-0.063-1.596-0.189c-0.561-0.125-1.078-0.344-1.555-0.65
		c-0.476-0.309-0.868-0.701-1.176-1.176c-0.308-0.477-0.462-1.078-0.462-1.807v-0.043h15.036c0.056-0.363,0.104-0.797,0.146-1.301
		s0.063-0.938,0.063-1.303c0-2.772-0.329-5.033-0.987-6.783s-1.533-3.115-2.625-4.095c-1.092-0.98-2.331-1.646-3.717-1.995
		s-2.807-0.525-4.263-0.525c-1.345,0-2.724,0.189-4.138,0.567s-2.701,1.015-3.863,1.911c-1.162,0.896-2.114,2.086-2.856,3.569
		c-0.742,1.484-1.113,3.347-1.113,5.587v3.695c0,2.186,0.386,4.025,1.155,5.523c0.771,1.498,1.778,2.695,3.024,3.592
		s2.639,1.539,4.179,1.932S313.567,36.205,315.079,36.205 M281.522,17.095v-6.972c0-0.505,0.084-0.833,0.252-0.987
		s0.49-0.231,0.966-0.231h4.242c1.428,0,2.499,0.393,3.213,1.177c0.714,0.783,1.071,1.707,1.071,2.771v0.294
		c0,1.064-0.357,1.988-1.071,2.772c-0.714,0.783-1.785,1.176-3.213,1.176H281.522z M299.792,13.146v-0.504
		c0-1.876-0.315-3.5-0.945-4.872s-1.505-2.513-2.625-3.423c-1.12-0.91-2.45-1.582-3.99-2.016c-1.54-0.435-3.22-0.651-5.04-0.651
		h-7.728c-1.26,0-2.31,0.119-3.15,0.356c-0.84,0.238-1.512,0.623-2.016,1.155s-0.861,1.218-1.071,2.059
		c-0.21,0.84-0.315,1.861-0.315,3.065V35.49h8.61V24.193h5.376l6.3,11.297h9.493l-7.98-13.397c1.512-0.952,2.737-2.177,3.675-3.675
		C299.323,16.92,299.792,15.162,299.792,13.146 M235.574,35.49h8.526V20.244c0-0.699,0.105-1.295,0.315-1.784
		c0.21-0.49,0.483-0.89,0.819-1.197c0.336-0.309,0.7-0.525,1.092-0.651c0.392-0.126,0.77-0.188,1.134-0.188
		c0.364,0,0.742,0.063,1.134,0.188c0.392,0.126,0.749,0.343,1.071,0.651c0.322,0.308,0.588,0.707,0.798,1.197
		c0.21,0.489,0.315,1.085,0.315,1.784V35.49h8.652V20.749c0-2.213-0.252-4.061-0.756-5.545c-0.504-1.483-1.183-2.667-2.037-3.549
		s-1.862-1.505-3.024-1.869c-1.162-0.363-2.415-0.546-3.759-0.546c-1.12,0-2.219,0.196-3.297,0.588
		c-1.078,0.393-2.023,0.967-2.835,1.723c-0.364-0.756-0.903-1.33-1.617-1.723c-0.714-0.392-1.477-0.588-2.289-0.588
		c-0.56,0-1.092,0.092-1.596,0.273c-0.504,0.182-0.952,0.448-1.344,0.798s-0.707,0.784-0.945,1.302
		c-0.238,0.519-0.357,1.127-0.357,1.827V35.49z M224.528,20.412v4.621c0,0.756-0.112,1.393-0.336,1.91
		c-0.224,0.52-0.511,0.945-0.861,1.281s-0.749,0.582-1.197,0.736c-0.448,0.152-0.896,0.23-1.344,0.23
		c-0.448,0-0.896-0.078-1.344-0.23c-0.448-0.154-0.847-0.4-1.197-0.736s-0.637-0.762-0.861-1.281
		c-0.224-0.518-0.336-1.154-0.336-1.91v-4.621c0-0.756,0.112-1.393,0.336-1.91c0.224-0.519,0.511-0.945,0.861-1.281
		s0.749-0.581,1.197-0.735c0.448-0.153,0.896-0.23,1.344-0.23c0.448,0,0.896,0.077,1.344,0.23c0.448,0.154,0.847,0.399,1.197,0.735
		s0.637,0.763,0.861,1.281C224.416,19.02,224.528,19.656,224.528,20.412 M208.61,20.791v3.863c0,2.27,0.371,4.145,1.113,5.629
		c0.742,1.484,1.701,2.674,2.877,3.57c1.176,0.896,2.485,1.525,3.927,1.889c1.442,0.365,2.863,0.547,4.263,0.547
		s2.821-0.182,4.263-0.547c1.442-0.363,2.751-0.992,3.927-1.889s2.135-2.086,2.877-3.57c0.742-1.484,1.113-3.359,1.113-5.629v-3.863
		c0-2.269-0.371-4.145-1.113-5.629c-0.742-1.483-1.701-2.674-2.877-3.569c-1.176-0.896-2.485-1.526-3.927-1.891
		c-1.442-0.363-2.863-0.546-4.263-0.546c-1.428,0-2.863,0.183-4.305,0.546c-1.442,0.364-2.751,0.994-3.927,1.891
		c-1.176,0.896-2.128,2.086-2.856,3.569C208.974,16.646,208.61,18.522,208.61,20.791 M186.981,35.49h8.652V20.833
		c0-2.213-0.266-4.061-0.798-5.545c-0.532-1.483-1.246-2.674-2.142-3.569c-0.896-0.896-1.953-1.533-3.171-1.911
		c-1.218-0.378-2.513-0.567-3.885-0.567c-1.12,0-2.149,0.176-3.087,0.525s-1.771,0.847-2.499,1.491V4.2
		c0-0.699-0.119-1.309-0.357-1.826c-0.238-0.519-0.553-0.952-0.945-1.303c-0.392-0.35-0.84-0.615-1.344-0.798
		c-0.504-0.182-1.036-0.272-1.596-0.272s-1.099,0.091-1.617,0.272c-0.518,0.183-0.973,0.448-1.365,0.798
		c-0.392,0.351-0.707,0.784-0.945,1.303c-0.238,0.518-0.357,1.127-0.357,1.826v31.29h8.526V20.076
		c0.028-0.672,0.154-1.238,0.378-1.7c0.224-0.463,0.504-0.833,0.84-1.113s0.707-0.483,1.113-0.609
		c0.406-0.126,0.791-0.188,1.155-0.188c0.364,0,0.749,0.063,1.155,0.188c0.406,0.126,0.777,0.343,1.113,0.651
		c0.336,0.308,0.616,0.707,0.84,1.197c0.224,0.489,0.336,1.085,0.336,1.784V35.49z M156.028,24.613v-3.78
		c0-0.896,0.126-1.632,0.378-2.205c0.252-0.574,0.581-1.022,0.987-1.345c0.406-0.321,0.847-0.546,1.323-0.672
		c0.476-0.126,0.952-0.188,1.428-0.188c0.644,0,1.162,0.042,1.554,0.126c0.392,0.084,0.798,0.224,1.218,0.42
		c0.308,0.14,0.623,0.28,0.945,0.42c0.322,0.14,0.679,0.238,1.071,0.294c0.672,0.084,1.309,0.028,1.911-0.168
		c0.602-0.196,1.099-0.645,1.491-1.344c0.28-0.477,0.427-0.959,0.441-1.449s-0.07-0.973-0.252-1.449
		c-0.182-0.476-0.455-0.917-0.819-1.323c-0.364-0.405-0.798-0.763-1.302-1.07c-0.672-0.42-1.554-0.798-2.646-1.135
		c-1.092-0.336-2.394-0.504-3.906-0.504c-1.456,0-2.926,0.196-4.41,0.588c-1.484,0.393-2.821,1.036-4.011,1.933
		c-1.19,0.896-2.163,2.086-2.919,3.57c-0.756,1.483-1.134,3.331-1.134,5.544v3.695c0,2.27,0.378,4.145,1.134,5.629
		c0.756,1.484,1.743,2.674,2.961,3.57c1.218,0.896,2.59,1.525,4.116,1.889c1.526,0.365,3.045,0.547,4.557,0.547
		c1.428,0,2.716-0.189,3.864-0.566c1.148-0.379,2.114-0.805,2.898-1.281c0.504-0.309,0.938-0.672,1.302-1.092
		c0.364-0.42,0.637-0.875,0.819-1.365c0.182-0.49,0.252-0.994,0.21-1.512c-0.042-0.52-0.203-1.016-0.483-1.492
		c-0.364-0.588-0.833-0.994-1.407-1.217c-0.574-0.225-1.169-0.281-1.785-0.168c-0.392,0.055-0.756,0.174-1.092,0.355
		c-0.336,0.184-0.658,0.344-0.966,0.484c-0.56,0.252-1.085,0.426-1.575,0.525c-0.49,0.098-1.085,0.146-1.785,0.146
		c-0.476,0-0.959-0.063-1.449-0.189c-0.49-0.125-0.931-0.35-1.323-0.672s-0.714-0.77-0.966-1.344
		C156.154,26.244,156.028,25.509,156.028,24.613 M128.854,35.49h8.526V20.707c0.056-1.064,0.413-1.904,1.071-2.521
		c0.658-0.616,1.575-0.966,2.751-1.05c0.308-0.028,0.63-0.035,0.966-0.021c0.336,0.015,0.658,0.021,0.966,0.021
		c0.924,0,1.729-0.294,2.415-0.882s1.099-1.372,1.239-2.353c0.14-0.979,0.007-1.861-0.399-2.646
		c-0.406-0.784-1.015-1.345-1.827-1.681c-0.308-0.14-0.637-0.23-0.987-0.272c-0.35-0.042-0.679-0.063-0.987-0.063
		c-1.036,0-2.03,0.21-2.982,0.63c-0.952,0.421-1.82,0.994-2.604,1.723c-0.364-0.784-0.903-1.372-1.617-1.765
		c-0.714-0.392-1.477-0.588-2.289-0.588c-0.56,0-1.092,0.092-1.596,0.273s-0.952,0.448-1.344,0.798
		c-0.392,0.35-0.707,0.784-0.945,1.302c-0.238,0.519-0.357,1.127-0.357,1.827V35.49z M117.766,25.537v1.512
		c0,0.447-0.105,0.84-0.315,1.176s-0.476,0.617-0.798,0.84c-0.322,0.225-0.679,0.393-1.071,0.504
		c-0.392,0.113-0.784,0.168-1.176,0.168h-0.588c-0.728,0-1.302-0.168-1.722-0.504c-0.42-0.336-0.63-0.854-0.63-1.553
		c0-0.672,0.21-1.197,0.63-1.576c0.42-0.377,1.036-0.566,1.848-0.566H117.766z M119.404,35.49h6.636V20.454
		c0-2.268-0.315-4.13-0.945-5.586c-0.63-1.456-1.47-2.597-2.52-3.423c-1.05-0.826-2.268-1.399-3.654-1.722
		c-1.386-0.322-2.835-0.483-4.347-0.483c-0.728,0-1.477,0.042-2.247,0.126s-1.533,0.218-2.289,0.399s-1.484,0.413-2.184,0.693
		c-0.7,0.279-1.33,0.63-1.89,1.05c-0.728,0.56-1.232,1.239-1.512,2.037c-0.28,0.798-0.224,1.616,0.168,2.457
		c0.196,0.42,0.469,0.77,0.819,1.05s0.735,0.482,1.155,0.608c0.42,0.126,0.847,0.183,1.281,0.168
		c0.434-0.014,0.847-0.118,1.239-0.314c0.392-0.168,0.735-0.322,1.029-0.462c0.294-0.141,0.609-0.267,0.945-0.378
		c0.504-0.141,0.98-0.252,1.428-0.336c0.448-0.084,0.91-0.126,1.386-0.126c0.504,0,0.987,0.049,1.449,0.146
		c0.462,0.099,0.868,0.267,1.218,0.504c0.35,0.238,0.63,0.561,0.84,0.966c0.21,0.406,0.329,0.917,0.357,1.533h-4.326
		c-1.372,0-2.681,0.141-3.927,0.42c-1.246,0.28-2.338,0.742-3.276,1.387c-0.938,0.644-1.687,1.499-2.247,2.561
		c-0.56,1.064-0.84,2.395-0.84,3.99c0,1.652,0.287,3.023,0.861,4.117c0.574,1.092,1.288,1.959,2.142,2.604s1.785,1.1,2.793,1.365
		c1.008,0.266,1.946,0.398,2.814,0.398h0.924c1.26,0,2.436-0.225,3.528-0.672c1.092-0.447,2.044-1.051,2.856-1.807L119.404,35.49z
		 M89.543,16.045c0.448,0,0.889,0.063,1.323,0.188c0.434,0.126,0.805,0.336,1.113,0.63s0.553,0.672,0.735,1.135
		c0.182,0.462,0.259,1.043,0.231,1.742h-7.098c0-0.699,0.112-1.28,0.336-1.742c0.224-0.463,0.504-0.841,0.84-1.135
		s0.721-0.504,1.155-0.63C88.612,16.107,89.067,16.045,89.543,16.045 M90.467,36.205c0.756,0,1.505-0.049,2.247-0.146
		c0.742-0.098,1.442-0.232,2.1-0.4s1.246-0.35,1.764-0.545s0.945-0.393,1.281-0.588c1.008-0.588,1.729-1.309,2.163-2.164
		c0.434-0.854,0.427-1.799-0.021-2.834c-0.28-0.645-0.721-1.092-1.323-1.344c-0.602-0.252-1.267-0.336-1.995-0.252
		c-0.364,0.055-0.707,0.146-1.029,0.271c-0.322,0.127-0.637,0.246-0.945,0.357c-0.56,0.197-1.12,0.336-1.68,0.42
		s-1.358,0.127-2.394,0.127c-0.504,0-1.036-0.063-1.596-0.189c-0.56-0.125-1.078-0.344-1.554-0.65
		c-0.476-0.309-0.868-0.701-1.176-1.176c-0.308-0.477-0.462-1.078-0.462-1.807v-0.043h15.036c0.056-0.363,0.105-0.797,0.147-1.301
		s0.063-0.938,0.063-1.303c0-2.772-0.329-5.033-0.987-6.783c-0.658-1.75-1.533-3.115-2.625-4.095
		c-1.092-0.98-2.331-1.646-3.717-1.995c-1.386-0.35-2.807-0.525-4.263-0.525c-1.344,0-2.723,0.189-4.137,0.567
		c-1.414,0.378-2.702,1.015-3.864,1.911c-1.162,0.896-2.114,2.086-2.856,3.569c-0.742,1.484-1.113,3.347-1.113,5.587v3.695
		c0,2.186,0.385,4.025,1.155,5.523s1.778,2.695,3.024,3.592s2.639,1.539,4.179,1.932S88.955,36.205,90.467,36.205 M63.377,17.263
		c0.028-0.364,0.238-0.679,0.63-0.945c0.392-0.266,0.924-0.398,1.596-0.398c0.336,0,0.714,0.027,1.134,0.084
		c0.42,0.056,0.833,0.14,1.239,0.252c0.406,0.111,0.791,0.23,1.155,0.356c0.364,0.126,0.672,0.273,0.924,0.441
		c0.196,0.14,0.469,0.259,0.819,0.356c0.35,0.099,0.665,0.147,0.945,0.147c0.756,0,1.428-0.154,2.016-0.462
		c0.588-0.309,1.008-0.868,1.26-1.68c0.28-0.952,0.168-1.842-0.336-2.667c-0.504-0.826-1.19-1.478-2.058-1.953
		c-0.728-0.42-1.694-0.784-2.898-1.093c-1.204-0.308-2.646-0.462-4.326-0.462c-1.064,0-2.1,0.099-3.108,0.294
		c-1.008,0.196-1.953,0.497-2.835,0.903c-0.882,0.406-1.666,0.931-2.352,1.575c-0.686,0.644-1.239,1.399-1.659,2.268
		c-0.448,0.98-0.728,2.03-0.84,3.15c-0.112,1.12,0.014,2.198,0.378,3.234c0.364,1.035,1.008,1.981,1.932,2.834
		c0.924,0.854,2.212,1.533,3.864,2.037c0.252,0.084,0.525,0.16,0.819,0.23c0.294,0.07,0.595,0.133,0.903,0.189
		c1.624,0.336,2.891,0.65,3.801,0.945c0.91,0.293,1.337,0.693,1.281,1.197c-0.056,0.391-0.301,0.727-0.735,1.008
		c-0.434,0.279-1.057,0.42-1.869,0.42s-1.638-0.084-2.478-0.252c-0.84-0.168-1.484-0.393-1.932-0.672
		c-0.364-0.225-0.742-0.449-1.134-0.672c-0.392-0.225-0.924-0.322-1.596-0.295c-0.56,0.029-1.071,0.141-1.533,0.336
		c-0.462,0.197-0.847,0.518-1.155,0.967c-0.588,0.896-0.749,1.799-0.483,2.709s0.763,1.672,1.491,2.289
		c0.532,0.447,1.148,0.818,1.848,1.113c0.7,0.293,1.428,0.523,2.184,0.691s1.519,0.287,2.289,0.357s1.519,0.105,2.247,0.105
		c1.456,0,2.835-0.146,4.137-0.441c1.302-0.293,2.457-0.734,3.465-1.322c1.008-0.588,1.827-1.338,2.457-2.248
		c0.63-0.91,1.029-1.98,1.197-3.213c0.308-2.547-0.126-4.598-1.302-6.152c-1.176-1.554-3.024-2.653-5.544-3.297
		c-0.252-0.056-0.511-0.111-0.777-0.168c-0.266-0.056-0.539-0.111-0.819-0.168c-1.568-0.279-2.681-0.546-3.339-0.798
		C63.622,18.145,63.321,17.767,63.377,17.263 M41.244,16.045c0.448,0,0.889,0.063,1.323,0.188s0.805,0.336,1.113,0.63
		c0.308,0.294,0.553,0.672,0.735,1.135c0.182,0.462,0.259,1.043,0.231,1.742h-7.098c0-0.699,0.112-1.28,0.336-1.742
		c0.224-0.463,0.504-0.841,0.84-1.135s0.721-0.504,1.155-0.63S40.768,16.045,41.244,16.045 M42.168,36.205
		c0.756,0,1.505-0.049,2.247-0.146s1.442-0.232,2.1-0.4c0.658-0.168,1.246-0.35,1.764-0.545c0.518-0.195,0.945-0.393,1.281-0.588
		c1.008-0.588,1.729-1.309,2.163-2.164c0.434-0.854,0.427-1.799-0.021-2.834c-0.28-0.645-0.721-1.092-1.323-1.344
		s-1.267-0.336-1.995-0.252c-0.364,0.055-0.707,0.146-1.029,0.271c-0.322,0.127-0.637,0.246-0.945,0.357
		c-0.56,0.197-1.12,0.336-1.68,0.42s-1.358,0.127-2.394,0.127c-0.504,0-1.036-0.063-1.596-0.189c-0.56-0.125-1.078-0.344-1.554-0.65
		c-0.476-0.309-0.868-0.701-1.176-1.176c-0.308-0.477-0.462-1.078-0.462-1.807v-0.043h15.036c0.056-0.363,0.105-0.797,0.147-1.301
		s0.063-0.938,0.063-1.303c0-2.772-0.329-5.033-0.987-6.783c-0.658-1.75-1.533-3.115-2.625-4.095
		c-1.092-0.98-2.331-1.646-3.717-1.995c-1.386-0.35-2.807-0.525-4.263-0.525c-1.344,0-2.723,0.189-4.137,0.567
		s-2.702,1.015-3.864,1.911c-1.162,0.896-2.114,2.086-2.856,3.569c-0.742,1.484-1.113,3.347-1.113,5.587v3.695
		c0,2.186,0.385,4.025,1.155,5.523s1.778,2.695,3.024,3.592s2.639,1.539,4.179,1.932S40.656,36.205,42.168,36.205 M8.61,17.095
		v-6.972c0-0.505,0.084-0.833,0.252-0.987s0.49-0.231,0.966-0.231h4.242c1.428,0,2.499,0.393,3.213,1.177
		c0.714,0.783,1.071,1.707,1.071,2.771v0.294c0,1.064-0.357,1.988-1.071,2.772c-0.714,0.783-1.785,1.176-3.213,1.176H8.61z
		 M26.88,13.146v-0.504c0-1.876-0.315-3.5-0.945-4.872S24.43,5.258,23.31,4.348s-2.45-1.582-3.99-2.016
		c-1.54-0.435-3.22-0.651-5.04-0.651H6.552c-1.26,0-2.31,0.119-3.15,0.356C2.562,2.275,1.89,2.66,1.386,3.192
		C0.882,3.725,0.525,4.41,0.315,5.251C0.105,6.091,0,7.112,0,8.316V35.49h8.61V24.193h5.376l6.3,11.297h9.492l-7.98-13.397
		c1.512-0.952,2.737-2.177,3.675-3.675S26.88,15.162,26.88,13.146"/>
</g>
</svg>
