<?xml version="1.0" encoding="utf-8"?>
<!-- Generator: Adobe Illustrator 16.0.0, SVG Export Plug-In . SVG Version: 6.00 Build 0)  -->
<!DOCTYPE svg PUBLIC "-//W3C//DTD SVG 1.1//EN" "http://www.w3.org/Graphics/SVG/1.1/DTD/svg11.dtd">
<svg version="1.1" id="레이어_1" xmlns="http://www.w3.org/2000/svg" xmlns:xlink="http://www.w3.org/1999/xlink" x="0px"
	 y="0px" width="476.462px" height="47.243px" viewBox="0 0 476.462 47.243" enable-background="new 0 0 476.462 47.243"
	 xml:space="preserve">
<g>
	<defs>
		<rect id="SVGID_1_" width="476.462" height="47.243"/>
	</defs>
	<clipPath id="SVGID_2_">
		<use xlink:href="#SVGID_1_"  overflow="visible"/>
	</clipPath>
	<path clip-path="url(#SVGID_2_)" fill="#E37476" d="M460.592,18.63v11.591c0,1.748,0.215,3.221,0.645,4.416
		c0.43,1.197,1.058,2.162,1.886,2.898s1.84,1.273,3.036,1.611c1.195,0.336,2.561,0.506,4.094,0.506c0.798,0,1.595-0.123,2.392-0.369
		c0.799-0.244,1.457-0.537,1.979-0.873c0.644-0.43,1.143-1.012,1.495-1.748s0.422-1.58,0.207-2.531
		c-0.153-0.766-0.521-1.379-1.104-1.84c-0.582-0.459-1.257-0.689-2.023-0.689c-0.46,0-0.828,0.037-1.104,0.115
		c-0.275,0.076-0.582,0.1-0.92,0.068c-0.397-0.031-0.743-0.152-1.035-0.367c-0.291-0.215-0.437-0.676-0.437-1.381V18.63h2.714
		c1.442,0,2.477-0.383,3.104-1.149c0.63-0.768,0.943-1.642,0.943-2.622c0-0.46-0.076-0.92-0.229-1.38s-0.392-0.874-0.714-1.242
		c-0.321-0.368-0.735-0.667-1.241-0.897c-0.506-0.229-1.127-0.345-1.863-0.345H469.7V6.21c0-0.767-0.13-1.44-0.392-2.023
		c-0.26-0.583-0.604-1.059-1.034-1.427c-0.43-0.367-0.912-0.644-1.449-0.828c-0.536-0.184-1.097-0.275-1.679-0.275
		s-1.143,0.092-1.68,0.275c-0.536,0.185-1.019,0.461-1.449,0.828c-0.429,0.368-0.773,0.844-1.034,1.427s-0.392,1.257-0.392,2.023
		v4.784h-1.518c-0.736,0-1.364,0.115-1.887,0.345c-0.521,0.23-0.942,0.529-1.265,0.897s-0.552,0.782-0.689,1.242
		c-0.139,0.46-0.207,0.92-0.207,1.38c0,0.98,0.314,1.854,0.942,2.622c0.629,0.767,1.664,1.149,3.105,1.149H460.592z M439.157,26.956
		v-4.139c0-0.981,0.138-1.786,0.414-2.415c0.275-0.629,0.636-1.119,1.081-1.473c0.444-0.353,0.928-0.598,1.448-0.735
		c0.521-0.139,1.043-0.207,1.564-0.207c0.705,0,1.272,0.046,1.702,0.138c0.429,0.092,0.874,0.245,1.334,0.46
		c0.337,0.153,0.682,0.307,1.035,0.46c0.353,0.153,0.744,0.261,1.173,0.322c0.735,0.092,1.434,0.031,2.093-0.185
		c0.659-0.215,1.204-0.704,1.633-1.472c0.308-0.521,0.468-1.05,0.483-1.587c0.015-0.537-0.077-1.066-0.276-1.587
		c-0.199-0.521-0.498-1.004-0.896-1.449c-0.399-0.444-0.874-0.836-1.427-1.173c-0.735-0.46-1.701-0.874-2.897-1.242
		s-2.622-0.552-4.278-0.552c-1.595,0-3.205,0.215-4.83,0.644c-1.625,0.43-3.09,1.136-4.393,2.116
		c-1.303,0.981-2.369,2.285-3.197,3.91s-1.242,3.649-1.242,6.072v4.048c0,2.484,0.414,4.539,1.242,6.164s1.909,2.928,3.243,3.91
		c1.334,0.98,2.837,1.67,4.508,2.068c1.671,0.4,3.335,0.6,4.991,0.6c1.563,0,2.975-0.207,4.232-0.621
		c1.257-0.414,2.314-0.883,3.174-1.404c0.552-0.336,1.026-0.736,1.426-1.195c0.399-0.461,0.698-0.959,0.896-1.494
		c0.199-0.537,0.276-1.09,0.23-1.656c-0.046-0.568-0.222-1.113-0.529-1.633c-0.398-0.645-0.912-1.09-1.541-1.334
		c-0.629-0.246-1.279-0.309-1.955-0.186c-0.429,0.063-0.827,0.193-1.195,0.393c-0.368,0.197-0.722,0.375-1.059,0.527
		c-0.612,0.277-1.188,0.469-1.725,0.576s-1.188,0.16-1.955,0.16c-0.521,0-1.05-0.068-1.587-0.207
		c-0.537-0.137-1.021-0.383-1.449-0.736c-0.429-0.352-0.782-0.842-1.058-1.471C439.295,28.743,439.157,27.938,439.157,26.956
		 M413.259,17.572c0.491,0,0.975,0.068,1.449,0.207c0.476,0.138,0.882,0.368,1.219,0.689c0.338,0.322,0.606,0.736,0.806,1.242
		s0.283,1.143,0.253,1.909h-7.774c0-0.767,0.123-1.403,0.368-1.909c0.246-0.506,0.552-0.92,0.92-1.242
		c0.368-0.321,0.79-0.552,1.265-0.689C412.24,17.641,412.738,17.572,413.259,17.572 M414.271,39.653
		c0.827,0,1.648-0.055,2.461-0.162s1.58-0.252,2.3-0.438c0.721-0.184,1.365-0.383,1.932-0.598c0.568-0.215,1.035-0.428,1.403-0.643
		c1.104-0.645,1.894-1.436,2.369-2.369c0.476-0.936,0.468-1.971-0.023-3.105c-0.306-0.705-0.789-1.197-1.449-1.473
		c-0.658-0.275-1.387-0.367-2.185-0.275c-0.398,0.061-0.774,0.16-1.127,0.299s-0.697,0.268-1.035,0.391
		c-0.613,0.215-1.226,0.369-1.84,0.461c-0.613,0.092-1.487,0.137-2.622,0.137c-0.552,0-1.134-0.068-1.748-0.207
		c-0.613-0.137-1.18-0.375-1.702-0.713c-0.521-0.336-0.95-0.766-1.288-1.287c-0.337-0.521-0.506-1.182-0.506-1.979v-0.045h16.468
		c0.063-0.4,0.115-0.875,0.161-1.428c0.046-0.551,0.069-1.025,0.069-1.426c0-3.036-0.36-5.511-1.081-7.428
		c-0.72-1.917-1.679-3.412-2.875-4.485s-2.553-1.802-4.071-2.185c-1.518-0.383-3.074-0.575-4.669-0.575
		c-1.472,0-2.981,0.207-4.531,0.621c-1.548,0.414-2.959,1.112-4.231,2.093c-1.272,0.981-2.315,2.285-3.128,3.91
		s-1.22,3.665-1.22,6.118v4.048c0,2.391,0.423,4.408,1.266,6.049c0.844,1.641,1.948,2.951,3.312,3.932
		c1.365,0.982,2.892,1.688,4.577,2.117C410.944,39.438,412.615,39.653,414.271,39.653 M395.688,37.719V15.042
		c0-0.797-0.122-1.487-0.368-2.07c-0.245-0.583-0.582-1.058-1.013-1.426c-0.429-0.368-0.927-0.644-1.494-0.828
		c-0.567-0.184-1.157-0.275-1.771-0.275c-0.614,0-1.204,0.092-1.771,0.275c-0.568,0.185-1.066,0.46-1.495,0.828
		c-0.431,0.368-0.768,0.843-1.014,1.426c-0.245,0.583-0.366,1.273-0.366,2.07v22.677c0,0.676-0.139,1.15-0.414,1.428
		c-0.276,0.275-0.568,0.443-0.874,0.506c-0.093,0.029-0.224,0.053-0.393,0.068c-0.168,0.016-0.298,0.023-0.39,0.023
		c-0.646,0-1.25,0.26-1.818,0.781c-0.566,0.521-0.927,1.182-1.081,1.979c-0.152,0.951-0.068,1.762,0.254,2.438
		s0.789,1.195,1.402,1.564c0.552,0.336,1.066,0.543,1.542,0.621c0.475,0.076,1.019,0.115,1.633,0.115
		c2.944,0,5.251-0.82,6.923-2.461C394.852,43.139,395.688,40.788,395.688,37.719 M386.258,4.232c0,0.767,0.13,1.418,0.391,1.955
		c0.261,0.536,0.605,0.974,1.035,1.311s0.936,0.583,1.519,0.736c0.582,0.152,1.195,0.229,1.84,0.229c0.643,0,1.257-0.077,1.84-0.229
		c0.582-0.153,1.088-0.399,1.519-0.736c0.429-0.337,0.773-0.774,1.034-1.311c0.261-0.537,0.392-1.188,0.392-1.955
		c0-1.503-0.477-2.584-1.426-3.243C393.449,0.33,392.329,0,391.042,0c-1.288,0-2.408,0.33-3.358,0.989S386.258,2.729,386.258,4.232
		 M372.734,22.356v5.06c0,0.828-0.123,1.525-0.368,2.092c-0.245,0.568-0.561,1.035-0.943,1.404c-0.383,0.367-0.82,0.635-1.311,0.805
		c-0.491,0.168-0.981,0.252-1.473,0.252c-0.49,0-0.98-0.084-1.472-0.252c-0.491-0.17-0.928-0.438-1.311-0.805
		c-0.384-0.369-0.698-0.836-0.943-1.404c-0.245-0.566-0.368-1.264-0.368-2.092v-5.06c0-0.828,0.123-1.526,0.368-2.094
		c0.245-0.566,0.56-1.034,0.943-1.402c0.383-0.368,0.819-0.637,1.311-0.806s0.981-0.253,1.472-0.253
		c0.491,0,0.981,0.084,1.473,0.253c0.49,0.169,0.928,0.438,1.311,0.806s0.698,0.836,0.943,1.402
		C372.611,20.83,372.734,21.528,372.734,22.356 M355.3,22.771v4.232c0,2.484,0.406,4.539,1.219,6.164
		c0.813,1.625,1.863,2.928,3.151,3.91c1.288,0.98,2.722,1.67,4.301,2.07c1.579,0.398,3.137,0.598,4.669,0.598
		c1.533,0,3.091-0.199,4.669-0.598c1.579-0.4,3.014-1.09,4.302-2.07c1.288-0.982,2.338-2.285,3.15-3.91
		c0.813-1.625,1.22-3.68,1.22-6.164v-4.232c0-2.484-0.406-4.539-1.22-6.164c-0.813-1.625-1.862-2.93-3.15-3.91
		c-1.288-0.981-2.723-1.671-4.302-2.07c-1.578-0.398-3.136-0.598-4.669-0.598c-1.563,0-3.136,0.199-4.715,0.598
		c-1.579,0.399-3.013,1.089-4.301,2.07c-1.288,0.98-2.331,2.285-3.128,3.91S355.3,20.286,355.3,22.771 M333.635,38.87h9.338V22.678
		c0.062-1.165,0.452-2.085,1.174-2.76c0.72-0.675,1.725-1.058,3.013-1.149c0.337-0.031,0.689-0.038,1.058-0.023
		s0.721,0.023,1.059,0.023c1.012,0,1.893-0.322,2.645-0.967c0.751-0.644,1.203-1.503,1.357-2.575
		c0.152-1.073,0.007-2.039-0.438-2.898c-0.445-0.859-1.112-1.472-2.001-1.84c-0.338-0.153-0.698-0.253-1.081-0.299
		c-0.384-0.046-0.744-0.069-1.081-0.069c-1.135,0-2.224,0.229-3.266,0.69c-1.043,0.46-1.994,1.089-2.853,1.886
		c-0.398-0.859-0.988-1.503-1.771-1.933c-0.782-0.429-1.618-0.644-2.507-0.644c-0.614,0-1.196,0.1-1.748,0.299
		s-1.043,0.491-1.473,0.874s-0.774,0.859-1.034,1.426c-0.262,0.567-0.392,1.234-0.392,2.001V38.87z M310.451,19.918v-8.74
		c0-0.552,0.092-0.912,0.275-1.081c0.185-0.169,0.537-0.253,1.059-0.253h3.91c0.767,0,1.448,0.13,2.047,0.392
		c0.598,0.261,1.104,0.621,1.518,1.081s0.729,0.98,0.943,1.563s0.322,1.196,0.322,1.84v0.322c0,0.645-0.107,1.257-0.322,1.84
		s-0.529,1.104-0.943,1.564s-0.92,0.819-1.518,1.081c-0.599,0.261-1.28,0.391-2.047,0.391H310.451z M310.451,27.922h5.704
		c1.993,0,3.833-0.254,5.52-0.76c1.688-0.506,3.144-1.273,4.37-2.299c1.228-1.028,2.186-2.338,2.875-3.934
		c0.69-1.595,1.035-3.48,1.035-5.657V14.49c0-2.177-0.345-4.063-1.035-5.658c-0.689-1.595-1.647-2.906-2.875-3.933
		c-1.227-1.027-2.683-1.794-4.37-2.301c-1.687-0.506-3.526-0.759-5.52-0.759h-8.004c-1.38,0-2.53,0.13-3.45,0.392
		c-0.92,0.261-1.656,0.682-2.208,1.265S301.55,4.83,301.32,5.75c-0.23,0.92-0.346,2.039-0.346,3.358V38.87h9.477V27.922z
		 M257.965,4.6v34.27h9.2v-7.176l2.76-2.668l5.979,9.844h10.396l-10.166-15.778l6.072-5.842c0.43-0.398,0.736-0.889,0.92-1.472
		s0.253-1.173,0.207-1.771c-0.046-0.598-0.207-1.173-0.482-1.725c-0.276-0.552-0.66-1.012-1.15-1.38s-1.027-0.621-1.61-0.759
		c-0.582-0.139-1.157-0.17-1.725-0.093s-1.119,0.253-1.656,0.529c-0.536,0.276-1.004,0.629-1.403,1.058l-8.142,8.971V4.6
		c0-1.532-0.46-2.683-1.38-3.449c-0.92-0.768-1.979-1.15-3.174-1.15c-0.613,0-1.196,0.1-1.748,0.299
		c-0.553,0.199-1.043,0.491-1.473,0.874c-0.429,0.383-0.773,0.859-1.035,1.426C258.096,3.166,257.965,3.833,257.965,4.6
		 M235.84,38.87h9.338V22.678c0.061-1.165,0.452-2.085,1.174-2.76c0.719-0.675,1.725-1.058,3.012-1.149
		c0.338-0.031,0.691-0.038,1.059-0.023c0.368,0.015,0.721,0.023,1.059,0.023c1.012,0,1.893-0.322,2.645-0.967
		c0.751-0.644,1.203-1.503,1.357-2.575c0.152-1.073,0.006-2.039-0.438-2.898c-0.445-0.859-1.111-1.472-2.001-1.84
		c-0.338-0.153-0.698-0.253-1.081-0.299c-0.384-0.046-0.744-0.069-1.081-0.069c-1.135,0-2.224,0.229-3.266,0.69
		c-1.043,0.46-1.994,1.089-2.853,1.886c-0.398-0.859-0.988-1.503-1.771-1.933c-0.782-0.429-1.618-0.644-2.507-0.644
		c-0.614,0-1.196,0.1-1.749,0.299c-0.552,0.199-1.043,0.491-1.472,0.874c-0.43,0.383-0.775,0.859-1.035,1.426
		c-0.261,0.567-0.391,1.234-0.391,2.001V38.87z M222.316,27.967v1.656c0,0.492-0.115,0.92-0.345,1.289
		c-0.23,0.367-0.521,0.674-0.874,0.92c-0.353,0.244-0.744,0.428-1.173,0.551c-0.429,0.123-0.859,0.186-1.288,0.186h-0.644
		c-0.797,0-1.426-0.186-1.886-0.553s-0.69-0.936-0.69-1.701c0-0.736,0.23-1.313,0.69-1.727s1.135-0.621,2.024-0.621H222.316z
		 M224.11,38.87h7.268V22.402c0-2.484-0.345-4.523-1.035-6.118c-0.69-1.595-1.61-2.844-2.76-3.749s-2.484-1.533-4.002-1.886
		c-1.518-0.354-3.105-0.529-4.761-0.529c-0.797,0-1.618,0.046-2.461,0.138c-0.843,0.092-1.679,0.238-2.507,0.438
		s-1.625,0.452-2.392,0.759s-1.457,0.69-2.07,1.15c-0.797,0.612-1.349,1.356-1.656,2.23s-0.245,1.771,0.184,2.691
		c0.215,0.46,0.514,0.843,0.897,1.149c0.383,0.308,0.805,0.529,1.265,0.667c0.46,0.139,0.928,0.199,1.403,0.185
		c0.475-0.016,0.928-0.13,1.357-0.346c0.429-0.184,0.805-0.353,1.127-0.506c0.322-0.152,0.667-0.291,1.035-0.414
		c0.552-0.152,1.073-0.275,1.564-0.367c0.491-0.093,0.997-0.139,1.518-0.139c0.552,0,1.081,0.055,1.587,0.161
		c0.506,0.107,0.951,0.291,1.334,0.552c0.383,0.262,0.69,0.613,0.92,1.059c0.23,0.444,0.36,1.004,0.391,1.679h-4.738
		c-1.503,0-2.936,0.153-4.301,0.46c-1.365,0.307-2.561,0.813-3.588,1.519c-1.027,0.704-1.848,1.64-2.461,2.806
		c-0.613,1.164-0.92,2.621-0.92,4.369c0,1.809,0.314,3.313,0.943,4.508c0.629,1.197,1.411,2.146,2.346,2.852
		s1.955,1.205,3.059,1.496c1.104,0.291,2.131,0.438,3.082,0.438h1.012c1.38,0,2.668-0.246,3.864-0.736
		c1.196-0.492,2.239-1.15,3.128-1.979L224.11,38.87z M184.09,19.918v-8.74c0-0.552,0.092-0.912,0.276-1.081
		c0.184-0.169,0.537-0.253,1.058-0.253h3.91c0.767,0,1.449,0.13,2.047,0.392c0.598,0.261,1.104,0.621,1.518,1.081
		s0.728,0.98,0.943,1.563c0.215,0.583,0.322,1.196,0.322,1.84v0.322c0,0.645-0.107,1.257-0.322,1.84
		c-0.215,0.583-0.529,1.104-0.943,1.564s-0.92,0.819-1.518,1.081c-0.598,0.261-1.28,0.391-2.047,0.391H184.09z M184.09,27.922h5.704
		c1.993,0,3.833-0.254,5.52-0.76s3.143-1.273,4.37-2.299c1.227-1.028,2.185-2.338,2.875-3.934c0.69-1.595,1.035-3.48,1.035-5.657
		V14.49c0-2.177-0.345-4.063-1.035-5.658s-1.648-2.906-2.875-3.933c-1.227-1.027-2.683-1.794-4.37-2.301
		c-1.687-0.506-3.527-0.759-5.52-0.759h-8.004c-1.38,0-2.53,0.13-3.45,0.392c-0.92,0.261-1.656,0.682-2.208,1.265
		c-0.552,0.583-0.943,1.334-1.173,2.254s-0.345,2.039-0.345,3.358V38.87h9.476V27.922z M115.09,38.87h9.338V21.942
		c0.031-0.736,0.161-1.357,0.391-1.863s0.514-0.912,0.851-1.219c0.338-0.308,0.713-0.529,1.127-0.667
		c0.414-0.139,0.805-0.207,1.173-0.207c0.368,0,0.759,0.068,1.173,0.207c0.414,0.138,0.798,0.376,1.15,0.713
		c0.353,0.337,0.637,0.773,0.851,1.311c0.215,0.537,0.322,1.188,0.322,1.955V38.87h9.108V22.172c0-0.767,0.115-1.418,0.345-1.955
		s0.514-0.974,0.851-1.311c0.338-0.337,0.721-0.575,1.15-0.713c0.43-0.139,0.828-0.207,1.196-0.207c0.368,0,0.759,0.068,1.173,0.207
		c0.414,0.138,0.798,0.376,1.15,0.713c0.353,0.337,0.637,0.773,0.851,1.311c0.215,0.537,0.322,1.188,0.322,1.955V38.87h9.476V22.724
		c0-2.392-0.299-4.4-0.897-6.025s-1.395-2.921-2.392-3.887c-0.996-0.967-2.154-1.656-3.473-2.07
		c-1.318-0.414-2.714-0.621-4.186-0.621c-1.87,0-3.48,0.291-4.83,0.874c-1.349,0.583-2.499,1.365-3.45,2.346
		c-0.981-1.165-2.116-1.993-3.404-2.483c-1.288-0.491-2.637-0.736-4.048-0.736c-2.514,0-4.661,0.843-6.44,2.53
		c-0.368-0.828-0.943-1.457-1.725-1.887c-0.782-0.429-1.617-0.644-2.507-0.644c-0.613,0-1.196,0.1-1.748,0.299
		c-0.552,0.199-1.042,0.491-1.472,0.874c-0.429,0.383-0.774,0.859-1.035,1.426c-0.26,0.567-0.391,1.234-0.391,2.001V38.87z
		 M101.567,27.967v1.656c0,0.492-0.115,0.92-0.345,1.289c-0.23,0.367-0.522,0.674-0.874,0.92c-0.353,0.244-0.744,0.428-1.173,0.551
		c-0.43,0.123-0.859,0.186-1.288,0.186h-0.644c-0.798,0-1.426-0.186-1.886-0.553s-0.69-0.936-0.69-1.701
		c0-0.736,0.23-1.313,0.69-1.727s1.134-0.621,2.024-0.621H101.567z M103.361,38.87h7.268V22.402c0-2.484-0.345-4.523-1.035-6.118
		c-0.69-1.595-1.61-2.844-2.76-3.749s-2.484-1.533-4.002-1.886c-1.518-0.354-3.105-0.529-4.761-0.529
		c-0.798,0-1.618,0.046-2.461,0.138c-0.844,0.092-1.679,0.238-2.507,0.438s-1.626,0.452-2.392,0.759
		c-0.767,0.307-1.457,0.69-2.07,1.15c-0.798,0.612-1.35,1.356-1.656,2.23c-0.307,0.874-0.246,1.771,0.184,2.691
		c0.214,0.46,0.513,0.843,0.897,1.149c0.383,0.308,0.805,0.529,1.265,0.667c0.46,0.139,0.927,0.199,1.403,0.185
		c0.475-0.016,0.927-0.13,1.357-0.346c0.429-0.184,0.805-0.353,1.127-0.506c0.322-0.152,0.667-0.291,1.035-0.414
		c0.552-0.152,1.073-0.275,1.564-0.367c0.49-0.093,0.996-0.139,1.518-0.139c0.552,0,1.081,0.055,1.587,0.161
		c0.506,0.107,0.95,0.291,1.334,0.552c0.383,0.262,0.69,0.613,0.92,1.059c0.23,0.444,0.36,1.004,0.391,1.679h-4.738
		c-1.503,0-2.937,0.153-4.301,0.46c-1.365,0.307-2.561,0.813-3.588,1.519c-1.028,0.704-1.848,1.64-2.461,2.806
		c-0.614,1.164-0.92,2.621-0.92,4.369c0,1.809,0.314,3.313,0.943,4.508c0.628,1.197,1.41,2.146,2.346,2.852
		c0.935,0.705,1.955,1.205,3.059,1.496s2.131,0.438,3.082,0.438h1.012c1.38,0,2.668-0.246,3.864-0.736
		c1.196-0.492,2.238-1.15,3.128-1.979L103.361,38.87z M69.275,17.572c0.491,0,0.974,0.068,1.449,0.207
		c0.475,0.138,0.882,0.368,1.219,0.689c0.337,0.322,0.606,0.736,0.805,1.242c0.199,0.506,0.284,1.143,0.253,1.909h-7.774
		c0-0.767,0.123-1.403,0.368-1.909c0.245-0.506,0.552-0.92,0.92-1.242c0.368-0.321,0.79-0.552,1.265-0.689
		C68.255,17.641,68.754,17.572,69.275,17.572 M70.287,39.653c0.828,0,1.648-0.055,2.461-0.162s1.579-0.252,2.3-0.438
		c0.721-0.184,1.365-0.383,1.932-0.598s1.035-0.428,1.403-0.643c1.104-0.645,1.894-1.436,2.369-2.369
		c0.475-0.936,0.468-1.971-0.023-3.105c-0.307-0.705-0.79-1.197-1.449-1.473c-0.659-0.275-1.388-0.367-2.185-0.275
		c-0.399,0.061-0.774,0.16-1.127,0.299c-0.353,0.139-0.698,0.268-1.035,0.391c-0.613,0.215-1.227,0.369-1.84,0.461
		c-0.613,0.092-1.487,0.137-2.622,0.137c-0.552,0-1.135-0.068-1.748-0.207c-0.613-0.137-1.181-0.375-1.702-0.713
		c-0.521-0.336-0.951-0.766-1.288-1.287s-0.506-1.182-0.506-1.979v-0.045h16.468c0.061-0.4,0.115-0.875,0.161-1.428
		c0.046-0.551,0.069-1.025,0.069-1.426c0-3.036-0.36-5.511-1.081-7.428c-0.721-1.917-1.679-3.412-2.875-4.485
		c-1.196-1.073-2.553-1.802-4.071-2.185s-3.074-0.575-4.669-0.575c-1.472,0-2.982,0.207-4.531,0.621
		c-1.549,0.414-2.959,1.112-4.232,2.093c-1.273,0.981-2.315,2.285-3.128,3.91s-1.219,3.665-1.219,6.118v4.048
		c0,2.391,0.422,4.408,1.265,6.049c0.843,1.641,1.947,2.951,3.312,3.932c1.365,0.982,2.89,1.688,4.577,2.117
		S68.631,39.653,70.287,39.653 M34.454,38.87h9.338V22.678c0.061-1.165,0.452-2.085,1.173-2.76c0.72-0.675,1.725-1.058,3.013-1.149
		c0.337-0.031,0.69-0.038,1.058-0.023c0.368,0.015,0.72,0.023,1.058,0.023c1.012,0,1.893-0.322,2.645-0.967
		c0.751-0.644,1.203-1.503,1.357-2.575c0.153-1.073,0.007-2.039-0.437-2.898c-0.445-0.859-1.112-1.472-2.001-1.84
		c-0.338-0.153-0.698-0.253-1.081-0.299c-0.384-0.046-0.744-0.069-1.081-0.069c-1.135,0-2.224,0.229-3.266,0.69
		c-1.043,0.46-1.994,1.089-2.852,1.886c-0.399-0.859-0.989-1.503-1.771-1.933c-0.782-0.429-1.618-0.644-2.507-0.644
		c-0.614,0-1.196,0.1-1.748,0.299c-0.552,0.199-1.043,0.491-1.472,0.874c-0.43,0.383-0.775,0.859-1.035,1.426
		c-0.261,0.567-0.391,1.234-0.391,2.001V38.87z M20.976,18.124v4.462c0,2.7-0.659,4.76-1.978,6.188
		c-1.319,1.426-3.067,2.139-5.244,2.139h-3.036c-0.521,0-0.874-0.084-1.058-0.254c-0.184-0.168-0.276-0.529-0.276-1.08V11.132
		c0-0.552,0.092-0.912,0.276-1.081s0.537-0.253,1.058-0.253h3.036c2.177,0,3.925,0.713,5.244,2.14
		C20.317,13.363,20.976,15.425,20.976,18.124 M14.03,1.84H7.176c-1.38,0-2.53,0.13-3.45,0.392C2.806,2.492,2.07,2.913,1.518,3.496
		C0.966,4.079,0.575,4.83,0.345,5.75S0,7.789,0,9.108v22.494c0,1.318,0.115,2.438,0.345,3.357s0.621,1.672,1.173,2.254
		c0.552,0.584,1.288,1.004,2.208,1.266s2.07,0.391,3.45,0.391h6.854c1.993,0,3.964-0.283,5.911-0.85
		c1.947-0.568,3.695-1.52,5.244-2.854s2.798-3.09,3.749-5.266c0.951-2.178,1.426-4.861,1.426-8.051V18.86
		c0-3.189-0.475-5.873-1.426-8.05c-0.951-2.178-2.2-3.934-3.749-5.268s-3.297-2.285-5.244-2.852
		C17.994,2.124,16.023,1.84,14.03,1.84"/>
</g>
</svg>
