<?xml version="1.0" encoding="utf-8"?>
<!-- Generator: Adobe Illustrator 16.0.0, SVG Export Plug-In . SVG Version: 6.00 Build 0)  -->
<!DOCTYPE svg PUBLIC "-//W3C//DTD SVG 1.1//EN" "http://www.w3.org/Graphics/SVG/1.1/DTD/svg11.dtd">
<svg version="1.1" id="레이어_1" xmlns="http://www.w3.org/2000/svg" xmlns:xlink="http://www.w3.org/1999/xlink" x="0px"
	 y="0px" width="401.329px" height="45.603px" viewBox="0 0 401.329 45.603" enable-background="new 0 0 401.329 45.603"
	 xml:space="preserve">
<g>
	<defs>
		<rect id="SVGID_1_" width="401.329" height="45.603"/>
	</defs>
	<clipPath id="SVGID_2_">
		<use xlink:href="#SVGID_1_"  overflow="visible"/>
	</clipPath>
	<path clip-path="url(#SVGID_2_)" fill="#E37476" d="M391.255,37.167l9.66-22.126c0.276-0.675,0.414-1.334,0.414-1.978
		c0-0.645-0.115-1.242-0.345-1.794c-0.23-0.553-0.568-1.035-1.013-1.449s-0.959-0.729-1.541-0.943
		c-0.613-0.215-1.227-0.337-1.84-0.368c-0.613-0.03-1.204,0.055-1.771,0.254c-0.568,0.198-1.081,0.521-1.541,0.966
		c-0.46,0.444-0.813,1.035-1.059,1.771l-4.876,14.307l-5.29-14.307c-0.275-0.735-0.644-1.326-1.104-1.771
		c-0.46-0.445-0.974-0.768-1.541-0.966c-0.568-0.199-1.173-0.284-1.817-0.254c-0.644,0.031-1.258,0.153-1.84,0.368
		c-0.614,0.215-1.143,0.529-1.587,0.943c-0.445,0.414-0.79,0.896-1.035,1.449c-0.246,0.552-0.376,1.149-0.391,1.794
		c-0.017,0.644,0.13,1.303,0.437,1.978l9.385,20.884v0.047c-0.368,0.703-0.982,1.195-1.841,1.471
		c-0.858,0.277-1.764,0.322-2.714,0.139c-1.38-0.246-2.445-0.023-3.196,0.666c-0.752,0.691-1.204,1.557-1.357,2.6
		c-0.063,0.521-0.031,1.027,0.092,1.518c0.122,0.492,0.345,0.951,0.667,1.381c0.322,0.428,0.729,0.789,1.219,1.08
		s1.073,0.484,1.748,0.576c3.221,0.459,6.019,0.014,8.396-1.334C387.95,42.718,389.844,40.417,391.255,37.167 M353.075,24.011
		v-3.496c0-0.768,0.13-1.418,0.391-1.955s0.582-0.975,0.966-1.312s0.806-0.575,1.266-0.713s0.889-0.207,1.288-0.207
		c0.397,0,0.819,0.069,1.265,0.207c0.444,0.138,0.858,0.36,1.242,0.667c0.383,0.307,0.713,0.713,0.989,1.219
		c0.275,0.507,0.429,1.127,0.46,1.863v3.957c-0.031,0.736-0.185,1.357-0.46,1.863c-0.276,0.506-0.606,0.912-0.989,1.219
		c-0.384,0.307-0.798,0.529-1.242,0.666c-0.445,0.139-0.867,0.207-1.265,0.207c-0.399,0-0.828-0.068-1.288-0.207
		c-0.46-0.137-0.882-0.375-1.266-0.713c-0.384-0.336-0.705-0.768-0.966-1.287C353.205,25.468,353.075,24.808,353.075,24.011
		 M370.188,33.763v-20.7c0-1.533-0.46-2.684-1.381-3.45c-0.92-0.767-1.993-1.15-3.22-1.15c-0.92,0-1.771,0.216-2.553,0.645
		s-1.357,1.073-1.726,1.932c-0.89-0.858-1.916-1.503-3.081-1.932c-1.166-0.429-2.331-0.645-3.496-0.645
		c-1.534,0-2.976,0.207-4.324,0.621c-1.351,0.414-2.53,1.112-3.542,2.093c-1.012,0.981-1.811,2.285-2.393,3.91
		c-0.583,1.625-0.874,3.649-0.874,6.072v2.024c0,2.392,0.291,4.392,0.874,6.003c0.582,1.609,1.381,2.896,2.393,3.863
		s2.185,1.648,3.519,2.047s2.768,0.598,4.302,0.598c1.409,0,2.668-0.221,3.771-0.666c1.104-0.445,2.054-1.066,2.852-1.863v0.828
		c0,0.521-0.107,1.027-0.321,1.518c-0.215,0.49-0.552,0.936-1.013,1.334c-0.46,0.398-1.043,0.713-1.747,0.943
		c-0.706,0.23-1.55,0.344-2.53,0.344c-0.859,0-1.656-0.045-2.393-0.137c-0.735-0.092-1.441-0.184-2.115-0.275
		c-0.799-0.123-1.534,0.029-2.208,0.459c-0.676,0.43-1.15,1.012-1.427,1.748c-0.307,0.797-0.314,1.633-0.022,2.508
		c0.291,0.873,0.789,1.51,1.495,1.908c0.368,0.215,0.843,0.406,1.426,0.574c0.582,0.17,1.196,0.309,1.84,0.414
		c0.645,0.107,1.266,0.186,1.863,0.23c0.598,0.047,1.111,0.055,1.541,0.023c3.097-0.123,5.596-0.576,7.498-1.357
		c1.9-0.781,3.365-1.732,4.393-2.852s1.717-2.354,2.07-3.703C370.01,36.324,370.188,35.021,370.188,33.763 M322.394,37.212h9.338
		V21.021c0.061-1.165,0.452-2.085,1.173-2.76c0.721-0.676,1.725-1.059,3.013-1.15c0.337-0.031,0.69-0.038,1.058-0.023
		c0.368,0.016,0.722,0.023,1.059,0.023c1.012,0,1.894-0.322,2.645-0.966c0.751-0.645,1.204-1.503,1.357-2.576
		s0.008-2.039-0.438-2.898c-0.444-0.858-1.111-1.472-2.001-1.84c-0.337-0.152-0.697-0.253-1.081-0.299
		c-0.383-0.046-0.743-0.069-1.08-0.069c-1.136,0-2.224,0.23-3.267,0.69s-1.993,1.089-2.852,1.886
		c-0.399-0.858-0.989-1.503-1.771-1.932s-1.618-0.645-2.507-0.645c-0.613,0-1.196,0.101-1.748,0.3
		c-0.552,0.198-1.043,0.49-1.472,0.874c-0.43,0.383-0.774,0.858-1.035,1.426c-0.261,0.566-0.391,1.233-0.391,2.001V37.212z
		 M305.604,15.915c0.49,0,0.974,0.069,1.448,0.207c0.477,0.138,0.882,0.368,1.22,0.69c0.338,0.321,0.605,0.735,0.805,1.242
		c0.2,0.506,0.284,1.142,0.253,1.908h-7.774c0-0.767,0.123-1.402,0.368-1.908c0.246-0.507,0.552-0.921,0.92-1.242
		c0.368-0.322,0.79-0.553,1.266-0.69S305.082,15.915,305.604,15.915 M306.615,37.996c0.828,0,1.648-0.055,2.461-0.162
		c0.813-0.105,1.58-0.252,2.3-0.436c0.721-0.186,1.365-0.383,1.933-0.6c0.567-0.215,1.034-0.428,1.402-0.643
		c1.104-0.645,1.895-1.434,2.369-2.369c0.476-0.936,0.468-1.971-0.023-3.105c-0.306-0.705-0.788-1.195-1.448-1.473
		c-0.659-0.275-1.388-0.367-2.186-0.275c-0.397,0.061-0.773,0.162-1.127,0.299c-0.352,0.139-0.697,0.268-1.035,0.391
		c-0.612,0.215-1.226,0.369-1.84,0.461c-0.612,0.092-1.487,0.139-2.622,0.139c-0.552,0-1.134-0.07-1.748-0.207
		c-0.612-0.139-1.18-0.377-1.702-0.715c-0.521-0.336-0.949-0.766-1.287-1.287s-0.507-1.182-0.507-1.979V25.99h16.469
		c0.062-0.4,0.114-0.875,0.16-1.426c0.047-0.553,0.069-1.028,0.069-1.426c0-3.036-0.359-5.513-1.081-7.43
		c-0.72-1.917-1.679-3.412-2.875-4.484c-1.195-1.073-2.553-1.803-4.07-2.186c-1.519-0.383-3.074-0.575-4.67-0.575
		c-1.472,0-2.981,0.207-4.53,0.621c-1.548,0.414-2.959,1.112-4.232,2.093c-1.272,0.981-2.315,2.285-3.128,3.91
		s-1.219,3.665-1.219,6.118v4.048c0,2.393,0.422,4.408,1.265,6.049c0.845,1.641,1.948,2.951,3.312,3.934
		c1.365,0.98,2.892,1.686,4.578,2.115S304.959,37.996,306.615,37.996 M262.227,37.212h9.338V20.516c0-0.768,0.115-1.418,0.345-1.955
		s0.528-0.975,0.897-1.312c0.367-0.337,0.766-0.575,1.195-0.713s0.844-0.207,1.242-0.207s0.813,0.069,1.242,0.207
		c0.429,0.138,0.82,0.376,1.173,0.713s0.644,0.774,0.874,1.312s0.345,1.188,0.345,1.955v16.697h9.476V21.067
		c0-2.423-0.275-4.447-0.828-6.072c-0.551-1.625-1.295-2.921-2.23-3.887s-2.04-1.648-3.313-2.047
		c-1.272-0.399-2.645-0.599-4.116-0.599c-1.228,0-2.431,0.216-3.611,0.645s-2.216,1.058-3.104,1.886
		c-0.399-0.828-0.989-1.457-1.771-1.886c-0.781-0.429-1.617-0.645-2.507-0.645c-0.614,0-1.196,0.101-1.748,0.3
		c-0.552,0.198-1.043,0.49-1.472,0.874c-0.43,0.383-0.775,0.858-1.035,1.426c-0.262,0.566-0.391,1.233-0.391,2.001V37.212z
		 M241.389,14.489V9.567c0-0.552,0.092-0.912,0.275-1.081s0.537-0.253,1.059-0.253h11.637c0.676,0,1.25-0.115,1.726-0.345
		c0.476-0.23,0.859-0.537,1.149-0.921c0.293-0.383,0.507-0.813,0.645-1.287c0.139-0.476,0.207-0.943,0.207-1.403
		s-0.068-0.936-0.207-1.426c-0.138-0.491-0.359-0.936-0.667-1.334c-0.306-0.399-0.69-0.722-1.149-0.967
		c-0.461-0.244-1.027-0.367-1.703-0.367h-15.225c-1.381,0-2.531,0.13-3.451,0.391s-1.655,0.682-2.207,1.265
		c-0.553,0.583-0.943,1.334-1.174,2.254c-0.229,0.921-0.345,2.039-0.345,3.358v22.494c0,1.32,0.115,2.438,0.345,3.359
		c0.23,0.92,0.621,1.67,1.174,2.254c0.552,0.582,1.287,1.004,2.207,1.264c0.92,0.262,2.07,0.391,3.451,0.391h15.686
		c0.675,0,1.242-0.123,1.701-0.367c0.461-0.244,0.845-0.566,1.15-0.967c0.307-0.398,0.529-0.842,0.667-1.334
		c0.138-0.49,0.207-0.965,0.207-1.426c0-0.459-0.069-0.928-0.207-1.402s-0.352-0.904-0.644-1.287
		c-0.291-0.385-0.674-0.691-1.15-0.922c-0.475-0.229-1.05-0.344-1.725-0.344h-12.098c-0.521,0-0.875-0.084-1.059-0.254
		c-0.184-0.168-0.275-0.529-0.275-1.08v-5.382h12.558c0.675,0,1.25-0.115,1.725-0.345c0.476-0.23,0.859-0.537,1.15-0.92
		c0.292-0.384,0.506-0.806,0.644-1.266c0.139-0.46,0.207-0.92,0.207-1.38s-0.068-0.928-0.207-1.403
		c-0.138-0.475-0.359-0.911-0.667-1.311c-0.306-0.399-0.69-0.721-1.149-0.966c-0.461-0.245-1.027-0.368-1.702-0.368H241.389z
		 M205.417,20.699v5.06c0,0.828-0.123,1.525-0.368,2.094c-0.244,0.566-0.56,1.035-0.943,1.402c-0.383,0.367-0.819,0.637-1.311,0.805
		c-0.49,0.17-0.981,0.254-1.472,0.254c-0.491,0-0.981-0.084-1.472-0.254c-0.491-0.168-0.928-0.438-1.311-0.805
		s-0.698-0.836-0.943-1.402c-0.245-0.568-0.368-1.266-0.368-2.094v-5.06c0-0.828,0.123-1.526,0.368-2.093
		c0.245-0.567,0.56-1.035,0.943-1.403s0.82-0.636,1.311-0.805s0.981-0.253,1.472-0.253c0.491,0,0.981,0.084,1.472,0.253
		c0.491,0.169,0.928,0.437,1.311,0.805c0.384,0.368,0.699,0.836,0.943,1.403C205.294,19.173,205.417,19.871,205.417,20.699
		 M187.983,21.113v4.232c0,2.484,0.406,4.539,1.219,6.164s1.863,2.93,3.151,3.91s2.722,1.67,4.301,2.07
		c1.579,0.398,3.136,0.598,4.669,0.598c1.532,0,3.09-0.199,4.669-0.598c1.579-0.4,3.013-1.09,4.301-2.07s2.338-2.285,3.151-3.91
		s1.219-3.68,1.219-6.164v-4.232c0-2.484-0.405-4.539-1.219-6.164s-1.863-2.929-3.151-3.91c-1.288-0.98-2.722-1.671-4.301-2.069
		c-1.579-0.399-3.137-0.599-4.669-0.599c-1.564,0-3.136,0.199-4.715,0.599c-1.579,0.398-3.013,1.089-4.301,2.069
		c-1.288,0.981-2.331,2.285-3.128,3.91S187.983,18.629,187.983,21.113 M169.951,16.974v11.592c0,1.748,0.215,3.219,0.644,4.416
		c0.43,1.195,1.058,2.162,1.886,2.896c0.828,0.736,1.84,1.273,3.036,1.611c1.196,0.336,2.561,0.506,4.094,0.506
		c0.798,0,1.595-0.123,2.392-0.369c0.798-0.244,1.457-0.537,1.978-0.873c0.644-0.43,1.143-1.012,1.495-1.748
		c0.353-0.736,0.422-1.58,0.207-2.529c-0.153-0.768-0.521-1.381-1.104-1.842c-0.582-0.459-1.257-0.689-2.024-0.689
		c-0.46,0-0.828,0.039-1.104,0.115c-0.276,0.078-0.582,0.1-0.92,0.068c-0.398-0.029-0.743-0.152-1.035-0.367
		c-0.291-0.215-0.437-0.676-0.437-1.381V16.974h2.714c1.442,0,2.477-0.384,3.105-1.15c0.629-0.767,0.943-1.641,0.943-2.622
		c0-0.46-0.076-0.92-0.23-1.38c-0.153-0.46-0.391-0.874-0.713-1.242c-0.322-0.368-0.736-0.667-1.242-0.896
		c-0.506-0.23-1.127-0.346-1.863-0.346h-2.714V4.554c0-0.768-0.13-1.441-0.391-2.024c-0.26-0.583-0.605-1.058-1.035-1.426
		c-0.429-0.368-0.912-0.645-1.449-0.828c-0.536-0.185-1.096-0.276-1.679-0.276c-0.582,0-1.142,0.092-1.679,0.276
		c-0.536,0.184-1.019,0.46-1.449,0.828c-0.429,0.368-0.774,0.843-1.035,1.426c-0.26,0.583-0.391,1.257-0.391,2.024v4.783h-1.518
		c-0.736,0-1.364,0.115-1.886,0.346c-0.521,0.229-0.943,0.528-1.265,0.896c-0.322,0.368-0.552,0.782-0.69,1.242
		c-0.138,0.46-0.207,0.92-0.207,1.38c0,0.981,0.315,1.855,0.943,2.622c0.629,0.767,1.664,1.15,3.105,1.15H169.951z M137.016,15.915
		c0.491,0,0.974,0.069,1.449,0.207c0.475,0.138,0.882,0.368,1.219,0.69c0.337,0.321,0.606,0.735,0.805,1.242
		c0.199,0.506,0.284,1.142,0.253,1.908h-7.774c0-0.767,0.123-1.402,0.368-1.908c0.245-0.507,0.552-0.921,0.92-1.242
		c0.368-0.322,0.79-0.553,1.265-0.69S136.495,15.915,137.016,15.915 M138.028,37.996c0.828,0,1.648-0.055,2.461-0.162
		c0.813-0.105,1.579-0.252,2.3-0.436c0.721-0.186,1.365-0.383,1.932-0.6c0.567-0.215,1.035-0.428,1.403-0.643
		c1.104-0.645,1.894-1.434,2.369-2.369s0.468-1.971-0.023-3.105c-0.307-0.705-0.79-1.195-1.449-1.473
		c-0.659-0.275-1.388-0.367-2.185-0.275c-0.399,0.061-0.774,0.162-1.127,0.299c-0.353,0.139-0.698,0.268-1.035,0.391
		c-0.613,0.215-1.227,0.369-1.84,0.461c-0.613,0.092-1.487,0.139-2.622,0.139c-0.552,0-1.135-0.07-1.748-0.207
		c-0.613-0.139-1.181-0.377-1.702-0.715c-0.521-0.336-0.951-0.766-1.288-1.287s-0.506-1.182-0.506-1.979V25.99h16.468
		c0.061-0.4,0.115-0.875,0.161-1.426c0.046-0.553,0.069-1.028,0.069-1.426c0-3.036-0.36-5.513-1.081-7.43
		c-0.721-1.917-1.679-3.412-2.875-4.484c-1.196-1.073-2.553-1.803-4.071-2.186s-3.074-0.575-4.669-0.575
		c-1.472,0-2.982,0.207-4.531,0.621c-1.549,0.414-2.959,1.112-4.232,2.093c-1.273,0.981-2.315,2.285-3.128,3.91
		s-1.219,3.665-1.219,6.118v4.048c0,2.393,0.422,4.408,1.265,6.049c0.843,1.641,1.947,2.951,3.312,3.934
		c1.365,0.98,2.89,1.686,4.577,2.115S136.372,37.996,138.028,37.996 M105.828,16.974v11.592c0,1.748,0.215,3.219,0.644,4.416
		c0.43,1.195,1.058,2.162,1.886,2.896c0.828,0.736,1.84,1.273,3.036,1.611c1.196,0.336,2.561,0.506,4.094,0.506
		c0.798,0,1.595-0.123,2.392-0.369c0.798-0.244,1.457-0.537,1.978-0.873c0.644-0.43,1.143-1.012,1.495-1.748
		c0.353-0.736,0.422-1.58,0.207-2.529c-0.153-0.768-0.521-1.381-1.104-1.842c-0.582-0.459-1.257-0.689-2.024-0.689
		c-0.46,0-0.828,0.039-1.104,0.115c-0.276,0.078-0.582,0.1-0.92,0.068c-0.398-0.029-0.743-0.152-1.035-0.367
		c-0.291-0.215-0.437-0.676-0.437-1.381V16.974h2.714c1.442,0,2.477-0.384,3.105-1.15c0.629-0.767,0.943-1.641,0.943-2.622
		c0-0.46-0.076-0.92-0.23-1.38c-0.153-0.46-0.391-0.874-0.713-1.242c-0.322-0.368-0.736-0.667-1.242-0.896
		c-0.506-0.23-1.127-0.346-1.863-0.346h-2.714V4.554c0-0.768-0.13-1.441-0.391-2.024c-0.26-0.583-0.605-1.058-1.035-1.426
		c-0.429-0.368-0.912-0.645-1.449-0.828c-0.536-0.185-1.096-0.276-1.679-0.276c-0.582,0-1.142,0.092-1.679,0.276
		c-0.536,0.184-1.019,0.46-1.449,0.828c-0.429,0.368-0.774,0.843-1.035,1.426c-0.26,0.583-0.391,1.257-0.391,2.024v4.783h-1.518
		c-0.736,0-1.364,0.115-1.886,0.346c-0.521,0.229-0.943,0.528-1.265,0.896c-0.322,0.368-0.552,0.782-0.69,1.242
		c-0.138,0.46-0.207,0.92-0.207,1.38c0,0.981,0.315,1.855,0.943,2.622c0.629,0.767,1.664,1.15,3.105,1.15H105.828z M85.313,17.249
		c0.03-0.398,0.26-0.744,0.69-1.035c0.429-0.291,1.012-0.437,1.748-0.437c0.368,0,0.782,0.031,1.242,0.092
		c0.46,0.062,0.912,0.153,1.357,0.276c0.444,0.123,0.866,0.253,1.265,0.391c0.398,0.138,0.736,0.299,1.012,0.483
		c0.214,0.152,0.513,0.284,0.897,0.391c0.383,0.107,0.728,0.161,1.035,0.161c0.828,0,1.564-0.169,2.208-0.506s1.104-0.951,1.38-1.84
		c0.306-1.043,0.184-2.017-0.368-2.921c-0.552-0.905-1.304-1.618-2.254-2.14c-0.798-0.46-1.856-0.858-3.174-1.195
		c-1.319-0.338-2.898-0.507-4.738-0.507c-1.166,0-2.3,0.107-3.404,0.322s-2.139,0.544-3.105,0.989
		c-0.966,0.445-1.825,1.02-2.576,1.725c-0.752,0.705-1.357,1.533-1.817,2.484c-0.491,1.073-0.798,2.223-0.92,3.45
		c-0.123,1.227,0.015,2.406,0.414,3.542c0.398,1.135,1.104,2.17,2.116,3.104c1.012,0.936,2.422,1.68,4.232,2.232
		c0.276,0.092,0.575,0.176,0.897,0.252c0.322,0.078,0.651,0.146,0.989,0.207c1.778,0.369,3.166,0.713,4.163,1.035
		c0.996,0.322,1.464,0.76,1.403,1.311c-0.062,0.43-0.33,0.797-0.805,1.105c-0.476,0.307-1.158,0.459-2.047,0.459
		c-0.89,0-1.794-0.092-2.714-0.275s-1.626-0.43-2.116-0.736c-0.399-0.246-0.813-0.49-1.242-0.736
		c-0.43-0.244-1.012-0.354-1.748-0.322c-0.614,0.031-1.173,0.154-1.679,0.369c-0.506,0.215-0.928,0.566-1.265,1.057
		c-0.644,0.982-0.821,1.971-0.529,2.967c0.291,0.998,0.835,1.832,1.633,2.508c0.582,0.49,1.257,0.896,2.024,1.219
		c0.766,0.322,1.564,0.576,2.392,0.76s1.663,0.314,2.507,0.391c0.843,0.076,1.663,0.115,2.461,0.115
		c1.594,0,3.105-0.162,4.531-0.482c1.426-0.322,2.691-0.807,3.795-1.449c1.104-0.645,2.001-1.465,2.691-2.461
		c0.69-0.998,1.127-2.17,1.311-3.52c0.337-2.791-0.138-5.037-1.426-6.739c-1.288-1.702-3.312-2.906-6.072-3.611
		c-0.276-0.062-0.56-0.123-0.851-0.185c-0.292-0.061-0.591-0.123-0.897-0.184c-1.718-0.307-2.937-0.598-3.657-0.874
		C85.581,18.215,85.251,17.801,85.313,17.249 M62.957,26.312v1.654c0,0.492-0.115,0.922-0.345,1.289s-0.521,0.676-0.874,0.92
		s-0.744,0.43-1.173,0.553c-0.429,0.123-0.859,0.184-1.288,0.184h-0.644c-0.797,0-1.426-0.184-1.886-0.553
		c-0.46-0.367-0.69-0.936-0.69-1.701c0-0.736,0.23-1.311,0.69-1.725s1.135-0.621,2.024-0.621H62.957z M64.751,37.212h7.268V20.745
		c0-2.483-0.345-4.522-1.035-6.118c-0.69-1.595-1.61-2.844-2.76-3.749c-1.15-0.904-2.484-1.532-4.002-1.886
		c-1.518-0.353-3.105-0.529-4.761-0.529c-0.797,0-1.618,0.046-2.461,0.139c-0.843,0.092-1.679,0.237-2.507,0.437
		s-1.625,0.452-2.392,0.759c-0.767,0.308-1.457,0.69-2.07,1.15c-0.797,0.613-1.349,1.357-1.656,2.231
		c-0.307,0.873-0.245,1.771,0.184,2.69c0.215,0.46,0.514,0.843,0.897,1.15c0.383,0.307,0.805,0.528,1.265,0.667
		c0.46,0.138,0.928,0.198,1.403,0.184s0.928-0.13,1.357-0.345c0.429-0.185,0.805-0.354,1.127-0.506
		c0.322-0.153,0.667-0.291,1.035-0.414c0.552-0.153,1.073-0.276,1.564-0.368c0.491-0.092,0.997-0.138,1.518-0.138
		c0.552,0,1.081,0.054,1.587,0.16c0.506,0.107,0.951,0.291,1.334,0.553c0.383,0.261,0.69,0.612,0.92,1.058s0.36,1.004,0.391,1.679
		h-4.738c-1.503,0-2.936,0.153-4.301,0.46c-1.365,0.308-2.561,0.813-3.588,1.519s-1.848,1.641-2.461,2.806
		c-0.613,1.164-0.92,2.621-0.92,4.369c0,1.811,0.314,3.313,0.943,4.508c0.629,1.197,1.411,2.148,2.346,2.854
		s1.955,1.203,3.059,1.494s2.131,0.438,3.082,0.438h1.012c1.38,0,2.668-0.246,3.864-0.736c1.196-0.49,2.239-1.15,3.128-1.979
		L64.751,37.212z M31.815,24.748L27.353,4.646c-0.184-0.675-0.468-1.242-0.851-1.702c-0.383-0.46-0.797-0.82-1.242-1.081
		c-0.445-0.261-0.912-0.445-1.403-0.552c-0.491-0.107-0.951-0.161-1.38-0.161c-0.429,0-0.889,0.054-1.38,0.161
		c-0.491,0.106-0.958,0.291-1.403,0.552c-0.445,0.261-0.859,0.621-1.242,1.081s-0.667,1.027-0.851,1.702l-4.232,18.905L9.091,3.403
		C8.938,2.698,8.685,2.115,8.332,1.655S7.55,0.835,7.044,0.574c-0.506-0.261-1.05-0.429-1.633-0.506S4.246-0.001,3.663,0.091
		C3.111,0.184,2.582,0.375,2.076,0.666S1.148,1.325,0.811,1.771C0.474,2.215,0.236,2.729,0.098,3.312s-0.13,1.227,0.023,1.932
		l7.59,31.969h9.43l5.336-23l5.382,23h10.12l7.268-32.015c0.153-0.675,0.161-1.311,0.023-1.909c-0.138-0.598-0.368-1.112-0.69-1.541
		c-0.322-0.429-0.728-0.79-1.219-1.081c-0.491-0.291-1.012-0.482-1.564-0.575c-0.583-0.092-1.165-0.1-1.748-0.022
		s-1.119,0.245-1.61,0.506c-0.491,0.261-0.92,0.621-1.288,1.081c-0.368,0.46-0.613,1.043-0.736,1.748L31.815,24.748z"/>
</g>
</svg>
