<?xml version="1.0" encoding="utf-8"?>
<!-- Generator: Adobe Illustrator 16.0.0, SVG Export Plug-In . SVG Version: 6.00 Build 0)  -->
<!DOCTYPE svg PUBLIC "-//W3C//DTD SVG 1.1//EN" "http://www.w3.org/Graphics/SVG/1.1/DTD/svg11.dtd">
<svg version="1.1" id="레이어_1" xmlns="http://www.w3.org/2000/svg" xmlns:xlink="http://www.w3.org/1999/xlink" x="0px"
	 y="0px" width="451.083px" height="39.745px" viewBox="0 0 451.083 39.745" enable-background="new 0 0 451.083 39.745"
	 xml:space="preserve">
<g>
	<defs>
		<rect id="SVGID_1_" width="451.083" height="39.745"/>
	</defs>
	<clipPath id="SVGID_2_">
		<use xlink:href="#SVGID_1_"  overflow="visible"/>
	</clipPath>
	<path clip-path="url(#SVGID_2_)" fill="#E37476" d="M437.086,18.906c0.031-0.399,0.261-0.744,0.69-1.035s1.012-0.437,1.748-0.437
		c0.367,0,0.781,0.03,1.241,0.092c0.46,0.061,0.913,0.152,1.357,0.275c0.445,0.123,0.867,0.253,1.265,0.392
		c0.399,0.138,0.736,0.299,1.013,0.482c0.215,0.153,0.514,0.284,0.896,0.392c0.384,0.106,0.729,0.161,1.035,0.161
		c0.828,0,1.564-0.169,2.208-0.507c0.644-0.337,1.104-0.95,1.38-1.84c0.307-1.043,0.184-2.016-0.368-2.921s-1.303-1.618-2.254-2.139
		c-0.797-0.46-1.854-0.859-3.174-1.196c-1.318-0.337-2.898-0.506-4.738-0.506c-1.165,0-2.3,0.107-3.403,0.322
		c-1.104,0.215-2.14,0.544-3.105,0.988c-0.966,0.445-1.824,1.021-2.576,1.726c-0.751,0.705-1.356,1.533-1.816,2.484
		c-0.49,1.072-0.797,2.223-0.92,3.449c-0.122,1.228,0.016,2.407,0.413,3.542c0.399,1.137,1.104,2.17,2.116,3.105
		c1.013,0.936,2.423,1.68,4.232,2.23c0.275,0.094,0.575,0.178,0.896,0.254c0.322,0.076,0.652,0.146,0.989,0.207
		c1.779,0.367,3.167,0.713,4.163,1.035c0.997,0.322,1.465,0.758,1.403,1.311c-0.062,0.43-0.329,0.797-0.806,1.104
		c-0.475,0.309-1.156,0.461-2.047,0.461c-0.889,0-1.794-0.092-2.714-0.275c-0.92-0.186-1.625-0.43-2.116-0.736
		c-0.397-0.246-0.812-0.492-1.242-0.736c-0.429-0.246-1.012-0.354-1.747-0.322c-0.613,0.031-1.174,0.152-1.68,0.367
		c-0.506,0.217-0.927,0.568-1.265,1.059c-0.645,0.98-0.82,1.971-0.529,2.967c0.292,0.998,0.836,1.832,1.633,2.508
		c0.583,0.49,1.259,0.896,2.024,1.219c0.767,0.322,1.563,0.574,2.392,0.76c0.828,0.184,1.664,0.313,2.508,0.391
		c0.844,0.076,1.663,0.115,2.461,0.115c1.595,0,3.104-0.162,4.53-0.484c1.427-0.322,2.691-0.805,3.795-1.449
		c1.104-0.643,2.001-1.463,2.691-2.461c0.69-0.996,1.127-2.17,1.311-3.518c0.339-2.791-0.138-5.037-1.426-6.74
		c-1.288-1.701-3.312-2.906-6.071-3.609c-0.276-0.063-0.56-0.123-0.852-0.186c-0.291-0.061-0.59-0.123-0.896-0.184
		c-1.718-0.307-2.937-0.598-3.657-0.874C437.355,19.872,437.025,19.458,437.086,18.906 M411.005,18.906
		c0.031-0.399,0.261-0.744,0.69-1.035c0.429-0.291,1.012-0.437,1.748-0.437c0.367,0,0.781,0.03,1.241,0.092
		c0.46,0.061,0.912,0.152,1.357,0.275s0.866,0.253,1.265,0.392c0.399,0.138,0.736,0.299,1.013,0.482
		c0.215,0.153,0.514,0.284,0.896,0.392c0.383,0.106,0.729,0.161,1.035,0.161c0.828,0,1.564-0.169,2.208-0.507
		c0.644-0.337,1.104-0.95,1.38-1.84c0.308-1.043,0.185-2.016-0.368-2.921c-0.552-0.905-1.303-1.618-2.254-2.139
		c-0.797-0.46-1.854-0.859-3.174-1.196s-2.898-0.506-4.738-0.506c-1.165,0-2.3,0.107-3.403,0.322
		c-1.104,0.215-2.14,0.544-3.105,0.988c-0.966,0.445-1.825,1.021-2.576,1.726s-1.356,1.533-1.816,2.484
		c-0.491,1.072-0.797,2.223-0.92,3.449c-0.123,1.228,0.015,2.407,0.414,3.542c0.398,1.137,1.104,2.17,2.115,3.105
		c1.013,0.936,2.423,1.68,4.232,2.23c0.276,0.094,0.575,0.178,0.896,0.254c0.322,0.076,0.652,0.146,0.989,0.207
		c1.779,0.367,3.166,0.713,4.163,1.035s1.464,0.758,1.403,1.311c-0.062,0.43-0.33,0.797-0.806,1.104
		c-0.475,0.309-1.157,0.461-2.047,0.461c-0.889,0-1.794-0.092-2.714-0.275c-0.92-0.186-1.625-0.43-2.116-0.736
		c-0.398-0.246-0.813-0.492-1.241-0.736c-0.43-0.246-1.013-0.354-1.748-0.322c-0.613,0.031-1.174,0.152-1.68,0.367
		c-0.506,0.217-0.928,0.568-1.265,1.059c-0.644,0.98-0.82,1.971-0.529,2.967c0.291,0.998,0.836,1.832,1.633,2.508
		c0.583,0.49,1.258,0.896,2.024,1.219s1.564,0.574,2.392,0.76c0.828,0.184,1.664,0.313,2.508,0.391
		c0.843,0.076,1.664,0.115,2.461,0.115c1.595,0,3.104-0.162,4.53-0.484c1.427-0.322,2.691-0.805,3.795-1.449
		c1.104-0.643,2.002-1.463,2.691-2.461c0.69-0.996,1.127-2.17,1.312-3.518c0.337-2.791-0.139-5.037-1.427-6.74
		c-1.288-1.701-3.312-2.906-6.071-3.609c-0.276-0.063-0.561-0.123-0.852-0.186c-0.291-0.061-0.59-0.123-0.896-0.184
		c-1.718-0.307-2.937-0.598-3.657-0.874C411.273,19.872,410.944,19.458,411.005,18.906 M385.384,17.572
		c0.49,0,0.974,0.069,1.449,0.207c0.475,0.138,0.881,0.368,1.219,0.689c0.337,0.322,0.605,0.736,0.806,1.242
		c0.198,0.506,0.282,1.143,0.253,1.909h-7.774c0-0.766,0.122-1.403,0.368-1.909c0.245-0.506,0.552-0.92,0.92-1.242
		c0.368-0.321,0.789-0.552,1.265-0.689S384.862,17.572,385.384,17.572 M386.396,39.653c0.827,0,1.647-0.055,2.461-0.162
		c0.812-0.107,1.578-0.252,2.3-0.438c0.72-0.184,1.364-0.383,1.932-0.598s1.035-0.428,1.403-0.643
		c1.104-0.645,1.893-1.436,2.369-2.369c0.475-0.936,0.467-1.971-0.023-3.105c-0.307-0.705-0.79-1.195-1.449-1.473
		c-0.66-0.275-1.388-0.367-2.185-0.275c-0.399,0.061-0.775,0.16-1.127,0.299c-0.354,0.139-0.698,0.268-1.035,0.391
		c-0.614,0.215-1.227,0.369-1.84,0.461c-0.614,0.092-1.488,0.137-2.622,0.137c-0.552,0-1.135-0.068-1.748-0.207
		c-0.614-0.137-1.181-0.375-1.702-0.713c-0.521-0.336-0.951-0.766-1.288-1.287c-0.338-0.521-0.506-1.182-0.506-1.979v-0.045h16.468
		c0.062-0.4,0.115-0.875,0.161-1.428c0.046-0.551,0.069-1.025,0.069-1.426c0-3.035-0.361-5.511-1.081-7.428
		c-0.721-1.917-1.679-3.412-2.875-4.485c-1.196-1.072-2.553-1.802-4.071-2.185c-1.518-0.383-3.075-0.575-4.669-0.575
		c-1.472,0-2.982,0.207-4.531,0.621s-2.96,1.112-4.231,2.093c-1.273,0.981-2.316,2.285-3.128,3.91
		c-0.813,1.625-1.22,3.665-1.22,6.118v4.049c0,2.391,0.422,4.408,1.266,6.049c0.843,1.641,1.947,2.951,3.312,3.934
		c1.364,0.98,2.891,1.686,4.577,2.115S384.74,39.653,386.396,39.653 M342.006,38.87h9.338V22.172c0-0.768,0.115-1.418,0.346-1.956
		c0.229-0.537,0.528-0.974,0.896-1.311s0.767-0.575,1.196-0.713c0.429-0.139,0.843-0.207,1.242-0.207
		c0.398,0,0.813,0.068,1.241,0.207c0.43,0.138,0.82,0.376,1.174,0.713c0.353,0.337,0.644,0.773,0.873,1.311
		c0.23,0.537,0.346,1.188,0.346,1.956V38.87h9.476V22.725c0-2.424-0.275-4.448-0.828-6.073c-0.552-1.625-1.296-2.921-2.23-3.887
		c-0.936-0.967-2.039-1.648-3.313-2.048c-1.272-0.398-2.645-0.598-4.116-0.598c-1.228,0-2.431,0.215-3.611,0.644
		c-1.182,0.43-2.216,1.059-3.105,1.887c-0.398-0.828-0.988-1.457-1.771-1.887c-0.782-0.429-1.618-0.644-2.507-0.644
		c-0.613,0-1.196,0.1-1.748,0.299c-0.553,0.199-1.043,0.491-1.473,0.874c-0.429,0.383-0.773,0.859-1.034,1.426
		c-0.262,0.567-0.392,1.234-0.392,2.001V38.87z M327.654,4.232c0,0.767,0.13,1.418,0.391,1.955s0.606,0.974,1.035,1.311
		s0.935,0.583,1.518,0.736c0.583,0.152,1.196,0.229,1.84,0.229c0.645,0,1.258-0.077,1.841-0.229
		c0.583-0.153,1.089-0.399,1.518-0.736s0.774-0.773,1.035-1.311s0.391-1.188,0.391-1.955c0-1.503-0.475-2.584-1.426-3.243
		S333.726,0,332.438,0c-1.287,0-2.406,0.33-3.357,0.989S327.654,2.729,327.654,4.232 M327.7,15.042V38.87h9.476V15.042
		c0-1.595-0.468-2.76-1.402-3.496c-0.936-0.735-2.048-1.104-3.336-1.104c-1.287,0-2.399,0.368-3.335,1.104
		C328.168,12.282,327.7,13.447,327.7,15.042 M310.221,18.906c0.03-0.399,0.261-0.744,0.69-1.035
		c0.429-0.291,1.012-0.437,1.748-0.437c0.368,0,0.782,0.03,1.242,0.092c0.46,0.061,0.911,0.152,1.356,0.275
		c0.444,0.123,0.866,0.253,1.266,0.392c0.397,0.138,0.735,0.299,1.012,0.482c0.214,0.153,0.513,0.284,0.896,0.392
		c0.384,0.106,0.729,0.161,1.035,0.161c0.828,0,1.564-0.169,2.208-0.507c0.645-0.337,1.104-0.95,1.38-1.84
		c0.307-1.043,0.185-2.016-0.367-2.921c-0.553-0.905-1.305-1.618-2.255-2.139c-0.798-0.46-1.855-0.859-3.174-1.196
		s-2.897-0.506-4.737-0.506c-1.166,0-2.301,0.107-3.404,0.322c-1.104,0.215-2.14,0.544-3.105,0.988
		c-0.966,0.445-1.824,1.021-2.576,1.726s-1.356,1.533-1.816,2.484c-0.491,1.072-0.798,2.223-0.92,3.449
		c-0.123,1.228,0.015,2.407,0.414,3.542c0.397,1.137,1.104,2.17,2.115,3.105c1.013,0.936,2.423,1.68,4.232,2.23
		c0.276,0.094,0.575,0.178,0.897,0.254c0.321,0.076,0.65,0.146,0.988,0.207c1.778,0.367,3.166,0.713,4.163,1.035
		c0.996,0.322,1.464,0.758,1.403,1.311c-0.063,0.43-0.33,0.797-0.805,1.104c-0.477,0.309-1.158,0.461-2.048,0.461
		s-1.794-0.092-2.714-0.275c-0.92-0.186-1.626-0.43-2.115-0.736c-0.399-0.246-0.813-0.492-1.242-0.736
		c-0.431-0.246-1.013-0.354-1.748-0.322c-0.614,0.031-1.173,0.152-1.679,0.367c-0.507,0.217-0.929,0.568-1.266,1.059
		c-0.644,0.98-0.821,1.971-0.529,2.967c0.291,0.998,0.835,1.832,1.634,2.508c0.582,0.49,1.257,0.896,2.023,1.219
		s1.564,0.574,2.393,0.76c0.827,0.184,1.663,0.313,2.507,0.391c0.843,0.076,1.663,0.115,2.461,0.115
		c1.594,0,3.104-0.162,4.531-0.484c1.426-0.322,2.69-0.805,3.795-1.449c1.104-0.643,2.001-1.463,2.69-2.461
		c0.69-0.996,1.127-2.17,1.312-3.518c0.337-2.791-0.139-5.037-1.426-6.74c-1.288-1.701-3.313-2.906-6.072-3.609
		c-0.276-0.063-0.561-0.123-0.852-0.186c-0.292-0.061-0.591-0.123-0.896-0.184c-1.718-0.307-2.938-0.598-3.657-0.874
		C310.489,19.872,310.159,19.458,310.221,18.906 M281.148,39.653c1.656,0,3.16-0.338,4.509-1.012
		c1.349-0.676,2.452-1.596,3.312-2.762l0.506,2.99h7.314V14.674c0-1.563-0.46-2.714-1.38-3.449c-0.92-0.736-2.024-1.104-3.312-1.104
		c-1.289,0-2.385,0.368-3.289,1.104c-0.906,0.735-1.357,1.886-1.357,3.449v13.157c-0.031,0.736-0.169,1.357-0.414,1.863
		s-0.544,0.912-0.896,1.219c-0.354,0.307-0.744,0.529-1.174,0.666c-0.429,0.139-0.828,0.207-1.195,0.207
		c-0.399,0-0.813-0.068-1.242-0.207c-0.43-0.137-0.82-0.375-1.174-0.713c-0.353-0.336-0.644-0.766-0.873-1.287
		c-0.23-0.521-0.346-1.182-0.346-1.979V14.72c0-1.595-0.468-2.76-1.402-3.495c-0.936-0.736-2.047-1.104-3.336-1.104
		c-1.287,0-2.399,0.368-3.334,1.104c-0.936,0.735-1.403,1.9-1.403,3.495v12.328c0,2.424,0.276,4.447,0.828,6.072
		s1.296,2.922,2.231,3.887c0.934,0.967,2.038,1.648,3.312,2.047C278.305,39.454,279.677,39.653,281.148,39.653 M248.581,9.66h3.681
		c1.533,0,2.645,0.345,3.334,1.035c0.69,0.689,1.035,1.449,1.035,2.276v0.322c0,0.399-0.084,0.79-0.253,1.173
		c-0.168,0.384-0.429,0.736-0.782,1.059c-0.352,0.321-0.805,0.583-1.357,0.782c-0.551,0.198-1.211,0.299-1.977,0.299h-5.015v-5.612
		c0-0.552,0.092-0.912,0.276-1.081C247.707,9.744,248.061,9.66,248.581,9.66 M247.247,24.104h6.394c1.534,0,2.646,0.346,3.336,1.035
		c0.689,0.689,1.034,1.449,1.034,2.277v0.322c0,0.828-0.345,1.586-1.034,2.277c-0.69,0.689-1.802,1.033-3.336,1.033h-5.06
		c-0.521,0-0.874-0.084-1.058-0.252c-0.185-0.17-0.276-0.529-0.276-1.082V24.104z M265.969,12.834v-0.275
		c0-1.718-0.345-3.243-1.035-4.577c-0.689-1.334-1.656-2.453-2.897-3.358c-1.242-0.905-2.729-1.595-4.462-2.07
		c-1.732-0.475-3.657-0.713-5.773-0.713h-6.716c-1.38,0-2.53,0.13-3.45,0.392c-0.92,0.261-1.656,0.682-2.208,1.265
		s-0.942,1.334-1.173,2.254s-0.345,2.039-0.345,3.358v22.494c0,1.318,0.114,2.438,0.345,3.357s0.621,1.672,1.173,2.254
		c0.552,0.584,1.288,1.004,2.208,1.266s2.07,0.391,3.45,0.391h8.004c2.056,0,3.949-0.191,5.681-0.574
		c1.733-0.383,3.236-0.998,4.508-1.84c1.273-0.844,2.271-1.947,2.99-3.313c0.722-1.365,1.082-3.027,1.082-4.99v-0.047
		c0-1.809-0.461-3.428-1.381-4.854s-2.376-2.538-4.369-3.334c1.471-0.828,2.568-1.854,3.289-3.082
		C265.609,15.609,265.969,14.275,265.969,12.834 M207.596,18.906c0.031-0.399,0.261-0.744,0.69-1.035
		c0.429-0.291,1.012-0.437,1.748-0.437c0.368,0,0.782,0.03,1.242,0.092c0.46,0.061,0.912,0.152,1.357,0.275
		c0.445,0.123,0.866,0.253,1.265,0.392c0.399,0.138,0.736,0.299,1.012,0.482c0.215,0.153,0.514,0.284,0.897,0.392
		c0.383,0.106,0.728,0.161,1.035,0.161c0.828,0,1.564-0.169,2.208-0.507c0.644-0.337,1.104-0.95,1.38-1.84
		c0.307-1.043,0.184-2.016-0.368-2.921c-0.552-0.905-1.303-1.618-2.254-2.139c-0.797-0.46-1.855-0.859-3.174-1.196
		c-1.319-0.337-2.898-0.506-4.738-0.506c-1.165,0-2.3,0.107-3.404,0.322s-2.139,0.544-3.105,0.988
		c-0.966,0.445-1.825,1.021-2.576,1.726s-1.357,1.533-1.817,2.484c-0.491,1.072-0.797,2.223-0.92,3.449
		c-0.123,1.228,0.015,2.407,0.414,3.542c0.399,1.137,1.104,2.17,2.116,3.105s2.423,1.68,4.232,2.23
		c0.276,0.094,0.575,0.178,0.897,0.254c0.322,0.076,0.652,0.146,0.989,0.207c1.779,0.367,3.166,0.713,4.163,1.035
		c0.997,0.322,1.464,0.758,1.403,1.311c-0.061,0.43-0.33,0.797-0.805,1.104c-0.475,0.309-1.158,0.461-2.047,0.461
		s-1.794-0.092-2.714-0.275c-0.92-0.186-1.625-0.43-2.116-0.736c-0.399-0.246-0.813-0.492-1.242-0.736
		c-0.429-0.246-1.012-0.354-1.748-0.322c-0.613,0.031-1.173,0.152-1.679,0.367c-0.506,0.217-0.928,0.568-1.265,1.059
		c-0.644,0.98-0.82,1.971-0.529,2.967c0.291,0.998,0.836,1.832,1.633,2.508c0.583,0.49,1.257,0.896,2.024,1.219
		c0.767,0.322,1.564,0.574,2.392,0.76c0.828,0.184,1.664,0.313,2.507,0.391c0.843,0.076,1.664,0.115,2.461,0.115
		c1.595,0,3.105-0.162,4.531-0.484c1.426-0.322,2.691-0.805,3.795-1.449c1.104-0.643,2.001-1.463,2.691-2.461
		c0.69-0.996,1.127-2.17,1.311-3.518c0.337-2.791-0.138-5.037-1.426-6.74c-1.288-1.701-3.312-2.906-6.072-3.609
		c-0.276-0.063-0.56-0.123-0.851-0.186c-0.291-0.061-0.59-0.123-0.897-0.184c-1.717-0.307-2.936-0.598-3.657-0.874
		C207.864,19.872,207.535,19.458,207.596,18.906 M185.24,27.967v1.656c0,0.492-0.115,0.92-0.345,1.289
		c-0.23,0.367-0.521,0.674-0.874,0.92c-0.352,0.244-0.743,0.428-1.173,0.551c-0.429,0.123-0.858,0.186-1.288,0.186h-0.644
		c-0.797,0-1.426-0.186-1.886-0.553c-0.46-0.367-0.69-0.936-0.69-1.701c0-0.736,0.23-1.313,0.69-1.727
		c0.46-0.414,1.135-0.621,2.024-0.621H185.24z M187.034,38.87h7.268V22.403c0-2.485-0.345-4.524-1.035-6.119s-1.61-2.844-2.76-3.749
		c-1.15-0.905-2.484-1.533-4.002-1.886c-1.518-0.354-3.105-0.529-4.761-0.529c-0.797,0-1.617,0.046-2.461,0.138
		c-0.843,0.093-1.679,0.238-2.507,0.438c-0.828,0.199-1.625,0.452-2.392,0.759c-0.766,0.307-1.456,0.69-2.07,1.15
		c-0.797,0.612-1.349,1.356-1.656,2.23c-0.306,0.874-0.245,1.771,0.184,2.691c0.215,0.46,0.514,0.843,0.897,1.149
		c0.384,0.308,0.805,0.529,1.265,0.667c0.46,0.139,0.928,0.199,1.403,0.185c0.476-0.016,0.928-0.13,1.357-0.345
		c0.43-0.185,0.805-0.354,1.127-0.507c0.322-0.152,0.667-0.291,1.035-0.414c0.552-0.152,1.074-0.275,1.564-0.367
		c0.491-0.093,0.997-0.139,1.518-0.139c0.552,0,1.081,0.055,1.587,0.161c0.506,0.107,0.951,0.291,1.334,0.552
		c0.384,0.262,0.69,0.613,0.92,1.059c0.23,0.444,0.361,1.004,0.391,1.678h-4.738c-1.502,0-2.936,0.154-4.301,0.461
		c-1.364,0.307-2.56,0.813-3.588,1.518c-1.027,0.705-1.847,1.641-2.461,2.807c-0.613,1.164-0.92,2.621-0.92,4.369
		c0,1.809,0.315,3.313,0.943,4.508c0.629,1.197,1.411,2.148,2.346,2.852c0.936,0.705,1.955,1.205,3.059,1.496
		s2.132,0.438,3.082,0.438h1.012c1.38,0,2.668-0.246,3.864-0.736c1.196-0.492,2.239-1.15,3.128-1.979L187.034,38.87z
		 M152.949,17.572c0.49,0,0.973,0.069,1.449,0.207c0.475,0.138,0.881,0.368,1.219,0.689c0.337,0.322,0.605,0.736,0.805,1.242
		c0.199,0.506,0.283,1.143,0.253,1.909h-7.774c0-0.766,0.122-1.403,0.368-1.909c0.245-0.506,0.552-0.92,0.92-1.242
		c0.368-0.321,0.789-0.552,1.265-0.689C151.929,17.642,152.427,17.572,152.949,17.572 M153.961,39.653
		c0.828,0,1.648-0.055,2.461-0.162c0.812-0.107,1.579-0.252,2.3-0.438c0.72-0.184,1.364-0.383,1.932-0.598
		c0.567-0.215,1.035-0.428,1.403-0.643c1.104-0.645,1.893-1.436,2.369-2.369c0.475-0.936,0.467-1.971-0.023-3.105
		c-0.307-0.705-0.79-1.195-1.449-1.473c-0.66-0.275-1.388-0.367-2.185-0.275c-0.399,0.061-0.775,0.16-1.127,0.299
		c-0.353,0.139-0.698,0.268-1.035,0.391c-0.614,0.215-1.227,0.369-1.84,0.461c-0.614,0.092-1.488,0.137-2.622,0.137
		c-0.552,0-1.135-0.068-1.748-0.207c-0.614-0.137-1.181-0.375-1.702-0.713c-0.522-0.336-0.951-0.766-1.288-1.287
		c-0.338-0.521-0.506-1.182-0.506-1.979v-0.045h16.468c0.061-0.4,0.115-0.875,0.161-1.428c0.046-0.551,0.069-1.025,0.069-1.426
		c0-3.035-0.361-5.511-1.081-7.428c-0.721-1.917-1.679-3.412-2.875-4.485c-1.196-1.072-2.553-1.802-4.071-2.185
		c-1.518-0.383-3.075-0.575-4.669-0.575c-1.472,0-2.983,0.207-4.531,0.621c-1.549,0.414-2.96,1.112-4.232,2.093
		c-1.273,0.981-2.316,2.285-3.128,3.91c-0.813,1.625-1.219,3.665-1.219,6.118v4.049c0,2.391,0.421,4.408,1.265,6.049
		c0.843,1.641,1.947,2.951,3.312,3.934c1.364,0.98,2.89,1.686,4.577,2.115C150.633,39.438,152.305,39.653,153.961,39.653
		 M122.911,18.906c0.031-0.399,0.261-0.744,0.69-1.035c0.43-0.291,1.012-0.437,1.748-0.437c0.368,0,0.782,0.03,1.242,0.092
		c0.46,0.061,0.913,0.152,1.357,0.275c0.445,0.123,0.867,0.253,1.265,0.392c0.399,0.138,0.736,0.299,1.012,0.482
		c0.215,0.153,0.514,0.284,0.897,0.392c0.384,0.106,0.729,0.161,1.035,0.161c0.828,0,1.564-0.169,2.208-0.507
		c0.644-0.337,1.104-0.95,1.38-1.84c0.307-1.043,0.184-2.016-0.368-2.921c-0.552-0.905-1.303-1.618-2.254-2.139
		c-0.797-0.46-1.855-0.859-3.174-1.196c-1.318-0.337-2.898-0.506-4.738-0.506c-1.165,0-2.3,0.107-3.404,0.322
		s-2.139,0.544-3.105,0.988c-0.966,0.445-1.824,1.021-2.576,1.726c-0.751,0.705-1.357,1.533-1.817,2.484
		c-0.49,1.072-0.797,2.223-0.92,3.449c-0.122,1.228,0.016,2.407,0.414,3.542c0.399,1.137,1.104,2.17,2.116,3.105
		c1.012,0.936,2.423,1.68,4.232,2.23c0.276,0.094,0.575,0.178,0.897,0.254c0.322,0.076,0.652,0.146,0.989,0.207
		c1.779,0.367,3.167,0.713,4.163,1.035c0.997,0.322,1.465,0.758,1.403,1.311c-0.061,0.43-0.329,0.797-0.805,1.104
		c-0.475,0.309-1.157,0.461-2.047,0.461c-0.889,0-1.794-0.092-2.714-0.275c-0.92-0.186-1.625-0.43-2.116-0.736
		c-0.398-0.246-0.812-0.492-1.242-0.736c-0.429-0.246-1.012-0.354-1.748-0.322c-0.613,0.031-1.173,0.152-1.679,0.367
		c-0.506,0.217-0.927,0.568-1.265,1.059c-0.644,0.98-0.82,1.971-0.529,2.967c0.292,0.998,0.836,1.832,1.633,2.508
		c0.583,0.49,1.258,0.896,2.024,1.219c0.767,0.322,1.564,0.574,2.392,0.76c0.828,0.184,1.664,0.313,2.507,0.391
		c0.844,0.076,1.664,0.115,2.461,0.115c1.595,0,3.105-0.162,4.531-0.484c1.426-0.322,2.691-0.805,3.795-1.449
		c1.104-0.643,2.001-1.463,2.691-2.461c0.69-0.996,1.127-2.17,1.311-3.518c0.338-2.791-0.138-5.037-1.426-6.74
		c-1.288-1.701-3.312-2.906-6.072-3.609c-0.276-0.063-0.559-0.123-0.851-0.186c-0.291-0.061-0.59-0.123-0.897-0.184
		c-1.717-0.307-2.936-0.598-3.657-0.874C123.18,19.872,122.85,19.458,122.911,18.906 M92.506,38.87h9.338V22.678
		c0.061-1.166,0.452-2.085,1.173-2.76c0.72-0.675,1.725-1.058,3.013-1.149c0.337-0.031,0.69-0.038,1.058-0.023
		c0.368,0.015,0.72,0.023,1.058,0.023c1.012,0,1.893-0.322,2.645-0.967c0.751-0.644,1.203-1.503,1.357-2.575
		c0.153-1.073,0.007-2.039-0.437-2.898c-0.445-0.859-1.112-1.472-2.001-1.84c-0.338-0.153-0.698-0.253-1.081-0.299
		c-0.384-0.046-0.744-0.069-1.081-0.069c-1.135,0-2.224,0.23-3.266,0.69c-1.043,0.46-1.994,1.089-2.852,1.886
		c-0.399-0.859-0.989-1.503-1.771-1.933c-0.782-0.429-1.618-0.644-2.507-0.644c-0.614,0-1.196,0.1-1.748,0.299
		c-0.552,0.199-1.043,0.491-1.472,0.874c-0.43,0.383-0.775,0.859-1.035,1.426c-0.261,0.567-0.391,1.234-0.391,2.001V38.87z
		 M75.716,17.572c0.491,0,0.974,0.069,1.449,0.207s0.882,0.368,1.219,0.689c0.337,0.322,0.606,0.736,0.805,1.242
		c0.199,0.506,0.284,1.143,0.253,1.909h-7.774c0-0.766,0.123-1.403,0.368-1.909c0.245-0.506,0.552-0.92,0.92-1.242
		c0.368-0.321,0.79-0.552,1.265-0.689C74.696,17.642,75.195,17.572,75.716,17.572 M76.728,39.653c0.828,0,1.648-0.055,2.461-0.162
		s1.579-0.252,2.3-0.438c0.721-0.184,1.365-0.383,1.932-0.598s1.035-0.428,1.403-0.643c1.104-0.645,1.894-1.436,2.369-2.369
		c0.475-0.936,0.468-1.971-0.023-3.105c-0.307-0.705-0.79-1.195-1.449-1.473c-0.659-0.275-1.388-0.367-2.185-0.275
		c-0.399,0.061-0.774,0.16-1.127,0.299s-0.698,0.268-1.035,0.391c-0.613,0.215-1.227,0.369-1.84,0.461
		c-0.613,0.092-1.487,0.137-2.622,0.137c-0.552,0-1.135-0.068-1.748-0.207c-0.613-0.137-1.181-0.375-1.702-0.713
		c-0.521-0.336-0.951-0.766-1.288-1.287c-0.337-0.521-0.506-1.182-0.506-1.979v-0.045h16.468c0.061-0.4,0.115-0.875,0.161-1.428
		c0.046-0.551,0.069-1.025,0.069-1.426c0-3.035-0.36-5.511-1.081-7.428c-0.721-1.917-1.679-3.412-2.875-4.485
		c-1.196-1.072-2.553-1.802-4.071-2.185s-3.074-0.575-4.669-0.575c-1.472,0-2.982,0.207-4.531,0.621
		c-1.549,0.414-2.959,1.112-4.232,2.093c-1.273,0.981-2.315,2.285-3.128,3.91s-1.219,3.665-1.219,6.118v4.049
		c0,2.391,0.422,4.408,1.265,6.049c0.843,1.641,1.947,2.951,3.312,3.934c1.365,0.98,2.89,1.686,4.577,2.115
		S75.072,39.653,76.728,39.653 M51.796,38.87l8.694-22.585c0.276-0.675,0.383-1.334,0.322-1.979
		c-0.061-0.644-0.23-1.233-0.506-1.771c-0.276-0.537-0.659-0.997-1.15-1.38c-0.491-0.383-1.027-0.652-1.61-0.805
		c-0.613-0.153-1.227-0.207-1.84-0.161c-0.613,0.046-1.188,0.191-1.725,0.437s-1.012,0.606-1.426,1.081
		c-0.414,0.476-0.728,1.066-0.943,1.771l-4.462,14.26l-4.6-14.214c-0.491-1.473-1.326-2.453-2.507-2.944s-2.384-0.567-3.611-0.229
		c-0.613,0.184-1.165,0.46-1.656,0.827c-0.491,0.368-0.889,0.82-1.196,1.357s-0.498,1.119-0.575,1.748
		c-0.077,0.629,0.023,1.28,0.299,1.955l8.924,22.631H51.796z M21.436,15.364v10.626c0,0.92-0.192,1.748-0.575,2.484
		c-0.383,0.734-0.866,1.355-1.449,1.861s-1.234,0.891-1.955,1.15c-0.721,0.262-1.403,0.391-2.047,0.391s-1.326-0.129-2.047-0.391
		c-0.721-0.26-1.372-0.645-1.955-1.15s-1.066-1.127-1.449-1.861c-0.383-0.736-0.575-1.564-0.575-2.484V15.364
		c0-1.012,0.176-1.886,0.529-2.622s0.82-1.349,1.403-1.84s1.227-0.852,1.932-1.081c0.705-0.23,1.426-0.345,2.162-0.345
		c0.736,0,1.457,0.114,2.162,0.345c0.705,0.229,1.349,0.59,1.932,1.081s1.05,1.104,1.403,1.84
		C21.26,13.479,21.436,14.353,21.436,15.364 M0,15.641v10.073c0,2.639,0.483,4.854,1.449,6.648c0.966,1.793,2.2,3.234,3.703,4.324
		c1.503,1.088,3.166,1.869,4.991,2.346c1.825,0.475,3.58,0.713,5.267,0.713s3.442-0.238,5.267-0.713
		c1.825-0.477,3.488-1.258,4.991-2.346c1.503-1.09,2.737-2.531,3.703-4.324c0.966-1.795,1.449-4.01,1.449-6.648V15.641
		c0-2.638-0.483-4.854-1.449-6.647c-0.966-1.794-2.2-3.235-3.703-4.324s-3.166-1.871-4.991-2.346
		c-1.825-0.476-3.58-0.713-5.267-0.713c-1.717,0-3.488,0.237-5.313,0.713C8.272,2.798,6.609,3.58,5.106,4.669
		s-2.729,2.53-3.68,4.324C0.475,10.787,0,13.003,0,15.641"/>
</g>
</svg>
