<?xml version="1.0" encoding="utf-8"?>
<!-- Generator: Adobe Illustrator 16.0.0, SVG Export Plug-In . SVG Version: 6.00 Build 0)  -->
<!DOCTYPE svg PUBLIC "-//W3C//DTD SVG 1.1//EN" "http://www.w3.org/Graphics/SVG/1.1/DTD/svg11.dtd">
<svg version="1.1" id="레이어_1" xmlns="http://www.w3.org/2000/svg" xmlns:xlink="http://www.w3.org/1999/xlink" x="0px"
	 y="0px" width="699.588px" height="384.293px" viewBox="0 0 699.588 384.293" enable-background="new 0 0 699.588 384.293"
	 xml:space="preserve">
<g>
	<g>
		<path fill="#737070" d="M192.729,257.902c0,0.43-0.35,0.77-0.77,0.77h-56.386c-4.413,0-8.004-3.591-8.004-8.003
			c0-3.655,2.462-6.742,5.809-7.696v1.783c-1.898,0.883-3.181,2.813-3.181,4.989v2.185c0,1.274,1.035,2.31,2.308,2.31h6.374
			c1.271,0,2.309-1.035,2.309-2.31v-2.185c0-2.188-1.283-4.117-3.193-4.989v-2.093h53.965c0.419,0,0.77,0.351,0.77,0.77
			c0,0.432-0.35,0.77-0.77,0.77c-3.305,0-6.034,2.494-6.415,5.706h-35.873v1.538h35.873c0.38,3.203,3.121,5.687,6.415,5.687
			C192.379,257.133,192.729,257.481,192.729,257.902"/>
		<path fill="#737070" d="M173.667,233.423c-3.275-0.801-7.868-1.379-13.518-1.379c-4.117,0-16.013,0.629-18.766,3.64
			c-0.221,0.242-0.334,0.483-0.334,0.706l-0.003,0.016c0.021,1.819,7.28,4.353,19.097,4.353c11.84,0,19.111-2.542,19.111-4.361
			C179.255,235.444,177.254,234.304,173.667,233.423"/>
		<path fill="#737070" d="M178.458,225.072c-2.634-1.946-10.161-3.303-18.31-3.303c-3.769,0-19.098,0.956-19.098,4.372v7.861
			c4.074-2.883,14.101-3.504,19.094-3.504c5.019,0,15.07,0.645,19.117,3.506v-7.863
			C179.261,225.742,178.786,225.307,178.458,225.072"/>
		<path fill="#737070" d="M160.148,209.043l-26.76,11.229l1.526,0.915v24.68c-1.815,0.358-3.18,1.959-3.18,3.878v2.185
			c0,0.432,0.35,0.77,0.77,0.77h6.373c0.422,0,0.77-0.338,0.77-0.77v-2.185c0-1.919-1.375-3.53-3.192-3.878v-23.758l3.822,2.286
			c3.289-3.5,15.097-4.166,19.872-4.166c8.582,0,16.305,1.446,19.215,3.599c0.251,0.179,0.472,0.369,0.657,0.567l6.885-4.123
			L160.148,209.043z"/>
		<path fill="#DBAAD0" d="M0,274.798c6.146-1.04,8.322-2.933,9.457-3.973v48.041h11.064v-62.887h-7.376
			c-1.796,2.553-2.837,4.161-5.296,6.052c-3.973,3.12-6.62,3.781-7.848,4.067V274.798z M26.479,318.866h5.578l-6.523,12.767h4.255
			l7.85-12.767v-12.198H26.479V318.866z M45.394,274.798c6.147-1.04,8.321-2.933,9.457-3.973v48.041h11.065v-62.887h-7.377
			c-1.797,2.553-2.837,4.161-5.294,6.052c-3.973,3.12-6.621,3.781-7.85,4.067V274.798z M74.237,304.21
			c0,4.539,0,15.507,16.267,15.507c2.458,0,7.282-0.094,11.064-3.497c3.877-3.5,4.539-8.323,4.539-11.727v-33.857
			c0-3.875,0-15.507-16.076-15.507c-4.916,0-10.213,1.418-13.334,5.86c-2.269,3.217-2.459,6.527-2.459,10.687V304.21z
			 M85.114,269.975c0-2.647,0-6.619,5.199-6.619c4.918,0,4.918,3.781,4.918,7.094v34.139c0,2.365,0,6.619-5.202,6.619
			c-4.916,0-4.916-4.351-4.916-5.863V269.975z M115.376,306.953c0,7.374,4.633,12.764,15.416,12.764
			c8.132,0,16.548-2.646,16.548-14.278v-36.504c0-7.376-3.31-13.806-15.509-13.806c-11.443,0-16.454,4.537-16.454,14.751v15.51
			c0,6.43,3.593,10.97,11.632,10.97c4.54,0,6.903-1.701,9.552-3.688v11.917c0,3.592,0,6.809-5.296,6.809
			c-4.539,0-4.823-2.931-4.917-4.067c-0.094-0.851-0.094-1.323-0.094-5.388h-10.876V306.953z M126.252,269.88
			c0-2.458,0-6.431,5.296-6.431c4.54,0,5.012,3.5,5.012,5.863v11.537c0,2.933,0,6.809-5.391,6.809c-4.917,0-4.917-3.876-4.917-6.809
			V269.88z M153.678,318.866h5.578l-6.524,12.767h4.255l7.85-12.767v-12.198h-11.158V318.866z M201.908,268.935
			c0-3.595,0-13.806-15.225-13.806c-9.268,0-15.131,3.781-15.131,13.428v6.621c0,6.714,3.121,8.51,6.525,10.117
			c-4.728,2.363-7.472,3.781-7.472,12.01v8.039c0,9.739,6.526,14.373,16.456,14.373c1.891,0,8.322,0,12.767-5.296
			c2.27-2.552,2.742-5.296,2.742-10.022v-8.512c0-7.281-3.215-8.794-7.281-10.592c5.58-2.741,6.619-4.632,6.619-10.875V268.935z
			 M181.576,295.604c0-2.175,0-6.241,5.201-6.241c4.728,0,5.106,3.592,5.106,6.241v9.74c0,3.405-1.418,5.675-5.2,5.675
			c-1.325,0-5.107,0-5.107-5.675V295.604z M181.955,268.462c0-3.973,2.932-4.729,4.822-4.729c4.728,0,4.728,3.878,4.728,5.201v6.524
			c0,2.839,0,6.053-4.633,6.053c-3.311,0-4.917-1.323-4.917-5.389V268.462z M243.33,268.935c0-3.595,0-13.806-15.225-13.806
			c-9.268,0-15.13,3.781-15.13,13.428v6.621c0,6.714,3.12,8.51,6.524,10.117c-4.729,2.363-7.47,3.781-7.47,12.01v8.039
			c0,9.739,6.523,14.373,16.454,14.373c1.892,0,8.321,0,12.768-5.296c2.269-2.552,2.742-5.296,2.742-10.022v-8.512
			c0-7.281-3.215-8.794-7.281-10.592c5.579-2.741,6.619-4.632,6.619-10.875V268.935z M222.999,295.604c0-2.175,0-6.241,5.2-6.241
			c4.729,0,5.106,3.592,5.106,6.241v9.74c0,3.405-1.418,5.675-5.2,5.675c-1.324,0-5.106,0-5.106-5.675V295.604z M223.376,268.462
			c0-3.973,2.932-4.729,4.823-4.729c4.729,0,4.729,3.878,4.729,5.201v6.524c0,2.839,0,6.053-4.635,6.053
			c-3.31,0-4.918-1.323-4.918-5.389V268.462z M253.639,304.21c0,4.539,0,15.507,16.266,15.507c2.459,0,7.283-0.094,11.064-3.497
			c3.877-3.5,4.541-8.323,4.541-11.727v-33.857c0-3.875,0-15.507-16.077-15.507c-4.917,0-10.214,1.418-13.335,5.86
			c-2.27,3.217-2.458,6.527-2.458,10.687V304.21z M264.515,269.975c0-2.647,0-6.619,5.201-6.619c4.918,0,4.918,3.781,4.918,7.094
			v34.139c0,2.365,0,6.619-5.202,6.619c-4.917,0-4.917-4.351-4.917-5.863V269.975z M291.658,318.866h5.579l-6.525,12.767h4.255
			l7.848-12.767v-12.198h-11.157V318.866z M308.774,304.21c0,4.539,0,15.507,16.266,15.507c2.458,0,7.282-0.094,11.064-3.497
			c3.878-3.5,4.54-8.323,4.54-11.727v-33.857c0-3.875,0-15.507-16.077-15.507c-4.917,0-10.213,1.418-13.333,5.86
			c-2.269,3.217-2.459,6.527-2.459,10.687V304.21z M319.65,269.975c0-2.647,0-6.619,5.201-6.619c4.917,0,4.917,3.781,4.917,7.094
			v34.139c0,2.365,0,6.619-5.202,6.619c-4.917,0-4.917-4.351-4.917-5.863V269.975z M346.224,304.21c0,4.539,0,15.507,16.266,15.507
			c2.459,0,7.282-0.094,11.065-3.497c3.876-3.5,4.539-8.323,4.539-11.727v-33.857c0-3.875,0-15.507-16.077-15.507
			c-4.916,0-10.214,1.418-13.333,5.86c-2.27,3.217-2.46,6.527-2.46,10.687V304.21z M357.102,269.975c0-2.647,0-6.619,5.2-6.619
			c4.916,0,4.916,3.781,4.916,7.094v34.139c0,2.365,0,6.619-5.2,6.619c-4.916,0-4.916-4.351-4.916-5.863V269.975z M383.677,304.21
			c0,4.539,0,15.507,16.264,15.507c2.459,0,7.282-0.094,11.064-3.497c3.879-3.5,4.541-8.323,4.541-11.727v-33.857
			c0-3.875,0-15.507-16.076-15.507c-4.92,0-10.215,1.418-13.336,5.86c-2.27,3.217-2.457,6.527-2.457,10.687V304.21z M394.55,269.975
			c0-2.647,0-6.619,5.203-6.619c4.916,0,4.916,3.781,4.916,7.094v34.139c0,2.365,0,6.619-5.199,6.619c-4.92,0-4.92-4.351-4.92-5.863
			V269.975z"/>
		<path fill="#DBAAD0" d="M428.517,285.479c-3.043,0-4.922,1.631-4.922,3.48c0,1.874,1.858,3.485,4.922,3.485
			c3.061,0,4.92-1.588,4.92-3.485C433.437,287.11,431.601,285.479,428.517,285.479 M438.358,300.563v-14.977h-1.585v11.125h-4.983
			v1.306h4.983v2.546H438.358z M436.034,294.621v-1.327c-0.949,0.172-4.457,0.521-6.887,0.564l-7.221,0.043v1.309h4.836v3.613h1.563
			v-3.637C431.451,295.187,434.535,294.881,436.034,294.621 M438.843,304.307v-1.348h-12.017v-3.354h-1.563v4.701H438.843z
			 M428.517,286.763c2.301,0,3.379,1.177,3.379,2.197c0,1.004-1.078,2.157-3.359,2.157c-2.261,0-3.38-1.153-3.38-2.157
			C425.156,287.939,426.235,286.763,428.517,286.763"/>
		<path fill="#737070" d="M9.685,361.122c-1.575,0-2.274,1.141-2.293,2.335h0.847c0.041-0.741,0.359-1.504,1.427-1.504
			c0.887,0,1.326,0.537,1.326,1.412c0,0.646-0.398,1.141-0.937,1.542l-1.186,0.872c-1.356,0.988-1.676,1.975-1.685,2.963h4.786
			v-0.801H8.269c0.169-0.617,0.717-1.152,1.095-1.432l1.178-0.831c0.617-0.442,1.457-1.143,1.457-2.324
			C11.999,362.151,11.25,361.122,9.685,361.122 M14.832,361.235c-1.705,0-2.591,1.554-2.591,3.827c0,2.281,0.886,3.854,2.591,3.854
			c1.706,0,2.622-1.572,2.622-3.854C17.454,362.789,16.537,361.235,14.832,361.235 M14.832,368.063
			c-1.025,0-1.575-1.307-1.575-3.001c0-1.708,0.549-2.984,1.575-2.984c1.058,0,1.575,1.276,1.575,2.984
			C16.407,366.757,15.889,368.063,14.832,368.063 M20.47,361.235c-1.706,0-2.594,1.554-2.594,3.827c0,2.281,0.888,3.854,2.594,3.854
			c1.705,0,2.622-1.572,2.622-3.854C23.091,362.789,22.174,361.235,20.47,361.235 M20.47,368.063c-1.028,0-1.577-1.307-1.577-3.001
			c0-1.708,0.548-2.984,1.577-2.984c1.056,0,1.575,1.276,1.575,2.984C22.044,366.757,21.525,368.063,20.47,368.063 M25.836,361.122
			c-1.575,0-2.273,1.141-2.292,2.335h0.846c0.04-0.741,0.36-1.504,1.426-1.504c0.886,0,1.326,0.537,1.326,1.412
			c0,0.646-0.398,1.141-0.937,1.542l-1.186,0.872c-1.357,0.988-1.675,1.975-1.684,2.963h4.784v-0.801H24.42
			c0.169-0.617,0.718-1.152,1.097-1.432l1.175-0.831c0.617-0.442,1.456-1.143,1.456-2.324
			C28.148,362.151,27.401,361.122,25.836,361.122 M36.138,367.129v-6.551h-0.997v0.976h-2.522v0.823h2.522v0.812h-2.522v0.834h2.522
			v3.106H36.138z M36.339,369.421v-0.863h-5.484v-1.871h-0.997v2.734H36.339z M34.214,365.473v-0.845
			c-0.679,0.145-1.954,0.299-3.141,0.32l-1.185,0.021v-4.014h-0.997v4.877l2.173-0.021C32.39,365.79,33.636,365.605,34.214,365.473
			 M44.668,364.823v-4.05h-0.996v1.099h-4.507v-1.099h-0.998v4.05H44.668z M45.805,366.665v-0.864h-8.774v0.864h3.888v2.963h0.998
			v-2.963H45.805z M43.672,363.96h-4.506v-1.223h4.506V363.96z M53.767,369.628v-9.05h-0.999v3.238h-1.603v0.863h1.603v4.948H53.767
			z M51.752,367.507v-0.872c-0.527,0.071-1.416,0.154-2.153,0.185c-0.946,0.052-1.885,0.041-1.934,0.041v-1.882h3.088v-0.894h-3.088
			v-1.719h3.23v-0.864h-4.228v6.252c0.09,0,1.786,0.011,2.902-0.052C50.327,367.662,51.204,367.58,51.752,367.507 M60.345,361.122
			c-1.578,0-2.273,1.141-2.293,2.335h0.847c0.04-0.741,0.359-1.504,1.426-1.504c0.888,0,1.325,0.537,1.325,1.412
			c0,0.646-0.397,1.141-0.937,1.542l-1.188,0.872c-1.355,0.988-1.674,1.975-1.684,2.963h4.786v-0.801h-3.699
			c0.169-0.617,0.718-1.152,1.096-1.432l1.178-0.831c0.616-0.442,1.456-1.143,1.456-2.324
			C62.659,362.151,61.911,361.122,60.345,361.122 M65.492,361.235c-1.705,0-2.593,1.554-2.593,3.827
			c0,2.281,0.888,3.854,2.593,3.854c1.706,0,2.622-1.572,2.622-3.854C68.114,362.789,67.198,361.235,65.492,361.235 M65.492,368.063
			c-1.028,0-1.578-1.307-1.578-3.001c0-1.708,0.55-2.984,1.578-2.984c1.058,0,1.575,1.276,1.575,2.984
			C67.067,366.757,66.55,368.063,65.492,368.063 M70.93,368.805l0.009-7.468h-0.678c-0.029,0.401-0.259,0.793-0.519,0.988
			c-0.357,0.258-0.766,0.38-1.225,0.391v0.741h1.535v5.348H70.93z M74.371,361.144c-1.375,0-2.394,1.1-2.394,2.496
			c0,1.358,0.898,2.512,2.245,2.594c0.757,0.04,1.345-0.37,1.804-0.834c0,0.434,0.01,1.021-0.208,1.604
			c-0.22,0.587-0.56,1.163-1.406,1.163c-0.869,0-1.427-0.72-1.486-1.255h-0.899c0.112,1.048,1.088,2.088,2.344,2.088
			c1.185,0,1.944-0.689,2.354-1.862c0.388-1.079,0.4-3.096,0.059-4.082C76.416,361.964,75.657,361.144,74.371,361.144
			 M74.412,365.36c-0.869,0-1.465-0.713-1.465-1.721c0-0.994,0.597-1.687,1.465-1.687c0.867,0,1.456,0.7,1.456,1.687
			C75.867,364.639,75.278,365.36,74.412,365.36 M85.043,367.129v-6.551h-0.997v0.976h-2.523v0.823h2.523v0.812h-2.523v0.834h2.523
			v3.106H85.043z M85.241,369.421v-0.863h-5.482v-1.871h-0.997v2.734H85.241z M83.118,365.473v-0.845
			c-0.677,0.145-1.953,0.299-3.14,0.32l-1.188,0.021v-4.014h-0.996v4.877l2.174-0.021C81.294,365.79,82.541,365.605,83.118,365.473
			 M89.187,361.697h-2.672v0.864h1.594c-0.07,1.194-0.45,3.436-2.243,4.823l0.858,0.421
			C88.639,366.192,89.196,363.229,89.187,361.697 M91.938,361.697h-2.403v0.864h1.326c-0.11,1.542-0.717,3.807-2.472,5.369
			l0.877,0.432C91.339,366.368,91.878,363.498,91.938,361.697 M92.825,360.578v9.05h0.998v-4.402h1.227V364.3h-1.227v-3.722H92.825z
			 M103.01,360.578h-0.997v9.05h0.997V360.578z M100.937,367.034c-1.686-0.965-2.304-2.466-2.304-3.927v-0.682h1.995v-0.892h-5.085
			v0.892h1.984v0.682c0,1.49-0.578,3.126-2.591,4.299l0.817,0.698c0.898-0.606,1.945-1.605,2.323-2.819
			c0.27,0.939,1.406,2.018,2.173,2.54L100.937,367.034z M110.802,364.813c0.621-0.408,0.969-1.057,0.969-1.624
			c0-1.121-1.105-2.066-2.402-2.066c-1.347,0-2.413,0.945-2.413,2.066c0,0.567,0.339,1.216,0.967,1.635
			c-0.778,0.483-1.216,1.195-1.216,1.904c0,1.222,1.195,2.283,2.662,2.283c1.434,0,2.663-1.062,2.663-2.283
			C112.031,366.019,111.572,365.307,110.802,364.813 M109.369,364.372c-1.017,0-1.446-0.534-1.446-1.194
			c0-0.677,0.429-1.225,1.446-1.225c0.927,0,1.434,0.548,1.434,1.225C110.802,363.838,110.295,364.372,109.369,364.372
			 M109.369,368.196c-1.066,0-1.697-0.657-1.697-1.469c0-0.823,0.63-1.432,1.697-1.432c1.026,0,1.695,0.608,1.695,1.432
			C111.063,367.539,110.395,368.196,109.369,368.196 M114.407,361.144c-1.376,0-2.395,1.1-2.395,2.496
			c0,1.358,0.899,2.512,2.245,2.594c0.757,0.04,1.346-0.37,1.804-0.834c0,0.434,0.011,1.021-0.209,1.604
			c-0.22,0.587-0.558,1.163-1.405,1.163c-0.868,0-1.429-0.72-1.487-1.255h-0.898c0.111,1.048,1.087,2.088,2.344,2.088
			c1.187,0,1.943-0.689,2.353-1.862c0.388-1.079,0.398-3.096,0.061-4.082C116.452,361.964,115.693,361.144,114.407,361.144
			 M114.448,365.36c-0.868,0-1.466-0.713-1.466-1.721c0-0.994,0.599-1.687,1.466-1.687c0.866,0,1.456,0.7,1.456,1.687
			C115.903,364.639,115.314,365.36,114.448,365.36 M122.356,367.396v-0.782h-1.087v-5.307l-0.917,0.009l-3.31,5.031v1.049h3.33
			v1.409h0.897v-1.409H122.356z M120.373,366.613h-2.474l2.422-3.753l0.051,0.019V366.613z M130.215,366.059v-5.48h-0.996v1.429
			h-2.036v-0.822h-4.266v4.144h4.266v-0.822h2.036v1.553H130.215z M129.219,363.672h-2.036v-0.844h2.036V363.672z M126.188,364.454
			h-2.274v-2.406h2.274V364.454z M130.276,367.96c0-1.059-1.146-1.83-3.342-1.83c-2.182,0-3.338,0.771-3.338,1.83
			c0,1.06,1.156,1.812,3.338,1.812C129.129,369.771,130.276,369.02,130.276,367.96 M129.21,367.96c0,0.606-0.908,0.988-2.276,0.988
			c-1.374,0-2.281-0.391-2.281-0.999c0-0.616,0.908-0.964,2.281-0.964C128.302,366.985,129.21,367.344,129.21,367.96
			 M139.255,360.578h-0.997v9.05h0.997V360.578z M137.898,367.591v-0.885c-0.858,0.092-2.445,0.185-3.979,0.206l-2.472,0.013v0.861
			l2.393-0.011C135.196,367.754,137.269,367.653,137.898,367.591 M134.397,361.111c-1.444,0-2.481,1.04-2.481,2.262
			c0,1.235,1.037,2.273,2.481,2.273c1.448,0,2.494-1.038,2.494-2.273C136.892,362.151,135.845,361.111,134.397,361.111
			 M135.865,363.373c0,0.761-0.539,1.399-1.467,1.399c-0.916,0-1.454-0.639-1.454-1.399c0-0.741,0.538-1.386,1.454-1.386
			C135.326,361.987,135.865,362.632,135.865,363.373 M147.568,360.535h-2.921v0.793h2.921V360.535z M148.883,361.923h-5.554v0.793
			h5.554V361.923z M151.983,363.949v-0.894h-1.246v-2.478h-0.988v5.758h0.988v-2.387H151.983z M146.102,366.151
			c1.516,0,2.393-0.648,2.393-1.504c0-0.851-0.858-1.48-2.373-1.48c-1.465,0-2.404,0.63-2.404,1.48
			C143.718,365.503,144.666,366.151,146.102,366.151 M150.748,369.628v-2.737h-6.481v0.812h5.465v1.926H150.748z M147.427,364.639
			c0,0.442-0.43,0.761-1.306,0.761c-0.876,0-1.326-0.308-1.326-0.752c0-0.43,0.449-0.729,1.326-0.729
			C146.997,363.919,147.427,364.207,147.427,364.639 M160.215,366.13v-5.552h-0.967v2.17h-1.037v-2.018h-0.966v5.041h0.966v-2.11
			h1.037v2.469H160.215z M160.254,367.949c0-1.059-1.166-1.828-3.409-1.828c-2.233,0-3.41,0.77-3.41,1.828
			c0,1.062,1.177,1.822,3.41,1.822C159.088,369.771,160.254,369.011,160.254,367.949 M159.188,367.96
			c0,0.606-0.949,0.988-2.334,0.988c-1.416,0-2.362-0.391-2.362-0.999c0-0.616,0.947-0.985,2.362-0.985
			C158.239,366.964,159.188,367.344,159.188,367.96 M156.945,364.813c-1.625-0.81-1.955-2.303-1.955-3.155v-0.804h-1.048v0.804
			c0,0.853-0.278,2.406-2.093,3.506l0.787,0.648c0.828-0.554,1.655-1.472,1.835-2.129c0.389,0.73,1.207,1.575,1.845,1.86
			L156.945,364.813z M164.2,364.772c0,1.379-0.4,2.457-1.038,2.457c-0.667,0-1.057-1.078-1.057-2.457
			c0-1.378,0.39-2.447,1.057-2.447C163.8,362.325,164.2,363.405,164.2,364.772 M165.166,364.229
			c-0.141-1.728-0.929-2.811-2.015-2.811c-1.175,0-2.034,1.298-2.034,3.365c0,2.077,0.859,3.354,2.034,3.354
			c1.117,0,1.925-1.122,2.024-2.952h0.927v4.03h0.969v-8.433h-0.969v3.446H165.166z M168.884,360.578h-0.968v9.05h0.968V360.578z
			 M175.869,369.215v-8.422h-0.968v3.271h-1.236v0.967h1.236v4.185H175.869z M177.714,360.578h-0.969v9.05h0.969V360.578z
			 M173.795,361.728h-3.499v0.875h2.401c0.011,1.501-0.936,3.714-2.931,4.825l0.739,0.584
			C172.917,366.521,173.795,363.784,173.795,361.728 M190.264,366.171v-0.854h-3.859v-1.007h-1.057v1.007h-3.859v0.854H190.264z
			 M189.366,368.196c0-0.915-1.247-1.594-3.49-1.594c-2.232,0-3.499,0.679-3.499,1.594c0,0.916,1.267,1.595,3.499,1.595
			C188.119,369.791,189.366,369.112,189.366,368.196 M183.515,368.188c0-0.567,0.936-0.804,2.352-0.804
			c1.406,0,2.344,0.269,2.344,0.822c0,0.503-0.929,0.793-2.335,0.793C184.45,369,183.515,368.68,183.515,368.188 M187.672,360.443
			h-3.6v0.801h3.6V360.443z M185.208,362.664c-0.228,0.299-0.996,1.12-3.16,1.307l0.578,0.761c1.157-0.02,2.932-0.854,3.271-1.42
			c0.548,0.7,2.183,1.327,3.249,1.42l0.58-0.761c-2.064-0.215-2.932-1.008-3.17-1.307h2.671v-0.801h-6.7v0.801H185.208z
			 M196.043,368.805l0.008-7.468h-0.676c-0.031,0.401-0.259,0.793-0.519,0.988c-0.358,0.258-0.768,0.38-1.227,0.391v0.741h1.536
			v5.348H196.043z M199.645,368.805l0.011-7.468h-0.68c-0.028,0.401-0.259,0.793-0.518,0.988c-0.359,0.258-0.768,0.38-1.226,0.391
			v0.741h1.535v5.348H199.645z M204.842,363.086c0,0.741-0.499,1.347-1.396,1.347c-0.898,0-1.406-0.605-1.406-1.347
			c0-0.73,0.508-1.337,1.406-1.337C204.343,361.749,204.842,362.355,204.842,363.086 M205.799,362.529
			c-0.259-0.956-1.157-1.654-2.353-1.654c-1.416,0-2.433,0.988-2.433,2.211c0,1.225,1.017,2.221,2.433,2.221
			c1.274,0,2.213-0.812,2.391-1.86h1.815v2.417h0.997v-5.285h-0.997v1.951H205.799z M208.64,369.628v-3.231h-6.479v0.865h5.493
			v2.366H208.64z M215.059,361.144c-1.375,0-2.393,1.1-2.393,2.496c0,1.358,0.898,2.512,2.243,2.594
			c0.758,0.04,1.347-0.37,1.805-0.834c0,0.434,0.01,1.021-0.209,1.604c-0.22,0.587-0.559,1.163-1.406,1.163
			c-0.867,0-1.425-0.72-1.485-1.255h-0.896c0.108,1.048,1.084,2.088,2.342,2.088c1.187,0,1.945-0.689,2.353-1.862
			c0.39-1.079,0.399-3.096,0.06-4.082C217.103,361.964,216.345,361.144,215.059,361.144 M215.099,365.36
			c-0.867,0-1.465-0.713-1.465-1.721c0-0.994,0.598-1.687,1.465-1.687c0.868,0,1.456,0.7,1.456,1.687
			C216.554,364.639,215.966,365.36,215.099,365.36 M221.861,364.813c0.619-0.408,0.966-1.057,0.966-1.624
			c0-1.121-1.105-2.066-2.4-2.066c-1.347,0-2.413,0.945-2.413,2.066c0,0.567,0.339,1.216,0.967,1.635
			c-0.778,0.483-1.216,1.195-1.216,1.904c0,1.222,1.196,2.283,2.663,2.283c1.434,0,2.662-1.062,2.662-2.283
			C223.089,366.019,222.629,365.307,221.861,364.813 M220.427,364.372c-1.018,0-1.446-0.534-1.446-1.194
			c0-0.677,0.429-1.225,1.446-1.225c0.926,0,1.434,0.548,1.434,1.225C221.861,363.838,221.353,364.372,220.427,364.372
			 M220.427,368.196c-1.067,0-1.696-0.657-1.696-1.469c0-0.823,0.628-1.432,1.696-1.432c1.025,0,1.693,0.608,1.693,1.432
			C222.12,367.539,221.452,368.196,220.427,368.196 M227.109,364.813c0.619-0.408,0.967-1.057,0.967-1.624
			c0-1.121-1.106-2.066-2.403-2.066c-1.346,0-2.413,0.945-2.413,2.066c0,0.567,0.34,1.216,0.968,1.635
			c-0.778,0.483-1.217,1.195-1.217,1.904c0,1.222,1.197,2.283,2.663,2.283c1.436,0,2.662-1.062,2.662-2.283
			C228.335,366.019,227.877,365.307,227.109,364.813 M225.673,364.372c-1.016,0-1.445-0.534-1.445-1.194
			c0-0.677,0.429-1.225,1.445-1.225c0.928,0,1.436,0.548,1.436,1.225C227.109,363.838,226.601,364.372,225.673,364.372
			 M225.673,368.196c-1.066,0-1.695-0.657-1.695-1.469c0-0.823,0.628-1.432,1.695-1.432c1.026,0,1.694,0.608,1.694,1.432
			C227.367,367.539,226.7,368.196,225.673,368.196 M233.145,361.185h-4.366v4.367h4.366V361.185z M237.072,364.055v-0.896h-1.235
			v-2.58h-0.997v6.551h0.997v-3.074H237.072z M236.135,369.421v-0.863h-5.444v-2.026h-0.996v2.89H236.135z M232.158,364.69h-2.384
			v-2.643h2.384V364.69z M248.426,367.53v-6.952h-0.999v5.142h-2.061v0.822h2.061v0.988H248.426z M247.11,364.907v-0.853
			c-0.439,0.09-2.532,0.285-3.739,0.285h-2.782v0.845h2.164v1.562h0.995v-1.572C244.778,365.174,246.383,365.03,247.11,364.907
			 M248.646,369.421v-0.863h-5.614v-1.42h-0.998v2.283H248.646z M243.64,361.266c0.988,0,1.387,0.516,1.387,0.864
			c0,0.328-0.399,0.822-1.376,0.822c-0.958,0-1.376-0.494-1.376-0.822C242.274,361.781,242.664,361.266,243.64,361.266
			 M243.64,360.483c-1.515,0-2.333,0.771-2.333,1.646c0,0.894,0.808,1.646,2.333,1.646c1.525,0,2.334-0.741,2.334-1.646
			C245.974,361.244,245.196,360.483,243.64,360.483 M257.286,360.578h-0.998v9.05h0.998V360.578z M255.929,367.591v-0.885
			c-0.856,0.092-2.442,0.185-3.978,0.206l-2.473,0.013v0.861l2.394-0.011C253.227,367.754,255.301,367.653,255.929,367.591
			 M252.43,361.111c-1.446,0-2.484,1.04-2.484,2.262c0,1.235,1.038,2.273,2.484,2.273c1.445,0,2.492-1.038,2.492-2.273
			C254.922,362.151,253.875,361.111,252.43,361.111 M253.895,363.373c0,0.761-0.539,1.399-1.465,1.399
			c-0.919,0-1.456-0.639-1.456-1.399c0-0.741,0.536-1.386,1.456-1.386C253.356,361.987,253.895,362.632,253.895,363.373
			 M270.194,363.528v-0.937h-1.287v-2.014h-0.996v5.48h0.996v-2.53H270.194z M267.023,364.669c-1.665-0.524-2.333-1.418-2.333-2.673
			h1.855v-0.863h-4.786v0.863h1.853c0,1.255-0.538,2.232-2.461,2.982l0.697,0.72c0.737-0.286,1.984-1.173,2.293-1.975
			c0.627,0.845,1.604,1.543,2.303,1.728L267.023,364.669z M269.147,368.022c0-1.019-1.135-1.771-3.31-1.771
			c-2.163,0-3.311,0.752-3.311,1.771s1.148,1.749,3.311,1.749C268.012,369.771,269.147,369.041,269.147,368.022 M268.071,368.033
			c0,0.557-0.908,0.935-2.233,0.935c-1.346,0-2.243-0.378-2.243-0.935c0-0.578,0.897-0.956,2.243-0.956
			C267.163,367.077,268.071,367.455,268.071,368.033 M274.428,360.535h-2.921v0.793h2.921V360.535z M275.743,361.923h-5.554v0.793
			h5.554V361.923z M278.844,363.949v-0.894h-1.247v-2.478h-0.988v5.758h0.988v-2.387H278.844z M272.961,366.151
			c1.516,0,2.393-0.648,2.393-1.504c0-0.851-0.858-1.48-2.373-1.48c-1.465,0-2.402,0.63-2.402,1.48
			C270.579,365.503,271.525,366.151,272.961,366.151 M277.607,369.628v-2.737h-6.482v0.812h5.466v1.926H277.607z M274.287,364.639
			c0,0.442-0.428,0.761-1.306,0.761c-0.877,0-1.326-0.308-1.326-0.752c0-0.43,0.449-0.729,1.326-0.729
			C273.859,363.919,274.287,364.207,274.287,364.639 M287.493,365.07v-0.863h-1.484c0.118-0.483,0.458-1.766,0.527-3.259h-6.808
			v0.861h5.662c-0.07,0.822-0.299,1.936-0.399,2.397h-6.271v0.863H287.493z M286.357,366.08h-6.5v3.444h6.5V366.08z M285.33,368.669
			h-4.456v-1.735h4.456V368.669z M291.936,360.505c-2.204,0-3.37,0.709-3.37,1.654c0,0.959,1.167,1.638,3.37,1.638
			c2.213,0,3.359-0.689,3.359-1.646C295.295,361.235,294.149,360.505,291.936,360.505 M296.322,364.404h-8.773v0.789h8.773V364.404z
			 M294.18,362.159c0,0.494-0.849,0.888-2.224,0.888c-1.406,0-2.275-0.394-2.275-0.896c0-0.505,0.819-0.875,2.244-0.875
			C293.322,361.276,294.18,361.657,294.18,362.159 M295.405,369.524v-0.782h-5.662v-0.698h5.443v-2.181h-6.501v0.771h5.433v0.657
			h-5.433v2.232H295.405z M307.765,360.578h-0.998v9.05h0.998V360.578z M305.691,367.034c-1.684-0.965-2.303-2.466-2.303-3.927
			v-0.682h1.995v-0.892h-5.084v0.892h1.982v0.682c0,1.49-0.576,3.126-2.591,4.299l0.818,0.698c0.897-0.606,1.945-1.605,2.323-2.819
			c0.27,0.939,1.405,2.018,2.172,2.54L305.691,367.034z M317.124,364.927v-0.863h-1.525c0.279-0.834,0.546-2.632,0.578-3.115h-6.819
			v0.861h5.663c-0.069,0.732-0.329,1.83-0.449,2.254h-6.22v0.863H317.124z M315.986,369.524v-3.889h-1.017v1.07h-4.456v-1.07h-1.028
			v3.889H315.986z M314.97,368.693h-4.456v-1.154h4.456V368.693z M320.837,360.671h-2.312v0.79h2.312V360.671z M321.925,361.996
			h-4.456v0.791h4.456V361.996z M325.464,366.048v-5.47h-0.937v2.282H323.5v-2.13h-0.937v5.307h0.937v-2.281h1.027v2.292H325.464z
			 M321.696,364.639c0-0.854-0.768-1.418-2.004-1.418c-1.216,0-2.013,0.563-2.013,1.407c0,0.855,0.797,1.452,2.004,1.452
			C320.918,366.08,321.696,365.483,321.696,364.639 M322.104,368.538c-0.768-0.494-1.137-1.563-1.137-1.884v-0.155h-1.007v0.155
			c0,0.752-0.788,1.789-1.797,2.294l0.65,0.669c0.668-0.29,1.397-0.988,1.655-1.676c0.349,0.688,1.026,1.418,1.645,1.676
			c0.736-0.29,1.307-0.988,1.625-1.676c0.319,0.688,0.998,1.418,1.655,1.676l0.649-0.669c-0.988-0.505-1.795-1.542-1.795-2.294
			v-0.155h-1.008v0.155C323.24,366.975,322.95,368.001,322.104,368.538 M320.719,364.639c0,0.424-0.319,0.689-1.027,0.689
			c-0.689,0-1.028-0.266-1.028-0.689c0-0.41,0.339-0.668,1.028-0.668C320.399,363.971,320.719,364.229,320.719,364.639
			 M333.693,363.569c0-1.358-1.285-2.366-3.298-2.366c-1.983,0-3.299,1.019-3.299,2.366c0,1.347,1.304,2.365,3.299,2.365
			S333.693,364.927,333.693,363.569 M334.781,367.466h-8.774v0.866h8.774V367.466z M332.638,363.569
			c0,0.926-1.036,1.461-2.243,1.461c-1.206,0-2.242-0.535-2.242-1.461c0-0.945,1.045-1.459,2.242-1.459
			C331.602,362.11,332.638,362.624,332.638,363.569 M338.846,366.83h-2.174v-4.288h2.174V366.83z M339.841,362.982v-1.304h-4.167
			v6.016h4.167v-1.564h1.886v3.498h0.998v-9.05h-0.998v2.404H339.841z M339.841,363.849h1.886v1.42h-1.886V363.849z
			 M344.205,368.012v1.203h0.767c0,0.228-0.628,0.66-0.767,0.668l0.309,0.372c0.119-0.032,0.519-0.204,0.738-0.526
			c0.19-0.267,0.299-0.492,0.299-0.853v-0.864H344.205z"/>
		<path fill="#737070" d="M9.685,375.646c-1.575,0-2.274,1.141-2.293,2.333h0.847c0.041-0.741,0.359-1.502,1.427-1.502
			c0.887,0,1.326,0.535,1.326,1.409c0,0.649-0.398,1.142-0.937,1.543l-1.186,0.874c-1.356,0.986-1.676,1.975-1.685,2.963h4.786
			v-0.804H8.269c0.169-0.616,0.717-1.151,1.095-1.429l1.178-0.833c0.617-0.442,1.457-1.141,1.457-2.325
			C11.999,376.672,11.25,375.646,9.685,375.646 M14.832,375.757c-1.705,0-2.591,1.554-2.591,3.826c0,2.284,0.886,3.856,2.591,3.856
			c1.706,0,2.622-1.572,2.622-3.856C17.454,377.311,16.537,375.757,14.832,375.757 M14.832,382.587
			c-1.025,0-1.575-1.307-1.575-3.004c0-1.708,0.549-2.983,1.575-2.983c1.058,0,1.575,1.275,1.575,2.983
			C16.407,381.28,15.889,382.587,14.832,382.587 M20.47,375.757c-1.706,0-2.594,1.554-2.594,3.826c0,2.284,0.888,3.856,2.594,3.856
			c1.705,0,2.622-1.572,2.622-3.856C23.091,377.311,22.174,375.757,20.47,375.757 M20.47,382.587c-1.028,0-1.577-1.307-1.577-3.004
			c0-1.708,0.548-2.983,1.577-2.983c1.056,0,1.575,1.275,1.575,2.983C22.044,381.28,21.525,382.587,20.47,382.587 M27.023,379.398
			c0.488-0.247,1.017-0.771,1.017-1.687c0-1.059-1.067-2.047-2.255-2.047c-1.225,0-2.292,0.771-2.263,2.17h0.848
			c0-0.669,0.39-1.348,1.387-1.348c0.796,0,1.295,0.565,1.295,1.225c0,0.576-0.259,0.986-0.787,1.244
			c-0.258,0.111-0.649,0.125-0.967,0.125v0.79c0.318,0,0.637,0.02,0.967,0.114c0.508,0.122,0.987,0.586,0.987,1.233
			c0,0.812-0.569,1.469-1.467,1.469c-1.046,0-1.592-0.812-1.592-1.529h-0.858c0,1.282,1.035,2.363,2.45,2.363
			c1.467,0,2.474-0.967,2.474-2.284C28.259,380.521,27.82,379.83,27.023,379.398 M36.328,381.65V375.1h-0.996v0.978h-2.524v0.82
			h2.524v0.814h-2.524v0.832h2.524v3.106H36.328z M36.526,383.942v-0.863h-5.484v-1.871h-0.996v2.734H36.526z M34.403,379.994
			v-0.843c-0.677,0.145-1.955,0.299-3.14,0.318l-1.188,0.021v-4.012H29.08v4.875l2.174-0.02
			C32.579,380.313,33.825,380.127,34.403,379.994 M42.948,383.326l0.008-7.466h-0.678c-0.029,0.401-0.26,0.793-0.519,0.986
			c-0.358,0.258-0.767,0.382-1.225,0.391v0.741h1.535v5.348H42.948z M52.13,380.363V375.1h-0.997v4.215H49.07v0.733h2.063v0.315
			H52.13z M50.815,378.761v-0.813c-0.431,0.093-2.833,0.288-3.8,0.288h-2.722v0.791h2.164v1.347h0.998v-1.357
			C48.243,379.017,50.196,378.874,50.815,378.761 M52.29,384.048v-0.773h-5.443v-0.473h5.254v-2.045h-6.36v0.76h5.244v0.535H45.74
			v1.996H52.29z M47.344,375.694c0.978,0,1.357,0.383,1.357,0.68c0,0.319-0.389,0.638-1.357,0.638c-0.946,0-1.355-0.318-1.355-0.657
			C45.989,376.077,46.408,375.694,47.344,375.694 M47.344,374.904c-1.456,0-2.343,0.689-2.343,1.47c0,0.822,0.869,1.42,2.343,1.42
			c1.486,0,2.344-0.606,2.344-1.42C49.688,375.572,48.841,374.904,47.344,374.904 M63.643,380.303v-0.863h-5.522v-2.542h5.473
			v-0.863h-6.47v4.269H63.643z M64.71,382h-8.774v0.864h8.774V382z M72.731,375.1h-0.995v5.339h0.995V375.1z M72.703,380.931H66.43
			v3.115h6.273V380.931z M71.706,383.182h-4.277v-1.386h4.277V383.182z M71.047,379.871v-0.833
			c-0.618,0.081-1.904,0.195-2.772,0.206l-1.833,0.009v-0.986H69.9v-2.684h-4.447v0.853h3.449v0.997h-3.449v2.675l2.443-0.02
			C69.023,380.066,70.398,379.966,71.047,379.871 M79.237,376.097h-5.304v0.874h5.304V376.097z M80.175,375.1v9.052h0.998v-4.639
			h1.315v-0.926h-1.315V375.1H80.175z M79.656,381.928v-0.884c-0.438,0.061-1.037,0.093-1.396,0.114l0.14-3.815h-0.987l-0.14,3.856
			c-0.448,0.009-0.797,0.009-1.425,0.02l-0.119-3.876h-0.998l0.139,3.876h-1.186v0.885l3.629-0.032
			C78.061,382.061,78.979,382.011,79.656,381.928 M91.198,382.771v-0.863h-1.835c0.4-1.441,0.779-4.907,0.779-5.771h-6.658v0.863
			h5.562c-0.021,0.464-0.069,0.845-0.16,1.678c-0.539,0.082-1.336,0.134-2.054,0.177c-0.907,0.049-3.399,0.027-3.53,0.027v0.864
			c0.119,0,2.403,0.021,3.5-0.041c0.678-0.03,1.405-0.071,1.954-0.152c-0.13,0.967-0.309,1.86-0.409,2.354h-5.922v0.863H91.198z
			 M100.386,378.052v-0.937h-1.287V375.1h-0.996v5.48h0.996v-2.528H100.386z M97.214,379.192c-1.665-0.524-2.333-1.42-2.333-2.675
			h1.855v-0.863h-4.784v0.863h1.851c0,1.255-0.537,2.232-2.462,2.982l0.698,0.72c0.738-0.286,1.985-1.171,2.294-1.975
			c0.627,0.844,1.605,1.545,2.304,1.728L97.214,379.192z M99.339,382.544c0-1.017-1.137-1.769-3.312-1.769
			c-2.162,0-3.31,0.752-3.31,1.769c0,1.019,1.147,1.749,3.31,1.749C98.202,384.293,99.339,383.563,99.339,382.544 M98.263,382.555
			c0,0.557-0.908,0.937-2.235,0.937c-1.344,0-2.242-0.38-2.242-0.937c0-0.576,0.898-0.956,2.242-0.956
			C97.355,381.599,98.263,381.979,98.263,382.555 M104.619,375.059h-2.921v0.791h2.921V375.059z M105.935,376.446h-5.554v0.791
			h5.554V376.446z M109.035,378.473v-0.894h-1.246V375.1h-0.987v5.758h0.987v-2.385H109.035z M103.153,380.673
			c1.515,0,2.392-0.646,2.392-1.502c0-0.853-0.856-1.48-2.372-1.48c-1.465,0-2.404,0.628-2.404,1.48
			C100.769,380.026,101.716,380.673,103.153,380.673 M107.799,384.151v-2.737h-6.48v0.812h5.464v1.926H107.799z M104.479,379.162
			c0,0.44-0.429,0.761-1.307,0.761s-1.326-0.31-1.326-0.752c0-0.432,0.449-0.729,1.326-0.729S104.479,378.73,104.479,379.162
			 M116.978,375.1h-0.998v9.052h0.998V375.1z M113.787,375.377h-2.894v0.833h2.894V375.377z M115.033,376.827h-5.364v0.842h5.364
			V376.827z M115.581,382.596v-0.875c-0.708,0.104-1.635,0.188-2.632,0.188v-0.937c1.007-0.145,1.724-0.709,1.724-1.399
			c0-0.822-0.986-1.472-2.292-1.472c-1.296,0-2.273,0.639-2.273,1.464c0,0.728,0.737,1.284,1.784,1.429v0.924h-2.712v0.874
			l2.803-0.011C113.557,382.761,114.794,382.688,115.581,382.596 M113.688,379.572c0,0.4-0.549,0.69-1.297,0.69
			c-0.727,0-1.287-0.29-1.287-0.698c0-0.402,0.56-0.723,1.277-0.723C113.129,378.842,113.688,379.162,113.688,379.572
			 M128.999,379.85v-4.75h-0.987v1.5h-1.865v0.865h1.865v2.385H128.999z M126.845,378.842c-2.013-0.771-2.394-1.955-2.394-2.653
			v-0.812h-1.047v0.812c0,0.804-0.527,2.243-2.492,2.993l0.698,0.73c1.018-0.483,2.015-1.223,2.314-2.045
			c0.488,0.822,1.655,1.488,2.342,1.735L126.845,378.842z M129.188,384.048v-0.795h-5.404v-0.718h5.185v-2.283h-6.232v0.792h5.185
			v0.739h-5.185v2.265H129.188z M137.679,375.1h-0.998v5.008h0.998V375.1z M137.659,384.048v-3.477h-0.986v0.935h-4.288v-0.935
			h-0.997v3.477H137.659z M136.672,383.203h-4.288v-0.885h4.288V383.203z M135.994,379.676v-0.814
			c-0.618,0.095-1.905,0.198-2.772,0.22l-1.825,0.008v-0.926h3.46v-2.632H130.4v0.823h3.46v1.026h-3.46v2.531l2.444-0.021
			C133.969,379.871,135.345,379.769,135.994,379.676 M142.929,375.026c-2.204,0-3.37,0.709-3.37,1.656
			c0,0.956,1.167,1.636,3.37,1.636c2.213,0,3.359-0.69,3.359-1.646C146.288,375.757,145.142,375.026,142.929,375.026
			 M147.315,378.926h-8.773v0.791h8.773V378.926z M145.171,376.683c0,0.494-0.848,0.886-2.224,0.886
			c-1.406,0-2.272-0.392-2.272-0.896s0.816-0.874,2.243-0.874C144.313,375.798,145.171,376.178,145.171,376.683 M146.397,384.048
			v-0.782h-5.663v-0.7h5.444v-2.181h-6.5v0.773h5.434v0.655h-5.434v2.234H146.397z M154.9,381.096c-2.264,0-3.53,0.657-3.53,1.581
			c0,0.927,1.296,1.616,3.53,1.616c2.244,0,3.529-0.657,3.529-1.584C158.429,381.783,157.144,381.096,154.9,381.096
			 M157.302,382.688c0,0.505-0.997,0.813-2.402,0.813c-1.426,0-2.403-0.337-2.403-0.831c0-0.514,0.988-0.761,2.413-0.761
			C156.305,381.908,157.302,382.175,157.302,382.688 M159.286,380.632v-0.831h-3.838v-0.784h2.802v-0.832h-5.593v-0.627h5.493
			v-0.802h-5.493v-0.638h5.512v-0.823h-6.519v3.722h2.69v0.784h-3.829v0.831H159.286z M163.001,375.809h-2.453v0.813h2.453V375.809z
			 M164.078,377.424h-4.586v0.821h4.586V377.424z M167.597,384.151V375.1h-0.967v3.661h-0.977v-3.455h-0.968v8.433h0.968v-3.991
			h0.977v4.404H167.597z M163.829,380.765c0-1.13-0.877-1.891-2.034-1.891c-1.107,0-2.034,0.75-2.034,1.891
			c0,1.185,0.926,1.912,2.034,1.912C162.961,382.677,163.829,381.938,163.829,380.765 M160.719,380.786c0-0.668,0.427-1.1,1.076-1.1
			c0.658,0,1.067,0.432,1.067,1.089c0,0.671-0.418,1.081-1.067,1.081C161.157,381.856,160.719,381.446,160.719,380.786
			 M180.447,378.052v-0.937h-1.287V375.1h-0.995v5.48h0.995v-2.528H180.447z M177.275,379.192c-1.665-0.524-2.333-1.42-2.333-2.675
			h1.855v-0.863h-4.786v0.863h1.853c0,1.255-0.538,2.232-2.462,2.982l0.698,0.72c0.738-0.286,1.985-1.171,2.293-1.975
			c0.628,0.844,1.606,1.545,2.302,1.728L177.275,379.192z M179.398,382.544c0-1.017-1.135-1.769-3.31-1.769
			c-2.162,0-3.31,0.752-3.31,1.769c0,1.019,1.147,1.749,3.31,1.749C178.263,384.293,179.398,383.563,179.398,382.544
			 M178.322,382.555c0,0.557-0.906,0.937-2.233,0.937c-1.346,0-2.242-0.38-2.242-0.937c0-0.576,0.896-0.956,2.242-0.956
			C177.416,381.599,178.322,381.979,178.322,382.555 M184.68,375.059h-2.921v0.791h2.921V375.059z M185.995,376.446h-5.554v0.791
			h5.554V376.446z M189.096,378.473v-0.894h-1.246V375.1h-0.988v5.758h0.988v-2.385H189.096z M183.214,380.673
			c1.515,0,2.392-0.646,2.392-1.502c0-0.853-0.856-1.48-2.373-1.48c-1.465,0-2.403,0.628-2.403,1.48
			C180.83,380.026,181.777,380.673,183.214,380.673 M187.859,384.151v-2.737h-6.481v0.812h5.465v1.926H187.859z M184.539,379.162
			c0,0.44-0.427,0.761-1.306,0.761c-0.876,0-1.325-0.31-1.325-0.752c0-0.432,0.449-0.729,1.325-0.729
			C184.111,378.442,184.539,378.73,184.539,379.162 M194.844,381.661c-1.645-1.008-2.502-2.376-2.502-4.63v-1.427h-1.048v1.427
			c0,2.222-0.776,3.858-2.622,4.907l0.798,0.648c0.857-0.505,2.074-1.893,2.354-2.9c0.468,1.11,1.575,2.365,2.353,2.716
			L194.844,381.661z M195.603,375.1v9.052h0.997v-4.517h1.327v-0.904h-1.327V375.1H195.603z M201.889,377.454
			c0,0.668-0.627,1.203-1.336,1.203c-0.708,0-1.336-0.535-1.336-1.203c0-0.648,0.628-1.171,1.336-1.171
			C201.262,376.283,201.889,376.795,201.889,377.454 M204.779,383.192h-4.287v-1.037h4.287V383.192z M205.777,384.048v-3.693h-0.998
			v0.967h-4.287v-0.967h-0.987v3.693H205.777z M202.856,376.981c-0.25-0.978-1.236-1.604-2.303-1.604
			c-1.246,0-2.362,0.844-2.362,2.099c0,1.264,1.136,2.107,2.362,2.107c1.107,0,2.134-0.689,2.333-1.737h1.904v2.066h0.996V375.1
			h-0.996v1.882H202.856z M216.263,383.738v-8.433h-0.967v3.711h-1.366v0.885h1.366v3.837H216.263z M218.118,375.1h-0.967v9.052
			h0.967V375.1z M213.612,375.705h-2.462v0.854h2.462V375.705z M214.658,381.742c-1.504-0.904-1.725-2.272-1.725-2.971v-0.442h1.565
			v-0.886h-4.237v0.886h1.586v0.442c0,1.448-0.857,2.539-2.084,3.196l0.757,0.701c0.608-0.34,1.686-1.285,1.875-2.098
			c0.2,0.709,1.157,1.695,1.665,1.912L214.658,381.742z M225.003,383.738v-8.424h-0.968v1.996h-1.076v0.863h1.076v1.584h-1.285
			v0.865h1.285v3.115H225.003z M226.846,375.1h-0.966v9.052h0.966V375.1z M222.909,376.251h-3.5v0.875h2.402
			c0.012,1.501-0.936,3.712-2.931,4.823l0.739,0.586C222.032,381.044,222.909,378.308,222.909,376.251 M231.978,375.377h-2.792
			v0.833h2.792V375.377z M233.224,376.827h-5.267v0.842h5.267V376.827z M234.141,375.1v9.052h0.998v-4.332h1.267v-0.915h-1.267
			V375.1H234.141z M233.783,382.596v-0.875c-0.708,0.104-1.596,0.188-2.594,0.188v-0.937c1.007-0.145,1.676-0.709,1.676-1.399
			c0-0.822-0.938-1.472-2.243-1.472c-1.297,0-2.224,0.639-2.224,1.464c0,0.728,0.688,1.284,1.734,1.429v0.924h-2.592v0.874
			l2.682-0.011C231.797,382.761,232.995,382.688,233.783,382.596 M231.878,379.572c0,0.4-0.499,0.69-1.247,0.69
			c-0.728,0-1.236-0.29-1.236-0.698c0-0.402,0.508-0.723,1.226-0.723C231.37,378.842,231.878,379.162,231.878,379.572
			 M248.176,382.986v-0.863h-3.898v-2.222h2.921v-0.863h-5.624v-3.425h-0.996v4.288h2.691v2.222h-3.869v0.863H248.176z
			 M256.219,380.838V375.1h-0.998v1.314h-1.535v0.823h1.535v0.855h-1.535v0.822h1.535v1.923H256.219z M256.188,384.151v-2.8h-6.46
			v0.863h5.463v1.937H256.188z M254.114,380.292v-0.822c-0.618,0.084-1.894,0.185-2.761,0.206l-1.436,0.011v-1.194h3.209v-2.909
			h-4.207v0.853h3.211v1.233h-3.211v2.859l2.064-0.008C252.11,380.499,253.465,380.385,254.114,380.292"/>
		<path fill="#DBAAD0" d="M18.477,340.811v-1.27h-1.42v-2.433h-1.362v6.241h1.362v-2.539H18.477z M14.521,341.704
			c-0.482-0.142-1.104-0.434-1.74-1.063c-0.469-0.473-0.704-1.112-0.704-1.476v-0.206h1.985v-1.246H8.638v1.246h1.986v0.206
			c0,0.376-0.19,1.053-0.73,1.62c-0.576,0.616-1.573,1.102-2.149,1.293l0.928,1.089c0.493-0.18,1.174-0.556,1.69-1.001
			c0.46-0.389,0.822-0.752,1.01-1.115c0.176,0.279,0.518,0.666,0.987,1.004c0.622,0.446,1.034,0.643,1.408,0.786L14.521,341.704z
			 M17.339,345.745c0-1.259-1.41-2.178-4.017-2.178c-2.595,0-4.017,0.93-4.017,2.178c0,1.268,1.422,2.151,4.017,2.151
			C15.929,347.896,17.339,347,17.339,345.745 M10.823,345.745c0-0.642,0.996-1.042,2.511-1.042c1.492,0,2.513,0.411,2.513,1.053
			c0,0.617-1.021,1.04-2.513,1.04C11.818,346.796,10.823,346.36,10.823,345.745 M23.416,337.049h-3.45v1.112h3.45V337.049z
			 M24.978,338.669h-6.564v1.112h6.564V338.669z M28.664,341.244v-1.243h-1.409v-2.893h-1.362v6.774h1.362v-2.639H28.664z
			 M24.638,341.887c0-1.016-1.104-1.742-2.926-1.742c-1.749,0-2.971,0.727-2.971,1.742c0,1.015,1.246,1.792,2.948,1.792
			C23.51,343.679,24.638,342.901,24.638,341.887 M27.255,347.75v-3.35h-7.667v1.21h6.271v2.14H27.255z M23.193,341.874
			c0,0.447-0.564,0.75-1.481,0.75c-0.916,0-1.515-0.29-1.515-0.737c0-0.436,0.599-0.702,1.515-0.702
			C22.629,341.185,23.193,341.438,23.193,341.874 M38.865,342.467v-1.186h-1.692c0.083-0.324,0.224-0.943,0.352-1.667
			c0.106-0.632,0.235-1.779,0.235-2.13h-8.09v1.221h6.54c-0.083,0.883-0.317,2.032-0.422,2.576h-7.256v1.186H38.865z
			 M37.572,343.518h-7.737v4.112h7.737V343.518z M36.188,346.443h-4.979v-1.737h4.979V346.443z M52.386,337.108h-1.363v10.642h1.363
			V337.108z M45.751,339.418v0.447c0,0.605-0.2,1.925-0.776,2.929c-0.516,0.896-1.315,1.63-2.242,2.224l1.127,0.919
			c0.575-0.399,1.032-0.747,1.501-1.282c0.556-0.628,0.894-1.16,1.128-1.764c0.247,0.507,0.552,1.016,1.01,1.533
			c0.587,0.669,1.256,1.066,1.468,1.187l0.881-1.053c-0.33-0.193-1.141-0.748-1.775-1.62c-0.716-0.992-0.88-2.479-0.88-3.072v-0.447
			h2.267v-1.22h-5.964v1.22H45.751z M63.336,342.261v-1.196h-1.715c0.095-0.34,0.247-0.92,0.388-1.609
			c0.117-0.593,0.235-1.609,0.235-1.971h-8.102v1.197h6.541c-0.082,0.786-0.329,1.875-0.446,2.383h-7.234v1.196H63.336z
			 M62.044,347.63v-4.606h-1.421v1.162H55.69v-1.162h-1.396v4.606H62.044z M60.623,346.443H55.69v-1.087h4.933V346.443z"/>
	</g>
	<g>
		<path fill="#737070" d="M613.113,15.727l-7.801,3.846l3.645,1.619c2.409-0.354,4.377,0.132,5.027,1.477
			c0.109,0.269,0.186,0.539,0.198,0.838l6.646,2.96v0.23l8.058-3.981L613.113,15.727z M603.667,20.378l-8.624,4.26l15.732,7.006
			V43.27l7.396-3.631l1.244-0.617v-7.266v-4.372l-1.244-0.55l-7.396-3.296L603.667,20.378z M593.382,25.459l-8.63,4.247l15.78,6.986
			l8.583-4.228l-3.431-1.532c-3.037,0.806-5.682,0.402-6.444-1.196c-0.242-0.512-0.283-1.094-0.113-1.715L593.382,25.459z
			 M626.42,25.502l-5.592,2.761v2.305l8.049-3.975L626.42,25.502z M626.42,29.377l-5.592,2.764v2.305l8.049-3.973L626.42,29.377z
			 M587.24,32.355l-2.488,1.229l15.78,6.986l8.823-4.354v-2.313l-8.799,4.348L587.24,32.355z M626.405,33.272l-5.577,2.759v2.299
			l8.049-3.973L626.405,33.272z M587.24,36.23l-2.488,1.231l15.78,6.989l8.823-4.357v-2.306l-8.799,4.34L587.24,36.23z
			 M587.258,40.117l-2.504,1.237l15.781,6.972l8.822-4.363v-2.297l-8.801,4.338L587.258,40.117z"/>
		<path fill="#DBAAD0" d="M529.843,73.216h3.124V72.02h-7.986v1.196h3.16c-0.177,0.567-0.646,1.027-1.28,1.438
			c-0.787,0.51-1.891,0.896-2.454,1.019l0.81,1.001c0.563-0.12,1.444-0.397,2.278-0.906c0.704-0.424,1.209-0.823,1.515-1.233
			c0.282,0.41,0.786,0.81,1.491,1.233c0.833,0.509,1.715,0.786,2.278,0.906l0.811-1.001c-0.563-0.122-1.667-0.509-2.453-1.019
			C530.5,74.243,530.031,73.783,529.843,73.216 M534.152,78.682v-1.198h-10.334v1.198h4.451v3.579h1.396v-3.579H534.152z
			 M543.658,71.62h-1.361v7.691h1.361V71.62z M543.894,82.019v-1.221h-6.458v-2.226h-1.408v3.446H543.894z M540.053,72.234h-5.201
			v5.335h5.201V72.234z M538.704,76.336h-2.49V73.47h2.49V76.336z M554.363,71.62h-1.362v10.641h1.362V71.62z M547.729,73.93v0.446
			c0,0.604-0.199,1.923-0.775,2.927c-0.516,0.896-1.315,1.633-2.243,2.226l1.128,0.92c0.576-0.4,1.033-0.752,1.503-1.283
			c0.552-0.629,0.894-1.16,1.127-1.766c0.247,0.509,0.552,1.016,1.011,1.536c0.587,0.664,1.256,1.063,1.467,1.186l0.881-1.053
			c-0.328-0.193-1.139-0.75-1.772-1.62c-0.716-0.992-0.882-2.479-0.882-3.072V73.93h2.267v-1.223h-5.965v1.223H547.729z
			 M564.645,79.648V71.62h-1.362v6.009h-2.407v1.16h2.407v0.859H564.645z M562.93,76.855v-1.22
			c-0.504,0.107-2.924,0.313-4.063,0.313h-3.522v1.246h2.406v1.787h1.421v-1.8C559.889,77.183,562.062,77.023,562.93,76.855
			 M564.879,82.019v-1.221h-6.387v-1.39h-1.432v2.61H564.879z M558.961,72.503c1.021,0,1.434,0.557,1.434,0.917
			c0,0.34-0.412,0.873-1.422,0.873c-0.986,0-1.422-0.533-1.422-0.873C557.551,73.06,557.95,72.503,558.961,72.503 M558.961,71.439
			c-1.809,0-2.771,0.941-2.771,1.98c0,1.063,0.951,1.983,2.771,1.983c1.821,0,2.771-0.906,2.771-1.983
			C561.731,72.367,560.816,71.439,558.961,71.439 M574.938,71.62h-1.362v10.641h1.362V71.62z M571.592,72.888H566.4V74.1h3.582
			c-0.059,0.904-0.41,1.886-1.28,3.069c-0.786,1.079-1.913,1.899-2.947,2.467l1.034,0.823c1.139-0.591,2.23-1.513,3.263-2.914
			C571.133,76.095,571.592,74.1,571.592,72.888 M586.088,76.976v-1.184h-1.691c0.084-0.328,0.224-0.945,0.354-1.669
			c0.105-0.63,0.235-1.779,0.235-2.127h-8.092v1.22h6.542c-0.083,0.884-0.317,2.03-0.425,2.576h-7.255v1.184H586.088z
			 M584.797,78.028h-7.74v4.112h7.74V78.028z M583.41,80.955h-4.979v-1.74h4.979V80.955z M595.814,73.869v-0.146h3.184v-1.221
			h-7.985v1.221h3.195v0.146c0,0.447-0.247,1.307-1.081,2.02c-0.774,0.664-1.832,1.124-2.748,1.45l0.939,1.006
			c0.609-0.193,1.469-0.559,2.244-1.126c0.75-0.546,1.291-1.21,1.443-1.536c0.152,0.326,0.691,0.99,1.443,1.536
			c0.775,0.567,1.633,0.933,2.244,1.126l0.938-1.006c-0.916-0.326-1.973-0.786-2.747-1.45
			C596.051,75.176,595.814,74.316,595.814,73.869 M600.173,81.088v-1.22h-4.45v-2.057h-1.457v2.057h-4.426v1.22H600.173z
			 M609.844,77.896V71.62h-1.361v1.886h-2.066v1.305h2.066v3.085H609.844z M603.479,80.218c0-0.643,0.998-1.042,2.514-1.042
			c1.492,0,2.513,0.413,2.513,1.055c0,0.617-1.021,1.04-2.513,1.04C604.477,81.271,603.479,80.835,603.479,80.218 M609.996,80.218
			c0-1.259-1.408-2.213-4.016-2.213c-2.594,0-4.018,0.967-4.018,2.213c0,1.27,1.424,2.189,4.018,2.189
			C608.588,82.407,609.996,81.475,609.996,80.218 M607.26,76.288c-0.622-0.242-1.289-0.652-1.914-1.308
			c-0.551-0.604-0.834-1.378-0.834-2.32v-0.75h-1.443v0.75c0,0.942-0.223,1.716-0.857,2.453c-0.575,0.679-1.351,1.223-1.949,1.536
			l0.963,0.979c0.48-0.277,0.869-0.532,1.443-1.053c0.482-0.434,0.857-0.904,1.128-1.4c0.317,0.483,0.622,0.797,1.044,1.16
			c0.518,0.446,1.188,0.833,1.633,1.003L607.26,76.288z"/>
		<path fill="#DBAAD0" d="M519.703,57.135v2.927h6.355v3.962h3.365v-3.962h1.258v-2.927h-1.258V43.009h-4.373L519.703,57.135z
			 M522.786,57.135l3.523-10.445l-0.251,10.445H522.786z M535.999,47.633c0-0.881,0.126-2.014,1.762-2.014
			c1.448,0,1.541,1.197,1.541,1.824v2.392c0,1.572-0.188,1.762-3.334,4.877c-2.044,2.013-3.839,3.807-3.839,9.312h11.043v-3.146
			h-6.983c0.125-1.638,0.438-1.951,3.712-5.253c2.486-2.486,3.02-3.272,3.02-5.507v-2.14c0-0.879-0.22-2.045-0.252-2.17
			c-0.565-2.202-2.736-2.988-5.002-2.988c-0.756,0-2.453,0.063-3.712,1.1c-1.353,1.165-1.384,2.737-1.384,3.65v2.58h3.429V47.633z
			 M546.537,54.334h2.864c0.218-1.289,0.817-2.138,2.044-2.138c1.668,0,1.637,1.445,1.637,2.358v5.002
			c0,1.762-1.038,1.889-1.7,1.889c-1.634,0-1.634-1.354-1.634-1.794v-2.141h-3.588v2.173c0,0.786,0.158,2.516,1.542,3.585
			c1.196,0.911,2.989,1.038,3.838,1.038c4.972,0,5.254-3.366,5.254-5.158v-5.19c0-1.135-0.063-2.456-1.259-3.494
			c-0.534-0.502-1.416-1.007-2.831-1.007c-1.511,0-2.36,0.599-3.085,1.102l0.064-4.31h6.795v-3.146h-9.721L546.537,54.334z
			 M558.807,64.023h1.857l-2.172,4.249h1.416l2.611-4.249v-4.057h-3.713V64.023z M564.219,48.641h3.052v-2.456h4.907
			c-3.46,5.917-5.506,13.782-5.662,17.839h3.932c0-3.113,0.566-6.196,1.385-9.185c1.289-4.531,2.894-7.301,3.649-8.622v-3.113
			h-11.263V48.641z M577.871,49.362c2.045-0.344,2.77-0.974,3.147-1.319v15.98h3.681v-20.92h-2.454
			c-0.599,0.849-0.944,1.384-1.762,2.014c-1.321,1.037-2.201,1.257-2.612,1.351V49.362z M587.467,59.148c0,1.508,0,5.158,5.41,5.158
			c0.82,0,2.424-0.032,3.683-1.162c1.29-1.165,1.509-2.77,1.509-3.904V47.979c0-1.289,0-5.158-5.347-5.158
			c-1.636,0-3.399,0.473-4.437,1.95c-0.757,1.07-0.818,2.17-0.818,3.556V59.148z M591.086,47.76c0-0.881,0-2.202,1.73-2.202
			c1.635,0,1.635,1.259,1.635,2.358v11.356c0,0.789,0,2.202-1.729,2.202c-1.636,0-1.636-1.445-1.636-1.95V47.76z M600.113,64.023
			h1.855l-2.17,4.249h1.415l2.611-4.249v-4.057h-3.712V64.023z M605.807,59.148c0,1.508,0,5.158,5.412,5.158
			c0.818,0,2.422-0.032,3.681-1.162c1.291-1.165,1.512-2.77,1.512-3.904V47.979c0-1.289,0-5.158-5.349-5.158
			c-1.637,0-3.398,0.473-4.437,1.95c-0.755,1.07-0.819,2.17-0.819,3.556V59.148z M609.426,47.76c0-0.881,0-2.202,1.73-2.202
			c1.635,0,1.635,1.259,1.635,2.358v11.356c0,0.789,0,2.202-1.729,2.202c-1.637,0-1.637-1.445-1.637-1.95V47.76z M618.266,59.148
			c0,1.508,0,5.158,5.411,5.158c0.817,0,2.421-0.032,3.681-1.162c1.291-1.165,1.511-2.77,1.511-3.904V47.979
			c0-1.289,0-5.158-5.349-5.158c-1.637,0-3.398,0.473-4.436,1.95c-0.755,1.07-0.818,2.17-0.818,3.556V59.148z M621.883,47.76
			c0-0.881,0-2.202,1.731-2.202c1.636,0,1.636,1.259,1.636,2.358v11.356c0,0.789,0,2.202-1.73,2.202
			c-1.637,0-1.637-1.445-1.637-1.95V47.76z M630.725,59.148c0,1.508,0,5.158,5.41,5.158c0.818,0,2.423-0.032,3.68-1.162
			c1.291-1.165,1.512-2.77,1.512-3.904V47.979c0-1.289,0-5.158-5.35-5.158c-1.635,0-3.396,0.473-4.435,1.95
			c-0.757,1.07-0.817,2.17-0.817,3.556V59.148z M634.342,47.76c0-0.881,0-2.202,1.73-2.202c1.636,0,1.636,1.259,1.636,2.358v11.356
			c0,0.789,0,2.202-1.731,2.202c-1.635,0-1.635-1.445-1.635-1.95V47.76z M643.371,64.023h1.855l-2.171,4.249h1.416l2.611-4.249
			v-4.057h-3.712V64.023z M649.064,59.148c0,1.508,0,5.158,5.412,5.158c0.817,0,2.422-0.032,3.681-1.162
			c1.289-1.165,1.511-2.77,1.511-3.904V47.979c0-1.289,0-5.158-5.35-5.158c-1.636,0-3.397,0.473-4.435,1.95
			c-0.755,1.07-0.819,2.17-0.819,3.556V59.148z M652.683,47.76c0-0.881,0-2.202,1.731-2.202c1.634,0,1.634,1.259,1.634,2.358v11.356
			c0,0.789,0,2.202-1.729,2.202c-1.636,0-1.636-1.445-1.636-1.95V47.76z M661.523,59.148c0,1.508,0,5.158,5.411,5.158
			c0.817,0,2.421-0.032,3.681-1.162c1.291-1.165,1.51-2.77,1.51-3.904V47.979c0-1.289,0-5.158-5.348-5.158
			c-1.637,0-3.398,0.473-4.436,1.95c-0.756,1.07-0.818,2.17-0.818,3.556V59.148z M665.141,47.76c0-0.881,0-2.202,1.731-2.202
			c1.636,0,1.636,1.259,1.636,2.358v11.356c0,0.789,0,2.202-1.73,2.202c-1.637,0-1.637-1.445-1.637-1.95V47.76z M673.981,59.148
			c0,1.508,0,5.158,5.411,5.158c0.818,0,2.422-0.032,3.68-1.162c1.291-1.165,1.512-2.77,1.512-3.904V47.979
			c0-1.289,0-5.158-5.35-5.158c-1.635,0-3.396,0.473-4.435,1.95c-0.757,1.07-0.818,2.17-0.818,3.556V59.148z M677.6,47.76
			c0-0.881,0-2.202,1.73-2.202c1.635,0,1.635,1.259,1.635,2.358v11.356c0,0.789,0,2.202-1.73,2.202c-1.635,0-1.635-1.445-1.635-1.95
			V47.76z"/>
		<path fill="#DBAAD0" d="M692.88,51.468c-1.976,0-3.198,1.062-3.198,2.262c0,1.217,1.208,2.263,3.198,2.263
			c1.989,0,3.196-1.031,3.196-2.263C696.076,52.529,694.881,51.468,692.88,51.468 M699.272,61.269v-9.732h-1.029v7.229h-3.237v0.849
			h3.237v1.654H699.272z M697.764,57.408v-0.864c-0.618,0.114-2.895,0.342-4.473,0.368l-4.691,0.029v0.849h3.141v2.347h1.016v-2.361
			C694.787,57.775,696.789,57.575,697.764,57.408 M699.588,63.701v-0.877h-7.807v-2.179h-1.015v3.056H699.588z M692.88,52.304
			c1.495,0,2.192,0.763,2.192,1.426c0,0.651-0.697,1.401-2.18,1.401c-1.467,0-2.193-0.75-2.193-1.401
			C690.699,53.066,691.398,52.304,692.88,52.304"/>
		<path fill="#737070" d="M526.202,104.779v-7.913h-0.911v2.892h-1.381v0.851h1.381v4.171H526.202z M527.941,96.662h-0.912v8.515
			h0.912V96.662z M521.993,98.49v0.301c0,0.832-0.104,2.961-2.013,4.402l0.762,0.58c0.725-0.638,1.514-1.712,1.738-2.574
			c0.217,0.793,1.09,1.937,1.663,2.353l0.667-0.609c-1.689-1.298-1.832-3.301-1.832-4.151V98.49h1.43v-0.822h-3.863v0.822H521.993z
			 M530.8,104.403l0.009-7.025h-0.639c-0.027,0.378-0.244,0.745-0.488,0.93c-0.339,0.241-0.725,0.359-1.156,0.367v0.696h1.447v5.032
			H530.8z M535.731,97.717h-3.327v5.582h3.327V97.717z M539.377,105.177v-8.515h-0.912v3.262h-0.967v-3.066h-0.912v7.933h0.912
			v-3.919h0.967v4.306H539.377z M534.801,102.459h-1.467v-3.91h1.467V102.459z M547.574,96.662h-0.939v4.712h0.939V96.662z
			 M547.556,105.08v-3.271h-0.931v0.881h-4.042v-0.881h-0.938v3.271H547.556z M546.625,104.285h-4.042v-0.832h4.042V104.285z
			 M545.985,100.968v-0.765c-0.583,0.088-1.794,0.185-2.612,0.204l-1.719,0.011v-0.873h3.26V97.07h-4.2v0.771h3.261v0.969h-3.261
			v2.381l2.304-0.02C544.078,101.152,545.375,101.056,545.985,100.968 M556.984,99.438V98.56h-1.213v-1.897h-0.94v5.156h0.94v-2.381
			H556.984z M553.994,100.512c-1.568-0.491-2.197-1.334-2.197-2.516h1.746v-0.812h-4.51v0.812h1.748
			c0,1.182-0.509,2.102-2.322,2.809l0.658,0.677c0.695-0.271,1.871-1.103,2.162-1.858c0.592,0.795,1.512,1.452,2.172,1.626
			L553.994,100.512z M555.996,103.668c0-0.958-1.07-1.665-3.119-1.665c-2.04,0-3.121,0.707-3.121,1.665
			c0,0.956,1.081,1.644,3.121,1.644C554.926,105.312,555.996,104.624,555.996,103.668 M554.982,103.677
			c0,0.522-0.855,0.881-2.105,0.881c-1.27,0-2.115-0.358-2.115-0.881c0-0.541,0.846-0.9,2.115-0.9
			C554.127,102.776,554.982,103.136,554.982,103.677"/>
		<path fill="#737070" d="M520.642,114.183c1.048-0.176,1.419-0.498,1.611-0.675v8.188h1.888v-10.718h-1.258
			c-0.307,0.434-0.484,0.709-0.902,1.031c-0.678,0.53-1.129,0.645-1.339,0.693V114.183z M525.152,121.695h0.951l-1.113,2.177h0.727
			l1.338-2.177v-2.079h-1.902V121.695z M533.436,113.828c0-1.4,0-2.159-0.951-2.643c-0.516-0.272-1.112-0.354-1.612-0.354
			c-1.224,0-2.772,0.401-2.772,2.338v6.155c0,0.518,0,1.402,0.871,2.017c0.547,0.385,1.273,0.499,1.854,0.499
			c2.707,0,2.707-1.919,2.707-2.481v-2.501c0-0.354,0-2.077-1.887-2.077c-0.885,0-1.385,0.403-1.707,0.659v-2.109
			c0-0.387,0-1.063,0.902-1.063c0.822,0,0.822,0.436,0.822,1.562H533.436z M529.938,117.375c0-0.274,0-1.063,0.902-1.063
			c0.838,0,0.838,0.677,0.838,1.16v1.934c0,0.275,0,0.967-0.838,0.967c-0.902,0-0.902-0.788-0.902-1.239V117.375z M535.43,114.183
			c1.049-0.176,1.42-0.498,1.613-0.675v8.188h1.885v-10.718h-1.258c-0.306,0.434-0.482,0.709-0.902,1.031
			c-0.676,0.53-1.127,0.645-1.338,0.693V114.183z M542.051,113.087c0-0.176,0-0.791,0.84-0.791c0.805,0,0.805,0.551,0.805,0.938
			v0.806c0,1.145-0.451,1.304-1.707,1.304v1.259c1.287,0,1.771,0.064,1.771,1.339v1.596c0,0.612-0.291,0.87-0.806,0.87
			c-0.918,0-0.918-0.612-0.918-0.937v-1.143h-1.854v1.306c0,1.225,0.951,2.207,2.74,2.207c1.274,0,2.707-0.548,2.707-2.449v-1.629
			c0-1.45-0.354-1.644-1.611-1.854c1.16-0.177,1.549-0.548,1.549-1.661v-1.257c0-0.337-0.098-2.159-2.612-2.159
			c-0.532,0-1.321,0.097-1.854,0.451c-0.531,0.337-0.82,0.952-0.82,1.579v1.321h1.771V113.087z"/>
		<path fill="#737070" d="M552.373,115.379c0,0.782-0.527,1.427-1.479,1.427s-1.49-0.645-1.49-1.427c0-0.773,0.539-1.415,1.49-1.415
			S552.373,114.605,552.373,115.379 M553.387,114.791c-0.275-1.013-1.227-1.756-2.492-1.756c-1.5,0-2.578,1.047-2.578,2.344
			c0,1.296,1.078,2.353,2.578,2.353c1.352,0,2.345-0.861,2.533-1.972h1.923v2.561h1.057v-5.601h-1.057v2.071H553.387z
			 M556.396,122.306v-3.42h-6.864v0.915h5.819v2.505H556.396z"/>
		<path fill="#737070" d="M567.29,113.828c0-1.4,0-2.159-0.95-2.643c-0.516-0.272-1.111-0.354-1.611-0.354
			c-1.226,0-2.772,0.401-2.772,2.338v6.155c0,0.518,0,1.402,0.87,2.017c0.548,0.385,1.272,0.499,1.853,0.499
			c2.708,0,2.708-1.919,2.708-2.481v-2.501c0-0.354,0-2.077-1.886-2.077c-0.886,0-1.385,0.403-1.708,0.659v-2.109
			c0-0.387,0-1.063,0.902-1.063c0.822,0,0.822,0.436,0.822,1.562H567.29z M563.793,117.375c0-0.274,0-1.063,0.902-1.063
			c0.839,0,0.839,0.677,0.839,1.16v1.934c0,0.275,0,0.967-0.839,0.967c-0.902,0-0.902-0.788-0.902-1.239V117.375z M568.398,121.695
			h0.951l-1.111,2.177h0.725l1.338-2.177v-2.079h-1.902V121.695z M571.17,113.813h1.563v-1.257h2.516
			c-1.773,3.029-2.82,7.06-2.901,9.139h2.015c0-1.596,0.289-3.177,0.709-4.707c0.662-2.32,1.482-3.74,1.871-4.417v-1.594h-5.771
			V113.813z M577.694,119.197c0,0.773,0,2.643,2.772,2.643c0.418,0,1.24-0.016,1.887-0.596c0.66-0.597,0.773-1.42,0.773-2v-5.771
			c0-0.659,0-2.643-2.742-2.643c-0.836,0-1.739,0.243-2.271,0.999c-0.389,0.548-0.419,1.113-0.419,1.822V119.197z M579.549,113.362
			c0-0.451,0-1.128,0.885-1.128c0.84,0,0.84,0.645,0.84,1.207v5.82c0,0.401,0,1.128-0.889,1.128c-0.836,0-0.836-0.741-0.836-0.999
			V113.362z M584.073,119.197c0,0.773,0,2.643,2.772,2.643c0.419,0,1.241-0.016,1.885-0.596c0.662-0.597,0.774-1.42,0.774-2v-5.771
			c0-0.659,0-2.643-2.74-2.643c-0.837,0-1.74,0.243-2.272,0.999c-0.387,0.548-0.419,1.113-0.419,1.822V119.197z M585.928,113.362
			c0-0.451,0-1.128,0.886-1.128c0.837,0,0.837,0.645,0.837,1.207v5.82c0,0.401,0,1.128-0.886,1.128
			c-0.837,0-0.837-0.741-0.837-0.999V113.362z"/>
		<path fill="#737070" d="M597.68,113.364h-4.624v4.628h4.624V113.364z M601.842,116.402v-0.948h-1.311v-2.734h-1.055v6.939h1.055
			v-3.257H601.842z M600.848,122.089v-0.915h-5.766v-2.146h-1.057v3.062H600.848z M596.635,117.076h-2.524v-2.799h2.524V117.076z
			 M613.861,120.084v-7.364h-1.057v5.446h-2.186v0.872h2.186v1.046H613.861z M612.469,117.307v-0.904
			c-0.467,0.099-2.684,0.305-3.962,0.305h-2.945v0.894h2.291v1.656h1.056v-1.667C609.998,117.59,611.696,117.438,612.469,117.307
			 M614.095,122.089v-0.915h-5.946v-1.504h-1.056v2.419H614.095z M608.793,113.45c1.045,0,1.468,0.543,1.468,0.915
			c0,0.348-0.423,0.872-1.457,0.872c-1.014,0-1.458-0.524-1.458-0.872C607.346,113.993,607.758,113.45,608.793,113.45
			 M608.793,112.623c-1.605,0-2.471,0.816-2.471,1.742c0,0.947,0.855,1.742,2.471,1.742s2.471-0.782,2.471-1.742
			C611.264,113.429,610.44,112.623,608.793,112.623"/>
		<path fill="#737070" d="M526.202,143.126v-7.912h-0.911v2.89h-1.381v0.853h1.381v4.17H526.202z M527.941,135.01h-0.912v8.514
			h0.912V135.01z M521.993,136.838v0.301c0,0.831-0.104,2.958-2.013,4.402l0.762,0.578c0.725-0.639,1.514-1.713,1.739-2.572
			c0.216,0.793,1.089,1.934,1.663,2.351l0.666-0.608c-1.689-1.297-1.832-3.3-1.832-4.15v-0.301h1.43v-0.823h-3.863v0.823H521.993z
			 M530.734,135.521c-1.486,0-2.143,1.077-2.162,2.198h0.799c0.039-0.696,0.34-1.414,1.346-1.414c0.834,0,1.248,0.505,1.248,1.326
			c0,0.61-0.375,1.074-0.883,1.452l-1.119,0.82c-1.277,0.931-1.578,1.858-1.588,2.787h4.512v-0.754H529.4
			c0.158-0.58,0.677-1.083,1.033-1.346l1.109-0.781c0.582-0.417,1.371-1.074,1.371-2.188
			C532.914,136.49,532.21,135.521,530.734,135.521 M536.933,136.064h-3.326v5.582h3.326V136.064z M540.578,143.523v-8.514h-0.911
			v3.259h-0.968v-3.065h-0.91v7.932h0.91v-3.916h0.968v4.305H540.578z M536.003,140.804h-1.468v-3.908h1.468V140.804z
			 M548.776,135.01h-0.94v4.711h0.94V135.01z M548.756,143.427v-3.271h-0.93v0.883h-4.04v-0.883h-0.939v3.271H548.756z
			 M547.826,142.632h-4.041v-0.831h4.041V142.632z M547.188,139.315v-0.766c-0.582,0.086-1.795,0.186-2.613,0.202l-1.719,0.011
			v-0.872h3.261v-2.475h-4.2v0.773h3.26v0.969h-3.26v2.38l2.302-0.021C545.281,139.498,546.576,139.401,547.188,139.315
			 M558.185,137.785v-0.879h-1.212v-1.896h-0.938v5.156h0.938v-2.381H558.185z M555.196,138.859
			c-1.569-0.492-2.198-1.334-2.198-2.516h1.748v-0.813h-4.512v0.813h1.748c0,1.182-0.508,2.099-2.321,2.806l0.657,0.677
			c0.695-0.271,1.871-1.102,2.162-1.856c0.592,0.793,1.514,1.453,2.171,1.627L555.196,138.859z M557.199,142.014
			c0-0.958-1.072-1.665-3.121-1.665c-2.038,0-3.119,0.707-3.119,1.665s1.081,1.646,3.119,1.646
			C556.127,143.659,557.199,142.972,557.199,142.014 M556.184,142.024c0,0.521-0.855,0.881-2.105,0.881
			c-1.268,0-2.113-0.359-2.113-0.881c0-0.544,0.846-0.9,2.113-0.9C555.328,141.124,556.184,141.48,556.184,142.024"/>
		<path fill="#737070" d="M522.361,151.643c0-0.451,0.063-1.031,0.902-1.031c0.742,0,0.79,0.614,0.79,0.935v1.225
			c0,0.808-0.097,0.902-1.708,2.499c-1.049,1.031-1.967,1.95-1.967,4.771h5.656v-1.611h-3.578c0.064-0.84,0.225-0.999,1.902-2.692
			c1.273-1.273,1.547-1.676,1.547-2.82v-1.096c0-0.451-0.113-1.047-0.129-1.113c-0.29-1.128-1.402-1.531-2.563-1.531
			c-0.387,0-1.258,0.034-1.902,0.564c-0.693,0.598-0.709,1.403-0.709,1.869v1.323h1.758V151.643z M526.983,160.041h0.951
			l-1.112,2.177h0.725l1.338-2.177v-2.08h-1.901V160.041z M531.77,151.435c0-0.179,0-0.791,0.838-0.791
			c0.805,0,0.805,0.548,0.805,0.937v0.806c0,1.144-0.451,1.305-1.708,1.305v1.259c1.289,0,1.772,0.063,1.772,1.336v1.597
			c0,0.612-0.289,0.87-0.806,0.87c-0.919,0-0.919-0.612-0.919-0.935v-1.146h-1.854v1.307c0,1.225,0.951,2.209,2.74,2.209
			c1.273,0,2.709-0.548,2.709-2.452v-1.626c0-1.452-0.356-1.646-1.612-1.854c1.16-0.178,1.547-0.548,1.547-1.66v-1.257
			c0-0.34-0.097-2.161-2.611-2.161c-0.532,0-1.321,0.099-1.853,0.453c-0.533,0.337-0.822,0.949-0.822,1.577v1.323h1.773V151.435z
			 M536.905,158.011c0,1.257,0.79,2.177,2.628,2.177c1.387,0,2.819-0.451,2.819-2.435v-6.222c0-1.257-0.563-2.354-2.642-2.354
			c-1.951,0-2.806,0.773-2.806,2.516v2.643c0,1.096,0.613,1.871,1.983,1.871c0.773,0,1.176-0.29,1.629-0.63v2.03
			c0,0.615,0,1.16-0.904,1.16c-0.773,0-0.822-0.498-0.838-0.691c-0.016-0.146-0.016-0.226-0.016-0.92h-1.854V158.011z
			 M538.76,151.692c0-0.419,0-1.098,0.902-1.098c0.774,0,0.855,0.597,0.855,1.001v1.966c0,0.5,0,1.16-0.92,1.16
			c-0.838,0-0.838-0.66-0.838-1.16V151.692z M543.221,156.511v1.5h3.255v2.03h1.726v-2.03h0.645v-1.5h-0.645v-7.235h-2.24
			L543.221,156.511z M544.801,156.511l1.805-5.352l-0.13,5.352H544.801z"/>
		<path fill="#737070" d="M554.688,153.725c0,0.784-0.527,1.427-1.479,1.427c-0.949,0-1.489-0.643-1.489-1.427
			c0-0.773,0.54-1.414,1.489-1.414C554.16,152.311,554.688,152.951,554.688,153.725 M555.702,153.138
			c-0.276-1.014-1.228-1.755-2.493-1.755c-1.498,0-2.577,1.046-2.577,2.342s1.079,2.353,2.577,2.353c1.352,0,2.346-0.859,2.535-1.97
			h1.922v2.559h1.057v-5.599h-1.057v2.07H555.702z M558.711,160.653v-3.42h-6.865v0.915h5.82v2.505H558.711z"/>
		<path fill="#737070" d="M564.432,155.076h1.467c0.113-0.66,0.42-1.096,1.048-1.096c0.854,0,0.839,0.741,0.839,1.209v2.563
			c0,0.9-0.533,0.967-0.872,0.967c-0.837,0-0.837-0.694-0.837-0.92v-1.096h-1.838v1.113c0,0.404,0.081,1.289,0.79,1.837
			c0.612,0.466,1.53,0.533,1.966,0.533c2.549,0,2.692-1.726,2.692-2.646v-2.659c0-0.58-0.032-1.257-0.644-1.788
			c-0.275-0.26-0.727-0.518-1.451-0.518c-0.774,0-1.209,0.308-1.58,0.565l0.031-2.209h3.481v-1.611h-4.98L564.432,155.076z
			 M570.715,160.041h0.951l-1.111,2.177h0.724l1.339-2.177v-2.08h-1.902V160.041z M573.824,155.076h1.467
			c0.112-0.66,0.418-1.096,1.047-1.096c0.854,0,0.838,0.741,0.838,1.209v2.563c0,0.9-0.531,0.967-0.869,0.967
			c-0.84,0-0.84-0.694-0.84-0.92v-1.096h-1.836v1.113c0,0.404,0.08,1.289,0.789,1.837c0.613,0.466,1.531,0.533,1.967,0.533
			c2.547,0,2.691-1.726,2.691-2.646v-2.659c0-0.58-0.031-1.257-0.645-1.788c-0.274-0.26-0.725-0.518-1.451-0.518
			c-0.773,0-1.209,0.308-1.579,0.565l0.033-2.209h3.481v-1.611h-4.98L573.824,155.076z M580.687,157.542
			c0,0.773,0,2.646,2.772,2.646c0.418,0,1.24-0.018,1.886-0.598c0.661-0.598,0.772-1.418,0.772-2v-5.769c0-0.662,0-2.645-2.74-2.645
			c-0.838,0-1.738,0.242-2.272,0.999c-0.386,0.548-0.418,1.112-0.418,1.821V157.542z M582.539,151.709c0-0.453,0-1.13,0.887-1.13
			c0.839,0,0.839,0.645,0.839,1.21v5.817c0,0.404,0,1.128-0.888,1.128c-0.838,0-0.838-0.741-0.838-0.999V151.709z M587.064,157.542
			c0,0.773,0,2.646,2.772,2.646c0.419,0,1.242-0.018,1.888-0.598c0.66-0.598,0.772-1.418,0.772-2v-5.769
			c0-0.662,0-2.645-2.739-2.645c-0.839,0-1.742,0.242-2.274,0.999c-0.386,0.548-0.419,1.112-0.419,1.821V157.542z M588.919,151.709
			c0-0.453,0-1.13,0.886-1.13c0.838,0,0.838,0.645,0.838,1.21v5.817c0,0.404,0,1.128-0.885,1.128c-0.839,0-0.839-0.741-0.839-0.999
			V151.709z"/>
		<path fill="#737070" d="M599.994,151.709h-4.625v4.63h4.625V151.709z M604.156,154.749v-0.947h-1.31v-2.734h-1.056v6.939h1.056
			v-3.258H604.156z M603.164,160.437v-0.915h-5.767v-2.146h-1.057v3.062H603.164z M598.949,155.424h-2.524v-2.799h2.524V155.424z
			 M616.178,158.432v-7.364h-1.057v5.446h-2.187v0.872h2.187v1.046H616.178z M614.783,155.651v-0.902
			c-0.465,0.097-2.683,0.306-3.961,0.306h-2.945v0.892h2.291v1.658h1.056v-1.667C612.311,155.938,614.012,155.785,614.783,155.651
			 M616.41,160.437v-0.915h-5.946v-1.504h-1.056v2.419H616.41z M611.107,151.798c1.045,0,1.469,0.543,1.469,0.915
			c0,0.348-0.424,0.87-1.458,0.87c-1.013,0-1.456-0.522-1.456-0.87C609.662,152.341,610.072,151.798,611.107,151.798
			 M611.107,150.968c-1.604,0-2.471,0.816-2.471,1.745c0,0.947,0.854,1.742,2.471,1.742c1.617,0,2.473-0.784,2.473-1.742
			C613.58,151.773,612.755,150.968,611.107,150.968"/>
		<path fill="#737070" d="M526.202,181.474v-7.915h-0.911v2.893h-1.381v0.853h1.381v4.17H526.202z M527.941,173.357h-0.912v8.512
			h0.912V173.357z M521.993,175.184v0.301c0,0.831-0.104,2.96-2.013,4.401l0.762,0.58c0.725-0.638,1.512-1.712,1.738-2.571
			c0.217,0.793,1.089,1.934,1.663,2.351l0.667-0.61c-1.689-1.298-1.832-3.3-1.832-4.15v-0.301h1.43v-0.821h-3.863v0.821H521.993z
			 M531.853,177.4c0.46-0.234,0.958-0.727,0.958-1.586c0-0.999-1.005-1.927-2.124-1.927c-1.155,0-2.161,0.727-2.133,2.041h0.8
			c0-0.627,0.365-1.268,1.306-1.268c0.751,0,1.222,0.533,1.222,1.153c0,0.54-0.246,0.927-0.743,1.169
			c-0.244,0.107-0.61,0.116-0.911,0.116v0.745c0.301,0,0.602,0.02,0.911,0.107c0.479,0.114,0.931,0.551,0.931,1.16
			c0,0.763-0.537,1.382-1.382,1.382c-0.986,0-1.503-0.763-1.503-1.439h-0.809c0,1.21,0.979,2.224,2.312,2.224
			c1.382,0,2.331-0.909,2.331-2.146C533.018,178.453,532.604,177.807,531.853,177.4 M537.111,174.41h-3.326v5.581h3.326V174.41z
			 M540.756,181.869v-8.512h-0.909v3.257h-0.968v-3.063h-0.913v7.932h0.913v-3.917h0.968v4.304H540.756z M536.182,179.151h-1.467
			v-3.91h1.467V179.151z M548.953,173.357h-0.939v4.709h0.939V173.357z M548.936,181.772v-3.27h-0.93v0.881h-4.043v-0.881h-0.938
			v3.27H548.936z M548.006,180.979h-4.043v-0.833h4.043V180.979z M547.365,177.66v-0.765c-0.582,0.088-1.795,0.185-2.611,0.204
			l-1.721,0.011v-0.872h3.262v-2.476h-4.201v0.771h3.262v0.969h-3.262v2.381l2.303-0.02
			C545.459,177.845,546.756,177.748,547.365,177.66 M558.363,176.133v-0.881h-1.211v-1.895h-0.941v5.153h0.941v-2.378H558.363z
			 M555.376,177.205c-1.569-0.492-2.2-1.332-2.2-2.514h1.748v-0.814h-4.511v0.814h1.749c0,1.182-0.51,2.097-2.322,2.806l0.658,0.677
			c0.695-0.271,1.869-1.103,2.16-1.858c0.593,0.795,1.514,1.452,2.17,1.626L555.376,177.205z M557.376,180.361
			c0-0.959-1.07-1.665-3.118-1.665c-2.041,0-3.121,0.706-3.121,1.665c0,0.956,1.08,1.646,3.121,1.646
			C556.306,182.007,557.376,181.317,557.376,180.361 M556.361,180.369c0,0.522-0.854,0.881-2.104,0.881
			c-1.271,0-2.115-0.358-2.115-0.881c0-0.541,0.845-0.899,2.115-0.899C555.507,179.47,556.361,179.828,556.361,180.369"/>
		<path fill="#737070" d="M522.618,189.99c0-0.451,0.063-1.033,0.903-1.033c0.74,0,0.789,0.614,0.789,0.937v1.225
			c0,0.806-0.098,0.902-1.709,2.499c-1.047,1.031-1.966,1.95-1.966,4.77h5.657v-1.609h-3.578c0.064-0.84,0.225-1.001,1.901-2.694
			c1.274-1.271,1.548-1.676,1.548-2.821v-1.096c0-0.451-0.113-1.046-0.13-1.112c-0.29-1.126-1.401-1.53-2.562-1.53
			c-0.388,0-1.258,0.032-1.902,0.563c-0.693,0.597-0.709,1.402-0.709,1.871v1.323h1.757V189.99z M527.031,194.858v1.498h3.256v2.03
			h1.725v-2.03h0.645v-1.498h-0.645v-7.238h-2.24L527.031,194.858z M528.61,194.858l1.805-5.354l-0.128,5.354H528.61z
			 M539.503,189.879c0-0.612,0-2.355-2.597-2.355c-1.578,0-2.578,0.645-2.578,2.288v1.131c0,1.145,0.531,1.45,1.111,1.723
			c-0.805,0.404-1.271,0.645-1.271,2.048v1.37c0,1.659,1.111,2.449,2.803,2.449c0.324,0,1.42,0,2.178-0.902
			c0.387-0.436,0.467-0.902,0.467-1.708v-1.45c0-1.244-0.549-1.499-1.242-1.807c0.951-0.466,1.13-0.788,1.13-1.854V189.879z
			 M536.037,194.423c0-0.37,0-1.063,0.886-1.063c0.807,0,0.872,0.612,0.872,1.063v1.66c0,0.58-0.242,0.967-0.889,0.967
			c-0.224,0-0.869,0-0.869-0.967V194.423z M536.101,189.797c0-0.677,0.5-0.806,0.822-0.806c0.807,0,0.807,0.659,0.807,0.888v1.11
			c0,0.483,0,1.031-0.79,1.031c-0.563,0-0.839-0.226-0.839-0.92V189.797z"/>
		<path fill="#737070" d="M545.941,192.072c0,0.784-0.528,1.427-1.479,1.427c-0.949,0-1.49-0.643-1.49-1.427
			c0-0.773,0.541-1.416,1.49-1.416C545.413,190.656,545.941,191.299,545.941,192.072 M546.955,191.483
			c-0.273-1.012-1.225-1.755-2.492-1.755c-1.499,0-2.578,1.048-2.578,2.344c0,1.295,1.079,2.353,2.578,2.353
			c1.352,0,2.345-0.861,2.535-1.973h1.922v2.562h1.057v-5.6h-1.057v2.069H546.955z M549.965,199.001v-3.423h-6.863v0.915h5.818
			v2.508H549.965z"/>
		<path fill="#737070" d="M560.795,189.879c0-0.615,0-2.355-2.595-2.355c-1.58,0-2.579,0.645-2.579,2.288v1.131
			c0,1.143,0.532,1.45,1.112,1.725c-0.806,0.402-1.273,0.643-1.273,2.046v1.37c0,1.661,1.112,2.449,2.806,2.449
			c0.32,0,1.418,0,2.175-0.902c0.388-0.434,0.467-0.904,0.467-1.708v-1.45c0-1.241-0.548-1.499-1.239-1.805
			c0.951-0.468,1.127-0.79,1.127-1.854V189.879z M557.33,194.425c0-0.374,0-1.065,0.885-1.065c0.809,0,0.871,0.612,0.871,1.065
			v1.658c0,0.58-0.24,0.967-0.886,0.967c-0.226,0-0.87,0-0.87-0.967V194.425z M557.395,189.797c0-0.677,0.5-0.806,0.82-0.806
			c0.809,0,0.809,0.662,0.809,0.888v1.11c0,0.483,0,1.031-0.791,1.031c-0.564,0-0.838-0.226-0.838-0.92V189.797z M561.968,198.387
			h0.95l-1.111,2.178h0.727l1.336-2.178v-2.078h-1.901V198.387z M570.188,189.879c0-0.615,0-2.355-2.595-2.355
			c-1.581,0-2.579,0.645-2.579,2.288v1.131c0,1.143,0.53,1.45,1.111,1.725c-0.806,0.402-1.273,0.643-1.273,2.046v1.37
			c0,1.661,1.111,2.449,2.804,2.449c0.324,0,1.419,0,2.179-0.902c0.385-0.434,0.467-0.904,0.467-1.708v-1.45
			c0-1.241-0.549-1.499-1.241-1.805c0.949-0.468,1.128-0.79,1.128-1.854V189.879z M566.722,194.425c0-0.374,0-1.065,0.886-1.065
			c0.805,0,0.871,0.612,0.871,1.065v1.658c0,0.58-0.242,0.967-0.886,0.967c-0.228,0-0.871,0-0.871-0.967V194.425z M566.785,189.797
			c0-0.677,0.5-0.806,0.822-0.806c0.805,0,0.805,0.662,0.805,0.888v1.11c0,0.483,0,1.031-0.787,1.031c-0.566,0-0.84-0.226-0.84-0.92
			V189.797z M571.939,195.89c0,0.773,0,2.643,2.771,2.643c0.42,0,1.242-0.015,1.887-0.597c0.66-0.596,0.774-1.418,0.774-1.996
			v-5.773c0-0.659,0-2.643-2.74-2.643c-0.838,0-1.741,0.243-2.272,0.999c-0.387,0.551-0.42,1.113-0.42,1.822V195.89z
			 M573.794,190.055c0-0.451,0-1.128,0.886-1.128c0.838,0,0.838,0.645,0.838,1.21v5.817c0,0.402,0,1.128-0.886,1.128
			c-0.838,0-0.838-0.741-0.838-0.999V190.055z M578.318,195.89c0,0.773,0,2.643,2.772,2.643c0.419,0,1.241-0.015,1.886-0.597
			c0.66-0.596,0.773-1.418,0.773-1.996v-5.773c0-0.659,0-2.643-2.74-2.643c-0.837,0-1.74,0.243-2.271,0.999
			c-0.39,0.551-0.421,1.113-0.421,1.822V195.89z M580.173,190.055c0-0.451,0-1.128,0.886-1.128c0.838,0,0.838,0.645,0.838,1.21
			v5.817c0,0.402,0,1.128-0.887,1.128c-0.837,0-0.837-0.741-0.837-0.999V190.055z"/>
		<path fill="#737070" d="M591.249,190.057h-4.626v4.63h4.626V190.057z M595.41,193.097v-0.949H594.1v-2.733h-1.056v6.938h1.056
			v-3.255H595.41z M594.416,198.781v-0.915h-5.766v-2.146h-1.056v3.062H594.416z M590.203,193.771h-2.523v-2.802h2.523V193.771z
			 M607.431,196.777v-7.363h-1.057v5.446h-2.187v0.87h2.187v1.047H607.431z M606.036,193.999v-0.902
			c-0.464,0.099-2.683,0.306-3.96,0.306h-2.947v0.892h2.292v1.656h1.056v-1.667C603.565,194.283,605.266,194.13,606.036,193.999
			 M607.662,198.781v-0.915h-5.945v-1.504h-1.057v2.419H607.662z M602.361,190.143c1.046,0,1.468,0.546,1.468,0.915
			c0,0.349-0.422,0.87-1.457,0.87c-1.015,0-1.458-0.521-1.458-0.87C600.914,190.688,601.327,190.143,602.361,190.143
			 M602.361,189.315c-1.605,0-2.471,0.816-2.471,1.742c0,0.948,0.855,1.743,2.471,1.743s2.471-0.784,2.471-1.743
			C604.832,190.123,604.01,189.315,602.361,189.315"/>
	</g>
	<g>
		<path fill="#737070" d="M223.904,52.876c-0.615,1.661,0.245,3.506,1.906,4.121c0.369,0.122,0.738,0.185,1.106,0.185
			c1.293,0,2.522-0.8,3.014-2.091l3.321-9.04l-4.305-6.889L223.904,52.876z"/>
		<path fill="#737070" d="M253.237,21.516l-4.796-1.047c-0.676-0.122-1.292-0.552-1.783-1.106c-4.921-6.15-5.843-6.519-7.134-6.58
			l-4.612-0.308c-0.677-0.063-1.476-0.063-7.995,2.46c-1.599,0.614-3.013,1.721-3.996,3.135l-3.567,5.229
			c-0.246,0.307-0.369,0.677-0.43,1.044c-1.045-0.123-2.09,0.307-2.705,1.291l-0.615,0.984l-2.152-1.292
			c-0.676-0.43-1.6-0.183-2.029,0.492l-4.428,7.256c-0.43,0.677-0.184,1.601,0.493,2.03l11.376,6.827
			c0.678,0.428,1.598,0.183,2.029-0.494l4.427-7.255c0.431-0.677,0.186-1.599-0.491-2.03l-2.153-1.291l0.615-0.982
			c0.553-0.861,0.493-1.907,0-2.77c0.246-0.185,0.493-0.43,0.738-0.677l3.566-5.225c0.369-0.494,0.861-0.861,1.416-1.108
			c0.553-0.183,0.983-0.37,1.475-0.553l-2.153,7.378c-0.737,2.46-0.369,5.167,1.045,7.317l13.16,21.401
			c0.615,0.983,1.661,1.536,2.706,1.536c0.616,0,1.167-0.121,1.723-0.49c1.536-0.924,1.966-2.892,1.043-4.428l-10.7-17.157
			l4.427-12.915c0.186,0.247,0.369,0.433,0.555,0.677c1.229,1.599,3.013,2.646,4.98,3.077l4.797,1.044
			c1.536,0.308,3.014-0.614,3.32-2.152C255.697,23.358,254.712,21.883,253.237,21.516 M221.383,28.771l-0.616,0.984l-3.258-1.969
			l0.615-0.983c0.123-0.245,0.492-0.308,0.738-0.185l2.398,1.476C221.444,28.156,221.507,28.525,221.383,28.771"/>
		<path fill="#737070" d="M231.932,5.539c0.371-3.409,3.438-5.873,6.847-5.502c3.41,0.372,5.874,3.438,5.502,6.848
			c-0.373,3.409-3.438,5.873-6.848,5.502C234.023,12.015,231.56,8.949,231.932,5.539"/>
		<path fill="#DBAAD0" d="M166.787,92.717v8.793h19.103v11.916h10.118V101.51h3.783v-8.793h-3.783V50.253h-13.146L166.787,92.717z
			 M176.053,92.717l10.592-31.399l-0.756,31.399H176.053z M210.005,84.299h8.605c0.663-3.878,2.458-6.43,6.147-6.43
			c5.013,0,4.918,4.348,4.918,7.092v15.037c0,5.296-3.121,5.674-5.107,5.674c-4.918,0-4.918-4.067-4.918-5.391v-6.433h-10.781v6.527
			c0,2.363,0.474,7.566,4.635,10.778c3.594,2.744,8.984,3.122,11.538,3.122c14.942,0,15.794-10.117,15.794-15.508V83.162
			c0-3.402-0.189-7.375-3.784-10.495c-1.608-1.512-4.255-3.026-8.51-3.026c-4.542,0-7.094,1.798-9.268,3.311l0.188-12.957h20.427
			v-9.456h-29.222L210.005,84.299z M281.785,67.277c0-8.229,0-12.674-5.581-15.51c-3.026-1.609-6.525-2.082-9.456-2.082
			c-7.188,0-16.266,2.365-16.266,13.714v36.126c0,3.026,0,8.226,5.107,11.82c3.215,2.269,7.47,2.931,10.875,2.931
			c15.887,0,15.887-11.254,15.887-14.563V85.056c0-2.082,0-12.199-11.065-12.199c-5.2,0-8.132,2.365-10.023,3.878v-12.39
			c0-2.27,0-6.241,5.296-6.241c4.821,0,4.821,2.552,4.821,9.174H281.785z M261.263,88.082c0-1.608,0-6.243,5.296-6.243
			c4.917,0,4.917,3.975,4.917,6.809v11.351c0,1.606,0,5.674-4.917,5.674c-5.296,0-5.296-4.632-5.296-7.283V88.082z M288.31,113.426
			h5.58l-6.525,12.768h4.256l7.847-12.768v-12.199H288.31V113.426z M305.429,98.769c0,4.54,0,15.508,16.265,15.508
			c2.459,0,7.282-0.095,11.064-3.498c3.877-3.5,4.539-8.323,4.539-11.729V65.197c0-3.88,0-15.512-16.076-15.512
			c-4.918,0-10.214,1.42-13.335,5.863c-2.27,3.216-2.458,6.526-2.458,10.687V98.769z M316.303,64.535c0-2.65,0-6.621,5.201-6.621
			c4.918,0,4.918,3.781,4.918,7.092v34.141c0,2.363,0,6.617-5.2,6.617c-4.918,0-4.918-4.348-4.918-5.86V64.535z M342.877,98.769
			c0,4.54,0,15.508,16.266,15.508c2.459,0,7.282-0.095,11.064-3.498c3.879-3.5,4.54-8.323,4.54-11.729V65.197
			c0-3.88,0-15.512-16.075-15.512c-4.919,0-10.214,1.42-13.335,5.863c-2.27,3.216-2.46,6.526-2.46,10.687V98.769z M353.753,64.535
			c0-2.65,0-6.621,5.201-6.621c4.919,0,4.919,3.781,4.919,7.092v34.141c0,2.363,0,6.617-5.201,6.617
			c-4.919,0-4.919-4.348-4.919-5.86V64.535z M380.328,98.769c0,4.54,0,15.508,16.266,15.508c2.459,0,7.281-0.095,11.064-3.498
			c3.878-3.5,4.539-8.323,4.539-11.729V65.197c0-3.88,0-15.512-16.076-15.512c-4.917,0-10.214,1.42-13.334,5.863
			c-2.27,3.216-2.459,6.526-2.459,10.687V98.769z M391.204,64.535c0-2.65,0-6.621,5.201-6.621c4.918,0,4.918,3.781,4.918,7.092
			v34.141c0,2.363,0,6.617-5.202,6.617c-4.917,0-4.917-4.348-4.917-5.86V64.535z"/>
		<path fill="#DBAAD0" d="M432.304,104.9V93.123h-1.563v2.96h-4.816v-1.566h-8.828v8.336h8.828v-1.893h4.816v3.94H432.304z
			 M432.536,108.884c0-2.198-2.429-3.788-6.928-3.788c-4.5,0-6.949,1.59-6.949,3.788c0,2.197,2.449,3.764,6.949,3.764
			C430.107,112.647,432.536,111.081,432.536,108.884 M430.74,99.654h-4.816V97.39h4.816V99.654z M424.363,101.504h-5.704v-5.638
			h5.704V101.504z M430.888,108.884c0,1.523-2.196,2.438-5.279,2.438c-3.147,0-5.301-0.937-5.301-2.438
			c0-1.568,2.153-2.438,5.301-2.438C428.691,106.445,430.888,107.339,430.888,108.884"/>
		<path fill="#737070" d="M172.634,154.207v-0.863h-5.524v-2.54h5.475v-0.865h-6.472v4.269H172.634z M173.702,155.904h-8.774v0.863
			h8.774V155.904z M181.741,149.004h-0.996v5.339h0.996V149.004z M181.713,154.834h-6.272v3.115h6.272V154.834z M180.715,157.086
			h-4.277V155.7h4.277V157.086z M180.058,153.775v-0.834c-0.618,0.084-1.905,0.198-2.772,0.206l-1.834,0.011v-0.985h3.459v-2.686
			h-4.447v0.853h3.45v0.999h-3.45v2.673l2.442-0.02C178.033,153.971,179.409,153.867,180.058,153.775 M188.269,150h-5.305v0.875
			h5.305V150z M189.205,149.004v9.049h0.996v-4.639h1.318v-0.924h-1.318v-3.486H189.205z M188.687,155.831v-0.883
			c-0.439,0.061-1.036,0.093-1.396,0.111l0.14-3.815h-0.986l-0.14,3.858c-0.449,0.009-0.799,0.009-1.426,0.02l-0.121-3.878h-0.996
			l0.139,3.878h-1.186v0.886l3.63-0.032C187.093,155.965,188.01,155.915,188.687,155.831 M200.248,156.676v-0.864h-1.835
			c0.399-1.441,0.778-4.904,0.778-5.769h-6.661v0.864h5.564c-0.021,0.462-0.071,0.842-0.159,1.676
			c-0.539,0.081-1.336,0.133-2.055,0.174c-0.906,0.052-3.399,0.03-3.528,0.03v0.863c0.117,0,2.401,0.021,3.498-0.041
			c0.68-0.029,1.406-0.07,1.956-0.152c-0.129,0.965-0.31,1.86-0.409,2.354h-5.924v0.864H200.248z M213.417,153.892v-0.855h-4.478
			v-1.729h-1.016v1.729h-3.28v0.855H213.417z M212.52,156.366c0-1.06-1.256-1.819-3.499-1.819c-2.224,0-3.481,0.76-3.481,1.819
			c0,1.07,1.257,1.83,3.491,1.83C211.273,158.196,212.52,157.437,212.52,156.366 M209.03,155.369c1.406,0,2.401,0.359,2.401,0.988
			c0,0.677-0.995,1.027-2.401,1.027c-1.428,0-2.402-0.351-2.402-1.027C206.628,155.729,207.603,155.369,209.03,155.369
			 M212.46,149.373h-6.81v0.863h5.672c-0.09,0.845-0.428,2.181-0.449,2.254h1.018C212.162,151.657,212.45,150.146,212.46,149.373
			 M221.657,155.956v-6.952h-0.998v5.143h-2.063v0.821h2.063v0.988H221.657z M220.342,153.335v-0.855
			c-0.44,0.093-2.532,0.288-3.739,0.288h-2.781v0.842h2.164v1.564h0.995v-1.572C218.009,153.602,219.614,153.457,220.342,153.335
			 M221.877,157.847v-0.864h-5.613v-1.418h-0.998v2.282H221.877z M216.872,149.693c0.988,0,1.387,0.516,1.387,0.863
			c0,0.329-0.399,0.823-1.376,0.823c-0.957,0-1.376-0.494-1.376-0.823C215.506,150.209,215.896,149.693,216.872,149.693
			 M216.872,148.911c-1.515,0-2.333,0.77-2.333,1.646c0,0.894,0.808,1.646,2.333,1.646c1.526,0,2.333-0.741,2.333-1.646
			C219.204,149.672,218.428,148.911,216.872,148.911 M226.888,149.28h-2.792v0.834h2.792V149.28z M228.135,150.73h-5.266v0.845
			h5.266V150.73z M229.052,149.004v9.049h0.997v-4.327h1.266v-0.917h-1.266v-3.805H229.052z M228.693,156.499v-0.874
			c-0.708,0.104-1.595,0.187-2.593,0.187v-0.937c1.005-0.144,1.675-0.709,1.675-1.396c0-0.825-0.938-1.472-2.244-1.472
			c-1.297,0-2.223,0.636-2.223,1.459c0,0.732,0.688,1.287,1.732,1.431v0.924h-2.59v0.875l2.681-0.011
			C226.708,156.665,227.904,156.592,228.693,156.499 M226.788,153.479c0,0.399-0.499,0.688-1.247,0.688
			c-0.727,0-1.235-0.288-1.235-0.7c0-0.399,0.508-0.72,1.226-0.72C226.28,152.746,226.788,153.066,226.788,153.479 M237.481,156.306
			v-0.904c-0.768,0.104-2.105,0.193-2.662,0.193v-1.728c1.186-0.206,1.985-1.1,1.985-2.159c0-1.08-1.038-2.221-2.514-2.221
			c-1.474,0-2.512,0.996-2.512,2.21c0,1.083,0.816,1.987,2.022,2.17v1.769h-2.521v0.877h2.282
			C235.278,156.513,236.864,156.377,237.481,156.306 M237.88,149.004v9.049h0.997v-4.34h1.307v-0.926h-1.307v-3.783H237.88z
			 M235.808,151.697c0,0.733-0.539,1.339-1.507,1.339c-0.967,0-1.515-0.605-1.515-1.339c0-0.73,0.539-1.336,1.505-1.336
			C235.258,150.361,235.808,150.967,235.808,151.697 M249.384,150.021h-4.298v0.864h3.151c-0.109,1.379-1.057,3.774-3.68,4.986
			l0.749,0.608C248.078,155.163,249.375,152.162,249.384,150.021 M250.959,149.004v9.049h0.997v-4.402h1.346v-0.913h-1.346v-3.733
			H250.959z M257.596,148.933c-2.204,0-3.37,0.709-3.37,1.654c0,0.956,1.167,1.637,3.37,1.637c2.213,0,3.359-0.691,3.359-1.647
			C260.955,149.661,259.809,148.933,257.596,148.933 M261.982,152.83h-8.774v0.79h8.774V152.83z M259.838,150.587
			c0,0.494-0.847,0.885-2.225,0.885c-1.405,0-2.272-0.391-2.272-0.896s0.818-0.872,2.244-0.872
			C258.98,149.704,259.838,150.082,259.838,150.587 M261.065,157.949v-0.779h-5.664v-0.7h5.444v-2.179h-6.501v0.769h5.434v0.658
			h-5.434v2.231H261.065z M267.948,155.595v-0.874c-0.716,0.154-2.114,0.32-3.04,0.339l-1.136,0.011v-5.203h-0.997v6.098l2.102-0.02
			C266.045,155.924,267.34,155.718,267.948,155.595 M268.638,149.004v9.049h0.997v-4.606h1.315v-0.896h-1.315v-3.547H268.638z
			 M278.643,152.007v-0.825h-5.583v-1.057h5.483v-0.823h-6.5v2.705H278.643z M279.681,152.694h-8.774v0.804h8.774V152.694z
			 M278.763,157.949v-0.79h-5.644v-0.709h5.423v-2.243h-6.5v0.782h5.414v0.709h-5.414v2.251H278.763z M285.079,153.025
			c0-2.037-0.917-3.345-2.373-3.345c-1.447,0-2.393,1.297-2.393,3.345c0,2.026,0.945,3.341,2.393,3.341
			C284.162,156.366,285.079,155.041,285.079,153.025 M287.822,149.004h-0.998v9.049h0.998V149.004z M284.102,153.013
			c0,1.319-0.497,2.44-1.387,2.44c-0.885,0-1.414-1.121-1.414-2.44c0-1.283,0.529-2.426,1.414-2.426
			C283.605,150.587,284.102,151.719,284.102,153.013 M301.208,154.66v-5.656h-0.937v2.264h-1.027v-2.109h-0.937v5.305h0.937v-2.261
			h1.027v2.458H301.208z M301.199,156.553c0-0.979-1.187-1.678-3.389-1.678c-2.194,0-3.419,0.671-3.419,1.646
			c0,0.978,1.207,1.708,3.398,1.708C299.993,158.229,301.199,157.528,301.199,156.553 M300.073,156.54
			c0,0.557-0.928,0.877-2.274,0.877c-1.386,0-2.324-0.32-2.324-0.886c0-0.575,0.947-0.863,2.324-0.863
			C299.166,155.668,300.073,155.956,300.073,156.54 M296.583,149.098h-2.313v0.789h2.313V149.098z M297.669,150.422h-4.457v0.79
			h4.457V150.422z M297.439,153.066c0-0.854-0.766-1.42-2.001-1.42c-1.219,0-2.015,0.566-2.015,1.409c0,0.853,0.796,1.45,2.001,1.45
			C296.663,154.506,297.439,153.908,297.439,153.066 M296.463,153.066c0,0.423-0.318,0.688-1.025,0.688
			c-0.689,0-1.028-0.265-1.028-0.688c0-0.413,0.339-0.671,1.028-0.671C296.145,152.396,296.463,152.653,296.463,153.066
			 M307.646,155.564c-1.646-1.007-2.503-2.376-2.503-4.627v-1.429h-1.049v1.429c0,2.221-0.775,3.856-2.621,4.904l0.799,0.649
			c0.857-0.505,2.072-1.894,2.353-2.9c0.468,1.11,1.575,2.365,2.353,2.715L307.646,155.564z M308.404,149.004v9.049h0.997v-4.514
			h1.326v-0.904h-1.326v-3.631H308.404z M322.679,152.355v-0.864h-5.603v-1.325h5.504v-0.864h-6.501v3.054H322.679z
			 M323.715,153.118h-8.773v0.863h8.773V153.118z M319.328,154.598c-2.232,0-3.479,0.729-3.479,1.812
			c0,1.067,1.247,1.798,3.479,1.798c2.244,0,3.479-0.73,3.479-1.798C322.808,155.326,321.572,154.598,319.328,154.598
			 M321.69,156.409c0,0.636-0.956,0.976-2.362,0.976c-1.425,0-2.361-0.351-2.361-0.976c0-0.648,0.936-1.008,2.361-1.008
			C320.734,155.401,321.69,155.761,321.69,156.409 M328.178,148.933c-2.204,0-3.37,0.709-3.37,1.654c0,0.956,1.166,1.637,3.37,1.637
			c2.213,0,3.36-0.691,3.36-1.647C331.538,149.661,330.392,148.933,328.178,148.933 M332.565,152.83h-8.773v0.79h8.773V152.83z
			 M330.421,150.587c0,0.494-0.848,0.885-2.225,0.885c-1.405,0-2.272-0.391-2.272-0.896s0.818-0.872,2.243-0.872
			C329.563,149.704,330.421,150.082,330.421,150.587 M331.647,157.949v-0.779h-5.663v-0.7h5.443v-2.179h-6.5v0.769h5.434v0.658
			h-5.434v2.231H331.647z"/>
		<path fill="#737070" d="M169.314,169.521c-2.263,0-3.529,0.657-3.529,1.583s1.296,1.615,3.529,1.615
			c2.244,0,3.53-0.659,3.53-1.585C172.844,170.211,171.558,169.521,169.314,169.521 M171.717,171.115
			c0,0.505-0.998,0.813-2.403,0.813c-1.425,0-2.402-0.34-2.402-0.834c0-0.514,0.987-0.761,2.412-0.761
			C170.72,170.333,171.717,170.602,171.717,171.115 M173.7,169.06v-0.834h-3.838v-0.782h2.804v-0.831h-5.596v-0.63h5.495v-0.801
			h-5.495v-0.639h5.515v-0.822h-6.521v3.723h2.692v0.782h-3.829v0.834H173.7z M177.416,164.233h-2.454v0.814h2.454V164.233z
			 M178.492,165.85h-4.585v0.822h4.585V165.85z M182.012,172.576v-9.052h-0.967v3.663h-0.979v-3.456h-0.966v8.433h0.966v-3.99h0.979
			v4.402H182.012z M178.243,169.192c0-1.132-0.877-1.893-2.034-1.893c-1.106,0-2.033,0.752-2.033,1.893
			c0,1.182,0.927,1.912,2.033,1.912C177.375,171.104,178.243,170.365,178.243,169.192 M175.132,169.212
			c0-0.666,0.429-1.101,1.076-1.101c0.659,0,1.067,0.435,1.067,1.092c0,0.668-0.418,1.078-1.067,1.078
			C175.571,170.281,175.132,169.871,175.132,169.212 M193.356,172.576v-3.21h-6.371v0.864h5.362v2.346H193.356z M194.621,167.547
			v-0.864h-1.276v-1.091h1.276v-0.864h-1.276v-1.203h-0.998v5.317h0.998v-1.295H194.621z M190.814,166.034
			c0-1.223-1.007-2.211-2.425-2.211c-1.416,0-2.432,0.988-2.432,2.211c0,1.225,1.017,2.222,2.432,2.222
			C189.807,168.256,190.814,167.259,190.814,166.034 M189.786,166.034c0,0.741-0.499,1.347-1.396,1.347
			c-0.896,0-1.404-0.605-1.404-1.347c0-0.729,0.508-1.336,1.404-1.336C189.287,164.698,189.786,165.306,189.786,166.034
			 M202.917,170.344v-0.782h-1.09v-5.307l-0.917,0.011l-3.31,5.03v1.048h3.33v1.409h0.896v-1.409H202.917z M200.93,169.562h-2.473
			l2.423-3.753l0.05,0.021V169.562z M205.649,166.881c-0.767-0.034-1.316,0.204-1.804,0.677c-0.021-0.432,0.019-0.886,0.229-1.439
			c0.2-0.535,0.558-1.203,1.465-1.203c0.827,0,1.346,0.739,1.436,1.244h0.867c-0.15-1.04-1.058-2.067-2.303-2.067
			c-1.206,0-1.973,0.698-2.384,1.871c-0.387,1.09-0.409,2.993-0.088,3.979c0.338,1.08,1.066,2.007,2.413,2.007
			c1.354,0,2.402-1.101,2.402-2.521C207.882,168.061,206.976,166.93,205.649,166.881 M205.44,171.147
			c-0.868,0-1.447-0.732-1.447-1.719c0-0.978,0.579-1.687,1.447-1.687c0.876,0,1.465,0.709,1.465,1.687
			C206.906,170.415,206.317,171.147,205.44,171.147 M212.802,164.131h-4.367v4.372h4.367V164.131z M216.73,167.001v-0.894h-1.238
			v-2.583h-0.997v6.551h0.997v-3.074H216.73z M215.792,172.37v-0.864h-5.442v-2.025h-0.998v2.89H215.792z M211.814,167.642h-2.382
			v-2.643h2.382V167.642z M227.903,169.008v-5.483h-0.998v1.432h-2.033v-0.825h-4.267v4.146h4.267v-0.823h2.033v1.554H227.903z
			 M226.906,166.621h-2.033v-0.843h2.033V166.621z M223.875,167.402h-2.273v-2.408h2.273V167.402z M227.962,170.909
			c0-1.06-1.145-1.831-3.339-1.831c-2.184,0-3.339,0.771-3.339,1.831c0,1.062,1.155,1.811,3.339,1.811
			C226.817,172.72,227.962,171.971,227.962,170.909 M226.897,170.909c0,0.607-0.908,0.986-2.274,0.986
			c-1.375,0-2.283-0.39-2.283-0.995c0-0.619,0.908-0.969,2.283-0.969C225.989,169.932,226.897,170.292,226.897,170.909
			 M236.943,163.524h-0.997v9.05h0.997V163.524z M235.586,170.537v-0.881c-0.857,0.093-2.443,0.183-3.978,0.204l-2.472,0.011v0.864
			l2.392-0.011C232.884,170.703,234.958,170.602,235.586,170.537 M232.086,164.06c-1.445,0-2.482,1.04-2.482,2.265
			c0,1.233,1.037,2.273,2.482,2.273c1.446,0,2.493-1.04,2.493-2.273C234.58,165.1,233.533,164.06,232.086,164.06 M233.552,166.324
			c0,0.761-0.537,1.398-1.465,1.398c-0.917,0-1.456-0.638-1.456-1.398c0-0.741,0.539-1.39,1.456-1.39
			C233.015,164.935,233.552,165.583,233.552,166.324 M245.634,164.738h2.822v-0.863h-6.701v0.863h2.822
			c-0.13,0.557-0.987,1.844-3.32,2.355l0.668,0.732c1.506-0.363,2.642-1.173,3.18-1.987c0.54,0.854,1.964,1.699,3.183,1.987
			l0.667-0.732C246.581,166.518,245.763,165.295,245.634,164.738 M249.492,169.429v-0.853h-8.773v0.853h3.889v3.147h0.996v-3.147
			H249.492z M253.556,167.929h-2.283v-1.615h2.283V167.929z M254.542,165.078v-1.151h-0.987v1.521h-2.283v-1.521h-0.997v4.866h4.267
			v-1.04h2.016v2.344h0.995v-6.572h-0.995v1.554H254.542z M254.542,165.912h2.014v1.007h-2.014V165.912z M257.742,172.37v-0.864
			h-5.472v-2.015h-0.998v2.879H257.742z M269.765,163.524h-0.996v9.05h0.996V163.524z M267.69,169.983
			c-1.685-0.965-2.303-2.467-2.303-3.928v-0.679h1.994v-0.896h-5.085v0.896h1.985v0.679c0,1.491-0.579,3.128-2.594,4.299
			l0.819,0.698c0.897-0.605,1.944-1.603,2.323-2.816c0.268,0.935,1.406,2.016,2.173,2.539L267.69,169.983z M274.605,166.034
			c0,0.741-0.499,1.347-1.396,1.347c-0.898,0-1.406-0.605-1.406-1.347c0-0.729,0.508-1.336,1.406-1.336
			C274.106,164.698,274.605,165.306,274.605,166.034 M275.133,164.668c-0.427-0.516-1.106-0.845-1.924-0.845
			c-1.415,0-2.432,0.988-2.432,2.211c0,1.225,1.017,2.222,2.432,2.222c0.827,0,1.526-0.349,1.955-0.875h2.252v1.439h0.998v-5.296
			h-0.998v1.144H275.133z M275.583,166.518c0.031-0.152,0.049-0.318,0.049-0.483c0-0.174-0.019-0.34-0.059-0.503h1.843v0.986
			H275.583z M278.404,172.576v-3.229h-6.481v0.864h5.493v2.365H278.404z M290.436,163.524h-0.996v4.774h0.996V163.524z
			 M290.665,172.473v-0.801h-5.453v-0.7h5.213V168.7h-6.33v0.802h5.234v0.698h-5.234v2.272H290.665z M287.534,165.901
			c0-1.255-1.127-2.098-2.362-2.098c-1.247,0-2.363,0.843-2.363,2.098c0,1.265,1.137,2.107,2.363,2.107
			C286.406,168.009,287.534,167.155,287.534,165.901 M286.527,165.88c0,0.67-0.647,1.214-1.355,1.214s-1.356-0.544-1.356-1.214
			c0-0.647,0.648-1.182,1.356-1.182S286.527,165.222,286.527,165.88 M297.08,169.983c-2.023-1.171-2.302-3.075-2.302-3.928v-0.679
			h1.993v-0.896h-5.084v0.896h1.984v0.679c0,0.874-0.27,2.909-2.593,4.299l0.818,0.698c0.896-0.575,2.003-1.787,2.325-2.816
			c0.267,0.915,1.424,2.016,2.172,2.539L297.08,169.983z M297.888,163.524v9.052h0.998v-4.546h1.306v-0.937h-1.306v-3.569H297.888z
			 M307.895,163.524h-0.998v9.05h0.998V163.524z M306.329,170.518v-0.853c-0.567,0.104-1.824,0.215-2.702,0.236l-1.834,0.011v-1.934
			h3.29v-3.579h-4.287v0.874h3.301v1.842h-3.301v3.669l2.523-0.017C304.424,170.746,305.731,170.612,306.329,170.518
			 M321.063,166.734v-0.915h-1.267v-2.295h-0.997v5.524h0.997v-2.314H321.063z M316.695,169.223c-2.164,0-3.31,0.72-3.31,1.738
			c0,1.018,1.167,1.759,3.33,1.759c2.173,0,3.32-0.741,3.32-1.759C320.036,169.942,318.879,169.223,316.695,169.223
			 M316.725,170.034c1.326,0,2.204,0.361,2.204,0.938c0,0.575-0.878,0.956-2.204,0.956c-1.346,0-2.223-0.411-2.223-0.978
			C314.502,170.374,315.379,170.034,316.725,170.034 M316.505,163.524h-2.772v0.832h2.772V163.524z M317.972,167.826
			c-1.635-0.383-2.333-1.564-2.333-1.925h1.864v-0.832h-4.795v0.832h1.854c0,0.36-0.317,1.472-2.462,2.193l0.648,0.769
			c0.829-0.206,2.064-1.091,2.373-1.77c0.398,0.648,1.615,1.42,2.342,1.544L317.972,167.826z M324.627,169.078h-2.712v0.75h5.434
			v0.587h-5.434v2.058h6.739v-0.76h-5.653v-0.587h5.414v-2.048h-2.712v-0.657h3.848v-0.779h-8.773v0.779h3.849V169.078z
			 M328.955,166.518c-1.835-0.082-2.952-0.913-3.042-1.057h2.602v-0.773h-6.7v0.773h2.592c-0.079,0.144-0.917,0.904-3.031,1.057
			l0.579,0.752c0.856-0.032,2.751-0.616,3.209-1.266c0.57,0.617,2.244,1.233,3.211,1.266L328.955,166.518z M326.96,163.381h-3.6
			v0.771h3.6V163.381z"/>
		<path fill="#DBAAD0" d="M171.534,125.932h3.124v-1.199h-7.983v1.199h3.158c-0.176,0.567-0.645,1.026-1.279,1.438
			c-0.786,0.507-1.89,0.896-2.455,1.016l0.811,1.004c0.564-0.121,1.444-0.4,2.278-0.907c0.704-0.423,1.21-0.822,1.515-1.233
			c0.282,0.411,0.786,0.811,1.489,1.233c0.836,0.507,1.716,0.786,2.281,0.907l0.811-1.004c-0.565-0.12-1.669-0.509-2.455-1.016
			C172.191,126.958,171.723,126.499,171.534,125.932 M175.846,131.397v-1.199h-10.333v1.199h4.45v3.579h1.397v-3.579H175.846z
			 M180.42,129.278h-2.454v-1.606h2.454V129.278z M181.782,126.039v-1.317h-1.362v1.704h-2.454v-1.704h-1.363v5.792h5.178v-1.1H184
			v2.623h1.364v-7.704H184v1.706H181.782z M181.782,127.212H184v1.04h-2.219V127.212z M185.599,134.733v-1.22h-6.33v-2.093h-1.42
			v3.313H185.599z M196.057,124.333h-1.363v10.644h1.363V124.333z M189.422,126.645v0.447c0,0.605-0.2,1.923-0.775,2.926
			c-0.518,0.894-1.315,1.631-2.244,2.226l1.128,0.918c0.576-0.397,1.033-0.75,1.501-1.28c0.553-0.63,0.894-1.16,1.129-1.765
			c0.247,0.508,0.552,1.015,1.01,1.532c0.586,0.666,1.256,1.065,1.467,1.188l0.878-1.053c-0.326-0.196-1.137-0.75-1.771-1.62
			c-0.716-0.993-0.88-2.481-0.88-3.072v-0.447h2.267v-1.223h-5.967v1.223H189.422z M201.511,127.332
			c0,0.775-0.531,1.429-1.467,1.429c-0.93,0-1.468-0.653-1.468-1.429c0-0.773,0.538-1.439,1.468-1.439
			C200.98,125.893,201.511,126.559,201.511,127.332 M202.322,125.652c-0.504-0.606-1.327-0.99-2.291-0.99
			c-1.678,0-2.876,1.146-2.876,2.646s1.198,2.636,2.876,2.636c0.988,0,1.809-0.387,2.327-1.016h2.499v1.68h1.364v-6.275h-1.364
			v1.319H202.322z M202.886,127.731c0.024-0.133,0.036-0.279,0.036-0.423c0-0.157-0.012-0.313-0.036-0.471h1.971v0.894H202.886z
			 M206.186,134.977v-3.883h-7.729v1.246h6.367v2.637H206.186z M220.363,124.333H219v5.539h1.363V124.333z M216.924,127.126
			c0-1.486-1.34-2.49-2.808-2.49c-1.479,0-2.807,1.004-2.807,2.49c0,1.502,1.351,2.503,2.807,2.503
			C215.583,129.629,216.924,128.615,216.924,127.126 M215.525,127.103c0,0.702-0.669,1.27-1.41,1.27c-0.74,0-1.408-0.567-1.408-1.27
			c0-0.677,0.668-1.233,1.408-1.233C214.856,125.869,215.525,126.413,215.525,127.103 M220.61,134.856v-1.139h-6.26v-0.653h6.002
			v-2.816h-7.515v1.125h5.987v0.651h-5.987v2.832H220.61z M223.999,126.645v0.447c0,0.605-0.2,1.923-0.775,2.926
			c-0.518,0.894-1.316,1.631-2.244,2.226l1.127,0.918c0.577-0.397,1.034-0.75,1.503-1.28c0.552-0.63,0.894-1.16,1.128-1.765
			c0.246,0.508,0.551,1.015,1.01,1.532c0.585,0.666,1.256,1.065,1.468,1.188l0.879-1.053c-0.328-0.196-1.138-0.75-1.772-1.62
			c-0.717-0.993-0.88-2.481-0.88-3.072v-0.447h2.265v-1.223h-5.965v1.223H223.999z M231.784,129.775v-1.33h-1.457v-4.112h-1.361
			v10.644h1.361v-5.201H231.784z M240.902,124.333h-1.362v10.644h1.362V124.333z M238.766,132.581v-1.208
			c-0.706,0.118-2.337,0.265-3.334,0.275l-1.715,0.013v-2.043h3.827v-4.329h-5.189v1.248h3.827v1.86h-3.827v4.499l2.595-0.025
			C236.312,132.86,238.025,132.69,238.766,132.581 M256.326,128.082v-1.244h-1.409v-2.505h-1.362v6.374h1.362v-2.625H256.326z
			 M251.054,124.346h-3.442v1.137h3.442V124.346z M252.639,129.221c-0.399-0.073-0.939-0.267-1.598-0.691
			c-0.481-0.314-0.845-0.737-1.021-1.244h2.136v-1.173h-5.683v1.173h2.126c-0.13,0.53-0.435,0.919-1.045,1.39
			c-0.517,0.399-1.42,0.811-1.844,0.918l0.904,1.042c0.318-0.097,0.822-0.314,1.469-0.714c0.538-0.339,1.021-0.847,1.243-1.22
			c0.259,0.324,0.671,0.698,1.128,0.978c0.538,0.326,1.138,0.545,1.479,0.629L252.639,129.221z M255.21,133.017
			c0-1.198-1.409-2.129-4.018-2.129c-2.593,0-4.014,0.931-4.014,2.129c0,1.235,1.421,2.104,4.014,2.104
			C253.801,135.12,255.21,134.214,255.21,133.017 M248.74,133.017c0-0.593,0.95-0.992,2.465-0.992c1.493,0,2.466,0.399,2.466,1.003
			c0,0.559-0.973,0.993-2.466,0.993C249.69,134.021,248.74,133.586,248.74,133.017 M260.432,130.817h-3.136v1.026h6.224v0.533
			h-6.224v2.479h8.008v-1.029h-6.446v-0.531h6.188v-2.479h-3.124v-0.68h4.416v-1.063h-10.333v1.063h4.428V130.817z M263.319,124.129
			h-4.311v1.027h4.311V124.129z M262.311,126.716h2.875v-1.027h-8.032v1.027h2.901c-0.342,0.229-1,0.507-1.374,0.629
			c-0.704,0.229-1.492,0.424-2.009,0.471l0.752,0.945c0.411-0.049,1.115-0.146,2.043-0.46c0.787-0.269,1.48-0.666,1.728-0.859
			c0.222,0.193,0.916,0.591,1.702,0.859c0.928,0.314,1.633,0.411,2.043,0.46l0.751-0.945c-0.517-0.047-1.303-0.242-2.007-0.471
			C263.308,127.223,262.65,126.945,262.311,126.716"/>
	</g>
</g>
</svg>
