<?xml version="1.0" encoding="utf-8"?>
<!-- Generator: Adobe Illustrator 16.0.0, SVG Export Plug-In . SVG Version: 6.00 Build 0)  -->
<!DOCTYPE svg PUBLIC "-//W3C//DTD SVG 1.0//EN" "http://www.w3.org/TR/2001/REC-SVG-20010904/DTD/svg10.dtd">
<svg version="1.0" id="레이어_1" xmlns="http://www.w3.org/2000/svg" xmlns:xlink="http://www.w3.org/1999/xlink" x="0px"
	 y="0px" width="270px" height="270px" viewBox="0 0 270 270" enable-background="new 0 0 270 270" xml:space="preserve">
<g>
	<g>
		<path fill="#FFD400" d="M98.038,88.761c-3.498,0-6.516-1.988-6.654-6.377H82.47c0.137,10.216,7.611,14.4,15.568,14.4
			c8.365,0,15.496-4.801,15.496-14.539c0-5.897-2.809-9.258-6.307-11.109c3.221-1.715,5.623-4.732,5.623-10.013
			c0-8.229-6.24-13.989-14.883-13.989c-8.229,0-14.744,5.212-14.949,13.922h8.916c0.205-3.704,2.674-5.898,6.033-5.898
			c3.223,0,5.967,2.126,5.967,6.24c0,3.43-1.852,6.104-6.172,6.104H96.46v7.749h1.303c4.389,0,6.857,2.675,6.857,6.721
			C104.62,86.36,101.878,88.761,98.038,88.761z"/>
		<path fill="#FFD400" d="M135.343,96.784c8.64,0,15.225-5.624,15.225-15.225c0-9.053-6.242-14.47-12.826-14.47
			c-1.164,0-2.468,0.138-3.634,0.618l10.15-20.162h-9.738l-10.286,21.121c-2.193,4.457-4.115,8.571-4.115,13.029
			C120.118,91.366,126.702,96.784,135.343,96.784z M135.343,74.497c3.771,0,6.309,2.811,6.309,7.131
			c0,4.526-2.674,7.133-6.309,7.133s-6.31-2.606-6.31-7.133C129.033,77.103,131.708,74.497,135.343,74.497z"/>
		<path fill="#FFD400" d="M172.718,96.784c7.955,0,14.813-5.213,14.813-14.539V61.672c0-9.326-6.857-14.538-14.813-14.538
			c-7.956,0-14.883,5.212-14.883,14.538v20.573C157.835,91.571,164.762,96.784,172.718,96.784z M166.751,61.81
			c0-4.115,2.471-6.652,5.967-6.652s5.897,2.537,5.897,6.652v20.367c0,4.113-2.401,6.584-5.897,6.584s-5.967-2.471-5.967-6.584
			V61.81z"/>
		<path fill="#FFD400" d="M197.95,63.229c2.346,0,3.961-0.916,4.937-1.951c1.431-1.492,1.796-3.291,1.796-6.186
			c0-2.865-0.365-4.662-1.796-6.156c-0.976-1.035-2.591-1.949-4.937-1.949c-2.347,0-3.932,0.914-4.906,1.949
			c-1.434,1.494-1.799,3.291-1.799,6.156c0,2.895,0.365,4.693,1.799,6.186C194.019,62.313,195.604,63.229,197.95,63.229z
			 M196.12,51.253c0.459-0.457,1.039-0.701,1.83-0.701c0.793,0,1.402,0.244,1.859,0.701c0.822,0.823,0.914,2.195,0.914,3.84
			s-0.092,3.047-0.914,3.869c-0.457,0.459-1.066,0.701-1.859,0.701c-0.791,0-1.371-0.242-1.83-0.701
			c-0.822-0.822-0.912-2.225-0.912-3.869S195.298,52.076,196.12,51.253z"/>
		<path fill="#FFD400" d="M220.856,71.333c11.973,5.346,19.005,11.859,19.005,18.889c0,17.479-43.454,31.774-98.32,32.834
			l18.204,10.51l-17.773,10.262c63.984-1.26,114.76-19.756,114.76-42.392C256.731,89.671,243.015,79.023,220.856,71.333z"/>
		<path fill="#FFD400" d="M146.036,133.565l-29.119-16.813v5.879c-49.296-2.689-86.779-16.176-86.779-32.41
			c0-7.029,7.033-13.543,19.006-18.889c-22.158,7.69-35.875,18.338-35.875,30.103c0,21.308,44.994,38.944,103.648,41.993v6.951
			L146.036,133.565z"/>
	</g>
	<path fill-rule="evenodd" clip-rule="evenodd" fill="#FFD400" d="M74.03,172.972c-2.025-3.646-0.714-8.252,2.933-10.277
		c3.649-2.027,8.251-0.715,10.28,2.932l18.91,34.131l18.162-32.801l-0.029-0.012c0.941-1.672,2.323-3.055,3.973-4l0.755-0.379
		c1.399-0.666,2.955-1.041,4.575-1.041h53.381c2.846,0,5.446,1.133,7.374,2.953c2.009,1.916,3.264,4.58,3.264,7.529v20.563
		c0,2.955-1.255,5.621-3.264,7.531c-1.475,1.402-3.368,2.395-5.446,2.777l5.261,8.674c2.16,3.564,1.021,8.207-2.543,10.367
		c-3.565,2.156-8.212,1.018-10.371-2.549l-9.918-16.314h-18.093v12.371c0,4.189-3.392,7.586-7.584,7.586
		c-4.187,0-7.583-3.396-7.583-7.586V195.47c0-4.189,3.396-7.584,7.583-7.584h36.791v-11.191h-46.273l-23.197,41.902
		c-0.65,1.371-1.719,2.559-3.147,3.352c-3.646,2.029-8.251,0.713-10.278-2.934L74.03,172.972z"/>
</g>
<g>
</g>
<g>
</g>
<g>
</g>
<g>
</g>
<g>
</g>
<g>
</g>
<g>
</g>
<g>
</g>
<g>
</g>
<g>
</g>
<g>
</g>
<g>
</g>
<g>
</g>
<g>
</g>
<g>
</g>
</svg>
