<?xml version="1.0" encoding="utf-8"?>
<!-- Generator: Adobe Illustrator 16.0.0, SVG Export Plug-In . SVG Version: 6.00 Build 0)  -->
<!DOCTYPE svg PUBLIC "-//W3C//DTD SVG 1.1//EN" "http://www.w3.org/Graphics/SVG/1.1/DTD/svg11.dtd">
<svg version="1.1" id="레이어_1" xmlns="http://www.w3.org/2000/svg" xmlns:xlink="http://www.w3.org/1999/xlink" x="0px"
	 y="0px" width="89.92px" height="54.377px" viewBox="0 0 89.92 54.377" enable-background="new 0 0 89.92 54.377"
	 xml:space="preserve">
<path fill="#7C542C" d="M24.61,24.116c0.349-0.115-1.392,4.526-2.089,4.991c-0.697,0.464-1.16,1.855-1.276,2.67
	c-0.116,0.811-0.477,4.369-0.477,4.369l1.87,0.041l0.115-3.831c0,0,1.322-0.94,0.982-1.139c-0.342-0.196-0.17-1.646-0.17-1.646
	s2.953-1.74,2.953-2.671c0-0.93,0.876-1.391,0.876-1.391L24.61,24.116z"/>
<path fill="none" stroke="#1E3F73" stroke-width="0.8438" stroke-linecap="round" stroke-linejoin="round" d="M24.61,24.116
	c0.349-0.115-1.392,4.526-2.089,4.991c-0.697,0.464-1.16,1.855-1.276,2.67c-0.116,0.811-0.477,4.369-0.477,4.369l1.87,0.041
	l0.115-3.831c0,0,1.322-0.94,0.982-1.139c-0.342-0.196-0.17-1.646-0.17-1.646s2.953-1.74,2.953-2.671
	c0-0.93,0.876-1.391,0.876-1.391L24.61,24.116z"/>
<path fill="#BF854E" d="M17.126,16.557c0,0-4.405,5.728-4.701,1.873c-0.115-1.508,2.418-4.305,2.437-4.293
	c0.02,0.011,2.265-4.08,2.265-2.899c0,1.179,9.393,6.189,9.393,6.189s10.247-3.961,12.829-5.612
	c2.582-1.649,5.958,0.012,5.958,3.844c0,3.833,3.473,4.316,3.473,4.316s2.505,0.166,1.594,2.285c0,0-1.279-0.69-2.205-1.045
	c-0.924-0.354-3.133-1.275-3.713-2.552c0,0,0.066,2.485-1.186,4.492c-1.251,2.006-1.831,3.746-1.6,4.676
	c0.23,0.927,1.276,0.115,1.16,0.927c-0.116,0.813-0.718,1.461-0.591,2.298c0.127,0.836,0.439,3.287,0.439,3.287l-1.561,0.9
	l-0.261-4.164c0,0-2.205-1.624-1.509-2.784s-1.625-4.643-1.625-4.643s-0.855,0.406-1.914,0.969c-1.34,0.715-3.007,1.683-3.656,2.396
	c-1.16,1.277-1.898,3.08-2.864,4.209c-0.965,1.13,0.655,1.682-0.794,2.74c0,0,0.525,1.522,0.525,2.451
	c0,0.927-2.501,1.392-2.501,1.392v-4.983c0,0,0.645-2.211,1.341-3.14s0.348-3.829,0.348-3.829s-2.653-0.352-3.879-2.612
	C23.101,20.983,17.126,16.557,17.126,16.557"/>
<path fill="none" stroke="#1E3F73" stroke-width="0.8438" stroke-linecap="round" stroke-linejoin="round" d="M17.126,16.557
	c0,0-4.405,5.728-4.701,1.873c-0.115-1.508,2.418-4.305,2.437-4.293c0.02,0.011,2.265-4.08,2.265-2.899
	c0,1.179,9.393,6.189,9.393,6.189s10.247-3.961,12.829-5.612c2.582-1.649,5.958,0.012,5.958,3.844c0,3.833,3.473,4.316,3.473,4.316
	s2.505,0.166,1.594,2.285c0,0-1.279-0.69-2.205-1.045c-0.924-0.354-3.133-1.275-3.713-2.552c0,0,0.066,2.485-1.186,4.492
	c-1.251,2.006-1.831,3.746-1.6,4.676c0.23,0.927,1.276,0.115,1.16,0.927c-0.116,0.813-0.718,1.461-0.591,2.298
	c0.127,0.836,0.439,3.287,0.439,3.287l-1.561,0.9l-0.261-4.164c0,0-2.205-1.624-1.509-2.784s-1.625-4.643-1.625-4.643
	s-0.855,0.406-1.914,0.969c-1.34,0.715-3.007,1.683-3.656,2.396c-1.16,1.277-1.898,3.08-2.864,4.209
	c-0.965,1.13,0.655,1.682-0.794,2.74c0,0,0.525,1.522,0.525,2.451c0,0.927-2.501,1.392-2.501,1.392v-4.983
	c0,0,0.645-2.211,1.341-3.14s0.348-3.829,0.348-3.829s-2.653-0.352-3.879-2.612C23.101,20.983,17.126,16.557,17.126,16.557z"/>
<line fill="none" stroke="#1E3F73" stroke-width="0.8438" stroke-linecap="round" stroke-linejoin="round" x1="12.773" y1="17.153" x2="14.978" y2="18.778"/>
<path fill="#7C542C" d="M17.126,11.236l2.029,0.231c0,0,5.791,3.827,7.363,4.061s4.357-0.231,4.357-0.231s-3.261,1.664-4.357,1.506
	C25.423,16.646,17.126,11.236,17.126,11.236"/>
<path fill="none" stroke="#1E3F73" stroke-width="0.8438" stroke-linecap="round" stroke-linejoin="round" d="M17.126,11.236
	l2.029,0.231c0,0,5.791,3.827,7.363,4.061s4.357-0.231,4.357-0.231s-3.261,1.664-4.357,1.506
	C25.423,16.646,17.126,11.236,17.126,11.236z"/>
<path fill="#7C542C" d="M35.913,27.402l-0.103-2.781l1.913-0.969c0,0,1.857,2.555,1.741,3.249c-0.116,0.696-1.998,1.398-1.623,1.615
	c0.376,0.218,0.811,1.055,0.463,1.402c-0.348,0.349-0.696,4.642-0.696,4.642s-1.695,0-1.695,0.348c0,0.346,1.115-4.409,0.882-5.337
	C36.563,28.644,35.913,28.95,35.913,27.402"/>
<path fill="none" stroke="#1E3F73" stroke-width="0.8438" stroke-linecap="round" stroke-linejoin="round" d="M35.913,27.402
	l-0.103-2.781l1.913-0.969c0,0,1.857,2.555,1.741,3.249c-0.116,0.696-1.998,1.398-1.623,1.615c0.376,0.218,0.811,1.055,0.463,1.402
	c-0.348,0.349-0.696,4.642-0.696,4.642s-1.695,0-1.695,0.348c0,0.346,1.115-4.409,0.882-5.337
	C36.563,28.644,35.913,28.95,35.913,27.402z"/>
<path fill="#7C542C" d="M63.267,25.404c-1.625-0.813-8.703,0.115-11.256,0.231c-2.554,0.116-9.4,0.233-10.908,2.089
	c-0.717,0.882-0.924,2.471-0.945,4.044c-0.268,0.991-0.805,2.708-1.377,3.035c-0.365,0.209-0.871,0.872-1.327,1.609
	c-0.557,0.897-1.04,1.905-1.109,2.336c-0.126,0.784-0.464,2.67-0.464,2.67s0.709,0.124,1.398-1.272
	c0.69-1.397,0.574-1.397,0.922-2.441c0.211-0.632,1.266-1.979,2.07-2.949c0.034,0.507,0.064,0.93,0.064,1.207
	c0,1.395,0,5.948-0.203,7.165s0.971,2.933,0.971,2.933l-0.233,2.088l2.321-0.116c0,0-0.464-1.508-0.58-1.856
	c-0.116-0.348-0.812-1.74-0.464-1.972c0.348-0.233,0.135-1.169-0.328-1.437s0.404-1.945,1.527-2.595
	c1.124-0.648,2.979-3.744,2.979-3.744c1.624-0.349,10.676,1.394,11.256,1.16c0.581-0.231,2.901-0.231,2.784,0.929
	c-0.114,1.16-1.242,0.81-1.242,1.972c0,1.161,1.128,3.83,1.359,4.295c0.232,0.463-0.117,3.713-0.117,3.713l2.091-0.58
	c0,0,0.464-1.856,0.347-2.437c-0.115-0.579-0.232-2.67-0.347-3.946c-0.116-1.275,0.58-3.134,0.58-3.134s1.16-3.016,1.672-4.11
	c0.513-1.095-0.512-2.736-0.512-2.736"/>
<path fill="none" stroke="#1E3F73" stroke-width="0.8438" stroke-linecap="round" stroke-linejoin="round" d="M64.196,31.554
	c0,0,1.024,1.642,0.512,2.736c-0.512,1.095-1.672,4.11-1.672,4.11s-0.696,1.858-0.58,3.134c0.114,1.276,0.231,3.367,0.347,3.946
	c0.117,0.58-0.347,2.437-0.347,2.437l-2.091,0.58c0,0,0.35-3.25,0.117-3.713c-0.231-0.465-1.359-3.134-1.359-4.295
	c0-1.162,1.128-0.812,1.242-1.972c0.117-1.16-2.203-1.16-2.784-0.929c-0.58,0.233-9.632-1.509-11.256-1.16
	c0,0-1.854,3.096-2.979,3.744c-1.123,0.649-1.99,2.327-1.527,2.595s0.676,1.203,0.328,1.437c-0.348,0.231,0.348,1.624,0.464,1.972
	c0.116,0.349,0.58,1.856,0.58,1.856l-2.321,0.116l0.233-2.088c0,0-1.174-1.716-0.971-2.933s0.203-5.771,0.203-7.165
	c0-0.277-0.03-0.7-0.064-1.207c-0.805,0.97-1.859,2.317-2.07,2.949c-0.348,1.044-0.231,1.044-0.922,2.441
	c-0.689,1.396-1.398,1.272-1.398,1.272s0.338-1.886,0.464-2.67c0.069-0.431,0.553-1.438,1.109-2.336
	c0.456-0.737,0.962-1.4,1.327-1.609c0.572-0.327,1.109-2.044,1.377-3.035c0.021-1.573,0.229-3.162,0.945-4.044
	c1.508-1.855,8.354-1.973,10.908-2.089c2.553-0.116,9.631-1.045,11.256-0.231L64.196,31.554z"/>
</svg>
