<?xml version="1.0" encoding="utf-8"?>
<!-- Generator: Adobe Illustrator 16.0.0, SVG Export Plug-In . SVG Version: 6.00 Build 0)  -->
<!DOCTYPE svg PUBLIC "-//W3C//DTD SVG 1.1//EN" "http://www.w3.org/Graphics/SVG/1.1/DTD/svg11.dtd">
<svg version="1.1" id="레이어_1" xmlns="http://www.w3.org/2000/svg" xmlns:xlink="http://www.w3.org/1999/xlink" x="0px"
	 y="0px" width="18.303px" height="44.032px" viewBox="0 0 18.303 44.032" enable-background="new 0 0 18.303 44.032"
	 xml:space="preserve">
<g>
	<path fill="#FFE89B" d="M14.451,18.885c0.171,0.211,0.246,0.497,0.178,0.781l-0.984,4.146c-1.044,1.912-0.605,0.789-1.094,0.676
		c-0.487-0.118-0.789-0.607-0.673-1.096l0.984-4.146c0.114-0.487,0.605-0.788,1.093-0.673
		C14.158,18.621,14.329,18.734,14.451,18.885"/>
	<path fill="#FFE89B" d="M13.789,19.96c0.483-0.03,0.849-0.453,0.849-0.937l-0.113-4.52c0-0.395-0.245-0.761-0.622-0.876
		c-0.624-0.191-0.968,0.27-0.968,0.863l-0.113,4.564C12.821,19.576,13.261,19.995,13.789,19.96"/>
	<path fill="#F8D1C1" d="M13.73,14.641c0.281,0,0.51-0.126,0.51-0.408v-1.298c0-0.281-0.229-0.51-0.51-0.51
		c-0.283,0-0.512,0.229-0.512,0.51v1.298C13.219,14.515,13.447,14.641,13.73,14.641"/>
	<path fill="#F8D1C1" d="M12.449,12.714c0,0.493,0.399,0.895,0.893,0.895c0.494,0,0.895-0.401,0.895-0.895s-0.4-0.894-0.895-0.894
		C12.849,11.82,12.449,12.221,12.449,12.714"/>
</g>
</svg>
