<?xml version="1.0" encoding="utf-8"?>
<!-- Generator: Adobe Illustrator 16.0.0, SVG Export Plug-In . SVG Version: 6.00 Build 0)  -->
<!DOCTYPE svg PUBLIC "-//W3C//DTD SVG 1.1//EN" "http://www.w3.org/Graphics/SVG/1.1/DTD/svg11.dtd">
<svg version="1.1" id="레이어_1" xmlns="http://www.w3.org/2000/svg" xmlns:xlink="http://www.w3.org/1999/xlink" x="0px"
	 y="0px" width="40.948px" height="35.876px" viewBox="12.086 17.325 40.948 35.876"
	 enable-background="new 12.086 17.325 40.948 35.876" xml:space="preserve">
<g>
	<path fill="#3A393A" d="M50.497,20.764c-0.176-0.273-0.096-0.636,0.176-0.812c0.271-0.175,0.636-0.096,0.811,0.176
		c0.176,0.272,0.098,0.636-0.176,0.812C51.036,21.114,50.672,21.035,50.497,20.764"/>
	<path fill="#F5A900" d="M13.219,52.419h3.154l16.246-15.145l19.17-17.257c0.33-0.299,0.36-0.808,0.065-1.142
		c-0.272-0.31-0.733-0.365-1.073-0.13L26.931,35.335L13.219,52.419z"/>
	<path fill="none" stroke="#1E3F73" stroke-width="0.844" stroke-linecap="round" stroke-linejoin="round" d="M13.219,52.419h3.154
		l16.246-15.145l19.17-17.257c0.33-0.299,0.36-0.808,0.065-1.142c-0.272-0.31-0.733-0.365-1.073-0.13L26.931,35.335L13.219,52.419z"
		/>
</g>
</svg>
