<?xml version="1.0" encoding="utf-8"?>
<!-- Generator: Adobe Illustrator 16.0.0, SVG Export Plug-In . SVG Version: 6.00 Build 0)  -->
<!DOCTYPE svg PUBLIC "-//W3C//DTD SVG 1.1//EN" "http://www.w3.org/Graphics/SVG/1.1/DTD/svg11.dtd">
<svg version="1.1" id="레이어_1" xmlns="http://www.w3.org/2000/svg" xmlns:xlink="http://www.w3.org/1999/xlink" x="0px"
	 y="0px" width="23.428px" height="31.317px" viewBox="45.958 12.162 23.428 31.317"
	 enable-background="new 45.958 12.162 23.428 31.317" xml:space="preserve">
<g>
	<polygon fill="#32416D" points="57.89,19.334 56.938,18.022 50.452,16.364 54.625,21.698 	"/>
	<g>
		<g>
			<defs>
				
					<rect id="SVGID_1_" x="66.883" y="38.013" transform="matrix(0.0203 0.9998 -0.9998 0.0203 104.0295 -29.7069)" width="0.578" height="0.426"/>
			</defs>
			<clipPath id="SVGID_2_">
				<use xlink:href="#SVGID_1_"  overflow="visible"/>
			</clipPath>
			
				<rect x="66.965" y="37.942" transform="matrix(0.0235 0.9997 -0.9997 0.0235 103.8122 -29.8251)" clip-path="url(#SVGID_2_)" fill="#8A8C8B" width="0.416" height="0.569"/>
		</g>
	</g>
	
		<rect x="66.327" y="39.839" transform="matrix(0.9998 -0.0215 0.0215 0.9998 -0.8582 1.4534)" fill="#E7BD25" width="1.819" height="1.678"/>
	<path fill="#1E3F73" d="M67.905,41.455c0.008,0.354-0.273,0.65-0.63,0.656c-0.354,0.008-0.649-0.275-0.657-0.63
		c-0.006-0.354,0.276-0.649,0.631-0.656C67.603,40.817,67.899,41.1,67.905,41.455"/>
	<path fill="#FBCA33" d="M66.56,39.853l1.64-0.034l-0.011-0.462l-0.205,0.005l-0.063-0.229h-0.01l-0.234-0.942l-0.221,0.004
		l-0.033-1.5c0.025-0.013,0.056-0.016,0.08-0.031c0.386-0.248,0.494-0.76,0.25-1.145c-0.125-0.193-0.315-0.317-0.522-0.361
		l-4.847-7.528l0.043-0.028l-0.155-0.242l-0.106,0.07l-0.107-0.102l-0.166,0.105l-3.826-5.934l0.168-0.106l-0.305-0.832l0.008-0.005
		l-0.068-0.205l0.156-0.102l-0.229-0.354l-0.59,0.379l0.515-0.33l-0.827-1.286l0,0c-0.248-0.383-0.762-0.494-1.145-0.246
		c-0.386,0.246-0.496,0.759-0.25,1.144l0.828,1.285l-0.052,0.033l0.228,0.354l0.158-0.103l0.157,0.149l0.009-0.006l0.629,0.622
		l0.17-0.11l0.09,0.138l3.738,5.795L61.29,27.82l0.047,0.14l-0.107,0.07l0.154,0.241l0.305-0.195l-0.26,0.167l4.648,7.221
		l-2.371-0.35l0.553,0.752l-0.021,0.017l2.033,0.301c0.021,0.077,0.043,0.157,0.091,0.229c0.116,0.186,0.298,0.301,0.495,0.352
		l0.029,1.442l-0.221,0.004l-0.192,0.953h-0.013l-0.053,0.231L66.204,39.4l0.008,0.459h0.102l0.036,1.677v0.001
		c0.011,0.502,0.426,0.9,0.93,0.892c0.503-0.013,0.897-0.428,0.892-0.931l-0.039-1.678L66.56,39.853z"/>
	<path fill="none" stroke="#1E3F73" stroke-width="0.844" stroke-linecap="round" stroke-linejoin="round" d="M66.56,39.853
		l1.64-0.034l-0.011-0.462l-0.205,0.005l-0.063-0.229h-0.01l-0.234-0.942l-0.221,0.004l-0.033-1.5
		c0.025-0.013,0.056-0.016,0.08-0.031c0.386-0.248,0.494-0.76,0.25-1.145c-0.125-0.193-0.315-0.317-0.522-0.361l-4.847-7.528
		l0.043-0.028l-0.155-0.242l-0.106,0.07l-0.107-0.102l-0.166,0.105l-3.826-5.934l0.168-0.106l-0.305-0.832l0.008-0.005l-0.068-0.205
		l0.156-0.102l-0.229-0.354l-0.59,0.379l0.515-0.33l-0.827-1.286l0,0c-0.248-0.383-0.762-0.494-1.145-0.246
		c-0.386,0.246-0.496,0.759-0.25,1.144l0.828,1.285l-0.052,0.033l0.228,0.354l0.158-0.103l0.157,0.149l0.009-0.006l0.629,0.622
		l0.17-0.11l0.09,0.138l3.738,5.795L61.29,27.82l0.047,0.14l-0.107,0.07l0.154,0.241l0.305-0.195l-0.26,0.167l4.648,7.221
		l-2.371-0.35l0.553,0.752l-0.021,0.017l2.033,0.301c0.021,0.077,0.043,0.157,0.091,0.229c0.116,0.186,0.298,0.301,0.495,0.352
		l0.029,1.442l-0.221,0.004l-0.192,0.953h-0.013l-0.053,0.231L66.204,39.4l0.008,0.459h0.102l0.036,1.677v0.001
		c0.011,0.502,0.426,0.9,0.93,0.892c0.503-0.013,0.897-0.428,0.892-0.931l-0.039-1.678L66.56,39.853z"/>
	<path fill="#1E3F73" d="M66.562,36.282c-0.174-0.271-0.097-0.634,0.176-0.81c0.271-0.175,0.638-0.097,0.812,0.176
		c0.174,0.271,0.096,0.634-0.176,0.81C67.102,36.633,66.735,36.554,66.562,36.282"/>
	<path fill="#1E3F73" d="M55.723,19.466c-0.176-0.271-0.098-0.636,0.175-0.811s0.638-0.096,0.81,0.175
		c0.176,0.273,0.098,0.636-0.172,0.813C56.26,19.816,55.897,19.737,55.723,19.466"/>
	<path fill="#F5A900" d="M47.063,14.988l2.999,8.051l13.854,14.834l1.153-0.802L54.938,19.214l-6.465-5.238
		c-0.313-0.252-0.753-0.271-1.083-0.04C47.054,14.171,46.92,14.604,47.063,14.988"/>
	<path fill="none" stroke="#1E3F73" stroke-width="0.844" stroke-linecap="round" stroke-linejoin="round" d="M47.063,14.988
		l2.999,8.051l13.854,14.834l1.153-0.802L54.938,19.214l-6.465-5.238c-0.313-0.252-0.753-0.271-1.083-0.04
		C47.054,14.171,46.92,14.604,47.063,14.988z"/>
	<path fill="#1E3F73" d="M48.461,14.721c0,0.273-0.221,0.495-0.494,0.495c-0.272,0-0.495-0.222-0.495-0.495
		c0-0.272,0.223-0.495,0.495-0.495C48.241,14.226,48.461,14.448,48.461,14.721"/>
</g>
</svg>
