<?xml version="1.0" encoding="utf-8"?>
<!-- Generator: Adobe Illustrator 16.0.0, SVG Export Plug-In . SVG Version: 6.00 Build 0)  -->
<!DOCTYPE svg PUBLIC "-//W3C//DTD SVG 1.1//EN" "http://www.w3.org/Graphics/SVG/1.1/DTD/svg11.dtd">
<svg version="1.1" id="레이어_1" xmlns="http://www.w3.org/2000/svg" xmlns:xlink="http://www.w3.org/1999/xlink" x="0px"
	 y="0px" width="10.497px" height="22.625px" viewBox="0 0 10.497 22.625" enable-background="new 0 0 10.497 22.625"
	 xml:space="preserve">
<path fill="#FBCA33" d="M4.344,3.893c0.093-0.187,0.158-0.389,0.148-0.611C4.461,2.585,3.873,2.047,3.178,2.08
	C2.484,2.111,1.945,2.699,1.977,3.395c0.018,0.381,0.211,0.703,0.49,0.922L6.09,20.656c0.104,0.463,0.525,0.773,0.983,0.753
	c0.055-0.002,0.108-0.009,0.165-0.022c0.519-0.115,0.847-0.629,0.731-1.146L4.344,3.893z"/>
<path fill="none" stroke="#1E3F73" stroke-width="0.844" stroke-linecap="round" stroke-linejoin="round" d="M4.344,3.893
	c0.093-0.187,0.158-0.389,0.148-0.611C4.461,2.585,3.873,2.047,3.178,2.08C2.484,2.111,1.945,2.699,1.977,3.395
	c0.018,0.381,0.211,0.703,0.49,0.922L6.09,20.656c0.104,0.463,0.525,0.773,0.983,0.753c0.055-0.002,0.108-0.009,0.165-0.022
	c0.519-0.115,0.847-0.629,0.731-1.146L4.344,3.893z"/>
<path fill="#1E3F73" d="M3.875,3.309c0.018,0.354-0.257,0.654-0.611,0.67C2.911,3.994,2.61,3.721,2.594,3.366
	C2.578,3.013,2.852,2.713,3.206,2.697C3.56,2.68,3.859,2.955,3.875,3.309"/>
</svg>
