<?xml version="1.0" encoding="utf-8"?>
<!-- Generator: Adobe Illustrator 16.0.0, SVG Export Plug-In . SVG Version: 6.00 Build 0)  -->
<!DOCTYPE svg PUBLIC "-//W3C//DTD SVG 1.1//EN" "http://www.w3.org/Graphics/SVG/1.1/DTD/svg11.dtd">
<svg version="1.1" id="레이어_1" xmlns="http://www.w3.org/2000/svg" xmlns:xlink="http://www.w3.org/1999/xlink" x="0px"
	 y="0px" width="93.158px" height="70.443px" viewBox="0 0 93.158 70.443" enable-background="new 0 0 93.158 70.443"
	 xml:space="preserve">
<g>
	
		<rect x="58.008" y="9.605" transform="matrix(-0.6634 -0.7483 0.7483 -0.6634 86.3121 67.4386)" fill="#E7BD25" width="0.633" height="9.403"/>
	<g>
		<g>
			<defs>
				<rect id="SVGID_1_" x="54.601" y="16.887" width="0.765" height="0.78"/>
			</defs>
			<clipPath id="SVGID_2_">
				<use xlink:href="#SVGID_1_"  overflow="visible"/>
			</clipPath>
			
				<rect x="54.752" y="16.96" transform="matrix(0.7486 -0.663 0.663 0.7486 2.3668 40.7956)" clip-path="url(#SVGID_2_)" fill="#8A8C8B" width="0.462" height="0.634"/>
		</g>
	</g>
	<polygon fill="#E7BD25" points="53.613,17.398 54.7,18.623 55.378,17.677 54.632,16.836 	"/>
	
		<rect x="51.948" y="18.166" transform="matrix(-0.6637 -0.748 0.748 -0.6637 73.8216 71.3872)" fill="#E7BD25" width="2.022" height="1.866"/>
	
		<rect x="51.948" y="18.166" transform="matrix(-0.6637 -0.748 0.748 -0.6637 73.8216 71.3872)" fill="#E7BD25" width="2.022" height="1.866"/>
	<polygon fill="#E7BD25" points="53.212,17.593 54.458,18.999 54.757,18.562 53.68,17.349 	"/>
	<g>
		<g>
			<defs>
				<rect id="SVGID_3_" x="53.211" y="17.35" width="1.546" height="1.649"/>
			</defs>
			<clipPath id="SVGID_4_">
				<use xlink:href="#SVGID_3_"  overflow="visible"/>
			</clipPath>
			<polygon clip-path="url(#SVGID_4_)" fill="#8A8C8B" points="53.212,17.593 54.458,18.999 54.757,18.562 53.68,17.349 			"/>
		</g>
	</g>
	
		<rect x="52.732" y="18.04" transform="matrix(-0.664 -0.7477 0.7477 -0.664 75.9033 70.6975)" fill="#E7BD25" width="2.206" height="0.512"/>
	<polygon fill="#E7BD25" points="69.441,3.554 70.362,4.591 62.296,11.702 61.376,10.664 	"/>
	<g>
		<g>
			<defs>
				<rect id="SVGID_5_" x="61.376" y="10.57" width="1.025" height="1.13"/>
			</defs>
			<clipPath id="SVGID_6_">
				<use xlink:href="#SVGID_5_"  overflow="visible"/>
			</clipPath>
			
				<rect x="61.818" y="10.444" transform="matrix(0.7521 -0.659 0.659 0.7521 8.0006 43.5446)" clip-path="url(#SVGID_6_)" fill="#8A8C8B" width="0.142" height="1.385"/>
		</g>
	</g>
	<polygon fill="#EDC547" points="61.277,10.817 62.134,11.781 61.813,11.949 61.073,11.117 	"/>
	
		<rect x="60.949" y="11.123" transform="matrix(-0.6644 -0.7473 0.7473 -0.6644 94.2614 64.9212)" fill="#E7BD25" width="1.514" height="0.353"/>
	<path fill="#E7BD25" d="M53.017,19.047c-0.37-0.417-1.009-0.456-1.428-0.085c-0.417,0.371-0.454,1.009-0.084,1.426
		s1.009,0.456,1.426,0.086C53.349,20.103,53.388,19.464,53.017,19.047"/>
	<path fill="#3A393A" d="M52.78,20.221c-0.294,0.261-0.748,0.234-1.009-0.06c-0.262-0.294-0.233-0.747,0.06-1.01
		c0.296-0.262,0.748-0.234,1.011,0.061C53.103,19.507,53.075,19.96,52.78,20.221"/>
</g>
</svg>
