<?xml version="1.0" encoding="utf-8"?>
<!-- Generator: Adobe Illustrator 16.0.0, SVG Export Plug-In . SVG Version: 6.00 Build 0)  -->
<!DOCTYPE svg PUBLIC "-//W3C//DTD SVG 1.1//EN" "http://www.w3.org/Graphics/SVG/1.1/DTD/svg11.dtd">
<svg version="1.1" id="레이어_1" xmlns="http://www.w3.org/2000/svg" xmlns:xlink="http://www.w3.org/1999/xlink" x="0px"
	 y="0px" width="93.158px" height="70.443px" viewBox="0 0 93.158 70.443" enable-background="new 0 0 93.158 70.443"
	 xml:space="preserve">
<g>
	<polygon fill="#3A393A" points="81.116,7.456 80.062,5.998 72.854,4.156 77.491,10.081 	"/>
	<polygon fill="#E7BE27" points="87.577,24.983 88.189,25.818 88.165,25.836 91.544,26.336 91.655,25.585 	"/>
	<path fill="#E7BD25" d="M88.22,26.627c-0.424,0.059-0.722,0.45-0.662,0.873c0.059,0.424,0.45,0.721,0.873,0.661
		c0.424-0.058,0.721-0.45,0.662-0.874C89.035,26.865,88.643,26.569,88.22,26.627"/>
	<path fill="#3A393A" d="M88.868,27.32c0.041,0.299-0.168,0.577-0.468,0.618c-0.3,0.042-0.577-0.168-0.618-0.467
		c-0.042-0.3,0.168-0.577,0.468-0.619C88.549,26.811,88.827,27.02,88.868,27.32"/>
	<polygon fill="#E7BD25" points="91.06,26.176 91.114,28.678 91.747,28.663 91.683,25.719 	"/>
	<g>
		<g>
			<defs>
				<rect id="SVGID_1_" x="91.105" y="28.203" width="0.642" height="0.475"/>
			</defs>
			<clipPath id="SVGID_2_">
				<use xlink:href="#SVGID_1_"  overflow="visible"/>
			</clipPath>
			
				<rect x="91.196" y="28.123" transform="matrix(-0.0212 -0.9998 0.9998 -0.0212 64.9267 120.448)" clip-path="url(#SVGID_2_)" fill="#8A8C8B" width="0.462" height="0.634"/>
		</g>
	</g>
	<polygon fill="#E7BD25" points="90.632,29.563 92.269,29.528 91.987,28.398 90.864,28.421 	"/>
	
		<rect x="90.492" y="30.232" transform="matrix(-0.9998 0.0217 -0.0217 -0.9998 183.6625 60.3306)" fill="#E7BD25" width="2.022" height="1.863"/>
	
		<rect x="90.492" y="30.232" transform="matrix(-0.9998 0.0217 -0.0217 -0.9998 183.6625 60.3306)" fill="#E7BD25" width="2.022" height="1.863"/>
	<polygon fill="#E7BD25" points="90.521,29.996 92.398,29.955 92.261,29.445 90.637,29.48 	"/>
	<g>
		<g>
			<defs>
				<rect id="SVGID_3_" x="90.521" y="29.445" width="1.879" height="0.551"/>
			</defs>
			<clipPath id="SVGID_4_">
				<use xlink:href="#SVGID_3_"  overflow="visible"/>
			</clipPath>
			<polygon clip-path="url(#SVGID_4_)" fill="#8A8C8B" points="90.521,29.996 92.398,29.955 92.261,29.445 90.637,29.48 			"/>
		</g>
	</g>
	
		<rect x="90.357" y="29.718" transform="matrix(-0.9998 0.0215 -0.0215 -0.9998 183.5415 57.9793)" fill="#E7BD25" width="2.206" height="0.513"/>
	<path fill="#E7BD25" d="M91.502,31.084c-0.558,0.013-1.001,0.474-0.989,1.032s0.475,1.001,1.032,0.989
		c0.558-0.011,1.001-0.474,0.989-1.032C92.521,31.515,92.06,31.073,91.502,31.084"/>
	<path fill="#3A393A" d="M92.243,32.025c0.008,0.395-0.305,0.723-0.699,0.73c-0.395,0.007-0.723-0.306-0.73-0.7
		c-0.008-0.393,0.305-0.721,0.7-0.73C91.907,31.317,92.235,31.63,92.243,32.025"/>
	<path fill="#E7BE27" d="M77.841,7.452c0,0-6.289-4.751-6.414-4.922c-0.396-0.542-1.156-0.658-1.698-0.261
		c-0.542,0.397-0.658,1.156-0.262,1.697c0.08,0.109,2.856,7.629,2.856,7.629l15.484,16.583c0.308,0.417,0.895,0.509,1.313,0.203
		c0.42-0.307,0.51-0.896,0.203-1.314L77.841,7.452z"/>
	<path fill="#3A393A" d="M71.03,4.007c-0.295,0.261-0.747,0.234-1.01-0.061c-0.262-0.294-0.233-0.747,0.061-1.01
		c0.295-0.261,0.748-0.234,1.01,0.061S71.325,3.746,71.03,4.007"/>
	
		<rect x="82.969" y="9.133" transform="matrix(0.8416 -0.5402 0.5402 0.8416 5.9462 47.0975)" fill="#E7BD25" width="0.577" height="8.559"/>
	<g>
		<g>
			<defs>
				<rect id="SVGID_5_" x="80.696" y="9.661" width="0.711" height="0.666"/>
			</defs>
			<clipPath id="SVGID_6_">
				<use xlink:href="#SVGID_5_"  overflow="visible"/>
			</clipPath>
			
				<rect x="80.842" y="9.705" transform="matrix(0.5406 0.8413 -0.8413 0.5406 45.6385 -63.5943)" clip-path="url(#SVGID_6_)" fill="#8A8C8B" width="0.419" height="0.576"/>
		</g>
	</g>
	<polygon fill="#E7BD25" points="81.134,8.745 79.881,9.551 80.638,10.293 81.497,9.739 	"/>
	
		<rect x="78.775" y="7.069" transform="matrix(0.8409 -0.5412 0.5412 0.8409 8.3955 44.3914)" fill="#E7BD25" width="1.84" height="1.697"/>
	
		<rect x="78.775" y="7.069" transform="matrix(0.8409 -0.5412 0.5412 0.8409 8.3955 44.3914)" fill="#E7BD25" width="1.84" height="1.697"/>
	<polygon fill="#E7BD25" points="81.014,8.355 79.575,9.281 79.926,9.61 81.169,8.811 	"/>
	<g>
		<g>
			<defs>
				<rect id="SVGID_7_" x="79.575" y="8.355" width="1.594" height="1.256"/>
			</defs>
			<clipPath id="SVGID_8_">
				<use xlink:href="#SVGID_7_"  overflow="visible"/>
			</clipPath>
			<polygon clip-path="url(#SVGID_8_)" fill="#8A8C8B" points="81.014,8.355 79.575,9.281 79.926,9.61 81.169,8.811 			"/>
		</g>
	</g>
	
		<rect x="79.29" y="8.585" transform="matrix(0.8408 -0.5414 0.5414 0.8408 8.0116 44.8754)" fill="#E7BD25" width="2.009" height="0.467"/>
	
		<rect x="87.742" y="16.187" transform="matrix(0.8403 -0.542 0.542 0.8403 2.536 51.311)" fill="#E7BD25" width="1.262" height="10.327"/>
	<g>
		<g>
			<defs>
				<rect id="SVGID_9_" x="85.047" y="16.667" width="1.132" height="0.792"/>
			</defs>
			<clipPath id="SVGID_10_">
				<use xlink:href="#SVGID_9_"  overflow="visible"/>
			</clipPath>
			
				<rect x="85.548" y="16.432" transform="matrix(0.5388 0.8424 -0.8424 0.5388 53.8551 -64.2518)" clip-path="url(#SVGID_10_)" fill="#8A8C8B" width="0.129" height="1.262"/>
		</g>
	</g>
	<polygon fill="#EDC547" points="85.985,16.557 84.998,17.192 84.892,16.88 85.744,16.331 	"/>
	
		<rect x="84.802" y="16.715" transform="matrix(0.841 -0.541 0.541 0.841 4.461 48.9308)" fill="#E7BD25" width="1.378" height="0.32"/>
	<path fill="#E7BD25" d="M79.733,7.978c0.426-0.276,0.551-0.844,0.275-1.271s-0.844-0.552-1.271-0.276
		c-0.428,0.275-0.551,0.844-0.275,1.271C78.737,8.129,79.306,8.253,79.733,7.978"/>
	<path fill="#E7BD25" d="M91.796,26.702c0.427-0.276,0.549-0.844,0.275-1.271c-0.275-0.427-0.844-0.552-1.271-0.276
		c-0.428,0.274-0.551,0.844-0.275,1.27C90.798,26.853,91.368,26.976,91.796,26.702"/>
	<path fill="#3A393A" d="M90.751,26.28c-0.195-0.303-0.107-0.705,0.194-0.9s0.705-0.107,0.899,0.196
		c0.195,0.301,0.105,0.704-0.194,0.898C91.348,26.67,90.945,26.582,90.751,26.28"/>
	<path fill="#3A393A" d="M78.71,7.602c-0.193-0.303-0.107-0.706,0.195-0.9c0.301-0.194,0.705-0.107,0.9,0.195
		c0.193,0.302,0.105,0.706-0.196,0.899C79.309,7.991,78.904,7.903,78.71,7.602"/>
</g>
</svg>
