<?xml version="1.0" encoding="utf-8"?>
<!-- Generator: Adobe Illustrator 16.0.0, SVG Export Plug-In . SVG Version: 6.00 Build 0)  -->
<!DOCTYPE svg PUBLIC "-//W3C//DTD SVG 1.1//EN" "http://www.w3.org/Graphics/SVG/1.1/DTD/svg11.dtd">
<svg version="1.1" id="레이어_1" xmlns="http://www.w3.org/2000/svg" xmlns:xlink="http://www.w3.org/1999/xlink" x="0px"
	 y="0px" width="93.158px" height="70.443px" viewBox="0 0 93.158 70.443" enable-background="new 0 0 93.158 70.443"
	 xml:space="preserve">
<g>
	
		<rect x="51.574" y="39.952" transform="matrix(-0.9908 0.1353 -0.1353 -0.9908 108.9823 75.6498)" fill="#E7BD25" width="0.693" height="3.152"/>
	<g>
		<g>
			<defs>
				<rect id="SVGID_1_" x="51.724" y="42.542" width="0.756" height="0.595"/>
			</defs>
			<clipPath id="SVGID_2_">
				<use xlink:href="#SVGID_1_"  overflow="visible"/>
			</clipPath>
			
				<rect x="51.85" y="42.492" transform="matrix(-0.1376 -0.9905 0.9905 -0.1376 16.8407 100.3413)" clip-path="url(#SVGID_2_)" fill="#8A8C8B" width="0.504" height="0.694"/>
		</g>
	</g>
	<polygon fill="#E7BD25" points="51.381,44.16 53.154,43.913 52.706,42.722 51.487,42.89 	"/>
	
		<rect x="51.425" y="44.769" transform="matrix(-0.9905 0.1373 -0.1373 -0.9905 110.85 83.9322)" fill="#E7BD25" width="2.212" height="2.04"/>
	
		<rect x="51.425" y="44.769" transform="matrix(-0.9905 0.1373 -0.1373 -0.9905 110.85 83.9322)" fill="#E7BD25" width="2.212" height="2.04"/>
	<polygon fill="#E7BD25" points="51.313,44.644 53.352,44.362 53.135,43.825 51.377,44.07 	"/>
	<g>
		<g>
			<defs>
				<rect id="SVGID_3_" x="51.313" y="43.826" width="2.037" height="0.818"/>
			</defs>
			<clipPath id="SVGID_4_">
				<use xlink:href="#SVGID_3_"  overflow="visible"/>
			</clipPath>
			<polygon clip-path="url(#SVGID_4_)" fill="#8A8C8B" points="51.313,44.644 53.352,44.362 53.135,43.825 51.377,44.07 			"/>
		</g>
	</g>
	
		<rect x="51.126" y="44.223" transform="matrix(-0.9905 0.1376 -0.1376 -0.9905 110.2897 81.3844)" fill="#E7BD25" width="2.414" height="0.56"/>
	
		<rect x="50.095" y="27.615" transform="matrix(-0.9904 0.138 -0.138 -0.9904 105.8888 60.2974)" fill="#E7BD25" width="1.517" height="12.411"/>
	<g>
		<g>
			<defs>
				<rect id="SVGID_5_" x="50.932" y="39.71" width="1.523" height="0.36"/>
			</defs>
			<clipPath id="SVGID_6_">
				<use xlink:href="#SVGID_5_"  overflow="visible"/>
			</clipPath>
			
				<rect x="51.616" y="39.132" transform="matrix(-0.1459 -0.9893 0.9893 -0.1459 19.7693 96.8495)" clip-path="url(#SVGID_6_)" fill="#8A8C8B" width="0.154" height="1.517"/>
		</g>
	</g>
	<polygon fill="#EDC547" points="51.032,40.254 52.429,40.061 52.386,40.457 51.181,40.623 	"/>
	
		<rect x="50.903" y="39.965" transform="matrix(-0.9904 0.138 -0.138 -0.9904 108.509 72.7914)" fill="#E7BD25" width="1.655" height="0.386"/>
	<path fill="#E7BD25" d="M52.52,45.704c-0.605,0.083-1.027,0.642-0.944,1.247c0.084,0.604,0.642,1.026,1.248,0.942
		c0.604-0.083,1.027-0.642,0.942-1.245C53.683,46.042,53.124,45.62,52.52,45.704"/>
	<path fill="#E7BD25" d="M49.829,26.256c-0.605,0.083-1.027,0.641-0.944,1.246s0.642,1.027,1.247,0.944
		c0.604-0.084,1.027-0.642,0.943-1.247C50.991,26.595,50.433,26.171,49.829,26.256"/>
	<path fill="#3A393A" d="M50.755,27.244c0.06,0.428-0.24,0.824-0.668,0.882c-0.428,0.06-0.822-0.24-0.883-0.667
		c-0.059-0.427,0.241-0.823,0.668-0.881C50.3,26.517,50.694,26.816,50.755,27.244"/>
	<path fill="#3A393A" d="M53.444,46.63c0.06,0.428-0.24,0.822-0.668,0.883c-0.428,0.059-0.822-0.241-0.883-0.668
		c-0.059-0.427,0.241-0.823,0.668-0.881C52.989,45.904,53.384,46.204,53.444,46.63"/>
</g>
</svg>
