<?xml version="1.0" encoding="utf-8"?>
<!-- Generator: Adobe Illustrator 16.0.0, SVG Export Plug-In . SVG Version: 6.00 Build 0)  -->
<!DOCTYPE svg PUBLIC "-//W3C//DTD SVG 1.1//EN" "http://www.w3.org/Graphics/SVG/1.1/DTD/svg11.dtd">
<svg version="1.1" id="레이어_1" xmlns="http://www.w3.org/2000/svg" xmlns:xlink="http://www.w3.org/1999/xlink" x="0px"
	 y="0px" width="125.381px" height="58.714px" viewBox="0 0 125.381 58.714" enable-background="new 0 0 125.381 58.714"
	 xml:space="preserve">
<g>
	<path fill="#E7F4F9" d="M27.182,33.574c0,0-4.18-2.222-6.009,1.196c-1.831,3.417,0.333,4.706,2.269,5.239
		c1.936,0.532,6.074,0.748,4.905,2.968c-1.169,2.219-3.332,1.701-5.183,5.04c-1,1.804-0.651,4.055,3.218,5.507
		c2.539,0.952,6.821-0.201,9.05-2.359c2.23-2.159,2.183-4.02,5.445-1.505c3.262,2.517,4.254,6.255,7.38,5.498s0.95-3.39,2.373-4.983
		c1.423-1.595,10.017,4.467,12.642,1.725c2.624-2.742,2.438-6.367,6.408-4.989c3.971,1.379,3.133,4.003,8.609,0.733
		c5.479-3.268,6.361-3.981,11.322-4.447c4.959-0.467,4.767-0.642,10.58-3.484c5.813-2.843,6.407-3.979,12.016-3.979
		c5.609,0.002,6.076-2.215,5.896-3.864c-0.18-1.649,3.008-2.122,5.19-3.851c2.182-1.727,0.205-3.609-1.73-2.664
		c-1.935,0.947-3.15,6.276-5.895,5.344c-2.744-0.931-11.954,0.341-14.639,2.434s-55.355,7.171-55.355,7.171L27.182,33.574z"/>
	<path fill="#EC7E88" d="M101.354,32.077c-3.818,0.899-34.827,3.366-42.129,3.965c-7.305,0.599-15.143,0.477-21.314,0.33
		c-6.174-0.145-24.135,0.67-26.111-0.361c-4.789-2.497-8.916-9.884-8.984-10.008c-0.072,0.472-0.09,0.974-0.044,1.513
		c0.216,2.458-0.629,4.808,1.853,7.4c2.483,2.59,5.095,4.059,6.078,4.002l35.031,1.171l-0.951,3.013l55.355-7.171
		c0,0,4.921-3.258,5.041-4.576C103.997,31.525,102.819,31.732,101.354,32.077"/>
	<path fill="none" stroke="#1E3F73" stroke-width="0.8438" stroke-linecap="round" stroke-linejoin="round" d="M101.354,32.077
		c-3.818,0.899-34.827,3.366-42.129,3.965c-7.305,0.599-15.143,0.477-21.314,0.33c-6.174-0.145-24.135,0.67-26.111-0.361
		c-4.789-2.497-8.916-9.884-8.984-10.008c-0.072,0.472-0.09,0.974-0.044,1.513c0.216,2.458-0.629,4.808,1.853,7.4
		c2.483,2.59,5.095,4.059,6.078,4.002l35.031,1.171l-0.951,3.013l55.355-7.171c0,0,4.921-3.258,5.041-4.576
		C103.997,31.525,102.819,31.732,101.354,32.077z"/>
	<path fill="#FFFCE6" d="M92.723,9.312L81.944,10.32l13.729,12.265c0,0,4.131-0.686,7.955-1.154l0.284-1.449L92.723,9.312z"/>
	<path fill="none" stroke="#1E3F73" stroke-width="0.8438" stroke-linecap="round" stroke-linejoin="round" d="M92.723,9.312
		L81.944,10.32l13.729,12.265c0,0,4.131-0.686,7.955-1.154l0.284-1.449L92.723,9.312z"/>
	<polygon fill="#003E89" points="44.781,43.102 39.651,40.245 45.732,40.089 	"/>
	<path fill="#F4A55D" d="M48.029,32.822c3.357-0.068,43.322-3.26,43.322-3.26s0.62-2.815,2.904-3.041l8.256-1.179
		c-0.026-0.056-0.054-0.112-0.074-0.156c-0.066-0.14-0.078-0.289-0.035-0.427l0.653-2.067c0.155-0.489-0.396-0.987-1.021-0.925
		l-53.408,5.386c-0.299,0.029-0.612-0.073-0.818-0.273L36.684,16.204c-0.342-0.328-2.465-3.57-2.807-3.291l-1.792,5.896
		c-0.081,0.065-0.183,0.108-0.292,0.139l12.566,13.003C44.359,31.951,44.672,32.893,48.029,32.822"/>
	<path fill="none" stroke="#1E3F73" stroke-width="0.8438" stroke-linecap="round" stroke-linejoin="round" d="M48.029,32.822
		c3.357-0.068,43.322-3.26,43.322-3.26s0.62-2.815,2.904-3.041l8.256-1.179c-0.026-0.056-0.054-0.112-0.074-0.156
		c-0.066-0.14-0.078-0.289-0.035-0.427l0.653-2.067c0.155-0.489-0.396-0.987-1.021-0.925l-53.408,5.386
		c-0.299,0.029-0.612-0.073-0.818-0.273L36.684,16.204c-0.342-0.328-2.465-3.57-2.807-3.291l-1.792,5.896
		c-0.081,0.065-0.183,0.108-0.292,0.139l12.566,13.003C44.359,31.951,44.672,32.893,48.029,32.822z"/>
	<path fill="#FFFCE6" d="M2.553,26.106c0.707,1.222,4.517,7.535,8.869,9.807c1.977,1.028,20.314,0.314,26.487,0.459
		c6.174,0.146,14.011,0.27,21.314-0.33c7.304-0.598,38.312-3.066,42.13-3.965c1.466-0.345,2.644-0.552,3.826-0.722
		c0.004-0.064,0.011-0.128-0.008-0.179c-0.34-0.918-2.098-4.646-2.66-5.834l-8.256,1.178c-2.285,0.226-2.904,3.042-2.904,3.042
		s-39.967,3.191-43.322,3.26c-3.357,0.071-3.67-0.871-3.67-0.871L31.795,18.949c-0.049,0.015-0.096,0.03-0.146,0.035
		c0,0-13.236,3.535-13.585,3.591L2.553,26.106z"/>
	<path fill="none" stroke="#1E3F73" stroke-width="0.8438" stroke-linecap="round" stroke-linejoin="round" d="M2.553,26.106
		c0.707,1.222,4.517,7.535,8.869,9.807c1.977,1.028,20.314,0.314,26.487,0.459c6.174,0.146,14.011,0.27,21.314-0.33
		c7.304-0.598,38.312-3.066,42.13-3.965c1.466-0.345,2.644-0.552,3.826-0.722c0.004-0.064,0.011-0.128-0.008-0.179
		c-0.34-0.918-2.098-4.646-2.66-5.834l-8.256,1.178c-2.285,0.226-2.904,3.042-2.904,3.042s-39.967,3.191-43.322,3.26
		c-3.357,0.071-3.67-0.871-3.67-0.871L31.795,18.949c-0.049,0.015-0.096,0.03-0.146,0.035c0,0-13.236,3.535-13.585,3.591
		L2.553,26.106z"/>
	<polygon fill="#1E3F73" points="103.628,21.43 95.672,22.584 94.754,24.944 103.068,23.725 	"/>
	<polygon fill="#FAD8B8" points="33.877,12.913 48.627,27.153 94.891,22.222 77.904,6.352 	"/>
	<polygon fill="none" stroke="#1E3F73" stroke-width="0.8438" stroke-linecap="round" stroke-linejoin="round" points="
		33.877,12.913 48.627,27.153 94.891,22.222 77.904,6.352 	"/>
	<polygon fill="#EF8A55" points="93.174,22.498 48.627,27.153 46.959,32.589 90.844,29.37 	"/>
	<polygon fill="none" stroke="#1E3F73" stroke-width="0.8438" stroke-linecap="round" stroke-linejoin="round" points="
		93.174,22.498 48.627,27.153 46.959,32.589 90.844,29.37 	"/>
	<polyline fill="none" stroke="#1E3F73" stroke-width="0.8438" stroke-linecap="round" stroke-linejoin="round" points="
		42.084,11.741 55.313,26.472 53.548,32.346 	"/>
	<polyline fill="none" stroke="#1E3F73" stroke-width="0.8438" stroke-linecap="round" stroke-linejoin="round" points="
		50.063,10.515 63.03,25.603 61.27,31.54 	"/>
	<polyline fill="none" stroke="#1E3F73" stroke-width="0.8438" stroke-linecap="round" stroke-linejoin="round" points="
		58.567,9.557 71.568,24.166 68.713,31.164 	"/>
	<polyline fill="none" stroke="#1E3F73" stroke-width="0.8438" stroke-linecap="round" stroke-linejoin="round" points="
		66.609,8.454 79.269,23.933 77.104,30.786 	"/>
	<polyline fill="none" stroke="#1E3F73" stroke-width="0.8438" stroke-linecap="round" stroke-linejoin="round" points="
		72.792,7.47 86.979,22.787 84.709,29.971 	"/>
	<polyline fill="none" stroke="#1E3F73" stroke-width="0.8438" stroke-linecap="round" stroke-linejoin="round" points="
		34.994,21.403 36.539,16.515 81.653,9.866 	"/>
	<polyline fill="none" stroke="#1E3F73" stroke-width="0.8438" stroke-linecap="round" stroke-linejoin="round" points="
		38.813,25.983 40.686,20.051 85.437,13.591 	"/>
	<polyline fill="none" stroke="#1E3F73" stroke-width="0.8438" stroke-linecap="round" stroke-linejoin="round" points="
		42.809,29.674 44.682,23.744 89.588,17.433 	"/>
	<polygon fill="#6CBBE9" points="94.921,16.64 94.974,16.467 79.682,1.598 35.711,7.112 50.003,21.364 	"/>
	<polygon fill="none" stroke="#1E3F73" stroke-width="0.8438" stroke-linecap="round" stroke-linejoin="round" points="
		94.921,16.64 94.974,16.467 79.682,1.598 35.711,7.112 50.003,21.364 	"/>
	<polygon fill="#4099D0" points="35.709,7.111 33.877,12.913 48.154,27.216 50.003,21.364 	"/>
	<polygon fill="none" stroke="#1E3F73" stroke-width="0.8438" stroke-linecap="round" stroke-linejoin="round" points="
		35.709,7.111 33.877,12.913 48.154,27.216 50.003,21.364 	"/>
	<polygon fill="#266C92" points="93.174,22.498 94.921,16.64 50.003,21.364 48.154,27.216 48.234,27.297 	"/>
	<polygon fill="none" stroke="#1E3F73" stroke-width="0.8438" stroke-linecap="round" stroke-linejoin="round" points="
		93.174,22.498 94.921,16.64 50.003,21.364 48.154,27.216 48.234,27.297 	"/>
	<polyline fill="none" stroke="#1E3F73" stroke-width="0.8438" stroke-linecap="round" stroke-linejoin="round" points="
		43.484,6.379 56.715,21.111 54.949,26.986 	"/>
	<polyline fill="none" stroke="#1E3F73" stroke-width="0.8438" stroke-linecap="round" stroke-linejoin="round" points="
		51.465,5.155 64.432,20.242 63.03,25.603 	"/>
	<polyline fill="none" stroke="#1E3F73" stroke-width="0.8438" stroke-linecap="round" stroke-linejoin="round" points="
		59.969,4.196 72.971,18.806 70.992,25.068 	"/>
	<polyline fill="none" stroke="#1E3F73" stroke-width="0.8438" stroke-linecap="round" stroke-linejoin="round" points="
		68.012,3.093 80.669,18.574 79.268,23.933 	"/>
	<polyline fill="none" stroke="#1E3F73" stroke-width="0.8438" stroke-linecap="round" stroke-linejoin="round" points="
		74.193,2.11 88.381,17.426 86.979,22.787 	"/>
	<polyline fill="none" stroke="#1E3F73" stroke-width="0.8438" stroke-linecap="round" stroke-linejoin="round" points="
		36.838,16.851 38.712,10.92 82.092,4.646 	"/>
	<polyline fill="none" stroke="#1E3F73" stroke-width="0.8438" stroke-linecap="round" stroke-linejoin="round" points="
		40.855,20.573 42.729,14.642 86.229,8.566 	"/>
	<polyline fill="none" stroke="#1E3F73" stroke-width="0.8438" stroke-linecap="round" stroke-linejoin="round" points="
		44.746,24.117 46.619,18.187 90.029,12.208 	"/>
</g>
</svg>
