<?xml version="1.0" encoding="utf-8"?>
<!-- Generator: Adobe Illustrator 16.0.0, SVG Export Plug-In . SVG Version: 6.00 Build 0)  -->
<!DOCTYPE svg PUBLIC "-//W3C//DTD SVG 1.1//EN" "http://www.w3.org/Graphics/SVG/1.1/DTD/svg11.dtd">
<svg version="1.1" id="레이어_1" xmlns="http://www.w3.org/2000/svg" xmlns:xlink="http://www.w3.org/1999/xlink" x="0px"
	 y="0px" width="52.095px" height="88.789px" viewBox="0 0 52.095 88.789" enable-background="new 0 0 52.095 88.789"
	 xml:space="preserve">
<g>
	<line fill="#334F9B" x1="25.751" y1="72.731" x2="25.77" y2="76.247"/>
	<rect x="24.004" y="74.329" transform="matrix(0.005 1 -1 0.005 100.1212 48.3553)" fill="#334F9B" width="3.515" height="0.32"/>
	<line fill="#334F9B" x1="22.532" y1="76.247" x2="22.532" y2="70.182"/>
	<rect x="22.375" y="70.182" fill="#334F9B" width="0.314" height="6.065"/>
	<line fill="#334F9B" x1="28.989" y1="76.247" x2="28.989" y2="70.182"/>
	<rect x="28.832" y="70.182" fill="#334F9B" width="0.315" height="6.065"/>
	<rect x="22.373" y="76.247" fill="#334F9B" width="6.774" height="7.027"/>
	<g>
		<defs>
			<rect id="SVGID_1_" x="22.375" y="76.247" width="6.772" height="7.027"/>
		</defs>
		<clipPath id="SVGID_2_">
			<use xlink:href="#SVGID_1_"  overflow="visible"/>
		</clipPath>
		<rect x="22.373" y="76.247" clip-path="url(#SVGID_2_)" fill="#334F9B" width="6.774" height="7.027"/>
		<line clip-path="url(#SVGID_2_)" fill="#334F9B" x1="20.462" y1="75.102" x2="25.849" y2="84.419"/>
		<line clip-path="url(#SVGID_2_)" fill="#334F9B" x1="19.156" y1="75.102" x2="24.546" y2="84.419"/>
		<line clip-path="url(#SVGID_2_)" fill="#334F9B" x1="21.765" y1="75.102" x2="27.149" y2="84.419"/>
		<line clip-path="url(#SVGID_2_)" fill="#334F9B" x1="23.067" y1="75.102" x2="28.452" y2="84.419"/>
		<line clip-path="url(#SVGID_2_)" fill="#334F9B" x1="24.371" y1="75.102" x2="29.757" y2="84.419"/>
		<line clip-path="url(#SVGID_2_)" fill="#334F9B" x1="25.676" y1="75.102" x2="31.061" y2="84.419"/>
		<line clip-path="url(#SVGID_2_)" fill="#334F9B" x1="26.978" y1="75.102" x2="32.363" y2="84.419"/>
		<line clip-path="url(#SVGID_2_)" fill="#334F9B" x1="20.462" y1="75.102" x2="25.849" y2="84.419"/>
		<line clip-path="url(#SVGID_2_)" fill="#334F9B" x1="19.156" y1="75.102" x2="24.546" y2="84.419"/>
		<line clip-path="url(#SVGID_2_)" fill="#334F9B" x1="21.765" y1="75.102" x2="27.149" y2="84.419"/>
		<line clip-path="url(#SVGID_2_)" fill="#334F9B" x1="23.067" y1="75.102" x2="28.452" y2="84.419"/>
		<line clip-path="url(#SVGID_2_)" fill="#334F9B" x1="24.371" y1="75.102" x2="29.757" y2="84.419"/>
		<line clip-path="url(#SVGID_2_)" fill="#334F9B" x1="25.676" y1="75.102" x2="31.061" y2="84.419"/>
		<line clip-path="url(#SVGID_2_)" fill="#334F9B" x1="26.978" y1="75.102" x2="32.363" y2="84.419"/>
		<line clip-path="url(#SVGID_2_)" fill="#334F9B" x1="31.061" y1="75.102" x2="25.676" y2="84.419"/>
		<line clip-path="url(#SVGID_2_)" fill="#334F9B" x1="32.363" y1="75.102" x2="26.978" y2="84.419"/>
		<line clip-path="url(#SVGID_2_)" fill="#334F9B" x1="29.757" y1="75.102" x2="24.371" y2="84.419"/>
		<line clip-path="url(#SVGID_2_)" fill="#334F9B" x1="28.452" y1="75.102" x2="23.067" y2="84.419"/>
		<line clip-path="url(#SVGID_2_)" fill="#334F9B" x1="27.149" y1="75.102" x2="21.765" y2="84.419"/>
		<line clip-path="url(#SVGID_2_)" fill="#334F9B" x1="25.849" y1="75.102" x2="20.462" y2="84.419"/>
		<line clip-path="url(#SVGID_2_)" fill="#334F9B" x1="24.546" y1="75.102" x2="19.156" y2="84.419"/>
	</g>
	<path fill="#334F9B" d="M25.815,1.797C13.166,1.797,2.91,12.039,2.91,24.674c0,12.633,22.905,48.443,22.905,48.443
		S48.72,37.307,48.72,24.674C48.72,12.039,38.468,1.797,25.815,1.797"/>
	<path fill="#FFE167" d="M25.815,1.797v71.32c0,0,22.904-35.811,22.904-48.443C48.72,12.039,38.468,1.797,25.815,1.797"/>
	<path fill="#334F9B" d="M2.91,24.674c0,12.633,22.905,48.443,22.905,48.443V1.797C13.166,1.797,2.91,12.039,2.91,24.674"/>
	<path fill="#334F9B" d="M25.781,73.117c0,0-18.456-55.629,0-71.32V73.117z"/>
	<path fill="#334F9B" d="M25.815,73.117c0,0,0.016-0.023,0.035-0.064c-0.014,0.013-0.025,0.023-0.035,0.033V73.117z"/>
	<path fill="#334F9B" d="M25.815,1.797v0.016c0.012,0.005,0.021,0.01,0.033,0.014C25.837,1.817,25.827,1.807,25.815,1.797"/>
	<path fill="#334F9B" d="M25.781,1.797v71.32c0,0,0.012-0.011,0.034-0.031V1.813C25.805,1.808,25.793,1.803,25.781,1.797"/>
	<path fill="#334F9B" d="M25.849,1.826c17.958,15.327,0.838,69.626,0.002,71.227C27.589,71.388,61.815,17.136,25.849,1.826"/>
	<path fill="#FFE167" d="M25.755,1.826c-17.957,15.327-0.839,69.626-0.004,71.227C24.012,71.388-10.215,17.136,25.755,1.826"/>
	<path fill="#FFE167" d="M25.849,1.826c-0.012-0.004-0.021-0.009-0.033-0.014v71.273c0.01-0.01,0.021-0.021,0.035-0.033
		C26.687,71.452,43.807,17.153,25.849,1.826"/>
</g>
</svg>
