<?xml version="1.0" encoding="utf-8"?>
<!-- Generator: Adobe Illustrator 16.0.0, SVG Export Plug-In . SVG Version: 6.00 Build 0)  -->
<!DOCTYPE svg PUBLIC "-//W3C//DTD SVG 1.1//EN" "http://www.w3.org/Graphics/SVG/1.1/DTD/svg11.dtd">
<svg version="1.1" id="레이어_1" xmlns="http://www.w3.org/2000/svg" xmlns:xlink="http://www.w3.org/1999/xlink" x="0px"
	 y="0px" width="32.842px" height="52.208px" viewBox="0 0 32.842 52.208" enable-background="new 0 0 32.842 52.208"
	 xml:space="preserve">
<g>
	<line fill="#E0888C" x1="11.615" y1="42.855" x2="11.225" y2="44.873"/>
	
		<rect x="10.394" y="43.771" transform="matrix(-0.1879 0.9822 -0.9822 -0.1879 56.6492 40.8883)" fill="#E0888C" width="2.053" height="0.186"/>
	<line fill="#E0888C" x1="9.371" y1="44.506" x2="10.053" y2="41.031"/>
	
		<rect x="9.62" y="40.997" transform="matrix(0.9798 0.2002 -0.2002 0.9798 8.7574 -1.0786)" fill="#E0888C" width="0.185" height="3.543"/>
	<line fill="#E0888C" x1="13.07" y1="45.236" x2="13.756" y2="41.76"/>
	
		<rect x="13.322" y="41.727" transform="matrix(0.9826 0.1859 -0.1859 0.9826 8.3198 -1.7354)" fill="#E0888C" width="0.184" height="3.543"/>
	
		<rect x="8.844" y="44.832" transform="matrix(0.9811 0.1935 -0.1935 0.9811 9.277 -1.208)" fill="#334F9B" width="3.957" height="4.106"/>
	<g>
		<defs>
			
				<rect id="SVGID_1_" x="8.845" y="44.832" transform="matrix(-0.9811 -0.1933 0.1933 -0.9811 12.3801 94.9782)" width="3.956" height="4.106"/>
		</defs>
		<clipPath id="SVGID_2_">
			<use xlink:href="#SVGID_1_"  overflow="visible"/>
		</clipPath>
		
			<rect x="8.844" y="44.832" transform="matrix(0.9811 0.1935 -0.1935 0.9811 9.277 -1.208)" clip-path="url(#SVGID_2_)" fill="#E0888C" width="3.957" height="4.106"/>
		<line clip-path="url(#SVGID_2_)" fill="#E0888C" x1="8.314" y1="43.615" x2="10.346" y2="49.565"/>
		<line clip-path="url(#SVGID_2_)" fill="#E0888C" x1="7.566" y1="43.467" x2="9.598" y2="49.418"/>
		<line clip-path="url(#SVGID_2_)" fill="#E0888C" x1="9.06" y1="43.761" x2="11.09" y2="49.713"/>
		<line clip-path="url(#SVGID_2_)" fill="#E0888C" x1="9.808" y1="43.911" x2="11.838" y2="49.859"/>
		<line clip-path="url(#SVGID_2_)" fill="#E0888C" x1="10.553" y1="44.057" x2="12.585" y2="50.005"/>
		<line clip-path="url(#SVGID_2_)" fill="#E0888C" x1="11.301" y1="44.205" x2="13.333" y2="50.154"/>
		<line clip-path="url(#SVGID_2_)" fill="#E0888C" x1="12.047" y1="44.353" x2="14.082" y2="50.302"/>
		<line clip-path="url(#SVGID_2_)" fill="#E0888C" x1="8.314" y1="43.615" x2="10.346" y2="49.565"/>
		<line clip-path="url(#SVGID_2_)" fill="#E0888C" x1="7.566" y1="43.467" x2="9.598" y2="49.418"/>
		<line clip-path="url(#SVGID_2_)" fill="#E0888C" x1="9.06" y1="43.761" x2="11.09" y2="49.713"/>
		<line clip-path="url(#SVGID_2_)" fill="#E0888C" x1="9.808" y1="43.911" x2="11.838" y2="49.859"/>
		<line clip-path="url(#SVGID_2_)" fill="#E0888C" x1="10.553" y1="44.057" x2="12.585" y2="50.005"/>
		<line clip-path="url(#SVGID_2_)" fill="#E0888C" x1="11.301" y1="44.205" x2="13.333" y2="50.154"/>
		<line clip-path="url(#SVGID_2_)" fill="#E0888C" x1="12.047" y1="44.353" x2="14.082" y2="50.302"/>
		<line clip-path="url(#SVGID_2_)" fill="#E0888C" x1="14.388" y1="44.815" x2="10.249" y2="49.544"/>
		<line clip-path="url(#SVGID_2_)" fill="#E0888C" x1="15.134" y1="44.961" x2="10.993" y2="49.693"/>
		<line clip-path="url(#SVGID_2_)" fill="#E0888C" x1="13.641" y1="44.667" x2="9.499" y2="49.398"/>
		<line clip-path="url(#SVGID_2_)" fill="#E0888C" x1="12.893" y1="44.52" x2="8.753" y2="49.25"/>
		<line clip-path="url(#SVGID_2_)" fill="#E0888C" x1="12.147" y1="44.374" x2="8.005" y2="49.101"/>
		<line clip-path="url(#SVGID_2_)" fill="#E0888C" x1="11.399" y1="44.224" x2="7.259" y2="48.955"/>
		<line clip-path="url(#SVGID_2_)" fill="#E0888C" x1="10.654" y1="44.078" x2="6.513" y2="48.807"/>
	</g>
	<path fill="#E0888C" d="M19.677,2.211C12.428,0.78,5.393,5.489,3.961,12.728c-1.429,7.241,7.643,30.356,7.643,30.356
		s17.184-17.931,18.611-25.171C31.645,10.672,26.929,3.643,19.677,2.211"/>
	<path fill="#334F9B" d="M19.677,2.211l-8.073,40.873c0,0,17.184-17.931,18.611-25.171C31.645,10.672,26.929,3.643,19.677,2.211"/>
	<path fill="#E0888C" d="M3.961,12.728c-1.431,7.241,7.643,30.356,7.643,30.356l8.073-40.873C12.428,0.78,5.393,5.489,3.961,12.728"
		/>
	<path fill="#E0888C" d="M11.586,43.081c0,0-4.279-33.97,8.072-40.873L11.586,43.081z"/>
	<path fill="#E0888C" d="M11.604,43.084l0.029-0.033c-0.009,0.005-0.017,0.011-0.022,0.014L11.604,43.084z"/>
	<path fill="#E0888C" d="M19.677,2.211V2.22c0.004,0.004,0.01,0.008,0.016,0.012C19.687,2.226,19.683,2.218,19.677,2.211"/>
	<path fill="#E0888C" d="M19.659,2.208l-8.072,40.873c0,0,0.008-0.005,0.024-0.016L19.677,2.22
		C19.668,2.216,19.663,2.211,19.659,2.208"/>
	<path fill="#E0888C" d="M19.693,2.232c8.556,10.815-7.398,39.996-8.058,40.819C12.819,42.293,38.575,15.078,19.693,2.232"/>
	<path fill="#334F9B" d="M19.639,2.221c-12.027,6.751-8.357,39.807-8.063,40.819C10.767,41.889-2.708,6.924,19.639,2.221"/>
	<path fill="#334F9B" d="M19.693,2.232c-0.006-0.004-0.012-0.008-0.018-0.012l-8.066,40.845c0.008-0.003,0.016-0.009,0.026-0.014
		C12.294,42.228,28.249,13.047,19.693,2.232"/>
	
		<rect x="8.844" y="44.832" transform="matrix(0.9811 0.1935 -0.1935 0.9811 9.277 -1.208)" fill="#334F9B" width="3.957" height="4.106"/>
</g>
</svg>
