<?xml version="1.0" encoding="utf-8"?>
<!-- Generator: Adobe Illustrator 16.0.0, SVG Export Plug-In . SVG Version: 6.00 Build 0)  -->
<!DOCTYPE svg PUBLIC "-//W3C//DTD SVG 1.1//EN" "http://www.w3.org/Graphics/SVG/1.1/DTD/svg11.dtd">
<svg version="1.1" id="레이어_1" xmlns="http://www.w3.org/2000/svg" xmlns:xlink="http://www.w3.org/1999/xlink" x="0px"
	 y="0px" width="55.462px" height="62.745px" viewBox="0 0 55.462 62.745" enable-background="new 0 0 55.462 62.745"
	 xml:space="preserve">
<g>
	<path fill="#1E3F73" d="M23.593,29.914c0.051-0.141-0.023-0.299-0.164-0.35c-0.14-0.049-0.297,0.023-0.349,0.164l-5.383,14.916
		c-0.2-0.078-0.45-0.129-0.733-0.129c-0.634,0-1.146,0.234-1.146,0.521c0,0.289,0.513,0.523,1.146,0.523
		c0.448,0,0.827-0.121,1.014-0.293c0.012-0.006,0.023-0.014,0.034-0.021c0.004-0.006,0.008-0.01,0.012-0.016
		c0.031-0.027,0.062-0.059,0.078-0.1L23.593,29.914z"/>
	<path fill="#1E3F73" d="M30.583,25.446c-0.327,0.57-0.77,1.076-1.293,1.484c-0.253,0.202-0.529,0.381-0.817,0.53l-3.774,2.17
		c-0.425,0.219-0.629,0.721-0.448,1.119c0.029,0.061,0.063,0.119,0.104,0.166c0.227,0.268,0.632,0.342,0.993,0.156l3.772-2.169
		c0.485-0.25,0.943-0.559,1.363-0.916c0.617-0.528,1.146-1.16,1.543-1.857l1.961-3.434c0.232-0.414,0.104-0.904-0.297-1.089
		c-0.396-0.19-0.912-0.007-1.15,0.407L30.583,25.446z"/>
	<path fill="#F6CBB9" d="M28.474,27.46c0.281-0.146,0.55-0.32,0.799-0.518c0.041,0.141,0.094,0.277,0.165,0.407
		c0.211,0.381,0.499,0.644,0.853,0.791c-0.366,0.292-0.758,0.549-1.171,0.762l-3.772,2.169c-0.361,0.186-0.767,0.111-0.993-0.156
		c-0.04-0.047-0.075-0.105-0.104-0.166c-0.18-0.398,0.024-0.9,0.449-1.119L28.474,27.46z"/>
	<path fill="#F6CBB9" d="M27.844,25.903c0.248,0.33,0.249,0.798-0.025,1.13l-3.721,4.514c-0.319,0.391-0.896,0.445-1.286,0.123
		c-0.388-0.32-0.444-0.896-0.123-1.285l3.72-4.514c0.32-0.39,0.897-0.443,1.287-0.124C27.751,25.793,27.801,25.846,27.844,25.903"/>
	<path fill="#1E3F73" d="M27.081,28.019c0.332-0.02,0.652-0.186,0.854-0.478l2.951-4.277c0.348-0.504,0.219-1.191-0.287-1.535
		c-0.506-0.346-1.198-0.217-1.545,0.286l-2.951,4.275c-0.348,0.504-0.219,1.192,0.288,1.537
		C26.601,27.971,26.844,28.033,27.081,28.019"/>
	<path fill="#F6CBB9" d="M23.42,31.955c0.451-0.475,0.514-1.148,0.137-1.508c-0.376-0.357-1.047-0.262-1.499,0.213
		s-0.513,1.148-0.138,1.508C22.296,32.525,22.967,32.434,23.42,31.955"/>
</g>
</svg>
