<?xml version="1.0" encoding="utf-8"?>
<!-- Generator: Adobe Illustrator 16.0.0, SVG Export Plug-In . SVG Version: 6.00 Build 0)  -->
<!DOCTYPE svg PUBLIC "-//W3C//DTD SVG 1.1//EN" "http://www.w3.org/Graphics/SVG/1.1/DTD/svg11.dtd">
<svg version="1.1" id="레이어_1" xmlns="http://www.w3.org/2000/svg" xmlns:xlink="http://www.w3.org/1999/xlink" x="0px"
	 y="0px" width="55.462px" height="62.745px" viewBox="0 0 55.462 62.745" enable-background="new 0 0 55.462 62.745"
	 xml:space="preserve">
<path fill="#896D6D" d="M32.059,18.021c-0.002,0-0.005,0.004-0.007,0.006c-0.003-0.011-0.003-0.024-0.003-0.035
	C32.049,18.002,32.052,18.013,32.059,18.021"/>
<path fill="#F6CBB9" d="M32.652,18.847l0.296,2.091c0.043,0.29-0.298,0.523-0.758,0.523c-0.461,0-0.867-0.233-0.909-0.523h-0.008
	l-0.297-2.091H32.652z"/>
<path fill="#F6CBB9" d="M33.042,18.663c0.375-0.675,0.448-1.457-0.251-2.058c-0.561-0.48-2.2-1.135-2.842-0.571
	c-0.688,0.604-0.601,2.835-0.104,3.562c0.438,0.642,1.27,0.71,1.899,0.371C32.206,19.72,32.729,19.229,33.042,18.663"/>
<path fill="#896D6D" d="M34.032,16.589c-0.025-0.329-0.149-0.58-0.341-0.771c-0.143-0.105-0.287-0.205-0.437-0.299
	c-0.493-0.235-1.146-0.31-1.734-0.356c-0.404,0.083-0.803,0.221-1.234,0.188c-0.241-0.02-0.477-0.069-0.702-0.147
	c-0.226,0.184-0.329,0.502-0.287,0.793c0.107,0.747,0.847,0.688,1.332,1.066c0.001,0.069,0.019,0.137,0.052,0.196
	c0.032,0.64,0.271,1.27,0.678,1.765c0.096,0.146,0.218,0.303,0.371,0.473C33.361,21.287,34.097,17.514,34.032,16.589"/>
<path fill="#F6CBB9" d="M31.511,18.524c-0.087,0.32-0.347,0.525-0.578,0.459c-0.233-0.065-0.352-0.378-0.265-0.698
	c0.089-0.319,0.348-0.525,0.58-0.459C31.482,17.893,31.599,18.205,31.511,18.524"/>
<path fill="#896D6D" d="M30.602,18.566L30.602,18.566c0.141,0,0.254-0.113,0.254-0.254v-1.437c0-0.14-0.113-0.253-0.254-0.253
	c-0.14,0-0.254,0.113-0.254,0.253v1.437C30.348,18.453,30.462,18.566,30.602,18.566"/>
<path fill="#E2EDF6" d="M33.377,21.334c-0.006-0.244,0.023-0.472-0.004-0.678c-0.026-0.196-0.108-0.371-0.334-0.521
	c-0.465-0.311-1.081-0.198-1.522,0.1c-0.596,0.404-0.486,0.762-0.493,1.384c-0.007,0.854-0.05,2.205-0.074,3.058l0.264,0.094
	c0.12,0.043,0.245,0.069,0.369,0.084c0.295,0.028,0.492-0.021,0.762-0.147l0.278-0.704l0.05,0.522l0.616-0.301
	c0.091-0.052,0.146-0.151,0.144-0.257C33.415,23.255,33.396,22.046,33.377,21.334"/>
<path fill="#896D6D" d="M31.704,45.676c0.946-0.26,3.023,0.033,2.916,0.692c0.033,0.122,0.047,0.255,0.051,0.378
	c0.047,1.32-1.848,0.535-2.5,0.173C30.951,46.241,31.09,45.844,31.704,45.676"/>
<path fill="#896D6D" d="M30.451,47.549c0.203-0.005,0.381,0.157,0.46,0.344c0.078,0.187,0.081,0.396,0.081,0.6
	c0,0.179-0.008,0.377-0.135,0.501c-0.082,0.081-0.197,0.114-0.309,0.145c-0.962,0.26-2.093,0.062-3.021-0.234
	c-0.197-0.063-0.374-0.234-0.374-0.439c-0.001-0.301,0.334-0.474,0.623-0.559c0.778-0.232,1.721-0.398,2.537-0.417
	c0.154-0.004,0.357,0.065,0.343,0.22L30.451,47.549z"/>
<path fill="#E2EDF6" d="M33.953,46.688h-0.044c-0.297,0.003-0.539-0.232-0.543-0.528l-0.011-0.904
	c-0.004-0.296,0.233-0.54,0.529-0.543l0.044-0.001c0.296-0.003,0.539,0.233,0.543,0.529l0.01,0.905
	C34.486,46.44,34.248,46.684,33.953,46.688"/>
<path fill="#E2EDF6" d="M30.051,48.204L30.051,48.204c-0.307,0-0.557-0.249-0.557-0.558v-0.86c0-0.309,0.25-0.559,0.557-0.559
	c0.309,0,0.559,0.25,0.559,0.559v0.86C30.61,47.955,30.36,48.204,30.051,48.204"/>
<path fill="#FFFFFF" d="M29.048,32.515l1.124-3.347l5.384,0.836v2.541c0,0-0.906,5.256-0.938,5.466l0.167,6.973
	c-0.045,0.304-0.425,0.667-0.73,0.689l-0.327,0.024c-0.393,0.028-0.853-0.293-0.833-0.686l-0.607-6.019l0.326-4.338l-0.947,0.803
	l-0.025-0.01l-1.059,4.38c-0.29,1.541,0.389,6.641,0.389,6.641c-0.03,0.349-0.451,0.618-0.803,0.618h-0.463
	c-0.372,0-0.804-0.303-0.804-0.675l-0.514-6.101c-0.039-0.473-0.034-1.341,0.018-1.813L29.048,32.515z"/>
<path fill="#1E3F73" d="M35.687,31.959c0.008,0.323-0.162,0.626-0.441,0.788l-1.793,0.876l-0.097-1.017l-0.549,1.392l-0.049,0.022
	c-0.517,0.241-0.963,0.395-1.523,0.413h-0.02c-0.03,0-0.066,0.001-0.1,0.001c-0.132,0-0.271-0.006-0.418-0.021
	c-0.352-0.037-0.688-0.113-1.002-0.225l-0.691-0.246l-0.089-0.032l0.003-0.095c0.063-2.142,0.175-6.374,0.197-8.663
	c0.001-0.236-0.004-0.456-0.007-0.668c-0.005-0.286-0.011-0.553,0.002-0.807v-0.001c0.044-0.842,0.281-1.535,1.353-2.261
	c1.036-0.702,2.742-1.191,4.136-0.262c0.551,0.367,0.847,0.831,0.935,1.458c0.048,0.337,0.034,0.691,0.021,1.066
	c-0.008,0.235-0.018,0.478-0.011,0.726c0.023,0.933,0.047,2.38,0.071,3.779C35.639,29.582,35.663,31.028,35.687,31.959"/>
<g opacity="0.56">
	<g>
		<defs>
			<rect id="SVGID_1_" x="28.948" y="23.332" width="1.882" height="11.13"/>
		</defs>
		<clipPath id="SVGID_2_">
			<use xlink:href="#SVGID_1_"  overflow="visible"/>
		</clipPath>
		<g opacity="0.51" clip-path="url(#SVGID_2_)">
			<g>
				<defs>
					<rect id="SVGID_3_" x="28.948" y="23.332" width="1.882" height="11.13"/>
				</defs>
				<clipPath id="SVGID_4_">
					<use xlink:href="#SVGID_3_"  overflow="visible"/>
				</clipPath>
				<path clip-path="url(#SVGID_4_)" fill="#0063B0" d="M30.652,34.434c-0.021,0.034,0.212,0.036,0.175,0.001
					c-0.089-0.081-0.231-0.006-0.357-0.022c-0.3-0.036-0.587-0.112-0.854-0.224l-0.591-0.246l-0.076-0.032l0.002-0.095
					c0.054-2.142,0.149-6.375,0.169-8.663c0.001-0.236-0.002-0.456-0.006-0.668c-0.004-0.288-0.008-0.553,0.003-0.807v-0.001
					c0.062-0.098,0.141-0.176,0.23-0.233c0.107-0.071,0.234-0.11,0.364-0.11c0.399,0,0.729,0.363,0.75,0.832l0.233,7.973
					C30.663,32.138,30.813,34.176,30.652,34.434"/>
			</g>
		</g>
	</g>
</g>
<path fill="#BFDBF2" d="M29.635,46.243h0.463c0.213,0,0.41-0.16,0.567-0.347c0.126-0.149,0.368-0.064,0.368,0.132v0.516
	c0,0.518-0.418,0.936-0.936,0.936h-0.463c-0.486,0-0.891-0.372-0.932-0.856v-0.641c0-0.109,0.14-0.148,0.2-0.057
	C29.014,46.095,29.201,46.247,29.635,46.243"/>
<path fill="#BFDBF2" d="M33.616,44.954h0.418c0.191,0,0.569-0.085,0.642-0.322c0.051-0.171,0.201-0.059,0.201,0.122v0.479
	c0,0.479-0.378,0.868-0.843,0.868h-0.418c-0.438,0-0.804-0.346-0.841-0.795v-0.595c0-0.102,0.126-0.137,0.181-0.054
	C33.055,44.816,33.223,44.958,33.616,44.954"/>
<path fill="#465A89" d="M29.188,15.162c0,0-0.624,0.274,0.108,0.834c1.355,1.036,2.244,1.261,2.244,1.261s-1.746-1.47-0.331-2.057
	C31.209,15.2,30.153,14.778,29.188,15.162"/>
<path fill="#1E3F73" d="M34.023,17.431c0,0-1.342,0.546-2.755-0.011c-0.867-0.343-1.477-1.281-1.379-1.561
	c0.099-0.278,0.419-0.529,0.752-0.839c0,0,0.287-0.25,0.848-0.25c0.76,0,1.989,0.344,2.468,1.166
	C34.224,16.396,34.023,17.431,34.023,17.431"/>
</svg>
