<?xml version="1.0" encoding="utf-8"?>
<!-- Generator: Adobe Illustrator 16.0.0, SVG Export Plug-In . SVG Version: 6.00 Build 0)  -->
<!DOCTYPE svg PUBLIC "-//W3C//DTD SVG 1.1//EN" "http://www.w3.org/Graphics/SVG/1.1/DTD/svg11.dtd">
<svg version="1.1" id="레이어_1" xmlns="http://www.w3.org/2000/svg" xmlns:xlink="http://www.w3.org/1999/xlink" x="0px"
	 y="0px" width="31.035px" height="33.421px" viewBox="0 0 31.035 33.421" enable-background="new 0 0 31.035 33.421"
	 xml:space="preserve">
<g>
	<path fill="#7C542C" d="M10.775,17.387l8.445,2.553c0,0-0.555,2.322-0.459,4.497c0.094,2.177,2.922,0.377,2.922,0.377
		s1.742-2.785,1.742-4.757c0-1.973-1.359-4.245-1.645-4.41c0,0-9.738-5.205-13.761-4.721"/>
	<path fill="#7C542C" d="M9.846,11.238l11.836,5.453c0,0-0.186-1.52,0.098-1.355"/>
	<path fill="none" stroke="#1E3F73" stroke-width="0.8438" stroke-linecap="round" stroke-linejoin="round" d="M11.287,20.124
		c0.513-1.095-0.512-2.736-0.512-2.736l8.445,2.553c0,0-0.555,2.322-0.459,4.497c0.094,2.177,2.922,0.377,2.922,0.377
		s1.742-2.785,1.742-4.757c0-1.973-1.359-4.557-1.645-4.722c-0.283-0.164-0.098,1.355-0.098,1.355l-11.418-5.784"/>
	<path fill="#7C542C" d="M11.82,11.701c0.671,0.966,9.863,5.455,9.863,5.455s-1.178-1.008-0.58-1.509"/>
	<path fill="#7C542C" d="M21.103,15.647c0,0-5.066-3.018-7.078-4.178c-2.01-1.16-3.25-1.856-4.99-1.974
		c-1.741-0.115-2.373,0.579-3.333,0.58"/>
	<path fill="none" stroke="#1E3F73" stroke-width="0.8438" stroke-linecap="round" stroke-linejoin="round" d="M21.103,15.647
		c0,0-5.066-3.018-7.078-4.178c-2.01-1.16-3.25-1.856-4.99-1.974c-1.741-0.115-2.373,0.579-3.333,0.58
		c-0.961,0-0.381,0.465,1.012,0.465s4.436,0.196,5.106,1.16c0.671,0.966,9.863,5.455,9.863,5.455S20.505,16.148,21.103,15.647z"/>
	
		<line fill="none" stroke="#1E3F73" stroke-width="0.8438" stroke-linecap="round" stroke-linejoin="round" x1="19.421" y1="22.436" x2="22.495" y2="23.306"/>
</g>
</svg>
