<?xml version="1.0" encoding="utf-8"?>
<!-- Generator: Adobe Illustrator 16.0.0, SVG Export Plug-In . SVG Version: 6.00 Build 0)  -->
<!DOCTYPE svg PUBLIC "-//W3C//DTD SVG 1.1//EN" "http://www.w3.org/Graphics/SVG/1.1/DTD/svg11.dtd">
<svg version="1.1" id="레이어_1" xmlns="http://www.w3.org/2000/svg" xmlns:xlink="http://www.w3.org/1999/xlink" x="0px"
	 y="0px" width="28.229px" height="50.743px" viewBox="0 0 28.229 50.743" enable-background="new 0 0 28.229 50.743"
	 xml:space="preserve">
<path fill="#231815" d="M14.052,45.484c-0.207,0.406-0.521,0.746-0.861,1.043c-0.186,0.16-0.379,0.308-0.577,0.448
	c-0.106,0.076-0.46,0.234-0.508,0.348l0.013-0.03c-0.099,0.237-0.683,0.27-0.894,0.254c-0.359-0.028-0.545-0.237-0.61-0.598
	c-0.046-0.262-0.075-0.556,0.089-0.764c0.008-0.011,0.017-0.02,0.026-0.028c0.082-0.09,0.191-0.148,0.297-0.205
	c0.611-0.325,1.233-0.653,1.891-0.856c0.179-0.055,0.362-0.102,0.548-0.137c0.114-0.023,0.22-0.032,0.313-0.027
	C14.084,44.941,14.249,45.096,14.052,45.484"/>
<path fill="#F8D1C1" d="M12.997,45.453c-0.036,0.265-0.238,0.476-0.45,0.642c-0.268,0.211-0.564,0.386-0.88,0.516
	c-0.231,0.094-0.506,0.161-0.726,0.041c-0.231-0.129-0.269-0.313-0.211-0.494c0.083-0.09,0.191-0.148,0.298-0.205
	c0.611-0.325,1.232-0.653,1.891-0.856C12.99,45.161,13.021,45.275,12.997,45.453"/>
<path fill="#F8D1C1" d="M12.009,35.101c-0.606-0.032-1.211-0.065-1.811-0.009l0.158,2.457c0,0,0.002,0.086,0.007,0.244
	c0.042,1.541,0.304,7.017,0.344,8.489c0.001,0.004,0.058-0.046,0.114-0.098c0.108,0.089,0.247,0.146,0.398,0.147l0.224,0.003h0.071
	c0.195,0.003,0.375-0.089,0.491-0.233c0.073-0.09,0.122-0.2,0.137-0.324l0.095-0.511l0.014-0.141l0.703-6.341l0.14-1.254
	l0.116-1.039c0.082-0.721-0.465-1.354-1.188-1.392H12.009z"/>
<path fill="#F8D1C1" d="M17.91,38.176c-0.884,0.156-1.771,0.273-2.655,0.366l-0.01,0.14l-0.475,7.327
	c0,0.03-0.004,0.023-0.006,0.011c-0.014,0.027-0.024,0.063-0.036,0.111v0.002c-0.007,0.03-0.015,0.063-0.019,0.101
	c-0.01,0.061-0.014,0.132-0.02,0.208c0.494,0.362,1.082,0.231,1.742,0.198c-0.005-0.056-0.008-0.11-0.008-0.163
	c0-0.136,0.015-0.26,0.035-0.362c0.029-0.166,0.068-0.281,0.073-0.31c0.009-0.068,1.062-5.505,1.478-7.646
	C17.977,38.164,17.942,38.17,17.91,38.176"/>
<path fill="#231815" d="M18.423,47.234c-0.068-0.03-0.139-0.058-0.208-0.087c-0.022-0.009-0.044-0.018-0.065-0.027
	c-0.156,0.063-0.349,0.069-0.523,0.059c-0.662-0.037-3.477,0.304-3.065-0.667c-0.01,0.02-0.019,0.037-0.028,0.057
	c-0.071,0.152-0.133,0.395-0.142,0.636c-0.013,0.306,0.058,0.613,0.293,0.746c0.105,0.06,0.229,0.08,0.352,0.098
	c1.178,0.169,2.385,0.173,3.564,0.013C19.414,47.948,18.844,47.408,18.423,47.234"/>
<path fill="#F8D1C1" d="M17.626,47.179c0.176,0.011,0.367,0.004,0.523-0.059c-0.433-0.181-0.868-0.36-1.3-0.54
	c-0.516-0.215-1.05-0.432-1.614-0.444c-0.064,0-0.136,0.006-0.199,0.027c-0.053,0.014-0.101,0.035-0.137,0.064
	c-0.141,0.051-0.264,0.157-0.337,0.282l-0.001,0.002C14.149,47.483,16.964,47.142,17.626,47.179"/>
<path fill="#334F9B" d="M10.329,37.934l-0.271,4.875c-0.023,0.384,0.172,0.747,0.506,0.939c0.471,0.271,0.97,0.131,1.505,0.273
	c0.334,0.092,0.669-0.142,0.708-0.486l0.001-0.004l0.177-4.746l0.14-1.254l0.176-1.572l-0.052-1.126l0.12-4.75l0.798,0.18
	l1.097,6.008l0.056,1.726l-0.044,0.686c-0.115,1.805-0.671,3.617-0.782,5.42c-0.021,0.323,0.192,0.617,0.504,0.705
	c0.126,0.034,0.259,0.068,0.394,0.099c0.561,0.125,1.163,0.175,1.574-0.104c0.131-0.09,0.211-0.238,0.229-0.396
	c0.502-4.289,1.527-7.58,0.781-14.016c-0.029-0.265-0.277-2.235-0.594-4.048c-0.288-1.654-0.632-3.176-0.922-3.161
	c-0.031,0.001-5.458,0.262-5.458,0.262c-1.031,1.108-1.438,2.176-1.534,3.098c-0.182,1.75,0.774,2.976,0.774,2.976
	s0.036,7.022,0.111,8.247c0.004,0.082,0.009,0.136,0.009,0.159c0,0.015,0,0.018-0.002,0.007V37.934z"/>
<g>
	<g>
		<defs>
			<rect id="SVGID_1_" x="13.174" y="13.541" width="1.328" height="1.539"/>
		</defs>
		<clipPath id="SVGID_2_">
			<use xlink:href="#SVGID_1_"  overflow="visible"/>
		</clipPath>
		<polygon clip-path="url(#SVGID_2_)" fill="#F8D1C1" points="13.173,13.542 14.185,15.081 14.25,15.081 14.502,13.579 		"/>
	</g>
</g>
<path fill="#F8D1C1" d="M15.344,14.178c0.023,0.001,0.048,0.007,0.069,0.009l-0.187-0.177
	C15.267,14.064,15.306,14.122,15.344,14.178"/>
<path fill="#FFE89B" d="M16.513,20.203c0.045,0,0.118,2.138,0.145,3.139c0.002,0.026-0.004,0.053-0.008,0.079
	c-0.104,0.651-1.242,0.982-1.772,1.098c-0.981,0.216-1.97,0.04-2.862-0.333c-0.293-0.124-0.579-0.272-0.855-0.445
	c-0.136-0.087-0.218-0.249-0.203-0.415c0.125-1.438-0.21-2.843-0.519-4.237c-0.248-1.101-0.609-2.522,0.07-3.538
	c0.037-0.055,0.077-0.106,0.121-0.154c0.342-0.379,0.888-0.573,1.457-0.648c0.577-0.077,1.182-0.031,1.626,0.062
	c0.251,0.052,0.529,0.118,0.811,0.2c0.505,0.146,1.185,0.505,1.574,0.767c0.548,0.372,0.599,0.797,0.872,1.35
	c0.21,0.421,0.402,0.576,0.58,1.05c0.059,0.153,0.107,0.312,0.118,0.475C17.733,19.354,17.146,19.96,16.513,20.203"/>
<path fill="#887070" d="M14.703,12.459c0,0-0.007,0.003-0.01,0.008c-0.004-0.015-0.004-0.034-0.004-0.048
	C14.689,12.433,14.693,12.448,14.703,12.459"/>
<polygon fill="#F8D1C1" points="12.21,15.08 14.25,15.08 14.502,13.58 14.691,12.447 12.651,12.447 "/>
<path fill="#F8D1C1" d="M16.151,11.833c-0.022,0.602-0.125,1.196-0.479,1.638c-0.389,0.493-1.015,0.688-1.609,0.705
	c-0.328,0.007-0.667-0.04-0.959-0.212c-0.549-0.328-0.806-1.036-0.944-1.704c-0.05-0.254-0.089-0.512-0.104-0.771
	c-0.01-0.292,0.007-0.59,0.087-0.872c0.167-0.61,0.59-1.113,1.097-1.431c0.505-0.316,1.086-0.461,1.668-0.527
	c0.281-0.035,0.584-0.042,0.837,0.102c0.166,0.094,0.298,0.274,0.338,0.469c0.018,0.07,0.018,0.144,0.008,0.215
	c0.018,0.546,0.035,1.09,0.053,1.638C16.151,11.329,16.157,11.579,16.151,11.833"/>
<path fill="#F8D1C1" d="M14.553,11.978C14.512,12,14.467,12,14.422,11.988c-0.004-0.01-0.002-0.022-0.009-0.034L14.553,11.978z"/>
<path fill="#F8D1C1" d="M12.12,15.38c0.32,0.468,1.385,0.3,2.404-0.372c-0.283-0.082-0.56-0.147-0.812-0.199
	c-0.444-0.093-1.05-0.138-1.626-0.062C12.003,14.997,12.009,15.217,12.12,15.38"/>
<path fill="#231815" d="M10.095,10.005c-0.417,0.873-0.562,1.857-0.543,2.825c0.029,1.636,2.471,2.028,3.864,2.129
	c1.462,0.106,2.064-0.488,2.057-1.938c-0.002-0.486-0.005-0.972-0.007-1.458c0-0.169-0.003-0.34-0.008-0.512
	c0.045-0.045,0.089-0.09,0.13-0.14c0.083-0.105,0.151-0.227,0.204-0.356c0.49-0.158,0.814-0.737,0.527-1.263
	c-0.287-0.528-0.746-0.963-1.305-1.186c-1.854-0.741-3.917,0.016-4.838,1.735C10.148,9.896,10.12,9.95,10.095,10.005 M11.969,8.435
	l0.236-0.131c0,0.01-0.001,0.016-0.001,0.024C12.123,8.357,12.043,8.391,11.969,8.435"/>
<path fill="#FFE89B" d="M9.591,25.805c-0.004-0.002-0.008-0.004-0.012-0.007c0.207-0.734,0.628-1.533,1.393-2.355
	c0,0,5.425-0.261,5.457-0.262c0.289-0.015,0.635,1.507,0.922,3.161c-0.715,0.416-1.394,0.705-2.092,0.872
	C13.271,27.207,11.375,26.646,9.591,25.805"/>
<path fill="#E5625E" d="M15.228,14.009c0,0-1.06,1.318-1.15,3.042l0.579,0.662L15.228,14.009z"/>
<path fill="#E5625E" d="M8.92,16.802c0,0,0.558-1.39,2.399-1.123c1.842,0.269,3.658,1.684,3.658,3.335
	c0,1.652,0.521,5.78-0.068,5.845c-0.59,0.064-5.989,0.181-6.29,0.094C8.32,24.866,7.78,19.116,8.92,16.802"/>
<path fill="#E5625E" d="M15.149,23.571c0,0,1.481-1.329,1.445-2.106l-0.166,1.716c0,0-0.602,1.813-1.552,1.338L15.149,23.571z"/>
<path fill="#A97E71" d="M9.008,21.128h4.27c0,0,0.349,2.077-0.19,2.196c-0.54,0.12-3.508,0-3.508,0s-0.75,0.061-0.811-0.539
	C8.708,22.186,9.008,21.128,9.008,21.128"/>
<path fill="#A97E71" d="M8.588,24.612c0,0,0.515,0.972,1.003,1.192c0.486,0.223,5.097,0.262,5.285,0
	c0.19-0.261,0.859-1.251,0.859-1.251S10.808,25.18,8.588,24.612"/>
<path fill="#E5625E" d="M11.258,14.573c0,0-0.425,0.781-0.512,1.157l-0.405,0.13c0,0,0.376-1.108,0.607-1.336L11.258,14.573z"/>
</svg>
