<?xml version="1.0" encoding="utf-8"?>
<!-- Generator: Adobe Illustrator 16.0.0, SVG Export Plug-In . SVG Version: 6.00 Build 0)  -->
<!DOCTYPE svg PUBLIC "-//W3C//DTD SVG 1.1//EN" "http://www.w3.org/Graphics/SVG/1.1/DTD/svg11.dtd">
<svg version="1.1" id="레이어_1" xmlns="http://www.w3.org/2000/svg" xmlns:xlink="http://www.w3.org/1999/xlink" x="0px"
	 y="0px" width="12.348px" height="16.262px" viewBox="0 0 12.348 16.262" enable-background="new 0 0 12.348 16.262"
	 xml:space="preserve">
<g>
	<path fill="#F6CBB9" d="M3.562,1.451C3.396,0.795,2.729,0.397,2.071,0.56C1.415,0.725,1.015,1.39,1.179,2.049
		c0.014,0.056,0.229,0.902,0.688,2.154C2.429,3.89,3.222,3.525,4.149,3.287C3.753,2.197,3.564,1.464,3.562,1.451"/>
	<path fill="#FFE89B" d="M10.88,13.052C9.613,11.676,6.124,7.687,5.2,5.779C4.755,4.856,4.409,3.998,4.15,3.288
		C3.222,3.523,2.428,3.891,1.866,4.202c0.28,0.762,0.649,1.671,1.122,2.645c1.271,2.626,5.89,7.656,6.085,7.869
		c0.242,0.263,0.572,0.396,0.903,0.396c0.298,0,0.597-0.107,0.833-0.324C11.308,14.329,11.339,13.551,10.88,13.052"/>
</g>
</svg>
