<?xml version="1.0" encoding="utf-8"?>
<!-- Generator: Adobe Illustrator 16.0.0, SVG Export Plug-In . SVG Version: 6.00 Build 0)  -->
<!DOCTYPE svg PUBLIC "-//W3C//DTD SVG 1.1//EN" "http://www.w3.org/Graphics/SVG/1.1/DTD/svg11.dtd">
<svg version="1.1" id="레이어_1" xmlns="http://www.w3.org/2000/svg" xmlns:xlink="http://www.w3.org/1999/xlink" x="0px"
	 y="0px" width="42.243px" height="56.086px" viewBox="0 0 42.243 56.086" enable-background="new 0 0 42.243 56.086"
	 xml:space="preserve">
<g>
	<path fill="#F6CBB9" d="M6.188,22.028c-0.256,0.17-0.391,0.487-0.316,0.803l1.275,5.352c0.098,0.406,0.504,0.655,0.909,0.559
		c0.405-0.096,0.655-0.502,0.56-0.908l-1.277-5.352c-0.096-0.405-0.503-0.655-0.907-0.559C6.342,21.944,6.26,21.98,6.188,22.028"/>
	<path fill="#E2EBF5" d="M7.64,27.116l4.392-1.961l0.033-0.011c0.428-0.073,0.87,0.156,1.073,0.56
		c0.124,0.248,0.145,0.523,0.058,0.779c-0.081,0.238-0.25,0.43-0.475,0.536l-4.39,1.96l-0.033,0.01
		c-0.368,0.066-0.754-0.094-0.983-0.409c-0.033-0.044-0.063-0.092-0.088-0.144c-0.008-0.012-0.012-0.024-0.016-0.035
		C6.983,27.914,7.176,27.337,7.64,27.116"/>
	<path fill="#EA6375" d="M14.679,47.282c0.195-0.004,0.365,0.15,0.442,0.33c0.075,0.182,0.077,0.383,0.077,0.578
		c0,0.172-0.007,0.363-0.131,0.482c-0.077,0.078-0.189,0.109-0.296,0.139c-0.199,0.055-0.401,0.109-0.61,0.129
		c-0.233,0.018-0.472-0.01-0.704,0.025c-0.148,0.023-0.292,0.07-0.438,0.105c-0.413,0.098-0.852,0.086-1.259-0.033
		c-0.091-0.025-0.186-0.061-0.245-0.133c-0.099-0.123-0.064-0.313,0.035-0.434s0.246-0.191,0.39-0.256l1.286-0.592
		c0.421-0.193,0.857-0.391,1.32-0.4c0.147-0.004,0.342,0.064,0.328,0.211L14.679,47.282z"/>
	<path fill="#F6CBB9" d="M14.432,47.722L14.432,47.722c0.296-0.023,0.516-0.283,0.492-0.58l-0.066-0.824
		c-0.024-0.297-0.283-0.518-0.579-0.492h-0.001c-0.295,0.023-0.516,0.283-0.492,0.578l0.067,0.826
		C13.877,47.526,14.136,47.745,14.432,47.722"/>
	<path fill="#EA6375" d="M17.411,50.901c0.109,0.129,0.222,0.256,0.329,0.385c0.11,0.131,0.22,0.262,0.311,0.408
		c0.133,0.215,0.386,0.635,0.23,0.887c-0.236,0.383-0.786,0.213-1.079,0.039c-0.435-0.258-0.851-0.551-1.241-0.871
		c-0.168-0.139-0.337-0.289-0.421-0.488c-0.26-0.613-0.073-1.598,0.756-1.549c0.302,0.018,0.466,0.193,0.588,0.441
		C17.021,50.427,17.211,50.667,17.411,50.901"/>
	<path fill="#F6CBB9" d="M16.303,50.858L16.303,50.858c0.296,0,0.538-0.24,0.538-0.537v-0.828c0-0.297-0.242-0.537-0.538-0.537
		c-0.297,0-0.537,0.24-0.537,0.537v0.828C15.766,50.618,16.006,50.858,16.303,50.858"/>
	<path fill="#F6CBB9" d="M13.678,32.741l2.714,0.94l0.61,0.68c0.318,0.355,0.481,0.826,0.45,1.303l-0.611,5.207
		c0.004,0.084,0.384,1.725,0.378,1.811l-0.378,7.029c0,0.359,0.02,0.469-0.339,0.469h-0.447c-0.336,0-0.26-0.35-0.289-0.686
		l-1.24-8.076l-0.438-4.281l0.101,0.992l-0.616,2.904l1.351,5.754c0.019,0.379-0.112,0.688-0.491,0.658h-0.235
		c-0.296-0.021-0.301,0.078-0.344-0.215l-2.463-5.967v-7.311L13.678,32.741z"/>
	<path fill="#FFFFFF" d="M17.417,36.19c-0.415,0.381-1.193,0.391-2.002,0.229c-0.004,0-0.006-0.002-0.009-0.002
		c-0.876-0.174-1.784-0.549-2.299-0.865c-0.035-0.021-0.179-0.09-0.379-0.186c-0.127-0.064-0.508-0.199-0.832-0.322
		c-0.266-0.102-0.438-0.357-0.431-0.643c0.014-0.621,0.156-1.129,0.218-1.661c0.235-2.014-0.294-2.601-0.703-3.737
		c-0.109-0.305,0.306-1.103,0.239-1.402c-0.008-0.049-0.024-0.099-0.024-0.149v-0.137l0.007,0.186
		c-0.183-0.954-0.042-1.837,1.034-2.466c0.204-0.117,0.486-0.169,0.801-0.169c0.142,0,0.292,0.003,0.446,0.03
		c1.042,0.19,1.834,0.452,2.442,0.8c0.014,0.006,0.027,0.015,0.04,0.022c0.003,0.002,0.007,0.004,0.009,0.005
		c0.563,0.33,0.966,0.734,1.261,1.219c0.415,0.678-0.444,4.198-0.297,5.215C17.155,33.665,18.186,35.483,17.417,36.19"/>
	<path fill="#E2EBF5" d="M15.966,25.718l-0.307,0.651c0.085-0.283-0.004-0.562,0.267-0.674
		C15.939,25.702,15.954,25.71,15.966,25.718"/>
	<path fill="#E2EBF5" d="M17.417,36.19c-0.415,0.381-1.193,0.391-2.002,0.229c0.195-0.824,0.606-1.625,0.513-2.465
		c-0.069-0.61-0.4-1.218-0.22-1.801c0.057-0.19,0.166-0.36,0.248-0.54c0.421-0.929,0.104-2.006-0.158-2.993
		c-0.258-0.97-0.424-2.102,0.177-2.896c0.564,0.33,0.966,0.734,1.262,1.219c0.414,0.678-0.445,4.198-0.298,5.215
		C17.155,33.665,18.186,35.483,17.417,36.19"/>
	<path fill="#E2EBF5" d="M15.542,26.382c-0.334,0.375-0.817,0.918-1.107,1.242c-0.128,0.144-0.354,0.131-0.465-0.024l-0.645-0.895
		l-0.926,0.164c-0.113,0.021-0.218-0.066-0.218-0.182v-0.287c0-0.636,0.444-1.185,1.065-1.317c0.204-0.044,0.421-0.067,0.647-0.067
		c0.611,0,1.162,0.173,1.553,0.45C15.746,25.678,15.787,26.108,15.542,26.382"/>
	<path fill="#1873BA" d="M15.478,25.777c0.004,0.146-0.028,0.212-0.129,0.329c-0.162,0.188-0.439,0.322-0.763,0.348
		c-0.316,0.024-0.604-0.061-0.792-0.214c-0.128-0.102-0.208-0.237-0.22-0.388c-0.012-0.152,0.048-0.297,0.156-0.419
		c0.012-0.012,0.023-0.022,0.035-0.034l0.004-0.003c0.126-0.122,0.305-0.217,0.514-0.264c0.032-0.008,0.065-0.013,0.099-0.019
		c0.032-0.006,0.065-0.009,0.1-0.012c0.324-0.025,0.62,0.065,0.807,0.227C15.407,25.428,15.475,25.631,15.478,25.777"/>
	<path fill="#F6CBB9" d="M15.335,23.537l0.061,2.445c-0.17,0.179-0.454,0.299-0.78,0.308c-0.316,0.007-0.599-0.093-0.779-0.256
		l-0.061-2.459L15.335,23.537z"/>
	<path fill="#F6CBB9" d="M12.774,24.013c0.033,0.084,0.159,0.123,0.286,0.157c0.044,0.013,0.087,0.025,0.128,0.042
		c0.003-0.001,0.007-0.003,0.011,0.003c0.033,0.01,0.063,0.022,0.088,0.038c0.035,0.019,0.063,0.042,0.078,0.07
		c0.06,0.105,0.13,0.201,0.207,0.29c0.25,0.289,0.579,0.489,0.926,0.578c0.078,0.019,0.154,0.033,0.233,0.042
		c0.156,0.018,0.316,0.014,0.471-0.02c0.058-0.012,0.114-0.026,0.173-0.049c0.359-0.12,0.675-0.395,0.872-0.854
		c0.104-0.24,0.123-0.501,0.093-0.766c-0.017-0.151-0.049-0.309-0.091-0.459c-0.052-0.174-0.109-0.343-0.168-0.508
		c-0.097-0.261-0.19-0.523-0.283-0.782c-0.036-0.106-0.075-0.208-0.113-0.314c-0.006-0.052-0.022-0.102-0.05-0.146
		c-0.072-0.124-0.209-0.215-0.354-0.237c-0.219-0.038-0.444,0.036-0.647,0.128c-0.417,0.186-0.817,0.422-1.127,0.757
		c-0.308,0.333-0.514,0.776-0.508,1.229C12.999,23.422,12.701,23.816,12.774,24.013"/>
	<path fill="#896D6D" d="M11.887,22.72c-0.098-0.407-0.068-0.783,0.074-1.113c0.129-0.3,0.352-0.562,0.66-0.774
		c0.191-0.132,0.396-0.253,0.622-0.308c0.317-0.079,0.652-0.021,0.979-0.032c0.338-0.012,0.534,0.292,0.871,0.307
		c0.337,0.014,0.738,0.056,0.872,0.364c0.14,0.319,0.079,0.419-0.182,0.647c-0.263,0.229-0.606,0.335-0.938,0.436
		c-0.226,0.068-0.725,0.122-0.896,0.293c-0.259,0.258,0.007,0.69-0.062,0.986c-0.021,0.089-0.087,0.169-0.176,0.191
		c-0.207,0.05-0.371-0.213-0.584-0.222c-0.147-0.005-0.279,0.13-0.295,0.278s0.07,0.295,0.191,0.38
		c0.13,0.09,0.313,0.046,0.425,0.114c0.093,0.058,0.11,0.201,0.124,0.336c0.012,0.119-0.026,0.25-0.122,0.321
		C12.74,25.456,11.979,23.108,11.887,22.72"/>
	<path fill="#F6CBB9" d="M16.004,27.87l-4.891,0.248c-0.647,0.032-1.279-0.247-1.689-0.751l-0.966-3.554
		c-0.061-0.276-0.019-0.546-0.028-0.73c-0.014-0.275,0.068-0.283,0.301-0.473c0.385-0.313,0.811-0.318,1.123,0.067l0.968,3.554
		c0.049,0.06,0.122,0.093,0.201,0.089l4.89-0.248c0.497-0.025,0.92,0.357,0.944,0.854C16.882,27.422,16.5,27.846,16.004,27.87"/>
	<path fill="#FFFFFF" d="M17.15,26.992c0.029,0.588-0.536,1.097-1.262,1.134l-4.687,0.237l-0.017-0.009
		c-0.414-0.227-0.609-0.51-0.631-0.926c-0.003-0.063-0.002-0.129,0.003-0.198c0.018-0.27,0.14-0.619,0.335-0.962l0.017-0.03
		l4.87-0.247C16.506,25.954,17.12,26.403,17.15,26.992"/>
	<path fill="#1E3F73" d="M21.592,14.045c-0.007-0.007-0.014-0.015-0.022-0.021c-0.331-0.27-0.933-0.59-1.428-0.444
		c-0.02,0.007-0.039-0.001-0.056,0.01l-0.029,0.019c-0.077,0.032-0.154,0.079-0.224,0.143L6.266,22.356l-2.432,1.542
		c-0.113,0.071-0.146,0.224-0.074,0.339c0.051,0.078,0.143,0.12,0.233,0.109c0.035-0.003,0.07-0.015,0.104-0.036l15.578-9.88
		c0.016,0.029,0.023,0.062,0.045,0.093c0.26,0.384,0.96,0.653,1.448,0.599c0.084-0.009,0.163-0.028,0.231-0.057
		c0.278-0.122,0.368-0.302,0.395-0.432C21.855,14.331,21.619,14.074,21.592,14.045"/>
	<path fill="#EA6375" d="M15.659,20.799c0,0,1.6,0.008,1.222,0.576c-0.8,1.203-3.633,1.33-3.633,1.33S15.307,21.398,15.659,20.799"
		/>
	<path fill="#EE8992" d="M15.659,20.799c0,0-0.425-0.744-2.026-0.405c-1.603,0.34-1.824,1.278-1.746,2.326l1.361-0.015
		C13.248,22.706,15.405,21.299,15.659,20.799"/>
	<path fill="#896D6D" d="M11.884,22.253c0,0-0.906,0.195-1.18,0.913c-0.274,0.717-0.155,1.948,0.686,2.275
		c0,0,0.642-0.287,1.188-0.515c0,0-1.348-0.783-0.69-2.207L11.884,22.253z"/>
	<path fill="#896D6D" d="M15.975,25.723c0,0,1.215,0.658,2.053,0.31c0.837-0.349,3.031-0.07,2.871,0.808c0,0-0.614-0.38-0.766,0.27
		c0,0,0.181-0.351,0.393,0c0,0-0.728,0.204-1.035,0.525c-0.307,0.321-1.494,0.616-1.99,0.33
		C17.5,27.965,17.406,26.517,15.975,25.723"/>
	<path fill="#EE8992" d="M11.684,32.741c0,0-1.099,2.682-1.783,3.502c0,0,0.804,1.393,3.117,2.217
		c0.552,0.197,4.422,1.207,4.835,0.113c0,0-0.565-0.369-0.268-1.238c0.745-2.174-0.226-3.521-0.226-3.521s-1.441,0.834-3.482,0.518
		S11.684,32.741,11.684,32.741"/>
	<path fill="#F6CBB9" d="M5.92,22.345c0,0-0.069-0.537,0.149-0.687c0.219-0.15,0.573-0.422,0.724-0.353
		c0.149,0.07,0.761,0.321,0.844,0.525c0.123,0.304-0.106,0.514-0.164,0.629c-0.058,0.114-0.478,0.395-0.76,0.282
		C6.442,22.636,5.92,22.345,5.92,22.345"/>
	<path fill="#F6CBB9" d="M9.849,22.84c0,0-0.292-1.584-0.656-1.995c-0.099-0.109-0.288-0.442-0.564-0.379
		c-0.297,0.069-1.038,0.552-1.038,0.552s-0.037,0.176,0.005,0.495l0.078-0.05c0,0,0.202,0.579,0.25,0.79
		c0.048,0.209,0.334,0.609,0.334,0.609l0.168,0.485L9.849,22.84z"/>
	<path fill="#D2D5E4" d="M29.007,2.952c0,0-1.529,0.556-1.06,0.921c1.287,0.999,4.296,0,4.296,0S29.347,3.866,29.007,2.952"/>
	<path fill="#F6CBB9" d="M24.8,18.872l3.508-2.204l0.01-0.006c0.391-0.245,0.711-0.585,0.936-0.985
		c0.596,0.121,1.187,0.262,1.753,0.464l-0.061,0.122l-0.036,0.074c-0.16,0.324-0.358,0.625-0.587,0.899
		c-0.279,0.23-0.542,0.479-0.792,0.742c-0.088,0.064-0.177,0.127-0.271,0.185l-3.517,2.21c-0.338,0.212-0.765,0.169-1.051-0.078
		c-0.065-0.057-0.124-0.123-0.173-0.201C24.26,19.679,24.385,19.132,24.8,18.872"/>
	<path fill="#E2EBF5" d="M29.065,15.228l1.547-5.872c0.155-0.555,0.734-0.877,1.29-0.72c0.555,0.156,0.877,0.734,0.719,1.29
		l-1.536,5.501l0.187-0.018c-0.228,0.679-0.336,1.404-0.375,2.131l-0.122,0.012c-0.529,0.141-1.093-0.007-1.485-0.392
		c-0.021-0.019-0.037-0.037-0.056-0.057C28.855,16.699,28.914,15.763,29.065,15.228"/>
	<path fill="#FFFFFF" d="M32.656,32.517c0.203-0.004,0.381,0.156,0.46,0.344s0.08,0.396,0.081,0.6c0,0.177-0.008,0.376-0.134,0.501
		c-0.082,0.08-0.198,0.113-0.31,0.145c-0.209,0.055-0.419,0.111-0.634,0.131c-0.243,0.021-0.49-0.008-0.731,0.029
		c-0.154,0.023-0.304,0.072-0.456,0.109c-0.43,0.1-0.883,0.088-1.307-0.033c-0.095-0.029-0.192-0.064-0.254-0.141
		c-0.103-0.127-0.067-0.324,0.036-0.449c0.104-0.127,0.256-0.199,0.404-0.266c0.445-0.205,0.891-0.41,1.336-0.614
		c0.438-0.2,0.89-0.404,1.371-0.416c0.153-0.003,0.356,0.065,0.342,0.22L32.656,32.517z"/>
	<path fill="#E2EDF6" d="M32.312,33.267l0.044-0.003c0.295-0.024,0.516-0.283,0.49-0.578l-0.073-0.9
		c-0.024-0.295-0.282-0.515-0.576-0.491l-0.045,0.003c-0.295,0.023-0.514,0.282-0.49,0.577l0.073,0.903
		C31.759,33.073,32.016,33.292,32.312,33.267"/>
	<path fill="#FFFFFF" d="M34.283,34.946c-0.084,0.156-0.172,0.307-0.254,0.461c-0.085,0.156-0.168,0.314-0.229,0.48
		c-0.09,0.248-0.26,0.727-0.046,0.951c0.32,0.338,0.844,0.049,1.104-0.189c0.388-0.355,0.749-0.738,1.079-1.148
		c0.142-0.176,0.28-0.363,0.324-0.586c0.132-0.678-0.264-1.639-1.096-1.414c-0.305,0.082-0.435,0.296-0.507,0.572
		C34.578,34.382,34.437,34.667,34.283,34.946"/>
	<path fill="#E2EDF6" d="M35.35,34.622L35.35,34.622c0.309,0,0.559-0.25,0.559-0.559v-0.86c0-0.309-0.25-0.559-0.559-0.559
		c-0.308,0-0.558,0.25-0.558,0.559v0.86C34.792,34.372,35.042,34.622,35.35,34.622"/>
	<path fill="#BCB28C" d="M33.017,15.803l2.816,0.977l1.126,1.285l-0.337,8.102l-0.393,7.074c0,0.372-0.301,0.674-0.673,0.674h-0.463
		c-0.351,0-0.643-0.27-0.672-0.618l-0.71-8.446l0.026-3.199l-0.846-0.499l-0.93,5.71l0.977,4.977
		c0.02,0.393-0.311,0.714-0.703,0.685l-0.325-0.022c-0.307-0.023-0.557-0.256-0.602-0.56l-1.855-4.926
		c-0.172-0.492-0.223-1.018-0.149-1.533l1.334-8.422L33.017,15.803z"/>
	<path fill="#FFFFFF" d="M30.636,10.247l-0.683,6.868c-0.06,0.599,0.272,1.165,0.821,1.405l1.826,0.802
		c0.814,0.502,1.76,0.71,2.695,0.616c0.326-0.036,0.653-0.106,0.969-0.22l0.692-0.245l-0.258-8.728
		c-0.013-0.365-0.156-0.706-0.402-0.967c-0.092-0.101-0.201-0.189-0.324-0.264l-0.617-0.39l-0.173-0.108
		c-0.467-0.326-1.374-0.664-2.188-0.763c-0.162-0.021-0.316-0.031-0.464-0.031c-0.328,0-0.618,0.053-0.829,0.175
		C31.044,8.781,30.636,9.484,30.636,10.247"/>
	<path fill="#E2EBF5" d="M35.296,19.937c0.326-0.035,0.653-0.105,0.969-0.219l0.692-0.245L36.7,10.746
		c-0.014-0.366-0.157-0.707-0.403-0.967c-0.138,0.014-0.274,0.035-0.407,0.067c-0.04,0.011-0.081,0.024-0.113,0.046
		c-0.189,0.052-0.369,0.126-0.499,0.263c-0.306,0.32-0.23,0.841-0.081,1.259c0.148,0.421,0.351,0.859,0.235,1.288
		c-0.084,0.306-0.319,0.556-0.383,0.869c-0.13,0.66,0.569,2.312,0.503,2.982c-0.039,0.383-0.317,0.692-0.492,1.033
		C34.687,18.328,34.838,19.232,35.296,19.937"/>
	<path fill="#F6CBB9" d="M33.668,10.313c0.811,0,1.445-0.456,1.445-1.037c0-0.582-0.635-1.037-1.445-1.037
		c-0.812,0-1.446,0.455-1.446,1.037C32.222,9.857,32.856,10.313,33.668,10.313"/>
	<path fill="#F6CBB9" d="M32.793,8.88L32.793,8.88L32.793,8.88V7.12c0-0.217,0.092-0.414,0.238-0.563
		c0.085-0.085,0.19-0.154,0.31-0.201c0.095-0.033,0.193-0.052,0.299-0.056c0.049,0,0.099,0.004,0.144,0.007
		c0.194,0.023,0.369,0.108,0.503,0.234c0.158,0.147,0.255,0.352,0.255,0.578v1.76V8.88v0.086h-0.009
		c-0.061,0.287-0.418,0.501-0.864,0.501c-0.447,0-0.806-0.214-0.865-0.501h-0.01V8.88z"/>
	<path fill="#F6CBB9" d="M31.228,6.921c0.017,0.472,0.098,0.938,0.375,1.285c0.305,0.386,0.797,0.54,1.264,0.553
		c0.258,0.006,0.523-0.031,0.752-0.167c0.432-0.257,0.633-0.813,0.742-1.337c0.039-0.199,0.069-0.401,0.081-0.604
		c0.008-0.23-0.006-0.464-0.067-0.685c-0.132-0.479-0.464-0.874-0.862-1.123c-0.396-0.248-0.853-0.362-1.309-0.414
		c-0.22-0.028-0.458-0.034-0.656,0.079c-0.132,0.074-0.235,0.216-0.266,0.369c-0.015,0.055-0.015,0.113-0.006,0.169
		c-0.014,0.429-0.027,0.855-0.043,1.285C31.228,6.525,31.223,6.721,31.228,6.921"/>
	<path fill="#896D6D" d="M34.321,6.571c0,0,0.005,0.003,0.008,0.007c0.003-0.013,0.003-0.028,0.003-0.041
		C34.332,6.549,34.329,6.561,34.321,6.571"/>
	<path fill="#896D6D" d="M34.321,6.571C34.31,6.565,34.3,6.558,34.29,6.553c-0.027-0.017-0.067-0.028-0.086,0
		c-0.015,0.018,0.008,0.04,0.024,0.042l-0.067,0.07C34.227,6.685,34.298,6.638,34.321,6.571"/>
	<path fill="#896D6D" d="M34.321,8.025c0.011-0.015,0.021-0.03,0.031-0.045c0.001,0.011,0,0.022,0.002,0.031L34.321,8.025z"/>
	<path fill="#896D6D" d="M30.758,4.718c0.072-0.09,0.212-0.087,0.31-0.051c-0.142-0.211,0.477-0.188,0.462-0.462
		c-0.033-0.691,0.028-0.38,0.52-0.235c0.174,0.051,0.12-0.556,0.289-0.49c0.076-0.044,0.157-0.081,0.24-0.104
		c0.477-0.13,0.979,0.027,1.432,0.235c0.197,0.091,0.391,0.19,0.564,0.327c0.635,0.503,0.87,1.507,0.581,2.298
		c-0.126,0.559-0.252,1.827-0.757,1.651c-0.271-0.094-0.156-1.041-0.167-1.074c-0.104-0.386-0.393-0.599-0.442-1.062l-0.261-0.155
		c-0.83,0.142-1.695,0.031-2.471-0.324c-0.106-0.049-0.215-0.105-0.286-0.204C30.701,4.967,30.681,4.813,30.758,4.718"/>
	<path fill="#F6CBB9" d="M34.077,6.708c-0.095,0.004-0.157,0.131-0.128,0.229c0.03,0.098,0.125,0.158,0.219,0.167
		s0.186-0.027,0.271-0.07c0.16-0.082,0.316-0.203,0.386-0.382c0.072-0.179,0.025-0.423-0.134-0.51
		c-0.149-0.083-0.34,0.003-0.446,0.146c-0.106,0.143-0.147,0.329-0.187,0.509L34.077,6.708z"/>
	<path fill="#F6CBB9" d="M28.313,20.142c0.292,0.241,0.719,0.275,1.052,0.056l3.466-2.29c0.698-0.461,1.254-1.105,1.605-1.864
		l2.117-4.55c0.207-0.446,0.015-0.973-0.43-1.18c-0.443-0.206-0.971-0.014-1.178,0.431l-2.116,4.552
		c-0.215,0.461-0.552,0.851-0.976,1.132l-3.467,2.29c-0.408,0.271-0.521,0.82-0.25,1.228C28.186,20.023,28.244,20.087,28.313,20.142
		"/>
	<path fill="#FFFFFF" d="M31.718,18.469c-0.319-0.232-0.591-0.527-0.803-0.862c-0.237-0.374-0.117-0.871,0.252-1.114l0.476-0.316
		c0.387-0.254,0.695-0.612,0.89-1.031l2.165-4.656c0.137-0.293,0.368-0.536,0.666-0.658c0.325-0.135,0.683-0.127,1,0.021
		c0.619,0.288,0.889,1.027,0.601,1.647l-2.183,4.692c-0.389,0.837-1.001,1.548-1.771,2.056l-0.359,0.237
		C32.367,18.671,31.994,18.669,31.718,18.469"/>
	<path fill="#F6B563" d="M35.313,5.617l-1.145-0.284c0,0-1.301,0.216-2.583-0.39c-1.281-0.606-0.653-0.531-0.653-0.531
		s0.284-1.29,2.11-1.072C35.903,3.682,35.313,5.617,35.313,5.617"/>
	<path fill="#896D6D" d="M23.052,19.802c0,0-1.304,5.419-1.729,7.137c-0.426,1.72-1.237,5.896,0,6.283
		c1.238,0.386,1.971,0.31,1.971,0.31v-0.503c0,0-1.112-0.227-1.516-0.497c-0.263-0.176-0.531-1.708,0.396-5.861
		c0.508-2.274,1.119-5.976,1.119-5.976L23.052,19.802z"/>
	<path fill="#FCD56C" d="M23.052,18.718v15.273c0,0.287,0.188,0.541,0.465,0.623l1.521,0.455c0.489,0.146,1.019,0.117,1.489-0.084
		l2.242-0.951c0.336-0.143,0.554-0.474,0.549-0.839L29.14,18.718c0,0-2.228,1.199-3.342,0.979
		C24.125,19.37,23.052,18.718,23.052,18.718"/>
	<path fill="#1E3F73" d="M23.052,18.839c0,0-0.303-0.5,0.738-0.844c1.039-0.344,2.396-0.813,2.396-0.813s0.354-0.201,0.825,0
		c0.468,0.201,2.129,0.939,2.129,1.298S29,18.92,28.7,19.059c-0.298,0.137-1.715,0.854-2.625,0.863
		C25.164,19.934,24.324,19.725,23.052,18.839"/>
	<path fill="#1E3F73" d="M24.152,19.495l-0.464-8.014c0,0,0.346-1.899,0.814-2.17c0.468-0.271,0.998,0.249,0.428,1.299l-0.571,1.05
		l0.57,8.126C24.93,19.786,24.508,19.778,24.152,19.495"/>
	<path fill="#8E959C" d="M26.943,9.008c0,0-2.047,1.088-2.013,1.602c0.033,0.513-0.001,9.176-0.001,9.176s0.464,0.087,0.666,0.12
		l-0.062-9.051c0,0,1.718-0.639,2-0.974S27.513,9.042,26.943,9.008"/>
	<path fill="#1E3F73" d="M26.516,11.079l0.055,8.785l0.596-0.163l-0.088-8.377c0,0,1.476-0.537,1.442-1.274
		C28.486,9.311,26.66,10.296,26.516,11.079"/>
	<path fill="#BAC3CB" d="M27.641,19.529l0.592-0.252c0,0,0.67-8.09,0.527-8.455c-0.094-0.239-1.444-0.712-1.557-0.324
		c-0.081,0.284,0.518,0.678,0.845,0.869c0.128,0.074,0.196,0.213,0.186,0.359L27.641,19.529z"/>
	<path fill="#F6B563" d="M28.721,21.365c0,0-2.081,0.544-2.16,1.052c-0.078,0.509-0.059,7.663,0,7.874
		c0.06,0.212,0.693,0.532,0.893,0.458c0.2-0.074,1.456-0.35,1.603-0.626c0.147-0.274,0.292-0.24,0.253-1.377
		c-0.037-1.136,0.02-6.817-0.043-7.06C29.203,21.445,29.228,21.216,28.721,21.365"/>
	<path fill="#896D6D" d="M29.056,21.1c0,0-2.463,0.53-2.495,1.316c-0.031,0.787,0,1.439,0,1.439l2.748-1.084
		C29.309,22.772,29.391,20.834,29.056,21.1"/>
</g>
</svg>
