<?xml version="1.0" encoding="utf-8"?>
<!-- Generator: Adobe Illustrator 16.0.0, SVG Export Plug-In . SVG Version: 6.00 Build 0)  -->
<!DOCTYPE svg PUBLIC "-//W3C//DTD SVG 1.1//EN" "http://www.w3.org/Graphics/SVG/1.1/DTD/svg11.dtd">
<svg version="1.1" id="레이어_1" xmlns="http://www.w3.org/2000/svg" xmlns:xlink="http://www.w3.org/1999/xlink" x="0px"
	 y="0px" width="18.303px" height="44.032px" viewBox="0 0 18.303 44.032" enable-background="new 0 0 18.303 44.032"
	 xml:space="preserve">
<path fill="#3377BC" d="M10.249,36.757c-0.177-0.003-0.33,0.137-0.397,0.299c-0.07,0.164-0.071,0.347-0.071,0.522
	c-0.001,0.154,0.007,0.328,0.116,0.436c0.071,0.07,0.173,0.1,0.269,0.127c0.181,0.047,0.363,0.097,0.551,0.113
	c0.211,0.018,0.427-0.007,0.637,0.026c0.134,0.02,0.264,0.063,0.396,0.094c0.373,0.087,0.769,0.077,1.137-0.029
	c0.081-0.024,0.167-0.056,0.221-0.122c0.089-0.109,0.059-0.281-0.031-0.391c-0.089-0.11-0.224-0.173-0.352-0.232
	c-0.388-0.178-0.774-0.354-1.163-0.532c-0.379-0.175-0.773-0.353-1.191-0.363c-0.133-0.003-0.309,0.059-0.297,0.191L10.249,36.757z"
	/>
<path fill="#F8D1C1" d="M10.53,37.408L10.53,37.408c-0.267-0.021-0.466-0.254-0.443-0.521l0.061-0.747
	c0.021-0.267,0.256-0.466,0.522-0.442c0.267,0.021,0.466,0.255,0.444,0.521l-0.061,0.745C11.031,37.23,10.798,37.431,10.53,37.408"
	/>
<path fill="#3377BC" d="M8.835,38.87c0.074,0.134,0.149,0.267,0.221,0.4c0.073,0.136,0.146,0.272,0.199,0.418
	c0.078,0.214,0.226,0.633,0.041,0.827c-0.279,0.293-0.734,0.043-0.961-0.165c-0.337-0.309-0.651-0.643-0.938-0.998
	c-0.123-0.153-0.244-0.316-0.282-0.509c-0.116-0.59,0.229-1.426,0.953-1.23c0.265,0.071,0.377,0.257,0.439,0.497
	C8.577,38.379,8.702,38.627,8.835,38.87"/>
<path fill="#F8D1C1" d="M7.907,38.588L7.907,38.588c-0.268,0-0.484-0.218-0.484-0.486v-0.748c0-0.268,0.217-0.484,0.484-0.484
	s0.485,0.217,0.485,0.484v0.748C8.393,38.37,8.175,38.588,7.907,38.588"/>
<path fill="#F3A67A" d="M10.278,22.225l-2.45,0.85l-0.978,1.117l0.292,7.045v6.15c0,0.323,0.263,0.586,0.584,0.586h0.404
	c0.305,0,0.559-0.233,0.584-0.536l0.617-7.345l0.203-2.78l0.51-0.208l0.233,3.334l-0.275,5.73c-0.017,0.342,0.271,0.621,0.612,0.596
	l0.283-0.021c0.267-0.021,0.482-0.222,0.522-0.485l0.925-6.336v-6.604L10.278,22.225z"/>
<path fill="#FFE89B" d="M11.716,24.812l-1.076,0.473c-0.709,0.438-1.531,0.617-2.344,0.536c-0.283-0.032-0.568-0.094-0.844-0.191
	c-0.615-0.111-0.825-0.649-0.825-1.262c0-0.044,0.002-0.088,0.006-0.135l0.441-6.406c0.013-0.317,0.138-0.613,0.351-0.839
	c0.08-0.089,0.176-0.165,0.282-0.229l0.537-0.339l0.149-0.095c0.406-0.284,1.194-0.577,1.903-0.663
	c0.142-0.019,0.273-0.027,0.403-0.027c0.284,0,0.538,0.045,0.722,0.155c0.571,0.33,0.925,0.941,0.925,1.604l0.767,5.418
	C13.198,23.661,12.498,24.468,11.716,24.812"/>
<path fill="#3377BC" d="M9.711,17.006c-0.534,0-0.952-0.301-0.952-0.684s0.418-0.683,0.952-0.683s0.952,0.3,0.952,0.683
	S10.245,17.006,9.711,17.006"/>
<path fill="#F8D1C1" d="M10.473,16.205L10.473,16.205v-1.529c0-0.189-0.081-0.361-0.21-0.49c-0.071-0.074-0.164-0.134-0.268-0.175
	c-0.082-0.028-0.168-0.046-0.26-0.048c-0.042,0-0.085,0.002-0.125,0.006c-0.169,0.02-0.321,0.094-0.437,0.203
	C9.036,14.3,8.95,14.479,8.95,14.676v1.529v0.074h0.01c0.053,0.251,0.363,0.437,0.751,0.437c0.389,0,0.7-0.186,0.753-0.437h0.009
	V16.205z"/>
<path fill="#231815" d="M11.172,12.277c-0.405-0.438-1.072-0.641-1.698-0.549c-0.632,0.091-1.194,0.458-1.546,0.947
	c-0.162,0.226-0.283,0.482-0.279,0.753c0.004,0.207,0.081,0.407,0.173,0.596c0.268,0.556,0.676,1.039,1.17,1.4
	c0.104,0.076,0.232,0.15,0.365,0.124c-0.025-0.301-0.226-0.571-0.393-0.848c-0.169-0.283-0.311-0.625-0.189-0.938
	c0.099-0.25,0.345-0.426,0.584-0.582c0.563-0.366,1.156-0.695,1.771-0.986c0.055-0.025,0.117-0.065,0.111-0.121
	c-0.004-0.058-0.126-0.036-0.091,0.009L11.172,12.277z"/>
<path fill="#F8D1C1" d="M11.979,13.847c0.153,0.381,0.254,0.779,0.157,1.153c-0.106,0.415-0.443,0.711-0.81,0.885
	c-0.202,0.098-0.427,0.162-0.657,0.136c-0.433-0.053-0.79-0.423-1.063-0.801c-0.101-0.144-0.196-0.295-0.277-0.452
	c-0.088-0.179-0.16-0.37-0.188-0.566c-0.064-0.428,0.06-0.859,0.287-1.197c0.229-0.338,0.55-0.589,0.894-0.792
	c0.166-0.101,0.354-0.189,0.551-0.171c0.131,0.014,0.263,0.089,0.342,0.2c0.031,0.04,0.051,0.086,0.063,0.132
	c0.163,0.337,0.325,0.67,0.488,1.008C11.838,13.531,11.913,13.686,11.979,13.847"/>
<path fill="#887070" d="M9.396,14.662c-0.002,0.002-0.003,0.005-0.005,0.008c-0.006-0.009-0.012-0.021-0.017-0.031
	C9.38,14.649,9.387,14.658,9.396,14.662"/>
<path fill="#887070" d="M9.396,14.662c0.007-0.008,0.011-0.016,0.018-0.024c0.017-0.023,0.044-0.047,0.069-0.031
	c0.018,0.009,0.007,0.034-0.006,0.043l0.08,0.032C9.512,14.719,9.438,14.708,9.396,14.662"/>
<path fill="#231815" d="M12.001,13.895c0.042,0.069,0.072,0.15,0.094,0.228c0.088,0.312,0.119,0.565,0.041,0.878
	c-0.106,0.415-0.443,0.711-0.81,0.886c-0.202,0.097-0.427,0.161-0.657,0.135c-0.433-0.053-0.79-0.423-1.063-0.801
	c-0.101-0.144-0.196-0.295-0.277-0.452c0.018-0.033,0.039-0.066,0.063-0.098c0.172,0.369,1.087,1.507,1.362,0.563
	c0.075-0.26-0.022-0.459,0.099-0.713c0.125-0.257,0.327-0.488,0.55-0.664c0.107-0.086,0.241-0.165,0.376-0.137
	C11.878,13.738,11.949,13.808,12.001,13.895"/>
<path fill="#3377BC" d="M9.91,15.817c-0.014-0.008-0.028-0.017-0.041-0.023c0.002,0.008,0.008,0.017,0.01,0.025L9.91,15.817z"/>
<path fill="#231815" d="M11.484,11.872c-0.004-0.076-0.021-0.15-0.051-0.221c-0.099-0.226-0.366-0.375-0.603-0.305
	c-0.207,0.062-0.338,0.261-0.497,0.408c-0.3,0.276-0.548,0.234-0.903,0.274c-0.292,0.031-0.582,0.23-0.793,0.429
	c-0.458,0.433-0.625,1.067-0.377,1.655c0.227,0.536,0.561,1.027,0.97,1.428c0.112,0.11,0.243,0.218,0.39,0.219
	c0.537,0.006-0.03-0.746-0.068-0.937c-0.116-0.654-0.494-1.094,0.059-1.485c0.274-0.194,1.002-0.389,1.276-0.582
	c0.166-0.119,0.336-0.24,0.453-0.407C11.437,12.212,11.492,12.039,11.484,11.872"/>
<path fill="#F8D1C1" d="M9.412,14.685c0.075-0.029,0.169,0.048,0.182,0.136c0.011,0.088-0.043,0.17-0.114,0.21
	c-0.072,0.04-0.157,0.044-0.241,0.041c-0.157-0.009-0.324-0.05-0.442-0.167c-0.12-0.117-0.169-0.326-0.074-0.451
	c0.091-0.12,0.273-0.12,0.407-0.043c0.135,0.076,0.233,0.21,0.328,0.339L9.412,14.685z"/>
<path fill="#3377BC" d="M9.38,14.291c-0.225,0-0.371-0.121-0.442-0.277c-0.01,0.164,0.081,0.32,0.169,0.461
	c0.07,0.114,0.141,0.228,0.211,0.341c0.044,0.07,0.114,0.152,0.194,0.127c0.064-0.02,0.088-0.098,0.088-0.164
	c-0.001-0.174-0.102-0.329-0.161-0.492C9.419,14.287,9.401,14.291,9.38,14.291"/>
</svg>
