<?xml version="1.0" encoding="utf-8"?>
<!-- Generator: Adobe Illustrator 16.0.0, SVG Export Plug-In . SVG Version: 6.00 Build 0)  -->
<!DOCTYPE svg PUBLIC "-//W3C//DTD SVG 1.1//EN" "http://www.w3.org/Graphics/SVG/1.1/DTD/svg11.dtd">
<svg version="1.1" id="레이어_1" xmlns="http://www.w3.org/2000/svg" xmlns:xlink="http://www.w3.org/1999/xlink" x="0px"
	 y="0px" width="18.303px" height="44.032px" viewBox="0 0 18.303 44.032" enable-background="new 0 0 18.303 44.032"
	 xml:space="preserve">
<g>
	<path fill="#FFE89B" d="M6.546,22.353c-0.482-0.032-0.847-0.454-0.847-0.938l0.113-4.52c0-0.395,0.244-0.761,0.62-0.877
		c0.624-0.191,0.97,0.271,0.97,0.864l0.112,4.563C7.515,21.968,7.075,22.386,6.546,22.353"/>
	<path fill="#F8D1C1" d="M6.606,17.032c-0.282,0-0.511-0.126-0.511-0.408v-1.298c0-0.282,0.229-0.511,0.511-0.511
		s0.511,0.229,0.511,0.511v1.298C7.117,16.906,6.889,17.032,6.606,17.032"/>
	<path fill="#F8D1C1" d="M7.888,15.105c0,0.493-0.4,0.894-0.895,0.894c-0.493,0-0.894-0.4-0.894-0.894
		c0-0.494,0.4-0.895,0.894-0.895C7.487,14.211,7.888,14.611,7.888,15.105"/>
	<path fill="#FFE89B" d="M5.737,20.956c-0.104,0.251-0.092,0.547,0.054,0.8l2.135,3.687c0.252,0.435,0.808,0.582,1.241,0.331
		c0.435-0.251,1.731-0.541,1.481-0.975l-3.285-3.953c-0.252-0.434-0.808-0.582-1.241-0.33C5.941,20.62,5.809,20.776,5.737,20.956"/>
</g>
</svg>
