<?xml version="1.0" encoding="utf-8"?>
<!-- Generator: Adobe Illustrator 16.0.0, SVG Export Plug-In . SVG Version: 6.00 Build 0)  -->
<!DOCTYPE svg PUBLIC "-//W3C//DTD SVG 1.1//EN" "http://www.w3.org/Graphics/SVG/1.1/DTD/svg11.dtd">
<svg version="1.1" id="레이어_1" xmlns="http://www.w3.org/2000/svg" xmlns:xlink="http://www.w3.org/1999/xlink" x="0px"
	 y="0px" width="23.928px" height="24.355px" viewBox="26.024 14.149 23.928 24.355"
	 enable-background="new 26.024 14.149 23.928 24.355" xml:space="preserve">
<g>
	<path fill="#32416D" d="M28.117,36.346l-0.281,0.039c-0.004-0.031-0.107-0.77-0.03-1.74c0.069-0.903,0.314-2.183,1.084-3.146
		c0.663-0.833,1.607-1.304,2.805-1.402l0.022,0.281c-1.116,0.093-1.993,0.527-2.606,1.297
		C27.719,33.417,28.112,36.318,28.117,36.346"/>
	<path fill="#32416D" d="M27.411,38.445l-0.278,0.059c-0.002-0.013-0.252-1.205-0.247-2.688c0.003-1.379,0.232-3.301,1.301-4.623
		c0.84-1.043,2.073-1.574,3.662-1.579l0.002,0.282c-1.501,0.006-2.659,0.5-3.443,1.473C26.453,33.789,27.401,38.399,27.411,38.445"
		/>
	<polygon fill="#32416D" points="33.771,30.835 31.887,28.359 30.728,29.209 29.574,33.837 	"/>
	<path fill="#F5A900" d="M48.87,16.317l-1.008-1.137l-8.046,7.121l0.167,0.191l-5.928,5.298l-0.011-0.011l-1.068,0.571l-0.136-0.152
		l-0.346,0.306l0.06,0.065l-1.308,1.077c-0.426,0.35-0.461,0.987-0.076,1.382c0.348,0.355,0.913,0.382,1.289,0.056l1.316-1.138
		l0.037,0.042l0.346-0.307l-0.114-0.128l0.649-0.983l0.004,0.004l5.959-5.326l0.168,0.189L48.87,16.317z"/>
	<path fill="none" stroke="#1E3F73" stroke-width="0.844" stroke-linecap="round" stroke-linejoin="round" d="M48.87,16.317
		l-1.008-1.137l-8.046,7.121l0.167,0.191l-5.928,5.298l-0.011-0.011l-1.068,0.571l-0.136-0.152l-0.346,0.306l0.06,0.065
		l-1.308,1.077c-0.426,0.35-0.461,0.987-0.076,1.382c0.348,0.355,0.913,0.382,1.289,0.056l1.316-1.138l0.037,0.042l0.346-0.307
		l-0.114-0.128l0.649-0.983l0.004,0.004l5.959-5.326l0.168,0.189L48.87,16.317z"/>
</g>
</svg>
