<?xml version="1.0" encoding="utf-8"?>
<!-- Generator: Adobe Illustrator 16.0.0, SVG Export Plug-In . SVG Version: 6.00 Build 0)  -->
<!DOCTYPE svg PUBLIC "-//W3C//DTD SVG 1.1//EN" "http://www.w3.org/Graphics/SVG/1.1/DTD/svg11.dtd">
<svg version="1.1" id="레이어_1" xmlns="http://www.w3.org/2000/svg" xmlns:xlink="http://www.w3.org/1999/xlink" x="0px"
	 y="0px" width="16.976px" height="14.303px" viewBox="50.466 34.081 16.976 14.303"
	 enable-background="new 50.466 34.081 16.976 14.303" xml:space="preserve">
<g>
	<path fill="#674B25" d="M54.422,41.76c0.195-0.143,0.422-0.217,0.646-0.227c-0.107-0.438,0.043-0.92,0.422-1.213
		c-0.111-0.451,0.049-0.945,0.445-1.234c0.118-0.087,0.246-0.146,0.38-0.184c-0.274-0.836,0.004-1.787,0.751-2.336
		c0.932-0.684,2.24-0.482,2.922,0.45l0.004,0.003c0.021-0.018,0.039-0.033,0.061-0.047c0.509-0.375,1.216-0.28,1.609,0.205
		c0.006-0.293,0.146-0.576,0.396-0.765c0.434-0.317,1.043-0.225,1.361,0.21c0.221,0.301,0.242,0.687,0.092,1.001l0.232,0.319
		l-7.223,5.296l-0.243-0.33c-0.051,0.292-0.204,0.564-0.463,0.753c-0.524,0.385-1.265,0.272-1.647-0.255
		C53.784,42.885,53.897,42.148,54.422,41.76"/>
	<path fill="#F5A900" d="M51.792,42.91l1.851,1.445c1.026,0.371,2.063,0.729,3.099,1.079c1.11,0.377,5.663,1.693,6.85,1.564
		c1.684-0.182,2.381-1.692,2.51-3.199c0.093-1.076,0.053-6.91-0.197-7.254c-0.416-0.57-1.186-0.84-2.465,0.103
		c-0.861,0.631-9.08,6.656-9.08,6.656L51.792,42.91z"/>
	<path fill="none" stroke="#1E3F73" stroke-width="0.844" stroke-linecap="round" stroke-linejoin="round" d="M51.792,42.91
		l1.851,1.445c1.026,0.371,2.063,0.729,3.099,1.079c1.11,0.377,5.663,1.693,6.85,1.564c1.684-0.182,2.381-1.692,2.51-3.199
		c0.093-1.076,0.053-6.91-0.197-7.254c-0.416-0.57-1.186-0.84-2.465,0.103c-0.861,0.631-9.08,6.656-9.08,6.656L51.792,42.91z"/>
</g>
</svg>
