<?xml version="1.0" encoding="utf-8"?>
<!-- Generator: Adobe Illustrator 16.0.0, SVG Export Plug-In . SVG Version: 6.00 Build 0)  -->
<!DOCTYPE svg PUBLIC "-//W3C//DTD SVG 1.1//EN" "http://www.w3.org/Graphics/SVG/1.1/DTD/svg11.dtd">
<svg version="1.1" id="레이어_1" xmlns="http://www.w3.org/2000/svg" xmlns:xlink="http://www.w3.org/1999/xlink" x="0px"
	 y="0px" width="16.585px" height="12.903px" viewBox="38.167 31.895 16.585 12.903"
	 enable-background="new 38.167 31.895 16.585 12.903" xml:space="preserve">
<g>
	<path fill="#674B25" d="M41.53,38.596c0.217-0.16,0.467-0.242,0.721-0.253c-0.123-0.488,0.046-1.021,0.465-1.347
		c-0.124-0.501,0.057-1.048,0.498-1.371c0.13-0.097,0.271-0.163,0.421-0.203c-0.306-0.929,0.003-1.986,0.833-2.596
		c1.035-0.758,2.488-0.535,3.248,0.5c0.001,0.001,0.001,0.002,0.003,0.003c0.021-0.019,0.042-0.036,0.065-0.053
		c0.565-0.415,1.353-0.309,1.789,0.229c0.008-0.324,0.158-0.641,0.439-0.848c0.482-0.354,1.159-0.249,1.512,0.232
		c0.247,0.334,0.271,0.763,0.102,1.111l0.262,0.354l-8.023,5.885l-0.27-0.367c-0.055,0.323-0.23,0.626-0.516,0.836
		c-0.584,0.427-1.403,0.301-1.83-0.281C40.821,39.844,40.946,39.023,41.53,38.596"/>
	<path fill="#595961" d="M38.608,39.741l2.053,1.605c1.144,0.41,2.293,0.809,3.442,1.198c1.234,0.418,6.29,1.88,7.608,1.738
		c1.869-0.2,2.643-1.88,2.787-3.553c0.104-1.196,0.059-7.678-0.219-8.06c-0.463-0.634-1.314-0.931-2.738,0.111
		c-0.957,0.701-10.084,7.396-10.084,7.396L38.608,39.741z"/>
	<path fill="#9D9B99" d="M43.263,42.259l11.189-8.207c-0.041-0.747-0.1-1.279-0.172-1.379c-0.463-0.633-1.314-0.933-2.738,0.111
		c-0.956,0.702-10.084,7.396-10.084,7.396l-2.851-0.438l2.054,1.604C41.524,41.658,42.394,41.961,43.263,42.259"/>
</g>
</svg>
