<?xml version="1.0" encoding="utf-8"?>
<!-- Generator: Adobe Illustrator 16.0.0, SVG Export Plug-In . SVG Version: 6.00 Build 0)  -->
<!DOCTYPE svg PUBLIC "-//W3C//DTD SVG 1.1//EN" "http://www.w3.org/Graphics/SVG/1.1/DTD/svg11.dtd">
<svg version="1.1" id="레이어_1" xmlns="http://www.w3.org/2000/svg" xmlns:xlink="http://www.w3.org/1999/xlink" x="0px"
	 y="0px" width="93.158px" height="70.443px" viewBox="0 0 93.158 70.443" enable-background="new 0 0 93.158 70.443"
	 xml:space="preserve">
<g>
	<path fill="#3A393A" d="M48.047,26.351l-0.311,0.044c-0.005-0.034-0.119-0.853-0.036-1.933c0.079-1.002,0.352-2.423,1.205-3.493
		c0.738-0.923,1.787-1.448,3.115-1.558l0.026,0.313c-1.239,0.103-2.214,0.586-2.896,1.44C47.605,23.097,48.041,26.318,48.047,26.351
		"/>
	<path fill="#3A393A" d="M47.262,28.683l-0.306,0.065c-0.003-0.014-0.28-1.339-0.276-2.988c0.003-1.531,0.259-3.665,1.445-5.136
		c0.934-1.156,2.303-1.746,4.069-1.752l0.001,0.314c-1.668,0.005-2.954,0.557-3.827,1.636C46.199,23.51,47.251,28.632,47.262,28.683
		"/>
	<polygon fill="#3A393A" points="52.235,17.48 50.948,18.423 49.354,24.82 54.58,20.68 	"/>
	<g>
		<path fill="#BD9730" d="M74.273,7.963c-0.296-0.334-0.776-0.408-1.153-0.205c-0.063,0.034-21.898,14.164-26.578,18.543
			c0,0-1.258,20.09-1.264,20.18c-0.023,0.295,0.056,0.6,0.246,0.858c0.422,0.577,1.233,0.7,1.811,0.277
			c0.234-0.173,0.394-0.409,0.473-0.666c0.052-0.174,2.724-10.916,4.814-18.163C52.932,27.714,74.188,9.29,74.188,9.29
			C74.578,8.947,74.616,8.353,74.273,7.963"/>
		<path fill="#3A393A" d="M72.907,9.043c-0.195-0.303-0.107-0.706,0.193-0.9c0.303-0.194,0.706-0.107,0.9,0.196
			c0.195,0.301,0.105,0.704-0.194,0.898C73.504,9.432,73.101,9.345,72.907,9.043"/>
	</g>
</g>
</svg>
