<?xml version="1.0" encoding="utf-8"?>
<!-- Generator: Adobe Illustrator 16.0.0, SVG Export Plug-In . SVG Version: 6.00 Build 0)  -->
<!DOCTYPE svg PUBLIC "-//W3C//DTD SVG 1.1//EN" "http://www.w3.org/Graphics/SVG/1.1/DTD/svg11.dtd">
<svg version="1.1" id="레이어_1" xmlns="http://www.w3.org/2000/svg" xmlns:xlink="http://www.w3.org/1999/xlink" x="0px"
	 y="0px" width="73.257px" height="27.086px" viewBox="0 0 73.257 27.086" enable-background="new 0 0 73.257 27.086"
	 xml:space="preserve">
<g>
	<path fill="#674B25" d="M71.014,25.168h1.09c2.346-5.072-3.765-8.471-5.492-8.525c-0.958-2.496-3.238-4.255-5.902-4.255
		c-0.79,0-1.543,0.162-2.238,0.443c-1.484-4.873-5.738-8.394-10.758-8.394c-0.832,0-1.641,0.098-2.421,0.28v20.451H71.014z"/>
	<path fill="#7A5B38" d="M72.104,25.168c0.026-0.228,0.041-0.459,0.041-0.695c0-3.205-2.598-5.804-5.804-5.804
		c-1.874,0-3.536,0.892-4.598,2.271c-0.187-3.715-3.249-6.672-7.011-6.672c-0.154,0-0.305,0.014-0.457,0.022v-0.022
		c0-6.885-5.58-12.465-12.465-12.465c-5.525,0-10.21,3.599-11.843,8.578c-0.768-0.288-1.595-0.452-2.465-0.452
		c-2.933,0-5.443,1.797-6.497,4.35c-2.851,0.082-5.273,1.854-6.299,4.355c-1.118-0.751-2.462-1.188-3.911-1.188
		c-3.881,0-7.029,3.146-7.029,7.027c0,0.235,0.013,0.467,0.035,0.695H72.104z"/>
</g>
</svg>
